<svg width="419" height="439" viewBox="0 0 419 439" fill="none" xmlns="http://www.w3.org/2000/svg">
<path d="M139.211 439C143.559 439 147.907 439 152.255 439C156.051 437.205 159.708 435.066 163.711 433.754C187.522 425.54 211.47 417.533 235.281 409.388C249.015 404.694 249.429 403.866 249.705 388.819C249.705 388.059 250.395 387.3 251.43 385.091C275.31 378.12 300.224 370.872 325.001 363.694C326.381 365.35 327.278 366.317 327.968 367.352C334.801 377.637 335.146 377.844 346.948 373.909C362.614 368.663 378.281 363.486 393.878 357.895C406.991 353.202 408.717 348.439 401.953 336.36C396.363 326.558 390.29 317.033 384.975 308.197C391.463 293.909 398.502 280.863 403.471 267.058C418.931 223.711 422.52 178.913 415.756 133.357C412.789 113.546 407.405 94.3574 398.226 76.2728C389.461 59.0165 377.315 45.2805 359.647 36.9975C349.018 32.0277 338.321 27.1269 327.278 23.3305C290.424 10.5608 252.258 4.90077 213.541 1.86367C145.146 -3.45127 77.925 2.34684 11.8771 20.8456C-25.4603 31.2684 -52.6525 54.3228 -69.7683 88.8354C-87.0222 123.555 -90.0589 160.414 -84.3996 198.24C-80.7418 222.606 -72.0458 245.177 -57.4145 265.126C-72.1148 297.775 -86.5391 329.871 -101.032 361.899C-101.653 363.348 -102.965 364.522 -104 365.764C-104 369.216 -104 372.736 -104 376.187C-102.137 377.153 -100.273 378.189 -98.3407 379.086C-86.6081 384.677 -75.1515 386.61 -62.1076 381.364C-43.6114 373.84 -24.287 368.456 -5.44579 361.692C1.73183 359.138 8.49534 358.655 16.018 360.587C45.9018 368.387 75.8546 375.635 105.807 383.159C114.572 385.367 123.268 387.645 132.93 390.061C128.513 400.415 124.373 409.457 120.784 418.707C117.54 427.266 119.058 430.165 127.547 433.754C131.412 435.618 135.277 437.343 139.211 439ZM353.504 47.2132C361.924 46.1778 367.238 51.8379 372.553 56.7387C385.458 68.4729 392.429 83.9346 398.157 100.086C409.062 131.01 410.373 163.037 408.648 195.341C407.129 223.78 400.987 251.252 389.53 277.412C383.043 292.253 374.761 305.989 362.545 317.033C356.403 322.555 349.846 327.179 338.39 329.25C365.444 308.266 378.005 281.416 386.563 252.356C394.638 225.091 398.571 196.998 397.122 168.628C396.156 149.647 393.464 130.527 389.392 111.959C383.94 87.1097 372.345 64.8836 353.711 46.9371C353.297 46.8681 352.883 46.799 352.538 46.592C352.4 46.4539 352.469 46.0398 352.4 45.6946C352.745 46.2468 353.159 46.73 353.504 47.2132ZM-38.5733 269.129C-51.7552 260.984 -58.4498 247.869 -64.5921 234.409C-71.4937 219.224 -75.0825 203.072 -76.8079 186.644C-80.4657 151.717 -75.4966 118.171 -58.4497 86.9717C-50.0989 71.6481 -38.8493 58.8094 -22.0785 46.8681C-26.5645 55.013 -29.8773 60.466 -32.6379 66.1261C-35.5366 71.9932 -38.4352 77.8604 -40.4367 84.0036C-59.485 143.296 -61.0033 202.52 -40.0916 261.743C-39.2634 264.09 -39.1944 266.713 -38.7803 269.198C-38.1592 269.405 -37.538 269.543 -36.9169 269.75C-37.1929 270.164 -37.538 270.579 -37.8141 270.993C-38.0212 270.372 -38.2972 269.75 -38.5733 269.129ZM334.525 36.3072C318.168 43.0717 306.574 52.5281 297.464 64.9527C287.87 78.0674 280.624 92.3556 275.31 107.541C260.333 150.613 256.123 194.789 262.68 239.862C265.854 261.881 271.721 283.21 282.763 302.813C289.665 315.1 298.292 325.799 310.577 333.322C312.578 334.565 314.234 336.222 317.133 338.499C309.541 339.742 303.606 341.191 297.533 341.605C265.095 343.883 238.317 332.287 224.238 301.019C219.476 290.389 215.404 279.276 212.574 267.956C203.809 233.029 202.429 197.619 207.053 161.864C211.815 125.143 223.548 90.9061 244.046 59.9829C250.809 49.7671 258.677 40.5868 268.891 33.4772C276.621 28.1623 285.11 24.4349 294.427 24.78C307.747 25.2632 320.239 29.6808 334.525 36.3072ZM141.902 212.045C95.1789 211.355 48.0413 206.316 0.558575 199.414C-1.30485 169.388 -0.476667 141.087 7.32209 112.511C55.9781 111.061 103.875 113.822 150.805 121.07C147.838 151.441 144.939 180.984 141.902 212.045ZM353.642 61.0873C353.642 65.4358 353.642 69.3703 353.642 73.2357C353.642 113.27 353.642 153.305 353.642 193.339C353.642 225.988 353.366 258.637 353.849 291.217C353.987 299.431 351.779 305.85 345.567 310.613C338.735 315.859 331.488 320.553 324.104 324.97C321.895 326.282 318.582 325.73 315.063 326.144C314.579 322.209 313.889 319.31 313.889 316.411C313.82 233.719 313.82 151.027 313.889 68.4039C313.889 53.3564 329.418 44.5902 342.393 52.252C346.465 54.5299 349.846 57.9811 353.642 61.0873ZM34.7903 49.353C82.8251 44.2451 130.377 43.4168 177.929 49.5601C169.371 71.9242 161.158 93.1839 152.945 114.72C150.874 114.72 148.666 114.996 146.596 114.651C103.461 108.3 60.05 106.092 16.5012 106.575C14.1546 106.575 11.8081 105.954 8.90944 105.539C14.4997 85.2461 22.1604 66.9544 34.7903 49.353ZM155.084 286.869C107.395 284.522 60.6711 279.069 15.535 266.299C6.35589 243.797 1.24873 220.052 2.62904 206.868C49.6286 211.01 96.5592 215.151 142.869 219.224C146.941 241.519 150.944 263.607 155.084 286.869ZM156.189 426.299C175.72 383.09 194.147 342.434 213.058 300.536C216.094 305.989 218.234 310.13 220.649 314.133C231.485 332.218 246.944 344.712 267.718 348.439C305.193 355.134 339.425 346.92 369.447 323.107C372.345 320.829 375.037 318.275 378.419 315.307C384.837 326.075 390.635 335.669 397.26 346.713C376.97 353.685 358.197 360.933 338.942 366.178C335.905 362.037 333.628 358.862 330.453 354.513C325.346 355.272 319.756 355.549 314.51 356.998C296.497 361.968 278.553 367.352 260.609 372.598C241.837 378.12 241.837 378.12 240.043 396.757C239.007 397.447 238.041 398.482 236.868 398.827C210.987 407.801 185.037 416.498 156.189 426.299ZM307.747 318.758C294.496 309.647 283.039 285.35 277.932 267.058C267.097 227.783 266.959 188.094 273.929 148.266C278.415 122.865 286.352 98.5679 300.569 76.756C302.364 74.064 304.71 71.7171 307.678 68.1278C307.747 152.408 307.747 234.824 307.747 318.758ZM155.568 340.363C127.271 340.156 69.5741 326.903 48.5934 318.896C45.8328 317.861 42.382 316.825 40.7946 314.617C31.8916 302.537 24.0239 289.768 18.5026 273.271C65.8473 285.005 112.295 290.389 158.673 293.012C161.71 300.95 164.333 307.852 167.024 314.824C163.228 323.245 159.501 331.528 155.568 340.363ZM359.509 68.4039C368.274 79.4479 373.036 90.561 376.97 101.95C388.288 135.082 389.944 169.25 386.701 203.693C384.285 229.302 378.626 254.22 367.445 277.688C365.513 281.761 363.166 285.695 360.958 289.699C360.475 289.422 359.992 289.215 359.509 288.939C359.509 215.98 359.509 143.089 359.509 68.4039ZM205.673 11.113C197.322 22.6402 189.454 33.4082 182.346 43.2097C158.052 41.9673 135.001 40.8629 112.019 39.6204C88.9675 38.447 65.9853 42.8646 40.7256 41.4841C51.6991 28.7145 60.8092 18.1536 76.5447 15.9448C116.781 10.1467 157.155 8.62813 197.736 10.2847C200.221 10.3538 202.636 10.7679 205.673 11.113ZM172.062 301.985C169.371 294.53 167.231 289.077 165.506 283.486C150.667 235.514 149.218 186.989 158.811 137.843C164.678 107.817 173.581 78.7577 189.109 52.252C196.563 39.5514 205.949 28.0932 214.645 16.1519C218.234 11.1821 222.789 10.0777 228.034 14.1501C171.234 68.8871 142.317 196.446 178.067 290.389C176.479 293.288 174.754 296.67 172.062 301.985ZM43.1412 24.2968C26.6465 42.0363 14.7758 61.1563 6.70094 82.4851C-1.02881 102.847 -5.72184 123.969 -8.06837 145.712C-13.9347 199.414 -5.51479 250.423 19.3308 298.534C20.8492 301.433 22.3675 304.332 23.9548 307.438C22.2985 307.852 21.4703 308.335 20.7801 308.128C12.9814 306.61 9.66863 300.467 6.76998 294.047C-24.356 225.229 -27.5998 154.892 -3.99648 83.3824C2.49099 63.8483 12.9123 46.2468 27.0605 31.0613C30.8564 26.9888 34.5833 22.4332 43.1412 24.2968ZM-30.8435 291.424C-11.3121 301.985 6.97702 311.856 22.9886 320.484C21.0562 323.866 18.7787 327.869 16.7082 331.528C5.59669 328.905 -4.47959 326.075 -14.6939 324.142C-24.4941 322.278 -29.2562 325.592 -31.3266 334.22C-33.3971 342.779 -30.4984 348.025 -21.7334 351.407C-19.3179 352.373 -16.7644 352.926 -12.4854 354.168C-30.3604 360.864 -46.7861 366.731 -66.3175 372.184C-53.8257 343.538 -42.3001 317.516 -30.8435 291.424ZM204.362 295.566C193.043 326.351 149.011 421.192 142.317 429.129C138.107 427.749 133.69 426.299 128.03 424.505C147.493 381.088 166.679 338.43 185.934 295.566C192.077 295.566 197.598 295.566 204.362 295.566ZM171.165 211.7C170.268 181.674 173.512 153.719 180.965 125.488C188.833 127.282 195.39 128.732 201.394 130.112C198.771 157.93 196.218 184.435 193.595 211.7C187.039 211.7 179.861 211.7 171.165 211.7ZM-94.821 370.872C-79.7065 337.326 -65.4203 305.574 -50.582 272.649C-45.4748 277.412 -41.748 280.794 -37.8141 284.453C-51.6172 315.652 -65.0752 345.954 -78.6713 376.532C-84.4686 374.461 -88.8166 372.943 -94.821 370.872ZM-20.0771 332.218C34.5832 345.609 87.6562 358.517 141.488 371.7C139.487 375.566 138.176 378.12 136.933 380.605C104.496 375.014 -20.0081 343.124 -22.8377 339.052C-22.2166 337.326 -21.3194 335.186 -20.0771 332.218ZM182.07 119.897C188.557 96.083 196.287 74.3401 209.193 53.8396C217.198 55.4962 224.514 57.0148 231.485 58.3953C221.822 80.8285 212.643 102.157 203.257 124.107C196.908 122.865 190.213 121.553 182.07 119.897ZM186.279 284.66C178.619 263.607 173.028 242.554 172.683 219.017C180.689 218.603 187.729 218.258 194.354 217.912C198.357 240.898 202.084 262.503 205.949 284.66C200.014 284.66 194.009 284.66 186.279 284.66ZM-24.08 113.477C-25.9434 140.742 -27.8068 167.248 -29.6702 194.513C-34.7084 193.547 -39.9536 192.58 -45.4058 191.476C-47.2692 164.901 -44.7847 140.19 -39.7465 114.996C-34.0873 114.513 -29.1181 114.03 -24.08 113.477ZM25.8183 333.806C36.4467 328.008 44.1764 327.524 53.2864 330.009C74.6123 335.876 96.3522 340.501 117.954 345.264C128.375 347.542 139.073 348.853 150.598 350.786C148.459 355.48 146.941 358.931 145.077 362.934C105.807 353.34 67.0206 343.883 25.8183 333.806ZM271.652 18.5678C259.16 30.302 247.565 41.139 234.797 53.1494C228.862 51.9759 221.339 50.4574 212.643 48.6627C221.339 34.5126 231.347 22.9854 244.391 14.1501C253.846 15.6687 262.749 17.1182 271.652 18.5678ZM-34.9154 249.181C-39.4015 232.408 -44.6466 216.532 -43.6114 198.102C-37.8141 199.138 -32.983 200.035 -28.2209 200.932C-24.8392 219.569 -21.6645 237.239 -18.3517 255.669C-24.218 253.391 -28.9801 251.528 -34.9154 249.181ZM-38.2282 108.715C-33.5351 89.5946 -27.4617 73.0286 -17.3855 58.3262C-14.5558 57.4979 -12.1403 56.5316 -9.58672 56.1174C-7.37822 55.7723 -5.10071 56.0484 -2.68517 56.0484C-6.34299 65.0907 -10.0008 73.4428 -13.1755 82.0019C-16.2812 90.423 -18.9038 98.9821 -21.6644 107.265C-27.3237 107.748 -32.0168 108.162 -38.2282 108.715ZM-30.9126 259.466C-24.3561 257.671 -20.1461 261.467 -15.453 263.331C-11.5882 273.754 -7.86133 283.624 -3.23728 296.187C-18.2137 285.902 -24.9772 273.478 -30.9126 259.466ZM10.7729 30.8542C11.463 31.6135 12.1532 32.3038 12.8433 33.063C6.63194 39.6895 4.56145 52.045 -11.2431 48.3176C-3.03026 41.8292 3.87131 36.3762 10.7729 30.8542Z" fill="#DCBF6F"/>
<path d="M334.525 36.3073C320.239 29.6809 307.747 25.2633 294.358 24.8491C285.041 24.573 276.552 28.2313 268.822 33.5463C258.608 40.5868 250.74 49.8362 243.976 60.0519C223.479 91.0442 211.746 125.212 206.984 161.933C202.36 197.688 203.74 233.098 212.505 268.025C215.335 279.345 219.407 290.458 224.169 301.088C238.248 332.356 265.026 343.952 297.464 341.675C303.468 341.26 309.472 339.811 317.064 338.568C314.165 336.291 312.509 334.565 310.508 333.392C298.292 325.937 289.665 315.169 282.694 302.882C271.652 283.279 265.854 261.951 262.611 239.932C256.054 194.858 260.264 150.682 275.241 107.61C280.555 92.3557 287.801 78.0675 297.395 65.0217C306.574 52.5282 318.168 43.0717 334.525 36.3073ZM245.081 307.024C235.626 301.295 234.245 292.391 231.347 284.867C220.856 257.671 215.473 218.879 220.58 205.557C223.755 222.123 224.997 239.172 228.862 255.531C232.727 272.235 239.076 288.387 245.081 307.024Z" fill="white"/>
<path d="M141.902 212.045C144.939 181.053 147.838 151.441 150.805 121.001C103.875 113.822 55.9781 110.992 7.32208 112.442C-0.476685 141.018 -1.30486 169.388 0.558557 199.345C48.0413 206.316 95.1099 211.355 141.902 212.045Z" fill="white"/>
<path d="M353.642 61.0873C349.846 58.0502 346.465 54.5299 342.462 52.183C329.487 44.5212 313.958 53.2874 313.958 68.3349C313.82 151.027 313.889 233.719 313.958 316.342C313.958 319.241 314.648 322.209 315.132 326.075C318.651 325.661 321.964 326.213 324.173 324.901C331.557 320.484 338.804 315.79 345.636 310.544C351.779 305.781 353.987 299.362 353.918 291.148C353.435 258.499 353.711 225.85 353.711 193.27C353.711 153.236 353.711 113.201 353.711 73.1667C353.642 69.3013 353.642 65.4359 353.642 61.0873Z" fill="white"/>
<path d="M34.7903 49.3529C22.1605 66.9543 14.4997 85.246 8.90948 105.608C11.8081 106.023 14.1547 106.644 16.5012 106.644C60.05 106.23 103.461 108.369 146.596 114.72C148.666 114.996 150.875 114.789 152.945 114.789C161.158 93.322 169.371 71.9932 177.929 49.629C130.446 43.4168 82.8942 44.2451 34.7903 49.3529Z" fill="white"/>
<path d="M155.084 286.869C150.874 263.538 146.941 241.45 142.938 219.155C96.6283 215.082 49.6286 210.941 2.69805 206.799C1.31774 220.052 6.4249 243.728 15.604 266.23C60.7402 279.069 107.395 284.591 155.084 286.869Z" fill="white"/>
<path d="M156.189 426.299C185.106 416.498 211.056 407.801 236.937 398.965C238.11 398.551 239.076 397.585 240.112 396.895C241.906 378.258 241.906 378.258 260.678 372.736C278.622 367.49 296.497 362.106 314.579 357.136C319.825 355.687 325.415 355.411 330.522 354.651C333.697 359.069 335.974 362.175 339.011 366.317C358.197 361.071 377.039 353.754 397.329 346.851C390.704 335.807 384.975 326.213 378.488 315.445C375.106 318.413 372.414 320.967 369.516 323.245C339.425 347.058 305.193 355.342 267.787 348.577C247.013 344.85 231.554 332.356 220.718 314.272C218.303 310.268 216.163 306.127 213.127 300.674C194.147 342.434 175.72 383.09 156.189 426.299Z" fill="white"/>
<path d="M307.747 318.758C307.747 234.824 307.747 152.408 307.747 68.1278C304.779 71.7171 302.433 74.064 300.638 76.756C286.421 98.5679 278.484 122.865 273.998 148.266C266.959 188.094 267.166 227.783 278.001 267.058C283.039 285.35 294.496 309.647 307.747 318.758Z" fill="white"/>
<path d="M155.568 340.363C159.501 331.528 163.228 323.245 167.024 314.893C164.333 307.921 161.71 301.019 158.673 293.081C112.226 290.458 65.8473 285.005 18.5026 273.34C24.0239 289.837 31.8226 302.606 40.7946 314.686C42.382 316.825 45.8328 317.861 48.5934 318.965C69.5051 326.903 127.202 340.156 155.568 340.363Z" fill="white"/>
<path d="M359.509 68.4039C359.509 143.158 359.509 216.049 359.509 288.87C359.992 289.146 360.475 289.353 360.958 289.63C363.097 285.626 365.444 281.692 367.445 277.619C378.557 254.22 384.285 229.233 386.701 203.624C389.944 169.181 388.288 135.013 376.97 101.881C373.036 90.492 368.274 79.3789 359.509 68.4039Z" fill="white"/>
<path d="M205.673 11.1131C202.636 10.7679 200.221 10.3538 197.805 10.2848C157.224 8.62816 116.85 10.1467 76.6137 15.9448C60.8782 18.2227 51.7681 28.7835 40.7947 41.4841C65.9853 42.8646 89.0365 38.447 112.088 39.6205C135.139 40.7939 158.121 41.9673 182.415 43.2098C189.454 33.4082 197.253 22.6403 205.673 11.1131Z" fill="white"/>
<path d="M353.711 47.0061C372.414 64.9526 383.94 87.1787 389.392 112.028C393.464 130.596 396.156 149.716 397.122 168.697C398.571 197.067 394.568 225.16 386.563 252.425C378.005 281.416 365.444 308.335 338.39 329.319C349.846 327.248 356.403 322.624 362.545 317.102C374.761 306.058 383.043 292.322 389.53 277.481C401.056 251.321 407.129 223.78 408.648 195.341C410.373 163.037 409.062 131.01 398.157 100.017C392.429 83.8655 385.458 68.4729 372.553 56.6696C367.238 51.7688 361.924 46.1088 353.504 47.1442L353.711 47.0061Z" fill="white"/>
<path d="M172.062 301.985C174.823 296.67 176.548 293.288 177.998 290.389C142.248 196.446 171.165 68.8871 227.965 14.1501C222.72 10.0776 218.234 11.2511 214.576 16.1518C205.88 28.0932 196.425 39.5514 189.04 52.252C173.512 78.7577 164.609 107.817 158.742 137.843C149.149 186.92 150.598 235.514 165.437 283.486C167.162 289.077 169.371 294.53 172.062 301.985Z" fill="white"/>
<path d="M43.1412 24.2968C34.5833 22.4331 30.8564 26.9888 27.0605 31.0613C12.9123 46.2468 2.49102 63.8482 -3.92743 83.3823C-27.5308 154.892 -24.287 225.229 6.83899 294.047C9.73764 300.466 13.0504 306.61 20.8491 308.128C21.5393 308.266 22.4365 307.783 24.0239 307.438C22.4365 304.332 20.9182 301.433 19.3998 298.534C-5.51479 250.423 -13.8657 199.414 -7.99936 145.712C-5.65283 123.969 -0.959756 102.916 6.76999 82.485C14.7758 61.1562 26.6465 42.0363 43.1412 24.2968Z" fill="white"/>
<path d="M-30.8435 291.424C-42.3001 317.447 -53.8257 343.538 -66.4556 372.184C-46.9242 366.731 -30.4985 360.863 -12.6234 354.168C-16.9024 352.926 -19.456 352.373 -21.8715 351.407C-30.6365 348.025 -33.4661 342.779 -31.4647 334.22C-29.3942 325.523 -24.6321 322.278 -14.8319 324.142C-4.6176 326.075 5.45868 328.836 16.5702 331.528C18.6407 327.869 20.9181 323.866 22.8506 320.484C6.977 311.856 -11.3121 301.985 -30.8435 291.424Z" fill="white"/>
<path d="M204.362 295.566C197.667 295.566 192.077 295.566 185.934 295.566C166.679 338.43 147.562 381.088 128.03 424.505C133.69 426.368 138.107 427.818 142.317 429.129C149.011 421.191 193.043 326.282 204.362 295.566Z" fill="white"/>
<path d="M171.165 211.7C179.861 211.7 187.108 211.7 193.595 211.7C196.218 184.435 198.702 157.929 201.394 130.112C195.39 128.732 188.833 127.282 180.965 125.488C173.443 153.65 170.268 181.605 171.165 211.7Z" fill="white"/>
<path d="M-20.0771 332.218C-21.3194 335.255 -22.2166 337.395 -22.9067 338.982C-20.0081 343.055 104.496 374.945 136.864 380.536C138.107 378.12 139.487 375.497 141.419 371.631C87.7252 358.517 34.6523 345.54 -20.0771 332.218Z" fill="white"/>
<path d="M182.07 119.897C190.213 121.553 196.908 122.865 203.188 124.107C212.643 102.157 221.753 80.8284 231.416 58.3953C224.445 56.9457 217.129 55.4272 209.124 53.8396C196.218 74.3401 188.557 96.152 182.07 119.897Z" fill="white"/>
<path d="M186.279 284.66C194.009 284.66 200.014 284.66 205.88 284.66C202.015 262.503 198.288 240.898 194.285 217.912C187.729 218.257 180.62 218.603 172.614 219.017C173.028 242.554 178.619 263.676 186.279 284.66Z" fill="white"/>
<path d="M271.652 18.5678C262.818 17.1182 253.846 15.7377 244.322 14.1501C231.278 22.9163 221.339 34.5126 212.574 48.6627C221.27 50.3884 228.793 51.9069 234.728 53.1494C247.565 41.139 259.16 30.233 271.652 18.5678Z" fill="white"/>
<path d="M10.7729 30.8542C3.87133 36.3072 -3.03025 41.8292 -11.2431 48.3176C4.56147 52.045 6.63195 39.6895 12.8434 33.0631C12.2222 32.3728 11.5321 31.6135 10.7729 30.8542Z" fill="white"/>
<path d="M353.504 47.2132C353.159 46.73 352.814 46.2468 352.469 45.7637C352.538 46.0398 352.469 46.5229 352.607 46.661C352.952 46.8681 353.366 46.8681 353.78 47.0061C353.711 47.0061 353.504 47.2132 353.504 47.2132Z" fill="white"/>
<path d="M245.081 307.024C239.076 288.387 232.727 272.235 228.793 255.531C224.997 239.103 223.686 222.123 220.511 205.557C215.404 218.948 220.787 257.671 231.278 284.867C234.245 292.322 235.626 301.295 245.081 307.024Z" fill="#DCBF6F"/>
</svg>
