<svg xmlns="http://www.w3.org/2000/svg" width="419" height="439" fill="none"><path fill="#DCBF6F" d="M139 439h13l12-5 71-25c14-4 14-5 15-20l1-4 74-21 3 3c7 11 7 11 19 7l47-16c13-5 15-10 8-22l-17-28c6-14 14-27 18-41 16-43 20-88 13-134-3-19-9-39-18-57-9-17-21-31-38-39l-33-14a576 576 0 0 0-315-2c-37 10-65 33-82 68a180 180 0 0 0 13 176l-44 97-3 4v10l6 3c11 6 23 8 36 2l57-19c7-3 13-3 21-1l90 22 27 7c-4 10-9 19-12 29-3 8-2 11 7 15l11 5ZM354 47c8-1 13 5 19 10 12 11 19 27 25 43 11 31 12 63 11 95-2 29-8 56-19 82-7 15-15 29-27 40-7 6-13 10-25 12 27-21 40-48 49-77 8-27 12-55 10-83-1-19-4-38-8-57a126 126 0 0 0-36-65l-1-1 2 1ZM-39 269c-13-8-19-21-26-35-6-15-10-31-12-47-3-35 2-69 19-100 8-15 19-28 36-40l-11 19-7 18c-19 59-21 119 0 178l1 7 2 1-1 1-1-2ZM335 36c-17 7-28 17-38 29-9 13-16 27-22 43-15 43-19 87-12 132 3 22 9 43 20 63 7 12 15 23 28 30l6 5-19 4c-33 2-60-10-74-41a283 283 0 0 1-17-139c5-37 17-71 37-102 7-10 15-19 25-27 8-5 16-9 25-8 14 0 26 5 41 11ZM142 212c-47-1-94-6-141-13-2-30-1-58 6-86 49-2 97 1 144 8l-9 91ZM354 61v230c0 8-2 15-8 20l-22 14-9 1-1-10V68c0-15 15-23 28-16l12 9ZM35 49c48-5 95-6 143 1l-25 65h-6c-44-7-87-9-130-8l-8-1c5-21 13-39 26-57Zm120 238c-48-2-94-8-139-21-10-22-15-46-13-59l140 12 12 68Zm1 139 57-125 8 13c10 18 26 31 47 34 37 7 71-1 101-25l9-8 19 32c-20 7-39 14-58 19l-9-11-15 2-54 16c-19 5-19 5-21 24l-3 2-81 27Zm152-107c-14-9-25-34-30-52-11-39-11-79-4-119 4-25 12-49 27-71 1-3 4-5 7-9v251Zm-152 21c-29 0-86-13-107-21-3-1-7-2-8-4-9-12-17-25-22-42 47 12 93 17 140 20l8 22-11 25ZM360 68c8 11 13 23 17 34 11 33 13 67 10 102-3 25-8 50-20 74l-6 12-1-1V68ZM206 11l-24 32-70-3c-23-2-46 3-71 1 11-12 20-23 36-25 40-6 80-7 121-6l8 1Zm-34 291-6-19c-15-47-17-96-7-145 6-30 15-59 30-86l26-36c3-5 8-6 13-2-57 55-86 182-50 276l-6 12ZM43 24C27 42 15 61 7 82s-13 42-15 64a263 263 0 0 0 32 161l-3 1c-8-1-11-8-14-14-31-69-35-139-11-211 6-19 17-37 31-52 4-4 8-9 16-7Zm-74 267 54 29-6 12-32-8c-9-2-14 2-16 10-2 9 1 14 9 17l10 3c-18 7-35 13-54 18l35-81Zm235 5c-11 30-55 125-62 133l-14-4 58-129h18Zm-33-84c-1-30 3-58 10-87l20 5-7 82h-23ZM-95 371l44-98 13 11-41 93c-5-3-10-4-16-6Zm75-39 161 40-4 9c-33-6-157-38-160-42l3-7Zm202-212c7-24 14-46 27-66l22 4-28 66-21-4Zm4 165c-7-21-13-42-13-66l21-1 12 67h-20ZM-24 113l-6 82-15-4c-2-26 0-51 5-76l16-2Zm50 221c10-6 18-6 27-4 22 6 43 11 65 15 10 3 21 4 33 6l-6 12-119-29ZM272 19l-37 34-22-4c8-14 18-26 31-35l28 5ZM-35 249c-4-17-10-32-9-51l16 3 10 55-17-7Zm-3-140c4-19 11-36 21-51l7-2h7l-10 26-9 25-16 2Zm7 150c7-1 11 2 16 4l12 33a76 76 0 0 1-28-37ZM11 31l2 2c-6 7-8 19-24 15l22-17Z"/><path fill="#fff" d="M335 36c-15-6-27-11-41-11-9 0-17 3-25 9-10 7-18 16-25 26-21 31-32 65-37 102a283 283 0 0 0 17 139c14 31 41 43 73 41l20-3-6-6c-13-7-21-18-28-30-11-20-17-41-20-63-7-45-3-89 12-132 6-16 13-30 22-43 10-12 21-22 38-29Zm-90 271c-9-6-11-15-14-22-10-27-16-66-10-79 3 16 4 33 8 50l16 51ZM142 212l9-91c-47-7-95-10-144-9-7 29-8 57-6 87 47 7 94 12 141 13Z"/><path fill="#fff" d="m354 61-12-9c-13-7-28 1-28 16v248l1 10 9-1 22-14c6-5 8-12 8-20V61ZM35 49C22 67 14 85 9 106l8 1c43-1 86 1 130 8h6l25-65c-48-7-95-6-143-1ZM155 287l-12-68L3 207c-2 13 3 37 13 59 45 13 91 19 139 21Z"/><path fill="#fff" d="m156 426 81-27 3-2c2-19 2-19 21-24l54-16 16-2 8 11c19-5 38-12 58-19l-19-32-8 8c-31 24-65 32-102 26-21-4-36-17-47-35l-8-13-57 125Z"/><path fill="#fff" d="M308 319V68c-3 4-6 6-7 9-15 22-23 46-27 71-7 40-7 80 4 119 5 18 16 43 30 52ZM156 340l11-25-8-22c-47-3-93-8-140-20 5 17 13 30 22 42 1 2 5 3 8 4 21 8 78 21 107 21ZM360 68v221l1 1 6-12c12-24 17-49 20-74 3-35 1-69-10-102-4-12-9-23-17-34ZM206 11l-8-1c-41-1-81 0-121 6-16 2-25 13-36 25 25 2 48-3 71-1l70 3 24-32Z"/><path fill="#fff" d="M354 47c18 18 30 40 35 65a251 251 0 0 1-3 140c-8 29-21 56-48 77 12-2 18-6 25-12 12-11 20-25 27-40 11-26 17-53 19-82 1-32 0-64-11-95-6-16-13-32-25-43-6-5-11-11-19-10ZM172 302l6-12c-36-94-7-221 50-276-5-4-10-3-13 2-9 12-19 24-26 36-15 27-24 56-30 86-10 49-8 98 6 145l7 19ZM43 24c-8-2-12 3-16 7C13 46 2 64-4 83c-24 72-20 142 11 211 3 6 6 13 14 14l3-1-5-8A263 263 0 0 1 7 82c8-21 20-40 36-58ZM-31 291l-35 81c19-5 36-11 53-18l-9-3c-9-3-11-8-9-17 2-8 6-12 16-10l32 8 6-12-54-29ZM204 296h-18l-58 129 14 4c7-8 51-103 62-133Z"/><path fill="#fff" d="M171 212h23l7-82-20-5c-8 29-11 57-10 87ZM-20 332l-3 7c3 4 127 36 160 42l4-9-161-40ZM182 120l21 4 28-66-22-4c-13 20-20 42-27 66ZM186 285h20l-12-67-21 1c0 24 6 45 13 66ZM272 19l-28-5c-13 9-23 21-31 35l22 4 37-34ZM11 31l-22 17c16 4 18-8 24-15l-2-2ZM354 47l-2-1 1 1h1Z"/><path fill="#DCBF6F" d="m245 307-16-51c-4-17-5-34-8-50-6 13 0 52 10 79 3 7 5 16 14 22Z"/></svg>