<svg xmlns="http://www.w3.org/2000/svg" width="154" height="140" fill="none"><g clip-path="url(#a)"><path fill="#0A483A" d="m140.3 122.5-18.3 3.9c-.6-.5-1-.8-1.3-1.3-6.3-7.5-14-9.7-23.3-6.5a29.4 29.4 0 0 0-16.2 14c-1.1 2-2.4 3-4.6 3.5-4.3 1-8.6 1.8-12.8 3.2-4.5 1.4-8.6.4-13.2-1.3l8.5-36.4c-6.8-.8-13-.2-18 4.6a47 47 0 0 0-6 7.5c-.9 1.4-2 2-3.5 2.3-7.1.8-14.3 1.8-21.4 2.4-2.2.1-4.5-1-7.3-1.5L11.5 86l6.4-1-6.6-6.2A39.4 39.4 0 0 1 0 50.8a44.9 44.9 0 0 1 39.6-48C62.3 0 85.2.1 108 .1c4.5 0 9 .5 13.4 1 11 1 18.9 7 24.5 16.2 5 8.2 7.2 17.4 7.9 27a79 79 0 0 1-8.3 43c-2.2 4.2-5.1 8-8 11.7-1.1 1.5-1.6 2.8-1.1 4.7 1.2 4.9 2.1 9.8 3.2 14.8l.7 4.1ZM39.4 5.1l-.6.6a47 47 0 0 0-16.6 14 48.3 48.3 0 0 0-9.5 39.7 46 46 0 0 0 14 26.3c.6.7 1 2 2.5 1.3l1.3.6c-.3-.6-.5-1.2-1-1.7a48.9 48.9 0 0 1-12-35.6c.7-17.3 6.8-32 21.3-42.3.8-.6 1.3-1.6 1.9-2.4H42l1.3-.6 2.6-1.2-.4-.6L43.3 5h-2l-.6.6h-1.3v-.5ZM89 105.7l-.7-.6-.6-.7-5-5.2-.1-1.2 2.5 2 .7.5.6.7.7.6.6.7.7.6.6.7.7.6 1.9 1.3 1.3.6.6.7 1.3.6c.2 0 .4.1.5.3a3 3 0 0 0-.5-.2l-1.3-.6-.7-.7v-.7h1.3l-2-1.2c-.4-.6-.8-1.3-1.3-1.8a45.6 45.6 0 0 1-10-15.1A66.4 66.4 0 0 1 76 55.7c1-13.9 5.4-26.7 14.4-37.5 3.4-4 7.6-7.5 11.4-11.2l1.3-.6.7-.7 1.3-.6 1.3-.7 1.2-.6 5.7-1.6v-.4h-3.1c-1 .2-2.3.1-3.2.5-2.6 1-5 2.4-7.5 3.6l-.3-.4 5.9-3.7.4-.3-.4.3-3.3 1c-1.3.4-2.5 1-3.8 1.6l.2-1h-.5l-1.5.6c-6.7 3-12.4 7.3-17 12.9a67.3 67.3 0 0 0-12.1 64.5 40.5 40.5 0 0 0 12 19c.7.7 1.3 2.2 2.8 1.4l2 1.3v-1.3l3.9 2.6a10.1 10.1 0 0 1 1.2 1.3Zm-19.3-3.9a12 12 0 0 1-.7-.6c-.2-.2-.4-.5-.7-.6l-.6-.7-.7-.6-.6-.7-.6-.6-.7-.7a61.5 61.5 0 0 1-8.5-15A73 73 0 0 1 52.8 50 59.4 59.4 0 0 1 74 8.6c2.3-2 4.7-3.7 7-5.5l2.7-1.2-.4-.7-2.2 1.9H80l.6-1.3-1.8.6c-.5-.2-1-.5-1.6-.5-.5 0-1 .3-1.7.5-.8-1.7-1.7.2-2.5 0-1.3-1.1-2.2 0-3 .6a62 62 0 0 0-28.2 60.3 52 52 0 0 0 10.8 28.2c2.5 3.1 5.8 5.6 8.8 8.3l.7.7h2.5l.7.6H69l.7.7Zm34.7-88.4.7-.6v-.2.2l-.7.6ZM15 79.4l-.7-.7c0-.4 0-.7-.2-1C9 69.7 6.6 61 5.6 51.6a41.6 41.6 0 0 1 13.8-37.4l7.1-6 1.4-.6L29 7c-.3.3-.8.5-1.2.7l-1.3.6c-.8.3-1.7.4-2.4.8A41 41 0 0 0 3 36.4C2 40 1.6 43.6 1.3 47.2a38.1 38.1 0 0 0 8.2 27.4c1.2 1.6 3.2 2.7 4.9 4l.6.6.7.7.6.6-.7-.6-.6-.6Zm10.3 8.3a14.8 14.8 0 0 1 2.6 1.2c0 .1.1.2 0 .2l-.1-.2-1.3-.6a39 39 0 0 1-1.2-.6ZM22 83v.1-.1l-2-1.2-.3 1 2.3.2Zm87.5-72.9c-1.3.3-2.5.7-2.3 2.4l2.3-2.4Zm-28.3 31c-1 0-2 .5-1.7 1.7.1.5 1 .8 1.5 1.1l.7-.3-.6-2.5c1.6-1.3 1.6-1.3-.6-2.4l.7 2.4Zm47.6 65.1c2-.2 4-.8 5.7-2-2.2-.1-4.1.6-5.7 2ZM17.7 78l-1.4.5c1 1.5 1.9 2.8 4.5 2.5-1.3-1.3-2.2-2.2-3.2-3-.2-2.4-.5-2.6-3.5-2l3.6 2ZM29 10.2l3.4-2.7c-3.1.2-4.7 2.2-6.8 3.8 1.7.6 2.7.2 3.5-1.1Zm108.8 78c1.8-1.6 2.9-3.7 3.6-6-2.2-1.2-1.5 1.2-2 1.7-1.1 1.1-2.6 2.4-1.6 4.4l-1.3-.4.6.8.7-.4Zm-47 8.5-1.6 2.5 1.3 1.1c1.6-2.2 1.6-2.2.3-3.7l-3.2-3.8L81 79.1c-1.6 1.2-1.4 3 .5 4.3l-.6 1.2c1.8.8.8 2.8 1.8 4 .4.4 1 .6 1.6 1l-.4 1.7h1.7l-.5 2.4 1.9-.3-.7 2.3 2.2-.7-.9 3 3.2-1.3Zm52.2-71c-.7-2-2-1.2-3.2-1.1l-.2.7 3.3.4-2.5 1.3 1.6 2.9c1 0 2 .2 2.9.3l-2.6 1.3 2.8 5.8-.7.8 2 1.2-1 .8 1.1 4.3c.2 0 .5 0 .6.2.3-.8 1-1.6.9-2.1-1-3.5 0-7.6-3.5-10.2.2-.2.8-.4.8-.7 0-.4-.3-1-.4-1.4l-2-4.5Zm-9.7-12.3c-1.1-1.8-2.4-2.7-4.5-1.2l-1.2.1.1.4 1-.6 1.6.2-1 1.6c2.7 1.9 3 1.9 5.5 0l-1.5-.5ZM9 59.8l2.8-.4c-1.3-1-2-1.3-2.7-1.8l1.7-.9V56l-3.5-1c0 2.2.2 3.7 1.7 4.9-.4 2 1.2 1.4 2.3 1.4A79 79 0 0 1 9 59.8ZM136 94.1 132 98l-13.2 8 .3 3 1-2 1.2 1.2.9-2 1 .8 5.3-2.4-.2-2.3 1.9 1.3.5-2.4c1.2.4 2 .4 1.8-1.2l-.5-2 2.3 2.5.5-3.3 2 .6-1-3.8 2.4 2-.2-2.8 1.7.4.5-.6-2-2.4-2.3 3.5Zm-90.8.7-.5-.2.6.1c.3.6.5 1.6.9 1.7 3.2.8 6.5 1.3 9.8 2-.1-.5-.4-.8-.6-.9l-10.2-2.7Zm97.9-8.5 1.3-.6a89 89 0 0 0-1.4-2l2.3.5c-.7-1.2-1.4-2.6-2.2-.4l-4 5.5c.7.7.7 2.3 2 1l.1-.2 1.2-2h1l-.4-1.7v-.1Zm-25.8-76.1 2.4-.8.3.2v1l1.8-.4h3.4l-.4 1.4 3.6-1.1v-.7l-3.8-1.3-2.9 1.7 1-1.8c-5.4-1.3-9.8-.2-11.6 2.7l6.2-1.9v1l-.2.1.2-.1ZM13 69c1.4-2.2-.7-2.7-1.7-3.6l1.3-1.7-3.5-1.2c.8 4.3 2.1 7.7 4.1 11 .4.6 1.7.8 2.6 1.2l.5-.7a732 732 0 0 0-2.4-2.2c2-1.6-.6-2-.8-2.9Zm134-12.4-1.2 4.5 2.5.5V46.2h-2.8l1.4 2.1c-.2.8-.7 1.5-.6 1.9a7 7 0 0 1 0 5c-.1.4.4 1 .6 1.5ZM89.5 23.1c-1.3 0-1.5.7-1.9 2-.2.9-2.2 1.3-1.5 3-1.8.5-2 1.7-1.5 3.2l-.5.2c-1.9.6-.5 1.7-.4 2.6-1.9-.1-2.2 1.4-2.4 2.7 0 .4.8 1 1.6 2.1l1.4-4.2 8.1-13.8-1-1.8-.4.1.1 2-1.8-.4.2 2.3ZM79.4 49.6c-.4.5-1 .8-1.3 1.4-.7 2.3 0 4.7-.7 7-.3 1-.5 2-.4 3 .4 4.2 1 8.3 1.5 12.5 2-.5 1.3-2 1.2-3-.7-5.8-.7-11.6 0-17.5.2-1.1-.3-2.3-.4-3.4 2.2-2.2 2.1-3.6-.2-4.4-.7 1.5-1.5 3 .3 4.4Zm63.2-33.4-.4-.4c.2-1.6-1-1.5-2-1.4 1.4-2.7-.7-2-1.8-2 0-.6.2-1.2.4-2.2l-2.6.7.6-2h-1.5l-1-2-1.5 2.7 11.1 12.5c.3-.2 1-.6 1.6-1.2-.6-.8-1.2-1.6-1.6-2.4l-1-2.3h-.3Zm-47.8.4-2 .5 1 3A42.1 42.1 0 0 1 111.2 8V6c0-.5-.3-.8-.7-1.8l-3.8 2.6-1.3-.3-.2 2.6-1.7-1.3-.6 1.6c-.8.1-1.5 0-2 .3-1.1.8-2.4 1.7-3.2 2.8-1 1.5-3.3 2-3 4.3h.1ZM78 9.6c3.7 0 7.8.8 10.5-3.4l-4-.5C88.2 5 92 6 94.9 2.6l-2.2-.4v-.5h5.6c-9.8-1-15.5.6-16.4 3.7l-5.1 3L78 9.5c-1 0-2.1 0-3.1.3-.3 0-.4.7-.5 1.2-.3 1-3-.3-1.8 2.1l-2.3 1 .1.4 8 .7V15l-1.3-.6 3.6-.8-.2-.5-3.5-1c2.4-.9 5 1.2 6.3-1.5l-5.3-1Zm26.4 98 .4 1.8 1.6-1.3.6 1.4 1.4-1.3.9 2.5 1.6-3.4.5 2.7h.7l.5-3.6c-7.5-.1-13.7-3-19.3-7.5l-1.7 2.7 2-.9-.6 2.4 1.7-.2.4 1.5 2-1.5-.7 2.5.4.2c.6-.5 1-1 1.9-1.6l-.6 3.2 2.1-1.5.2 2.3 1.7-1 .7 1.7 1.6-1ZM130.8 7V5l-1.6.7-1-1.7-1.7 1.2-.4-2.2-2 2.3-.3-2.3-1.8 1.4-.4-1H118l-.4 1-2.1-1.3-.6 1.7-1.6-1.2-.7.3.4 3.6c6.5-1.1 12.4-1 18.1 2.2l1.9-3.2-.6-.3-1.6.8Zm-119 90.5 2.2-.8-1.8-2.1 2.8-.9-2-1.8 2.3-1 .8-1.1-3-1.2h2.2c-.3-.5-.6-.8-1-.9l-1.8-.2-8 28.4 3.6 1 .4-.8-2-1.2.2-.5 2.7.2-1.3-3c2.4-.5 2.5-.7 1-2.9l2-1-1.2-1.6 2-1.4-2.4-1.9h3.3l-2-3h2.5l-1.4-2.4h-.2ZM125 96v-.7l1.6-.1v-.4l-1.6.6h-6.1V95l9.8-1.3V93l-33.1 4.3v.7l10-.9v.6l-7.4 1v.7h5v.3l-2.4.4v.3c1.3 0 2.5.2 4.2.4l-2.2.7c7.7 1.3 16.2 0 19-2.7l-2.1-.5 4.8-1.1c.3 0 .3-.8.5-1.2Zm-52.8 3.3 3 .7v-.7h-3l2.3-1.2c-1.2-2.2-3.6-.9-5.5-1.9l3.5-.4c-1.1-2.6-3.5-1.2-5.2-2.1l3.2-.6c-.4-3.1-3-1.7-4.9-2.6l3.1-.6c-.6-3.4-3.7-1.3-5.4-2.7l3.9-.5c-.6-1.4-.9-1.6-5-3.2h4L65 80.7l-4.3-.6.1-.5 4 .2c-.4-3.8-3.5-2.4-5.5-3.6 1.6 0 3-.2 4.6-.3-.3-.8-.4-1.9-.7-2l-7.9-1.5c1.1 3.8 1.6 7.2 3 10.2 1.8 4 4 7.9 6.4 11.5 1.7 2.5 3.3 6 7.5 5.2ZM37 11.5l3.8.4v.7c-1.9 0-3.8.2-5.6.3v.7h20.6l-.3-1.1 2.5-1.4-.2-.8h-8.8c3.8-1.9 8.3 1 11.9-2l-.1-.8h-7.8a9 9 0 0 1 3.8-.5c1.4 0 2.8.2 4.2 0 1-.1 2-.8 3-1.2l-.2-1h-8V4c3.6-.3 7.2 1.3 11.2-.5-7.4-1.7-16.7-.7-20 2l3.3.3v.3l-7.5.6v.7l3 .4c-2.3 1-5-.1-6.7 2.4h4v.3l-6.1 1h-.2l.2-.1Zm23.8 56.1c2.5-.1 1.9-1.5 1.3-3a711 711 0 0 0-3.4-.6v-.5h3.7v-5l-3.9-1 4-.4-.2-2.1-3.3-.8V54h3.4l.2-2.2a43.5 43.5 0 0 1-4-1.1c4.2-.2 4.2-.2 4.4-2a644 644 0 0 0-4-1c4.5 0 4.5 0 4.5-2.4l-4.6-.5c1.8-1 3.8.8 5.8-1.6-3.2-.8-6.1-.6-9.6-1.2l.7 2.8c-.4.8-1 1.4-1 2 0 2.4-.2 4.6-.8 7-.5 2.3-.2 4.8 0 7.2 0 .8.7 1.6.8 1.8-.4 3-.3 5.5.5 8.2 2.6.2 5.1 1.4 7.7.9.6-2.3-.5-3.4-2.1-4.3l-.1.1ZM50.4 92.8c0-.5.4-1.2.2-1.3-.8-.8-1.8-1.3-2.8-2 .4 0 .7-.2 1.6-.7l-4.2-2.5 1.7-.4c-.3-2-1.7-2.5-3.2-3-3-.6-5.9-1.4-8.8-2.1l.2-.7 9.9 2.4c0-2.3-1.3-2.9-2.9-3.3L35 77.4c3-.7 5.7 1.5 8.6 1 0-3-2.8-2.4-4-3.7h2.8c.2-2.3-1.8-2.3-2.9-3.3l2.3-.3c-.5-.7-.7-1.4-1-1.5l-20.5-4.8 1.1 2.2c-1.3 1.8.7 2.3 1.3 3.3-1 1-.5 1.9.4 2.6.7.5 1.5.9 2.2 1.2l-1.7.3c.4 1.9 1.5 2.6 3 3 1.1.3 2.2.8 3.2 1.2l-4-.5c.4 1.1 1 1.9 1.7 2.3.9.5 2 .7 2.9 1v.3l-2.3.1c1 2.7 3.7 2.3 5.5 3.7l-2.4-.2-.2.6 4.8 2.6-.8.4c.6.6 1.1 1.5 1.8 1.7l16.9 4.8.1.1-.1-.1-3.2-2.6Zm56-78.1 3 .1c-1.5.7-3 1-4.6 1.2-1.6.3-3.2.8-4.4 2.3l7.5-.5c-3.6 1.5-7.8.3-11.5 3.6l9.6-1c-3.7 1.8-8 .8-11.4 3.7l9.4-1c-3.8 2-8.2.7-11.7 3.6l11-1.2c-4 1.7-8.6 1-12.5 3.4 15.2-3.6 30.8-2.2 46.6-4.3-1.4-2-3-1.5-4.3-1.4l-7.5.6v-.6l10.5-1c-3-3.2-6.6-.7-9.7-2.1l6.8-.5v-.8c-3-2-6.5.4-9.6-1l6.8-.7v-.8c-3.2-1.1-6.8 0-10-1.1h7.1c-2.8-2.1-6-.8-9-1.9h5.5c-5.1-2.6-12.7-1.9-17.5 1.3l-.5.4.3-.3Zm-71.5 96.2.1-.2-.1-.5 2.1-2-4.5.8c2.5-1.9 5.6-.9 7.2-3.7l-3.9.5v-.3l8.2-2.7-.1-.6c-1 0-1.9 0-2.8.2v-.5l10.8-1.8c-4.5-1.7-9 .5-13.7-.3l8.2-1.3v-.7l-6.8.5V98l2.9-1-.1-.4h-4c-.2-.5-.3-1.3-.5-1.4-2-.7-4.1-1.7-6.1-1.7-4.8.2-9.6.9-14.4 1.4-1.2.1-2.3.5-2.1 2.2l15.9-1.8v.6c-1.2.3-2.4.6-3.7.7L16.7 98c-1.2.1-2.4.4-2.2 2.2L32 98v.6l-4 .7-12 1.9c-1.4.2-2.6.5-2.4 2.6l15.8-2.4a3 3 0 0 1-2 1.1l-12.3 2c-1.2.2-2.5.4-2.4 2.4l14.2-2c-.2.7-.5.8-.8.9l-12 2c-.8.1-1.5.6-2.2 1l.2.6 10.8-1v.6l-6.3.8c-4.1.4-4.4.5-5.2 2.5l9-1c-1.6.8-3.4 1-5 1.4-1.7.3-3.7-.4-5 2.3l5.8-.7 5.4-.4c-3.6 1.7-7.9 1-11.5 2.9 7.9-.6 15.6-1.1 23.3-2.5v-.8l-2-.2 3.5-2.4Zm3.3-65.2c1.5 0 3 0 2.3-2.2l-2.3-1c2.8-.1 2.8-.1 2.7-2.3-6.8-.4-13.6-1.4-20.9-1.4.7 2.8 3 1.9 4.7 3-2 0-3.5 0-5.2.2.4 3.1 3 1.8 4.3 2.7-1.3 1.1-3.2-.8-4.8 1 1.3.5 2.4 1 4.3 1.6h-4c-1.2 3 2 2 2.7 3.4h-3c-.2 2.6 2.2 1.7 3.3 2.7l-4 .4 3.6 2.1H19l-.3.7 4 2.5-3.6-.6c0 2.8 2.6 2 3.5 3.4h-3c0 2.1 1.6 2 2.7 2.2L40 68l.7-.3c0-.7 0-1.5-.2-2.5l-9.4-2 .1-.5 9.1 1.5c0-2.5-1.5-2.2-2.7-2.5l-3.4-.6-3.4-.7c3.2-1 6.1 1.3 9.7.1l-2-1.4c.6-.6 1.5-1.3 1.4-1.8 0-.6-.8-1.5-1.4-1.6-2-.5-4-.6-6-1-.8 0-1.5-.4-2.3-.5 3.3-.5 6.4 1.3 9.6.4.6-2-.5-2.3-1.8-2.5l-7.7-1.3c3.3-.8 6.4 1.2 10.4.2-2.8-3.4-6.8-1-9.6-3.2l9 .8c1.2-2.5-1.3-2-1.7-3h-.2Zm97.8 74.9 2.1-1.5-.2-.7-12 2.6-.1-.6c2.1-.5 4.3-1 6.3-1.7 1.9-.6 4.4-.1 5.7-2l-.3-1-14.6 2.9c4.4-2.4 9.8-2 14.2-4.4l-.2-1c-4.6 1-9 1.8-13.6 2.6.5-.7 1.2-1 1.8-1.1l9.8-2.1c1-.2 2.1-.7 1.2-2.2l-10.4 1.7c1.2-.4 2.4-1 3.6-1.3l5.6-1.3c.4-.1.7-.7 1-1.1l-.3-.5-9.5 2.4c2.8-2 6.5-1.7 9-4.2-3.6.5-7.2 1.2-10.5 2.5a34.1 34.1 0 0 1-14.3 3c-4.1-.3-8 .3-12 1.4-.6.2-1.2.1-1.8.2l-.1-.4 5.8-1.5a8.9 8.9 0 0 0-4-.5c-1.6.1-3.2.4-4.7.6l3.3-1.4-6.4-1.7c-2.5-.6-5-2-7.4-1.9-5.3.3-10.6 1.2-16 2-1.3.2-1.6 1.4-1.4 2.6l18.5-2.8v.7l-7.5 1.3-9.4 1.6c-1.3.3-2.6.6-2 2.7l17.7-3c-.8.8-1.7 1-2.6 1.3L66.4 115c-1.4.3-2.4.8-2 2.9l16-2.8c-1 .8-2.2 1.1-3.3 1.3-3.8.7-7.6 1.5-11.3 2-1.3.3-2.4.6-2.1 2.6 6-1 12-2.2 17.9-3.3l.1.6-3 .8-13.3 2.6c-1.3.2-2.5.5-2.5 2.6l15.5-3.2c-.4.8-1 1-1.6 1.2l-12 2.5c-1.2.3-2.4.5-2.6 2.3l12.9-2.4c-4.3 2.2-9.4 1.6-13.4 4.4l.2.7 12.5-2.6.2.8-3.7.8-8.2 1.9c-1.4.4-2.5 1-.8 2.6l-1.5 2 .4.4 10-2.3.1.8-5.8 1.3c-4.4 1-4.4 1-5 2.8.8 0 1.6-.1 2.3-.3 4.5-1 9.1-2.3 13.7-3.3 1.9-.4 3-1.3 3.9-3 3.2-5.9 7.9-10.4 14-13.2 9.8-4.6 20-3.7 27.1 5l1.5 1.4c5.2-1.4 10.5-2 15.6-3.6l-.1-.7-2.1-.1Zm7.1-71.4c-20.4.4-41 1.3-61.4 3.3l.1 1 15.8-1.2c-5.4 2-11.2.9-16.6 2.5l.2 1.2 11.4-.7c-2 .8-4.2.8-6.2 1.2-1.9.4-4.2-.8-5.5 1.7 1.7.3 3.2.1 4.8 0h4.8c-1.7.5-3.4.7-5 1-1.6.3-3.7-.8-4.9 2l3.8-.3 3.5-.3c-2.3 2.2-5.4 0-7.1 2.2l.2 1 7-.5.1.4-7 1c-.6 2.3.7 2.3 2.1 2.2 1.8-.1 3.6-.4 5.3-.6-2.2 1.6-5 .5-7.8 2.4 3.7 1.8 6.9-.7 9.9.5-2.9 1.2-6.2.4-9 2 3.7 2 7.7-.1 11.6.7-1.9.4-3.7.7-5.6.9-1.9.2-4-.4-5.7 1.3 1 1.9 2.4 1 3.5.8 7.9-.9 15.7-2.1 23.6-2.7 8-.6 16-.6 24-.9 2.4 0 4.8-.3 7.1-.6.6 0 1-.6 1.6-.9l-.2-.6-16.6 1.2v-.7l8.6-.7c2.8-.2 5.7 0 8.2-1.9h-10c1.8-.6 3.6-.6 5.5-.8 1.8-.2 3.9.2 5.6-2.2h-7c2.2-1.7 5.2.1 7.2-2.5l-2.5-.3-2.2-.2c1.4-1.3 4 .6 4.7-2.6l-2.7.1-2.8-.2 5.8-1.5-.1-.8-4.7-.2c1.7-1.1 4 0 5.2-2.6h-4.3v-.4l4.2-1.3-.2-.8h-7v-.4l6.7-1.2Zm-.5-10.8.1-1.1c-.8-.2-1.5-.6-2.3-.6l-3.2.2h-2.5v-.6l7.1-.4.1-.9c-1.8-2.2-4.7-.3-7-1.3 2-.6 4.4.5 6.4-1.7-2.5-1.5-4.9 0-7.2-.9 1.8-.7 4.1.2 6-2.2h-7.5c4.6-.9 4.6-.9 6.5-2.2h-4.6c-7.9.7-15.8 1.8-23.7 2-6.8.1-13.4 1.4-20 2.2-1.4.2-2.6.5-2.7 2.4l12-1v.7l-3.8.4-7.3.7c-1.3 0-2.5.4-2.4 2.5l9.7-1.2c-3.4 2.1-8 .1-11 3v.8l9.2-1v.7l-10 1.3c-.9 2.4-1.6 4.8-2.5 7.7l15.5-.8c-5 2.3-10.7 0-15.6 3a1398 1398 0 0 1 57.6-3.4c1.2 0 2.4-.4 3.6-.6l-.1-.8c-4.6-.8-9.2.5-13.8-.3l7-.5c2.2-.2 4.6.6 6.6-1.1-4-1.7-8 .8-12.5-.7l12.4-1v-2.4l-10.4.6V39l10.3-.7ZM97 77.6c-4.7 1.3-9.3.7-13.3 2.6 3.3 2.1 6.8-.6 10.7.8l-9.8 1.3v1c2.6 1.6 5.4-.2 8.1 0-2 1.9-5 .2-7 2.3 1.9 2.3 4.3-.3 6.1 1L87.3 88c0 .3 0 .6.2 1l6.3-.4v.4L88.6 90l.2 1 7-.5.1.5-6 1c2.9 2.4 5.8-.2 8.8 1.2l-7.1 1c3 1 37.9-3.2 40-4.5L117.9 91c1.7-.7 3.3-1 5-1.2 1.8-.2 3.7-.2 5.5-.5 1.4-.3 3.2.2 4.3-1.5l-16.4 1.7-.1-.7 8.4-1 8.9-1.3c.6 0 1-.7 1.5-1.1l-.2-.4-11.3 1c4.2-1.9 9.2-.4 13.1-3V82l-9.2.6c1.8-.7 3.6-1 5.4-1.2 1.6-.3 3.6.1 5.1-2l-7.4.5v-.6l8-1.4v-.6h-5.5c1.2-.5 2.3-.7 3.5-1 1 0 2-.4 3-.6l-.2-.7-3.5-.4 4.1-1a327 327 0 0 0-57.5 4.8c5.3.7 9.7-1.8 14.7-.8ZM45 28.6c-3.1-1-6.4.3-9.3-1.2 1.2-.2 2.4-.2 3.5 0l5.5.2c.7 0 1.3-.8 2-1.2l-.4-.6-9.8-.9a38 38 0 0 1 8.4-.1c1.5.1 3 .2 3.2-2.1l-9.7-1v-.6c2 .2 4 .5 6 .5 1.9 0 4 1.2 5.8-1.6l-8.9-.4c3.4-1.3 7.3 1.2 10.4-1.5v-1h-9v-.9c3.4-.4 7 1.3 10.3-.5-6.7-.5-13.4-.6-20-.6-.3 0-.7.5-1.2 1l4 .7c-5.3.8-5.3.8-6 2.3l3.4.2v.4l-5.2.6v.9l3.5.9c-1.7.9-4-.7-5.5 1.6l3.6 1c-1.4 1-4-.9-4.9 2l3.2.6c-3.8.4-3.8.4-4.3 2.3l2.8.9-3.8.6c-.2 0-.3.7-.5 1.2l3 .8c-1.3.8-3-.3-3.7 1.5l2.3 1-2.7.8v.8L42 38.9l1.2-4.2-11.4-1c3.2-.4 6.3-.3 9.5 0 1.6.1 2.8 0 2.8-2.3l-10.3-1c2-.5 4-.4 6-.3 4.6.4 4.6.4 5.4-1.5Zm28.3-6.4-1.1-.4c-.3-.2-.6-.2-1.3-.4 3-.4 3-.4 3.8-2l-5-1c2.5-1.2 5.4 2 7.6-1.8l-9-.7c-.7 3-4.3 4-4.2 7l-2.4 2 1.6 1.2c-3.2 1.1-3.3 1.2-2.3 3.3-1.8.3-2.7 1.2-1.6 2.9L57.6 34l1 1.3c-1 .7-1 .7-1 2.8l-2 2.2c3.5.8 6.4 1.1 9.7.9-1-3-3.5-1.3-5-2.4 5.2-.2 5.2-.2 5.6-2.2l-5-.8c5.8-.8 5.8-.8 6.2-2.2l-4.7-.8V32l3.8.6c1.6.1 2.4-.6 2.4-2.4l-1.9-.2c-.6 0-1.1-.2-1.7-.3 4.5-.4 4.5-.4 5-2.7l-4-.3c2-1 4.5.8 5.7-2.1L68 24c1.6-.8 4 .9 5.3-1.8ZM60.4 127c1.3-1.6.2-2.3-.7-2.7l2.5-2.3-3-1.7c2.4-.1 2.4-.1 3.2-1.6-.7-.5-1.5-1-3-1.7l3.3.2.4-2.1-2.3-1.3c2-.3 2-.3 2.8-1.7l-3.4-1.6 3.8.2c1.1-2.2-1.2-1.9-1.7-2.7l3-.9-2.8-1.6 2.6-.5v-.7l-2.2-.5-2.8-.4-8 34 5.3 1.3.2-.6-2.5-1 .2-.4 3 .4c1.7-2.2-.8-2.1-1.8-3.2h2.7l.2-1.8-2.6-1 .1-.5 2.8.3.7-2.3-3.1-1.3 3-.3ZM7.5 37.3c-1.3 5.9-1 11.2-.3 16.8l3.2.6.4-.7L9 52l1.8-1.8-3-1.1v-.4l3.3-.4-2.8-2.8c1.5 0 2.9 0 2.4-2l-2.5-.7c1-.8 3.1.2 2.7-2.3l-2.3-.9 3-.8V38l-4-.7Zm144 6.8c0-.9-.2-1.4-.1-2 0-.4.4-1 .3-1-2-1.9-.3-4.5-1.5-6.7-1.2-2.1-.2-5.2-2.6-7 .8-1.3-1.8-2.3-.4-3.7l-1-1.4-1.4 1.4 5.5 20.5h1.2ZM9.7 34.2c2.8-.2 2.8-.2 3.5-2l-2.7-.9c1.3-1 3.6 1 4-1.9-1-.2-1.7-.5-2.8-.9l3.7-.5V27l-4.4-.7-3.3 9c3.5 1.2 3.5 1.2 4.6-.4l-2.6-.8Zm21 58.4.1-.5c-1.2-.5-2.5-1.4-3.8-1.4-3.1 0-6.3.4-9.4 1-.7 0-1.2 1.2-1.8 1.9l.5.5c4.8-.6 9.6-1 14.5-1.5ZM17.3 20.9l3.2-.8-.1-.7-3.7-.6c-1.6 2-3.1 4.3-4.8 6.6 4.3 1.3 4.4 1.3 5.2-1.3l-1.8-.6 4.2-1.1a42 42 0 0 0-2.2-1.5ZM138 23.1l4.3-.4-5.9-7.5-4 1.3 3.4 1.1-.8 1.2 3 .7-1.7 1.2 2.8.8-1.1 1.6Zm-71.6 84.7 10.3-1.9v-.7l-9.8-.7-.5 3.3Zm5-7c2.5 2.9 5.2 3.9 10.5 3.2l-7-1.5.2-.2h2.9v-.5l-6.6-1Zm-54.5-10 8.3-1.1c-2.6-2.5-5-1.5-7.4-1.2-.3.1-.5 1.2-1 2.2Zm96.9 19 .7.3 1.2-1.5 2.3 1.2-.9-4.1-3.3.6v3.6ZM153.2 52c-2.3-1.2-1.2-2-.7-2.8-2-.9.4-2-.3-3h-2V52h3Zm-7.4 20.2-1.2-.6c-2 1.5-1 4.7-3 6.4l1.9.7 2.3-6.5Zm.1 4.5-2.1 4.8 1.6.9 2.3-4.8-1.8-.9Zm3.7-6.6c-2.3-.3-2.1 1.6-2.6 3.2l2.2.7.4-4Zm.3-1.4 1-2.8-2-.5-.7 3.2 1.7.1Zm2-12 .2-3.5c-2.2.4-2.2.4-1.5 3.4h1.3ZM81 77.5c-.5-1.4-.3-3.2-2.6-2.5l.8 3.5 1.8-1Zm64.2-11.8 1.6.5c.8-3 .8-3-.8-3.7l-.8 3.2ZM18 17.1c2.7 2 2.8 1.9 3.9-.4l-4 .4Zm6-1.2-.1-1.2-3.9.5.2.9 3.8-.2ZM68 2.4l.1-.4h-7v.4h7ZM23.2 12.6l.2.8 3.2-.4-.1-1-3.3.6Zm123.5 61.2c-.5 2.3.6 2.4 1.5 2.5l.6-.6a85 85 0 0 0-2-2Zm5.8-12.5c-2.2-1.4-2.2-1.4-2.7.4l2.7-.4Zm-3.5 3.1 2.4-.5a8 8 0 0 1-.2-.9c-.8-.5-1.6-.9-2.2 1.4Zm2.6-5.2.5-1.2-2-.6-.4 1 2 .8Zm-8.7 21-.5-1-1.8 1 .4 1 2-1ZM20 86.8v-.3h-3.3v.3h3.3Zm124.9-17.4-.4.7 1.4.5.3-.7a20 20 0 0 1-1.3-.5Zm1.7-1.3v-.8h-1.2l-.1.5c.5 0 .9.1 1.3.3ZM132 94c0 .2 0 .4.2.6l1.5-.5-.2-.5c-.5 0-1 .3-1.5.4Zm1.8-2.2v.8c.5-.1 1-.2 1.3-.4v-.5l-1.3.1Zm2.7-1.4-.7-.6c-.2 0-.5.3-.5.3 0 .2.2.5.4.6l.8-.3ZM126 99.5l.3.4 1-.6-.3-.4-1 .6Zm2.3-1.7c0 .2.2.3.3.5l1.2-.7-.3-.5-1.2.7Zm3.4-1.9-.3-.6-1 .5.3.4c.4 0 .7-.1 1-.3ZM34.4 6.4l-.2-.4-.7.5.2.2.7-.3Zm68.5 7.9-.4-.5-.5.7.3.3.6-.5Zm21.4 86.4v.3h.6v-.3h-.6Zm-1.5 1.4v-.2h-.4v.1l.4.1Zm11.3.8.3-.2-.4-.2-.2.2.3.2Zm-15.8.6v.2h.3v-.3h-.3Zm-18.2-87c0-.2.1-.2.2-.3l-.2-.3-.2.3.2.2Zm20.8 86.4-.4-.1.1.1h.3ZM42 93.7h-.3l.3.2v-.2Z"/><path fill="#fff" d="m143.1 49.2-6.7 1.2v.3h7l.2.9-4.2 1.3v.4h4.4c-1.2 2.5-3.5 1.4-5.3 2.6l4.7.2.1.7-5.7 1.6 2.7.2 2.7-.1c-.6 3.2-3.3 1.3-4.6 2.5l2.1.2 2.5.4c-2 2.6-5 .7-7.2 2.4h7c-1.7 2.5-3.8 2.1-5.6 2.2-1.9.2-3.8.3-5.5 1h10c-2.5 1.8-5.4 1.6-8.2 1.8l-8.6.7v.6l16.6-1 .2.5c-.5.3-1 .8-1.5.9l-7 .6c-8.1.3-16.2.2-24.2.8-7.8.6-15.7 1.9-23.6 2.8-1.1.2-2.4 1-3.5-.9 1.7-1.7 3.8-1 5.7-1.3 2-.2 3.7-.5 5.6-.9-3.8-.8-7.8 1.4-11.6-.6 2.8-1.7 6.1-.8 9-2-3-1.3-6.1 1.2-9.8-.5 2.7-2 5.6-.9 7.8-2.4l-5.4.6c-1.3 0-2.7.1-2.1-2.2l7-1v-.5l-7 .5c-.2-.3-.2-.6-.3-1 1.7-2.2 4.9 0 7.1-2.1l-3.5.3-3.7.2c1.2-2.8 3.2-1.6 4.8-2 1.6-.2 3.4-.4 5-.9h-4.8c-1.6 0-3.1.2-4.7 0 1.2-2.6 3.6-1.3 5.4-1.7 2-.4 4.2-.5 6.3-1.2l-11.5.6-.1-1c5.3-1.8 11.2-.7 16.5-2.7l-15.8 1.2v-1a848 848 0 0 1 61.3-3.2Zm-29 19.7h6.6V68l-6.6 1h-1v.3c.4 0 .7-.2 1-.4Zm-3.5 1.5v.2h8V70l-8 .4Zm0-18.5v.6l5.2-.5v-.5c-1.8 0-3.5.2-5.3.4Zm3.6 2v-.2h-3.5v.2h3.5Zm7.3-.7v-.4l-2.4.2v.2h2.4Z"/><path fill="#fff" d="m105 1.8-5.9 3.7-2.4 2.1-.1.2v-.2l2.8-1.8 7.5-3.5c1-.5 2.2-.4 3.3-.5l-.2.1.1-.1h3v.4l-5.5 1.5-.1-.7c.2 0 .4-.1.5-.3l-.5.4-1.3.6h.1l-1.3.7-1.3.6-3.2 2-.6.2.2.3.5-.5h1.3C98 10.7 93.7 14 90.3 18A65.5 65.5 0 0 0 76 55.7c-.9 11 .4 21.7 4.7 31.8a45.8 45.8 0 0 0 10.1 15.2l1.3 1.7h-1.3l-4.5-4v.1l-.6-.7v.1c-.1-.1-.3-.2-.5 0H85L82.5 98l-.2-.1h.2l.1 1.3-.2.1-2.5-2-.6-.6.7.6v1.3l-2-1.3-.7-1.2-.3.2 1 1c1 1 1.8 2.1 2.6 3.3v-.1l.7.7.6.6c-1.5.8-2.1-.6-2.9-1.3a40.4 40.4 0 0 1-12-19.1 67.3 67.3 0 0 1 12.2-64.5c4.5-5.6 10.3-10 17-12.9l1.4-.6.6.1-.2 1-.1.1v-.2c1.3-.5 2.5-1.2 3.8-1.6 1-.4 2.2-.6 3.4-1Zm-33.3 40-.6 1.6.4.1.1-1.6.6-2 .8-1.3-.5-.1-.2 1.4a32 32 0 0 0-.6 2Zm1.9.7c-.3.9-.5 1.7-.6 2.6l-.7 3.1-.5 1.7h.4v-1.7l.7-3.1.6-2.6.8-1.4-.5-.1-.2 1.5Zm1.3 2-.7 3-.5 1.8h.4v-1.7h.8v5.8l-.2.5v-.5c1-4 1.8-8 2.7-12.1-.2 0-.4 0-.6-.2l-2 6.5v-3.2l.6-1.1-.4-.1-.1 1.3Zm-4.6-4.7 1.4-2.1-.7-.3-.7 2.5c0 .2 0 .4-.2.5l.2-.6Zm.6 6.3c-.2 0-.4 0-.6-.2l-1.2 6.6h.6l1.2-6.4ZM67 53.7l.6.1.3-3-.6-.1-.3 3Z"/><path fill="#fff" d="M64.5 100.6h-1.3l-1.8-2-.7-.6-.7-.6-.6-.7-.2-.2.2.2.7.6.6.7.6.7v1.2c-3-2.8-6.2-5.2-8.8-8.3a52 52 0 0 1-10.8-28.2A61.5 61.5 0 0 1 70 3.1c.9-.6 1.8-1.8 3-.6L71 3.8l-.6.7-1.6.9.3.3 1.3-1.3.6-.6c.7-.5 1.3-1 2-1.3.8.1 1.7-1.7 2.5 0l-.1.1.1-.2c.6-.2 1.1-.5 1.7-.5.5 0 1 .4 1.6.6l-2 1.3-.6.6-.7.7-.6.6-.2.1.2-.1.6-.7.7-.6.6-.7 2-1.2 1.9-.7h-.1L80 3.1h1.3l-7.1 5.5A59.4 59.4 0 0 0 52.8 50c-1 11 0 21.8 3.8 32.3 2 5.5 5.2 10.4 8.6 15l-.1.3.1.4.7.6v1.3l-2.6-2H63h.2l1.2 2.7ZM51 37.9l.8-1.3-.5-.2-.3 1.5-.5 1h.4v-1Zm-2 0 .8-1.2-.5-.2-.2 1.5-.5 1h.4v-1Zm-2.5.6 1.3-2.2-.7-.3-.6 2.6-.5 1h.3l.2-1Zm5.2 8.6-.8 4h.7v-4l.7-4 1.7-5-.9-.2-.8 5.2-.6 4Zm-5.4 5.3h.7l1.3-10.9h-.7l-1.3 10.9Zm-1-6.8h-.6l-.8 6.8h.6l.7-6.8Zm3.8 1.6h.5v-2.4h-.3l-.2 2.4ZM70.9 6.4l.3.3.7-.9-.4-.2-.6.8ZM50 41.4H50v.8l.1-.2v-.5ZM45.5 43v-.5.5ZM142.6 38.4l-10.2.6v.8l10.4-.6v2.4l-12.4 1c4.6 1.5 8.6-1 12.5.7-2 1.7-4.3 1-6.6 1-2.3.3-4.7.4-7 .6 4.6.7 9.3-.6 13.8.3v.8c-1.1.3-2.3.6-3.5.6-19.2.6-38.4 2-57.5 3.4 4.8-3 10.6-.7 15.5-3l-15.5.8 2.4-7.7c3.5-.5 6.9-1 10.2-1.3V38l-9.2 1-.2-.9c3.2-2.8 7.7-.8 11.1-3-3.2.5-6.4.8-9.7 1.2-.1-2 1-2.3 2.4-2.4a5791.9 5791.9 0 0 1 11-1v-.8l-12 1c.2-1.9 1.4-2.2 2.7-2.4 6.7-.9 13.4-2 20.2-2.2 7.9-.2 15.8-1.4 23.6-2 1.3-.2 2.7 0 4.6 0-1.9 1.3-1.9 1.3-6.5 2.2h7.4c-1.8 2.4-4 1.5-6 2.2 2.4 1 4.8-.6 7.3.9-2 2.2-4.3 1-6.4 1.7 2.3 1 5.2-.9 7 1.3v.9l-7.2.4v.6h2.5l3.2-.2c.8 0 1.5.4 2.3.6l-.2 1.2Zm-57.4 6.2v.7l7.7-.6-.1-.7-7.6.6Zm30.4 2.2v-.5l-8.8.8v.6l8.8-.9Zm-30-4.8v.5l7-.5v-.9l-7 .9Zm29-11 .1.1h4.5v-.3l-4.6.2Zm0-1.3v.3h3v-.3h-3Zm3.7 16.2v.2h3.2V46h-3.2ZM110 30.3v.4h1l.2-.2c-.5 0-.8 0-1.2-.2ZM93.5 111.5c1.5-.2 3.1-.5 4.7-.6 1.3-.1 2.6 0 4 .5l-5.8 1.4v.5c.7 0 1.3 0 1.9-.2 4-1.1 7.9-1.7 12-1.5a34 34 0 0 0 14.3-3c3.3-1.3 7-1.9 10.5-2.4-2.5 2.5-6.2 2.1-9 4.1l9.5-2.3.3.5c-.3.4-.6 1-1 1-1.8.6-3.8 1-5.6 1.4-1.2.3-2.4.8-3.6 1.3h-1l.1.4 1-.5 10.3-1.6c1 1.5-.2 1.9-1.2 2.2l-9.8 2c-.6.2-1.3.4-1.8 1.2l13.6-2.6.2 1c-4.4 2.5-9.7 2-14.2 4.4l14.6-3c0 .4.2.7.3 1-1.3 2-3.8 1.4-5.7 2-2 .8-4.2 1.2-6.3 1.8l.1.6 12-2.6.2.7-2 1.5-5 .6.2.8 4.7-1.5 2.1.2.1.7c-5 1.5-10.4 2.2-15.5 3.5l-1.5-1.4c-7.2-8.6-17.4-9.5-27.2-5-6 2.9-10.7 7.4-14 13.3-.9 1.7-2 2.6-3.8 3-4.7 1-9.2 2.2-13.8 3.3-.7.2-1.4.2-2.2.3.6-1.8.6-1.8 5-2.8l5.7-1.4-.1-.7-10 2.3-.4-.5 1.5-2 9.2-1.4-.1-.8a23 23 0 0 0-9 2.2c-1.7-1.4-.7-2.2.8-2.6l8.1-1.8 3.7-.9-.1-.7-12.6 2.6-.2-.8c4-2.7 9.2-2 13.4-4.4l-12.8 2.5c.1-1.8 1.3-2 2.6-2.3l11.9-2.6c.6-.1 1.2-.4 1.7-1l-15.6 3c0-2 1.3-2.3 2.5-2.5 4.5-1 8.8-1.8 13.3-2.6l3-.8v-.6l-18 3.3c-.3-2 .8-2.3 2-2.6l11.5-2c1-.2 2.2-.5 3.2-1.3l-16 2.7c-.4-2 .6-2.5 2-2.8l14-2.4c.9-.1 1.8-.4 2.6-1.2l-17.9 3c-.5-2.2.9-2.5 2-2.7l9.6-1.7 7.5-1.2v-.7L65.6 111c-.2-1.3 0-2.4 1.4-2.6 5.3-.8 10.6-1.7 15.9-2 2.4 0 5 1.2 7.4 1.9l6.4 1.7-3.3 1.4-.1.1v-.1Zm10.3 2.6-11.6 2.6-4.3.6.2.7 4.1-1.3 11.5-2.6 5-.6-.2-1-4.7 1.6ZM97 77.6c-5-1-9.4 1.5-14.6.7 3.8-2 49.2-5.8 57.5-4.7l-4.1 1c1.5 0 2.5.2 3.5.3l.2.7-3 .7c-1.2.2-2.3.3-3.4.8h5.4l.1.7-8.2 1.4v.6l7.5-.6c-1.5 2.2-3.5 1.8-5.1 2-1.8.3-3.6.6-5.4 1.3l9.1-.6.2.8c-4 2.7-9 1.2-13.2 3.2l11.3-1.1.2.4c-.5.4-1 1-1.5 1.1-3 .5-6 1-8.9 1.3l-8.4 1v.7l16.5-1.7c-1 1.7-2.8 1.2-4.3 1.5-1.8.3-3.7.3-5.5.5-1.7.2-3.3.5-5 1.2l13.9-1c-2.2 1.2-37 5.4-40.1 4.5l7-1.1c-3-1.4-5.8 1.2-8.6-1.1l6-1.1-.1-.5-7.1.4-.2-.9 5.2-1.2v-.4l-6.3.4-.2-1 4.5-1.3c-1.8-1.3-4.2 1.3-6.2-1 2-2.2 5-.5 7.1-2.2-2.8-.3-5.6 1.5-8-.2v-1l9.7-1.2c-3.9-1.4-7.4 1.3-10.7-.8 4-1.8 8.5-1.2 13.2-2.5Zm14.5-1c2.7 0 5.5-.2 8.2-.4l-.1-.8-8 1.3h-3.7l.1.7 3.5-.7ZM106.2 87v.5l6.6-.7v-.5l-6.6.7Zm4-2.9h4l-.1-.4c-1.1 0-2.2.2-3.9.4Zm-2.9 6.4v.3h3.3v-.3h-3.3Z"/><path fill="#fff" d="m38.2 42.4 2.3 1c.7 2.3-.8 2.4-2.3 2.3l-5.7-1.1v.9l5.7.1c.5 1 3 .5 1.7 3l-9-.9c2.8 2.3 6.9-.2 9.6 3.2-4 1-7-1-10.4-.2 2.6.4 5.2 1 7.8 1.3 1.3.2 2.3.5 1.8 2.5-3.2.9-6.3-1-9.7-.4.8.2 1.5.5 2.3.6 2 .3 4 .4 6 .9.6.1 1.4 1 1.5 1.7 0 .5-.9 1-1.4 1.8l2 1.4c-3.7 1.2-6.6-1.1-9.8-.2l3.4.8 3.5.6c1.1.2 2.7 0 2.6 2.4l-9-1.5-.1.6 9.3 2 .3 2.4-.8.3L22.2 64c-1-.2-2.7 0-2.6-2.2h3c-.9-1.4-3.7-.5-3.6-3.3l3.7.5-4-2.4c0-.3 0-.5.2-.7h2.8l-3.5-2.2 4-.4c-1.1-1-3.6-.1-3.3-2.6h2.9c-.7-1.4-4-.5-2.7-3.4h4l-4.3-1.7c1.6-1.7 3.5.2 4.8-1-1.3-.8-3.8.5-4.2-2.7l5.1-.3c-1.6-1-4 0-4.6-2.9 7.2 0 14 1 20.8 1.4.1 2.2.1 2.2-2.7 2.3l-5.3-.8v.8h5.5Zm-4.5 15.8c0-.3.2-.5.3-.7l-5.4-.9v.6l5 1ZM35 110.9l-3.6 2.3 2 .2v.8a217 217 0 0 1-23.2 2.5c3.6-1.8 7.8-1.2 11.5-2.8l-5.4.3-5.9.7c1.3-2.6 3.4-1.9 5-2.3 1.7-.4 3.5-.6 5.1-1.4l-9 1c.7-2 1-2 5.2-2.5l6.3-.8v-.7l-10.8 1.2-.3-.8c.7-.3 1.4-.7 2.2-.9l12-2c.3 0 .6-.2.8-.8l-14.2 2c0-2 1.2-2.3 2.5-2.4l12.3-2a3 3 0 0 0 2-1.2l-15.9 2.5c-.2-2.2 1-2.5 2.4-2.7l12-1.9 4.1-.7V98l-17.5 2.3c-.2-2 1-2.1 2.1-2.3l10.9-1.3 3.7-.7v-.6c-5.4.5-10.6 1.1-16 1.8-.1-1.8.9-2.2 2.1-2.3 4.8-.5 9.6-1.2 14.4-1.3 2-.1 4 1 6.1 1.6.3.1.4.9.5 1.4h4l.1.5-3 1 .2.2 6.7-.5v.8l-8.1 1.3c4.6.8 9.1-1.5 13.7.3L41 101.8v.5l2.8-.1.2.6-8.3 2.6v.3l3.9-.4c-1.6 2.7-4.7 1.8-7.1 3.6l4.5-.7-2.2 2-3.7.3v.5c1.3 0 2.5 0 3.7-.2ZM45.1 28.6c-.7 1.9-.7 1.9-5.3 1.6-2 0-4-.2-6.1.3l10.3 1c0 2.4-1.2 2.4-2.8 2.3-3.2-.3-6.3-.4-9.5 0l11.4 1-1.2 4.2-20.7-1.7-.1-.7 2.7-.9-2.3-1c.7-1.9 2.4-.7 3.6-1.5l-2.9-.8c.2-.5.3-1.1.5-1.2l3.8-.6a98 98 0 0 0-2.8-.9c.6-1.9.6-1.9 4.3-2.3l-3.2-.6c.9-3 3.4-1 4.9-2l-3.6-1c1.5-2.3 3.8-.7 5.5-1.6l-3.5-1v-.8l5.2-.6v-.4l-3.4-.2c.7-1.5.7-1.5 6-2.3l-4-.7c.5-.5.9-1 1.2-1 6.7 0 13.3.1 20 .6-3.3 1.8-6.9.1-10.3.5v1h9v1c-3.1 2.6-7 .1-10.4 1.4l9 .4c-1.9 2.8-4 1.7-5.8 1.7-2 0-4-.4-6-.6l-.1.7 9.7.9c-.2 2.3-1.7 2.2-3.2 2.1a38 38 0 0 0-8.4.1l9.8.9.3.6c-.6.4-1.3 1.1-2 1.2l-5.4-.3c-1.1 0-2.3-.1-3.5.1 3 1.4 6.1.1 9.3 1.1Zm-11.4 8.2-.3.3h6.2v-.3h-6Z"/><path fill="#fff" d="M39.4 5.7h1.3c-.7.8-1.1 1.7-2 2.3a51.2 51.2 0 0 0-21.1 42.3c-.5 13.4 3 25.5 12 35.7l.8 1.6-1.2-.6-.7-.7-.1-.1h.1l.7.8c-1.4.8-1.9-.6-2.6-1.3a46 46 0 0 1-13.9-26.3c-2.6-14.6.3-28 9.5-39.7a47 47 0 0 1 16.6-14v.7l-.6.6-.2.2.1-.2.7-.6.7-.7ZM15 41.1l.6-2.5v-.1.1l-.6 2.5Zm1 5.7h-.2v4.3h.3v-4.3Zm1-6.7.7-1.1c0-.4.2-.8.3-1-.6 0-.8.2-.9.5-.1.4 0 .8 0 1.6Zm-2.9 8.7c-.1-.3 0-.1 0 0 0-.3 0-.1 0 0ZM106.4 14.8c4.8-3.3 12.4-4 17.5-1.4h-5.5c3 1 6.2-.2 9 1.9h-7.1c3.3 1.2 6.7 0 10 1.1v.8l-6.8.6c3 1.5 6.5-1 9.5 1.1v.8l-6.7.5c3.2 1.4 6.6-1 9.7 2.2l-10.6 1v.5l7.6-.6c1.4 0 2.9-.5 4.3 1.4-15.7 2.2-31.4.7-46.6 4.3 4-2.3 8.5-1.6 12.6-3.4l-11 1.2c3.4-3 7.8-1.7 11.6-3.6l-9.4 1c3.4-2.9 7.7-1.9 11.3-3.7l-9.5 1c3.7-3.2 8-2 11.5-3.6l-7.5.5c1.2-1.5 2.8-2 4.4-2.3 1.5-.2 3.1-.5 4.6-1.2l-3-.1Zm6.4 10.2 7.2-.2c-1.7-1.7-1.7-1.7-4-1.7l-.2.4 2.6.5c-2 .4-3.8.8-5.6 1l-1.6.2.2.4 1.4-.6Zm3.2-3v.3h.7v-.2h-.7Z"/><path fill="#fff" d="M39.5 71.5c1 .9 3 1 2.9 3.3h-3L34 72.7l-.2 1 5.8 1c1.2 1.3 4 .7 4 3.7-3 .5-5.5-1.6-8.6-1l7.3 1.9c1.5.3 2.8 1 2.8 3.3l-9.9-2.4c0 .2 0 .4-.2.6l8.8 2.2c1.6.4 3 .9 3.3 3l-1.8.3-8-2.6c0 .4 0 .7-.2 1l8.3 1.6 4.2 2.6-1.7.7-2.6-.6-7-2-.2-.1h.2l7 2 2.7.7c.9.6 2 1.1 2.8 2 .2 0-.2.8-.3 1.2l-2.6-.6-2-.6a97 97 0 0 1-3.4-1.5l-.2.9 3.7.5 2 .6 2.6.7 3.1 2.6-16.8-4.8c-.7-.2-1.2-1.1-1.8-1.7l.8-.4-4.8-2.6.2-.6 2.4.2c-1.8-1.4-4.5-1-5.5-3.7l2.2-.1v-.3c-.9-.3-2-.5-2.8-1-.8-.4-1.3-1.2-1.7-2.3l4 .5.1.1h-.1c-1-.5-2-1-3.2-1.3-1.5-.4-2.6-1.1-3-3 .6 0 1.1-.2 1.7-.3l2.4 1.1.2-.8-2.7-.3c-.7-.4-1.5-.7-2.1-1.2-1-.7-1.5-1.6-.4-2.6L27 72l.2-.8-4.5-1c-.7-1-2.6-1.5-1.3-3.3l3.9 1.6.2-.8-4.1-.8-1.2-2.2 20.5 4.8c.4.1.6.8 1 1.5l-2.3.4-6.8-2.1-.2 1 7 1ZM14.4 78.6c-1.7-1.3-3.6-2.4-5-4-6.3-8-8.8-17.3-8-27.4.2-3.6.7-7.3 1.5-10.8A41.1 41.1 0 0 1 24.2 9.1c.7-.4 1.6-.5 2.4-.8-2.4 2-4.9 3.9-7.2 6A41.6 41.6 0 0 0 5.6 51.5c1 9.3 3.4 18.1 8.5 26l.2 1Zm-11-38.8.5-1-.4-.1-.1 1.2-.2.4.1-.5Zm1 6.2h-.2v1.4h.2V46Zm.9-9.3h-.4l-.1 1.1h.4v-1ZM60.7 67.6c1.7.8 2.8 2 2.2 4.2-2.7.6-5.1-.6-7.8-.9-.8-2.7-.9-5.1-.4-8.1-.2-.3-.8-1-.9-1.9-.1-2.4-.4-4.9.1-7.2s.7-4.6.7-7c0-.6.6-1.2 1.1-2L55 42c3.5.6 6.5.4 9.6 1.3-1.9 2.3-3.9.5-5.7 1.5l4.5.6c0 2.3 0 2.3-4.4 2.3l4 1c-.3 1.8-.3 1.8-4.5 2 .6.2 1.1.5 1.7.6l2.4.5c0 .8-.2 1.4-.3 2.2H59v.4l3.3.7.1 2.1-3.9.4 3.9 1v5h-3.7v.5l3.4.6c.6 1.5 1.2 3-1.4 3l-2.3-.6v.6h2.4Zm-2-7H58v.3h.5v-.2ZM73.4 22.2c-1.3 2.7-3.7 1-5.5 1.9l3.6.6c-1.1 3-3.6 1-5.7 2.1l4 .3c-.4 2.3-.4 2.3-5 2.8l1.8.2 2 .2c0 1.8-1 2.5-2.5 2.4l-3.7-.6-.1.7 4.7.8c-.4 1.4-.4 1.4-6.1 2.2l5 .8c-.5 2-.5 2-5.7 2.3 1.5 1 4-.6 5 2.3-3.3.3-6.2 0-9.6-.8l1.9-2.3c0-2 0-2 1-2.8l-1-1.3 1.8-1.7c-1-1.7-.1-2.6 1.7-2.9-1-2-1-2.2 2.3-3.3l-1.6-1.2 2.4-2c0-3 3.6-4 4.3-7l9 .7c-2.2 3.7-5.1.6-7.6 1.8l5 1c-.9 1.6-.9 1.6-3.9 2l1.3.3 1.2.5ZM60.4 126.9l-3.1.3 3 1.4c-.1.8-.3 1.4-.6 2.2l-2.8-.3v.4l2.5 1.1-.2 1.9h-2.7c1 1 3.5 1 1.8 3.2l-3-.4s0 .2-.2.3l2.5 1-.2.6-5.3-1.3 8-34 2.8.4 2.1.5.1.7-2.6.5 2.7 1.7-2.9.8c.5.9 2.8.5 1.7 2.7-1 0-2 0-3.8-.2l3.4 1.6c-.8 1.4-.8 1.4-2.8 1.8L63 115l-.4 2.1c-1 0-1.7 0-3.2-.2l3 1.7c-1 1.5-1 1.5-3.3 1.6l3 1.8-2.5 2.3c.9.4 2 1 .7 2.6ZM36.9 11.5l6.1-1v-.3h-4c1.8-2.5 4.4-1.4 6.7-2.4l-3-.4v-.7c2.5-.2 5-.3 7.4-.6v-.3L47 5.4c3.3-2.5 12.6-3.6 20-1.9-4 2-7.7.2-11.2.5v.7h8l.3 1c-1 .4-2 1.1-3.1 1.3-1.4.2-2.8 0-4.2 0-1.2 0-2.5 0-3.8.5h7.8v.8c-3.5 3-8 .1-11.8 2h8.8l.2.7-2.5 1.4c0 .4.2.7.3 1H35v-.6l5.5-.3.1-.7-3.8-.4v.1Zm12.6.7v.2h2.8v-.2h-2.8ZM72.2 99.3c-4.2.8-5.8-2.7-7.5-5.2a78.5 78.5 0 0 1-6.4-11.6c-1.4-3-2-6.3-3-10.2 3 .6 5.5 1 7.9 1.6.3.1.4 1.1.6 2l-4.5.3c2 1.1 5-.2 5.5 3.6l-4-.3-.1.6 4.3.6 1.1 2.7h-4c4.2 1.7 4.4 1.9 5 3.3l-3.8.5c1.7 1.3 4.7-.8 5.4 2.6l-3.1.6c1.8 1 4.5-.4 4.9 2.7l-3.2.5c1.7 1 4-.5 5.2 2.2l-3.5.4c1.9 1 4.2-.3 5.4 2l-2.2 1ZM125 95.3v.8l-4.4.1v.8l4.4-1c-.1.4-.2 1.1-.4 1.2l-4.8 1 2 .6c-2.7 2.8-11.2 4-19 2.7l2.3-.7-4.2-.4v-.3l2.4-.4v-.3h-5v-.6l7.4-1.1V97l-10 .9v-.7l33-4.3.1.7L119 95v.4h6.1Zm-8.7 4.6v-.7l-5.8.8v.6l5.8-.7Zm-4-1.8.2.5 1.6-.5-.2-.5-1.6.5Zm-.4-1.6.1.5 1-.5-.2-.4-1 .4ZM11.8 97.3l1.4 2.3h-2.5l2 3.1H9.5l2.3 2c-.8.5-1.3 1-2 1.3l1.1 1.6-1.9 1c1.5 2.2 1.4 2.4-1 3l1.4 2.9-2.7-.2-.3.5 2 1.2a5 5 0 0 1-.4.8l-3.5-1 8-28.4 1.8.2c.3.2.7.4 1 .9H13l3 1.2-.8 1.2c-.8.2-1.5.6-2.3 1l2 1.7-2.8.9 1.7 2-2.2.9-.1-.2.2.1ZM130.8 7l1.6-1 .5.4c-.5 1-1 2-1.8 3.2A26.6 26.6 0 0 0 113 7.3l-.4-3.6.7-.2 1.5 1.2.7-1.7 2 1.2.5-1h3.6l.4 1 1.8-1.4.2 2.3 2-2.3.5 2.3 1.6-1.2 1 1.7 1.7-.7v2ZM104.4 107.7l-1.6 1-.6-1.7-1.7 1-.2-2.4-2.1 1.5.6-3.1-2 1.6-.3-.3.7-2.5-2 1.5-.4-1.4-1.7.2.5-2.4-2 1 1.8-2.8a30.3 30.3 0 0 0 19.3 7.4l-.5 3.6h-.7l-.5-2.7-1.6 3.5-.9-2.6-1.4 1.4-.6-1.4-1.7 1.3-.3-1.8v-.2.3ZM78 9.6l-1.3-1.3L82 5.4c.9-3 6.5-4.6 16.3-3.7h-5.5l-.1.4 2.2.5C92 6 88.1 5 84.6 5.6l3.9.6c-2.7 4.2-6.7 3.3-10.5 3.3ZM85 8v-.7l-2.7-.1v.5c1 0 1.8.2 2.7.3Zm4.8-4.3v-.3h-2.4v.3h2.4ZM94.8 16.7c-.3-2.3 2-2.8 3-4.3.8-1.1 2-2 3.3-2.8.4-.3 1-.2 1.8-.3l.7-1.6 1.6 1.3.3-2.6 1.3.3 3.8-2.6.7 1.7V8A42.4 42.4 0 0 0 94 20.2l-1-3 2-.5h.1-.2Z"/><path fill="#fff" d="m7.5 37.3 4.1.6v.9l-3 .8 2.3.9c.5 2.5-1.6 1.4-2.7 2.2l2.5.7c.5 2-1 2-2.4 2l2.8 2.8-3.2.4v.4l2.9 1.1L9 52l1.8 2-.4.7-3.2-.5a47 47 0 0 1 .3-16.8ZM151.5 44.1l-1.2.1-5.5-20.5 1.5-1.4 1 1.3c-1.4 1.5 1.1 2.4.3 3.7 2.4 1.9 1.5 5 2.7 7 1.2 2.3-.7 4.9 1.4 6.7.1.1-.3.7-.3 1.1l.1 2ZM135.3 8.9l1.5.1-.7 2 2.6-.7-.4 2.1c1.2 0 3.2-.7 1.8 2 1.1 0 2.3-.2 2 1.5l-.6 1 .4.2.7-.9.2.1 1 2.4 1.6 2.3-1.5 1.2-11.2-12.5 1.6-2.6 1 1.9h-.2l.2-.1ZM132 98c.3.6.5 1.3.6 2 .2 1.6-.6 1.6-1.8 1.2 0-.2-.2-.3-.3-.5 0 .2.2.3.3.5l-.5 2.4-1.9-1.3.2 2.3-5.3 2.4-1-.8-.8 2-1.3-1.1-1 2-.3-3.1 13.3-8h-.1ZM79.3 49.6c.2 1.1.6 2.3.5 3.4-.8 5.9-.8 11.7 0 17.6.1 1 .8 2.4-1.3 2.9L77 61.1c-.2-1 0-2.1.3-3.1.8-2.3 0-4.7.8-7 .1-.6.8-1 1.2-1.4ZM78 9.5l5.3 1c-1.4 2.7-3.8.6-6.2 1.6l3.4.9.2.5-3.5.9 1.3.5v.4l-8-.7-.2-.6 2.3-.8c-1-2.4 1.6-1.2 1.8-2.2.2-.4.3-1.2.5-1.2 1-.2 2-.2 3.2-.3H78ZM9.7 34.2l2.6.8c-1.1 1.7-1.1 1.7-4.6.4l3.3-9c1.7.3 3 .6 4.3.7v.9l-3.6.6 2.8.9c-.4 2.8-2.7.9-4 1.9l2.7.9c-.7 1.7-.7 1.7-3.5 2ZM89.7 23l-.2-2.1 1.7.3v-2h.4l1 1.7-8.2 13.8-.6-.7c0-.8-1.5-1.9.4-2.5l.6-.2c-.5-1.5-.3-2.7 1.4-3.2-.7-1.7 1.3-2.2 1.5-3 .4-1.4.6-2 2-2l.2.1-.2-.1ZM146.9 56.7c-.2-.5-.7-1.1-.6-1.4a7 7 0 0 0 0-5.1c-.1-.4.4-1.1.6-1.9l-1.4-2h2.8v15.3l-2.5-.5 1.1-4.5.1.2-.1-.1ZM30.8 92.6 16.3 94l-.5-.5c.6-.6 1-1.8 1.8-1.9 3-.5 6.3-.9 9.4-1 1.3 0 2.6 1 3.8 1.4v.6ZM84.5 89.6c-.5-.3-1.2-.6-1.6-1-1-1.1 0-3.2-1.8-4l.6-1.1c-2-1.3-2.1-3.2-.5-4.4l6.5 13.7-.6.7-1.8.2.5-2.3H84l.5-1.8ZM145 30.2c0 .5.4 1 .4 1.5 0 .2-.6.4-.8.6 3.4 2.6 2.5 6.7 3.4 10.2.2.6-.5 1.4-.8 2.1l-.6-.2-1.2-4.3 1-.7-2-1.2.7-.8-2.7-5.9 2.6-1.3ZM13 69c.2.9 2.8 1.2.9 2.8l2.4 2.2-.5.7c-1-.4-2.2-.6-2.6-1.3-2-3.1-3.4-6.6-4.2-11l3.6 1.3-1.3 1.7c1 .9 3 1.4 1.7 3.6l-.1-.2.2.1ZM17.2 21l2.2 1.4-4.2 1 1.8.7c-.7 2.6-1 2.6-5.2 1.3l4.8-6.6 3.7.6.1.7-3.2.8ZM137.9 23l1.2-1.5-2.8-.8 1.7-1.2-3-.7.8-1.2-3.4-1.1c1.7-.6 2.6-1 4-1.3l5.8 7.5-4.3.4ZM66.3 107.8l.5-3.3 9.7.7v.7l-10.2 1.9ZM119.7 9.4l-2.4.8v-1l-6.3 2c1.9-3 6.2-4 11.6-2.8l-1 1.8h.1l-1.9.3.1-.9.3-.4-.5.2ZM71.3 100.7c2.4.4 4.5.8 6.7 1v.6h-3v.2c2.2.6 4.5 1 6.8 1.5-5.3.7-8-.3-10.5-3.3ZM16.8 90.7c.4-1 .6-2 1-2.1 2.3-.4 4.7-1.4 7.3 1.1l-8.3 1ZM143 86.4c0 .5.2 1 .5 1.6h-1.1l-1.2 2.1-.4-.2.2.4c-1.2 1.3-1.1-.3-1.9-1l4-5.5 1.3 2-1.3.5-.3-.1.2.2ZM113.7 109.9v-3.6l3.3-.7 1 4.2-2.4-1.2-1.2 1.5-.7-.2ZM45.2 94.8l10.2 2.7c.3 0 .5.3.6.9l-9.8-2c-.4-.2-.6-1.1-1-1.7ZM153.2 52h-3v-6h2c.7 1-1.7 2.2.3 3-.5 1-1.6 1.8.7 3ZM145.8 72l-2.3 6.6-1.8-.7c2-1.8.9-4.9 3-6.5l1 .7Z"/><path fill="#fff" d="M136 94c.2 1.1.5 2.3 1 3.8l-2-.5-.7 3.2-2.2-2.5 3.9-3.9ZM9.1 59.9c-1.5-1.2-1.7-2.8-1.7-5L11 56v.7l-1.7.9 2.7 1.8-2.8.4ZM128.9 12.2c2-1.5 3.4-.5 4.5 1.3l-1.6.1.1.7 1.5-1c.4.3 1 .4 1.5.7-2.6 1.8-2.8 1.8-5.6-.1l1-1.6-1.5-.2ZM145.9 76.6l1.8 1-2.3 4.7-1.6-.9 2.1-4.8ZM145 30.2l-3-.3-1.5-3 2.5-1.2 2 4.5Zm-1.7-2-.4-.3-.2.2.3.4.3-.3ZM90.9 96.7 87.7 98l.9-3-2.2.7.7-2.3H87l.7-.6 3.2 3.8v.1ZM121.7 10.2l2.9-1.7 3.8 1.3v.7l-3.6 1.1.4-1.4h-3.4Z"/><path fill="#fff" d="m136 94.1 2.2-3.5 2 2.4-.5.6-1.6-.4.2 2.9-2.4-2ZM138 88.3c-1-2 .4-3.3 1.5-4.3.5-.6-.2-3 2-1.7-.7 2.3-1.8 4.3-3.6 6ZM79.4 49.6c-1.8-1.4-1-2.9-.2-4.4 2.3.8 2.3 2.2.2 4.3v.1ZM29.2 10.2c-.8 1.3-1.9 1.6-3.6 1 2.2-1.5 3.8-3.4 6.9-3.7L29 10.2v-.1ZM84.5 34.7 83 39c-.8-1-1.7-1.6-1.6-2.1.2-1.3.5-2.8 2.4-2.7l.6.7ZM149.6 70l-.4 3.9-2.2-.7c.5-1.6.3-3.5 2.6-3.2ZM149.9 68.6h-1.7l.8-3.3 2 .5-1.1 2.8ZM151.9 56.5h-1.4c-.6-3-.6-3 1.6-3.4l-.2 3.4ZM81 77.7l-1.8 1-.7-3.6c2.3-.7 2.1 1.1 2.6 2.6ZM145.3 65.8l.8-3.2c1.6.7 1.6.7.8 3.7l-1.6-.5ZM18 17l3.9-.3c-1.1 2.3-1.2 2.3-4 .4ZM17.6 78c1 .8 1.9 1.7 3.2 3-2.6.3-3.5-1-4.5-2.5l1.4-.5h-.1ZM91 96.6c1.2 1.5 1.2 1.5-.3 3.7l-1.4-1.1 1.6-2.5ZM128.9 106.3a8 8 0 0 1 5.7-2 11.7 11.7 0 0 1-5.7 2ZM81.2 41.2l.6 2.5-.7.3c-.5-.3-1.4-.6-1.5-1-.3-1.3.6-1.7 1.7-1.8ZM87.7 104.4l-3.9-2.6-.6-.6-.7-.7v.1-1.2l.1-.2 5 5.2h.1ZM24 16h-3.8l-.2-.8 3.9-.5.1 1.2ZM17.7 78l-3.5-2c3-.6 3.2-.4 3.4 2ZM68 2.4h-6.9V2h7v.4ZM23.2 12.6l3.3-.5.1.9-3.2.4-.2-.8ZM146.7 73.8l2.2 1.9-.6.6c-1 0-2-.2-1.6-2.5ZM152.5 61.3l-2.7.4c.5-1.8.5-1.8 2.7-.4ZM149 64.4c.6-2.3 1.4-1.9 2.2-1.4l.2 1c-.7 0-1.4.2-2.4.4ZM151.6 59.2l-2-.9.4-1 2 .7c0 .4-.2.8-.4 1.2ZM143 25.7l-3.3-.4.2-.7c1.1-.1 2.5-1 3.1 1v.1ZM143 80.2l-2 .9-.4-1 1.8-1 .5 1.1Z"/><path fill="#fff" d="m81.3 41.2-.7-2.4c2.2 1 2.2 1 .6 2.4h.1ZM83.8 103.1a36 36 0 0 1-2-1.3h.1l-.7-.7-.6-.6v-1.3l2 1.4v-.1l.6.7.7.6-.1 1.3ZM109.6 10.2l-2.3 2.4c-.1-1.8 1-2 2.3-2.4ZM22.1 83h-2.3l.2-1 2 1.1h.1ZM9.1 59.8l2.3 1.4c-1 0-2.7.8-2.2-1.4ZM143 83.8c1-2.2 1.6-.8 2.3.4l-2.3-.5ZM19.9 86.8h-3.3v-.3h3.3v.3ZM81.3 3.1l2-1.8.6.7L81.2 3ZM43.3 5c.8-.5 1.5-1.1 2.2-1.8l.4.7L43.3 5ZM144.8 69.4l1.3.5-.3.7-1.4-.5.4-.7ZM146.5 68l-1.3-.3v-.4h1.4v.8ZM72.2 99.3h3v.7l-3-.7ZM132 94l1.5-.4c0 .1 0 .3.2.5l-1.5.5-.2-.6ZM133.8 91.8l1.2-.1.1.5-1.3.4v-.8ZM136.5 90.4l-.8.3c-.2 0-.3-.3-.4-.6 0 0 .3-.3.5-.3s.4.3.7.6ZM126 99.5l1-.6.3.4-1 .6-.3-.4ZM128.3 97.8l1.3-.7c0 .2.1.4.3.5l-1.3.7-.3-.5ZM131.7 96l-1 .3-.2-.5.9-.4.3.5ZM92.2 104.5l2 1.2h-1.3l-.7-1.3ZM91.6 105.7l-2-1.3H91l.7 1.4v-.1ZM34.4 6.4c-.3 0-.5.2-.7.3l-.2-.2.7-.5.2.4ZM125 95.4l1.6-.6v.4l-1.6.2ZM103 14.3l-.7.5-.3-.3.5-.7.4.5ZM128.9 12.1l-1 .6-.2-.4 1.2-.1ZM137.9 88.3l-.7.4-.6-.8 1.3.4ZM124.3 100.7h.6v.3h-.6v-.3ZM122.8 102.1h-.5l.1-.2h.4v.2ZM134 102.9l-.2-.2.2-.2.3.2-.2.2ZM118.3 103.5l.3-.1v.3h-.3v-.2ZM100 16.4V16c.2 0 .2.2.3.3l-.2.1ZM105 1.8c.2 0 .4-.2.5-.3-.2 0-.3.2-.5.3ZM107.6 3.7l-1.3.7v-.7h1.4ZM106.3 4.4l-1.2.6v-.6h1.3ZM94.8 107.7l.5.2-.5-.3ZM94.8 107.6l-1.3-.6 1.3.6Z"/><path fill="#fff" d="M92.8 105.7v.6l-1.2-.6h1.3ZM43.3 5l-1.3.7v-.6h1.3ZM105 5l-1.2.7V5h1.3ZM106.3 14.7l-.4.3c.2 0 .3-.2.5-.3ZM120.9 102.9h-.3l-.1-.1h.4ZM68.3 101.2h-1.2 1.3ZM66.4 101.2h-1.2 1.3ZM63.2 100.5H62h1.3ZM103.1 6.3l-1.3.7 1.3-.6ZM27.9 7.6 29 7l-1.3.6ZM27.9 7.6l-1.4.7 1.4-.6ZM45.3 94.7h-.6.5ZM42 93.7v.2l-.2-.1.3-.1ZM27.9 89l-1.3-.7 1.2.6ZM26.6 88.3l-1.3-.7 1.3.7ZM16.3 80.5l-.6-.6.6.6ZM16.3 80.5v.1ZM15 79.3l.6.7-.6-.7ZM22 83.1l.2.2-.1-.2ZM117.3 10.2l-.2.1h.2v-.1ZM15 79.2l-.6-.6.6.7ZM36.9 11.5l-.2.1h.2v-.1ZM35 89l-.3-.2.2.1ZM95.4 20.5h.1ZM27.8 89h.2-.1ZM105 12.8l.2-.2-.1.2ZM104.4 13.4l.7-.6-.7.6ZM53.6 95.4l.1.1-.1-.1ZM65.1 97.3l.7.7h-.7v-.7ZM65.8 98l.6.6h-.6V98ZM66.4 98.6l.7.7-.6-.7Z"/><path fill="#fff" d="m67 99.3.7.6-.6-.7ZM103.8 5.7l-.7.6.7-.6ZM62 100.5l-.7-.6.6.7ZM67.7 100l.6.6c-.1-.3-.4-.5-.6-.7ZM85.8 100.5l-.7-.6h.7v.6ZM65.2 101.2l-.7-.6.6.6ZM67.1 101.2h-.7v-.7l.7.7ZM68.3 100.6l.7.6h-.7.1v-.7ZM86.4 101.2l-.6-.7h.6v.7ZM42 5.7h-.6.6ZM69.7 101.8c-.2-.2-.5-.4-.6-.7.1.3.3.5.6.7ZM87 101.8l-.6-.6.6.7ZM69.6 101.9h.1ZM87.7 102.5l-.6-.7c.1.3.4.5.6.7ZM88.4 103c-.3-.1-.5-.3-.7-.6l.6.7ZM89 103.7l-.6-.6.6.7ZM89.7 104.4l-.7-.6.6.7ZM88.4 105l-.7-.6.6.7Z"/><path fill="#fff" d="m88.3 105 .6.7-.5-.7ZM89 105.7ZM94 105.7h.2-.1ZM92.8 106.3l.7.7-.6-.7ZM128.9 106.3v.1ZM95.4 20.5v.1-.1ZM41.4 5.7h-.7l.7-.6v.6ZM98 18v-.1ZM39.4 5v.7h-.7l.7-.7ZM35 110.2v.7-.7ZM98 18h-.1.1ZM41.4 5h.6-.6Z"/><path fill="#0A483A" d="m110.6 70.4 8-.4v.6h-8v-.2ZM114.1 69l6.6-1v1h-6.6ZM110.5 51.9l5.2-.5v.5l-5.1.6v-.6ZM114.2 54h-3.5v-.3h3.5v.2ZM121.5 53.2H119V53l2.4-.1v.3ZM114 69l-.8.3V69h1-.1ZM74.8 47.7l2-6.5.6.1-2.6 12.1v-5.8ZM70.9 46.1l-1.2 6.5-.6-.1 1.2-6.6.6.2ZM89.6 104.5l-.6-.7-.7-.6-.6-.7-.7-.6-.6-.7v-.7l4.5 4h-1.3ZM80.6 99.2v1.4l-2.5-3.3c.6.5 1.3 1 2 1.3H80l.7.7h-.1Z"/><path fill="#0A483A" d="m82.6 100.6-2-1.4v.1l-.7-.7v-1.2l2.4 2 .3 1.2ZM67 53.7l.3-3 .6.1-.3 3a2 2 0 0 0-.6-.1ZM103.8 5.7l-.7.7-1.2.6h-1.3l3.2-2v.7ZM70.3 39.9l.7-2.6c.2.2.4.3.7.3l-1.4 2.2ZM96.7 7.6l2.5-2 .3.3-2.8 1.7ZM74.2 47.6l.7-3.1v3.2l-.8-.1ZM72.2 48.2l.7-3.1-.7 3.1ZM72.2 48.2V50h-.5l.5-1.7Z"/><path fill="#0A483A" d="M74.1 47.6v1.7h-.4l.5-1.7ZM92.9 105.7h-1.4l-.6-1.3h1.3l.7 1.3ZM78 97.3l-1-1 .3-.2.7 1.3ZM73.5 42.5 73 45l.7-2.6ZM72.3 39.9l.2-1.5.5.2-.8 1.2ZM71.6 41.9l-.2 1.6H71l.6-1.6Z"/><path fill="#0A483A" d="m73.6 42.5.2-1.6.5.2-.8 1.3v.1ZM71.7 41.9l.6-2-.7 2ZM74.9 44.5l.1-1.3.4.1-.6 1.1ZM106.4 4.4H105l1.3-.6v.6ZM107.7 3.8h-1.4l1.3-.7v.7ZM105 5h-1.2l1.3-.6V5ZM74.8 53.4l-.1.5.1-.5ZM100.6 7l-.5.5-.2-.3.6-.3V7ZM70.3 39.8c0 .2 0 .4-.2.6l.2-.5Z"/><path fill="#0A483A" d="m107.6 3.1.5-.3c-.2 0-.4.2-.5.3ZM96.7 7.6l-.1.3.1-.3ZM80 97.3l-.6-.6.6.7ZM82.6 98l-.2-.1.2.1ZM85.8 100l-.3-.2h-.3l.6.1ZM86.4 100.6h-.6v-.7l.6.7ZM80.6 100.5l.7.7-.7-.7ZM81.2 101.2l.7.7-.7-.7ZM98 4.4l-.1.2.1-.2ZM110.2 1.8l-.1.1h.1v-.1ZM46.3 52.4l1.3-11 .7.2L47 52.5l-.7-.1ZM45.2 45.6l-.7 6.9H44l.8-7 .5.1ZM52.3 43.1 53 38l1 .2c-.7 1.7-1.3 3.3-1.8 5ZM66.4 100.5v.7h-1.3l-.6-.7-1.2-2.6 2.6 2 .6.7ZM51.6 47v4.1H51l.8-4ZM49 47.2l.2-2.4h.3v2.4h-.4Z"/><path fill="#0A483A" d="M68.4 100.5v.7h-1.3l-.7-.7v.1l-.6-.7v-1.3h.7l.6.7.7.6.6.6ZM46.5 38.6l.6-2.6.7.3-1.3 2.2ZM51.7 47l.6-3.9-.7 4ZM70.3 4.4 69 5.7l-.4-.4 1.6-.9ZM62 100.6l-.7-.7v-1.3a97 97 0 0 1 2 2h-1.4ZM70.9 6.4l.6-.8.3.2-.6.9-.3-.3ZM49 38l.3-1.5c.1 0 .3 0 .5.2l-.7 1.2ZM51 38l.3-1.6c.1 0 .3 0 .5.2l-.8 1.3ZM76.8 3.8l2-1.3h-.1l-2 1.2ZM72.9 2.5l-2 1.3 2-1.3ZM50.1 41.5v.6l-.1.2v-.8h.1ZM46.5 38.5l-.2 1.1H46l.5-1ZM51 37.9l-.1 1h-.4l.5-1ZM49 38v1h-.4l.5-1ZM75.4 2.4v.2-.1ZM59.4 96.7l-.2-.2.1.2ZM59.3 96.7l.7.7-.6-.7ZM60.7 98l-.7-.7.7.7ZM63.3 98l-.2-.1h.2ZM65.2 97.3v.7l-.2-.5.2-.2ZM60.6 98l.7.6-.7-.6ZM65.8 98v.6l-.7-.6h.7ZM74.8 5.7l-.2.1h.2v-.1ZM75.4 5l-.6.7.7-.6Z"/><path fill="#0A483A" d="m75.5 5 .6-.6-.7.7ZM76.1 4.4l.7-.6c-.3.1-.5.3-.7.6ZM71 3.7l-.7.7.7-.6ZM85.2 44.6l7.6-.5v.7l-7.6.6v-.8ZM115.6 46.8l-8.7 1-.1-.7 8.7-.8v.5ZM85.5 42l7-.9.1.9-7 .5V42ZM114.6 31l4.6-.2v.3h-4.5V31ZM114.6 29.7h3v.3h-3v-.3ZM118.3 45.9h3.2v.2h-3.2V46ZM110 30.3l1.1.2-.1.2h-1v-.4ZM92.2 116.7l11.6-2.6-11.6 2.6ZM62 133.5c2.7-1.6 5.8-1.9 9-2.2v.7l-9.1 1.4ZM103.8 114c1.5-.4 3-1 4.7-1.4l.2 1-5 .5ZM136 120.6l-4.7 1.5-.2-.8 5-.7h-.1ZM92.2 116.7l-4.1 1.3-.2-.7 4.3-.6ZM125.6 112.1l-.9.5v-.3l1-.1ZM93.5 111.5l-.1.2.1-.2ZM111.6 76.7l8-1.3.1.8-8.1.5ZM106.2 86.9l6.6-.7v.5l-6.6.7v-.5ZM110.2 84l3.9-.4v.4h-3.9ZM107.3 90.4h3.3v.3h-3.3v-.3ZM111.5 76.7l-3.5.7v-.7h3.6ZM33.7 58.2l-5.2-1 .1-.5 5.4.8-.3.7ZM38.2 45.6l-5.7-.1v-.9l5.7 1.1ZM38.2 42.4h-5.4v-.7l5.4.8ZM22.7 61.8v.1ZM35 110.2v.7c-1.3 0-2.5 0-3.8.2v-.5l3.7-.4ZM33.7 36.8h6v.3h-6.3l.3-.3ZM16 46.8v4.4h-.2v-4.3h.3ZM17 40.1l.1-1.6c0-.3.3-.5.9-.6l-.3 1-.6 1.2ZM15.6 38.6l-.6 2.6.6-2.6ZM14.1 48.8c0-.3 0-.1 0 0-.1-.3 0-.1 0 0ZM28.5 86.3l-.2-.1.2.1ZM29.2 87l-.7-.7.7.7ZM15.6 38.6v-.1.1ZM38.1 7V7 7ZM38.1 7l.7-.6c-.3.1-.5.3-.7.6ZM38.8 5.7h.7l-.7.6v-.6ZM112.9 25.1l5.6-1-2.7-.6.3-.3c2.2-.1 2.2-.1 3.9 1.6l-7.1.3ZM112.8 25l-1.4.6-.1-.4 1.6-.1ZM116 22h.7v.3h-.7V22ZM45.3 86.3 37 84.7l.2-1c2.7 1 5.4 1.8 8 2.6ZM39.5 71.5l-7.1-1 .2-1 6.8 2ZM38.1 87l7.1 2-7-2ZM39.5 74.7l-5.8-1.1.2-1 5.5 2.1ZM22.7 70.3l4.5 1-.2.8-4.3-1.9ZM21.4 67l4 .8-.1.8-3.9-1.6ZM45.9 91.5l-3.7-.5.2-.9 3.4 1.5ZM25.2 74.1l2.7.3c0 .3 0 .5-.2.8l-2.4-1ZM50.4 92.8l-2.6-.7 2.6.7ZM47.8 89.6l-2.6-.7 2.6.7ZM45.9 91.5l2 .7-2-.7ZM29.8 78.6v.1-.1ZM38.2 87l-.2-.1.1.1ZM4.4 46v1.4h-.2V46h.2ZM5.3 36.7 5.2 38h-.4v-1.2h.5ZM3.4 39.9l.2-1.2h.3l-.5 1.1ZM3.3 39.8v.5-.4c.1 0 0 0 0 0ZM60.7 67.6h-2.4V67l2.4.6ZM58.6 60.7v.2h-.5v-.2h.5ZM49.5 12.2h2.8v.2h-2.7v-.2ZM116.3 99.9l-5.8.7v-.6l5.8-.8v.7ZM125 96l-4.3 1-.1-.8 4.5-.1ZM112.3 98c.5 0 1.1-.3 1.6-.4l.2.5-1.6.5-.2-.5ZM111.9 96.5l.9-.3.1.4-.9.4-.1-.5ZM11.8 97.3h-.1.1ZM130.8 7ZM104.4 107.7l.1-.2v.1ZM85 8l-2.7-.3v-.5l2.8.1V8ZM89.8 3.7h-2.3v-.3h2.4l-.1.3ZM94.8 16.7h.2l-.2-.1ZM142.6 16.2l-.7.9-.3-.3.7-1c0 .2.2.3.3.4ZM135.3 8.9l-.2.1h.3l-.1-.1ZM130.8 101.2a4 4 0 0 0-.4-.4l.4.4ZM89.7 23c0 .1 0 .2.2.2h-.3V23ZM84.5 34.7l-.7-.7.7.7ZM146.9 56.7h.1-.1ZM87.7 92.8l-.7.7.7-.7ZM13 69v-.2.2ZM119.7 9.4l.5-.2-.2.4-.3-.2ZM143 86.4c-.1 0-.2 0-.3-.2l.4.1-.1.1ZM141 90.3l-.2-.4.4.2-.2.2ZM133.4 13.4l-1.5.9-.1-.7 1.6-.1ZM143.3 28.2l-.3.3-.3-.4.2-.2.4.3ZM29.2 10.2 29 10l.1.1ZM41.4 5h.6v.7h-.6V5Z"/><path fill="#fff" d="m80 98.6.7.7-.8-.7ZM65.8 99.9l.7.7-.7-.7Z"/></g><defs><clipPath id="a"><path fill="#fff" d="M0 0h154v140H0z"/></clipPath></defs></svg>