<svg xmlns="http://www.w3.org/2000/svg" width="146" height="202" fill="none"><g clip-path="url(#a)"><path fill="#A0A0A0" d="m80 41 2 1h1l2 1c1-1 1-2 3 0l2-1 1-1v1l-4 5-1 2h-1v-2h-1l-2 2h-3l-1 1-4 3v2l4-4 2-1 1 1h5c-2 0-3 1-4 3l-3 2v1h1l-1 1h-5l1 1c0 1 0 0 0 0h2v4l-1 1-1 1-3 2v2c-2 3-1 3 1 3h2c0-1 1-2 3-2h5l1 1c1 1 2 1 2 3l1 2h2l4-4h2l1 3 1 1 2-1 1-1 4-1h2l2 1h3c3 1 6 0 8-3v-2l-2-2c-1-1 1-4 1-5 1 0 3 0 2-2v-2l-2-3 1-4h10s0 1 0 0c2-1 3 0 5 1l1-1h6l2 3 2 1v3l1 4-1 1-2 3-2 3-2 4c-2 1-1 3-2 4l1 2v1h-1l-3 8v2l-1 1-1 3h-1c0 2-1 2-3 3l-1 2-1 1-1-1v2h2l-1 1-1 2-2 3-1 1-2 2-1 1c1 1 0 1-1 1l-2-1-1-2c-1-1-2-2-3-1-2 0-3 1-4 3l-7 2c-1-1-2 0-2 1v3c0 3 0 3-2 4h-1l-4 3v1l-5 2-2 1c-1 4-5 7-9 7h-6l-2-2c0-1-1-2-2-1l-2 1h-1l-2 1h-1l-1-3c-1 1 0 2 1 3-2 0-2 0-3-2 0-1 0-3 2-4v-1l2-3c-1 0-2 1-2 3l-2 1v-3 9l-1-1h-1v1h1c0 2 0 4-2 5l-1 1-1-1v-4l-1-3v3l1 2c-1 2-1 1-2 0l-1-2-1-2v4l-1 2 1 2h-1c0 1 0 0 0 0h-1l-1-2c-2-1-1-3-1-5l1-2 1-2v-1l3-2v-1c2 0 3-1 4-3l2-1 1-1h-3l-1 1-2 3c-2 0-3 3-5 4l-2 3v1l-1-1c0-1 0-2-1-1v1l1 5 1 4 1 1c1 1 0 2-1 3l-2 1-2 5v2l-1 3-3 5 2 2-2 4h-3l-1 1-2-1 1-6h1l1-2v-5c2-2 1-4 2-6l2-3h1l1-1 1-1v-1l1-1-1 1-1 1-1 1c-1 1-1 0-2-1v-5l1-1 1-1v-1l-2 2h-1v-2c-1-2 0-3 1-4l1-1 1-2h2c-1-2 0-3 1-5l-2 1v-1l1-2 1-1v-1h-2v-2 5h-2v-3l1-1v-2l2-1h3l-3-1v-2l2-2h3l4 1 2-1 2-2v-1l-2 2-2 1-1-1h-3l-1-1-1-1 1-1h1v1l4-2-3 1h-1c0-2 1-4 3-5v-1l1-1c1-1 2-2 3-1h2l-3-1v-1l3-4v-1l-2-2h-4l3 1 2 1-1 2-1 1-1 2-1 1-2 1-3 3-4 4-1 1h-2l-2-2h-2c-2 0-3-1-4-3v-2l2-1h4l2-1 2 1-2-2-2 1-4 1c-2-1-4-2-6-1l-2-2 1-2h4c2-1 3-1 5 1h1l-1-1 1-1h1l-1-1-1-1h1l3-1h1l1-1h-2l-1 1v-1l1-1h-5l1-1c0 1 0 0 0 0l1-5h4c0 2 1 3 3 2l-2-2v-1h-2c0-1-2-1-1-2s1-2 3-2l3 1h3-1l-1-1-3-1-1-1 1-2v-3l3-1 1 1 2 2h1l-1-1-2-2 1-1h-5l-2 1v-1l3-2 1-1-1-1 1-1-3 2h-2c-1 0-2-1-1-2v-3l-1-2 1-3 1-1 1 1 3 2v-1h4-4l-1-1-1-2-2-2v-1l1-2 1-1 1 1v-1l-1-1-2-1v-4l1-1 2-1 1 1v2c-1 1 1 2 1 2l1-1v-1c-1-2-2-3-1-5h1l2 1v1c0 2 1 2 2 2l1-2v-1h1l1 2c1 1 2 2 3 1l-1-1-1-1-2-1v-2l1 1 2 1c1 0 1-1 2 1l2 3h1l-1-2-2-3c1-2-1-2-1-2l-3-2-1-1c-1-1-2-3-1-4h1l1 1 2 1v-2l1-2-1-1-1-1-1-2v-1h2v1l4-1h2l1 1h2v1l1-2h-4v-2l-1-1-1-2 2-2h1l-1-1V9l-1-1 2-3 2-3V1l1 1h2c1 0 2 1 1 2l1 1v1l-1 1h1V5l1-3c0 2 1 3 3 3v1l-2 3-1 2 3-3 1-1v3-5l1-1 4 1v4h-1 1l2-2 1-1 1 1 2 1-1-1 1-1h1l2-1 2-1h1v1h5l3-2h3c1-1 1 0 1 1h4l1-1h-1l-1-2 1-1 1 1h4l1 1c-1 0 0 0 0 0h3s1 0 0 0v2l-1 2-1 2v3h2v1l-2 3-2 2-4 3c-2 0-4 2-4 4-1 3-4 3-6 5 0 2-2 2-3 2l-1 1c-1 2-1 3-3 3l-2 1v4l-1 1h-4l-2-1-2-1 2 2h2Zm-45 94 2-3 1-2h-1l-1 2-1 3ZM59 10h-1 1Zm-8 122Zm5-12Zm5-98Zm0 0Zm-2-8Z"/><path fill="#636363" d="M62 134h1l1-1 2-1 2 1 2 2h7c3 0 7-3 8-7l2-1c2 1 4-1 5-2v-1l4-3h1c2-1 2-1 2-4v-3c0-1 1-2 2-1l7-2 4-3c1-1 2 0 3 1l1 2c-2 2-4 1-5 2l-5 2-3 2h-1 1c1 1 2 0 3-1l5-2h1l4-1 1 2v1l-2 1 2 1 2 1h1c0 2 2 2 2 3h1l-4 3-2 1h-5l-5 3-1 2v1l-6 2-5-1-2-1c-1 1-3 0-4-2l-1-1c0 2 3 3 2 5h2c3-1 4 1 7 2h4c2 0 4 0 5 2h2l3-1c0-2 2-2 2-3l2-2c0 1 0 0 0 0h3l2 2c-1 2 1 1 1 2h1l4 2 3 2h3l1 2h1l2 3s1 1-1 1v1l-1 2c-2 0-2 2-3 4h-2l-1 1v1c1 1 2 1 1 2l1 1v2l1 2c1 1 1 2-1 3-2 0-3 1-3 2v2h-5l-1 1-2 2v2l-1 1-1 1-1 2-4 2-2 2c-1 2-2 1-3 1l-1 1v1l-4 2h-5l-2-1h-5v5h-7v1h1l-2 1v1l-2 1-4 1v-4c-1 1-2 2-1 3v1h-1l-2-1v-4h-1l-2 1-2-2-1-2-1-1 1 2-1 1v1l3 3-1 2 1 3-2 1c-2 0-4-1-5-3l-3-3-3-1-1-2h-1l-2 1-1 2v1l2 5v2c-2 0-3-2-3-3v-5c-2 0-2-1-3-2-2-1-3-7-2-8 0-1 2-2 3-1v2l1 3h1v-1l-1-4v-3l1-3 1-1 3-3c1-1 2-3 1-5l1-2 2-2c-1-1 0-2 1-2 2 0 2 0 3-2v-3l-1-3v-1l-1-1v1l-4-2-1-2v-2l1-3v-7l1-2h2l4 2 3 1 3 2-3-2-2-1-2-2-1-1Z"/><path fill="#313131" d="M119 51v4c-1 1 0 2 1 3v2c1 2-1 2-1 3-1 0-3 3-2 4l2 2v2c-2 3-5 4-8 3h-3l-2-1h-2l-4 1-1 1-2 1-1-1-1-3h-2l-4 4h-2l-1-2c0-2-1-2-2-3l-1-1h-5c-2 0-3 1-3 2h-1c-3 0-4 0-2-3v-2l3-2 1-1c1 0 2 0 1-1v-2l1-1v-1h3l1-2h2v-2h-1l1-1 4 1 2-1 2-1h1l2-1 1-1v2h1v-1c-1-1 0-1 1-1l4-2h4c3 3 5 3 9 2h4Z"/><path fill="#D9D9D9" d="M22 140v1l2 4-1 3-4 2-2 1-2 1v-3c2-2 2-2 1-4v-2h1v-1l-2 1-4 4-2-1v-1l2-4 2-4h3v3-3c2-1 3-3 6-3v6Z"/><path fill="#C5C5C5" d="M39 69v2l-3 2-1 1c1 1 0 2-1 2l-1 1 1-1 1-2 1-1c1-1 2-1 2-3v-1h-6l-1-1h-4l1-1v-1h-2v-1l1-1 1 1v-3 2l1 1v-1l1-2v-3 6l2 1h-2c0 1 1 2 2 1l-1 1c1 1 2 2 4 1 1-1 1-2 3-1l1 1Zm-10-3v1h1l-1-1c0-1 0 0 0 0Zm1 1v1-1ZM20 55v-2l1-1c-1 1 0 3 1 4l1 1-1 1h-1l1-1-1-1h-2l-1-1-1-1-2-2-1-1v1l1 3 1 1h-1l-1-1 1 3v1c-2-1-3-1-3-3l1 2h1v-1l-1-1v-1c2-1 1-1 0-2v-1l1-2h1l1 2 2 2c0 1 1 2 2 1Zm-5 4-1-1 1 1Z"/><path fill="#C5C5C5" d="M10 57v-1l1-2 1 2-1-1v3l-1-1H9v2l2 2v1c1 0 3 0 3 2v-2l2-2 1 1c1 1 0 2 2 2l1 1h-1l-2-2-2-1v2h1v1l-3-1-2-1-1-2-1-1v-1l1-1ZM29 114l-1 2-2 1h-4l-3 1-2-1-1-2h-1l1-2-1 1v-1h3l3 1h1-1l-1 1h-1v-2l-2 1 1 3h2l4-1h3v-1c1 1 2 0 2-1ZM41 107l-3 3h-1c0 3-3 5-5 6h-2v-1h1l-2-1h2l-1 2 4-2v-1l1-1h1v-3l-1-1 2 1 1-1 2-1-1 1 2-1ZM23 110c0-1 0-2 2-2l2-1-4 1-2-1h-1l-1-1h2-2l3 1h1-1l-1-1h2l-3-1-2-1 1-1v1h1c2 0 3 1 3 2 1 2 2 1 2 1h2l-2 2-2 1ZM31 133l-1 1-1 4-2 1v-1c2 0 2-2 3-4h-4l-1 1-1-1 2-1h1-1v-2l1-2v1l-1 1v2h4c1 1 1 0 1-1v1ZM21 125l1-1v3l-3 3-1 1v-2l1-2c0-1 0-2 2-2v1c-2 0-2 1-2 2v1h1l2-3v-1h-1ZM22 99h4l1 2 2 3 2 2 4 2-4-2c-2 0-3-1-3-2l-1-3-1-2h-4ZM28 72l-1 2v1l-1-1v-2h-1l-1 1v1h-2l1-1h-1v-1h3l1-1 1 1v2l1-2ZM25 49c2 2 2 4 2 7v3l-2 2c2 0 2 0 1 2l1 1-1-2-1-1 1-1v-7l-1-4ZM50 138l2 2v1c1 1 2 3 1 4v2l-2-1v-1l1 1v1l1-1v-3c0-1-2-1-1-3l-2-2ZM28 62v-3l1-1 1-2 1-1v-1 1l-1 4v-1l-2 3v1Zm2-5Z"/><path fill="#C5C5C5" d="M21 114v-1l1-2-1 1 2 1h2-1l2-1h1l-1 1 1-1-1 1h-1 1v1h-5Zm1-1h1-1ZM15 97l-2 3-3 1-1 1H8v-1l2-1v1c2 0 4-2 4-3l1-1ZM4 103h1l1-1h1l1 1-2 1-1 1H4l-1 2-2 1 1-1 2-2 1-1v-1H4Zm2 0h1-1Z"/><path fill="#D9D9D9" d="M44 109h3l1 1 2-1 2-2v1l-2 2-1 1-5-1v-1Z"/><path fill="#C5C5C5" d="M35 124v2l-1 1-1 1c1-1 2-2 1-3l-2 1c1-1 2-1 2-3h2l-1 1v-1l-1 1h1ZM50 158l-1-1h-1l1-1c1-1 1-2-1-2v-4c1 1 2 2 1 3v1l1 1v1l-1 1h1v1ZM31 74l1-1h-1l-2-1c0-1 0 0 0 0h-1l1-1-1-1 1 1 1 1 1 1 2-1h1l-2 2h-1Zm2-1ZM26 86l-1 2-2-1v-2h1l1-1 1 2Zm-1-1-1 1h-1l1 1c1 1 1 0 1-1v-1ZM16 78h-1l-2 1h-1v-1l3-1 1 1Zm-4 0h2-2Zm3-1h-1 1ZM20 48h1v-2h2v1l2 2v1l-1-1-1-3h-1c0 2-1 2-2 2ZM43 158l-1-2-1-3 1-4v7l1 2ZM47 139l1-2v2l2 4h-1l-1-3-1-1ZM27 139l-1 3h-1l-2-2 1 2 2-1 1-3v1ZM1 108l-1-1v-3l3-1h1-1c-2 0-2 1-2 2v3ZM21 83c0 1-1 2-2 0l-2-2v-1h1l-1 1 2 2h2ZM31 150v-3l1-1h1v1l-1 2v-3l-1 3v1ZM19 70l1-1c-2 0-2 0-3-2h1c0 1 1 2 2 1h1l-1 1-1 1ZM33 77c0 2-2 3-3 3h-2v-2l1 2h1l3-3ZM22 90l-2-1 1-1 1 1h1l-1 1ZM22 73l-2-1-1-2 2 1h1v1h-1 1v1Z"/><path fill="#D9D9D9" d="m52 137-1-2v-2l1 2v3-1Z"/><path fill="#C5C5C5" d="m54 146 2-2v2c1 1-1 1-1 1l-1-1Zm2 0v-2l-2 2h2Z"/><path fill="#D9D9D9" d="M22 99v1l-2 1c-1-1-1 0-1 1 1 0 1 0 0 0l1-2 1-1h1Z"/><path fill="#C5C5C5" d="m19 64 2 2-2-2Z"/><path fill="#D9D9D9" d="m45 106 3-1-4 2v-1h1Z"/><path fill="#C5C5C5" d="m43 149 2-2h2-1c-1-1 0 1-1 2 0-2-1 0-2 0Z"/><path fill="#D9D9D9" d="M59 127c0-2 1-3 2-3l-2 3ZM80 41h-2l-2-2 2 2h2Z"/><path fill="#C5C5C5" d="M29 77v-1l2-2h1-1l-2 2v2-1ZM33 128l-1 3-1 2v-2l2-3ZM21 52l-1-1v-3 2l1 1v1ZM45 161l-2-2v-1l3 3h-1Z"/><path fill="#D9D9D9" d="M57 129v-4 2l1 1-1 1Z"/><path fill="#C5C5C5" d="M22 140v-3l1-1v4h-1ZM27 129l4-2-4 3v-1ZM50 157c1 2 1 3-1 4l1-3v-1ZM38 123v3h-1v-1l1-2ZM13 97l-3 3c0-2 1-3 2-3h1Z"/><path fill="#D9D9D9" d="M60 134c-1-1-2-2-1-3l1 3Z"/><path fill="#C5C5C5" d="M22 79v1c1 0 0 0 0 0v1c1 0 0 0 0 0v1-3h-1 1ZM41 106l1-2h1v1-1l-2 2ZM48 137v-1l1 1 1 1v1l-1-1-1-1ZM17 67l1-3h1c-2 1-2 1-1 3h-1ZM46 161h3-4 1Z"/><path fill="#D9D9D9" d="m35 137 2-2v1l-1 1h-1ZM67 138l3 2-3-1v-1Z"/><path fill="#C5C5C5" d="M32 149v1l-1 1v-2h1Z"/><path fill="#D9D9D9" d="M70 7v3-3Z"/><path fill="#C5C5C5" d="M51 145c-1 0-2 0-1-2v1l1 1Z"/><path fill="#D9D9D9" d="M57 134h-2v-1h1l1 1Z"/><path fill="#C5C5C5" d="M43 105v1l-2 1v-1l2-1ZM48 135v-2l1 2h-1ZM19 79c0-1 1-2 2-1h-1l-1 1Z"/><path fill="#D9D9D9" d="m40 114 2 1h-3l1-1Z"/><path fill="#C5C5C5" d="m22 82-1 1 1-2v1ZM42 149h1l-1 1v-1ZM23 136l1-1-1 1ZM15 115h-1l1-1v1ZM40 107l1-1-1 1ZM15 97v-1 1ZM21 78l1 1h-1l-1-1h1Z"/><path fill="#D9D9D9" d="M103 117h-1 1Z"/><path fill="#C5C5C5" d="m13 97 1-1-1 1ZM18 79h1-1ZM28 78l1-1v1h-1ZM29 72h-1 1ZM48 148v1-1ZM24 135v-1l1 1h-1Z"/><path fill="#D9D9D9" d="M42 107v1-1Z"/><path fill="#C5C5C5" d="M48 148h-1 1ZM17 80l1-1v1h-1ZM19 102v1-1ZM31 127h1-1ZM14 96ZM31 127Z"/><path fill="#D9D9D9" d="M35 89Z"/><path fill="#C5C5C5" d="m31 127 1-1-1 1ZM15 97Z"/><path fill="#D9D9D9" d="M35 88v1-1Z"/><path fill="#C5C5C5" d="m47 148-1-1h1v1ZM47 148ZM22 111v-1l1 1h-1Z"/><path fill="#C5C5C5" d="M22 110a529 529 0 0 1 1 0v1l-1-1Z"/><path fill="#D9D9D9" d="M16 137v-1 1Z"/><path fill="#FEFEFE" d="m51 145-1-1v-1l-2-4v-2l1 1 1 1 2 1c-1 2 1 2 1 3v3l-1 1v-1l-1-1ZM57 20h4l-1 2v-1h-2l-1-1Z"/><path fill="#D9D9D9" d="m35 135 1-3 1-2h1l-1 2-2 3ZM36 89l1-1h1l-1 1h-1Z"/><path fill="#FEFEFE" d="m38 144-1 1v-1l1-1v1Z"/><path fill="#D9D9D9" d="m39 142 1-1-1 1ZM38 144v-1h1l-1 1Z"/><path fill="#FEFEFE" d="M99 4Z"/><path fill="#D9D9D9" d="m38 143 1-1v1h-1Z"/><path fill="#FEFEFE" d="M59 10h-1 1ZM45 106h-1 1ZM35 135c-1 0 0 0 0 0Z"/><path fill="#D9D9D9" d="M51 132Z"/><path fill="#FEFEFE" d="M34 104ZM56 120ZM61 22ZM61 22ZM59 14ZM75 9h-1 1ZM43 106ZM28 72l-1 2v-2l-1-1-1 1h-4 1v-1h-1l-2-1 1-1 1-1h-1c-1 1-2 0-2-1-1-2-1-2 1-3l2 2-2-2v-1c-2 0-1-1-2-2l-1-1-2 2v1l-3-2v-1l-2-1v-2h1l1 1v-3l1 1c0 2 1 2 3 3v-1l-1-3 1 1h1l-1-1-2-3 1-1 1 1 2 2 1 1 1 1h1l1 2h1l1-1-1-1c-1-1-2-3-1-4v-1l-1-1v-2c1 0 2 0 2-2h1l1 3 1 1 1 3v6l-1 1v1l1 1 1 2-1 1v1h2v1l-1 1h3l2 1h6v1c0 2-1 2-2 3l-1 1-1 2-1 1-3 3h-2v-2h1v-2l2-2h1l2-2h-1l-2 1-1-1-1-1-1-1v2Z"/><path fill="#FEFEFE" d="M28 62v-1l2-3v7h-1v-1l-1-2ZM29 66s0-1 0 0l1 1h-1v-1ZM30 67v1-1ZM30 65ZM20 56h1l1 1-1 1-1-2ZM15 59l-1-1 1 1ZM20 55ZM10 57ZM23 111v-1l2-1 2-2h-2c-1 0-1 1-2-1 0-1-1-2-3-2h-1v-3h1l2-1v-1h4l1 2 1 3c0 1 1 2 3 2l4 2 1 1v3h-1l-1 1v1l-4 2 1-2h-2c0 1-1 2-2 1v1h-7v1h-2l-1-3 2-1v2h1l1-1h1l4-1 1-1h-1l-2 1h-1l-2-1 1-1h1ZM15 115v-1l1-1-1 2ZM40 107l1-1v1l-2 1 1-1ZM24 135l2-1h4c-1 2-1 4-3 4l-1 3-2 1-1-2v-4l1-1ZM31 127l1-1 2-1c1 1 0 2-1 3l-2 3v1l-1 1h-4v-2l1-1 4-3ZM26 133h1-1ZM21 125h1v1l-2 3h-1v-1c0-1 0-2 2-2v-1ZM30 57Z"/><path fill="#D9D9D9" d="M26 113h-1 1Z"/><path fill="#FEFEFE" d="M22 113h1-1Z"/><path fill="#D9D9D9" d="M24 113h1-1ZM26 113v-1h1l-1 1Z"/><path fill="#FEFEFE" d="M1 108v-3c0-1 0-2 2-2h2v1l-1 1-2 2-1 1ZM6 103h1-1ZM35 124h-1l1-1v1ZM33 73ZM25 85v1c0 1 0 2-1 1l-1-1h1l1-1ZM12 78h2-2ZM15 77h-1 1ZM12 78ZM18 80v-1h1l1-1 1 1h1v2l-1 2h-2l-2-2 1-1ZM32 149h-1l1-3v3ZM56 146h-2l2-2v2ZM43 105l-2 1 2-2v1Z"/><path fill="#C5C5C5" d="m20 56 1 2-1-2Z"/></g><defs><clipPath id="a"><path fill="#fff" d="M0 0h146v202H0z"/></clipPath></defs></svg>