<svg xmlns="http://www.w3.org/2000/svg" width="550" height="197" fill="none"><path fill="#0A483A" d="M32.7 62.17c-2.74 1.8-5.61 3.45-8.38 5.16a90.82 90.82 0 0 0-15.31 13.1c-1.3 1.45-1.4 1.48-.8 2.82 2.89 6.71 4.04 13.97 8.31 19.97.79 1.07.87 2.6 1.52 3.82.61 1.13 1.37 2.11 2.15 3.18 1.7 2.49 3.23 5.03 5.07 7.36a63.34 63.34 0 0 0 19.75 16.01c5.2 2.74 10.3 5.51 15.9 7.51 5.28 1.93 10.4 4.21 15.76 5.82a159.07 159.07 0 0 0 26.3 5.48c5.7.7 11.38 1.6 17.2 1.59 5.78-.11 11.65.52 17.29-1.28 2.08 1.17 3.78-1.31 5.5-.88 2.23.53 3.68-.79 5.54-1.29 2.02-.55 4-1.49 5.97-2.22 3.58-1.33 6.37-3.73 9.13-6.22 3.27-2.97 5.13-6.58 6.86-10.53 1.68-3.84 1.71-3.75 6-3.2 1.55 1.56 3.77 1.02 5.53 1.83.7.03 1.33.18 2.02.22 1.72.43 3.32 1.1 5.1 1.41 1.64.26 1.53-1.35 2.41-1.58-.32-.86.12-2.28-1.54-2.06-2.99-1.51-6.46-1.2-9.58-2.27-1.08-.28-2.12-.47-3.2-.75-4.25-1.53-4.14-1.48-3.43-5.83.48-2.9.54-5.85.5-8.85a16.8 16.8 0 0 0-1.09-6.3c-1.18-3.17-2.15-6.31-4.13-9.27a56.58 56.58 0 0 0-7.65-9.61c-3.55-3.55-7.25-6.94-11.67-9.19-6.8-3.4-13.72-6.86-21.11-8.98-2.94-.85-5.47-2.44-8.26-3.15-7.84-1.75-15.31-4.62-23.33-5.82-6.17-.91-12.2-2.76-18.4-3.27a141 141 0 0 0-18.9-.46c-5.82.32-11.32 1.68-16.92 3.09a38.03 38.03 0 0 0-10.12 4.64Zm12.82-2.05c5.22-1.36 10.56-2.67 16.08-2.97 6.01-.3 12.04 0 18.05.49 5.92.52 11.68 2.17 17.56 3.1 7.61 1.15 14.76 3.94 22.16 5.56 2.76.63 5.18 2.16 7.91 3 7.07 2.03 13.6 5.25 20.09 8.58 4.2 2.13 7.82 5.36 11.14 8.8a51.41 51.41 0 0 1 7.3 9.15c1.82 2.83 2.76 5.88 3.88 8.87.7 1.88.91 4.04.99 6.06a48.7 48.7 0 0 1-.45 8.44l-1.26 4.45c-.6.23-1.2.45-1.49-.6-.34-1.44-.5-2.93-.67-4.43a5.26 5.26 0 0 0-.42-3.74l-.32-.85c.13-.44.54-.88.47-1.34-.2-.8-.6-1.63-.9-2.4 1.26-.56.31-1.28.23-2.02l-.32-.86c1.31-1.17.36-1.89-.5-2.64-.12-.05-.74.09-.71.17-.07.61-.02 1.27.04 1.93l.31.86c-1.24.56-.3 1.28-.21 2.03.28 1.54.45 3.04.74 4.59-.13.43-.55.88-.47 1.34.2.8.6 1.62.89 2.4-.23.17-.54.39-.59.5-.04 1.48.05 3 .01 4.47-1.5-.4-2.94-.85-4.45-1.26-.11-.05-.25.1-.42.16l-1.17-.54-.86.32-2.34-1.07c-.7-.04-1.33-.19-2.02-.22-.9-.35-1.7-.64-2.51-1.02-.35-.16-.65-.44-.92-.63-.69-1.59-1.2-3.25-.9-5.02.54-2.73.1-5.48-.14-8.21l-.32-.86.43-.16c.03-2.25.58-4.7-.24-6.63-.97-2.36.62-4.6-.38-6.76-.1-.55-.45-1.2-.23-1.67.23-.67.3-.99-.45-1.2-.32-.07-.72-.12-1.04-.2l.31 1.64c-.22.18-.61.43-.55.6.25 3.02 1 6.05.41 9.19-.25 1.16.26 2.53.34 3.77l.31.85c-.16.35-.6.72-.6 1 1.08 4.18.8 8.37.8 12.56-.55.1-1.28.47-1.64.31-1.38-.85-2.96-.65-4.44-.98-.41-.33-.89-.83-1.41-.93l-7.32-1.65c-.87-1.04-2.53-1.6-1.7-3.55.23-.67-.32-1.64-.52-2.44 1.24-.56.3-1.28.21-2.02l-.63-1.71.53-1.18a471.2 471.2 0 0 1-.63-1.7c1.24-.57.3-1.29.21-2.03l-.32-.86c.16-.35.61-.71.6-1-.43-3.24-.54-6.41-.69-9.67l-.31-1.63c-.06-.67-.14-1.41-.1-2.1l-.32-.86c1.43-1.12-.65-2.78.46-3.97-.3-.28-.66-.73-.95-.72-.37.04-.96.55-.9.72.35 1.44-.47 2.9.5 4.2-1.46 1.03.13 1.9.1 2.88-1.56 1.27.57 2.32.16 3.55-.94 2.68.24 5.35.25 7.98l.32.85c-1.25.57-.3 1.28-.22 2.03l.32.86c-.22.18-.53.39-.59.5l.8 5.26c-1.25.56-.3 1.28-.22 2.03.5 2.92 0 3.4-2.78 2.97-2.27-1.68-4.98-1.64-7.56-2.05-.41-.33-.89-.83-1.41-.93l-7.32-1.66c-.26-2.53-.57-4.94-.84-7.47l-.63-1.7c.13-.45.54-.9.47-1.35-.2-.8-.6-1.63-.9-2.4.23-.96-.12-5.3-.52-6.61.23-.18.62-.43.56-.6-.98-4.2-1.02-8.48-1.6-12.64l-.32-.86c1.02-1.44.15-2.48-.81-3.49-.12-.05-.97.27-1 .47-.09.52.22 1.09.32 1.63l.32.86c-.22.18-.62.42-.55.6.98 4.2 1.02 8.47 1.6 12.63.22.6.4 1.12.63 1.71-.22.96.13 5.3.52 6.62.07.95.04 1.93.1 2.88l.64 1.71c-.22.18-.62.43-.59.51.46 1.49.46 3.05.63 4.54.2 1.58.37 2.3-1.61 1.67-.88-.26-1.91-.16-2.84-.3-.3-.28-.63-.65-.98-.81-4.06-1.02-8.05-2.06-12.11-3.08-2.36.2-3.2-1.83-2.97-3.28.26-1.65-.53-2.72-.75-4.1 1.46-1.03-.12-1.9-.1-2.88l-.64-1.7c.23-.97-.13-5.31-.52-6.63l-.64-1.7c.23-.19.62-.43.56-.6-.5-2.93-1.1-5.82-1.23-8.79-.1-2.1-.78-4.19-1.38-6.3-.1-.26-.85-.46-1.29-.6-.16.36-.49.78-.4 1.03.41 2.38 1.3 4.78 1.21 7.15-.03 1.47.96 2.56.83 3.78-.1 1.3-.11 2.57.53 3.79l.32.85c-.22.18-.62.43-.59.51.57 2.03 1.1 3.97 1.11 6.1l.64 1.72c-1.46 1.03.12 1.9.1 2.88.67 1.8-.07 3.72 1 5.56.56.97-.6 1.78-1.76 1.53-3.27-.43-6.22-1.86-9.53-2.38-4.95-.79-4.87-1.1-6.6-5.72l-1.74-4.7c.13-.44.51-.98.47-1.35-.33-1.14-.8-2.14-1.2-3.25l-.65-1.7c-.4-1.12-.85-2.32-1.27-3.43.16-.35.61-.7.6-1-.33-1.14-.94-2.27-1.19-3.45-.7-2.66-2.74-5.01-2.12-8.06.07-.32-1.1-.86-1.63-1.25-.05.4-.17.85-.22 1.25-.33 2.75.96 5.2 1.85 7.59l1.91 5.12c-.13.44-.51.97-.47 1.35.52 1.65 1.21 3.25 1.85 4.95l1.59 4.28c-.13.44-.51.97-.47 1.34.42 1.4 1.02 2.74 1.52 4.1.17 1.5-.62 1.2-1.63 1.1-4.52-.94-8.7-2.8-13.3-3.42-1.25-.21-3.14-.58-3.38-2.54l-2.23-5.98c1.25-.56.3-1.28.22-2.03l-1.27-3.42-1.91-5.13.42-.15c-.74-2.26-1.36-4.46-2.19-6.68-.03-.09-1 .18-1.63.31l.32.86 2.23 5.98c-.13.44-.52.97-.48 1.34.33 1.15.8 2.14 1.21 3.25 2.1 3.8 1.77 8.4 3.6 12.29-3.92-.39-7.6-1.94-11.44-2.85-1.51-.4-3-.73-4.53-.94-1.85-1.06-2.04-3.13-2.76-4.81l-1.9-5.13-1.4-3.76c-.04-.09-.44-.13-.65-.15.01.29.02.57 0 .78-.13.43-.51.97-.44 1.43.87 2.6 1.88 5.04 2.84 7.6.95 2.57.95 2.57-1.91 2.17-.41-.04-.85-.17-1.25-.21-2.49-2-5.8-1.25-8.48-2.69-.11-.05-.7.46-.9.72-.13.15.06.67.21.8.5.3 1.03.7 1.55.79 2.32.5 4.65 1 7.05 1.46.35.16.65.44 1 .6.24.11.58-.02.83-.11-.07.32-.06.6-.25.87-.56.6-1.26 1.06-1.9 1.68-1.94 2.09-4.66 3.4-5.98 6.12-.19.27-.26.59-.46.85.3 0 .61.07.78 0 .29 0 .51-.19.85-.31 2.34-2.33 5.22-3.99 7.34-6.63.33-.41 1.11-.41 1.62-.6-.19-1.3.47-1.34 1.43-1.12.76.2 1.55.5 2.3.7a62.72 62.72 0 0 0 12.1 3.29c.32.07.79.29.91.63.1.26-.05.9-.28 1.08-3.31 2.3-5.94 5.42-8.8 8.14-1.66.52-2.24 2.1-3.38 3.2-1.28 1.26-2.83 2.32-4.1 3.58-.23.18-.32.99-.29 1.08.47.21 1.18.53 1.4.35 1.38-1 2.49-2.19 3.83-3.27 1.48-1.24 2.85-2.52 3.65-4.28 3.24-1.99 5.88-4.82 8.6-7.39 1.23-1.14 2.27-2.01 3.76-1.4 3.33 1.4 6.92 1.9 10.4 2.65 1.8.4 3.61 1.1 5.42 1.78.79.3.93.92.15 1.7-.95.84-1.54 2.13-2.55 2.8-3.16 1.95-5.66 4.63-8.15 7.31-2.5 2.68-5.5 4.78-7.89 7.51a28.88 28.88 0 0 0-2.68 3.24c-.1.23.2.8.25 1.17.3-.21.53-.4.87-.52 2.68-1.68 4.25-4.5 6.63-6.45 5.03-4.22 9.56-9.01 14.38-13.53 1.14-1.1 2.45-1.5 3.63-2.23 1.43.44 2.8 1 4.28 1.32 3.78 1.03 7.8 1.39 11.16 3.64-.97 1.04-2 1.91-2.86 3-4.37 5.72-8.75 11.44-13.54 16.83-1.77 2.02-3.13 4.37-4.87 6.48-.47.56-.78.78 0 1.07.44.13 1.02.1 1.33-.1.53-.4 1-.96 1.47-1.53 4.03-5.1 7.9-10.33 12.04-15.38 2.56-3.29 5.42-6.3 7.69-9.87 1.64-.8 3.29.24 4.9.13.3.27.62.64.98.8 4.06 1.02 8.05 2.06 12.11 3.08 2.48.93 2.45.84 1.33 2.52-2.54 3.87-5.2 7.68-7.74 11.55-.62.42-1.78.17-1.39 1.49-1.87 1.76-3.12 3.88-4.48 5.95-1.34 2.15-3.4 3.9-4.6 6.18-.5.48-1 .96-1.47 1.52-.24.39-.22.96-.35 1.4.5.01 1.13.16 1.56 0 1.22-.35 1.45-1.31 1.4-2.47.26-.1.64-.13.86-.31 2.72-3.64 5.53-7.32 8.22-11.04.14-.15.01-.5 0-.78.5-.48.89-1.01 1.39-1.5 2.97-4.02 6.02-8.07 8.99-12.1.47-.56 1.75-1.04 2.64-.98 2.94.85 5.8 1.74 8.73 2.59 2.5.72 5.06 1.33 7.56 2.05 1.01 1.67-.12 3.06-.9 4.13-2.49 3.46-4.84 7.06-7.22 10.57-.8 1.76-2.84 2.81-2.99 5-2.06 2.82-4.24 5.58-6.27 8.47-.1.24.06.95.25 1.18.26.19 1.04.2 1.15-.04a45.7 45.7 0 0 0 5.96-9.03c1.41-1.4 2.95-2.76 2.99-5 .42-.17 1-.19 1.19-.45 2.07-3.3 4.06-6.57 6.01-9.93 1.36-2.35 3.06-4.06 6.13-3.35.42.33.9.83 1.42.93l7.31 1.66c.27.2.63.64 1 .6 1.5-.17 2.55.32 2.83 1.87-.78 1.26-1.66 2.56-2.45 3.83-2.96 4.31-5.8 8.68-8.76 12.99l-.53 1.17-3.37 5.05c-.19.27-.26.59-.29.79.02.29.18.71.38.74.43.13 1.13.16 1.23-.08 1.11-1.97 2.2-4.02 3.19-6.05l.85-.31.53-1.18c2.02-3.18 4.07-6.28 6.1-9.46.68-1.04 2.13-1.58 1.8-3.2.8-1.28 2.7-1.89 2.46-3.84 2.4-1.38 4.64-.07 6.93.34.69.03 1.33.18 2.02.22l2.34 1.07c.7.04 1.33.19 2.03.22l1.17.54c.67.24 1.4.36 2.06.6-.18.55-.36 1.1-.57 1.57-.93 1.42-1.98 2.78-3 4.23-2.2 2.96-4.4 5.92-6.56 8.96-.25.39-.77 1.07.19 1.3.44.13 1.13.16 1.32-.1 1.38-1.78 2.84-3.6 3.95-5.56.76-1.36 2.63-2.05 2.3-3.98 1.33-1.66 2.77-3.26 3.98-4.98.57-.8 1.03-.87 1.82-.58.59.27 1.31.39 1.98.63l-1.4 5.1c-1.63 3.71-3.43 7.2-6.56 10.02-2.7 2.38-5.33 4.71-8.69 5.87-1.88.7-3.8 1.51-5.71 2.12-1.69.44-3.14 1.75-5.26 1.28-1.6-.38-3.15 1.95-5.2.87-5.39 1.7-10.94 1.14-16.47 1.16-5.5.1-10.97-.78-16.38-1.5-8.44-1.04-16.8-2.89-25.06-5.26-5.13-1.5-10.01-3.67-15.06-5.5-5.28-1.92-10.24-4.55-15.11-7.22a60.59 60.59 0 0 1-18.8-15.29c-1.77-2.16-3.27-4.62-4.82-6.96-.67-1.02-1.51-1.97-2.01-3.05-.62-1.13-.67-2.57-1.45-3.64-3.98-5.72-5.12-12.7-7.93-18.95-.56-1.25-.5-1.37.74-2.7A87.5 87.5 0 0 1 27.9 69.1c2.64-1.76 5.42-3.18 7.98-4.92a33.76 33.76 0 0 1 9.64-4.07Z"/><path fill="#DCBF6F" d="M196.5 44.93c-1.31-.82-2.6-1.74-3.87-2.59a42.95 42.95 0 0 0-8.65-4.01c-.89-.27-.92-.3-1.38.22-2.31 2.56-5.21 4.48-6.95 7.5-.3.55-.95.89-1.35 1.4-.36.5-.64 1.01-.94 1.56-.74 1.22-1.53 2.38-2.17 3.63a29.96 29.96 0 0 0-3 11.65c-.16 2.77-.34 5.51-.1 8.32.2 2.65.23 5.3.6 7.92.6 4.2 1.51 8.35 2.81 12.4.82 2.6 1.55 5.21 2.7 7.71 1.2 2.47 2.08 5.12 3.96 7.19-.1 1.13 1.31 1.37 1.46 2.19.21 1.07 1.07 1.43 1.64 2.13.64.76 1.44 1.43 2.14 2.13 1.28 1.28 2.86 2.01 4.47 2.71 1.92.82 3.84.9 5.88.88 1.99-.04 1.96 0 2.56 1.94-.37.98.3 1.83.3 2.75.13.3.19.6.3.91.16.82.19 1.65.4 2.47.21.76.88.4 1.16.73.3-.3 1-.4.58-1.07.06-1.58-.76-3.02-.91-4.57-.1-.52-.21-1-.3-1.52-.18-2.14-.18-2.08 1.83-2.63 1.34-.36 2.62-.91 3.9-1.52a7.96 7.96 0 0 0 2.5-1.72c1.13-1.12 2.3-2.16 3.18-3.6a26.71 26.71 0 0 0 2.62-5.18c.83-2.23 1.56-4.48 1.66-6.83.13-3.6.25-7.25-.3-10.85-.2-1.43-.02-2.83-.26-4.17-.79-3.72-1.03-7.5-2.1-11.19-.81-2.83-1.2-5.79-2.2-8.56-1-2.77-2.13-5.54-3.53-8.22a42.1 42.1 0 0 0-4.66-6.67 18 18 0 0 0-3.98-3.44Zm3.4 5.11a38.63 38.63 0 0 1 4.44 6.34 66.12 66.12 0 0 1 3.35 7.86c.94 2.65 1.36 5.45 2.12 8.16 1 3.5 1.21 7.13 1.97 10.64.27 1.3.09 2.65.27 3.99.51 3.44.42 6.89.26 10.33-.1 2.23-.77 4.42-1.6 6.53a24.32 24.32 0 0 1-2.5 4.94c-.85 1.34-1.98 2.35-3.05 3.41a9.28 9.28 0 0 1-2.41 1.62c-1.19.58-2.44 1.1-3.72 1.47l-2.16.34c-.22-.22-.43-.43-.03-.76.54-.43 1.16-.8 1.77-1.16a2.5 2.5 0 0 0 1.52-.92l.3-.3c.22-.04.5.05.68-.07.3-.24.58-.58.85-.85.49.42.61-.13.91-.3l.31-.31c.76.33.88-.22 1.04-.74 0-.06-.19-.3-.22-.27-.27.1-.54.25-.82.4l-.3.3c-.5-.42-.61.13-.92.3-.6.44-1.22.8-1.83 1.23-.21.03-.49-.06-.67.06-.3.25-.58.58-.85.86-.13-.06-.28-.16-.34-.16-.64.28-1.28.61-1.92.89l-.33-2.16c0-.06-.1-.1-.16-.15v-.62l-.3-.3v-1.22c-.12-.3-.18-.6-.3-.91-.03-.46-.06-.86-.06-1.28 0-.19.06-.37.1-.52a4.13 4.13 0 0 1 1.97-1.38c1.28-.3 2.38-1.03 3.51-1.67l.3-.31.16.15c.97-.43 2.13-.67 2.8-1.4.83-.89 2.1-.65 2.84-1.5.22-.15.43-.43.67-.43.34-.03.49-.06.43-.43-.03-.15-.1-.33-.12-.48l-.64.46c-.12-.07-.3-.19-.37-.13-1.25.7-2.4 1.62-3.87 1.99-.55.12-1.04.61-1.56.89l-.3.3c-.19 0-.43-.12-.55-.06-1.59 1.28-3.45 1.98-5.25 2.81-.15-.21-.45-.46-.45-.64.09-.76-.3-1.4-.46-2.1.06-.25.19-.55.13-.8l-.73-3.47c.27-.58.18-1.4 1.19-1.43.33-.03.64-.46.94-.7.5.42.61-.13.92-.3l.61-.62h.6l.31-.3.31-.31c.49.43.6-.12.91-.3l.31-.31c.18 0 .43.12.55.06 1.31-.83 2.65-1.5 4.02-2.2l.65-.46c.27-.15.57-.33.88-.46l.3-.3c.77.4 1.07-.83 1.8-.58.06-.19.19-.43.13-.55-.1-.15-.43-.3-.5-.25-.54.43-1.33.37-1.7 1.04-.73-.42-.8.43-1.22.61-.85-.42-.88.7-1.5.77-1.33.12-2.25 1.16-3.38 1.68l-.3.3c-.5-.42-.61.13-.92.3l-.3.31c-.13-.06-.28-.15-.34-.15l-2.1 1.38c-.5-.43-.61.12-.92.3-1.16.8-1.46.67-1.83-.6.28-1.32-.27-2.47-.6-3.66.06-.25.18-.55.12-.8l-.73-3.47c1.04-.6 2.02-1.22 3.05-1.83l.61-.61c.22-.03.5.06.67-.06.31-.25.59-.58.86-.86.46-.09 2.26-1.1 2.74-1.52.13.06.3.18.37.12 1.62-1.25 3.45-2.11 5.12-3.18l.3-.3c.83.15 1.1-.43 1.35-1.04 0-.06-.3-.37-.4-.34-.24.06-.42.3-.63.46l-.31.3c-.12-.05-.3-.18-.37-.12-1.61 1.26-3.44 2.11-5.12 3.18l-.61.61c-.46.1-2.26 1.1-2.75 1.53l-1.22.61-.6.61c-.13-.06-.31-.18-.34-.15-.55.49-1.22.8-1.83 1.16-.64.4-.92.6-1.04-.37-.06-.42-.3-.85-.42-1.28.06-.18.15-.4.15-.57l-1.06-5.82c-.54-.98.16-1.74.83-1.93.76-.21 1.06-.76 1.61-1.13.74.43.8-.42 1.22-.6l.61-.62c.46-.09 2.26-1.1 2.75-1.52l.61-.61c.12.06.3.18.37.12 1.15-.8 2.28-1.62 3.53-2.26.89-.46 1.65-1.16 2.44-1.83.1-.1.03-.46 0-.68-.18 0-.42-.06-.51.04-.95.64-1.8 1.5-2.84 1.92-.64.27-.92.92-1.47 1.1-.57.21-1.12.46-1.52.98l-.3.3c-.13-.06-.3-.18-.34-.15-.76.64-1.5 1.25-2.41 1.68l-.61.6c-.73-.42-.8.44-1.22.62-.64.64-1.62.7-2.2 1.53-.3.42-.88.09-1-.46-.46-1.5-.42-3.05-.85-4.57-.64-2.29-.48-2.32 1.16-3.96l1.68-1.68c.22-.03.52.03.67-.06.43-.37.77-.77 1.16-1.16l.61-.61 1.22-1.22c.19 0 .43.12.55.06.43-.37.8-.86 1.25-1.2 1.01-.82 1.62-2.16 3.05-2.5.16-.03.16-.64.22-.94-.19.06-.4.09-.58.15-1.25.4-2.04 1.44-2.9 2.29l-1.83 1.83c-.21.03-.52-.03-.67.06-.61.55-1.16 1.16-1.77 1.77l-1.53 1.53c-.21.03-.52-.03-.67.06-.52.46-.97.98-1.46 1.46-.61.37-.64-.02-.8-.48-.48-2.13-.5-4.3-1.14-6.4-.16-.58-.37-1.46.42-1.95l2.14-2.14c.49.43.61-.12.92-.3l1.22-1.22c.6-.62 1.22-1.23 1.83-1.84l.15.16c.82-.77 1.65-1.47 2.44-2.26.03-.03-.27-.4-.46-.64l-.3.3-2.14 2.14c-.21.03-.52-.03-.67.06-.42.37-.76.76-1.16 1.16-1.22 1.65-3.26 2.41-4.57 3.97-.61-1.77-.67-3.66-1.03-5.49-.12-.73-.28-1.43-.49-2.13.1-1 .95-1.5 1.53-2.13l1.83-1.83 1.34-1.35c.03-.03-.03-.21-.06-.3l-.33.15c-.22.03-.52-.03-.7.1-.95.88-1.8 1.8-2.72 2.7-.92.92-.92.92-1.31-.39-.06-.18-.1-.4-.15-.57.37-1.47-.6-2.75-.52-4.18 0-.06-.33-.21-.48-.24-.1-.03-.28.15-.3.24-.04.28-.1.58-.04.82.24 1.1.49 2.2.76 3.33 0 .18-.06.36-.06.54 0 .13.12.25.2.34-.14.03-.26.1-.42.06-.36-.12-.7-.33-1.1-.49-1.27-.42-2.37-1.33-3.8-1.36-.15-.03-.3 0-.46-.03.06.12.1.27.15.33.06.12.19.19.3.3 1.47.55 2.75 1.47 4.3 1.86.25.06.4.4.58.58.52-.34.67-.06.76.4.06.36.1.76.15 1.12.1 1.98.49 3.9.97 5.85.03.16.03.4-.1.52-.08.1-.39.15-.5.1-1.65-.98-3.51-1.5-5.25-2.2-.55-.6-1.34-.54-2.04-.82-.8-.3-1.55-.76-2.34-1.06-.13-.06-.5.06-.52.1 0 .24 0 .6.12.66.7.4 1.43.64 2.16 1 .82.4 1.64.74 2.56.73 1.5 1 3.23 1.59 4.87 2.25.74.3 1.31.58 1.34 1.34.06 1.71.55 3.36.91 5 .18.85.24 1.77.3 2.68.03.4-.21.58-.7.4-.55-.24-1.22-.24-1.7-.55a19.36 19.36 0 0 0-4.76-2.06c-1.64-.55-3.13-1.43-4.78-1.92a13.7 13.7 0 0 0-1.92-.51c-.12 0-.3.24-.46.33.16.1.28.15.4.28 1.25.82 2.77.94 4.08 1.58 2.8 1.33 5.76 2.34 8.65 3.52.7.27 1.13.76 1.68 1.13.09.7.12 1.4.27 2.1.3 1.83.94 3.62.63 5.51-.64-.2-1.22-.48-1.86-.63-3.32-.76-6.64-1.52-9.9-2.52-1.22-.36-2.5-.49-3.75-.82-.33-.09-.48-.18-.45.22.03.2.15.45.3.54.28.16.61.25.95.34 2.98.73 6 1.36 8.98 2.15 1.92.46 3.78 1.1 5.76 1.36.67.55.55 1.47.91 2.14-.06.18-.15.4-.15.58l1.06 5.82c.09 1.25.12 1.22-.82 1.06-2.17-.33-4.33-.72-6.5-1.05-.3-.19-.42-.74-.9-.3-1.14-.46-2.3-.58-3.45-.77-1.19-.15-2.35-.7-3.57-.75-.3-.13-.6-.25-.94-.34-.21-.03-.46.1-.67.13.09.2.15.51.3.67.4.45.86.36 1.34.12.1.09.19.24.3.3 2.11.45 4.24.94 6.38 1.36.09.03.2-.09.33-.15.3.12.61.18.92.3l6.97 1.49c.34.09.8.55.95.94l.6 4.27c.18 1.22.43 2.44.6 3.66-.51.76-1.34.55-1.95.42-1.98-.39-3.99-.7-5.97-1.02-.91 0-1.76-.67-2.74-.3-1.62-.34-3.23-.73-4.88-1.04-.12 0-.4.22-.45.34-.03.15.12.49.24.49 1.65.42 3.32.76 5.06.78.88.34 1.77.73 2.74.3.15.16.28.4.43.43 1.83.24 3.62.45 5.45.63 1.28.13 2.35.52 2.65 1.98-.06.25-.18.55-.12.8l.73 3.47c-.03.15-.16.4-.07.55.37.6.37 1.16-.24 1.58l-2.14-.3c-2.43-.42-4.87-.79-7.3-1.21h-.62l-2.83-.45a.82.82 0 0 0-.4.03c-.12.06-.27.21-.24.3.03.22.15.52.27.52 1.07.1 2.17.15 3.23.18l.3.3h.62c1.76.25 3.5.52 5.27.76.58.09 1.1.6 1.73.15.7.09 1.34.79 2.14.3 1.06.76.94 1.98 1.21 3.05.13.3.19.6.3.91v1.22c.13.3.19.61.3.92v.6c.04.34.13.67.16 1.01-.28.03-.55.06-.8.06-.78-.12-1.58-.3-2.4-.45a253 253 0 0 0-5.15-1.06c-.21-.03-.6-.12-.52.33.03.22.15.52.3.55 1.04.24 2.1.52 3.17.6.74.07 1.4.74 2.17.22.97.24 1.95.54 2.92.73.46.09.58.27.61.67 0 .3.1.64.12.97l-2.47.4c-1.92.03-3.78-.06-5.6-.85-1.56-.7-3.08-1.36-4.24-2.58-.67-.67-1.4-1.34-2.04-2.04-.51-.64-1.37-1-1.58-2.01-.15-.76-1.46-.97-1.4-2.07-1.8-1.98-2.64-4.48-3.74-6.85-1.12-2.35-1.82-4.88-2.58-7.35a77.17 77.17 0 0 1-2.67-11.82c-.36-2.5-.39-5.03-.6-7.56-.2-2.65-.05-5.3.13-7.92a28.66 28.66 0 0 1 2.88-11.1c.58-1.19 1.35-2.32 2.05-3.45.3-.48.55-1.03.91-1.46.37-.49.98-.8 1.29-1.34 1.68-2.84 4.45-4.7 6.59-7.14.43-.5.49-.5 1.31-.22 2.59.82 6 2.4 8.25 3.8 1.28.8 2.44 1.7 3.69 2.47 1.43.94 2.62 2.07 3.65 3.34Z"/><path fill="#0A483A" d="M516.65 62.17c2.74 1.8 5.61 3.45 8.38 5.16a90.86 90.86 0 0 1 15.31 13.1c1.3 1.45 1.4 1.48.8 2.82-2.89 6.71-4.04 13.97-8.31 19.97-.79 1.07-.87 2.6-1.52 3.82-.61 1.13-1.37 2.11-2.15 3.18-1.7 2.49-3.24 5.03-5.07 7.36a63.34 63.34 0 0 1-19.75 16.01c-5.2 2.74-10.3 5.51-15.9 7.51-5.28 1.93-10.4 4.21-15.76 5.82a159.07 159.07 0 0 1-26.3 5.48c-5.7.7-11.38 1.6-17.2 1.59-5.78-.11-11.65.52-17.29-1.28-2.08 1.17-3.78-1.31-5.5-.88-2.23.53-3.68-.79-5.54-1.29-2.02-.55-4-1.49-5.97-2.22-3.58-1.33-6.37-3.73-9.14-6.22-3.26-2.97-5.12-6.58-6.85-10.53-1.68-3.84-1.71-3.75-6-3.2-1.55 1.56-3.77 1.02-5.53 1.83-.7.03-1.33.18-2.02.22-1.72.43-3.32 1.1-5.1 1.41-1.64.26-1.53-1.35-2.41-1.58.31-.86-.12-2.28 1.54-2.06 2.99-1.51 6.46-1.2 9.58-2.27 1.08-.28 2.12-.47 3.2-.75 4.25-1.53 4.14-1.48 3.43-5.83-.48-2.9-.55-5.85-.5-8.85a16.8 16.8 0 0 1 1.09-6.3c1.18-3.17 2.15-6.31 4.13-9.27a56.53 56.53 0 0 1 7.65-9.61c3.55-3.55 7.24-6.94 11.67-9.19 6.8-3.4 13.72-6.86 21.11-8.98 2.94-.85 5.47-2.44 8.26-3.15 7.84-1.75 15.31-4.62 23.33-5.82 6.17-.91 12.2-2.76 18.4-3.27a141 141 0 0 1 18.9-.46c5.81.32 11.32 1.68 16.92 3.09a38.01 38.01 0 0 1 10.11 4.64Zm-12.82-2.05c-5.22-1.36-10.56-2.67-16.08-2.97-6.01-.3-12.04 0-18.05.49-5.92.52-11.68 2.17-17.56 3.1-7.61 1.15-14.76 3.94-22.16 5.56-2.76.63-5.18 2.16-7.91 3-7.07 2.03-13.6 5.25-20.1 8.58-4.18 2.13-7.81 5.36-11.13 8.8a51.41 51.41 0 0 0-7.3 9.15c-1.82 2.83-2.76 5.88-3.88 8.87-.7 1.88-.92 4.04-.99 6.06-.07 2.8.03 5.65.45 8.44l1.26 4.45c.6.23 1.2.45 1.49-.6.34-1.44.5-2.93.67-4.43a5.26 5.26 0 0 1 .42-3.74l.32-.85c-.13-.44-.54-.88-.47-1.34.2-.8.6-1.63.89-2.4-1.25-.56-.3-1.28-.22-2.02l.32-.86c-1.31-1.17-.36-1.89.5-2.64.12-.05.74.09.71.17.07.61.01 1.27-.04 1.93l-.32.86c1.25.56.3 1.28.22 2.03-.28 1.54-.45 3.04-.74 4.59.13.43.55.88.47 1.34-.2.8-.6 1.62-.89 2.4.23.17.54.39.59.5.03 1.48-.05 3-.01 4.47 1.5-.4 2.93-.85 4.45-1.26.11-.05.25.1.42.16l1.17-.54.86.32 2.34-1.07c.69-.04 1.33-.19 2.02-.22.9-.35 1.7-.64 2.51-1.02.36-.16.65-.44.92-.63.69-1.59 1.2-3.25.9-5.02-.54-2.73-.1-5.48.14-8.21l.32-.86-.43-.16c-.03-2.25-.58-4.7.24-6.63.97-2.36-.62-4.6.38-6.76.1-.55.45-1.2.23-1.67-.23-.67-.3-.99.45-1.2.32-.07.72-.12 1.04-.2l-.31 1.64c.22.18.61.43.55.6-.25 3.02-1 6.05-.41 9.19.25 1.16-.26 2.53-.34 3.77l-.31.85c.16.35.6.72.6 1-1.07 4.18-.8 8.37-.8 12.56.55.1 1.28.47 1.63.31 1.39-.85 2.97-.65 4.45-.98.41-.33.89-.83 1.41-.93l7.32-1.65c.87-1.04 2.53-1.6 1.7-3.55-.23-.67.32-1.64.52-2.44-1.24-.56-.3-1.28-.21-2.02l.63-1.71-.53-1.18.32-.85.31-.86c-1.24-.56-.3-1.28-.21-2.02l.32-.86c-.16-.35-.61-.71-.6-1 .43-3.24.54-6.41.69-9.67l.31-1.63c.06-.67.14-1.41.1-2.1l.32-.86c-1.42-1.12.65-2.78-.46-3.97.3-.28.66-.73.95-.72.37.04.96.55.9.72-.35 1.44.47 2.9-.5 4.2 1.46 1.03-.13 1.9-.1 2.88 1.56 1.27-.57 2.32-.16 3.55.94 2.68-.24 5.35-.25 7.98l-.32.85c1.25.57.3 1.28.22 2.03l-.32.86c.22.18.53.39.59.5l-.8 5.26c1.25.56.3 1.28.22 2.03-.5 2.92 0 3.4 2.78 2.97 2.27-1.68 4.98-1.64 7.56-2.05.41-.33.89-.83 1.41-.93l7.32-1.66c.26-2.53.57-4.94.84-7.47l.63-1.7c-.13-.45-.54-.9-.47-1.35.2-.8.6-1.63.9-2.4-.23-.96.12-5.3.52-6.61-.23-.18-.62-.43-.56-.6.98-4.2 1.02-8.48 1.6-12.64l.32-.86c-1.02-1.44-.15-2.48.81-3.49.12-.05.97.27 1 .47.09.52-.22 1.09-.32 1.63l-.32.86c.22.18.62.42.55.6-.98 4.2-1.02 8.47-1.6 12.63l-.63 1.71c.22.96-.13 5.3-.52 6.62-.07.95-.04 1.93-.1 2.88l-.64 1.71c.22.18.62.43.58.51-.45 1.49-.45 3.05-.62 4.54-.2 1.58-.37 2.3 1.61 1.67.88-.26 1.91-.16 2.84-.3.3-.28.63-.65.98-.81 4.06-1.02 8.05-2.06 12.11-3.08 2.36.2 3.2-1.83 2.97-3.28-.26-1.65.53-2.72.75-4.1-1.46-1.03.12-1.9.1-2.88l.64-1.7c-.23-.97.13-5.31.52-6.63l.63-1.7c-.22-.19-.61-.43-.55-.6.5-2.93 1.1-5.82 1.23-8.79.1-2.1.78-4.19 1.38-6.3.1-.26.85-.46 1.28-.6.17.36.5.78.4 1.03-.4 2.38-1.3 4.78-1.2 7.15.03 1.47-.96 2.56-.83 3.78.1 1.3.11 2.57-.53 3.79l-.32.85c.22.18.62.43.58.51-.56 2.03-1.09 3.97-1.1 6.1l-.64 1.72c1.46 1.03-.13 1.9-.1 2.88-.67 1.8.07 3.72-1 5.56-.56.97.6 1.78 1.76 1.53 3.26-.43 6.22-1.86 9.52-2.38 4.96-.79 4.88-1.1 6.6-5.72l1.75-4.7c-.13-.44-.51-.98-.47-1.35.33-1.14.8-2.14 1.2-3.25l.65-1.7c.4-1.12.85-2.32 1.27-3.43-.16-.35-.61-.7-.6-1 .33-1.14.94-2.27 1.19-3.45.7-2.66 2.74-5.01 2.12-8.06-.07-.32 1.1-.86 1.63-1.25.05.4.17.85.22 1.25.33 2.75-.96 5.2-1.86 7.59l-1.9 5.12c.13.44.5.97.47 1.35-.52 1.65-1.21 3.25-1.85 4.95l-1.59 4.28c.13.44.51.97.47 1.34-.42 1.4-1.02 2.74-1.53 4.1-.16 1.5.63 1.2 1.64 1.1 4.52-.94 8.7-2.8 13.3-3.42 1.25-.21 3.14-.58 3.38-2.54l2.23-5.98c-1.25-.56-.3-1.28-.22-2.03l1.27-3.42 1.91-5.13-.42-.15c.74-2.26 1.36-4.46 2.19-6.68.03-.09 1 .18 1.63.31l-.32.86-2.23 5.98c.13.44.52.97.48 1.34-.33 1.15-.8 2.14-1.21 3.25-2.1 3.8-1.77 8.4-3.6 12.29 3.92-.39 7.6-1.94 11.44-2.85 1.51-.4 3-.73 4.53-.94 1.85-1.06 2.04-3.13 2.76-4.81l1.9-5.13 1.4-3.76c.04-.09.44-.13.64-.15v.78c.13.43.52.97.45 1.43-.87 2.6-1.88 5.04-2.84 7.6-.95 2.57-.95 2.57 1.91 2.17.4-.04.85-.17 1.25-.21 2.49-2 5.8-1.25 8.48-2.69.11-.05.7.46.9.72.13.15-.06.67-.21.8-.5.3-1.03.7-1.55.79-2.33.5-4.65 1-7.05 1.46-.35.16-.65.44-1 .6-.24.11-.58-.02-.83-.11.07.32.06.6.25.87.56.6 1.26 1.06 1.9 1.68 1.94 2.09 4.66 3.4 5.98 6.12.19.27.26.59.46.85-.3 0-.61.07-.78 0-.29 0-.51-.19-.85-.31-2.34-2.33-5.22-3.99-7.34-6.63-.34-.41-1.11-.41-1.62-.6.19-1.3-.48-1.34-1.43-1.12-.76.2-1.55.5-2.3.7a62.71 62.71 0 0 1-12.1 3.29c-.32.07-.79.29-.91.63-.1.26.05.9.27 1.08 3.32 2.3 5.95 5.42 8.82 8.14 1.65.52 2.23 2.1 3.37 3.2 1.28 1.26 2.82 2.32 4.1 3.58.23.18.32.99.28 1.08-.46.21-1.17.53-1.39.35-1.38-1-2.49-2.19-3.83-3.27-1.48-1.24-2.85-2.52-3.65-4.28-3.24-1.99-5.88-4.82-8.6-7.39-1.24-1.14-2.27-2.01-3.76-1.4-3.33 1.4-6.92 1.9-10.4 2.65-1.8.4-3.61 1.1-5.42 1.78-.79.3-.93.92-.15 1.7.95.84 1.54 2.13 2.55 2.8 3.16 1.95 5.65 4.63 8.15 7.31 2.5 2.68 5.5 4.78 7.89 7.51a28.86 28.86 0 0 1 2.68 3.24c.1.23-.2.8-.25 1.17-.3-.21-.53-.4-.87-.52-2.68-1.68-4.25-4.5-6.63-6.45-5.03-4.22-9.56-9.01-14.38-13.53-1.14-1.1-2.45-1.5-3.63-2.23-1.43.44-2.8 1-4.28 1.32-3.79 1.03-7.8 1.39-11.16 3.64.97 1.04 2 1.91 2.86 3A292.13 292.13 0 0 0 481.1 123c1.77 2.02 3.13 4.37 4.87 6.48.47.56.78.78 0 1.07-.45.13-1.02.1-1.33-.1-.53-.4-1-.96-1.47-1.53-4.03-5.1-7.9-10.33-12.04-15.38-2.56-3.29-5.42-6.3-7.69-9.87-1.64-.8-3.29.24-4.9.13-.3.27-.63.64-.98.8-4.06 1.02-8.05 2.06-12.11 3.08-2.48.93-2.45.84-1.33 2.52 2.54 3.87 5.2 7.68 7.74 11.55.62.42 1.78.17 1.39 1.49 1.87 1.76 3.12 3.88 4.48 5.95 1.34 2.15 3.4 3.9 4.6 6.18.5.48 1 .96 1.47 1.52.24.39.22.96.35 1.4-.5.01-1.13.16-1.56 0-1.22-.35-1.45-1.31-1.4-2.47-.26-.1-.64-.13-.86-.31-2.72-3.64-5.53-7.32-8.22-11.04-.14-.15-.01-.5 0-.78-.5-.48-.89-1.01-1.39-1.5-2.97-4.02-6.02-8.07-8.99-12.1-.47-.56-1.75-1.04-2.64-.98-2.94.85-5.8 1.74-8.73 2.59-2.5.72-5.06 1.33-7.56 2.05-1.01 1.67.12 3.06.89 4.13 2.5 3.46 4.85 7.06 7.23 10.57.8 1.76 2.84 2.81 2.99 5 2.06 2.82 4.24 5.58 6.27 8.47.1.24-.07.95-.25 1.18-.26.19-1.04.2-1.15-.04a45.66 45.66 0 0 1-5.96-9.03c-1.42-1.4-2.95-2.76-2.99-5-.42-.17-1-.19-1.19-.45a350.7 350.7 0 0 1-6.01-9.93c-1.36-2.35-3.06-4.06-6.13-3.35-.42.33-.9.83-1.42.93l-7.31 1.66c-.27.2-.63.64-1 .6-1.5-.17-2.55.32-2.84 1.87.8 1.26 1.67 2.56 2.46 3.83 2.96 4.31 5.8 8.68 8.76 12.99l.53 1.17 3.37 5.05c.19.27.26.59.28.79 0 .29-.16.71-.37.74-.43.13-1.13.16-1.23-.08-1.11-1.97-2.2-4.02-3.19-6.05l-.85-.31-.54-1.18c-2.01-3.18-4.06-6.28-6.08-9.46-.69-1.04-2.13-1.58-1.82-3.2-.79-1.28-2.7-1.89-2.45-3.84-2.4-1.38-4.64-.07-6.93.34-.69.03-1.33.18-2.02.22l-2.34 1.07c-.7.04-1.33.19-2.03.22l-1.17.54c-.67.24-1.4.36-2.06.6.18.55.36 1.1.57 1.57.93 1.42 1.98 2.78 3 4.23 2.2 2.96 4.4 5.92 6.56 8.96.25.39.77 1.07-.19 1.3-.44.13-1.13.16-1.32-.1-1.38-1.78-2.84-3.6-3.95-5.56-.76-1.36-2.64-2.05-2.3-3.98-1.33-1.66-2.77-3.26-3.98-4.98-.58-.8-1.03-.87-1.82-.58-.59.27-1.31.39-1.98.63l1.4 5.1c1.63 3.71 3.43 7.2 6.56 10.02 2.7 2.38 5.33 4.71 8.69 5.87 1.88.7 3.8 1.51 5.71 2.12 1.69.44 3.14 1.75 5.26 1.28 1.6-.38 3.15 1.95 5.2.87 5.39 1.7 10.94 1.14 16.47 1.16 5.5.1 10.97-.78 16.38-1.5a163.2 163.2 0 0 0 25.06-5.26c5.13-1.5 10.01-3.67 15.06-5.5 5.28-1.92 10.24-4.55 15.11-7.22a60.6 60.6 0 0 0 18.8-15.29c1.77-2.16 3.27-4.62 4.82-6.96.67-1.02 1.51-1.97 2.01-3.05.62-1.13.67-2.57 1.45-3.64 3.98-5.72 5.12-12.7 7.93-18.95.56-1.25.5-1.37-.74-2.7a87.5 87.5 0 0 0-14.56-12.53c-2.65-1.76-5.42-3.18-7.98-4.92a33.77 33.77 0 0 0-9.64-4.07Z"/><path fill="#DCBF6F" d="M352.85 44.93c1.31-.82 2.6-1.74 3.87-2.59a42.98 42.98 0 0 1 8.65-4.01c.89-.27.92-.3 1.37.22 2.32 2.56 5.22 4.48 6.96 7.5.3.55.95.89 1.35 1.4.36.5.64 1.01.94 1.56.74 1.22 1.53 2.38 2.17 3.63 1.8 3.69 2.78 7.6 3 11.65.16 2.77.34 5.51.1 8.32-.2 2.65-.23 5.3-.6 7.92-.6 4.2-1.51 8.35-2.82 12.4-.82 2.6-1.54 5.21-2.7 7.71-1.19 2.47-2.06 5.12-3.95 7.19.09 1.13-1.31 1.37-1.46 2.19-.22 1.07-1.07 1.43-1.65 2.13-.63.76-1.43 1.43-2.13 2.13-1.27 1.28-2.86 2.01-4.47 2.71-1.92.82-3.84.9-5.88.88-1.99-.04-1.96 0-2.56 1.94.36.98-.3 1.83-.3 2.75-.13.3-.19.6-.3.91-.16.82-.19 1.65-.4 2.47-.21.76-.88.4-1.16.73-.3-.3-1-.4-.58-1.07-.06-1.58.76-3.02.91-4.57.1-.52.21-1 .3-1.52.18-2.14.18-2.08-1.83-2.63a23.65 23.65 0 0 1-3.9-1.52 7.94 7.94 0 0 1-2.5-1.72c-1.13-1.12-2.3-2.16-3.18-3.6a26.82 26.82 0 0 1-2.63-5.18c-.82-2.23-1.56-4.48-1.65-6.83-.13-3.6-.25-7.25.3-10.85.2-1.43.02-2.83.26-4.17.79-3.72 1.03-7.5 2.1-11.19.81-2.83 1.2-5.79 2.2-8.56 1-2.77 2.13-5.54 3.53-8.22a42.17 42.17 0 0 1 4.66-6.67 18 18 0 0 1 3.98-3.44Zm-3.4 5.11a38.63 38.63 0 0 0-4.44 6.34 65.95 65.95 0 0 0-3.35 7.86c-.94 2.65-1.36 5.45-2.12 8.16-1 3.5-1.21 7.13-1.97 10.64-.27 1.3-.09 2.65-.27 3.99-.51 3.44-.42 6.89-.26 10.33.1 2.23.77 4.42 1.6 6.53a24.32 24.32 0 0 0 2.5 4.94c.85 1.34 1.98 2.35 3.05 3.41a9.3 9.3 0 0 0 2.4 1.62c1.2.58 2.45 1.1 3.73 1.47l2.16.34c.22-.22.43-.43.03-.76-.55-.43-1.16-.8-1.77-1.16a2.5 2.5 0 0 1-1.52-.92l-.3-.3c-.22-.04-.5.05-.68-.07-.3-.24-.58-.58-.85-.85-.49.42-.61-.13-.92-.3l-.3-.31c-.76.33-.88-.22-1.04-.74 0-.06.18-.3.22-.27.27.1.54.25.82.4l.3.3c.49-.42.61.13.92.3.6.44 1.22.8 1.83 1.23.21.03.49-.06.67.06.3.25.58.58.85.86.13-.06.28-.16.34-.16.64.28 1.28.61 1.92.89l.33-2.16c0-.06.1-.1.15-.15v-.62c.1-.09.22-.2.3-.3v-1.22c.13-.3.19-.6.31-.91.03-.46.06-.86.06-1.28 0-.19-.06-.37-.1-.52a4.12 4.12 0 0 0-1.98-1.38c-1.28-.3-2.37-1.03-3.5-1.67l-.3-.31-.16.15c-.98-.43-2.13-.67-2.8-1.4-.83-.89-2.1-.65-2.84-1.5-.22-.15-.43-.43-.67-.43-.34-.03-.5-.06-.43-.43.03-.15.1-.33.12-.48l.64.46c.12-.07.3-.19.37-.13 1.25.7 2.4 1.62 3.87 1.99.55.12 1.04.61 1.56.89l.3.3c.18 0 .43-.12.55-.06 1.59 1.28 3.45 1.98 5.25 2.81.15-.21.45-.46.45-.64-.1-.76.3-1.4.46-2.1-.06-.25-.19-.55-.13-.8l.73-3.47c-.27-.58-.18-1.4-1.19-1.43-.34-.03-.64-.46-.95-.7-.48.42-.6-.13-.91-.3l-.61-.62h-.61l-.3-.3-.31-.31c-.49.43-.61-.12-.92-.3l-.3-.31c-.18 0-.43.12-.55.06-1.31-.83-2.65-1.5-4.02-2.2l-.64-.46c-.28-.15-.59-.33-.89-.46l-.3-.3c-.77.4-1.07-.83-1.8-.58-.06-.19-.19-.43-.13-.55.1-.15.43-.3.5-.25.54.43 1.33.37 1.7 1.04.73-.42.8.43 1.22.61.85-.42.88.7 1.5.77 1.34.12 2.25 1.16 3.38 1.68l.3.3c.5-.42.61.13.92.3l.3.31c.13-.06.28-.15.34-.15l2.1 1.38c.5-.43.61.12.92.3 1.16.8 1.46.67 1.83-.6-.28-1.32.27-2.47.6-3.66-.06-.25-.18-.55-.12-.8l.72-3.47c-1.03-.6-2-1.22-3.05-1.83l-.6-.61c-.22-.03-.5.06-.68-.06-.3-.25-.57-.58-.85-.86-.46-.09-2.26-1.1-2.75-1.52-.12.06-.3.18-.36.12-1.62-1.25-3.45-2.11-5.13-3.18l-.3-.3c-.82.15-1.1-.43-1.34-1.04 0-.06.3-.37.4-.34.24.06.42.3.63.46l.3.3c.13-.05.31-.18.38-.12 1.61 1.26 3.44 2.11 5.12 3.18l.61.61c.46.1 2.26 1.1 2.74 1.53.4.21.83.4 1.22.61l.61.61c.13-.06.3-.18.34-.15.55.49 1.22.8 1.83 1.16.64.4.92.6 1.04-.37.06-.42.3-.85.42-1.28-.06-.18-.15-.4-.15-.57l1.06-5.82c.55-.98-.16-1.74-.83-1.93-.76-.21-1.07-.76-1.62-1.13-.73.43-.79-.42-1.22-.6l-.6-.62c-.46-.09-2.26-1.1-2.75-1.52l-.61-.61c-.12.06-.3.18-.37.12-1.16-.8-2.28-1.62-3.53-2.26-.89-.46-1.65-1.16-2.44-1.83-.1-.1-.04-.46 0-.68.18 0 .42-.06.51.04.95.64 1.8 1.5 2.84 1.92.64.27.92.92 1.46 1.1.58.21 1.13.46 1.53.98l.3.3c.13-.06.3-.18.34-.15.76.64 1.5 1.25 2.4 1.68l.62.6c.73-.42.8.44 1.22.62.64.64 1.62.7 2.2 1.53.3.42.88.09 1-.46.46-1.5.42-3.05.85-4.57.64-2.29.48-2.32-1.16-3.96l-1.68-1.68c-.22-.03-.52.03-.67-.06-.43-.37-.77-.77-1.16-1.16l-.61-.61-1.22-1.22c-.19 0-.43.12-.55.06-.43-.37-.8-.86-1.25-1.2-1.01-.82-1.62-2.16-3.05-2.5-.16-.03-.16-.64-.22-.94.18.06.4.09.58.15 1.25.4 2.04 1.44 2.9 2.29l1.83 1.83c.21.03.52-.03.67.06.61.55 1.16 1.16 1.77 1.77l1.53 1.53c.2.03.51-.03.67.06.51.46.97.98 1.46 1.46.61.37.64-.02.8-.48.48-2.13.5-4.3 1.14-6.4.16-.58.37-1.46-.43-1.95l-2.13-2.14c-.49.43-.61-.12-.92-.3l-1.22-1.22c-.6-.62-1.22-1.23-1.83-1.84l-.15.16c-.82-.77-1.65-1.47-2.44-2.26-.03-.03.27-.4.46-.64l.3.3 2.14 2.14c.21.03.51-.03.67.06.42.37.76.76 1.16 1.16 1.22 1.65 3.26 2.41 4.57 3.97.61-1.77.67-3.66 1.03-5.49.12-.73.27-1.43.49-2.13-.1-1-.95-1.5-1.53-2.13l-1.83-1.83-1.34-1.35c-.03-.03.03-.21.06-.3l.33.15c.22.03.52-.03.7.1.95.88 1.8 1.8 2.72 2.7.92.92.92.92 1.31-.39.06-.18.1-.4.15-.57-.37-1.47.6-2.75.51-4.18 0-.06.34-.21.5-.24.08-.03.27.15.3.24.03.28.09.58.03.82-.24 1.1-.49 2.2-.76 3.33 0 .18.06.36.06.54 0 .13-.12.25-.21.34.15.03.27.1.43.06.36-.12.7-.33 1.1-.49 1.27-.42 2.37-1.33 3.8-1.36.15-.03.3 0 .46-.03-.06.12-.1.27-.15.33-.06.12-.19.19-.3.3-1.47.55-2.75 1.47-4.3 1.86-.25.06-.4.4-.58.58-.52-.34-.67-.06-.76.4-.06.36-.1.76-.15 1.12a29.7 29.7 0 0 1-.97 5.85c-.03.16-.03.4.09.52.1.1.4.15.52.1 1.64-.98 3.5-1.5 5.24-2.2.55-.6 1.34-.54 2.04-.82.8-.3 1.55-.76 2.34-1.06.13-.06.5.06.52.1 0 .24 0 .6-.12.66-.7.4-1.43.64-2.16 1-.82.4-1.65.74-2.56.73-1.5 1-3.23 1.59-4.87 2.25-.73.3-1.31.58-1.34 1.34-.06 1.71-.55 3.36-.91 5-.18.85-.24 1.77-.3 2.68-.03.4.21.58.7.4.55-.24 1.22-.24 1.7-.55 1.47-.97 3.11-1.52 4.76-2.06 1.64-.55 3.13-1.43 4.78-1.92.64-.21 1.25-.4 1.92-.51.12 0 .3.24.46.33-.16.1-.28.15-.4.28-1.25.82-2.77.94-4.08 1.58-2.8 1.33-5.76 2.34-8.65 3.52-.7.27-1.13.76-1.68 1.13-.09.7-.12 1.4-.27 2.1-.3 1.83-.94 3.62-.63 5.51.64-.2 1.22-.48 1.86-.63 3.32-.76 6.64-1.52 9.9-2.52 1.22-.36 2.5-.49 3.75-.82.33-.09.48-.18.45.22-.03.2-.15.45-.3.54-.28.16-.61.25-.95.34-2.98.73-6 1.36-8.98 2.15-1.92.46-3.78 1.1-5.76 1.36-.67.55-.55 1.47-.91 2.14.06.18.15.4.15.58-.37 1.95-.7 3.87-1.06 5.82-.1 1.25-.12 1.22.82 1.06 2.17-.33 4.33-.72 6.5-1.05.3-.19.42-.74.9-.3 1.13-.46 2.3-.58 3.45-.77 1.19-.15 2.35-.7 3.57-.75.3-.13.6-.25.94-.34.21-.03.46.1.67.13-.09.2-.15.51-.3.67-.4.45-.86.36-1.34.12-.1.09-.19.24-.3.3-2.11.45-4.24.94-6.38 1.36-.09.03-.21-.09-.33-.15-.3.12-.61.18-.92.3l-6.97 1.49c-.34.09-.8.55-.95.94l-.6 4.27c-.18 1.22-.43 2.44-.6 3.66.51.76 1.34.55 1.94.42 1.99-.39 4-.7 5.98-1.02.91 0 1.76-.67 2.74-.3 1.61-.34 3.23-.73 4.88-1.04.12 0 .4.22.45.34.03.15-.12.49-.24.49a21.6 21.6 0 0 1-5.06.78c-.88.34-1.77.73-2.74.3-.15.16-.28.4-.43.43-1.83.24-3.62.45-5.45.63-1.28.13-2.35.52-2.65 1.98.06.25.18.55.12.8l-.73 3.47c.03.15.16.4.06.55-.36.6-.36 1.16.25 1.58l2.13-.3c2.44-.42 4.88-.79 7.32-1.21h.6l2.84-.45c.15-.03.3 0 .4.03.12.06.27.21.24.3-.03.22-.15.52-.27.52-1.07.1-2.17.15-3.23.18l-.3.3h-.62c-1.76.25-3.5.52-5.27.76-.58.09-1.1.6-1.74.15-.7.09-1.34.79-2.13.3-1.06.76-.94 1.98-1.21 3.05-.13.3-.19.6-.3.91v1.22c-.13.3-.19.61-.31.92v.6c-.03.34-.12.67-.15 1.01.27.03.55.06.8.06.78-.12 1.58-.3 2.4-.45 1.7-.37 3.41-.73 5.15-1.06.21-.03.6-.12.52.33-.03.22-.15.52-.3.55-1.04.24-2.1.52-3.18.6-.73.07-1.4.74-2.16.22-.97.24-1.95.54-2.92.73-.46.09-.58.27-.61.67 0 .3-.1.64-.12.97l2.47.4c1.92.03 3.77-.06 5.6-.85 1.56-.7 3.08-1.36 4.24-2.58.67-.67 1.4-1.34 2.04-2.04.51-.64 1.37-1 1.58-2.01.15-.76 1.46-.97 1.4-2.07 1.8-1.98 2.64-4.48 3.74-6.85 1.12-2.35 1.82-4.88 2.58-7.35a77.29 77.29 0 0 0 2.67-11.82c.36-2.5.39-5.03.6-7.56.2-2.65.05-5.3-.13-7.92a28.66 28.66 0 0 0-2.88-11.1c-.58-1.19-1.35-2.32-2.05-3.45-.3-.48-.55-1.03-.92-1.46-.36-.49-.97-.8-1.28-1.34-1.68-2.84-4.45-4.7-6.59-7.14-.43-.5-.49-.5-1.31-.22-2.59.82-6 2.4-8.25 3.8-1.28.8-2.44 1.7-3.69 2.47a15.97 15.97 0 0 0-3.65 3.34Z"/><g fill="#DCBF6F" clip-path="url(#a)"><path d="M319.18 89.35a8.02 8.02 0 0 1-1.89-3.7c-.3-1.46-1.56-2.38-2.01-3.65-.88-2.26-2.45-4.07-3.9-5.7-5.71-6.42-13.03-10.48-21.44-12.57A57.69 57.69 0 0 0 276 61.95c-4.44 0-8.77.12-12.9 2.01-.74.34-1.44.58-2.22.8a30.7 30.7 0 0 0-11.6 6.26c-4.84 4.09-9.34 8.55-12.04 14.45-.82 1.73-1.73 3.41-2.46 5.18a35.76 35.76 0 0 0-2.7 10.12 50.25 50.25 0 0 0-.17 4.36c0 1.43.04 2.92.13 4.4.15 2.02.42 4 .7 5.97.34 2.17.53 4.33 1.53 6.33l.11.32c1.21 2.8 1.68 5.92 3.65 8.44.88 1.05.58 1.44-.6 1.94-2.01.78-4.22 1.21-5.9 2.74-.48.46-1.48.67-2.17.55a5.62 5.62 0 0 0-4.35 1.27c-1.9 1.46-4.08 2.6-5.93 4.04-.68.53-.57.42 0 1 2.02 1.86 4.6 2.66 6.98 3.75 1.53.67 3.02 1.22 4.13 2.54.48.55 1.36.8 2.16.24.86.4 1.66.84 2.52 1.25.26.12.81.07.8.22.54 1.74 2.32 2.1 3.45 3.06 1.15 1.03 1.42 1.79.31 2.9-.58.57-1 1-.98 1.85-.4.29-1.02.58-1.24.95-1.2 2.28-2.22 4.65-3.39 7-.2.43-.39.71.4.72 2.54.1 5.1.05 7.53-.6 1.5-.4 2.84-.65 4.4-.5 1.33.1 2.74.25 4.05-.29 1.95-.76 3.91-1.89 5.95-.18.09.04.17.08.32.1 3.18-.34 6.48.7 9.45-1.21.64-.44 1.47-.52 2.23-.8.8-.35 1.8-.35 2.06-1.44 2.12-.9 3.3-2.6 4.33-4.55.68-1.31 1.45-1.16 2.66-.16.92.75.45 2.28 1.85 2.57 2.23 2.86 5.38 4.46 8.64 5.59 1.7.54 3.5 1.19 5.6.66 1.64-.44 3.58.37 5.31-.6.13-.05.4.14.58.22 2.69.9 5.45 1.43 8.35 1.33.43 0 .9-.1 1.24.06 2.53 1.47 5.34 1.11 8.04 1.66 1 .2 1.3-.18.91-1.05-1.34-3.17-1.58-6.88-4.7-9.2-.18-.1-.16-.45-.23-.65-.23-.63-.69-1.32-.6-1.86.15-.4 1.08-.6 1.59-1 .57-.4 1.09-.95 1.61-1.5.34-.26.6-.71.93-.83 4-1 7.35-3.47 11.28-4.72 2.3-.75 4.44-1.8 6.5-3.04.73-.4.19-.49-.14-.8-2.69-2.34-5.55-4.76-8.97-5.7-2.61-.71-4.82-2.08-7.25-3.07-1.36-.6-1.74-1.89-1.15-3.24.3-.76.63-1.45 1.02-2.16 2.5-4.47 3.68-9.4 4.24-14.47.8-7.23.78-14.31-1.56-21.28-.18-.51-.14-1.03-.26-1.56-.25-.91-.15-2.24-.85-2.99Zm-81.52 60.35c0-.21-.37-.44-.69-.54-1.65-.41-3.28-.77-4.9-1.12-1.84-1.13-3.64-2.36-5.52-3.41a7.5 7.5 0 0 0-2.7-.97c-1.14-.17-2.17-1.24-3.27-1.92.8-.57 1.54-1.12 2.38-1.56 2.03-1.15 3.92-2.68 6.28-3.3 1.14.8 2.47.11 3.06-.45 1.53-1.55 3.53-1.76 5.29-2.46 1.56-.62 1.59-.56 2.81 1.08 1.47 1.91 2.92 3.76 4.49 5.57.02.06.19-.07.32-.12.23.85-.3.97-.9.9-2.77-.53-5.49-.92-8.27-.5a5.3 5.3 0 0 0-4.27.08c-.7-.17-3.93.04-4.9.31-.6-1.07-1.24-.06-1.86.02.13.17.18.5.33.53.6.07 1.18.08 1.75.1 1.44-.02 2.84-.09 4.27-.1.5-.03.98-.06 1.56-.05.92-.04 1.86-.01 2.7-.03l6.49.7c1.05.13 2.08.62 3.12.11 1.07.4 2.15.81 3.16 1.24.75.3 1.44.42.17 1.3-.56.42-1.2.86-1.85 1.23-.3.18-.44.59-.6.93-1.65 1.02-3.05 2.3-3.76 4.13-.43 1.01-.85 1.45-1.92.83-1.15-.6-2.6-.87-2.77-2.53Zm36.73 5.42c-1.56 2.84-3.45 5.38-6.5 6.68-1.57.63-3.18 1.13-4.77 1.7-1.14.4-2.14.83-3.48.08-.8-.43-2.04.09-3.07.02-.51-.03-1.36-.01-1.45-.27-.65-1.41-1.58-.8-2.47-.48-2.73 1.18-5.47 1.73-8.47 1.15-.69-.12-1.47.3-2.19.49-1.6.35-3.12.68-4.76.9-.74.13-1.19-.72-.86-1.4.77-1.86 1.57-3.65 2.34-5.5 2.26-1.51 3.02-2.79 4.26-4.95a15.6 15.6 0 0 1 4.74-5.4c.3-.18.43-.59.6-.93.67-.32 1.46-.31 1.96-1.13.12-.26 1.15-.2 1.64-.01.67.26 1.13.96 1.76 1.3 1.68.91 3.44 1.65 5.17 2.47.17.08.36.22.47.33-.17.13-.23.37-.42.43-.3.18-.63.23-.95.34-.95.34-1.93.62-2.86 1.02-.84.44-1.58 1-2.38 1.56-1.4.71-2.83 1.5-4.22 2.22-1.56 1.05-3.08 2.02-4.64 3.08-1.11.9-2.31 1.75-3.42 2.65-.17.13-.14.4-.2.64.2 0 .44.06.61-.07.57-.42 1.12-.9 1.75-1.34.7-.46 1.5-.82 2.24-1.15l-.12-.32c2.22-.43 3.78-2.27 5.9-2.96.06-.02.01-.36 0-.57 1.22-.43 2.51-.82 3.7-1.31.25-.1.37-.57.53-.91l4.45-1.58a7.05 7.05 0 0 1 5.28.13c2.13.96 4.48 1.12 6.77 1.31.8.07 1.67.27 2.46.49.58.22.95.66.6 1.29Zm41.43 10.97c.27.77-.17 1.14-.8 1-1.34-.16-2.65-.63-4-.8-1.94-.23-3.73-1.03-5.88-.84-1.88.17-3.93-.96-5.8-1.59-.8-.22-1.23-.64-2.06.23-.88.96-2.4.5-3.65.23-.53-.1-1.12-.54-1.5-.4a4.61 4.61 0 0 1-4.1-.05c-1.12-.53-2.5-.4-3.23-1.64-3.71-.97-5-4.38-7.14-6.99-.15-.23-.3-.82-.17-.87.28-.24.72-.4 1.08-.38 2.78-.06 5.5-.03 8.16-1.04 1.4-.5 2.96-.12 4.44-.8.49-.24 1.42.36 2.15.6.26.13.6.3.86.41.26.13.6.3.86.41a707.1 707.1 0 0 0 2.59 1.23c.25.13.6.3.86.41l2.58 1.23c1.6 1.08 3.16 2.25 4.76 3.32.68.48 1.28.98 1.95 1.46.68.47 1.28.97 1.95 1.45.65.42 1.28.77 1.93 1.18.08.04.42 0 .46-.1 0-.2.04-.5-.07-.61-.61-.5-1.26-.91-1.9-1.33-.68-.48-1.28-.98-1.96-1.45-.67-.48-1.27-.98-1.95-1.46-1.26-1.55-3.1-2.26-4.76-3.32-.93-.6-1.88-1.26-2.8-1.86l-.87-.41-.86-.41-.86-.41-.87-.41-.86-.41c.19-.28.3-.75.6-.93 1.87-.8 3.84-1.3 5.59-2.63 1.55-1.27 2.17-.92 3.9.69 2.12 1.96 4.17 3.89 5 6.81.16.66.79 1.23 1.33 1.75 2.5 2.4 3.89 5.5 5.04 8.73Zm3.18-29.13a11.53 11.53 0 0 0 4.59 2.24c2.76.73 5.19 2.3 7.56 3.97.79.58.62 1.71-.3 1.97-4.46 1.15-8.24 3.79-12.55 5.18-.76.27-1.54.9-2.5.39-.46-.27-.82.14-.93.83-.25 1.3-2.44 2.8-3.56 2.7-.2 0-.47-.34-.65-.63a27.23 27.23 0 0 0-5.44-6.45c-.85-.77-.74-1.88.19-2.28 1.06-.45 2.1-.75 3.18-1.13l.11.31c3-.2 6.07-.44 9.06-.71.51.25 2.7.33 3.63.14.51.25 2.7.33 3.63.14.6 1.08 1.24.06 1.86-.01-.14-.17-.19-.51-.34-.53-.6-.08-1.17-.08-1.75-.1-.98-.15-2-.21-3-.36-1.19.06-2.4-.72-3.62-.14-2.84-.14-5.7-.34-8.54.17-.2 0-.42 0-.66-.05.1-.33.1-.75.28-.82 2.24-1.37 3.32-3.76 5.14-5.48.6-.57.91-.47 1.62-.5 1.24.06 2.22.42 2.99 1.16Zm-.48-43.44c1.28 5.42 2.18 10.97 2.1 16.59-.02 4.37-1.05 8.53-1.93 12.71-.18.71-.76 1.28-1.18 1.93.12.31.4.71.34.95a43.69 43.69 0 0 1-5.83 10.17 43.73 43.73 0 0 1-7.86 7.51c-1.53 1.12-3.24 1.95-4.8 3-3.18 2.14-6.84 2.93-10.33 4.18-1.78.63-3.7.67-5.6.98l-.1-.31c-1.78 1.06-3.78.48-5.65.64-3.67.37-7.04-.65-10.53-1.2-.23-.06-.5-.4-.71-.6-1.42.65-2.74-.25-3.96-.67-2.8-1.01-5.45-2.43-8.14-3.77-.35-.16-.47-.69-.67-1.05-2.1-.26-3.23-1.86-4.73-3.04-3.1-2.27-5.19-5.53-7.66-8.45-1.14-1.38-1.83-3.14-2.57-4.81-.58-1.23-.7-2.76-1.48-3.77-.92-1.18-.67-2.49-1.16-3.67-.52-1.25-1.1-2.48-1.36-3.82-.65-3.63-1.43-7.22-1.12-10.99.17-2.13.24-4.38.47-6.54.32-3.12 1.29-6.04 2.34-8.92 1.48-3.9 3.46-7.6 6.19-10.8a48.55 48.55 0 0 1 8.54-8.19c2.07-1.45 4.3-2.6 6.35-4.11 1.47-1.1 3.49-1.46 5.29-2.03a42.7 42.7 0 0 1 16.63-1.97c8.7.7 16.16 2.56 22.39 6.57a36.9 36.9 0 0 1 7.34 6.34c2.48 2.77 4.08 5.85 6.02 8.89a26.7 26.7 0 0 1 3.37 8.26Z"/><path d="m310.75 91.42-.64.22c-.75-1.1-1.4.07-2.13.05l-.23-.64a4.98 4.98 0 0 0 .32-6.77c-2.15-2.6-4.19-5.53-7.42-7.17-.64-.78-1.44-.64-2.25-.28-.87.38-1.65.8-2.43 1.22l-.86-.4c0-.22 0-.43.07-.6.77-2.07.75-2.35-.81-3.51-.5-.4-1.17-.66-1.7-.97-1.96-1.24-4.36-.96-6.43-1.73-.7.04-1.42 0-2.13.04-1.2-1.36-2.78-.58-4.15-.8a4.87 4.87 0 0 0-3.4.7c-1.14.62-1.4 1.93-1.35 3.27l-.86-.41c-.48-1.76-1.05-3.56-3.15-3.82-.96-.09-2.16-.45-3.1.32l-5.1 1.8c-2.8.57-4.96 2.34-7.17 3.99-2.44 1.8-2.77 3.49-1.37 6.21l.22.64-.63.23-3.45-1.64-2.54.9a37.28 37.28 0 0 0-6.53 9.84c-.37.78-1.06 1.45-.57 2.42.47 1.13 1 2.01 2.25 2.29l.86.4-.41.87c-2.82-.29-3.54.11-4.59 2.41-.7 1.47-.4 2.87-.19 4.3a11.1 11.1 0 0 0-.3 7.2c1 3.8 1.21 4.22 2.7 5.56-.2.49-.37.98-.4 1.5-.04.51 0 1 .02 1.49l-.4.86.22.64.23.63.9 2.55.9 2.54c.29.19.76.3.93.6 1.53 2.47 3.3 4.63 6.24 5.44l2.54-.9.23.64-.41.86c-.15.2-.46.52-.48.67.3 1.04.6 2.08 1.08 3.05.34.74.9 1.33 1.4 1.94l.65-.23c.2.36.31.89.66 1.05 1.29.62 2.6 1.08 3.87 1.63a707.1 707.1 0 0 1 3.45 1.64l.63-.22.86.4.87.42.22.63 1.27-.45.87.41.63-.23c.72.82 1.83.71 2.53.47.8-.36 1.25-1.31 1.92-2.05.28.19.59.44.9.54.27.12.57.16.82.28.67.26 1.44.42 2.07.77.62.35 1.2.36 1.8 0l.1.33c2.7-.1 5.47.27 8.03-1 .42-.22 1-.2 1.51-.18 2.32-.1 3.6-.77 5.38-2.98.13-.26.3-.6.41-.87.94-1.19.66-2.38.14-3.63l.64-.22c.32 1.1 1.12 1.75 2.18 2.09.32.1.7.39.99.36.84-.23 1.58-.56 2.41-.86 0-.21-.03-.49.07-.6 1.49-1.67 3.4-2.71 5.07-4.09 1.32-1.11 2.94-1.98 3.22-4l.64-.23-1.36-3.82.64-.23.63-.22c.26.12.53.46.74.45 2.12-.47 3.27-2.09 3.8-4a55.91 55.91 0 0 0 1.62-7.95c.1-1.11-.33-2.32-.8-3.44-.16-.45-1.03-.5-1.63-.78-.52-.03-.99-.15-1.5-.18l.4-.86 3.19-1.13c.3-.54.76-1.06.84-1.66.17-2.14.28-4.26-.79-6.24-.06-.2-.22-.42-.22-.64.06-3.46-.74-4.9-3.9-7.13Zm-12.96-13.3c.71-.6 1.63-.22 2.45-.15 2.65 1.42 3.99 4.17 6.28 6 .92.75 1.27 2.56 1.34 3.96a2.96 2.96 0 0 1-2.05 3.1c-.5.18-1.5.02-1.24 1.15l-1.27.45c-1.4.71-2.83 1.51-4.22 2.22l-1.27.45c-.46.31-1.32.11-1.05 1.1-1.4.7-2.83 1.5-4.22 2.2-.55.49-1.8 0-1.68 1.32l-1.27.45c-.58.2-1.23.37-1.78.64-.24.15-.38.56-.54.9l-2.54.9c-.58.21-1.19.5-1.78.64-.28.03-.65-.2-1-.36.48-1.1.86-2.24 1.33-3.34.57-1.42 1.16-2.77 1.73-4.2l.63-.22c.9-1.53 1.8-3 2.69-4.53.55-1.06 1.28-2.03 1.75-3.13.84-1.88 2.26-3.31 3.47-4.96.58-.78 1.85-1.02 1.85-2.23.8-.79 1.57-1.64 2.39-2.36Zm-14.25 29.42c-.03.51-.15.98-.18 1.5-.94.4-.24.94-.19 1.5-2.2-.37-2.24-.28-2.95 1.76l-.64.23-.63.22-.23-.64c-.95-.66-1.59-.43-1.9.68-.38.35-.67.74-1.05 1.1-.2-.58-.37-1.24-.63-1.79-.16-.23-.56-.37-.91-.54l-1.27.46-.64.22-.22-.63c.36-1.2-.06-1.77-1.32-1.69l-.22-.63.4-.86c.94-.4.24-.95.19-1.5-.3-.83.52-.76.86-1.02.27-.24.37-.56.6-.93l-.46-1.27.64-.23c.45.27.9.54 1.32.9.95.87 1.12-.26 1.67-.53.52.03.99.15 1.5.18.26.13.6.3.86.41l.64-.22.63-.23.64-.22c.48.54 0 1.79 1.31 1.68.33.1.7.32 1.06.34.49-.03 1-.58 1.3.25-.29.39-.56.84-.85 1.23.2.15.43.2.67.27ZM270 105.9c.25-.1.49-.25.52-.55-.01.37-.27.46-.52.55Zm6.28-30.88-.45-1.27 1.99-2.86c1.88.48 4-.84 5.83.5.11.11.37.02.6.08.51.03.99.15 1.5.18 1.44.42 2.9.9 4.38 1.24.56.16 1.26.12 1.84.35 3.12 1.32 3.27 2.34 1.1 5.12-.14.2-.18.5-.28.81-.48.67-.98 1.28-1.45 1.95-.38.35-.67.74-1.05 1.1l-2.05 4.3c-.66.16-1.1.53-1.36 1.2-.67 1.53-1.52 2.98-2.37 4.42-.57 1-1.13 2.05-1.7 3.05-1.16 2.2-2.3 4.4-3.44 6.66-.38.35-.67.74-1.04 1.09-.77.27-1.08-.4-.85-.78.54-.9-.08-1.62-.28-2.4l-.23-.64c.35-1.63.29-4.83-.13-6.4l-.45-1.27c1.1-.75-.07-1.4-.04-2.13.93-.4.24-.95.18-1.5l-.45-1.27c1.29-.6-.24-1.49.19-2.29.37-.77.13-1.84.1-2.75.01-2.16-.03-4.3-.1-6.49Zm-21.48 3.63c1.82-1.72 3.4-3.72 5.9-4.54 1.08-.38 2.67-.16 3.1-1.74l4.45-1.59c.3.83.89.48 1.31.26 1.18-.71 2.1.04 3 .58.26.12.42.78.3 1.04-.4 1.07.44 1.84.57 2.8l-.32.11c.3 1.83-.03 3.74.85 5.43a5.3 5.3 0 0 0 .09 4.27c-.93.4-.24.94-.19 1.5l.46 1.27c-.93.4-.24.94-.19 1.5-.17.12-.46.3-.42.43.69 3.12.66 6.28 1.05 9.37l.45 1.27c-.93.4-.24.94-.19 1.5-.51 1.97-.26 1.88-1.9.67l-.87-.4-.45-1.28c-.3-.46-.1-1.32-1.09-1.04-.57-1.02-1.19-1.94-1.76-2.96-.83-.92-1.72-1.82-2.43-2.79-1.32-2.1-3.2-3.8-4.8-5.66-2.21-2.58-4.48-5.14-6.9-7.5-.65-.84-.74-1.89-.02-2.5ZM243 91.23c1.34-1.7 2.76-3.34 3.55-5.34.53-1.34 2.1-1.75 2.37-3.2l1.27-.46c3.22 1 3.62 1.72 6.85 4.94 2.24 2.28 4.15 4.83 6.56 6.98.52.46.05 1.77 1.37 1.44l.23.64c.44.84 1.88 2.48 2.4 2.73.96 1.3 1.89 2.69 2.85 4-.03.72 1.14 1.38.05 2.13-.8-.22-1.57-.38-2.37-.6l-.63.23c-.93-.81-1.85-1.56-3.22-1l-2.59-1.23c-1.65-.63-3.29-1.2-4.94-1.82-.4-.94-.94-.24-1.5-.19l-3.45-1.64-.63.23c-1.97-1.52-4.47-1.7-6.67-2.64-.17-.08-.38.13-.64.22l-.22-.63c-1.46-1.49-1.78-3.38-.63-4.8Zm-3.3 21.72c-.2-2.57.03-5.16.05-7.74.17-.92.34-1.84.45-2.74.09-.97-.38-2.09.85-2.67.97-.48 2-.78 3.08-.38.7-.03 1.43 0 2.14-.04l1.72.82c1.05.34 2.17.66 3.22 1 1.43 1.21 3.33 1.11 4.94 1.83l.64-.23.86.4 3.45 1.65 8.8 2.6.64-.23.22.64-2.54.9-2.86 1.02c-.83.3-1.7.67-2.54.9-.92.25-1.77 1.06-2.84.3-.29 1.39-1.35.4-1.99.63-3.47 1.3-6.9 2.53-10.4 3.77l-2.55.9c-.32-.1-.7-.39-1.05-.34-2.55.48-4.17-.45-4.28-2.98Zm11.67 18.92c-.5.18-1.06.44-1.59.56-.34.05-.98.06-1.1-.1-1.02-1.44-2.53-2.47-3.65-3.8-1.64-1.99-1.92-4.4-2.9-6.55-.12-.32.15-.78.2-1.22.6-.57 1.05-1.3 2.07-1.45 1-.22 1.9-.68 2.8-1 1.06-.23 2.45-.15 3.16-.77.97-.91 2.16-.98 3.28-1.45 1.1-.53 2.29-.81 3.5-1.24l3.5-1.24c.32.1.7.39.98.36 1.23-.37 2.48-.88 3.69-1.31l4.96-1.76c1.08-.39.97.51 1.21 1-.31.1-.74.12-.95.33-3.76 3.92-7.5 7.9-11.18 11.86-2.31 2.97-4.75 5.77-7.98 7.78Zm21.28 7.47c-.34 1.05-.66 2.17-1 3.22-.71 2.04-.75 2.13-2.96 1.76-.98-.15-2-.21-3-.36-.5-.03-.98-.15-1.49-.19l-.86-.4c-.4-.94-.94-.24-1.5-.19l-.86-.4-.23-.64c-.4-.93-.94-.24-1.5-.19-1.27-.97-2.62-1.93-3.9-2.9-1.27-.77-1.4-2.37-2.32-3.33-.11-.1.07-.6.1-.9 1.07-1.45 2.3-2.6 3.58-3.85 2.26-2.1 4.18-4.56 6.25-6.8a12.52 12.52 0 0 0 2.9-3.9c.47-.31 1.33-.11 1.05-1.1l.64-.22c.44-.37 1.1-.75 1.34-1.26.78-1.64 2.82-2.15 3.25-3.95l.63-.23.42-.86.63-.22c-.07.6.97.3.78 1.37-.72 3.62-.97 7.36-1.39 11.02.08.4.23.85.22 1.2-.33 1.7-.27 3.47-.09 5.2-.14.19-.42.43-.48.67 0 .79.06 1.55.11 2.32l.45 1.27c-.93.4-.23.95-.18 1.5-.93.62-1.06 1.45-.6 2.36Zm20.29.66.22.64-.63.22c-.38.35-.63.87-1.11 1.11-3.8 1.64-7.66 2.65-11.78 2.54-.3-.03-.62-.13-.92-.17l-.63.22-.86-.4c-2-.8-1.96-.88-2.11-2.9-.17-2.3.25-4.54.55-6.72.08-.38-.15-.8-.15-1.23.16-.13.46-.31.41-.44-.11-3.75-.19-7.6.42-11.32l-.45-1.27c.6-.93.81-1.94.36-3 .81-1.14.44-2.59.78-3.85l1.27-.45c.3.82.5 1.6.86 2.41.1.26.56.38.9.54.24.63.46 1.27.69 1.9.93 2.04 1.96 4.1 2.9 6.14.2.57.36 1.23.63 1.78.15.23.56.37.9.53.2.58.37 1.23.64 1.78.15.24.56.38.9.54.71 1.4 1.51 2.83 2.22 4.22 1.29 1.4 2.26 3.14 3.68 4.5.65.63.6 1.72.3 2.68Zm14.72-10.96c-1.1 2.75-3.64 4.08-5.83 5.58-1.55 1.05-2.5 3.03-4.67 3.16l-.64.23c-.96-1.3-1.88-2.7-2.85-4-.48-.54 0-1.8-1.31-1.68l-.46-1.27-.86-.41-.22-.64c-.7-.96-1.39-1.87-2.09-2.84l-.32.12c-.2-.58-.36-1.23-.63-1.78-.15-.23-.56-.38-.9-.54l-.68-1.9c-.43-1.21-.82-2.5-1.31-3.7-.1-.25-.57-.37-.91-.53l-.68-1.9-.45-1.28-1.09-3.05c-.36-1.02.52-.97 1-1.22l.23.64c1.06.55 2.07 1.2 3.13 1.75 1.34.74 2.65 1.42 3.99 2.16 1.53.89 3 1.8 4.53 2.69.35.37.74.67 1.1 1.04 1.52.89 3 1.8 4.53 2.69l6.03 2.86c.18.51.28 1.4.6 1.5 1.44.43.8 1.44.76 2.32Zm4.74-18.88c1.48 1.34 2.04 2.72 1.23 4.87-.9 2.32-.73 4.98-1.97 7.36a3.22 3.22 0 0 1-2.25 1.73c-.5-.04-.98-.16-1.5-.19-1.53-.88-3-1.8-4.53-2.68-2.46-1.49-4.88-3.06-7.34-4.55-1.92-1.75-4.3-2.84-6.63-3.94-1.73-.82-3.35-1.75-5.03-2.66-.27-.97.58-.78 1.05-1.08.74 1.09 1.4-.08 2.13-.05l.86.41.64-.22c.4.93.94.23 1.5.18l.63-.23c1.95.24 3.8.44 5.76.1.13.17.31.47.38.44 1.42-.43 2.73.03 4.12.11 1.15-.19 2.25-.3 3.4-.5.8.23 1.57.38 2.36.6.49-.03 1 0 1.56-.05.42 0 .8-.14 1.2-.22.87.2 1.64.35 2.43.57Zm1.47-11.98c-.89.32-.32.9-.23 1.37.35 1.39.74 2.68.87 4.06.16 1.24-.7 2.05-.53 3.13-1.15.2-2.26.3-3.4.5-.71.03-1.44 0-2.14.04l-.64.22c-.4-.93-.94-.23-1.5-.18l-.63.23c-.75-1.1-1.4.07-2.13.04-.4-.93-.95-.24-1.5-.19-.67-1.26-1.6.36-2.55-.3-.58-.44-1.73-.04-2.58-.02l-.64.23c-.51-.25-2.69-.34-3.63-.15-.4-.93-.94-.23-1.5-.18l-.63.23c-.2-.15-.43-.42-.67-.48-.79 0-1.56.05-2.32.1l-.64.24c-.4-.93-.94-.24-1.5-.19l-1.27.45.41-.86.41-.86 1.9-.68c.47-.3 1.33-.1 1.05-1.09l1.27-.45c.47-.3 1.33-.1 1.05-1.08l1.9-.68c.55-.48 1.8 0 1.69-1.32l3.18-1.13L303.5 96c.06-.02.01-.36 0-.58l1.92-.67c.97-1.5 2.74-1.55 4.22-2.22l.63-.23c2.27 1.34 2.81 3.66 3.6 5.88Z"/></g><defs><clipPath id="a"><path fill="#fff" d="M0 0h112.47v116.79H0z" transform="rotate(-19.57 350.75 -533.45)"/></clipPath></defs></svg>