<svg width="312" height="369" viewBox="0 0 312 369" fill="none" xmlns="http://www.w3.org/2000/svg">
<path d="M274.893 116.496C276.015 111.919 277.402 107.312 278.629 102.78C280.691 94.5587 282.166 82.7528 282.34 74.2891C282.361 71.5482 282.417 71.4278 280.697 70.8238C272.151 67.6835 264.826 62.1798 255.539 61.1774C253.859 61.0253 252.474 59.6987 250.802 59.2604C249.233 58.8674 247.658 58.7606 245.978 58.6084C242.202 58.1231 238.538 57.3968 234.754 57.1976C223.66 56.8562 212.656 59.0148 201.855 63.4326C194.46 66.4379 187.121 69.3228 179.959 73.4428C173.172 77.292 166.241 80.6441 159.655 84.87C149.105 91.7128 138.955 99.3089 129.359 107.869C123.214 113.301 116.917 118.521 111.277 124.75C105.741 131.026 99.4843 136.698 95.5416 144.39C92.5114 145.532 92.9799 149.643 90.9419 151.072C88.3125 152.967 88.0276 155.738 86.6466 158.177C85.1539 160.856 84.0214 163.837 82.7367 166.607C80.3908 171.665 79.7247 176.875 79.1627 182.131C78.5218 188.365 79.7995 193.698 81.4933 199.211C83.1389 204.559 83.0349 204.514 78.4003 208.576C75.5531 208.784 73.8446 211.659 71.4463 212.786C70.7432 213.493 69.992 214.035 69.2889 214.742C67.2509 216.171 65.1165 217.268 63.1267 218.863C61.2967 220.382 62.7859 221.754 62.1234 222.913C63.1637 223.366 63.9575 225.159 65.379 223.172C69.5842 221.384 72.6912 217.381 76.6479 215.05C77.9346 214.163 79.1174 213.23 80.4041 212.343C85.8556 209.215 85.6957 209.29 88.7245 214.082C90.7437 217.277 93.1944 220.08 95.8049 222.808C97.6467 224.768 99.8084 226.577 102.257 227.498C106.106 229.173 109.739 231.044 114.195 231.681C119.435 232.514 124.531 232.85 129.857 232.418C136.343 231.912 142.837 231.119 149.065 228.474C158.595 224.372 168.284 220.194 177.284 214.268C180.873 211.922 184.695 210.691 188.02 208.374C197.146 201.636 206.867 196.313 215.697 188.867C222.481 183.135 229.922 178.413 236.402 172.259C242.882 166.105 249.266 159.62 255.193 152.502C260.576 146.016 264.768 138.866 269.015 131.596C271.513 126.749 273.643 121.886 274.893 116.496ZM264.16 132.089C260.241 138.922 256.161 145.831 251.049 152.001C245.449 158.683 239.337 164.852 233.073 170.81C226.865 176.648 219.847 181.265 213.335 186.681C204.936 193.736 195.591 198.788 187 205.181C183.779 207.542 180.117 208.699 176.744 210.849C168.12 216.504 159.014 220.502 149.86 224.334C143.952 226.828 137.667 227.711 131.5 228.067C126.437 228.469 121.55 228.223 116.574 227.36C112.382 226.694 108.853 224.868 105.212 223.284C102.923 222.288 100.865 220.524 99.0718 218.73C96.6134 216.213 94.2668 213.455 92.2958 210.426L89.7062 204.957C90.0971 204.113 90.4881 203.27 91.6807 203.934C93.2334 204.899 94.6745 206.106 96.1156 207.312C96.8613 208.939 98.206 209.814 99.7183 210.327C100.03 210.463 100.446 210.644 100.759 210.78C101.007 211.322 100.984 212.181 101.448 212.527C102.329 213.055 103.425 213.388 104.361 213.795C103.627 215.647 105.163 215.302 105.883 215.905C106.195 216.041 106.612 216.222 106.924 216.358C106.646 218.842 108.182 218.497 109.661 218.273C109.821 218.198 110.316 217.4 110.212 217.355C109.756 216.722 109.139 216.164 108.522 215.606C108.21 215.47 107.794 215.289 107.482 215.153C108.216 213.302 106.681 213.647 105.96 213.044C104.359 211.913 102.918 210.706 101.317 209.576C101.069 209.033 101.092 208.175 100.627 207.828C99.7469 207.3 98.6507 206.968 97.7144 206.56C97.778 206.154 97.8974 205.627 97.8492 205.461C96.6239 204.059 95.2386 202.733 94.0133 201.331C95.8356 200.098 97.602 198.985 99.4243 197.752C99.5842 197.676 99.5919 197.39 99.7036 197.149C100.183 196.924 100.823 196.623 101.302 196.398C101.47 196.037 101.693 195.555 101.861 195.194C102.98 194.667 103.94 194.216 105.059 193.69C105.762 192.983 106.513 192.442 107.216 191.735C108.391 191.088 109.406 190.517 110.526 189.991C111.005 189.765 111.533 189.705 111.957 189.6C113.989 190.34 115.91 191.321 117.12 193.295C118.931 196.399 121.717 198.48 124.287 200.756C124.599 200.892 125.015 201.073 125.327 201.209C125.216 201.45 125.048 201.811 125.048 201.811C126.938 203.936 128.493 206.784 130.941 207.705C133.91 208.852 134.282 212.633 137.099 213.569C137.667 213.961 138.555 214.203 138.748 214.866C139.093 215.739 139.293 216.116 140.204 215.499C140.58 215.229 141.012 214.838 141.387 214.567C140.819 214.175 140.251 213.783 139.682 213.391C139.746 212.984 139.921 212.337 139.713 212.246C136.887 209.713 133.573 207.692 131.457 204.166C130.704 202.825 129.04 202.101 127.911 201.031C127.599 200.895 127.182 200.714 126.87 200.578C126.726 200.081 126.853 199.268 126.597 199.011C121.986 196.281 118.678 192.091 115.099 188.218C115.538 187.54 115.937 186.411 116.416 186.186C118.487 185.495 119.853 183.629 121.571 182.35C122.259 182.215 123.154 182.171 123.746 181.704C126.591 179.614 129.436 177.523 132.281 175.432C134.017 175.464 136.103 174.201 136.978 176.897C137.323 177.771 138.683 178.074 139.563 178.601C138.83 180.453 140.365 180.108 141.085 180.711C141.814 181.028 142.438 181.3 143.166 181.617C143.311 182.114 143.503 182.777 143.648 183.274C143.96 183.41 144.376 183.591 144.688 183.727C145 183.862 145.416 184.043 145.728 184.179C144.995 186.031 146.53 185.686 147.251 186.289C147.563 186.425 147.979 186.606 148.291 186.742C148.435 187.239 148.308 188.052 148.565 188.308C151.759 190.856 154.577 193.675 157.5 196.539C158.068 196.932 158.637 197.324 159.205 197.716C159.822 198.273 160.542 198.877 161.103 199.555C161.415 199.691 161.831 199.872 162.143 200.007C161.706 202.567 165.145 201.893 165.083 204.182C165.611 204.122 166.347 204.153 166.618 203.837C166.946 203.4 167.081 202.301 166.873 202.211C165.32 201.245 164.853 199.016 162.806 198.848C163.347 196.334 161.06 197.22 160.243 196.286C160.688 193.44 157.706 194.747 157.064 193.166C155.685 189.67 152.244 188.462 149.994 186.036C149.682 185.9 149.266 185.719 148.953 185.583C149.687 183.731 148.152 184.076 147.431 183.473C147.119 183.337 146.703 183.156 146.391 183.02C146.455 182.614 146.574 182.087 146.526 181.921C144.773 180.579 143.019 179.237 141.266 177.895C142 176.043 140.465 176.388 139.744 175.785C136.75 173.614 136.829 172.635 139.898 170.063C143.552 169.192 146.156 166.273 149.009 163.896C149.697 163.761 150.593 163.717 151.184 163.251C154.029 161.16 156.874 159.069 159.72 156.978C162.137 159.044 164.507 160.943 166.925 163.009C167.653 163.326 168.277 163.598 169.006 163.914C169.254 164.457 169.231 165.315 169.695 165.662C170.576 166.19 171.672 166.522 172.608 166.93C173.209 168.06 177.269 171.708 178.773 172.508C178.71 172.914 178.534 173.562 178.743 173.652C183.297 176.503 186.981 180.422 191.103 183.663C191.415 183.799 191.832 183.98 192.144 184.116C192.394 186.541 194.13 186.573 195.922 186.484C196.082 186.409 196.64 185.205 196.488 184.994C196.135 184.406 195.351 184.21 194.783 183.817C194.471 183.682 194.055 183.5 193.743 183.365C193.806 182.958 193.981 182.311 193.773 182.22C189.219 179.37 185.535 175.451 181.412 172.209C180.684 171.892 180.06 171.62 179.332 171.303C178.731 170.173 174.671 166.525 173.167 165.725C172.294 164.911 171.477 163.977 170.604 163.163C169.876 162.846 169.252 162.574 168.524 162.257C168.587 161.851 168.763 161.203 168.659 161.158C166.946 160.268 165.616 158.821 164.175 157.615C162.63 156.363 161.854 155.881 164.316 154.347C165.387 153.655 166.313 152.466 167.336 151.609C167.864 151.549 168.496 151.535 168.975 151.309C173.803 147.91 178.574 144.631 183.402 141.232C185.526 138.538 188.079 139.504 189.088 141.102C190.25 142.91 191.93 143.062 193.323 144.102C192.782 146.617 195.068 145.73 195.885 146.665C196.613 146.982 197.238 147.253 197.966 147.57C198.567 148.7 202.626 152.349 204.131 153.148C204.859 153.465 205.483 153.737 206.212 154.054C206.148 154.46 205.973 155.108 206.181 155.198C209.175 157.37 212.224 159.421 214.891 162.029C216.789 163.868 219.229 165.075 221.614 166.402C221.927 166.538 222.838 165.921 223.373 165.575C223.229 165.078 223.196 164.34 222.884 164.205C220.458 162.425 217.545 161.158 215.607 158.867C214.382 157.465 212.486 157.508 211.573 156.242C210.556 154.931 209.483 153.741 207.81 153.302C207.498 153.166 207.082 152.985 206.77 152.85C206.834 152.443 207.009 151.796 206.905 151.75C204.624 150.468 202.447 149.231 200.605 147.272C199.877 146.955 199.253 146.683 198.524 146.366C199.066 143.852 196.779 144.738 195.962 143.804C193.777 142.853 192.847 140.277 190.231 139.717C188.87 139.415 189.292 137.427 190.635 136.419C194.191 133.335 198.292 131.502 201.952 128.463C207.442 123.904 207.642 124.281 213.26 126.726C215.132 127.541 217.109 128.401 218.981 129.216C219.23 129.759 219.311 130.662 219.671 130.964C220.968 131.673 222.272 132.096 223.624 132.684C224.353 133.001 224.977 133.273 225.705 133.59C227.057 134.178 228.514 134.812 229.866 135.401C230.011 135.898 229.884 136.711 230.14 136.967C231.437 137.676 233.005 138.069 234.245 138.899C237.199 140.618 241.198 140.622 243.21 144.103C243.41 144.479 245.009 143.728 245.856 143.518C245.552 143.096 245.303 142.553 244.999 142.131C242.972 139.223 239.628 138.346 236.715 137.079C234.634 136.173 232.554 135.268 230.473 134.362C230.224 133.82 230.143 132.916 229.783 132.615C227.862 131.634 225.83 130.894 223.749 129.989C221.981 129.219 220.316 128.494 218.548 127.725C218.299 127.182 218.218 126.279 217.858 125.977C216.249 125.132 214.529 124.528 212.865 123.804C211.424 122.598 212.439 122.026 213.517 121.049C218.728 117.092 224.38 114.342 229.39 110.009C230.789 108.881 232.938 107.211 234.844 108.764C237.236 109.805 239.733 110.892 242.126 111.933C241.392 113.785 242.927 113.44 243.648 114.043C245 114.631 246.457 115.265 247.809 115.854C249.89 116.759 251.97 117.665 254.051 118.57C253.939 118.811 253.772 119.173 253.772 119.173C256.421 120.47 258.91 121.843 261.615 123.02C261.719 123.065 262.437 121.786 262.932 120.988C262.62 120.852 262.204 120.671 261.892 120.535C259.499 119.494 257.002 118.407 254.61 117.366C254.361 116.824 254.28 115.92 253.92 115.619C252.623 114.91 251.319 114.487 249.967 113.898C244.686 112.613 241.074 108.001 235.961 106.355C240.116 102.519 245.024 100.023 249.532 96.7742C251.354 95.5409 253.072 94.2624 254.742 92.8181C257.453 91.8266 259.406 93.5453 261.543 94.3304C263.623 95.2359 265.704 96.1414 267.784 97.0469C269.345 97.726 270.905 98.4051 272.362 99.039C272.466 99.0843 272.897 98.6931 273.113 98.4975C272.857 98.2413 272.601 97.985 272.448 97.774C272.2 97.2316 272.119 96.3279 271.655 95.9811C268.589 94.5024 265.517 93.3099 262.396 91.9516C259.275 90.5934 259.275 90.5934 262.399 87.9004C262.831 87.5093 263.366 87.1634 263.798 86.7722C267.924 85.9627 270.511 81.7332 274.34 80.2156C274.5 80.1404 274.635 79.0411 274.595 78.5893C274.602 78.3032 273.978 78.0315 273.714 78.0614C272.971 78.3167 272.123 78.5268 271.532 78.9931C268.846 81.0087 266.161 83.0244 263.42 85.1604C262.94 85.3859 262.413 85.4456 261.933 85.6711C261.613 85.8214 261.39 86.3031 261.222 86.6644C261.022 86.2877 260.765 86.0315 260.725 85.5796C260.756 84.4351 261.05 83.2607 261.137 81.9957C261.244 77.9898 262.776 73.8797 261.723 69.9481C261.683 69.4962 261.483 69.1195 261.442 68.6677C261.17 68.9837 260.795 69.2544 260.683 69.4953C260.411 69.8113 260.348 70.2179 260.125 70.6996C259.842 75.353 258.455 79.9601 258.644 84.6741C258.677 85.4121 257.918 86.2397 257.583 86.9623C258.872 87.9575 258.273 88.7099 257.146 89.5221C256.235 90.1388 255.22 90.7101 254.309 91.3268C249.185 94.0179 244.461 97.4624 239.73 101.193C239.355 101.464 238.715 101.764 238.299 101.583C237.987 101.447 237.586 100.694 237.65 100.287C238.907 94.6109 238.797 88.9181 239.263 83.3312C240.428 81.0882 239.642 79.0092 239.807 76.7654C239.98 74.2355 240.577 71.6005 240.75 69.0705C240.814 68.6639 240.205 67.82 240.101 67.7747C239.461 68.0754 238.502 68.5263 238.439 68.9329C237.953 71.327 237.892 73.6161 237.511 76.0555C237.122 78.781 236.893 81.4314 237.615 83.917C236.158 89.2169 236.012 94.6535 235.554 99.9542C235.332 102.318 235.071 104.231 233.096 105.253C228.667 107.523 224.736 110.878 220.708 113.902C218.614 115.451 216.264 116.744 213.914 118.037C212.899 118.608 212.226 118.171 212.321 116.62C212.527 114.828 211.997 113.005 212.411 111.304C213.813 106.124 213.951 100.974 214.089 95.8232C214.227 90.6728 215.365 85.5232 215.344 80.4479C215.398 78.445 215.395 76.5624 215.185 74.5894C215.089 74.2579 214.305 74.0614 213.945 73.7599C213.825 74.2869 213.762 74.6935 213.538 75.1752C212.367 79.5868 213.252 83.8797 212.609 88.2315C211.308 97.5074 211.006 106.784 210.177 116.121C210.011 118.365 209.069 120.126 208.543 122.068C206.777 123.181 204.962 124.128 203.244 125.407C198.688 128.49 194.478 132.447 189.28 133.948C189.334 131.945 189.596 130.033 189.49 128.105C188.863 118.134 188.236 108.164 188.297 98.0587C188.292 94.2937 187.6 90.6635 187.492 86.8532C187.467 85.8291 187.586 85.3021 186.571 85.8735C186.036 86.2194 185.493 86.8514 185.373 87.3784C185.19 88.312 185.215 89.3361 185.24 90.3602C185.682 99.3817 186.388 108.373 186.67 117.47C186.989 123.253 186.779 129.096 187.626 134.82C186.717 137.319 184.222 138.115 182.752 139.936C182.224 139.996 181.593 140.01 181.113 140.236C176.286 143.635 171.514 146.914 166.687 150.313C163.481 152.102 163.585 152.148 163.238 149.391C162.408 143.095 161.737 136.724 160.906 130.428C161.145 129.374 162.487 128.366 160.983 127.567C161.29 123.938 160.695 120.639 160.259 117.265C159.719 113.846 160.243 110.021 159.439 106.632C159.518 105.653 159.597 104.674 159.572 103.65C159.483 103.032 158.971 102.52 158.722 101.978C158.235 102.489 157.484 103.031 157.205 103.633C156.319 105.274 156.92 106.404 157.945 107.429C157.777 107.79 157.45 108.226 157.386 108.633C157.849 114.913 158.256 121.314 158.823 127.64C158.815 127.926 159.231 128.107 159.488 128.364C159.409 129.343 159.49 130.246 159.411 131.225C159.962 138.123 160.458 145.142 161.01 152.04C161.035 153.064 160.197 154.87 159.278 155.773C155.69 158.119 152.157 160.345 148.568 162.691C145.515 164.691 142.51 166.857 139.457 168.857C137.049 168.388 136.958 165.888 136.796 164.081C136.269 158.207 135.479 152.363 134.793 146.564C134.07 144.078 135.154 140.932 133.424 138.731C133.027 133.927 132.789 129.047 132.288 124.197C132.192 123.866 131.415 123.383 131.047 123.368C130.624 123.473 129.865 124.301 129.961 124.632C130.143 129.632 130.588 134.602 131.881 139.363C131.7 142.179 131.36 145.07 133.25 147.195C132.97 147.797 132.427 148.429 132.468 148.881C133.273 154.153 134.135 159.304 135.101 164.501C135.792 168.131 135.596 171.52 132 174.152C131.312 174.287 130.416 174.331 129.825 174.797C126.98 176.888 124.135 178.979 121.29 181.07C120.866 181.175 120.13 181.144 119.802 181.58C118.493 183.326 117.054 184.003 115.453 182.872C115.139 180.853 114.88 178.714 114.566 176.696C113.758 169.542 112.79 162.463 111.983 155.308C111.838 154.811 111.645 154.148 111.501 153.651C111.154 150.895 110.807 148.139 110.46 145.382C110.419 144.93 110.219 144.554 110.067 144.343C109.811 144.086 109.29 143.86 109.075 144.056C108.539 144.402 107.836 145.109 107.932 145.44C108.536 148.453 109.243 151.511 110.006 154.448C109.838 154.809 109.615 155.291 109.448 155.652C109.592 156.149 109.785 156.812 109.929 157.309C110.687 162.416 111.34 167.476 112.098 172.582C112.316 174.269 111.366 176.317 113.071 177.493C113.385 179.511 112.053 182.115 113.958 183.668C112.802 187.508 109.508 188.679 106.927 190.74C106.224 191.448 105.473 191.989 104.77 192.696C103.65 193.222 102.691 193.673 101.572 194.199C100.869 194.906 100.118 195.448 99.4145 196.155C98.9349 196.381 98.2953 196.681 97.8157 196.907C96.9604 197.403 96.1533 198.065 95.298 198.561C95.0013 197.853 94.7045 197.145 94.5118 196.482C94.2053 194.178 94.0587 191.798 93.808 189.373C93.4184 184.282 93.0288 179.192 92.5352 174.056C92.4465 173.438 92.3732 172.248 91.2463 173.06C90.7108 173.406 90.0077 174.113 90.0482 174.565C90.2277 177.683 90.3513 180.921 90.9545 183.934C91.3727 185.997 90.1439 188.647 92.1051 190.079C92.2364 193.031 92.2078 196.058 92.4989 198.935C92.6204 200.291 92.2371 200.847 91.2219 201.419C90.4225 201.795 89.6154 202.456 88.7601 202.953L85.7697 196.73C84.1723 191.548 82.9427 186.381 83.576 180.433C84.1862 175.343 84.7406 170.374 87.0229 165.722C88.2518 163.073 89.4324 160.258 90.7652 157.653C92.0346 155.456 92.3194 152.685 94.7889 150.865C96.6671 149.511 96.1909 145.685 99.117 144.498C102.892 137.167 108.773 131.766 114.141 125.852C119.406 119.893 125.487 114.869 131.36 109.754C140.47 101.705 150.188 94.4999 160.258 87.8826C166.525 83.807 173.136 80.6052 179.603 76.9063C186.389 73.0571 193.464 70.2021 200.484 67.4675C210.806 63.2751 221.385 61.2215 231.848 61.5775C235.423 61.6862 238.983 62.3671 242.495 62.8824C244.015 63.1096 245.647 63.0961 247.055 63.5642C248.623 63.9572 249.904 65.2385 251.584 65.3906C260.344 66.4528 267.412 71.7002 275.494 74.4937C277.11 75.0524 277.158 75.2181 277.089 77.7934C276.978 85.8505 275.519 97.0841 273.624 104.944C272.557 109.401 271.074 113.676 270.063 118.013C268.717 123.072 266.699 127.693 264.16 132.089Z" fill="#0A483A"/>
<path d="M130.216 307.308C132.192 306.672 134.217 306.153 136.19 305.577C139.746 304.456 144.648 302.141 148.039 300.063C149.132 299.373 149.188 299.369 149.19 298.399C149.257 293.548 150.433 288.672 149.546 284.015C149.374 283.18 149.71 282.185 149.653 281.28C149.592 280.437 149.416 279.663 149.244 278.828C148.915 276.915 148.697 274.993 148.252 273.149C146.852 267.805 144.47 263.141 141.218 259.15C138.998 256.413 136.835 253.671 134.204 251.329C131.733 249.096 129.44 246.667 126.847 244.625C122.664 241.372 118.237 238.501 113.503 236.139C110.491 234.613 107.543 232.962 104.284 231.879C101.021 230.858 97.898 229.341 94.2918 229.436C93.4181 228.292 91.847 229.563 90.9964 228.962C89.8785 228.2 88.7366 228.772 87.5753 228.74C86.3026 228.717 84.9599 228.941 83.68 229.039C81.3429 229.219 79.1778 230.233 77.009 231.309C74.4399 232.596 72.4951 234.563 70.536 236.773C68.6361 238.918 68.6397 238.858 66.382 237.698C65.9051 236.402 64.5247 236.326 63.7442 235.478C63.3656 235.325 63.0461 235.107 62.6675 234.954C61.8169 234.353 61.0848 233.622 60.1749 233.086C59.3171 232.607 58.9774 233.663 58.4246 233.645C58.3885 234.253 57.785 235.087 58.7722 235.254C60.0658 236.79 62.0886 237.24 63.5636 238.52C64.0948 238.904 64.6295 239.226 65.1607 239.609C67.1596 241.394 67.1076 241.338 65.6203 243.996C64.6288 245.769 63.8527 247.646 63.1286 249.579C62.6039 250.952 62.1833 252.439 62.1558 253.834C62.0221 256.086 61.7808 258.285 62.1443 260.559C62.5382 263.255 63.1098 265.755 64.0189 268.169C65.1181 271.114 66.3323 273.989 68.2466 276.265C71.1981 279.734 74.2015 283.259 77.8048 286.011C79.235 287.113 80.254 288.61 81.6357 289.594C85.5801 292.199 89.0432 295.447 93.2282 297.73C96.4478 299.482 99.3566 301.803 102.702 303.303C106.047 304.803 109.511 306.172 113.163 307.164C116.489 308.059 119.914 308.22 123.394 308.377C125.669 308.324 127.898 308.092 130.216 307.308ZM122.526 306.202C119.265 306.089 115.951 305.92 112.789 305.072C109.356 304.124 106.055 302.803 102.817 301.355C99.6355 299.903 96.8272 297.757 93.771 296.053C89.8013 293.874 86.4979 290.735 82.7653 288.296C81.3799 287.372 80.4129 285.932 79.0904 284.883C75.6469 282.239 72.7959 278.945 70.0042 275.585C68.1939 273.422 66.9725 270.669 65.9774 267.837C65.1167 265.541 64.5378 263.162 64.1924 260.584C63.8773 258.427 64.115 256.288 64.2415 254.158C64.321 252.82 64.738 251.394 65.2034 250.086C65.8646 248.279 66.6371 246.463 67.5694 244.755L69.3869 242.132C69.7765 242.102 70.166 242.072 70.067 242.807C69.8979 243.789 69.6175 244.78 69.3371 245.771C68.7929 246.539 68.631 247.4 68.6361 248.248C68.6252 248.43 68.6108 248.674 68.6 248.856C68.4186 249.112 68.0738 249.321 68.0001 249.629C67.912 250.181 67.9315 250.785 67.899 251.333C67.0607 251.458 67.4104 252.098 67.2702 252.593C67.2594 252.776 67.2449 253.019 67.2341 253.202C66.2072 253.705 66.557 254.344 66.8511 254.988C66.9031 255.044 67.289 255.075 67.2926 255.015C67.4813 254.637 67.6178 254.202 67.7544 253.767C67.7653 253.585 67.7797 253.341 67.7906 253.159C68.6289 253.034 68.2791 252.394 68.4193 251.899C68.6477 250.852 68.9281 249.861 69.1564 248.813C69.3378 248.557 69.6825 248.349 69.7562 248.04C69.8444 247.488 69.8249 246.884 69.8574 246.336C70.028 246.263 70.2542 246.185 70.3134 246.12C70.7015 245.181 71.0375 244.186 71.4256 243.248C72.1685 243.796 72.8558 244.349 73.5987 244.898C73.6507 244.955 73.7657 244.885 73.8769 244.877C74.033 245.046 74.2412 245.273 74.3973 245.442C74.5642 245.43 74.7868 245.413 74.9537 245.4C75.318 245.796 75.6302 246.135 75.9944 246.531C76.3731 246.684 76.6925 246.902 77.0712 247.055C77.4911 247.446 77.8589 247.782 78.2231 248.178C78.3792 248.347 78.4761 248.582 78.5765 248.756C78.5635 249.908 78.4392 251.069 77.8213 252.146C76.8371 253.797 76.3948 255.648 75.8448 257.447C75.834 257.63 75.8195 257.873 75.8087 258.056C75.6974 258.064 75.5305 258.077 75.5305 258.077C74.9465 259.515 74.0287 260.979 74.0013 262.375C73.9558 264.074 72.5032 265.216 72.5205 266.789C72.4432 267.159 72.4699 267.641 72.2329 267.902C71.933 268.288 71.8109 268.48 72.1823 268.754C72.342 268.863 72.5574 268.967 72.7171 269.076C72.7944 268.707 72.8717 268.338 72.9491 267.968C73.1196 267.894 73.4015 267.812 73.4087 267.69C74.0251 265.705 74.3706 263.618 75.4806 261.716C75.9099 261.016 75.9677 260.043 76.2372 259.234C76.2481 259.052 76.2625 258.808 76.2734 258.626C76.4511 258.43 76.7923 258.283 76.8587 258.096C77.3068 255.215 78.5158 252.577 79.5615 249.892C79.8918 249.927 80.3962 249.828 80.5523 249.998C81.1139 250.803 82.0454 250.974 82.7919 251.461C82.9408 251.753 83.0824 252.166 83.3498 252.327C84.5755 253.142 85.8012 253.956 87.0268 254.771C87.2545 255.602 88.0458 256.268 87.094 257.371C86.7941 257.757 86.8621 258.479 86.7739 259.031C85.9356 259.156 86.2854 259.795 86.1452 260.291C86.1199 260.717 86.0982 261.082 86.0729 261.508C85.8951 261.703 85.6581 261.964 85.4803 262.159C85.4695 262.342 85.455 262.585 85.4442 262.768C85.4333 262.95 85.4189 263.194 85.408 263.376C84.5697 263.501 84.9195 264.141 84.7793 264.636C84.7685 264.819 84.754 265.062 84.7432 265.245C84.5654 265.44 84.2243 265.588 84.1578 265.774C83.5862 267.939 82.8548 269.994 82.1199 272.11C82.0426 272.479 81.9652 272.849 81.8879 273.218C81.7513 273.653 81.6111 274.148 81.4189 274.587C81.4081 274.77 81.3936 275.013 81.3828 275.196C80.3038 275.642 81.0482 277.099 80.1289 277.655C80.2258 277.889 80.3154 278.246 80.4787 278.294C80.6977 278.338 81.1537 278.121 81.1609 277.999C81.33 277.017 82.1524 276.227 81.9356 275.214C83.011 274.828 82.3417 273.971 82.6005 273.345C83.7943 272.83 82.8613 271.75 83.4019 271.042C84.6016 269.496 84.6059 267.557 85.2599 265.872C85.2707 265.689 85.2852 265.446 85.296 265.263C86.1343 265.138 85.7846 264.498 85.9248 264.003C85.9356 263.821 85.9501 263.577 85.9609 263.395C86.1314 263.321 86.3576 263.243 86.4169 263.178C86.7081 262.004 86.9994 260.831 87.2906 259.658C88.1289 259.533 87.7791 258.893 87.9193 258.398C88.3688 256.425 88.7692 256.212 90.2175 257.01C91.0695 258.519 92.5915 259.008 93.932 259.753C94.0809 260.045 94.2225 260.458 94.4899 260.619C95.7156 261.434 96.9413 262.248 98.1669 263.063C97.6799 264.736 97.252 266.344 96.7649 268.017C96.7397 268.443 96.718 268.808 96.6927 269.234C96.5113 269.49 96.1666 269.698 96.0929 270.007C96.0047 270.559 96.0242 271.163 95.9917 271.711C95.6253 272.284 94.7357 275.139 94.6258 276.056C94.4553 276.13 94.1734 276.212 94.1662 276.334C93.6625 279.22 92.6132 281.966 91.8941 284.747C91.8833 284.93 91.8688 285.173 91.858 285.356C90.9279 286.094 91.1556 286.924 91.4389 287.751C91.4909 287.807 92.0473 287.765 92.1102 287.639C92.2952 287.321 92.2649 286.9 92.3422 286.53C92.353 286.348 92.3675 286.104 92.3783 285.922C92.5489 285.848 92.8307 285.766 92.838 285.644C93.3417 282.758 94.391 280.012 95.11 277.231C95.1353 276.805 95.157 276.44 95.1823 276.014C95.5487 275.44 96.4383 272.585 96.5482 271.668C96.7512 271.047 97.0099 270.421 97.213 269.8C97.2383 269.374 97.26 269.009 97.2853 268.583C97.4558 268.509 97.7377 268.427 97.7413 268.366C97.8584 267.327 98.25 266.328 98.5304 265.337C98.8145 264.285 98.899 263.794 99.8501 264.569C100.274 264.9 100.875 265.036 101.358 265.302C101.454 265.536 101.548 265.832 101.704 266.002C103.724 267.422 105.689 268.846 107.71 270.266C109.076 270.585 109.045 272.041 108.549 272.927C107.99 273.94 108.162 274.774 107.941 275.7C106.866 276.086 107.535 276.943 107.276 277.569C107.251 277.995 107.229 278.36 107.204 278.786C106.838 279.359 105.948 282.214 105.838 283.131C105.813 283.557 105.791 283.922 105.766 284.348C105.595 284.422 105.314 284.504 105.306 284.626C104.857 286.599 104.463 288.568 103.794 290.497C103.325 291.866 103.183 293.331 102.985 294.8C102.974 294.982 103.346 295.257 103.557 295.422C103.735 295.227 104.024 295.023 104.035 294.84C104.407 293.237 104.509 291.533 105.152 290.029C105.54 289.091 105.26 288.204 105.637 287.448C106.018 286.631 106.343 285.818 106.286 284.914C106.297 284.732 106.312 284.488 106.322 284.306C106.493 284.232 106.775 284.15 106.778 284.089C106.973 282.681 107.164 281.333 107.688 279.96C107.714 279.534 107.735 279.169 107.761 278.743C108.836 278.357 108.167 277.5 108.425 276.875C108.501 275.597 109.397 274.498 109.258 273.115C109.19 272.394 110.039 272.086 110.626 272.465C112.345 273.363 113.642 274.838 115.358 275.797C117.931 277.235 117.809 277.426 117.614 280.712C117.549 281.808 117.481 282.964 117.416 284.059C117.234 284.316 116.886 284.585 116.816 284.832C116.713 285.628 116.725 286.354 116.678 287.145C116.653 287.571 116.631 287.936 116.606 288.362C116.559 289.153 116.509 290.005 116.462 290.796C116.284 290.992 115.943 291.139 115.876 291.326C115.774 292.121 115.834 292.965 115.676 293.764C115.401 295.603 115.953 297.499 114.846 299.341C114.724 299.532 115.245 300.098 115.446 300.446C115.571 300.194 115.753 299.938 115.878 299.686C116.755 297.983 116.641 296.174 116.742 294.47C116.814 293.253 116.887 292.036 116.959 290.819C117.14 290.562 117.489 290.293 117.559 290.046C117.683 288.885 117.696 287.733 117.768 286.516C117.83 285.481 117.887 284.508 117.949 283.473C118.13 283.217 118.479 282.948 118.549 282.7C118.662 281.722 118.664 280.753 118.722 279.779C119.003 278.788 119.37 279.123 119.909 279.385C122.204 280.844 124.081 282.82 126.498 284.089C127.141 284.463 128.102 285.056 127.748 286.355C127.665 287.755 127.579 289.216 127.495 290.615C126.657 290.74 127.007 291.38 126.867 291.875C126.82 292.666 126.769 293.518 126.722 294.309C126.65 295.527 126.578 296.744 126.505 297.961C126.394 297.969 126.227 297.982 126.227 297.982C126.078 299.569 125.876 301.099 125.782 302.681C125.778 302.742 126.387 302.756 126.773 302.787C126.784 302.604 126.798 302.361 126.809 302.178C126.892 300.778 126.979 299.318 127.062 297.918C127.243 297.662 127.592 297.393 127.662 297.145C127.764 296.35 127.752 295.624 127.799 294.832C127.579 292.002 128.914 289.113 128.861 286.27C130.963 287.259 132.635 288.948 134.552 290.255C135.295 290.804 136.041 291.292 136.847 291.714C137.617 292.746 137.203 294.11 137.187 295.323C137.114 296.54 137.042 297.757 136.97 298.974C136.916 299.887 136.861 300.8 136.811 301.652C136.807 301.713 137.023 301.818 137.13 301.87C137.197 301.683 137.263 301.496 137.326 301.37C137.507 301.114 137.856 300.845 137.93 300.536C138.094 298.706 138.143 296.946 138.251 295.12C138.359 293.294 138.359 293.294 139.863 294.088C140.079 294.192 140.29 294.358 140.506 294.462C141.399 296.211 143.44 296.357 144.574 297.785C144.626 297.841 145.082 297.624 145.256 297.49C145.371 297.421 145.393 297.055 145.344 296.938C145.14 296.651 144.939 296.303 144.671 296.142C143.498 295.384 142.324 294.626 141.095 293.872C140.939 293.702 140.842 293.467 140.686 293.297C140.582 293.184 140.359 293.201 140.192 293.214C140.314 293.023 140.381 292.836 140.555 292.702C141.015 292.424 141.523 292.264 142.038 291.982C143.647 291.01 145.494 290.687 146.912 289.184C147.087 289.05 147.209 288.859 147.383 288.724C147.22 288.676 147.06 288.567 146.949 288.576C146.785 288.528 146.615 288.602 146.392 288.619C144.502 289.673 142.477 290.192 140.627 291.485C140.338 291.689 139.904 291.54 139.57 291.566C139.352 292.431 138.97 292.339 138.491 292.012C138.12 291.738 137.752 291.403 137.38 291.128C135.6 289.387 133.576 288.028 131.437 286.738C131.277 286.629 131.069 286.403 131.084 286.16C131.094 285.977 131.339 285.595 131.509 285.521C133.942 284.668 136.191 283.162 138.479 281.957C139.532 281.937 140.251 281.033 141.166 280.539C142.197 279.975 143.328 279.585 144.358 279.022C144.529 278.948 144.78 278.444 144.784 278.383C144.576 278.157 144.264 277.817 144.093 277.891C143.073 278.272 142.154 278.827 141.131 279.269C139.993 279.781 138.907 280.349 138.018 281.326C135.707 281.988 133.524 283.307 131.352 284.443C130.38 284.942 129.583 285.306 128.903 284.631C127.387 283.112 125.508 282.105 123.748 280.968C122.841 280.371 122.002 279.588 121.162 278.804C120.794 278.469 120.875 278.039 121.505 277.687C122.247 277.327 122.898 276.611 123.633 276.373C125.887 275.715 127.956 274.466 130.024 273.217C132.092 271.967 134.299 271.192 136.315 269.886C137.119 269.4 137.868 268.919 138.624 268.315C138.742 268.185 138.712 267.763 138.782 267.516C138.556 267.594 138.385 267.667 138.163 267.684C136.246 268.256 134.66 269.771 132.84 270.577C128.969 272.328 125.236 274.554 121.407 276.544C120.491 277.038 119.66 277.041 118.815 277.288C118.127 276.735 117.499 276.117 116.753 275.629C114.896 274.257 112.738 273.272 111.422 271.192C112.226 270.706 113.023 270.342 113.775 269.8C117.655 266.958 121.535 264.115 125.564 261.564C127.062 260.601 128.41 259.347 129.911 258.323C130.315 258.049 130.541 257.971 130.174 257.636C129.962 257.471 129.635 257.375 129.409 257.453C129.012 257.604 128.608 257.878 128.204 258.151C124.676 260.663 121.197 263.293 117.616 265.749C115.359 267.376 113.006 268.769 110.846 270.631C109.725 270.838 109.063 269.859 108.136 269.627C108.039 269.392 107.946 269.097 107.789 268.927C105.769 267.507 103.804 266.083 101.783 264.663C100.628 263.601 100.624 263.662 101.673 262.794C104.063 260.793 106.504 258.848 108.894 256.847C109.347 256.691 109.934 257.07 110.043 256.153C111.53 255.373 112.76 254.248 114.042 253.181C115.328 252.052 116.922 251.324 118.159 250.078C118.559 249.865 118.96 249.653 119.364 249.379C119.597 249.18 119.73 248.806 119.912 248.55C119.641 248.45 119.321 248.232 119.043 248.253C118.267 248.252 117.901 248.825 117.635 249.573C117.468 249.586 117.249 249.542 117.079 249.616C114.644 251.438 112.154 253.265 109.715 255.149C109.6 255.218 109.586 255.461 109.519 255.648C109.119 255.861 108.771 256.13 108.37 256.342C105.702 258.365 102.979 260.391 100.31 262.414C99.9064 262.687 99.0717 262.751 98.5854 262.546C97.1552 261.444 95.7806 260.338 94.3505 259.237C93.132 258.3 91.8543 257.429 90.6359 256.493C90.4892 255.232 91.4713 254.551 92.168 254.013C94.4321 252.264 96.6478 250.397 98.8599 248.592C99.7488 247.615 101.151 247.325 101.787 245.944C103.643 244.529 105.552 243.171 107.412 241.695C107.531 241.565 107.615 241.074 107.57 240.895C107.47 240.721 107.036 240.573 106.917 240.703C104.953 242.066 103.037 243.546 101.322 245.374C100.177 246.007 98.9792 246.583 98.3953 248.022C98.117 248.043 97.7904 247.947 97.6162 248.081C95.6303 249.809 93.7 251.532 91.7661 253.317C90.4176 254.571 89.0424 255.343 87.4973 254.311C87.3484 254.019 87.2068 253.606 86.9394 253.445C85.7137 252.63 84.488 251.816 83.2624 251.001C83.1619 250.827 83.0723 250.471 82.8533 250.427C81.9775 250.252 81.5092 249.743 81.7375 248.695C82.4971 248.031 83.3122 247.363 84.0718 246.699C86.8064 244.489 89.489 242.224 92.2236 240.015C92.4013 239.819 92.6384 239.559 92.8162 239.363C93.8648 238.495 94.9134 237.627 95.962 236.759C96.1361 236.624 96.2583 236.433 96.3211 236.307C96.3876 236.121 96.4057 235.816 96.298 235.764C96.0863 235.598 95.7076 235.446 95.5891 235.576C94.474 236.631 93.3553 237.747 92.2922 238.858C92.1253 238.871 91.9027 238.888 91.7358 238.901C91.558 239.096 91.3209 239.357 91.1432 239.552C89.2165 241.215 87.2935 242.816 85.3668 244.479C84.7258 245.013 83.7798 245.085 83.5478 246.194C82.7883 246.858 81.5677 246.891 81.2136 248.19C79.5261 248.623 78.604 247.361 77.4267 246.664C77.0481 246.511 76.7286 246.293 76.3499 246.141C75.9857 245.745 75.6735 245.405 75.3093 245.009C74.9306 244.856 74.6112 244.639 74.2325 244.486C74.0764 244.316 73.8683 244.09 73.7122 243.92C73.3964 243.641 73.0213 243.428 72.7055 243.149C72.9461 242.828 73.1868 242.507 73.4238 242.246C74.2983 241.512 75.2247 240.835 76.1548 240.098C78.1263 238.614 80.0977 237.129 82.0728 235.584C82.3062 235.385 82.7695 235.046 82.2903 234.72C82.0786 234.554 81.6999 234.401 81.5257 234.536C80.3102 235.417 79.039 236.302 77.9239 237.357C77.1608 238.082 75.9366 238.176 75.6381 239.471C74.4818 240.287 73.2735 241.046 72.1692 241.918C71.6467 242.322 71.3721 242.282 71.0043 241.947C70.7441 241.664 70.369 241.451 70.0532 241.172L72.115 238.167C73.9557 236.087 75.8412 234.185 78.2954 232.967C80.4049 231.957 82.4587 230.951 84.6253 230.845C85.8495 230.751 87.133 230.592 88.3536 230.558C89.4037 230.599 90.5455 230.027 91.6114 230.732C92.41 231.277 93.8662 230.074 94.7435 231.158C98.1828 231.076 101.146 232.484 104.242 233.518C107.341 234.492 110.182 236.091 113.03 237.568C117.493 239.83 121.705 242.596 125.732 245.68C128.221 247.609 130.41 249.924 132.777 252.045C135.248 254.278 137.363 256.902 139.422 259.531C142.519 263.352 144.801 267.841 146.107 272.89C146.559 274.612 146.781 276.473 147.062 278.269C147.182 279.047 147.413 279.817 147.422 280.604C147.483 281.447 147.15 282.381 147.322 283.216C148.112 287.638 147.003 292.328 147.01 296.871C147.011 297.779 146.952 297.844 145.918 298.469C142.697 300.473 138.026 302.649 134.636 303.758C132.715 304.39 130.809 304.779 128.944 305.407C126.745 306.06 124.626 306.283 122.526 306.202Z" fill="#DCBF6F"/>
</svg>
