<svg xmlns="http://www.w3.org/2000/svg" width="312" height="369" fill="none"><path fill="#0A483A" d="m275 116 4-13c2-8 3-20 3-29l-1-3c-9-3-16-9-25-10l-5-2h-5l-11-2c-11 0-22 2-33 6l-22 10-20 12c-11 7-21 14-31 23l-18 17c-5 6-12 12-15 19-3 2-3 6-5 7-3 2-3 5-4 7l-4 9a48 48 0 0 0-2 32c2 6 2 6-3 10l-7 4-2 2-6 4c-2 1 0 3-1 4 1 0 2 2 3 0 5-2 8-6 12-8l3-3c6-3 6-3 9 2l7 9c2 2 4 4 6 4l12 5h16c6 0 13-1 19-4 10-4 19-8 28-14 4-2 8-3 11-6l28-19 20-17 19-19c6-7 10-14 14-21 3-5 5-10 6-16Zm-11 16a139 139 0 0 1-31 39l-20 16c-8 7-17 12-26 18-3 3-7 4-10 6-9 6-18 10-27 13-6 3-12 4-18 4l-15-1c-5 0-8-2-12-4l-6-4-7-9-2-5c0-1 0-2 2-1l4 3a828 828 0 0 0 5 3v3l3 1c0 2 1 1 2 2h1c0 3 1 2 3 2v-1l-1-1-2-1c1-2 0-1-1-2l-5-3v-2l-3-1v-2l-4-4 5-3 1-1 1-1 1-1 3-1 2-2 4-2h1c2 0 4 1 5 3l7 8h1v1c2 2 3 5 6 6s3 5 6 6l2 1h2l-1-2v-1l-9-8-3-3h-1v-2c-5-3-8-7-12-11l1-2 6-4h2l8-7c2 0 4-1 5 2l3 2c-1 1 0 1 1 2l2 1 1 1 1 1h1c-1 2 1 2 1 2l1 1 1 1 9 9 1 1 2 2h1c0 3 3 2 3 4h2v-2c-2-1-2-3-4-3 0-3-2-2-3-3 1-3-2-1-3-3-1-3-5-5-7-7h-1c1-2-1-2-2-3h-1l1-1-6-4c1-2-1-2-1-2-3-2-3-3 0-6 4-1 6-4 9-6l2-1 9-6 7 6 2 1 1 2 3 1 6 6v1l12 10h1c0 3 2 3 4 2v-1l-1-1-1-1v-1l-13-10-2-1-6-5-2-3-2-1v-1l-5-3c-1-2-2-2 0-4l3-2 2-1 14-10c3-2 5-1 6 0l4 3c0 3 2 2 3 3l2 1 6 5 2 1v1l9 7 7 4h1v-2l-7-5c-2-2-4-1-4-3l-4-3h-1v-1l-6-5-2-1c0-2-2-1-3-2-2-1-3-4-6-4-1-1-1-3 1-4l11-8c5-4 6-4 11-1l6 2 1 2 4 2 2 1 4 1v2l4 2c3 2 7 2 9 5h3l-1-2c-2-3-5-4-8-5l-7-3v-1l-6-3-5-2-1-2-5-2c-2-1-1-2 1-3l15-11c2-1 4-3 6-1l7 3c-1 2 1 1 2 2l4 2 6 3 8 4 1-2h-1l-7-4-1-1-4-2c-5-1-9-6-14-8l14-9 5-4c2-1 4 1 7 1l6 3 4 2 1-1h-1v-2l-10-4c-3-1-3-1 0-4l2-1c4-1 7-5 10-7l1-1-1-1-2 1-9 6-1 1-1 1v-5c0-4 2-8 1-12l-1-1-1 2c0 4-2 9-1 14l-1 2c1 1 0 2-1 3l-3 1-14 10-2 1v-2l1-17 1-6 1-8-1-1-2 1v15c-2 5-2 11-2 16-1 2-1 4-3 5l-12 9-7 4c-1 1-2 0-2-1v-6c2-5 2-10 2-15l1-16v-5l-1-1v1c-2 5-1 9-1 13l-3 28-1 6-6 3c-4 3-9 7-14 9v-6l-1-30-1-11v-1l-2 1v3l2 27 1 18-5 5h-2l-14 10c-4 2-3 2-4-1l-2-19v-2l-1-11-1-10 1-3-1-2-2 2c-1 1 0 2 1 3l-1 2 2 19v3l2 21-2 4-10 7-10 6c-2-1-2-3-2-5l-2-17c-1-3 0-6-2-8l-1-15-1-1-1 2 2 14c0 3-1 6 1 8l-1 2 3 16c1 3 1 7-3 9l-2 1-9 6-1 1c-2 1-3 2-5 1v-6l-3-22a1034 1034 0 0 1-2-1l-1 2 1 1 2 16c0 1-1 3 1 4 0 3-1 5 1 7-1 4-4 5-7 7l-2 2-3 1-3 2-1 1-3 2v-3l-1-7-1-15c-1-1-1-2-2-1l-1 2 1 9c0 2-1 5 1 6v9c1 1 0 2-1 2l-2 2-3-6c-2-5-3-11-2-17 0-5 1-10 3-14l4-8c1-3 1-5 4-7 2-1 1-5 4-7 4-7 10-12 15-18l17-16c9-8 19-16 29-22l20-11 20-10c11-4 21-6 32-5l10 1 5 1 5 1c8 1 15 7 23 9 2 1 2 1 2 4 0 8-1 19-3 27l-4 13c-1 5-3 10-6 14Z"/><path fill="#DCBF6F" d="m130 307 6-1 12-6 1-2 1-14v-3l-1-2-1-6c-1-5-4-10-7-14l-7-8-7-6c-4-4-9-6-13-9l-10-4c-3-1-6-3-10-3H84l-7 2-6 6c-2 2-2 2-5 1 0-2-1-2-2-3h-1l-3-2-2 1 1 1 5 4 1 1c2 1 2 1 1 4l-3 6-1 4v7a36 36 0 0 0 6 15l10 10 4 4 11 8 10 5 10 4 10 1 7-1Zm-7-1a43 43 0 0 1-20-5l-9-5-11-8-4-3-9-9-4-8-2-7v-7l1-4 3-5 1-3 1 1-1 3v3l-1 1v1l-1 2v2l1-1v-2l1-3 1-1v-2l1-3 3 2h1l1 2h1l1 1 1 1-1 3-2 5v1l-2 4-1 5-1 1v1h1v-1l2-6 1-3 1-1c0-3 2-5 3-8h1l2 1v1l4 3v4l-1 1v2h-1v3l-1 1-2 6v1l-1 2-1 3h1l1-3 1-2v-2c2-2 2-3 2-5v-1l1-1v-1l1-3 1-2c0-2 1-2 2-1l4 3v1l4 2-1 5v1l-1 1v2l-1 4h-1l-2 9-1 3h1v-2h1l2-9v-1l2-4v-3l1-1 1-3h2l1 1 6 4 1 3-1 3-1 2v1l-1 4v1l-1 1-1 5-1 5h1l1-5 1-3v-3h1l1-4v-3l1-4 2-1 4 4c3 1 3 1 3 5l-1 3v4l-1 3v3l-1 5v1h1l1-6v-3l1-1v-7h1v-3l1-1 6 5 2 2-1 5v7h-1v5h1v-5l1-1v-2l1-9 6 4 2 2v10-1h1v-6c0-2 0-2 2-1h1c0 2 2 2 4 4v-2l-4-2v-1h-1 1l1-1 5-3h-1l-5 2-1 1h-2l-1-1c-1-2-3-3-6-4v-1h1l6-4 3-1 3-2 1-1h-1l-3 1-3 2-7 3-2 1-5-4-3-2 1-1 2-2 6-3 6-3 3-2h-1c-2 0-3 2-5 3l-12 6h-2l-2-1-6-5 3-1 12-8 4-4s1 0 0 0l-1-1-1 1-10 8-7 5-3-1v-1l-6-4v-2l7-6 1-1 4-3 4-3 1-1h1l-1-1-1 2h-1l-7 5v1h-2l-8 6-1 1-5-4-3-3c-1-1 0-1 1-2l7-5 3-3 5-4 1-1h-1l-6 4-3 3-6 5c-2 2-3 2-5 1v-1l-4-2v-1l-1-1 2-2 8-7 1-1a255593900554963 255593900554963 0 0 0-1 0l-1 1-6 4-1 2-3 2c-1 1-2-1-4-1l-1-1-1-1-1-1-1-1v-1l3-2 6-4v-1s0-1 0 0l-4 2-2 2-4 3h-1l-1-1 2-3 6-5 7-2h10l9 3c3 0 6 2 9 4l13 8 7 6 6 8c4 3 6 8 7 13l1 5v19l-1 1-11 6-6 1-6 1Z"/></svg>