<svg xmlns="http://www.w3.org/2000/svg" xml:space="preserve" id="Layer_1" x="0" y="0" style="enable-background:new 0 0 506 279" version="1.1" viewBox="0 0 506 279"><style>.st0{fill:#07483b}</style><path d="M1985.8 14780v-8.5h-21.4c-55.9 0-157.6-17-208.5-34.8l-9.7-3.4 7.5-1.7c5.4-1.2 13.9.5 29.9 5.8 12.2 3.9 27.5 7.3 33.8 7.3 6.3 0 20.2 2.2 31.1 4.9 44.8 10.7 94.1 15.3 102.9 10 4.9-3.2-2.4-4.6-30.2-5.8-13.4-.7-41.4-5.6-72-12.4a781.3 781.3 0 0 0-56.7-11.2c-3.6 0-9.2-1.7-12.6-3.9a60.2 60.2 0 0 0-23.6-5.4c-17-1-24.8-3.9-22.4-7.8 1.9-3.4-1.2-4.4-33.3-10.7a197.8 197.8 0 0 1-38.7-10.9 83.8 83.8 0 0 0-21.6-7.5c-38.2-7.8-54.2-12.6-64-19.7-8.5-6.1-11.7-7.3-19-6.1-6.8 1-9.7.2-13.1-3.4s-5.4-4.1-8.8-2.2c-7.3 3.9-1.7 10.7 12.9 16.5l12.9 4.9H1551c-13.4.2-34.8-7.8-42.3-15.8l-5.8-6.3 8.5 1.5 8.5 1.7-12.2-11.7c-13.4-12.6-41.8-28.5-48.6-27-3.6.7-3.6 1.5 1.2 7.5a66.7 66.7 0 0 0 16.8 12.6 52 52 0 0 1 14.8 10c3.4 3.6 2.9 3.9-4.9 2.9a73.7 73.7 0 0 1-13.1-3.2c-11.2-4.9 0 4.1 16.1 13.1 20.4 11.4 18.5 15.1-2.7 5.1-8.5-4.1-15.8-7.3-16.3-7.3-.7 0-.5 10.7.5 23.8 1.5 20.2 1 25.3-2.7 32.8-10.5 22.4-66.4 47.9-73.9 33.8-1.2-2.4-11.7-34.8-23.1-72.2a2206 2206 0 0 0-23.1-73c-1.2-2.9-15.1-11.9-32.8-21.6-27.5-14.8-30.4-17-28.2-21.2 2.2-3.9 1.5-5.8-3.9-10.7-5.6-5.1-9-6.1-22.6-6.1-14.1 0-18.2-1.2-33.1-9.5-28.7-16.1-36.5-28.9-10.5-17.3 9 3.9 12.4 4.4 20.2 2.2 8-2.2 10.9-1.9 17.5 1.5 4.4 2.4 8 5.4 8 6.8 0 1.2-1.5 1-3.4-.5-1.9-1.7-6.6-2.7-10.5-2.2-6.6.7-6.6 1 3.9 6.6 6.8 3.4 11.2 4.6 12.2 2.9 1-1.5 7.3-.5 18 3.4 21.2 7.8 28.5 11.7 34.3 18 2.7 2.9 7.3 5.1 10.5 5.1 12.4 0 4.4-7.3-22.4-20.4-26.5-13.1-28-14.4-30.4-23.4a41 41 0 0 0-13.9-19.2c-10-9-11.9-9.7-20.4-8.5-10 1.7-12.2-.2-5.6-5.1 3.4-2.4 2.2-3.9-10-10.7-13.6-7.8-14.6-7.8-23.8-4.9-9 2.9-10 2.9-14.1-2.4-6.1-7.5-5.8-10.7 1-8.5 4.9 1.5 4.6 1-1.9-6.3a43 43 0 0 0-29.2-14.6c-4.4 0-6.1-1.2-6.1-4.6 0-3.6-7.1-8.8-27.2-19.7a524.1 524.1 0 0 1-42.3-25.8 131 131 0 0 0-26.5-14.8c-9.5-3.2-12.2-5.6-16.5-14.4a38 38 0 0 0-17.5-17.8 278.3 278.3 0 0 1-31.4-23.1c-20.4-17-102.4-77.1-126.7-92.9-8-5.1-20.2-15.1-27.2-22.1-13.1-13.4-16.3-15.3-14.8-9.2 1.2 6.3 59.8 58.6 73.5 65.9a40.6 40.6 0 0 1 17.5 15.1 29 29 0 0 0 15.6 13.1c7.1 2.9 20.2 13.6 37.7 30.9 32.8 32.4 63.5 58.6 68.1 58.6 5.4 0 17.8 11.7 24.3 23.1 6.8 11.7 31.9 29.9 35.8 26 1.5-1.5-1.2-4.4-7.1-7.8-5.1-3.2-7.8-6.1-6.1-6.6 5.4-1.9 18.5 7.5 22.9 16.3 5.8 12.4 11.4 17.3 18 15.6a17 17 0 0 1 10.2 1.2c6.3 3.4 40.4 43.8 38.4 45.7-.7.7-7.8-4.6-15.6-11.9-12.4-11.9-16.8-14.4-35.8-20.2-18.2-5.4-23.6-8.3-32.4-17a318.7 318.7 0 0 0-37.7-28.2 712.2 712.2 0 0 1-95.4-73 903 903 0 0 0-43.8-37.9c-31.9-25.5-122.6-115.8-141.3-140.6-19.2-25.1-37.5-43.1-37.5-36.5 0 1.9 45.2 59.8 58.9 75.7 7.1 8.3 37.7 39.2 68.4 69.1a1042 1042 0 0 1 54.2 55.2c-.7.7-4.9 0-9.2-1.5-5.6-1.9-29.9-24.1-76.9-70.3-37.7-37.5-68.6-69.1-68.6-70.5 0-1.5-6.8-11.2-15.3-21.6a843.2 843.2 0 0 1-72.7-102.2c-11.9-21.4-15.1-28.9-16.1-40.1-.5-7.8-.5-16.8.5-19.9 3.9-15.8 31.1-36 70.8-52.5 27.7-11.4 36-12.2 41.6-3.6 1.9 3.2 3.2 6.8 2.4 8-.7 1.2-11.2 8-23.4 15.1a146.6 146.6 0 0 0-21.9 14.8c0 1 2.2 2.4 4.6 3.4 8.8 2.7 23.6 21.9 30.4 38.9 3.6 9.7 17.8 33.8 32.6 55.9 25.3 37.7 27.7 40.4 83.2 93.7 78.3 74.7 107.3 100.9 148.4 134 73 58.1 118.9 91 214.1 151.8 57.7 37 77.8 48.4 80.5 45.7 1.2-1.2-1-10.2-5.1-20.9-8-21.2-68.4-201.2-80.3-240.1a901.6 901.6 0 0 0-19.5-54.7c-6.6-16.1-26.3-73.5-43.8-127.7a7128 7128 0 0 0-37.9-113.4c-3.2-8-5.8-17.3-5.8-20.7 0-13.1-2.9-16.8-22.9-28.7-21.9-13.1-87.6-46.5-91.7-46.5-1.2 0 7.1 13.6 18.5 30.6 13.1 18.7 20.4 31.9 19.7 34.1-1 2.4 3.9 9.7 13.1 20.2a96 96 0 0 1 14.6 19c0 1.5-1.7 4.1-3.9 5.8-3.6 2.9-3.4 3.6 2.7 6.1 3.6 1.5 5.6 3.4 4.4 4.1-1.5 1-6.8-1.5-12.2-5.1l-31.1-20.9c-42.3-28.5-100.9-78.6-100.9-86.1 0-1.9-1.9-5.8-4.1-8.5-3.4-3.6-4.1-8-3.6-20.7.7-13.9 1.7-17 6.8-21.2 3.9-3.4 5.8-7.5 5.8-12.6 0-10.7 17.8-26.3 36.2-31.4 16.3-4.9 26.5-2.9 59.6 10.9 32.1 13.9 50.4 20.4 51.8 19 .7-.7-.5-6.6-2.7-13.1-1.9-6.3-8.3-30.2-13.6-53-5.4-22.6-13.9-57.6-19.2-77.8-5.1-19.9-12.4-56.2-16.3-80.3a422.6 422.6 0 0 1-6.8-91.2c.2-72.2 4.9-93.4 23.4-111.2a137 137 0 0 1 47.2-24.1l7.8-1.5 1 39.6c1 32.6 2.2 42.6 6.6 54.2 2.7 8 4.6 14.8 4.1 15.3-.5.7-4.4-.7-8.5-2.9-4.1-1.9-7.5-3.4-7.5-2.9 0 7.5 13.1 110.4 16.8 131.8 6.3 35.5 6.8 37 13.6 46.2 4.6 6.3 5.6 11.2 6.6 32.8 1 23.4 1.9 27.2 10 43.8a83 83 0 0 1 9 25.8c0 4.1 2.7 12.4 5.6 18.2a81.8 81.8 0 0 1 7.3 21.9 79 79 0 0 0 7.5 21.9 43.1 43.1 0 0 1 6.3 21.4c0 13.4 8.5 40.1 16.1 50.4 6.1 8.3 28.5 20.7 56.7 31.6 13.1 5.1 19.2 8.8 21.9 13.6 3.2 5.4 8 8.3 23.8 13.4 16.3 5.4 20.4 7.8 22.6 13.1 3.6 8.5 23.6 18 34.1 16.1a20 20 0 0 1 11.7.7c28.5 15.8 83.4 47.9 88.5 51.6 3.9 2.7 17.3 9.7 30.2 15.6a412.5 412.5 0 0 1 35.8 19c7.1 4.6 24.8 14.8 39.6 23.4a289 289 0 0 1 39.6 26c7.5 6.6 20.9 14.6 34.3 20.2a304 304 0 0 1 34.8 17.3 284 284 0 0 0 28.7 14.4c8.8 3.4 24.6 13.1 35.3 21.2a823.6 823.6 0 0 0 60.6 40.4c22.9 14.1 52.5 33.1 66.4 42.3 13.9 9 36.2 23.4 50.1 31.6a144.9 144.9 0 0 1 31.9 24.1 166 166 0 0 0 31.1 24.8 206 206 0 0 1 34.1 26.3c5.1 5.6 14.4 12.6 20.2 15.3s12.9 8.5 16.1 12.4a97 97 0 0 0 20.7 17.3c16.1 10 18 12.9 11.2 15.3-3.6 1.5-3.6 1.9 0 5.6 3.2 3.2 4.6 3.4 7.5.7 5.1-4.1 10.2.2 15.3 12.9a21 21 0 0 0 11.9 12.9c5.6 2.4 7.8 4.6 6.8 7.1-1 2.2 3.4 9.2 10.9 18a325 325 0 0 1 44.5 70.3c4.4 11.4 5.4 19 5.6 41.8.2 15.3 1.2 31.9 2.2 37 1.7 7.8 1.2 9.5-4.4 14.4-4.6 3.9-5.6 6.1-3.4 7.3 1.7 1.2 3.6 1 4.4-.2.7-1.2 2.9-1.2 4.9 0 3.2 1.9 2.9 2.4-.5 2.4-2.9 0-4.4 1.9-4.4 5.6 0 10-13.9 34.3-29.4 51.6-13.6 15.3-14.6 17-10 17.8 2.9.5 5.4 1.7 5.4 2.9 0 1-6.1 7.5-13.6 14.6-9.7 8.8-24.6 17.8-50.1 30.4-36.2 18-36.5 18-51.8 16.5-19.7-1.7-30.6.5-38.7 7.8a32.8 32.8 0 0 1-7.8 6.1c-.9-.1-1.4-4-1.4-8.6zm73.7-48.5c33.8-10 59.6-22.9 64.5-31.6 5.4-10.5 5.4-46.7-.5-65.7-8.8-29.7-37.9-79.3-70.1-119.7a294.8 294.8 0 0 0-56.7-56.7c-11.9-10-29.4-25.3-38.9-34.3-9.2-9-29.7-27-45-40.4-15.3-13.1-29.4-26.8-31.1-30.4a29.4 29.4 0 0 0-12.2-10.7c-29.9-13.6-42.3-22.1-49.4-33.8a38.8 38.8 0 0 1-4.6-9.5c0-1 22.9 13.9 51.1 32.8 47.7 32.4 62.5 39.9 48.4 24.8a437.8 437.8 0 0 0-32.6-27.2 1194 1194 0 0 1-35.8-28.9c-5.1-4.4-17-11.9-26.8-16.8a239.4 239.4 0 0 1-33.3-21.6 913.4 913.4 0 0 0-63.5-41.4c-26-15.8-63.7-39.2-83.9-52.1a1446 1446 0 0 0-122.4-71.3 696 696 0 0 1-38.2-21.4c-5.4-3.4-16.3-8.8-24.3-11.9-8-2.9-16.1-6.8-18.2-8.8a172 172 0 0 0-18.2-11.7c-8-4.6-24.3-14.4-36.5-22.1-11.9-7.5-52.1-28.9-89-47.7l-67.1-33.8-2.7 6.1c-1.5 3.2-2.2 7.5-1.2 9.7.7 2.2 18.5 12.4 39.4 22.6 20.9 10.5 46.7 23.8 57.4 29.9 10.7 6.1 51.8 28.9 91.2 50.6 39.4 21.9 89.3 49.6 110.7 62 21.4 12.4 46 26 54.7 30.4 8.8 4.4 27.2 15.3 41.4 24.3 14.1 9 45.2 28.2 69.3 42.6 24.1 14.4 55.7 34.1 70.5 43.5 25.3 16.5 26.3 17.3 18.7 18-9.5 1-55.5-23.6-103.6-55.2-57.7-38.2-80-52.1-117-71.5-19.9-10.7-65.9-37-102.2-58.9-71.8-43.1-132.1-75.4-145.5-77.8-5.4-1-10.2-4.1-12.6-7.8-2.4-3.6-15.3-11.4-33.6-20.4a416.3 416.3 0 0 0-31.6-14.4c-1 0 0 2.7 2.2 6.1 1.9 3.2 3.2 7.1 2.2 8.3-1.9 3.4 6.6 22.4 11.9 26.8a7.7 7.7 0 0 1 2.7 7.8c-1 2.7 1.9 11.7 7.3 22.1 5.1 10.7 9.2 23.1 10 31.1.7 7.3 3.4 16.1 5.6 19.5a41 41 0 0 1 5.8 14.6c1 4.6 9.2 27.7 18.7 51.1 9.2 23.4 21.4 57.4 26.8 75.4 5.4 18 11.9 35.8 14.4 39.2 2.9 3.9 3.9 7.5 2.7 9.5-1.2 1.9-.7 6.1 1.5 10 1.9 3.9 3.4 8.5 3.4 10.5 0 2.2 6.6 20.4 14.6 40.6 8 20.2 19 50.4 24.1 67.4 17.3 56.9 58.1 161 66.4 170 2.9 2.9 17.3 10.5 32.1 16.8l50.1 20.9a605.5 605.5 0 0 0 37.5 14.6c7.8 2.7 18.2 7.3 23.1 10.5 11.2 7.5 137.9 48.6 165.7 53.8 11.4 2.2 42.6 9.2 69.3 15.6 62 15.1 70.5 16.5 111.9 20.7 50.5 4.8 94.3 3.1 121-4.7zm35.3-213.8c-7.5-13.1-11.7-17-11.7-11.4 0 4.4 17.8 30.6 18.7 27.7.6-1.4-2.6-8.7-7-16.3zm-14.1-27.9c0-3.4-30.6-32.4-32.4-30.4-1 1 5.1 8.5 13.4 17 14.4 14.6 19 17.7 19 13.4zm-51.1-50.6c0-.7-5.1-7.5-11.2-15.1-12.4-15.1-23.6-23.6-28-21.2-1.7 1.2 4.6 8.5 16.3 19.7 17.8 16.6 22.9 20.2 22.9 16.6zm-82.7-115.3c-13.1-11.9-16.5-13.4-13.9-6.1 1.5 3.4 22.6 18.5 25.8 18.2 1-.2-4.6-5.6-11.9-12.1zm-143.5-83c-23.4-21.4-46.5-35-46.2-27 .2 1 9.5 8 20.7 16.1a259.8 259.8 0 0 1 24.6 18.7c2.2 2.4 6.6 4.6 9.2 4.6 4.1-.2 2.4-2.4-8.3-12.4zm36.5 5.8c0-1.9-79.1-52.3-81.2-52.1-4.4.7 1.2 4.9 37.5 28 39.3 25.4 43.7 27.8 43.7 24.1zm-596.2-76.3c-4.1-11.2-8-20.9-8.8-21.6-.7-.7-.7 3.9-.2 10.2 1.2 10.2 13.1 35.5 15.6 33.1.4-.8-2.5-10.3-6.6-21.7zm462.4-6.4c0-2.9-17.3-13.4-19-11.7-1 1 0 2.4 1.9 3.6l8.5 5.8c5.4 4.3 8.6 5 8.6 2.3zm-479.2-34c-1-5.1-5.8-19.5-10.7-32.1-8.3-21.2-8.5-23.4-5.1-28.5 4.9-7.5 4.6-8.3-1.9-8.3-8 0-11.4-4.6-11.4-15.1 0-5.1-5.6-24.6-12.4-43.3-12.6-34.1-17.5-44-20.4-40.9-2.2 1.9 59.6 179.8 62 178.3.9-.6.9-5.2-.1-10.1zm189.7-112.4c-.2-2.2-10.7-9.5-14.8-10-12.6-1.9-12.9 5.4-.5 10.5 8.5 3.4 15.3 3.2 15.3-.5zm-232-66.6c-3.2-7.5-8.8-14.1-8.8-10 0 .7 1.9 6.8 4.1 13.4 3.2 8.3 4.9 10.7 6.3 8.3 1.1-2 .3-7.1-1.6-11.7zm118.2 7.5c-5.8-2.7-12.4-4.1-14.6-3.2-7.1 2.7 3.6 8.5 15.1 8.3l10-.2-10.5-4.9zm-142.1-21.9c-2.4-6.8-8.5-13.1-10.5-11.2-.7.7.2 4.9 1.9 9.5 1.9 4.6 4.1 10.5 5.4 13.1l1.7 4.9 1.9-4.9c1.1-2.6.9-7.7-.4-11.4zm12.2-19.5a19.8 19.8 0 0 0-10-7.1c-10.5-2.9-9.7 1 1.2 6.8 13.2 6.9 13.2 6.9 8.8.3zm-62.3-36.4c-2.2-9-18.2-22.4-35.8-29.7-9.5-4.1-29.2-13.1-44-20.2-26.8-12.6-37.5-15.6-37.5-10.2s16.3 18.2 27 21.4c5.8 1.7 28.2 12.4 49.6 23.6a691.6 691.6 0 0 0 40.6 20.4c.9 0 1.1-2.4.1-5.3zm30.4-66.9c-9.5-34.1-15.3-49.1-19.5-50.4-2.9-.7-4.1 0-3.4 1.7l9.2 28c5.1 15.8 9.2 24.8 11.4 24.8 2.3 0 3.1-1.7 2.3-4.1zm-22.1-4.4c-.7-1.9-7.3-26.3-14.6-54-29.7-111.4-44.3-192.2-50.1-276.8-2.4-33.3-4.6-43.5-8.8-39.4-3.2 2.9-3.9 62-1.2 83.2a1168 1168 0 0 0 36.7 180c6.6 22.9 15.3 55 19.5 71.8 7.3 28.5 12.2 38.9 17.8 38.9 1.2-.1 1.7-1.8.7-3.7zm-12.6-112.4c-4.4-14.6-5.8-15.8-5.8-4.9 0 10.7 1.9 16.3 6.1 16.3 2.6 0 2.3-2.2-.3-11.4zm17.5 4.9-5.1-18.2c-2.2-7.8-4.9-14.1-6.1-14.1-1.7 0 3.6 20.9 8.3 33.3 1.9 4.6 4.3 3.8 2.9-1z" class="st0" transform="matrix(.1 0 0 -.1 0 1491)"/><path d="M1823.6 14779.5c-7.1-.7-10.5-2.2-10.5-4.6 0-1.9 1.2-3.4 2.7-3.4 5.6 0 21.6 5.6 21.6 7.8 0 1-.7 1.7-1.7 1.5-1.2-.4-6.5-.8-12.1-1.3zM1683 14727.2c-18.7-6.8-34.5-12.9-35-13.1-4.6-3.9 7.3-1.5 44.3 9.2 26.8 7.8 42.1 13.4 40.1 14.6-5.9 3.6-15.3 1.7-49.4-10.7zM1621 14724.5c-19.9-5.1-37.9-13.9-32.6-15.6 1.5-.5 14.4 3.6 29.2 9.2 36.7 13.9 37.4 14.9 3.4 6.4zM1619.8 14707.9c-2.7-1.2-14.4-5.6-26-9.7-11.9-4.1-21.4-8.5-21.4-9.5 0-2.9 26 3.6 44.8 11.2 8.8 3.4 16.1 7.3 16.1 8.5-.2 2.7-7.2 2.5-13.5-.5zM1534.1 14692.4a47.3 47.3 0 0 1-12.9-7.1c0-1.2 10.5 2.4 34.1 11.4 2.2.7 1.5 1.5-2.4 1.5-3.4 0-12-2.4-18.8-5.8zM3602.2 14596.5c-10.7-4.9-44.3-33.3-77.4-65.7-35.3-34.3-63-73.9-69.8-99.5a159.2 159.2 0 0 1 1.5-63.7 108.2 108.2 0 0 1 28.7-46.2c6.3-5.8 11.2-12.2 11.2-13.9 0-1.7 2.4-3.2 5.6-3.2 9.5 0 12.2-4.9 6.1-11.4-2.9-3.2-6.8-5.6-8.8-5.6-1.9 0-5.6-2.7-8.3-6.1s-6.6-6.1-8.8-6.1-7.3-3.9-10.9-8.5c-6.6-8.3-6.6-8.5-1.5-8.5 4.1 0 4.6-.7 2.4-3.4-2.2-2.4-5.6-3.2-11.7-2.2-6.3 1-9.5.5-11.4-2.2a66.1 66.1 0 0 0-13.6-10.2 244.8 244.8 0 0 1-28-23.1c-9.2-8.8-15.1-13.9-13.1-11.2a559.7 559.7 0 0 0 46.9 52.8c10.5 9.7 14.1 14.4 12.4 16.3-1.9 1.9-5.4 1.2-12.2-2.2a44 44 0 0 0-14.6-4.9 35 35 0 0 1-11.9-3.6 31.3 31.3 0 0 0-10.2-3.6c-1.7 0-10.5-3.4-19-7.8-8.8-4.4-16.5-7.1-17.5-6.3-.7 1 1.5 17.8 4.9 37.7s6.3 42.6 6.6 50.6c0 8 1 16.8 2.2 19.5 2.2 5.6-5.8 21.9-16.8 33.8-14.1 15.3-51.1 36.7-72.5 41.8l-12.6 2.9-16.8-25.8c-23.4-36.5-55.7-93.2-63.7-112.1a775 775 0 0 1-17-48.9c-5.6-18-17.3-54-25.8-80-10.2-31.1-15.6-50.8-15.6-58.6v-11.4l-18.5-9c-23.6-11.7-26-10.9-24.6 9 2.9 35.8 6.6 59.8 11.7 75.9a168 168 0 0 1 6.1 29.2c.2 6.8 1.7 15.1 3.2 18.7 2.2 6.1 1.5 41.6-1.2 59.8a40.8 40.8 0 0 1-10.5 18.2 81 81 0 0 0-11.7 16.8c-2.4 5.1-5.4 6.8-16.5 9.2a49.7 49.7 0 0 0-18.5 7.5c-6.1 6.1-24.3 6.1-37.5 0-9.7-4.6-36.2-29.4-31.1-29.4 1.5 0 3.9 1.7 5.8 3.9 3.9 4.6 16.8 11.4 16.8 9 0-1.2-10.5-12.4-23.1-25.1-13.1-13.1-23.1-25.1-23.1-27.7a46 46 0 0 0-9-16.3c-9.5-12.4-15.1-15.8-10.5-6.3 2.2 4.4 1.5 4.1-3.6-1.7-3.4-3.9-5.8-8.5-5.1-10.2.7-1.9-3.2-7.5-9.5-13.4a252.5 252.5 0 0 1-27.2-34.1c-9-13.1-16.5-23.8-16.8-23.4-.5.2 4.6 17.5 11.4 38.2 6.6 20.7 15.3 50.8 19.5 67.4 7.3 28.9 7.3 30.2 3.6 42.6-2.9 10.7-5.4 14.1-14.1 19.7a40.2 40.2 0 0 1-15.8 6.6c-11.4 0-19.9-20.9-54.5-133.1l-24.6-79.8-37.5-40.4c-49.6-53.8-77.1-77.6-89-77.6-3.9 0-4.4 2.7-4.4 20.2 0 20.9 4.4 35.8 38.9 130.6l17.3 48.2 8 22.6-5.8 11.4c-11.7 21.6-24.1 32.1-38.4 32.1-9.5 0-10.9-2.2-17.5-27.7a335.1 335.1 0 0 0-15.1-45c-5.1-12.9-16.8-45.7-25.5-73.2-13.9-43.1-16.1-53-17.3-73.2-1.2-25.5 2.7-45 11.7-56.2 2.7-3.4 16.1-11.9 29.9-18.7 28-13.9 40.9-16.1 55.7-9 9.2 4.4 30.2 24.6 34.5 33.3 1.5 3.2 5.1 7.1 8.3 8.5 2.9 1.5 4.6 3.2 3.9 4.1-1.5 1.5 12.6 23.6 15.1 23.6.7 0 1-7.5.7-16.8-.5-15.6 0-17.5 8.8-30.4a51.2 51.2 0 0 1 34.1-24.3c4.1-.7 8.5-.5 10.2.5 5.4 3.4 16.1 21.2 28 46.7a395.5 395.5 0 0 0 26 46.2 773.3 773.3 0 0 1 31.9 53.5c19 35.5 39.9 67.1 65.4 99.2a4041 4041 0 0 1 24.8 31.9c8 10.2 42.6 39.2 46.7 39.2 3.9 0 1.2-40.4-4.1-66.2-17.3-82.9-18.7-108.2-8.3-131.4a90.6 90.6 0 0 1 33.3-37.2c6.6-3.4 8.3-3.4 15.3-.2 10.5 4.6 26.3 19.7 26.3 25.3.2 2.2 3.9 8.3 8 13.1l8 9 2.9-10.7c2.4-8.8 5.6-12.9 18-22.9 20.2-16.3 45.5-29.4 55.9-29.4 11.7 0 27.5 11.4 41.4 29.7 33.1 43.5 63.5 88.5 63.5 93.7 0 3.2.7 6.3 1.9 7.1 1.2.5 4.1 5.8 6.6 11.4 4.9 10.9 12.6 18 39.4 35.8 8.8 5.6 18.7 13.1 22.6 16.5 9 8.5 8.3 4.4-1.5-7.1-11.9-13.9-14.1-23.4-11.7-52.1a140 140 0 0 1 9.7-43.3c4.1-10.5 7.5-20.7 7.5-22.4 0-4.9 16.3-20.2 28-26.5 8.5-4.4 13.6-5.1 37.7-4.9 36.5 0 51.3 4.1 93.7 25.5 61.8 31.4 98.8 65.4 99.2 91.9.2 17.5-6.1 47.7-12.4 59.6-8.8 16.1-38.9 47.9-60.8 64-9.7 7.3-17 14.1-16.5 15.1.7 1.2 7.3 6.1 14.8 11.2 10.7 7.5 12.9 10 10.5 12.6-2.2 2.7-1.7 3.6 2.4 4.9 3.2.7 5.4 3.2 5.4 5.8 0 3.9-4.9 1.5-25.1-12.6l-25.3-17.3-13.1 6.6c-34.1 17.3-45.5 25.3-48.4 34.3-7.5 22.9 4.4 45.7 52.8 101.2 43.1 48.9 97.1 87.1 123.8 87.1 7.1 0 8.3 1 8.3 5.6 0 10.7-13.1 27.2-27 34.3a44.7 44.7 0 0 1-42.2 1.9zm-268.3-208.7c4.1-9 5.6-18.2 6.3-39.2 1-22.9 1.7-26.8 4.4-24.6 2.9 2.2 3.4 1 3.4-7.1 0-13.1-3.6-22.4-11.7-28.9l-6.6-5.4 5.8-.2c5.6 0 5.6 0-1.5-6.6a68 68 0 0 1-11.4-17.8c-13.6-32.4-15.8-36.2-22.9-39.9a266.8 266.8 0 0 0-55.5-16.1c-5.4 0-5.8 1-5.8 11.7 0 7.5 2.9 18.2 8.8 32.1a499.7 499.7 0 0 1 14.6 39.4c3.2 10.5 7.3 22.1 9.5 26a39 39 0 0 1 3.6 10.5c0 6.8 47.9 77.4 52.8 77.4.6.2 3.6-4.9 6.2-11.3zm-72.2-17c-31.4-57.2-43.8-78.6-45.5-78.6-2.7 0 26.5 57.2 39.9 78.6 5.8 9 11.4 16.3 12.4 16.3 1.2 0-1.9-7.3-6.8-16.3zm101.9-19.7a45 45 0 0 0-1.9-13.1c-1.5-3.4-1-4.4 2.7-4.4 4.9 0 4.9-.2.5-28.5a218.2 218.2 0 0 1-3.2-30.4c1.5-2.4-2.2-14.8-9.2-31.6-3.4-8.3-6.8-11.9-11.9-13.9-5.1-1.7-7.1-1.7-7.1.2 0 3.4 13.9 42.3 19 52.8 3.2 6.3 3.9 13.9 3.2 34.1-.7 30.6 1.5 50.6 5.4 46.7 1.3-1.4 2.5-6.8 2.5-11.9zm-334.2-58.1a1365.6 1365.6 0 0 1-97.1-123.1c-25.8-38.4-31.9-46.2-31.9-40.9 0 1.2 1 2.9 2.4 3.9 1.2.7 11.2 15.8 22.1 33.6s23.4 36.5 27.5 41.8c4.4 5.4 11.2 17 15.3 25.8 5.1 11.2 10 17.5 15.1 20.7a52.4 52.4 0 0 1 13.9 13.6 33 33 0 0 0 10.9 10.5c2.7 1 6.1 4.1 7.8 7.5a57.6 57.6 0 0 0 21.9 18c1.3 0-2.3-5.1-7.9-11.4zm524.9-15.4c37-19 68.6-42.8 68.6-51.6 0-3.2-8.5-13.4-23.6-28.5-20.7-20.4-28.5-26-59.6-43.5-44-24.8-52.5-28.5-72.2-32.1-18.7-3.4-29.4-1.7-43.3 6.3-23.1 13.4-21.2 28.7 9 68.8 8.3 10.7 14.4 20.7 13.6 21.9-1.9 2.9 40.6 44.5 58.4 56.9 13.9 10 16.1 12.9 8.3 10.7-6.6-1.7-6.1 1.7.7 5.1 2.9 1.5 5.6 2.7 6.1 2.7.4.4 15.8-7.4 34-16.7zm-309.4-103.8 25.3-9-4.1-6.1a864.4 864.4 0 0 0-57.9-75.2c-12.2-13.1-14.6-14.8-16.5-11.2-4.1 7.3.5 35.5 12.4 73.2 6.3 20.4 12.4 37.2 13.4 37.2 1.1.1 13.5-4.1 27.4-8.9zm-445.9-95.6c-1.2-4.4-15.3-17-19.2-17-1.2 0 2.9 4.9 8.8 10.9 5.8 6.1 10.9 10.9 11.2 10.9.2 0 0-2.1-.8-4.8z" class="st0" transform="matrix(.1 0 0 -.1 0 1491)"/><path d="M3332.5 14307.6c-.5-2.4-1.9-7.1-2.7-10.5-1.2-4.1-1-5.4.7-3.6 2.7 2.7 6.6 18.2 4.4 18.2-.5 0-1.7-1.9-2.4-4.1zM2787.1 14500.7c-2.9-1.7-4.6-4.4-3.9-6.1.5-1.9-.7-7.8-2.7-13.4s-5.6-17.8-8-27.2c-2.2-9.2-9.5-31.1-15.8-48.6-13.6-37.7-16.5-55.5-10.9-66.7 2.2-4.1 5.6-7.5 7.5-7.5 2.2 0 8.3 9.2 14.6 21.9 6.8 13.6 13.4 23.4 17.5 26a67.1 67.1 0 0 1 26.5 28.2c3.4 6.3 13.6 22.9 22.6 36.5 17.5 25.8 20.9 32.8 17.8 37-3.4 4.6-26.5 15.8-40.9 19.5-16.8 4.3-17.7 4.3-24.3.4zM2398.9 14479.1a49 49 0 0 1-8-19c-8.8-35-35.5-121.9-39.9-129.4-2.4-4.4-9.2-23.4-14.8-42.1a426.3 426.3 0 0 0-18.5-50.4 71.2 71.2 0 0 1-8.3-25.1c0-4.9-2.2-12.9-4.9-18-4.4-8.8-5.4-9.5-15.6-9.5-9.7-.2-13.9 1.7-34.5 15.3-27 18.2-33.3 19.2-54.2 9.7-27.7-12.9-60.1-51.3-101.4-120.4-9-15.3-21.4-33.8-27.2-41.1-5.8-7.1-9.7-13.6-9-14.6 1-.7 3.2.7 5.1 3.2 4.9 7.1 4.1 2.7-1.7-9-6.1-11.9-19.7-30.6-22.1-30.9-1.2 0-1.9 1.9-1.9 4.4-.2 3.6-.5 3.6-3.6-.7-3.4-4.1-3.2-4.9 0-6.8 3.2-1.7 2.7-3.4-3.6-11.2a32.9 32.9 0 0 0-13.9-10.9c-4.6-1-10.7-6.6-19-17.3a211.2 211.2 0 0 0-18-21.4l-5.6-5.4 1.2 37.7c1.2 34.8 2.2 41.4 12.6 82.7 13.4 52.8 15.3 75.7 7.1 86.8-5.1 7.1-36.5 29.7-41.4 29.9-3.6 0-8.3-10.7-8.3-19.2 0-7.5-22.9-41.6-28-41.6-1.7 0-6.6 5.4-10.7 12.2a60 60 0 0 1-14.1 16.1l-25.3 16.1c-10 6.3-19.5 11.7-20.9 11.7-8.8 0-40.1-51.8-82.9-137.7-26.8-53.5-38.4-81.2-44.3-106.3-6.3-26.3-4.9-32.6 12.6-58.9 10.2-15.1 15.1-19.9 23.6-23.8 15.8-7.1 25.1-3.4 44.3 17.3a725.8 725.8 0 0 1 55.9 68.8c15.8 22.1 46 73.5 46 78.3 0 2.2 1.5 4.1 3.2 4.1 1.9 0 6.3 5.6 10 12.2 3.6 6.8 7.8 12.2 9 12.2 1.2 0 2.2-6.8 2.2-15.1-.2-46.5 4.6-74.4 17.3-99.2 6.1-12.2 25.8-34.5 34.5-39.4 14.6-8.3 22.4-6.1 39.9 10.9a182 182 0 0 1 22.6 25.5l6.6 10.7 5.4-8.8c12.2-19.5 25.3-22.9 47.7-12.4 15.1 7.3 54.7 41.4 63.2 54.5 3.2 4.9 20.9 24.8 39.4 44.3a735.8 735.8 0 0 1 43.3 49.4c13.6 19.7 16.3 18 10.9-6.3a227.5 227.5 0 0 0-8.8-31.1c-5.4-14.6-7.8-78.8-3.4-100.5a104 104 0 0 1 27-51.6c9.7-8.8 20.7-13.1 23.8-9.5 5.8 6.6 24.3 44.8 22.4 46-1.5.7-6.6-.2-11.4-2.4-9.7-4.1-17-4.6-19-1.7-.5 1 0 10 1.2 19.9 1.5 10 2.9 27.2 3.4 37.9.5 10.9 3.6 30.2 7.1 42.6 3.2 12.6 6.6 27.7 7.5 33.8 1 6.1 6.6 22.4 12.6 36.5a531.7 531.7 0 0 1 28.9 82.2c1.9 8.5 6.8 22.4 10.7 30.6a1124 1124 0 0 1 24.1 64.7c23.8 71 30.9 89.8 35.5 95.1a90.8 90.8 0 0 1 10.9 23.4 831.4 831.4 0 0 0 14.6 38.4c5.1 12.6 8.3 25.3 9.2 35.8l1.2 16.1-10.2 6.3a182 182 0 0 0-19.5 14.8c-8 7.3-19 13.4-24.3 13.4-.9.1-3.6-1.4-5.5-2.8zm-56.9-314.8c4.1-10.7-2.4-31.6-12.6-40.9-2.9-2.4-4.6-5.6-3.9-6.8s-.5-3.6-2.7-5.4c-3.6-2.7-3.6-3.9-1-8 2.7-4.6 2.2-6.3-3.4-14.8-4.1-6.6-5.4-10.2-3.4-10.9 3.2-1-8.5-34.3-14.1-40.4-5.8-6.1-9.2-.5-7.8 12.9 1.7 16.8 26.5 76.6 34.5 83.4 7.1 6.1 7.5 8 2.4 8-5.8 0-4.6 11.4 1.5 13.4 3.2 1 4.4 2.9 3.6 5.4-1.7 3.9 0 8 3.4 8 1 0 2.7-1.7 3.5-3.9zm-83.7-17c0-2.2-3.4-8-7.3-13.1-7.3-9-7.3-9.5-2.4-10.9 4.9-1.5 5.1-1.9 1-6.3a15.5 15.5 0 0 0-9.5-4.6c-6.1 0-20.4-14.4-26.8-26.8-5.1-9.7-2.4-12.9 4.1-4.9 11.2 13.9 21.9 24.6 23.1 23.4 2.2-2.2-27-33.1-31.6-33.1-3.9 0-39.9-33.1-69.6-64.2-15.6-16.3-43.5-39.2-45.5-37.2-2.4 2.4 36.5 72.7 47.7 85.6 6.1 7.1 21.4 26.3 34.1 42.6a282.8 282.8 0 0 0 30.9 35.8c7.5 5.8 38.9 17.5 47.7 17.8 2.1-.2 4.1-2 4.1-4.1zm9.7-11.7c-4.1-5.4-7.8-2.2-4.6 3.9 1.9 3.4 3.4 4.1 5.4 2.2 1.6-1.7 1.4-3.7-.8-6.1zm-320.1-37.2a59.6 59.6 0 0 0-12.6-27 56.4 56.4 0 0 1-8.8-13.1c-8.8-18.2-55.5-82.2-60.1-82.2-1.5 0-2.2 1.7-1.2 3.6 1.9 5.4 25.1 39.2 37.9 55.9 11.2 14.4 14.1 19.2 32.6 53 9.3 16.8 14.9 21.4 12.2 9.8zm309.9-4.2c-3.2-4.9-6.6-8.8-7.5-8.8-2.2 0-1 2.4 6.3 12.9 6.8 10 8 6.4 1.2-4.1zm-369.3-17.7c1.7-7.5 2.4-17.3 1.7-21.6-1.7-10.7-35.8-59.1-55.5-79.3a130.2 130.2 0 0 1-19.7-24.8c-4.6-9.2-22.9-30.6-26.5-30.6-1.2 0-2.7 2.7-3.6 6.1-1.2 4.4 1.9 11.9 12.9 30.9 7.8 13.9 15.8 29.9 17.5 36s7.3 17 12.4 24.3c5.4 7.3 14.6 21.6 20.9 31.6 13.1 21.2 32.4 44.3 35 42.6 1.3-.9 3.5-7.7 4.9-15.2zm413.6-52.8c0-9-4.4-18.5-8.3-18.5-2.4 0-5.1-4.9-7.8-13.9a61.6 61.6 0 0 0-7.3-17.8c-2.9-3.2-3.2-1.9-1.9 8.5 1.7 13.1 7.3 34.8 10.2 39.2 1.9 2.9 10.5 8 13.4 8.3.9 0 1.7-2.6 1.7-5.8zm-19-67.1c-1-6.8-11.9-18.7-14.6-16.1-2.2 2.4 2.2 13.6 7.3 18.5 7.3 6.6 8.5 6.1 7.3-2.4zM3704.6 14419.7a94 94 0 0 1-20.2-12.2c1.2-1.2 24.6 10 38.7 18.5 13.9 8.5 3.9 5.1-18.5-6.3zM3692.5 14406.6c-3.9-1.2-8-1.7-9-1-2.7 1.5-10.7-2.7-49.1-25.3-25.1-14.6-30.6-18.7-27.2-20.4 3.2-1.9 3.4-2.9.7-6.3-2.4-3.2-1.5-2.9 4.1.7 4.1 2.7 23.8 14.1 43.8 25.8 33.1 19.2 48.2 28.9 45 28.7a106 106 0 0 0-8.3-2.2zM2442.4 14300.3c-3.6-1-4.4-2.9-3.4-8.8 1.2-6.8-17-82.7-28.9-121.4-1.7-6.3-3.4-14.1-3.4-17.5s-3.6-16.3-8.3-28.9c-8.5-23.4-14.1-48.7-23.6-103.9-6.3-37.7-6.3-52.5 0-73.9a67.2 67.2 0 0 0 3.6-22.6c-1.7-6.1 6.6-17.8 12.4-17.8 1.5 0 6.8-2.2 12.2-4.9 5.4-2.7 11.2-4.9 13.4-4.9s8.8 5.1 14.4 11.2c9.7 10.5 10.5 12.2 9.2 21.4-.7 5.6 0 16.1 1.9 23.6 6.6 25.1 34.5 95.4 58.1 145.7 39.6 84.7 45.5 94.9 54.2 99.2 6.1 2.9 8.3 5.8 9.5 12.4a43.2 43.2 0 0 0 11.4 24.1c7.8 8.5 10.5 6.6 13.6-9.7 6.1-31.6 22.6-53 41.1-53 11.7 0 13.6 5.6 10.5 34.8a570.3 570.3 0 0 0-2.2 37.2 54.4 54.4 0 0 1-31.4 48.2c-4.1 1.9-15.3 5.1-25.1 6.6-16.1 2.7-17.8 2.7-23.8-1.9a103.8 103.8 0 0 1-17.3-22.9c-6.1-10-17.8-28.7-26.3-41.8a576.6 576.6 0 0 1-21.9-36.5c-10.5-20.2-9.5-7.8 1.7 24.3 12.2 34.3 14.4 49.4 8.8 57.9-4.9 7.3-41.4 25.8-50.1 25.3-3.2-.3-7.8-.8-10.3-1.5zm62.8-117.5a422.3 422.3 0 0 0-19.7-31.6c-3.9 0 14.4 35 28.9 55.2 14.1 19.9 9.5 8-9.2-23.6zM2922.8 13895.7a260.9 260.9 0 0 1-10.2-29.9c0-1.9-1.7-4.9-3.6-6.6-1.9-1.7-3.6-5.6-3.6-8.8s-1.5-10-3.4-14.8c-3.6-9.7-26-84.7-30.6-102.9a48.4 48.4 0 0 0-6.6-15.1c-1.9-2.2-2.9-6.1-2.2-8.5 1.7-5.4-11.9-54.5-13.6-49.4-.7 1.9-1.2-1-1-6.8 0-7.8-1-11.2-4.1-13.1-3.2-1.7-3.6-3.2-1.9-5.4 2.7-3.2-1.5-21.6-4.4-19.9-.7.5-1.5-5.8-1.5-13.9-.2-18.5-2.7-29.2-6.6-27-1.7 1.2-2.2-.2-1-4.6.7-3.6.2-7.1-1.2-8-3.6-2.2-1-28 3.6-37a80.8 80.8 0 0 1 31.4-28.5c14.8-6.1 26-1.7 39.4 15.3 6.1 7.5 10.5 15.1 10 16.8-.7 1.5.5 4.1 2.7 6.1 3.2 2.7 4.4 2.2 7.8-2.9 7.1-10.9 12.2-14.6 20.4-14.6 9.5.2 11.4 1.7 29.7 23.1 15.8 18.2 33.6 44 43.3 62.5 3.4 6.3 9 15.1 12.4 19.5l6.3 8 .2-9.7c.2-5.4.2-12.2 0-15.1-.5-6.8 6.3-33.6 10.9-42.3a88.1 88.1 0 0 1 11.4-15.3c9.7-10.5 19.5-11.4 29.4-3.6 7.5 6.1 32.6 43.5 36.2 54.5 1.2 4.1 4.4 10 6.8 13.4 2.9 4.6 3.6 8.5 2.7 14.4l-1.7 8-9-13.1c-12.2-17.3-11.9-10.7.5 8.5 6.1 9.5 9.7 13.4 9.7 10.5 0-3.6.7-4.1 2.7-2.2 3.4 3.4 1.2 10.5-3.4 10.5-1.9 0-8.8-7.5-15.3-17-6.8-9.7-13.1-16.3-15.1-15.8-1.7.7-2.9-.2-2.4-1.9 1-4.4-5.1-13.9-9-13.9-1.7 0-7.5-5.4-12.6-12.2a74.1 74.1 0 0 0-10.9-12.2c-4.6-.2-1.5 37 5.4 65.7 10.9 45.5 10.2 50.4-8.8 63.5-11.9 8-15.6 7.3-15.6-4.1 0-2.7-3.4-9.5-7.5-15.3l-7.5-10.2-10.2 10.5a106 106 0 0 1-21.6 16.5c-10.9 5.8-11.2 5.8-16.3 1.2-10.7-9.7-59.1-104.1-66.9-130.6-5.8-19.9-43.8-60.8-53.3-57.2-1.9.7-4.6 8-6.3 16.8-3.4 18.7-3.4 17-1.2 34.8 1.9 17 2.9 26 3.4 32.8 0 2.7 3.4 6.3 7.5 8.5 5.4 2.9 9.5 8.5 15.1 21.4a1816 1816 0 0 0 47.7 94.4c7.8 13.4 11.7 23.6 29.7 75.7a299.1 299.1 0 0 0 11.4 29.2c5.4 7.3 8.5 29.4 6.8 47.7-1.7 19.5-4.9 28.2-12.4 34.8a98.3 98.3 0 0 1-28.9 11.9c-1.6-.3-7.2-12.2-13.1-27.1zm32.9-39.4a144 144 0 0 1-.2-23.8c.5 0 1.9 3.6 3.2 8 2.2 6.6 2.4 5.6 1.5-6.8a85 85 0 0 0-4.6-23.6c-2.2-5.1-3.2-9.2-2.2-9.2s.5-1.2-1.2-2.9-2.9-6.1-2.9-9.7a18 18 0 0 0-4.4-11.2c-2.4-2.4-4.1-5.6-3.4-7.3.5-1.5-1.5-4.6-4.4-7.1a35.7 35.7 0 0 1-12.2-23.8c0-3.4-1.5-6.1-3.4-6.1-1.7 0-6.1-4.4-9.7-9.7-3.4-5.4-7.3-9.7-8.5-9.7-1.2 0-7.8-9.5-14.4-20.9-7.3-12.9-12.6-19.9-13.9-18.2-1.9 3.2 3.2 17.5 7.1 20.2 1.7 1.2 1.5 1.9-.7 1.9-2.7 0-2.2 1.5 1.5 5.6a28 28 0 0 1 6.1 12.6c2.4 14.1 12.2 46.2 15.1 49.9 1.9 1.9 3.2 5.4 3.2 7.3 0 1.9 4.4 13.6 10 26a707.7 707.7 0 0 1 20.2 52.3 425.8 425.8 0 0 0 12.4 34.5c4.6 9.2 7.2-2.5 5.8-28.3zm-74.5-131.6c-1.9-1.9-2.7-1.7-2.7 1 0 4.9 3.2 8.3 4.4 4.6.8-1.7-.2-4.1-1.7-5.6zm20.7-22.8c-1.9-3.6-3.6-6.1-3.9-5.1 0 2.9 5.6 14.1 6.6 13.1.7-.5-.5-4.1-2.7-8zm142.3-35.1c-4.6-12.4-43.8-68.8-46.2-66.7-.5.7 4.4 9 10.9 18.5a660.2 660.2 0 0 1 30.9 48.4c4.9 9.1 7.8 8.8 4.4-.2zm-33.3-7.3c.7-4.1 1.5-9.5 1.5-11.9 0-5.4-19.7-34.3-32.4-47.9-5.4-5.6-12.2-14.4-15.3-19.7s-7.5-10.2-9.5-11.2c-6.3-2.4-4.1 7.8 4.9 23.1 4.6 8 8.5 16.1 8.5 17.5 0 5.4 35.5 57.7 39.2 57.7.7 0 2.1-3.4 3.1-7.6zm-150.1-5.1c-.7-1.9-1.5-1.2-1.5 1.5-.2 2.7.5 4.1 1.2 3.2.8-.8 1-3 .3-4.7zm-5.8-23.3c-.7-2.9-2.2-5.4-3.4-5.4s-.7 2.7.7 6.1c3.2 7.3 4.9 6.8 2.7-.7zM2556.7 13796.7c-.5-1.2-5.6-18.2-11.4-38.4-5.6-19.9-11.9-39.7-13.9-43.5s-6.1-15.3-9.2-25.5a450.4 450.4 0 0 0-9.7-28.2c-2.4-5.4-5.6-14.6-7.1-20.4-3.9-16.1-11.2-17.3-29.9-4.9-22.4 14.8-31.6 12.6-55.7-13.1-25.3-26.8-57.4-83.7-65.4-115.3-4.6-18.2-1.9-32.1 8-42.6 11.4-12.4 27-6.8 50.8 18 21.2 21.6 49.1 52.5 58.4 64s9.7 8.8 3.2-14.6c-6.8-23.4-6.8-63.7 0-78.3 5.6-12.6 15.1-22.6 21.4-22.6 2.9 0 6.8 4.1 10.9 11.9a98.7 98.7 0 0 1 6.6 13.4c0 .7-4.6.7-10 0-9-1.5-10-1.2-8.5 2.9.7 2.4 1.9 13.1 2.7 23.4 1.7 23.1 9.2 56.4 17.3 74.4a447 447 0 0 1 14.1 39.2c4.6 14.1 14.6 42.8 22.1 63.5 7.5 20.7 14.6 40.9 15.8 44.5 1.2 3.9 3.2 8.3 4.6 9.7 2.9 3.9 18.7 45 20.7 54 1.7 9 .7 10.5-13.9 21.6-10.7 8.2-19.7 10.8-21.9 6.9zm-30.8-187.8c0-3.6-2.2-9.7-4.9-13.1a22.7 22.7 0 0 1-4.9-8.8c0-1.5-1.2-2.7-2.7-2.7s-1.9-2.2-1-4.9c1-2.9.7-6.3-.5-8a19.4 19.4 0 0 1-2.7-7.8c-.2-7.1-7.5-23.1-10.2-23.1-4.6 0-2.4 12.4 6.1 33.1a91.3 91.3 0 0 0 12.6 24.3c2.7 1.9 3.2 3.2 1.5 3.4-3.6 0-4.4 7.3-.7 7.3 1.5 0 2.4 1.7 2.4 3.6 0 1.9 1.2 3.6 2.4 3.6 1.6.2 2.6-3 2.6-6.9zm-51.1-7.2a18.2 18.2 0 0 0-5.1-6.6c-1.9-1.2-1.9-2.2.2-3.4 4.1-2.4 1-7.3-4.6-7.3-2.4 0-7.3-4.1-10.9-9.2-9-13.1-7.8-15.6 2.2-4.1 4.6 5.4 8.5 9 8.5 8 0-2.9-14.8-19-17.5-19-1.5 0-16.1-13.1-32.8-29.2a306.7 306.7 0 0 0-32.6-29.2c-3.6 0 18.2 39.9 29.2 53.5 5.1 6.1 14.4 17.5 20.7 25.5 15.1 18.7 24.6 24.8 39.9 25.3 4.5.3 5-.5 2.8-4.3zm1.9-27c-1.7-2.4-3.4-4.1-4.1-3.6-1 1 4.4 8.5 6.1 8.5.5-.1-.3-2.3-2-4.9zm24.8-43.3c0-2.7-2.2-7.1-4.9-10.2-2.7-3.2-4.9-7.5-4.9-10s-1.2-5.1-2.9-6.1c-3.9-2.4-.5 18 4.4 25.3 4.4 6.5 8.3 7 8.3 1zm-12.1-39.2a16.2 16.2 0 0 0-4.9-6.3c-3.4-2.2-2.9 4.6.5 8 4.6 4.6 7.3 3.4 4.4-1.7zM3351.9 13774.8c-6.8-13.1-37.5-94.1-39.2-103.4-1-5.1-4.9-13.9-8.5-19.7a68.5 68.5 0 0 1-8.5-23.8c-1-7.3-4.4-19.2-7.3-26.8-3.2-7.3-7.3-20.4-9.5-29.2-1.9-8.5-11.2-39.6-20.4-69.1-9.2-29.4-22.1-73.5-28.7-97.8-9.5-36.7-12.4-44.5-15.8-44.5-3.2 0-5.4-3.2-7.1-10-3.6-13.4-1.2-15.1 3.9-2.4 8.3 20.9 5.8 6.6-7.3-40.4-7.5-26.5-17.8-64.5-23.1-84.7-6.3-24.1-9.7-33.6-10-28-.2 8-.2 8.3-3.6 3.9-4.6-6.1-4.6-12.6 0-14.4 2.9-1.2 2.7-4.1-1.5-19.2-8-29.9-7.1-28-10.9-21.2l-3.2 5.8-.2-7.1c0-3.9 1.2-10.7 2.9-15.1 2.2-6.6 1.7-13.4-2.9-39.7-3.2-17.5-6.1-31.9-6.8-31.9s-2.7 1.9-4.4 4.4c-2.9 3.6-3.2 3.2-3.4-4.9 0-4.9 1.2-9.7 2.4-10.5 1.5-.7 2.4-2.9 2.4-4.9 0-2.4-2.2-2.7-10.2-1-5.4 1.5-10.7 1.5-11.7.5s-12.4-16.8-25.5-34.8c-29.2-40.4-27.5-38.4-29.9-31.6l-2.2 5.8-2.9-5.6c-2.4-4.6-2.4-6.1.7-8.3 3.4-2.7 2.7-4.4-6.1-14.4-6.3-7.5-11.9-11.7-15.3-11.7-3.9 0-9.7-5.4-20.7-19.2a726.5 726.5 0 0 0-20.9-25.5c-10.9-11.9-11.9-9.2-10.2 28.7 1.7 38.2 6.1 64 21.6 123.1 7.3 28.2 9.7 43.1 10.2 58.4.5 28-2.9 33.1-33.3 52.8l-23.6 15.3-4.9-10c-2.9-5.4-4.4-10.7-3.4-12.2.7-1.5.7-5.1 0-8.3-1.9-8-29.9-45-34.1-45-1.7 0-7.5 6.8-13.1 15.3a62.2 62.2 0 0 1-20.4 21.2c-5.6 3.2-18.5 11.2-28.5 17.5-9.7 6.3-20.4 11.7-23.6 11.7-3.6 0-8.5-3.6-14.4-10.7-18-21.9-93.2-164.7-120.2-227.7-11.4-27.2-22.1-65.2-22.1-79.1 0-19.5 28.5-63.7 47.2-73.5 8.8-4.6 27.7-3.2 36.7 2.7 8.3 5.4 55.2 60.6 71.3 83.7a268.4 268.4 0 0 0 17.3 23.4c8.3 9.5 48.9 78.6 50.4 86.1 1.2 5.4 2.9 7.8 6.1 7.8 2.7 0 4.6.7 4.6 1.9 0 1 3.4 7.5 7.5 14.8 9 15.6 12.2 13.4 11.7-7.5-.7-42.6.5-55 7.3-80.3 8.3-30.4 15.6-44.8 33.3-65.7 15.6-18.2 24.8-23.8 40.6-23.8 11.4 0 12.6.7 28.7 16.1 9 9 20.9 22.9 26 31.1 5.1 8 16.3 25.8 24.8 38.9a284.6 284.6 0 0 1 22.1 41.8c3.4 9.7 10 22.4 14.1 28 6.3 9 7.5 9.7 9 5.6a113 113 0 0 1 32.1-49.6c30.9-30.4 54.5-38.4 84.7-28.2 13.9 4.6 19.9 10.5 43.3 41.1 16.8 22.6 17.5 23.6 13.9 27.2-1.5 1.5-.7 4.6 1.9 8l4.1 5.8 4.9-13.1c15.3-41.6 47.2-79.3 81.5-96.3 29.4-14.6 45-17 70.8-10.5a157 157 0 0 1 61.1 29.4c5.6 4.9 26.8 21.2 46.9 36 27 19.9 37.7 29.4 40.1 35 1.7 4.4 10.5 15.8 19.2 25.1 8.8 9.5 24.3 28.5 34.5 42.6a241.1 241.1 0 0 0 28.7 33.8 129 129 0 0 1 20.9 22.9c11.4 15.6 55.9 56.4 80 73.5 21.6 15.1 76.9 48.2 78.3 46.7 2.9-3.2-44.5-59.4-79.3-94.1a4510 4510 0 0 1-130.9-134.3c-12.6-15.1-11.2-20.4 10.5-43.3 25.3-26.3 24.1-26.5 71.5 7.5 57.4 41.1 78.1 54.7 95.6 62.5 18.7 8.5 23.1 7.5 8-1.9a457.9 457.9 0 0 1-34.3-26.8 757.6 757.6 0 0 0-48.4-37.5 283.7 283.7 0 0 1-36.7-30.4 1067.5 1067.5 0 0 0-82.7-73.7c-8-6.1-20.4-16.8-27.7-23.4-11.4-10.7-12.9-13.1-11.9-19.7 1-6.8.5-7.5-5.6-7.5-5.4 0-12.4-6.3-37.9-33.3a494.3 494.3 0 0 1-37.7-43.8 241.4 241.4 0 0 0-21.6-26c-8.3-9-19-21.6-23.8-28.2-4.9-6.6-14.6-19.2-21.6-28.2-26.3-33.6-34.3-60.8-24.1-81.7 2.4-4.9 12.6-17.5 22.6-28.5 23.8-25.5 41.1-34.5 69.6-36.2 31.6-1.9 51.6 4.1 116.3 35.5 27.7 13.4 48.2 26 94.9 58.9 32.8 22.9 64.5 46.9 70.5 53.5a136 136 0 0 0 19.5 17.5c39.2 25.5 100 82.5 122.8 114.8 14.1 20.2 27 37 45.7 60.1 25.8 32.1 44 71.3 50.6 108.2 3.4 19.2-1 63-7.5 78.1-5.1 11.7-20.4 28.9-37.2 42.3l-11.7 9.2 12.9 10.2a263 263 0 0 0 34.3 24.1c.7 0 .2-4.1-1-9a60 60 0 0 1 3.4-41.4c11.7-21.6 28.9-44.8 36.5-49.4a45.6 45.6 0 0 1 37.7-1.5c11.4 6.1 56.2 57.4 76.4 87.6 5.4 8 12.4 17.5 15.3 20.9 9.2 10.2 49.6 79.1 51.3 87.1.7 4.1 3.4 7.8 5.6 8.5 2.4.5 7.8 7.3 12.2 15.1 4.4 7.5 8.5 13.1 9.2 12.4 1-.7 1.9-18.2 2.4-38.4.7-32.4 1.9-40.9 8.5-64.7 8.3-30.9 18-48.2 38.9-69.6 15.1-15.3 28.5-20.4 41.8-16.1 9.2 2.9 38.7 32.6 47.7 47.4a2066 2066 0 0 0 22.9 36.5 320.5 320.5 0 0 1 23.6 44.3c3.6 9.7 10.5 23.1 15.6 29.9 7.1 9.5 8 12.2 4.9 12.2-3.6 0-4.1 1.9-3.2 13.4.7 7.3.2 13.4-.7 13.4-1.2 0-10-11.4-19.7-25.3a223 223 0 0 0-19.2-25.5c-6.3-.7-1.5 11.2 16.8 39.6 20.4 31.9 27.5 40.1 22.1 26.5-2.4-6.6-1.5-12.9 2.2-12.9 1.2 0 4.1 3.9 6.8 8.5 3.9 7.5 4.1 9 1 11.9a28.2 28.2 0 0 1-10.9 4.6c-7.3 1.2-8.3.2-33.8-35-14.6-19.9-27.5-36.2-28.5-36.2s-2.2 2.4-2.7 5.6l-.7 5.4-3.2-5.6c-2.4-4.4-2.7-6.3-.2-9.2 2.2-2.7 2.2-4.4-.5-7.5-8-10.9-17.5-19.7-20.2-18.7-4.1 1.5-8.3-2.7-27.7-27.2a160.2 160.2 0 0 0-21.2-23.8c-3.2-1-3.6 2.4-3.6 23.6 0 36.2 3.6 60.3 17 114.8 18.5 75.2 19.9 94.1 8 110.4-4.9 6.3-43.5 33.8-48.4 34.1-3.6.2-11.2-16.5-9.5-21.9.7-2.4.2-7.1-1.5-10-6.1-11.9-29.2-40.9-32.6-40.9-2.2 0-7.5 6.1-12.2 13.4a73 73 0 0 1-14.1 17c-19.7 13.9-55.7 35.3-59.6 35.3-2.7 0-8.8-4.9-13.9-11.2-16.1-19.5-74.9-128.7-107-198.5l-20.4-44.3-16.8-8.8c-10-4.9-16.3-9.7-15.8-11.4.7-2.2 4.4-1.2 12.9 2.9 14.4 7.3 14.6 7.3 14.6 1.7 0-2.9-10.2-10.2-32.8-23.1-31.9-18.5-33.1-19-41.6-16.3-6.1 1.9-8.3 3.9-7.3 6.6 1.2 2.9 0 3.2-5.6 1.9-3.9-.7-11.9-.2-17.8 1.5-16.3 4.4-51.6 3.2-72.5-2.4-29.7-8-29.7-7.5-5.8 17.5a679.6 679.6 0 0 1 36.2 40.6 967 967 0 0 0 31.6 37c31.1 33.8 41.4 57.4 30.9 72.7-18.2 27-32.1 36.7-51.8 36.7-10 0-18.7-3.2-54-20.7-49.6-24.3-69.3-37.2-114.8-74.7l-78.8-65.2c-24.8-20.4-47.2-40.1-49.4-43.8-5.4-8-3.6-14.6 5.6-21.9 3.9-3.2 7.1-7.1 7.1-8.5 0-1.7-9-9.5-19.9-17.3a1031 1031 0 0 1-40.1-30.4 152 152 0 0 0-28-18.7 21.2 21.2 0 0 1-10.7-8c-3.9-7.5-73.2-47.2-94.1-54-9.7-3.2-22.4-5.6-28.5-5.8-10.5 0-11.2.5-16.3 10.9a51.4 51.4 0 0 0-5.6 25.1c0 14.1 8.8 58.1 16.1 80l3.6 11.4 15.8-8.3c17.8-9.5 21.9-10 33.3-5.1 9.5 3.9 54.5 46.5 88.3 83.7 18.5 19.9 26 30.2 28 37.7a53.9 53.9 0 0 0 10 17.8 64.8 64.8 0 0 1 12.2 26.5c4.6 17.3 4.9 20.7 2.2 33.8-5.8 28-15.6 39.9-46.7 56.2-22.9 11.9-29.7 11.4-58.6-4.4-48.4-26.8-70.3-47.2-101.2-93.9-21.9-32.8-64.2-117.2-68.6-136-1.7-7.3-4.4-13.6-6.3-14.4-1.7-.7-13.6-13.4-26.3-28.2a582.5 582.5 0 0 0-33.6-37.2c-14.4-13.6-43.3-35-47.4-35-4.4 0-9.2 11.9-12.9 31.6-1.5 8.8-3.9 20.7-5.6 26.8-3.9 15.6-3.9 36.5 0 44.3 4.4 9 3.9 15.8-1 18.7-4.1 2.2-4.1 2.7.2 5.8 2.7 1.9 3.9 4.6 2.9 6.3-1 1.5-.5 4.4 1 6.3a66.4 66.4 0 0 1 3.6 24.3c.5 11.2 1.5 21.6 2.4 23.1 1 1.7 6.3 4.9 11.9 7.3 14.1 6.1 19.5 12.9 30.9 39.2 9.7 22.4 66.4 137.2 70.3 142.1 1 1.5 2.7 5.1 3.6 8.5s9.2 18.7 18.2 34.1c24.6 41.8 34.8 64.9 45 100 1.7 6.1 5.8 16.5 9.2 23.1a86.8 86.8 0 0 1 7.8 21.9c1 5.1 4.9 16.5 8.5 25.3a283.7 283.7 0 0 1 15.8 53.8c.7 3.6 3.6 7.3 7.5 9.2 6.1 2.7 6.3 3.6 4.9 14.1-1.2 8.5-.5 11.7 2.4 13.9 8.8 6.6 10.7 42.8 4.6 88.8-5.8 43.1-13.6 53.3-52.3 68.1-29.8 12.4-32.4 12.7-37.1 4.1zm45-68.1c7.1-18.5 7.3-43.5.7-96.6-1.5-11.7-1.2-14.1 1.7-13.1 1.9.7 4.1 6.3 5.4 13.1 2.9 19 4.9 20.4 6.6 4.6 1.2-9.7.5-17.3-1.5-22.6a30.6 30.6 0 0 1-1.9-14.6c1-4.6-1.2-12.6-7.1-25.3-5.4-11.7-8-20.7-7.3-24.1 1-3.4 0-6.1-2.7-7.5-2.4-1.5-3.9-5.4-3.9-11.7 0-11.9-8.5-31.6-14.1-33.3-3.4-.7-4.1-2.9-3.4-9.2 1-8.5-2.9-13.9-17-23.6-6.8-4.6-17.3-30.2-17.5-43.3-.2-6.8-1.2-8.8-5.6-9.2-3.4-.5-9.5-6.6-16.3-16.1-6.1-8.5-15.1-19-19.9-23.4-8-7.1-29.4-40.1-48.6-75.4-3.6-6.8-7.3-12.2-8.3-12.2-1 0-3.2 3.2-4.9 7.3-2.7 6.3-2.2 8.3 2.4 16.3 2.9 4.9 4.6 10.7 4.1 13.1-.7 2.7 1 5.1 5.1 6.8 5.4 2.7 5.6 3.2 1.9 5.8s-2.9 4.1 7.1 13.9c10.5 10.2 10.9 11.4 10.9 24.6 0 9.2 2.4 20.9 7.3 34.5 4.1 11.4 7.3 22.9 7.3 25.5 0 10 9.7 35.5 16.1 42.1 5.1 5.4 6.1 8.3 5.1 14.1-1 5.1 0 9 3.2 13.1 2.7 3.4 4.9 7.8 4.9 10s5.8 17 13.1 32.8c16.8 36.5 51.3 129.4 53.8 143.8 1.7 10.7 16.5 46.2 19.5 46.2.7.2 2.4-2.7 3.8-6.4zm-146.2-323.5c0-4.6-7.5-17.8-10.2-17.8-1.9 0-.5 8.8 3.2 19 2.2 6.1 7 5.1 7-1.2zm40.4-55c-3.4-5.6-9-13.4-12.4-17.5-5.6-6.3-5.1-4.9 2.7 9.7 13.9 25.8 14.1 26.5 15.1 21.9.5-2.1-2-8.5-5.4-14.1zm1027.5-15.5c0-9-9.5-31.6-16.1-38.9-4.6-4.9-9-11.2-9.7-13.9-1-2.9-5.6-11.2-10.7-18.5a591.3 591.3 0 0 1-15.6-24.8c-3.6-6.6-7.3-11.7-8.5-11.7-1 0-9.2-10.5-18.5-23.1-9-12.6-18-23.1-19.7-23.1-2.2 0-2.7 1.5-1.7 4.4 2.4 6.6 29.2 46 45.7 67.4a345.1 345.1 0 0 1 25.5 38.9c15.6 29.4 25.1 45 27.2 45 1.1 0 2.1-.8 2.1-1.7zm-72.2-34.1c3.9-19.2 2.7-30.2-4.6-41.6-21.9-33.1-46.2-66.2-48.9-66.2-1.7 0-3.2-1-3.2-2.2 0-1.2-6.6-9-14.6-17.3a107.5 107.5 0 0 1-16.1-20.2c-3.9-13.1-31.6-43.3-36-38.9-4.9 4.9-.2 18.7 16.5 48.2 9.7 17.3 18.7 35.8 19.5 40.9 1 4.9 6.6 15.8 12.4 24.3 5.8 8.3 18 26.5 27 40.6 18 28.5 39.6 54.7 42.6 51.8 1-.9 3.4-9.7 5.4-19.4zm-689.2-48.6c0-14.1-7.5-31.1-23.6-53.8-13.9-19.5-13.4-19-91-86.4-18.2-15.6-22.6-17.3-20.2-7.1 2.7 10.7 18 39.9 25.5 48.7 4.1 4.6 7.1 10.7 7.1 14.6 0 4.6 2.4 8.5 8.3 13.1a93.3 93.3 0 0 1 15.8 19.9c7.8 13.9 29.4 33.8 57.2 52.5 18.7 13.1 20.9 12.8 20.9-1.5zm-352.9-2.5c-3.6-13.9-4.6-16.1-6.1-14.6-2.7 2.4 1.9 23.6 5.1 23.6 2.4 0 2.7-1.9 1-9zm-7.8-35.7c-.7-1.9-2.7-7.8-4.4-13.4-1.7-5.6-4.4-10-6.3-10-1.7 0-3.2.7-3.2 1.5 0 3.9 10.7 25.3 12.6 25.3 1.5 0 2-1.5 1.3-3.4zm-25.3-98.1c-1.9-15.8-3.2-16.3-3.2-1.2 0 7.1 1 12.6 2.4 12.6s1.8-4.5.8-11.4zm-223.5-13.3c-2.4-8.5-7.5-18-12.4-23.4-4.4-4.9-8-10-8-11.4a96 96 0 0 0-10.5-18.2 617.7 617.7 0 0 1-16.3-26c-3.2-5.8-6.6-10.5-7.5-10.5-1 0-8.5-9.2-16.8-20.7s-16.8-22.4-19-24.8c-3.9-3.6-4.1-3.6-4.9 0-1 4.4 21.9 39.2 45 69.1a328.8 328.8 0 0 1 26.8 41.4c23.8 45.4 32.8 54.9 23.6 24.5zm-68.2-16.3c3.2-14.8 3.6-21.4 1.7-28.7-2.7-10-49.6-79.3-54.5-80.5-1.7-.5-6.1-5.1-10.2-10.7a91.8 91.8 0 0 0-15.1-15.8c-4.4-3.4-8-8-8-10.5 0-5.8-17.5-29.7-27.7-37.2l-8.5-6.6-1.7 8.5c-1.5 8.5.2 12.2 31.9 66.9a63.7 63.7 0 0 1 4.9 15.1 75 75 0 0 0 11.9 24.3c6.1 8.5 18 26.8 27 40.9 15.8 24.6 38.7 53.5 42.6 53.5.9 0 3.6-8.8 5.7-19.2zm249.6-35.5c-1.7-4.6-1.7-7.5 0-9.7 1.9-2.2 1.9-3.6 0-4.9a260 260 0 0 1-20.4-26.8c-16.8-23.8-20.9-27.5-20.9-18.7 0 3.9 41.6 69.3 43.1 67.9.4-.8-.3-4.2-1.8-7.8zm506 4.8c0-.5-2.2-2.2-4.9-3.6-5.8-3.2-12.2-.5-7.1 2.7 3.7 2.1 12 2.9 12 .9zm-317.7-9.5c-.7-3.4-2.4-6.3-3.6-6.3-2.9 0-2.7 1 .7 8.5 3.4 7.6 5.1 6.3 2.9-2.2zm671.1.5c3.9-5.4 4.9-10.2 4.6-29.2 0-26-9-59.4-18.7-69.1a187.5 187.5 0 0 1-17.3-27c-28.9-53.3-39.4-67.4-98.3-129.7a870 870 0 0 0-122.8-112.6c-94.1-74.7-170-116.3-221.8-122.1-11.7-1.5-14.8-1-17.8 2.2-5.4 6.8.2 29.7 13.1 51.8a430 430 0 0 1 17.5 33.6c5.1 11.7 13.9 22.1 42.3 51.1a583 583 0 0 1 45.2 51.1 60.8 60.8 0 0 0 19.9 20.2c7.1 3.9 10.2 7.3 10.2 10.9 0 2.7 2.4 7.8 5.6 11.2l5.4 6.3-5.6-4.6c-7.3-6.3-9.2-3.4-3.9 5.6 9.5 16.1-.2 9.2-28.5-20.2-16.1-16.8-30.6-30.6-32.1-30.6s-1 1.5 1 3.2c2.2 1.5 8 8.5 13.4 15.1 14.1 18.5 44.5 50.4 54.5 57.2 13.1 9.2 47.4 44 50.4 51.6 1.9 4.1 5.4 6.8 10.2 8 3.9.7 9 4.1 10.9 7.5 2.2 3.2 4.9 5.8 5.8 5.8s8.8 6.6 17.5 14.6c8.8 8 17 14.6 18.7 14.6s7.5 3.9 12.9 8.8 11.2 8.3 12.9 7.5c2.4-1 3.2.2 2.2 4.4-.5 2.9.2 6.3 1.7 7.1 1.5 1 2.7 4.1 2.7 7.3s2.4 7.5 5.1 10.2c5.4 4.6 5.4 4.6 3.4-1.2-1.7-5.4-1.2-5.6 5.1-4.1a27 27 0 0 1 10.9 5.8c1.9 2.2 7.8 6.8 12.6 10.2a35 35 0 0 1 11.2 11.4c1.5 3.2 8.5 9.5 15.8 14.1 10.5 6.6 15.8 8.5 24.8 8.5 11.2 0 11.4 0 7.1 4.9-4.1 4.6-4.1 4.9.2 6.3l16.5 6.3a43.3 43.3 0 0 0 12.9 3.6c.5-.5-6.3-7.3-15.3-15.3-9-7.8-15.1-14.6-13.6-15.1 1.7-.5 13.6 6.6 27 15.8 24.1 16.5 26 20.2 11.9 20.2-3.9 0-6.8 1-6.8 2.2 0 4.1 9.7 5.4 18.2 2.4 7.5-2.9 9-2.7 13.9 1.9 11.3 9.8 20 10.1 27.3.3zm-856.5-27.7c.5-4.6 0-9-1-9.7-1-.7-1.9 3.2-1.9 8.5 0 12.4 1.5 12.9 2.9 1.2zm787.7-187.3c0-3.4-10-17.5-13.1-18.7-2.2-1-1 2.7 2.9 9.2 5.8 9.7 10.2 13.6 10.2 9.5zm-21.9-30.2c0-6.8-77.4-83.7-114.3-113.6a5098.4 5098.4 0 0 1-49.9-41.1c-30.2-25.5-64.5-49.6-72.2-51.3-3.9-.7-6.8-2.4-6.8-3.9 0-1.2-1.9-3.9-4.1-5.8a436.5 436.5 0 0 0-64.9-36c-22.6-9.2-55-18.7-55-16.1 0 1 8.8 5.1 19.5 9.5 20.4 8 91.2 46.9 117.5 64.5 8.3 5.6 43.1 32.1 77.1 58.9 50.6 39.4 70.3 56.7 105.8 92.9a757 757 0 0 0 45.7 44.3c.9.2 1.6-1.1 1.6-2.3zm-274.9-31.4c0-3.6-18-24.3-19.9-23.1-1.2.7 2.4 6.8 8 13.4 10 12.2 11.9 13.6 11.9 9.7zm-38.9-43.3c-.2-4.1-21.6-28.5-23.6-26.8-1.9 2.2 17 28.5 20.7 28.5 1.4.1 2.9-.7 2.9-1.7zm-24.6-6c-4.6-9-14.4-21.4-17-21.4-3.2 0 4.4 14.1 11.4 20.9 7.1 7.3 9.3 7.5 5.6.5zm-28.9-33.1c0-1-3.9-5.6-8.5-10.2-9.7-9.2-10.9-8-3.4 3.9 4.6 7.5 11.9 11.2 11.9 6.3z" class="st0" transform="matrix(.1 0 0 -.1 0 1491)"/><path d="M3377.7 13515.8c-3.9-10.7-2.2-10.9 2.7-.7 2.2 4.6 3.2 8.5 2.2 8.5s-3.2-3.4-4.9-7.8zM3882 12960.2a15.2 15.2 0 0 0-11.4-2.2c-7.8 1.7-10.9.2-38.2-19-53.8-37.7-65.2-47.7-62.5-54 1-2.9.2-3.6-2.9-2.7-6.6 2.2-19.9-8-54.2-40.6-26-24.8-29.7-29.2-25.8-31.1 6.6-3.9 4.9-7.1-3.9-7.1-6.1 0-10.2-2.2-16.5-8.8l-8.3-8.5 7.3 1.7 7.3 1.7-6.1-7.1c-4.4-5.1-3.2-4.4 4.4 2.2 5.6 4.9 11.7 9 13.4 9s7.3 4.9 12.2 10.9c5.1 6.1 15.8 15.3 23.8 20.9 8 5.4 15.6 12.4 16.8 15.6 1.2 3.4 7.3 8.5 14.6 12.2 6.8 3.4 18.7 11.9 26.3 19 7.5 7.1 30.4 24.3 50.4 38.7a531.2 531.2 0 0 1 48.4 38.2c11.7 12.2 14.4 17.8 4.9 11zM1432.5 13751.7c-5.4-1.2-17-1.7-25.8-.7-9 .7-19 .7-22.6-.2l-6.3-1.5.2-27.2c.2-14.8-.7-29.9-2.2-33.6-2.2-5.6-2.2-6.8.7-6.8 4.4 0 10.9 9.5 10.9 16.1 0 6.8 2.4 13.1 4.9 13.1 1.2 0 3.2-3.6 4.6-8 2.2-6.3 1.9-10.7-1-20.2-4.6-15.6-4.9-15.6 3.4-15.6 5.1 0 7.3-1.5 8.5-5.4 2.2-8.8 1.9-9.2-5.8-9.2-8.8 0-9-1.5-1.9-9 4.9-5.1 4.9-5.8 1.2-8.8-3.6-2.4-3.6-4.1-1.2-10.5 2.2-6.3 1.9-10.2-2.4-24.3-2.9-9.2-7.5-28.7-10.2-43.5a159.2 159.2 0 0 0-7.1-28.7 30.6 30.6 0 0 0-12.2-3.4c-9.7-1.5-10.2-1.7-13.9-15.1-1.9-7.5-4.1-15.1-4.6-16.5-.7-1.7 0-3.2 1.2-3.2s3.6 4.6 5.1 10.5c2.9 11.9 13.4 21.6 17 16.1 1.2-1.9 2.2-6.1 2.2-9.2a1717 1717 0 0 0-32.1-125.5 21.4 21.4 0 0 1-.7-12.6c1.5-6.3 1.9-6.6 4.9-2.4 1.7 2.4 5.6 14.8 8.5 27.7 8.5 36.7 31.4 108.5 36.2 113.6 3.9 3.6 5.4 3.9 10 1.5 4.4-2.4 5.1-4.1 3.9-10.5a145.5 145.5 0 0 0-22.1-44c-9.7-13.4-11.2-24.6-3.6-26.5 5.1-1.2 6.3-7.8 2.4-13.9-1.7-2.9-2.9-2.9-5.4-.5-4.6 4.6-6.3 3.6-9.2-5.4-2.2-7.1-1.9-9.5 1.2-14.6 2.2-3.4 3.4-7.3 2.4-9-1-1.5-2.7-10.5-3.6-19.7-1.5-11.9-3.4-18.5-7.1-22.4-2.9-2.9-5.1-6.8-5.1-8.3 0-1.9-2.2-2.4-5.8-1.5-5.4 1.2-6.3 0-10.7-11.7-10.7-28.7-34.8-109.5-33.6-112.9 2.9-7.3 16.1 2.9 16.1 12.6 0 4.4 4.1 8.3 8.5 8.3.2 0-2.4-10.2-6.3-22.4-3.9-12.4-8-27.5-9.5-33.3s-5.6-13.4-9-16.8c-4.4-4.4-5.1-6.6-2.9-7.8 3.4-2.2 4.4 1.9-14.6-58.4-8.3-26-14.4-48.9-13.6-50.6.7-1.9.2-7.5-1-12.4s-3.6-13.4-5.1-19c-2.9-11.9-7.5-13.4-11.7-4.4-4.4 9.2-3.6 12.2 3.4 14.8 4.1 1.5 7.3 5.1 9.2 10.9 2.9 8.5 2.9 8.5-2.2 6.1-2.9-1.2-5.4-4.1-5.1-5.8.2-1.9-1.2-4.1-2.7-4.6-2.4-.7-3.2 2.9-3.2 13.9 0 11.7 1.2 16.8 5.6 22.6 9.2 13.4 16.5 33.8 14.6 41.8-2.4 10.7-1.2 14.6 10.5 37.9 5.6 11.7 9.7 21.6 9 22.6-2.7 2.7-7.5 1.7-11.4-2.2-6.3-6.3-103.9-310.6-109.9-342.7-2.7-14.8-12.6-45.5-28.9-89a59.1 59.1 0 0 0-10.9-18.2 55 55 0 0 1-10.7-17.8l-3.6-10.2h5.8c6.8 0 7.5-2.7 3.2-10.5l-2.9-5.4-1.5 6.1-1.7 6.1-1.9-6.8c-1.5-5.4-.7-7.5 3.9-11.2l5.8-4.9-6.6-6.8c-6.1-5.8-6.8-6.1-6.8-1.9 0 4.4-.2 4.4-5.4-.7-4.1-3.9-5.4-7.8-5.1-15.1.2-6.1-1.2-12.9-4.1-17.8a19.5 19.5 0 0 1-3.4-13.1c1.2-4.6 0-6.3-7.3-9.2-6.1-2.7-9-5.6-10-10.5-.7-3.6-8-27.2-16.1-52.8-17-53-41.4-112.9-48.9-119.4-4.9-4.6-5.1-4.6-3.6.2 2.4 7.8 6.3 26.5 6.6 29.7 0 6.1-14.6-1.7-16.1-8.5-2.9-13.1-3.9-15.6-5.8-13.6-3.2 3.4-25.3 78.3-36.2 122.8a2072.5 2072.5 0 0 0-45.5 295.3c-2.2 32.1-4.6 76.6-5.6 98.8a384.8 384.8 0 0 1-3.6 43.1c-1 1.7-1.7 51.8-1.7 111.7 0 126.2-3.4 270.2-8 324-2.7 33.8-3.6 37.9-8.5 41.8-9 7.3-32.1 14.8-49.9 16.3-19.5 1.5-48.2-3.2-55-8.8-6.1-5.1-34.8-78.1-41.4-105.6a645.5 645.5 0 0 0-9-32.1c-1.9-6.8-6.3-22.9-9.5-36a995.1 995.1 0 0 0-25.1-76.9c-26.5-73-94.6-279.5-109.5-332-27.2-95.6-60.8-241.8-65.9-285.8-3.4-29.4-9.7-130.9-9.7-156.4 0-32.8 4.1-56.4 16.1-90.7 13.9-40.6 19.7-50.6 33.8-57.4 14.1-6.8 20.4-5.4 34.3 8l10.9 10.2-7.5 34.1a495.6 495.6 0 0 0-10.9 128.9 2213 2213 0 0 0 16.1 168.8c4.4 28.2 23.1 100.5 35 133.8a80.4 80.4 0 0 1 3.6 20.7c0 5.4 1.5 17 3.4 25.8 3.4 16.1 17 52.8 21.2 57.2 1.2 1.2 2.2 7.3 2.2 13.9s2.7 18.5 6.3 28a999 999 0 0 1 28.9 87.3 426 426 0 0 0 15.8 45.7 235.3 235.3 0 0 1 12.2 36.7c0 3.4 4.1 14.6 9.5 25.1 10.2 20.4 16.1 37.2 26 74.7a394.5 394.5 0 0 0 17 48.9 167 167 0 0 1 10.7 29.9c0 6.6 21.2 48.9 24.3 48.9 1.5 0 2.4-5.1 2.4-11.4-.2-22.1 8-393.6 8.8-394.3.2-.5 3.9 1 7.8 2.9 7.3 3.6 7.3 3.6 10-3.6l2.7-7.5-8.3 1.5c-7.5 1.5-8.3 1-9.5-5.1-3.2-16.8 19.9-200 39.9-317 6.8-40.4 19.7-91 32.8-129.7 3.4-9.5 8.3-25.5 10.9-35.5 8.5-32.1 44-70.1 71.3-76.6 3.9-1 9.7-3.9 13.1-6.6 6.3-4.9 16.8-8 34.8-10.5 14.4-2.2 17.8.7 41.8 33.3 16.5 22.6 21.2 31.6 39.6 76.4 11.7 27.7 29.7 77.4 40.4 110.2 10.5 32.8 28 84.9 38.7 115.8 10.7 30.9 22.1 67.1 25.3 80.8a474 474 0 0 0 15.8 48.6c5.4 13.4 9.7 27.2 9.7 31.1 0 3.9 1.7 9.7 4.1 12.9 3.2 4.6 3.4 6.8 1 10.2-2.2 3.9-1.5 7.3 5.1 19.9a58 58 0 0 1 7.8 27.2c.2 6.8 1.5 14.4 3.2 17 10.7 19.2 43.1 109.9 50.6 142.3 8 35.5 13.1 52.5 20.7 70.5 4.4 10 10 27.5 12.4 38.9s7.5 33.3 11.2 48.6c3.6 15.3 6.6 28.9 6.6 29.9.2 1.2 2.2 3.4 4.6 5.1 3.6 2.9 3.6 3.6.7 6.1-3.2 2.7-2.7 4.6 3.4 14.4 4.9 8 8.8 20.4 13.1 42.6 3.4 17 10 41.1 14.6 53.5a326 326 0 0 1 12.4 43.1c2.2 11.4 5.6 26 7.5 32.6 4.1 14.8 4.1 14.8-.2 19.5-3.4 3.2-2.9 4.6 2.4 12.6a93 93 0 0 1 9.5 21.4c6.3 24.3 8.8 35.8 8.8 41.6 0 3.4 1.9 7.3 4.6 9 3.6 2.2 4.4 4.6 3.4 11.9-1 6.6.5 12.6 4.9 22.1 6.8 13.6 11.9 34.8 16.3 66.4a207 207 0 0 0 8.5 34.1 165.8 165.8 0 0 1 12.2 55.9c1.7 24.1-.5 28.9-10.2 21.6-6.6-4.9-7.1-4.9-14.1-.5-8.1 5.1-27.3 5.9-43.8 1.7zm6-172.2c0-12.2-6.1-23.8-13.4-25.8-5.8-1.5-6.1-1.9-2.4-5.8 1.9-2.2 2.9-4.9 1.9-5.6-2.2-2.4-15.3-1.9-15.3.5 0 3.4 14.4 37.2 17.3 40.9 1.5 1.7 4.9 3.2 7.3 3.2 3.4-.1 4.6-1.8 4.6-7.4zm-16.8-117.2c-1-7.3-2.7-10.7-5.6-11.2-3.6-.7-3.9.2-1.7 7.3 1.5 4.4 2.9 9.5 3.6 11.2 2.3 7.3 5 1.9 3.7-7.3zm-657-133.8c-7.8-23.1-22.6-64.9-32.8-93.2-10.5-28-23.1-64.2-28.5-80.3a2010 2010 0 0 0-20.2-57.2 293 293 0 0 1-12.2-38.9c-1-6.1-10.7-38.2-21.9-71.8-11.4-33.3-28.7-91-38.7-127.7-10-36.7-19.7-70.5-21.6-74.9-3.2-7.8-3.4-7.8-7.5-3.2-3.9 4.4-3.6 6.3 5.8 43.1 13.9 53.5 16.5 62.3 26 87.3a327.7 327.7 0 0 1 12.9 44.3 803 803 0 0 0 22.6 71.8 4373 4373 0 0 1 41.8 122.4 2382.2 2382.2 0 0 0 48.6 135c31.9 79.1 34.5 85.1 37.5 85.1 1.4 0-4-19-11.8-41.8zm587.5-20.7c-4.4-20.4-9-29.9-14.4-29.9-2.7 0-2.4 3.2 1.5 16.5 5.4 18 13.6 35.8 15.8 33.8.7-.7-.5-9.9-2.9-20.4zm-19.7-55.7c1.7-4.4-2.4-13.1-6.1-13.1-1.5 0-1.9 1.7-1.2 3.9s1.5 5.8 1.5 8.5c-.1 5.6 3.6 6.1 5.8.7zm28.2-14.3c-3.2-10.9-6.3-15.3-9-12.4-2.2 1.9 4.1 21.6 7.3 23.8 4.6 2.9 4.9.2 1.7-11.4zm-507.4-237c-1.5-14.8-2.2-17-5.1-14.4-4.4 3.6-3.2 24.1 1.7 29.9s5.3 3.3 3.4-15.5zm-194.6-21.1c-7.3-18.7-7.8-19.5-9.5-17.5-.7.7.5 5.1 2.4 10 1.9 5.1 5.4 12.9 7.3 18 6.8 16 6.3 6.5-.2-10.5zm602.3 4.1c0-1.2-4.9-18.2-10.9-38.2-6.1-19.7-10.9-37-10.9-38.2 0-1.2-3.9-10.9-8.8-21.6-4.9-10.9-8.3-21.4-7.5-24.3 1.7-6.3-18.5-49.6-24.8-53-6.1-3.2-10-3.2-10 0 0 1.5 3.9 13.4 9 26.3 4.9 12.9 9.7 28.9 10.7 35.5a38.6 38.6 0 0 0 12.4 22.9c7.1 7.3 8.5 9.7 4.9 7.8-8-3.9-9-1.7-5.6 12.6 3.4 14.8 8.5 21.4 16.5 21.4 6.6 0 6.8.7 1.5 8.8-3.9 6.1-3.9 6.3 3.2 11.9 6.8 5.6 6.8 5.8 1.7 6.1-9.7 0-5.8 17.5 4.9 21.9 6.9 2.8 13.7 2.8 13.7.1zm-390.9-40.4 1.5-17-4.9 10.5a63.5 63.5 0 0 0-3.4 39.4c1.9 5.6 2.4 5.1 3.9-4.9.7-6.1 2.1-18.5 2.9-28zm328.1-148.6c1.9-1.7-5.6-20.4-8-20.4-1.2 0-3.2 2.2-4.9 5.1-2.2 4.1-1.7 6.1 2.9 10.9 5.6 6.1 7.6 6.8 10 4.4zm-606.2-54.7a198.4 198.4 0 0 0-10-32.4c-3.2-3.4-2.9-1.5 4.1 26 9.5 38.2 11.4 44.5 12.4 40.4.6-2.2-2.3-17.5-6.5-34zm-11.4 18a36.3 36.3 0 0 0-4.4-15.3c-1.5-1.9-5.4-18.5-8.3-36.5-10.7-63.2-10.2-60.8-15.1-60.8-8.3 0-9 6.8-3.2 30.2 2.9 12.2 7.5 31.1 9.7 42.3 3.2 14.6 5.6 20.4 8.8 21.4 3.6 1 4.1 2.9 2.9 10.9-1.2 7.3-.5 10.7 2.7 14.4 6.6 7.2 8.1 5.8 6.9-6.6zm609.8 2.4c0-1-2.4-4.1-5.4-7.3-5.6-5.8-10.7-7.1-16.5-3.2-2.7 1.7-1 3.2 7.3 7.1 12.2 5.3 14.6 5.8 14.6 3.4zm-19.4-27.2c0-8.8-2.7-12.9-6.3-9.7-4.1 3.4-4.4 7.5-.5 11.4 4.1 4.1 6.8 3.6 6.8-1.7zm-9.8-27a16.7 16.7 0 0 1-1.7-10c.7-2.4-3.4-14.1-9.2-26-10-20.4-16.8-29.4-19.7-26.5-.7.7 2.7 14.8 7.8 31.4 6.6 22.1 10.7 31.4 15.3 35.3 7.3 6.2 11.7 3.8 7.5-4.2zM575 12662c-1.7-17.8-6.8-31.1-12.2-31.1-1.2 0-.7 5.1 1.2 11.7l7.3 25.8a44 44 0 0 0 4.9 13.4c.3-.6 0-9.6-1.2-19.8zm-28.5-53c-.2-20.7-5.6-47.2-10.2-51.8-3.4-3.4-3.4-.7 1 39.6 1.9 18 3.6 35 3.6 37.7l.2 4.9 2.9-4.9c1.8-2.9 2.8-13.1 2.5-25.5zm582.6 17.7c.7-4.9-5.6-12.4-8.3-9.7-.7.7-.7 4.9.2 9 1.8 8.2 6.9 8.7 8.1.7zM2615.1 13669c-22.1-11.9-41.8-35.3-59.8-70.1-23.6-45.7-27-64.5-15.8-86.8 9.7-19.2 19.5-29.4 35.8-37.7 12.6-6.3 16.8-7.3 27.5-6.1 15.6 1.7 23.4 5.6 49.6 25.1a226.4 226.4 0 0 1 51.1 52.1c4.6 6.1 13.6 16.5 19.9 23.6 10.2 11.2 14.1 17.8 10.5 17.8-.7 0-5.4-3.6-10.2-8a339.7 339.7 0 0 0-19-15.1l-9.7-7.1 6.1 7.1 6.1 7.1-6.6-4.1c-18.5-11.4-19.5-12.2-16.1-14.4 2.2-1.7 1.9-1.9-1.5-1-2.9 1-9.2-2.2-19.9-10.7a108.3 108.3 0 0 0-17.5-12.2c-1.2 0-4.1-2.2-6.8-5.1-6.8-7.5-42.3-26-53.8-28-8.5-1.2-10.5-.7-12.6 3.4-1.5 2.7-2.7 9-2.7 13.9 0 12.2 7.1 42.6 10 42.6 1.2 0 5.1-1.7 8.3-3.9a15 15 0 0 1 11.7-2.4c7.3 1.7 54.7 48.6 59.4 58.6 1.9 4.1 5.1 10.2 7.1 14.1 9.7 17.8 5.4 35.5-11.4 47.7-13.4 9.4-21.7 9.4-39.7-.4zm34.8-23.6c0-11.2-16.3-32.4-41.1-53.5a178 178 0 0 0-23.8-18.7c-2.2 1.9 12.9 30.2 25.1 46.7 9.2 12.9 32.4 32.6 37.9 32.6 1.2 0 1.9-3.2 1.9-7.1zM3116.2 13641.1c-2.7-3.2-4.1-6.3-3.4-7.1.5-.7 2.9 1.7 5.1 5.4 5.6 8 4.2 9.4-1.7 1.7zM2737.5 13602.6c-1.9-2.2-1.9-3.6-.5-3.6 2.9 0 6.3 4.6 4.6 6.3-.5.5-2.4-.5-4.1-2.7zM1990 13534c-2.2-2.7-4.1-8-4.1-11.9s-5.6-23.4-12.2-43.3c-6.8-19.9-12.2-39.2-12.2-42.6s-2.4-10.2-5.4-14.8a38 38 0 0 1-5.6-19.5c-.7-17.5-26.5-85.4-36-94.4-5.1-4.9-41.4-14.1-45.2-11.7-1 .7-6.1-1.7-11.4-5.4-8-5.6-11.7-6.6-24.6-6.1-13.1.2-15.3-.2-15.3-4.1 0-6.1-5.4-9.7-16.3-11.2l-9.2-1 9.7 4.9 9.7 4.6-8.8.2a130 130 0 0 1-43.3-11.9c-4.9-2.4-11.4-5.6-14.8-7.1-4.4-1.9-4.9-2.7-1.7-2.7 8-.5 4.1-5.1-4.1-5.1-4.6 0-9.2-1-10-2.4-.7-1.2-7.8-2.4-15.6-2.4-7.5 0-14.8-1-16.1-2.2-3.2-2.9-41.6-15.8-61.8-20.9-14.4-3.4-31.6-11.7-108-52.3-34.1-18-35.5-20.4-24.6-41.1 3.9-7.5 9-13.9 11.2-14.4 2.2-.5 15.8 7.1 30.4 16.8a461 461 0 0 0 54.2 30.4c15.3 6.8 38.9 17.8 52.1 23.8 38.2 18 61.8 27.2 90.5 35.5a838.3 838.3 0 0 1 43.1 13.4c9.2 3.4 18.5 6.1 20.7 6.1 2.4 0 7.1 1.9 10.2 4.1 3.4 2.4 21.4 7.3 40.1 10.9 18.7 3.6 37.2 7.5 41.4 8.3 5.8 1.2 6.8 1 4.6-1.7a46.5 46.5 0 0 1-4.1-16.8l-1.2-13.4 5.6 16.1c6.1 17.5 13.9 31.1 15.3 27 1-3.4-8.8-38.4-13.1-47.2-1.7-3.4-6.6-18.7-10.7-34.1a331.3 331.3 0 0 0-13.6-40.6c-3.2-7.3-8.5-23.1-11.9-35.3-9-33.6-30.2-99.5-32.8-102.2-3.9-3.9-2.9-17.8 1.5-19.5 5.8-2.2 1.9-5.8-5.1-4.4-4.6.7-6.1 0-6.1-3.4 0-2.4-2.7-13.1-5.8-23.8a109.7 109.7 0 0 1-5.6-37.2c.2-12.2-.7-18.7-2.9-20.7-2.9-2.7-3.2-2.4-1.7 1.5 1.9 5.6-.7 20.9-3.6 20.9-1.2 0-2.2-1.7-2.2-3.6 0-2.4-1.9-3.2-6.6-2.4-6.3 1.2-8.5-1.2-33.3-35.5-24.1-33.6-26.8-36.2-29.2-31.6l-2.7 5.1-3.2-5.1c-2.7-4.4-2.7-5.6.7-8 3.4-2.4 2.9-3.9-4.1-13.1a35.6 35.6 0 0 0-16.5-12.9c-6.6-1.9-12.6-7.8-27.5-26.8-10.7-13.1-20.7-24.1-22.4-24.1-2.7 0-2.9 7.1-2.2 34.8 1.2 37.5 5.4 61.3 20.4 120.2 12.6 48.4 14.6 71.3 7.8 86.6-4.4 9.7-8.3 13.4-28.9 27l-23.8 15.6-5.4-8.5c-3.4-5.8-4.9-11.2-3.9-16.3 1-6.3-1.2-10.7-13.6-27.5-8-10.9-15.8-20.4-17-21.2-4.4-2.7-8.8 1.2-17.5 15.1a55.4 55.4 0 0 1-23.1 22.4 484.3 484.3 0 0 0-28.2 17.3c-18.7 12.9-23.4 12.4-35.5-3.2-20.2-26.5-92.9-164.9-119.2-227-15.1-36.2-23.6-69.8-21.2-85.1 1.7-12.2 22.1-45.2 36.5-58.9s36-13.6 51.6 0a787.5 787.5 0 0 1 67.9 81c6.3 9.2 13.4 19 15.8 21.6 8.3 9.5 50.8 82 50.8 86.8 0 2.7 1.9 5.4 4.4 5.8 2.2.7 7.8 7.8 12.2 15.8 4.4 8 9.2 13.9 10.5 12.9 1.5-.7 2.4-8.3 2.2-16.3-1-39.2 1.9-66.2 9.2-89.8a132.4 132.4 0 0 1 32.1-59.1c15.6-17.8 24.3-22.9 39.9-23.1 11.4 0 12.4.5 30.4 18 12.6 12.4 23.1 26 33.1 42.6a234 234 0 0 0 15.3 23.6c.2-.5-1-11.7-3.2-25.1a598.5 598.5 0 0 1-4.1-63c-.5-35.8-.2-39.6 4.9-51.1 7.3-16.1 23.4-31.4 49.4-46.7 31.1-18.7 55-21.9 77.1-10.5 12.2 6.3 36.2 28.2 38.4 35 1 2.9 6.3 11.4 11.9 18.7s18 27.2 27.5 44.5c15.3 27 17.5 32.6 17.5 43.1 0 13.6 3.6 24.1 15.1 43.1l7.5 12.4 7.1-9.5c11.4-15.8 26.3-28.7 36.2-31.6 18.7-5.6 46.9 11.4 60.3 36.5a166 166 0 0 0 17.5 26 62 62 0 0 1 10.9 17.5c2.9 13.9 9.7 26 22.9 40.4 7.3 8.3 18.7 24.1 25.3 35.3 13.9 23.4 15.6 22.6 15.8-6.3.2-14.8 1.7-20.9 10.5-41.4a114.4 114.4 0 0 1 27-41.4c32.8-34.3 62-41.6 100.5-24.3 16.3 7.3 20.4 10.5 27.7 20.7 4.6 6.8 12.6 17 17.8 22.9 27.7 31.6 26.3 30.4 24.8 23.8a1143 1143 0 0 1-13.4-91.2c0-5.4 2.9-19.9 6.3-32.6 3.4-12.9 5.6-25.3 4.6-28.7-.7-3.4-.7-8.3 0-10.7 2.2-6.6 41.1-25.1 48.2-23.1 2.9 1 10.2 7.1 16.1 13.9l10.5 12.2.5 21.2c.5 19.7 1.7 24.3 19.2 71.5a2853 2853 0 0 0 97.1 216.5c9.5 18.5 18.5 28.7 25.3 28.7 1.9 0 3.9 2.9 4.6 6.8 3.6 17 7.8 26.3 15.3 33.8 4.4 4.4 8.8 8 10 8 1 0 3.9-9 6.3-19.9a182 182 0 0 1 9.2-31.9 60.4 60.4 0 0 1 32.8-31.1c7.3-2.4 9.2-2.2 14.8 2.2 7.3 5.4 7.1 2.4 3.4 63.7-2.7 43.5-5.4 51.3-24.1 67.9-12.4 10.7-27.2 16.5-50.1 19-23.6 2.4-28-1.5-53.3-45.5-5.6-10-16.5-27.5-24.1-38.9-7.8-11.4-18-28.7-22.9-38.4-4.9-9.5-9.5-17.5-10.2-17.5-4.1 0 6.6 38.9 19.7 71.5 7.8 19.2 7.5 36.7-.2 45.5-2.4 2.9-14.6 10-26.5 15.8-17.5 8.5-24.8 10.7-34.8 10.7h-12.6v-11.4c0-6.8-8.5-43.1-19.7-84.7a1923.5 1923.5 0 0 1-21.6-86.4c-2.7-17.3-13.6-46.5-19.5-51.1-37.2-30.2-100.9-71.8-121.4-79.1-13.4-4.6-25.5-4.6-29.4 0-3.2 3.9-.2 32.8 6.3 65.2a783 783 0 0 0 30.4 95.1 99 99 0 0 1 7.1 23.1c0 3.6 4.4 10 12.2 17.8 6.8 6.6 12.2 13.6 12.2 15.6 0 10.7-46.2 41.4-59.6 39.4-3.6-.5-9.5-10.2-23.4-38.4l-18.7-37.7-39.6-41.4a3345.1 3345.1 0 0 1-79.3-86.4 850 850 0 0 0-49.4-53l-9.7-8v7.3c0 23.6 21.6 92.2 42.8 135.5 17 35 19.7 70.5 6.3 86.4-7.3 8.8-28 19.7-33.3 17.8-10.7-4.1-44.3-90.7-74.4-191.9-10-33.3-10.7-60.3-2.7-81.2l5.1-12.9-32.8-43.1c-28.9-37.7-49.9-59.4-53.5-55.5-.7.7 1.7 6.8 5.1 13.9 3.6 7.1 5.4 12.4 4.1 11.9-1.5-.5-8.5-8.8-15.8-18.2-12.6-16.3-13.1-17.3-7.1-16.1 6.1 1.2 6.1 1-4.1-11.9l-15.1-19c-2.7-3.2-5.4-5.1-6.3-4.4-.7 1 2.7 6.3 7.5 12.4a63.6 63.6 0 0 1 8.8 12.2c0 4.4-5.8-1-26.3-23.8-23.1-26-32.1-31.9-38.7-25.1-5.4 5.1-12.9 37.5-12.9 55 0 42.8 28.5 186.6 44.8 224.5a31.7 31.7 0 0 1 3.2 13.4c-.2 2.4 2.4 13.1 6.1 23.8 3.4 10.7 10.5 33.1 15.3 49.9s11.9 38.7 15.8 48.6c10.5 27.7 53.8 161.3 53.5 165.4 0 2.2 2.2 8 4.9 13.4a44 44 0 0 1 4.9 14.6 28 28 0 0 0 4.9 12.2c2.7 4.1 6.6 13.6 9 21.4 4.6 17.3 9.7 21.2 30.6 23.8 31.6 4.1 40.9 6.3 44.8 10.2 2.2 2.2 3.4 4.6 2.9 5.4-.7.7-12.9-.5-26.8-2.4a389 389 0 0 0-32.6-3.4c-6.8.2-6.6.5 4.9 6.1a58.4 58.4 0 0 0 23.6 5.8c6.3 0 16.5 1.7 22.9 3.9s13.9 3.4 17 2.7c3.2-.5 14.8.5 26 2.2 37.2 6.1 94.9 10.9 97.5 8.3 1.2-1.2 1.9-2.9 1.2-3.4-.5-.5-30.2-4.6-65.9-9-53.8-6.8-64.7-8.8-62-11.4 2.7-2.4 14.1-1.9 64.9 3.2 55.2 5.8 68.6 6.3 125.3 5.1 48.2-1 66.7-2.2 77.8-5.1 14.4-4.1 14.6-4.1 18.7 1.2 5.4 6.6 5.6 11.9.5 19-2.4 3.6-3.4 7.8-2.4 11.9 1 3.4.5 9.7-1 14.4-2.2 6.6-4.6 8.8-11.7 10.5-16.3 4.4-91.2 3.2-148.9-2.2-51.1-4.9-55.2-5.6-61.1-11.2a21.5 21.5 0 0 0-12.2-5.8c-5.4.2-5.6.5-1.5 3.4 2.2 1.7 4.1 3.6 4.1 4.4 0 1.2-12.2 0-21.9-2.2l-6.1-1.2 6.1-2.4 6.1-2.4-6.1-1.9c-10.2-2.9-35.5-5.1-31.9-2.7 5.6 3.6-.2 4.1-18.5 1.9-18.7-2.2-24.1-6.6-8.5-6.8 7.3 0 8-.5 4.1-2.2-6.6-2.9-18.2-2.9-18.2-.2 0 1.2-3.2 2.9-7.1 3.9l-7.3 1.5 3.2 10.2c1.7 5.6 13.9 40.1 26.8 76.6 21.2 58.6 23.8 68.1 22.9 78.6-1.7 16.3-7.8 22.4-28.2 27.7-26.2 6.6-30.6 6.8-35.4 1.7zm-46.5-203.6c-3.4-8.3-10.9-13.1-7.8-5.1.7 2.2 3.4 10 5.6 17.8 4.4 13.9 4.4 13.9 5.1 4.9.5-4.9-.9-12.7-2.9-17.6zm240.6 10.5c-5.4-1-12.9-1.9-17-1.7h-7.3l7.3 1.9c4.1 1 11.7 1.9 17 1.9h9.7l-9.7-2.1zm53.5-11.9c2.7-1.2 4.4-2.2 3.6-2.4-4.1-1.5-46.2-2.4-46.2-1.2 0 5 32.4 7.9 42.6 3.6zm-331.3-38c-1.7-4.4-11.2-9.5-22.6-11.9-4.6-1-10-2.7-12.2-3.9-7.3-4.1-28.9-9-33.8-7.8-11.7 2.9-3.9 7.3 24.6 13.6 16.5 3.6 32.6 8.5 36 11.2 6.8 5.1 10.2 4.7 8-1.2zm-82.2-28c-2.2-3.2-20.9-5.4-23.8-2.4-1.9 1.9-1.2 2.7 2.4 2.7 2.7 0 7.5 2.2 10.7 4.9 5.4 4.1 6.1 4.4 8.8.7 1.6-2.2 2.4-4.6 1.9-5.9zm134.7-1.9c-1.7-5.6-3.9-10-5.1-10-2.9 0-2.4 3.2 1.9 13.4 4.9 11.7 7.1 9.5 3.2-3.4zm-172.4-7.5c-6.3-4.9-23.8-11.9-44.8-18.2-9.7-2.9-11.2-2.9-9-.2 3.2 3.9 10.7 7.1 36.7 16.3 22.7 7.7 24.6 8.1 17.1 2.1zm114.1-120.2c-20.2-61.1-36-111.9-35.3-112.6 1.7-1.7 7.1 4.4 12.2 13.9 1.9 3.4 13.4 37.9 25.8 76.6 23.4 74.2 29.4 90 30.9 83.9 1.2-5.6-3.6-21.2-32.8-105.8a5475.9 5475.9 0 0 1-35-104.4c-4.4-14.6-9.2-27-10.7-27.5-3.4-1.2 1.2 19.7 7.5 34.3 3.9 9 3.2 19.2-1 14.6-1-1.2-4.4-10.9-7.3-21.6-3.2-10.7-8.8-28-12.6-38.4-10-26.5-36.7-134-44.8-179.3-7.3-41.8-9-48.4-10.2-38.7-1.7 11.4 20.4 122.1 32.8 165.2 33.1 113.8 51.3 174.4 60.6 200.7 6.1 17.5 17.5 50.8 25.3 74.2 18.7 55.9 29.9 84.9 30.9 80a2204 2204 0 0 0-36.3-115.1zm676.2-87.1c-10.5-19.9-44.3-74.9-45.5-73.7-2.4 2.2 20.7 45 33.6 62.8 12.1 16.3 17.2 20.9 11.9 10.9zm-958.2-79.5c-4.4-14.4-12.9-29.4-17-29.4-1 0-2.4-2.4-3.2-5.6-1.9-7.3-28.5-49.1-38.7-61.3a542.6 542.6 0 0 1-21.2-27.2c-12.2-16.8-17.3-21.2-17.3-14.8 0 4.4 22.6 38.7 43.8 66.7a325.9 325.9 0 0 1 28.2 43.1c12.9 25.8 25.3 45.7 27.7 44.3 1.1-1 .2-8-2.3-15.8zm-69-18.8a65 65 0 0 0 1.9-28c-2.7-11.2-50.8-82.5-55.9-82.5-1.9 0-3.4-1-3.4-2.4 0-1.2-6.6-9-14.6-17.3a89 89 0 0 1-14.6-17.5c0-5.1-15.3-26.3-25.3-34.8l-10-8.5-1.9 7.3c-1.9 8.3 1.7 16.8 21.6 50.6a143.8 143.8 0 0 1 14.6 32.1c2.2 7.8 8.5 19.9 16.3 30.9a1008 1008 0 0 1 24.1 36.7c12.2 19.9 37.2 51.8 40.9 51.8 1.1.1 3.8-8.1 6.3-18.4zm304.3-3.9c-2.9-13.9-21.6-78.6-23.6-82-1.9-3.4-2.2-3.2-2.4 1 0 12.9 21.2 86.4 25.1 86.4 1.1 0 1.6-2.4.9-5.4zm320.8-13.3a64.8 64.8 0 0 0-11.9-14.8c-7.3-7.1-8.5-7.5-11.4-4.4-1.9 2.7-5.1 3.4-9.5 2.2l-6.3-1.5 4.9 5.8c6.6 7.8 9 9.5 14.6 9.5a22 22 0 0 1 10.9 4.9c9.2 7.3 13.1 6.3 8.7-1.7zm-376.1-20.5c-1.9-3.2-1.9-5.8-.5-7.8 1.7-1.9.7-5.1-3.6-10l-5.8-7.1 1.7 9.5c2.4 13.4 5.4 20.4 8.3 20.4 1.6.1 1.6-1.3-.1-5zm613-10.7c-2.9-3.2-4.9-7.5-4.1-9.5 1.9-4.9-.7-6.6-5.8-3.6-6.6 3.4-5.8 6.3 4.6 15.6 9.7 9.2 14.1 7 5.3-2.5zm-270 2.5c0-3.6-17.3-28-21.6-30.2-7.8-4.4-8 .7-.2 9.7 3.9 4.6 7.1 10 7.3 12.2 0 4.9 4.9 9.5 10.2 9.5 2.4 0 4.3-.5 4.3-1.2zm-357.6-16.1a108 108 0 0 0-12.9-25.8c-9.2-14.1-13.9-17-13.9-9.2 0 3.4 27.2 47.7 28.7 46.2.6-.5-.4-5.6-1.9-11.2zm607.2-8c-1.2-4.9-5.6-8.5-33.6-26.5-6.8-4.6-6.8-4.6-6.8.5 0 5.6 11.4 15.1 25.1 20.7 5.6 2.2 10 6.1 11.7 10.5 3.1 7.7 5.8 3.8 3.6-5.2zm-569-58.4c-.7-1.9-2.2-7.5-3.2-12.2-.7-4.9-2.4-8.8-3.4-8.8s-.7 5.6.7 12.2c1.2 6.8 3.4 12.2 4.6 12.2 1.6 0 2.1-1.4 1.3-3.4zm-42-19.7a150 150 0 0 1-6.1-21.2c-2.7-12.6-5.8-19-9.5-19-3.4 0 4.1 38.2 10 48.9 5.6 10.7 5.8 10.9 7.5 5.4 1-3.4 0-9.5-1.9-14.1zm-15.6-74.9a129.5 129.5 0 0 0-5.1-23.6c-1.9-3.6-.7 22.6 1.9 43.8 1.2 10 1.5 10.5 3.9 5.4 1.7-4 1.7-11.3-.7-25.6z" class="st0" transform="matrix(.1 0 0 -.1 0 1491)"/><path d="M1354.6 13377.1a400 400 0 0 1-8.5-33.3c0-1.5 1.5-2.7 3.4-2.7s4.9 6.3 7.5 16.5c2.4 9 4.9 17.8 5.6 19.5.5 1.5-.7 2.9-2.9 2.9a5.8 5.8 0 0 1-5.1-2.9zM1283.1 13263c-3.6-10.5-3.4-14.4 1-14.4 2.9 0 13.4 16.1 13.4 20.7 0 .7-2.7 1.2-5.8 1.2-4.5.1-6.7-1.9-8.6-7.5zM4463.3 13243.8c-5.1-6.8-8.5-13.1-7.5-13.9.7-1 1.7-1 2.2-.5 11.9 15.8 18.7 26.5 16.8 26.5-1.5.1-6.6-5.5-11.5-12.1zM3176.8 13242.1c-.7-3.9-1.9-9.2-2.9-12.2-1-3.2-.5-5.6 1-5.6 1.2 0 3.2 3.9 3.9 8.8 1 4.6 2.4 10.2 3.2 12.2.7 1.9.2 3.4-1.2 3.4-1.3 0-3-2.9-4-6.6zM1265.3 13143.6c-6.3-19-11.2-34.8-10.7-35.3 1.2-1.5 13.1 22.1 17.3 34.5 4.6 14.1 8.5 35.3 6.3 35.3-.9.1-6.8-15.5-12.9-34.5zM1239.6 13115.6c-6.8-18.7-3.9-21.6 4.9-4.6 6.3 12.6 7.1 18.5 2.2 18.5-1.3 0-4.5-6.3-7.1-13.9zM4008.5 13100.8c-6.6-3.4-10.9-6.6-9.2-7.1 3.4-1.2 26 10.5 23.4 12.2-1.1.7-7.4-1.7-14.2-5.1zM1233.2 13081.8a131 131 0 0 0-3.2-12.6c-1-2.7 1-1.9 5.4 2.4 5.4 4.9 6.3 7.8 5.1 12.6-2.2 9.1-5.6 7.8-7.3-2.4zM1825.5 13032c-2.9-8.5-5.1-17-5.1-19 .2-2.2 2.9 4.4 6.1 14.4a99 99 0 0 1 5.1 19c-.5.4-3.1-6.2-6.1-14.4zM3096.3 13027.3c-5.1-6.8-8.5-13.1-7.5-13.9.7-1 1.7-1 2.2-.5 11.9 15.8 18.7 26.5 16.8 26.5-1.6.1-6.7-5.5-11.5-12.1zM1813.4 12987c0-2.7.7-3.4 1.5-1.5.7 1.7.5 3.9-.2 4.6-.8 1-1.6-.5-1.3-3.1zM1765.9 12910.6c-9.2-12.9-10-14.6-6.6-14.6 1 0 5.1 4.6 9 10.2 10.7 15.6 11.2 16.5 8.5 16.5-1.1 0-6-5.6-10.9-12.1zM1145.2 12820.6c-6.6-18.5-3.4-19.2 3.6-1 5.8 15.3 5.8 15.6 3.2 15.6-1 0-3.9-6.6-6.8-14.6zM1106.5 12713.1c-7.3-17.5-8.5-22.4-5.8-24.1 1.7-1 3.4-1.7 3.9-1.5 1.2 1.2 17.8 41.4 17.8 43.1 0 1-1.5 2.4-3.4 3.2-2.5.9-6.2-5.2-12.5-20.7zM1097.3 12679.5c-1-1.9-7.1-17.8-13.6-35.3-6.6-17.3-12.6-33.8-13.9-36.5-1.7-4.6-1.7-4.6 3.2-.5 10.2 8.8 29.4 60.6 26.8 71.8-.8 3.4-1.3 3.7-2.5.5zM1046.9 12536.5c-13.6-40.1-13.6-39.4-6.3-30.9 7.8 9 17.5 32.6 19.7 47.9 3.1 21.2-2.7 13.6-13.4-17z" class="st0" transform="matrix(.1 0 0 -.1 0 1491)"/></svg>