<svg xmlns="http://www.w3.org/2000/svg" xmlns:xlink="http://www.w3.org/1999/xlink" xml:space="preserve" id="Layer_1" x="0" y="0" style="enable-background:new 0 0 506 279" version="1.1" viewBox="0 0 506 279"><style>.st3{fill:#0a483a}</style><defs><path id="SVGID_1_" d="M37 20.4h432v238.2H37z"/></defs><clipPath id="SVGID_00000054262662290912432840000014544928915196736944_"><use xlink:href="#SVGID_1_" style="overflow:visible"/></clipPath><g style="clip-path:url(#SVGID_00000054262662290912432840000014544928915196736944_)"><defs><filter id="Adobe_OpacityMaskFilter" width="87" height="121.8" x="58.7" y="28.2" filterUnits="userSpaceOnUse"><feColorMatrix values="1 0 0 0 0 0 1 0 0 0 0 0 1 0 0 0 0 0 1 0"/></filter></defs><mask id="mask0_1125_1462_00000044179785411697092580000017547163619691359654_" width="87" height="121.8" x="58.7" y="28.2" maskUnits="userSpaceOnUse"><path d="M469 20.4H37v238.2h432V20.4z" style="fill:#fff;filter:url(#Adobe_OpacityMaskFilter)"/></mask><path d="M145.4 28.2c.4.6.3 1.6.2 2.3-.2 1.4-.2 2.9-.9 4.2-1 2-.9 4-1.4 6.1-.3 1.2-.5 2.4-1.4 3.5-.2.3-.1.8-.2 1.4l.3.3-.3.2c-.6.3-.8.5-.5 1 .1.4-.2 1-.4 1.5-.2 1.5-.3 3-2 4.4 1.1.3.9.7.7 1.5-.5 1.5-.7 3.1-1.1 4.6-.3 1.1-.9 2.2-1.3 3.4l-.2.6-1.1 4.9c-.2.6-.7 1.3-1.2 2l.6.5-1 .7.3-.1-1.2 4.2-.8 3.6c-.2.7-.7 1.4-.9 1.8l-1 2.6-.1.3a63.9 63.9 0 0 1-2.2 7.5l-1.5 4-1.1 2.5-.7 1.3c.3 1.4.1 2.3-1.5 4.6l.7.5-.2.3-.5.6c-.1 1-.3 1.9-.7 2.9-.4 1-.9 1.8-1.2 2.8l-.5 2-.8 2.7-1.9 5.2a95 95 0 0 0-1.7 4.9l-2.2 6.4c-.5 1.5-1.2 3-1.8 4.4l-2.2 5.2-.3.6-3.1 3.9c-.5.6-1 1-1.8.9-1.3-.3-2.7-.2-3.6-1.2-.3-.3-1.1-.1-1.6-.4-2.3-1-3.6-2.8-5-4.5-.5-.7-.5-1.7-.8-2.5-.7-2.1-1.5-4.2-2-6.3a44 44 0 0 1-1.3-5.2c-.6-3.3-1.2-6.5-1.6-9.8L88 106.9l-.8-7.3.2-1.3 1.4.3-.4-1.3-1.4.7-.8-33.9-.3.1-1 1.9-.9 1.6-.1 1c-.5 1.4-1.2 2.6-1.8 3.8l-.4 1.4-1.4 4.8c-.4 1.2-1.2 2.4-1.8 3.5-.2.4-.1.9-.2 1.3l-2 5c-.3.7-.4 1.5-.6 2.3l-.3.9-1.9 5.1c-.4 1-.9 2-.6 3 .1.3-.3.7-.5 1.2l-1.3 3.1-.2.9c-.1.9-.6 1.8-.5 2.7.1.9-.4 1.9-.7 2.9l-1 3.1-1 3.3-.7 3.5-.7 5.6a88.7 88.7 0 0 0-.5 14.7c.1 1.6.6 3.3 1 4.9l.5 2c0 .1.1.3 0 .4-.7.5-1.2 1.3-2.1 1.6-.6.3-1.7 0-2.2-.3-1.7-1.1-1.9-2.9-2.6-4.5a21.2 21.2 0 0 1-1.4-10l.7-10.3c.1-1.9.7-3.7 1.1-5.5l1.9-8.2c1.2-4.2 2.2-8.5 3.6-12.8 1.4-4.5 3.1-8.8 4.6-13.3l3.1-9 2.7-6.8c.5-1.5.8-3.1 1.2-4.6l.5-1.2.6-2.7 1.2-3.3 2-4.6c.1-.3.3-.6.5-.7 3.4-1.1 6.5-.8 9.3.8.5.3.5 1 .5 1.6.3 3 .5 6 .6 9.1v5.9c.1 1.6.3 3.1.2 4.7l-.1 8.5c.1 1.2.2 2.3.1 3.5-.1 1.7-.2 3.3-.1 4.9.1 1.3.5 2.5.5 3.7.1 1-.1 2-.1 2.9 0 .7.3 1.4.3 2l.7 9.3.5 3.7 1 6.1 1.2 6.6 1.9 7.1a43.5 43.5 0 0 0 2.4 6.8c.4-1 0-2.2 1.8-2.2l-.7 3.1c.5-.5.8-.7.9-1l2.6-5.9 2.4-7c.2-.6-.2-1.6 1.4-1.7l.5-.7c-.5-.6.3-1.1.5-1.6.1-.2.2-.5.1-.7-.4-.7.2-1.4.9-2l.1.9c.5-.5 1.8-1.1.3-1.8-.3-.1-.1-.7.3-1.2l.1 1.2.7-1.4-1.2-.1c.3-.7.4-1.7 1-2 1-.6 1-1.4 1.4-2.1l.9-1.8.5-1.8c.2-.7.7-1.4.9-2l.4-2.2 2.1-6.4 2.7-8.2 2-5.8 2.2-6.4c.3-.8.9-1 1.6-.7l-1.6 2.9c-.3.7-.9 1.5-.3 2.3.3.3-.3 1-.5 1.5l-.5 1.4c-1.5 1-.7 2.5-.7 4.2l.8-.7 1.9-5.8 1.6-4.7-1-.1c1.6-.5 1.5-1.4 1.8-2.5.3-1.3.8-2.7 1.4-4.2l-1.3.5c-.1-.1-.3-.1-.3-.3l.8-.7c1-.5 1.3-1.2.6-1.8-.6-.7-.2-1.4.6-1.6 1-.3 1-.8 1-1.3l.5-1.8.2-1.4.1-.5c1.5-1.2.6-2.7 1.4-4.1.1-.2-.4-.6-.6-1l.5-1.5 1 .5c.2-.7.7-1.4-.5-1.4-.4-1.2.5-2 1.3-3s1.1-2.2 1.5-3.3c0-.1-.5-.4-.9-.5-.3-.1-.7.2-.8.4l-.8 2.5c-.6 1.8-1.3 3.7-1.8 5.6l-.7 2.9a2 2 0 0 1-.5 1c-.3-.5-.5-1.1-.1-1.8.3-.6.4-1.3.6-2l1.6-5.4.6-2.7c.1-.3-.3-.7-.4-1a7 7 0 0 0-1 .8l-.1-1.1 1.1-.1c.7-.1 1.1-.3 1.2-.9l1.1-5.2c.1-.5.7-1 .7-1.4s-.4-1-.7-1.5l1.2-.2-1.5-1.2 1.6-.2c-.1-.4-.1-.9-.4-1.2-.1-.2-.7 0-1.3.1.4-1.2 1.3-2.6.1-3.9-.7.9.3 2.2-1.7 2.7.9-1.7.5-3.2.4-4.8 0-.4-.1-1 .1-1 .7-.2 1.6-.5 2-.2 1.2.5 2.4.1 3.5-.1 1.6-.3 3.1-.3 3.7.7l.9-1.3zm-84.2 92.5-.7 7.3c1.1-1 1.6-6.2.7-7.3zm1.3-.4 1.4-7.8-1.1.1v.6l-.2.9-.6 2.7-.4 1.5c-.1.7-.7 1.4.1 2h.8zm.9 1c1-1.3.3-2.8 1-4.2l-.3.1-1.2 4.3.3-.1.2-.1zm.5-8.8c1.2-.7.5-1.6.8-2.4l-.3-.1-.8.7.5 1.9-.2-.1zm15.6-45.2 2.5-7.2-.3.1-.2.3-3.3 7.4-2.6 6.5-3.4 9.8c-1 2.7-2.2 5.4-3.1 8.2-.5 1.4-.6 2.7-1 4l-1.5 3.9c-.6 1.9-1.2 3.9-1.6 5.8l-.7 2.7c0 .2.4.5.7.8l1-2.7 3.4-11.6c.8-2.5 1.9-5.1 2.8-7.7l.7-3c.4-1.2 1-2.2 1.4-3.3.4-1.2.7-2.5 1.2-3.7l1.4-3.4 2.6-6.7v-.2zm-13.2 42.1-.3.1-1.6 5.8.3-.1 1.6-5.8zM72.1 91l-.3.1-1.3 3.1.3-.1 1.3-3.1zm16.4 1.2.2-3.3c-1.2 1.4-1.2 3.2-.1 3.3h-.1zm1.8 5-.5-4.8c-.9 1.2-.7 3.1.5 4.8zm16.4 29.6c.7.9-.8 5-2.2 5.9l2.2-6.1v.2zm.8-2.7 2.7-6.7c.6.6-1.3 6-2.7 6.7zm3.2-7.1-.7-.2 1.6-3.7.7.2-1.6 3.7zm1.7 6.1c.2-.5 1.4-1 .1-1.8l-.4 1.7.3-.1v.2zm2.5-5.1c.2-.6 1.4-1.2.5-1.8l.5-1.2-.4-.3a7 7 0 0 0-1 .8l-.1.4-1 2.7-.6 2.1.3-.1.5-.3a8 8 0 0 0 1.2-2.2l.1-.1zm-.8-10.8-.3.1 1-2.4.3-.1-1 2.4zm2.3 7.2.3-1.6-.7.2c-.3.4-.5 1 .5 1.3l-.1.1zm1.1-2.5c.5-.3.7-.7 1-1.2l-.3.1-2.1 1c.5.1 1.1.5 1.4.4v-.3zm.9-2.1.7-1.6c-.1-.1-.3-.1-.3-.3-.3.3-1 .6-1 .9-.1.3.3.7.4 1h.2zm4.6-12.6 1.6-4.9c-1.8 0-2 .1-2.3 1.8l1.1.1a3 3 0 0 0-.7.5l-.7.4.4.5.5.7c-1.6-.1-2 .6-2.2 3.2l1.2-.5-.7.7c-1.2.6-1.4 1.5-1.3 2.5l-.2.6-1.6 4.1c1.4.2 1.5-.7 1.8-1.3.5-.7.7-1.4 1.1-2.2l.3-.5c-.4-1.2.4-2.2 1-3.3.4-.8.5-1.8.8-2.7l-.1.3zm-.6-13.7c.6.9.5 1.2-.7 2.1l.6-2.2.1.1zm1.4-3.1-1.3 2.5c-.1-.1-.3-.1-.3-.3l1-2.5c.1.1.3.1.3.3h.3zm-.1 1.8 2.2-6.3c.6.9-1 5.3-2.2 6.3zm1.2 9 1-3.5-1.3.4c.1.1.3.1.3.3-.3.4-.9.9-1 1.3-.1.5.3 1 .5 1.5l.3-.1.2.1zm2.9-22.6-1 1.9-.7-.2.6-1.8.7.2.4-.1zm1.8 5.1-1.1.3-.3-.3 1.2-3.9 1.9-5.5.4-1 .9.4-.9 1.7-1.5 4.6-.7 4 .1-.3zm3-11-.7.1 1-3.3.7-.1-1 3.3zm.6-14.7-.6 2.5-.3.1.6-2.5.7-.1h-.4zm-.2 24.1.6-1.8-.7.1-.6 2.1.3-.1.4-.3zm4.2-34.4c1.7 1.1-.3 1.7 0 2.5l-.3.1.3-2.4v-.2zm.9 7.5c1.6-.2 1.9-.8 2.1-3.1-.5.1-1.2.2-1.3.5l-1.5 3.5 1.7-.1v-.3c-.3 0-.5-.2-1-.5zm.7 6.6-.3.1-.6 1.8.7-.1c0-.7 0-1.3.2-1.8z" class="st3" style="mask:url(#mask0_1125_1462_00000044179785411697092580000017547163619691359654_)"/><defs><filter id="Adobe_OpacityMaskFilter_00000163046960572737245710000009198389942925859488_" width="99.1" height="116" x="83.8" y="130.6" filterUnits="userSpaceOnUse"><feColorMatrix values="1 0 0 0 0 0 1 0 0 0 0 0 1 0 0 0 0 0 1 0"/></filter></defs><mask id="mask1_1125_1462_00000069356444335541483720000011357263898906555829_" width="99.1" height="116" x="83.8" y="130.6" maskUnits="userSpaceOnUse"><path d="M469 20.4H37v238.2h432V20.4z" style="fill:#fff;filter:url(#Adobe_OpacityMaskFilter_00000163046960572737245710000009198389942925859488_)"/></mask><path d="m105.8 234.8 1.8-1 2.2-1.6a22 22 0 0 0-2 2.3l-4.6 4.6c-.2.2-.2.6-.2 1 1.4-1.4 2.9-2.4 4.8-3 .1.1.3.1.3.3l-2.8 2.1c.1.1.3.1.3.3l1.1-.4v.3l-1 1v-.3c-.6 0-1.2-.1-1.8.1l-.2 1.2-2.2.8v.3l1.2-.1-.2.3c-3.1 1.6-6.2 2.5-9.7 1.5a14 14 0 0 1-6.1-3.4c-3.1-2.9-2.9-6.5-2.4-10.3.2-1.5.6-3 1-4.5l1-4.2c.2-.7.7-1.4 1-2 .2-.7.7-1.4 0-2v-.4c1.2-1.5.7-3.7 3.1-4.8.3-.1.5-.7.9-1.1l-.3 1.8h.2l2.7-5.3-.7-.2-.7 1.1.2-2.8-.3.1.8-.5.5 2.3 3.1-4.7.3-.9.2-.9c.1-.5.2-1 .5-1.4.2-.3.8-.4 1.4-.7l-2-.5.5-.7.5.8 1.2-1.6.1-.5a3.3 3.3 0 0 1 2.3-2.3v.6l.6-.1 2-3.3-.3.1a22 22 0 0 0-2 2.3l-.3-.3c-.5-.1-1 0-1.6 0l1.7-1.5.5.8 1.4-2.1-1.4-.4c.9-1.4 2-2.7 2.7-4.2.7-1.4 1.7-2.7 2.4-4 .7-1.4 1.7-2.7 2.6-4.2l-1.1-.5a9.9 9.9 0 0 0 4.4-4.7c1-2 2.7-3.7 3.8-5.5l2.1-3.2 2.6-3.4c2.2-2.8 4.1-5.6 6.5-8.3 2.9-3.5 5.8-7 9.5-10.1 1.5-1.2 2.7-2.7 4.2-3.8l6.3-4.4c.3-.2.7-.5.9-1a26 26 0 0 0-7.7 4.2l-6.5 5.5c-.1-.1-.3-.1-.3-.3l2.7-2.7 2.7-2.7c.9-1.2 2.4-2.1 3.8-3 3-1.9 6.3-3.3 10-4a9 9 0 0 1 6.3.7c2.3 1.2 4.4 2.5 6.1 4.3 1.5 1.6 2 3.5 1.7 5.6l-.3 2.4c-.1 2-.7 4-2 5.9-.7 1.3-1.2 2.7-2 4L161 158c-2 2.9-4.2 5.6-6.2 8.4-.2.3-.3.9-1 .5l-.6.3-7.6 7.6-.5.1a200 200 0 0 0 4.3-5.3l3.9-5.2c1.4-1.8 2.9-3.5 4.1-5.4.9-1.3 1.7-2.5 1.8-4 .2-1.1 1-2.2 1.4-3.3l1.4-3.7c.5-1.7 1.2-3.5 1.4-5.2a15 15 0 0 0-.3-6.7c-.1-.2-.5-.5-.7-.5-1.9.1-3.8-.1-5.6 1-.5.3-1.3.3-1.8.6l-6.2 3.7-3.1 1.7a3 3 0 0 0-.7.5l-2.7 2.5-3.7 4.1-2.6 2.9-4.8 5.9c-.8 1-1.7 1.8-2.5 2.9l-2.7 3.9-3.7 5.1c-.9 1.3-1.7 2.7-2.6 3.8-.8 1-1.4 2-2 3.2-.1.2-.6.3-.7.5l-3.3 5.3-1.2.1.7.8c-1.2 1.4-1.6 3.1-3.1 4.3l-1.6 3.1-1.1-.1.1 1.1c-1.3.6-1.3.7-.5 1.4l-1.8 2.2c.4.7.2 1.2-.6 1.9-1 .7-1.4 1.7-2 2.7l-1.4 1.9-.5.8 1.3-.5.3-.1c-.2.3-.3.8-.7 1-.7.4-.8.7-1 1.4-.4 1.2-1.2 2.2-1.9 3.3l-.5 1-2.6 5.6c-1 2-2.1 4.2-2.9 6.2-.7 1.6-1.2 3.1-1.7 4.6l-.1.4c-1.2 1.3-1 2.7-1.2 4.2-.3 1.5-.3 3.1-.4 4.6l.3 2.9c.2 1.6 1.2 2.2 3.2 1.6 2.2-.7 4.5-1.4 6.5-2.4 1.8-.9 3.5-2.2 5.2-3.3.3-.2 1-.2 1.4-.3l-.1 1.2zm-15-20.2c-.9 1.8-1.8 3.4-2.5 5.2l.6.5 1.5-3.4.4-2.3zm-1.6.5-1 2.5.3-.1 1-2.4c-.1-.1-.3-.1-.3-.3v.3zm-.1 6.4 1.4-2-.6-.6-1.3 2.6.3-.1.2.1zm1.8-3.9c.1.1.3.1.3.3l2.9-6.2c-.1-.1-.3-.1-.3-.3l-2.9 6.2zm8.6-17.1L94 210.6c.1.1.3.1.3.3l.5-.3 2.3-4.7c.3-.6.3-1.4 1.2-1.2l.7-2 .1-.6c.2-1.1.7-1.4 1.8-1.2.3.1.8-.1 1.3-.1v-.3l-2.8-.3.1.3zm-3.7 11.7.7-1.6c-.1-.1-.3-.1-.3-.3l-1.8 1.1 1.1.7h.3zm0-9 1-.4v.7l-2 .2 1.9-3.1c.1.1.3.1.3.3l-1.3 2.6.1-.3zm6.2-7.8-2 3.7c.1.1.3.1.3.3l1.6-3.1c.1-.2 0-.5-.1-.7l.2-.2zm2.1-8.6c.1.1.3.1.3.3l-2.1 1.4c-.1-.9.9-1.2 1.6-1.6l.2-.1zm0 3.9 1.6-3.1c-.1-.1-.3-.1-.3-.3l-1.6 2.9c.1.1.3.1.3.3v.2zm1.5 43.8 2.8-2.4c.1.1.3.1.3.3l-2.8 2.4c0-.2-.1-.2-.3-.3zm3-52.7c.1.1.3.1.3.3l2.7-4.2c-.1-.1-.3-.1-.3-.3l-2.7 4.2zm25.1 26.8-.1.3-1.9 3.5-.3.3c-2.6 1-4.4 2.7-6 4.4-.5.5-.3 1.2-.4 1.7l-1.2 1.4-2.2 2.5-9 8.5c-.7.7-1.8 1-2.7 1.5l-.5-.8 1.8-.5v-.3l-1 .1c.3-.2.5-.5.7-.5 1.6.4 2.2-.8 3.1-1.4.8-.5 1.4-1.2 2-1.9l6.7-5.9c-.7-.4-1.1-.7-1.3.1-.1.4-.3.8-.7 1.2l-3.5 2.7c-.1-.1-.3-.1-.3-.3l2.2-2.5c1-.9 1.8-2 3.3-2.7.3-.1.5-.7.7-1.2l.5-.8 7.3-7.5c1.7-1.6 3.5-3.3 5.4-4.8l-2.4 2.9h-.2zm-22.1-28.7c-.1-.1-.3-.1-.3-.3l-1.3 2.5.3-.1 1.3-2.1zm-.9 55 2-1.7-2 2c-.1-.1-.3-.1-.3-.3h.3zm6-5.8c.1.1.3.1.3.3l-2.4 2c-.1-.1-.3-.1-.3-.3a16 16 0 0 1 2.4-2zm-2.3-2.3 1.7-1.3-.3 1.5-1.4.1v-.3zm3.9-59.5-2 3.2c.1.1.3.1.3.3l2.4-3.2c-.1-.1-.3-.1-.3-.3h-.4zm.8-.6c.1.1.3.1.3.3l2-2.9c-.1-.1-.3-.1-.3-.3l-2 2.9zm63.5 15c.3.1.4.5.3.7-.1.2-.5.5-.8.4-1.7-.3-2.9 1-4.5 1.1-1.1.1-2.1.5-3.2.7-1.9.4-3.9.6-5.8 1.1a45 45 0 0 0-4.8 1.6c-1 .3-2 .3-2.7.8-1.2.8-2.2 1.8-3 2.9-1.5 1.9-2.7 3.9-3.9 5.9l-1.4 2.5c-.1.2-.2.5-.5.7-.9 1.2-1.2 2.6-2 3.7-1.2 1.6-1.8 3.3-2.7 5-1 1.9-1.4 3.9-2.2 5.9-1 2.2-1 4.6-2.2 6.8-.7 1.2-.7 2.7-.9 4l-.7 4.8c-.1 1.6-.5 3.1-.5 4.7-.1 2.2-.1 4.6-.3 6.8-.1.7.1.7 1.1.7 2.4 0 3.3-1.4 4.4-2.7l1.7-1.5.3-.1-3 5.2-1.6 2c-.8.9-2.4 1.3-3.5.7-1.7-.9-3.2-2-3.9-3.5-.7-1.4-1.4-3-1.5-4.6 0-3.2.2-6.5.6-9.8.5-3.6 1.4-7.1 2.2-10.6.8-3.1 2-6.3 3.1-9.5l2.4-6.3c.2-.6.7-1.2 1-1.8l-6.3 5.4c1.2-1.2 2.2-2.5 3.5-3.7 2.3-2.2 4.8-5 5.2-6.9l-2.7 3.3c-.1-.1-.3-.1-.3-.3l4.8-5.5c-.1-.1-.3-.1-.3-.3l-5.9 2.2c-2.7 1.2-5.4 2.4-7.8 3.8-1.6 1-3.6 1.6-4.6 3.4-.3.6-1.5 1.2-2.7 1l-.3.1c-.9 1.1-2 .5-3.1.7-1.3.1-1.6-.9-2.2-1.4a5.4 5.4 0 0 1-1.5-2.2c-.5-1.1-.2-1.6 1.6-2.3 1.6-.7 3.3-1.6 4.9-2.5l3.7-2 11.6-4.3 2.8-1.1c2.4-.7 4.7-1.4 7.1-2.3 1-.3 1.9-.8 2.7-1.4 1.5-1.2 2.7-1.2 3.5-.1l2.2-.5 3.9-.8 4.6-.8 4.3-1c1-.2 1.9-.1 2.9-.2l2.1-.3c2.1-.3 3.5.9 4.8 1.9v-.2zm-57.5-23.1-3.4 4.5c.1.1.3.1.3.3l3.4-4.2c-.1-.1-.3-.1-.3-.3v-.3zm3.2 56.4c.1.1.3.1.3.3l-2.7 2.7c-.1-.1-.3-.1-.3-.3l2.7-2.7zm-2.5 4.5 2.9-.9v.6c-1.2-.5-1.7 1.3-2.9.7v-.4zm1.7-63.7c.1.1.3.1.3.3l2-2.9-2.3 2.6zm2.6-2.9c1.3-1 2.3-2 2.9-3.4l-3.1 3.3.2.1zm3.3-3.7 3.1-3c-.1-.1-.3-.1-.3-.3l-2.8 3.3zm6.9 51.6 2-2-2 2zm23.6-16.4.3-.3c-.1-.2-.3-.5-.5-.5-.8 0-1.7.1-2.1 1.2.8-.2 1.6-1.6 2.2-.1v-.3zm1.4.2 1.8-.8-.4-.5-1.8.8c.1.1.3.1.3.3l.1.2zm8.3-1.4-.3-1.4-.9 1.1-3 .1v.3l.5.6 3.7-.7z" class="st3" style="mask:url(#mask1_1125_1462_00000069356444335541483720000011357263898906555829_)"/><defs><filter id="Adobe_OpacityMaskFilter_00000071554187700046533680000011657317634280789921_" width="40.9" height="33.5" x="131.2" y="86.6" filterUnits="userSpaceOnUse"><feColorMatrix values="1 0 0 0 0 0 1 0 0 0 0 0 1 0 0 0 0 0 1 0"/></filter></defs><mask id="mask2_1125_1462_00000063614927381260475130000012749174829671899824_" width="40.9" height="33.5" x="131.2" y="86.6" maskUnits="userSpaceOnUse"><path d="M469 20.4H37v238.2h432V20.4z" style="fill:#fff;filter:url(#Adobe_OpacityMaskFilter_00000071554187700046533680000011657317634280789921_)"/></mask><path d="m171.2 99.5-.3-.2.5-1.3-.3.1-3.7 5.4c-.1.1.1.3.3.8l3.3-4.4.3-.1-.2 2.4.7-.1-.2.3c-.9 1-1.6 2-2 3.3-.5 1.6-1.8 3.1-2.8 4.6-.7 1-1.2 2.1-2 3-.7 1-1.8 1.8-2.7 2.6-1.2.9-3.2.3-4-.6-1.5-1.6-3-3.2-3.5-5.2-.5-1.9-1.4-3.7-.9-5.8.1-.4-.3-.9-.3-1.4l.1-1.5-.3-1.2a31 31 0 0 0-1.6 2.7l-.5-.1-.5 1.6-3.7 5.8-1 1.1-1.6 2.3-3.2 3.7-1.6 1.6a3.4 3.4 0 0 1-5.6-.5c-.4-.6-.7-1.2-1.3-1.8a4.3 4.3 0 0 1-1.1-4c.3-1.6.7-3.1 1.4-4.6 1.4-3 2.9-6.1 4.5-9l5.3-9.2 1.8-2.3c.1-.2.7-.3.9-.2 1.5.8 2.7 1.8 4.3 2.5 1.2.6 1.6 1.6 2.2 2.6.4.5.8.5 1.4-.1l2.1-2.8c.2-.3.2-.7.3-1l-.3-.2c.3-.5.5-1.1 1-1.7l3.5 2.1c2 1.3 1.7 3.3 1.4 5.2-.3 2-1 4.1-1.6 6.1l-.9 4.6c-.2 1.9-.1 3.7-.1 5.6l.3-.1.6-.5 2.7-3.1c.3-.3.5-.8 1.2-.6.2.1.7-.4 1-.7l.7-.8c.6-.5.3-.7-.3-.9l.7-1 .3 1.2 5-6.4c.5.5 1.8.1 1.7 1 0 .4-.5.9-.7 1.4l-.7-.2zm-26.5 5.2 4.1-5.5c1.4-1.8.3-3.5.1-5.1l-.3-.2c-.7 1-1.6 1.9-2.4 2.8l-1.8 2.8c-1.2 1.6-2.9 3.1-2.9 5.1 0 .3-.3.5-.5.8l-2.6 4.4c-.2.4.1 1 .1 1.6 1.7-.9 3.5-3.3 3.3-4.1l1.1-.7c.6-.7 1.2-1.3 1.6-2l.2.1zm9.2-8.3c1.3-1.1 1.3-2.5 1.8-3.7l-.3-.2-1.4 2.1-1.6 2.9-1.8 2.3c-.5.5-1 1.1-1.4 1.8l-2.3 3.3c-.2.3-.2.6-.3 1a2 2 0 0 0 1-.8l2.2-2.9c.3-.3.9-.7 1.1-1.2.7-1.5 2.2-2.9 2.7-4.5l.3-.3v.2zm15.6 1.2-1.8 2.3-.3-.2 1.8-2.2.3.1z" class="st3" style="mask:url(#mask2_1125_1462_00000063614927381260475130000012749174829671899824_)"/><defs><filter id="Adobe_OpacityMaskFilter_00000145029119138523863480000017759269875326373817_" width="75" height="79.7" x="144.5" y="46.6" filterUnits="userSpaceOnUse"><feColorMatrix values="1 0 0 0 0 0 1 0 0 0 0 0 1 0 0 0 0 0 1 0"/></filter></defs><mask id="mask3_1125_1462_00000145024711170506382730000000381093202568925605_" width="75" height="79.7" x="144.5" y="46.6" maskUnits="userSpaceOnUse"><path d="M469 20.4H37v238.2h432V20.4z" style="fill:#fff;filter:url(#Adobe_OpacityMaskFilter_00000145029119138523863480000017759269875326373817_)"/></mask><path d="M218.8 63.7c.9.7.9 1.6.1 2.5-1.6-.1-3-.9-4.8-.7-1.7.2-3.5-.2-5.2-.1l-6.1.2-8.2.7c-.3.1-.6-.2-.8-.5l11.8-1.4c-.3-.2-.5-.5-.7-.5l-4 .3-1.6.1-3.9.5-.6.1c-.7-.4-1.4 0-2 .2-.6.1-1.3.3-1.9.2-1.2-.2-2 .7-3.1.9v.3l5.8-.7c-.1.7-.9 1.1-1.9 1l-.2-.1c-1.2 1-2.8.2-3.9 1l-.5.5-.7 2.2c-.2.4-.6.8-.7 1.3-.3.8-.1 1.7-1 2.4.2 1.6-1 3.1-1.4 4.7-.3 1.4-1 2.7-1.4 4.2l-1.4 4.4-.5 1c-.6 1.8-1.3 3.5-1.8 5.3-.5 1.4-.7 2.8-1.4 4.2-.2.3.1.7.1 1l-.7 1.8-.5 1.8-.7 2.5-1.7 8.5c-.3 1.7-.5 3.5-.6 5.3.1 1.4.5 2.7.9 3.9.1.5 1.4.5 2-.1l3.8-3.9.3.2-1.8 2 .3.2 2.9-3.3-1.3.3c1-1.1 1.8-2 2.5-3l.3-.1-1.2 2.3c2.1-.7 2.8-2.2 3.7-3.3l3.5-4.3 2-2.6.9-1.1.3.2-2.3 3.3c-.7 1-1.4 2-1.8 3.1-.3.7-.1 1.5-.2 2.3l-.1.4-2.8 4.6-1.8 2.3-.3.3c-.1 1.4-1.6 2-2.5 2.8-1.6 1.3-3.4 1.2-5.1 1-1-.2-1.9-.9-2.9-1.4l-1.8-1.1c-2.7-1.7-3.1-4.2-2.9-6.9l.1-3.5a83.3 83.3 0 0 1 2.6-12.2c.9-3.2 2-6.5 3.1-9.6l3.6-10.8 3.3-9c.2-.6.1-1.3.1-1.8l.7-.7-7.6 1.4c-.1.3-.5.5-1.3.7-1 .2-2 .7-3.1 1-1.9.5-3.9 1-5.8 1.7-2.7 1-5.1 2.1-7.6 3.2l-4 1.7a32 32 0 0 0-4.2 2.6c-.6.4-1 .3-1.4-.1-.4-.7-.9-1.4-1.1-2.1-.1-.3.3-.8.5-1l3.4-1.6c1.4-.7 2.8-1.6 4.3-2.2s3.1-1.6 4.8-1.7c1.5-.2 2.7-1 4-1.2l.8-.5h2.4l.4-.4 1.6-.1v-.3l-1-.1.8-.3 1.2-.4c.8-.6 3.6-1.4 4.7-1l-2 .7c1.8.1 2.5-.3 2.3-1.4 1 .1 1.8.3 2.4.1.7-.1 1.4-.7 2.1-1.2v.3l2.1-.3c.6-.1 1.3-.2 1.8-.5.4-.3.7-.8.9-1.3.6-1.6 1.4-3.2 1.8-4.8.2-.7 1.2-1.6.4-2.4-.1-.1 0-.4.1-.5 1.4-.9.8-2.2 1.3-3.3.7-1.5 1.1-3.1 1.6-4.6.1-.3.2-.7.1-1 .1-1.3.8-1.7 2.2-1.3.6.2 1.2.5 2 .5 1.4.3 1.8 1.3 2 2.2a278.4 278.4 0 0 1-4.7 13.7l1.4.1-.4.5 2.2-.3v-.3l-1.6-.1v-.3l3.3-.4v.3l-.8.3 3.9-.5v-.3l-1-.1v-.3l2.4-.3v.3l-.9.3c.6.3 1.2.2 1.5-.3.2-.3.6-.5.9-.6l8.9-.7 1.2-.4c.4.5 1.2.5 2.4-.1l-.1.4c1.4 0 2.7-.1 4 .1 1.2.1 2.4.1 2.4 1.4l.2.2-.1 1.3zM164.7 72c2.2-.3 5.4-1.4 5.9-2.2-1.2.4-2.2.8-3.3 1-.8.2-2.4.9-2.6 1.4V72zm3.7 41.6c.1-.7.3-1.6-.5-2.1l-.4 5.3.7-3.1.2-.1zm1.3-6c.4-.8-.1-.8-1-.9l-.7 4.7.8-.7c.3-1 .3-2 .8-2.9v-.2zm-.9-1.7c-.1.3.2.5.5.8l.3-.1.5-2.6.4-.1-.1-1.4.9-3.3c.1-.5.3-1.3-.6-1.6-.1.7-.1 1.4-.3 2l-1.6 6.3zm8.3-16.3-.3-.1 3.5-9.9c1.1-3.3 2.6-6.5 3.3-9.7-.7 1.2-1.2 2.5-1.7 3.8l-1.8 5.3c-.7 1.8-1.6 3.7-2.2 5.6l-3.3 10.8c-.8 2.5-1.7 5.1-2.3 7.7-.8 3.1-1.4 6.1-2 9.1-.2.7-.1 1.4-.2 2l.3-.1c.4-2.3.8-4.6 1.4-6.9.5-2.3 1.4-4.6 1.8-6.9.4-2 1.8-6.3 2.8-6.9l-.4 1.7c.2-.2.5-.4.6-.7L178 90l1.9-5.2 1.6-4.5 1.4-3.7.4-1.8a1 1 0 0 0-.6.5l-1.9 5.5-2.4 7.3-.9 1.2-.4.3zm-4.4 2.5c-.8 1.8-1.4 3.7-2 5.7l.8-.1.1-.7.3-.1.1 2.2.3-.3c.2-.7.3-1.3.1-2.1-.3-1 .5-2.2.7-3.3l.4-1.6 1 .3v-.5c-1-.1-.5-.8-.5-1.2l.5-.7c.7-2 1.2-4.1 2.1-6.1.6-1.6.7-3.2 1.5-4.7 1-1.7 1.2-3.6 1.8-5.4.2-.7.7-1.4.8-2l.9-3.1h-.3l-.7 1.1-1 2.7-2.9 7.1c-1.2 3.3-2.2 6.7-3.5 10.1-.3 1-.4 2-.9 3.1l.4-.4zm-.1-22.5.9-.3-.5-.9c-.5.4-.7.7-1 .8l-.9.1v.3h1.5zm.7 36.3-.3.1-.5 2.1.3-.1.5-2.1zm2.6-10.6c-1 2.7-2 5.4-2.3 8.2l1-2.3c.5-1.5.8-3.1 1.4-4.5 0-.6.2-1-.1-1.4zm1.9-27.1c.8-.2 1.6-.3 2.3-.7.3-.1.4-.5.5-.8l-.3-.2c-.4.3-.7.7-1.1.8-1.7.5-3.5.7-5.2 1.1v.5c.3.1.6.2 1 .1.9-.1 1.9-.4 2.8-.8zm-1.1 22.4.3-.1c.3 1.2-.7 2.2-1.1 3.4l-.3.1 1.1-3.4zm6.6-25.8c1-1.1 1-2.4.9-3.6l-1.1 3.4.3-.1-.1.3zm1.5 6 .8-2.1-.3-.2-.8 2.1.3-.1v.3zm21-7.9v-.3l-2.7.3v.3l2.7-.3zm3.8 1.5.7-.1c-1-.7-3.3-.6-4.4 0 .3.1.5.2.7.1l2.8-.1.2.1z" class="st3" style="mask:url(#mask3_1125_1462_00000145024711170506382730000000381093202568925605_)"/><defs><filter id="Adobe_OpacityMaskFilter_00000146460763979141522920000007759700859449915313_" width="45.5" height="29.5" x="187.7" y="83.6" filterUnits="userSpaceOnUse"><feColorMatrix values="1 0 0 0 0 0 1 0 0 0 0 0 1 0 0 0 0 0 1 0"/></filter></defs><mask id="mask4_1125_1462_00000174597451687427143770000017158340494584227236_" width="45.5" height="29.5" x="187.7" y="83.6" maskUnits="userSpaceOnUse"><path d="M469 20.4H37v238.2h432V20.4z" style="fill:#fff;filter:url(#Adobe_OpacityMaskFilter_00000146460763979141522920000007759700859449915313_)"/></mask><path d="M232.3 91.7v.7l-1.7 3.5-.7.7-.5.5c.1 1.2-.8 2.1-1.9 2.9l-1 1c-.3.3-.3.8-.7 1.1-.8.7-2 1.4-2.4 2.3-.5.9-1.3 1.4-2 2-.5.5-.7 1.4-1.2 1.8-.5.4-1.3.5-1.9.9-1.6.7-3.1 1-4.9.5-1.8-.5-2.9-1.6-4.2-2.7-1.5-1.4-2.1-3.3-2.9-5-.2-.6-.1-1.4-.2-2.1L206 98l-.3.1-2 3.2-.9 1c-.4.4-.8.7-1.1 1.2l-1 1.6c-.1.2-.3.3-.3.5.1 1.1-.8 1.7-1.5 2.5l-1 1.6c-.6 1.7-3.5 3.6-5.1 3.2-.8-.3-1.7-.7-2.2-1.4-2.6-2.6-3.8-5.6-2.8-9.3l2.9-8.7c.9-2.7 1.9-5.4 3.5-7.9.6-.8.7-1 1.7-.5 1.2.5 2.3 1.2 2.4 2.3.2 1.8.3 3.7-.9 5.6-1 1.6-1.6 3.5-2.3 5.2-.5 1.2-1 2.4-1.3 3.6l-.4 2.2-.1 1.4 2.4-2 7.6-8c1.6-1.7 3.5-3.3 5.2-5 .5-.5.9-1 1.2-1.6l2.4-4.9c.4-.6 1-.6 1.8-.1.6.3 1.4.5 1.9.9.8.5 1.6 1.2 2.2 2 .1.1-.3.8-.5 1-.9.6-1.7 1.1-1.6 2.2 0 .5-.5 1.1-.6 1.6-1.1 3.1-2.5 6.3-2.9 9.5l-.5 3.3c-.1.7.5 1 1.6.8 1.8-.2 3.2-1.2 4.7-2 1.6-.9 3.2-1.8 4.7-2.9 2.4-1.7 4.6-3.5 7-5.4l1.3-1 1.8-1.9-.7-.2zm-33.2 10.4c1.4-.6 1.6-1.8 2.4-2.7-.8 0-1.6-.1-1.5 1l-.5.5-.9 1.1.5.1zm5.4-5.5-.3-.2c-.6.4-1.1 1-2.1 1-.3-.1-.8.7-1.2 1.1l.3.2.6-.3.6.7.6-.5c.4-.4.8-.7 1.1-1.2.3-.2.3-.5.4-.8zm17.9 6c.8-.5 1.3-1.1 1-2l-.3.3c-.2.5-.3.9-1.2 1.1-.7.1-1.4.7-2 1.2-.2.2-.2.6-.3.9l.9-.3 1.9-1.2zm2.2-2.3 4.4-3.6h-.5l-4.4 3.3c-.2.2-.3.6-.2.7l.6.4.3-.3-.3-.7.1.2z" class="st3" style="mask:url(#mask4_1125_1462_00000174597451687427143770000017158340494584227236_)"/><defs><filter id="Adobe_OpacityMaskFilter_00000034791460996649126290000016539236615983077803_" width="29" height="40.6" x="223.5" y="78.8" filterUnits="userSpaceOnUse"><feColorMatrix values="1 0 0 0 0 0 1 0 0 0 0 0 1 0 0 0 0 0 1 0"/></filter></defs><mask id="mask5_1125_1462_00000085940543912491677710000012060073208341427641_" width="29" height="40.6" x="223.5" y="78.8" maskUnits="userSpaceOnUse"><path d="M469 20.4H37v238.2h432V20.4z" style="fill:#fff;filter:url(#Adobe_OpacityMaskFilter_00000034791460996649126290000016539236615983077803_)"/></mask><path d="M252.4 90.4c.1.4-.3 1.2-.9 1.5-.4.2-1.4.1-1.8-.2a5 5 0 0 1-2.7-3.2l-.5-2.2c-.1-.4-.3-.8-.3-1.3-1.4.6-1.8 1.6-2.1 2.5l-.1 1-.4.5c-1.7.3-1.8 1.7-2.4 2.7-.7 1.1-1.2 2.3-1.8 3.5l-2.5 5.1-2 3.9-2 4.8-1.4 3.5a9 9 0 0 0-.6 2.2c-.1.3-.1.7.1 1 .3 1 .1 1.7-1.1 2.4l-.5.6c-.6.4-1.1.9-1.8.2-.4-.5-1.4-.5-2-.9-.8-.4-1.5-1-1-1.9.1-.3 0-.6-.1-.9-.3-1.2-.7-2.2-.9-3.4a105.8 105.8 0 0 1 2-12.3c.3-1.6 1.2-3.3 1.7-4.9.2-.5.1-1.1.1-1.6l.5-1.1 2.1-7.8 1-3.4a1 1 0 0 0-.1-.8c0-.3-.1-1 .1-1l1.6-.2c1.4.2 2.3 1 3.5 1.4 1.6.5 2.1 1.7 2.1 3.1 0 .4-.3.8-.5 1.2-.5 1.2-1 2.3-1.3 3.4l-.8 2.8.3.2 1.5-2.9c.7-1.2 1.6-2.3 2.4-3.4.4-.6.7-1.3 1.2-1.9.7-1.1 1.2-2.2 2.1-3.1.3-.3 1.3-.7 1.8-.5 1.6.3 3.3.5 4.5 1.2 1.6 1.1 2.7 2.7 2.7 4.6-.1 2 0 3.9.5 5.7l-.2-.1zM240.1 87c-1.3.7-4.8 6.1-4.5 7.1l4.5-7.1z" class="st3" style="mask:url(#mask5_1125_1462_00000085940543912491677710000012060073208341427641_)"/><defs><filter id="Adobe_OpacityMaskFilter_00000147195457523552190120000017328448327803517574_" width="38.2" height="36.2" x="248.4" y="74.7" filterUnits="userSpaceOnUse"><feColorMatrix values="1 0 0 0 0 0 1 0 0 0 0 0 1 0 0 0 0 0 1 0"/></filter></defs><mask id="mask6_1125_1462_00000009567100685486438760000006550451613638844309_" width="38.2" height="36.2" x="248.4" y="74.7" maskUnits="userSpaceOnUse"><path d="M469 20.4H37v238.2h432V20.4z" style="fill:#fff;filter:url(#Adobe_OpacityMaskFilter_00000147195457523552190120000017328448327803517574_)"/></mask><path d="m283.8 91.2 1.2-.7.3.2c-.5.6-.9 1.4-1.4 1.9l-2.2 2-.6.5-3 3.9-1 1c-.6.7-1.6 1.1-1.8 2.2-.2.7-1.3 1.3-2 1.9l-5 3.5-1.1.9-2.6 1.4-3.1.9c-2.5.4-4.6-.7-6.5-1.7a14.2 14.2 0 0 1-5.5-6.2 7.5 7.5 0 0 1-.7-6.4c.3-1 .4-2.2.9-3.1.7-1.6 1.7-3.2 2.5-4.8.5-.9.8-1.8 1.4-2.6 1-1.6 2.1-3.3 3.4-4.8 1-1.2 2.2-2.2 3.5-3.2 1.5-1.1 3.2-2 4.9-2.9 1.1-.6 2.3-.6 3.4-.1 1.8 1 3.7 1.9 4.4 3.8.3 1.2.7 2.5.3 3.6-.3 1-.3 2.3-1.7 3.1l-.2.3c-.1 1.8-1.7 3-2.9 4.2-2 2.2-4.4 4.2-6.7 6.3-1 .9-2.9.8-3.8 0l-1.4-.7-.5 1.3-.9 3.4c-.5 1.9-.9 3.8.3 5.5.5.9 1.6.5 2.4.3 2.3-.4 4.4-1.5 6.5-2.8a77.3 77.3 0 0 1 3.2-1.7c-.1-1.1 1-.9 1.6-1.2.9-.5 1.6-1.2 2.4-1.8l5.1-3.5 3-1.8.7-.1-2.6 1.9.3.2c.7-.4 1.5-.8 2.2-1.4l2.4-1.8 1.2-1-.3.1zm-25.7.1-.5 1.3.3.2 3-2.4 3.5-3c.5-.4 1.1-.6 1.5-1l1.6-2.1a7 7 0 0 0 2.1-4.9c0-.6-.3-.7-1-.3l-2.9 1.9c-1.4 1.1-2.9 2.1-3.5 3.7-.2.6-1.1 1-1.8 1.7.5.6-.1 1.3-.8 2l-.4.6-1.1 2.3zm16.8 5.2c.6.4 1.2.5 1.6-.1v-.3l-1.6.4zm9.7-8 2-1.8c-.1.9-.7 1.6-2 1.8z" class="st3" style="mask:url(#mask6_1125_1462_00000009567100685486438760000006550451613638844309_)"/><defs><filter id="Adobe_OpacityMaskFilter_00000089548640989426688280000000420710216120194216_" width="18.6" height="20.4" x="285.2" y="43" filterUnits="userSpaceOnUse"><feColorMatrix values="1 0 0 0 0 0 1 0 0 0 0 0 1 0 0 0 0 0 1 0"/></filter></defs><mask id="mask7_1125_1462_00000047771736111379765380000016547093367645464727_" width="18.6" height="20.4" x="285.2" y="43" maskUnits="userSpaceOnUse"><path d="M469 20.4H37v238.2h432V20.4z" style="fill:#fff;filter:url(#Adobe_OpacityMaskFilter_00000089548640989426688280000000420710216120194216_)"/></mask><path d="M303.6 51c.3.8.2 1.8-.2 2.7a61.6 61.6 0 0 1-3.9 6l-.3-.2.3-.8-3.3 3.2c-.9.9-2 1.2-3.3 1.2-1-.1-2.2.1-3.3.3-1.5.3-2.9 0-4.2-.5-.5-.2-.2-.5.1-1 1.3-1.2 2.6-2.2 3.7-3.5 1.3-1.3 2.7-2.7 3.5-4.2 1.2-2 2.5-4 2.6-6.2.1-.8-.5-1.3-1.1-1.7-1-.7-1.9-1.2-2.7-1.9-.3-.2-.3-.6-.5-1 .5-.1 1.2-.5 1.4-.4 1.2.7 2.8.3 3.9 1.2.8.7 2.2 1 3.3 1.4l1.2.8a9.5 9.5 0 0 1 2.9 4.5h-.1z" class="st3" style="mask:url(#mask7_1125_1462_00000047771736111379765380000016547093367645464727_)"/><defs><filter id="Adobe_OpacityMaskFilter_00000157276299010983966160000014640629003702385297_" width="37.8" height="53.6" x="306.5" y="61.5" filterUnits="userSpaceOnUse"><feColorMatrix values="1 0 0 0 0 0 1 0 0 0 0 0 1 0 0 0 0 0 1 0"/></filter></defs><mask id="mask8_1125_1462_00000113310846177757536580000010223113056253097113_" width="37.8" height="53.6" x="306.5" y="61.5" maskUnits="userSpaceOnUse"><path d="M469 20.4H37v238.2h432V20.4z" style="fill:#fff;filter:url(#Adobe_OpacityMaskFilter_00000157276299010983966160000014640629003702385297_)"/></mask><path d="M336 82.7c1.6-.5 2.8-1.8 5-1.9-5.2 2.9-10.3 5.3-14.8 8.8l.7.6c2.9 1.8 5.4 4 7.3 6.7.7 1.1 1.4 2.3 1.2 3.7l.3 1.1c.8 2.2-.1 4.1-2.2 5.8a29.4 29.4 0 0 1-6.2 4.2c-2.7 1.2-5.3 2.8-8.4 3.2-2.9.4-6 .7-8.4-.9-1-.7-1.9-1.3-2.2-2.5-.1-.9-.7-1.7-1-2.6-.5-1.3-1.2-2.5-.7-4v-.3c-1-2.7 1-4.6 3-6.5l1.8-1.7 1-.7c-1.4 2.3-3.8 3.9-5 6.3 1-1 2-2.2 3.1-3.1l2.2-1.4c.6-.3 1.3-.5 1.3-1.3.6.1 1.4-.3 1.8.4l.9-.6v-.3l-1.1.1 1.3-1.5V94l.9-.1c.3-.1.7-.3.8-.5.1-.7.1-.7 1-.5l1.2-1.2c-.5-.5-1.1-1-2-.4.7-.7.3-1-.3-1.3a10.3 10.3 0 0 1-4.1-9.9c.3-3.3 2.5-5.9 4.8-8.6 2-2.2 4.2-4.2 6.6-6.1 1.5-1.2 2.7-2.5 4.5-3.4a5.7 5.7 0 0 1 7.5 3.4l.1 1c-.6-.1-1.2-.3-1.6-.1-.9.3-1.9.5-2.7 1-1.8 1-3.5 2.2-5.1 3.3-1.2.8-2.2 1.8-3.3 2.8l-4.9 5.4c-1.4 1.8-2.8 3.9-2.2 6.1.1.5.5 1 1 1.3 1.7 1 3.5 1.9 5.2 2.7.2.1.8-.1 1.1-.3l4.6-3c.1 1 .1 1-1.1 1.2.2.7.5.8 1 .3l1.5-1.2-1.2-.3a136 136 0 0 1 14.2-7.3c-2.6 1.8-6.1 2.7-8.3 4.9v-.5zm-8.8 12.1c-1.8-1.1-3.7-1.8-5.8-2.8l-1.4.8h.7l.7-.1-.2.3c-2.9 1.5-4.8 3.8-7.2 5.8-.5.4-.7.8.1.8a39.8 39.8 0 0 0-3.7 4.7c-1.4 2.1-.7 3.5 1.4 4.6 1.6.7 3.3.5 5 .2 1-.2 2-.5 2.9-1l3.8-2c1.3-.7 2.8-1.4 4-2.2 1.6-1.2 2.9-2.6 4.2-3.9.7-.7.7-1.4 0-1.9-1.5-1.2-3-2.4-4.6-3.3z" class="st3" style="mask:url(#mask8_1125_1462_00000113310846177757536580000010223113056253097113_)"/><defs><filter id="Adobe_OpacityMaskFilter_00000014595467982058526440000007782739101219804349_" width="28.2" height="40.2" x="400" y="137.9" filterUnits="userSpaceOnUse"><feColorMatrix values="1 0 0 0 0 0 1 0 0 0 0 0 1 0 0 0 0 0 1 0"/></filter></defs><mask id="mask9_1125_1462_00000036237426910017283410000018156730974316937919_" width="28.2" height="40.2" x="400" y="137.9" maskUnits="userSpaceOnUse"><path d="M469 20.4H37v238.2h432V20.4z" style="fill:#fff;filter:url(#Adobe_OpacityMaskFilter_00000014595467982058526440000007782739101219804349_)"/></mask><path d="M422.1 154c1.2-.4 2.1-1.4 3.7-1.4-3.9 2.1-7.7 3.9-11 6.5l.5.4c2.2 1.4 4 3 5.4 5 .5.8 1 1.7.9 2.7l.2.8c.6 1.7-.1 3-1.6 4.4a20.6 20.6 0 0 1-4.6 3.1c-2 1-3.9 2.1-6.3 2.4-2.2.3-4.5.6-6.3-.7-.7-.5-1.4-1-1.6-1.8-.1-.7-.5-1.3-.7-1.9-.3-1-1-1.9-.5-3v-.2c-.7-2 .7-3.4 2.2-4.8l1.4-1.3.7-.5c-1 1.8-2.9 3-3.7 4.7l2.2-2.3c.4-.4 1-.7 1.6-1.1.5-.3 1-.4 1-1 .5.1 1.1-.2 1.4.3l.7-.5v-.2l-.8.1 1-1.1v-.2l.7-.1.6-.4c.1-.6.1-.6.7-.4l.9-.9c-.4-.4-.8-.7-1.6-.3.5-.5.2-.7-.2-1a8 8 0 0 1-3.1-7.4c.3-2.5 1.8-4.4 3.5-6.5 1.4-1.7 3.1-3.1 4.9-4.5 1.1-.9 2-1.8 3.3-2.5.9-.4 1.8-.4 2.4-.2 1.6.4 2.6 1.4 3.1 2.7v.7c-.5-.1-.9-.2-1.2-.1l-2 .7a25 25 0 0 0-6.2 4.6c-1.2 1.4-2.6 2.7-3.7 4.1-1.1 1.4-2.1 2.9-1.6 4.6.1.3.3.7.7 1l3.9 2c.1.1.6-.1.8-.2l3.4-2.2c0 .7 0 .7-.8.8.2.5.3.6.7.2l1.1-.9-.9-.2c3.5-2 6.9-3.9 10.5-5.4-1.9 1.4-4.5 2-6.2 3.7h.5zm-6.5 9c-1.4-.8-2.8-1.4-4.3-2.1l-1 .6h.5l.5-.1-.1.2c-2.2 1.2-3.6 2.9-5.4 4.3-.3.3-.5.6 0 .6l-1.4 1.7c-.5.6-1 1.2-1.3 1.8-1 1.6-.5 2.7 1.1 3.4 1.2.5 2.4.4 3.7.1.7-.1 1.5-.4 2.2-.7l2.9-1.5c1-.5 2.1-1 3-1.6 1.2-.9 2.1-1.9 3.1-2.9.5-.5.5-1.1 0-1.4-1.1-.9-2.2-1.8-3.5-2.5v.1z" class="st3" style="mask:url(#mask9_1125_1462_00000036237426910017283410000018156730974316937919_)"/><defs><filter id="Adobe_OpacityMaskFilter_00000070818883696970602210000010663408769130350465_" width="33.4" height="40.5" x="162.1" y="159.8" filterUnits="userSpaceOnUse"><feColorMatrix values="1 0 0 0 0 0 1 0 0 0 0 0 1 0 0 0 0 0 1 0"/></filter></defs><mask id="mask10_1125_1462_00000043425069258617607960000006348618294325977246_" width="33.4" height="40.5" x="162.1" y="159.8" maskUnits="userSpaceOnUse"><path d="M469 20.4H37v238.2h432V20.4z" style="fill:#fff;filter:url(#Adobe_OpacityMaskFilter_00000070818883696970602210000010663408769130350465_)"/></mask><path d="m195.1 175.6.3.5-3.5 3c-.6.5-1 1-1.9.9l-.3.2c-1.6 1.7-3.9 2.7-5.9 4.2-1 .7-2 1.5-1.9 2.7l-.3.3-.5.5c.3.9-.5 1.5-1 2.1l-5 6.5c-.5.8-1.3 1.6-2 2.3-1.8 1.7-3.3 2.1-5.4 1-1.8-.9-3.4-2-4.8-3.2-.6-.5-.9-1.4-1-2.2-.3-1.7-.1-3.5.7-5.1l1.8-5.1c1.6-4.2 2.4-8.6 4.8-12.7 1.2-2 2.4-4.2 3.8-6.3 1-1.7 2.3-3.4 3.7-5.3 1 .2 2.2.3 3 .7 1.9 1 3.7 1.9 5.4 3.2 1.1.8 1.6 2.1 2.4 3.2.1.1.2.2.1.3-.7 1.3-.3 2.5-.5 3.7l-1.4 7.8.8-.3 2.7-1.2 1-.1c1.2-1.1 2.9-.4 4.2-1.6h.7zm-27.5 20.6c3.5-2.9 5.8-6.4 8.3-9.5l-5.9-2c-1 3.7-3.1 7.4-2.6 11.4l.2.1zm8-32.1c-2.4 3.1-4 6.4-5.8 9.7l.3.2 5.7-9.7-.3.1v-.3zm6 12.8c.3-.5.3-1.4 1.4-1.5l.3-.5-.7.1-.3-.2c.5-.4 1.1-.7 1.4-1.2.3-.5.3-1 .4-1.6.1-.5-.1-1-.1-1.5l-.3.1v.3l-.3.3c0-2.8.1-5.4-1.5-7.9-.7.7-1.3 1.2-1.6 1.7l-2.8 4.1c-.3.5-.9 1-1 1.4-.1 1.2-1 2.1-1.3 3.3-.4 2.2-1.6 4.2-2.4 6.3-.3.7-.3 1.4-.3 2.1-.1.7.3.9 1.2.7l4.8-1.3c.6-.2 1.3-.7 1.6-1.2.7-1.2 1-2.4 1.6-3.7l-.1.2zm1.2-4.8-.5 1.8-.3.1.5-1.8.6-.1h-.3zm2.6 2.5.1-.3.7-4.7-1.2.2c1.2-1.4.8-2.4-.1-3.5l-.3 6.4.3 1-.2.5-.7 1.1c-.2.4-.1.9-.3 1.3l-1.5 3.5.3.2c.5-.2 1.3-.4 1.5-.7.5-1.1 1-2.2 1.3-3.3.2-.6-.5-1.2.3-1.8l-.2.1z" class="st3" style="mask:url(#mask10_1125_1462_00000043425069258617607960000006348618294325977246_)"/><defs><filter id="Adobe_OpacityMaskFilter_00000091000609339444771230000003219261325545979522_" width="44" height="63" x="186.6" y="134.5" filterUnits="userSpaceOnUse"><feColorMatrix values="1 0 0 0 0 0 1 0 0 0 0 0 1 0 0 0 0 0 1 0"/></filter></defs><mask id="mask11_1125_1462_00000079464985821113379420000011062631753598178219_" width="44" height="63" x="186.6" y="134.5" maskUnits="userSpaceOnUse"><path d="M469 20.4H37v238.2h432V20.4z" style="fill:#fff;filter:url(#Adobe_OpacityMaskFilter_00000091000609339444771230000003219261325545979522_)"/></mask><path d="M229 136.9c1.8.5 1.7 1.6 1.5 2.9-.3 1.6-.9 3.1-1.7 4.8l-1.4 3.6-.2.5c-1.3.9-1.2 2.2-1.7 3.3-.5 1.1-1 2.1-1.4 3.3l-2.1 5.9c-.3 1.2-.7 2.2-1.3 3.3-.5 1-1 2-1.3 3.1-.1 1.1-.6 2.2-1 3.2-.3 1-.6 2.1-1.1 3.1-.6 1.6-1.5 3.1-2.2 4.7-.3.7-.3 1.4-.4 2.2a161 161 0 0 0-.9 3.4c-.2.6-.5 1.3-.3 1.9.1.9-1 1.9-.2 2.8.1.1-.1.6-.1 1-.3 1 .2 2-.5 3-.3.5.5.9 1.2.7.8-.2 1.6-.9 2.4-.5-.9 1.4-1.6 2.9-2.4 4.3-.1.2-.6.3-.8.3-1-.3-1.8-.8-2.4-1.6a10.4 10.4 0 0 1-2.4-4.8c-.3-1.6-.3-3.2-.2-4.8 0-2 .1-3.9 1-5.9.5-1.3.7-2.8 1-4.2l-.3-.2c-.3.3-.7.6-.9 1a28 28 0 0 1-5.3 5.6c-.8.7-1.4 1.5-2 2.2l-.9.9-.6.5c-.7 1.7-2.5 2.7-3.9 4a11 11 0 0 1-4.3 2.5c-1.2.4-2.2.1-2.9-.7-2.9-2.9-2.7-6.2-1.2-9.9 1.4-3.5 3.3-6.9 5.5-10.1 2.1-3.2 4.1-6.5 7.3-9.2 1.2-1 2.4-1.9 4.2-2.2 1.1-.2 1.8.1 2.6.5l4.2 2.7c.2.1.8-.2 1.3-.3.2.4.6.3.9-.1.4-.5.7-1.2 1-1.8v-.7l.1-1.1 1.5-2.9c.2-.3.3-.7.3-1l1.6-5c.1-.4.1-.9.5-1.2 1.2-1.6 1.4-3.3 1.9-4.9l1.7-5.4 1.2-4.2c.3-.9.7-1 1.8-.8 1.4.3 1.8 1.4 2.9 2l.5.5.2-.2zm-24.9 37.8 1.4-2.2c.6-.5 1-1.6 2.4-1.4.2.1.6-.5 1-.9l-1.2-.3a28 28 0 0 0 1.6-2l.2-.6-.8-.1-1.5.3c-1.5.4-3.1.9-4 1.9l-4.5 5.2-1.1 1.5c-.5.5-1.2 1.1-1.6 1.7l-1.4 2.2-2.9 5.1.3.2c1.3-1.2 2.9-2 4.1-3.3 1.2-1.3 2.6-2.4 3.9-3.7.8-.7 1.7-1.3 2.2-2 .6-.8 1.1-1.2 2.2-1.1l3.1-3.4-.3-.2-2.9 3.1c0 .1-.1.1-.2 0zm5.9-2.7-.3-.2-1.4 1.9.3.2 1.4-1.9zm.5-3.8-.3-.3-.5 1.1.6.2.5-1.1-.3.1zm1.3 19.4.3-1.7c-1.2.5-1.9 1.3-1.6 2.7l1.1-.9.2-.1zm1.7-5.8a9 9 0 0 0 .6-2.2c-1.4.1-1.9.5-2.2 1.6l-.7 2.4c0 .4.7.7-.1 1.3v.3l.4.1.3-.5.8-2.7.9-.3zm4.2-12.7c.7-1.2.6-2.3.5-3.7l-1 .5.5 1-1.1.2.1 1.2 1 .2-1.3 1c-1 1.8-1.7 3.7-2.5 5.6-.5 1.3-1.1 2.6-.4 4 .3-.2.7-.3.8-.5.3-.5.3-.9.5-1.3l1.1-2.7-.9.1c.6-.7 1.1-1.2 1.4-1.8v-.7c-.7-.7-.7-.7.5-1.2-.6-.4-.3-.7.3-1l.6-.7-.1-.2z" class="st3" style="mask:url(#mask11_1125_1462_00000079464985821113379420000011062631753598178219_)"/><defs><filter id="Adobe_OpacityMaskFilter_00000103979446376228006680000002685665854294356380_" width="39.3" height="77.3" x="216.2" y="151.5" filterUnits="userSpaceOnUse"><feColorMatrix values="1 0 0 0 0 0 1 0 0 0 0 0 1 0 0 0 0 0 1 0"/></filter></defs><mask id="mask12_1125_1462_00000159430543573609598750000013243520491572947077_" width="39.3" height="77.3" x="216.2" y="151.5" maskUnits="userSpaceOnUse"><path d="M469 20.4H37v238.2h432V20.4z" style="fill:#fff;filter:url(#Adobe_OpacityMaskFilter_00000103979446376228006680000002685665854294356380_)"/></mask><path d="M254.9 155.6c.2 1.8 1.1 3.4.1 5.4-.7 1.2-.5 2.6-1 3.8-.8 2-1.8 4.1-2.8 6.1-.7 1.2-1.8 2.2-2.5 3.4-1.2 2-2.9 3.8-4.4 5.6l-.4.3-2.7 2.3a51 51 0 0 0-2.4 2.3l-1.4 1.2-1.8 1.2-.5.2c-1.2 1.4-2.8 1.2-4.4 1.4-1 0-1.8.5-2.1 1.5-.1.7-.5 1.6-.8 2.4l-.3.5-.6 2.9c.7 1.2-.7 2.1-.9 3.2-.1 1.1-.4 2.2-.7 3.3l-.5 2.1-.5 2.6-1.4 6.2-1.6 6.7-.4.8c-.1.2-.3.3-.3.5.3 1.3-.6 2.6-.5 3.9l.1 1.5c.1.5.1 1.1-.4 1.6-.6.5-1 .2-1.6.1-1.4-.3-2.2-1-2-2.2.1-1.5.3-3.1.2-4.8-.1-1.4-.5-2.8-.5-4.2.1-2.2.4-4.4.7-6.7l.8-4.9 2.4-10.6 1.1-5 1.3-5.2.1-1.4 1.1-5.2 1.8-7.3 1.5-6 1-5.1c.3-1.4.5-2.7.6-4.1.1-.5-.1-1-.1-1.6 2-.2 3.9.1 5.6.7.2.1.4.3.5.6.6 1.8.5 3.7.3 5.5-.1.8.1 1.7-.1 2.5l-1.5 4.9c-.2.7-.1 1.4-.1 2.1 0 .3-.1.6-.3.7-.9.6-.7 1.2-.3 1.8l.1.4c-1 .6-.1 1.6-.8 2.4l.5-.5c.5-.9 1-1.8 1.3-2.7.7-1.4 1-3 2-4.1.7-.8 1-1.6 1.5-2.5.5-1.2 1.2-2.3 1.9-3.5.3-.5.9-.9 1.2-1.3l2.8-4.1c.4-.5 1-1 .6-1.7l.5-.5a4 4 0 0 0 2.4-2.7 2 2 0 0 1 2.3-1.2c1.8.3 3.6.6 4.7 1.9.4.5.5 1.3.6 2l1 .6zm-35.4 53.9c.1-.5-.1-1-.1-1.5-1 1-2 7-1.5 9.3l.5-3.3c.3-1.6.8-3.1 1.2-4.6h-.1zm3-14.4-.3-.2-.6.7-.6 2.3-1.4 6.5-.3 3.1.6-.2c1-4 2-8.1 2.6-12.2zm.4-.5 1.5-7.3c-1.4 1.9-2.4 6.6-1.6 7.3h.1zm8.3-9.6c6.9-3 20.4-24.3 18.5-29.1-1.1 1.3-2 2.5-3 3.5-.4.5-.7 1.2-1.6.6a3 3 0 0 0-.7 1l-2.8 4.4-3.1 4.9-1.9 3.3c-.5.8-1.3 1.6-.3 2.4.1.1 0 .4-.1.6-.7 1.1-1.2 2.3-2.3 3.3l-.4.6-1.1 2.4-1 2.1h-.2zm3 .8c2.8-1.8 5-3.9 6.8-6.4l-.3-.2-6.5 6.6z" class="st3" style="mask:url(#mask12_1125_1462_00000159430543573609598750000013243520491572947077_)"/><defs><filter id="Adobe_OpacityMaskFilter_00000103981194405775843960000002178714236793073796_" width="40.9" height="33.5" x="250.2" y="154.3" filterUnits="userSpaceOnUse"><feColorMatrix values="1 0 0 0 0 0 1 0 0 0 0 0 1 0 0 0 0 0 1 0"/></filter></defs><mask id="mask13_1125_1462_00000057125289602434087850000000325866089000876688_" width="40.9" height="33.5" x="250.2" y="154.3" maskUnits="userSpaceOnUse"><path d="M469 20.4H37v238.2h432V20.4z" style="fill:#fff;filter:url(#Adobe_OpacityMaskFilter_00000103981194405775843960000002178714236793073796_)"/></mask><path d="m290.1 167.3-.3-.2.5-1.3-.3.1-3.7 5.4c-.1.1.1.3.3.8l3.3-4.4.3-.1-.2 2.4.7-.1-.2.3c-.9 1-1.6 2-2 3.3-.4 1.6-1.8 3.1-2.8 4.6-.7 1-1.2 2.1-2 3-.7 1-1.8 1.8-2.7 2.6-1.2.9-3.2.3-4-.6-1.5-1.6-3-3.2-3.5-5.2-.5-1.9-1.4-3.7-.9-5.8.1-.4-.3-.9-.3-1.4l.1-1.5-.3-1.2a31 31 0 0 0-1.6 2.7l-.5-.1-.5 1.6-3.7 5.8-1 1.1-1.6 2.3-3.2 3.7-1.6 1.6a3.4 3.4 0 0 1-5.6-.5c-.4-.6-.7-1.2-1.3-1.8a4.3 4.3 0 0 1-1.1-4c.3-1.6.7-3.1 1.4-4.6 1.4-3 2.9-6.1 4.5-9l5.3-9.2 1.8-2.3c.1-.2.7-.3.9-.2 1.5.8 2.7 1.8 4.3 2.5 1.2.6 1.6 1.6 2.2 2.6.4.5.8.5 1.4-.1l2.1-2.8c.2-.3.2-.7.3-1l-.3-.2c.3-.5.5-1.1 1-1.7l3.5 2.1c2 1.3 1.7 3.3 1.4 5.2-.3 2-1 4.1-1.6 6.1l-1 4.6c-.2 1.9-.1 3.7-.1 5.6l.3-.1.6-.5 2.7-3.1c.3-.3.5-.8 1.2-.6.2.1.7-.4 1-.7l.7-.8c.6-.5.3-.7-.3-.9l.7-1 .3 1.2 5-6.4c.5.5 1.8.1 1.7 1 0 .4-.5.9-.7 1.4l-.6-.2zm-26.4 5.2 4.1-5.5c1.4-1.8.3-3.5.1-5.1l-.3-.2c-.7 1-1.6 1.9-2.4 2.8l-1.8 2.8c-1.2 1.6-2.9 3.1-2.9 5.1 0 .3-.3.5-.5.8l-2.6 4.4c-.2.4.1 1 .1 1.6 1.7-.9 3.5-3.3 3.3-4.1l1.1-.7c.6-.7 1.2-1.3 1.6-2l.2.1zm9.1-8.3c1.3-1.1 1.3-2.5 1.8-3.7l-.3-.2-1.4 2.1-1.6 2.9-1.8 2.3c-.5.5-1 1.1-1.4 1.8l-2.3 3.3c-.2.3-.2.6-.3 1a2 2 0 0 0 1-.8l2.2-2.9c.3-.3.9-.7 1.1-1.2.7-1.5 2.2-2.9 2.7-4.5l.3-.3v.2zm15.6 1.2-1.8 2.3-.3-.2 1.8-2.2.3.1z" class="st3" style="mask:url(#mask13_1125_1462_00000057125289602434087850000000325866089000876688_)"/><defs><filter id="Adobe_OpacityMaskFilter_00000109026221446103732840000003733617123723656083_" width="29" height="40.6" x="287.3" y="144.8" filterUnits="userSpaceOnUse"><feColorMatrix values="1 0 0 0 0 0 1 0 0 0 0 0 1 0 0 0 0 0 1 0"/></filter></defs><mask id="mask14_1125_1462_00000034070497044188071270000007778158174533297564_" width="29" height="40.6" x="287.3" y="144.8" maskUnits="userSpaceOnUse"><path d="M469 20.4H37v238.2h432V20.4z" style="fill:#fff;filter:url(#Adobe_OpacityMaskFilter_00000109026221446103732840000003733617123723656083_)"/></mask><path d="M316.1 156.4c.1.4-.3 1.2-.9 1.5-.4.2-1.4.1-1.8-.2a5 5 0 0 1-2.7-3.2l-.5-2.2c-.1-.4-.3-.8-.3-1.3-1.4.6-1.8 1.6-2.1 2.5l-.1 1-.4.5c-1.7.3-1.8 1.7-2.4 2.7-.7 1.1-1.2 2.3-1.8 3.5l-2.5 5.1-2 3.9-1.9 4.8-1.4 3.5a9 9 0 0 0-.6 2.2c-.1.3-.1.7.1 1 .3 1 .1 1.7-1.1 2.5l-.5.6c-.6.4-1.1.9-1.8.2-.4-.5-1.4-.5-2-.9-.8-.4-1.5-1-1-1.9.1-.3 0-.6-.1-.9-.3-1.2-.7-2.2-.9-3.4a105.8 105.8 0 0 1 2-12.3c.3-1.6 1.2-3.3 1.7-4.9.2-.5.1-1.1.1-1.6l.5-1.1 2.1-7.8 1-3.4a1 1 0 0 0-.1-.8c0-.3-.1-1 .1-1l1.6-.2c1.4.2 2.3 1 3.5 1.4 1.6.5 2.1 1.7 2.1 3.1 0 .4-.3.8-.5 1.2-.5 1.2-1 2.3-1.3 3.4l-.8 2.8.3.2 1.5-2.9c.7-1.2 1.6-2.3 2.4-3.4.4-.6.7-1.3 1.2-1.9.7-1.1 1.2-2.2 2.1-3.1.3-.3 1.3-.7 1.8-.5 1.6.3 3.3.5 4.5 1.2 1.6 1.1 2.7 2.7 2.7 4.6-.1 2 0 3.9.5 5.7l-.3-.2zm-12.2-3.5c-1.3.7-4.8 6.1-4.5 7.1l4.5-7.1z" class="st3" style="mask:url(#mask14_1125_1462_00000034070497044188071270000007778158174533297564_)"/><defs><filter id="Adobe_OpacityMaskFilter_00000178913348459296302020000012271276942314531474_" width="38.3" height="36.2" x="314.2" y="144.3" filterUnits="userSpaceOnUse"><feColorMatrix values="1 0 0 0 0 0 1 0 0 0 0 0 1 0 0 0 0 0 1 0"/></filter></defs><mask id="mask15_1125_1462_00000179611515344486649870000001632295508114997152_" width="38.3" height="36.2" x="314.2" y="144.3" maskUnits="userSpaceOnUse"><path d="M469 20.4H37v238.2h432V20.4z" style="fill:#fff;filter:url(#Adobe_OpacityMaskFilter_00000178913348459296302020000012271276942314531474_)"/></mask><path d="m349.6 160.9 1.2-.7.3.2c-.5.6-.9 1.4-1.4 1.9l-2.2 2-.6.5-3 3.9-1 1c-.6.7-1.6 1.1-1.8 2.2-.2.7-1.3 1.3-2 1.9l-5 3.5-1.1.9-2.6 1.4-3.1.9c-2.5.4-4.6-.7-6.5-1.7a14.2 14.2 0 0 1-5.5-6.2 7.5 7.5 0 0 1-.7-6.4c.3-1 .4-2.2.9-3.1.7-1.6 1.7-3.2 2.5-4.8.5-.9.8-1.8 1.4-2.6 1-1.6 2.1-3.3 3.4-4.8 1-1.2 2.2-2.2 3.5-3.2 1.5-1.1 3.2-2 4.9-2.9 1.1-.6 2.3-.6 3.4-.1 1.8 1 3.8 1.9 4.4 3.8.3 1.2.7 2.5.3 3.6-.3 1-.3 2.3-1.7 3.1l-.2.3c-.1 1.8-1.7 3-2.9 4.2-2 2.2-4.4 4.2-6.7 6.3-1 .9-2.9.8-3.8 0l-1.4-.7-.5 1.3-.9 3.4c-.5 1.9-.9 3.8.3 5.5.5.9 1.6.5 2.4.3 2.3-.4 4.4-1.5 6.5-2.8a77.3 77.3 0 0 1 3.2-1.7c-.1-1.1 1-.9 1.6-1.2.9-.5 1.6-1.2 2.4-1.8l5.1-3.5 3-1.8.7-.1-2.6 1.9.3.2c.7-.4 1.5-.8 2.2-1.4l2.4-1.8 1.2-1-.3.1zm-25.7.1-.5 1.3.3.2 3-2.4 3.5-3c.5-.4 1.1-.6 1.5-1l1.6-2.1a7 7 0 0 0 2.1-4.9c0-.6-.3-.7-1-.3l-2.9 1.9c-1.4 1.1-2.9 2.1-3.5 3.7-.2.6-1.1 1-1.8 1.7.5.6-.1 1.3-.8 2l-.4.6a24 24 0 0 0-1.1 2.3zm16.9 5.2c.6.4 1.2.5 1.6-.1v-.3l-1.6.4zm9.6-8 2-1.8c-.1.9-.7 1.5-2 1.8z" class="st3" style="mask:url(#mask15_1125_1462_00000179611515344486649870000001632295508114997152_)"/><defs><filter id="Adobe_OpacityMaskFilter_00000114055547504899246660000014002379115926386598_" width="38.1" height="37.5" x="343.4" y="140.2" filterUnits="userSpaceOnUse"><feColorMatrix values="1 0 0 0 0 0 1 0 0 0 0 0 1 0 0 0 0 0 1 0"/></filter></defs><mask id="mask16_1125_1462_00000113345193850796987830000009767518092315987079_" width="38.1" height="37.5" x="343.4" y="140.2" maskUnits="userSpaceOnUse"><path d="M469 20.4H37v238.2h432V20.4z" style="fill:#fff;filter:url(#Adobe_OpacityMaskFilter_00000114055547504899246660000014002379115926386598_)"/></mask><path d="m378.2 165.5 3.2-1.3-.6.7c-.5.8-1.8 1.3-1.4 2.5l-.4.3-1.5 1.3c-1 .9-1.9 1.1-2.9.3-1.9-1.4-3.3-3-3.7-5.2-.4-2.6.1-5.2.7-7.8.2-.6.1-1.2.2-1.8l1.1-4.9c.1-.3 0-.7-.1-1.1l-.1-1.8-.1-.7-.9.4c-1.6 1.2-3.4 2.2-4.4 3.9-.5.9-1.6 1.6-2.2 2.5-1.6 2-3.2 4.1-4.6 6.2-1.4 2-2.4 4.2-3.6 6.2-.9 1.4-1.7 2.7-2.8 4-1.3 1.6-1.9 3.5-2.9 5.3-.2.4-.3.9-.7 1.2l-.7.7c-.4.7-.7 1.4-1.8 1-.7-.1-1.4-.3-2-.7-1.4-.7-1.8-2.2-2.7-3.2-.1-.3.1-.7.1-1 0-2.9 1-5.6 2-8.4l3.3-9.8 1.9-5.8 1.4-3.9 1.5-3.3c.5-.9 1.2-1.1 2.1-.6l1.7 1.1.2.1c.3 1.1.8 2.1.5 3.1-.7 3-1.7 6-2.6 9l-1.2 3.1-.3.8.3-.1c1.8-2.4 3.1-5 5.7-6.7-.7-1 .7-1.4.6-2l.3-.1-.5 1.3h.1l.6-.5a8 8 0 0 0 1.4-1.8c.2-.3.2-.7.3-1l-.3.1 5.5-5.1c-1.6-.1-1.8 1.2-2.9 1.5.1-.3.1-.5.3-.6 1.5-1.2 2.5-2.9 4.9-2.9 1 0 2-.2 2.5.7l.7.3 2.4.5c.2.1.3.4.4.6.1.3.1.7.3.9 2.2 1.4 2.5 3.3 2.1 5.4-.1.6.3 1.2.3 1.8 0 .6-.3 1.2-.4 1.8-.1.3-.3.6-.1.7.5.8-.1 1.5-.3 2.3-.5 1.2-.8 2.5-1.1 3.8l-.1 2.5c-.1.5-.5 1-.5 1.5v2c0 .6.9.8 1.6.5l.2.2zm-15.2-14c2.4-3.1 5.2-5.9 7.9-8.8-1.1.9-2.7 1.2-3.2 2.5-.1.3-.5.4-.8.6l-.6.2a5.3 5.3 0 0 1-2.6 2.5l-.5.5-1.1 2.4-.5.8c-.4.4-.9.7-1.2 1.2L358 157a28 28 0 0 1-2.5 3.5l.3.2c2.3-3.1 4.4-6.3 6.9-9.4l.3.2z" class="st3" style="mask:url(#mask16_1125_1462_00000113345193850796987830000009767518092315987079_)"/><defs><filter id="Adobe_OpacityMaskFilter_00000158710765754935201000000000077136870933063587_" width="75.1" height="79.7" x="358.3" y="103.4" filterUnits="userSpaceOnUse"><feColorMatrix values="1 0 0 0 0 0 1 0 0 0 0 0 1 0 0 0 0 0 1 0"/></filter></defs><mask id="mask17_1125_1462_00000070822677673165973470000003096103840487115455_" width="75.1" height="79.7" x="358.3" y="103.4" maskUnits="userSpaceOnUse"><path d="M469 20.4H37v238.2h432V20.4z" style="fill:#fff;filter:url(#Adobe_OpacityMaskFilter_00000158710765754935201000000000077136870933063587_)"/></mask><path d="M432.7 120.5c.9.7.9 1.6.1 2.5-1.6-.1-3-.9-4.8-.7-1.7.2-3.5-.2-5.2-.1l-6.1.2-8.3.7c-.3.1-.6-.2-.8-.5l11.8-1.4c-.3-.2-.5-.5-.7-.5l-4 .3-1.6.1-3.9.5-.6.1c-.7-.4-1.4 0-2 .2-.6.1-1.3.3-1.9.2-1.2-.2-2 .7-3.1.9v.3l5.8-.7c-.1.7-.9 1.1-1.9 1l-.2-.1c-1.2 1-2.8.2-3.9 1l-.5.5-.7 2.2-.7 1.3c-.3.8-.1 1.7-1 2.4.2 1.6-1 3.1-1.4 4.7-.3 1.4-1 2.7-1.4 4.2l-1.4 4.4-.5 1c-.6 1.8-1.3 3.5-1.8 5.3-.5 1.4-.7 2.8-1.4 4.2-.2.3.1.7.1 1l-.7 1.8-.5 1.8-.7 2.5-1.7 8.5c-.3 1.7-.5 3.5-.6 5.3.1 1.4.5 2.7.9 3.9.1.5 1.4.5 2-.1l3.8-3.9.3.2-1.8 2 .3.2 2.9-3.3-1.3.3c1-1.1 1.8-2 2.5-3l.3-.1-1.2 2.3c2.1-.7 2.8-2.2 3.7-3.3l3.5-4.3 2-2.6.9-1.1.3.2-2.3 3.3c-.7 1-1.4 2-1.8 3.1-.3.7-.1 1.5-.2 2.3l-.1.4-2.8 4.6-1.8 2.3-.3.3c-.1 1.4-1.6 2-2.5 2.8-1.6 1.3-3.4 1.2-5.1 1-1-.2-1.9-.9-2.9-1.4l-1.8-1.1c-2.7-1.7-3.1-4.2-2.9-6.9l.1-3.5a83.3 83.3 0 0 1 2.6-12.2c.9-3.2 2-6.5 3.1-9.6l3.6-10.8 3.3-9c.2-.6.1-1.3.1-1.8l.7-.7-7.6 1.4c-.1.3-.5.5-1.3.7-1 .2-2 .7-3.1 1-1.9.5-3.9 1-5.8 1.7-2.7 1-5.1 2.1-7.6 3.2l-4 1.7a32 32 0 0 0-4.2 2.6c-.6.4-1 .3-1.4-.1-.4-.7-.9-1.4-1.1-2.1-.1-.3.3-.8.5-1l3.4-1.6c1.4-.7 2.8-1.6 4.3-2.2 1.5-.7 3.1-1.6 4.8-1.7 1.5-.2 2.7-1 4-1.2l.8-.5h2.4l.4-.4 1.6-.1v-.3l-1-.1.8-.3 1.2-.4c.8-.6 3.6-1.4 4.7-1l-2 .7c1.8.1 2.5-.3 2.3-1.4 1 .1 1.8.3 2.4.1.7-.1 1.4-.7 2.1-1.2v.3l2.1-.3c.6-.1 1.3-.2 1.8-.5.4-.3.7-.8.9-1.3.6-1.6 1.4-3.2 1.8-4.8.2-.7 1.2-1.6.4-2.4-.1-.1 0-.4.1-.5 1.4-.9.8-2.2 1.3-3.3.7-1.5 1.1-3.1 1.6-4.6.1-.3.2-.7.1-1 .1-1.3.8-1.7 2.2-1.3.6.2 1.2.5 2 .5 1.4.3 1.8 1.3 2 2.2a278.4 278.4 0 0 1-4.7 13.7l1.4.1-.4.5 2.2-.3v-.3l-1.6-.1v-.3l3.3-.4v.3l-.8.3a46 46 0 0 0 3.9-.5v-.3l-1-.1v-.3l2.4-.3v.3l-.9.3c.6.3 1.2.2 1.5-.3.2-.3.6-.5.9-.6l8.9-.7 1.2-.4c.4.5 1.2.5 2.4-.1l-.1.4c1.4 0 2.7-.1 4 .1 1.2.1 2.4.1 2.4 1.4l.2.2v1.3zm-54.2 8.4c2.2-.3 5.4-1.4 5.9-2.2-1.2.4-2.2.8-3.3 1-.8.2-2.4.9-2.6 1.4v-.2zm3.8 41.6c.1-.7.3-1.6-.5-2.1l-.4 5.3.7-3.1.2-.1zm1.2-6.1c.3-.8-.1-.8-1-.9l-.7 4.7.8-.7c.3-1 .3-2 .8-2.9v-.2zm-.8-1.6c-.1.3.2.5.5.8l.3-.1.5-2.6.4-.1-.1-1.4.9-3.3c.1-.5.3-1.3-.6-1.6-.1.7-.1 1.4-.3 2l-1.6 6.3zm8.3-16.3-.3-.1 3.5-9.9c1.1-3.3 2.6-6.5 3.3-9.7-.7 1.2-1.2 2.5-1.7 3.8l-1.8 5.3c-.7 1.8-1.6 3.7-2.2 5.6l-3.3 10.8c-.8 2.5-1.7 5.1-2.3 7.7-.8 3.1-1.4 6.1-2 9.1-.2.7-.1 1.4-.2 2l.3-.1c.4-2.3.8-4.6 1.4-6.9.5-2.3 1.4-4.6 1.8-6.9.4-2 1.8-6.3 2.8-6.9l-.4 1.7c.2-.2.5-.4.6-.7l1.4-4.4 1.9-5.2 1.6-4.5 1.4-3.7.4-1.8a1 1 0 0 0-.6.5l-1.9 5.5-2.4 7.3-.9 1.2-.4.3zm-4.4 2.5c-.8 1.8-1.4 3.7-2 5.7l.8-.1.1-.7.3-.1.1 2.2.3-.3c.2-.7.3-1.3.1-2.1-.3-1 .5-2.2.7-3.3l.4-1.6 1 .3v-.5c-1-.1-.5-.8-.5-1.2l.5-.7c.7-2 1.2-4.1 2.1-6.1.7-1.6.7-3.2 1.5-4.7 1-1.7 1.2-3.6 1.8-5.4.2-.7.7-1.4.8-2l.9-3.1-.3.1-.7 1.1-1 2.7-2.9 7.1c-1.2 3.3-2.2 6.7-3.5 10.1-.3 1-.4 2-.9 3.1l.4-.5zm-.2-22.5.9-.3-.5-.9c-.5.4-.7.7-1 .8l-.9.1v.3h1.5zm.7 36.3-.3.1-.5 2.1.3-.1.5-2.1zm2.6-10.7c-1 2.7-2 5.4-2.3 8.2l1-2.3c.5-1.5.8-3.1 1.4-4.5.1-.5.2-.9-.1-1.4zm1.9-27c.8-.2 1.6-.3 2.3-.7.3-.1.4-.5.5-.8l-.3-.2c-.4.3-.7.7-1.1.8-1.7.5-3.5.7-5.2 1.1v.5c.3.1.6.2 1 .1.9-.1 1.9-.4 2.8-.8zm-1.1 22.4.3-.1c.3 1.2-.7 2.2-1.1 3.4l-.3.1 1.1-3.4zm6.7-25.8c1-1.1 1-2.4.9-3.6l-1.1 3.4.3-.1-.1.3zm1.5 6 .8-2.1-.3-.2-.8 2.1.3-.1v.3zm20.9-7.9v-.3l-2.7.3v.3l2.7-.3zm3.9 1.5.7-.1c-1-.7-3.3-.6-4.4 0 .3.1.5.2.7.1l2.8-.1.2.1z" class="st3" style="mask:url(#mask17_1125_1462_00000070822677673165973470000003096103840487115455_)"/></g></svg>