<?xml version="1.0" encoding="utf-8"?>
<!-- Generator: Adobe Illustrator 27.4.0, SVG Export Plug-In . SVG Version: 6.00 Build 0)  -->
<svg version="1.1" id="Layer_1" xmlns="http://www.w3.org/2000/svg" xmlns:xlink="http://www.w3.org/1999/xlink" x="0px" y="0px"
	 viewBox="0 0 506 279" style="enable-background:new 0 0 506 279;" xml:space="preserve">
<style type="text/css">
	.st0{fill:#07483B;}
</style>
<g transform="translate(0.000000,1491.000000) scale(0.100000,-0.100000)">
	<path class="st0" d="M1985.8,14780v-8.5h-21.4c-55.9,0-157.6-17-208.5-34.8l-9.7-3.4l7.5-1.7c5.4-1.2,13.9,0.5,29.9,5.8
		c12.2,3.9,27.5,7.3,33.8,7.3c6.3,0,20.2,2.2,31.1,4.9c44.8,10.7,94.1,15.3,102.9,10c4.9-3.2-2.4-4.6-30.2-5.8
		c-13.4-0.7-41.4-5.6-72-12.4c-27.7-6.1-53.3-11.2-56.7-11.2c-3.6,0-9.2-1.7-12.6-3.9c-3.4-2.4-13.1-4.6-23.6-5.4
		c-17-1-24.8-3.9-22.4-7.8c1.9-3.4-1.2-4.4-33.3-10.7c-16.8-3.4-34.3-8.3-38.7-10.9c-4.6-2.7-14.4-6.1-21.6-7.5
		c-38.2-7.8-54.2-12.6-64-19.7c-8.5-6.1-11.7-7.3-19-6.1c-6.8,1-9.7,0.2-13.1-3.4s-5.4-4.1-8.8-2.2c-7.3,3.9-1.7,10.7,12.9,16.5
		l12.9,4.9h-10.2c-13.4,0.2-34.8-7.8-42.3-15.8l-5.8-6.3l8.5,1.5l8.5,1.7l-12.2-11.7c-13.4-12.6-41.8-28.5-48.6-27
		c-3.6,0.7-3.6,1.5,1.2,7.5c2.9,3.6,10.5,9.2,16.8,12.6c6.3,3.2,13.1,7.5,14.8,10c3.4,3.6,2.9,3.9-4.9,2.9
		c-4.6-0.7-10.7-2.2-13.1-3.2c-11.2-4.9,0,4.1,16.1,13.1c20.4,11.4,18.5,15.1-2.7,5.1c-8.5-4.1-15.8-7.3-16.3-7.3
		c-0.7,0-0.5,10.7,0.5,23.8c1.5,20.2,1,25.3-2.7,32.8c-10.5,22.4-66.4,47.9-73.9,33.8c-1.2-2.4-11.7-34.8-23.1-72.2
		c-11.4-37.5-21.9-70.3-23.1-73c-1.2-2.9-15.1-11.9-32.8-21.6c-27.5-14.8-30.4-17-28.2-21.2c2.2-3.9,1.5-5.8-3.9-10.7
		c-5.6-5.1-9-6.1-22.6-6.1c-14.1,0-18.2-1.2-33.1-9.5c-28.7-16.1-36.5-28.9-10.5-17.3c9,3.9,12.4,4.4,20.2,2.2
		c8-2.2,10.9-1.9,17.5,1.5c4.4,2.4,8,5.4,8,6.8c0,1.2-1.5,1-3.4-0.5c-1.9-1.7-6.6-2.7-10.5-2.2c-6.6,0.7-6.6,1,3.9,6.6
		c6.8,3.4,11.2,4.6,12.2,2.9c1-1.5,7.3-0.5,18,3.4c21.2,7.8,28.5,11.7,34.3,18c2.7,2.9,7.3,5.1,10.5,5.1c12.4,0,4.4-7.3-22.4-20.4
		c-26.5-13.1-28-14.4-30.4-23.4c-1.7-6.3-6.3-12.6-13.9-19.2c-10-9-11.9-9.7-20.4-8.5c-10,1.7-12.2-0.2-5.6-5.1
		c3.4-2.4,2.2-3.9-10-10.7c-13.6-7.8-14.6-7.8-23.8-4.9c-9,2.9-10,2.9-14.1-2.4c-6.1-7.5-5.8-10.7,1-8.5c4.9,1.5,4.6,1-1.9-6.3
		c-8-8.8-19.7-14.6-29.2-14.6c-4.4,0-6.1-1.2-6.1-4.6c0-3.6-7.1-8.8-27.2-19.7c-15.1-8.3-34.1-19.9-42.3-25.8
		c-8.5-6.1-20.2-12.6-26.5-14.8c-9.5-3.2-12.2-5.6-16.5-14.4c-3.9-8-8.5-12.6-17.5-17.8c-6.6-3.9-20.9-14.1-31.4-23.1
		c-20.4-17-102.4-77.1-126.7-92.9c-8-5.1-20.2-15.1-27.2-22.1c-13.1-13.4-16.3-15.3-14.8-9.2c1.2,6.3,59.8,58.6,73.5,65.9
		c8.5,4.4,14.6,9.7,17.5,15.1c3.2,5.8,8,10,15.6,13.1c7.1,2.9,20.2,13.6,37.7,30.9c32.8,32.4,63.5,58.6,68.1,58.6
		c5.4,0,17.8,11.7,24.3,23.1c6.8,11.7,31.9,29.9,35.8,26c1.5-1.5-1.2-4.4-7.1-7.8c-5.1-3.2-7.8-6.1-6.1-6.6
		c5.4-1.9,18.5,7.5,22.9,16.3c5.8,12.4,11.4,17.3,18,15.6c2.9-0.7,7.5-0.2,10.2,1.2c6.3,3.4,40.4,43.8,38.4,45.7
		c-0.7,0.7-7.8-4.6-15.6-11.9c-12.4-11.9-16.8-14.4-35.8-20.2c-18.2-5.4-23.6-8.3-32.4-17c-5.8-5.8-22.9-18.5-37.7-28.2
		c-35.5-22.9-71-50.1-95.4-73c-10.7-10-30.4-27.2-43.8-37.9c-31.9-25.5-122.6-115.8-141.3-140.6c-19.2-25.1-37.5-43.1-37.5-36.5
		c0,1.9,45.2,59.8,58.9,75.7c7.1,8.3,37.7,39.2,68.4,69.1c30.4,29.7,54.7,54.7,54.2,55.2c-0.7,0.7-4.9,0-9.2-1.5
		c-5.6-1.9-29.9-24.1-76.9-70.3c-37.7-37.5-68.6-69.1-68.6-70.5c0-1.5-6.8-11.2-15.3-21.6c-29.9-36.7-57.9-76.1-72.7-102.2
		c-11.9-21.4-15.1-28.9-16.1-40.1c-0.5-7.8-0.5-16.8,0.5-19.9c3.9-15.8,31.1-36,70.8-52.5c27.7-11.4,36-12.2,41.6-3.6
		c1.9,3.2,3.2,6.8,2.4,8c-0.7,1.2-11.2,8-23.4,15.1c-11.9,7.3-21.9,13.9-21.9,14.8c0,1,2.2,2.4,4.6,3.4c8.8,2.7,23.6,21.9,30.4,38.9
		c3.6,9.7,17.8,33.8,32.6,55.9c25.3,37.7,27.7,40.4,83.2,93.7c78.3,74.7,107.3,100.9,148.4,134c73,58.1,118.9,91,214.1,151.8
		c57.7,37,77.8,48.4,80.5,45.7c1.2-1.2-1-10.2-5.1-20.9c-8-21.2-68.4-201.2-80.3-240.1c-4.4-14.1-13.1-38.7-19.5-54.7
		c-6.6-16.1-26.3-73.5-43.8-127.7c-17.8-54.2-34.8-105.1-37.9-113.4c-3.2-8-5.8-17.3-5.8-20.7c0-13.1-2.9-16.8-22.9-28.7
		c-21.9-13.1-87.6-46.5-91.7-46.5c-1.2,0,7.1,13.6,18.5,30.6c13.1,18.7,20.4,31.9,19.7,34.1c-1,2.4,3.9,9.7,13.1,20.2
		c8,9,14.6,17.5,14.6,19c0,1.5-1.7,4.1-3.9,5.8c-3.6,2.9-3.4,3.6,2.7,6.1c3.6,1.5,5.6,3.4,4.4,4.1c-1.5,1-6.8-1.5-12.2-5.1
		c-5.4-3.6-19.5-13.1-31.1-20.9c-42.3-28.5-100.9-78.6-100.9-86.1c0-1.9-1.9-5.8-4.1-8.5c-3.4-3.6-4.1-8-3.6-20.7
		c0.7-13.9,1.7-17,6.8-21.2c3.9-3.4,5.8-7.5,5.8-12.6c0-10.7,17.8-26.3,36.2-31.4c16.3-4.9,26.5-2.9,59.6,10.9
		c32.1,13.9,50.4,20.4,51.8,19c0.7-0.7-0.5-6.6-2.7-13.1c-1.9-6.3-8.3-30.2-13.6-53c-5.4-22.6-13.9-57.6-19.2-77.8
		c-5.1-19.9-12.4-56.2-16.3-80.3c-6.1-38.2-7.1-49.9-6.8-91.2c0.2-72.2,4.9-93.4,23.4-111.2c8.5-8.3,34.5-21.4,47.2-24.1l7.8-1.5
		l1,39.6c1,32.6,2.2,42.6,6.6,54.2c2.7,8,4.6,14.8,4.1,15.3c-0.5,0.7-4.4-0.7-8.5-2.9c-4.1-1.9-7.5-3.4-7.5-2.9
		c0,7.5,13.1,110.4,16.8,131.8c6.3,35.5,6.8,37,13.6,46.2c4.6,6.3,5.6,11.2,6.6,32.8c1,23.4,1.9,27.2,10,43.8c5.1,10,9,21.6,9,25.8
		c0,4.1,2.7,12.4,5.6,18.2c3.2,5.8,6.3,15.8,7.3,21.9c0.7,6.1,4.4,15.8,7.5,21.9c4.1,7.1,6.3,14.4,6.3,21.4
		c0,13.4,8.5,40.1,16.1,50.4c6.1,8.3,28.5,20.7,56.7,31.6c13.1,5.1,19.2,8.8,21.9,13.6c3.2,5.4,8,8.3,23.8,13.4
		c16.3,5.4,20.4,7.8,22.6,13.1c3.6,8.5,23.6,18,34.1,16.1c4.1-1,9.5-0.5,11.7,0.7c28.5,15.8,83.4,47.9,88.5,51.6
		c3.9,2.7,17.3,9.7,30.2,15.6c12.9,6.1,28.9,14.6,35.8,19c7.1,4.6,24.8,14.8,39.6,23.4c14.8,8.3,32.8,19.9,39.6,26
		c7.5,6.6,20.9,14.6,34.3,20.2c12.2,5.1,27.7,12.9,34.8,17.3c7.1,4.1,19.7,10.7,28.7,14.4c8.8,3.4,24.6,13.1,35.3,21.2
		c10.5,8.3,37.9,26.5,60.6,40.4c22.9,14.1,52.5,33.1,66.4,42.3c13.9,9,36.2,23.4,50.1,31.6c14.6,8.8,27.7,18.7,31.9,24.1
		c3.6,4.9,17.8,16.1,31.1,24.8c13.6,8.5,28.7,20.4,34.1,26.3c5.1,5.6,14.4,12.6,20.2,15.3s12.9,8.5,16.1,12.4
		c2.9,4.1,12.4,11.9,20.7,17.3c16.1,10,18,12.9,11.2,15.3c-3.6,1.5-3.6,1.9,0,5.6c3.2,3.2,4.6,3.4,7.5,0.7
		c5.1-4.1,10.2,0.2,15.3,12.9c2.7,6.8,6.3,10.5,11.9,12.9c5.6,2.4,7.8,4.6,6.8,7.1c-1,2.2,3.4,9.2,10.9,18
		c15.6,17.8,37.2,52.3,44.5,70.3c4.4,11.4,5.4,19,5.6,41.8c0.2,15.3,1.2,31.9,2.2,37c1.7,7.8,1.2,9.5-4.4,14.4
		c-4.6,3.9-5.6,6.1-3.4,7.3c1.7,1.2,3.6,1,4.4-0.2c0.7-1.2,2.9-1.2,4.9,0c3.2,1.9,2.9,2.4-0.5,2.4c-2.9,0-4.4,1.9-4.4,5.6
		c0,10-13.9,34.3-29.4,51.6c-13.6,15.3-14.6,17-10,17.8c2.9,0.5,5.4,1.7,5.4,2.9c0,1-6.1,7.5-13.6,14.6
		c-9.7,8.8-24.6,17.8-50.1,30.4c-36.2,18-36.5,18-51.8,16.5c-19.7-1.7-30.6,0.5-38.7,7.8c-3.6,3.4-7.1,6.1-7.8,6.1
		C1986.3,14788.5,1985.8,14784.6,1985.8,14780z M2059.5,14731.5c33.8-10,59.6-22.9,64.5-31.6c5.4-10.5,5.4-46.7-0.5-65.7
		c-8.8-29.7-37.9-79.3-70.1-119.7c-18.5-23.6-28.9-34.1-56.7-56.7c-11.9-10-29.4-25.3-38.9-34.3c-9.2-9-29.7-27-45-40.4
		c-15.3-13.1-29.4-26.8-31.1-30.4c-1.9-3.6-7.3-8.5-12.2-10.7c-29.9-13.6-42.3-22.1-49.4-33.8c-2.4-4.1-4.6-8.3-4.6-9.5
		c0-1,22.9,13.9,51.1,32.8c47.7,32.4,62.5,39.9,48.4,24.8c-3.2-3.4-17.8-15.8-32.6-27.2c-14.6-11.4-30.9-24.6-35.8-28.9
		c-5.1-4.4-17-11.9-26.8-16.8c-9.5-4.9-24.6-14.6-33.3-21.6c-8.8-7.1-37.5-25.5-63.5-41.4c-26-15.8-63.7-39.2-83.9-52.1
		c-40.4-26.3-79.5-48.9-122.4-71.3c-15.6-8.3-32.8-17.8-38.2-21.4c-5.4-3.4-16.3-8.8-24.3-11.9c-8-2.9-16.1-6.8-18.2-8.8
		c-1.9-1.7-10.2-7.1-18.2-11.7c-8-4.6-24.3-14.4-36.5-22.1c-11.9-7.5-52.1-28.9-89-47.7l-67.1-33.8l-2.7,6.1
		c-1.5,3.2-2.2,7.5-1.2,9.7c0.7,2.2,18.5,12.4,39.4,22.6c20.9,10.5,46.7,23.8,57.4,29.9c10.7,6.1,51.8,28.9,91.2,50.6
		c39.4,21.9,89.3,49.6,110.7,62c21.4,12.4,46,26,54.7,30.4c8.8,4.4,27.2,15.3,41.4,24.3c14.1,9,45.2,28.2,69.3,42.6
		c24.1,14.4,55.7,34.1,70.5,43.5c25.3,16.5,26.3,17.3,18.7,18c-9.5,1-55.5-23.6-103.6-55.2c-57.7-38.2-80-52.1-117-71.5
		c-19.9-10.7-65.9-37-102.2-58.9c-71.8-43.1-132.1-75.4-145.5-77.8c-5.4-1-10.2-4.1-12.6-7.8c-2.4-3.6-15.3-11.4-33.6-20.4
		c-16.3-7.8-30.4-14.4-31.6-14.4c-1,0,0,2.7,2.2,6.1c1.9,3.2,3.2,7.1,2.2,8.3c-1.9,3.4,6.6,22.4,11.9,26.8c2.4,1.9,3.4,5.1,2.7,7.8
		c-1,2.7,1.9,11.7,7.3,22.1c5.1,10.7,9.2,23.1,10,31.1c0.7,7.3,3.4,16.1,5.6,19.5c2.4,3.4,5.1,10,5.8,14.6c1,4.6,9.2,27.7,18.7,51.1
		c9.2,23.4,21.4,57.4,26.8,75.4c5.4,18,11.9,35.8,14.4,39.2c2.9,3.9,3.9,7.5,2.7,9.5c-1.2,1.9-0.7,6.1,1.5,10
		c1.9,3.9,3.4,8.5,3.4,10.5c0,2.2,6.6,20.4,14.6,40.6c8,20.2,19,50.4,24.1,67.4c17.3,56.9,58.1,161,66.4,170
		c2.9,2.9,17.3,10.5,32.1,16.8c14.8,6.1,37.5,15.6,50.1,20.9c12.6,5.4,29.4,11.9,37.5,14.6c7.8,2.7,18.2,7.3,23.1,10.5
		c11.2,7.5,137.9,48.6,165.7,53.8c11.4,2.2,42.6,9.2,69.3,15.6c62,15.1,70.5,16.5,111.9,20.7
		C1989,14741,2032.8,14739.3,2059.5,14731.5z M2094.8,14517.7c-7.5-13.1-11.7-17-11.7-11.4c0,4.4,17.8,30.6,18.7,27.7
		C2102.4,14532.6,2099.2,14525.3,2094.8,14517.7z M2080.7,14489.8c0-3.4-30.6-32.4-32.4-30.4c-1,1,5.1,8.5,13.4,17
		C2076.1,14491,2080.7,14494.1,2080.7,14489.8z M2029.6,14439.2c0-0.7-5.1-7.5-11.2-15.1c-12.4-15.1-23.6-23.6-28-21.2
		c-1.7,1.2,4.6,8.5,16.3,19.7C2024.5,14439.2,2029.6,14442.8,2029.6,14439.2z M1946.9,14323.9c-13.1-11.9-16.5-13.4-13.9-6.1
		c1.5,3.4,22.6,18.5,25.8,18.2C1959.8,14335.8,1954.2,14330.4,1946.9,14323.9z M1803.4,14240.9c-23.4-21.4-46.5-35-46.2-27
		c0.2,1,9.5,8,20.7,16.1c11.2,7.8,22.4,16.3,24.6,18.7c2.2,2.4,6.6,4.6,9.2,4.6C1815.8,14253.1,1814.1,14250.9,1803.4,14240.9z
		 M1839.9,14246.7c0-1.9-79.1-52.3-81.2-52.1c-4.4,0.7,1.2,4.9,37.5,28C1835.5,14248,1839.9,14250.4,1839.9,14246.7z
		 M1243.7,14170.4c-4.1-11.2-8-20.9-8.8-21.6c-0.7-0.7-0.7,3.9-0.2,10.2c1.2,10.2,13.1,35.5,15.6,33.1
		C1250.7,14191.3,1247.8,14181.8,1243.7,14170.4z M1706.1,14164c0-2.9-17.3-13.4-19-11.7c-1,1,0,2.4,1.9,3.6
		c1.9,1.2,5.8,3.9,8.5,5.8C1702.9,14166,1706.1,14166.7,1706.1,14164z M1226.9,14130c-1-5.1-5.8-19.5-10.7-32.1
		c-8.3-21.2-8.5-23.4-5.1-28.5c4.9-7.5,4.6-8.3-1.9-8.3c-8,0-11.4-4.6-11.4-15.1c0-5.1-5.6-24.6-12.4-43.3
		c-12.6-34.1-17.5-44-20.4-40.9c-2.2,1.9,59.6,179.8,62,178.3C1227.9,14139.5,1227.9,14134.9,1226.9,14130z M1416.6,14017.6
		c-0.2-2.2-10.7-9.5-14.8-10c-12.6-1.9-12.9,5.4-0.5,10.5C1409.8,14021.5,1416.6,14021.3,1416.6,14017.6z M1184.6,13951
		c-3.2-7.5-8.8-14.1-8.8-10c0,0.7,1.9,6.8,4.1,13.4c3.2,8.3,4.9,10.7,6.3,8.3C1187.3,13960.7,1186.5,13955.6,1184.6,13951z
		 M1302.8,13958.5c-5.8-2.7-12.4-4.1-14.6-3.2c-7.1,2.7,3.6,8.5,15.1,8.3l10-0.2L1302.8,13958.5z M1160.7,13936.6
		c-2.4-6.8-8.5-13.1-10.5-11.2c-0.7,0.7,0.2,4.9,1.9,9.5c1.9,4.6,4.1,10.5,5.4,13.1l1.7,4.9l1.9-4.9
		C1162.2,13945.4,1162,13940.3,1160.7,13936.6z M1172.9,13917.1c-1.9-2.9-6.3-6.1-10-7.1c-10.5-2.9-9.7,1,1.2,6.8
		C1177.3,13923.7,1177.3,13923.7,1172.9,13917.1z M1110.6,13880.7c-2.2-9-18.2-22.4-35.8-29.7c-9.5-4.1-29.2-13.1-44-20.2
		c-26.8-12.6-37.5-15.6-37.5-10.2s16.3,18.2,27,21.4c5.8,1.7,28.2,12.4,49.6,23.6c21.4,11.2,39.6,20.4,40.6,20.4
		C1111.4,13886,1111.6,13883.6,1110.6,13880.7z M1141,13813.8c-9.5-34.1-15.3-49.1-19.5-50.4c-2.9-0.7-4.1,0-3.4,1.7
		c0.5,1.7,4.6,14.1,9.2,28c5.1,15.8,9.2,24.8,11.4,24.8C1141,13817.9,1141.8,13816.2,1141,13813.8z M1118.9,13809.4
		c-0.7-1.9-7.3-26.3-14.6-54c-29.7-111.4-44.3-192.2-50.1-276.8c-2.4-33.3-4.6-43.5-8.8-39.4c-3.2,2.9-3.9,62-1.2,83.2
		c8.8,67.1,19.2,118.5,36.7,180c6.6,22.9,15.3,55,19.5,71.8c7.3,28.5,12.2,38.9,17.8,38.9
		C1119.4,13813,1119.9,13811.3,1118.9,13809.4z M1106.3,13697c-4.4-14.6-5.8-15.8-5.8-4.9c0,10.7,1.9,16.3,6.1,16.3
		C1109.2,13708.4,1108.9,13706.2,1106.3,13697z M1123.8,13701.9c-0.7-2.4-2.9-10.7-5.1-18.2c-2.2-7.8-4.9-14.1-6.1-14.1
		c-1.7,0,3.6,20.9,8.3,33.3C1122.8,13707.5,1125.2,13706.7,1123.8,13701.9z"/>
	<path class="st0" d="M1823.6,14779.5c-7.1-0.7-10.5-2.2-10.5-4.6c0-1.9,1.2-3.4,2.7-3.4c5.6,0,21.6,5.6,21.6,7.8
		c0,1-0.7,1.7-1.7,1.5C1834.5,14780.4,1829.2,14780,1823.6,14779.5z"/>
	<path class="st0" d="M1683,14727.2c-18.7-6.8-34.5-12.9-35-13.1c-4.6-3.9,7.3-1.5,44.3,9.2c26.8,7.8,42.1,13.4,40.1,14.6
		C1726.5,14741.5,1717.1,14739.6,1683,14727.2z"/>
	<path class="st0" d="M1621,14724.5c-19.9-5.1-37.9-13.9-32.6-15.6c1.5-0.5,14.4,3.6,29.2,9.2C1654.3,14732,1655,14733,1621,14724.5
		z"/>
	<path class="st0" d="M1619.8,14707.9c-2.7-1.2-14.4-5.6-26-9.7c-11.9-4.1-21.4-8.5-21.4-9.5c0-2.9,26,3.6,44.8,11.2
		c8.8,3.4,16.1,7.3,16.1,8.5C1633.1,14711.1,1626.1,14710.9,1619.8,14707.9z"/>
	<path class="st0" d="M1534.1,14692.4c-7.1-3.2-12.9-6.3-12.9-7.1c0-1.2,10.5,2.4,34.1,11.4c2.2,0.7,1.5,1.5-2.4,1.5
		C1549.5,14698.2,1540.9,14695.8,1534.1,14692.4z"/>
	<path class="st0" d="M3602.2,14596.5c-10.7-4.9-44.3-33.3-77.4-65.7c-35.3-34.3-63-73.9-69.8-99.5c-3.9-15.1-3.2-48.2,1.5-63.7
		c4.9-16.5,14.4-32.1,28.7-46.2c6.3-5.8,11.2-12.2,11.2-13.9c0-1.7,2.4-3.2,5.6-3.2c9.5,0,12.2-4.9,6.1-11.4
		c-2.9-3.2-6.8-5.6-8.8-5.6c-1.9,0-5.6-2.7-8.3-6.1s-6.6-6.1-8.8-6.1s-7.3-3.9-10.9-8.5c-6.6-8.3-6.6-8.5-1.5-8.5
		c4.1,0,4.6-0.7,2.4-3.4c-2.2-2.4-5.6-3.2-11.7-2.2c-6.3,1-9.5,0.5-11.4-2.2c-1.5-1.9-7.5-6.6-13.6-10.2c-6.1-3.9-18.5-14.1-28-23.1
		c-9.2-8.8-15.1-13.9-13.1-11.2c11.2,15.1,34.3,40.6,46.9,52.8c10.5,9.7,14.1,14.4,12.4,16.3c-1.9,1.9-5.4,1.2-12.2-2.2
		c-5.4-2.7-11.7-4.9-14.6-4.9c-2.7,0-8-1.7-11.9-3.6c-3.6-1.9-8.3-3.6-10.2-3.6c-1.7,0-10.5-3.4-19-7.8c-8.8-4.4-16.5-7.1-17.5-6.3
		c-0.7,1,1.5,17.8,4.9,37.7s6.3,42.6,6.6,50.6c0,8,1,16.8,2.2,19.5c2.2,5.6-5.8,21.9-16.8,33.8c-14.1,15.3-51.1,36.7-72.5,41.8
		l-12.6,2.9l-16.8-25.8c-23.4-36.5-55.7-93.2-63.7-112.1c-3.6-8.8-11.4-30.9-17-48.9c-5.6-18-17.3-54-25.8-80
		c-10.2-31.1-15.6-50.8-15.6-58.6v-11.4l-18.5-9c-23.6-11.7-26-10.9-24.6,9c2.9,35.8,6.6,59.8,11.7,75.9c2.9,9.5,5.6,22.6,6.1,29.2
		c0.2,6.8,1.7,15.1,3.2,18.7c2.2,6.1,1.5,41.6-1.2,59.8c-0.7,4.9-5.1,12.4-10.5,18.2c-4.9,5.6-10.2,13.1-11.7,16.8
		c-2.4,5.1-5.4,6.8-16.5,9.2c-7.5,1.7-15.8,4.9-18.5,7.5c-6.1,6.1-24.3,6.1-37.5,0c-9.7-4.6-36.2-29.4-31.1-29.4
		c1.5,0,3.9,1.7,5.8,3.9c3.9,4.6,16.8,11.4,16.8,9c0-1.2-10.5-12.4-23.1-25.1c-13.1-13.1-23.1-25.1-23.1-27.7c0-2.4-4.1-10-9-16.3
		c-9.5-12.4-15.1-15.8-10.5-6.3c2.2,4.4,1.5,4.1-3.6-1.7c-3.4-3.9-5.8-8.5-5.1-10.2c0.7-1.9-3.2-7.5-9.5-13.4
		c-6.1-5.6-18.2-20.9-27.2-34.1c-9-13.1-16.5-23.8-16.8-23.4c-0.5,0.2,4.6,17.5,11.4,38.2c6.6,20.7,15.3,50.8,19.5,67.4
		c7.3,28.9,7.3,30.2,3.6,42.6c-2.9,10.7-5.4,14.1-14.1,19.7c-5.6,3.6-12.6,6.6-15.8,6.6c-11.4,0-19.9-20.9-54.5-133.1l-24.6-79.8
		l-37.5-40.4c-49.6-53.8-77.1-77.6-89-77.6c-3.9,0-4.4,2.7-4.4,20.2c0,20.9,4.4,35.8,38.9,130.6c5.1,14.1,12.9,35.8,17.3,48.2
		l8,22.6l-5.8,11.4c-11.7,21.6-24.1,32.1-38.4,32.1c-9.5,0-10.9-2.2-17.5-27.7c-2.9-12.2-9.7-32.4-15.1-45
		c-5.1-12.9-16.8-45.7-25.5-73.2c-13.9-43.1-16.1-53-17.3-73.2c-1.2-25.5,2.7-45,11.7-56.2c2.7-3.4,16.1-11.9,29.9-18.7
		c28-13.9,40.9-16.1,55.7-9c9.2,4.4,30.2,24.6,34.5,33.3c1.5,3.2,5.1,7.1,8.3,8.5c2.9,1.5,4.6,3.2,3.9,4.1
		c-1.5,1.5,12.6,23.6,15.1,23.6c0.7,0,1-7.5,0.7-16.8c-0.5-15.6,0-17.5,8.8-30.4c9.2-13.9,19.5-21.2,34.1-24.3
		c4.1-0.7,8.5-0.5,10.2,0.5c5.4,3.4,16.1,21.2,28,46.7c6.6,14.1,18.2,34.8,26,46.2c7.8,11.4,22.1,35.5,31.9,53.5
		c19,35.5,39.9,67.1,65.4,99.2c8.8,11.2,19.9,25.5,24.8,31.9c8,10.2,42.6,39.2,46.7,39.2c3.9,0,1.2-40.4-4.1-66.2
		c-17.3-82.9-18.7-108.2-8.3-131.4c6.8-14.6,21.4-30.9,33.3-37.2c6.6-3.4,8.3-3.4,15.3-0.2c10.5,4.6,26.3,19.7,26.3,25.3
		c0.2,2.2,3.9,8.3,8,13.1l8,9l2.9-10.7c2.4-8.8,5.6-12.9,18-22.9c20.2-16.3,45.5-29.4,55.9-29.4c11.7,0,27.5,11.4,41.4,29.7
		c33.1,43.5,63.5,88.5,63.5,93.7c0,3.2,0.7,6.3,1.9,7.1c1.2,0.5,4.1,5.8,6.6,11.4c4.9,10.9,12.6,18,39.4,35.8
		c8.8,5.6,18.7,13.1,22.6,16.5c9,8.5,8.3,4.4-1.5-7.1c-11.9-13.9-14.1-23.4-11.7-52.1c1.7-18,4.1-29.4,9.7-43.3
		c4.1-10.5,7.5-20.7,7.5-22.4c0-4.9,16.3-20.2,28-26.5c8.5-4.4,13.6-5.1,37.7-4.9c36.5,0,51.3,4.1,93.7,25.5
		c61.8,31.4,98.8,65.4,99.2,91.9c0.2,17.5-6.1,47.7-12.4,59.6c-8.8,16.1-38.9,47.9-60.8,64c-9.7,7.3-17,14.1-16.5,15.1
		c0.7,1.2,7.3,6.1,14.8,11.2c10.7,7.5,12.9,10,10.5,12.6c-2.2,2.7-1.7,3.6,2.4,4.9c3.2,0.7,5.4,3.2,5.4,5.8c0,3.9-4.9,1.5-25.1-12.6
		l-25.3-17.3l-13.1,6.6c-34.1,17.3-45.5,25.3-48.4,34.3c-7.5,22.9,4.4,45.7,52.8,101.2c43.1,48.9,97.1,87.1,123.8,87.1
		c7.1,0,8.3,1,8.3,5.6c0,10.7-13.1,27.2-27,34.3C3629.5,14602.4,3616.1,14602.9,3602.2,14596.5z M3333.9,14387.8
		c4.1-9,5.6-18.2,6.3-39.2c1-22.9,1.7-26.8,4.4-24.6c2.9,2.2,3.4,1,3.4-7.1c0-13.1-3.6-22.4-11.7-28.9l-6.6-5.4l5.8-0.2
		c5.6,0,5.6,0-1.5-6.6c-3.6-3.9-9-11.7-11.4-17.8c-13.6-32.4-15.8-36.2-22.9-39.9c-9.5-4.9-47.9-16.1-55.5-16.1
		c-5.4,0-5.8,1-5.8,11.7c0,7.5,2.9,18.2,8.8,32.1c4.9,11.4,11.4,29.2,14.6,39.4c3.2,10.5,7.3,22.1,9.5,26c1.9,4.1,3.6,8.8,3.6,10.5
		c0,6.8,47.9,77.4,52.8,77.4C3328.3,14399.3,3331.3,14394.2,3333.9,14387.8z M3261.7,14370.8c-31.4-57.2-43.8-78.6-45.5-78.6
		c-2.7,0,26.5,57.2,39.9,78.6c5.8,9,11.4,16.3,12.4,16.3C3269.7,14387.1,3266.6,14379.8,3261.7,14370.8z M3363.6,14351.1
		c0-4.9-1-10.9-1.9-13.1c-1.5-3.4-1-4.4,2.7-4.4c4.9,0,4.9-0.2,0.5-28.5c-2.4-15.8-3.6-29.4-3.2-30.4c1.5-2.4-2.2-14.8-9.2-31.6
		c-3.4-8.3-6.8-11.9-11.9-13.9c-5.1-1.7-7.1-1.7-7.1,0.2c0,3.4,13.9,42.3,19,52.8c3.2,6.3,3.9,13.9,3.2,34.1
		c-0.7,30.6,1.5,50.6,5.4,46.7C3362.4,14361.6,3363.6,14356.2,3363.6,14351.1z M3029.4,14293c-40.6-46.5-73.7-88.8-97.1-123.1
		c-25.8-38.4-31.9-46.2-31.9-40.9c0,1.2,1,2.9,2.4,3.9c1.2,0.7,11.2,15.8,22.1,33.6s23.4,36.5,27.5,41.8c4.4,5.4,11.2,17,15.3,25.8
		c5.1,11.2,10,17.5,15.1,20.7c4.1,2.4,10.5,8.5,13.9,13.6c3.6,5.1,8.5,9.7,10.9,10.5c2.7,1,6.1,4.1,7.8,7.5
		c2.9,5.6,17.8,17.5,21.9,18C3038.6,14304.4,3035,14299.3,3029.4,14293z M3554.3,14277.6c37-19,68.6-42.8,68.6-51.6
		c0-3.2-8.5-13.4-23.6-28.5c-20.7-20.4-28.5-26-59.6-43.5c-44-24.8-52.5-28.5-72.2-32.1c-18.7-3.4-29.4-1.7-43.3,6.3
		c-23.1,13.4-21.2,28.7,9,68.8c8.3,10.7,14.4,20.7,13.6,21.9c-1.9,2.9,40.6,44.5,58.4,56.9c13.9,10,16.1,12.9,8.3,10.7
		c-6.6-1.7-6.1,1.7,0.7,5.1c2.9,1.5,5.6,2.7,6.1,2.7C3520.7,14294.7,3536.1,14286.9,3554.3,14277.6z M3244.9,14173.8l25.3-9
		l-4.1-6.1c-10.7-16.8-45.2-61.5-57.9-75.2c-12.2-13.1-14.6-14.8-16.5-11.2c-4.1,7.3,0.5,35.5,12.4,73.2
		c6.3,20.4,12.4,37.2,13.4,37.2C3218.6,14182.8,3231,14178.6,3244.9,14173.8z M2799,14078.2c-1.2-4.4-15.3-17-19.2-17
		c-1.2,0,2.9,4.9,8.8,10.9c5.8,6.1,10.9,10.9,11.2,10.9C2800,14083,2799.8,14080.9,2799,14078.2z"/>
	<path class="st0" d="M3332.5,14307.6c-0.5-2.4-1.9-7.1-2.7-10.5c-1.2-4.1-1-5.4,0.7-3.6c2.7,2.7,6.6,18.2,4.4,18.2
		C3334.4,14311.7,3333.2,14309.8,3332.5,14307.6z"/>
	<path class="st0" d="M2787.1,14500.7c-2.9-1.7-4.6-4.4-3.9-6.1c0.5-1.9-0.7-7.8-2.7-13.4s-5.6-17.8-8-27.2
		c-2.2-9.2-9.5-31.1-15.8-48.6c-13.6-37.7-16.5-55.5-10.9-66.7c2.2-4.1,5.6-7.5,7.5-7.5c2.2,0,8.3,9.2,14.6,21.9
		c6.8,13.6,13.4,23.4,17.5,26c12.2,7.3,20.4,16.3,26.5,28.2c3.4,6.3,13.6,22.9,22.6,36.5c17.5,25.8,20.9,32.8,17.8,37
		c-3.4,4.6-26.5,15.8-40.9,19.5C2794.6,14504.6,2793.7,14504.6,2787.1,14500.7z"/>
	<path class="st0" d="M2398.9,14479.1c-2.2-1.7-5.8-10.2-8-19c-8.8-35-35.5-121.9-39.9-129.4c-2.4-4.4-9.2-23.4-14.8-42.1
		c-5.6-18.7-14.1-41.4-18.5-50.4c-4.9-9.5-8.3-20.2-8.3-25.1c0-4.9-2.2-12.9-4.9-18c-4.4-8.8-5.4-9.5-15.6-9.5
		c-9.7-0.2-13.9,1.7-34.5,15.3c-27,18.2-33.3,19.2-54.2,9.7c-27.7-12.9-60.1-51.3-101.4-120.4c-9-15.3-21.4-33.8-27.2-41.1
		c-5.8-7.1-9.7-13.6-9-14.6c1-0.7,3.2,0.7,5.1,3.2c4.9,7.1,4.1,2.7-1.7-9c-6.1-11.9-19.7-30.6-22.1-30.9c-1.2,0-1.9,1.9-1.9,4.4
		c-0.2,3.6-0.5,3.6-3.6-0.7c-3.4-4.1-3.2-4.9,0-6.8c3.2-1.7,2.7-3.4-3.6-11.2c-3.9-5.1-10.2-10-13.9-10.9c-4.6-1-10.7-6.6-19-17.3
		c-6.6-8.8-14.8-18.5-18-21.4l-5.6-5.4l1.2,37.7c1.2,34.8,2.2,41.4,12.6,82.7c13.4,52.8,15.3,75.7,7.1,86.8
		c-5.1,7.1-36.5,29.7-41.4,29.9c-3.6,0-8.3-10.7-8.3-19.2c0-7.5-22.9-41.6-28-41.6c-1.7,0-6.6,5.4-10.7,12.2
		c-4.1,6.6-10.5,13.9-14.1,16.1c-3.6,2.2-15.1,9.5-25.3,16.1c-10,6.3-19.5,11.7-20.9,11.7c-8.8,0-40.1-51.8-82.9-137.7
		c-26.8-53.5-38.4-81.2-44.3-106.3c-6.3-26.3-4.9-32.6,12.6-58.9c10.2-15.1,15.1-19.9,23.6-23.8c15.8-7.1,25.1-3.4,44.3,17.3
		c16.5,17.5,37.7,43.5,55.9,68.8c15.8,22.1,46,73.5,46,78.3c0,2.2,1.5,4.1,3.2,4.1c1.9,0,6.3,5.6,10,12.2c3.6,6.8,7.8,12.2,9,12.2
		c1.2,0,2.2-6.8,2.2-15.1c-0.2-46.5,4.6-74.4,17.3-99.2c6.1-12.2,25.8-34.5,34.5-39.4c14.6-8.3,22.4-6.1,39.9,10.9
		c8.8,8.3,19,19.9,22.6,25.5l6.6,10.7l5.4-8.8c12.2-19.5,25.3-22.9,47.7-12.4c15.1,7.3,54.7,41.4,63.2,54.5
		c3.2,4.9,20.9,24.8,39.4,44.3c18.5,19.7,37.9,41.8,43.3,49.4c13.6,19.7,16.3,18,10.9-6.3c-2.4-11.2-6.3-25.1-8.8-31.1
		c-5.4-14.6-7.8-78.8-3.4-100.5c3.6-19,15.1-40.6,27-51.6c9.7-8.8,20.7-13.1,23.8-9.5c5.8,6.6,24.3,44.8,22.4,46
		c-1.5,0.7-6.6-0.2-11.4-2.4c-9.7-4.1-17-4.6-19-1.7c-0.5,1,0,10,1.2,19.9c1.5,10,2.9,27.2,3.4,37.9c0.5,10.9,3.6,30.2,7.1,42.6
		c3.2,12.6,6.6,27.7,7.5,33.8c1,6.1,6.6,22.4,12.6,36.5c13.1,29.9,23.8,60.8,28.9,82.2c1.9,8.5,6.8,22.4,10.7,30.6
		c3.9,8.3,14.6,37.5,24.1,64.7c23.8,71,30.9,89.8,35.5,95.1c2.4,2.4,7.3,12.9,10.9,23.4c3.6,10.5,10.2,27.7,14.6,38.4
		c5.1,12.6,8.3,25.3,9.2,35.8l1.2,16.1l-10.2,6.3c-5.6,3.6-14.4,10.2-19.5,14.8c-8,7.3-19,13.4-24.3,13.4
		C2403.5,14482,2400.8,14480.5,2398.9,14479.1z M2342,14164.3c4.1-10.7-2.4-31.6-12.6-40.9c-2.9-2.4-4.6-5.6-3.9-6.8
		s-0.5-3.6-2.7-5.4c-3.6-2.7-3.6-3.9-1-8c2.7-4.6,2.2-6.3-3.4-14.8c-4.1-6.6-5.4-10.2-3.4-10.9c3.2-1-8.5-34.3-14.1-40.4
		c-5.8-6.1-9.2-0.5-7.8,12.9c1.7,16.8,26.5,76.6,34.5,83.4c7.1,6.1,7.5,8,2.4,8c-5.8,0-4.6,11.4,1.5,13.4c3.2,1,4.4,2.9,3.6,5.4
		c-1.7,3.9,0,8,3.4,8C2339.5,14168.2,2341.2,14166.5,2342,14164.3z M2258.3,14147.3c0-2.2-3.4-8-7.3-13.1c-7.3-9-7.3-9.5-2.4-10.9
		c4.9-1.5,5.1-1.9,1-6.3c-2.2-2.4-6.6-4.6-9.5-4.6c-6.1,0-20.4-14.4-26.8-26.8c-5.1-9.7-2.4-12.9,4.1-4.9
		c11.2,13.9,21.9,24.6,23.1,23.4c2.2-2.2-27-33.1-31.6-33.1c-3.9,0-39.9-33.1-69.6-64.2c-15.6-16.3-43.5-39.2-45.5-37.2
		c-2.4,2.4,36.5,72.7,47.7,85.6c6.1,7.1,21.4,26.3,34.1,42.6c12.6,16.5,26.5,32.6,30.9,35.8c7.5,5.8,38.9,17.5,47.7,17.8
		C2256.3,14151.2,2258.3,14149.4,2258.3,14147.3z M2268,14135.6c-4.1-5.4-7.8-2.2-4.6,3.9c1.9,3.4,3.4,4.1,5.4,2.2
		C2270.4,14140,2270.2,14138,2268,14135.6z M1947.9,14098.4c-2.7-11.7-7.5-21.9-12.6-27c-2.7-2.7-6.6-8.5-8.8-13.1
		c-8.8-18.2-55.5-82.2-60.1-82.2c-1.5,0-2.2,1.7-1.2,3.6c1.9,5.4,25.1,39.2,37.9,55.9c11.2,14.4,14.1,19.2,32.6,53
		C1945,14105.4,1950.6,14110,1947.9,14098.4z M2257.8,14094.2c-3.2-4.9-6.6-8.8-7.5-8.8c-2.2,0-1,2.4,6.3,12.9
		C2263.4,14108.3,2264.6,14104.7,2257.8,14094.2z M1888.5,14076.5c1.7-7.5,2.4-17.3,1.7-21.6c-1.7-10.7-35.8-59.1-55.5-79.3
		c-8.5-8.8-17.5-19.9-19.7-24.8c-4.6-9.2-22.9-30.6-26.5-30.6c-1.2,0-2.7,2.7-3.6,6.1c-1.2,4.4,1.9,11.9,12.9,30.9
		c7.8,13.9,15.8,29.9,17.5,36s7.3,17,12.4,24.3c5.4,7.3,14.6,21.6,20.9,31.6c13.1,21.2,32.4,44.3,35,42.6
		C1884.9,14090.8,1887.1,14084,1888.5,14076.5z M2302.1,14023.7c0-9-4.4-18.5-8.3-18.5c-2.4,0-5.1-4.9-7.8-13.9
		c-2.2-7.8-5.4-15.8-7.3-17.8c-2.9-3.2-3.2-1.9-1.9,8.5c1.7,13.1,7.3,34.8,10.2,39.2c1.9,2.9,10.5,8,13.4,8.3
		C2301.3,14029.5,2302.1,14026.9,2302.1,14023.7z M2283.1,13956.6c-1-6.8-11.9-18.7-14.6-16.1c-2.2,2.4,2.2,13.6,7.3,18.5
		C2283.1,13965.6,2284.3,13965.1,2283.1,13956.6z"/>
	<path class="st0" d="M3704.6,14419.7c-11.7-6.1-20.9-11.7-20.2-12.2c1.2-1.2,24.6,10,38.7,18.5
		C3737,14434.5,3727,14431.1,3704.6,14419.7z"/>
	<path class="st0" d="M3692.5,14406.6c-3.9-1.2-8-1.7-9-1c-2.7,1.5-10.7-2.7-49.1-25.3c-25.1-14.6-30.6-18.7-27.2-20.4
		c3.2-1.9,3.4-2.9,0.7-6.3c-2.4-3.2-1.5-2.9,4.1,0.7c4.1,2.7,23.8,14.1,43.8,25.8c33.1,19.2,48.2,28.9,45,28.7
		C3700,14408.5,3696.4,14407.5,3692.5,14406.6z"/>
	<path class="st0" d="M2442.4,14300.3c-3.6-1-4.4-2.9-3.4-8.8c1.2-6.8-17-82.7-28.9-121.4c-1.7-6.3-3.4-14.1-3.4-17.5
		s-3.6-16.3-8.3-28.9c-8.5-23.4-14.1-48.7-23.6-103.9c-6.3-37.7-6.3-52.5,0-73.9c2.7-9.2,4.4-19.5,3.6-22.6
		c-1.7-6.1,6.6-17.8,12.4-17.8c1.5,0,6.8-2.2,12.2-4.9c5.4-2.7,11.2-4.9,13.4-4.9s8.8,5.1,14.4,11.2c9.7,10.5,10.5,12.2,9.2,21.4
		c-0.7,5.6,0,16.1,1.9,23.6c6.6,25.1,34.5,95.4,58.1,145.7c39.6,84.7,45.5,94.9,54.2,99.2c6.1,2.9,8.3,5.8,9.5,12.4
		c1.9,10.7,4.9,16.8,11.4,24.1c7.8,8.5,10.5,6.6,13.6-9.7c6.1-31.6,22.6-53,41.1-53c11.7,0,13.6,5.6,10.5,34.8
		c-1.2,13.6-2.2,30.4-2.2,37.2c0.2,19.7-11.9,38.4-31.4,48.2c-4.1,1.9-15.3,5.1-25.1,6.6c-16.1,2.7-17.8,2.7-23.8-1.9
		c-3.6-2.7-11.4-12.9-17.3-22.9c-6.1-10-17.8-28.7-26.3-41.8c-8.5-13.1-18.2-29.4-21.9-36.5c-10.5-20.2-9.5-7.8,1.7,24.3
		c12.2,34.3,14.4,49.4,8.8,57.9c-4.9,7.3-41.4,25.8-50.1,25.3C2449.5,14301.5,2444.9,14301,2442.4,14300.3z M2505.2,14182.8
		c-10.2-17.3-19.2-31.6-19.7-31.6c-3.9,0,14.4,35,28.9,55.2C2528.5,14226.3,2523.9,14214.4,2505.2,14182.8z"/>
	<path class="st0" d="M2922.8,13895.7c-5.6-14.6-10.2-28.2-10.2-29.9c0-1.9-1.7-4.9-3.6-6.6c-1.9-1.7-3.6-5.6-3.6-8.8
		s-1.5-10-3.4-14.8c-3.6-9.7-26-84.7-30.6-102.9c-1.7-6.1-4.6-12.9-6.6-15.1c-1.9-2.2-2.9-6.1-2.2-8.5c1.7-5.4-11.9-54.5-13.6-49.4
		c-0.7,1.9-1.2-1-1-6.8c0-7.8-1-11.2-4.1-13.1c-3.2-1.7-3.6-3.2-1.9-5.4c2.7-3.2-1.5-21.6-4.4-19.9c-0.7,0.5-1.5-5.8-1.5-13.9
		c-0.2-18.5-2.7-29.2-6.6-27c-1.7,1.2-2.2-0.2-1-4.6c0.7-3.6,0.2-7.1-1.2-8c-3.6-2.2-1-28,3.6-37c5.1-9.7,20.9-24.1,31.4-28.5
		c14.8-6.1,26-1.7,39.4,15.3c6.1,7.5,10.5,15.1,10,16.8c-0.7,1.5,0.5,4.1,2.7,6.1c3.2,2.7,4.4,2.2,7.8-2.9
		c7.1-10.9,12.2-14.6,20.4-14.6c9.5,0.2,11.4,1.7,29.7,23.1c15.8,18.2,33.6,44,43.3,62.5c3.4,6.3,9,15.1,12.4,19.5l6.3,8l0.2-9.7
		c0.2-5.4,0.2-12.2,0-15.1c-0.5-6.8,6.3-33.6,10.9-42.3c1.7-3.6,7.1-10.5,11.4-15.3c9.7-10.5,19.5-11.4,29.4-3.6
		c7.5,6.1,32.6,43.5,36.2,54.5c1.2,4.1,4.4,10,6.8,13.4c2.9,4.6,3.6,8.5,2.7,14.4l-1.7,8l-9-13.1c-12.2-17.3-11.9-10.7,0.5,8.5
		c6.1,9.5,9.7,13.4,9.7,10.5c0-3.6,0.7-4.1,2.7-2.2c3.4,3.4,1.2,10.5-3.4,10.5c-1.9,0-8.8-7.5-15.3-17c-6.8-9.7-13.1-16.3-15.1-15.8
		c-1.7,0.7-2.9-0.2-2.4-1.9c1-4.4-5.1-13.9-9-13.9c-1.7,0-7.5-5.4-12.6-12.2c-5.1-6.6-10-11.9-10.9-12.2c-4.6-0.2-1.5,37,5.4,65.7
		c10.9,45.5,10.2,50.4-8.8,63.5c-11.9,8-15.6,7.3-15.6-4.1c0-2.7-3.4-9.5-7.5-15.3l-7.5-10.2l-10.2,10.5
		c-5.6,5.8-15.3,13.1-21.6,16.5c-10.9,5.8-11.2,5.8-16.3,1.2c-10.7-9.7-59.1-104.1-66.9-130.6c-5.8-19.9-43.8-60.8-53.3-57.2
		c-1.9,0.7-4.6,8-6.3,16.8c-3.4,18.7-3.4,17-1.2,34.8c1.9,17,2.9,26,3.4,32.8c0,2.7,3.4,6.3,7.5,8.5c5.4,2.9,9.5,8.5,15.1,21.4
		c9,20.2,36.5,74.4,47.7,94.4c7.8,13.4,11.7,23.6,29.7,75.7c5.1,14.4,10.2,27.5,11.4,29.2c5.4,7.3,8.5,29.4,6.8,47.7
		c-1.7,19.5-4.9,28.2-12.4,34.8c-4.6,3.6-24.3,11.9-28.9,11.9C2934.3,13922.5,2928.7,13910.6,2922.8,13895.7z M2955.7,13856.3
		c-0.7-13.1-0.7-23.8-0.2-23.8c0.5,0,1.9,3.6,3.2,8c2.2,6.6,2.4,5.6,1.5-6.8c-0.5-8-2.4-18.7-4.6-23.6c-2.2-5.1-3.2-9.2-2.2-9.2
		c1,0,0.5-1.2-1.2-2.9c-1.7-1.7-2.9-6.1-2.9-9.7c0-3.6-1.9-8.8-4.4-11.2c-2.4-2.4-4.1-5.6-3.4-7.3c0.5-1.5-1.5-4.6-4.4-7.1
		c-6.8-5.8-12.2-16.1-12.2-23.8c0-3.4-1.5-6.1-3.4-6.1c-1.7,0-6.1-4.4-9.7-9.7c-3.4-5.4-7.3-9.7-8.5-9.7c-1.2,0-7.8-9.5-14.4-20.9
		c-7.3-12.9-12.6-19.9-13.9-18.2c-1.9,3.2,3.2,17.5,7.1,20.2c1.7,1.2,1.5,1.9-0.7,1.9c-2.7,0-2.2,1.5,1.5,5.6
		c2.7,2.9,5.6,8.8,6.1,12.6c2.4,14.1,12.2,46.2,15.1,49.9c1.9,1.9,3.2,5.4,3.2,7.3c0,1.9,4.4,13.6,10,26
		c5.6,12.4,14.6,35.8,20.2,52.3c5.4,16.3,10.9,31.9,12.4,34.5C2954.5,13893.8,2957.1,13882.1,2955.7,13856.3z M2881.2,13724.7
		c-1.9-1.9-2.7-1.7-2.7,1c0,4.9,3.2,8.3,4.4,4.6C2883.7,13728.6,2882.7,13726.2,2881.2,13724.7z M2901.9,13701.9
		c-1.9-3.6-3.6-6.1-3.9-5.1c0,2.9,5.6,14.1,6.6,13.1C2905.3,13709.4,2904.1,13705.8,2901.9,13701.9z M3044.2,13666.8
		c-4.6-12.4-43.8-68.8-46.2-66.7c-0.5,0.7,4.4,9,10.9,18.5c12.9,18.7,24.1,36.2,30.9,48.4
		C3044.7,13676.1,3047.6,13675.8,3044.2,13666.8z M3010.9,13659.5c0.7-4.1,1.5-9.5,1.5-11.9c0-5.4-19.7-34.3-32.4-47.9
		c-5.4-5.6-12.2-14.4-15.3-19.7s-7.5-10.2-9.5-11.2c-6.3-2.4-4.1,7.8,4.9,23.1c4.6,8,8.5,16.1,8.5,17.5c0,5.4,35.5,57.7,39.2,57.7
		C3008.5,13667.1,3009.9,13663.7,3010.9,13659.5z M2860.8,13654.4c-0.7-1.9-1.5-1.2-1.5,1.5c-0.2,2.7,0.5,4.1,1.2,3.2
		C2861.3,13658.3,2861.5,13656.1,2860.8,13654.4z M2855,13631.1c-0.7-2.9-2.2-5.4-3.4-5.4s-0.7,2.7,0.7,6.1
		C2855.5,13639.1,2857.2,13638.6,2855,13631.1z"/>
	<path class="st0" d="M2556.7,13796.7c-0.5-1.2-5.6-18.2-11.4-38.4c-5.6-19.9-11.9-39.7-13.9-43.5s-6.1-15.3-9.2-25.5
		c-3.2-10.2-7.5-22.9-9.7-28.2c-2.4-5.4-5.6-14.6-7.1-20.4c-3.9-16.1-11.2-17.3-29.9-4.9c-22.4,14.8-31.6,12.6-55.7-13.1
		c-25.3-26.8-57.4-83.7-65.4-115.3c-4.6-18.2-1.9-32.1,8-42.6c11.4-12.4,27-6.8,50.8,18c21.2,21.6,49.1,52.5,58.4,64
		s9.7,8.8,3.2-14.6c-6.8-23.4-6.8-63.7,0-78.3c5.6-12.6,15.1-22.6,21.4-22.6c2.9,0,6.8,4.1,10.9,11.9c3.6,6.6,6.6,12.6,6.6,13.4
		c0,0.7-4.6,0.7-10,0c-9-1.5-10-1.2-8.5,2.9c0.7,2.4,1.9,13.1,2.7,23.4c1.7,23.1,9.2,56.4,17.3,74.4c3.2,7.3,9.7,24.8,14.1,39.2
		c4.6,14.1,14.6,42.8,22.1,63.5c7.5,20.7,14.6,40.9,15.8,44.5c1.2,3.9,3.2,8.3,4.6,9.7c2.9,3.9,18.7,45,20.7,54
		c1.7,9,0.7,10.5-13.9,21.6C2567.9,13798,2558.9,13800.6,2556.7,13796.7z M2525.9,13608.9c0-3.6-2.2-9.7-4.9-13.1
		c-2.7-3.4-4.9-7.3-4.9-8.8c0-1.5-1.2-2.7-2.7-2.7s-1.9-2.2-1-4.9c1-2.9,0.7-6.3-0.5-8c-1.2-1.7-2.4-5.1-2.7-7.8
		c-0.2-7.1-7.5-23.1-10.2-23.1c-4.6,0-2.4,12.4,6.1,33.1c4.6,11.7,10.2,22.4,12.6,24.3c2.7,1.9,3.2,3.2,1.5,3.4
		c-3.6,0-4.4,7.3-0.7,7.3c1.5,0,2.4,1.7,2.4,3.6c0,1.9,1.2,3.6,2.4,3.6C2524.9,13616,2525.9,13612.8,2525.9,13608.9z
		 M2474.8,13601.7c-1.2-2.7-3.6-5.6-5.1-6.6c-1.9-1.2-1.9-2.2,0.2-3.4c4.1-2.4,1-7.3-4.6-7.3c-2.4,0-7.3-4.1-10.9-9.2
		c-9-13.1-7.8-15.6,2.2-4.1c4.6,5.4,8.5,9,8.5,8c0-2.9-14.8-19-17.5-19c-1.5,0-16.1-13.1-32.8-29.2c-16.5-16.1-31.4-29.2-32.6-29.2
		c-3.6,0,18.2,39.9,29.2,53.5c5.1,6.1,14.4,17.5,20.7,25.5c15.1,18.7,24.6,24.8,39.9,25.3
		C2476.5,13606.3,2477,13605.5,2474.8,13601.7z M2476.7,13574.7c-1.7-2.4-3.4-4.1-4.1-3.6c-1,1,4.4,8.5,6.1,8.5
		C2479.2,13579.5,2478.4,13577.3,2476.7,13574.7z M2501.5,13531.4c0-2.7-2.2-7.1-4.9-10.2c-2.7-3.2-4.9-7.5-4.9-10s-1.2-5.1-2.9-6.1
		c-3.9-2.4-0.5,18,4.4,25.3C2497.6,13536.9,2501.5,13537.4,2501.5,13531.4z M2489.4,13492.2c-1.2-2.7-3.6-5.6-4.9-6.3
		c-3.4-2.2-2.9,4.6,0.5,8C2489.6,13498.5,2492.3,13497.3,2489.4,13492.2z"/>
	<path class="st0" d="M3351.9,13774.8c-6.8-13.1-37.5-94.1-39.2-103.4c-1-5.1-4.9-13.9-8.5-19.7c-3.9-6.3-7.5-16.3-8.5-23.8
		c-1-7.3-4.4-19.2-7.3-26.8c-3.2-7.3-7.3-20.4-9.5-29.2c-1.9-8.5-11.2-39.6-20.4-69.1c-9.2-29.4-22.1-73.5-28.7-97.8
		c-9.5-36.7-12.4-44.5-15.8-44.5c-3.2,0-5.4-3.2-7.1-10c-3.6-13.4-1.2-15.1,3.9-2.4c8.3,20.9,5.8,6.6-7.3-40.4
		c-7.5-26.5-17.8-64.5-23.1-84.7c-6.3-24.1-9.7-33.6-10-28c-0.2,8-0.2,8.3-3.6,3.9c-4.6-6.1-4.6-12.6,0-14.4
		c2.9-1.2,2.7-4.1-1.5-19.2c-8-29.9-7.1-28-10.9-21.2l-3.2,5.8l-0.2-7.1c0-3.9,1.2-10.7,2.9-15.1c2.2-6.6,1.7-13.4-2.9-39.7
		c-3.2-17.5-6.1-31.9-6.8-31.9s-2.7,1.9-4.4,4.4c-2.9,3.6-3.2,3.2-3.4-4.9c0-4.9,1.2-9.7,2.4-10.5c1.5-0.7,2.4-2.9,2.4-4.9
		c0-2.4-2.2-2.7-10.2-1c-5.4,1.5-10.7,1.5-11.7,0.5c-1-1-12.4-16.8-25.5-34.8c-29.2-40.4-27.5-38.4-29.9-31.6l-2.2,5.8l-2.9-5.6
		c-2.4-4.6-2.4-6.1,0.7-8.3c3.4-2.7,2.7-4.4-6.1-14.4c-6.3-7.5-11.9-11.7-15.3-11.7c-3.9,0-9.7-5.4-20.7-19.2
		c-8.3-10.5-17.8-22.1-20.9-25.5c-10.9-11.9-11.9-9.2-10.2,28.7c1.7,38.2,6.1,64,21.6,123.1c7.3,28.2,9.7,43.1,10.2,58.4
		c0.5,28-2.9,33.1-33.3,52.8l-23.6,15.3l-4.9-10c-2.9-5.4-4.4-10.7-3.4-12.2c0.7-1.5,0.7-5.1,0-8.3c-1.9-8-29.9-45-34.1-45
		c-1.7,0-7.5,6.8-13.1,15.3c-6.6,10.2-13.1,17-20.4,21.2c-5.6,3.2-18.5,11.2-28.5,17.5c-9.7,6.3-20.4,11.7-23.6,11.7
		c-3.6,0-8.5-3.6-14.4-10.7c-18-21.9-93.2-164.7-120.2-227.7c-11.4-27.2-22.1-65.2-22.1-79.1c0-19.5,28.5-63.7,47.2-73.5
		c8.8-4.6,27.7-3.2,36.7,2.7c8.3,5.4,55.2,60.6,71.3,83.7c6.8,10.2,14.8,20.7,17.3,23.4c8.3,9.5,48.9,78.6,50.4,86.1
		c1.2,5.4,2.9,7.8,6.1,7.8c2.7,0,4.6,0.7,4.6,1.9c0,1,3.4,7.5,7.5,14.8c9,15.6,12.2,13.4,11.7-7.5c-0.7-42.6,0.5-55,7.3-80.3
		c8.3-30.4,15.6-44.8,33.3-65.7c15.6-18.2,24.8-23.8,40.6-23.8c11.4,0,12.6,0.7,28.7,16.1c9,9,20.9,22.9,26,31.1
		c5.1,8,16.3,25.8,24.8,38.9c8.5,13.4,18.5,32.1,22.1,41.8c3.4,9.7,10,22.4,14.1,28c6.3,9,7.5,9.7,9,5.6
		c7.1-20.7,14.8-32.4,32.1-49.6c30.9-30.4,54.5-38.4,84.7-28.2c13.9,4.6,19.9,10.5,43.3,41.1c16.8,22.6,17.5,23.6,13.9,27.2
		c-1.5,1.5-0.7,4.6,1.9,8l4.1,5.8l4.9-13.1c15.3-41.6,47.2-79.3,81.5-96.3c29.4-14.6,45-17,70.8-10.5c23.8,6.1,46.9,17,61.1,29.4
		c5.6,4.9,26.8,21.2,46.9,36c27,19.9,37.7,29.4,40.1,35c1.7,4.4,10.5,15.8,19.2,25.1c8.8,9.5,24.3,28.5,34.5,42.6
		c10.2,14.1,23.1,29.2,28.7,33.8c5.6,4.4,15.1,14.6,20.9,22.9c11.4,15.6,55.9,56.4,80,73.5c21.6,15.1,76.9,48.2,78.3,46.7
		c2.9-3.2-44.5-59.4-79.3-94.1c-50.4-49.9-120.7-122.1-130.9-134.3c-12.6-15.1-11.2-20.4,10.5-43.3c25.3-26.3,24.1-26.5,71.5,7.5
		c57.4,41.1,78.1,54.7,95.6,62.5c18.7,8.5,23.1,7.5,8-1.9c-5.8-3.6-21.2-15.8-34.3-26.8c-13.1-11.2-34.8-28-48.4-37.5
		c-13.6-9.5-29.9-23.1-36.7-30.4c-14.1-15.1-61.5-57.4-82.7-73.7c-8-6.1-20.4-16.8-27.7-23.4c-11.4-10.7-12.9-13.1-11.9-19.7
		c1-6.8,0.5-7.5-5.6-7.5c-5.4,0-12.4-6.3-37.9-33.3c-17.3-18.5-34.3-38.2-37.7-43.8c-3.6-5.6-13.4-17.3-21.6-26
		c-8.3-9-19-21.6-23.8-28.2c-4.9-6.6-14.6-19.2-21.6-28.2c-26.3-33.6-34.3-60.8-24.1-81.7c2.4-4.9,12.6-17.5,22.6-28.5
		c23.8-25.5,41.1-34.5,69.6-36.2c31.6-1.9,51.6,4.1,116.3,35.5c27.7,13.4,48.2,26,94.9,58.9c32.8,22.9,64.5,46.9,70.5,53.5
		c6.1,6.6,14.8,14.4,19.5,17.5c39.2,25.5,100,82.5,122.8,114.8c14.1,20.2,27,37,45.7,60.1c25.8,32.1,44,71.3,50.6,108.2
		c3.4,19.2-1,63-7.5,78.1c-5.1,11.7-20.4,28.9-37.2,42.3l-11.7,9.2l12.9,10.2c14.1,11.2,32.6,24.1,34.3,24.1c0.7,0,0.2-4.1-1-9
		c-3.6-16.3-2.4-30.6,3.4-41.4c11.7-21.6,28.9-44.8,36.5-49.4c9.2-5.8,28.2-6.6,37.7-1.5c11.4,6.1,56.2,57.4,76.4,87.6
		c5.4,8,12.4,17.5,15.3,20.9c9.2,10.2,49.6,79.1,51.3,87.1c0.7,4.1,3.4,7.8,5.6,8.5c2.4,0.5,7.8,7.3,12.2,15.1
		c4.4,7.5,8.5,13.1,9.2,12.4c1-0.7,1.9-18.2,2.4-38.4c0.7-32.4,1.9-40.9,8.5-64.7c8.3-30.9,18-48.2,38.9-69.6
		c15.1-15.3,28.5-20.4,41.8-16.1c9.2,2.9,38.7,32.6,47.7,47.4c3.2,5.4,13.4,21.6,22.9,36.5c9.2,14.6,19.9,34.5,23.6,44.3
		c3.6,9.7,10.5,23.1,15.6,29.9c7.1,9.5,8,12.2,4.9,12.2c-3.6,0-4.1,1.9-3.2,13.4c0.7,7.3,0.2,13.4-0.7,13.4
		c-1.2,0-10-11.4-19.7-25.3c-9.7-14.1-18.5-25.5-19.2-25.5c-6.3-0.7-1.5,11.2,16.8,39.6c20.4,31.9,27.5,40.1,22.1,26.5
		c-2.4-6.6-1.5-12.9,2.2-12.9c1.2,0,4.1,3.9,6.8,8.5c3.9,7.5,4.1,9,1,11.9c-1.9,1.7-7.1,3.9-10.9,4.6c-7.3,1.2-8.3,0.2-33.8-35
		c-14.6-19.9-27.5-36.2-28.5-36.2s-2.2,2.4-2.7,5.6l-0.7,5.4l-3.2-5.6c-2.4-4.4-2.7-6.3-0.2-9.2c2.2-2.7,2.2-4.4-0.5-7.5
		c-8-10.9-17.5-19.7-20.2-18.7c-4.1,1.5-8.3-2.7-27.7-27.2c-9.7-12.4-19.2-22.9-21.2-23.8c-3.2-1-3.6,2.4-3.6,23.6
		c0,36.2,3.6,60.3,17,114.8c18.5,75.2,19.9,94.1,8,110.4c-4.9,6.3-43.5,33.8-48.4,34.1c-3.6,0.2-11.2-16.5-9.5-21.9
		c0.7-2.4,0.2-7.1-1.5-10c-6.1-11.9-29.2-40.9-32.6-40.9c-2.2,0-7.5,6.1-12.2,13.4c-4.6,7.3-10.9,14.8-14.1,17
		c-19.7,13.9-55.7,35.3-59.6,35.3c-2.7,0-8.8-4.9-13.9-11.2c-16.1-19.5-74.9-128.7-107-198.5l-20.4-44.3l-16.8-8.8
		c-10-4.9-16.3-9.7-15.8-11.4c0.7-2.2,4.4-1.2,12.9,2.9c14.4,7.3,14.6,7.3,14.6,1.7c0-2.9-10.2-10.2-32.8-23.1
		c-31.9-18.5-33.1-19-41.6-16.3c-6.1,1.9-8.3,3.9-7.3,6.6c1.2,2.9,0,3.2-5.6,1.9c-3.9-0.7-11.9-0.2-17.8,1.5
		c-16.3,4.4-51.6,3.2-72.5-2.4c-29.7-8-29.7-7.5-5.8,17.5c11.9,12.2,28.2,30.6,36.2,40.6c8,10,22.1,26.5,31.6,37
		c31.1,33.8,41.4,57.4,30.9,72.7c-18.2,27-32.1,36.7-51.8,36.7c-10,0-18.7-3.2-54-20.7c-49.6-24.3-69.3-37.2-114.8-74.7
		c-18.5-15.3-54-44.8-78.8-65.2c-24.8-20.4-47.2-40.1-49.4-43.8c-5.4-8-3.6-14.6,5.6-21.9c3.9-3.2,7.1-7.1,7.1-8.5
		c0-1.7-9-9.5-19.9-17.3c-11.2-8-29.2-21.6-40.1-30.4c-11.2-8.8-23.6-17.3-28-18.7c-4.4-1.5-9.2-5.1-10.7-8
		c-3.9-7.5-73.2-47.2-94.1-54c-9.7-3.2-22.4-5.6-28.5-5.8c-10.5,0-11.2,0.5-16.3,10.9c-3.9,7.5-5.6,15.1-5.6,25.1
		c0,14.1,8.8,58.1,16.1,80l3.6,11.4l15.8-8.3c17.8-9.5,21.9-10,33.3-5.1c9.5,3.9,54.5,46.5,88.3,83.7c18.5,19.9,26,30.2,28,37.7
		c1.7,5.6,6.1,13.6,10,17.8c4.6,4.9,8.8,13.9,12.2,26.5c4.6,17.3,4.9,20.7,2.2,33.8c-5.8,28-15.6,39.9-46.7,56.2
		c-22.9,11.9-29.7,11.4-58.6-4.4c-48.4-26.8-70.3-47.2-101.2-93.9c-21.9-32.8-64.2-117.2-68.6-136c-1.7-7.3-4.4-13.6-6.3-14.4
		c-1.7-0.7-13.6-13.4-26.3-28.2c-12.6-15.1-27.7-31.6-33.6-37.2c-14.4-13.6-43.3-35-47.4-35c-4.4,0-9.2,11.9-12.9,31.6
		c-1.5,8.8-3.9,20.7-5.6,26.8c-3.9,15.6-3.9,36.5,0,44.3c4.4,9,3.9,15.8-1,18.7c-4.1,2.2-4.1,2.7,0.2,5.8c2.7,1.9,3.9,4.6,2.9,6.3
		c-1,1.5-0.5,4.4,1,6.3c1.7,2.2,3.4,12.9,3.6,24.3c0.5,11.2,1.5,21.6,2.4,23.1c1,1.7,6.3,4.9,11.9,7.3c14.1,6.1,19.5,12.9,30.9,39.2
		c9.7,22.4,66.4,137.2,70.3,142.1c1,1.5,2.7,5.1,3.6,8.5s9.2,18.7,18.2,34.1c24.6,41.8,34.8,64.9,45,100c1.7,6.1,5.8,16.5,9.2,23.1
		c3.4,6.8,7.1,16.5,7.8,21.9c1,5.1,4.9,16.5,8.5,25.3c6.1,13.9,11.9,34.3,15.8,53.8c0.7,3.6,3.6,7.3,7.5,9.2
		c6.1,2.7,6.3,3.6,4.9,14.1c-1.2,8.5-0.5,11.7,2.4,13.9c8.8,6.6,10.7,42.8,4.6,88.8c-5.8,43.1-13.6,53.3-52.3,68.1
		C3359.2,13783.1,3356.6,13783.4,3351.9,13774.8z M3396.9,13706.7c7.1-18.5,7.3-43.5,0.7-96.6c-1.5-11.7-1.2-14.1,1.7-13.1
		c1.9,0.7,4.1,6.3,5.4,13.1c2.9,19,4.9,20.4,6.6,4.6c1.2-9.7,0.5-17.3-1.5-22.6c-1.7-4.4-2.7-10.9-1.9-14.6c1-4.6-1.2-12.6-7.1-25.3
		c-5.4-11.7-8-20.7-7.3-24.1c1-3.4,0-6.1-2.7-7.5c-2.4-1.5-3.9-5.4-3.9-11.7c0-11.9-8.5-31.6-14.1-33.3c-3.4-0.7-4.1-2.9-3.4-9.2
		c1-8.5-2.9-13.9-17-23.6c-6.8-4.6-17.3-30.2-17.5-43.3c-0.2-6.8-1.2-8.8-5.6-9.2c-3.4-0.5-9.5-6.6-16.3-16.1
		c-6.1-8.5-15.1-19-19.9-23.4c-8-7.1-29.4-40.1-48.6-75.4c-3.6-6.8-7.3-12.2-8.3-12.2c-1,0-3.2,3.2-4.9,7.3
		c-2.7,6.3-2.2,8.3,2.4,16.3c2.9,4.9,4.6,10.7,4.1,13.1c-0.7,2.7,1,5.1,5.1,6.8c5.4,2.7,5.6,3.2,1.9,5.8s-2.9,4.1,7.1,13.9
		c10.5,10.2,10.9,11.4,10.9,24.6c0,9.2,2.4,20.9,7.3,34.5c4.1,11.4,7.3,22.9,7.3,25.5c0,10,9.7,35.5,16.1,42.1
		c5.1,5.4,6.1,8.3,5.1,14.1c-1,5.1,0,9,3.2,13.1c2.7,3.4,4.9,7.8,4.9,10c0,2.2,5.8,17,13.1,32.8c16.8,36.5,51.3,129.4,53.8,143.8
		c1.7,10.7,16.5,46.2,19.5,46.2C3393.8,13713.3,3395.5,13710.4,3396.9,13706.7z M3250.7,13383.2c0-4.6-7.5-17.8-10.2-17.8
		c-1.9,0-0.5,8.8,3.2,19C3245.9,13390.5,3250.7,13389.5,3250.7,13383.2z M3291.1,13328.2c-3.4-5.6-9-13.4-12.4-17.5
		c-5.6-6.3-5.1-4.9,2.7,9.7c13.9,25.8,14.1,26.5,15.1,21.9C3297,13340.2,3294.5,13333.8,3291.1,13328.2z M4318.6,13312.7
		c0-9-9.5-31.6-16.1-38.9c-4.6-4.9-9-11.2-9.7-13.9c-1-2.9-5.6-11.2-10.7-18.5c-4.9-7.3-11.9-18.5-15.6-24.8
		c-3.6-6.6-7.3-11.7-8.5-11.7c-1,0-9.2-10.5-18.5-23.1c-9-12.6-18-23.1-19.7-23.1c-2.2,0-2.7,1.5-1.7,4.4c2.4,6.6,29.2,46,45.7,67.4
		c8.3,10.7,19.7,28.2,25.5,38.9c15.6,29.4,25.1,45,27.2,45C4317.6,13314.4,4318.6,13313.6,4318.6,13312.7z M4246.4,13278.6
		c3.9-19.2,2.7-30.2-4.6-41.6c-21.9-33.1-46.2-66.2-48.9-66.2c-1.7,0-3.2-1-3.2-2.2c0-1.2-6.6-9-14.6-17.3
		c-7.8-8.3-15.1-17.3-16.1-20.2c-3.9-13.1-31.6-43.3-36-38.9c-4.9,4.9-0.2,18.7,16.5,48.2c9.7,17.3,18.7,35.8,19.5,40.9
		c1,4.9,6.6,15.8,12.4,24.3c5.8,8.3,18,26.5,27,40.6c18,28.5,39.6,54.7,42.6,51.8C4242,13297.1,4244.4,13288.3,4246.4,13278.6z
		 M3557.2,13230c0-14.1-7.5-31.1-23.6-53.8c-13.9-19.5-13.4-19-91-86.4c-18.2-15.6-22.6-17.3-20.2-7.1c2.7,10.7,18,39.9,25.5,48.7
		c4.1,4.6,7.1,10.7,7.1,14.6c0,4.6,2.4,8.5,8.3,13.1c4.4,3.6,11.4,12.6,15.8,19.9c7.8,13.9,29.4,33.8,57.2,52.5
		C3555,13244.6,3557.2,13244.3,3557.2,13230z M3204.3,13227.5c-3.6-13.9-4.6-16.1-6.1-14.6c-2.7,2.4,1.9,23.6,5.1,23.6
		C3205.7,13236.5,3206,13234.6,3204.3,13227.5z M3196.5,13191.8c-0.7-1.9-2.7-7.8-4.4-13.4c-1.7-5.6-4.4-10-6.3-10
		c-1.7,0-3.2,0.7-3.2,1.5c0,3.9,10.7,25.3,12.6,25.3C3196.7,13195.2,3197.2,13193.7,3196.5,13191.8z M3171.2,13093.7
		c-1.9-15.8-3.2-16.3-3.2-1.2c0,7.1,1,12.6,2.4,12.6S3172.2,13100.6,3171.2,13093.7z M2947.7,13080.4c-2.4-8.5-7.5-18-12.4-23.4
		c-4.4-4.9-8-10-8-11.4c0-1.2-4.6-9.5-10.5-18.2c-5.8-8.8-13.1-20.4-16.3-26c-3.2-5.8-6.6-10.5-7.5-10.5c-1,0-8.5-9.2-16.8-20.7
		s-16.8-22.4-19-24.8c-3.9-3.6-4.1-3.6-4.9,0c-1,4.4,21.9,39.2,45,69.1c8.5,10.7,20.4,29.4,26.8,41.4
		C2947.9,13101.3,2956.9,13110.8,2947.7,13080.4z M2879.5,13064.1c3.2-14.8,3.6-21.4,1.7-28.7c-2.7-10-49.6-79.3-54.5-80.5
		c-1.7-0.5-6.1-5.1-10.2-10.7c-3.9-5.4-10.9-12.6-15.1-15.8c-4.4-3.4-8-8-8-10.5c0-5.8-17.5-29.7-27.7-37.2l-8.5-6.6l-1.7,8.5
		c-1.5,8.5,0.2,12.2,31.9,66.9c1.7,3.4,4.1,10.2,4.9,15.1c0.7,5.1,6.1,16.1,11.9,24.3c6.1,8.5,18,26.8,27,40.9
		c15.8,24.6,38.7,53.5,42.6,53.5C2874.7,13083.3,2877.4,13074.5,2879.5,13064.1z M3129.1,13028.6c-1.7-4.6-1.7-7.5,0-9.7
		c1.9-2.2,1.9-3.6,0-4.9c-1.5-1-10.7-12.9-20.4-26.8c-16.8-23.8-20.9-27.5-20.9-18.7c0,3.9,41.6,69.3,43.1,67.9
		C3131.3,13035.6,3130.6,13032.2,3129.1,13028.6z M3635.1,13033.4c0-0.5-2.2-2.2-4.9-3.6c-5.8-3.2-12.2-0.5-7.1,2.7
		C3626.8,13034.6,3635.1,13035.4,3635.1,13033.4z M3317.4,13023.9c-0.7-3.4-2.4-6.3-3.6-6.3c-2.9,0-2.7,1,0.7,8.5
		C3317.9,13033.7,3319.6,13032.4,3317.4,13023.9z M3988.5,13024.4c3.9-5.4,4.9-10.2,4.6-29.2c0-26-9-59.4-18.7-69.1
		c-2.9-2.9-10.7-15.1-17.3-27c-28.9-53.3-39.4-67.4-98.3-129.7c-49.4-52.5-64.5-66.4-122.8-112.6c-94.1-74.7-170-116.3-221.8-122.1
		c-11.7-1.5-14.8-1-17.8,2.2c-5.4,6.8,0.2,29.7,13.1,51.8c6.1,10.5,13.9,25.5,17.5,33.6c5.1,11.7,13.9,22.1,42.3,51.1
		c19.5,20.2,39.9,43.1,45.2,51.1c6.3,9.5,13.1,16.5,19.9,20.2c7.1,3.9,10.2,7.3,10.2,10.9c0,2.7,2.4,7.8,5.6,11.2l5.4,6.3l-5.6-4.6
		c-7.3-6.3-9.2-3.4-3.9,5.6c9.5,16.1-0.2,9.2-28.5-20.2c-16.1-16.8-30.6-30.6-32.1-30.6s-1,1.5,1,3.2c2.2,1.5,8,8.5,13.4,15.1
		c14.1,18.5,44.5,50.4,54.5,57.2c13.1,9.2,47.4,44,50.4,51.6c1.9,4.1,5.4,6.8,10.2,8c3.9,0.7,9,4.1,10.9,7.5
		c2.2,3.2,4.9,5.8,5.8,5.8s8.8,6.6,17.5,14.6c8.8,8,17,14.6,18.7,14.6s7.5,3.9,12.9,8.8c5.4,4.9,11.2,8.3,12.9,7.5
		c2.4-1,3.2,0.2,2.2,4.4c-0.5,2.9,0.2,6.3,1.7,7.1c1.5,1,2.7,4.1,2.7,7.3s2.4,7.5,5.1,10.2c5.4,4.6,5.4,4.6,3.4-1.2
		c-1.7-5.4-1.2-5.6,5.1-4.1c3.9,1,8.8,3.6,10.9,5.8c1.9,2.2,7.8,6.8,12.6,10.2c4.9,3.2,10,8.5,11.2,11.4c1.5,3.2,8.5,9.5,15.8,14.1
		c10.5,6.6,15.8,8.5,24.8,8.5c11.2,0,11.4,0,7.1,4.9c-4.1,4.6-4.1,4.9,0.2,6.3c2.7,1,10,3.9,16.5,6.3c6.6,2.4,12.2,4.1,12.9,3.6
		c0.5-0.5-6.3-7.3-15.3-15.3c-9-7.8-15.1-14.6-13.6-15.1c1.7-0.5,13.6,6.6,27,15.8c24.1,16.5,26,20.2,11.9,20.2
		c-3.9,0-6.8,1-6.8,2.2c0,4.1,9.7,5.4,18.2,2.4c7.5-2.9,9-2.7,13.9,1.9C3972.5,13033.9,3981.2,13034.2,3988.5,13024.4z
		 M3132,12996.7c0.5-4.6,0-9-1-9.7c-1-0.7-1.9,3.2-1.9,8.5C3129.1,13007.9,3130.6,13008.4,3132,12996.7z M3919.7,12809.4
		c0-3.4-10-17.5-13.1-18.7c-2.2-1-1,2.7,2.9,9.2C3915.3,12809.6,3919.7,12813.5,3919.7,12809.4z M3897.8,12779.2
		c0-6.8-77.4-83.7-114.3-113.6c-15.3-12.4-37.7-30.9-49.9-41.1c-30.2-25.5-64.5-49.6-72.2-51.3c-3.9-0.7-6.8-2.4-6.8-3.9
		c0-1.2-1.9-3.9-4.1-5.8c-11.2-8.5-47.2-28.7-64.9-36c-22.6-9.2-55-18.7-55-16.1c0,1,8.8,5.1,19.5,9.5c20.4,8,91.2,46.9,117.5,64.5
		c8.3,5.6,43.1,32.1,77.1,58.9c50.6,39.4,70.3,56.7,105.8,92.9c24.1,24.3,44.5,44.3,45.7,44.3
		C3897.1,12781.7,3897.8,12780.4,3897.8,12779.2z M3622.9,12747.8c0-3.6-18-24.3-19.9-23.1c-1.2,0.7,2.4,6.8,8,13.4
		C3621,12750.3,3622.9,12751.7,3622.9,12747.8z M3584,12704.5c-0.2-4.1-21.6-28.5-23.6-26.8c-1.9,2.2,17,28.5,20.7,28.5
		C3582.5,12706.3,3584,12705.5,3584,12704.5z M3559.4,12698.5c-4.6-9-14.4-21.4-17-21.4c-3.2,0,4.4,14.1,11.4,20.9
		C3560.9,12705.3,3563.1,12705.5,3559.4,12698.5z M3530.5,12665.4c0-1-3.9-5.6-8.5-10.2c-9.7-9.2-10.9-8-3.4,3.9
		C3523.2,12666.6,3530.5,12670.3,3530.5,12665.4z"/>
	<path class="st0" d="M3377.7,13515.8c-3.9-10.7-2.2-10.9,2.7-0.7c2.2,4.6,3.2,8.5,2.2,8.5
		C3381.6,13523.6,3379.4,13520.2,3377.7,13515.8z"/>
	<path class="st0" d="M3882,12960.2c-2.9-2.2-7.3-2.9-11.4-2.2c-7.8,1.7-10.9,0.2-38.2-19c-53.8-37.7-65.2-47.7-62.5-54
		c1-2.9,0.2-3.6-2.9-2.7c-6.6,2.2-19.9-8-54.2-40.6c-26-24.8-29.7-29.2-25.8-31.1c6.6-3.9,4.9-7.1-3.9-7.1c-6.1,0-10.2-2.2-16.5-8.8
		l-8.3-8.5l7.3,1.7l7.3,1.7l-6.1-7.1c-4.4-5.1-3.2-4.4,4.4,2.2c5.6,4.9,11.7,9,13.4,9s7.3,4.9,12.2,10.9
		c5.1,6.1,15.8,15.3,23.8,20.9c8,5.4,15.6,12.4,16.8,15.6c1.2,3.4,7.3,8.5,14.6,12.2c6.8,3.4,18.7,11.9,26.3,19
		c7.5,7.1,30.4,24.3,50.4,38.7c20.2,14.4,41.8,31.6,48.4,38.2C3888.8,12961.4,3891.5,12967,3882,12960.2z"/>
	<path class="st0" d="M1432.5,13751.7c-5.4-1.2-17-1.7-25.8-0.7c-9,0.7-19,0.7-22.6-0.2l-6.3-1.5l0.2-27.2
		c0.2-14.8-0.7-29.9-2.2-33.6c-2.2-5.6-2.2-6.8,0.7-6.8c4.4,0,10.9,9.5,10.9,16.1c0,6.8,2.4,13.1,4.9,13.1c1.2,0,3.2-3.6,4.6-8
		c2.2-6.3,1.9-10.7-1-20.2c-4.6-15.6-4.9-15.6,3.4-15.6c5.1,0,7.3-1.5,8.5-5.4c2.2-8.8,1.9-9.2-5.8-9.2c-8.8,0-9-1.5-1.9-9
		c4.9-5.1,4.9-5.8,1.2-8.8c-3.6-2.4-3.6-4.1-1.2-10.5c2.2-6.3,1.9-10.2-2.4-24.3c-2.9-9.2-7.5-28.7-10.2-43.5
		c-2.7-14.6-6.1-27.7-7.1-28.7c-1.2-1.2-6.6-2.7-12.2-3.4c-9.7-1.5-10.2-1.7-13.9-15.1c-1.9-7.5-4.1-15.1-4.6-16.5
		c-0.7-1.7,0-3.2,1.2-3.2c1.2,0,3.6,4.6,5.1,10.5c2.9,11.9,13.4,21.6,17,16.1c1.2-1.9,2.2-6.1,2.2-9.2c0-6.6-28.2-116.8-32.1-125.5
		c-1.5-3.2-1.7-8.8-0.7-12.6c1.5-6.3,1.9-6.6,4.9-2.4c1.7,2.4,5.6,14.8,8.5,27.7c8.5,36.7,31.4,108.5,36.2,113.6
		c3.9,3.6,5.4,3.9,10,1.5c4.4-2.4,5.1-4.1,3.9-10.5c-2.2-10.5-11.9-29.9-22.1-44c-9.7-13.4-11.2-24.6-3.6-26.5
		c5.1-1.2,6.3-7.8,2.4-13.9c-1.7-2.9-2.9-2.9-5.4-0.5c-4.6,4.6-6.3,3.6-9.2-5.4c-2.2-7.1-1.9-9.5,1.2-14.6c2.2-3.4,3.4-7.3,2.4-9
		c-1-1.5-2.7-10.5-3.6-19.7c-1.5-11.9-3.4-18.5-7.1-22.4c-2.9-2.9-5.1-6.8-5.1-8.3c0-1.9-2.2-2.4-5.8-1.5c-5.4,1.2-6.3,0-10.7-11.7
		c-10.7-28.7-34.8-109.5-33.6-112.9c2.9-7.3,16.1,2.9,16.1,12.6c0,4.4,4.1,8.3,8.5,8.3c0.2,0-2.4-10.2-6.3-22.4
		c-3.9-12.4-8-27.5-9.5-33.3s-5.6-13.4-9-16.8c-4.4-4.4-5.1-6.6-2.9-7.8c3.4-2.2,4.4,1.9-14.6-58.4c-8.3-26-14.4-48.9-13.6-50.6
		c0.7-1.9,0.2-7.5-1-12.4c-1.2-4.9-3.6-13.4-5.1-19c-2.9-11.9-7.5-13.4-11.7-4.4c-4.4,9.2-3.6,12.2,3.4,14.8
		c4.1,1.5,7.3,5.1,9.2,10.9c2.9,8.5,2.9,8.5-2.2,6.1c-2.9-1.2-5.4-4.1-5.1-5.8c0.2-1.9-1.2-4.1-2.7-4.6c-2.4-0.7-3.2,2.9-3.2,13.9
		c0,11.7,1.2,16.8,5.6,22.6c9.2,13.4,16.5,33.8,14.6,41.8c-2.4,10.7-1.2,14.6,10.5,37.9c5.6,11.7,9.7,21.6,9,22.6
		c-2.7,2.7-7.5,1.7-11.4-2.2c-6.3-6.3-103.9-310.6-109.9-342.7c-2.7-14.8-12.6-45.5-28.9-89c-2.2-6.1-7.1-14.4-10.9-18.2
		c-3.9-4.1-8.8-11.9-10.7-17.8l-3.6-10.2h5.8c6.8,0,7.5-2.7,3.2-10.5l-2.9-5.4l-1.5,6.1l-1.7,6.1l-1.9-6.8
		c-1.5-5.4-0.7-7.5,3.9-11.2l5.8-4.9l-6.6-6.8c-6.1-5.8-6.8-6.1-6.8-1.9c0,4.4-0.2,4.4-5.4-0.7c-4.1-3.9-5.4-7.8-5.1-15.1
		c0.2-6.1-1.2-12.9-4.1-17.8c-2.9-4.6-4.1-9.7-3.4-13.1c1.2-4.6,0-6.3-7.3-9.2c-6.1-2.7-9-5.6-10-10.5c-0.7-3.6-8-27.2-16.1-52.8
		c-17-53-41.4-112.9-48.9-119.4c-4.9-4.6-5.1-4.6-3.6,0.2c2.4,7.8,6.3,26.5,6.6,29.7c0,6.1-14.6-1.7-16.1-8.5
		c-2.9-13.1-3.9-15.6-5.8-13.6c-3.2,3.4-25.3,78.3-36.2,122.8c-19.7,80.5-39.9,211.9-45.5,295.3c-2.2,32.1-4.6,76.6-5.6,98.8
		c-1.2,22.1-2.7,41.6-3.6,43.1c-1,1.7-1.7,51.8-1.7,111.7c0,126.2-3.4,270.2-8,324c-2.7,33.8-3.6,37.9-8.5,41.8
		c-9,7.3-32.1,14.8-49.9,16.3c-19.5,1.5-48.2-3.2-55-8.8c-6.1-5.1-34.8-78.1-41.4-105.6c-2.9-11.2-6.8-25.5-9-32.1
		c-1.9-6.8-6.3-22.9-9.5-36c-3.2-13.1-14.4-47.7-25.1-76.9c-26.5-73-94.6-279.5-109.5-332c-27.2-95.6-60.8-241.8-65.9-285.8
		c-3.4-29.4-9.7-130.9-9.7-156.4c0-32.8,4.1-56.4,16.1-90.7c13.9-40.6,19.7-50.6,33.8-57.4c14.1-6.8,20.4-5.4,34.3,8l10.9,10.2
		l-7.5,34.1c-9.2,41.1-12.9,86.1-10.9,128.9c2.2,45,10.2,130.6,16.1,168.8c4.4,28.2,23.1,100.5,35,133.8c1.9,5.8,3.6,15.1,3.6,20.7
		c0,5.4,1.5,17,3.4,25.8c3.4,16.1,17,52.8,21.2,57.2c1.2,1.2,2.2,7.3,2.2,13.9s2.7,18.5,6.3,28c10.9,28.5,25.3,72,28.9,87.3
		c1.9,8.3,9,28.7,15.8,45.7c6.6,16.8,12.2,33.6,12.2,36.7c0,3.4,4.1,14.6,9.5,25.1c10.2,20.4,16.1,37.2,26,74.7
		c3.4,13.4,11.2,35.5,17,48.9c5.8,13.6,10.7,27,10.7,29.9c0,6.6,21.2,48.9,24.3,48.9c1.5,0,2.4-5.1,2.4-11.4
		c-0.2-22.1,8-393.6,8.8-394.3c0.2-0.5,3.9,1,7.8,2.9c7.3,3.6,7.3,3.6,10-3.6l2.7-7.5l-8.3,1.5c-7.5,1.5-8.3,1-9.5-5.1
		c-3.2-16.8,19.9-200,39.9-317c6.8-40.4,19.7-91,32.8-129.7c3.4-9.5,8.3-25.5,10.9-35.5c8.5-32.1,44-70.1,71.3-76.6
		c3.9-1,9.7-3.9,13.1-6.6c6.3-4.9,16.8-8,34.8-10.5c14.4-2.2,17.8,0.7,41.8,33.3c16.5,22.6,21.2,31.6,39.6,76.4
		c11.7,27.7,29.7,77.4,40.4,110.2c10.5,32.8,28,84.9,38.7,115.8c10.7,30.9,22.1,67.1,25.3,80.8c3.4,13.4,10.5,35.3,15.8,48.6
		c5.4,13.4,9.7,27.2,9.7,31.1c0,3.9,1.7,9.7,4.1,12.9c3.2,4.6,3.4,6.8,1,10.2c-2.2,3.9-1.5,7.3,5.1,19.9c5.4,10.5,7.8,18.7,7.8,27.2
		c0.2,6.8,1.5,14.4,3.2,17c10.7,19.2,43.1,109.9,50.6,142.3c8,35.5,13.1,52.5,20.7,70.5c4.4,10,10,27.5,12.4,38.9
		s7.5,33.3,11.2,48.6c3.6,15.3,6.6,28.9,6.6,29.9c0.2,1.2,2.2,3.4,4.6,5.1c3.6,2.9,3.6,3.6,0.7,6.1c-3.2,2.7-2.7,4.6,3.4,14.4
		c4.9,8,8.8,20.4,13.1,42.6c3.4,17,10,41.1,14.6,53.5c4.6,12.4,10.2,31.6,12.4,43.1c2.2,11.4,5.6,26,7.5,32.6
		c4.1,14.8,4.1,14.8-0.2,19.5c-3.4,3.2-2.9,4.6,2.4,12.6c3.4,5.1,7.5,14.6,9.5,21.4c6.3,24.3,8.8,35.8,8.8,41.6c0,3.4,1.9,7.3,4.6,9
		c3.6,2.2,4.4,4.6,3.4,11.9c-1,6.6,0.5,12.6,4.9,22.1c6.8,13.6,11.9,34.8,16.3,66.4c1.7,10.7,5.4,26,8.5,34.1
		c7.5,18.5,10.2,31.6,12.2,55.9c1.7,24.1-0.5,28.9-10.2,21.6c-6.6-4.9-7.1-4.9-14.1-0.5C1468.2,13755.1,1449,13755.9,1432.5,13751.7
		z M1438.5,13579.5c0-12.2-6.1-23.8-13.4-25.8c-5.8-1.5-6.1-1.9-2.4-5.8c1.9-2.2,2.9-4.9,1.9-5.6c-2.2-2.4-15.3-1.9-15.3,0.5
		c0,3.4,14.4,37.2,17.3,40.9c1.5,1.7,4.9,3.2,7.3,3.2C1437.3,13586.8,1438.5,13585.1,1438.5,13579.5z M1421.7,13462.3
		c-1-7.3-2.7-10.7-5.6-11.2c-3.6-0.7-3.9,0.2-1.7,7.3c1.5,4.4,2.9,9.5,3.6,11.2C1420.3,13476.9,1423,13471.5,1421.7,13462.3z
		 M764.7,13328.5c-7.8-23.1-22.6-64.9-32.8-93.2c-10.5-28-23.1-64.2-28.5-80.3c-5.4-16.1-14.4-41.8-20.2-57.2
		c-5.8-15.3-11.2-32.8-12.2-38.9c-1-6.1-10.7-38.2-21.9-71.8c-11.4-33.3-28.7-91-38.7-127.7c-10-36.7-19.7-70.5-21.6-74.9
		c-3.2-7.8-3.4-7.8-7.5-3.2c-3.9,4.4-3.6,6.3,5.8,43.1c13.9,53.5,16.5,62.3,26,87.3c4.6,12.2,10.5,31.9,12.9,44.3
		c2.7,12.4,12.9,44.8,22.6,71.8c10,27.2,28.7,82.2,41.8,122.4c12.9,40.1,34.8,100.9,48.6,135c31.9,79.1,34.5,85.1,37.5,85.1
		C777.9,13370.3,772.5,13351.3,764.7,13328.5z M1352.2,13307.8c-4.4-20.4-9-29.9-14.4-29.9c-2.7,0-2.4,3.2,1.5,16.5
		c5.4,18,13.6,35.8,15.8,33.8C1355.8,13327.5,1354.6,13318.3,1352.2,13307.8z M1332.5,13252.1c1.7-4.4-2.4-13.1-6.1-13.1
		c-1.5,0-1.9,1.7-1.2,3.9c0.7,2.2,1.5,5.8,1.5,8.5C1326.6,13257,1330.3,13257.5,1332.5,13252.1z M1360.7,13237.8
		c-3.2-10.9-6.3-15.3-9-12.4c-2.2,1.9,4.1,21.6,7.3,23.8C1363.6,13252.1,1363.9,13249.4,1360.7,13237.8z M853.3,13000.8
		c-1.5-14.8-2.2-17-5.1-14.4c-4.4,3.6-3.2,24.1,1.7,29.9S855.2,13019.6,853.3,13000.8z M658.7,12979.7c-7.3-18.7-7.8-19.5-9.5-17.5
		c-0.7,0.7,0.5,5.1,2.4,10c1.9,5.1,5.4,12.9,7.3,18C665.7,13006.2,665.2,12996.7,658.7,12979.7z M1261,12983.8
		c0-1.2-4.9-18.2-10.9-38.2c-6.1-19.7-10.9-37-10.9-38.2c0-1.2-3.9-10.9-8.8-21.6c-4.9-10.9-8.3-21.4-7.5-24.3
		c1.7-6.3-18.5-49.6-24.8-53c-6.1-3.2-10-3.2-10,0c0,1.5,3.9,13.4,9,26.3c4.9,12.9,9.7,28.9,10.7,35.5c1.7,9.5,4.4,14.4,12.4,22.9
		c7.1,7.3,8.5,9.7,4.9,7.8c-8-3.9-9-1.7-5.6,12.6c3.4,14.8,8.5,21.4,16.5,21.4c6.6,0,6.8,0.7,1.5,8.8c-3.9,6.1-3.9,6.3,3.2,11.9
		c6.8,5.6,6.8,5.8,1.7,6.1c-9.7,0-5.8,17.5,4.9,21.9C1254.2,12986.5,1261,12986.5,1261,12983.8z M870.1,12943.4l1.5-17l-4.9,10.5
		c-5.1,10.9-6.8,29.2-3.4,39.4c1.9,5.6,2.4,5.1,3.9-4.9C867.9,12965.3,869.3,12952.9,870.1,12943.4z M1198.2,12794.8
		c1.9-1.7-5.6-20.4-8-20.4c-1.2,0-3.2,2.2-4.9,5.1c-2.2,4.1-1.7,6.1,2.9,10.9C1193.8,12796.5,1195.8,12797.2,1198.2,12794.8z
		 M592,12740.1c-4.1-16.5-8.8-31.1-10-32.4c-3.2-3.4-2.9-1.5,4.1,26c9.5,38.2,11.4,44.5,12.4,40.4
		C599.1,12771.9,596.2,12756.6,592,12740.1z M580.6,12758.1c-0.7-6.6-2.7-13.4-4.4-15.3c-1.5-1.9-5.4-18.5-8.3-36.5
		c-10.7-63.2-10.2-60.8-15.1-60.8c-8.3,0-9,6.8-3.2,30.2c2.9,12.2,7.5,31.1,9.7,42.3c3.2,14.6,5.6,20.4,8.8,21.4
		c3.6,1,4.1,2.9,2.9,10.9c-1.2,7.3-0.5,10.7,2.7,14.4C580.3,12771.9,581.8,12770.5,580.6,12758.1z M1190.4,12760.5
		c0-1-2.4-4.1-5.4-7.3c-5.6-5.8-10.7-7.1-16.5-3.2c-2.7,1.7-1,3.2,7.3,7.1C1188,12762.4,1190.4,12762.9,1190.4,12760.5z
		 M1171,12733.3c0-8.8-2.7-12.9-6.3-9.7c-4.1,3.4-4.4,7.5-0.5,11.4C1168.3,12739.1,1171,12738.6,1171,12733.3z M1161.2,12706.3
		c-1.5-2.9-2.4-7.5-1.7-10c0.7-2.4-3.4-14.1-9.2-26c-10-20.4-16.8-29.4-19.7-26.5c-0.7,0.7,2.7,14.8,7.8,31.4
		c6.6,22.1,10.7,31.4,15.3,35.3C1161,12716.7,1165.4,12714.3,1161.2,12706.3z M575,12662c-1.7-17.8-6.8-31.1-12.2-31.1
		c-1.2,0-0.7,5.1,1.2,11.7c1.7,6.3,5.1,17.8,7.3,25.8c2.2,7.8,4.4,13.9,4.9,13.4C576.5,12681.2,576.2,12672.2,575,12662z
		 M546.5,12609c-0.2-20.7-5.6-47.2-10.2-51.8c-3.4-3.4-3.4-0.7,1,39.6c1.9,18,3.6,35,3.6,37.7l0.2,4.9l2.9-4.9
		C545.8,12631.6,546.8,12621.4,546.5,12609z M1129.1,12626.7c0.7-4.9-5.6-12.4-8.3-9.7c-0.7,0.7-0.7,4.9,0.2,9
		C1122.8,12634.2,1127.9,12634.7,1129.1,12626.7z"/>
	<path class="st0" d="M2615.1,13669c-22.1-11.9-41.8-35.3-59.8-70.1c-23.6-45.7-27-64.5-15.8-86.8c9.7-19.2,19.5-29.4,35.8-37.7
		c12.6-6.3,16.8-7.3,27.5-6.1c15.6,1.7,23.4,5.6,49.6,25.1c19.7,14.4,32.4,27.5,51.1,52.1c4.6,6.1,13.6,16.5,19.9,23.6
		c10.2,11.2,14.1,17.8,10.5,17.8c-0.7,0-5.4-3.6-10.2-8c-5.1-4.4-13.6-11.2-19-15.1l-9.7-7.1l6.1,7.1l6.1,7.1l-6.6-4.1
		c-18.5-11.4-19.5-12.2-16.1-14.4c2.2-1.7,1.9-1.9-1.5-1c-2.9,1-9.2-2.2-19.9-10.7c-8.5-6.6-16.3-12.2-17.5-12.2
		c-1.2,0-4.1-2.2-6.8-5.1c-6.8-7.5-42.3-26-53.8-28c-8.5-1.2-10.5-0.7-12.6,3.4c-1.5,2.7-2.7,9-2.7,13.9c0,12.2,7.1,42.6,10,42.6
		c1.2,0,5.1-1.7,8.3-3.9c3.6-2.4,8.3-3.4,11.7-2.4c7.3,1.7,54.7,48.6,59.4,58.6c1.9,4.1,5.1,10.2,7.1,14.1
		c9.7,17.8,5.4,35.5-11.4,47.7C2641.4,13678.8,2633.1,13678.8,2615.1,13669z M2649.9,13645.4c0-11.2-16.3-32.4-41.1-53.5
		c-12.6-10.9-23.4-19.2-23.8-18.7c-2.2,1.9,12.9,30.2,25.1,46.7c9.2,12.9,32.4,32.6,37.9,32.6
		C2649.2,13652.5,2649.9,13649.3,2649.9,13645.4z"/>
	<path class="st0" d="M3116.2,13641.1c-2.7-3.2-4.1-6.3-3.4-7.1c0.5-0.7,2.9,1.7,5.1,5.4
		C3123.5,13647.4,3122.1,13648.8,3116.2,13641.1z"/>
	<path class="st0" d="M2737.5,13602.6c-1.9-2.2-1.9-3.6-0.5-3.6c2.9,0,6.3,4.6,4.6,6.3
		C2741.1,13605.8,2739.2,13604.8,2737.5,13602.6z"/>
	<path class="st0" d="M1990,13534c-2.2-2.7-4.1-8-4.1-11.9s-5.6-23.4-12.2-43.3c-6.8-19.9-12.2-39.2-12.2-42.6s-2.4-10.2-5.4-14.8
		c-3.4-5.1-5.6-12.9-5.6-19.5c-0.7-17.5-26.5-85.4-36-94.4c-5.1-4.9-41.4-14.1-45.2-11.7c-1,0.7-6.1-1.7-11.4-5.4
		c-8-5.6-11.7-6.6-24.6-6.1c-13.1,0.2-15.3-0.2-15.3-4.1c0-6.1-5.4-9.7-16.3-11.2l-9.2-1l9.7,4.9l9.7,4.6l-8.8,0.2
		c-9.7,0-30.2-5.6-43.3-11.9c-4.9-2.4-11.4-5.6-14.8-7.1c-4.4-1.9-4.9-2.7-1.7-2.7c8-0.5,4.1-5.1-4.1-5.1c-4.6,0-9.2-1-10-2.4
		c-0.7-1.2-7.8-2.4-15.6-2.4c-7.5,0-14.8-1-16.1-2.2c-3.2-2.9-41.6-15.8-61.8-20.9c-14.4-3.4-31.6-11.7-108-52.3
		c-34.1-18-35.5-20.4-24.6-41.1c3.9-7.5,9-13.9,11.2-14.4c2.2-0.5,15.8,7.1,30.4,16.8c14.4,9.7,38.9,23.4,54.2,30.4
		c15.3,6.8,38.9,17.8,52.1,23.8c38.2,18,61.8,27.2,90.5,35.5c14.6,4.1,34.1,10.2,43.1,13.4c9.2,3.4,18.5,6.1,20.7,6.1
		c2.4,0,7.1,1.9,10.2,4.1c3.4,2.4,21.4,7.3,40.1,10.9c18.7,3.6,37.2,7.5,41.4,8.3c5.8,1.2,6.8,1,4.6-1.7c-1.5-1.9-3.4-9.5-4.1-16.8
		l-1.2-13.4l5.6,16.1c6.1,17.5,13.9,31.1,15.3,27c1-3.4-8.8-38.4-13.1-47.2c-1.7-3.4-6.6-18.7-10.7-34.1
		c-4.1-15.1-10.2-33.3-13.6-40.6c-3.2-7.3-8.5-23.1-11.9-35.3c-9-33.6-30.2-99.5-32.8-102.2c-3.9-3.9-2.9-17.8,1.5-19.5
		c5.8-2.2,1.9-5.8-5.1-4.4c-4.6,0.7-6.1,0-6.1-3.4c0-2.4-2.7-13.1-5.8-23.8c-4.4-13.9-5.8-24.8-5.6-37.2c0.2-12.2-0.7-18.7-2.9-20.7
		c-2.9-2.7-3.2-2.4-1.7,1.5c1.9,5.6-0.7,20.9-3.6,20.9c-1.2,0-2.2-1.7-2.2-3.6c0-2.4-1.9-3.2-6.6-2.4c-6.3,1.2-8.5-1.2-33.3-35.5
		c-24.1-33.6-26.8-36.2-29.2-31.6l-2.7,5.1l-3.2-5.1c-2.7-4.4-2.7-5.6,0.7-8c3.4-2.4,2.9-3.9-4.1-13.1c-5.1-6.6-10.9-11.2-16.5-12.9
		c-6.6-1.9-12.6-7.8-27.5-26.8c-10.7-13.1-20.7-24.1-22.4-24.1c-2.7,0-2.9,7.1-2.2,34.8c1.2,37.5,5.4,61.3,20.4,120.2
		c12.6,48.4,14.6,71.3,7.8,86.6c-4.4,9.7-8.3,13.4-28.9,27l-23.8,15.6l-5.4-8.5c-3.4-5.8-4.9-11.2-3.9-16.3
		c1-6.3-1.2-10.7-13.6-27.5c-8-10.9-15.8-20.4-17-21.2c-4.4-2.7-8.8,1.2-17.5,15.1c-6.8,10.9-11.9,16.1-23.1,22.4
		c-7.8,4.4-20.7,12.2-28.2,17.3c-18.7,12.9-23.4,12.4-35.5-3.2c-20.2-26.5-92.9-164.9-119.2-227c-15.1-36.2-23.6-69.8-21.2-85.1
		c1.7-12.2,22.1-45.2,36.5-58.9s36-13.6,51.6,0c11.7,10.5,53.8,60.3,67.9,81c6.3,9.2,13.4,19,15.8,21.6c8.3,9.5,50.8,82,50.8,86.8
		c0,2.7,1.9,5.4,4.4,5.8c2.2,0.7,7.8,7.8,12.2,15.8c4.4,8,9.2,13.9,10.5,12.9c1.5-0.7,2.4-8.3,2.2-16.3c-1-39.2,1.9-66.2,9.2-89.8
		c8.3-27.5,14.6-38.9,32.1-59.1c15.6-17.8,24.3-22.9,39.9-23.1c11.4,0,12.4,0.5,30.4,18c12.6,12.4,23.1,26,33.1,42.6
		c8,13.1,14.8,23.8,15.3,23.6c0.2-0.5-1-11.7-3.2-25.1c-1.9-13.4-3.9-41.8-4.1-63c-0.5-35.8-0.2-39.6,4.9-51.1
		c7.3-16.1,23.4-31.4,49.4-46.7c31.1-18.7,55-21.9,77.1-10.5c12.2,6.3,36.2,28.2,38.4,35c1,2.9,6.3,11.4,11.9,18.7
		s18,27.2,27.5,44.5c15.3,27,17.5,32.6,17.5,43.1c0,13.6,3.6,24.1,15.1,43.1l7.5,12.4l7.1-9.5c11.4-15.8,26.3-28.7,36.2-31.6
		c18.7-5.6,46.9,11.4,60.3,36.5c4.4,8.3,12.2,19.9,17.5,26c5.1,6.1,10,13.9,10.9,17.5c2.9,13.9,9.7,26,22.9,40.4
		c7.3,8.3,18.7,24.1,25.3,35.3c13.9,23.4,15.6,22.6,15.8-6.3c0.2-14.8,1.7-20.9,10.5-41.4c8.5-19.5,13.1-26.8,27-41.4
		c32.8-34.3,62-41.6,100.5-24.3c16.3,7.3,20.4,10.5,27.7,20.7c4.6,6.8,12.6,17,17.8,22.9c27.7,31.6,26.3,30.4,24.8,23.8
		c-4.1-19.5-13.4-82.7-13.4-91.2c0-5.4,2.9-19.9,6.3-32.6c3.4-12.9,5.6-25.3,4.6-28.7c-0.7-3.4-0.7-8.3,0-10.7
		c2.2-6.6,41.1-25.1,48.2-23.1c2.9,1,10.2,7.1,16.1,13.9l10.5,12.2l0.5,21.2c0.5,19.7,1.7,24.3,19.2,71.5
		c16.3,44.3,67.6,158.8,97.1,216.5c9.5,18.5,18.5,28.7,25.3,28.7c1.9,0,3.9,2.9,4.6,6.8c3.6,17,7.8,26.3,15.3,33.8
		c4.4,4.4,8.8,8,10,8c1,0,3.9-9,6.3-19.9c2.2-11.2,6.3-25.5,9.2-31.9c5.4-13.1,19.9-27,32.8-31.1c7.3-2.4,9.2-2.2,14.8,2.2
		c7.3,5.4,7.1,2.4,3.4,63.7c-2.7,43.5-5.4,51.3-24.1,67.9c-12.4,10.7-27.2,16.5-50.1,19c-23.6,2.4-28-1.5-53.3-45.5
		c-5.6-10-16.5-27.5-24.1-38.9c-7.8-11.4-18-28.7-22.9-38.4c-4.9-9.5-9.5-17.5-10.2-17.5c-4.1,0,6.6,38.9,19.7,71.5
		c7.8,19.2,7.5,36.7-0.2,45.5c-2.4,2.9-14.6,10-26.5,15.8c-17.5,8.5-24.8,10.7-34.8,10.7h-12.6v-11.4c0-6.8-8.5-43.1-19.7-84.7
		c-10.7-40.1-20.4-79.1-21.6-86.4c-2.7-17.3-13.6-46.5-19.5-51.1c-37.2-30.2-100.9-71.8-121.4-79.1c-13.4-4.6-25.5-4.6-29.4,0
		c-3.2,3.9-0.2,32.8,6.3,65.2c3.9,19,20.2,70.3,30.4,95.1c3.9,9.5,7.1,19.9,7.1,23.1c0,3.6,4.4,10,12.2,17.8
		c6.8,6.6,12.2,13.6,12.2,15.6c0,10.7-46.2,41.4-59.6,39.4c-3.6-0.5-9.5-10.2-23.4-38.4l-18.7-37.7l-39.6-41.4
		c-21.9-22.9-57.7-61.8-79.3-86.4c-21.9-24.8-44-48.7-49.4-53l-9.7-8v7.3c0,23.6,21.6,92.2,42.8,135.5c17,35,19.7,70.5,6.3,86.4
		c-7.3,8.8-28,19.7-33.3,17.8c-10.7-4.1-44.3-90.7-74.4-191.9c-10-33.3-10.7-60.3-2.7-81.2l5.1-12.9l-32.8-43.1
		c-28.9-37.7-49.9-59.4-53.5-55.5c-0.7,0.7,1.7,6.8,5.1,13.9c3.6,7.1,5.4,12.4,4.1,11.9c-1.5-0.5-8.5-8.8-15.8-18.2
		c-12.6-16.3-13.1-17.3-7.1-16.1c6.1,1.2,6.1,1-4.1-11.9c-5.8-7.3-12.6-15.8-15.1-19c-2.7-3.2-5.4-5.1-6.3-4.4
		c-0.7,1,2.7,6.3,7.5,12.4c4.9,5.8,8.8,11.4,8.8,12.2c0,4.4-5.8-1-26.3-23.8c-23.1-26-32.1-31.9-38.7-25.1
		c-5.4,5.1-12.9,37.5-12.9,55c0,42.8,28.5,186.6,44.8,224.5c2.2,4.9,3.6,10.9,3.2,13.4c-0.2,2.4,2.4,13.1,6.1,23.8
		c3.4,10.7,10.5,33.1,15.3,49.9s11.9,38.7,15.8,48.6c10.5,27.7,53.8,161.3,53.5,165.4c0,2.2,2.2,8,4.9,13.4
		c2.7,5.4,4.9,11.7,4.9,14.6c0,2.7,2.2,8.3,4.9,12.2c2.7,4.1,6.6,13.6,9,21.4c4.6,17.3,9.7,21.2,30.6,23.8
		c31.6,4.1,40.9,6.3,44.8,10.2c2.2,2.2,3.4,4.6,2.9,5.4c-0.7,0.7-12.9-0.5-26.8-2.4c-13.9-1.9-28.5-3.4-32.6-3.4
		c-6.8,0.2-6.6,0.5,4.9,6.1c7.5,3.6,16.5,5.8,23.6,5.8c6.3,0,16.5,1.7,22.9,3.9s13.9,3.4,17,2.7c3.2-0.5,14.8,0.5,26,2.2
		c37.2,6.1,94.9,10.9,97.5,8.3c1.2-1.2,1.9-2.9,1.2-3.4c-0.5-0.5-30.2-4.6-65.9-9c-53.8-6.8-64.7-8.8-62-11.4
		c2.7-2.4,14.1-1.9,64.9,3.2c55.2,5.8,68.6,6.3,125.3,5.1c48.2-1,66.7-2.2,77.8-5.1c14.4-4.1,14.6-4.1,18.7,1.2
		c5.4,6.6,5.6,11.9,0.5,19c-2.4,3.6-3.4,7.8-2.4,11.9c1,3.4,0.5,9.7-1,14.4c-2.2,6.6-4.6,8.8-11.7,10.5
		c-16.3,4.4-91.2,3.2-148.9-2.2c-51.1-4.9-55.2-5.6-61.1-11.2c-3.4-3.2-8.8-5.8-12.2-5.8c-5.4,0.2-5.6,0.5-1.5,3.4
		c2.2,1.7,4.1,3.6,4.1,4.4c0,1.2-12.2,0-21.9-2.2l-6.1-1.2l6.1-2.4l6.1-2.4l-6.1-1.9c-10.2-2.9-35.5-5.1-31.9-2.7
		c5.6,3.6-0.2,4.1-18.5,1.9c-18.7-2.2-24.1-6.6-8.5-6.8c7.3,0,8-0.5,4.1-2.2c-6.6-2.9-18.2-2.9-18.2-0.2c0,1.2-3.2,2.9-7.1,3.9
		l-7.3,1.5l3.2,10.2c1.7,5.6,13.9,40.1,26.8,76.6c21.2,58.6,23.8,68.1,22.9,78.6c-1.7,16.3-7.8,22.4-28.2,27.7
		C1999.2,13538.9,1994.8,13539.1,1990,13534z M1943.5,13330.4c-3.4-8.3-10.9-13.1-7.8-5.1c0.7,2.2,3.4,10,5.6,17.8
		c4.4,13.9,4.4,13.9,5.1,4.9C1946.9,13343.1,1945.5,13335.3,1943.5,13330.4z M2184.1,13340.9c-5.4-1-12.9-1.9-17-1.7h-7.3l7.3,1.9
		c4.1,1,11.7,1.9,17,1.9h9.7L2184.1,13340.9z M2237.6,13329c2.7-1.2,4.4-2.2,3.6-2.4c-4.1-1.5-46.2-2.4-46.2-1.2
		C2195,13330.4,2227.4,13333.3,2237.6,13329z M1906.3,13291c-1.7-4.4-11.2-9.5-22.6-11.9c-4.6-1-10-2.7-12.2-3.9
		c-7.3-4.1-28.9-9-33.8-7.8c-11.7,2.9-3.9,7.3,24.6,13.6c16.5,3.6,32.6,8.5,36,11.2C1905.1,13297.3,1908.5,13296.9,1906.3,13291z
		 M1824.1,13263c-2.2-3.2-20.9-5.4-23.8-2.4c-1.9,1.9-1.2,2.7,2.4,2.7c2.7,0,7.5,2.2,10.7,4.9c5.4,4.1,6.1,4.4,8.8,0.7
		C1823.8,13266.7,1824.6,13264.3,1824.1,13263z M1958.8,13261.1c-1.7-5.6-3.9-10-5.1-10c-2.9,0-2.4,3.2,1.9,13.4
		C1960.5,13276.2,1962.7,13274,1958.8,13261.1z M1786.4,13253.6c-6.3-4.9-23.8-11.9-44.8-18.2c-9.7-2.9-11.2-2.9-9-0.2
		c3.2,3.9,10.7,7.1,36.7,16.3C1792,13259.2,1793.9,13259.6,1786.4,13253.6z M1900.5,13133.4c-20.2-61.1-36-111.9-35.3-112.6
		c1.7-1.7,7.1,4.4,12.2,13.9c1.9,3.4,13.4,37.9,25.8,76.6c23.4,74.2,29.4,90,30.9,83.9c1.2-5.6-3.6-21.2-32.8-105.8
		c-14.8-42.8-30.4-89.8-35-104.4c-4.4-14.6-9.2-27-10.7-27.5c-3.4-1.2,1.2,19.7,7.5,34.3c3.9,9,3.2,19.2-1,14.6
		c-1-1.2-4.4-10.9-7.3-21.6c-3.2-10.7-8.8-28-12.6-38.4c-10-26.5-36.7-134-44.8-179.3c-7.3-41.8-9-48.4-10.2-38.7
		c-1.7,11.4,20.4,122.1,32.8,165.2c33.1,113.8,51.3,174.4,60.6,200.7c6.1,17.5,17.5,50.8,25.3,74.2c18.7,55.9,29.9,84.9,30.9,80
		C1937,13246.3,1920.9,13194.7,1900.5,13133.4z M2576.7,13046.3c-10.5-19.9-44.3-74.9-45.5-73.7c-2.4,2.2,20.7,45,33.6,62.8
		C2576.9,13051.7,2582,13056.3,2576.7,13046.3z M1618.5,12966.8c-4.4-14.4-12.9-29.4-17-29.4c-1,0-2.4-2.4-3.2-5.6
		c-1.9-7.3-28.5-49.1-38.7-61.3c-4.6-5.4-14.4-17.8-21.2-27.2c-12.2-16.8-17.3-21.2-17.3-14.8c0,4.4,22.6,38.7,43.8,66.7
		c10.7,13.9,23.4,33.3,28.2,43.1c12.9,25.8,25.3,45.7,27.7,44.3C1621.9,12981.6,1621,12974.6,1618.5,12966.8z M1549.5,12948
		c2.9-13.1,3.4-21.2,1.9-28c-2.7-11.2-50.8-82.5-55.9-82.5c-1.9,0-3.4-1-3.4-2.4c0-1.2-6.6-9-14.6-17.3c-8-8.3-14.6-16.1-14.6-17.5
		c0-5.1-15.3-26.3-25.3-34.8l-10-8.5l-1.9,7.3c-1.9,8.3,1.7,16.8,21.6,50.6c6.3,10.5,12.9,24.8,14.6,32.1
		c2.2,7.8,8.5,19.9,16.3,30.9c6.8,10,17.8,26.3,24.1,36.7c12.2,19.9,37.2,51.8,40.9,51.8C1544.3,12966.5,1547,12958.3,1549.5,12948z
		 M1853.8,12944.1c-2.9-13.9-21.6-78.6-23.6-82c-1.9-3.4-2.2-3.2-2.4,1c0,12.9,21.2,86.4,25.1,86.4
		C1854,12949.5,1854.5,12947.1,1853.8,12944.1z M2174.6,12930.8c-1.9-3.9-7.3-10.5-11.9-14.8c-7.3-7.1-8.5-7.5-11.4-4.4
		c-1.9,2.7-5.1,3.4-9.5,2.2l-6.3-1.5l4.9,5.8c6.6,7.8,9,9.5,14.6,9.5c2.7,0,7.5,2.2,10.9,4.9
		C2175.1,12939.8,2179,12938.8,2174.6,12930.8z M1798.5,12910.3c-1.9-3.2-1.9-5.8-0.5-7.8c1.7-1.9,0.7-5.1-3.6-10l-5.8-7.1l1.7,9.5
		c2.4,13.4,5.4,20.4,8.3,20.4C1800.2,12915.4,1800.2,12914,1798.5,12910.3z M2411.5,12899.6c-2.9-3.2-4.9-7.5-4.1-9.5
		c1.9-4.9-0.7-6.6-5.8-3.6c-6.6,3.4-5.8,6.3,4.6,15.6C2415.9,12911.3,2420.3,12909.1,2411.5,12899.6z M2141.5,12902.1
		c0-3.6-17.3-28-21.6-30.2c-7.8-4.4-8,0.7-0.2,9.7c3.9,4.6,7.1,10,7.3,12.2c0,4.9,4.9,9.5,10.2,9.5
		C2139.6,12903.3,2141.5,12902.8,2141.5,12902.1z M1783.9,12886c-1.5-5.8-7.3-17.5-12.9-25.8c-9.2-14.1-13.9-17-13.9-9.2
		c0,3.4,27.2,47.7,28.7,46.2C1786.4,12896.7,1785.4,12891.6,1783.9,12886z M2391.1,12878c-1.2-4.9-5.6-8.5-33.6-26.5
		c-6.8-4.6-6.8-4.6-6.8,0.5c0,5.6,11.4,15.1,25.1,20.7c5.6,2.2,10,6.1,11.7,10.5C2390.6,12890.9,2393.3,12887,2391.1,12878z
		 M1822.1,12819.6c-0.7-1.9-2.2-7.5-3.2-12.2c-0.7-4.9-2.4-8.8-3.4-8.8s-0.7,5.6,0.7,12.2c1.2,6.8,3.4,12.2,4.6,12.2
		C1822.4,12823,1822.9,12821.6,1822.1,12819.6z M1780.1,12799.9c-1.9-4.6-4.6-14.1-6.1-21.2c-2.7-12.6-5.8-19-9.5-19
		c-3.4,0,4.1,38.2,10,48.9c5.6,10.7,5.8,10.9,7.5,5.4C1783,12810.6,1782,12804.5,1780.1,12799.9z M1764.5,12725
		c-1.7-10.9-3.9-21.6-5.1-23.6c-1.9-3.6-0.7,22.6,1.9,43.8c1.2,10,1.5,10.5,3.9,5.4C1766.9,12746.6,1766.9,12739.3,1764.5,12725z"/>
	<path class="st0" d="M1354.6,13377.1c-2.9-9.7-8.5-31.1-8.5-33.3c0-1.5,1.5-2.7,3.4-2.7c1.9,0,4.9,6.3,7.5,16.5
		c2.4,9,4.9,17.8,5.6,19.5c0.5,1.5-0.7,2.9-2.9,2.9C1357.5,13380.1,1355.3,13378.6,1354.6,13377.1z"/>
	<path class="st0" d="M1283.1,13263c-3.6-10.5-3.4-14.4,1-14.4c2.9,0,13.4,16.1,13.4,20.7c0,0.7-2.7,1.2-5.8,1.2
		C1287.2,13270.6,1285,13268.6,1283.1,13263z"/>
	<path class="st0" d="M4463.3,13243.8c-5.1-6.8-8.5-13.1-7.5-13.9c0.7-1,1.7-1,2.2-0.5c11.9,15.8,18.7,26.5,16.8,26.5
		C4473.3,13256,4468.2,13250.4,4463.3,13243.8z"/>
	<path class="st0" d="M3176.8,13242.1c-0.7-3.9-1.9-9.2-2.9-12.2c-1-3.2-0.5-5.6,1-5.6c1.2,0,3.2,3.9,3.9,8.8
		c1,4.6,2.4,10.2,3.2,12.2c0.7,1.9,0.2,3.4-1.2,3.4C3179.5,13248.7,3177.8,13245.8,3176.8,13242.1z"/>
	<path class="st0" d="M1265.3,13143.6c-6.3-19-11.2-34.8-10.7-35.3c1.2-1.5,13.1,22.1,17.3,34.5c4.6,14.1,8.5,35.3,6.3,35.3
		C1277.3,13178.2,1271.4,13162.6,1265.3,13143.6z"/>
	<path class="st0" d="M1239.6,13115.6c-6.8-18.7-3.9-21.6,4.9-4.6c6.3,12.6,7.1,18.5,2.2,18.5
		C1245.4,13129.5,1242.2,13123.2,1239.6,13115.6z"/>
	<path class="st0" d="M4008.5,13100.8c-6.6-3.4-10.9-6.6-9.2-7.1c3.4-1.2,26,10.5,23.4,12.2
		C4021.6,13106.6,4015.3,13104.2,4008.5,13100.8z"/>
	<path class="st0" d="M1233.2,13081.8c-1-4.6-2.4-10.5-3.2-12.6c-1-2.7,1-1.9,5.4,2.4c5.4,4.9,6.3,7.8,5.1,12.6
		C1238.3,13093.3,1234.9,13092,1233.2,13081.8z"/>
	<path class="st0" d="M1825.5,13032c-2.9-8.5-5.1-17-5.1-19c0.2-2.2,2.9,4.4,6.1,14.4c3.2,10,5.6,18.5,5.1,19
		C1831.1,13046.8,1828.5,13040.2,1825.5,13032z"/>
	<path class="st0" d="M3096.3,13027.3c-5.1-6.8-8.5-13.1-7.5-13.9c0.7-1,1.7-1,2.2-0.5c11.9,15.8,18.7,26.5,16.8,26.5
		C3106.2,13039.5,3101.1,13033.9,3096.3,13027.3z"/>
	<path class="st0" d="M1813.4,12987c0-2.7,0.7-3.4,1.5-1.5c0.7,1.7,0.5,3.9-0.2,4.6C1813.9,12991.1,1813.1,12989.6,1813.4,12987z"/>
	<path class="st0" d="M1765.9,12910.6c-9.2-12.9-10-14.6-6.6-14.6c1,0,5.1,4.6,9,10.2c10.7,15.6,11.2,16.5,8.5,16.5
		C1775.7,12922.7,1770.8,12917.1,1765.9,12910.6z"/>
	<path class="st0" d="M1145.2,12820.6c-6.6-18.5-3.4-19.2,3.6-1c5.8,15.3,5.8,15.6,3.2,15.6
		C1151,12835.2,1148.1,12828.6,1145.2,12820.6z"/>
	<path class="st0" d="M1106.5,12713.1c-7.3-17.5-8.5-22.4-5.8-24.1c1.7-1,3.4-1.7,3.9-1.5c1.2,1.2,17.8,41.4,17.8,43.1
		c0,1-1.5,2.4-3.4,3.2C1116.5,12734.7,1112.8,12728.6,1106.5,12713.1z"/>
	<path class="st0" d="M1097.3,12679.5c-1-1.9-7.1-17.8-13.6-35.3c-6.6-17.3-12.6-33.8-13.9-36.5c-1.7-4.6-1.7-4.6,3.2-0.5
		c10.2,8.8,29.4,60.6,26.8,71.8C1099,12682.4,1098.5,12682.7,1097.3,12679.5z"/>
	<path class="st0" d="M1046.9,12536.5c-13.6-40.1-13.6-39.4-6.3-30.9c7.8,9,17.5,32.6,19.7,47.9
		C1063.4,12574.7,1057.6,12567.1,1046.9,12536.5z"/>
</g>
</svg>
