<svg xmlns="http://www.w3.org/2000/svg" width="134" height="46" fill="none"><path fill="#0A483A" d="M3 20a3 3 0 1 0 0 6v-6Zm130 5a3 3 0 0 0 0-4L114 2a3 3 0 1 0-4 4l17 17-17 17a3 3 0 1 0 4 4l19-19ZM9 26a3 3 0 1 0 0-6v6Zm13-6a3 3 0 1 0 0 6v-6Zm13 6a3 3 0 1 0 0-6v6Zm13-6a3 3 0 1 0 0 6v-6Zm13 6a3 3 0 1 0 0-6v6Zm12-6a3 3 0 1 0 0 6v-6Zm13 6a3 3 0 1 0 0-6v6Zm13-6a3 3 0 0 0 0 6v-6Zm13 6a3 3 0 1 0 0-6v6Zm13-6a3 3 0 1 0 0 6v-6ZM3 26h6v-6H3v6Zm19 0h13v-6H22v6Zm26 0h13v-6H48v6Zm25 0h13v-6H73v6Zm26 0h13v-6H99v6Zm26 0h6v-6h-6v6Z"/></svg>