<svg width="251" height="144" fill="none" xmlns="http://www.w3.org/2000/svg"><path d="M34.187 14.016c-3.477 1.061-7.076 1.945-10.562 2.913-6.263 1.873-14.684 5.633-20.382 8.964-1.831 1.105-1.933 1.114-1.672 2.598 1.2 7.433.359 14.953 3.267 22.046.545 1.271.196 2.81.548 4.192.342 1.29.878 2.467 1.423 3.738 1.13 2.916 2.058 5.85 3.382 8.654 4.043 8.124 9.715 15.161 16.811 21.13 4.846 4.095 9.59 8.2 15.088 11.671 5.173 3.312 10.07 6.931 15.417 9.945 8.613 4.799 17.573 9.001 26.962 12.412 5.978 2.204 11.874 4.604 18.19 6.119 6.305 1.421 12.486 3.607 19.121 3.304 1.926 1.714 4.481-.302 6.216.581 2.273 1.118 4.225.191 6.379.189 2.357-.019 4.776-.422 7.113-.628 4.268-.378 7.99-2.026 11.703-3.768 4.394-2.085 7.449-5.182 10.465-8.653 2.924-3.369 2.934-3.275 7.42-1.599 1.234 1.964 3.804 2.02 5.478 3.285.741.218 1.39.537 2.131.754 1.735.884 3.287 1.971 5.113 2.752 1.715.697 2.055-.935 3.081-.932-.099-.933.788-2.237-1.081-2.449-2.808-2.296-6.667-2.897-9.741-4.793-1.085-.563-2.161-1.034-3.247-1.597-4.179-2.646-4.067-2.562-2.045-6.699 1.348-2.758 2.269-5.666 3.079-8.66.595-2.125.966-4.42.636-6.558-.367-3.454-.521-6.833-1.813-10.3-1.463-4.111-3.201-7.916-5.538-11.573-2.834-4.461-5.86-8.811-10.017-12.213-6.398-5.183-12.907-10.45-20.313-14.507-2.942-1.625-5.232-3.873-8.053-5.32-7.996-3.816-15.278-8.638-23.63-11.951-6.425-2.542-12.43-5.969-19.018-8.12-6.588-2.15-13.36-4.095-20.376-5.454-6.387-1.226-12.756-1.322-19.227-1.41-4.186.182-8.241.635-12.308 1.937Zm14.504 1.356c6.054.03 12.22.144 18.293 1.304 6.6 1.3 13.057 3.18 19.431 5.255 6.273 2.084 12.046 5.249 18.156 7.724 7.926 3.163 14.884 7.825 22.443 11.398 2.811 1.353 4.99 3.516 7.719 5.066 7.081 3.897 13.245 8.818 19.318 13.84 3.934 3.234 6.941 7.397 9.551 11.69 2.216 3.479 3.934 7.097 5.276 11.03 1.17 3.29 1.314 6.575 1.661 9.843.219 2.053-.163 4.255-.665 6.278-.729 2.798-1.66 5.613-2.916 8.268l-2.642 4.098c-.711.063-1.422.125-1.44-1.004.045-1.512.292-3.041.54-4.571.795-1.201.86-2.526.619-3.824l-.099-.934c.265-.4.845-.734.897-1.21.012-.85-.189-1.774-.278-2.614 1.514-.228.694-1.192.817-1.957l-.099-.934c1.76-.815.939-1.78.22-2.752-.111-.085-.832-.115-.823-.022-.245.587-.379 1.259-.512 1.93l.099.934c-1.514.228-.694 1.192-.818 1.957-.136 1.614-.383 3.144-.519 4.758-.266.4-.845.734-.897 1.21-.013.849.188 1.774.277 2.614-.294.121-.691.25-.783.352-.46 1.455-.81 2.993-1.27 4.448-1.522-.808-2.943-1.625-4.464-2.433-.112-.084-.305.027-.508.045l-1.116-.844-1.016.09-2.231-1.687c-.741-.218-1.39-.537-2.131-.754-.883-.582-1.654-1.079-2.434-1.67-.335-.253-.578-.608-.811-.87-.29-1.765-.377-3.548.47-5.225 1.368-2.571 1.68-5.426 2.205-8.205l-.099-.934.508-.045c.686-2.228 1.982-4.51 1.652-6.648-.38-2.606 1.992-4.417 1.531-6.827.042-.569-.139-1.307.227-1.716.449-.605.622-.903-.139-1.307-.324-.16-.751-.31-1.075-.47l-.126 1.707c-.295.12-.793.258-.774.445-.596 3.069-.665 6.279-2.197 9.241-.602 1.09-.443 2.584-.72 3.834l.099.933c-.275.307-.865.548-.937.837-.041 4.433-1.555 8.525-2.754 12.683-.62-.04-1.524.135-1.859-.118-1.257-1.209-3.024-1.43-4.536-2.144-.354-.44-.728-1.066-1.266-1.301l-7.458-3.582c-.647-1.262-2.291-2.247-.834-3.978.449-.605.127-1.707.139-2.557 1.514-.228.694-1.192.817-1.957l-.198-1.867.917-1.023-.099-.934-.1-.934c1.515-.228.694-1.192.818-1.957l-.099-.933c.275-.307.865-.548.936-.837.466-3.34 1.256-6.52 2.036-9.792l.126-1.708c.134-.671.258-1.436.493-2.117l-.099-.933c1.871-.731.099-2.93 1.645-3.821-.243-.356-.506-.898-.82-.964-.417-.058-1.2.294-1.18.481-.044 1.512-1.348 2.758-.671 4.3-1.881.638-.411 1.921-.718 2.89-2.065.843-.047 2.455-.852 3.563-1.794 2.42-1.274 5.39-2.022 8l.1.934c-1.515.228-.694 1.192-.818 1.957l.099.934c-.295.12-.691.25-.783.352l-.653 5.43c-1.515.227-.694 1.191-.818 1.956-.292 3.042-.974 3.385-3.866 2.227-1.986-2.275-4.93-2.957-7.609-4.04-.355-.439-.729-1.066-1.267-1.3l-7.458-3.582c.443-2.584.795-5.065 1.238-7.648l-.198-1.868c.265-.4.845-.734.897-1.21.012-.85-.189-1.774-.278-2.614.52-.894 1.384-5.306 1.337-6.715.295-.12.793-.259.773-.445.144-4.442 1.333-8.694 1.902-12.985l-.099-.934c1.516-1.17.869-2.432.121-3.686-.112-.084-1.128.006-1.21.202-.255.493-.084 1.138-.126 1.707l.099.934c-.295.12-.793.258-.773.445-.143 4.442-1.332 8.694-1.901 12.985l.198 1.867c-.52.894-1.385 5.305-1.337 6.715-.206.96-.513 1.93-.719 2.89l.199 1.868c-.295.12-.793.258-.783.352.067 1.596-.384 3.144-.632 4.673-.237 1.623-.26 2.38-2.228 1.234-.872-.489-2.02-.67-2.984-1.056-.243-.355-.495-.804-.83-1.057-4.12-2.086-8.137-4.18-12.257-6.267-2.61-.429-2.95-2.66-2.275-4.04.755-1.574.21-2.845.366-4.272 1.88-.638.411-1.922.718-2.891l-.198-1.867c.52-.895 1.384-5.306 1.337-6.715l-.198-1.867c.294-.12.793-.26.773-.446.292-3.041.482-6.074 1.19-9.058.493-2.117.357-4.366.322-6.625-.03-.28-.79-.684-1.227-.928-.275.307-.753.632-.724.912-.25 2.473.028 5.087-.75 7.417-.46 1.454.298 2.8-.192 3.975-.481 1.268-.86 2.526-.508 3.909l.1.933c-.296.12-.794.259-.784.352.025 2.166.04 4.237-.554 6.363l.199 1.867c-1.881.638-.412 1.922-.719 2.891.209 1.96-1.147 3.683-.512 5.794.322 1.102-1.162 1.61-2.35 1.056-3.42-1.3-6.218-3.502-9.648-4.895-5.146-2.09-4.972-2.388-5.508-7.43-.18-1.68-.368-3.454-.546-5.134.265-.4.835-.828.896-1.21-.027-1.223-.248-2.334-.377-3.548l-.198-1.867-.397-3.735c.275-.307.865-.547.936-.836-.027-1.223-.37-2.512-.295-3.744.007-2.828-1.53-5.707.011-8.576.174-.299-.942-1.142-1.408-1.666-.163.39-.428.791-.592 1.183-1.154 2.646-.45 5.411-.172 8.025l.595 5.602c-.265.4-.835.828-.897 1.21.087 1.783.377 3.548.576 5.415l.496 4.668c-.265.4-.835.828-.897 1.21.057 1.503.318 2.988.477 4.481-.248 1.53-1.019 1.033-2.084.656-4.638-2.134-8.643-5.079-13.454-6.915-1.289-.545-3.227-1.41-2.928-3.416l-.694-6.535c1.514-.229.693-1.193.817-1.958l-.397-3.734-.596-5.602.509-.045c-.157-2.436-.202-4.788-.46-7.215-.01-.094-1.137-.088-1.859-.119l.1.934.694 6.535c-.265.4-.835.828-.897 1.21.028 1.223.248 2.334.378 3.548 1.177 4.325-.5 8.808.373 13.16-4.151-1.423-7.7-3.936-11.597-5.853-1.522-.808-3.034-1.523-4.637-2.135-1.703-1.546-1.312-3.653-1.612-5.512l-.596-5.601-.436-4.108c-.01-.093-.437-.244-.65-.32-.072.29-.144.579-.225.774-.265.4-.835.828-.887 1.304.196 2.81.585 5.508.883 8.309.298 2.8.298 2.8-2.696 1.652-.427-.15-.863-.395-1.29-.546-2.126-2.639-5.935-2.773-8.419-4.91-.111-.084-.895.268-1.18.482-.193.111-.133.671-.012.849.456.43.922.955 1.46 1.19 2.375 1.11 4.75 2.219 7.225 3.32.335.252.578.608.912.861.223.169.63.133.935.106-.174.298-.246.587-.53.8-.774.446-1.668.713-2.543 1.168-2.707 1.559-6.03 2.135-8.24 4.498-.285.214-.459.512-.744.726.315.066.64.226.843.208.315.066.61-.054 1.016-.09 3.204-1.697 6.803-2.58 9.866-4.642.478-.325 1.32-.117 1.93-.17.166-1.335.898-1.211 1.872-.732.76.404 1.531.901 2.292 1.305 3.763 2.589 7.872 4.581 12.175 6.463.325.16.771.497.81.87.03.28-.316.877-.611.997-4.26 1.413-8.005 3.818-11.9 5.764-1.941.078-3.022 1.492-4.578 2.29-1.75.908-3.732 1.555-5.482 2.463-.295.12-.622.904-.612.997.446.337 1.115.844 1.41.723 1.78-.628 3.326-1.519 5.096-2.24 1.962-.834 3.814-1.752 5.189-3.287 4.087-1.115 7.76-3.23 11.462-5.066 1.658-.806 3.03-1.398 4.47-.395 3.216 2.26 6.96 3.72 10.522 5.384 1.837.874 3.602 2.037 5.367 3.2.77.498.738 1.16-.33 1.726-1.271.584-2.28 1.71-3.571 2.106-3.985 1.107-7.465 3.11-10.944 5.115-3.48 2.004-7.343 3.288-10.71 5.376-1.354.78-2.605 1.55-3.837 2.507-.183.204-.012.849-.074 1.231.396-.13.691-.25 1.098-.285 3.385-.96 5.9-3.35 9.043-4.664 6.671-2.851 12.958-6.423 19.489-9.64 1.556-.797 3.09-.838 4.584-1.253 1.42.817 2.75 1.736 4.261 2.45 3.805 2.02 8.058 3.435 11.057 6.562-1.353.78-2.726 1.372-3.968 2.236-6.39 4.523-12.782 9.046-19.527 13.13-2.503 1.54-4.652 3.52-7.145 5.154-.671.437-1.068.566-.297 1.063.436.245 1.066.377 1.462.248.691-.25 1.363-.686 2.035-1.122 5.83-4.003 11.54-8.183 17.483-12.101 3.725-2.591 7.692-4.827 11.174-7.773 2.013-.367 3.502 1.104 5.28 1.418.242.355.495.804.83 1.057 4.12 2.086 8.137 4.18 12.256 6.267 2.424 1.576 2.414 1.483.715 2.858-3.869 3.17-7.849 6.254-11.717 9.423-.793.259-1.98-.296-1.933 1.114-2.533 1.26-4.498 3.036-6.575 4.728-2.066 1.784-4.812 2.97-6.757 4.932-.682.343-1.364.686-2.035 1.122-.377.316-.52.895-.786 1.295.528.142 1.178.461 1.686.416 1.432-.032 1.953-.926 2.24-2.082.305-.027.721.03 1.016-.09 4-2.899 8.101-5.806 12.09-8.797.194-.111.154-.485.226-.774.682-.343 1.252-.77 1.933-1.113 4.377-3.214 8.855-6.438 13.231-9.652.672-.436 2.196-.57 3.15-.278 2.942 1.624 5.783 3.258 8.725 4.883 2.506 1.38 5.103 2.658 7.609 4.039.615 1.924-1.013 3.01-2.153 3.865-3.705 2.778-7.288 5.734-10.882 8.596-1.375 1.535-3.885 2.04-4.683 4.184-3.043 2.248-6.198 4.411-9.231 6.753-.184.205-.206.96-.075 1.232.234.262 1.076.47 1.26.265 3.256-2.173 6.391-4.523 9.06-7.398 1.943-1.02 3.997-1.955 4.683-4.183.508-.045 1.138.088 1.423-.126a379.668 379.668 0 0 0 9.377-8.274c2.148-1.98 4.478-3.223 7.613-1.71.355.44.729 1.066 1.267 1.301l7.458 3.582c.233.262.496.804.912.861 1.666.23 2.669.99 2.533 2.604-1.221 1.05-2.545 2.109-3.766 3.16-4.449 3.503-8.785 7.091-13.234 10.594l-.916 1.023-5.1 4.127a1.757 1.757 0 0 0-.541.707c-.071.289-.022.756.191.831.437.244 1.178.462 1.361.257a129.263 129.263 0 0 0 5.194-5.171l1.016-.09.917-1.024c3.105-2.63 6.22-5.167 9.325-7.798 1.039-.846 2.766-.998 2.892-2.706 1.222-1.05 3.467-1.155 3.767-3.16 2.999-.736 5.046 1.156 7.411 2.172.741.217 1.39.537 2.131.754l2.231 1.687c.741.217 1.39.537 2.131.754l1.116.844c.659.413 1.41.723 2.069 1.136-.356.503-.713 1.006-1.08 1.415-1.415 1.162-2.941 2.239-4.458 3.41-3.237 2.359-6.473 4.719-9.7 7.172-.376.316-1.14.854-.165 1.334.436.244 1.177.461 1.462.247 2.005-1.402 4.111-2.813 5.883-4.478 1.212-1.144 3.447-1.341 3.645-3.338 1.913-1.3 3.938-2.516 5.74-3.9.855-.641 1.373-.593 2.143-.095.558.421 1.309.732 1.968 1.145l-2.988 4.693c-2.832 3.266-5.796 6.261-9.997 8.235-3.62 1.639-7.139 3.27-11.112 3.527-2.236.198-4.563.498-6.808.602-1.951-.016-3.904.911-6.065-.123-1.623-.799-3.985 1.106-5.901-.515-6.33.277-12.187-1.75-18.187-3.198-5.99-1.355-11.674-3.68-17.337-5.818-8.861-3.268-17.395-7.32-25.673-11.865-5.123-2.845-9.798-6.296-14.748-9.44-5.173-3.311-9.795-7.237-14.317-11.173-6.761-5.716-12.2-12.491-15.99-20.166-1.305-2.618-2.222-5.458-3.231-8.196-.434-1.187-1.071-2.355-1.302-3.56-.342-1.29.017-2.734-.528-4.006-2.665-6.738-1.896-13.968-3.148-20.925-.25-1.391-.159-1.494 1.58-2.496 5.403-3.21 13.438-6.748 19.396-8.594 3.375-1.052 6.79-1.731 10.064-2.775 3.883-1.097 7.735-1.532 11.636-1.5Z" fill="#0A483A"/><path d="M216.809 40.21c-1.184-1.162-2.309-2.407-3.451-3.592-2.115-2.101-5.542-4.683-8.229-6.276-.88-.505-.904-.543-1.55-.149-3.253 1.934-6.949 3.079-9.706 5.62-.489.464-1.28.628-1.86 1.039-.538.388-.985.83-1.474 1.295-1.146 1.019-2.34 1.96-3.396 3.034-3.016 3.19-5.202 6.809-6.604 10.78-.967 2.715-1.958 5.392-2.503 8.241-.535 2.69-1.268 5.333-1.629 8.033-.553 4.339-.759 8.698-.508 13.07.144 2.79.181 5.586.715 8.374.577 2.766.77 5.632 2.221 8.189-.425 1.096 1.026 1.707.953 2.565-.076 1.116.744 1.704 1.17 2.553.474.925 1.14 1.8 1.698 2.681 1.019 1.609 2.527 2.753 4.078 3.874 1.845 1.323 3.902 1.92 6.126 2.427 2.159.492 2.117.514 2.215 2.612-.679.873-.198 1.897-.462 2.805.044.335.022.654.066.989-.072.858-.277 1.683-.283 2.557.011.813.844.626 1.045 1.031.419-.222 1.206-.128.937-.907.524-1.558.045-3.198.328-4.782.051-.539.06-1.056.11-1.595.418-2.167.4-2.107 2.741-2.122 1.561-.01 3.109-.218 4.673-.487 1.116-.183 2.266-.487 3.205-1.037 1.55-.824 3.106-1.548 4.478-2.739 1.642-1.384 3.085-2.817 4.341-4.457 1.536-1.993 2.981-4.041 3.758-6.349 1.172-3.54 2.361-7.142 2.804-10.859.183-1.48.786-2.824.909-4.22.215-3.903 1.042-7.722.95-11.666-.074-3.032.35-6.074.06-9.094-.29-3.02-.712-6.072-1.458-9.106-.685-2.76-1.896-5.29-3.131-7.858-.911-1.615-1.924-3.125-3.337-4.473Zm2.224 5.986c1.181 2.394 2.343 4.848 2.997 7.47.691 2.858 1.082 5.773 1.365 8.694.259 2.883-.088 5.781-.045 8.676.079 3.747-.737 7.406-.923 11.09-.081 1.373-.667 2.657-.856 4.038-.433 3.558-1.527 6.955-2.688 10.336-.742 2.186-2.103 4.19-3.604 6.062-1.196 1.558-2.556 2.946-4.138 4.247-1.313 1.108-2.827 1.81-4.293 2.589-.921.49-2.03.772-3.079.971-1.457.262-2.962.448-4.457.474l-2.445-.236c-.169-.268-.339-.537.187-.765.719-.28 1.486-.483 2.253-.685.721.077 1.356-.158 1.918-.508l.418-.222c.241.026.512.189.745.116.402-.162.796-.423 1.173-.623.406.552.697.039 1.08-.062l.419-.223c.73.534 1.02.021 1.335-.454.018-.06-.11-.351-.152-.328-.324.018-.665.097-1.007.177l-.419.222c-.406-.552-.696-.039-1.08.062-.785.264-1.552.466-2.336.73-.241-.026-.512-.189-.745-.116-.402.162-.796.423-1.173.623-.115-.093-.253-.224-.32-.24-.773.104-1.565.269-2.338.373.079-.759.182-1.479.261-2.238.018-.061-.073-.115-.121-.192l.176-.605-.243-.383.353-1.211c-.045-.335-.023-.654-.067-.989.099-.462.18-.864.304-1.288.053-.181.172-.347.249-.49.771-.461 1.591-.846 2.545-.841 1.477.034 2.879-.404 4.287-.743l.419-.222.122.191c1.181-.167 2.508-.104 3.447-.654 1.148-.662 2.467-.083 3.507-.738.275-.095.586-.311.851-.247.372.058.546.068.586-.312.011-.159-.003-.357.008-.516l-.826.285c-.115-.092-.278-.261-.362-.217-1.558.367-3.079.97-4.772.95-.63-.024-1.3.332-1.942.468l-.418.222c-.199-.048-.428-.233-.578-.205-2.089.855-4.309 1.062-6.498 1.406-.104-.252-.364-.575-.311-.756.319-.733.074-1.473.112-2.21.136-.226.356-.497.361-.755l.21-3.644c.465-.503.603-1.345 1.703-1.11.373.058.827-.286 1.228-.448.406.552.697.04 1.08-.062l.838-.445.661.16.419-.222.419-.223c.405.552.696.04 1.08-.062l.418-.222c.199.048.428.233.578.205 1.66-.473 3.308-.786 4.999-1.121l.827-.286c.341-.079.725-.18 1.091-.221l.418-.223c.713.594 1.396-.537 2.119-.102.119-.165.321-.375.291-.513-.056-.175-.375-.415-.459-.37-.719.28-1.561.01-2.151.58-.671-.617-.983.215-1.499.285-.803-.65-1.162.463-1.841.363-1.49-.232-2.781.557-4.155.775l-.418.222c-.406-.552-.697-.04-1.08.062l-.419.223c-.115-.093-.254-.224-.32-.24l-2.678.81c-.406-.553-.696-.04-1.08.061-1.486.482-1.781.281-1.808-1.087.676-1.23.416-2.525.395-3.794.137-.226.357-.497.361-.755l.211-3.644c1.3-.333 2.534-.682 3.835-1.014l.837-.445c.241.025.512.188.745.115.402-.161.796-.422 1.173-.623.522.03 2.764-.496 3.416-.791.115.092.278.262.362.217 2.114-.816 4.344-1.182 6.471-1.8l.419-.223c.849.368 1.314-.135 1.754-.677.018-.06-.225-.443-.333-.437-.282-.004-.551.19-.826.286l-.419.222c-.115-.093-.278-.262-.362-.217-2.113.816-4.344 1.182-6.471 1.8l-.837.446c-.523-.03-2.764.496-3.417.791-.491.108-1.007.177-1.499.285l-.837.445c-.115-.093-.278-.262-.32-.24-.736.34-1.551.467-2.318.67-.809.224-1.169.364-1.019-.637.057-.44-.084-.928-.093-1.384.119-.165.28-.353.332-.535.167-2.034.358-4.03.525-6.064-.314-1.113.667-1.686 1.447-1.69.889-.012 1.378-.477 2.079-.696.67.617.983-.215 1.499-.284l.837-.445c.523.03 2.764-.497 3.417-.792l.837-.445c.115.093.278.262.362.217 1.485-.482 2.947-1.003 4.487-1.31 1.091-.22 2.121-.717 3.174-1.174.126-.067.165-.446.194-.666-.199-.049-.446-.173-.571-.107-1.21.388-2.383 1.01-3.63 1.162-.774.104-1.257.667-1.905.705-.69.06-1.355.157-1.935.567l-.419.223c-.114-.093-.277-.262-.319-.24-1.012.435-1.982.848-3.097 1.031l-.837.446c-.671-.617-.983.215-1.499.284-.88.468-1.955.271-2.821.936-.454.344-.986-.142-.96-.719-.064-1.604.418-3.14.395-4.766-.034-2.44.14-2.43 2.402-3.631l2.303-1.224c.24.026.553.166.745.116.568-.251 1.047-.557 1.591-.846l.837-.445 1.675-.89c.199.048.428.233.578.205.569-.251 1.106-.64 1.699-.852 1.329-.553 2.378-1.724 4.029-1.68.174.01.35-.596.505-.883-.216.013-.457-.013-.673 0-1.47.064-2.629.885-3.802 1.508l-2.512 1.335c-.24-.026-.553-.167-.745-.116-.82.385-1.591.846-2.429 1.29l-2.094 1.113c-.24-.026-.553-.166-.745-.116-.694.318-1.34.713-2.01 1.069-.767.202-.685-.2-.719-.694.088-2.247.68-4.405.593-6.663.002-.615.026-1.55 1.026-1.825l2.932-1.558c.405.552.696.04 1.08-.062l1.675-.89 2.512-1.335.121.191c1.113-.54 2.209-1.02 3.298-1.599.041-.022-.184-.465-.312-.756l-.418.223-2.931 1.557c-.241-.025-.554-.166-.746-.115-.568.25-1.046.556-1.591.845-1.798 1.314-4.234 1.533-6.105 2.733-.15-1.917.329-3.81.461-5.723.079-.76.116-1.496.087-2.248.39-.975 1.457-1.235 2.27-1.718l2.512-1.336 1.843-.979c.042-.022.028-.22.022-.319-.15.029-.3.057-.408.064-.24-.026-.553-.167-.787-.094-1.28.63-2.471 1.313-3.727 1.98-1.256.668-1.256.668-1.307-.738-.014-.198.015-.418.002-.616.819-1.357.131-2.885.644-4.284.018-.06-.302-.3-.459-.37-.09-.055-.341.078-.401.161-.112.265-.266.551-.271.81-.052 1.154-.105 2.308-.133 3.5-.053.182-.172.348-.224.53-.036.12.061.274.134.389-.174-.01-.324.018-.48-.052-.362-.217-.664-.518-1.05-.773-1.266-.761-2.192-1.959-3.737-2.366-.157-.07-.331-.08-.487-.15.03.137.019.296.068.373.031.137.146.23.243.383 1.428.93 2.553 2.175 4.125 2.978.247.125.316.498.461.728.659-.197.745.116.712.594-.039.38-.121.781-.16 1.16-.473 1.993-.598 4.004-.633 6.07-.01.16-.081.402-.248.491-.126.067-.474.047-.589-.045-1.504-1.403-3.371-2.407-5.054-3.56-.419-.75-1.296-.899-1.978-1.356-.771-.511-1.466-1.166-2.238-1.677-.114-.093-.546-.068-.588-.046-.071.242-.176.606-.062.698.646.578 1.37 1.013 2.058 1.57.778.61 1.574 1.16 2.566 1.4 1.33 1.392 3.047 2.425 4.639 3.524.706.496 1.255.92 1.068 1.686-.427 1.711-.373 3.475-.452 5.206-.048.896-.246 1.82-.444 2.745-.082.401-.399.519-.875.209-.525-.387-1.253-.563-1.694-.994-1.305-1.355-2.932-2.333-4.56-3.311-1.627-.979-2.992-2.25-4.637-3.168-.632-.38-1.241-.722-1.933-1.02-.133-.032-.401.162-.593.213.139.13.253.223.35.377 1.119 1.146 2.737 1.669 3.974 2.65 2.655 2.07 5.572 3.847 8.37 5.79.681.458 1.003 1.054 1.493 1.562-.104.72-.273 1.425-.31 2.162-.198 1.897-.023 3.851-.9 5.649-.632-.381-1.181-.806-1.832-1.126-3.384-1.632-6.768-3.263-10.016-5.12-1.217-.685-2.571-1.143-3.83-1.805-.337-.18-.476-.31-.558.091-.028.22.034.495.173.625.253.224.591.403.928.582 3.029 1.513 6.118 2.944 9.13 4.517 1.951.96 3.783 2.085 5.854 2.88.569.72.172 1.597.375 2.36-.119.165-.28.353-.332.535-.167 2.034-.358 4.03-.525 6.064-.262 1.265-.22 1.243-1.201.843-2.251-.903-4.484-1.866-6.735-2.77-.278-.261-.252-.838-.904-.543-1.092-.75-2.313-1.177-3.517-1.663-1.246-.465-2.344-1.315-3.649-1.696a9.73 9.73 0 0 0-.928-.582c-.223-.087-.522-.03-.763-.055.038.236.016.554.137.746.298.558.82.588 1.42.474.073.115.128.29.243.383 2.149 1.008 4.323 2.054 6.515 3.04.09.054.258-.035.407-.063.296.2.609.342.904.543 2.373 1.094 4.769 2.227 7.142 3.321.337.18.701.754.752 1.188-.183 1.479-.389 2.92-.572 4.4-.153 1.258-.241 2.534-.395 3.793-.782.62-1.613.192-2.239-.09-2.035-.915-4.13-1.747-6.183-2.602-.992-.24-1.724-1.132-2.888-1.025-1.655-.758-3.294-1.577-4.991-2.313-.132-.032-.492.107-.593.212-.077.144-.009.517.124.549 1.662.857 3.384 1.632 5.26 2.12.862.565 1.707 1.191 2.888 1.024.121.192.183.466.34.537 1.913.723 3.803 1.409 5.734 2.072 1.354.458 2.397 1.132 2.305 2.666-.137.226-.357.497-.361.755l-.211 3.644c-.077.144-.279.354-.224.53.22.701.062 1.246-.723 1.51-.734-.276-1.492-.59-2.226-.865-2.523-1.066-5.063-2.071-7.585-3.137l-.661-.16-2.943-1.2a.981.981 0 0 0-.439-.075c-.15.029-.359.14-.353.239-.028.22.016.555.148.587a68.5 68.5 0 0 0 3.453 1.032l.242.383.662.16c1.847.708 3.653 1.438 5.5 2.146.602.243 1.015.894 1.841.608.734.276 1.226 1.14 2.227.865.937 1.038.453 2.217.442 3.349.044.335.023.653.067.988l-.352 1.211c.044.335.022.654.066.989l-.176.606c-.064.341-.062.698-.125 1.039a9.212 9.212 0 0 1-.878-.148c-.824-.33-1.631-.72-2.48-1.088-1.746-.813-3.492-1.626-5.28-2.416-.223-.087-.627-.282-.659.196-.029.22.015.555.172.626 1.054.515 2.132 1.068 3.263 1.44.776.253 1.31 1.096 2.286.782.988.499 1.958 1.058 2.963 1.497.47.211.549.425.468.826-.088.303-.086.66-.15 1.001l-2.793-.256c-2.092-.475-4.083-1.056-5.838-2.325-1.484-1.105-2.943-2.173-3.848-3.689-.534-.842-1.133-1.701-1.625-2.566-.378-.772-1.198-1.36-1.139-2.416.055-.796-1.305-1.353-.922-2.427-1.379-2.442-1.583-5.15-2.086-7.8-.546-2.628-.576-5.326-.689-7.98-.213-4.135.006-8.296.506-12.453.326-2.58 1.023-5.1 1.523-7.67.534-2.69 1.466-5.284 2.422-7.84a28.883 28.883 0 0 1 6.313-10.267c.972-1.028 2.124-1.948 3.211-2.884.471-.404.894-.885 1.415-1.212.537-.388 1.287-.53 1.776-.995 2.638-2.375 6.184-3.492 9.203-5.352.604-.372.67-.356 1.484.133 2.573 1.5 5.819 3.973 7.861 5.96 1.16 1.124 2.152 2.337 3.288 3.423a16.34 16.34 0 0 1 2.999 4.293Z" fill="#DCBF6F"/></svg>