<svg xmlns="http://www.w3.org/2000/svg" width="251" height="144" fill="none"><path fill="#0A483A" d="m34 14-10 3-21 9c-2 1-2 1-1 2 1 8 0 15 3 23v4l2 3 3 9c4 8 10 15 17 21l15 12 16 10c8 5 17 9 26 12 6 2 12 5 19 6 6 2 12 4 19 4h19a35 35 0 0 0 23-13c3-3 3-3 7-1 1 2 4 2 6 3l2 1 5 3 3-1c0-1 1-3-1-3l-10-5-3-1c-4-3-4-3-2-7l3-9v-6l-1-10-6-12c-3-4-6-9-10-12l-20-15-8-5-24-12-19-8-20-6-20-1-12 2Zm15 1a100 100 0 0 1 37 7l19 8 22 11 8 5 19 14c4 3 7 7 10 12l5 11 2 10-1 6-3 8-3 4-1-1v-4l1-4v-1l1-1v-6c2-1 1-2 0-3l-1 2v1l-1 2v5l-1 1v3l-2 5-4-3h-1l-1-1h-1l-2-1-2-1-3-2v-6l2-8v-1h1c0-2 2-4 1-7l2-6v-3l-1-1v2h-1l-2 9-1 4v1l-1 1c0 4-1 9-3 13h-1l-5-3-1-1-8-3c0-2-2-3-1-4l1-3v-4l1-1v-2l1-2v-1h1l2-10v-5c2-1 0-3 2-4l-1-1-1 1c0 1-2 3-1 4-2 1 0 2-1 3-2 1 0 2 0 4-2 2-2 5-2 8-2 1-1 2-1 2v1l-1 1-1 5v2c-1 3-1 3-4 2l-8-4-1-1-8-4 2-7-1-2 1-1v-3l1-7h1l2-13v-1c2-1 1-2 0-4h-1v3l-1 1-2 13v1l-1 7-1 3 1 2h-1l-1 5c0 2 0 2-2 1l-3-1-1-1-12-6c-3-1-3-3-2-4v-5c2 0 0-1 1-2l-1-2 2-7v-2l2-9v-7l-1-1-1 1-1 7v4l-1 4 1 1-1 1-1 6v5l-1 5c1 2-1 2-2 2l-10-5c-5-2-5-3-5-8l-1-5 1-1v-4l-1-2v-3l1-1v-4c0-3-2-6 0-8l-2-2v15l-1 1 1 5v5l-1 1 1 5h-2l-14-7c-1 0-3-1-3-3v-7l1-1-1-4V21h-2v1l1 6-1 1v17c-4-1-7-4-11-6l-5-2c-2-1-1-3-1-5l-1-6v-4h-1l-1 2 1 8c0 3 0 3-3 2l-1-1-9-5-1 1v1l2 1 7 3 1 1h1l-1 1-2 1c-3 2-6 2-9 5h1l10-4h2c0-2 1-2 2-1l2 1 13 7v1l-12 6-5 2-5 3-1 1 2 1 5-3c2 0 3-1 5-3l11-5h5l10 5 6 3-1 2-3 2-11 5-11 6-4 2v1h1c4-1 6-3 9-5 7-2 13-6 20-9l4-2 5 3c3 2 8 3 11 7l-4 2-20 13-7 5v1h1l2-1 18-12 11-8 5 2 1 1 12 6c3 2 3 2 1 3l-12 9-2 1-6 5-7 5-2 1-1 2h2l2-2h1l12-9 1-1 1-1 14-10h3l9 5 7 4c1 2-1 3-2 4l-11 9-5 4-9 7v1h1l9-7c2-1 4-2 5-5h2a380 380 0 0 0 9-8c2-2 4-3 8-2l1 2 7 3 1 1c2 0 3 1 3 3l-4 3-13 10-1 1-5 5a2 2 0 0 0-1 0v1h2a129 129 0 0 0 5-5h1l1-1 9-8 3-2c1-1 4-2 4-4 3 0 5 2 7 3h2l3 2 2 1 1 1 2 1-1 1-5 4-9 7v1h1l6-4c1-1 3-1 3-3l6-4h2l2 1-3 4c-2 4-5 7-10 9-3 1-7 3-11 3l-7 1h-6c-1-1-4 1-6-1l-18-3c-6-1-11-4-17-6-9-3-17-7-26-12l-14-9-15-11c-7-6-12-13-16-21l-3-8-1-3-1-4c-3-7-2-14-3-21 0-2 0-2 2-3 5-3 13-7 19-8l10-3 12-2Z"/><path fill="#DCBF6F" d="m217 40-4-3-8-7h-1c-4 2-7 3-10 6l-2 1-1 1-4 3c-3 3-5 7-6 11l-3 8-2 8v13l1 9c0 2 0 5 2 8-1 1 1 2 1 2l1 3 2 3 4 4 6 2c2 0 2 0 2 3v3l-1 3 1 1c1 0 2 0 1-1l1-5v-1c0-2 0-2 3-2l4-1 3-1 5-3a28 28 0 0 0 8-11l3-10 1-5 1-11v-9l-2-9c0-3-2-6-3-8l-3-5Zm2 6a38 38 0 0 1 4 16v9l-1 11v4l-3 11-4 6-4 4-4 2-3 1-5 1h-2v-1l2-1h2l1-1v1l2-1h1l1-1h-2l-3 1-2 1v-1l-2 1v-7l1-1 2-1h5v-1 1l4-1 3-1h2v-1h-2l-4 1-2 1h-1l-7 1v-7c1-1 1-2 2-1l1-1h3l1-1h2l5-1h2v-1h3l-1-1-2 1h-1l-2 1h-4l-1 1h-2l-2 1h-1l-2-1v-4l1-1v-4l4-1h1l1-1h4l7-2 2-1h-2l-7 2h-1l-3 1h-1l-1 1-1-1-2 1h-1v-2l1-6 1-2 2-1h2l1-1h3l1-1 5-1 3-1v-1l-4 1-2 1-2 1h-1l-3 1h-2l-3 1h-1l1-5c0-3 0-3 2-4l2-1h1l2-1 2-1h1l1-1c2 0 3-2 4-1l1-1h-1l-4 1-2 1h-1l-2 2-2 1h-1l-2 1-1-1 1-7 1-1 3-2h1l2-1 2-1 3-2-3 1h-1l-2 1-6 3 1-6v-2l2-2 3-1 2-1v-1l-1 1-1-1-3 2h-2v-1l1-4-1-1v5h-1l1 1h-1l-1-1-4-2v-1 1l4 3 1 1v8h-1l-5-3-2-2-2-1h-1l2 2 3 1 4 4 1 1v6l-1 2-1 1-1-1-5-4-4-3-2-1h-1v1l4 2 9 6 1 2v2l-1 5-2-1-10-5-4-2v1l1 1 9 4 6 3v3l-1 6-1 1-7-3s0-1 0 0l-4-2-4-2a10 10 0 0 0-1 0l1 1 7 3 1 1 7 3 1 1v5l-1 3h-2l-6-2-3-1-5-3-1 1 6 2 3 1v1l6 2c1 0 2 1 2 3l-1 4v1l-1 1-2-1-7-3h-1l-3-1h-1a69 69 0 0 0 4 1v1h1l5 2 2 1 2 1 1 3v3l-1 1v1a9 9 0 0 1-1 0l-2-1-5-3h-1v1l3 1c1 1 2 2 3 1l3 2v2l-3-1-6-2-4-4-1-2-1-3c0-1-2-1-1-2-2-3-2-5-2-8l-1-8 1-12 1-8 2-8a29 29 0 0 1 7-10l3-3 1-1 2-1 9-6 2 1 8 5 3 4a16 16 0 0 1 3 4Z"/></svg>