<svg xmlns="http://www.w3.org/2000/svg" width="26" height="26" fill="none"><path fill="#fff" d="M13 6.3a6.6 6.6 0 1 0 0 13.3 6.6 6.6 0 0 0 0-13.3Zm0 11a4.3 4.3 0 1 1 0-8.7 4.3 4.3 0 0 1 0 8.7Zm8.5-11.2a1.5 1.5 0 1 1-3.1 0 1.6 1.6 0 0 1 3 0Zm4.4 1.5c-.1-2-.6-3.9-2.1-5.4A7.7 7.7 0 0 0 18.3 0C16.2 0 9.8 0 7.6 0c-2 0-3.9.6-5.4 2A7.7 7.7 0 0 0 0 7.7C0 9.8 0 16.2 0 18.3c0 2.1.6 4 2 5.5 1.6 1.5 3.4 2 5.5 2 2.2.2 8.6.2 10.7 0 2.1 0 4-.5 5.5-2 1.5-1.6 2-3.4 2-5.5.2-2.1.2-8.5 0-10.7Zm-2.8 13c-.5 1.2-1.3 2-2.5 2.5-1.7.7-5.7.5-7.6.5-2 0-6 .2-7.7-.5-1.1-.5-2-1.3-2.4-2.5-.7-1.7-.6-5.7-.6-7.6 0-2-.1-6 .6-7.7.4-1.1 1.3-2 2.4-2.4 1.7-.7 5.8-.6 7.7-.6 1.9 0 6-.1 7.6.6 1.2.4 2 1.3 2.5 2.4.7 1.7.5 5.8.5 7.7 0 1.9.2 6-.5 7.6Z"/></svg>