<svg width="315" height="32" viewBox="0 0 315 32" fill="none" xmlns="http://www.w3.org/2000/svg">
<path d="M0 16C0 24.8366 7.16344 32 16 32C24.8366 32 32 24.8366 32 16C32 7.16344 24.8366 0 16 0C7.16344 0 0 7.16344 0 16ZM312 19C313.657 19 315 17.6569 315 16C315 14.3431 313.657 13 312 13V19ZM22.1667 19C23.8235 19 25.1667 17.6569 25.1667 16C25.1667 14.3431 23.8235 13 22.1667 13V19ZM34.5 13C32.8431 13 31.5 14.3431 31.5 16C31.5 17.6569 32.8431 19 34.5 19V13ZM46.8333 19C48.4902 19 49.8333 17.6569 49.8333 16C49.8333 14.3431 48.4902 13 46.8333 13V19ZM59.1667 13C57.5098 13 56.1667 14.3431 56.1667 16C56.1667 17.6569 57.5098 19 59.1667 19V13ZM71.5 19C73.1568 19 74.5 17.6569 74.5 16C74.5 14.3431 73.1568 13 71.5 13V19ZM83.8333 13C82.1765 13 80.8333 14.3431 80.8333 16C80.8333 17.6569 82.1765 19 83.8333 19V13ZM96.1667 19C97.8235 19 99.1667 17.6569 99.1667 16C99.1667 14.3431 97.8235 13 96.1667 13V19ZM108.5 13C106.843 13 105.5 14.3431 105.5 16C105.5 17.6569 106.843 19 108.5 19V13ZM120.833 19C122.49 19 123.833 17.6569 123.833 16C123.833 14.3431 122.49 13 120.833 13V19ZM133.167 13C131.51 13 130.167 14.3431 130.167 16C130.167 17.6569 131.51 19 133.167 19V13ZM145.5 19C147.157 19 148.5 17.6569 148.5 16C148.5 14.3431 147.157 13 145.5 13V19ZM157.833 13C156.176 13 154.833 14.3431 154.833 16C154.833 17.6569 156.176 19 157.833 19V13ZM170.167 19C171.824 19 173.167 17.6569 173.167 16C173.167 14.3431 171.824 13 170.167 13V19ZM182.5 13C180.843 13 179.5 14.3431 179.5 16C179.5 17.6569 180.843 19 182.5 19V13ZM194.833 19C196.49 19 197.833 17.6569 197.833 16C197.833 14.3431 196.49 13 194.833 13V19ZM207.167 13C205.51 13 204.167 14.3431 204.167 16C204.167 17.6569 205.51 19 207.167 19V13ZM219.5 19C221.157 19 222.5 17.6569 222.5 16C222.5 14.3431 221.157 13 219.5 13V19ZM231.833 13C230.176 13 228.833 14.3431 228.833 16C228.833 17.6569 230.176 19 231.833 19V13ZM244.167 19C245.823 19 247.167 17.6569 247.167 16C247.167 14.3431 245.823 13 244.167 13V19ZM256.5 13C254.843 13 253.5 14.3431 253.5 16C253.5 17.6569 254.843 19 256.5 19V13ZM268.833 19C270.49 19 271.833 17.6569 271.833 16C271.833 14.3431 270.49 13 268.833 13V19ZM281.167 13C279.51 13 278.167 14.3431 278.167 16C278.167 17.6569 279.51 19 281.167 19V13ZM293.5 19C295.157 19 296.5 17.6569 296.5 16C296.5 14.3431 295.157 13 293.5 13V19ZM305.833 13C304.176 13 302.833 14.3431 302.833 16C302.833 17.6569 304.176 19 305.833 19V13ZM16 19H22.1667V13H16V19ZM34.5 19H46.8333V13H34.5V19ZM59.1667 19H71.5V13H59.1667V19ZM83.8333 19H96.1667V13H83.8333V19ZM108.5 19H120.833V13H108.5V19ZM133.167 19H145.5V13H133.167V19ZM157.833 19H170.167V13H157.833V19ZM182.5 19H194.833V13H182.5V19ZM207.167 19H219.5V13H207.167V19ZM231.833 19H244.167V13H231.833V19ZM256.5 19H268.833V13H256.5V19ZM281.167 19H293.5V13H281.167V19ZM305.833 19H312V13H305.833V19Z" fill="black" fill-opacity="0.7"/>
</svg>
