<svg xmlns="http://www.w3.org/2000/svg" data-name="Layer 1" viewBox="0 0 396.2 238.5"><path d="m73 194-3-3c-1-1 0-2 1-2l5-2 6-1 10-4 9-3 1-2-2-6a20 20 0 0 1-1-8l-1-6a5 5 0 0 1 0-4c2-4 0-8 2-11-1-4 1-7 2-10a6 6 0 0 1 1-2l4-8 6-9a20 20 0 0 1 5-6l5-5 13-12a60 60 0 0 0 6-3l4-3a7 7 0 0 0 4-2l1-1 7-3a23 23 0 0 1 7-3 14 14 0 0 0 3-2 104 104 0 0 1 20-8 9 9 0 0 0 2-1l21-9c7-1 13-5 20-6 1-2 3-1 5-1 5-1 9-4 15-4 3-2 7 0 11-3 3 1 5-1 8-1l7-1a36 36 0 0 0 7-1h9c3 0 6-1 8 1h4l11 2 10 2a71 71 0 0 1 12 3l14 7a73 73 0 0 1 12 7l14 11 6 4a5 5 0 0 1 3 2l-1 4c-1 4-3 9-3 14l-2 6c-3 2-2 5-3 8s-3 4-2 7l-4 7-2 6-6 10-4 7c-1 1-3 2-3 4l-4 5-5 5-4 4-12 9-12 8-1 1c-1 0-3 0-4 2l-4 2c-1 0-4 0-3 2l-2 1c-4 2-8 5-13 6l-4 3c-4 3-9 4-14 6l-18 6c-4 2-9 4-13 4l-4 1a47 47 0 0 1-7 2c-3 1-7 0-10 2s-6 1-9 2l-11 2a4 4 0 0 1-1 0l-15 1h-7l-4 1h-2c-1-2-3-1-4-1h-6a40 40 0 0 0-7-1l-6-1c-2-1-4 0-6-2-3 1-4-2-7-2l-6-3a63 63 0 0 1-7-3l-13-14-6-9c-1-3-3-4-5-3a37 37 0 0 0-5 2c-1-2-2-1-3-1a5 5 0 0 1 4-2 27 27 0 0 0 3-1l3-2h-4c0 2-3 0-3 2a11 11 0 0 0-6 2s-2-1-2 1l-10 2v1h-2a9 9 0 0 0-1 3c-2-1-2-1-2 1Zm36-15h2l-1 1v1c-2 0-1 2-1 3l3 6c0 3 2 5 4 7a44 44 0 0 0 13 12 101 101 0 0 0 12 5 63 63 0 0 0 16 5l17 1h14c5 0 9-2 13-1h1c2-2 4-1 6-1l5-1 12-3a8 8 0 0 1 2 0l15-3 5-2c2-2 4-1 6-2l17-6 12-4 12-6 8-5a43 43 0 0 0 6-3l2-1c3 0 4-3 7-4l12-8a173 173 0 0 0 16-13c7-6 12-14 17-22a50 50 0 0 0 4-7 68 68 0 0 1 4-8l3-9 5-16 1-6c2-2 1-4 2-7 1-1 2-4-1-5s-6-4-9-7l-22-14a85 85 0 0 0-20-8l-10-3-4-1c-1-1-3 1-4-1h-4c-1-1-4 1-6-1-1 2-3-1-4 1 0 0-2-2-4 0-1-2-2-1-3-1-1 1-2-1-3 1-1 1-3-2-4 0l-9 1-11 1h-1l-13 4a1 1 0 0 1-1 0c-5-1-10 3-15 3l-12 4-13 5-12 5a270 270 0 0 0-27 11l-7 4a41 41 0 0 1-5 2 84 84 0 0 0-11 6l-8 5-9 8-3 3-4 3a38 38 0 0 1-3 4l-4 6-7 10-2 6-2 6-1 7-1 7v2l1 4a40 40 0 0 0 2 12c1 2 1 6 4 7Z" style="fill:#aeaeae"/><path d="M93 59c2 1 2 4 3 5l2 13 1 6c0 2-1 4 1 6l-1 2v3a6 6 0 0 1 1 5c-2 3-1 5-1 7l-1 9-2 8-5 19-6 12-1 1v-1c3-6 6-12 7-18l5-17c-1-3 1-5 1-8l1-8a86 86 0 0 0 0-13c0-4-2-9-1-13-2-2-1-5-1-7l-3-10Z" style="fill:#b2b2b2"/><path d="M55 184v-6l1-6c0-1 0-2-2-2-3-1-6-1-8-3h4c2 2 4 0 6 1l1-1a3 3 0 0 0-1 0l-2-2v-1c3 1 3 1 3-1v-6a13 13 0 0 1 1-3h1v6c0 3 0 3 3 3a4 4 0 0 1 1 0l1 1-5 1a1 1 0 0 0-1 1v2l4 1c2-2 6 0 8-3h2l1 1a23 23 0 0 1-11 3c-4 0-4 0-4 4v2h-1l-1 1v6l-1 1Z" style="fill:#b5b5b5"/><path d="m25 143-1-5c-1-1 1-3-1-4V99l1-2 1 2-1 16c-1 4 1 9 1 13v6c0 2 2 5 1 7l-1 2Z" style="fill:#b8b8b8"/><path d="M93 187c1 0 2-1 3 1l-17 6-6 2h-1l1-1v-1c0-2 0-2 2-1h1l1-1 2-1h2a27 27 0 0 1 8-3 5 5 0 0 1 4-1Z" style="fill:#acacac"/><path d="m25 99-1-2a50 50 0 0 1 1-10l2-9v-3l1-1v2l-1 11h-1l-1 12Z" style="fill:#b6b6b6"/><path d="m39 50 1-2c4-4 8-9 13-12l1 1c-6 3-10 8-14 13Z" style="fill:#b7b7b7"/><path d="M28 76v-2l2-10 3-6 1 1a111 111 0 0 0-6 17Z" style="fill:#b6b6b6"/><path d="M57 33c3-2 6-2 8-5h2a22 22 0 0 1 2 3h-1c-1-1-2-2-4 0l-6 3Z" style="fill:#b4b4b4"/><path d="M84 154v2l-7 8-1-1 8-9Z" style="fill:#b6b6b6"/><path d="m34 59-1-1 3-5a6 6 0 0 1 3-3h1l-6 9Z" style="fill:#bababa"/><path d="m77 37 7 6v2l-8-8Z" style="fill:#b2b2b2"/><path d="M25 143c2 0 1-1 1-2l1 1 2 6-1 1c-2-1-1-2-2-3a12 12 0 0 1-1-3Z" style="fill:#bebebe"/><path d="M33 157c-2-2-4-4-4-7h1l4 7Z" style="fill:#b7b7b7"/><path d="M33 157h1l5 5v1l-4-2-2-4Z" style="fill:#afafaf"/><path d="M93 59v1l-3-6 1-1 2 6Z" style="fill:#b6b6b6"/><path d="m55 184 1-1v-6l1-1v7c0 1 0 2-2 2Z" style="fill:#ccc"/><path d="M68 31h1c3 0 4 2 5 4h-1l-3-2-2-2Z" style="fill:#b8b8b8"/><path d="m57 33 1 1-4 3-1-1c0-2 3-2 4-3Z" style="fill:#c3c3c3"/><path d="m76 163 1 1-4 3-1-1Z" style="fill:#c2c2c2"/><path d="m91 53-1 1-3-4 1-1Z" style="fill:silver"/><ellipse cx="57.4" cy="179.3" rx=".7" ry="5" style="fill:#aaa"/><path d="M47 167h-1c-2 0-4 0-4-2h1a5 5 0 0 1 4 2Z" style="fill:#b8b8b8"/><path d="m88 49-1 1-3-4h1Z" style="fill:#b7b7b7"/><path d="M57 183h1v2a13 13 0 0 1-4 0h1c2 0 2-1 2-2Z" style="fill:#b5b5b5"/><path d="M73 35h1a2 2 0 0 1 3 2h-1a2 2 0 0 1-3-2Z" style="fill:#c1c1c1"/><path d="M43 165h-1a2 2 0 0 1-3-2v-1Z" style="fill:#b9b9b9"/><path d="M30 150h-1l-1-1 1-1Z" style="fill:#bbb"/><path d="M85 46h-1v-1Z" style="fill:#afafaf"/><path d="M109 179c-3-1-3-5-4-7a40 40 0 0 1-2-12l-1-4v-2l1-7 1-7 2-6 2-6 7-10 4-6a38 38 0 0 0 3-4l4-3 3-3 9-8 8-5a84 84 0 0 1 11-6 41 41 0 0 0 5-2l7-4a270 270 0 0 1 27-11l12-5 13-4 12-5 15-3a1 1 0 0 0 1 0c4-2 8-2 13-3l1-1 11-1 9-1c1-2 3 1 4 0 1-2 2 0 3 0h3c2-2 3 1 4 0 1-2 3 2 4-1 2 2 5 0 6 1 2 1 3-1 4 1l4 1h4l10 3a85 85 0 0 1 20 8l22 14c3 3 6 6 9 7s2 4 1 6 0 4-2 6l-1 6-5 16-3 9a68 68 0 0 0-4 8 50 50 0 0 1-4 7c-5 8-10 16-17 22a173 173 0 0 1-16 13l-12 8c-3 1-5 4-8 4l-1 1a43 43 0 0 1-6 3l-8 5-12 6-13 4-16 6c-2 1-4 0-6 2l-6 2-14 3a8 8 0 0 0-2 0l-12 3-6 1-5 1h-1c-5-1-9 1-13 1h-14l-17-1a63 63 0 0 1-16-4 101 101 0 0 1-12-6 44 44 0 0 1-13-12c-2-2-4-4-4-7l-3-6c0-1-1-3 1-3l2-1 4 1 8 10 3 3 3 4c2 0 1 2 2 3l3 4a1 1 0 0 0 3-1 3 3 0 0 0-1-3l-4-4-4-4c-2-1-1-4-3-4l-8-9 1-2 4-2 17-6c4-1 4-2 6 1l7 9 7 8 7 9 10 13h2a7 7 0 0 0 1-2h-1c-3-2-4-7-7-8 0-3-3-4-4-7l-5-6a29 29 0 0 0-3-3l-3-4c0-2-3-3-4-5l-4-6c-1-1-1-3 1-3l23-8c2-2 3-1 3 0l4 4 3 5c2 0 2 2 4 3l3 4 16 21 7 7c1 2 1 2 3 1v-1a3 3 0 0 1-1-1l-10-12-10-12-5-8c-1-3-5-5-7-7l-4-7 7-2 13-5 12-4 1-1 6 7 9 9a3 3 0 0 0 1 2l14 15a24 24 0 0 1 3 4l4 5a16 16 0 0 0 5 5l1 1 1 1 1-1 1-1c0-2-1-1-2-1 1-2-2-2-2-3l-5-6-5-6-13-13v-2h-2l-1-2-12-13c-1-2-1-3 1-3a42 42 0 0 0 7-3l10-3 13-5c1-1 3-1 4 1s3 2 3 4l4 2c0 2 2 3 3 4l4 4 3 4 5 4 4 4c-1 3 3 2 3 4 2 0 2 2 3 3l3 3 1 1 1 1 1 1 1 1 1 1 1 1 1 1 1 1 1-1v-1l-1-1-1-1-1-1c0-2-1-2-2-2v-1c0-2-1-1-2-1 0-2-1-2-2-2v-2c-3-1-5-4-7-7a52 52 0 0 0-5-5l-6-5c-2-2-4-3-5-6-2 0-2-4-5-4 0-1 0-2-2-2l-2-2c-2-2-1-3 1-4l5-2 16-6c5-1 5-1 9 1a9 9 0 0 0 1 2l7 4 5 4 4 4 4 3c1 1 4 1 4 4a87 87 0 0 1 14 11 7 7 0 0 0 3 1 2 2 0 0 0 1 0 2 2 0 0 0 1-2 4 4 0 0 0-2-1l-9-8-7-5-17-14-6-3-2-2c-1-2-1-3 1-3l8-3 5-2 8-3c3-1 5 0 7-3h2c5 2 7 7 12 8v1c1 1 3 4 5 4s4 3 5 4l6 5 7 5h2a11 11 0 0 0 0-2l-2-2a30 30 0 0 0-4-3 105 105 0 0 1-11-8 65 65 0 0 0-8-6l-7-7v-1l6-2 5-2c2-1 5-1 7-3 3 1 6-2 9-3h1l6 4 6 4 6 5a2 2 0 0 0 1 1 4 4 0 0 0 2-1 2 2 0 0 0-1-1l-5-4a59 59 0 0 0-11-8 1 1 0 0 1 0-1l1-1 2-1 15-5a2 2 0 0 0 1-1c0-1 0-2-2-2l-6 2-14 5c-1 0-1 2-1 0a8 8 0 0 1 0-3 90 90 0 0 0 3-14l1-2-1-2c-1 0-2-1-2 1-1 2-2 4-1 6-2 2-1 4-2 7l-1 6a5 5 0 0 1-1 2 10 10 0 0 1-5 3c-2 1-5 1-6 3a36 36 0 0 0-6 1 81 81 0 0 0-10 4l-4 1 1-3 1-4c-1-5 3-9 2-14 2-5 1-10 3-14a22 22 0 0 0 1-7 1 1 0 0 0-1-1 1 1 0 0 0-1 0c-2 3-1 6-2 9l-2 11a12 12 0 0 0-1 5v2c-2 2-1 4-2 7l-1 7c0 3-1 4-4 5a81 81 0 0 0-11 4c-2 1-5 1-6 3a12 12 0 0 0-3 0l-6 3c-2 1-2 0-2-2l2-14 3-14a45 45 0 0 0 1-7l2-8a31 31 0 0 1 1-8c1-1 0-3-1-3-2 0-1 1-1 2l-2 10v1c-2 2-1 5-2 8l-1 7-1 4a12 12 0 0 1-1 4l-1 5-1 8a6 6 0 0 1-1 3l-1 5c-1 2-4 1-4 3a10 10 0 0 0-4 0l-18 8a5 5 0 0 1-2 0l-1-1c2-1 0-2 0-3l1-3v-11c0-1-1-4 1-6-2-2 0-3 0-5a26 26 0 0 1 0-5v-5c0-1-1-3 1-4-3-1 0-2 0-4V65a4 4 0 0 0-1-1l-1 1a4 4 0 0 0-1 2v8l-1 9v13l-1 5v4a46 46 0 0 0 0 6 33 33 0 0 0 0 6c0 1-2 3 0 5 1 1-2 2 0 3l-3 3-9 3-21 8-2-1V99h1l-1-1v-2l1-1-1-1v-2h1l-1-1v-2h1V77h-3v1l-1 1 1 1v1l-1 1 1 1v2l-1 1 1 1v1c-2 1-2 2 0 3v1l-1 1 1 1v1c-2 0-1 2-1 3v44l-16 5c-5 2-10 5-16 6-2 0-3 0-2-1v-4c0-7 1-15-1-22v-16c0-2 1-3-1-5V94h-2l-1 3c2 2 0 4 1 6v14c0 2-1 4 1 6-2 2 1 4 0 6v22l1 2a4 4 0 0 1-1 3 57 57 0 0 1-7 2l-14 5a32 32 0 0 1-6 2l-1-1a45 45 0 0 0 0-5 27 27 0 0 1-1-4v-8c0-5 1-9-1-13 2-1-1-3 0-3 2-2-1-3 0-4v-11l-1-1v-2l-1-1-1 1-1 1 1 1v1l-1 1 1 1v12l1 1a2 2 0 0 1-1 2l1 3v14l1 2-1 1c2 4 1 9 1 13a3 3 0 0 1-2 2l-14 5a33 33 0 0 0-5 2c-1 1-3 0-4 2-2 0-2-2-2-3v-3h1l-1-1v-25l-1-1h-1l-1 1a37 37 0 0 0 0 4v21l1 2v5l-2 2Z" style="fill:#fefefe"/><path d="M89 188a27 27 0 0 0-8 3c-1-2-2-1-3-1v-1l10-2Z" style="fill:#dadada"/><path d="m89 188-1-1c0-2 2-1 2-1a11 11 0 0 1 6-2l1 1a5 5 0 0 0-4 2 5 5 0 0 0-4 1Z" style="fill:#ccc"/><path d="m97 185-1-1c0-2 3 0 3-2h4l-3 2a27 27 0 0 1-3 1Z" style="fill:#c1c1c1"/><path d="M78 190c1 0 2-1 3 1h-2l-2 1-1 1h-1a9 9 0 0 1 1-3h2Z" style="fill:#dfdfdf"/><path d="m109 179 2-2c2 0 2 0 1 2a4 4 0 0 0 0 1l-2 1v-1l1-1Z" style="fill:#b5b5b5"/><path d="M84 45v1l3 4 3 4 3 6 3 10c0 3-1 5 1 7-1 4 1 9 1 13a86 86 0 0 1 0 13l-1 8c0 3-2 5-1 8l-5 17c-1 6-4 12-7 18l-8 9-4 3h-2c-2 3-6 1-8 3l-4-1v-2a1 1 0 0 1 1-1l5-1 5-2 5-2c-2-1-4 0-5 1h-2c-1 1-3 0-4 2a4 4 0 0 0-1 0c-3 0-3 0-3-3v-6a18 18 0 0 1 0-3l1-1 10-2v-1h3l9-3a12 12 0 0 0 2-1h-2l-7 1c0 2-3 0-3 2h-2l-6 1c-3 2-4 1-4-2v-4a39 39 0 0 0 0-4 2 2 0 0 1 2-3 25 25 0 0 1 4-1l5-2a19 19 0 0 0 3 0l1-1h2l5-1c1-2 4 0 4-2a5 5 0 0 0 1 0 4 4 0 0 0 1 0 3 3 0 0 0-1-1 3 3 0 0 0-1 0l-10 2v1h-3l-2 1-6 1v1c-1 0-2-1-3 1l-2-2c2-3 1-6 1-9v-5l1-1 1-1 7-2c2-1 4 0 6-2h1l3-1h2l2-1 6-2 1-1-1-1c-2 2-5 1-7 3-1 0-3-1-3 1-1 0-3-1-3 1h-2l-5 1c-2 2-5 2-8 3V97h1l1-1h2l3-1 8-3c2-1 5-1 7-3l4-1a8 8 0 0 0 3-2 21 21 0 0 0-3 0l-2 1-3 1-14 5-1 1c-1 0-3-1-3 1h-1c-2 0-1-2-1-3a27 27 0 0 0 0-4c-1-4 0-7 3-9h1l12-6 8-4 1-2h-1l-9 5h-1l-7 4-5 3h-1V67c0-2 1-5 4-6 2-1 4-1 5-3 4-1 6-3 9-5a1 1 0 0 0 1-1 1 1 0 0 0 0-1 1 1 0 0 0-1 0c-3 3-7 4-10 6-2 1-4 1-5 3-2 1-2 1-2-1a15 15 0 0 0 0-2c-1-4 1-7 1-11l3-2h1l4-3 2-1h-2c-2 1-4 1-5 3h-1c-1-1-2 3-2 0v-8l-1-1v4a31 31 0 0 1-2 7l-3-2-3-3h-2a3 3 0 0 0 1 1l3 3 4 3 1 1c0 4 1 8-1 11v4l-3-2-3-2-4-3-2-1-4-4-1 1a1 1 0 0 0 0 1l4 3 2 1 4 3 5 4c2 0 2 1 2 2l-1 14h-1l-13-9-2-1-3-2-3-2h-1a1 1 0 0 0 0 1l3 2 3 2 2 1 14 10 1 1v6h-1l-1-2c-3 0-4-3-6-5l-2-1c-1-2-4 0-5-2l-4-4c-2-1-2-2-2-4a3 3 0 0 0-2-2 6 6 0 0 1-3-2 1 1 0 0 0-1 0l-1 1v13h5a43 43 0 0 1 8 1l1 3 2 1c2 1 5 0 6 2 1 3 3 3 5 3v6h-1l-9-5-15-8h-2l1 1a15 15 0 0 0 2 1l23 12 1 1v6l-1 1v10l-2-1h-1l-1-1-7-3-16-7a4 4 0 0 0-1-1v2l4 2c3 0 6 3 10 4a110 110 0 0 1 10 5h2l2 6-1 1v10l-2 1-5-2-9-4a3 3 0 0 0-1 0 15 15 0 0 0-5-2c0-2-3 0-4-2l-1 1a2 2 0 0 0 1 1l3 1 5 2a58 58 0 0 1 10 4l6 2c1 0 2 1 2 3l-1 1v8c0 3 0 3-2 3l-1-1-7-3-13-5-1 1 1 1 5 2 15 6c2 0 3 1 3 3a13 13 0 0 0-1 3v6c0 3 0 3-3 1h-1l-1-1-8-4h-2l1 2 9 4h2l3 2a3 3 0 0 1 0 1h-1c-2 0-4 1-5-1h-4a5 5 0 0 0-4-2l-4-3-5-5-4-7-1-2-2-6-1-1c1-2-1-4-1-7v-6h1a3 3 0 0 0 2-4 3 3 0 0 1 0-4l5-2c2 0 3 2 3 3a2 2 0 0 0 3 2 5 5 0 0 1 2 0c3 1 6 0 8 3s3 3 5 3a21 21 0 0 1 3 0l1-2-1-7c0-1-1-2-3-2-2 1-4-1-6-1-3 0-4-2-5-4h-1l-5-1-6-1a2 2 0 0 1-2-1 21 21 0 0 1-1-5c0-5 0-5 5-5a15 15 0 0 1 3 0c2 0 5 0 6 3a3 3 0 0 0 4 2l7 1a3 3 0 0 1 2 2h1c2-1 3-6 2-8a1 1 0 0 0-1-1 26 26 0 0 0-4 0 8 8 0 0 1-7-2c-2-2-4-4-7-3l-1-1-6-6-1-1-1-2-1 2-2 1 1-11a2 2 0 0 0 1 0 111 111 0 0 1 5-17l6-9c4-5 9-10 14-13l4-3 7-3h3l3 2 2 2a2 2 0 0 0 3 2Zm-28 93-1-2-2 1a27 27 0 0 1-4-1 21 21 0 0 0-3 0c-2 0-3-1-4-4s-2-3-4-2l-8 1-1 2 1 6a4 4 0 0 0 1 1 5 5 0 0 0 1-1c1-1 2-3 4-2 3 1 7 1 9 4l2 2h7l2-2v-3ZM40 60c0 1 0 2 2 2a9 9 0 0 1 7 4 4 4 0 0 0 4 2c2 0 3 1 4 3a2 2 0 0 0 2 1l1-2c-1-3-5-4-6-7a2 2 0 0 0-1-1c-4 0-6-3-9-5a3 3 0 0 0-3-1 2 2 0 0 0-1 2 6 6 0 0 1 0 2Zm14 96-2-1-6-2c0-4-3-3-6-3l-3-1h-1a1 1 0 0 0 0 2l2 2c0 2 1 3 3 3l7 1c2 2 4-1 5 0l1-1Zm5-102a17 17 0 0 0 3 0l1-2c-2 0-3-2-3-3 0-2-2-1-3-2-2 2-3-1-5-1l-1-2a18 18 0 0 1-1 2l-3 1a1 1 0 0 0 0 1l1 1c2 0 4 0 5 2 2 3 4 3 6 3Z" style="fill:#fefefe"/><path d="M63 163c1-2 3-1 4-2h2c1-1 3-2 5-1l-5 2-5 2Z" style="fill:#bfbfbf"/><path d="M56 150c2 0 2 0 2-3h1l1 3-1 1a18 18 0 0 0 0 3h-1c0-2-1-3-3-3Z" style="fill:#b5b5b5"/><path d="M54 165h-2l1-1h1Z" style="fill:#b0b0b0"/><path d="m27 87 2-1 1-2 1 2 1 1 6 6 1 1c3-1 5 1 7 3a8 8 0 0 0 7 2 26 26 0 0 1 4 0 1 1 0 0 1 1 1l-2 8h-1a3 3 0 0 0-3-2l-7-1a3 3 0 0 1-3-2c-2-3-4-3-6-3a15 15 0 0 0-3 0c-5 0-5 0-5 5a21 21 0 0 0 1 5 2 2 0 0 0 2 1l6 1 5 1h1c0 2 2 4 4 4l7 1c2 0 2 1 3 2l1 7-1 2a21 21 0 0 0-3 0c-2 0-4 0-6-3s-4-2-7-3a5 5 0 0 0-2 0 2 2 0 0 1-3-2c-1-2-2-3-4-3l-4 2a3 3 0 0 0-1 4 3 3 0 0 1-1 4h-1c0-4-2-9-1-13l1-16 1-12h1Z" style="fill:#fefefe"/><path d="m76 193 1-1Z" style="fill:#aeaeae"/><path d="M211 114v2l-1 1v6l1 1v1l-1 1v15h2a6 6 0 0 0 1-1l21-8 9-3 3-3c-2-1 1-2 0-3-2-2 0-4 0-5a33 33 0 0 1 0-6 46 46 0 0 1 0-6v-4l1-5V84l1-9v-8a4 4 0 0 1 1-2l1-1a4 4 0 0 1 1 1v14c0 2-3 3 0 4-2 1-1 3-1 4v5a26 26 0 0 0 0 5c0 2-2 3 0 5-2 2-1 4-1 6v11l-1 3c0 1 2 2 0 3l1 1a5 5 0 0 0 2 0l18-8a10 10 0 0 1 4 0c1 0 2-1 3 1l-16 6-5 2c-2 1-3 2-1 4l2 2c2 0 1 2 2 2 3 0 2 4 5 4 1 3 4 4 5 6l6 5a52 52 0 0 1 5 5c2 3 4 6 7 7v2l2 2 2 1v1l2 2 1 1 1 1 1 1v1h-2l-1-1-1-1-1-1-1-1-1-1-1-1-1-1-3-3c-1-1-1-3-3-2 0-3-4-2-3-5l-4-4-5-4-4-4-3-4c-1-1-3-2-3-4l-4-2c0-2-2-3-3-4s-3-2-4-1l-13 5-10 3a42 42 0 0 1-7 3c-2 0-2 1-1 3l12 13 1 2h-1a3 3 0 0 1-1 0l-9-9-6-7-2 1-11 4-13 5-7 2 4 7 7 7 5 7 10 13 10 12a3 3 0 0 0 1 1v1c-2 1-2 1-3-1l-7-7-16-21-4-4c-2-1-1-3-3-3l-3-5-4-4c-1-1-2-2-3 0l-23 8c-2 0-3 2-1 3l4 6c1 2 4 3 4 5l3 4a29 29 0 0 1 2 3l6 6c1 2 4 4 4 6l7 8 1 1a7 7 0 0 1-1 2h-2l-10-13-7-9-7-8-7-9c-2-3-2-3-6-1l-17 6h-4c0 1-2 0-2 2l-1 2-1-2v-1c1-2 3-2 4-2a33 33 0 0 1 5-2l14-5a3 3 0 0 0 2-3c-1-4 1-8-1-12l1-1v-15a4 4 0 0 1 1 1v7l1 2v8a27 27 0 0 0 1 4 45 45 0 0 1 0 4l1 2a32 32 0 0 0 6-2l14-5a57 57 0 0 0 6-3 4 4 0 0 0 2-2l-1-2v-22c1-2-2-4-1-7v-19l-1-6 1-3h2v11l1 5v16l1 22v3c-1 1 0 2 2 2l16-6 16-5c2-1 1-2 1-3V94l2-1v2h-1l1 1v1l-1 1v1l1 1v1h-1l1 2v2h-1v8l1 1Z" style="fill:#adadad"/><path d="M340 95c-2 2-5 2-7 3l-5 2-6 2-1 1 8 7a65 65 0 0 1 8 6 105 105 0 0 0 11 8 30 30 0 0 1 4 3l2 2a11 11 0 0 1 0 2h-2l-7-5-6-5-5-4-5-4v-1c-5-1-8-6-12-8h-2c-2 3-5 2-7 3l-8 3-5 2c-1-2-2-1-3-1 1-2 4-2 6-3a81 81 0 0 1 11-4c3-1 3-3 4-5l1-7c0-2 0-5 2-7v-2a12 12 0 0 1 1-5l2-11c1-3 0-6 2-8a1 1 0 0 1 1-1 1 1 0 0 1 1 1 22 22 0 0 1-1 7c-2 5-1 10-3 14 1 5-3 9-2 15l-1 3-1 3 4-1a81 81 0 0 1 10-4 36 36 0 0 1 6-1l3-1 2 1Z" style="fill:#b0b0b0"/><path d="m340 95-2-1-3 1c1-2 4-2 6-3a10 10 0 0 0 5-3 5 5 0 0 0 1-2l1-6c1-3 0-5 2-7-1-2 0-4 1-6 0-2 1-1 2-1l1 2-1 2a90 90 0 0 1-3 14 8 8 0 0 0 0 2c0 3 0 1 1 1l14-5c2-1 4-3 6-2 2 0 2 1 2 2a2 2 0 0 1-1 1l-15 5-2 1-1 1a1 1 0 0 0 0 1 59 59 0 0 1 11 8l5 4a2 2 0 0 1 1 1 4 4 0 0 1-2 1 2 2 0 0 1-1-1l-6-5-6-4-6-4h-1c-3 1-6 4-9 3Zm3-2a9 9 0 0 0-2 0v1a7 7 0 0 0 1 0l1-1Z" style="fill:#b1b1b1"/><path d="M292 111c1 0 2-1 3 1l-8 3c-2 0-2 1-1 3l2 2h-1a7 7 0 0 0-2 0c-4-2-4-2-9-1-1-2-2-1-3-1l4-3 1-5a6 6 0 0 0 1-3l1-8 1-5a12 12 0 0 0 1-4l1-4 1-8c1-3 0-5 2-7v-1l2-10 1-2c1 0 2 2 1 3a31 31 0 0 0-1 7l-2 9a45 45 0 0 1-1 7l-3 14-2 14c0 2 1 2 2 2l6-3a12 12 0 0 1 3 0Z" style="fill:#afafaf"/><path d="M285 120a7 7 0 0 1 2 0h1l6 3 17 14c3 1 4 4 7 6l9 7a4 4 0 0 1 2 1 2 2 0 0 1-1 2 2 2 0 0 1-1 0 7 7 0 0 1-3-1 87 87 0 0 0-14-11c0-3-3-2-4-3l-4-4-4-4-5-4-7-4a9 9 0 0 1-1-2ZM227 159a3 3 0 0 0 1 0h3v2l13 13 5 6 5 6c0 1 3 1 2 3l1 2h-2l-1-1a16 16 0 0 1-5-5l-4-5a24 24 0 0 0-4-4l-13-15a3 3 0 0 1-1-2Z" style="fill:#b2b2b2"/><path d="m115 177 1 1v2l1-2c0-2 2-1 3-2h3l-4 2-1 2 8 9c0 1 0 2-2 2l-8-10-4-1a4 4 0 0 1 0-1c1-2 1-2-1-2v-25l-1-2v-1l1-1a37 37 0 0 0 0-4h1v12l1 1v1a5 5 0 0 0 0 6v1c-2 1-2 2 0 3v2h-1l1 1v3c0 1 0 2 2 3Z" style="fill:#aeaeae"/><path d="m142 147-1-1v-8a4 4 0 0 0-1-1v15l-1-2v-14l-1-3a2 2 0 0 0 1-2v-7l-1-1v-1l1-1-1-1v-7h2v13l1 1c-1 1 2 2 0 4-1 0 2 2 0 3 2 4 1 8 1 13Z" style="fill:#b4b4b4"/><path d="M124 191c2 0 2-1 2-2 2 0 2 3 3 4l4 4 4 4a3 3 0 0 1 1 3 1 1 0 0 1-3 1l-3-4c-2-1 0-3-2-3l-3-4-3-3Z" style="fill:#b8b8b8"/><path d="M209 95v44c0 1 1 3-1 3V98c0-1-1-3 1-3Z" style="fill:#bcbcbc"/><path d="m211 93-2 1V77c1 0 2-1 2 1v15Z" style="fill:#b2b2b2"/><path d="m110 150 1 2v20l-1-2v-20Z" style="fill:#b5b5b5"/><path d="M213 140a6 6 0 0 1-1 1h-2v-15l1-1v14l2 1Z" style="fill:#b2b2b2"/><path d="M211 89V78c0-2-1-1-2-1h3v12h-1Z" style="fill:#bcbcbc"/><path d="m113 157-1-1v-12l1 1v12Z" style="fill:#b5b5b5"/><path d="m141 127-1-1v-11l1 1v11Z" style="fill:#b9b9b9"/><path d="M211 114h-1v-9h1ZM211 124l-1-1v-6l1-1Z" style="fill:#b2b2b2"/><path d="m138 123 1 1v7l-1-1v-7Z" style="fill:#b9b9b9"/><path d="M113 164a5 5 0 0 1 0-6ZM111 144a37 37 0 0 1 0 4l-1 1a37 37 0 0 1 0-4l1-1ZM111 173v3-3Z" style="fill:#b5b5b5"/><path d="m292 170-2-2c1 0 2 0 2 2Z" style="fill:#bdbdbd"/><path d="M113 168v-3Z" style="fill:#b5b5b5"/><path d="M138 116v2l-1-1Z" style="fill:#b9b9b9"/><path d="m288 166-2-2c1 0 2 0 2 2Z" style="fill:#bdbdbd"/><path d="m257 191-1-2s2-1 2 1l-1 1Z" style="fill:#c7c7c7"/><path d="M209 88v3c-2-1-2-2 0-3ZM209 78v2l-1-1Z" style="fill:#bcbcbc"/><path d="M138 113v2l-1-1Z" style="fill:#b9b9b9"/><path d="M209 81v2l-1-1ZM209 85v2l-1-1Z" style="fill:#bcbcbc"/><path d="M255 191h2l-1 1Z" style="fill:#c7c7c7"/><path d="M209 92v2l-1-1ZM211 95v-1l1 1-1 1Z" style="fill:#bcbcbc"/><path d="m290 167-2-1c1 0 2-1 2 1Z" style="fill:#bdbdbd"/><path d="M140 113h-2l1-1ZM138 120l1 1-1 1Z" style="fill:#b9b9b9"/><path d="m113 171-1-1h1l1 1Z" style="fill:#b5b5b5"/><path d="m211 103-1-1 1-1ZM210 99v-1h1l1 1h-1Z" style="fill:#bcbcbc"/><path d="M293 174h2l-1 1ZM292 173l1 1Z" style="fill:#bdbdbd"/><path d="M211 98h-1l1-1Z" style="fill:#b2b2b2"/><path d="m291 172 1 1Z" style="fill:#bdbdbd"/><path d="M210 99h1v1Z" style="fill:#b2b2b2"/><path d="m294 172-1-1ZM290 171l1 1ZM293 171l-1-1ZM289 170l1 1ZM288 169l1 1ZM286 167l1 1Z" style="fill:#bdbdbd"/><path d="m254 190 1 1Z" style="fill:#c7c7c7"/><path d="M211 92v-1l1 1Z" style="fill:#bcbcbc"/><path d="m295 173-1-1Z" style="fill:#bdbdbd"/><path d="M61 91c-2 0-4 0-5-3-1-2-4-2-6-2l-2-1-2-3a43 43 0 0 0-7-1l-5-1V68l1-1a1 1 0 0 1 1 0 6 6 0 0 0 3 2 3 3 0 0 1 2 2c0 2 0 3 2 4l4 4c1 2 4 0 5 2l2 1c2 2 3 4 6 5l1 2ZM56 138v3l-2 2h-7l-2-2c-2-3-6-3-9-4-2-1-3 1-4 2a5 5 0 0 1-1 1 4 4 0 0 1-1-1l-1-6c0-1 0-2 2-2l7-1c2-1 3 0 4 2s2 4 4 4a21 21 0 0 1 3 0 27 27 0 0 0 4 1l2-1ZM40 60a6 6 0 0 0 0-2 2 2 0 0 1 1-2 3 3 0 0 1 3 1c3 2 5 5 9 5a2 2 0 0 1 1 1c1 3 5 4 6 7l-1 2a2 2 0 0 1-2-1c-1-2-2-3-4-3a4 4 0 0 1-4-2 9 9 0 0 0-7-4c-2 0-2-1-2-2ZM54 156v1c-2-1-4 2-6 0l-7-1c-2 0-3-1-3-3l-2-2a1 1 0 0 1 0-2h1l4 1c2 0 5-1 5 3l6 2 2 1Z" style="fill:#fefefe"/><path d="M66 46c0 4-2 7-1 11a15 15 0 0 1 0 2c0 2 0 2 2 1l1 1c-3 1-4 3-4 6v12l-1 1a7 7 0 0 1-1 1v-1l1-14c0-1 0-2-2-2l-5-4 1-1 3 2 3 2v-4c2-3 1-7 1-11l-1-1v-1a8 8 0 0 0 2-1l1 1Z" style="fill:#bbb"/><path d="M59 54c-2 0-4 0-6-3-1-2-3-2-5-2l-1-1a1 1 0 0 1 0-1l3-1a18 18 0 0 0 1-2l1 2c2 0 3 3 5 1 1 1 3 0 3 2 0 1 1 3 3 3l-1 2a17 17 0 0 1-3 0Z" style="fill:#fefefe"/><path d="M66 133a25 25 0 0 0-4 1 2 2 0 0 0-2 3 39 39 0 0 1 0 4c-2-1-1-2-1-3 0-2-1-3-2-3l-6-2 1-1 5 2 2-1v-10l1-1h1c-1 3 1 6-1 9l2 2c1-2 2-1 3-1Z" style="fill:#bcbcbc"/><path d="M56 116a110 110 0 0 0-10-5c-4-1-7-4-11-4l-3-2v-2a4 4 0 0 1 1 0l16 8 7 3 1 1Z" style="fill:silver"/><path d="M60 98 36 86a15 15 0 0 1-1-1l-1-1h2l15 8c3 2 6 2 9 5Z" style="fill:#bdbdbd"/><path d="m56 150-1 1-15-6-6-2v-2h1l13 5 7 3 1 1ZM59 138c0 1-1 2 1 3v4c0 3 1 4 4 2l6-1v2l-10 2-1-3c0-1 1-3-1-3v-5l1-1ZM62 80v1l-1 1-14-10 1-1 12 9h2Z" style="fill:silver"/><path d="m68 94 1-1 14-5 1 1c-2 2-5 2-7 3l-8 3Z" style="fill:#bfbfbf"/><path d="M62 114c3-1 6-1 8-3l5-1 1 1c-2 2-4 2-6 2l-7 2h-1l-1-1Z" style="fill:#bdbdbd"/><path d="m66 46-1-1a8 8 0 0 1-2 1v-1a31 31 0 0 0 2-7v-4l1 1v8c0 3 1-1 2 0l1 1Z" style="fill:#bebebe"/><path d="M65 79c1-2 3-2 5-3s5-2 6-4h2l1 1-12 6h-1Z" style="fill:#bdbdbd"/><path d="m53 164-1 1-9-4-1-2h2l8 4 1 1Z" style="fill:#c5c5c5"/><path d="M72 57c3-2 7-3 10-6a1 1 0 0 1 1 0 1 1 0 0 1 0 1 1 1 0 0 1-1 1c-3 1-5 4-9 5Z" style="fill:#bfbfbf"/><path d="M72 146c0-2 3 0 3-2l7-1h2a12 12 0 0 1-2 1l-9 3ZM79 73l-1-1c2-3 6-3 9-5h1l-1 2-8 4Z" style="fill:#c4c4c4"/><path d="M65 79h1c-3 2-4 5-3 9a27 27 0 0 1 0 4c-2-1-1-2-1-3v-6l-1-1 1-1a7 7 0 0 0 1-1l1-1Z" style="fill:#b5b5b5"/><path d="m52 132-1 1a58 58 0 0 0-10-4l1-1a3 3 0 0 1 1 0l9 3v1Z" style="fill:#bdbdbd"/><path d="M86 127c-1 2-3 0-4 2l-5 1-1-1v-1l10-2Z" style="fill:#bbb"/><path d="M62 114h-1l-1-1v-7l1-1c0 1-1 2 1 2Z" style="fill:#c8c8c8"/><path d="M62 89c0 1-1 2 1 3 0 1-1 2 1 3v1l-1 1v-1l-1 1h-1v-8Z" style="fill:#c6c6c6"/><path d="m60 113 1 1 1 1v1l-1 1v5h-1l-2-6v-1l2 1v-3Z" style="fill:#b7b7b7"/><path d="M83 108c2-2 5-1 7-3h1l-1 2-6 2Z" style="fill:#c7c7c7"/><path d="m84 89-1-1 3-1 1-1a21 21 0 0 1 4 0 8 8 0 0 1-3 2l-4 1Z" style="fill:#bcbcbc"/><path d="M61 97h1v10c-2 0-1-1-1-2v-6l-1-1v-1Z" style="fill:#afafaf"/><path d="m72 57 1 1c-1 2-3 2-5 3l-1-1c1-2 3-2 5-3Z" style="fill:#c6c6c6"/><path d="m50 56-5-3a1 1 0 0 1 1-1l1-1 4 4Z" style="fill:#c8c8c8"/><path d="m66 133-1-1v-1l6-1v1l-5 2Z" style="fill:#c2c2c2"/><path d="M69 43c1-2 3-2 5-3h2l-2 1-4 3Z" style="fill:#bfbfbf"/><path d="m42 128-1 1-5-2 1-1a15 15 0 0 1 5 2Z" style="fill:#c4c4c4"/><path d="m57 59-1 1-4-3 1-1Z" style="fill:#c6c6c6"/><path d="m59 44-3-3a3 3 0 0 1-1-1h2l3 3Z" style="fill:#c3c3c3"/><path d="m37 126-1 1c-1-1-2-2-4-1a2 2 0 0 1 0-1l1-1c1 1 3 0 4 2Z" style="fill:#c5c5c5"/><path d="m59 44 1-1 3 2v2Z" style="fill:#bebebe"/><path d="M71 131v-1l2-1h2v1l-1 1a19 19 0 0 1-3 0Z" style="fill:#b4b4b4"/><path d="m83 108 1 1-2 1h-2v-1c0-2 2-1 3-1Z" style="fill:#b6b6b6"/><ellipse cx="43.9" cy="69.4" rx="1" ry="2.6" style="fill:#c2c2c2" transform="rotate(-58 44 69)"/><path d="m43 68-1 1-3-2a1 1 0 0 1 0-1h1l3 2Z" style="fill:#c3c3c3"/><path d="M80 109v1l-3 1v-1c0-2 2-1 3-1Z" style="fill:#b6b6b6"/><path d="m68 94 1 1-3 1-1-1c0-2 2-1 3-1Z" style="fill:#b2b2b2"/><path d="m53 56-1 1-2-1 1-1Z" style="fill:#b7b7b7"/><path d="m45 71 1-1 2 1-1 1-2-1Z" style="fill:#b8b8b8"/><path d="M58 144c2 0 1 2 1 3h-1Z" style="fill:#bcbcbc"/><path d="m72 146 1 1h-3v-1Z" style="fill:#b8b8b8"/><path d="m65 95 1 1h-2v-1Z" style="fill:#b2b2b2"/><path d="M77 110v1h-1l-1-1Z" style="fill:#b5b5b5"/><path d="M86 127v-1a3 3 0 0 1 1 0 3 3 0 0 1 1 1 4 4 0 0 1-1 0 5 5 0 0 1-1 0Z" style="fill:#adadad"/><path d="m69 43 1 1h-1l-1-1Z" style="fill:#b4b4b4"/><path d="M75 130v-1h1l1 1Z" style="fill:#b2b2b2"/><path d="M58 115v1h-2l1-1Z" style="fill:#b0b0b0"/><path d="m62 97 1-1v1Z" style="fill:#afafaf"/><path d="M62 116v-1h1Z" style="fill:#c8c8c8"/><path d="M211 95v1l-1-1Z" style="fill:#b2b2b2"/><path d="m343 93-1 1a7 7 0 0 1-1 0v-1a9 9 0 0 1 2 0Z" style="fill:#a8a8a8"/></svg>