<svg width="386" height="240" viewBox="0 0 386 240" fill="none" xmlns="http://www.w3.org/2000/svg">
<path d="M333.115 22.7079C338.465 24.4925 344.001 25.9788 349.365 27.6067C359 30.7563 371.956 37.0754 380.723 42.6715C383.541 44.5267 383.697 44.5419 383.297 47.0339C381.455 59.509 382.755 72.1309 378.286 84.0348C377.448 86.1679 377.986 88.7509 377.445 91.071C376.92 93.2345 376.097 95.2109 375.258 97.3439C373.521 102.237 372.097 107.16 370.062 111.866C363.848 125.499 355.128 137.306 344.215 147.319C336.764 154.189 329.469 161.073 321.014 166.896C313.059 172.45 305.527 178.521 297.305 183.575C284.059 191.622 270.279 198.668 255.839 204.384C246.644 208.079 237.576 212.102 227.862 214.639C218.164 217.019 208.657 220.684 198.451 220.168C195.489 223.044 191.558 219.657 188.889 221.138C185.394 223.013 182.389 221.456 179.076 221.451C175.45 221.415 171.729 220.738 168.134 220.389C161.569 219.752 155.842 216.981 150.13 214.054C143.37 210.551 138.668 205.349 134.026 199.521C129.526 193.864 129.511 194.021 122.611 196.831C120.713 200.127 116.76 200.218 114.187 202.341C113.047 202.705 112.049 203.24 110.909 203.604C108.24 205.085 105.854 206.91 103.045 208.219C100.407 209.386 99.8839 206.647 98.3056 206.652C98.4576 205.085 97.0922 202.896 99.9667 202.542C104.285 198.691 110.221 197.685 114.948 194.506C116.617 193.561 118.272 192.772 119.941 191.827C126.368 187.389 126.196 187.531 123.083 180.585C121.008 175.955 119.589 171.072 118.341 166.047C117.425 162.479 116.852 158.627 117.358 155.038C117.921 149.24 118.156 143.569 120.14 137.751C122.388 130.851 125.059 124.467 128.652 118.331C133.008 110.845 137.661 103.546 144.053 97.8391C153.891 89.1452 163.9 80.3099 175.29 73.5066C179.814 70.7823 183.336 67.0116 187.674 64.5855C199.971 58.1866 211.17 50.0995 224.016 44.5448C233.897 40.2841 243.133 34.5372 253.266 30.9335C263.398 27.3299 273.813 24.07 284.605 21.7959C294.43 19.744 304.228 19.5878 314.182 19.4467C320.621 19.7553 326.858 20.5189 333.115 22.7079ZM310.805 24.9715C301.492 25.0165 292.006 25.2031 282.666 27.1438C272.514 29.3219 262.584 32.4706 252.779 35.9479C243.131 39.4403 234.253 44.7475 224.856 48.897C212.666 54.199 201.966 62.0183 190.34 68.0077C186.017 70.2771 182.667 73.9063 178.47 76.5043C167.58 83.0397 158.1 91.2937 148.762 99.7197C142.713 105.143 138.09 112.129 134.078 119.332C130.671 125.17 128.03 131.24 125.97 137.842C124.172 143.362 123.952 148.876 123.42 154.361C123.085 157.808 123.673 161.503 124.448 164.9C125.57 169.596 127.005 174.323 128.939 178.781L133.005 185.661C134.099 185.767 135.193 185.873 135.219 183.978C135.15 181.44 134.768 178.872 134.386 176.304C133.162 174.287 133.062 172.063 133.431 169.885C133.477 169.415 133.538 168.788 133.583 168.318C133.175 167.645 132.283 167.084 132.203 166.286C132.183 164.86 132.492 163.308 132.629 161.898C130.299 161.514 131.561 159.896 131.37 158.612C131.415 158.142 131.476 157.515 131.522 157.045C128.815 155.675 130.076 154.058 131.181 152.425C131.353 152.284 132.462 152.233 132.447 152.39C132.825 153.376 133.031 154.503 133.237 155.63C133.191 156.1 133.131 156.727 133.085 157.197C135.414 157.581 134.153 159.199 134.344 160.483C134.554 163.192 134.936 165.76 135.147 168.469C135.555 169.142 136.447 169.703 136.527 170.501C136.547 171.927 136.238 173.479 136.101 174.889C136.555 175.091 137.165 175.309 137.306 175.481C138.016 177.922 138.554 180.505 139.264 182.947C141.605 181.592 143.789 180.222 146.129 178.868C146.301 178.726 146.598 178.913 146.911 178.943C147.425 178.519 148.111 177.953 148.626 177.528C149.095 177.574 149.72 177.634 150.189 177.68C151.39 176.689 152.419 175.84 153.62 174.849C154.759 174.486 155.758 173.95 156.898 173.586C158.255 172.61 159.44 171.776 160.641 170.786C161.156 170.361 161.529 169.765 161.887 169.325C162.333 166.363 162.465 163.37 161.161 160.555C159.055 156.238 158.573 151.446 157.764 146.78C157.81 146.31 157.87 145.683 157.916 145.213C157.603 145.183 157.134 145.137 157.134 145.137C156.077 141.397 154.083 137.565 154.589 133.976C155.171 129.604 151.522 126.561 152.23 122.517C152.165 121.562 152.443 120.323 151.878 119.636C151.188 118.62 150.921 118.119 152.091 117.442C152.59 117.174 153.246 116.921 153.745 116.653C153.81 117.609 153.876 118.564 153.941 119.52C154.394 119.722 155.161 119.954 155.13 120.268C156.05 125.419 156.159 130.807 158.516 135.781C159.443 137.611 159.2 140.118 159.627 142.216C159.581 142.686 159.521 143.313 159.475 143.783C159.898 144.298 160.806 144.703 160.916 145.188C160.983 152.629 163.314 159.498 165.161 166.479C166.115 166.413 167.506 166.707 168.021 166.282C169.953 164.255 172.671 163.886 174.997 162.689C175.542 161.951 176.117 160.899 176.944 160.505C180.768 158.503 184.591 156.502 188.414 154.5C189.409 152.382 191.936 150.73 189.693 147.823C189.003 146.807 189.498 144.957 189.479 143.531C187.149 143.147 188.411 141.53 188.22 140.246C188.326 139.149 188.418 138.209 188.524 137.112C188.101 136.596 187.536 135.909 187.113 135.393C187.159 134.923 187.219 134.296 187.265 133.826C187.311 133.356 187.372 132.729 187.417 132.259C185.088 131.875 186.349 130.257 186.158 128.973C186.204 128.503 186.265 127.877 186.31 127.406C185.887 126.891 184.98 126.486 184.869 126.001C184.151 120.395 182.933 115.057 181.731 109.563C181.666 108.607 181.601 107.652 181.535 106.697C181.329 105.57 181.138 104.286 180.776 103.143C180.822 102.673 180.882 102.046 180.928 101.576C178.049 100.348 180.774 96.6579 178.395 95.1615C178.768 94.5651 179.172 93.6553 179.656 93.5441C180.297 93.4481 181.502 94.0395 181.471 94.3529C181.541 96.8904 183.546 98.9832 182.506 101.571C185.4 102.643 183.14 104.796 183.613 106.424C186.789 107.839 183.687 110.544 184.926 112.404C187.688 116.468 186.888 121.452 188.041 125.835C187.995 126.305 187.934 126.931 187.889 127.402C190.218 127.786 188.957 129.403 189.148 130.687C189.102 131.157 189.041 131.784 188.996 132.254C189.449 132.456 190.059 132.674 190.2 132.846C190.537 135.884 190.873 138.922 191.209 141.959C193.539 142.344 192.277 143.961 192.468 145.245C192.919 150.351 193.968 150.927 198.417 148.986C201.469 145.17 205.998 144.028 210.119 142.213C210.664 141.475 211.239 140.424 212.067 140.029C215.89 138.028 219.713 136.026 223.537 134.025C222.853 129.688 222.311 125.523 221.627 121.186C221.734 120.089 221.825 119.149 221.931 118.052C221.523 117.379 220.631 116.818 220.551 116.02C220.531 114.594 220.84 113.042 220.977 111.632C220.176 110.131 218.843 102.725 218.915 100.36C218.461 100.157 217.695 99.9249 217.725 99.6115C217.502 92.1557 215.67 85.0182 214.791 77.8151C214.837 77.345 214.898 76.7182 214.944 76.2481C212.61 74.2817 213.604 72.1638 214.755 70.061C214.927 69.9195 216.49 70.0712 216.616 70.3998C217.009 71.2288 216.746 72.3105 216.811 73.2659C216.765 73.736 216.704 74.3628 216.659 74.8329C217.113 75.0351 217.879 75.2676 217.848 75.581C218.072 83.0369 219.903 90.1743 220.782 97.3775C220.676 98.4743 220.584 99.4145 220.478 100.511C221.279 102.013 222.611 109.418 222.54 111.784C222.857 113.396 223.33 115.024 223.647 116.636C223.54 117.733 223.449 118.673 223.342 119.77C223.796 119.973 224.562 120.205 224.547 120.362C224.445 123.041 225.14 125.639 225.521 128.207C225.888 130.931 225.923 132.2 228.949 130.28C230.291 129.461 232.056 129.158 233.539 128.511C233.913 127.914 234.301 127.161 234.816 126.736C241.151 123.239 247.33 119.726 253.666 116.228C257.68 115.511 258.201 111.765 257.164 109.45C256 106.806 256.838 104.673 256.598 102.277C253.704 101.205 255.964 99.0522 255.491 97.4245C255.597 96.3276 255.688 95.3874 255.795 94.2905C254.994 92.7892 253.661 85.3839 253.733 83.0182C253.84 81.9214 253.931 80.9812 254.037 79.8843C253.584 79.6821 252.817 79.4495 252.848 79.1361C252.396 74.0307 252.102 68.9405 251.01 63.9312C250.25 60.3776 250.459 56.6017 250.511 52.8106C250.557 52.3405 251.727 51.6632 252.398 51.2538C252.821 51.7694 253.557 52.3154 253.512 52.7855C253.898 56.9355 253.472 61.323 254.67 65.2355C255.38 67.677 254.214 69.9364 254.969 71.9078C255.709 74.0359 256.293 76.1489 255.753 78.469C255.707 78.9391 255.646 79.5659 255.6 80.036C256.054 80.2382 256.821 80.4708 256.805 80.6275C256.768 84.2619 256.746 87.7396 257.662 91.3083C257.556 92.4052 257.464 93.3454 257.358 94.4423C260.252 95.514 257.992 97.6673 258.465 99.2949C258.145 102.586 260.232 105.477 259.257 109.02C258.761 110.87 261.045 111.725 262.871 110.795C268.132 108.616 272.435 104.922 277.711 102.586C285.625 99.0838 285.358 98.5834 286.179 90.1217C286.453 87.3011 286.742 84.3239 287.015 81.5033C286.607 80.831 285.73 80.1132 285.635 79.4712C285.676 77.4189 286.015 75.5537 286.213 73.5167C286.319 72.4198 286.41 71.4796 286.517 70.3827C286.715 68.3456 286.927 66.1519 287.125 64.1148C286.702 63.5992 285.794 63.1947 285.684 62.7095C285.725 60.6572 286.251 58.4938 286.136 56.4264C286.123 51.6799 288.485 46.8476 286.113 42.0303C285.846 41.5299 287.561 40.1146 288.278 39.2351C288.529 39.8922 288.938 40.5645 289.189 41.2217C290.967 45.6649 289.886 50.3052 289.46 54.6927C289.156 57.8267 288.851 60.9607 288.547 64.0946C288.955 64.7669 289.832 65.4848 289.928 66.1267C289.795 69.1192 289.35 72.0812 289.046 75.2152C288.787 77.8791 288.544 80.3862 288.285 83.0501C288.693 83.7224 289.57 84.4403 289.666 85.0822C289.579 87.6046 289.179 90.0965 288.936 92.6037C289.318 95.1716 290.503 94.3376 292.142 93.7058C299.275 90.1273 305.434 85.1891 312.833 82.111C314.816 81.1962 317.797 79.7456 317.334 76.3791C317.684 72.775 318.049 69.0143 318.399 65.4102C316.069 65.0259 317.331 63.4085 317.14 62.1245C317.338 60.0874 317.551 57.8937 317.748 55.8566C318.053 52.7226 318.357 49.5887 318.661 46.4547C318.348 46.4244 317.879 46.3788 317.879 46.3788C318.118 42.2895 318.186 38.3417 318.581 34.2676C318.597 34.1109 320.331 34.1211 321.441 34.0706C321.395 34.5407 321.334 35.1675 321.289 35.6375C320.939 39.2416 320.574 43.0024 320.224 46.6064C320.632 47.2787 321.509 47.9966 321.605 48.6385C321.563 50.6908 321.224 52.556 321.027 54.593C319.218 61.8517 321.801 69.3784 320.461 76.6825C326.846 74.2969 332.304 70.0815 338.296 66.8669C340.637 65.5123 342.962 64.3144 345.429 63.2884C348.047 60.6954 347.444 57.157 347.904 54.0382C348.208 50.9043 348.513 47.7703 348.817 44.6363C349.045 42.2859 349.273 39.9354 349.486 37.7416C349.501 37.5849 350.157 37.3322 350.485 37.2059C350.595 37.6911 350.706 38.1764 350.832 38.5049C351.24 39.1773 352.117 39.8951 352.197 40.6937C351.897 45.4099 351.3 49.9389 350.844 54.6399C350.388 59.3408 350.388 59.3408 354.993 57.4152C355.648 57.1624 356.319 56.753 356.975 56.5003C360.245 52.0725 366.104 51.8503 369.923 48.2666C370.095 48.1251 371.3 48.7166 371.738 49.0755C372.036 49.2625 371.945 50.2027 371.758 50.5009C371.057 51.2238 370.34 52.1032 369.513 52.4975C365.861 54.3575 362.209 56.2175 358.401 58.0623C357.886 58.4869 357.513 59.0834 356.998 59.5079C356.655 59.791 356.03 59.7303 355.561 59.6848C355.828 60.1852 355.939 60.6705 356.377 61.0294C357.567 61.7776 358.943 62.2275 360.289 62.9908C364.453 65.6094 369.566 66.5802 372.968 70.5483C373.406 70.9073 373.673 71.4077 374.112 71.7666C373.628 71.8778 373.128 72.1457 372.816 72.1153C372.332 72.2265 371.878 72.0243 371.253 71.9636C366.322 69.1125 360.786 67.6261 356.073 64.1634C355.337 63.6174 354.041 63.9661 353.103 63.8751C352.847 61.6358 351.723 61.843 350.225 62.6467C349.054 63.324 347.869 64.1579 346.699 64.8352C340.912 69.177 334.592 72.518 327.975 75.6719C327.475 75.9398 326.789 76.5059 326.728 77.1327C326.683 77.6028 327.217 78.6036 327.671 78.8059C334.225 81.1819 339.986 85.2209 345.98 88.4917C348.966 88.6232 350.628 90.9991 353.023 92.3387C355.715 93.8654 358.765 94.9523 361.457 96.479C361.911 96.6812 362.415 97.9954 362.399 98.1521C361.713 98.7182 360.684 99.5674 360.23 99.3652C357.493 98.3086 355.113 96.8123 352.391 95.599C349.371 94.1987 346.523 92.6569 344.406 90.0788C338.119 88.2032 332.468 84.6494 326.772 81.5657C324.221 80.2109 322.108 79.215 319.894 80.8982C314.95 84.6891 309.19 87.1353 303.712 89.9253C300.888 91.3911 298.174 93.3421 295.46 95.2932C294.274 96.1272 294.324 97.2392 295.968 98.1896C297.924 99.1703 299.476 101.061 301.462 101.728C307.593 103.589 312.947 106.955 318.3 110.322C323.654 113.689 329.598 115.848 334.78 119.356C336.862 120.665 338.787 121.959 340.683 123.567C340.965 123.91 340.702 124.992 340.798 125.634C340.188 125.417 339.734 125.215 339.109 125.154C333.9 123.541 330.03 119.527 325.195 117.318C314.931 112.526 305.257 106.525 295.21 101.121C292.815 99.7817 290.455 99.7108 288.156 99.0132C285.972 100.383 283.929 101.925 281.604 103.122C275.752 106.509 269.211 108.879 264.599 114.126C266.681 115.435 268.793 116.431 270.704 117.882C280.538 125.48 290.372 133.078 300.752 139.937C304.603 142.526 307.909 145.852 311.745 148.597C312.779 149.33 313.389 149.547 312.203 150.381C311.532 150.791 310.564 151.013 309.954 150.796C308.89 150.376 307.857 149.643 306.823 148.91C297.851 142.187 289.065 135.165 279.921 128.583C274.19 124.231 268.085 120.475 262.728 115.526C259.632 114.909 257.341 117.376 254.608 117.901C254.234 118.498 253.846 119.251 253.331 119.676C246.996 123.173 240.817 126.686 234.481 130.184C230.753 132.827 230.769 132.671 233.384 134.981C239.337 140.304 245.461 145.485 251.414 150.808C252.634 151.243 254.46 150.313 254.388 152.679C258.285 154.797 261.309 157.779 264.505 160.62C267.685 163.618 271.91 165.609 274.903 168.905C275.952 169.482 277 170.058 278.034 170.791C278.613 171.322 278.835 172.292 279.243 172.965C278.431 173.202 277.432 173.738 276.651 173.662C274.447 173.606 273.646 172.105 273.203 170.164C272.734 170.118 272.094 170.214 271.64 170.012C265.486 165.144 259.175 160.261 253.035 155.236C252.738 155.049 252.799 154.422 252.688 153.937C251.639 153.361 250.762 152.643 249.714 152.067C242.98 146.668 236.089 141.254 229.355 135.855C228.322 135.122 225.977 134.894 224.509 135.385C219.985 138.109 215.616 140.849 211.092 143.573C207.238 145.888 203.243 148.031 199.389 150.346C198.445 153.576 200.95 155.401 202.704 156.836C208.405 161.502 213.919 166.466 219.448 171.274C221.565 173.852 225.427 174.701 226.655 178.3C231.338 182.076 236.192 185.711 240.86 189.644C241.142 189.987 241.177 191.256 240.975 191.711C240.616 192.151 239.32 192.5 239.038 192.156C234.028 188.506 229.204 184.558 225.097 179.73C222.107 178.017 218.946 176.445 217.889 172.704C217.108 172.628 216.139 172.851 215.701 172.492C210.782 167.902 206.019 163.327 201.271 158.595C197.965 155.269 194.38 153.181 189.558 155.719C189.013 156.457 188.438 157.508 187.611 157.902C183.787 159.904 179.964 161.905 176.141 163.907C175.782 164.347 175.378 165.256 174.738 165.352C172.176 165.736 170.632 167.01 170.843 169.72C172.723 171.484 174.759 173.263 176.639 175.027C183.484 180.911 190.157 186.937 197.002 192.821C197.426 193.337 197.99 194.024 198.413 194.54C201.029 196.85 203.645 199.16 206.261 201.47C206.7 201.829 206.967 202.33 207.093 202.658C207.203 203.144 207.127 203.927 206.799 204.053C206.128 204.463 204.989 204.827 204.706 204.483C201.98 201.688 199.268 198.735 196.713 195.798C196.244 195.753 195.619 195.692 195.15 195.647C194.727 195.131 194.162 194.444 193.739 193.928C188.961 189.51 184.168 185.248 179.389 180.83C177.792 179.41 175.134 179.152 174.939 176.286C173.059 174.522 169.605 174.345 169.143 170.978C164.529 169.739 161.381 172.914 157.745 174.617C156.605 174.981 155.606 175.517 154.466 175.881C153.266 176.871 152.236 177.72 151.036 178.711C149.896 179.075 148.897 179.611 147.757 179.975C147.243 180.399 146.557 180.965 146.042 181.39C145.028 182.082 143.873 182.603 142.859 183.295C143.408 184.14 143.958 184.984 144.522 185.671C146.7 187.623 149.048 189.432 151.382 191.399C156.362 195.362 161.342 199.325 166.307 203.445C166.887 203.976 168.061 204.881 166.563 205.684C165.892 206.094 164.753 206.458 164.314 206.099C161.229 203.743 157.988 201.372 155.261 198.577C153.397 196.656 149.958 196.322 149.652 192.971C146.708 190.787 143.593 188.745 140.82 186.419C139.505 185.343 138.708 185.423 137.523 186.257C136.665 186.965 135.51 187.486 134.496 188.178L139.096 196.059C143.455 201.543 148.016 206.573 154.479 209.889C160.05 212.644 165.464 215.384 171.575 215.819C175.014 216.153 178.594 216.659 182.049 216.836C185.049 216.811 188.054 218.368 191.378 216.634C193.874 215.295 197.508 218.495 200.455 215.775C210.192 216.246 219.2 212.849 228.429 210.423C237.643 208.154 246.384 204.257 255.095 200.674C268.723 195.195 281.847 188.402 294.579 180.78C302.458 176.009 309.646 170.221 317.258 164.949C325.214 159.394 332.322 152.808 339.274 146.207C349.672 136.619 358.034 125.251 363.859 112.371C365.864 107.979 367.273 103.212 368.823 98.6175C369.49 96.6259 370.469 94.6647 370.823 92.6428C371.349 90.4793 370.795 88.053 371.634 85.9199C375.729 74.6125 374.54 62.4759 376.462 50.7994C376.847 48.4641 376.706 48.2922 374.029 46.6088C365.716 41.215 353.355 35.27 344.189 32.1659C338.996 30.3965 333.742 29.2539 328.706 27.4997C322.731 25.6544 316.806 24.9212 310.805 24.9715Z" fill="#0A483A"/>
<path d="M52.2104 66.5161C54.0313 64.5658 55.7606 62.4764 57.517 60.4887C60.7688 56.9631 66.0381 52.6324 70.1715 49.9621C71.5245 49.1149 71.5618 49.0506 72.5553 49.7131C77.5603 52.9614 83.2469 54.8869 87.489 59.1529C88.2418 59.9335 89.4592 60.2103 90.351 60.8997C91.1784 61.5517 91.8668 62.2949 92.6196 63.0754C94.3829 64.786 96.2208 66.3681 97.8451 68.1699C102.487 73.5273 105.851 79.6035 108.011 86.2698C109.5 90.8281 111.026 95.3221 111.867 100.106C112.691 104.622 113.821 109.058 114.377 113.591C115.232 120.874 115.551 128.19 115.168 135.528C114.947 140.212 114.893 144.906 114.073 149.584C113.188 154.226 112.893 159.038 110.662 163.327C111.316 165.168 109.085 166.193 109.197 167.632C109.316 169.505 108.054 170.492 107.4 171.916C106.671 173.469 105.647 174.937 104.789 176.415C103.223 179.114 100.903 181.033 98.5196 182.915C95.6815 185.134 92.5178 186.133 89.0965 186.983C85.7768 187.805 85.8412 187.843 85.6921 191.365C86.7366 192.83 85.9974 194.549 86.4043 196.074C86.3365 196.636 86.3705 197.171 86.3027 197.733C86.4146 199.173 86.73 200.559 86.7402 202.025C86.7233 203.39 85.4415 203.076 85.133 203.756C84.4887 203.382 83.2782 203.538 83.6918 202.232C82.8847 199.616 83.6204 196.864 83.183 194.204C83.1049 193.3 83.0913 192.433 83.0133 191.528C82.369 187.89 82.3961 187.991 78.795 187.964C76.3942 187.945 74.0138 187.594 71.6063 187.142C69.8905 186.834 68.1204 186.322 66.6758 185.398C64.292 184.015 61.898 182.797 59.7854 180.798C57.2592 178.473 55.0381 176.067 53.1052 173.313C50.7416 169.965 48.5171 166.526 47.32 162.653C45.5159 156.708 43.6846 150.663 42.9995 144.423C42.718 141.94 41.7888 139.682 41.5989 137.338C41.2664 130.787 39.9913 124.377 40.1301 117.756C40.2419 112.666 39.5873 107.561 40.0313 102.492C40.4754 97.4227 41.1229 92.2999 42.2689 87.2086C43.3199 82.5778 45.1814 78.3313 47.0802 74.0206C48.4806 71.3107 50.0369 68.7773 52.2104 66.5161ZM48.7927 76.5608C46.9787 80.5771 45.1918 84.695 44.1882 89.0957C43.127 93.8925 42.5269 98.7851 42.093 103.688C41.6964 108.527 42.2323 113.392 42.168 118.251C42.0495 124.54 43.3077 130.683 43.5961 136.865C43.7216 139.171 44.6237 141.327 44.9154 143.644C45.5835 149.617 47.2689 155.32 49.0561 160.997C50.1989 164.667 52.2946 168.031 54.6039 171.175C56.4452 173.79 58.5375 176.121 60.9722 178.308C62.9932 180.168 65.3228 181.348 67.5778 182.657C68.9952 183.479 70.7008 183.954 72.3149 184.289C74.5563 184.73 76.8722 185.043 79.1713 185.089L82.9318 184.694C83.1928 184.244 83.4539 183.794 82.6435 183.41C81.5381 182.94 80.358 182.599 79.178 182.258C78.0692 182.387 77.0926 181.992 76.2279 181.405C76.0346 181.293 75.7769 181.143 75.5836 181.031C75.214 181.074 74.7969 181.348 74.4375 181.225C73.8203 180.953 73.2134 180.514 72.6335 180.178C72.0096 181.105 71.562 180.243 70.972 180.073C70.7787 179.961 70.521 179.811 70.3277 179.699C69.2053 180.594 68.7577 179.733 68.2728 178.936C68.2457 178.834 68.4423 178.347 68.5067 178.384C69.0052 178.416 69.5308 178.549 70.0564 178.682C70.2497 178.795 70.5074 178.944 70.7007 179.056C71.3246 178.13 71.7722 178.991 72.3622 179.161C73.5694 179.604 74.7494 179.945 75.9566 180.388C76.3262 180.345 76.7433 180.071 77.1027 180.194C77.7198 180.466 78.3268 180.905 78.9067 181.241C79.083 181.086 79.2966 180.866 79.3983 180.839C80.5886 181.014 81.8059 181.291 82.9961 181.466C82.874 180.193 82.7146 178.983 82.5925 177.71C82.5654 177.608 82.7044 177.517 82.779 177.388C82.6976 177.083 82.5891 176.677 82.5077 176.372C82.6196 176.179 82.7688 175.922 82.8807 175.729C82.6907 175.017 82.528 174.407 82.3381 173.696C82.4059 173.134 82.3719 172.599 82.4397 172.036C82.2871 171.261 82.1616 170.586 81.9717 169.875C81.8903 169.57 81.7072 169.292 81.5885 169.051C80.4017 168.276 79.1403 167.63 77.672 167.637C75.4001 167.693 73.2435 166.957 71.0767 166.387C70.8834 166.275 70.6257 166.125 70.4324 166.013C70.3578 166.142 70.2459 166.335 70.2459 166.335C68.4284 166.053 66.3871 166.157 64.9425 165.233C63.1759 164.122 61.1481 165.093 59.5476 163.992C59.1237 163.832 58.6456 163.469 58.2387 163.576C57.6657 163.673 57.3978 163.69 57.3367 163.053C57.3198 162.785 57.3401 162.453 57.3231 162.186C57.747 162.346 58.1709 162.506 58.5947 162.666C58.7711 162.511 59.022 162.227 59.1508 162.301C61.5482 162.919 63.8879 163.934 66.4922 163.898C67.4619 163.86 68.4928 164.458 69.4795 164.687C69.6728 164.799 69.9305 164.949 70.1238 165.061C70.429 164.98 70.7816 164.67 71.0122 164.717C74.2268 166.153 77.6415 166.503 81.0086 167.082C81.168 166.659 81.5681 166.118 81.4867 165.813C80.995 164.583 81.3714 163.34 81.3137 162.104C81.1034 161.724 80.7643 161.27 80.7575 160.836C80.649 158.797 80.5404 156.758 80.4318 154.719C79.7163 153.874 79.5027 152.462 77.8106 152.854C77.2376 152.951 76.539 152.374 75.9219 152.102C75.298 153.029 74.8504 152.167 74.2604 151.997C73.8094 151.735 73.4228 151.511 72.9718 151.249C72.6666 151.33 72.2597 151.437 71.9545 151.518C71.7613 151.406 71.5035 151.256 71.3103 151.144C71.117 151.032 70.8593 150.882 70.666 150.77C70.0421 151.697 69.5945 150.835 69.0044 150.665C68.8112 150.553 68.5534 150.403 68.3602 150.291C68.055 150.372 67.7023 150.682 67.4718 150.635C64.9184 149.84 62.382 149.313 59.7812 148.749C59.3573 148.589 58.9334 148.429 58.5096 148.269C57.984 148.136 57.394 147.965 56.8311 147.896C56.6378 147.784 56.3801 147.634 56.1868 147.522C55.0916 148.519 54.0403 146.62 52.9281 147.349C52.745 147.071 52.433 146.718 52.4805 146.488C52.5653 146.194 53.0569 145.792 53.1858 145.867C54.2912 146.336 55.5865 145.885 56.4953 146.842C57.5261 145.808 58.0077 147.204 58.8012 147.321C60.0354 146.233 60.5882 148.1 61.6326 147.933C63.9248 147.545 65.9119 148.87 68.0244 149.237C68.2177 149.349 68.4754 149.499 68.6687 149.611C69.2926 148.684 69.7402 149.545 70.3303 149.716C70.5235 149.828 70.7812 149.978 70.9745 150.09C71.1509 149.934 71.3645 149.715 71.4662 149.688C72.8395 150.141 74.2128 150.595 75.5862 151.048C76.2101 150.121 76.6577 150.982 77.2477 151.153C79.5332 151.964 79.9876 151.626 80.0282 149.33C78.9871 147.265 79.3872 145.092 79.4177 142.962C79.2074 142.582 78.8683 142.127 78.8615 141.694C78.7529 139.655 78.6444 137.616 78.5358 135.577C76.5352 135.017 74.6363 134.43 72.6356 133.871C72.1846 133.609 71.7981 133.385 71.3471 133.123C70.9775 133.166 70.5604 133.44 70.2009 133.317C69.5838 133.045 68.9768 132.607 68.397 132.27C67.5933 132.319 64.1448 131.435 63.141 130.938C62.9647 131.094 62.7138 131.378 62.5849 131.303C59.333 129.931 55.9014 129.314 52.6292 128.275C52.4359 128.162 52.1782 128.013 51.9849 127.901C50.6795 128.518 49.964 127.673 49.2857 126.764C49.2586 126.662 49.6316 126.019 49.7977 126.03C50.2318 126.024 50.6455 126.35 51.0693 126.51C51.2626 126.622 51.5203 126.772 51.7136 126.884C51.8899 126.729 52.1409 126.445 52.2697 126.519C55.5216 127.891 58.9532 128.508 62.2255 129.548C62.6765 129.81 63.063 130.034 63.514 130.296C64.3177 130.246 67.7662 131.131 68.7699 131.627C69.5261 131.809 70.3196 131.925 71.0758 132.106C71.5268 132.368 71.9133 132.593 72.3643 132.854C72.5406 132.699 72.7916 132.415 72.856 132.452C73.9886 133.024 75.2432 133.236 76.4232 133.577C77.6677 133.956 78.2204 134.191 77.9898 132.51C77.9016 131.772 78.1186 130.953 78.1322 130.187C77.949 129.909 77.7015 129.594 77.6201 129.289C77.3623 125.874 77.0672 122.524 76.8094 119.11C77.2909 117.241 75.7819 116.28 74.5815 116.271C73.215 116.251 72.4622 115.47 71.3839 115.102C70.3531 116.136 69.8715 114.74 69.078 114.623C68.627 114.361 68.2405 114.137 67.7895 113.875C66.9858 113.925 63.5373 113.04 62.5336 112.544C62.0826 112.282 61.696 112.057 61.245 111.796C61.0687 111.951 60.8178 112.235 60.6889 112.16C58.4034 111.349 56.1552 110.474 53.785 109.958C52.1065 109.585 50.5229 108.752 48.9021 107.983C48.7088 107.871 48.6477 107.234 48.6036 106.865C48.9088 106.785 49.2886 106.575 49.4819 106.687C51.3435 107.338 53.1475 108.385 55.0667 108.64C56.2569 108.815 56.9995 109.762 57.9965 109.825C59.0578 109.925 60.0819 110.09 60.9737 110.779C61.167 110.891 61.4247 111.041 61.618 111.153C61.7943 110.998 62.0452 110.714 62.1097 110.751C63.6661 111.482 65.1581 112.176 66.8739 112.485C67.3249 112.747 67.7115 112.971 68.1625 113.233C69.1933 112.199 69.6748 113.595 70.4683 113.712C71.8213 114.497 73.476 114.168 74.8087 115.285C75.5072 115.863 76.3244 115.048 76.2837 114.08C76.3819 111.387 75.6393 108.808 75.6731 106.079C75.7238 101.984 75.456 102.001 71.9768 99.9816C70.8171 99.3085 69.593 98.5981 68.4333 97.9251C68.0637 97.9684 67.5822 98.2044 67.2872 98.1191C66.4123 97.6974 65.6765 97.1844 64.8389 96.6983C64.3879 96.4366 64.0014 96.2123 63.5504 95.9505C62.7128 95.4645 61.8108 94.941 60.9733 94.455C60.6681 94.5356 60.3154 94.8464 60.0849 94.7985C59.21 94.3767 58.3826 93.7248 57.4704 93.3672C55.4257 92.4383 53.8116 90.4706 51.2718 90.5432C51.0039 90.5596 50.7326 89.543 50.4953 89.0616C50.8276 89.0826 51.1972 89.0393 51.5295 89.0603C53.7912 89.1701 55.5748 90.5488 57.3788 91.5958C58.6674 92.3436 59.9559 93.0913 61.2445 93.8391C61.6141 93.7959 62.0956 93.5598 62.3906 93.6451C63.6521 94.2913 64.8389 95.0659 66.1274 95.8137C67.2227 96.4493 68.2536 97.0476 69.3488 97.6832C69.7184 97.64 70.2 97.4039 70.495 97.4892C71.5631 98.0231 72.5566 98.6856 73.5875 99.2839C74.7675 99.625 74.6421 98.9508 74.6929 98.1212C74.5572 94.348 73.6449 90.7257 73.7771 86.9362C73.7736 85.9032 73.7363 84.335 72.1968 83.8712C70.715 83.0113 69.1687 82.1139 67.6868 81.2539C67.063 82.1806 66.6153 81.3194 66.0253 81.1488C65.1877 80.6628 64.2858 80.1393 63.4482 79.6533C62.1596 78.9055 60.8711 78.1577 59.5825 77.4099C59.5079 77.5384 59.396 77.7312 59.396 77.7312C57.6836 76.8234 55.9983 76.0172 54.3232 75.045C54.2588 75.0076 54.6046 74.2633 54.8013 73.776C54.9945 73.8882 55.2523 74.0377 55.4455 74.1499C56.9274 75.0099 58.4737 75.9072 59.9555 76.7672C60.3251 76.7239 60.8066 76.4879 61.1016 76.5732C61.9765 76.9949 62.7123 77.5079 63.5499 77.994C66.3169 80.2012 70.0638 80.5714 72.9428 82.5858C73.1733 79.3689 72.434 76.1905 72.2304 72.9795C72.1083 71.7058 72.0506 70.4695 72.0947 69.2063C71.4944 67.5693 69.8532 67.1323 68.602 66.3203C67.3134 65.5725 66.0249 64.8247 64.7363 64.0769C63.7699 63.516 62.8035 62.9552 61.9015 62.4317C61.8371 62.3943 61.8574 62.0625 61.8676 61.8966C62.0981 61.9445 62.3287 61.9924 62.4949 62.0029C62.8645 61.9596 63.346 61.7236 63.7054 61.8462C65.6756 62.9036 67.5067 64.0522 69.4395 65.1739C71.3723 66.2956 71.3723 66.2956 71.4503 63.9352C71.4706 63.6033 71.4265 63.2341 71.4468 62.9022C70.1854 60.6237 71.2433 58.0587 70.4531 55.7101C70.426 55.6084 70.9177 55.2064 71.1584 55.0884C71.2974 54.9972 71.684 55.2216 71.7756 55.3606C71.9485 55.8046 72.1859 56.2861 72.1927 56.7196C72.2741 58.657 72.3555 60.5944 72.3997 62.596C72.4811 62.901 72.6642 63.1791 72.7456 63.4841C72.7998 63.6874 72.6506 63.9445 72.5387 64.1373C72.8066 64.1209 73.0372 64.1688 73.278 64.0508C73.8341 63.6862 74.2986 63.1825 74.892 62.7537C76.8383 61.4776 78.2624 59.4688 80.6394 58.7863C80.8802 58.6683 81.1481 58.6519 81.3888 58.5339C81.3414 58.7641 81.3583 59.0317 81.2837 59.1602C81.2363 59.3904 81.0599 59.5458 80.9107 59.8029C78.7135 61.363 76.9842 63.4524 74.5665 64.7986C74.1867 65.0078 74.0816 65.6341 73.8579 66.0197C72.844 65.6891 72.7117 66.2137 72.7626 67.0165C72.8237 67.6534 72.9492 68.3276 73.0102 68.9644C73.7393 72.3087 73.9327 75.6857 73.9871 79.1538C74.004 79.4214 74.1125 79.8281 74.3703 79.9776C74.5635 80.0898 75.0993 80.0571 75.2756 79.9016C77.5882 77.5493 80.4602 75.8653 83.0474 73.9302C83.6916 72.6716 85.0412 72.4239 86.089 71.6573C87.2757 70.7995 88.3438 69.7011 89.5306 68.8433C89.7069 68.6879 90.3716 68.7299 90.436 68.7673C90.5445 69.174 90.7073 69.7839 90.531 69.9394C89.5375 70.9093 88.4253 71.6385 87.3673 72.571C86.1704 73.5947 84.9463 74.5167 83.4204 74.9199C81.3758 77.2558 78.7343 78.9877 76.2861 80.8317C75.2011 81.6626 74.3568 82.3754 74.645 83.6596C75.3029 86.533 75.2216 89.4928 75.3438 92.3989C75.4184 93.9028 75.7237 95.4546 76.0289 97.0063C76.1544 97.6806 76.6427 97.878 77.3751 97.358C78.1821 96.7094 79.3011 96.4138 79.9792 95.6904C81.9866 93.4187 84.489 91.778 86.9914 90.1373C89.4939 88.4966 91.5928 86.364 94.1223 84.8249C95.0955 84.1869 96.0314 83.6131 97.0961 83.1141C97.2996 83.0603 97.7133 83.3863 98.0083 83.4716C97.7946 83.6913 97.6183 83.8467 97.4691 84.1038C95.75 86.0273 93.2611 86.9026 91.3589 88.5479C87.2763 92.0209 82.7903 95.002 78.4873 98.2612C77.4395 99.0278 76.9445 100.029 76.1918 100.881C76.3512 102.091 76.6123 103.273 76.67 104.509C76.9752 107.694 76.7074 110.975 78.0571 113.992C79.0303 113.354 79.8746 112.641 80.8749 112.105C86.0798 109.369 91.2848 106.633 96.2795 103.518C98.1512 102.37 100.233 101.602 102.169 100.492C102.688 100.192 102.902 99.972 103.027 100.646C103.071 101.015 102.976 101.476 102.763 101.696C102.373 102.071 101.854 102.371 101.335 102.671C96.6762 105.208 91.9257 107.606 87.2938 110.245C84.2929 111.854 81.4751 113.742 78.2911 115.073C77.4163 116.283 78.0267 117.754 77.7148 119.034C77.8979 119.312 78.1454 119.628 78.2268 119.933C78.4846 123.347 78.7797 126.697 79.0375 130.111C79.4411 132.236 79.3767 132.198 80.8856 131.528C84.3476 130.014 87.7826 128.399 91.2446 126.886C91.6719 126.446 91.6312 125.478 92.6349 125.974C94.3133 124.715 96.1919 124.001 98.0433 123.185C99.9591 122.406 101.648 120.981 103.655 120.342C104.109 120.004 104.564 119.666 105.083 119.366C105.425 119.221 105.886 119.317 106.256 119.273C106.198 119.67 106.232 120.205 106.046 120.526C105.588 121.463 104.784 121.512 103.862 121.321C103.75 121.514 103.665 121.808 103.489 121.963C100.183 123.653 96.8396 125.407 93.4691 127.06C93.33 127.151 93.0723 127.001 92.8417 126.953C92.3874 127.291 91.9059 127.527 91.4515 127.865C87.803 129.7 84.1171 131.599 80.4686 133.433C79.9498 133.734 79.3903 134.698 79.3123 135.426C79.5938 137.909 79.9126 140.328 80.1942 142.811C80.4316 144.925 80.5673 147.065 80.8047 149.179C82.0085 150.221 83.2868 149.503 84.2498 149.031C87.3796 147.496 90.6009 146.101 93.7578 144.668C95.2837 144.265 96.4094 142.77 98.1998 142.95C100.746 141.679 103.266 140.306 105.877 139.072C106.08 139.018 106.633 139.253 106.789 139.429C106.908 139.67 106.802 140.296 106.599 140.35C104.042 141.787 101.394 143.086 98.5084 143.903C97.1826 144.851 95.8839 145.902 94.0664 145.62C93.8799 145.942 93.785 146.402 93.5442 146.52C90.6009 147.733 87.695 148.882 84.7246 149.993C82.6426 150.761 81.0387 151.892 81.1812 154.467C81.3915 154.846 81.7306 155.301 81.7374 155.735C81.8459 157.774 81.9545 159.813 82.0631 161.852C82.1818 162.092 82.4937 162.445 82.409 162.74C82.0699 163.918 82.3141 164.833 83.5212 165.275C84.6504 164.814 85.8168 164.288 86.946 163.826C90.8251 162.039 94.7314 160.354 98.6105 158.567C98.9157 158.487 99.3226 158.379 99.6278 158.299C101.137 157.628 102.646 156.957 104.155 156.286C104.395 156.168 104.663 156.152 104.829 156.162C105.06 156.21 105.382 156.397 105.372 156.563C105.416 156.932 105.348 157.494 105.145 157.548C103.405 158.171 101.601 158.757 99.8347 159.278C99.7228 159.471 99.5736 159.728 99.4617 159.921C99.1565 160.001 98.7496 160.109 98.4444 160.189C95.6029 161.376 92.8258 162.599 89.9842 163.785C89.0585 164.193 88.4245 165.286 87.1529 164.805C86.0237 165.267 85.2676 166.718 83.7281 166.255C82.287 167.996 83.0331 169.975 83.0501 171.875C82.9823 172.437 83.0162 172.972 82.9484 173.535C83.1383 174.246 83.3011 174.856 83.491 175.568C83.4232 176.13 83.4571 176.665 83.3893 177.227C83.4707 177.532 83.5792 177.939 83.6606 178.244C83.759 178.816 83.7556 179.416 83.854 179.988C84.3253 179.918 84.7966 179.848 85.2035 179.74C86.4717 179.188 87.7127 178.533 89.0182 177.916C91.7038 176.554 94.3893 175.191 97.1393 173.866C97.4818 173.721 98.1023 173.394 98.1532 174.196C98.1973 174.566 98.1295 175.128 97.8887 175.246C96.2679 176.109 94.6098 177.037 92.8703 177.66C91.6767 178.084 90.8561 179.498 89.354 178.97C87.8349 179.807 86.3429 180.745 84.7967 181.48C84.0744 181.834 83.9524 182.193 84.0778 182.867C84.2135 183.376 84.2101 183.975 84.3085 184.548L88.6047 184.12C91.8226 183.324 94.8846 182.352 97.5837 180.224C99.8657 178.369 102.11 176.579 103.501 174.035C104.321 172.621 105.243 171.18 106 169.729C106.579 168.433 107.841 167.447 107.749 165.675C107.664 164.337 109.757 163.403 109.166 161.6C111.286 157.504 111.597 152.959 112.37 148.511C113.208 144.099 113.252 139.571 113.425 135.118C113.75 128.176 113.411 121.192 112.637 114.213C112.135 109.884 111.06 105.652 110.291 101.339C109.466 96.8226 108.032 92.4676 106.56 88.1769C104.481 81.8155 101.236 75.9801 96.8414 70.9382C95.346 69.2112 93.5725 67.6665 91.9008 66.0949C91.1751 65.416 90.524 64.6086 89.7238 64.0582C88.8964 63.4063 87.7435 63.1668 86.9907 62.3862C82.9317 58.3983 77.4757 56.5207 72.8301 53.3951C71.9009 52.77 71.7992 52.7969 70.548 53.6172C66.5909 56.1321 61.5996 60.2805 58.4598 63.6133C56.6762 65.4993 55.1504 67.5349 53.4041 69.3567C51.434 71.5642 49.9523 73.969 48.7927 76.5608Z" fill="#DCBF6F"/>
</svg>
