<svg xmlns="http://www.w3.org/2000/svg" width="176" height="171" fill="none"><path fill="#0A483A" d="M175 44V32c0-7-2-17-4-24-1-3-1-3-3-3-9-1-17-5-26-4l-5-1h-5l-11 1c-11 2-21 5-30 11L73 24 57 37 34 61 21 79c-3 6-8 12-9 19-3 1-1 5-3 6-2 2-1 5-2 7l-1 8v13c1 6 4 10 7 14 3 5 3 5 0 9-3 0-4 3-6 5l-1 2-5 4v4c1 0 2 1 3-1 4-2 6-6 9-8l3-3c4-4 4-4 8 0l9 6 7 3c5 1 9 2 13 1a70 70 0 0 0 32-8c8-5 16-10 23-17l9-7c7-7 15-13 21-21l15-17 13-20 7-20c2-4 2-9 2-14Zm-6 15a101 101 0 0 1-19 38l-15 17-20 20-8 6c-7 7-14 11-22 16-5 3-11 5-17 6-4 2-9 2-14 2l-12-1-7-3-9-6-4-4c1-1 1-2 2-1l5 2 4 2h2l1 1 3 1c0 2 1 1 2 1l1 1c0 2 2 1 3 1v-1l-2-1h-1c0-2-1-2-2-2l-5-2-1-2h-3l-1-1-4-3 4-4 1-1v-1l3-2 2-2 2-2 2-1 5 2 9 6h1l7 4c4 1 5 4 8 4l2 1h1l1-1h-2v-1c-3-2-7-3-10-6l-4-2h-1l-1-1-14-7 1-2 4-5h2l6-7c2 0 3-2 5 0l3 1c0 2 1 1 2 2h2l1 2h2c0 2 1 1 2 2h1l1 1 11 5 2 1 2 1 1 1c0 2 3 1 4 3l1-1v-1c-2-1-3-3-5-2 0-3-2-2-3-2 0-3-3-1-4-2-2-3-5-3-8-5h-1c0-2-1-1-2-2h-1l-1-1-6-3c1-1-1-1-2-1-3-1-3-2-1-5 3-1 5-4 7-7l2-1 6-6 9 4h2l1 1 3 1 8 4v1c5 1 9 4 14 6a433 433 0 0 0 6 0h-2l-1-1-1-1c-5-1-9-4-14-6h-2l-8-4-3-2h-2v-1l-5-2c-2-1-3-2-1-3l2-3 2-1 11-10c1-3 4-3 5-2 2 2 3 2 5 2 0 2 2 1 3 2a17353 17353 0 0 0 10 4l2 1v1l10 4 8 2 1-1-1-1c-2-1-6-1-8-3l-5-2-4-1-1-1v-1l-7-2-3-1c0-2-2-1-3-1l-6-3c-2 0-2-2-1-3l9-8c4-5 4-5 10-4l6 1 1 2 5 1a9243 9243 0 0 0 6 1l1 1 4 1c4 1 7 0 10 3l3-1-2-1c-2-2-6-2-9-3l-6-1-2-1-6-2-6-1-1-1-5-1c-2-1-1-2 0-3l12-11c1-2 3-3 5-2l8 1c-1 2 1 1 2 2h4l7 2 8 2 1-2h-1l-8-1-1-2-4-1c-6 0-10-3-16-4l11-10 3-4h7l7 1 5 1h1l-1-1-2-1-9-2c-4-1-4-1-2-4l1-1c4-1 6-5 9-7v-2h-1l-2 1-6 7-2 1v1l-1-1v-3c-1-4-1-8-3-11l-1-1v2l2 12v5l-2 2-12 10-1 1-1-1-3-15c1-2-1-3-1-5l-1-7-1-1-1 1 1 7c0 2 0 4 2 6l2 14c1 2 1 4-1 5l-9 9-6 5-2-1-1-5-2-13c-2-4-2-9-3-13l-2-5-1-1v2l2 11 5 24v5l-4 4c-3 3-6 7-11 9l-1-5c-3-8-7-16-9-25l-4-9-1-1-1 2 1 2 8 23 6 14c0 3-2 4-3 6h-2L81 91c-2 2-2 2-3 0l-8-16v-2l-4-9-4-9v-2l-1-2-1 2c-1 2 0 3 1 3v1l7 16v1l1 2 7 17v4l-9 7-7 7c-2 0-3-2-4-3l-6-15c-2-2-1-5-4-6l-5-12-1-1-1 1 6 13 3 6v1l7 13c1 3 2 6-1 9l-1 1-7 6-1 1c-1 2-2 3-4 2l-2-5-9-18-1-1a208630 208630 0 0 0-1 1v1l1 1 6 13c1 1 0 3 2 4 1 1 1 4 3 5 0 3-3 5-5 7l-1 2-3 2-2 2-1 1-2 2-1-2-3-6-5-13h-2v1l3 8c1 2 1 4 3 5 1 2 1 5 3 7l-1 3-2 1-4-4c-3-5-6-9-7-14-1-4-2-8-1-13l2-7c0-2 0-5 2-7 1-1 0-4 2-6 2-7 6-12 10-18a202 202 0 0 1 34-40l15-12c5-5 11-8 17-12 9-5 18-8 28-10h11l4-1 5 1c9 0 17 3 25 4 2 0 2 0 3 2l4 24v11l-2 13Z"/></svg>