<svg xmlns="http://www.w3.org/2000/svg" width="386" height="240" fill="none"><path fill="#0A483A" d="M333.115 22.7079c5.35 1.7846 10.886 3.2709 16.25 4.8988 9.635 3.1496 22.591 9.4687 31.358 15.0648 2.818 1.8552 2.974 1.8704 2.574 4.3624-1.842 12.4751-.542 25.097-5.011 37.0009-.838 2.1331-.3 4.7161-.841 7.0362-.525 2.1635-1.348 4.1399-2.187 6.2729-1.737 4.8931-3.161 9.8161-5.196 14.5221-6.214 13.633-14.934 25.44-25.847 35.453-7.451 6.87-14.746 13.754-23.201 19.577-7.955 5.554-15.487 11.625-23.709 16.679-13.246 8.047-27.026 15.093-41.466 20.809-9.195 3.695-18.263 7.718-27.977 10.255-9.698 2.38-19.205 6.045-29.411 5.529-2.962 2.876-6.893-.511-9.562.97-3.495 1.875-6.5.318-9.813.313-3.626-.036-7.347-.713-10.942-1.062-6.565-.637-12.292-3.408-18.004-6.335-6.76-3.503-11.462-8.705-16.104-14.533-4.5-5.657-4.515-5.5-11.415-2.69-1.898 3.296-5.851 3.387-8.424 5.51-1.14.364-2.138.899-3.278 1.263-2.669 1.481-5.055 3.306-7.864 4.615-2.638 1.167-3.1611-1.572-4.7394-1.567.152-1.567-1.2134-3.756 1.6611-4.11 4.3183-3.851 10.2543-4.857 14.9813-8.036 1.669-.945 3.324-1.734 4.993-2.679 6.427-4.438 6.255-4.296 3.142-11.242-2.075-4.63-3.494-9.513-4.742-14.538-.916-3.568-1.489-7.42-.983-11.009.563-5.798.798-11.469 2.782-17.287 2.248-6.9 4.919-13.284 8.512-19.42 4.356-7.486 9.009-14.785 15.401-20.4919 9.838-8.6939 19.847-17.5292 31.237-24.3325 4.524-2.7243 8.046-6.495 12.384-8.9211 12.297-6.3989 23.496-14.486 36.342-20.0407 9.881-4.2607 19.117-10.0076 29.25-13.6113 10.132-3.6036 20.547-6.8635 31.339-9.1376 9.825-2.0519 19.623-2.2081 29.577-2.3492 6.439.3086 12.676 1.0722 18.933 3.2612Zm-22.31 2.2636c-9.313.045-18.799.2316-28.139 2.1723-10.152 2.1781-20.082 5.3268-29.887 8.8041-9.648 3.4924-18.526 8.7996-27.923 12.9491-12.19 5.302-22.89 13.1213-34.516 19.1107-4.323 2.2694-7.673 5.8986-11.87 8.4966-10.89 6.5354-20.37 14.7894-29.708 23.2154-6.049 5.4233-10.672 12.4093-14.684 19.6123-3.407 5.838-6.048 11.908-8.108 18.51-1.798 5.52-2.018 11.034-2.55 16.519-.335 3.447.253 7.142 1.028 10.539 1.122 4.696 2.557 9.423 4.491 13.881l4.066 6.88c1.094.106 2.188.212 2.214-1.683-.069-2.538-.451-5.106-.833-7.674-1.224-2.017-1.324-4.241-.955-6.419.046-.47.107-1.097.152-1.567-.408-.673-1.3-1.234-1.38-2.032-.02-1.426.289-2.978.426-4.388-2.33-.384-1.068-2.002-1.259-3.286.045-.47.106-1.097.152-1.567-2.707-1.37-1.446-2.987-.341-4.62.172-.141 1.281-.192 1.266-.035.378.986.584 2.113.79 3.24-.046.47-.106 1.097-.152 1.567 2.329.384 1.068 2.002 1.259 3.286.21 2.709.592 5.277.803 7.986.408.673 1.3 1.234 1.38 2.032.02 1.426-.289 2.978-.426 4.388.454.202 1.064.42 1.205.592.71 2.441 1.248 5.024 1.958 7.466 2.341-1.355 4.525-2.725 6.865-4.079.172-.142.469.045.782.075.514-.424 1.2-.99 1.715-1.415.469.046 1.094.106 1.563.152 1.201-.991 2.23-1.84 3.431-2.831 1.139-.363 2.138-.899 3.278-1.263 1.357-.976 2.542-1.81 3.743-2.8.515-.425.888-1.021 1.246-1.461.446-2.962.578-5.955-.726-8.77-2.106-4.317-2.588-9.109-3.397-13.775.046-.47.106-1.097.152-1.567-.313-.03-.782-.076-.782-.076-1.057-3.74-3.051-7.572-2.545-11.161.582-4.372-3.067-7.415-2.359-11.459-.065-.955.213-2.194-.352-2.881-.69-1.016-.957-1.517.213-2.194.499-.268 1.155-.521 1.654-.789.065.956.131 1.911.196 2.867.453.202 1.22.434 1.189.748.92 5.151 1.029 10.539 3.386 15.513.927 1.83.684 4.337 1.111 6.435-.046.47-.106 1.097-.152 1.567.423.515 1.331.92 1.441 1.405.067 7.441 2.398 14.31 4.245 21.291.954-.066 2.345.228 2.86-.197 1.932-2.027 4.65-2.396 6.976-3.593.545-.738 1.12-1.79 1.947-2.184 3.824-2.002 7.647-4.003 11.47-6.005.995-2.118 3.522-3.77 1.279-6.677-.69-1.016-.195-2.866-.214-4.292-2.33-.384-1.068-2.001-1.259-3.285.106-1.097.198-2.037.304-3.134-.423-.516-.988-1.203-1.411-1.719.046-.47.106-1.097.152-1.567s.107-1.097.152-1.567c-2.329-.384-1.068-2.002-1.259-3.286.046-.47.107-1.096.152-1.567-.423-.515-1.33-.92-1.441-1.405-.718-5.606-1.936-10.944-3.138-16.438-.065-.956-.13-1.911-.196-2.866-.206-1.127-.397-2.411-.759-3.554.046-.47.106-1.097.152-1.567-2.879-1.228-.154-4.9181-2.533-6.4145.373-.5964.777-1.5062 1.261-1.6174.641-.096 1.846.4954 1.815.8088.07 2.5375 2.075 4.6303 1.035 7.2181 2.894 1.072.634 3.225 1.107 4.853 3.176 1.415.074 4.12 1.313 5.98 2.762 4.064 1.962 9.048 3.115 13.431-.046.47-.107 1.096-.152 1.567 2.329.384 1.068 2.001 1.259 3.285-.046.47-.107 1.097-.152 1.567.453.202 1.063.42 1.204.592.337 3.038.673 6.076 1.009 9.113 2.33.385 1.068 2.002 1.259 3.286.451 5.106 1.5 5.682 5.949 3.741 3.052-3.816 7.581-4.958 11.702-6.773.545-.738 1.12-1.789 1.948-2.184 3.823-2.001 7.646-4.003 11.47-6.004-.684-4.337-1.226-8.502-1.91-12.839.107-1.097.198-2.037.304-3.134-.408-.673-1.3-1.234-1.38-2.032-.02-1.426.289-2.978.426-4.388-.801-1.501-2.134-8.907-2.062-11.272-.454-.203-1.22-.4351-1.19-.7485-.223-7.4558-2.055-14.5933-2.934-21.7964.046-.4701.107-1.0969.153-1.567-2.334-1.9664-1.34-4.0843-.189-6.1871.172-.1415 1.735.0102 1.861.3388.393.829.13 1.9107.195 2.8661-.046.4701-.107 1.0969-.152 1.567.454.2022 1.22.4347 1.189.7481.224 7.4559 2.055 14.5933 2.934 21.7965-.106 1.0968-.198 2.037-.304 3.1335.801 1.502 2.133 8.907 2.062 11.273.317 1.612.79 3.24 1.107 4.852-.107 1.097-.198 2.037-.305 3.134.454.203 1.22.435 1.205.592-.102 2.679.593 5.277.974 7.845.367 2.724.402 3.993 3.428 2.073 1.342-.819 3.107-1.122 4.59-1.769.374-.597.762-1.35 1.277-1.775 6.335-3.497 12.514-7.01 18.85-10.508 4.014-.717 4.535-4.463 3.498-6.778-1.164-2.644-.326-4.777-.566-7.173-2.894-1.072-.634-3.2248-1.107-4.8525.106-1.0969.197-2.0371.304-3.134-.801-1.5013-2.134-8.9066-2.062-11.2723.107-1.0968.198-2.037.304-3.1339-.453-.2022-1.22-.4348-1.189-.7482-.452-5.1054-.746-10.1956-1.838-15.2049-.76-3.5536-.551-7.3295-.499-11.1206.046-.4701 1.216-1.1474 1.887-1.5568.423.5156 1.159 1.0616 1.114 1.5317.386 4.15-.04 8.5375 1.158 12.45.71 2.4415-.456 4.7009.299 6.6723.74 2.1281 1.324 4.2411.784 6.5612-.046.4701-.107 1.0969-.153 1.567.454.2022 1.221.4348 1.205.5915-.037 3.6344-.059 7.1121.857 10.6808-.106 1.0969-.198 2.0371-.304 3.134 2.894 1.0717.634 3.225 1.107 4.8526-.32 3.2911 1.767 6.1821.792 9.7251-.496 1.85 1.788 2.705 3.614 1.775 5.261-2.179 9.564-5.873 14.84-8.209 7.914-3.5022 7.647-4.0026 8.468-12.4643.274-2.8206.563-5.7978.836-8.6184-.408-.6723-1.285-1.3901-1.38-2.0321.041-2.0523.38-3.9175.578-5.9545.106-1.0969.197-2.0371.304-3.134.198-2.0371.41-4.2308.608-6.2679-.423-.5156-1.331-.9201-1.441-1.4053.041-2.0523.567-4.2157.452-6.2831-.013-4.7465 2.349-9.5788-.023-14.3961-.267-.5004 1.448-1.9157 2.165-2.7952.251.6571.66 1.3294.911 1.9866 1.778 4.4432.697 9.0835.271 13.471-.304 3.134-.609 6.268-.913 9.4019.408.6723 1.285 1.3902 1.381 2.0321-.133 2.9925-.578 5.9545-.882 9.0885-.259 2.6639-.502 5.171-.761 7.8349.408.6723 1.285 1.3902 1.381 2.0321-.087 2.5224-.487 5.0143-.73 7.5215.382 2.5679 1.567 1.7339 3.206 1.1021 7.133-3.5785 13.292-8.5167 20.691-11.5948 1.983-.9148 4.964-2.3654 4.501-5.7319.35-3.6041.715-7.3648 1.065-10.9689-2.33-.3843-1.068-2.0017-1.259-3.2857.198-2.0371.411-4.2308.608-6.2679.305-3.134.609-6.2679.913-9.4019-.313-.0303-.782-.0759-.782-.0759.239-4.0893.307-8.0371.702-12.1112.016-.1567 1.75-.1465 2.86-.197-.046.4701-.107 1.0969-.152 1.5669-.35 3.6041-.715 7.3649-1.065 10.9689.408.6723 1.285 1.3902 1.381 2.0321-.042 2.0523-.381 3.9175-.578 5.9545-1.809 7.2587.774 14.7854-.566 22.0895 6.385-2.3856 11.843-6.601 17.835-9.8156 2.341-1.3546 4.666-2.5525 7.133-3.5785 2.618-2.593 2.015-6.1314 2.475-9.2502.304-3.1339.609-6.2679.913-9.4019.228-2.3504.456-4.7009.669-6.8947.015-.1567.671-.4094.999-.5357.11.4852.221.9705.347 1.299.408.6724 1.285 1.3902 1.365 2.1888-.3 4.7162-.897 9.2452-1.353 13.9462-.456 4.7009-.456 4.7009 4.149 2.7753.655-.2528 1.326-.6622 1.982-.9149 3.27-4.4278 9.129-4.65 12.948-8.2337.172-.1415 1.377.45 1.815.8089.298.187.207 1.1272.02 1.4254-.701.7229-1.418 1.6023-2.245 1.9966-3.652 1.86-7.304 3.72-11.112 5.5648-.515.4246-.888 1.0211-1.403 1.4456-.343.2831-.968.2224-1.437.1769.267.5004.378.9857.816 1.3446 1.19.7482 2.566 1.1981 3.912 1.9614 4.164 2.6186 9.277 3.5894 12.679 7.5575.438.359.705.8594 1.144 1.2183-.484.1112-.984.3791-1.296.3487-.484.1112-.938-.091-1.563-.1517-4.931-2.8511-10.467-4.3375-15.18-7.8002-.736-.546-2.032-.1973-2.97-.2883-.256-2.2393-1.38-2.0321-2.878-1.2284-1.171.6773-2.356 1.5112-3.526 2.1885-5.787 4.3418-12.107 7.6828-18.724 10.8367-.5.2679-1.186.834-1.247 1.4608-.045.4701.489 1.4709.943 1.6732 6.554 2.376 12.315 6.415 18.309 9.6858 2.986.1315 4.648 2.5074 7.043 3.847 2.692 1.5267 5.742 2.6136 8.434 4.1403.454.2022.958 1.5164.942 1.6731-.686.5661-1.715 1.4153-2.169 1.2131-2.737-1.0566-5.117-2.5529-7.839-3.7662-3.02-1.4003-5.868-2.9421-7.985-5.5202-6.287-1.8756-11.938-5.4294-17.634-8.5131-2.551-1.3548-4.664-2.3507-6.878-.6675-4.944 3.7909-10.704 6.2371-16.182 9.0271-2.824 1.4658-5.538 3.4168-8.252 5.3679-1.186.834-1.136 1.946.508 2.8964 1.956.9807 3.508 2.8714 5.494 3.5384 6.131 1.861 11.485 5.227 16.838 8.594 5.354 3.367 11.298 5.526 16.48 9.034 2.082 1.309 4.007 2.603 5.903 4.211.282.343.019 1.425.115 2.067-.61-.217-1.064-.419-1.689-.48-5.209-1.613-9.079-5.627-13.914-7.836-10.264-4.792-19.938-10.793-29.985-16.197-2.395-1.3393-4.755-1.4102-7.054-2.1078-2.184 1.3698-4.227 2.9118-6.552 4.1088-5.852 3.387-12.393 5.757-17.005 11.004 2.082 1.309 4.194 2.305 6.105 3.756 9.834 7.598 19.668 15.196 30.048 22.055 3.851 2.589 7.157 5.915 10.993 8.66 1.034.733 1.644.95.458 1.784-.671.41-1.639.632-2.249.415-1.064-.42-2.097-1.153-3.131-1.886-8.972-6.723-17.758-13.745-26.902-20.327-5.731-4.352-11.836-8.108-17.193-13.057-3.096-.617-5.387 1.85-8.12 2.375-.374.597-.762 1.35-1.277 1.775-6.335 3.497-12.514 7.01-18.85 10.508-3.728 2.643-3.712 2.487-1.097 4.797 5.953 5.323 12.077 10.504 18.03 15.827 1.22.435 3.046-.495 2.974 1.871 3.897 2.118 6.921 5.1 10.117 7.941 3.18 2.998 7.405 4.989 10.398 8.285 1.049.577 2.097 1.153 3.131 1.886.579.531.801 1.501 1.209 2.174-.812.237-1.811.773-2.592.697-2.204-.056-3.005-1.557-3.448-3.498-.469-.046-1.109.05-1.563-.152-6.154-4.868-12.465-9.751-18.605-14.776-.297-.187-.236-.814-.347-1.299-1.049-.576-1.926-1.294-2.974-1.87-6.734-5.399-13.625-10.813-20.359-16.212-1.033-.733-3.378-.961-4.846-.47-4.524 2.724-8.893 5.464-13.417 8.188-3.854 2.315-7.849 4.458-11.703 6.773-.944 3.23 1.561 5.055 3.315 6.49 5.701 4.666 11.215 9.63 16.744 14.438 2.117 2.578 5.979 3.427 7.207 7.026 4.683 3.776 9.537 7.411 14.205 11.344.282.343.317 1.612.115 2.067-.359.44-1.655.789-1.937.445-5.01-3.65-9.834-7.598-13.941-12.426-2.99-1.713-6.151-3.285-7.208-7.026-.781-.076-1.75.147-2.188-.212-4.919-4.59-9.682-9.165-14.43-13.897-3.306-3.326-6.891-5.414-11.713-2.876-.545.738-1.12 1.789-1.947 2.183-3.824 2.002-7.647 4.003-11.47 6.005-.359.44-.763 1.349-1.403 1.445-2.562.384-4.106 1.658-3.895 4.368 1.88 1.764 3.916 3.543 5.796 5.307 6.845 5.884 13.518 11.91 20.363 17.794.424.516.988 1.203 1.411 1.719l7.848 6.93c.439.359.706.86.832 1.188.11.486.034 1.269-.294 1.395-.671.41-1.81.774-2.093.43-2.726-2.795-5.438-5.748-7.993-8.685-.469-.045-1.094-.106-1.563-.151-.423-.516-.988-1.203-1.411-1.719-4.778-4.418-9.571-8.68-14.35-13.098-1.597-1.42-4.255-1.678-4.45-4.544-1.88-1.764-5.334-1.941-5.796-5.308-4.614-1.239-7.762 1.936-11.398 3.639-1.14.364-2.139.9-3.279 1.264-1.2.99-2.23 1.839-3.43 2.83-1.14.364-2.139.9-3.279 1.264-.514.424-1.2.99-1.715 1.415-1.014.692-2.169 1.213-3.183 1.905.549.845 1.099 1.689 1.663 2.376 2.178 1.952 4.526 3.761 6.86 5.728 4.98 3.963 9.96 7.926 14.925 12.046.58.531 1.754 1.436.256 2.239-.671.41-1.81.774-2.249.415-3.085-2.356-6.326-4.727-9.053-7.522-1.864-1.921-5.303-2.255-5.609-5.606-2.944-2.184-6.059-4.226-8.832-6.552-1.315-1.076-2.112-.996-3.297-.162-.858.708-2.013 1.229-3.027 1.921l4.6 7.881c4.359 5.484 8.92 10.514 15.383 13.83 5.571 2.755 10.985 5.495 17.096 5.93 3.439.334 7.019.84 10.474 1.017 3-.025 6.005 1.532 9.329-.202 2.496-1.339 6.13 1.861 9.077-.859 9.737.471 18.745-2.926 27.974-5.352 9.214-2.269 17.955-6.166 26.666-9.749 13.628-5.479 26.752-12.272 39.484-19.894 7.879-4.771 15.067-10.559 22.679-15.831 7.956-5.555 15.064-12.141 22.016-18.742 10.398-9.588 18.76-20.956 24.585-33.836 2.005-4.392 3.414-9.159 4.964-13.7535.667-1.9916 1.646-3.9528 2-5.9747.526-2.1635-.028-4.5898.811-6.7229 4.095-11.3074 2.906-23.444 4.828-35.1205.385-2.3353.244-2.5072-2.433-4.1906-8.313-5.3938-20.674-11.3388-29.84-14.4429-5.193-1.7694-10.447-2.912-15.483-4.6662-5.975-1.8453-11.9-2.5785-17.901-2.5282Z"/><path fill="#DCBF6F" d="M52.2104 66.5161c1.8209-1.9503 3.5502-4.0397 5.3066-6.0274 3.2518-3.5256 8.5211-7.8563 12.6545-10.5266 1.353-.8472 1.3903-.9115 2.3838-.249 5.005 3.2483 10.6916 5.1738 14.9337 9.4398.7528.7806 1.9702 1.0574 2.862 1.7468.8274.652 1.5158 1.3952 2.2686 2.1757 1.7633 1.7106 3.6012 3.2927 5.2255 5.0945 4.6419 5.3574 8.0059 11.4336 10.1659 18.0999 1.489 4.5583 3.015 9.0523 3.856 13.8362.824 4.516 1.954 8.952 2.51 13.485.855 7.283 1.174 14.599.791 21.937-.221 4.684-.275 9.378-1.095 14.056-.885 4.642-1.18 9.454-3.411 13.743.654 1.841-1.577 2.866-1.465 4.305.119 1.873-1.143 2.86-1.797 4.284-.729 1.553-1.753 3.021-2.611 4.499-1.566 2.699-3.886 4.618-6.2694 6.5-2.8381 2.219-6.0018 3.218-9.4231 4.068-3.3197.822-3.2553.86-3.4044 4.382 1.0445 1.465.3053 3.184.7122 4.709-.0678.562-.0338 1.097-.1016 1.659.1119 1.44.4273 2.826.4375 4.292-.0169 1.365-1.2987 1.051-1.6072 1.731-.6443-.374-1.8548-.218-1.4412-1.524-.8071-2.616-.0714-5.368-.5088-8.028-.0781-.904-.0917-1.771-.1697-2.676-.6443-3.638-.6172-3.537-4.2183-3.564-2.4008-.019-4.7812-.37-7.1887-.822-1.7158-.308-3.4859-.82-4.9305-1.744-2.3838-1.383-4.7778-2.601-6.8904-4.6-2.5262-2.325-4.7473-4.731-6.6802-7.485-2.3636-3.348-4.5881-6.787-5.7852-10.66-1.8041-5.945-3.6354-11.99-4.3205-18.23-.2815-2.483-1.2107-4.741-1.4006-7.085-.3325-6.551-1.6076-12.961-1.4688-19.582.1118-5.09-.5428-10.195-.0988-15.264.4441-5.0693 1.0916-10.1921 2.2376-15.2834 1.051-4.6308 2.9125-8.8773 4.8113-13.188 1.4004-2.7099 2.9567-5.2433 5.1302-7.5045Zm-3.4177 10.0447c-1.814 4.0163-3.6009 8.1342-4.6045 12.5349-1.0612 4.7968-1.6613 9.6894-2.0952 14.5923-.3966 4.839.1393 9.704.075 14.563-.1185 6.289 1.1397 12.432 1.4281 18.614.1255 2.306 1.0276 4.462 1.3193 6.779.6681 5.973 2.3535 11.676 4.1407 17.353 1.1428 3.67 3.2385 7.034 5.5478 10.178 1.8413 2.615 3.9336 4.946 6.3683 7.133 2.021 1.86 4.3506 3.04 6.6056 4.349 1.4174.822 3.123 1.297 4.7371 1.632 2.2414.441 4.5573.754 6.8564.8l3.7605-.395c.261-.45.5221-.9-.2883-1.284-1.1054-.47-2.2855-.811-3.4655-1.152-1.1088.129-2.0854-.266-2.9501-.853-.1933-.112-.451-.262-.6443-.374-.3696.043-.7867.317-1.1461.194-.6172-.272-1.2241-.711-1.804-1.047-.6239.927-1.0715.065-1.6615-.105-.1933-.112-.451-.262-.6443-.374-1.1224.895-1.57.034-2.0549-.763-.0271-.102.1695-.589.2339-.552.4985.032 1.0241.165 1.5497.298.1933.113.451.262.6443.374.6239-.926 1.0715-.065 1.6615.105 1.2072.443 2.3872.784 3.5944 1.227.3696-.043.7867-.317 1.1461-.194.6171.272 1.2241.711 1.804 1.047.1763-.155.3899-.375.4916-.402 1.1903.175 2.4076.452 3.5978.627-.1221-1.273-.2815-2.483-.4036-3.756-.0271-.102.1119-.193.1865-.322-.0814-.305-.1899-.711-.2713-1.016.1119-.193.2611-.45.373-.643-.19-.712-.3527-1.322-.5426-2.033.0678-.562.0338-1.097.1016-1.66-.1526-.775-.2781-1.45-.468-2.161-.0814-.305-.2645-.583-.3832-.824-1.1868-.775-2.4482-1.421-3.9165-1.414-2.2719.056-4.4285-.68-6.5953-1.25-.1933-.112-.451-.262-.6443-.374-.0746.129-.1865.322-.1865.322-1.8175-.282-3.8588-.178-5.3034-1.102-1.7666-1.111-3.7944-.14-5.3949-1.241-.4239-.16-.902-.523-1.3089-.416-.573.097-.8409.114-.902-.523-.0169-.268.0034-.6-.0136-.867.4239.16.8478.32 1.2716.48.1764-.155.4273-.439.5561-.365 2.3974.618 4.7371 1.633 7.3414 1.597.9697-.038 2.0006.56 2.9873.789.1933.112.451.262.6443.374.3052-.081.6578-.391.8884-.344 3.2146 1.436 6.6293 1.786 9.9964 2.365.1594-.423.5595-.964.4781-1.269-.4917-1.23-.1153-2.473-.173-3.709-.2103-.38-.5494-.834-.5562-1.268-.1085-2.039-.2171-4.078-.3257-6.117-.7155-.845-.9291-2.257-2.6212-1.865-.573.097-1.2716-.48-1.8887-.752-.6239.927-1.0715.065-1.6615-.105-.451-.262-.8376-.486-1.2886-.748-.3052.081-.7121.188-1.0173.269-.1932-.112-.451-.262-.6442-.374-.1933-.112-.451-.262-.6443-.374-.6239.927-1.0715.065-1.6616-.105-.1932-.112-.451-.262-.6442-.374-.3052.081-.6579.391-.8884.344-2.5534-.795-5.0898-1.322-7.6906-1.886-.4239-.16-.8478-.32-1.2716-.48-.5256-.133-1.1156-.304-1.6785-.373-.1933-.112-.451-.262-.6443-.374-1.0952.997-2.1465-.902-3.2587-.173-.1831-.278-.4951-.631-.4476-.861.0848-.294.5764-.696.7053-.621 1.1054.469 2.4007.018 3.3095.975 1.0308-1.034 1.5124.362 2.3059.479 1.2342-1.088 1.787.779 2.8314.612 2.2922-.388 4.2793.937 6.3918 1.304.1933.112.451.262.6443.374.6239-.927 1.0715-.066 1.6616.105.1932.112.4509.262.6442.374.1764-.156.39-.375.4917-.402 1.3733.453 2.7466.907 4.12 1.36.6239-.927 1.0715-.066 1.6615.105 2.2855.811 2.7399.473 2.7805-1.823-1.0411-2.065-.641-4.238-.6105-6.368-.2103-.38-.5494-.835-.5562-1.268-.1086-2.039-.2171-4.078-.3257-6.117-2.0006-.56-3.8995-1.147-5.9002-1.706-.451-.262-.8375-.486-1.2885-.748-.3696.043-.7867.317-1.1462.194-.6171-.272-1.2241-.71-1.8039-1.047-.8037.049-4.2522-.835-5.256-1.332-.1763.156-.4272.44-.5561.365-3.2519-1.372-6.6835-1.989-9.9557-3.028-.1933-.113-.451-.262-.6443-.374-1.3054.617-2.0209-.228-2.6992-1.137-.0271-.102.3459-.745.512-.734.4341-.006.8478.32 1.2716.48.1933.112.451.262.6443.374.1763-.155.4273-.439.5561-.365 3.2519 1.372 6.6835 1.989 9.9558 3.029.451.262.8375.486 1.2885.748.8037-.05 4.2522.835 5.2559 1.331.7562.182 1.5497.298 2.3059.479.451.262.8375.487 1.2885.748.1763-.155.4273-.439.4917-.402 1.1326.572 2.3872.784 3.5672 1.125 1.2445.379 1.7972.614 1.5666-1.067-.0882-.738.1288-1.557.1424-2.323-.1832-.278-.4307-.593-.5121-.898-.2578-3.415-.5529-6.765-.8107-10.179.4815-1.869-1.0275-2.83-2.2279-2.839-1.3665-.02-2.1193-.801-3.1976-1.169-1.0308 1.034-1.5124-.362-2.3059-.479-.451-.262-.8375-.486-1.2885-.748-.8037.05-4.2522-.835-5.2559-1.331-.451-.262-.8376-.487-1.2886-.748-.1763.155-.4272.439-.5561.364-2.2855-.811-4.5337-1.686-6.9039-2.202-1.6785-.373-3.2621-1.206-4.8829-1.975-.1933-.112-.2544-.749-.2985-1.118.3052-.08.685-.29.8783-.178 1.8616.651 3.6656 1.698 5.5848 1.953 1.1902.175 1.9328 1.122 2.9298 1.185 1.0613.1 2.0854.265 2.9772.954.1933.112.451.262.6443.374.1763-.155.4272-.439.4917-.402 1.5564.731 3.0484 1.425 4.7642 1.734.451.262.8376.486 1.2886.748 1.0308-1.034 1.5123.362 2.3058.479 1.353.785 3.0077.456 4.3404 1.573.6985.578 1.5157-.237 1.475-1.205.0982-2.693-.6444-5.272-.6106-8.001.0507-4.095-.2171-4.078-3.6963-6.0974-1.1597-.6731-2.3838-1.3835-3.5435-2.0565-.3696.0433-.8511.2793-1.1461.194-.8749-.4217-1.6107-.9347-2.4483-1.4208-.451-.2617-.8375-.486-1.2885-.7478-.8376-.486-1.7396-1.0095-2.5771-1.4955-.3052.0806-.6579.3914-.8884.3435-.8749-.4218-1.7023-1.0737-2.6145-1.4313-2.0447-.9289-3.6588-2.8966-6.1986-2.824-.2679.0164-.5392-1.0002-.7765-1.4816.3323.021.7019-.0223 1.0342-.0013 2.2617.1098 4.0453 1.4885 5.8493 2.5355 1.2886.7478 2.5771 1.4955 3.8657 2.2433.3696-.0432.8511-.2793 1.1461-.194 1.2615.6462 2.4483 1.4208 3.7368 2.1686 1.0953.6356 2.1262 1.2339 3.2214 1.8695.3696-.0432.8512-.2793 1.1462-.194 1.0681.5339 2.0616 1.1964 3.0925 1.7947 1.18.3411 1.0546-.3331 1.1054-1.1627-.1357-3.7732-1.048-7.3955-.9158-11.185-.0035-1.033-.0408-2.6012-1.5803-3.065-1.4818-.8599-3.0281-1.7573-4.51-2.6173-.6238.9267-1.0715.0655-1.6615-.1051-.8376-.486-1.7395-1.0095-2.5771-1.4955-1.2886-.7478-2.5771-1.4956-3.8657-2.2434-.0746.1285-.1865.3213-.1865.3213-1.7124-.9078-3.3977-1.714-5.0728-2.6862-.0644-.0374.2814-.7817.4781-1.269.1932.1122.451.2617.6442.3739 1.4819.86 3.0282 1.7573 4.51 2.6173.3696-.0433.8511-.2793 1.1461-.194.8749.4217 1.6107.9347 2.4483 1.4208 2.767 2.2072 6.5139 2.5774 9.3929 4.5918.2305-3.2169-.5088-6.3953-.7124-9.6063-.1221-1.2737-.1798-2.51-.1357-3.7732-.6003-1.637-2.2415-2.074-3.4927-2.886-1.2886-.7478-2.5771-1.4956-3.8657-2.2434-.9664-.5609-1.9328-1.1217-2.8348-1.6452-.0644-.0374-.0441-.3692-.0339-.5351.2305.0479.4611.0958.6273.1063.3696-.0433.8511-.2793 1.2105-.1567 1.9702 1.0574 3.8013 2.206 5.7341 3.3277 1.9328 1.1217 1.9328 1.1217 2.0108-1.2387.0203-.3319-.0238-.7011-.0035-1.033-1.2614-2.2785-.2035-4.8435-.9937-7.1921-.0271-.1017.4646-.5037.7053-.6217.139-.0912.5256.1332.6172.2722.1729.444.4103.9255.4171 1.359.0814 1.9374.1628 3.8748.207 5.8764.0814.305.2645.5831.3459.8881.0542.2033-.095.4604-.2069.6532.2679-.0164.4985.0315.7393-.0865.5561-.3646 1.0206-.8683 1.614-1.2971 1.9463-1.2761 3.3704-3.2849 5.7474-3.9674.2408-.118.5087-.1344.7494-.2524-.0474.2302-.0305.4978-.1051.6263-.0474.2302-.2238.3856-.373.6427-2.1972 1.5601-3.9265 3.6495-6.3442 4.9957-.3798.2092-.4849.8355-.7086 1.2211-1.0139-.3306-1.1462.194-1.0953.9968.0611.6369.1866 1.3111.2476 1.9479.7291 3.3443.9225 6.7213.9769 10.1894.0169.2676.1254.6743.3832.8238.1932.1122.729.0795.9053-.076 2.3126-2.3523 5.1846-4.0363 7.7718-5.9714.6442-1.2586 1.9938-1.5063 3.0416-2.2729 1.1867-.8578 2.2548-1.9562 3.4416-2.814.1763-.1554.841-.1134.9054-.076.1085.4067.2713 1.0166.095 1.1721-.9935.9699-2.1057 1.6991-3.1637 2.6316-1.1969 1.0237-2.421 1.9457-3.9469 2.3489-2.0446 2.3359-4.6861 4.0678-7.1343 5.9118-1.085.8309-1.9293 1.5437-1.6411 2.8279.6579 2.8734.5766 5.8332.6988 8.7393.0746 1.5039.3799 3.0557.6851 4.6074.1255.6743.6138.8717 1.3462.3517.807-.6486 1.926-.9442 2.6041-1.6676 2.0074-2.2717 4.5098-3.9124 7.0122-5.5531 2.5025-1.6407 4.6014-3.7733 7.1309-5.3124.9732-.638 1.9091-1.2118 2.9738-1.7108.2035-.0538.6172.2722.9122.3575-.2137.2197-.39.3751-.5392.6322-1.7191 1.9235-4.208 2.7988-6.1102 4.4441-4.0826 3.473-8.5686 6.4541-12.8716 9.7133-1.0478.7666-1.5428 1.7678-2.2955 2.6198.1594 1.21.4205 2.392.4782 3.628.3052 3.185.0374 6.466 1.3871 9.483.9732-.638 1.8175-1.351 2.8178-1.887 5.2049-2.736 10.4099-5.472 15.4046-8.587 1.8717-1.148 3.9535-1.916 5.8895-3.026.519-.3.733-.52.858.154.044.369-.051.83-.264 1.05-.39.375-.909.675-1.428.975-4.6588 2.537-9.4093 4.935-14.0412 7.574-3.0009 1.609-5.8187 3.497-9.0027 4.828-.8748 1.21-.2644 2.681-.5763 3.961.1831.278.4306.594.512.899.2578 3.414.5529 6.764.8107 10.178.4036 2.125.3392 2.087 1.8481 1.417 3.462-1.514 6.897-3.129 10.359-4.642.4273-.44.3866-1.408 1.3903-.912 1.6784-1.259 3.557-1.973 5.4084-2.789 1.9158-.779 3.6047-2.204 5.6117-2.843.454-.338.909-.676 1.428-.976.342-.145.803-.049 1.173-.093-.058.397-.024.932-.21 1.253-.458.937-1.262.986-2.184.795-.112.193-.197.487-.373.642-3.306 1.69-6.6494 3.444-10.0199 5.097-.1391.091-.3968-.059-.6274-.107-.4543.338-.9358.574-1.3902.912-3.6485 1.835-7.3344 3.734-10.9829 5.568-.5188.301-1.0783 1.265-1.1563 1.993.2815 2.483.6003 4.902.8819 7.385.2374 2.114.3731 4.254.6105 6.368 1.2038 1.042 2.4821.324 3.4451-.148 3.1298-1.535 6.3511-2.93 9.508-4.363 1.5259-.403 2.6516-1.898 4.442-1.718 2.5462-1.271 5.0662-2.644 7.6772-3.878.203-.054.756.181.912.357.119.241.013.867-.19.921-2.557 1.437-5.205 2.736-8.0906 3.553-1.3258.948-2.6245 1.999-4.442 1.717-.1865.322-.2814.782-.5222.9-2.9433 1.213-5.8492 2.362-8.8196 3.473-2.082.768-3.6859 1.899-3.5434 4.474.2103.379.5494.834.5562 1.268.1085 2.039.2171 4.078.3257 6.117.1187.24.4306.593.3459.888-.3391 1.178-.0949 2.093 1.1122 2.535 1.1292-.461 2.2956-.987 3.4248-1.449 3.8791-1.787 7.7854-3.472 11.6645-5.259.3052-.08.7121-.188 1.0173-.268 1.5092-.671 3.0182-1.342 4.5272-2.013.24-.118.508-.134.674-.124.231.048.553.235.543.401.044.369-.024.931-.227.985-1.74.623-3.544 1.209-5.3103 1.73-.1119.193-.2611.45-.373.643-.3052.08-.7121.188-1.0173.268-2.8415 1.187-5.6186 2.41-8.4602 3.596-.9257.408-1.5597 1.501-2.8313 1.02-1.1292.462-1.8853 1.913-3.4248 1.45-1.4411 1.741-.695 3.72-.678 5.62-.0678.562-.0339 1.097-.1017 1.66.1899.711.3527 1.321.5426 2.033-.0678.562-.0339 1.097-.1017 1.659.0814.305.1899.712.2713 1.017.0984.572.095 1.172.1934 1.744.4713-.07.9426-.14 1.3495-.248 1.2682-.552 2.5092-1.207 3.8147-1.824 2.6856-1.362 5.3711-2.725 8.1211-4.05.3425-.145.963-.472 1.0139.33.0441.37-.0237.932-.2645 1.05-1.6208.863-3.2789 1.791-5.0184 2.414-1.1936.424-2.0142 1.838-3.5163 1.31-1.5191.837-3.0111 1.775-4.5573 2.51-.7223.354-.8443.713-.7189 1.387.1357.509.1323 1.108.2307 1.681l4.2962-.428c3.2179-.796 6.2799-1.768 8.979-3.896 2.282-1.855 4.5263-3.645 5.9173-6.189.82-1.414 1.742-2.855 2.499-4.306.579-1.296 1.841-2.282 1.749-4.054-.085-1.338 2.008-2.272 1.417-4.075 2.12-4.096 2.431-8.641 3.204-13.089.838-4.412.882-8.94 1.055-13.393.325-6.942-.014-13.926-.788-20.905-.502-4.329-1.577-8.561-2.346-12.874-.825-4.5164-2.259-8.8714-3.731-13.1621-2.079-6.3614-5.324-12.1968-9.7186-17.2387-1.4954-1.727-3.2689-3.2717-4.9406-4.8433-.7257-.6789-1.3768-1.4863-2.177-2.0367-.8274-.6519-1.9803-.8914-2.7331-1.672-4.059-3.9879-9.515-5.8655-14.1606-8.9911-.9292-.6251-1.0309-.5982-2.2821.2221-3.9571 2.5149-8.9484 6.6633-12.0882 9.9961-1.7836 1.886-3.3094 3.9216-5.0557 5.7434-1.9701 2.2075-3.4518 4.6123-4.6114 7.2041Z"/></svg>