<svg xmlns="http://www.w3.org/2000/svg" id="Layer_1" data-name="Layer 1" viewBox="0 0 1200 1200"><defs><style>.cls-1{fill:#dcbf6f}</style></defs><path d="M433 377a12 12 0 0 0-3-6 139 139 0 0 0-12-10 20 20 0 0 0-3-1l-1 3-2 17a29 29 0 0 0-3-3c-4-4-8-7-13-7-7 1-13 5-18 10a181 181 0 0 0-22 31l-12 22-8 18c-3 7-6 15-6 22v11c0 9 2 17 9 23 7 4 16 1 20-3l27-33a58 58 0 0 0 10-16l9-15h1l-1 5c-1 6-4 12-4 18 0 5-2 10-4 14a6 6 0 0 0-1 3l-1 8-13 31-3 13-9 18-8 19-17 25-4 7-11 12c-6 7-13 14-21 17l-17 7a51 51 0 0 1-9 0v-1l-1-6c3-3 3-6 3-10l1-8a647 647 0 0 1 5-34 5 5 0 0 1-1-3l2-13c1-3 0-6 3-9l1-6 3-22v-7c-2-2-1-3 0-5l3-4c1-4 1-6 6-7l5-5-2-4a23 23 0 0 0-4-4 41 41 0 0 0 4-4l-4-2 2-9v-11c4-7 4-14 6-21v-8c4-7 5-14 5-21a28 28 0 0 1-3 1l-1 1 4-6 1 1 6-36-5-1c6-2 5-7 6-10v-1l2-24 1-18v-22l2-2v-17a40 40 0 0 0-2-11c-2-3-3-5-8-5-5 1-10-1-14-2l-6 1a7 7 0 0 0-4 2l-1 4 4-2v4l-9 14-15 22-5 8-8 13c-7 10-16 19-20 30l-10 16-23 38-10 15-2 4-1-1 19-33a3 3 0 0 0 1 3l7-13h-1l-7 9-1-1a19 19 0 0 0-3 5l-14 22-4 6-13 24c-2 3-6 7-3 11a4 4 0 0 1-1 2c-4 7-7 14-13 20l-1 3-2 6-13 20a10 10 0 0 1-3 3l-19 6-7 2-25 5-51 14-33 10c-7 2-8 6-3 11l4 7c2 2 6 4 10 4h5l4 1 28-8 33-9 37-9a30 30 0 0 0-3 5l-2 6c-5-3-5 3-6 5l-27 56a188 188 0 0 0-7 21c-1 3-1 6 3 7 5 1 10-1 15-4 3-4 6-8 7-12a31 31 0 0 1 3-8l15-31 6-11c3-6 7-11 9-17l8-19c2-4 4-6 7-7l16-4 18-4 24-7 29-8 27-7v2l-8 50-9 67a25 25 0 0 1-8-13c-1-5-4-10-1-16v-5h-1l-4 12a8 8 0 0 0 0 4c3 8 5 17 9 24l4 6-5 37c-1 7-3 13-3 20l-2 33v31c-1 2-2 6 2 7l2-5c5 0 7-5 11-7 5-2 6-6 7-9l2-18 2-32a9 9 0 0 1 3-6c2-2 5-6 0-8l-1-1c1-4 0-10 6-12-3-4-4-7-3-10l3 1 4 2c6 3 12 2 18 1 5-2 9-5 14-6 11-2 19-9 27-16l4-5 3 2 4-5 15-24c2-3 2-4 1-5l9-13c5-7 5-16 12-22v-2c2-4 1-8 6-11l2-4-1-1-3 2-1-1 6-6a25 25 0 0 1-3-2l3-3c2-5 6-10 6-16l2-5c5-7 6-14 7-22 0-6 6-12 4-18l1-2a21 21 0 0 0 1-3l2-9c1-6 4-13 4-19 0-7 2-15 5-22l3-27 2 2-2-26ZM284 514l2-1-10 61v1l-2-3 10-58Zm-1-32 2-12 4-23 4-14 1-6 4-20h1l-2 12-5 26-3 15-2 17-3 5Zm-7 94c-3 17-4 34-8 51h1-3l7-51Zm-9 54h1l-1 6h-1a58 58 0 0 1 1-6Zm17-69h-1l-1 1c3-17 3-33 7-49h3l-8 48Zm19-77v-1c-3-2-3-8 1-11l-1 12Zm13-93-3 3c3 0 6 0 4 4l1 1-4-1-1 6h2l2 1-3 1c-2 1-3 4-1 6a4 4 0 0 1 1 3 44 44 0 0 1 0 7 183 183 0 0 1-5 20v-4h-1l-3 6c6 1 3 5 1 9l-1-6h-1v10l-2 1v1c4 1 3 4 2 7l-8 13 21-113c1 8-4 17-1 25Zm-10-65h1l-1 9h-1l1-9Zm6-5c4 6-5 77-8 84l8-84Zm-8 93a12221 12221 0 0 1 0 0Zm-1-46-2 10c-2-1-2-5 2-10Zm-6-78 1 1-6 10a5 5 0 0 0-1-1l6-10Zm-9 14v-1l3 1-1 5h-3l1-5Zm-7 8v1l5-3 1 1-6 9-1 1 1-9Zm-25 41 5-7 5-6 6-13 3-6 4 4a31 31 0 0 0-3 2c-4 5-5 10-10 14l-8 14c-2 4-3 5-5 5l3-8Zm-6 8 3 1-2 5a17 17 0 0 1 4 0l-3 3c-2 1-3-1-3-1l2-7Zm-16 19v1l8-10 3-2 1 3-1 2c1 4 1 4-1 5l-6 2-5 1 1-2Zm2 4a26 26 0 0 1 2 5l-5 3-2-1 5-7Zm-9 10h-1l1-1 2 3c0 2 0 5-3 5l-1-3h3Zm-1 8c0 4-4 3-6 6 0-5 1-6 7-6Zm-18 21a138 138 0 0 1 8-12 12 12 0 0 1 4-3 84 84 0 0 0-3 8v6l-4-2 2 5c-3-2-5-3-6 2l-1-1v-3Zm-3 4v-1l2 3c-3 3-1 5-1 7l-2 5h-1v-4a38 38 0 0 0-5 2l7-12Zm-9 17v1c1 2 1 2-7 14-1-3 3-11 7-15Zm-11 15h1l1 2c0 6-5 11-9 15l-1-1Zm24 53-1-1-40 10v-1l3-3 45-12 28-6 5 2c-14 5-27 7-40 11Zm26-17h-1l-35 10-21 5h-4c37-71 82-136 127-202h1v9l-1 18-1 5-3 26v5l-2 16-5 34-2 6-2 4c4 1 0 5 0 8l-8 40a8 8 0 0 1-4 4l-39 12Zm26 119 3-19 4-26 5-34 3-16 1-5h2v3l-3 22-4 28-8 50-1 18h-1v-2 1a26 26 0 0 1-3-1l2-19Zm-11 109h-1a5 5 0 0 1-1-3l4-30 2-15 2-23 1-6 3 5-2 14-7 54a13 13 0 0 1-1 4Zm8-11h-1l2-25h2l-3 25Zm6-42v-1l-1-14 2 1-1 14Zm98-85h-1l-5 10-2 5c-5 7-6 16-14 21-4 4-7 10-10 16a25 25 0 0 1-4 4 11 11 0 0 1-6 2c18-18 28-41 42-61h1a8 8 0 0 1-1 3Zm12-23-4 7a29 29 0 0 1-2 2l-1-3 4-8a5 5 0 0 1 2-1l1 2Zm4-8h-2l2-6h2l-3 6Zm-30-84 5-13 28-48c4-6 9-11 15-15l10-7c-11 34-33 59-58 83Zm36-35 16-28 2 1a109 109 0 0 1-18 27Zm18-30v1l-1-1 5-13h1ZM582 421c5-1 7-4 8-8l-8 8Z" class="cls-1"/><path d="m714 235-2-2c-4-3-5-8-10-10-4-1-6 0-8 4l-5 19-8 26c-3 8-4 16-9 23a15 15 0 0 0-2 6l-8 23a26 26 0 0 1-1 5l-7 14a13 13 0 0 0-1 5v4a56 56 0 0 1-4 8c-1 2-3 2-4 0l-5 2-15-14c-3-2-6-3-10-3-7 2-12 6-17 11-13 12-22 27-31 42-9 16-18 31-24 48a97 97 0 0 0-4 13l-11 8-9 8c-3 2-7 1-7 6a7 7 0 0 0-1 1l-12 7c-8 5-16 10-25 12-3 1-7 2-9-2-4-8-2-17 0-26l5-16a40 40 0 0 1 2-6l5 4c3 4 10 4 14 0l28-29c5-6 11-11 12-20l1-1c6-3 6-10 7-14 2-5 1-12 0-17-1-9-9-14-15-19a11 11 0 0 0-13 0l-20 13a75 75 0 0 0-14 15c-6 7-10 14-15 22l-6 12-11 23-4 15a42 42 0 0 0 1 30c4 11 9 23 19 30 7 5 15 10 25 9a73 73 0 0 0 12-4 59 59 0 0 0 10-6l5-4 20-16 8-7a39 39 0 0 0 4 6c2 3 6 5 11 3a46 46 0 0 0 17-11c6-6 13-11 16-18l3-3 3-4 9-10c8-8 16-17 22-26l3-5 2 1c-2 7-3 14-6 20a145 145 0 0 0-6 51c1 8 4 16 8 23a18 18 0 0 0 9 8 3 3 0 0 0 3-1l11-21c-3-2-6 1-9 2s-6-1-5-3c3-5 1-10 3-15l1-4c-3-4 2-9 1-13l2-9 4-16c1-3 1-7 3-10l9-22 5-15 5-15a62 62 0 0 1 6-15 111 111 0 0 0 6-15l9-28 7-15c2-6 2-12 7-16l1-2 6-17a98 98 0 0 0 8-23c2-6 2-11-5-14ZM478 431v1l6-12a12 12 0 0 1 1-3c3-3 6-6 4-9 3-3 7-5 8-8 3-7 9-12 15-17a138 138 0 0 1 11-9c3-1 4-1 4 2-1 8-4 16-10 23l-7 10c-1 2-4 3-6 4l-14 14-12 11-2-1 2-6Zm156-49 2-1-3 5-2-1 2-5 2 2Zm-10 13c-6-1-7 4-10 6l-6 11 1 1 13-15 1 1-13 16c-5-1-7 1-9 5l-9 9c-6 6-12 11-17 18l-15 14 6-9 3-3 9-9 6-9-2-1a35 35 0 0 0-4 3v1l-5 4-6 5 3-6 6-11 7-8 4-6 19-25c4-5 10-6 16-8a32 32 0 0 1 6-2 11 11 0 0 1 3 1l-1 3-6 9a40 40 0 0 1 4 1c-2 2-3 5-4 4Zm2 13-1-1 6-9 1 1-6 10Zm8 66h-1l-4 4c-1-6 2-10 7-12l-2 8Zm9-28-4 2-4 12a11 11 0 0 1-1 2h-2v-2c4-2 1-4 1-6l4-11c1-5 3-7 9-7a88 88 0 0 1-3 10Zm19-59a10 10 0 0 1-3 3c-2 2-3 3-1 5-5 2-5 2-2 6a5 5 0 0 1-1 3 64 64 0 0 1-6 9h4l-5 12a43 43 0 0 1-3 6l-3 3c-2-7 0-13 3-19l11-27 5-5a31 31 0 0 1-3-1v-5a21 21 0 0 0 4-1 29 29 0 0 0-1-5 33 33 0 0 0 4-2c0 7 0 12-3 18ZM621 704l2-3 2-5-3 2 1 1-2 3v2ZM568 815ZM554 853l-9 24c5-3 11-20 9-24ZM587 764h-1l-4 10h1l4-10ZM630 647ZM616 678l-3 9c5-4 5-5 3-9ZM637 618h-1l-2-1-3 7 3 1 3-7ZM576 798h-2l-7 15h3l6-15ZM621 666h-1l-1-1-4 10 2 1 4-10ZM656 581l-4 14 3-1 3-13Z" class="cls-1"/><path d="m639 698 4-17 1-2 4-10 3-7 3-15 5-17h-1l3-3a13 13 0 0 0-1-2l4-8 5-20a6 6 0 0 1 1-3l5-13 4-19c1-3 2-5-1-6 5-6 6-12 7-18l2-6c-1-2 0-3 2-4l1-1a6 6 0 0 1-1-1l1-6c3-4 4-9 5-14 2-8 3-17 6-25 3-5 3-11 4-16v-10l-5 4c-2-4-7-5-12-4-4 1-8 2-12 1h-6l-1 4c0 7 1 13-2 20 7-2 4-8 6-11 4 5 1 11-1 16h4l1 4-5 1 4 4-1 1a17 17 0 0 1-2 1l1 4v3l-2 5-5 21c0 2-1 3-4 3l-3 1v1h-1l-3 10h2l2-8v1a27 27 0 0 1 3-3c1 2 2 3 1 4l-2 11-7 22-2 9c-2 3-1 5 0 7a9 9 0 0 0 2-4l3-12 7-22 3-10 3-2 3 3c-2 4-3 9-6 13s-6 7-5 12c4 0 2 3 2 6a9 9 0 0 1-4-2l-2 6c1 1 3 3 2 4-3 6 0 12-5 17a3 3 0 0 0-1 2l-1 5a53 53 0 0 1-2 8c0 2 0 4-3 5a6 6 0 0 0-1 0l4-11 3-7a23 23 0 0 0-3-2l-1 4-8 22-5 16 1 2 3-1 2-6 2-2-5 17c-1 4-2 8-7 10a12 12 0 0 0 3 1l-6 19-6 18h1l-3 14h-2l-2-6a6 6 0 0 1 2-2c-1-6-2-12 3-15a27 27 0 0 0 2-6c1-2 3-5 2-6-2-4 0-7 1-10l6-11c-2-1-4-1-5 3l-9 26-8 23-11 34-9 26-1 8-4 9-2 7a66 66 0 0 1-3 8c-2 3-2 6-5 8-2 2-3 6-4 9h4l-3 6v-5l-1 5c5 3 1 5-1 7v-3c-3 2-5 5-4 8v3c-1 2-4 4-2 6l-2 3c-5 0-4 5-5 7l-9 29-10 23-4 4 3-12c-6 0-5 5-6 9l-1-3-5-25-5-29-2-28-2-24-1-16v-38l-1-8 1-12-1-16 2-19v-15l3-35v-19l1-24v-37l-1-6c-9-7-19-8-31-4a6 6 0 0 0-2 3l-7 18a137 137 0 0 0-5 14l-2 11-2 5-5 18-11 27-12 37-19 53-15 52-8 33-5 22-4 43c-1 14-2 28 2 41 2 6 2 14 7 18 2 2 5 3 7 2 3-1 5-4 8-7v-1l-1-8-2-20a274 274 0 0 1 1-32l4-29a463 463 0 0 1 7-37l4-13 4-13 3-11c-1-4 1-7 2-11a13 13 0 0 1 1-4l5-12 2-5c-1-4 1-8 3-12l7-21 1-3 3-10 8-20 1-5c2-5 5-9 6-14l6-20a25 25 0 0 1 2-5l7-16v-4a50 50 0 0 1 3-6l4-8h1l-5 139 5-3 1 5-5-1a31 31 0 0 0-1 5l1 30a1392 1392 0 0 0 6 81 191 191 0 0 0 3 21l5 26 2 10c5 7 8 15 16 19l5 2c3 4 7 4 12 5 2 1 4 0 6-3l11-16 1-2 9-21 7-18 9-26 7-20 7-21 4-11 2-8 4-11a39 39 0 0 0 3-12l2-3 1-1-3-2c6-9 7-13 6-18a36 36 0 0 0 3-6l4-10a274 274 0 0 0 11-29Zm21-164h1Zm25-23c-1 9-2 12-7 13a23 23 0 0 1 2 2v1a30 30 0 0 1-5 0l5-14 5-2Zm-8 39h1l-2 7-2 1 2-8Zm-23 75h2l-2 8-1 1h-2l3-8Zm-10 4 2-6v-1q3 5-2 7ZM400 854l5-30c3 4-1 26-5 30Zm7-32c-3-2 0-5 0-8l2-6 2-11a13 13 0 0 0 1-4v-2l4-1v1l-7 31Zm9-31v-1Zm-4 36h-2l5-17h1c-2 5 0 11-4 17Zm4-37-1-7 3-3 1 1c-1 3 1 6-3 9Zm2 12h-1l6-24h2Zm25-86h-1l5-12 1-1Zm35-108-10 27-6 14-5 15-5 13-3 12-11 31-14 47a92 92 0 0 1-4 11l-2-3 3-11 7-23c1-6 4-11 6-16l4-16 12-34 14-39 10-26 12-30 1-2h1l-10 30Zm24 103c-3-1-3-8 1-14l-1 13Zm4 0 1 20c-4-7-4-15-1-20Zm68 127h-2l2-7c4 4 0 5 0 7Zm9-20v1l-4 9-2 1h-1l2-9 4-11a3 3 0 0 1 0-1 26 26 0 0 1 4-4s1 2 1 2l-2 5c3 2-1 4-2 7Zm6-15c-3-2-2-4-1-5a5 5 0 0 1 2-1l-1 6Zm4-10v1c-1 1-3-1-5-2l8-3h1l-4 4Zm4-8h-1c-1-1-2-3-1-4l3-4 1 1-2 7Zm18-51v-1l-3 12c-3 4-5 8-4 13l-2 2a94 94 0 0 1-4 9c-1 2-1 6-6 5l6-17a6 6 0 0 0 1-2c0-4 1-8 5-10l2-3a32 32 0 0 1-4 2c2-11 3-14 9-13l-2-3-1-3 2-1 3-2-4-1c2-7 2-7 8-7l-6 20Z" class="cls-1"/><path d="M677 524h1l-1-1ZM783 723ZM812 583a737 737 0 0 1 2-8l-16 48-4 15 1-4 17-51ZM778 706a5 5 0 0 0-1 0ZM1050 660v1a3 3 0 0 0 0-1Z" class="cls-1"/><path d="M1047 666a9 9 0 0 0 3-5 86 86 0 0 1 0-22 22 22 0 0 0-7-18c-4-3-9-4-14-5-2-1-5 0-6 2l-8 11-4 8-8 13a120 120 0 0 0-5 11l-1-1c1-4 1-8 3-11l5-13 1-5c1-5 0-10-6-12-3-2-6-5-10-6a14 14 0 0 0-5 1l-1 4a11 11 0 0 1 0 3l-4 13-8 31-2 4-1 6-6 19-6 26-7 4c-6 4-11 9-18 9-4 1-7-1-6-4l2-16c3-15 9-30 14-44 1-3 3-5 3-8 0-5 4-7 7-10l3-5a45 45 0 0 0-8-10l-7-4c-3-2-6-3-7 0l-11 23a31 31 0 0 1-5 8l-22 23-31 37-9 10a19 19 0 0 1 0-7l2-10 2-5 4-6-2-1v1l2-6c3-9 6-17 11-25 4-9 5-17 4-26 0-6-4-9-8-11-4-3-5-2-7 1-7 12-11 25-16 37l-13 42a48 48 0 0 0-1 26c-3 5-6 10-14 13l6-11h-2l-10 14 5-1-12 15-1-1 7-9-1-1-16 18c-2 3-7 3-7 0l-3-18 2-12 3-5 1-1a8 8 0 0 0-3 0l1-8 1-3 3-7-1-3 6-27a100 100 0 0 1 3-11l3-8 3-9v-5c4-6 5-12 7-19l8-25 2-5 7-21 7-19c2-7 7-14 6-22 4-3 4-8 5-11l3-6 4-11a6 6 0 0 1 2-2c4-3 10 1 15-4l1 1c4 1 7-1 8-5l-23 3v-1c4-1 7-5 12-4l7-1c3-1 6-3 8-1h3l15-2h6l16-2 2 3-46 5 3 2 32-2a235 235 0 0 1 24-1l20 2c7-1 13 3 19 4 3-4 3-8 0-12l2-5-1-1c1-7-5-7-9-7l-15-1a5 5 0 0 1 0-2c-4 3-7 3-9 0l-5 2-34 2-4 3c-1 2-3 3-6 1l4-2v-1l-10 1v1l4 1v1l-16 2a30 30 0 0 1 4-1v-2l-14 2v1h6v2l-8 1a10 10 0 0 0 1-3l-5-1a36 36 0 0 1 2-6l17-46 3-12c0-5-1-10-7-11-3 0-5-2-7-3-5-2-9 0-9 6a22 22 0 0 1-1 5l-8 21c-2 5 0 11-5 16l-1 2c3 4-1 8-2 11l-8 23-4 6c-2 2-5 2-7 3a60 60 0 0 1-9 1v-1l-8 5c-3 1-6-1-9-1 0 5-3 7-10 6l8-3c-4-2-15 2-18 4l-5 2a16 16 0 0 1-3 2 10 10 0 0 1 4 0v2a36 36 0 0 1-7 0l-1 2h-9l-4 2-16 5c-6 1-12 4-18 7l-18 11-13 7-3 5a52 52 0 0 0 4 10c1 2 3 3 5 1 6-4 11-9 17-12l16-8 30-14 23-8 12-4c3 0 5-1 5-3l30-5-3 3-1 9a2244 2244 0 0 1 0 1l5-13 3-5h1l-4 15-4 9c-3 9-5 18-9 26l-7 22-10 29-2 4c1 2-2 5 2 5v3l-4-2-2 8c-1 5-4 11-4 16 1 4 0 7-1 10l-1 2v-11h-1a12 12 0 0 1 0 4h-4c4 2 3 5 2 8l-4 15v7h-2l-2 12h-1c1 0 2 1 1 4l-1 1-4 13-3 4 4-22a22 22 0 0 1 2 0l-1-4v1l8-29a85 85 0 0 0 1-10l10-27h-1l-13 42-9 34-5 23-1 14v-4l-3 4c2 1 3 2 1 5l-3 4-4 3c-3-1-4 1-5 3l-11 14-2 2h-1c0-8 0-17 2-26l5-22 7-29c2-9 4-19-4-25l-12-11-5 8 2 1-2 5-9 13c-2 3-3 3-5 0-2-4-3-9-8-12l-16-13-3 1a72 72 0 0 0-8 11 2208 2208 0 0 0-43 85 144 144 0 0 0-7 22c-1 7 0 14 4 19l4 9c4 8 14 12 22 3l6-8 14-17 7-10 4-5 16-28 2-7a14 14 0 0 0 2 1l7-13a35 35 0 0 1 1 5l-1 8 1 6c-3 10 0 19 1 28 2 10 7 17 12 25 3 5 11 8 16 4a86 86 0 0 0 11-12l9-14 1-2a28 28 0 0 0 4 5 84 84 0 0 0 7 5c3 3 6 6 10 7 7 2 14 2 20-4 4-4 10-6 11-13l1-1 7-11 8-13 3 5a18 18 0 0 0 8 7c6 2 18-7 21-15a27 27 0 0 1 4-7c3-4 7-7 6-12l2-2a73 73 0 0 1 4-8 57 57 0 0 1 4-5l4-4 8-15h2l-1 8 1 10c2 8 4 17 9 24 5 6 9 11 16 14 6 2 12 1 19-2l6-3 1 4a7 7 0 0 1 0 4c-2 4 0 6 3 8 2 1 5 1 6 3 2 3 4 1 6-1l1-2c4-3 5-5 4-10a8 8 0 0 1 1-4 73 73 0 0 1 2-8l5-14 7-18 8-15 9-20 1-3 2-2h-1a57 57 0 0 1 4-8c3-4 3-10 8-11l2-2 1-4c1-3 2-7 7-9l1 5a79 79 0 0 0 1 9 19 19 0 0 0 8 12c1 2 4 2 5 1ZM947 509h-17c5-3 14-3 17 0Zm-28-7 11-1v1l-11 1v-1Zm-149 38c2-2 7-5 10-5l13-5c-3 4-14 9-23 10Zm30-10h-1a19 19 0 0 1-4 0v-1l3-1 4-3 2 4a13 13 0 0 1-4 1Zm30-9a37 37 0 0 1-9 3v1a107 107 0 0 1-11 3l-3-1v-2l20-5c2 0 3-2 4-4l2 1-3 4ZM686 753h-2l-6 9a20 20 0 0 1-5 3c1 4-7 15-14 19v-7l12-21 2-3c1-10 7-17 12-24l8-14 10-13 1 1c1 8 4 16-1 25Zm37-38v-1l-1 2c-2 7-8 14-12 21 0 2-3 3-4 5l-9 13a10 10 0 0 1-4 4l1-4 10-16 6-8 7-11 7-13 6-10 1 1c-2 6-3 12-8 17Zm49 24h-1l-1 7-1 2 2-19c2 3 2 6 1 10Zm18-26h-1l3-10h1Zm15-54-6 21a92 92 0 0 1-4 11c2-13 6-26 11-39 1 2 0 4-1 7Zm46-132-4 10v-1h-1l4-10Zm-4-35c0 6 0 12-4 17v-1h-1Zm-67 250h-1l1-2v2Zm0-10 1-6 2-3-1-1 8-33 11-36 16-51 10-26 8-25a149 149 0 0 1 7-18c-3 15-10 30-15 45l-16 47 1 1 2-2 3-6 12-34 9-26a5 5 0 0 1 2-2l-2 8-6 18-8 21-9 25-7 21-2 3 2-8a6 6 0 0 0-1 1c2-5 6-10 5-15h-2l-5 16h1c-4 7-9 22-10 30l-9 33-5 19Zm97-14h-1l-1-1 4-5 2-3c-1-5 3-4 6-4-4 4-5 10-10 13Zm20-23a57 57 0 0 1-4 6l-3 2-2-3-2 1-2-1 5-5c4 1 6-2 9-4l1 1a9 9 0 0 1-2 3Zm58 34v1l1-4-1 3Zm41-56a4709 4709 0 0 0 0 0ZM1050 661ZM1186 651c5 0 7-4 8-8ZM1182 664l-5 5-9 8-9 6-1-1 10-9-3 1-12 8-20 16-10 8c-2 2-7 0-6 6a7 7 0 0 0-2 0l-11 7c-8 6-17 11-26 13-3 0-7 2-9-2-4-8-2-17 1-26l4-16a39 39 0 0 1 2-7l5 4c4 4 11 5 15 1l27-29c5-6 12-11 13-20v-1c6-4 6-10 8-14 2-5 1-12 0-18-2-8-9-13-16-18a11 11 0 0 0-13 0l-20 13a76 76 0 0 0-14 14l-14 23c-3 3-4 8-6 12l-12 23-4 14a42 42 0 0 0 1 31c5 11 10 22 20 30 7 5 14 10 24 9a74 74 0 0 0 12-4 59 59 0 0 0 11-7l4-4 21-16c3-2 7-5 8-9 1-5 5-6 8-10l4-4 13-18 2-3 9-9 6-9-1-2a35 35 0 0 0-5 4Zm-99-2h-1l6-11a12 12 0 0 1 2-3c3-3 5-6 4-9 3-3 6-5 7-8 3-7 9-12 15-17a140 140 0 0 1 11-9c3-2 4-1 4 2-1 8-4 16-10 23l-6 9-6 5-15 14-12 11-1-1 2-6Zm69 26c-1 2-3 2-5 0l5-1v1ZM238 832c3 5 2 12-3 17l-12 15a44 44 0 0 1-9 10l-14 11c-3 3-6 5-10 5a9 9 0 0 0-2 1 10 10 0 0 1-11-3 16 16 0 0 0-3-4c-1 4-5 6-4 10l6-3 2-1v4a79 79 0 0 1-7 7l-3 1a32 32 0 0 0-1 5c0 2-1 3-3 2-6 0-9-5-8-11 1-2 1-4-1-6a14 14 0 0 1-3-10l-1-9c0-4 0-8 3-12a5 5 0 0 0 0-2 6 6 0 0 1 2-6l1-6a10 10 0 0 0 2-3 28 28 0 0 0 1-5 31 31 0 0 0 2-4l4-15a36 36 0 0 1 3-7l5-8a5 5 0 0 1-1-1l5-5h-3l3-6a7 7 0 0 1 1 2l2-5-3 2a49 49 0 0 1 7-16 11 11 0 0 0 1 2l1-4a5 5 0 0 0-1 0c2-9 2-10 4-11l3-11c1-3 3-5 3-9a45 45 0 0 1 2-7 2 2 0 0 1 3-2c5 2 10 3 13 7a4 4 0 0 1 1 1c0 3 0 6-2 8l-7 19-6 14-3 9c-4 4-3 9-6 14l-4 12-4 8-4 10-3 6-3 11-4 13v2a57 57 0 0 0 4-5l3-5 5-8 10-11c1-5 5-6 8-9 6-5 13-10 21-9 4 0 8 3 11 4l2 4 4 4Zm-84 36a101 101 0 0 0 4-13l-1-1a66 66 0 0 1-1 6l-2 8Zm6-20h1l3-7h-1l-3 7Zm5 4 3-8h-1l-4 8 1 1Zm4-22 2-6c-2 1-3 3-2 6m1 9 6-16h-1l-6 16 1 1Zm8-22-4 12 1-1 4-11h-1Zm48 15v-3a9 9 0 0 0-2 1c-7 2-12 8-17 12a39 39 0 0 0-5 4 93 93 0 0 0-5 8l-11 14-7 12h2l15-11a40 40 0 0 0 5-4l7-7 4-4 8-11 6-10ZM312 811l1 4-2 9-3 12c0 3-1 7-3 10l-2 4c-2 7-3 13-6 19l-3 11-2 7a28 28 0 0 1-2 4l-2 7-1 1-3 2a15 15 0 0 0 3 0l-6 7a11 11 0 0 0 1 2l3-6h1l-1 4-4 8-1 3-2 5a31 31 0 0 0-3 5v3a48 48 0 0 1-2 5l-3 4a10 10 0 0 0-1 2l-3 7-3 2c1 2-1 4-3 5a2 2 0 0 0-1 1c-1 2-2 4-4 3 1 3-1 5-3 6a28 28 0 0 0-4 3c-4 4-9 7-15 8-6 0-12 0-17-3-7-5-12-11-16-18a18 18 0 0 1-2-7l2-5a10 10 0 0 1 1 1c-2 6 1 9 4 12l1 2 5 4a40 40 0 0 0 18-3l3-1a3 3 0 0 0 2-1l13-11c-3 6-8 8-12 12v1l2-1 11-11a153 153 0 0 0 12-19l7-17 8-22 7-18 8-26 4-17 4-10a5 5 0 0 0 0-2l-1-1-4 8a43 43 0 0 1-3 4l-2 4-5 10-13 19-5 9a16 16 0 0 0-1 4c-1 4-4 6-6 9a4 4 0 0 1-7 0c-2-2-5-4-6-7-4-6-5-12-3-19a130 130 0 0 1 2-14l7-23 1-8 3-8 2-5c0-3 3-4 5-3 2 2 5 4 4 8v1c2 6 0 12-2 18l-2 8-4 11-5 21v2l11-14 7-11c1-1 1-3 3-2a30 30 0 0 0 3-4l1-1h1l-15 22h1c14-18 25-37 36-58-7 7-10 16-15 23a154 154 0 0 1 15-27l-1-1a16 16 0 0 0-2 2l1-2c1-1 1-2 3-2s2 1 2 2l6 5 2 1v11Zm-91 157a4 4 0 0 0 1-1l-1-1h-10c2 2 7 4 10 2Zm64-78 4-11h-1l-2 7-2-1v1c2 1 1 3 0 4l-6 18a227 227 0 0 1-12 30 56 56 0 0 1-4 6 4 4 0 0 1-2 2 4 4 0 0 0-3 2 28 28 0 0 1-3 5l3-9-11 14-13 12c8-3 13-9 19-16l1 1-4 5 1 1 9-13 1 1c1 3-3 4-3 7l1-1 5-8 6-12 8-20 5-10 4-12Zm-17 32-4 8 1 1 4-8h-1Zm15-32-15 40h1l15-40-1-1Zm-11 22-2 8 3-8-1-1Zm7-81 3-5v1l-3 4m7 47 2 1 2-9-4 8m3-1 12-39h-1l-4 13-4 14-4 12h2Zm2-15-1 7 2-7h-2Z" class="cls-1"/></svg>