<?xml version="1.0" encoding="UTF-8"?>
<svg id="Layer_1" data-name="Layer 1" xmlns="http://www.w3.org/2000/svg" viewBox="0 0 409.93 260.52">
  <defs>
    <style>
      .cls-1 {
        fill: #fff;
      }
    </style>
  </defs>
  <path class="cls-1" d="m147.42,53.35c-.1-.83-.47-1.6-1.04-2.21-1.37-1.2-2.8-2.31-4.3-3.35-.34-.22-.7-.41-1.08-.57-.14.43-.43.87-.44,1.28-.31,1.81-.49,3.61-.67,5.82-.33-.4-.68-.77-1.07-1.12-1.2-1.24-2.54-2.46-4.32-2.26-2.32.26-4.53,1.46-6.35,3.45-2.9,3.29-5.44,6.87-7.59,10.7-1.42,2.48-2.84,4.96-4.12,7.57-1,1.89-1.73,4.02-2.59,6.04-1.15,2.45-2.16,5.03-2.21,7.64-.03,1.23.08,2.45.06,3.69-.07,3.29.69,5.95,3.24,7.86,2.15,1.54,5.3.65,6.84-1.04,3.35-3.52,6.16-7.39,9.24-11.15,1.43-1.66,2.57-3.55,3.39-5.58.72-1.86,2.12-3.52,3.25-5.15l.41-.05c-.15.57-.3,1.13-.45,1.69-.45,2.1-1.32,4.25-1.38,6.31-.04,1.79-.75,3.23-1.33,4.8-.16.26-.25.55-.29.86-.16.98-.05,2.07-.48,3.06-1.31,3.57-2.88,7.03-4.32,10.61-.58,1.44-.75,2.96-1.32,4.39-.86,2.15-2,4.19-3,6.36s-1.73,4.43-2.87,6.48c-1.7,2.93-3.8,5.76-5.78,8.71-.56.75-.85,1.6-1.41,2.35-1.12,1.49-2.38,2.86-3.64,4.24-2.23,2.3-4.47,4.74-7.49,5.89-1.93.76-3.86,1.8-5.78,2.14-.97.16-1.96.24-2.95.23-.02-.15-.04-.3-.04-.46-.12-.69-.51-1.59-.23-2.03.85-1.19,1.01-2.3,1.04-3.53.02-.96.18-1.94.2-2.9.2-3.04.4-6.07.75-9.26.96-.38,1.12-1.36.87-2.42-.11-.26-.15-.53-.12-.81.17-1.52.47-3.06.65-4.73.16-.98-.23-2.03.88-2.97.42-.46.44-1.41.59-2.12.33-2.5.66-5,.98-7.5.16-.84.18-1.94-.22-2.44-.67-.75-.39-1.05.17-1.66.42-.46.98-1.07.99-1.61.17-1.25.32-2.09,1.96-2.42.69-.08,1.38-.98,1.81-1.7.14-.15-.39-.78-.66-1.16-.41-.6-.9-1.15-1.46-1.62.49-.39.95-.8,1.38-1.25-.69-.35-1.08-.57-1.35-.67.3-1.26.6-2.26.76-3.23.16-1.25-.49-2.82.08-3.71,1.41-2.35,1.19-4.79,1.79-7.18.15-.43.02-.82.03-1.24,0-.55-.11-1.08.17-1.52,1.41-2.35,1.6-4.69,1.66-7.44-.31.24-.63.46-.97.65l-.41.04,1.27-1.78.4.37c.64-4.18,1.27-8.36,2.05-12.55l-1.63-.37c2.07-.77,1.82-2.25,2.12-3.52v-.41l.59-8.28c.18-2.07.36-4.14.41-6.21.05-2.47-.03-4.93.02-7.4l.56-.75c.04-2.07.23-4.14.13-6.04-.1-1.19-.35-2.36-.74-3.48-.52-1.04-1.04-1.94-2.83-1.74-1.64.18-3.26-.46-4.62-.72-.82.09-1.5.02-2.19.24-.48.1-.91.34-1.24.69-.28.3-.29.85-.44,1.42.41-.18.83-.37,1.38-.56,0,.55.12.95-.03,1.24-.99,1.61-1.98,3.23-3.11,4.86-1.69,2.52-3.52,5.04-5.21,7.56l-1.69,2.65c-.99,1.62-1.73,3.34-2.83,4.7-2.53,3.29-5.32,6.34-6.9,10.21-.86,2.01-2.27,3.8-3.4,5.71-2.55,4.25-5.23,8.52-7.91,12.78l-3.39,5.3-.85,1.32-.4-.37,6.62-11.13c-.05.34.05.68.29.92.85-1.46,1.7-2.93,2.55-4.39l-.41.04c-1.33,1.6-2.04,2.47-2.31,3.07l-.35-.31c-.44.44-.82.95-1.12,1.49-1.55,2.5-3.11,5.13-4.66,7.63-.43.73-.99,1.34-1.41,2.07-1.56,2.76-3.11,5.55-4.54,8.3-.57,1.16-1.96,2.27-1.04,3.81-.04.22-.14.42-.29.58-1.55,2.36-2.42,5.06-4.65,6.94-.28.17-.29.72-.43,1.15-.15.69-.17,1.38-.45,1.97-1.41,2.35-2.96,4.71-4.52,7.07-.31.34-.69.61-1.11.81-2.2.79-4.4,1.44-6.59,2.09-.82.23-1.51.58-2.34.81-2.88.59-5.89,1.06-8.77,1.78-5.76,1.46-11.53,3.05-17.29,4.65-3.84,1.11-7.69,2.21-11.53,3.45-2.31.79-2.62,2.19-1.16,3.97l1.59,2.29c.52.9,2.15,1.55,3.38,1.27.55-.06,1.09.16,1.63.23.41.09.95.31,1.36.12,3.29-.91,6.45-1.8,9.74-2.72l11.52-2.93c4.12-1,8.23-2,12.62-3.03-.33.51-.61,1.04-.85,1.6-.29.58-.43,1.15-.72,1.86-1.89-.89-1.93,1.04-2.36,1.9-3.14,6.5-6.14,12.99-9.01,19.48-.96,2.32-1.79,4.7-2.47,7.12-.29.85-.46,2.1.9,2.36,1.77.35,3.55-.39,5.08-1.52,1.25-1.09,2.37-2.45,2.68-4.14.17-.94.47-1.84.88-2.7,1.73-3.47,3.56-6.96,5.27-10.44l2.13-3.93c1-2.03,2.13-3.93,3.13-5.96,1-2.16,1.87-4.45,2.74-6.6.43-1.15,1.13-1.91,2.23-2.16l5.76-1.46c2.07-.5,4.11-.87,6.17-1.5,2.74-.71,5.49-1.7,8.24-2.42,3.29-.91,6.58-1.68,9.87-2.59,3.02-.75,6.04-1.62,9.19-2.52v.69c-.81,5.7-1.75,11.42-2.55,17.12-1.12,7.78-2.11,15.55-3.11,23.31-1.39-1.19-2.35-2.8-2.76-4.59-.51-1.73-1.29-3.42-.29-5.44.28-.58.02-1.24.04-1.92l-.41.04c-.44,1.42-.88,2.83-1.32,4.25-.15.49-.16,1.01-.03,1.51.89,2.78,1.51,5.72,2.96,8.16.4.69.82,1.36,1.26,2.04-.57,4.22-1.1,8.43-1.73,12.65-.32,2.36-.78,4.74-.97,7.09-.22,3.72-.3,7.43-.51,11.15-.02.69-.03,1.38-.04,2.07-.07,2.88-.26,5.78-.19,8.65,0,.82-.59,2.12.77,2.52.28-.58.58-1.57.85-1.6,1.64-.18,2.49-1.78,3.87-2.34,1.51-.71,1.96-2.13,2.26-3.4.45-1.97.5-4.03.67-5.96.22-3.72.43-7.44.79-11.18,0-.8.3-1.58.86-2.15.69-.76,1.82-2.11-.08-2.73-.14,0-.13-.26-.13-.4.44-1.42.07-3.16,1.86-4.17-.82-1.13-1.12-2.38-.91-3.32l.97.42h.02c.49.21.98.43,1.46.67,1.89.89,4.08.65,6.13.15,1.65-.46,3.31-1.46,4.95-1.78,3.7-.82,6.48-3.32,9.26-5.81.56-.47.98-1.07,1.54-1.54l.8.73c.56-.75.98-1.34,1.4-1.94,1.7-2.78,3.39-5.58,5.36-8.26.69-.9.71-1.31.17-1.66,1.12-1.49,2.25-2.85,3.23-4.33,1.69-2.38,1.76-5.52,4.12-7.71.14-.15,0-.41,0-.55.44-1.42.35-2.91,1.86-3.9.42-.32.69-.9.98-1.34l-.4-.37-1.24.55-.4-.37c.69-.62,1.38-1.25,2.36-2.04-.42-.15-.82-.33-1.21-.55.42-.46.83-.78.98-1.2.86-1.73,2.12-3.24,2.16-5.31,0-.55.44-1.28.86-1.87,1.68-2.24,2.01-4.88,2.2-7.36.18-2.21,2-4.19,1.38-6.45,0-.14.28-.44.43-.73.17-.33.31-.66.43-1.01.16-.97.45-1.97.61-2.94.32-2.23,1.32-4.39,1.38-6.72.06-2.47.79-5.02,1.52-7.43.89-3.11,1.09-6.14,1.04-9.28l.8.73c-.09-2.99-.3-5.98-.51-8.97Zm-51.62,47.03l.82-.09c-1.1,6.83-2.2,13.66-3.45,20.92v.14c-.4-.5-.67-.75-.66-.89,1.09-6.69,2.19-13.39,3.29-20.08Zm-.31-10.92c.17-1.38.35-2.76.63-4.18.47-2.65.93-5.31,1.54-7.97.3-1.54.88-3.11,1.33-4.66.15-.69.03-1.38.18-2.07.46-2.38.92-4.75,1.38-7.13l.51-.06c-.16,1.38-.32,2.76-.6,4.17-.48,3.07-1.09,6.14-1.7,9.23-.31,1.67-.76,3.37-1.06,5.04-.31,1.95-.49,3.89-.94,5.72-.15.69-.58,1.3-.86,1.88l-.41.04Zm-2.48,32.45c-.95,5.87-1.35,11.65-2.56,17.53h.14l-.82.09c.81-5.84,1.61-11.68,2.42-17.52l.83-.1Zm-2.99,18.54l.41-.04c-.08.72-.17,1.45-.25,2.17-.2-.04-.4-.09-.59-.14.15-.8.29-1.47.43-1.98Zm5.7-23.63l-.27.03-.41.05c1.08-5.6,1.2-11.22,2.68-16.73l.82-.09c-.94,5.58-1.88,11.16-2.82,16.74h0Zm6.58-26.74v-.14c-.93-.99-.76-2.79.5-3.89-.17,1.25-.33,2.5-.5,4.03Zm4.79-32.15l-1.12,1.21c.96-.1,1.91-.07,1.2,1.24l.4.5-1.22-.28c-.15.69-.3,1.27-.45,1.97l.82-.09.4.37c-.28.17-.55.2-.83.36-.83.5-.99,1.48-.32,2.09.27.28.41.67.39,1.06,0,.83-.06,1.66-.19,2.48-.47,2.29-1.07,4.55-1.78,6.77,0-.41.02-.82.03-1.24l-.41.04c-.29.58-.57,1.16-.86,1.88,1.9.47,1.06,1.8.48,3.11-.12-.67-.24-1.34-.37-2.01l-.41.04c-.02,1.1-.04,2.2-.07,3.29l-.56.35v.28c1.36.4.92,1.54.49,2.42-.71,1.45-1.56,2.76-2.55,4.53,2.33-13.13,4.65-25.98,6.98-38.83.62,2.64-1.22,5.72-.05,8.47Zm-3.61-22.2l.41-.04c-.15.98-.31,1.95-.47,2.93l-.41.04c.16-.97.32-1.95.47-2.93Zm2.09-2.01c1.32,2.18-1.67,26.61-2.68,29.18.89-9.54,1.79-19.36,2.68-29.18h0Zm-2.61,32.33c.48,3.11-3.19,21.57-4.59,22.96,1.54-7.83,3.06-15.39,4.59-22.95h0Zm-.61-15.82c-.17,1.38-.32,2.36-.48,3.34-.81-.45-.78-1.83.48-3.33h0Zm-2.01-26.89l.14-.29.4.37c-.69,1.17-1.41,2.35-2.12,3.66-.14-.2-.32-.37-.54-.49.71-1.17,1.41-2.2,2.12-3.24h0Zm-3.24,4.74v-.41l1.22.28-.45,1.69-.82.09c.02-.56.03-1.09.04-1.64h0Zm-2.11,2.83v.28c.14-.43.97-.66,1.52-.99l.4.37-2.11,3.11-.41.04c.15-.97.18-1.93.6-2.79h0Zm-8.89,13.85c.43-.87,1.13-1.63,1.69-2.37s1.38-1.38,1.82-2.12c.85-1.46,1.56-2.91,2.28-4.36.28-.58.43-1.28,1-2.03l1.2,1.51c-.38.16-.75.34-1.1.53-1.13,1.77-1.58,3.59-3.25,5.01-1.25,1.09-1.84,3.07-2.69,4.67-.71,1.31-.99,1.62-1.67,1.55.29-.99.45-1.83.87-2.56l-.14.15Zm-1.84,2.94l.81.32c-.15.56-.3,1.13-.45,1.69.37.02.73.07,1.09.16-.42.46-.69,1.04-.98,1.07-.41.04-1.08-.43-1.08-.57.15-.84.58-1.57.87-2.42l-.27-.25Zm-5.6,6.65l.13.12c.85-1.19,1.69-2.24,2.53-3.29.28-.3.69-.49.97-.79l.38,1.19c0,.14-.14.29-.14.43q.24,1.61-.31,1.81l-2.07.63c-.55.2-1.1.4-1.78.61.15-.3.16-.57.29-.72Zm.52,1.17l.13.26c.26.5.48,1.03.65,1.57-.69.49-1.25.82-1.8,1.16l-.4-.37c.42-.73.85-1.47,1.42-2.63h0Zm-3.08,3.63l-.13-.12.42-.46c.27.38.67.75.66,1.16-.02.82-.18,1.66-1.14,1.9l-.38-1.19.96-.11-.39-1.19Zm-.06,2.61l-.14.02c-.03,1.38-1.38,1.25-1.95,1.99-.23-1.76.04-2.06,2.09-2.01h0Zm-6.43,7.28l.13.12c.82-1.47,1.71-2.89,2.68-4.26.37-.47.85-.84,1.38-1.11-.44.98-.83,1.98-1.16,3-.15.57.11,1.22.23,1.89-.4-.23-.81-.46-1.48-.79.26.66.39,1.05.65,1.73-.95-.44-1.76-.76-2.07.78l-.4-.37c.02-.29-.11-.69.03-.98h0Zm-.85,1.32v-.14l.52,1.04c-.97.79-.3,1.54-.32,2.23,0,.55-.43,1.14-.72,1.73l-.41.04c0-.41,0-.82.03-1.51-.57.21-1.12.45-1.65.73.85-1.46,1.56-2.64,2.55-4.12h0Zm-3.41,6.13v.14q.39.78-2.15,4.75c-.38-.92.9-3.8,2.15-4.9h0Zm-3.52,4.91l.13.26.4.37c-.05,2.34-1.59,3.87-3.11,5.41-.13-.12-.27-.24-.4-.37l2.97-5.67Zm8.06,18.42l-.13-.26c-4.67,1.34-9.32,2.26-13.98,3.32v-.41c.42-.32.69-.76,1.11-.81l15.65-4.18c3.15-.76,6.3-1.38,9.45-2,.55-.06,1.09.29,1.9.48-4.82,1.89-9.47,2.54-14,3.86h0Zm9-6.06h-.14c-4.12,1.14-8.24,2.42-12.35,3.55-2.34.67-4.66,1.2-7,1.73-.41.04-.81-.05-1.64.04,12.94-24.43,28.29-47.07,43.8-69.72l.41-.04c-.03,1.1-.05,2.19-.07,3.29-.05,2.07-.09,4.12-.27,6.19,0,.55-.16,1.11-.17,1.66-.47,2.93-.95,5.87-1.28,8.9,0,.55.25,1.07.24,1.62-.18,1.94-.35,3.87-.67,5.69-.63,3.91-1.26,7.81-1.89,11.71-.15.69-.17,1.38-.46,2.1-.14.43-.56.75-.98,1.2,1.49.52.23,1.89.07,2.87-.78,4.61-1.7,9.23-2.62,13.85-.25.67-.75,1.22-1.4,1.52-4.53,1.35-9.06,2.52-13.59,3.84h0Zm9.06,41.32c.32-2.23.78-4.49,1.1-6.69.47-2.93.95-5.87,1.28-8.77.5-3.89.99-7.91,1.62-11.82.31-1.81.76-3.64,1.21-5.48l.45-1.69.41-.04c0,.41.12.81.11,1.08-.33,2.5-.79,5.01-1.12,7.51-.48,3.21-.82,6.39-1.3,9.59-.94,5.72-1.88,11.44-2.69,17.14-.31,2.07-.36,4.11-.54,6.16h-.04l-.22-.45c0,.12-.02.23-.03.35-.36-.15-.7-.32-1.04-.51.31-2.16.49-4.28.8-6.39Zm-3.68,37.36l-.41.04c-.15-.24-.23-.51-.26-.79.35-3.45.83-6.94,1.32-10.42.18-1.8.49-3.62.66-5.41.19-2.62.25-5.23.58-7.87.06-.61.13-1.22.22-1.83.38.52.79,1.04,1.21,1.53-.17,1.57-.35,3.15-.57,4.73-.82,6.25-1.64,12.5-2.45,18.75-.04.43-.14.86-.3,1.27Zm2.54-3.71l-.41.04c.34-2.91.67-5.82,1.01-8.74l.41-.04c-.33,2.91-.67,5.82-1.01,8.74h0Zm2.09-14.6v-.14c-.29-.51-.28-2.58-.11-5.01.16.15.31.31.48.46.04.04.08.07.12.11-.16,1.49-.33,3.02-.49,4.58Zm34.05-29.21l-.41.18c-.57,1.16-1.27,2.19-1.85,3.35-.28.58-.17,1.38-.58,1.84-1.96,2.13-2.16,5.3-4.8,7.25-1.53,1.26-2.39,3.41-3.66,5.2-.4.61-.87,1.17-1.4,1.66-.53.35-1.15.56-1.78.61,6.14-6.29,9.45-14.18,14.23-21.15l.41-.05c.02.38-.04.75-.16,1.11h0Zm3.99-7.97l-1.28,2.61c-.27.23-.54.44-.83.64-.12-.53-.39-.91-.25-1.2l1.28-2.6c.24-.19.52-.32.83-.37.14,0,.27.38.26.52v.41Zm1.42-2.76l-.82.09c.29-.72.58-1.44.87-2.15l.41-.04c-.29.71-.58,1.43-.87,2.15l.41-.05Zm-10.42-28.84h-.14c.58-1.43,1.04-2.99,1.87-4.45,3.11-5.55,6.38-11.11,9.64-16.67,1.28-2.19,3.22-3.77,5.3-5.24.97-.66,1.94-1.31,3.32-2.28-3.93,11.54-11.35,20.43-19.99,28.64h0Zm12.34-11.99l5.72-9.72c.13.12.27.24.4.37-1.57,3.41-3.63,6.56-6.12,9.36h0Zm6.42-10.62v.41l-.4-.37,1.73-4.3.41-.04-1.73,4.3Z"/>
  <path class="cls-1" d="m198.65,68.29c1.43-.21,2.56-1.33,2.79-2.76-.98.93-1.95,1.85-2.93,2.78l.13-.02Z"/>
  <path class="cls-1" d="m244.37,4.29l-.13-.12c-.27-.11-.4-.51-.67-.75-1.34-.95-1.73-2.83-3.61-3.3-1.36-.26-2.04-.19-2.48,1.23-.59,2.25-1.19,4.51-1.92,6.78-.89,2.97-1.9,5.82-2.78,8.79-.88,2.7-1.35,5.49-3.04,8-.37.61-.62,1.29-.72,2l-2.63,8.1c-.14.59-.33,1.16-.58,1.71-.72,1.59-1.57,3.18-2.29,4.77-.23.58-.34,1.19-.31,1.81,0,.41.12.81-.02,1.1-.4,1-.87,1.97-1.43,2.89-.42.73-.97.79-1.23.13-.69.21-1.52.71-1.78.47-1.88-1.44-3.62-3.03-5.36-4.62-.93-.85-1.88-1.29-3.39-.99-2.33.53-4.14,1.96-5.81,3.52-4.59,4.2-7.59,9.59-10.7,14.73-3.25,5.29-6.1,10.67-8.28,16.38-.58,1.47-1.05,2.97-1.41,4.5-1.22.93-2.44,1.88-3.66,2.86-1.11.94-2.09,2.01-3.33,2.83-.83.5-2.32.12-2.23,1.89-.15.09-.29.2-.41.32-1.38.84-2.76,1.54-4.01,2.36-2.76,1.95-5.67,3.64-8.82,4.26-1.1.26-2.47.82-3.12-.61-1.3-2.87-.69-5.95.2-9.06.45-1.83.9-3.66,1.48-5.5.18-.73.43-1.44.73-2.13.53.49,1.21.82,1.73,1.31,1.2,1.38,3.65,1.51,5.05.13,3.21-3.23,6.56-6.47,9.49-9.95,1.68-1.96,3.91-3.85,4.24-6.77,0-.13.14-.29.28-.44,1.94-1.17,1.98-3.36,2.56-4.94.72-1.73.35-4.01,0-5.89-.61-3.08-3.17-4.72-5.45-6.38-1.33-.98-3.13-1-4.49-.05-2.35,1.36-4.7,2.71-6.78,4.44-1.85,1.46-3.49,3.16-4.89,5.05-1.83,2.39-3.38,5.03-4.94,7.67-.85,1.32-1.42,2.76-2.14,4.21-1.29,2.61-2.7,5.23-3.85,7.82-.72,1.58-.89,3.38-1.47,5.09-1.21,3.42-1.1,7.17.32,10.51,1.55,3.8,3.24,7.86,6.73,10.35,2.42,1.78,4.97,3.56,8.39,3.04,1.45-.3,2.88-.73,4.26-1.29,1.27-.6,2.47-1.33,3.59-2.18.55-.35.97-.93,1.53-1.4,2.36-1.9,4.72-3.67,7.08-5.57.9-.77,2.07-1.56,2.64-2.44.37.77.81,1.5,1.32,2.18.92,1.27,2.14,1.82,3.8,1.22,2.26-.84,4.29-2.19,5.95-3.94,1.95-2,4.44-3.64,5.59-6.37.14-.29.56-.47.83-.78l1.26-1.38c.98-1.2,1.83-2.53,2.94-3.61,2.79-2.76,5.44-5.66,7.56-9.05.28-.58.84-1.04,1.26-1.51l.4.37c-.59,2.26-.92,4.62-1.78,6.77-1.29,3.15-1.64,6.34-1.85,9.66-.19,2.62-.39,5.24-.17,7.82.21,2.99,1.24,5.61,2.69,8.06.69,1.22,1.78,2.16,3.08,2.67.41.07.83-.08,1.1-.39,1.28-2.33,2.42-4.65,3.7-6.98-1.08-.69-2.19.38-3.29.63-.82.23-1.9-.48-1.47-1.21.99-1.61.35-3.32.92-4.89.15-.57.44-1.28.31-1.54-.92-1.54.61-3.08.51-4.57-.12-.95.32-2.09.61-3.08.45-1.83,1.04-3.67,1.48-5.5.3-1.13.32-2.36.76-3.51,1.01-2.57,2.29-5.04,3.3-7.62.72-1.59,1.16-3.28,1.75-4.99s1.3-3.43,1.61-5.24c.46-1.75,1.13-3.44,2.02-5.01.81-1.76,1.49-3.57,2.03-5.43,1.16-3.14,2.19-6.4,3.35-9.54.58-1.84,1.44-3.58,2.16-5.3.72-1.86.77-3.92,2.57-5.35.14-.15.15-.56.29-.85.72-2,1.32-4.12,2.17-5.87,1.23-2.44,2.16-5.03,2.76-7.7.47-2.23.65-4.03-1.66-4.87Zm-81.4,67.52l-.14.29c.57-1.3,1.28-2.6,1.99-3.92.14-.37.33-.72.57-1.04.98-1.07,1.96-2.13,1.29-3.15,1.11-1.08,2.36-1.77,2.65-2.76,1.01-2.58,3.11-4.17,5.04-5.9,1.28-1.08,2.63-2.09,4.02-3.03.83-.64,1.24-.41,1.21.55-.2,2.9-1.35,5.49-3.31,7.9-.84,1.05-1.55,2.36-2.39,3.41-.56.61-1.38.97-2.07,1.6-1.67,1.55-3.35,3.25-5.02,4.8l-4.17,3.75-.4-.37c.28-.72.43-1.42.72-2.14Zm53.84-16.98l.41-.18c-.29.58-.57,1.16-.86,1.73l-.81-.32c.28-.58.57-1.16.85-1.73.13.12.4.36.4.5Zm-3.65,4.65c-1.9-.48-2.48,1.23-3.32,2.15-.84,1.04-1.42,2.35-2.13,3.52l.4.37,4.2-4.98.4.37c-1.54,1.81-3.08,3.62-4.49,5.42-1.49-.25-2.19.38-3.04,1.7-.85,1.19-2.09,2.15-3.21,3.23-1.95,1.99-3.9,3.85-5.59,5.95-1.55,1.93-3.53,3.22-5.25,4.85.69-1.01,1.38-2.03,2.07-3.04l.84-.91c.98-1.07,2.07-2.01,3.07-3.21.84-.91,1.41-2.07,2.11-3.11l-.4-.37c-.59.33-1.14.72-1.66,1.14v.14c-.56.47-1.11,1.08-1.67,1.55l-2.07,1.75,1.11-2.15c.71-1.17,1.28-2.47,1.99-3.64.69-1.04,1.68-1.83,2.38-2.73.56-.75.99-1.61,1.55-2.36,2.11-2.83,4.22-5.66,6.46-8.38,1.38-1.66,3.45-2.3,5.52-2.94.67-.23,1.37-.4,2.07-.5.37,0,.73.05,1.09.15-.14.29-.15.69-.3.99-.69,1.04-1.4,1.94-2.25,3.12.51.14,1,.32,1.49.52-.55.6-1.12,1.48-1.39,1.38Zm.58,4.59c-.13-.12-.27-.24-.4-.37l2.11-3.11.4.37-2.11,3.11Zm2.92,22.55l-.28.03c-.28.3-.83.78-1.53,1.4-.23-2.16.75-3.37,2.42-4.24-.16.7-.31,1.54-.61,2.81Zm2.93-9.5h.14c0,.13-.69.21-1.38.42-.44,1.28-.88,2.84-1.32,4.39-.11.26-.25.51-.42.73-.14,0-.55-.08-.54-.21-.13-.12-.12-.53,0-.55,1.11-.81.3-1.4.32-2.09.43-1.28.87-2.56,1.17-3.83.45-1.69,1.28-2.47,3.06-2.53-.26,1.24-.6,2.46-1.01,3.66Zm6.72-20.59l-.14.29c-.21.39-.5.75-.84,1.04-.83.5-1.25.96-.45,1.69q-1.65.73-.86,2.01c.13.36.12.75-.02,1.1-.62,1.05-1.33,2.04-2.11,2.97l1.23-.13-1.73,4.3c-.23.74-.52,1.46-.86,2.15-.14.29-.69.49-1.11.8-.77-2.38.1-4.39.96-6.56,1.29-3.15,2.45-6.3,3.88-9.19.56-.47,1.11-.94,1.81-1.57-.41-.11-.82-.25-1.22-.41,0-.69.02-1.23.04-1.92.51-.05,1.02-.15,1.5-.3-.13-.54-.3-1.07-.51-1.59.48-.2.94-.43,1.38-.69.08,2.2.18,4.11-.96,6.01Z"/>
  <path class="cls-1" d="m212.03,165.95c.42-.46.83-.64.97-.93l.52-1.6c-.42.15-.73.29-1.04.42l.4.37c-.25.35-.59.71-.86,1.07,0,.22,0,.45,0,.67Z"/>
  <path class="cls-1" d="m193.76,204.26c-1.16,3.01-2.31,6.01-3.61,9.32,1.66-.87,4.27-8.43,3.61-9.32Z"/>
  <path class="cls-1" d="m188.98,217.53v-.14c-1.02,2.85-2.03,5.56-3.04,8.41,1.67-1.29,3.83-7.01,3.04-8.28Z"/>
  <path class="cls-1" d="m200.4,186.68l-.41.05c-.43,1.15-.87,2.29-1.3,3.43l.41-.05c.43-1.14.87-2.28,1.3-3.43Z"/>
  <path class="cls-1" d="m215.16,146.43c-1.04,3.13-2.04,5.98-3.05,8.83,1.39-1.25,3.57-7.51,3.05-8.83Z"/>
  <path class="cls-1" d="m210.44,157.09l-.13-.12c-.3,1.12-.59,1.98-.88,3.11,1.53-1.26,1.67-1.69,1.02-2.98Z"/>
  <path class="cls-1" d="m217.83,136.28l-.41.05-.81-.32c-.29.85-.59,1.7-.87,2.56l.81.32,1.28-2.6Z"/>
  <path class="cls-1" d="m196.6,198.6l-.81-.32c-.72,1.73-1.44,3.45-2.16,5.18l.81.32,2.16-5.18Z"/>
  <path class="cls-1" d="m212.3,152.77l-.41.05c-.13-.12-.27-.24-.4-.37-.43,1.15-.87,2.29-1.3,3.43l.4.37,1.71-3.48Z"/>
  <path class="cls-1" d="m224.24,123.66l-1.33,4.66.82-.09c.44-1.55.89-3.11,1.33-4.66l-.81.09Z"/>
  <path class="cls-1" d="m218.34,163.88c.59-1.98,1.04-3.95,1.49-5.92,0-.13.14-.29.14-.43.43-1.14.87-2.28,1.3-3.56.29-.72.85-1.6,1.15-2.59.44-1.69.75-3.37,1.2-5.06.45-1.97,1.04-3.95,1.62-5.93l-.41.04,1.25-.96c-.19-.27-.42-.52-.67-.75.57-1.04,1.27-1.92,1.56-2.76.59-2.26,1.05-4.63,1.65-6.9.04-.3.13-.59.29-.86.58-1.57,1.29-3.16,1.73-4.71.59-2.12.91-4.35,1.64-6.48.29-.99.58-1.71-.64-2.12,1.95-1.86,2.27-3.95,2.58-6.04.29-.71.71-1.58.59-2.12-.26-.79.02-1.1.71-1.45.14,0,.28-.17.42-.32-.16-.14-.3-.31-.4-.5.16-.83.03-1.51.31-1.95,1.12-1.49,1.43-3.17,1.88-4.86.74-2.82.8-5.71,2.07-8.45.86-1.73,1.04-3.81,1.35-5.76.16-1.12.32-2.37-.07-3.28l-1.62,1.28c-.65-1.44-2.42-1.51-4.21-1.18-1.23.28-2.6.69-3.96.03-.54-.35-1.5.03-2.32.26-.14,0-.16.84-.17,1.38.09,2.18.32,4.35-.82,6.66,2.34-.67,1.28-2.6,2.13-3.8,1.32,1.91.19,3.81-.39,5.52.69-.08,1.38-.29,1.5-.03.27.38.25,1.07.38,1.6l-1.78.19c.41.48.75.89,1.18,1.34-.04.19-.08.37-.11.55-.28.07-.56.12-.84.15.17.53.41,1,.54,1.46-.07.38-.12.74-.18,1.1l.19-.02c-.2.53-.65,1.04-.77,1.59-.59,2.39-1.19,4.79-1.66,7.3-.15.84-.57,1.16-1.38,1.25l-1.23.13v.55l-.28.03c-.3,1.13-.59,2.26-.89,3.38l.41-.04c.25-.94.5-1.88.74-2.82v.41c.38-.4.8-.77,1.25-1.1.12.53.52,1.04.38,1.47-.16,1.25-.6,2.53-.9,3.8-.76,2.56-1.51,5.1-2.25,7.63-.29.99-.45,1.97-.88,2.84-.57,1.04-.31,1.81-.06,2.61.36-.41.61-.91.71-1.45.3-1.27.6-2.67,1.04-3.95.74-2.68,1.61-5.25,2.48-7.81.43-1.15.73-2.27,1.16-3.42.14-.29.69-.62.97-.52.41.09.94.58.94.72-.58,1.57-1.04,3.26-2.01,4.61s-2.1,2.42-1.73,4.14c1.5.11.8,1.01.51,2-.4-.15-.77-.39-1.08-.69-.29.86-.58,1.57-.72,2.14.26.52.79,1.15.65,1.44-.99,1.89-.09,4.12-1.89,5.69-.12.21-.18.45-.15.69-.15.69-.17,1.38-.31,1.95-.18.87-.43,1.72-.73,2.55-.15.69-.17,1.38-1.27,1.78-.09.04-.18.08-.27.13.42-1.31.86-2.63,1.31-3.94.29-.72.71-1.45,1.14-2.32-.3-.2-.61-.39-.93-.56-.14.43-.43.87-.57,1.3-.87,2.56-1.75,5.12-2.62,7.68l-1.76,5.52c0,.14.13.26.26.52.55-.2,1.1-.39,1.24-.41v.28c.17-.81.32-1.57.47-2.3.26-.12.56-.27.95-.46-.73,2.13-1.45,3.99-1.89,5.82-.44,1.42-.47,2.79-2.26,3.4.35.1.72.15,1.09.16-.73,2.27-1.46,4.41-2.19,6.56s-1.4,4.33-2.11,6.5c.14-.05.3-.1.47-.16-.44,1.69-.88,3.25-1.33,4.81h-.13l-.41.04c-.26-.66-.65-1.44-.5-2.14.09-.26.22-.51.4-.72-.07-2.07-.54-3.91,1.08-5.2.32-.64.56-1.31.72-2,.29-.72.99-1.75.73-2.13-.66-1.16.05-2.2.48-3.21.57-1.29,1.28-2.6,2-4.05-.81-.32-1.5-.11-1.93,1.04-1.02,2.99-2.04,5.98-3.05,8.97-.88,2.7-1.89,5.41-2.76,8.11-1.31,3.84-2.48,7.67-3.8,11.51-1.04,2.99-2.04,5.98-2.92,8.95-.29.99-.32,2.07-.61,3.08s-.86,1.88-1.15,2.87c-.29.86-.45,1.69-.73,2.55-.33.89-.71,1.75-1.15,2.59-.43,1.01-.46,2.11-1.7,2.93-.69.49-.86,1.87-1.29,2.88.54.08.81.18,1.36.26-.42.73-.71,1.31-1,1.89,0-.55.02-1.1.03-1.65-.42.59-.71,1.58-.45,1.69,1.61,1.06.24,1.76-.46,2.52,0-.41,0-.82.02-1.24-.84.91-1.54,1.81-1.15,2.86.13.26,0,.69-.16.98-.29.72-1.26,1.38-.73,2.27.13.12-.43,1-.57,1.04-1.78.06-1.38,1.52-1.69,2.38-1.16,3.28-2.18,6.56-3.35,9.82-1.01,2.71-2.3,5.45-3.45,8.18-.14.43-.56.75-1.12,1.36.45-1.69.74-2.96,1.04-4.36-2.05-.05-1.67,1.69-2.25,3.11-.26-.52-.39-.78-.39-1.04-.62-2.8-1.25-5.61-1.73-8.57-.61-3.35-1.08-6.72-1.56-10.09-.35-3.11-.55-6.24-.89-9.35-.21-2.85-.43-5.7-.64-8.56-.1-1.77-.35-3.52-.3-5.31-.04-4.38.05-8.77,0-13.15.02-.96-.23-1.89-.21-2.85.03-1.38.35-2.78.35-4.14.04-1.78-.35-3.53-.3-5.31.05-2.33.37-4.56.56-6.9.17-1.66.07-3.29.1-4.94.22-4,.58-8,.8-12,.18-2.21.09-4.4.14-6.59.06-2.76.39-5.52.45-8.28.09-4.26.04-8.5,0-12.73,0-.82.04-1.92-.5-2.27-2.95-2.42-6.49-2.84-10.47-1.45-.33.27-.57.63-.69,1.04l-2.59,6.44c-.61,1.49-1.14,3.01-1.6,4.56-.43,1.28-.6,2.53-.9,3.8-.15.57-.57,1.16-.72,1.73-.59,2.12-1.04,4.22-1.77,6.36-1.16,3.14-2.45,6.3-3.61,9.44-1.45,4.14-2.76,8.38-4.22,12.52-2.18,6.13-4.49,12.27-6.39,18.51-1.9,5.96-3.53,11.89-5.15,17.82-1.04,3.8-1.94,7.59-2.83,11.41-.6,2.53-1.34,5.08-1.66,7.71-.65,4.87-1.16,9.72-1.67,14.57s-.61,9.66.79,14.15c.63,2.26.72,4.83,2.59,6.42.54.49,1.76.9,2.45.55.96-.38,1.67-1.41,2.5-2.19.14-.15,0-.41,0-.55-.12-.95-.23-1.89-.35-2.84-.22-2.3-.72-4.57-.69-6.9-.03-3.58.15-7.17.53-10.73.35-3.33.82-6.67,1.3-10.01.35-2.64.79-5.29,1.26-7.94.31-1.68.62-3.35,1.06-4.91s1.04-3.11,1.46-4.68c.44-1.42.88-2.84,1.32-4.25.43-1.28,1.15-2.73,1.04-3.95-.11-1.36.6-2.53.76-3.78.03-.43.13-.86.3-1.27l1.73-4.3c.29-.58.85-1.19.71-1.59-.24-1.48.35-2.76.91-4.21,1-2.3,1.73-4.71,2.61-7.13l.43-1.28c.3-1.13.46-2.24.89-3.25.87-2.29,1.87-4.59,2.74-6.88.15-.56.02-1.23.31-1.81.71-1.59,1.7-3.2,2.29-4.91.72-2.14,1.32-4.39,2.05-6.66.11-.68.31-1.35.59-1.98.72-1.73,1.57-3.45,2.29-5.32.14-.42.02-.96.17-1.38.33-.75.71-1.48,1.14-2.18l1.28-2.6.41-.04c-.61,15.81-1.21,31.63-1.83,47.71.69-.49,1.1-.67,1.66-1,.12.67.25,1.2.37,1.88-.69-.2-1.09-.29-1.62-.51-.16.59-.26,1.2-.31,1.81.07,3.42.13,6.83.35,10.23.17,4.77.48,9.53.79,14.29.31,4.62.62,9.24,1.07,13.85.22,2.44.58,4.87,1.08,7.28.48,2.96,1.24,5.89,1.86,8.83.24,1.2.22,2.58.74,3.61,1.45,2.44,2.76,5.04,5.32,6.53.54.35,1.5.24,1.76.62.92,1.54,2.56,1.5,4.05,1.88.95.17,1.64-.32,2.21-1.2l3.8-5.35c.14-.29.29-.58.43-.87l3.02-7.32c.86-2.01,1.73-4.03,2.45-6.16l3.05-8.97c.73-2.27,1.46-4.54,2.33-6.83l2.58-7.28c.44-1.28.87-2.56,1.17-3.83.29-.99.45-1.97.74-2.82.44-1.28,1.01-2.58,1.58-3.87.54-1.26.89-2.59,1.04-3.95,0-.27.42-.59.56-.88.14-.15.14-.29.28-.44l-.8-.73c1.98-3.11,2.28-4.36,2.05-6.39.38-.56.71-1.14.99-1.76.43-1.14,1-2.3,1.44-3.45.72-1.86,1.44-3.72,2.03-5.56.59-1.56,1.17-3.13,1.61-4.69Zm7.32-56.4h0l.41-.04-.41.04Zm8.49-7.94c-.46,3.11-.76,4-2.51,4.24.32.22.62.46.9.72v.41c-.63.08-1.27.11-1.91.08.72-1.73,1.29-3.29,2.01-4.88.14-.28.95-.37,1.51-.58h0Zm-2.88,13.46l.41-.04c-.16.84-.31,1.68-.46,2.52l-.82.09c.29-.84.59-1.69.88-2.54v-.02Zm-7.78,25.92l.82-.09-.87,2.56-.42.46-.41.04c.3-.98.59-1.96.89-2.95v-.02Zm-3.34,1.35c.16-.73.31-1.45.49-2.13.03-.12.07-.24.11-.35l.04.07c.62.96.4,1.77-.63,2.43v-.02Zm-84.11,77.36c.48-3.47.96-6.68,1.45-10.29,1.06,1.52-.05,8.9-1.45,10.29Zm2.27-10.79c-.93-.85-.1-1.9.06-2.88.15-.69.44-1.42.59-2.12.3-1.26.6-2.53.9-3.8.16-.4.27-.83.3-1.27,0-.28,0-.55.02-.82l1.09-.12.1.19-2.24,10.73-.82.09Zm3.07-10.9s0-.08-.02-.12h.04l-.03.12Zm-1.33,12.34l-.28.17-.41.04c.59-1.98,1.17-3.97,1.76-5.95l.41-.04c-.86,1.87-.22,3.98-1.49,5.78h0Zm1.3-12.52c-.1-.69-.2-1.44-.3-2.37l.98-1.07c.14,0,.27.11.41.09-.42,1.11.19,2.38-1.08,3.34h0Zm.79,3.94l-.41.04c.74-2.68,1.48-5.37,2.21-8.05l.41-.04c-.74,2.68-1.48,5.36-2.22,8.05h0Zm8.54-29.57l-.41.04c.57-1.43,1.15-2.86,1.73-4.3l.41-.04-1.73,4.3Zm12.11-37.35l-.14.15-3.47,9.42c-.58,1.57-1.29,3.15-1.87,4.73-.58,1.73-1.04,3.4-1.61,5.11-.58,1.57-1.29,3.02-1.87,4.59-.44,1.42-.6,2.8-1.04,4.22-1.17,3.55-2.61,7.13-3.77,10.7-1.75,5.4-3.23,10.76-4.83,16.15-.37,1.26-.81,2.49-1.33,3.7-.4-.51-.8-.87-.79-1.15.3-1.27.73-2.42,1.04-3.67.74-2.68,1.48-5.36,2.35-8.07.59-1.85,1.44-3.58,2.03-5.43s.76-3.8,1.48-5.64c1.31-3.84,2.89-7.59,4.2-11.42,1.6-4.56,3.06-9.1,4.65-13.66,1.02-2.99,2.31-6.01,3.45-9.01,1.44-3.45,2.88-6.9,4.31-10.35,0-.13.14-.29.28-.44l.41-.04c-1.14,3.44-2.3,6.84-3.47,10.12h0Zm8.39,35.49c-1.22-.28-1.17-2.76.37-4.7l-.51,4.58.13.12Zm1.22.14c.09,2.46.18,4.64.27,6.82-1.18-2.47-1.25-5.2-.27-6.82Zm23.35,43.97v-.14l-.41.04c.15-.69.3-1.4.6-2.39,1.48,1.21.1,1.77-.19,2.49h0Zm3.28-7.08v.28c-.29.99-1,2.03-1.56,3.05-.14.15-.42.32-.56.47l-.41.04.88-2.97c.44-1.28.88-2.56,1.31-3.84-.01-.2.04-.4.15-.56.38-.4.8-.77,1.25-1.1,0,0,.4.37.4.5-.14.43-.43.87-.72,1.59.93.86-.45,1.69-.74,2.54Zm2.07-5.22c-1.09-.54-.82-1.24-.41-1.81.25-.15.53-.23.82-.23-.16.64-.29,1.29-.43,2.04h.01Zm1.38-3.24l-.14.29c-.28.17-.95-.45-1.49-.66,1.1-.53,1.79-.88,2.48-1.24l.41-.04c-.42.59-.71,1.31-1.26,1.65h0Zm1.29-3.02v.14l-.41.05c-.12-.53-.52-1.04-.38-1.47s.83-.78,1.25-1.24l.4.37c-.29.72-.58,1.44-.86,2.15h0Zm6.23-17.53v-.14c-.43,1.28-.6,2.67-1.17,3.83-.71,1.45-1.7,2.79-1.32,4.53,0,.14-.28.45-.42.73-.42,1.04-.9,2.05-1.43,3.04-.43.87-.59,2.12-2.22,1.75.73-2,1.45-3.86,2.17-5.72.15-.26.25-.55.29-.86.03-1.38.35-2.64,1.73-3.47.28-.17.42-.59.84-1.05-.44.26-.9.49-1.38.69.48-3.62,1.05-4.64,2.82-4.42-.26-.52-.39-.78-.53-1.04l-.39-.78.83-.5c.28-.17.56-.47.83-.64l-1.21-.26c.46-2.38.73-2.55,2.78-2.5-.74,2.27-1.47,4.54-2.2,6.81h0Z"/>
  <path class="cls-1" d="m231.48,103.82l.17-.02c-.05-.04-.11-.08-.17-.11v.14Z"/>
  <path class="cls-1" d="m268.08,172.51l-.06.08.06.05v-.13Z"/>
  <path class="cls-1" d="m278.11,124.2c.82-2.47,1.73-4.94,2.62-7.42-.64,1.63-1.27,3.25-1.88,4.87-1.89,5.41-3.64,10.95-5.66,16.37-.58,1.73-.76,3.37-1.47,5.09l.1-.04.47-1.38c1.89-5.83,3.79-11.65,5.82-17.5Z"/>
  <path class="cls-1" d="m266.16,166.74h.17c-.07-.02-.14-.04-.22-.06.02,0,.04.03.05.06Z"/>
  <path class="cls-1" d="m360.24,151.01v.3c.01-.1.01-.2,0-.3Z"/>
  <path class="cls-1" d="m359.18,153.02c.53-.44.89-1.04,1.04-1.7-.36-2.57-.38-5.17-.06-7.74.17-2.37-.78-4.67-2.56-6.24-1.21-1.1-3.11-1.46-4.78-1.83-.56-.17-1.69.19-2.03.69-1.04,1.24-1.73,2.67-2.55,4.11l-1.38,2.52c-.92,1.45-1.96,2.92-2.89,4.49-.69,1.23-1.31,2.5-1.87,3.8l-.35-.3c.3-1.26.66-2.5,1.09-3.72.48-1.51,1.07-3.04,1.66-4.57.23-.47.58-.96.59-1.53.15-1.93-.26-3.45-2.04-4.27-1.22-.54-2.2-1.67-3.65-1.96-.61-.05-1.22.02-1.8.2-.11,0-.13.91-.14,1.38.05.38.04.76-.02,1.13-.37,1.5-.85,3.02-1.33,4.53l-2.91,10.44c-.12.47-.47.95-.59,1.42-.13.69-.03,1.46-.27,2.17-.72,2.21-1.77,4.36-2.26,6.56-.77,2.97-1.38,5.93-1.95,8.88-.78.52-1.57,1.01-2.36,1.49-2.07,1.33-4.02,2.91-6.48,3.18-1.38.15-2.18-.31-2.02-1.42.31-1.81.62-3.63.93-5.44.93-5.31,3.08-10.35,4.83-15.46.29-.86.99-1.75,1.01-2.58.04-1.78,1.15-2.59,2.39-3.55.42-.32.98-1.34.85-1.6-.77-1.25-1.71-2.39-2.79-3.38-.67-.61-1.62-.92-2.42-1.51-1.07-.84-1.89-.89-2.46.13-1.28,2.61-2.43,5.33-3.72,7.94-.44.91-1.01,1.76-1.69,2.52-2.37,2.73-5.02,5.35-7.4,8.08-3.64,4.22-7.14,8.59-10.77,12.82-.98,1.2-2.23,2.16-3.34,3.25-.08-.79-.02-1.58.19-2.35.3-1.13.46-2.38.76-3.51.15-.51.31-1.04.48-1.53.46-.72.92-1.44,1.38-2.15l-.4-.37c-.07.09-.13.18-.19.27.26-.69.51-1.38.77-2.07,1.15-2.87,2.03-5.84,3.59-8.47,1.7-3.06,1.76-6.08,1.69-9.09-.1-1.9-1.57-2.97-3.05-3.91-1.21-.82-1.49-.66-2.34.67-2.27,4.08-3.86,8.37-5.31,12.77-1.6,4.7-3.2,9.39-4.66,14.21-.93,2.94-1.02,6.08-.26,9.07-1.18,1.67-2.26,3.58-4.81,4.58.71-1.45,1.28-2.61,1.85-3.77l-.41.04c-1.12,1.5-2.25,2.99-3.65,4.79.82-.23,1.09-.26,1.78-.47-1.54,1.95-2.8,3.59-4.06,5.24l-.4-.37c.84-1.05,1.68-2.1,2.52-3.15l-.41-.35-5.46,6.35c-.69.9-2.48.96-2.59,0-.37-2.15-.87-4.29-.82-6.48.09-1.3.23-2.61.42-3.91.38-.56.78-1.11,1.2-1.66.14-.15.14-.29.28-.58-.33.03-.66.11-.96.24.12-1.01.24-1.95.35-2.86.08-.4.17-.81.25-1.21l.02.04c.42-.73,1.12-1.49,1.14-2.18.07-.61-.16-.88-.5-1.04.67-3.11,1.38-6.24,2.07-9.36.31-1.34.7-2.66,1.17-3.96.29-.99.59-1.99.88-2.84.29-.99.86-1.87,1.15-2.86.15-.57-.25-1.21.03-1.65,1.14-2.18,1.59-4.42,2.32-6.69.88-2.97,1.9-5.82,2.91-8.67.15-.56.57-1.04.71-1.58.73-2.42,1.47-4.83,2.34-7.25.73-2.27,1.73-4.44,2.33-6.69.6-2.53,2.28-4.91,2.21-7.64,1.25-1.1,1.15-2.59,1.58-3.87.29-.72.85-1.32,1.14-2.04.43-1.14.73-2.42,1.17-3.55.16-.31.4-.57.69-.76,1.66-1.14,3.68.14,5.35-1.41,0,0,.13.26.27.24,1.36.26,2.46-.27,2.62-1.52l-7.79.86v-.41c1.38-.29,2.49-1.65,4.12-1.28.81.19,1.77-.06,2.59-.29.97-.38,1.8-1.04,2.74-.3.13.12.55-.06.82-.09,1.78-.2,3.56-.53,5.33-.73.69-.08,1.38,0,2.05-.09,1.78-.2,3.55-.39,5.33-.45.27-.03.53.49.93.86l-15.87,1.75c.26.52.66.89,1.07.84,3.69-.27,7.38-.69,11.07-.95,2.73-.17,5.46-.19,8.19-.08,2.32.02,4.62.72,6.95.46,2.46-.27,4.21,1.04,6.38,1.35,1.12-1.36,1.15-2.73.08-3.98l.59-1.85c-.13-.12-.27-.24-.27-.38.18-2.21-1.59-2.29-3.11-2.4-1.77-.21-3.54-.16-5.31-.23,0-.24.05-.47.15-.69-1.52.99-2.62.97-3.14.07-.55.2-1.1.53-1.65.59-3.96.3-7.92.47-11.88.77-.41.04-.97.52-1.25.96-.56.75-1.25.96-2.07.37l1.24-.55v-.41l-3.28.37v.41l1.22.28v.41l-5.33.59c.36-.2.73-.38,1.1-.53v-.41l-4.51.5v.41l2.04.18v.41l-3.01.35c.23-.26.42-.56.56-.88-.69-.06-1.22-.14-1.77-.21.13-.72.33-1.43.59-2.12,1.88-5.28,3.91-10.56,5.79-15.84.58-1.43,1.29-3.02,1.18-4.37-.1-1.49-.48-3.23-2.38-3.71-.95-.17-1.76-.63-2.57-.95-1.76-.76-2.86-.09-3.04,1.98-.04.57-.14,1.13-.31,1.68-.87,2.42-1.61,4.97-2.61,7.41-.72,1.73-.08,3.84-2.02,5.29-.14.15-.29.71-.16.84.92,1.4-.47,2.65-.76,3.92-.74,2.68-1.89,5.28-2.89,7.85-.29.71-.72,1.58-1.27,2.07-.69.49-1.65.59-2.47.82-.95.22-1.91.37-2.88.46v-.41c-.97.66-1.94,1.58-2.9,1.83s-2.04-.19-3.27-.32c.23,1.75-.73,2.42-3.18,2.13.96-.38,1.79-.75,2.76-1.13-1.35-.53-5.2.58-6.31,1.52-.42.32-1.1.4-1.65.59-.35.22-.72.4-1.1.53.42.02.84.11,1.22.28v.41c-.72.1-1.45.13-2.18.11-.14.15-.42.45-.56.61-1.23,0-2.18-.03-3.14-.06-.28.17-.69.76-1.11.8-1.91.21-3.45,1.48-5.49,1.7-2.19.24-4.4,1.58-6.47,2.63s-4.01,2.36-5.94,3.53c-1.52.86-3.17,1.58-4.69,2.57-.42.32-.98,1.2-.85,1.6.3,1.23.73,2.42,1.29,3.55.39.78.94.86,1.77.22,1.94-1.45,3.88-2.89,5.81-4.07,1.8-1.04,3.72-1.78,5.52-2.66,3.45-1.75,6.9-3.5,10.47-4.99,2.48-1.1,5.22-1.68,7.82-2.51,1.38-.43,2.76-1.12,4.14-1.41,1.09-.12,1.65-.46,1.79-1.04,3.43-.65,6.71-1.29,10.27-1.96-.56.61-.97.79-.98,1.07-.16.98-.04,2.07-.35,3.05-.85,2.37-1.73,4.75-2.6,7.12.88-2.24,1.76-4.49,2.59-6.71.58-1.43,1.01-2.85,1.59-4.28.29-.58.69-1.17.99-1.75l.41-.04c-.45,1.69-.89,3.38-1.47,5.09-.3,1.13-1,2.17-1.3,3.29-1.04,2.99-1.49,6.05-2.91,8.81-1.28,2.47-1.47,5.1-2.48,7.67-1.29,3.29-2.19,6.68-3.35,9.96-.14.43-.69.9-.69,1.17.12.67-.72,1.86.64,1.98,0,0,0,.55-.02.82l-1.35-.53c-.29.99-.45,1.83-.74,2.68-.45,1.83-1.58,3.87-1.34,5.49.24,1.34-.05,2.33-.35,3.45,0,.13-.14.29-.42.59.03-1.38.05-2.47.07-3.57l-.38.04c0,.38-.06.75-.16,1.11l-1.09.12c1.08.56.78,1.83.63,2.67-.31,1.81-1.04,3.53-1.48,5.36-.15.69-.03,1.38-.04,2.19,0,0-.27.03-.55.06-.3,1.4-.6,2.81-.91,4.21l-.24.03c.48.16.6.48.22,1.35l-.14.29c-.71,1.45-.89,3.11-1.32,4.67-.15.43-.69.76-1.12,1.22.46-2.52.92-5.03,1.38-7.68.29.03.55.06.76.11-.26-.37-.6-.84-.47-1.24v.28l2.67-10.15c.27-1.1.47-2.22.61-3.35,1.04-3.13,1.9-6.24,3.2-9.26l-.31.14c-1.58,4.68-3.15,9.46-4.49,14.22-1.17,3.97-2.21,7.91-3.11,11.85-.6,2.67-1.07,5.32-1.53,7.97-.26,1.58-.35,3.15-.45,4.72-.06-.52-.08-.89-.17-1.41-.42.73-.71,1.17-.99,1.61.81.32,1.21.69.38,1.46-.42.32-.57.89-.98,1.34s-1.12,1.22-1.38,1.11c-.95-.31-1.24.41-1.66,1l-3.8,4.94c-.28.3-.56.47-.83.78l-.41.05c.2-3.04.27-6.05.74-9.12.35-2.5,1.06-5.05,1.66-7.59.89-3.38,2.05-6.66,2.67-10.01.61-3.08,1.22-6.43-1.32-8.63l-4.43-3.62c-.57,1.04-.99,1.89-1.42,2.76l.4.37c-.15.57-.16,1.25-.45,1.69-.99,1.48-2.11,2.97-3.11,4.45-.69,1.04-1.25.96-1.77.06-.79-1.56-1.16-3.3-2.76-4.35-2.02-1.28-3.62-2.88-5.5-4.32-.27-.11-1.09,0-1.23.27-1,1.16-1.9,2.4-2.67,3.72-2.69,4.95-5.39,9.91-7.94,14.84-2.42,4.79-4.71,9.69-6.86,14.59-.98,2.44-1.76,4.95-2.34,7.52-.6,2.39-.24,4.68,1.09,6.59.66,1.04,1.04,2.07,1.57,3.11,1.3,2.87,4.83,4.14,7.48.95.69-.9,1.54-1.68,2.24-2.57,1.54-1.95,3.08-3.91,4.62-5.87.84-1.19,1.55-2.5,2.42-3.69.42-.59.98-1.2,1.4-1.8,1.84-3.08,3.68-6.16,5.52-9.37.42-.73.58-1.57.87-2.56.22.08.46.15.69.2.69-1.31,1.42-2.62,2.42-4.37.12.62.2,1.25.23,1.89,0,.82-.31,1.68-.32,2.5s.37,1.6.22,2.3c-.89,3.38.13,6.42.62,9.52.47,3.37,2.33,6.04,4.18,8.71,1.06,1.52,3.63,2.61,5.29,1.19,1.43-1.25,2.74-2.64,3.91-4.14,1.12-1.49,1.98-3.23,2.97-4.83.1-.18.21-.35.31-.52.45.64.98,1.21,1.57,1.73.73.64,1.49,1.24,2.28,1.8,1.21.82,2.28,1.94,3.63,2.34,2.17.58,4.62.72,6.85-1.31,1.38-1.38,3.32-2.28,3.64-4.51,0-.14.28-.31.42-.46.85-1.19,1.83-2.39,2.54-3.7.88-1.55,1.73-3.08,2.55-4.62.36.61.76,1.21,1.19,1.8.69,1.03,1.67,1.83,2.82,2.29,2.03.73,6.05-2.31,7.07-5.02.34-.9.82-1.73,1.41-2.49.98-1.2,2.37-2.18,2.27-3.95,0-.27.29-.58.43-.87.42-.9.9-1.78,1.42-2.62.48-.63.99-1.24,1.54-1.81.42-.46.98-.93,1.26-1.51.99-1.61,1.98-3.37,2.97-5.12l.41-.05c-.02.96-.04,1.93-.06,2.88-.02,1.1-.19,2.35.07,3.42.82,2.97,1.45,6.03,3.3,8.45,1.46,1.89,2.79,3.66,5.22,4.63,2.3.84,4.35.61,6.56-.59.69-.41,1.55-.67,2.22-1.09.1.52.19,1.04.25,1.58.14.39.17.82.09,1.23-.59,1.3.07,2.01.96,2.59.66.49,1.67.6,2.1,1.23.77.92,1.34.3,2.02-.22.23-.25.35-.6.58-.85,1.38-1.05,1.73-1.88,1.41-3.31-.1-.45-.09-.91.03-1.36.22-1.02.5-2.03.85-3.02.59-1.64,1.19-3.17,1.78-4.7.83-2.11,1.55-4.22,2.49-6.35.71-1.77,1.64-3.45,2.46-5.22l3.17-6.76c.15-.32.29-.65.43-.98.2-.24.41-.49.62-.75l-.26-.09c.4-.97.88-1.91,1.43-2.81.81-1.21.97-3.15,2.88-3.47.11,0,.35-.49.46-.72.12-.46.13-.91.25-1.38.48-1.29.95-2.58,2.54-3.32.1.67.2,1.21.3,1.77.07,1,.2,2,.38,2.99.27,1.78,1.25,3.37,2.71,4.42.44.4,1.45.62,1.9.33Zm-34.44-54.24l-.96.1-.27-.11c-1.22,0-2.46.14-3.68.13-.27.03-.54-.21-.95-.31,1.52-.99,4.66-.92,5.86.18Zm-9.64-2.34l3.71-.43v.41l-3.69.41c-.02-.14-.02-.28-.02-.39Zm-51.52,13.06c.62-.78,2.44-1.64,3.41-1.87,1.38-.29,2.76-.99,4.4-1.58-.82,1.28-4.83,2.92-7.81,3.45Zm10.4-3.45l-.27.03c-.55.04-1.1,0-1.64-.09v-.41c.41-.04.82.05,1.23-.13s.69-.62,1.38-1.25c.26.66.39,1.04.51,1.45-.38.19-.79.33-1.22.4h0Zm10.29-3.06c-1,.48-2.07.83-3.16,1.04v.14c-1.22.43-2.45.79-3.71,1.08-.41.04-.81-.19-1.22-.28v-.82c2.33-.53,4.66-.93,6.99-1.59.55-.2.97-.79,1.53-1.27l.4.37c-.27.44-.42,1.14-.83,1.34Zm-49.84,80.08l-.4-.23c-.69,1.04-1.55,2.07-2.38,3.14-.45.44-.97.82-1.52,1.12.25,1.21-2.42,5.2-4.77,6.56,0-.96-.23-1.89.06-2.6,1.14-2.32,2.55-4.67,3.83-7,.28-.44.69-.9.71-1.31.35-3.33,2.71-5.64,4.4-8.28.99-1.48,1.7-3.06,2.69-4.54,1.12-1.49,2.38-3,3.51-4.49l.4.37c.21,2.72,1.38,5.46-.59,8.42l-5.92,8.85Zm12.96-13.21v-.27c-.14.15-.42.32-.42.46-.74,2.68-2.83,4.83-3.97,7.29-.29.71-1.12,1.22-1.54,1.81-1.12,1.49-2.11,3.11-3.24,4.6-.34.53-.81.97-1.38,1.25.15-.57.16-1.11.44-1.56l3.39-5.31c.69-1.04,1.4-1.94,2.1-2.83.84-1.19,1.83-2.39,2.53-3.71.85-1.46,1.57-3.05,2.42-4.65.57-1.16,1.27-2.2,1.98-3.37.13.12.27.24.4.37-.72,1.99-.9,4.21-2.72,5.91Zm16.88,8.18l-.28.17c-.14.77-.29,1.54-.45,2.31l-.51.73c.26-2.24.51-4.48.77-6.72.94.99.64,2.26.48,3.51h0Zm6.33-9.05l-.41.04c.29-1.13.59-2.26.89-3.38l.41-.05c-.29,1.13-.59,2.26-.88,3.39h0Zm5.18-18.51c-.87,2.42-1.47,4.95-2.2,7.36-.4,1.27-.88,2.51-1.44,3.72.65-4.59,2.24-9.01,3.83-13.43.38.78.1,1.49-.2,2.35h.01Zm15.69-45.54c-.43,1.15-.86,2.29-1.3,3.43v-.41l-.41.04c.43-1.15.87-2.29,1.3-3.43.14.11.27.23.4.35h.01Zm-1.24-12.19c-.04,2.07-.09,4.12-1.49,5.91l.14-.42-.41.04c.58-1.85,1.16-3.7,1.74-5.55h.01Zm-23.37,86.25l-.3.03.44-.69c-.06.2-.1.41-.15.64v.02Zm.07-3.27h0c.16-.74.32-1.48.48-2.23.2-.29.41-.59.62-.88l-.35-.31-.02.03c.83-3.83,1.69-7.7,2.72-11.51,1.04-4.22,2.49-8.36,3.8-12.47,1.76-5.81,3.52-11.62,5.42-17.44,1.04-3.13,2.31-6.14,3.45-9.15,1.01-2.85,1.89-5.82,2.91-8.67.73-2.11,1.59-4.17,2.59-6.18-1.2,5.34-3.49,10.52-5.24,15.78-1.75,5.4-3.64,10.67-5.52,16.08.14,0,.27.11.41.23l.42-.59c.42-.59.98-1.2,1.27-1.92,1.31-3.84,2.62-7.82,3.93-11.8l3.05-8.97c.18-.35.48-.62.83-.78-.29.99-.45,1.97-.75,2.96l-2.17,5.99-2.61,7.27-3.02,8.53c-.73,2.42-1.47,4.83-2.34,7.25-.14.42-.56.75-.84,1.04.16-.84.45-1.69.74-2.82-.16.14-.31.3-.42.49.66-1.69,1.95-3.27,1.61-5.14l-.41.04c-.58,1.84-1.17,3.68-1.75,5.52l.29-.03c-1.28,2.22-3.02,7.55-3.65,10.26-.9,3.8-2.2,7.5-3.11,11.3-.54,2.29-1.04,4.58-1.5,6.86l-.84,1.27Zm33.39-5.03l-.14.15-.4-.37,1.26-1.79c.28-.3.69-.62.69-.9-.1-1.63.99-1.48,2.07-1.46-1.25,1.36-1.55,3.44-3.49,4.34v.02Zm7.11-7.65c-.48.63-.99,1.24-1.54,1.81l-.84.92-.79-1.14-.83.5-.4-.37c.56-.61,1.27-1.78,1.67-1.69,1.36.12,2.07-.91,2.89-1.55l.4.37c-.11.42-.3.81-.57,1.15Zm20.03,11.73l-.1.04c.13-.37.16-.95.35-1.29-.08.4-.17.82-.25,1.22v.02Zm14.19-19.34c-.19-1.44,3.99-8.65,5.47-9.49-1.86,3.23-3.61,6.23-5.47,9.49Z"/>
  <path class="cls-1" d="m360.22,151.31s0,.01,0,.02v-.02Z"/>
  <path class="cls-1" d="m407.01,147.88h.14c1.43-.22,2.56-1.33,2.78-2.76l-2.92,2.76Z"/>
  <path class="cls-1" d="m405.69,152.14v.14c-.56.47-1.11,1.08-1.67,1.55l-3.33,2.83c-.97.79-2.07,1.46-3.05,2.12l-.4-.37c1.11-.95,2.22-1.89,3.61-3-.55.06-.81-.04-.96.11l-4.14,2.93c-2.36,1.77-4.71,3.53-7.07,5.43-1.11.95-2.07,2.01-3.33,2.84-.83.5-2.32.12-2.22,1.89-.15.09-.29.2-.42.32-1.38.84-2.76,1.54-4,2.36-2.76,1.95-5.67,3.64-8.82,4.26-1.1.26-2.47.82-3.11-.61-1.3-2.87-.69-5.95.19-9.06.45-1.83.89-3.66,1.48-5.5.18-.73.43-1.45.73-2.14.53.49,1.21.82,1.75,1.31,1.2,1.38,3.65,1.51,5.04.12,3.21-3.23,6.56-6.48,9.48-9.95,1.68-1.97,3.9-3.85,4.24-6.77,0-.14.14-.29.28-.45,1.94-1.17,1.98-3.37,2.56-4.94.72-1.73.35-4.01,0-5.89-.62-3.08-3.17-4.72-5.46-6.38-1.33-.98-3.13-1-4.49-.05-2.35,1.36-4.69,2.71-6.78,4.45-1.85,1.46-3.49,3.16-4.88,5.06-1.83,2.39-3.38,5.03-4.94,7.67-.85,1.32-1.42,2.76-2.13,4.21-1.28,2.61-2.7,5.23-3.85,7.82-.71,1.58-.89,3.38-1.47,5.09-1.21,3.42-1.09,7.17.32,10.51,1.56,3.8,3.24,7.86,6.74,10.35,2.42,1.79,4.97,3.56,8.39,3.04,1.45-.31,2.88-.74,4.26-1.29,1.27-.6,2.47-1.33,3.59-2.18.55-.35.97-.93,1.53-1.4,2.36-1.9,4.72-3.67,7.08-5.58,1.11-.95,2.63-1.94,2.93-3.06.45-1.69,1.82-2.26,2.66-3.45.42-.6.98-1.07,1.4-1.66,1.54-2.09,2.95-4.16,4.36-6.23.28-.3.56-.61.83-.91.98-1.07,2.09-2.01,3.07-3.22.84-.91,1.41-2.07,2.11-3.11l-.4-.37c-.61.33-1.18.71-1.73,1.14Zm-34.22-.73l-.14.29c.57-1.29,1.28-2.6,1.99-3.92.14-.37.33-.72.57-1.04.98-1.07,1.95-2.14,1.29-3.16,1.11-1.08,2.36-1.77,2.65-2.76,1.01-2.58,3.11-4.17,5.03-5.9,1.29-1.08,2.63-2.1,4.02-3.05.83-.64,1.24-.41,1.22.55-.2,2.9-1.35,5.49-3.31,7.9-.84,1.06-1.55,2.36-2.39,3.42-.56.61-1.38.97-2.07,1.6-1.67,1.56-3.34,3.25-5.01,4.8l-4.17,3.75-.4-.37c.28-.7.43-1.4.72-2.12h0Zm23.94,8.99c-.54.84-1.18.82-1.93.19l1.94-.6v.41Z"/>
  <path class="cls-1" d="m79.84,210.12c1.21,1.79.75,4.03-.8,6.04-1.29,1.73-2.91,3.34-4.21,5.18-.86,1.24-1.89,2.34-3.08,3.27-1.61,1.35-3.23,2.7-4.85,3.97-1.02.78-2.12,1.49-3.37,1.55-.27.08-.52.19-.76.35-1.36.42-2.84-.02-3.75-1.12-.3-.43-.66-.81-1.06-1.14-.28,1.29-1.63,2.03-1.49,3.52.76-.5,1.36-.9,2.03-1.31.26-.11.76-.17.76-.08.07.41.31.97.14,1.16-.79.93-1.65,1.81-2.56,2.63-.17.19-.59.07-1.09.12-.11.56-.18,1.13-.2,1.7,0,.76-.27,1.04-1.11.96-2-.11-3.22-1.83-2.76-3.8.19-.86.2-1.61-.37-2.39-.72-.89-1.11-2-1.1-3.15.02-1.09-.37-2.14-.27-3.24.11-1.36.14-2.78.92-4.14.14-.26.2-.56.19-.86-.04-.68.25-1.34.79-1.76,0-.69-.22-1.4.3-2.13.24-.32.42-.68.52-1.06.17-.53.29-1.08.37-1.64.31-.54.58-1.1.79-1.68.45-1.64.82-3.36,1.36-5.01.3-.81.68-1.58,1.14-2.31.52-.98,1.12-1.88,1.73-2.87-.15-.05-.29-.12-.41-.2l1.73-1.87c-.5-.03-.75,0-1.08-.05.35-.62.69-1.17,1.12-1.89.06.22.08.44.07.67l.25-.03c.18-.52.35-1.04.62-1.73-.51.22-.76.35-1.18.55.51-1.9,1.34-3.69,2.46-5.3.09.19.2.38.32.55.18-.44.35-.79.53-1.23-.19-.04-.39-.05-.58-.02.82-3.11.99-3.55,1.5-3.85.36-1.38.56-2.58,1-3.72.44-1.05.96-2.03,1.16-3.15.17-.88.41-1.75.72-2.59.07-.41.45-.69.86-.62.08.01.16.04.24.08,1.57.58,3.24.98,4.38,2.28.12.17.2.36.24.56-.1.93-.12,1.86-.48,2.73-.8,2.19-1.76,4.31-2.65,6.5-.62,1.58-1.32,3.16-1.94,4.74-.44,1.05-.55,2.24-1.24,3.07-1.2,1.47-.99,3.21-1.94,4.74-.78,1.26-.98,2.79-1.51,4.19-.35.96-.88,1.94-1.31,2.91-.44,1.06-.8,2.18-1.24,3.24-.27.78-.69,1.5-.97,2.28-.36,1.21-.64,2.42-1,3.63-.45,1.47-.98,2.96-1.52,4.44-.09.18,0,.35-.02.84.49-.58.96-1.2,1.38-1.83.35-.54.61-1.07.96-1.61.61-.99,1.21-1.98,1.9-2.89,1.04-1.29,2.14-2.5,3.26-3.8h.08c.45-1.47,1.73-2.12,2.74-2.98,2.13-1.91,4.42-3.51,7.17-3.14,1.42.18,2.74.87,4.06,1.48.33.13.4.8.64,1.19.41.54.9,1.07,1.3,1.61l.18-.55Zm-28.84,12.57c.59-1.53,1.07-3.09,1.44-4.69,0-.08-.35-.21-.49-.37-.09.77-.22,1.54-.38,2.3l-.56,2.58v.17Zm2.16-6.88l.25-.02,1.06-2.38-.25-.23c-.35.79-.69,1.59-1.04,2.38l-.02.25Zm1.64,1.41c.36-.96.71-1.92,1.07-2.88l-.25.03c-.44.89-.88,1.77-1.31,2.66l.24.22.25-.03Zm1.26-7.77l.8-2.1c-.67.35-1.04,1.2-.8,2.1m.35,3.06c.71-1.84,1.42-3.68,2.13-5.52l-.25.03-2.13,5.52.24.22v-.25Zm3-7.46c-.45,1.3-.89,2.61-1.34,3.92l.25-.03c.45-1.31.89-2.61,1.34-3.92l-.5-.2.24.22Zm16.35,5.08c.17-.27.1-.6.1-.93-.29.02-.57.08-.84.18-2.27.92-3.98,2.7-5.78,4.33-.55.43-1.06.91-1.53,1.43-.71.85-1.37,1.73-1.98,2.65-1.2,1.64-2.42,3.28-3.53,4.92-.87,1.27-1.65,2.61-2.51,3.96.17,0,.42.04.59-.07,1.78-1.2,3.56-2.49,5.35-3.77.6-.38,1.16-.81,1.7-1.28.85-.77,1.62-1.6,2.39-2.44.43-.47.94-.95,1.38-1.49.95-1.19,1.89-2.47,2.76-3.74.69-1.08,1.3-2.16,1.91-3.23v-.5Z"/>
  <path class="cls-1" d="m105.64,203.09c0,.42.23.81.14,1.24-.19,1.04-.46,2.07-.65,3.11-.28,1.38-.48,2.82-.84,4.2-.28,1.12-.38,2.3-1.24,3.33-.35.37-.35.96-.53,1.48-.63,2.25-1.27,4.49-1.98,6.68-.35,1.21-1.06,2.46-1.17,3.65-.1.85-.45,1.56-.72,2.35-.25.47-.54.93-.87,1.35.32.72-.04,1.68-.47,2.57-.09.09-.35.12-.51.22-.25.2-.51.48-.93.86.36.03.73.01,1.09-.03-.77.84-1.46,1.58-2.23,2.34.16.25.35.48.57.69.35-.71.69-1.34,1.04-1.96l.25-.03c-.18.44-.27.87-.45,1.31-.44.89-.87,1.69-1.22,2.57-.18.35-.19.77-.35,1.13-.27.62-.61,1.16-.87,1.69-.31.54-.57,1.1-.79,1.68-.09.35-.1.69-.19,1.04-.2.63-.44,1.24-.71,1.84-.26.45-.6.91-.86,1.36-.15.25-.26.52-.35.79-.43.8-.79,1.59-1.22,2.4-.17.27-.59.4-1.02.61.32.8-.28,1.29-.96,1.78-.18.1-.3.26-.35.46-.18.69-.52,1.15-1.36,1.07.23.98-.28,1.46-1.04,1.88-.49.34-.96.73-1.38,1.15-1.53,1.26-3.14,2.36-5.07,2.57-2.18.24-4.17-.04-5.99-1.1-2.47-1.48-4.18-3.56-5.46-6.1-.34-.69-.55-1.43-.62-2.2,0-.59.45-1.22.71-1.92.07.16.12.32.16.49-.62,1.83.52,2.88,1.33,4.14.08.16.24.31.32.47.4.79.97,1.32,1.89,1.38,2.05.18,4.11-.11,6.03-.83.42-.13.84-.18,1.26-.31.26-.02.51-.14.69-.33,1.45-1.25,2.81-2.49,4.43-3.92-1.04,1.96-2.82,2.91-4.18,4.23v.25c.26-.11.51-.14.69-.35,1.28-1.23,2.73-2.39,3.76-3.85,1.54-2.12,2.93-4.34,4.14-6.66.96-1.87,1.59-3.86,2.38-5.8.96-2.46,1.92-4.92,2.89-7.38.8-2.1,1.51-4.19,2.23-6.28.98-2.96,1.97-5.92,2.87-8.87.54-1.99.92-3.96,1.46-5.95.36-1.21.81-2.44,1.17-3.65.08-.22.11-.46.1-.69-.08-.08-.17-.15-.25-.22-.52.89-.96,1.78-1.48,2.68-.29.47-.61.93-.95,1.36-.26.45-.69.91-.78,1.34-.2,1.45-1.14,2.56-1.84,3.73-1.3,2.15-2.85,4.25-4.23,6.42-.69,1-1.3,2.07-1.91,3.14-.16.39-.28.8-.35,1.21-.28,1.38-1.38,2.17-2.16,3.17-.46.65-1.36.79-2,.33-.06-.04-.12-.09-.17-.14-.82-.83-1.73-1.57-2.28-2.6-1.13-1.89-1.41-4.12-1.04-6.51.2-1.55.49-3.1.85-4.62.73-2.76,1.54-5.45,2.26-8.13.27-.95.38-1.89.65-2.84.27-.87.62-1.75.89-2.61.18-.61.45-1.22.62-1.83.19-1.04.95-1.45,1.77-.87.82.67,1.56,1.42,1.45,2.69v.25c.69,2.1-.09,4.2-.8,6.3-.35.88-.54,1.82-.81,2.69-.36,1.3-.81,2.6-1.17,3.9-.63,2.33-1.27,4.75-1.91,7.09,0,.09.08.24.15.65,1.38-1.66,2.57-3.13,3.7-4.68.95-1.19,1.73-2.54,2.58-3.72.26-.37.28-1.2,1.11-.88.31-.38.6-.77.86-1.19.17-.18.35-.37.51-.56l.24.22-5.18,7.61.25-.03c4.81-6.23,8.71-12.95,12.38-20.14-2.23,2.51-3.38,5.4-5.18,7.87,1.43-3.24,3.17-6.32,5.21-9.21l-.24-.22c-.21.12-.4.25-.59.4.09-.26.09-.35.18-.44.26-.45.52-.73,1.1-.69.5.03.49.35.74.67.57.61,1.31,1.04,1.97,1.54.25.14.58.35.57.61.14,1.24.2,2.49.25,3.74l-.03.39Zm-31.66,54.05c.13-.11.25-.23.35-.37-.08-.08-.17-.23-.35-.22-1.08-.05-2.17,0-3.26.02.49.62,2.48,1.07,3.25.65v-.08Zm22.38-26.78c.45-1.31.81-2.6,1.17-3.9l-.25.03c-.26.69-.53,1.4-.8,2.18-.25-.14-.41-.21-.66-.35,0,.25-.09.51,0,.5.66.35.32.89.14,1.41-.8,2.01-1.51,4.11-2.22,6.11-.45,1.31-.89,2.61-1.42,3.93-.88,2.11-1.85,4.23-2.81,6.35-.33.76-.71,1.51-1.13,2.22-.17.28-.45.49-.77.59-.54.04-1,.38-1.19.89-.3.51-.65,1-1.04,1.45l1.31-2.91-.25.03c-1.2,1.64-2.33,3.36-3.7,4.85-1.37,1.49-2.98,2.76-4.52,4.11,2.78-.98,4.66-3.28,6.63-5.52l.24.22-1.3,1.9.24.23,3.35-4.4.24.22c.15.99-1.12,1.46-1.22,2.4.17-.19.35-.29.43-.38.6-.9,1.2-1.73,1.73-2.62.78-1.43,1.56-2.85,2.26-4.36.97-2.2,1.85-4.4,2.73-6.59.53-1.23,1.06-2.46,1.5-3.69.53-1.4,1.06-2.8,1.51-4.19l-.23-.72Zm-6,10.99l-1.31,2.65.25.23c.43-.89.87-1.78,1.31-2.66l-.25.03v-.24Zm5.24-11.15c-1.77,4.55-3.54,9.11-5.31,13.66l.25-.03,5.31-13.67-.24-.22v.26Zm-3.83,7.63c-.27.87-.54,1.73-.81,2.6l.25-.03c.27-.87.54-1.73.81-2.6l-.25-.22v.25Zm2.53-27.87l-.24-.22,1.04-1.62.25.22c-.35.54-.69,1.08-1.04,1.62m2.32,16.18l.5.2c.27-1.04.55-2.07.82-3.11-.44.97-.88,1.94-1.32,2.91m1.01-.53l4.05-13.28-.25.03c-.46,1.48-.91,2.95-1.35,4.43-.46,1.56-.91,3.12-1.35,4.67-.37,1.47-1.23,2.82-1.35,4.26l.5-.06-.25-.06Zm.69-5.18c-.1.85-.2,1.7-.31,2.55l.56-2.58-.5.06.25-.03Z"/>
</svg>