<svg xmlns="http://www.w3.org/2000/svg" width="268" height="89" fill="none"><g fill="#fff" clip-path="url(#a)"><path d="M21.7 37.8a6.2 6.2 0 0 1-2 2.8c-.8.6-2 1-3.6 1.2l.2-.7v-.5c0-.5-.2-.9-.6-1.2a4 4 0 0 0-1.9-.4c-2 0-3.7 1.1-4.8 3.1-1.2 2-1.7 4.9-1.5 8.4.2 4 .9 6.9 2.3 8.7a6.6 6.6 0 0 0 5.9 2.8c1 0 1.9-.3 2.9-.6s2-.8 3.1-1.4v.6a4 4 0 0 1-2 3.9c-1.3.9-3.3 1.3-6.1 1.4-4.2.2-7.5-1-9.9-3.6A15.8 15.8 0 0 1-.2 51.6c-.1-4.6 1-8.4 3.4-11.2 2.5-2.9 5.8-4.3 9.9-4.5 1.5 0 3 0 4.4.4 1.6.2 3 .7 4.2 1.5ZM30.7 36.1h17.6c-.3 1.9-.8 3.2-1.6 4-.8.6-2 1-3.9 1.2l.2-.6.1-.3c0-.4-.2-.6-.8-.8l-2.6-.2c-2 0-3.4.1-3.8.4-.4.2-.6.8-.6 1.5v6.1h8l1.4-.4c-.5 1.6-1 2.6-1.4 3.1-.5.5-1.4.7-2.7.7h-5.3v7.8c0 .9 0 1.5.2 2 .2.3.4.6.8.7l1.2.4 2.7.1h3.3a29.3 29.3 0 0 0 5.1-.6 7.5 7.5 0 0 1-1.4 3.4c-.6.5-1.8.8-3.7.8H27.3a10.8 10.8 0 0 0 1-4.4V42.8c0-1-.2-1.8-.6-2.2-.4-.4-1-.7-2-.7.3-1.4.8-2.3 1.4-2.8.7-.7 1.8-1 3.6-1ZM54.7 36.2h5.5v.5l.1 1L61 39l8.8 14.3c.5.6.9 1.4 1.3 2.3l1.4 3h.3l-.5-2.5-.1-2.3V43c0-1.3-.3-2.2-.7-2.6-.4-.5-1.2-.7-2.4-.7H69a6 6 0 0 1 1.5-3c.6-.4 1.6-.6 3-.6h4.1c-.5.5-.8 1.3-1 2-.3.9-.4 2-.4 3.5V58c0 1.6.2 2.7.6 3.3.4.5 1.1.8 2 .8a4.8 4.8 0 0 1-1.3 2.6c-.5.4-1.6.7-3 .7h-5.1v-.7l-.1-.8-.3-.7-9.7-15.3-1.2-2.4-1-2.7h-.3l.3 3V58.5c0 1.3.3 2.2.8 2.7.5.4 1.3.7 2.5.7-.5 1.4-1 2.3-1.5 2.7-.6.4-1.6.7-3 .7h-3.7c.4-.6.6-1.3.8-2.2l.2-3.6V43c0-1.2-.1-2-.6-2.5-.4-.4-1-.6-2-.7.4-1.4.8-2.3 1.5-2.8.5-.4 1.4-.7 2.6-.7ZM106.8 35.8c-.6 1.8-1.3 3-2 3.5s-1.8.8-3.5.8h-1.7c-1.3 0-2.1 0-2.4.3-.3.3-.5.8-.5 1.5v16.8c0 1.3.1 2.2.5 2.6.4.4 1 .7 2.1.7-.4 1.3-.9 2.2-1.4 2.6-.6.4-1.5.7-2.9.7h-6.5c.4-.7.6-1.6.9-2.5l.3-3.3V41.8c0-.8 0-1.4-.3-1.6-.3-.3-1-.3-2.1-.3l-4.5.1c-1 .1-1.7.3-2.5.6a8 8 0 0 1 2-3.5c.8-.6 2-.9 3.6-.9l4.3.2 7.1.2c2.7 0 4.8 0 6.3-.2l3.2-.6ZM113.2 36.1h17.6c-.3 1.9-.8 3.2-1.6 4-.7.6-2 1-3.9 1.1l.3-.5v-.4c0-.4-.2-.6-.8-.8l-2.5-.2c-2.1 0-3.4.2-3.8.4-.4.2-.7.8-.7 1.5v6.2h6.8l1.2-.1 1.5-.3c-.5 1.6-1 2.5-1.5 3s-1.4.7-2.7.7h-5.3v7.8c0 .9 0 1.5.3 1.9.1.4.4.6.7.8l1.3.4h5.9a29.3 29.3 0 0 0 5.1-.5 7.4 7.4 0 0 1-1.4 3.4c-.6.5-1.8.7-3.6.7H110l.8-2.1c.2-.7.2-1.5.2-2.3V42.7c0-1.1-.1-1.9-.5-2.3-.4-.4-1-.6-2-.7.3-1.4.8-2.3 1.4-2.7.5-.6 1.7-.9 3.4-.9ZM136.8 36.1h5.4v.5c0 .4 0 .7.2 1l.6 1.3 9 14.3 1.2 2.3 1.4 3h.3c-.3-.9-.4-1.7-.5-2.5l-.2-2.3V43c0-1.3-.2-2.2-.6-2.6-.4-.4-1.2-.7-2.4-.7h-.2a6 6 0 0 1 1.5-2.9c.6-.5 1.6-.6 3.1-.6h4c-.4.5-.8 1.2-1 2-.3.8-.3 2-.3 3.5v16.2c0 1.7.1 2.7.5 3.3.4.5 1.2.8 2.1.8-.3 1.3-.8 2.2-1.4 2.6-.6.5-1.6.7-3 .7h-5.2l.1-.2v-1.3l-.5-.7-9.6-15.2a27.8 27.8 0 0 1-2.3-5.2h-.3l.3 3 .1 2.5v10.2c0 1.3.3 2.2.8 2.7.4.5 1.2.7 2.5.7-.5 1.4-1 2.4-1.6 2.8-.5.4-1.5.6-3 .6h-3.6c.3-.5.6-1.3.7-2.2.2-.9.3-2 .3-3.5V42.8c0-1.2-.2-2-.6-2.5-.4-.4-1-.7-2-.8.3-1.3.8-2.3 1.4-2.8a6 6 0 0 1 2.8-.6ZM190.6 61.8c-.5 1.5-1 2.4-1.5 2.8-.5.4-1.5.7-3 .7h-5.9c.4-.7.5-1.3.7-2a8.8 8.8 0 0 0 0-4c-.2-.6-.3-1.4-.7-2.3h-10l-.5 1.9-.1 1.2c0 .7.1 1 .5 1.4.3.3.8.5 1.4.5h.2c-.5 1.4-1 2.3-1.4 2.7-.5.4-1.4.6-2.8.6h-4c.7-1 1.5-3.3 2.6-7.1l1.5-5.3 2.4-7.2c1-3 1.4-4.7 1.4-5.1 0-.4 0-.7-.3-.9-.2-.2-.6-.2-1.3-.3L171 37c.4-.5.7-.7 1-.8l1.5-.2 3.4-.1h.5l2 .1.8.5a203.1 203.1 0 0 1 8 23.7c.1.5.4 1 .8 1.1.4.2.9.3 1.5.3l.2.1ZM175 40.4c-.1 1.2-.8 3.7-2.1 7.7l-1.9 5.7h8.3l-1.2-4.7-2.6-8.8-.5.1ZM209 51.2l5.5 8.7c.4.7 1 1.3 1.5 1.7.6.4 1.2.5 1.9.5-.4 1.2-.9 2-1.3 2.5a4 4 0 0 1-2.5.6h-5l.1-.6v-.3l-.1-.8-.6-1.3-4.9-9-1.5.2-1.1.2V59c0 1.2.1 2 .5 2.4.3.4 1 .7 1.9.8-.4 1.3-.8 2.1-1.3 2.5-.5.4-1.4.6-2.8.6h-6c.3-.7.7-1.5.8-2.2.2-.7.3-1.5.3-2.3l-.1-17.7c0-1.2-.2-2-.6-2.4-.4-.4-1.1-.7-2-.8.3-1.5 1-2.5 2-3 1.1-.6 3.6-.8 7.6-.8l4.1.1 2.8.6c2 .6 3.5 1.6 4.6 3a7 7 0 0 1 1.6 4.6c0 1.6-.5 3-1.5 4.3a8 8 0 0 1-3.8 2.5Zm-8-.9c2.2 0 3.9-.6 5-1.6 1-1 1.5-2.6 1.5-4.6 0-1.6-.4-2.9-1-3.8-.8-1-1.7-1.4-3-1.4-1 0-1.6.2-2 .7-.4.5-.5 1.3-.5 2.5v8.3ZM222.9 42.8c0-1.2-.2-2-.6-2.5-.4-.4-1-.7-2-.8.5-1.4 1-2.4 1.5-2.8.5-.4 1.5-.6 2.8-.6h6.3l-.8 2.3c-.1.8-.3 1.5-.3 2.3v17.8c0 1.3 0 2.1.5 2.5.3.4 1 .6 2 .8-.5 1.5-1 2.4-1.5 2.8-.5.4-1.5.6-2.9.6h-6.2l.8-2.2.3-2.2v-18ZM258.6 39.1c-2.6-2.6-5.8-4-9.8-4-4 .2-7.3 1.5-9.6 4.3a15.6 15.6 0 0 0-3.5 11c0 4.5 1.4 8.1 3.8 10.8 2.5 2.7 5.7 4 9.8 4 4 0 7.2-1.5 9.6-4.2 2.4-2.7 3.5-6.5 3.4-11 0-4.5-1.2-8.1-3.7-10.9ZM253.4 59c-1 2-2.4 3-4.2 3-1.9 0-3.2-1-4.3-2.9-1-1.9-1.5-4.9-1.5-8.8-.1-3.8.4-6.8 1.3-8.7 1-2 2.3-3 4.2-3.1 1.8 0 3.3 1 4.2 2.9 1 2 1.6 5 1.6 8.8 0 3.8-.4 6.8-1.3 8.8ZM268 62.5c0 1.5-1.2 2.7-2.8 2.7a2.8 2.8 0 0 1-2.9-2.7c0-1.6 1.3-2.8 2.9-2.8 1.6 0 2.8 1.3 2.8 2.8Zm-5 0c0 1.2 1 2.1 2.2 2.1 1.2 0 2-1 2-2.1 0-1.3-.8-2.2-2-2.2s-2.1 1-2.1 2.2Zm1.8 1.4h-.7v-2.7l1-.1 1 .1c.2.1.3.4.3.6 0 .3-.3.6-.6.7.3 0 .4.3.5.6 0 .4.2.6.2.6h-.7l-.2-.6c-.1-.3-.3-.4-.6-.4h-.3v1.2Zm0-1.5h.3c.3 0 .6-.1.6-.4 0-.3-.1-.4-.5-.4h-.3v.8h-.1ZM107.4 15.3l5.3 8.7c.5.7 1 1.3 1.6 1.7.5.4 1.2.5 1.8.5-.3 1.2-.8 2-1.3 2.4a4 4 0 0 1-2.4.7h-5v-1.7l-.7-1.3-4.8-9-1.5.2c-.4 0-.8 0-1.2.2V23c0 1.2.2 2 .5 2.4.3.4 1 .7 2 .8-.4 1.3-.8 2.1-1.3 2.5-.5.4-1.4.6-2.9.6h-6l.9-2.2.2-2.3V7.2c0-1.2-.2-2-.6-2.4-.4-.4-1.2-.7-2.1-.8.4-1.5 1.1-2.5 2.2-3 1-.6 3.5-.8 7.5-.8l4 .1c1.3.2 2.2.3 3 .6 1.8.6 3.4 1.6 4.4 3a7 7 0 0 1 1.6 4.6c0 1.6-.4 3-1.4 4.2-.7 1.1-2 2-3.8 2.6Zm-8-.9c2.1 0 3.7-.6 4.8-1.7 1-1 1.6-2.5 1.6-4.5 0-1.6-.4-2.9-1-3.8-.8-1-1.8-1.4-3-1.4-1 0-1.6.2-2 .7-.4.5-.6 1.3-.6 2.5l.1 8.2ZM139.6 4c-2.5-2.7-5.7-4-9.8-4-4 0-7.2 1.5-9.6 4.2a15.6 15.6 0 0 0-3.4 11c0 4.6 1.3 8.1 3.8 10.9 2.5 2.6 5.7 4 9.7 4 4-.2 7.3-1.5 9.6-4.3 2.5-2.7 3.6-6.4 3.5-11A16 16 0 0 0 139.6 4Zm-5.2 19.8c-1 2-2.4 3-4.2 3-1.9 0-3.3-.9-4.3-2.8-1-2-1.5-5-1.5-8.8-.1-3.9.4-6.9 1.2-8.8 1-2 2.4-3 4.2-3 1.9 0 3.4.9 4.3 2.8 1 2 1.6 5 1.6 8.8 0 3.8-.4 6.8-1.3 8.8ZM147.8 0h5.4v.5l.1 1 .7 1.2 9 14.3 1.2 2.4 1.3 3h.4c-.3-1-.4-1.7-.5-2.6l-.2-2.2V6.8c0-1.3-.2-2.2-.6-2.6-.4-.5-1.2-.7-2.5-.7h-.1a6 6 0 0 1 1.5-3c.6-.4 1.6-.6 3-.6h4.1c-.5.6-.8 1.2-1 2-.3.8-.4 2-.4 3.5v16.2c0 1.7.2 2.8.6 3.3.4.6 1.1.8 2.1.8-.3 1.3-.8 2.2-1.4 2.6-.6.5-1.7.7-3 .7h-5.2V27.6l-.4-.7-9.5-15.2a27.5 27.5 0 0 1-2.3-5.2h-.3l.3 3v12.8c0 1.3.3 2.1.8 2.6s1.3.8 2.5.8c-.5 1.3-1 2.3-1.5 2.7-.6.4-1.5.6-3 .6h-3.6c.3-.5.5-1.2.7-2.1.2-1 .2-2 .2-3.6V6.7c0-1.2-.1-2-.5-2.5-.4-.4-1-.6-2.1-.7.4-1.4.9-2.4 1.5-2.9.6-.4 1.5-.6 2.7-.6ZM18.3 72.8V75h-7.2v4.5h5.7V82h-5.7v4.5h7.2v2.4H8.2v-16h10.1ZM24.3 86.3h6.5v2.5h-9.5v-16h3v13.5ZM41.1 82.5v6.3h-3v-16h5c1 0 2 0 2.8.3.8.2 1.4.6 1.9 1s.9.9 1.1 1.4c.3.6.4 1.2.4 1.9l-.3 1.5a4.7 4.7 0 0 1-1.9 2.3c-.3.4-1 .6-1.5.8.4.2.7.5 1 .9l4 6H48l-.7-.2-.5-.5-3.4-5.2-.4-.4-.6-.1H41Zm0-2H43a4 4 0 0 0 2.5-.9l.6-.8c.2-.4.2-.8.2-1.2 0-.8-.3-1.4-.8-1.8-.6-.4-1.4-.7-2.5-.7h-2v5.3h.1ZM68 80.8a8 8 0 0 1-2.3 5.9 8.6 8.6 0 0 1-11.8 0 8 8 0 0 1-2.3-6 8 8 0 0 1 2.3-5.9 8.6 8.6 0 0 1 11.8 0 8 8 0 0 1 2.2 6Zm-3.2 0c0-1 0-1.7-.3-2.4-.2-.7-.5-1.3-1-1.7-.4-.5-1-1-1.6-1.2a6 6 0 0 0-2-.4c-.9 0-1.6.2-2.2.4-.6.3-1.1.7-1.6 1.2-.4.4-.8 1-1 1.7-.3.8-.4 1.5-.4 2.4 0 .9.1 1.7.4 2.3.2.7.5 1.3 1 1.8.4.5 1 .9 1.6 1.1a5.7 5.7 0 0 0 4.2 0c.7-.2 1.2-.6 1.6-1.1.5-.5.9-1 1-1.8.3-.6.3-1.4.3-2.3ZM72.6 72.8h.2l.3.2.2.3L81.7 84V72.8h2.6v16h-2.1l-.5-.4-8.4-10.8.1.7v10.5h-2.7v-16H72.6ZM107 80.8a8 8 0 0 1-2.3 5.8c-.7.7-1.5 1.3-2.6 1.7-1 .4-2 .5-3.3.5h-6.1v-16h6.1c1.2 0 2.4.1 3.3.5a8 8 0 0 1 4.3 4.2c.3 1 .6 2.1.6 3.3Zm-3 0c0-1-.2-1.7-.4-2.4s-.6-1.3-1-1.7c-.5-.5-1-1-1.7-1.2-.6-.2-1.3-.4-2-.4h-3.2v11.3h3.1c.8 0 1.5-.1 2.1-.4.7-.2 1.2-.6 1.6-1.1a5.5 5.5 0 0 0 1.4-4.1ZM120 72.8V75h-7.2v4.5h5.6V82h-5.6v4.5h7.1v2.4h-10.2v-16H120ZM138.7 85l.4.2 1.2 1.3c-.6.8-1.4 1.5-2.4 1.9a8.8 8.8 0 0 1-6.6 0c-1-.4-1.8-1-2.4-1.7a7.6 7.6 0 0 1-1.6-2.6c-.3-1-.5-2.1-.5-3.3 0-1.2.1-2.4.5-3.3a8 8 0 0 1 1.7-2.6 8 8 0 0 1 2.6-1.7 9 9 0 0 1 6.6-.1c.8.4 1.7.9 2.2 1.5l-1 1.4-.2.3h-.4l-.5-.1-.6-.4c-.3-.2-.7-.4-1-.4-.5-.2-1-.2-1.7-.2a6 6 0 0 0-2 .4c-.7.2-1.3.7-1.7 1.1-.5.5-.8 1-1 1.8a7.1 7.1 0 0 0 0 4.8c.2.7.5 1.3 1 1.7.4.5 1 1 1.5 1.2.6.2 1.2.4 2 .4l1.1-.1c.3 0 .6 0 .9-.2l.8-.4.7-.6c.1 0 .2 0 .3-.2h.1ZM158.4 80.8c0 1.2-.1 2.2-.5 3.3a8 8 0 0 1-1.7 2.6 8.6 8.6 0 0 1-11.8 0 8 8 0 0 1-2.3-6 8 8 0 0 1 2.3-5.9 8.6 8.6 0 0 1 11.8 0 8 8 0 0 1 2.2 6Zm-3 0c0-1-.1-1.7-.4-2.4-.2-.7-.5-1.3-1-1.7-.3-.5-.9-1-1.5-1.2a5.7 5.7 0 0 0-4.2 0c-.7.3-1.2.7-1.7 1.2-.4.4-.8 1-1 1.7-.3.8-.3 1.5-.3 2.4 0 .9 0 1.7.3 2.3.2.7.6 1.3 1 1.8s1 .9 1.7 1.1a6 6 0 0 0 2 .4 6 6 0 0 0 2.2-.4c.6-.2 1-.6 1.6-1.1.4-.5.8-1 1-1.8.2-.6.3-1.4.3-2.3ZM169.9 75.7l-.3.3h-.9l-.7-.5-.9-.4-1.2-.1-1 .1-.8.4c-.3.2-.4.4-.5.7l-.2.8c0 .4.1.7.4 1l.8.6 1.2.5 1.3.5 1.4.5 1.2.8c.4.4.7.8.8 1.2.3.5.4 1 .4 1.7 0 .8-.2 1.4-.4 2a5.6 5.6 0 0 1-5.2 3.2h-1.6l-1.5-.5c-.5-.1-.9-.4-1.3-.6l-1-1 .9-1.4.3-.2h.4l.6.1.7.5 1 .5c.4.2 1 .3 1.5.3.9 0 1.5-.2 2-.7.5-.5.7-1 .7-1.8 0-.4 0-.7-.3-1l-.8-.7-1.2-.4-1.4-.4-1.4-.6-1.2-.8c-.3-.3-.6-.7-.8-1.2-.2-.5-.3-1.2-.3-1.9 0-.5 0-1.1.3-1.7l1-1.4c.6-.4 1-.8 1.7-1a6.4 6.4 0 0 1 4.8 0 7 7 0 0 1 2 1.2l-.5 1.4ZM185 72.8v2.4H180v13.6h-3V75.2h-4.9v-2.4H185ZM199.8 88.8h-2.4l-.6-.1c-.2-.2-.3-.3-.3-.5l-1.3-3.3h-6.6l-1.2 3.3c0 .2-.1.3-.3.5a1 1 0 0 1-.7.2h-2.3l6.3-16h3l6.4 16Zm-10.4-6h5.1l-2-5.3c0-.3 0-.5-.2-.8l-.4-1-.3 1c0 .3-.1.6-.3.8l-1.9 5.3ZM209.7 82.5v6.3h-3v-16h5c1 0 2 0 2.8.3.8.2 1.4.6 1.9 1s.9.9 1.1 1.4c.3.6.4 1.2.4 1.9l-.3 1.5c-.1.5-.4.9-.7 1.3l-1.1 1c-.4.4-1 .6-1.6.8.4.2.7.5 1 .9l4 6h-2.6l-.7-.2-.5-.5L212 83l-.4-.4-.6-.1h-1.3Zm0-2h1.9a4 4 0 0 0 2.5-.9l.6-.8c.2-.4.2-.8.2-1.2 0-.8-.3-1.4-.8-1.8-.6-.4-1.4-.7-2.5-.7h-2v5.3h.1ZM225 72.8h-3v16h3v-16ZM240.1 85l.4.2 1.3 1.3c-.7.8-1.5 1.5-2.5 1.9a8.8 8.8 0 0 1-6.6 0c-1-.4-1.8-1-2.4-1.7a7.6 7.6 0 0 1-1.5-2.6c-.4-1-.6-2.1-.6-3.3a8 8 0 0 1 2.3-5.9 8 8 0 0 1 2.5-1.7 9 9 0 0 1 6.6-.1c.9.4 1.7.9 2.2 1.5l-1 1.4s0 .2-.2.3h-.4l-.5-.1c-.1-.2-.4-.3-.6-.4-.3-.2-.7-.4-1-.4-.5-.2-1-.2-1.7-.2a6 6 0 0 0-2 .4c-.7.2-1.3.7-1.7 1.1-.5.5-.8 1-1 1.8a7.1 7.1 0 0 0 0 4.8c.2.7.5 1.3 1 1.7.4.5 1 1 1.5 1.2.6.2 1.3.4 2 .4l1.1-.1c.3 0 .7 0 .9-.2l.8-.4.7-.6c.1 0 .2 0 .3-.2h.1ZM258.6 88.8h-2.4l-.6-.1c-.2-.2-.4-.3-.4-.5l-1.2-3.3h-6.6l-1.2 3.3c0 .2-.2.3-.3.5a1 1 0 0 1-.7.2H243l6.3-16h3l6.4 16Zm-10.5-6h5.1l-2-5.3c0-.3 0-.5-.2-.8l-.4-1-.3 1c0 .3-.1.6-.3.8l-1.9 5.3Z"/></g><defs><clipPath id="a"><path fill="#fff" d="M0 0h268v89H0z"/></clipPath></defs></svg>