<?xml version="1.0" encoding="utf-8"?>
<!-- Generator: Adobe Illustrator 27.4.0, SVG Export Plug-In . SVG Version: 6.00 Build 0)  -->
<svg version="1.1" id="Layer_1" xmlns="http://www.w3.org/2000/svg" xmlns:xlink="http://www.w3.org/1999/xlink" x="0px" y="0px"
	 viewBox="0 0 325 114" style="enable-background:new 0 0 325 114;" xml:space="preserve">
<style type="text/css">
	.st0{fill:#231F20;}
</style>
<path class="st0" d="M30.8,49.9c-0.5,1.2-1.3,2.3-2.3,3.2c-1.3,0.8-2.7,1.2-4.2,1.4c0.1-0.3,0.2-0.6,0.3-0.8
	c0.1-0.2,0.1-0.4,0.1-0.6c0-0.6-0.3-1.1-0.8-1.4c-0.7-0.4-1.4-0.5-2.1-0.4c-2.4,0-4.6,1.5-5.7,3.6c-1.3,2.4-1.9,5.6-1.7,9.8
	c0.2,4.6,1,8,2.6,10.2c1.6,2.2,4.2,3.4,6.9,3.1c1.2,0,2.3-0.3,3.4-0.7c1.3-0.4,2.5-1,3.7-1.7c0,0.1,0,0.2,0,0.3c0,0.1,0,0.2,0,0.3
	c0.1,1.8-0.7,3.6-2.3,4.5c-1.6,1-4,1.6-7.2,1.7c-4.8,0.2-8.7-1.2-11.5-4.2c-2.9-3-4.3-7.1-4.5-12.5c-0.2-5.4,1.2-9.8,4-13.1
	c2.9-3.4,7-5.3,11.4-5.3c1.7-0.1,3.5,0.1,5.2,0.5C27.7,48.4,29.3,49,30.8,49.9"/>
<path class="st0" d="M41.2,48h20.5c-0.4,2.2-1,3.7-1.8,4.5c-1.3,1-2.9,1.5-4.5,1.5c0.1-0.2,0.2-0.4,0.2-0.6c0-0.1,0.1-0.3,0.1-0.4
	c0-0.4-0.3-0.8-1-1c-1-0.2-2-0.3-3-0.3c-2.5,0-4,0.2-4.5,0.4c-0.5,0.4-0.8,1.1-0.7,1.8V61h7.9c0.5,0,1,0,1.4-0.1
	c0.6-0.1,1.1-0.2,1.7-0.4c-0.3,1.3-0.9,2.5-1.7,3.6c-0.9,0.6-2,0.9-3.1,0.8h-6.2V74c0,0.7,0,1.5,0.2,2.2c0.1,0.4,0.4,0.8,0.8,1
	c0.5,0.2,1,0.4,1.5,0.4c1,0.1,2.1,0.1,3.1,0.1h3.8c1.2,0,2.4,0,3.6-0.2c0.8-0.1,1.6-0.3,2.4-0.5c-0.5,2-1,3.3-1.7,3.9
	s-2.1,0.9-4.2,0.9H37.2c0.4-0.8,0.7-1.6,0.9-2.5c0.2-0.9,0.3-1.7,0.3-2.6V55.6c0.1-0.9-0.2-1.8-0.7-2.6c-0.7-0.6-1.5-0.9-2.4-0.9
	c0.2-1.2,0.8-2.4,1.7-3.3C37.7,48.3,39.1,48,41.2,48"/>
<path class="st0" d="M69.3,48.1h6.3c0,0.1,0,0.1,0,0.2c0,0.1,0,0.2,0,0.4c0,0.4,0.1,0.8,0.2,1.1c0.2,0.5,0.4,1,0.7,1.5l10.4,16.7
	c0.4,0.7,0.9,1.7,1.5,2.8s1.1,2.3,1.6,3.6h0.4c-0.2-1-0.4-2-0.6-3c-0.1-0.9-0.2-1.7-0.2-2.6V56.1c0.1-1.1-0.1-2.2-0.8-3.1
	c-0.8-0.6-1.8-0.9-2.8-0.8h-0.2c0.3-1.3,0.9-2.4,1.8-3.4c1.1-0.6,2.3-0.9,3.5-0.8h4.7c-0.6,0.7-1,1.5-1.2,2.3
	c-0.3,1.3-0.4,2.7-0.4,4v19c0,1.9,0.2,3.2,0.7,3.8c0.6,0.7,1.5,1.1,2.4,1c-0.2,1.1-0.8,2.2-1.6,3c-1,0.6-2.3,0.9-3.5,0.8h-6
	c0-0.1,0.1-0.2,0.1-0.3c0-0.2,0-0.3,0-0.5c0-0.3,0-0.7-0.1-1c-0.1-0.3-0.2-0.6-0.4-0.9L74.6,61.7c-0.5-0.9-1-1.8-1.4-2.8
	c-0.4-1-0.8-2.1-1.2-3.2h-0.3c0.2,1.2,0.3,2.4,0.4,3.5s0.1,2.1,0.1,3v12c-0.1,1.1,0.2,2.2,0.8,3.1c0.8,0.7,1.8,1,2.9,0.9
	c-0.3,1.2-0.9,2.3-1.8,3.2c-1,0.6-2.3,0.9-3.4,0.7h-4.2c0.4-0.8,0.7-1.7,0.8-2.6c0.2-1.4,0.3-2.7,0.3-4.1V56c0.1-1-0.1-2-0.7-2.9
	c-0.7-0.6-1.5-0.9-2.4-0.8c0.3-1.2,0.9-2.4,1.8-3.3C67.1,48.3,68.2,48,69.3,48.1"/>
<path class="st0" d="M130.1,47.6c-0.4,1.5-1.2,2.9-2.3,4c-1.2,0.7-2.7,1-4.1,0.9h-0.7c-0.4,0-0.8,0-1.1,0c-1-0.1-2,0-2.9,0.4
	c-0.4,0.5-0.6,1.1-0.5,1.7l-0.1,19.7c-0.1,1,0.1,2.1,0.6,3c0.7,0.6,1.6,0.9,2.5,0.8c-0.2,1.2-0.8,2.3-1.7,3.1
	c-1,0.6-2.1,0.9-3.3,0.8h-7.6c0.5-0.9,0.8-1.9,1-2.9c0.2-1.3,0.3-2.6,0.3-3.9l0.1-20.7c0-1-0.2-1.6-0.5-1.8
	c-0.8-0.3-1.6-0.5-2.4-0.4c-1.7,0-3.5,0-5.2,0.2c-1,0.1-2,0.3-2.9,0.7c0.4-1.5,1.2-2.9,2.3-4c1.2-0.8,2.7-1.2,4.2-1.1
	c0.4,0,2.1,0.1,5,0.2s5.7,0.2,8.2,0.2c3.2,0,5.6-0.1,7.3-0.2C127.6,48.2,128.8,48,130.1,47.6"/>
<path class="st0" d="M137.5,48h20.6c-0.4,2.2-1,3.7-1.9,4.5s-2.4,1.3-4.5,1.5c0.1-0.2,0.2-0.4,0.2-0.6c0-0.1,0.1-0.3,0.1-0.4
	c0-0.4-0.3-0.8-1-1c-1-0.2-2-0.4-3-0.3c-2.5,0-4,0.1-4.5,0.4c-0.6,0.4-0.8,1.1-0.7,1.8V61h7.9c0.5,0,1,0,1.4-0.1
	c0.6-0.1,1.1-0.2,1.7-0.4c-0.3,1.3-0.9,2.5-1.7,3.6c-0.9,0.6-2,0.9-3.1,0.8h-6.2V74c0,0.7,0,1.5,0.2,2.2c0.1,0.4,0.4,0.8,0.8,1
	c0.5,0.2,1,0.4,1.5,0.4c1,0.1,2.1,0.1,3.1,0.1h3.8c1.2,0,2.4,0,3.6-0.2c0.8-0.1,1.6-0.2,2.4-0.5c-0.5,2-1,3.3-1.7,3.9
	s-2.1,0.9-4.2,0.9h-18.9c0.4-0.8,0.7-1.6,0.9-2.5c0.2-0.9,0.3-1.8,0.3-2.6V55.6c0.1-0.9-0.1-1.9-0.6-2.7c-0.7-0.6-1.5-0.9-2.4-0.9
	c0.2-1.2,0.8-2.4,1.7-3.2C134.1,48.3,135.5,48,137.5,48"/>
<path class="st0" d="M165,48h6.3c0,0.1,0,0.1,0,0.2c0,0.1,0,0.2,0,0.4c0,0.4,0.1,0.7,0.2,1.1c0.2,0.5,0.4,1,0.7,1.5l10.4,16.7
	c0.4,0.7,0.9,1.7,1.5,2.8s1.1,2.3,1.6,3.6h0.4c-0.2-1.1-0.4-2.1-0.6-3c-0.1-0.9-0.2-1.7-0.2-2.6V56c0.1-1.1-0.2-2.1-0.8-3
	c-0.8-0.6-1.8-0.9-2.8-0.8h-0.2c0.3-1.3,0.9-2.4,1.8-3.4c1.1-0.6,2.3-0.9,3.6-0.8h4.7c-0.6,0.7-1,1.5-1.2,2.3
	c-0.3,1.3-0.4,2.7-0.4,4v18.9c0,2,0.2,3.2,0.7,3.8c0.6,0.7,1.5,1.1,2.5,1c-0.2,1.1-0.8,2.2-1.7,3c-1,0.6-2.3,0.9-3.5,0.8h-6
	c0-0.1,0.1-0.2,0.1-0.3c0-0.2,0-0.3,0-0.5c0-0.3,0-0.7-0.1-1c-0.1-0.3-0.2-0.6-0.4-0.9l-11.2-17.7c-0.5-0.9-1-1.8-1.5-2.8
	c-0.4-1-0.8-2-1.2-3.2h-0.4c0.2,1.2,0.3,2.4,0.4,3.5s0.1,2.1,0.1,3V74c-0.1,1.1,0.2,2.2,0.8,3.1c0.8,0.7,1.8,1,2.9,0.9
	c-0.3,1.2-0.9,2.3-1.8,3.2c-1.1,0.6-2.3,0.9-3.5,0.7h-4.2c0.4-0.8,0.7-1.7,0.8-2.6c0.2-1.4,0.3-2.7,0.3-4.1V55.9
	c0.1-1-0.1-2-0.6-2.9c-0.7-0.6-1.6-0.9-2.4-0.8c0.3-1.2,0.9-2.4,1.8-3.3C162.8,48.2,163.9,47.9,165,48"/>
<path class="st0" d="M227.8,77.9c-0.3,1.2-0.9,2.4-1.7,3.3c-0.6,0.5-1.8,0.8-3.5,0.8h-6.9c0.3-0.7,0.6-1.5,0.8-2.2
	c0.2-0.8,0.2-1.6,0.2-2.4c0-0.7-0.1-1.5-0.2-2.2c-0.2-0.8-0.4-1.8-0.8-2.8H204c-0.2,0.9-0.4,1.6-0.6,2.2c-0.1,0.5-0.2,1-0.2,1.4
	c0,0.6,0.2,1.2,0.6,1.6c0.5,0.4,1.1,0.6,1.7,0.5h0.2c-0.3,1.2-0.9,2.3-1.6,3.2c-0.5,0.4-1.6,0.7-3.3,0.7h-4.5
	c0.7-1.1,1.7-3.9,2.9-8.3c0.7-2.6,1.3-4.7,1.8-6.2c0.7-2.3,1.6-5.2,2.8-8.5c0.7-1.9,1.3-3.9,1.7-5.9c0-0.4-0.1-0.8-0.4-1
	c-0.5-0.2-1-0.4-1.6-0.3c0.3-0.9,0.8-1.8,1.3-2.6c0.3-0.5,0.7-0.8,1.2-1c0.5-0.1,1.1-0.2,1.7-0.3c0.7-0.1,2-0.1,4-0.1h0.7
	c0.8,0,1.5,0,2.3,0.2c0.4,0.1,0.7,0.3,1,0.5c0.8,1.5,1.5,3,2,4.6c1,2.7,2.2,6.2,3.7,10.8c0.8,2.3,1.5,4.8,2.2,7.5
	c0.7,2.8,1.1,4.4,1.3,4.8c0.2,0.5,0.5,1,1,1.3c0.6,0.3,1.2,0.4,1.8,0.4L227.8,77.9z M209.6,53c-0.6,3-1.4,6-2.4,8.9
	c-0.9,2.8-1.6,5.1-2.1,6.7h9.7c-0.3-1.3-0.8-3.1-1.5-5.4s-1.7-5.7-3.1-10.2L209.6,53z"/>
<path class="st0" d="M249.4,65.6l6.3,10.1c0.5,0.8,1.1,1.4,1.8,1.9c0.6,0.4,1.4,0.7,2.2,0.7c-0.2,1.1-0.8,2-1.5,2.8
	c-0.8,0.5-1.8,0.8-2.8,0.7h-5.9c0.1-0.3,0.1-0.5,0.1-0.7c0-0.1,0-0.3,0-0.4c0-0.3-0.1-0.7-0.2-1c-0.2-0.5-0.4-1-0.7-1.5l-5.7-10.6
	c-0.7,0.1-1.3,0.2-1.8,0.3s-0.9,0.1-1.3,0.2v6.4c-0.1,1,0.1,2,0.6,2.8c0.6,0.6,1.4,1,2.2,1c-0.2,1.1-0.7,2.1-1.5,2.9
	c-1,0.5-2.2,0.8-3.3,0.7h-7c0.4-0.8,0.7-1.7,0.9-2.5c0.2-0.9,0.3-1.8,0.3-2.6l0-20.8c0.1-1-0.1-2-0.7-2.9c-0.7-0.6-1.6-0.9-2.5-0.9
	c0.3-1.5,1.2-2.9,2.6-3.6c1.3-0.6,4.2-1,8.8-1c1.6,0,3.2,0,4.8,0.2c1.1,0.1,2.2,0.3,3.3,0.6c2.1,0.6,3.9,1.8,5.3,3.5
	c1.3,1.5,1.9,3.4,1.9,5.4c0,1.8-0.5,3.6-1.6,5C252.9,63.9,251.3,65,249.4,65.6 M240.1,64.6c2.1,0,4.1-0.7,5.7-2
	c1.3-1.4,2-3.3,1.9-5.3c0.1-1.6-0.4-3.2-1.3-4.5c-0.8-1.1-2-1.7-3.4-1.6c-0.9-0.1-1.7,0.2-2.3,0.8c-0.5,0.9-0.7,1.9-0.6,2.9
	L240.1,64.6z"/>
<path class="st0" d="M265.5,55.7c0.1-1-0.1-2-0.6-2.9c-0.6-0.6-1.5-0.9-2.4-0.9c0.3-1.2,0.9-2.4,1.8-3.3c1-0.6,2.1-0.8,3.2-0.7
	L275,48c-0.4,0.9-0.7,1.8-1,2.7c-0.2,0.9-0.3,1.8-0.3,2.7l-0.1,20.7c-0.1,1,0.1,2.1,0.6,3c0.7,0.6,1.5,0.9,2.4,0.9
	c-0.3,1.2-0.9,2.4-1.8,3.3c-1,0.6-2.2,0.8-3.3,0.7h-7.4c0.4-0.8,0.8-1.7,1-2.5c0.2-0.9,0.3-1.8,0.3-2.7L265.5,55.7z"/>
<path class="st0" d="M307.2,51.5c-6.2-6.2-16.1-6.2-22.3,0c-0.1,0.1-0.2,0.2-0.3,0.3c-2.8,3.2-4.1,7.5-4.1,12.8s1.6,9.6,4.4,12.7
	c6.2,6.2,16.2,6.1,22.4,0c0.1-0.1,0.2-0.2,0.3-0.3c2.8-3.2,4.2-7.5,4.1-12.8C311.6,58.9,310.1,54.6,307.2,51.5 M301.1,74.6
	c-1.1,2.3-2.7,3.5-4.9,3.6s-3.8-1.1-5-3.4s-1.8-5.7-1.8-10.3s0.4-8,1.5-10.3s2.7-3.5,4.9-3.6s3.8,1.1,5,3.4s1.8,5.7,1.8,10.3
	S302.2,72.3,301.1,74.6"/>
<path class="st0" d="M318.2,78.7c0,1.8-1.4,3.2-3.1,3.3c0,0-0.1,0-0.1,0c-1.8,0.1-3.3-1.3-3.4-3s1.3-3.3,3-3.4c0.1,0,0.2,0,0.4,0
	C316.8,75.6,318.2,77,318.2,78.7C318.2,78.7,318.2,78.8,318.2,78.7 M312.5,78.8c0,1.4,1,2.5,2.4,2.5c0,0,0.1,0,0.1,0
	c1.3,0,2.4-1.1,2.4-2.4c0,0,0,0,0-0.1c0.1-1.4-0.9-2.5-2.3-2.6c-1.4-0.1-2.5,0.9-2.6,2.3C312.5,78.6,312.5,78.7,312.5,78.8
	 M314.5,80.5h-0.7v-3.2c0.4-0.1,0.8-0.1,1.2-0.1c0.4,0,0.8,0.1,1.1,0.2c0.2,0.2,0.3,0.4,0.3,0.7c0,0.4-0.3,0.7-0.7,0.7l0,0
	c0.3,0.1,0.5,0.4,0.6,0.8c0,0.3,0.1,0.5,0.2,0.8h-0.8c-0.1-0.2-0.2-0.5-0.2-0.8c-0.1-0.3-0.2-0.5-0.7-0.5h-0.4V80.5z M314.5,78.7
	h0.4c0.4,0,0.7-0.1,0.7-0.5s-0.2-0.5-0.7-0.5c-0.1,0-0.3,0-0.4,0V78.7z"/>
<path class="st0" d="M130.7,23.6l6.3,10.1c0.4,0.8,1.1,1.4,1.8,1.9c0.6,0.4,1.4,0.7,2.2,0.7c-0.2,1.1-0.8,2-1.5,2.8
	c-0.8,0.6-1.8,0.8-2.8,0.8h-5.9c0.1-0.3,0.1-0.5,0.1-0.7c0-0.1,0-0.3,0-0.4c0-0.3-0.1-0.7-0.2-1c-0.2-0.5-0.4-1-0.7-1.5l-5.7-10.6
	c-0.7,0.1-1.3,0.2-1.8,0.3c-0.4,0.1-0.9,0.1-1.3,0.2v6.4c-0.1,1,0.1,2,0.6,2.8c0.6,0.6,1.4,1,2.2,1c-0.2,1.1-0.7,2.1-1.5,2.9
	c-1,0.5-2.2,0.8-3.3,0.7h-7c0.4-0.8,0.7-1.7,0.9-2.5c0.2-0.9,0.3-1.8,0.3-2.6l0-20.8c0.1-1-0.1-2-0.7-2.9c-0.7-0.6-1.6-0.9-2.5-0.9
	c0.3-1.5,1.2-2.8,2.5-3.6c1.3-0.6,4.2-1,8.8-1c1.8,0,3.4,0.1,4.8,0.2c1.1,0.1,2.2,0.3,3.3,0.6c2.1,0.6,3.9,1.8,5.3,3.5
	c1.2,1.5,1.9,3.4,1.9,5.4c0.1,1.8-0.5,3.6-1.7,5C134.2,21.9,132.6,23,130.7,23.6 M121.3,22.6c2.1,0,4.1-0.7,5.7-2
	c1.3-1.4,2-3.3,1.9-5.3c0.1-1.6-0.4-3.2-1.3-4.5c-0.8-1.1-2-1.7-3.4-1.6c-0.8-0.1-1.7,0.2-2.3,0.8c-0.5,0.9-0.8,1.9-0.6,2.9
	L121.3,22.6z"/>
<path class="st0" d="M168.3,10.4c-6.2-6.2-16.1-6.2-22.3,0c-0.1,0.1-0.2,0.2-0.3,0.3c-2.8,3.2-4.1,7.5-4.1,12.8s1.6,9.6,4.4,12.7
	c6.2,6.2,16.2,6.1,22.4,0c0.1-0.1,0.2-0.2,0.3-0.3c2.8-3.2,4.2-7.5,4.1-12.8S171.2,13.5,168.3,10.4 M162.2,33.5
	c-1.1,2.3-2.7,3.5-4.9,3.6s-3.8-1.1-5-3.4s-1.8-5.7-1.8-10.3s0.4-8,1.5-10.3s2.7-3.5,4.9-3.6s3.8,1.1,5,3.4s1.8,5.7,1.8,10.3
	S163.3,31.2,162.2,33.5"/>
<path class="st0" d="M177.9,5.7h6.3c0,0.1,0,0.1,0,0.2c0,0.1,0,0.2,0,0.4c0,0.4,0.1,0.8,0.2,1.1c0.2,0.5,0.5,1,0.7,1.5l10.4,16.7
	c0.4,0.7,0.9,1.7,1.5,2.8s1,2.3,1.6,3.6h0.4c-0.2-1-0.4-2-0.6-3c-0.1-0.9-0.2-1.7-0.2-2.6V13.8c0.1-1.1-0.2-2.2-0.8-3.1
	c-0.8-0.6-1.8-0.9-2.8-0.8h-0.2c0.3-1.3,0.9-2.4,1.8-3.4c1.1-0.6,2.3-0.9,3.6-0.8h4.7c-0.6,0.7-1,1.5-1.2,2.3
	c-0.3,1.3-0.4,2.7-0.4,4V31c0,1.9,0.2,3.2,0.7,3.8c0.6,0.7,1.5,1.1,2.5,1c-0.2,1.1-0.8,2.2-1.6,3c-1,0.6-2.3,0.9-3.5,0.8h-6
	c0-0.1,0.1-0.2,0.1-0.3c0-0.2,0-0.3,0-0.5c0-0.3,0-0.7-0.1-1c-0.1-0.3-0.2-0.6-0.4-0.9l-11.2-17.7c-0.5-0.9-1-1.8-1.5-2.8
	c-0.4-1-0.8-2-1.2-3.2h-0.4c0.2,1.2,0.3,2.4,0.4,3.5s0.1,2.1,0.1,3v11.9c-0.1,1.1,0.2,2.2,0.8,3.1c0.8,0.7,1.8,1,2.9,0.9
	c-0.3,1.2-0.9,2.3-1.8,3.2c-1.1,0.6-2.3,0.8-3.5,0.7h-4.2c0.4-0.8,0.7-1.7,0.8-2.6c0.2-1.4,0.3-2.7,0.3-4.1V13.7
	c0.1-1-0.1-2-0.6-2.9c-0.7-0.6-1.5-0.9-2.4-0.8c0.3-1.2,0.9-2.4,1.8-3.3C175.7,6,176.8,5.7,177.9,5.7"/>
<path class="st0" d="M26.6,97h-4.4v12.5h-2.7V97h-4.4v-2.2h11.6V97z"/>
<path class="st0" d="M43.3,94.8v14.7h-2.8v-6.4h-6.9v6.4h-2.8V94.8h2.8v6.3h6.9v-6.3H43.3z"/>
<path class="st0" d="M51.8,97v4.1H57v2.1h-5.2v4.2h6.5v2.2h-9.3V94.8h9.3V97H51.8z"/>
<path class="st0" d="M82.1,109.5h-2.5c-0.4,0-0.8-0.2-1-0.6l-3.1-4.7c-0.1-0.2-0.2-0.3-0.4-0.4c-0.2-0.1-0.4-0.1-0.6-0.1h-1.2v5.8
	h-2.7V94.8h4.5c0.9,0,1.7,0.1,2.6,0.3c0.6,0.2,1.2,0.5,1.8,0.9c0.4,0.4,0.8,0.8,1,1.3c0.2,0.5,0.3,1.1,0.3,1.7
	c0,0.5-0.1,0.9-0.2,1.4c-0.1,0.4-0.4,0.8-0.6,1.2c-0.3,0.4-0.6,0.7-1,1c-0.4,0.3-0.9,0.5-1.4,0.6c0.2,0.1,0.3,0.2,0.5,0.4
	c0.2,0.1,0.3,0.3,0.4,0.5L82.1,109.5z M75.1,101.8c0.5,0,0.9-0.1,1.3-0.2c0.4-0.1,0.7-0.3,1-0.5c0.2-0.2,0.4-0.5,0.6-0.8
	c0.1-0.3,0.2-0.7,0.2-1c0-0.7-0.2-1.3-0.7-1.7c-0.7-0.5-1.5-0.7-2.3-0.6h-1.8v4.9L75.1,101.8z"/>
<path class="st0" d="M92,107.3c0.5,0,1-0.1,1.4-0.3c0.4-0.2,0.8-0.4,1.1-0.7c0.3-0.3,0.5-0.7,0.7-1.2c0.2-0.5,0.2-1,0.2-1.5v-8.8
	h2.7v8.8c0,0.8-0.1,1.7-0.4,2.4c-0.3,0.7-0.7,1.4-1.2,1.9c-0.5,0.6-1.2,1-1.9,1.3c-0.8,0.3-1.7,0.5-2.5,0.4c-0.9,0-1.7-0.1-2.6-0.4
	c-0.7-0.3-1.4-0.7-1.9-1.3c-0.5-0.6-0.9-1.2-1.2-1.9c-0.3-0.8-0.4-1.6-0.4-2.4v-8.8h2.7v8.8c0,0.5,0.1,1,0.2,1.5
	c0.1,0.4,0.4,0.8,0.7,1.2c0.3,0.3,0.7,0.6,1.1,0.8C91,107.2,91.5,107.3,92,107.3z"/>
<path class="st0" d="M119.6,94.8v14.7h-2.4V100c0-0.4,0-0.8,0.1-1.2l-4.4,8.4c-0.2,0.4-0.6,0.6-1,0.6h-0.4c-0.4,0-0.8-0.2-1-0.6
	l-4.5-8.4c0,0.2,0,0.4,0.1,0.7s0,0.4,0,0.6v9.5h-2.3V94.8h2.4c0.1,0,0.2,0,0.2,0c0.1,0,0.1,0.1,0.2,0.1c0.1,0.1,0.1,0.2,0.2,0.2
	l4.4,8.2c0.1,0.2,0.2,0.4,0.3,0.7c0.1,0.2,0.2,0.5,0.3,0.7l0.3-0.7c0.1-0.2,0.2-0.5,0.3-0.7l4.4-8.2c0-0.1,0.1-0.2,0.2-0.2
	c0.1-0.1,0.1-0.1,0.2-0.1c0.1,0,0.2,0,0.2,0L119.6,94.8L119.6,94.8z"/>
<path class="st0" d="M146.7,102.1c0,1-0.2,2-0.5,3c-0.3,0.9-0.9,1.7-1.5,2.4c-0.7,0.7-1.5,1.2-2.4,1.6c-1,0.4-2,0.6-3.1,0.6
	c-1,0-2-0.2-3-0.6c-0.9-0.4-1.7-0.9-2.4-1.6c-0.7-0.7-1.2-1.5-1.5-2.4c-0.7-1.9-0.7-4.1,0-6c0.3-0.9,0.9-1.7,1.5-2.4
	c0.7-0.7,1.5-1.2,2.4-1.6c1.6-0.6,3.4-0.7,5.1-0.3c0.6,0.2,1.2,0.4,1.8,0.7c0.5,0.3,1,0.7,1.5,1.1c0.4,0.5,0.8,1,1.1,1.5
	c0.3,0.6,0.5,1.2,0.7,1.8C146.7,100.8,146.7,101.5,146.7,102.1z M143.9,102.1c0-0.7-0.1-1.5-0.3-2.2c-0.2-0.6-0.5-1.2-0.9-1.6
	c-0.4-0.4-0.9-0.8-1.5-1c-1.2-0.5-2.6-0.5-3.9,0c-0.6,0.2-1.1,0.6-1.5,1c-0.4,0.5-0.7,1-0.9,1.6c-0.4,1.4-0.4,2.9,0,4.4
	c0.2,0.6,0.5,1.2,0.9,1.6c0.4,0.4,0.9,0.8,1.5,1c1.2,0.5,2.6,0.5,3.9,0c0.6-0.2,1.1-0.6,1.5-1c0.4-0.5,0.7-1,0.9-1.6
	C143.8,103.6,143.9,102.9,143.9,102.1z"/>
<path class="st0" d="M154.3,97v4.4h5.5v2.2h-5.5v6h-2.8V94.8h9.3V97H154.3z"/>
<path class="st0" d="M182.6,106c0.2,0,0.3,0.1,0.4,0.2l1.1,1.2c-0.6,0.7-1.4,1.3-2.2,1.7c-1,0.4-2.1,0.6-3.1,0.6c-1,0-2-0.2-2.9-0.6
	c-0.8-0.4-1.6-0.9-2.2-1.6c-0.6-0.7-1.1-1.5-1.4-2.4c-0.3-1-0.5-2-0.5-3c0-1,0.2-2,0.5-3c0.3-0.9,0.8-1.7,1.5-2.4
	c0.6-0.7,1.4-1.2,2.3-1.6c1-0.4,2-0.6,3-0.6c1,0,1.9,0.2,2.9,0.5c0.8,0.3,1.5,0.8,2.1,1.4l-0.9,1.3c-0.1,0.1-0.1,0.2-0.2,0.2
	c-0.1,0.1-0.2,0.1-0.4,0.1c-0.1,0-0.2,0-0.3-0.1c-0.1-0.1-0.2-0.1-0.4-0.2l-0.4-0.3c-0.2-0.1-0.4-0.2-0.6-0.3
	c-0.3-0.1-0.5-0.2-0.8-0.2c-0.3-0.1-0.7-0.1-1-0.1c-0.6,0-1.2,0.1-1.8,0.4c-0.5,0.2-1,0.6-1.4,1c-0.4,0.5-0.7,1-0.9,1.6
	c-0.2,0.7-0.3,1.4-0.3,2.2c0,0.8,0.1,1.5,0.4,2.2c0.2,0.6,0.6,1.2,1,1.6c0.4,0.4,0.9,0.8,1.4,1c0.6,0.2,1.2,0.4,1.8,0.4
	c0.3,0,0.7,0,1-0.1c0.3,0,0.6-0.1,0.8-0.2c0.3-0.1,0.5-0.2,0.7-0.3c0.2-0.2,0.5-0.3,0.7-0.5c0.1-0.1,0.1-0.1,0.2-0.1
	C182.5,106.1,182.5,106,182.6,106z"/>
<path class="st0" d="M202.1,102.1c0,1-0.2,2-0.5,3c-0.3,0.9-0.9,1.7-1.5,2.4c-0.7,0.7-1.5,1.2-2.4,1.6c-2,0.8-4.1,0.8-6.1,0
	c-1.8-0.7-3.2-2.2-3.9-4c-0.7-1.9-0.7-4.1,0-6c0.7-1.8,2.1-3.3,3.9-4c1.6-0.6,3.4-0.7,5.1-0.3c0.6,0.2,1.2,0.4,1.8,0.7
	c0.5,0.3,1,0.7,1.5,1.1c0.4,0.5,0.8,1,1.1,1.5c0.3,0.6,0.5,1.2,0.7,1.8C202,100.7,202.1,101.4,202.1,102.1z M199.3,102.1
	c0-0.7-0.1-1.5-0.3-2.1c-0.2-0.6-0.5-1.2-0.9-1.6c-0.4-0.4-0.9-0.8-1.5-1c-1.2-0.5-2.6-0.5-3.9,0c-0.6,0.2-1.1,0.6-1.5,1
	c-0.4,0.5-0.7,1-0.9,1.6c-0.4,1.4-0.4,2.9,0,4.4c0.2,0.6,0.5,1.2,0.9,1.6c0.4,0.4,0.9,0.8,1.5,1c1.2,0.5,2.6,0.5,3.9,0
	c0.6-0.2,1.1-0.6,1.5-1c0.4-0.5,0.7-1,0.9-1.6C199.2,103.6,199.3,102.9,199.3,102.1z"/>
<path class="st0" d="M214.8,97.5c-0.1,0.1-0.1,0.2-0.3,0.3c-0.1,0.1-0.2,0.1-0.3,0.1c-0.2,0-0.3-0.1-0.5-0.2
	c-0.2-0.1-0.4-0.2-0.6-0.4c-0.3-0.1-0.5-0.3-0.8-0.4c-0.4-0.1-0.7-0.2-1.1-0.2c-0.3,0-0.7,0-1,0.1c-0.3,0.1-0.5,0.2-0.7,0.4
	c-0.2,0.2-0.3,0.4-0.4,0.6c-0.1,0.2-0.1,0.5-0.1,0.8c0,0.3,0.1,0.6,0.3,0.9c0.2,0.2,0.5,0.4,0.8,0.6c0.4,0.2,0.7,0.3,1.1,0.4
	c0.4,0.1,0.8,0.3,1.2,0.4c0.4,0.1,0.8,0.3,1.2,0.5c0.4,0.2,0.8,0.4,1.1,0.7c0.3,0.3,0.6,0.7,0.8,1.1c0.2,0.5,0.3,1,0.3,1.6
	c0,0.6-0.1,1.3-0.3,1.9c-0.2,0.6-0.6,1.1-1,1.5c-0.5,0.4-1,0.8-1.6,1c-0.7,0.3-1.4,0.4-2.2,0.4c-0.5,0-0.9,0-1.4-0.1
	c-0.4-0.1-0.9-0.2-1.3-0.4c-0.4-0.2-0.8-0.4-1.2-0.6c-0.4-0.2-0.7-0.5-1-0.8l0.8-1.3c0.1-0.1,0.2-0.2,0.3-0.2
	c0.1-0.1,0.2-0.1,0.4-0.1c0.2,0,0.4,0.1,0.6,0.2c0.2,0.1,0.4,0.3,0.7,0.5c0.3,0.2,0.6,0.3,0.9,0.5c0.4,0.1,0.9,0.2,1.3,0.2
	c0.7,0,1.3-0.2,1.8-0.6c0.4-0.4,0.7-1,0.6-1.6c0-0.3-0.1-0.7-0.3-0.9c-0.2-0.3-0.5-0.5-0.8-0.6c-0.3-0.2-0.7-0.3-1.1-0.4l-1.2-0.4
	c-0.4-0.1-0.8-0.3-1.2-0.5c-0.4-0.2-0.8-0.4-1.1-0.7c-0.3-0.3-0.6-0.7-0.8-1.1c-0.2-0.5-0.3-1.1-0.3-1.7c0-0.5,0.1-1.1,0.3-1.6
	c0.2-0.5,0.5-1,0.9-1.4c0.4-0.4,0.9-0.8,1.5-1c0.7-0.2,1.4-0.4,2.1-0.4c0.8,0,1.6,0.1,2.4,0.4c0.7,0.2,1.3,0.6,1.9,1.1L214.8,97.5z"
	/>
<path class="st0" d="M230.9,97h-4.4v12.5h-2.7V97h-4.4v-2.2h11.6V97z"/>
<path class="st0" d="M246.4,109.5h-2.1c-0.2,0-0.4-0.1-0.6-0.2c-0.1-0.1-0.3-0.3-0.3-0.4l-1.1-3h-6.1l-1.1,3
	c-0.1,0.2-0.2,0.3-0.3,0.4c-0.2,0.1-0.4,0.2-0.6,0.2H232l5.8-14.7h2.8L246.4,109.5z M241.6,104l-1.8-4.9c-0.1-0.2-0.2-0.5-0.3-0.8
	s-0.2-0.6-0.3-1c-0.1,0.3-0.2,0.7-0.3,1s-0.2,0.6-0.3,0.8l-1.8,4.9H241.6z"/>
<path class="st0" d="M268.6,109.5h-2.5c-0.4,0-0.8-0.2-1-0.6l-3.1-4.7c-0.1-0.2-0.2-0.3-0.4-0.4c-0.2-0.1-0.4-0.1-0.6-0.1h-1.2v5.8
	h-2.8V94.8h4.5c0.9,0,1.7,0.1,2.6,0.3c0.6,0.2,1.2,0.5,1.8,0.9c0.4,0.4,0.8,0.8,1,1.3c0.4,1,0.4,2.1,0.1,3.1
	c-0.1,0.4-0.4,0.8-0.6,1.2c-0.3,0.4-0.6,0.7-1,1c-0.4,0.3-0.9,0.5-1.4,0.6c0.4,0.2,0.7,0.5,0.9,0.9L268.6,109.5z M261.6,101.8
	c0.5,0,0.9-0.1,1.3-0.2c0.4-0.1,0.7-0.3,1-0.5c0.2-0.2,0.4-0.5,0.6-0.8c0.1-0.3,0.2-0.7,0.2-1c0-0.7-0.2-1.3-0.7-1.7
	c-0.7-0.4-1.5-0.7-2.2-0.6h-1.8v4.9L261.6,101.8z"/>
<path class="st0" d="M275.4,109.5h-2.8V94.8h2.8V109.5z"/>
<path class="st0" d="M291.2,106c0.2,0,0.3,0.1,0.4,0.2l1.1,1.2c-0.6,0.7-1.4,1.3-2.2,1.7c-1,0.4-2.1,0.6-3.1,0.6c-1,0-2-0.2-3-0.6
	c-0.8-0.4-1.6-0.9-2.2-1.6c-0.6-0.7-1.1-1.5-1.4-2.4c-0.3-1-0.5-2-0.5-3c0-1,0.2-2,0.5-3c0.3-0.9,0.8-1.7,1.5-2.4
	c0.7-0.7,1.4-1.2,2.3-1.6c1-0.4,2-0.6,3-0.6c1,0,2,0.2,2.9,0.5c0.8,0.3,1.5,0.8,2.1,1.4l-0.9,1.3c-0.1,0.1-0.1,0.2-0.2,0.2
	c-0.1,0.1-0.2,0.1-0.4,0.1c-0.1,0-0.2,0-0.3-0.1c-0.1-0.1-0.2-0.1-0.4-0.2l-0.5-0.3c-0.2-0.1-0.4-0.2-0.6-0.3
	c-0.3-0.1-0.5-0.2-0.8-0.2c-0.3-0.1-0.7-0.1-1-0.1c-0.6,0-1.2,0.1-1.8,0.4c-0.5,0.2-1,0.6-1.4,1c-0.4,0.5-0.7,1-0.9,1.6
	c-0.2,0.7-0.3,1.4-0.3,2.2c0,0.8,0.1,1.5,0.4,2.2c0.2,0.6,0.6,1.2,1,1.6c0.4,0.4,0.9,0.8,1.4,1c0.6,0.2,1.1,0.4,1.8,0.4
	c0.3,0,0.7,0,1-0.1c0.3,0,0.6-0.1,0.8-0.2c0.3-0.1,0.5-0.2,0.7-0.3c0.2-0.2,0.5-0.3,0.7-0.5c0.1-0.1,0.1-0.1,0.2-0.1
	C291.1,106.1,291.2,106,291.2,106z"/>
<path class="st0" d="M309.7,109.5h-2.1c-0.2,0-0.4-0.1-0.6-0.2c-0.1-0.1-0.3-0.3-0.3-0.4l-1.1-3h-6.1l-1.1,3
	c-0.1,0.2-0.2,0.3-0.3,0.4c-0.2,0.1-0.4,0.2-0.6,0.2h-2.1l5.8-14.7h2.8L309.7,109.5z M304.8,104l-1.8-4.9c-0.1-0.2-0.2-0.5-0.3-0.8
	s-0.2-0.6-0.3-1c-0.1,0.3-0.2,0.7-0.3,1s-0.2,0.6-0.3,0.8l-1.8,4.9H304.8z"/>
</svg>
