<svg xmlns="http://www.w3.org/2000/svg" data-name="Layer 1" viewBox="0 0 394.9 179.8"><path d="M58.4 81.6A8.2 8.2 0 0 1 56 85a10.6 10.6 0 0 1-4.4 1.4 6.4 6.4 0 0 0 .3-.8 2 2 0 0 0 .1-.6 1.7 1.7 0 0 0-.9-1.5 4 4 0 0 0-2.2-.5 6.8 6.8 0 0 0-6 3.9q-2 3.7-1.8 10.4.3 7.3 2.8 10.8a8 8 0 0 0 7.3 3.4 12.6 12.6 0 0 0 3.6-.7 21.4 21.4 0 0 0 3.8-1.8 3.4 3.4 0 0 0 0 .3 3.4 3.4 0 0 1 0 .4 5.2 5.2 0 0 1-2.4 4.8q-2.5 1.7-7.6 1.8-7.7.3-12.3-4.4t-4.7-13.3q-.3-8.6 4.2-14A15.8 15.8 0 0 1 48 79.2a20.3 20.3 0 0 1 5.4.5 20 20 0 0 1 5.1 2M69.4 79.6h21.8c-.3 2.3-1 4-2 4.8s-2.4 1.3-4.7 1.5a6.6 6.6 0 0 0 .3-.6 1.9 1.9 0 0 0 0-.5c0-.4-.3-.8-1-1a11.9 11.9 0 0 0-3.1-.3 13 13 0 0 0-4.8.5 2.1 2.1 0 0 0-.7 2v7.5h8.3a10.3 10.3 0 0 0 1.6-.2 16 16 0 0 0 1.8-.3 8.8 8.8 0 0 1-1.9 3.7 5.1 5.1 0 0 1-3.3.8h-6.5v9.7a7.6 7.6 0 0 0 .2 2.4 1.8 1.8 0 0 0 .9 1 4.6 4.6 0 0 0 1.6.4 28.4 28.4 0 0 0 3.3.2h4a31.9 31.9 0 0 0 3.9-.2 12.8 12.8 0 0 0 2.5-.5c-.5 2.1-1 3.5-1.8 4.1s-2.2 1-4.5 1h-20a14 14 0 0 0 1-2.7 11.8 11.8 0 0 0 .3-2.8V87.6a4.2 4.2 0 0 0-.7-2.8 4 4 0 0 0-2.6-1 6.2 6.2 0 0 1 1.8-3.4c.8-.6 2.2-.9 4.4-.9M99.3 79.7h6.7V80.3a3.3 3.3 0 0 0 .2 1.2 11 11 0 0 0 .8 1.6l11 17.7a34.7 34.7 0 0 1 3.3 6.7h.4a31 31 0 0 1-.6-3.2 21 21 0 0 1-.2-2.7V88.2a4.7 4.7 0 0 0-.8-3.3 4 4 0 0 0-3-.8h-.2a7.3 7.3 0 0 1 1.8-3.6 6.2 6.2 0 0 1 3.8-.8h5a5.7 5.7 0 0 0-1.3 2.4 17.9 17.9 0 0 0-.4 4.3v20.1c0 2 .3 3.4.8 4a3.1 3.1 0 0 0 2.6 1 4.5 4.5 0 0 1-5.5 4.2h-6.4a2.8 2.8 0 0 0 .1-.4 3.3 3.3 0 0 0 0-.5 3.4 3.4 0 0 0-.2-1 3.2 3.2 0 0 0-.4-1l-11.9-18.7a27.8 27.8 0 0 1-1.5-3 33 33 0 0 1-1.3-3.4h-.4a65 65 0 0 1 .6 6.9v12.7a4.8 4.8 0 0 0 .9 3.3 4.2 4.2 0 0 0 3 .9 7.2 7.2 0 0 1-1.9 3.4 6.3 6.3 0 0 1-3.6.8h-4.5a8.7 8.7 0 0 0 .8-2.7 26.4 26.4 0 0 0 .3-4.4V88a5 5 0 0 0-.7-3 3.5 3.5 0 0 0-2.5-1 7.2 7.2 0 0 1 1.8-3.5 5.3 5.3 0 0 1 3.4-.9M163.8 79.1q-1.2 3.3-2.5 4.3c-.9.6-2.3 1-4.4 1h-2c-1.6 0-2.6.1-3 .4a2.3 2.3 0 0 0-.5 1.9l-.1 20.9a5 5 0 0 0 .7 3.1 3.6 3.6 0 0 0 2.6.9 6.8 6.8 0 0 1-1.7 3.3 5.7 5.7 0 0 1-3.5.8h-8.1a10.3 10.3 0 0 0 1-3 22.1 22.1 0 0 0 .4-4.2v-22c0-1-.1-1.6-.5-2a5 5 0 0 0-2.6-.4c-2.5 0-4.3 0-5.5.2a13.1 13.1 0 0 0-3 .7 8.8 8.8 0 0 1 2.4-4.3 7 7 0 0 1 4.4-1h5.4c3.2 0 6 .3 8.7.3q5.1 0 7.8-.2a18.4 18.4 0 0 0 4-.6M171.7 79.6h21.8c-.4 2.3-1 3.9-2 4.8s-2.5 1.3-4.8 1.5a4.2 4.2 0 0 0 .3-.7 1.4 1.4 0 0 0 0-.4c0-.5-.3-.8-1-1a11.3 11.3 0 0 0-3.1-.3c-2.7 0-4.2.1-4.8.4a2 2 0 0 0-.7 2v7.5h8.4a12 12 0 0 0 1.5-.1 16.8 16.8 0 0 0 1.8-.4 8.9 8.9 0 0 1-1.9 3.8 5 5 0 0 1-3.3.8h-6.5v9.7a7.6 7.6 0 0 0 .2 2.4 1.8 1.8 0 0 0 .9 1 4.6 4.6 0 0 0 1.6.4 28.1 28.1 0 0 0 3.3.2h4a34.7 34.7 0 0 0 3.9-.2 12.5 12.5 0 0 0 2.5-.5c-.5 2.1-1.1 3.5-1.8 4.1s-2.2 1-4.5 1h-20a13 13 0 0 0 1-2.7 12.2 12.2 0 0 0 .3-2.8V87.6a4.3 4.3 0 0 0-.7-2.8 4 4 0 0 0-2.5-1 6 6 0 0 1 1.7-3.4c.8-.6 2.3-.9 4.4-.9M200.9 79.6h6.6a.8.8 0 0 0 0 .2v.4a3.2 3.2 0 0 0 .2 1.2 11.9 11.9 0 0 0 .8 1.6l11 17.7a35.4 35.4 0 0 1 3.3 6.8h.4l-.6-3.2a21 21 0 0 1-.2-2.8V88.1a4.8 4.8 0 0 0-.8-3.3 4.2 4.2 0 0 0-3-.8h-.2a7.3 7.3 0 0 1 1.9-3.6 6.3 6.3 0 0 1 3.7-.8h5a5.8 5.8 0 0 0-1.2 2.4 17.9 17.9 0 0 0-.4 4.3v20.1c0 2 .2 3.5.7 4.1a3.1 3.1 0 0 0 2.6 1 6 6 0 0 1-1.8 3.2 6.1 6.1 0 0 1-3.7.9H219a3.2 3.2 0 0 0 0-.4 3.3 3.3 0 0 0 0-.5 3.4 3.4 0 0 0-.1-1 3.1 3.1 0 0 0-.5-.9L206.5 94a28.7 28.7 0 0 1-1.5-3c-.5-1-.9-2.2-1.3-3.4h-.3a65.2 65.2 0 0 1 .5 6.9v12.7a4.9 4.9 0 0 0 .9 3.3 4.1 4.1 0 0 0 3 .9 7.2 7.2 0 0 1-1.9 3.4 6.3 6.3 0 0 1-3.6.8h-4.5a8.5 8.5 0 0 0 .9-2.7 25.4 25.4 0 0 0 .3-4.4V87.9a5 5 0 0 0-.7-3 3.5 3.5 0 0 0-2.6-1 7 7 0 0 1 1.8-3.4 5.2 5.2 0 0 1 3.4-1M267.5 111.3a8.4 8.4 0 0 1-1.8 3.6c-.6.5-1.9.8-3.7.8h-7.3a10.9 10.9 0 0 0 .8-2.4 12.6 12.6 0 0 0 .2-2.6 12 12 0 0 0-.2-2.3 30.3 30.3 0 0 0-.8-3h-12.5l-.6 2.4a8 8 0 0 0-.2 1.5 2.3 2.3 0 0 0 .6 1.7 2.5 2.5 0 0 0 1.8.6h.2a8.6 8.6 0 0 1-1.7 3.3c-.6.5-1.8.8-3.5.8H234a40 40 0 0 0 3-8.8 472.4 472.4 0 0 1 5-15.6 47.7 47.7 0 0 0 1.8-6.2 1.3 1.3 0 0 0-.5-1.1 3.2 3.2 0 0 0-1.6-.4 13.7 13.7 0 0 1 1.3-2.8 2.5 2.5 0 0 1 1.3-1 7.6 7.6 0 0 1 1.7-.2l4.2-.1h.8a13 13 0 0 1 2.4.1 2 2 0 0 1 1 .6 27 27 0 0 1 2.2 4.9l4 11.4a122 122 0 0 1 3.7 13.1 2.7 2.7 0 0 0 1 1.4 3.8 3.8 0 0 0 2 .4ZM248.1 85a59 59 0 0 1-2.5 9.4l-2.3 7.1h10.3c-.3-1.4-.8-3.3-1.6-5.7l-3.3-10.9ZM290.4 98.3 297 109a6.6 6.6 0 0 0 2 2 4.3 4.3 0 0 0 2.2.8 6 6 0 0 1-1.6 3 4.7 4.7 0 0 1-3 .7h-6.3l.2-.7a2.1 2.1 0 0 0 0-.4 3.3 3.3 0 0 0-.2-1 12.8 12.8 0 0 0-.7-1.6l-6-11.2-1.9.3-1.3.2v6.7a5.2 5.2 0 0 0 .6 3 3.5 3.5 0 0 0 2.4 1 6.6 6.6 0 0 1-1.6 3.1 6.1 6.1 0 0 1-3.5.7h-7.4a13 13 0 0 0 1-2.7 11.8 11.8 0 0 0 .3-2.8v-22a4.7 4.7 0 0 0-.8-3 3.7 3.7 0 0 0-2.6-.9 5.4 5.4 0 0 1 2.7-3.8q2-1 9.3-1c2 0 3.7 0 5.2.2a17.5 17.5 0 0 1 3.5.7 11.8 11.8 0 0 1 5.6 3.6 8.8 8.8 0 0 1 2 5.8 8.3 8.3 0 0 1-1.8 5.2 10.8 10.8 0 0 1-5 3.5m-10-1.2a9 9 0 0 0 6-2 7.3 7.3 0 0 0 2-5.7 7.8 7.8 0 0 0-1.3-4.7 4.3 4.3 0 0 0-3.4-1.8 3 3 0 0 0-2.5.9 5 5 0 0 0-.7 3ZM307.5 87.8a5 5 0 0 0-.7-3 3.6 3.6 0 0 0-2.4-1 7.7 7.7 0 0 1 1.8-3.5 5.6 5.6 0 0 1 3.4-.8h8a16.2 16.2 0 0 0-1 3 11.9 11.9 0 0 0-.4 2.8l-.2 22a5 5 0 0 0 .7 3.2 3.7 3.7 0 0 0 2.5 1 8.2 8.2 0 0 1-1.8 3.5 6 6 0 0 1-3.5.7H306a13.1 13.1 0 0 0 1-2.7 11.6 11.6 0 0 0 .4-2.8ZM351.7 83.3a16.8 16.8 0 0 0-24 .3q-4.4 5.2-4.3 13.7t4.7 13.4a16.8 16.8 0 0 0 24-.3q4.5-5.1 4.3-13.6t-4.7-13.5m-6.5 24.6q-1.7 3.7-5.1 3.7c-2.3 0-4-1.1-5.3-3.6s-1.9-6-2-10.9.5-8.4 1.7-11 2.9-3.7 5.2-3.8 4 1.2 5.2 3.7 1.9 6 2 10.9-.5 8.4-1.7 10.9M363.4 112.2a3.5 3.5 0 1 1-3.5-3.4 3.4 3.4 0 0 1 3.5 3.4m-6.1 0a2.6 2.6 0 0 0 2.6 2.7 2.6 2.6 0 0 0 2.6-2.7 2.6 2.6 0 1 0-5.2 0m2 1.8h-.7v-3.4a7 7 0 0 1 1.3 0 2 2 0 0 1 1.2.2 1 1 0 0 1 .3.7.9.9 0 0 1-.7.8 1 1 0 0 1 .6.8 2.3 2.3 0 0 0 .3.9h-.9a3.2 3.2 0 0 1-.2-.9c-.1-.3-.3-.5-.7-.5h-.4Zm0-2h.4c.5 0 .8 0 .8-.4s-.2-.5-.7-.5a2 2 0 0 0-.4 0ZM164.4 53.7l6.7 10.8a6.6 6.6 0 0 0 1.9 2 4.3 4.3 0 0 0 2.3.7 6 6 0 0 1-1.6 3 4.7 4.7 0 0 1-3 .8h-6.3l.2-.7a2.1 2.1 0 0 0 0-.4 3.3 3.3 0 0 0-.2-1 12.8 12.8 0 0 0-.7-1.6l-6-11.2-1.9.3-1.4.2v6.7a5.2 5.2 0 0 0 .7 3 3.5 3.5 0 0 0 2.3 1 6.6 6.6 0 0 1-1.5 3 6.1 6.1 0 0 1-3.6.8H145a13 13 0 0 0 1-2.7 11.8 11.8 0 0 0 .3-2.8v-22a4.7 4.7 0 0 0-.8-3 3.7 3.7 0 0 0-2.6-1 5.4 5.4 0 0 1 2.7-3.8q2-1 9.3-1c2 0 3.7 0 5.1.2a17.5 17.5 0 0 1 3.6.7 11.8 11.8 0 0 1 5.6 3.7 8.8 8.8 0 0 1 2 5.7 8.3 8.3 0 0 1-1.8 5.3 10.8 10.8 0 0 1-5 3.4m-10-1.1a9 9 0 0 0 6-2.1 7.3 7.3 0 0 0 2-5.6 7.8 7.8 0 0 0-1.3-4.8 4.3 4.3 0 0 0-3.6-1.7 3 3 0 0 0-2.5.8 5 5 0 0 0-.7 3ZM204.3 39.7a16.7 16.7 0 0 0-24 .3q-4.4 5.2-4.3 13.6t4.7 13.5a16.8 16.8 0 0 0 24-.3q4.5-5.2 4.3-13.7t-4.7-13.4M198 64.2c-1.2 2.5-2.9 3.8-5.2 3.8s-4-1.2-5.3-3.6-1.8-6.1-1.9-11 .5-8.4 1.6-11 2.9-3.7 5.2-3.7 4 1.2 5.3 3.6 1.8 6.1 2 11-.6 8.4-1.7 11M214.5 34.8h6.7a.8.8 0 0 0 0 .2 3.3 3.3 0 0 0 .2 1.6 11.3 11.3 0 0 0 .8 1.5l11 17.7 1.6 3a52 52 0 0 1 1.7 3.8h.4l-.6-3.2a22.6 22.6 0 0 1-.2-2.8V43.3a4.8 4.8 0 0 0-.8-3.3 4.1 4.1 0 0 0-3-.8h-.3a7.4 7.4 0 0 1 1.9-3.6 6.3 6.3 0 0 1 3.7-.8h5a6 6 0 0 0-1.2 2.5 17.9 17.9 0 0 0-.4 4.2v20.1c0 2.1.2 3.5.7 4.1a3.2 3.2 0 0 0 2.6 1 6 6 0 0 1-1.7 3.3 6 6 0 0 1-3.7.9h-6.4a3.2 3.2 0 0 0 0-.4 2.9 2.9 0 0 0 0-.5 3.3 3.3 0 0 0 0-1 3.4 3.4 0 0 0-.5-1l-11.8-18.8a28.5 28.5 0 0 1-1.6-3 34 34 0 0 1-1.3-3.4h-.3a56.4 56.4 0 0 1 .5 6.9v12.6a4.8 4.8 0 0 0 1 3.4 4 4 0 0 0 3 .9 7 7 0 0 1-1.9 3.4 6.3 6.3 0 0 1-3.7.8h-4.5a8.4 8.4 0 0 0 1-2.7 26.6 26.6 0 0 0 .2-4.4V43a5 5 0 0 0-.7-3 3.5 3.5 0 0 0-2.6-1 7 7 0 0 1 1.9-3.5 5.2 5.2 0 0 1 3.4-.9M54.2 124.9v3h-8.9v5.5h7v2.9h-7v5.6h8.9v3H41.6v-20h12.6zM61.6 141.8h8v3.1H57.9v-20h3.7v16.9zM82.4 137v7.9h-3.7V125h6a12.7 12.7 0 0 1 3.6.4 6.8 6.8 0 0 1 2.3 1.2 4.6 4.6 0 0 1 1.4 1.8 6 6 0 0 1 .4 2.3 6 6 0 0 1-.3 1.9 5.6 5.6 0 0 1-.8 1.6 6 6 0 0 1-1.4 1.3 7.2 7.2 0 0 1-1.9.9 3.7 3.7 0 0 1 1.3 1.1l5 7.4h-3.4a1.6 1.6 0 0 1-.8-.2 1.6 1.6 0 0 1-.6-.6l-4.2-6.4a1.5 1.5 0 0 0-.5-.5 1.8 1.8 0 0 0-.8-.1Zm0-2.6h2.3a5.9 5.9 0 0 0 1.8-.2 3.7 3.7 0 0 0 1.3-.8 3 3 0 0 0 .8-1 3.9 3.9 0 0 0 .2-1.4 2.8 2.8 0 0 0-1-2.3 4.8 4.8 0 0 0-3-.8h-2.4ZM115.6 134.9a11 11 0 0 1-.7 4 9.5 9.5 0 0 1-2 3.3 9.3 9.3 0 0 1-3.2 2.1 11.4 11.4 0 0 1-8.3 0 9.3 9.3 0 0 1-3.2-2.1 9.6 9.6 0 0 1-2-3.2 11.7 11.7 0 0 1 0-8.1 9.5 9.5 0 0 1 2-3.2 9.3 9.3 0 0 1 3.2-2.2 10.8 10.8 0 0 1 4.1-.7 10.5 10.5 0 0 1 4.1.7 9.4 9.4 0 0 1 3.2 2.2 9.5 9.5 0 0 1 2 3.2 11 11 0 0 1 .7 4m-3.8 0a9.3 9.3 0 0 0-.4-2.9 6.1 6.1 0 0 0-1.3-2.2 5.3 5.3 0 0 0-2-1.4 7.4 7.4 0 0 0-5.2 0 5.3 5.3 0 0 0-2 1.4 6.1 6.1 0 0 0-1.2 2.2 10 10 0 0 0 0 5.9 6 6 0 0 0 1.3 2.2 5.5 5.5 0 0 0 2 1.4 7.4 7.4 0 0 0 5.2 0 5.5 5.5 0 0 0 2-1.4 6 6 0 0 0 1.3-2.2 9.3 9.3 0 0 0 .4-3M121.4 125a.8.8 0 0 1 .3 0 .9.9 0 0 1 .3.3 3.1 3.1 0 0 1 .2.3l10.5 13.3v-14h3.2v20h-2a1.7 1.7 0 0 1-.7-.2 1.7 1.7 0 0 1-.5-.5L122.2 131l.1.9c.1.3 0 .5 0 .8v12.2H119v-20h2a2.4 2.4 0 0 1 .4 0M164 134.9a10.9 10.9 0 0 1-.7 4 9.3 9.3 0 0 1-2 3.1 9.4 9.4 0 0 1-3.3 2.1 11.3 11.3 0 0 1-4 .7h-7.7V125h7.6a11.1 11.1 0 0 1 4.1.7 9.6 9.6 0 0 1 3.2 2 9.3 9.3 0 0 1 2 3.2 10.9 10.9 0 0 1 .8 4m-3.8 0a9.3 9.3 0 0 0-.4-3 6.1 6.1 0 0 0-1.3-2.2 5.4 5.4 0 0 0-2-1.3 6.8 6.8 0 0 0-2.6-.5H150v14h3.9a6.8 6.8 0 0 0 2.6-.5 5.5 5.5 0 0 0 2-1.4 6.1 6.1 0 0 0 1.2-2.2 9.3 9.3 0 0 0 .5-3M180 124.9v3h-8.8v5.5h6.9v2.9h-6.9v5.6h8.8v3h-12.6v-20H180zM203.3 140.2a.7.7 0 0 1 .5.2l1.5 1.6a8.1 8.1 0 0 1-3 2.3 10.3 10.3 0 0 1-4.3.8 10.1 10.1 0 0 1-4-.8 8.8 8.8 0 0 1-3-2 9.2 9.2 0 0 1-2-3.3 12.2 12.2 0 0 1-.6-4.1 10.9 10.9 0 0 1 .8-4.1 9.4 9.4 0 0 1 2-3.2 9.7 9.7 0 0 1 3.3-2.1 11.1 11.1 0 0 1 4.1-.8 9.9 9.9 0 0 1 4 .7 9.3 9.3 0 0 1 2.8 2L204 129a1 1 0 0 1-.2.3.7.7 0 0 1-.5.1 1.1 1.1 0 0 1-.7-.2 8.3 8.3 0 0 0-.8-.6 6.7 6.7 0 0 0-1.3-.5 6.5 6.5 0 0 0-2-.3 6.6 6.6 0 0 0-2.6.5 5.7 5.7 0 0 0-2 1.4 6.5 6.5 0 0 0-1.3 2.2 8.4 8.4 0 0 0-.5 3 8.6 8.6 0 0 0 .5 3 6.4 6.4 0 0 0 1.3 2.2 5.5 5.5 0 0 0 1.9 1.3 5.8 5.8 0 0 0 2.4.5 9.5 9.5 0 0 0 1.3 0 5.5 5.5 0 0 0 1.2-.3 4.8 4.8 0 0 0 1-.5 5.7 5.7 0 0 0 .9-.7 1.3 1.3 0 0 1 .3-.2.6.6 0 0 1 .3 0M227.7 134.9a11 11 0 0 1-.7 4.1 9.5 9.5 0 0 1-2 3.2 9.3 9.3 0 0 1-3.2 2.2 11.4 11.4 0 0 1-8.2 0 9.3 9.3 0 0 1-3.2-2.2 9.6 9.6 0 0 1-2-3.2 11.7 11.7 0 0 1 0-8.1 9.5 9.5 0 0 1 2-3.2 9.3 9.3 0 0 1 3.2-2.2 10.8 10.8 0 0 1 4.1-.7 10.5 10.5 0 0 1 4.1.7 9.4 9.4 0 0 1 3.2 2.2 9.5 9.5 0 0 1 2 3.2 11 11 0 0 1 .7 4m-3.8 0a9.3 9.3 0 0 0-.4-2.9 6.1 6.1 0 0 0-1.3-2.2 5.3 5.3 0 0 0-2-1.4 7.4 7.4 0 0 0-5.2 0 5.3 5.3 0 0 0-2 1.4 6.1 6.1 0 0 0-1.3 2.2 10 10 0 0 0 0 5.9 6 6 0 0 0 1.3 2.1 5.5 5.5 0 0 0 2 1.4 7.4 7.4 0 0 0 5.3 0 5.5 5.5 0 0 0 2-1.4 6 6 0 0 0 1.2-2.2 9.3 9.3 0 0 0 .4-3M241.8 128.6a1 1 0 0 1-.3.4.8.8 0 0 1-.5.1 1.1 1.1 0 0 1-.6-.2l-.8-.5a7.1 7.1 0 0 0-1.1-.5 4.7 4.7 0 0 0-1.5-.2 4.2 4.2 0 0 0-1.3.2 2.8 2.8 0 0 0-1 .5 2 2 0 0 0-.6.8 2.6 2.6 0 0 0-.2 1 1.8 1.8 0 0 0 .4 1.2 3.3 3.3 0 0 0 1 .8 9.2 9.2 0 0 0 1.5.6l1.6.5a17.6 17.6 0 0 1 1.7.7 5.8 5.8 0 0 1 1.5 1 4.5 4.5 0 0 1 1 1.5 5.1 5.1 0 0 1 .4 2.1 6.8 6.8 0 0 1-.5 2.5 6 6 0 0 1-1.3 2 6.2 6.2 0 0 1-2.2 1.5 7.9 7.9 0 0 1-3 .5 9.7 9.7 0 0 1-1.8-.2 10 10 0 0 1-1.8-.6 9.6 9.6 0 0 1-1.5-.8 7.7 7.7 0 0 1-1.4-1l1.1-1.8a1.4 1.4 0 0 1 .4-.4.8.8 0 0 1 .5 0 1.3 1.3 0 0 1 .7.2l1 .6a6.6 6.6 0 0 0 1.2.6 4.9 4.9 0 0 0 1.8.3 3.6 3.6 0 0 0 2.4-.7 2.7 2.7 0 0 0 1-2.2 2 2 0 0 0-.5-1.3 3.2 3.2 0 0 0-1-.8 7.4 7.4 0 0 0-1.5-.6l-1.6-.5a17.2 17.2 0 0 1-1.7-.6 5.6 5.6 0 0 1-1.5-1 4.5 4.5 0 0 1-1-1.6 6 6 0 0 1-.4-2.3 5.4 5.4 0 0 1 1.7-4 6.3 6.3 0 0 1 2-1.2 7.5 7.5 0 0 1 2.8-.5 9.2 9.2 0 0 1 3.2.5 7.2 7.2 0 0 1 2.6 1.6ZM260.5 124.9v3.1h-5.9v16.9h-3.7V128h-6.1v-3.1h15.7zM279 144.8h-3a1.3 1.3 0 0 1-.7-.2 1.4 1.4 0 0 1-.5-.6l-1.5-4h-8.2l-1.5 4a1.3 1.3 0 0 1-1.2.8h-3l8-19.9h3.7Zm-13-7.5h6.3l-2.3-6.6a68.3 68.3 0 0 1-.8-2.3c0 .5-.2 1-.3 1.3l-.4 1ZM291.2 137v7.9h-3.7V125h6a12.7 12.7 0 0 1 3.6.4 6.6 6.6 0 0 1 2.3 1.2 4.6 4.6 0 0 1 1.4 1.8 6 6 0 0 1 .4 2.3 6.2 6.2 0 0 1-.2 2 5.7 5.7 0 0 1-.9 1.6 5.8 5.8 0 0 1-1.4 1.2 7.2 7.2 0 0 1-1.8 1 3.7 3.7 0 0 1 1.2 1l5 7.4h-3.4a1.6 1.6 0 0 1-.8-.2 1.8 1.8 0 0 1-.6-.5l-4.1-6.4a1.5 1.5 0 0 0-.6-.5 1.8 1.8 0 0 0-.8-.2Zm0-2.6h2.3a5.8 5.8 0 0 0 1.8-.2 3.5 3.5 0 0 0 1.3-.8 2.7 2.7 0 0 0 .8-1 3.7 3.7 0 0 0 .2-1.4 2.8 2.8 0 0 0-1-2.4 4.8 4.8 0 0 0-3-.8h-2.4ZM306.4 125h3.7v19.9h-3.7zM328.9 140.2a.7.7 0 0 1 .5.2l1.4 1.6a8.1 8.1 0 0 1-3 2.3 10.3 10.3 0 0 1-4.2.8 10 10 0 0 1-4-.8 9 9 0 0 1-3-2 9.4 9.4 0 0 1-2-3.3 12.2 12.2 0 0 1-.6-4.1 10.9 10.9 0 0 1 .7-4.1 9.3 9.3 0 0 1 2.1-3.2 9.7 9.7 0 0 1 3.3-2.1 11.1 11.1 0 0 1 4.1-.8 9.9 9.9 0 0 1 3.9.7 9.3 9.3 0 0 1 2.8 2l-1.2 1.6a1.1 1.1 0 0 1-.3.3.8.8 0 0 1-.4.1 1.1 1.1 0 0 1-.7-.2 8.3 8.3 0 0 0-.8-.6 6.7 6.7 0 0 0-1.3-.5 6.5 6.5 0 0 0-2-.3 6.6 6.6 0 0 0-2.6.5 5.7 5.7 0 0 0-2 1.4 6.3 6.3 0 0 0-1.3 2.2 8.4 8.4 0 0 0-.5 3 8.6 8.6 0 0 0 .5 3 6.5 6.5 0 0 0 1.3 2.2 5.5 5.5 0 0 0 1.9 1.3 5.8 5.8 0 0 0 2.4.5 9.5 9.5 0 0 0 1.3 0 5.4 5.4 0 0 0 1.1-.3 4.9 4.9 0 0 0 1-.5 6.2 6.2 0 0 0 1-.7 1.3 1.3 0 0 1 .3-.2.6.6 0 0 1 .3 0M351.7 144.8h-2.9a1.3 1.3 0 0 1-.8-.2 1.4 1.4 0 0 1-.4-.6l-1.5-4h-8.3l-1.4 4a1.3 1.3 0 0 1-.5.6 1.2 1.2 0 0 1-.8.2h-2.8L340 125h3.8Zm-12.9-7.5h6.3l-2.4-6.6-.3-1-.4-1.3-.4 1.3-.4 1Z"/></svg>