<?xml version="1.0" encoding="UTF-8"?>
<svg id="Layer_1" data-name="Layer 1" xmlns="http://www.w3.org/2000/svg" viewBox="0 0 218.11 72.8">
  <defs>
    <style>
      .cls-1 {
        fill: #0a483a;
      }
    </style>
  </defs>
  <path class="cls-1" d="m17.61,31c-.38.83-.93,1.58-1.6,2.2-.9.6-1.9.8-2.9,1l.2-.6.1-.4c0-.4-.2-.8-.6-1-.5-.3-1-.4-1.5-.3-1.68.08-3.2,1.02-4,2.5-.9,1.7-1.3,3.9-1.2,6.8.1,3.2.7,5.6,1.8,7.1,1.09,1.53,2.92,2.37,4.8,2.2.8,0,1.6-.2,2.4-.5.9-.32,1.77-.72,2.6-1.2v.4c.1,1.3-.5,2.5-1.6,3.1-1.1.7-2.8,1.1-5,1.2-3.3.1-6.1-.8-8-2.9C1.11,48.5.11,45.7,0,41.9s.8-6.8,2.8-9.1c2-2.4,4.9-3.7,8-3.7,1.21-.07,2.43.07,3.6.4,1,.4,2.1.8,3.2,1.5m7.2-1.4h14.3c-.3,1.5-.7,2.6-1.3,3.1-.9.7-2,1-3.1,1l.1-.4.1-.3c0-.3-.2-.6-.7-.7-1.73-.27-3.49-.24-5.2.1-.4.3-.6.8-.5,1.3v5h5.5l1-.1,1.2-.3c-.2.9-.6,1.7-1.2,2.5-.66.41-1.42.62-2.2.6h-4.3v6.3l.1,1.5c.1.3.3.6.6.7l1,.3,2.2.1h2.7l2.5-.1,1.7-.3c-.3,1.4-.7,2.3-1.2,2.7s-1.5.6-2.9.6h-13.2c.3-.6.5-1.1.6-1.7l.2-1.8v-14.7c.1-.6-.1-1.3-.5-1.8-.5-.4-1-.6-1.7-.6.1-.8.6-1.7,1.2-2.3.6-.4,1.6-.6,3-.7m19.6.1h4.4v.4l.1.8.5,1,7.3,11.6,1,2,1.1,2.5h.3l-.4-2.1-.1-1.8v-8.9c.1-.78-.12-1.57-.6-2.2-.6-.4-1.3-.6-2-.6h-.1c.2-.9.6-1.7,1.3-2.4.8-.4,1.6-.6,2.4-.6h3.3c-.4.5-.7,1-.8,1.6-.2.9-.3,1.9-.3,2.8v13.3c0,1.3.1,2.2.5,2.7s1,.8,1.7.7c-.1.8-.6,1.5-1.1,2.1-.74.4-1.56.6-2.4.6h-4.2l.1-.2v-.3l-.1-.7-.3-.6-7.8-12.2-1-2-.8-2.2h-.2l.3,2.4.1,2.1v8.4c-.1.78.12,1.57.6,2.2.6.5,1.3.7,2,.6-.2.8-.6,1.6-1.3,2.2-.73.41-1.57.59-2.4.5h-2.9l.6-1.8.2-2.9v-13.5c.1-.7-.1-1.4-.5-2-.5-.4-1-.6-1.7-.6.2-.8.6-1.7,1.3-2.3.4-.5,1.2-.7,1.9-.6m42.5-.4c-.3,1-.8,2-1.6,2.8-.8.5-1.9.7-2.9.6h-1.3c-.7-.1-1.4,0-2,.3-.3.3-.4.8-.3,1.2l-.1,13.8c-.1.7.1,1.5.4,2.1.5.4,1.1.6,1.7.6-.15.84-.57,1.61-1.2,2.2-.7.4-1.5.6-2.3.6h-5.3c.3-.6.6-1.3.7-2l.2-2.7.1-14.5c0-.7-.1-1.1-.3-1.3-.54-.2-1.12-.3-1.7-.3l-3.6.1c-.7.1-1.4.2-2,.5.3-1,.8-2,1.6-2.8.8-.6,1.9-.8,2.9-.8l3.5.1,5.7.1,5.1-.1c.9,0,1.8-.2,2.7-.5m5.1.3h14.4c-.3,1.5-.7,2.6-1.3,3.1s-1.7.9-3.1,1l.1-.4.1-.3c0-.3-.2-.6-.7-.7-.7-.1-1.4-.3-2.1-.2-1.7,0-2.8.1-3.1.3-.4.3-.6.8-.5,1.3v5h5.5l1-.1,1.2-.3c-.2.9-.6,1.7-1.2,2.5-.66.41-1.42.62-2.2.6h-4.3v6.3l.1,1.5c.1.3.3.6.6.7.3.1.7.3,1.1.3l2.2.1h2.7l2.5-.1,1.7-.3c-.3,1.4-.7,2.3-1.2,2.7s-1.5.6-2.9.6h-13.4c.3-.6.5-1.1.6-1.7l.2-1.8v-14.7c.1-.6-.1-1.3-.4-1.9-.5-.4-1.1-.6-1.7-.6.1-.8.6-1.7,1.2-2.2.6-.4,1.6-.6,2.9-.7m19.2,0h4.4v.5l.1.8.5,1,7.3,11.6,1.1,2c.5.8.8,1.6,1.1,2.5h.3l-.4-2.1-.1-1.8v-8.9c.1-.8-.1-1.5-.6-2.1-.6-.4-1.3-.6-1.9-.6h-.1c.2-.9.6-1.7,1.3-2.4.8-.4,1.6-.6,2.5-.6h3.3c-.4.5-.7,1-.8,1.6-.2.9-.3,1.9-.3,2.8v13.2c0,1.4.1,2.2.5,2.7s1.1.8,1.7.7c-.1.8-.6,1.5-1.2,2.1-.74.4-1.56.6-2.4.6h-4.2l.1-.2v-.3l-.1-.7-.3-.6-7.8-12.3c-.35-.68-.72-1.34-1.1-2l-.8-2.2h-.3l.3,2.4.1,2.1v8.4c-.1.78.12,1.57.6,2.2.6.5,1.3.7,2,.6-.2.8-.6,1.6-1.3,2.2-.8.4-1.6.6-2.4.5h-2.9l.6-1.8.2-2.9v-13.5c.1-.7-.1-1.4-.4-2-.5-.4-1.1-.6-1.7-.6.2-.8.6-1.7,1.3-2.3.3-.4,1.1-.6,1.8-.6m43.9,20.9c-.2.8-.6,1.7-1.2,2.3-.4.3-1.3.6-2.4.6h-4.8l.6-1.5.1-1.7-.1-1.5c-.12-.69-.32-1.36-.6-2h-8.2l-.4,1.5-.1,1c0,.4.1.8.4,1.1.4.3.8.4,1.2.3h.1c-.2.8-.6,1.6-1.1,2.2-.4.3-1.1.5-2.3.5h-3.1c.9-1.84,1.57-3.79,2-5.8l1.3-4.3,1.9-5.9c.5-1.3.9-2.7,1.2-4.1,0-.3-.1-.6-.3-.7-.4-.1-.7-.3-1.1-.2l.9-1.8c.2-.4.5-.6.8-.7l1.2-.2,2.8-.1h.5c.54-.02,1.07.01,1.6.1l.7.4c.61,1,1.08,2.08,1.4,3.2l2.6,7.5c.6,1.6,1.1,3.3,1.5,5.2l.9,3.3c.1.3.4.7.7.9.4.3.8.4,1.3.4h0Zm-12.7-17.4c-.85,3.69-1.92,7.33-3.2,10.9h6.8l-1.1-3.8-2.2-7.1s-.3,0-.3,0Zm27.7,8.8l4.4,7c.4.6.8,1,1.3,1.3.4.3,1,.5,1.5.5-.1.8-.6,1.4-1.1,2-.6.3-1.3.6-1.9.5h-4.1l.1-.5v-.3l-.1-.7-.5-1-4-7.4-1.3.2-.9.1v4.5c-.1.7.1,1.4.4,2,.4.4,1,.7,1.5.7-.09.79-.48,1.5-1.1,2-.7.3-1.5.6-2.3.5h-4.9c.27-.54.47-1.11.6-1.7l.2-1.8v-14.6c.1-.7-.1-1.4-.5-2-.5-.4-1.1-.6-1.7-.6.2-1,.8-2,1.8-2.5,3.9-.65,7.88-.72,11.8-.2,1.5.4,2.7,1.3,3.7,2.4.9,1,1.3,2.4,1.3,3.8,0,1.25-.38,2.48-1.1,3.5-.68,1.15-1.8,1.98-3.1,2.3m-6.5-.7c1.5,0,2.9-.5,4-1.4.92-1,1.39-2.34,1.3-3.7.05-1.1-.27-2.19-.9-3.1-.53-.79-1.46-1.22-2.4-1.1-.6-.1-1.2.1-1.6.6-.4.6-.5,1.3-.4,2v6.7h0Zm17.8-6.2c.1-.7-.1-1.4-.4-2-.4-.4-1.1-.6-1.7-.6.2-.8.6-1.7,1.3-2.3.7-.4,1.5-.6,2.2-.5l5.2.1-.7,1.9-.2,1.9-.1,14.5c-.1.7.1,1.5.4,2.1.5.4,1.1.6,1.7.6-.2.8-.6,1.7-1.3,2.3-.7.4-1.5.6-2.3.5h-5.2l.7-1.7.2-1.9.2-14.9h0Zm29.1-2.9c-4.28-4.31-11.25-4.33-15.56-.04-.01.01-.03.03-.04.04l-.2.2c-1.9,2.2-2.9,5.2-2.9,8.9s1.1,6.7,3.1,8.9c4.28,4.31,11.25,4.33,15.56.04.01-.01.03-.03.04-.04l.2-.2c1.9-2.2,2.9-5.2,2.9-8.9.12-3.25-.99-6.43-3.1-8.9m-4.3,16.1c-.8,1.6-1.9,2.4-3.4,2.5s-2.6-.8-3.5-2.4-1.3-4-1.3-7.2.3-5.6,1.1-7.2,1.9-2.4,3.4-2.5,2.6.8,3.5,2.4,1.3,4,1.3,7.2-.3,5.6-1.1,7.2m11.9,2.9c0,1.3-1,2.2-2.2,2.3-1.3.1-2.3-.9-2.4-2.1s.9-2.3,2.1-2.4h.3c1.3,0,2.2,1,2.2,2.2m-3.9,0c0,1,.7,1.7,1.7,1.7h.1c.9,0,1.7-.8,1.7-1.7.1-1-.6-1.7-1.6-1.8s-1.7.6-1.8,1.6l-.1.2m1.3,1.2h-.5v-2.2l.8-.1.8.1.2.5c0,.3-.2.5-.5.5.2.1.4.3.4.6l.1.6h-.6l-.1-.6c-.1-.2-.1-.3-.5-.3h-.3l.2.9h0Zm0-1.2h.3c.3,0,.5-.1.5-.3s-.1-.3-.5-.3h-.3v.6ZM87.31,12.6l4.4,7.1c.3.6.8,1,1.3,1.3.4.3,1,.5,1.5.5-.1.8-.6,1.4-1.1,2-.6.4-1.3.6-1.9.6h-4.1l.1-.5v-.3l-.1-.7-.5-1-4-7.4-1.3.2-.9.1v4.5c-.1.7.1,1.4.4,2,.4.4,1,.7,1.5.7-.09.79-.48,1.5-1.1,2-.6.2-1.5.4-2.2.4h-4.9c.27-.54.47-1.11.6-1.7l.2-1.8V6c.1-.7-.1-1.4-.5-2-.5-.4-1.1-.6-1.7-.6.2-1,.8-2,1.7-2.5.9-.5,3-.8,6.2-.8l3.3.1,2.3.4c1.5.5,2.7,1.3,3.7,2.5.8,1,1.3,2.4,1.3,3.8.1,1.3-.3,2.5-1.2,3.5-.6,1-1.7,1.8-3,2.2m-6.6-.7c1.5,0,2.9-.5,4-1.4.92-1,1.39-2.34,1.3-3.7.05-1.1-.27-2.19-.9-3.1-.53-.79-1.46-1.22-2.4-1.1-.6-.1-1.2.1-1.6.6-.3.6-.6,1.3-.4,2,0,0,0,6.7,0,6.7ZM113.51,3.4c-4.28-4.31-11.25-4.33-15.56-.04-.01.01-.03.03-.04.04l-.2.2c-1.9,2.2-2.8,5.2-2.8,8.9s1.1,6.7,3.1,8.9c4.28,4.31,11.25,4.33,15.56.04.01-.01.03-.03.04-.04l.2-.2c1.9-2.2,2.9-5.2,2.9-8.9s-1.2-6.7-3.2-8.9m-4.2,16.1c-.8,1.6-1.9,2.4-3.4,2.5s-2.7-.8-3.5-2.4-1.3-4-1.3-7.2.3-5.6,1.1-7.2,1.9-2.4,3.4-2.5,2.7.8,3.5,2.4c.8,1.6,1.3,4,1.3,7.2s-.4,5.6-1.1,7.2M120.21.1h4.4v.4l.1.8.5,1.1,7.3,11.6,1.1,1.9c.5.7.7,1.6,1.1,2.5h.3l-.4-2.1-.1-1.8V5.8c.1-.78-.12-1.57-.6-2.2-.6-.4-1.3-.6-1.9-.6h-.1c.2-.9.6-1.7,1.3-2.4.8-.4,1.6-.6,2.5-.6h3.3c-.4.5-.7,1-.8,1.6-.2.9-.3,1.9-.3,2.8v13.3c0,1.3.1,2.2.5,2.6.4.5,1.1.8,1.7.7-.1.8-.6,1.5-1.1,2.1-.74.4-1.56.6-2.4.6h-4.2l.1-.2v-.4l-.1-.7-.3-.6-7.8-12.4-1.1-1.9-.8-2.2h-.5l.3,2.4.1,2.1v8.3c-.1.78.12,1.57.6,2.2.6.5,1.3.7,2,.6-.2.8-.6,1.6-1.3,2.2-.8.4-1.6.6-2.4.5h-2.9l.6-1.8.2-2.9V5.7c.1-.7-.1-1.4-.4-2-.5-.4-1.1-.6-1.7-.6.2-.8.6-1.7,1.3-2.3.4-.5,1.2-.7,1.9-.7M14.61,63.8h-3.1v8.7h-1.8v-8.7h-3.1v-1.5h8.1l-.1,1.5Zm11.7-1.5v10.3h-2v-4.5h-4.8v4.5h-2v-10.3h2v4.4h4.8v-4.4s2,0,2,0Zm5.9,1.5v2.9h3.7v1.5h-3.6v2.9h4.5v1.5h-6.5v-10.3h6.5v1.5h-4.6Zm21.2,8.7h-1.7c-.3,0-.6-.1-.7-.4l-2.2-3.3-.3-.3c-.12-.07-.26-.1-.4-.1h-.8v4.1h-1.9v-10.2h3.1l1.8.2,1.3.6c.3.3.6.6.7.9l.2,1.2-.1,1-.4.8-.7.7c-.31.19-.65.33-1,.4l.3.3.3.3s2.5,3.8,2.5,3.8Zm-4.9-5.3l.9-.1c.3,0,.5-.2.7-.3l.4-.6.1-.7c0-.5-.1-.9-.5-1.2-.5-.3-1-.5-1.6-.4h-1.3v3.4s1.3-.1,1.3-.1Zm11.8,3.8l1-.2.8-.5.5-.8c.2-.3.1-.7.1-1.1v-6.1h1.9v6.1c0,.6-.1,1.2-.3,1.7l-.8,1.3c-.35.41-.79.72-1.3.9l-1.7.3-1.8-.3c-.51-.18-.95-.49-1.3-.9l-.8-1.3c-.2-.54-.3-1.12-.3-1.7v-6.1h1.9v6.1l.1,1.1.5.8.8.6s.7.1.7.1Zm19.2-8.7v10.3h-1.6v-6.6l.1-.8-3.1,5.8c-.1.3-.4.4-.7.4h-.3c-.3,0-.6-.1-.7-.4l-3.1-5.9.1.5c.1.2,0,.3,0,.4v6.6h-1.6v-10.3h1.8l.1.1.1.1,3.1,5.7.2.5.2.5.2-.5.2-.5,3.1-5.7.1-.1.1-.1h1.7Zm19,5.1l-.3,2.1c-.3.6-.7,1.2-1.1,1.6-.5.5-1.1.8-1.7,1.1-.7.3-1.4.4-2.2.4-.7,0-1.4-.1-2.1-.4-.6-.3-1.2-.6-1.7-1.1s-.8-1.1-1.1-1.7c-.51-1.35-.51-2.85,0-4.2.2-.6.6-1.2,1.1-1.7s1.1-.8,1.7-1.1c1.1-.4,2.4-.5,3.6-.2l1.3.5,1.1.8.8,1,.5,1.3s.1,1.6.1,1.6Zm-2,0l-.2-1.5c-.1-.4-.3-.8-.6-1.1s-.6-.6-1.1-.7c-.8-.3-1.8-.3-2.7,0-.83.27-1.47.95-1.7,1.8-.3,1-.3,2,0,3.1.1.4.3.8.6,1.1s.6.6,1.1.7c.8.3,1.8.3,2.7,0,.83-.27,1.47-.95,1.7-1.8l.2-1.6Zm7.3-3.6v3.1h3.8v1.5h-3.8v4.2h-1.9v-10.3h6.5v1.5h-4.6Zm19.7,6.3l.3.1.8.8c-.4.5-1,.9-1.5,1.2-1.35.53-2.85.53-4.2,0-.6-.3-1.1-.6-1.5-1.1s-.8-1.1-1-1.7c-.39-1.37-.39-2.83,0-4.2.2-.6.6-1.2,1.1-1.7.4-.5,1-.8,1.6-1.1.7-.3,1.4-.4,2.1-.4s1.3.1,2,.3c.57.21,1.08.56,1.5,1l-.6.9-.1.1-.3.1-.2-.1-.3-.1-.3-.2-.4-.2-.6-.1-.7-.1c-.86.04-1.68.39-2.3,1-.3.3-.5.7-.6,1.1l-.2,1.5c0,.5.1,1.1.3,1.5.1.4.4.8.7,1.1s.6.6,1,.7.8.3,1.3.3l.7-.1.6-.1.5-.2.5-.3q-.2.1-.2,0-.1.1,0,0Zm13.6-2.7c0,.7-.1,1.4-.4,2.1-.2.6-.6,1.2-1.1,1.7s-1.1.8-1.7,1.1c-1.4.6-2.9.6-4.3,0-1.26-.5-2.25-1.52-2.7-2.8-.51-1.35-.51-2.85,0-4.2.49-1.26,1.46-2.27,2.7-2.8,1.1-.4,2.4-.5,3.6-.2l1.3.5,1.1.8.8,1.1.5,1.3c.2.4.2.9.2,1.4h0Zm-1.9,0l-.2-1.5c-.1-.4-.4-.8-.6-1.1s-.6-.6-1.1-.7c-.8-.3-1.8-.3-2.7,0-.83.27-1.47.95-1.7,1.8-.3,1-.3,2,0,3.1.1.4.4.8.6,1.1s.6.6,1.1.7c.8.3,1.8.3,2.7,0,.83-.27,1.47-.95,1.7-1.8l.2-1.6Zm10.8-3.2l-.2.2-.2.1-.4-.1c-.2,0-.3-.1-.4-.3l-.6-.3-.8-.1-.7.1c-.2.1-.4.1-.5.3l-.3.4-.1.6.2.6.6.4.8.3.8.3.8.3.8.5.6.8.2,1.1-.2,1.3c-.1.4-.4.8-.7,1.1-.4.3-.7.6-1.1.7-.48.2-.99.3-1.5.3l-1-.1-.9-.3-.8-.4c-.3-.1-.5-.3-.7-.6l.6-.9.2-.1.3-.1.4.1.5.3.6.3.9.1c.47.02.93-.12,1.3-.4.3-.3.5-.7.4-1.1,0-.22-.07-.43-.2-.6-.1-.2-.4-.3-.6-.4l-.8-.3-.8-.3-.8-.3-.8-.5-.6-.8-.2-1.2.2-1.1.6-1c.2-.3.6-.6,1.1-.7l1.5-.3c.58,0,1.16.1,1.7.3.5.1.9.4,1.3.8l-.5,1h0Zm11.2-.4h-3.1v8.7h-1.9v-8.7h-3.1v-1.5h8.1v1.5Zm10.8,8.7h-1.5l-.4-.1-.2-.3-.8-2.1h-4.2l-.8,2.1-.2.3-.4.1h-1.5l4.1-10.3h1.9l4,10.3Zm-3.3-3.8l-1.3-3.4-.2-.6-.2-.7-.2.7-.2.6-1.3,3.4h3.4Zm18.8,3.8h-1.7c-.3,0-.6-.1-.7-.4l-2.2-3.3-.3-.3c-.12-.07-.26-.1-.4-.1h-.8v4.1h-1.9v-10.2h3.1l1.8.2,1.3.6c.3.3.6.6.7.9.3.7.3,1.5.1,2.2l-.4.8-.7.7c-.31.19-.65.33-1,.4.3.1.5.3.6.6l2.5,3.8h0Zm-4.9-5.3l.9-.1c.3,0,.5-.2.7-.3l.4-.6.1-.7c0-.5-.1-.9-.5-1.2-.5-.3-1.1-.5-1.5-.4h-1.3v3.4l1.2-.1h0Zm9.7,5.3h-1.9v-10.2h1.9v10.2Zm11-2.4l.3.1.8.8c-.4.5-1,.9-1.5,1.2-.7.3-1.5.4-2.2.4s-1.4-.1-2.1-.4c-.6-.3-1.1-.6-1.5-1.1-.9-1.06-1.4-2.41-1.4-3.8,0-.7.1-1.4.4-2.1.2-.6.6-1.2,1.1-1.7s1-.8,1.6-1.1c1.32-.48,2.76-.52,4.1-.1.57.21,1.08.56,1.5,1l-.6.9-.1.1-.3.1-.2-.1-.3-.1-.4-.2-.4-.2-.6-.1-.7-.1-1.3.3c-.4.1-.7.4-1,.7s-.5.7-.6,1.1l-.2,1.5c0,.5.1,1.1.3,1.5.1.4.4.8.7,1.1s.6.6,1,.7.8.3,1.3.3l.7-.1.6-.1.5-.2.5-.3c-.2.1-.1.1,0,0-.1.1,0,.1,0,0h0Zm12.9,2.4h-1.5l-.4-.1-.2-.3-.8-2.1h-4.3l-.8,2.1-.2.3-.4.1h-1.5l4.1-10.3h1.9l4.1,10.3h0Zm-3.4-3.8l-1.3-3.4-.2-.6-.2-.7-.2.7-.2.6-1.3,3.4h3.4Z"/>
</svg>