<svg id="Layer_1" data-name="Layer 1" xmlns="http://www.w3.org/2000/svg" viewBox="0 0 1200 1200"><defs><style>.cls-1{fill:#dcbf6f;}</style></defs><title>aged_gold</title><path class="cls-1" d="M433.4,377.43a11.56,11.56,0,0,0-3-6.41,138.68,138.68,0,0,0-12.44-9.75,20,20,0,0,0-3.13-1.64c-.42,1.24-1.24,2.52-1.27,3.72-.9,5.25-1.41,10.47-2,16.88A29.44,29.44,0,0,0,408.5,377c-3.48-3.58-7.36-7.13-12.51-6.56-6.74.74-13.14,4.23-18.4,10a181.08,181.08,0,0,0-22,31c-4.1,7.2-8.21,14.39-11.94,22-2.88,5.48-5,11.66-7.49,17.5-3.32,7.11-6.25,14.57-6.41,22.14-.08,3.57.24,7.11.16,10.69-.21,9.55,2,17.24,9.39,22.78,6.23,4.47,15.38,1.88,19.83-3,9.71-10.2,17.86-21.42,26.8-32.32A58.28,58.28,0,0,0,395.74,455c2.09-5.38,6.15-10.2,9.42-14.92l1.18-.14-1.29,4.91c-1.32,6.1-3.82,12.33-3.95,18.29-.11,5.18-2.18,9.37-3.86,13.92a6.32,6.32,0,0,0-.85,2.48c-.45,2.83-.13,6-1.37,8.88-3.79,10.34-8.35,20.37-12.53,30.75-1.67,4.16-2.17,8.57-3.84,12.73-2.5,6.22-5.8,12.14-8.7,18.42s-5,12.85-8.32,18.77c-4.92,8.48-11,16.69-16.75,25.26-1.63,2.16-2.47,4.64-4.1,6.8-3.26,4.33-6.91,8.3-10.55,12.28-6.47,6.66-13,13.73-21.72,17.07-5.58,2.21-11.18,5.21-16.74,6.21a50.78,50.78,0,0,1-8.56.67c0-.44-.12-.92-.12-1.32-.35-1.95-1.48-4.6-.66-5.89,2.45-3.44,2.91-6.66,3-10.24.06-2.79.52-5.62.58-8.4.58-8.8,1.17-17.59,2.16-26.83,2.79-1.1,3.25-3.93,2.53-7a4.76,4.76,0,0,1-.35-2.35c.49-4.42,1.38-8.88,1.88-13.7.46-2.83-.66-5.88,2.56-8.62,1.21-1.32,1.28-4.1,1.71-6.14l2.85-21.74c.44-2.43.51-5.62-.64-7.08-1.93-2.16-1.12-3,.5-4.81,1.22-1.33,2.83-3.09,2.87-4.68.47-3.63.92-6.06,5.68-7,2-.22,4-2.83,5.25-4.94.41-.44-1.14-2.26-1.9-3.37a22.93,22.93,0,0,0-4.25-4.69,41.14,41.14,0,0,0,4-3.62c-1.95-1-3.12-1.64-3.91-1.95.87-3.66,1.73-6.54,2.18-9.37.48-3.62-1.4-8.18.24-10.74,4.1-6.8,3.46-13.87,5.19-20.81.42-1.24.05-2.39.08-3.58,0-1.59-.33-3.14.49-4.42,4.1-6.8,4.64-13.6,4.82-21.56a27.61,27.61,0,0,1-2.81,1.89l-1.19.13,3.67-5.16,1.16,1.06c1.85-12.11,3.69-24.22,5.93-36.37L322,373c6-2.24,5.28-6.53,6.15-10.2l0-1.19q.85-12,1.7-24c.53-6,1.06-12,1.18-18,.16-7.16-.08-14.28.07-21.44l1.63-2.17c.13-6,.66-12,.38-17.5A40.36,40.36,0,0,0,331,268.43c-1.52-3-3-5.62-8.2-5.05-4.75.52-9.46-1.34-13.39-2.09-2.38.26-4.35.07-6.34.69a6.77,6.77,0,0,0-3.6,2c-.81.88-.85,2.47-1.28,4.11,1.2-.53,2.4-1.06,4-1.63,0,1.59.34,2.74-.08,3.58-2.87,4.68-5.74,9.36-9,14.08-4.9,7.3-10.2,14.62-15.11,21.91l-4.9,7.68c-2.88,4.69-5,9.68-8.21,13.61-7.32,9.54-15.42,18.37-20,29.59-2.5,5.83-6.57,11-9.85,16.56-7.38,12.32-15.17,24.69-23,37.05q-4.9,7.69-9.82,15.37l-2.45,3.84-1.16-1.06,19.18-32.27a3.19,3.19,0,0,0,.83,2.68L226,386.35l-1.19.13c-3.86,4.63-5.9,7.16-6.69,8.9l-1-.91a18.85,18.85,0,0,0-3.26,4.33c-4.51,7.24-9,14.88-13.53,22.13-1.23,2.12-2.85,3.88-4.08,6-4.52,8-9.05,16.08-13.17,24.07-1.66,3.36-5.68,6.59-3,11.05a3.52,3.52,0,0,1-.83,1.68c-4.5,6.84-7,14.66-13.48,20.13-.8.49-.84,2.08-1.26,3.32-.44,2-.48,4-1.31,5.7-4.1,6.8-8.6,13.65-13.1,20.49a10.2,10.2,0,0,1-3.21,2.34c-6.37,2.29-12.74,4.18-19.11,6.07-2.39.66-4.38,1.68-6.77,2.34-8.34,1.71-17.07,3.07-25.42,5.17-16.69,4.23-33.4,8.85-50.1,13.47-11.14,3.21-22.28,6.41-33.43,10-6.77,2.33-7.65,6.39-3.41,11.48,1.53,2.21,3.06,4.43,4.6,6.64,1.52,2.61,6.22,4.48,9.8,3.68,1.58-.17,3.15.45,4.73.67,1.18.27,2.75.89,3.95.36,9.54-2.63,18.69-5.23,28.24-7.87l33.39-8.44c11.92-2.9,23.85-5.81,36.56-8.79a30.23,30.23,0,0,0-2.47,4.63c-.82,1.69-1.25,3.32-2.09,5.39-5.48-2.57-5.6,3-6.84,5.52q-13.66,28.29-26.13,56.46a187.66,187.66,0,0,0-7.17,20.63c-.85,2.47-1.32,6.09,2.62,6.85,5.12,1,10.3-1.13,14.72-4.4,3.63-3.17,6.88-7.1,7.77-12a31.32,31.32,0,0,1,2.54-7.83c5-10.06,10.32-20.18,15.29-30.25l6.18-11.39c2.89-5.88,6.17-11.4,9.07-17.28,2.9-6.27,5.42-12.9,7.93-19.12,1.25-3.32,3.28-5.53,6.46-6.27l16.69-4.22c6-1.45,11.92-2.51,17.89-4.35,8-2.07,15.92-4.93,23.87-7,9.55-2.63,19.09-4.87,28.63-7.51,8.75-2.16,17.5-4.71,26.65-7.31,0,1.2,0,1.6,0,2-2.34,16.53-5.07,33.1-7.4,49.63-3.26,22.56-6.12,45.06-9,67.57a24.74,24.74,0,0,1-8-13.29c-1.48-5-3.74-9.9-.85-15.78.83-1.68.08-3.58.12-5.57l-1.19.13q-1.91,6.16-3.82,12.33a8.2,8.2,0,0,0-.1,4.38c2.6,8,4.39,16.57,8.58,23.66,1.18,2,2.39,4,3.65,5.9-1.65,12.23-3.19,24.44-5,36.68-.94,6.85-2.27,13.75-2.82,20.55-.62,10.79-.86,21.53-1.49,32.31q-.06,3-.13,6c-.18,8.35-.76,16.75-.54,25.06-.05,2.39-1.71,6.14,2.21,7.3.83-1.68,1.68-4.55,2.48-4.64,4.75-.52,7.23-5.16,11.22-6.79,4.39-2.07,5.66-6.18,6.53-9.85,1.31-5.7,1.44-11.67,2-17.28.63-10.78,1.26-21.57,2.28-32.4a8.86,8.86,0,0,1,2.51-6.23c2-2.2,5.27-6.13-.22-7.91-.4,0-.38-.75-.37-1.15,1.27-4.11.19-9.15,5.4-12.1-2.37-3.28-3.24-6.91-2.65-9.61l2.82,1.22v0h.06c1.42.61,2.84,1.24,4.24,1.93,5.48,2.58,11.82,1.88,17.78.43,4.78-1.32,9.58-4.23,14.35-5.15,10.72-2.37,18.79-9.61,26.85-16.85,1.61-1.37,2.84-3.1,4.45-4.46l2.32,2.12c1.63-2.16,2.85-3.89,4.08-5.61,4.92-8.07,9.84-16.16,15.54-23.93,2-2.6,2.06-3.8.5-4.82,3.26-4.33,6.51-8.26,9.37-12.54,4.89-6.89,5.09-16,11.95-22.35.4-.44,0-1.19,0-1.59,1.28-4.11,1-8.44,5.39-11.31,1.2-.93,2-2.6,2.85-3.88l-1.16-1.06-3.6,1.58-1.16-1.06c2-1.81,4-3.62,6.85-5.92a25.34,25.34,0,0,1-3.53-1.59c1.22-1.33,2.43-2.25,2.85-3.49,2.48-5,6.13-9.4,6.26-15.38,0-1.59,1.27-3.71,2.49-5.43,4.89-6.49,5.84-14.14,6.4-21.34.53-6.41,5.8-12.15,4-18.69,0-.4.82-1.28,1.23-2.12a21.23,21.23,0,0,0,1.25-2.92c.46-2.82,1.31-5.7,1.77-8.53.93-6.45,3.83-12.72,4-19.48.15-7.16,2.29-14.55,4.42-21.53,2.57-9,3.15-17.8,3-26.91l2.32,2.12C434.6,394.76,434,386.09,433.4,377.43ZM283.77,513.74l2.38-.26c-3.2,19.79-6.4,39.59-10,60.63v.4c-1.16-1.46-1.93-2.17-1.92-2.57Q279,542.84,283.77,513.74Zm-.89-31.65c.48-4,1-8,1.84-12.11,1.35-7.69,2.7-15.39,4.45-23.11.89-4.47,2.57-9,3.86-13.52.43-2,.08-4,.52-6q2-10.33,4-20.68l1.47-.16c-.45,4-.92,8-1.73,12.09-1.38,8.89-3.15,17.81-4.93,26.75-.9,4.85-2.19,9.76-3.09,14.62-.91,5.66-1.42,11.27-2.73,16.57-.44,2-1.66,3.76-2.49,5.44Zm-7.18,94.05c-2.74,17-3.9,33.77-7.43,50.82l.39,0-2.37.26q3.51-25.39,7-50.78ZM267,629.88l1.19-.13-.72,6.29c-.58-.12-1.16-.26-1.72-.41A58,58,0,0,1,267,629.88Zm16.51-68.49-.79.08-1.19.14c3.12-16.22,3.47-32.53,7.77-48.48l2.38-.26Q287.61,537.13,283.53,561.39Zm19.07-77.51v-.4c-2.7-2.87-2.19-8.09,1.43-11.27C303.57,475.84,303.1,479.46,302.6,483.88Zm13.89-93.2-3.24,3.52c2.77-.3,5.54-.21,3.48,3.59l1.15,1.46-3.54-.8c-.44,2-.87,3.67-1.31,5.7l2.38-.26,1.16,1.07c-.8.48-1.59.57-2.39,1.05-2.41,1.46-2.86,4.29-.93,6.05a4,4,0,0,1,1.12,3.06,44.07,44.07,0,0,1-.55,7.2,182.92,182.92,0,0,1-5.17,19.62c0-1.19.06-2.39.08-3.58l-1.19.13c-.82,1.68-1.65,3.36-2.49,5.44,5.51,1.37,3.05,5.21,1.39,9-.35-1.95-.71-3.89-1.06-5.84l-1.19.13-.21,9.55-1.6,1,0,.8c3.93,1.15,2.67,4.47,1.43,7-2.06,4.2-4.52,8-7.4,13.12,6.76-38.05,13.5-75.3,20.23-112.55C318.43,373.79,313.1,382.72,316.49,390.68ZM306,326.34l1.19-.13q-.69,4.25-1.37,8.49l-1.19.13C305.11,332,305.56,329.17,306,326.34Zm6.06-5.82c3.81,6.32-4.84,77.12-7.77,84.59C306.89,377.45,309.48,349,312.08,320.52Zm-7.57,93.7c1.39,9-9.26,62.53-13.3,66.55C295.65,458.06,300.08,436.14,304.51,414.22Zm-1.77-45.84c-.49,4-.94,6.85-1.4,9.68C299,376.73,299.08,372.75,302.74,368.38Zm-5.83-77.94.42-.84,1.16,1.07c-2.05,3.39-4.1,6.8-6.16,10.6a4.53,4.53,0,0,0-1.55-1.42C292.83,296.44,294.87,293.44,296.91,290.44Zm-9.39,13.74,0-1.2,3.54.8-1.29,4.91-2.38.26C287.45,307.36,287.49,305.77,287.52,304.18Zm-6.11,8.21v.8c.42-1.24,2.81-1.9,4.41-2.87l1.16,1.06-6.12,9-1.19.13C280.11,317.69,280.17,314.91,281.41,312.39Zm-25.77,40.14c1.24-2.51,3.26-4.72,4.89-6.88s4-4,5.27-6.14c2.47-4.24,4.54-8.44,6.6-12.63.83-1.68,1.27-3.71,2.9-5.88l3.46,4.38a31.28,31.28,0,0,0-3.2,1.55c-3.27,5.12-4.57,10.42-9.4,14.53-3.63,3.17-5.34,8.91-7.81,13.55-2.06,3.8-2.87,4.69-4.84,4.5.85-2.87,1.3-5.3,2.53-7.42Zm-5.33,8.53,2.35.93-1.29,4.9a17.45,17.45,0,0,1,3.15.45c-1.21,1.32-2,3-2.83,3.09-1.19.13-3.14-1.24-3.13-1.64.45-2.43,1.68-4.55,2.53-7Zm-16.23,19.25.39.35c2.44-3.44,4.88-6.49,7.32-9.54.81-.88,2-1.41,2.82-2.29l1.11,3.45c0,.4-.41.84-.42,1.24.69,4.68.69,4.68-.91,5.26l-6,1.84c-1.59.58-3.19,1.15-5.18,1.77C233.66,381.54,233.67,380.75,234.08,380.31Zm1.51,3.4.38.76a26.4,26.4,0,0,1,1.87,4.55c-2,1.41-3.61,2.38-5.21,3.35l-1.16-1.06C232.7,389.19,233.93,387.07,235.59,383.71Zm-8.93,10.51-.39-.35,1.22-1.33c.77,1.11,1.93,2.17,1.9,3.37,0,2.38-.5,4.81-3.28,5.52L225,398l2.77-.31Zm-.16,7.56-.4.05c-.09,4-4,3.61-5.66,5.78C219.76,402.52,220.57,401.64,226.5,401.78Zm-18.65,21.1.39.35A137.75,137.75,0,0,1,216,410.87a12.16,12.16,0,0,1,4-3.22,83.89,83.89,0,0,0-3.36,8.7c-.43,1.64.32,3.54.68,5.48-1.18-.66-2.35-1.32-4.31-2.3.76,1.9,1.13,3.05,1.88,5-2.75-1.28-5.1-2.21-6,2.25l-1.16-1.07C207.81,424.87,207.44,423.72,207.85,422.88Zm-2.45,3.84v-.4l1.51,3c-2.81,2.3-.88,4.47-.93,6.46,0,1.59-1.26,3.31-2.08,5l-1.19.13c0-1.19.05-2.39.09-4.38a38.49,38.49,0,0,0-4.79,2.12C200.49,434.41,202.54,431,205.4,426.72Zm-9.88,17.76v.4c1.13,2.25,1.13,2.25-6.24,13.78C188.16,456,191.9,447.66,195.52,444.48ZM185.33,458.7l.38.75,1.16,1.06c-.14,6.77-4.59,11.23-9,15.68l-1.17-1.06Zm23.35,53.39-.37-.76c-13.53,3.87-27,6.55-40.54,9.63l0-1.2c1.2-.92,2-2.2,3.21-2.34l45.34-12.13c9.14-2.19,18.27-4,27.4-5.8,1.59-.17,3.15.85,5.51,1.38C235.3,506.38,221.82,508.26,208.68,512.09Zm26.09-17.56-.4,0c-11.93,3.3-23.87,7-35.81,10.3-6.76,1.93-13.51,3.47-20.27,5-1.19.13-2.37-.14-4.75.12,37.52-70.8,82-136.43,127-202.09l1.19-.13-.21,9.54c-.13,6-.26,11.94-.78,17.95,0,1.59-.47,3.23-.5,4.82-1.37,8.48-2.74,17-3.73,25.8,0,1.6.73,3.1.69,4.69-.51,5.61-1,11.23-1.94,16.48q-2.73,17-5.47,33.95c-.44,2-.49,4-1.33,6.1-.42,1.24-1.62,2.16-2.84,3.48,4.32,1.51.67,5.48.22,8.31-2.27,13.35-4.93,26.74-7.59,40.13a7.92,7.92,0,0,1-4.05,4.42C261,487.27,247.9,490.7,234.77,494.53ZM261,614.27c.93-6.46,2.26-12.95,3.19-19.4,1.37-8.49,2.74-17,3.71-25.41,1.43-11.28,2.87-22.94,4.7-34.25.9-5.26,2.2-10.56,3.51-15.87l1.29-4.9,1.19-.13c0,1.19.34,2.34.32,3.14-.94,7.24-2.29,14.53-3.23,21.78-1.39,9.29-2.38,18.52-3.77,27.8-2.73,16.57-5.46,33.15-7.8,49.68-.91,6-1.05,11.91-1.56,17.86l-.12,0-.65-1.3c0,.34-.07.67-.1,1a26.45,26.45,0,0,1-3-1.47C259.6,626.59,260.14,620.45,261,614.27ZM250.38,722.6l-1.19.13a5.06,5.06,0,0,1-.74-2.3c1-10,2.41-20.11,3.82-30.19.5-5.21,1.41-10.48,1.92-15.69.56-7.6.72-15.16,1.68-22.81.15-1.76.38-3.53.64-5.31q1.67,2.28,3.5,4.44c-.5,4.56-1,9.12-1.65,13.7q-3.56,27.16-7.11,54.36A13,13,0,0,1,250.38,722.6Zm7.35-10.74-1.19.13q1.45-12.66,2.92-25.32l1.19-.13Q259.2,699.2,257.73,711.86Zm6.06-42.33v-.4c-.84-1.48-.82-7.49-.31-14.52.46.44.9.9,1.37,1.33l.36.31C264.75,660.58,264.27,665,263.79,669.53Zm98.69-84.67-1.2.53c-1.65,3.36-3.69,6.36-5.35,9.72-.83,1.67-.48,4-1.7,5.34-5.66,6.18-6.26,15.37-13.89,21-4.43,3.66-6.94,9.89-10.61,15.06a25.31,25.31,0,0,1-4.06,4.81,10.89,10.89,0,0,1-5.18,1.76c17.8-18.23,27.39-41.11,41.27-61.29l1.18-.14A8.17,8.17,0,0,1,362.48,584.86Zm11.57-23.1-3.72,7.55a29.12,29.12,0,0,1-2.41,1.85c-.37-1.54-1.13-2.65-.72-3.49l3.72-7.55a4.92,4.92,0,0,1,2.4-1.06c.4,0,.77,1.11.76,1.5Zm4.13-8-2.38.27c.84-2.08,1.67-4.16,2.51-6.23l1.19-.13c-.84,2.07-1.67,4.15-2.51,6.23ZM348,470.18l-.4,0c1.67-4.15,2.95-8.66,5.42-12.9,9.05-16.08,18.49-32.2,27.93-48.32,3.7-6.35,9.33-10.94,15.35-15.18,2.81-1.9,5.62-3.79,9.64-6.62C394.51,420.6,373,446.38,348,470.18Zm35.77-34.74q8.31-14.1,16.59-28.18l1.17,1.06A109.29,109.29,0,0,1,383.74,435.44Zm18.63-30.78,0,1.19-1.16-1.06,5-12.46,1.19-.13Z"/><path class="cls-1" d="M581.9,420.74c4.77-.92,7.2-4,8.08-8l-8.48,8.07Z"/><path class="cls-1" d="M714.42,235.22l-.39-.35c-.78-.32-1.16-1.47-1.93-2.17-3.9-2.75-5-8.19-10.47-9.56-3.94-.76-5.92-.54-7.19,3.57-1.73,6.53-3.45,13.07-5.57,19.66-2.56,8.61-5.51,16.88-8.06,25.49-2.55,7.82-3.91,15.91-8.81,23.19a15.29,15.29,0,0,0-2.1,5.79q-3.81,11.73-7.63,23.46a25.61,25.61,0,0,1-1.68,4.95c-2.08,4.6-4.55,9.23-6.63,13.83a12.53,12.53,0,0,0-.91,5.25c0,1.2.35,2.35-.07,3.19a56.38,56.38,0,0,1-4.13,8.39c-1.23,2.12-2.82,2.29-3.57.39-2,.62-4.39,2.07-5.17,1.36-5.44-4.15-10.48-8.76-15.52-13.37-2.71-2.47-5.46-3.76-9.82-2.88-6.76,1.54-12,5.69-16.83,10.19-13.31,12.18-22,27.81-31,42.7-9.43,15.32-17.68,30.91-24,47.48a96.88,96.88,0,0,0-4.09,13.05c-3.53,2.7-7.07,5.45-10.61,8.3-3.22,2.73-6,5.82-9.66,8.2-2.41,1.46-6.73.35-6.45,5.48a6.92,6.92,0,0,0-1.21.92c-4,2.43-8,4.46-11.61,6.84-8,5.65-16.44,10.54-25.57,12.34-3.18.75-7.17,2.38-9.06-1.78-3.77-8.31-2-17.25.57-26.26,1.3-5.3,2.61-10.6,4.3-15.95a40,40,0,0,1,2.11-6.18c1.56,1.41,3.51,2.39,5.06,3.81,3.47,4,10.58,4.39,14.62.37,9.3-9.36,19-18.76,27.51-28.83,4.87-5.69,11.31-11.16,12.29-19.61,0-.39.41-.83.82-1.28,5.61-3.39,5.74-9.75,7.42-14.31,2.09-5,1-11.62,0-17.06-1.79-8.93-9.19-13.67-15.81-18.5a11.17,11.17,0,0,0-13.05-.15c-6.8,3.93-13.61,7.85-19.65,12.88a75.42,75.42,0,0,0-14.15,14.65c-5.29,6.94-9.81,14.58-14.32,22.22-2.46,3.84-4.13,8-6.2,12.19-3.72,7.56-7.84,15.15-11.16,22.66-2.08,4.59-2.59,9.81-4.28,14.76a42.16,42.16,0,0,0,.92,30.45c4.51,11,9.39,22.79,19.52,30,7,5.17,14.4,10.32,24.32,8.82a73,73,0,0,0,12.34-3.73,59.08,59.08,0,0,0,10.41-6.31c1.61-1,2.83-2.69,4.44-4.06,6.84-5.51,13.67-10.64,20.51-16.15,2.62-2.22,6-4.53,7.66-7.06a39.16,39.16,0,0,0,3.82,6.31c2.69,3.67,6.22,5.27,11,3.55A45.76,45.76,0,0,0,573,485c5.66-5.79,12.87-10.55,16.21-18.45.41-.85,1.61-1.37,2.42-2.26l3.65-4c2.84-3.49,5.3-7.33,8.52-10.47,8.09-8,15.78-16.42,21.92-26.23.83-1.67,2.44-3,3.66-4.37.38.36.77.71,1.16,1.06-1.72,6.55-2.66,13.39-5.17,19.63-3.76,9.14-4.75,18.38-5.35,28-.56,7.6-1.12,15.2-.49,22.68.6,8.66,3.6,16.26,7.79,23.35a17.79,17.79,0,0,0,8.93,7.74,3.4,3.4,0,0,0,3.19-1.14c3.7-6.76,7-13.47,10.71-20.23-3.11-2-6.34,1.09-9.52,1.84-2.39.66-5.51-1.38-4.28-3.5,2.87-4.68,1-9.63,2.68-14.18.43-1.64,1.27-3.72.89-4.47-2.67-4.47,1.78-8.92,1.47-13.26-.33-2.74.93-6.05,1.78-8.92,1.3-5.3,3-10.65,4.3-15.95.86-3.27.94-6.85,2.2-10.17,2.93-7.46,6.64-14.62,9.57-22.08,2.07-4.6,3.37-9.5,5.06-14.45s3.77-9.94,4.67-15.2a61.73,61.73,0,0,1,5.85-14.53,111.4,111.4,0,0,0,5.88-15.73c3.36-9.11,6.33-18.56,9.69-27.66,1.7-5.34,4.18-10.38,6.27-15.37,2.09-5.39,2.22-11.36,7.45-15.51.41-.44.43-1.63.85-2.47,2.1-5.79,3.81-11.93,6.29-17a97.63,97.63,0,0,0,8-22.31C720.58,242.88,721.08,237.66,714.42,235.22ZM478.49,430.94l-.41.84c1.66-3.76,3.72-7.55,5.78-11.35a11.58,11.58,0,0,1,1.64-3c2.84-3.09,5.67-6.18,3.76-9.14,3.23-3.14,6.83-5.12,7.68-8,2.93-7.47,9-12.1,14.61-17.09a137.92,137.92,0,0,1,11.65-8.82c2.42-1.86,3.59-1.19,3.53,1.59-.58,8.4-3.91,15.91-9.59,22.89-2.44,3-4.5,6.84-6.94,9.89-1.62,1.76-4,2.82-6,4.63-4.84,4.5-9.69,9.41-14.53,13.9l-12.1,10.86-1.16-1.06C477.21,435.05,477.65,433,478.49,430.94Zm156-49.21,1.2-.53-2.49,5-2.35-.93c.83-1.68,1.66-3.35,2.48-5C633.77,380.62,634.55,381.33,634.54,381.73ZM624,395.2c-5.51-1.38-7.2,3.57-9.63,6.22-2.44,3-4.1,6.8-6.15,10.2l1.16,1.06,12.18-14.44,1.16,1.07c-4.46,5.25-8.93,10.5-13,15.71-4.33-.71-6.35,1.1-8.81,4.94-2.44,3.45-6.06,6.23-9.29,9.36-5.66,5.78-11.31,11.17-16.19,17.26-4.48,5.6-10.25,9.34-15.23,14.06,2-2.94,4-5.87,6-8.8l2.43-2.65c2.84-3.09,6.06-5.82,8.9-9.31,2.43-2.65,4.09-6,6.13-9l-1.16-1.06a34.59,34.59,0,0,0-4.82,3.31v.4c-1.61,1.36-3.23,3.13-4.84,4.49l-6,5.07q1.61-3.12,3.22-6.23c2-3.4,3.71-7.16,5.76-10.56,2-3,4.86-5.3,6.89-7.9,1.63-2.16,2.87-4.68,4.5-6.85,6.11-8.21,12.22-16.42,18.71-24.28,4.06-4.81,10-6.66,16-8.51a31.74,31.74,0,0,1,6-1.45,11.15,11.15,0,0,1,3.16.44c-.42.84-.44,2-.86,2.88-2,3-4.07,5.61-6.52,9.05a39.59,39.59,0,0,1,4.32,1.51C626.39,393,624.75,395.5,624,395.2Zm1.68,13.3-1.16-1.06q3.07-4.5,6.13-9l1.16,1.06Q628.72,404,625.65,408.5Zm8.47,65.35-.79.08c-.81.88-2.42,2.25-4.44,4.06-.65-6.27,2.19-9.77,7-12.28C635.44,467.74,635,470.18,634.12,473.85Zm8.51-27.53.39-.05c0,.4-2,.62-4,1.23-1.26,3.72-2.55,8.22-3.83,12.73a10.82,10.82,0,0,1-1.23,2.12c-.4,0-1.58-.22-1.57-.62-.39-.35-.36-1.55,0-1.59,3.22-2.34.88-4.07.92-6.05,1.27-3.72,2.54-7.43,3.41-11.09,1.29-4.91,3.71-7.16,8.85-7.33A88.13,88.13,0,0,1,642.63,446.32Zm19.48-59.69-.42.84a10.21,10.21,0,0,1-2.43,3c-2.41,1.46-3.62,2.78-1.3,4.91-4.79,2.11-4.79,2.11-2.49,5.83a4.51,4.51,0,0,1-.07,3.19,63.69,63.69,0,0,1-6.12,8.6l3.56-.39-5,12.46a43.18,43.18,0,0,1-2.51,6.23c-.41.83-2,1.41-3.21,2.33-2.22-6.89.28-12.72,2.78-19,3.76-9.14,7.12-18.24,11.25-26.63,1.62-1.37,3.23-2.73,5.24-4.55a31.26,31.26,0,0,1-3.53-1.2c0-2,.08-3.57.12-5.57a20.64,20.64,0,0,0,4.37-.87,29.38,29.38,0,0,0-1.48-4.6,32.89,32.89,0,0,0,4-2C665.11,375.58,665.39,381.11,662.11,386.63Z"/><path class="cls-1" d="M620.65,703.81c1.22-1.33,2.42-1.86,2.83-2.7l1.5-4.63c-1.22.44-2.12.83-3,1.23l1.16,1.06c-.72,1-1.71,2.06-2.5,3.09C620.66,702.5,620.67,703.15,620.65,703.81Z"/><path class="cls-1" d="M567.71,814.84c-3.35,8.71-6.7,17.41-10.46,27C562.05,839.28,569.63,817.41,567.71,814.84Z"/><path class="cls-1" d="M553.85,853.29v-.4C550.91,861.16,548,869,545,877.28,549.86,873.57,556.14,857,553.85,853.29Z"/><path class="cls-1" d="M587,763.89l-1.19.14q-1.89,5-3.77,9.94l1.19-.14Q585.08,768.87,587,763.89Z"/><path class="cls-1" d="M629.76,647.23c-3,9.07-5.91,17.33-8.85,25.59C624.94,669.2,631.26,651,629.76,647.23Z"/><path class="cls-1" d="M616.06,678.12l-.39-.35c-.86,3.26-1.7,5.74-2.56,9C617.53,683.12,618,681.88,616.06,678.12Z"/><path class="cls-1" d="M637.49,617.8l-1.18.14c-.79-.31-1.57-.63-2.36-.93q-1.26,3.71-2.53,7.42l2.36.92Q635.64,621.59,637.49,617.8Z"/><path class="cls-1" d="M576,798.45l-2.35-.93-6.25,15,2.35.93Q572.83,805.95,576,798.45Z"/><path class="cls-1" d="M621.46,665.61l-1.19.14-1.16-1.06q-1.89,5-3.77,9.94l1.16,1.06Q619,670.65,621.46,665.61Z"/><path class="cls-1" d="M656.06,581.22l-3.85,13.52,2.38-.26q1.92-6.76,3.85-13.52Z"/><path class="cls-1" d="M639,697.81c1.7-5.75,3-11.45,4.31-17.15,0-.39.42-.84.43-1.24,1.25-3.31,2.51-6.62,3.77-10.33.83-2.08,2.47-4.64,3.32-7.51,1.29-4.91,2.19-9.77,3.48-14.68,1.3-5.7,3-11.44,4.71-17.19l-1.19.13,3.62-2.78a12.92,12.92,0,0,0-1.94-2.17c1.65-3,3.68-5.57,4.52-8,1.72-6.54,3-13.43,4.77-20a6.49,6.49,0,0,1,.85-2.48c1.68-4.55,3.75-9.15,5-13.65,1.71-6.14,2.64-12.6,4.74-18.78.86-2.88,1.69-5-1.84-6.15,5.65-5.39,6.57-11.44,7.49-17.5.83-2.07,2.07-4.59,1.71-6.14-.75-2.3.06-3.19,2.06-4.2.4,0,.8-.48,1.21-.93a5.52,5.52,0,0,1-1.16-1.46c.45-2.42.1-4.37.91-5.65,3.26-4.33,4.15-9.2,5.44-14.09,2.15-8.18,2.33-16.54,6-24.49,2.48-5,3-11.05,3.91-16.7.47-3.24.94-6.86-.19-9.51l-4.82,3.71c-1.89-4.16-7-4.39-12.19-3.42-3.58.8-7.55,2-11.47.08-1.56-1-4.35.08-6.73.75-.4,0-.45,2.43-.48,4,.26,6.32.92,12.6-2.39,19.31,6.76-1.94,3.72-7.55,6.16-11,3.84,5.53.56,11-1.13,16,2-.22,4-.83,4.36-.08.76,1.11.72,3.1,1.08,4.65l-5.15.56c1.19,1.4,2.16,2.59,3.42,3.87-.11.55-.22,1.07-.32,1.58a17.43,17.43,0,0,1-2.43.43c.5,1.55,1.18,2.9,1.56,4.23-.19,1.11-.36,2.15-.53,3.2l.55-.06c-.56,1.53-1.88,3-2.23,4.61-1.73,6.94-3.45,13.88-4.8,21.17-.44,2.43-1.65,3.36-4,3.62l-3.57.39c0,.58,0,1.09,0,1.6l-.8.08-2.58,9.81,1.19-.13q1.08-4.08,2.15-8.18c0,.39,0,.78,0,1.2a27,27,0,0,1,3.62-3.18c.36,1.55,1.52,3,1.1,4.25-.47,3.62-1.74,7.34-2.61,11l-6.39,22.14c-.86,2.88-1.31,5.71-2.55,8.22-1.64,3-.9,5.26-.16,7.56a8.89,8.89,0,0,0,2.07-4.2c.86-3.67,1.74-7.73,3-11.44,2.13-7.78,4.67-15.21,7.2-22.63,1.25-3.32,2.11-6.58,3.37-9.9.41-.84,2-1.81,2.79-1.5,1.19.27,2.74,1.68,2.73,2.08-1.68,4.56-3,9.45-5.82,13.35s-6.08,7-5,12.05c4.35.32,2.31,2.93,1.46,5.8a9.08,9.08,0,0,1-3.12-2c-.84,2.48-1.68,4.55-2.11,6.19.76,1.51,2.31,3.32,1.89,4.16-2.88,5.48-.25,11.93-5.48,16.48a3.15,3.15,0,0,0-.44,2c-.44,2-.48,4-.91,5.66a52.82,52.82,0,0,1-2.14,7.38c-.43,2-.48,4-3.66,5.17a6.37,6.37,0,0,0-.79.37c1.2-3.8,2.49-7.61,3.79-11.42.83-2.08,2.06-4.19,3.3-6.72a23.3,23.3,0,0,0-2.73-1.68c-.42,1.24-1.24,2.52-1.66,3.76l-7.59,22.27q-2.53,8-5.08,16c0,.4.38.75.76,1.5,1.59-.57,3.19-1.14,3.58-1.19v.8c.5-2.34.94-4.55,1.37-6.66.76-.35,1.63-.77,2.75-1.33-2.11,6.18-4.2,11.57-5.5,16.87-1.27,4.12-1.35,8.09-6.53,9.85a11.52,11.52,0,0,0,3.15.45c-2.11,6.58-4.22,12.77-6.33,19L625,696.48c.41-.14.87-.3,1.37-.45-1.29,4.91-2.57,9.42-3.85,13.93l-.39,0-1.19.13c-.75-1.9-1.89-4.16-1.45-6.19a6.26,6.26,0,0,1,1.16-2.08c-.2-6-1.57-11.32,3.15-15.07a27.19,27.19,0,0,0,2.1-5.79c.83-2.08,2.88-5.08,2.11-6.18-1.91-3.37.13-6.37,1.38-9.29,1.66-3.75,3.72-7.55,5.78-11.75-2.35-.92-4.34-.31-5.6,3l-8.84,26c-2.54,7.83-5.48,15.69-8,23.51-3.8,11.14-7.19,22.23-11,33.37-3,8.66-5.9,17.32-8.45,25.94-.85,2.87-.92,6-1.77,8.92s-2.49,5.44-3.34,8.31c-.84,2.48-1.29,4.91-2.13,7.38a66.15,66.15,0,0,1-3.33,7.51c-1.24,2.92-1.31,6.11-4.92,8.49-2,1.41-2.49,5.43-3.73,8.35,1.57.22,2.36.53,3.93.75-1.23,2.12-2.05,3.8-2.88,5.48,0-1.59.07-3.18.1-4.77-1.22,1.72-2.07,4.59-1.29,4.9,4.68,3.06.69,5.09-1.34,7.3,0-1.2.05-2.39.08-3.58-2.43,2.64-4.46,5.25-3.34,8.3.38.75,0,2-.45,2.83-.84,2.08-3.65,4-2.12,6.59.39.35-1.25,2.91-1.65,2.95-5.14.18-4,4.42-4.89,6.9-3.36,9.5-6.32,18.95-9.69,28.46-2.93,7.86-6.66,15.81-10,23.72-.42,1.24-1.62,2.17-3.25,3.94,1.3-4.91,2.16-8.57,3-12.64-5.93-.14-4.85,4.9-6.52,9.05-.76-1.5-1.14-2.26-1.12-3.05-1.8-8.13-3.61-16.27-5-24.85-1.77-9.72-3.15-19.49-4.52-29.26-1-9-1.6-18.08-2.59-27.1q-.93-12.39-1.85-24.8c-.29-5.13-1-10.21-.86-15.38-.13-12.69.14-25.42,0-38.11.06-2.78-.67-5.47-.61-8.26.08-4,1-8,1-12,.11-5.17-1-10.22-.86-15.39.14-6.76,1.07-13.21,1.61-20,.5-4.81.2-9.55.3-14.32.64-11.58,1.68-23.2,2.32-34.78.53-6.41.26-12.74.4-19.1.17-7.95,1.13-16,1.3-23.95.26-12.34.12-24.63,0-36.91,0-2.39.12-5.57-1.44-6.59-8.55-7-18.8-8.24-30.35-4.19a6.09,6.09,0,0,0-2,3L482,568.34a137,137,0,0,0-4.62,13.22c-1.27,3.71-1.74,7.33-2.61,11-.43,1.64-1.65,3.36-2.08,5-1.71,6.14-3,12.24-5.13,18.43-3.36,9.1-7.11,18.25-10.46,27.35-4.21,12-8,24.3-12.23,36.28-6.31,17.77-13,35.57-18.54,53.65-5.5,17.28-10.21,34.47-14.92,51.66-3,11.05-5.61,22.05-8.21,33.06-1.74,7.33-3.87,14.71-4.82,22.35-1.88,14.11-3.36,28.16-4.85,42.22s-1.78,28,2.3,41c1.84,6.54,2.07,14,7.51,18.61,1.56,1.42,5.09,2.62,7.09,1.6,2.79-1.1,4.83-4.1,7.25-6.36.4-.44,0-1.19,0-1.59-.34-2.75-.67-5.48-1-8.22-.65-6.68-2.09-13.26-1.95-20a273.57,273.57,0,0,1,1.44-31.11c1-9.64,2.39-19.32,3.78-29,.95-7.64,2.3-15.33,3.65-23,.89-4.86,1.79-9.72,3.07-14.24s3-9.05,4.24-13.56q1.91-6.17,3.82-12.33c1.26-3.71,3.33-7.91,3-11.45-.31-3.93,1.74-7.33,2.21-11a12.79,12.79,0,0,1,.87-3.67l5-12.46c.83-1.68,2.45-3.45,2.07-4.6-.7-4.29,1-8.05,2.63-12.2,2.91-6.67,5-13.65,7.56-20.68l1.26-3.71c.86-3.27,1.32-6.5,2.57-9.41,2.51-6.63,5.42-13.3,7.94-19.94.42-1.63.07-3.57.9-5.25,2.07-4.6,4.94-9.28,6.62-14.23,2.11-6.19,3.83-12.73,5.95-19.31a24.89,24.89,0,0,1,1.7-5.75c2.08-5,4.56-10,6.65-15.42.42-1.23.06-2.78.48-4a50.46,50.46,0,0,1,3.3-6.32q1.86-3.76,3.71-7.55l1.19-.13c-1.76,45.83-3.51,91.67-5.29,138.3,2-1.41,3.2-1.94,4.81-2.91.35,1.94.71,3.49,1.07,5.44-2-.58-3.15-.85-4.72-1.47a30.51,30.51,0,0,0-.9,5.26c.19,9.9.37,19.81,1,29.66.49,13.84,1.39,27.63,2.29,41.42.9,13.4,1.8,26.79,3.1,40.14a191.13,191.13,0,0,0,3.11,21.09c1.41,8.57,3.6,17.06,5.4,25.6.71,3.49.63,7.47,2.14,10.47,4.21,7.08,8,14.6,15.42,18.94,1.56,1,4.33.71,5.1,1.81,2.68,4.47,7.42,4.34,11.75,5.45,2.75.48,4.76-.92,6.4-3.49l11-15.51c.41-.84.83-1.67,1.24-2.51q4.37-10.61,8.75-21.21c2.49-5.84,5-11.67,7.1-17.85l8.85-26c2.11-6.58,4.23-13.16,6.74-19.79L602.22,809c1.27-3.72,2.53-7.42,3.4-11.09.85-2.88,1.31-5.71,2.15-8.18,1.26-3.71,2.92-7.47,4.58-11.22a38.64,38.64,0,0,0,3-11.45c0-.79,1.22-1.72,1.63-2.56.41-.44.41-.84.82-1.28l-2.33-2.13c5.73-9,6.59-12.64,5.93-18.51a35.59,35.59,0,0,0,2.87-5.09c1.26-3.31,2.91-6.67,4.17-10,2.09-5.39,4.18-10.79,5.87-16.13C636,706.87,637.69,702.32,639,697.81Zm21.24-163.49h0l1.19-.13Zm24.6-23c-1.33,9-2.18,11.59-7.27,12.3a22.5,22.5,0,0,1,2.62,2.1l0,1.19a29.73,29.73,0,0,1-5.54.22c2.09-5,3.76-9.54,5.84-14.14C680.84,512.19,683.22,511.93,684.81,511.36Zm-8.33,39,1.19-.13q-.67,3.64-1.34,7.29l-2.38.27C674.79,555.33,675.64,552.86,676.48,550.38Zm-22.54,75.13,2.37-.27-2.52,7.43L652.57,634l-1.19.13C652.23,631.25,653.09,628.38,653.94,625.51Zm-9.69,3.91c.45-2.13.91-4.19,1.43-6.17.1-.35.21-.69.3-1a2.12,2.12,0,0,0,.12.2Q648.77,626.55,644.25,629.42ZM400.44,853.6c1.4-10.07,2.78-19.36,4.19-29.83C407.7,828.19,404.48,849.58,400.44,853.6ZM407,822.31c-2.72-2.47-.28-5.52.18-8.36.43-2,1.27-4.11,1.71-6.14q1.31-5.49,2.6-11a12.62,12.62,0,0,0,.87-3.67c0-.8,0-1.59.05-2.39l3.17-.35.27.54q-3.24,15.55-6.47,31.11Zm8.9-31.58-.06-.36H416Zm-3.85,35.78-.8.49-1.19.13q2.55-8.62,5.11-17.24l1.19-.13C413.9,815.2,415.75,821.35,412.08,826.51Zm3.77-36.3c-.3-2-.59-4.16-.88-6.88l2.83-3.09c.4,0,.79.31,1.18.27C417.75,783.75,419.53,787.41,415.85,790.21Zm2.29,11.43-1.19.13,6.42-23.34,1.19-.13Zm24.74-85.7-1.19.13,5-12.45,1.19-.13ZM478,607.68l-.4.44-10.07,27.31c-1.68,4.55-3.75,9.14-5.43,13.7-1.68,5-3,9.85-4.66,14.8-1.67,4.56-3.74,8.75-5.42,13.3-1.27,4.11-1.75,8.13-3,12.24-3.38,10.3-7.56,20.68-10.94,31-5.07,15.64-9.36,31.2-14,46.8A92,92,0,0,1,420.22,778c-1.15-1.47-2.32-2.52-2.3-3.32.87-3.67,2.12-7,3-10.65,2.14-7.78,4.29-15.55,6.82-23.38,1.69-5.35,4.17-10.38,5.87-15.73s2.21-11,4.3-16.35c3.79-11.14,8.37-22,12.16-33.1,4.63-13.21,8.86-26.38,13.49-39.59,2.95-8.66,6.69-17.41,10-26.12q6.24-15,12.49-30c0-.39.42-.84.82-1.28l1.19-.13C484.72,588.28,481.35,598.18,478,607.68ZM502.3,710.56c-3.54-.8-3.39-8,1.08-13.62l-1.47,13.27Zm3.55.4c.24,7.12.51,13.44.77,19.76C503.21,723.56,503,715.64,505.85,711Zm67.68,127.45V838l-1.19.13c.44-2,.88-4.06,1.73-6.94C578.36,834.7,574.37,836.33,573.53,838.41Zm9.53-20.51,0,.8c-.85,2.87-2.89,5.88-4.53,8.84-.41.44-1.21.92-1.61,1.37l-1.19.13,2.55-8.62q1.9-5.56,3.79-11.14a2.66,2.66,0,0,1,.43-1.63,26.39,26.39,0,0,1,3.63-3.18s1.16,1.06,1.16,1.46c-.43,1.24-1.24,2.52-2.08,4.6C587.91,813,583.9,815.43,583.06,817.9Zm6-15.12c-3.17-1.57-2.36-3.58-1.17-5.25a4.66,4.66,0,0,1,2.38-.66C589.82,798.73,589.42,800.61,589,802.78Zm4.06-9.4-.42.84c-.8.48-2.74-1.29-4.31-1.9,3.2-1.55,5.2-2.56,7.2-3.58l1.19-.13C595.5,790.33,594.67,792.41,593.07,793.38Zm3.74-8.75v.4l-1.19.14c-.36-1.55-1.52-3-1.1-4.25s2.42-2.26,3.64-3.58l1.16,1.06C598.48,780.48,597.64,782.56,596.81,784.63Zm18.07-50.81v-.41c-1.26,3.72-1.74,7.74-3.4,11.1-2.06,4.2-4.91,8.08-3.83,13.12,0,.4-.82,1.29-1.23,2.12a93.91,93.91,0,0,1-4.14,8.8c-1.24,2.51-1.71,6.14-6.44,5.08,2.1-5.79,4.19-11.18,6.28-16.57a6.38,6.38,0,0,0,.85-2.48c.08-4,.95-7.65,5-10.07.8-.49,1.22-1.72,2.43-3a32.14,32.14,0,0,1-4,2c1.4-10.48,3-13.44,8.17-12.81l-1.52-3c-.37-.75-.76-1.5-1.13-2.26l2.4-1.45c.8-.49,1.61-1.37,2.41-1.86l-3.54-.8c1.33-6.89,2.13-7.38,8.06-7.24Q618.05,723.93,614.88,733.82Z"/><path class="cls-1" d="M677,523.73l.5-.07-.49-.33Z"/><path class="cls-1" d="M783.14,722.81l-.17.24.16.15Z"/><path class="cls-1" d="M812.19,582.8c2.37-7.15,4.95-14.33,7.58-21.51-1.85,4.72-3.68,9.43-5.45,14.13-5.47,15.69-10.55,31.73-16.42,47.46-1.68,5-2.18,9.77-4.26,14.76l.3-.13,1.37-4C800.8,616.61,806.3,599.73,812.19,582.8Z"/><path class="cls-1" d="M777.56,706.1l.48-.05a5.23,5.23,0,0,0-.63-.17Z"/><path class="cls-1" d="M1050.25,660.49l0,.88A2.63,2.63,0,0,0,1050.25,660.49Z"/><path class="cls-1" d="M1047.21,666.36a8.78,8.78,0,0,0,3-4.94,86.3,86.3,0,0,1-.17-22.43,22.06,22.06,0,0,0-7.41-18.09c-3.51-3.2-9-4.22-13.86-5.31-1.61-.48-4.88.54-5.88,1.95-3,3.6-5,7.73-7.4,11.91l-4,7.29c-2.68,4.21-5.69,8.46-8.39,13a120.14,120.14,0,0,0-5.43,11l-1-.87c1.06-3.71,1.79-7.38,3.15-10.79,1.4-4.39,3.11-8.82,4.83-13.25.68-1.37,1.68-2.79,1.72-4.43.44-5.59-.76-10-5.91-12.38-3.54-1.57-6.39-4.83-10.6-5.67a14.34,14.34,0,0,0-5.21.57c-.32,0-.38,2.65-.4,4a11.23,11.23,0,0,1-.07,3.27c-1.07,4.35-2.46,8.75-3.85,13.14q-4.22,15.13-8.43,30.27c-.36,1.35-1.36,2.76-1.71,4.11-.37,2-.09,4.24-.79,6.28-2.08,6.42-5.14,12.63-6.57,19-2.21,8.62-4,17.19-5.65,25.75-2.27,1.5-4.56,2.94-6.84,4.32-6,3.85-11.64,8.44-18.78,9.23-4,.43-6.3-.89-5.84-4.12l2.7-15.78c2.7-15.38,8.94-30,14-44.81.84-2.48,2.87-5.08,2.92-7.47.11-5.17,3.32-7.51,6.94-10.29,1.21-.93,2.85-3.89,2.47-4.64a45.46,45.46,0,0,0-8.09-9.81c-1.94-1.78-4.69-2.67-7-4.39-3.11-2.43-5.48-2.57-7.12.39-3.72,7.56-7,15.46-10.77,23a31,31,0,0,1-4.9,7.29c-6.88,7.91-14.56,15.5-21.44,23.41-10.55,12.28-20.69,24.91-31.23,37.19-2.85,3.49-6.46,6.27-9.69,9.41a18.72,18.72,0,0,1,.54-6.81c.86-3.27,1.33-6.89,2.19-10.16.44-1.48.9-3,1.38-4.43l4-6.24L861.42,704l-.54.77c.73-2,1.48-4,2.23-6,3.34-8.31,5.89-16.92,10.4-24.56,4.94-8.88,5.12-17.63,4.91-26.35-.28-5.52-4.56-8.62-8.85-11.32-3.51-2.39-4.31-1.9-6.77,1.94-6.57,11.84-11.18,24.26-15.41,37-4.63,13.61-9.27,27.22-13.52,41.18a48,48,0,0,0-.73,26.3c-3.43,4.84-6.56,10.37-13.94,13.28l5.37-10.92-1.19.13c-3.25,4.34-6.5,8.67-10.57,13.88,2.39-.66,3.18-.75,5.17-1.37-4.47,5.66-8.13,10.42-11.79,15.2L805,772.11q3.66-4.56,7.31-9.14l-1.16-1.06-15.81,18.42c-2,2.61-7.18,2.78-7.52,0-1.05-6.24-2.5-12.43-2.37-18.79.26-3.77.69-7.57,1.23-11.34,1.08-1.63,2.25-3.21,3.47-4.8.4-.44.41-.84.82-1.68a8.36,8.36,0,0,0-2.78.71c.35-2.93.69-5.64,1-8.3.23-1.17.48-2.34.72-3.52l.07.11c1.23-2.13,3.25-4.33,3.29-6.32.2-1.78-.46-2.56-1.44-3,1.93-9,4-18.09,6-27.14a100.42,100.42,0,0,1,3.41-11.48c.85-2.88,1.7-5.76,2.54-8.23.86-2.87,2.49-5.43,3.34-8.3.43-1.64-.72-3.5.1-4.78,3.3-6.31,4.62-12.81,6.74-19.4,2.55-8.61,5.49-16.88,8.44-25.14.43-1.63,1.64-3,2.07-4.59,2.12-7,4.25-14,6.77-21,2.12-6.59,5-12.87,6.74-19.4,1.73-7.34,6.62-14.23,6.39-22.14,3.63-3.19,3.32-7.52,4.59-11.23.83-2.08,2.45-3.84,3.29-5.92,1.25-3.31,2.12-7,3.38-10.3a5.77,5.77,0,0,1,2-2.2c4.81-3.31,10.67.4,15.51-4.1,0,0,.38.75.77.71,3.94.75,7.14-.79,7.61-4.42l-22.59,2.5c0-.4,0-.79,0-1.19,4-.84,7.22-4.77,11.94-3.71,2.36.54,5.15-.17,7.53-.83,2.79-1.1,5.2-3,7.93-.88.39.36,1.58-.17,2.37-.26,5.16-.57,10.32-1.54,15.47-2.11,2-.22,4,0,5.94-.26,5.15-.57,10.3-1.14,15.44-1.31.8-.09,1.55,1.42,2.72,2.48l-46,5.08c.76,1.51,1.92,2.57,3.11,2.44,10.69-.79,21.39-2,32.08-2.76a234.88,234.88,0,0,1,23.73-.24c6.72,0,13.4,2.09,20.13,1.34,7.14-.79,12.2,3,18.51,3.9,3.24-3.93,3.32-7.91.24-11.53l1.69-5.35c-.39-.35-.77-.71-.77-1.1.54-6.41-4.6-6.64-8.94-7-5.13-.62-10.27-.45-15.41-.67a4.76,4.76,0,0,1,.44-2c-4.41,2.87-7.57,2.82-9.1.21-1.59.58-3.19,1.55-4.78,1.72-11.48.88-23,1.35-34.44,2.23-1.19.13-2.8,1.5-3.62,2.78-1.63,2.16-3.61,2.78-5.95,1.06l3.59-1.59,0-1.2-9.52,1.06c0,.39,0,.8,0,1.19l3.54.8c0,.4,0,.79,0,1.19l-15.46,1.72a30.29,30.29,0,0,1,3.2-1.55c0-.4,0-.8,0-1.19l-13.08,1.44c0,.4,0,.8,0,1.2l5.92.53,0,1.19-8.72,1a9.8,9.8,0,0,0,1.64-2.56c-2-.18-3.55-.4-5.13-.62a36.36,36.36,0,0,1,1.72-6.15c5.46-15.29,11.32-30.62,16.78-45.92,1.67-4.15,3.74-8.74,3.43-12.68-.31-4.33-1.38-9.37-6.89-10.74-2.76-.49-5.1-1.82-7.46-2.75-5.09-2.21-8.29-.27-8.81,5.74a21.71,21.71,0,0,1-.9,4.86c-2.52,7-4.65,14.41-7.57,21.48-2.08,5-.23,11.14-5.85,15.33-.41.44-.84,2.07-.45,2.43,2.68,4.07-1.35,7.69-2.22,11.36-2.14,7.78-5.46,15.29-8.39,22.76-.83,2.07-2.07,4.59-3.68,6-2,1.42-4.78,1.72-7.17,2.38a60.12,60.12,0,0,1-8.33,1.33l0-1.2c-2.81,1.9-5.63,4.59-8.41,5.3s-5.93-.54-9.47-.94c.68,5.08-2.13,7-9.23,6.18,2.79-1.1,5.19-2.16,8-3.27-3.92-1.54-15.06,1.67-18.28,4.41-1.21.93-3.19,1.15-4.78,1.72a15.65,15.65,0,0,1-3.2,1.55,10.49,10.49,0,0,1,3.54.8c0,.39,0,.79,0,1.19a36.37,36.37,0,0,1-6.33.31l-1.63,1.76c-3.55,0-6.32-.1-9.08-.18-.8.48-2,2.2-3.22,2.33-5.54.62-10,4.28-15.91,4.94-6.34.7-12.75,4.59-18.75,7.63s-11.61,6.84-17.21,10.24c-4.41,2.48-9.2,4.59-13.61,7.46-1.2.93-2.84,3.49-2.47,4.64a51.9,51.9,0,0,0,3.74,10.3c1.14,2.26,2.72,2.48,5.13.63,5.62-4.2,11.25-8.39,16.85-11.79,5.21-3,10.79-5.17,16-7.72,10-5.08,20-10.15,30.35-14.47,7.19-3.18,15.13-4.86,22.69-7.28,4-1.24,8-3.26,11.95-4.1,3.17-.35,4.77-1.33,5.2-3,9.93-1.89,19.45-3.74,29.77-5.68-1.62,1.77-2.81,2.3-2.83,3.09-.46,2.83-.13,6-1,8.85-2.46,6.87-5,13.76-7.54,20.64,2.54-6.48,5.09-13,7.52-19.45,1.67-4.15,2.94-8.26,4.61-12.42.82-1.68,2.05-3.4,2.87-5.08l1.19-.13c-1.29,4.9-2.58,9.81-4.26,14.76-.86,3.27-2.9,6.28-3.76,9.54-3,8.67-4.33,17.55-8.45,25.54-3.71,7.16-4.27,14.77-7.19,22.23-3.76,9.55-6.34,19.36-9.7,28.86-.42,1.24-2,2.61-2.05,3.4.35,2-2.09,5.39,1.86,5.75l-.06,2.39-3.92-1.55c-.85,2.87-1.29,5.3-2.14,7.77-1.3,5.31-4.58,11.23-3.89,15.91.71,3.89-.15,6.76-1,10,0,.39-.42.83-1.23,1.72.09-4,.16-7.16.22-10.35l-1.19.14a11.54,11.54,0,0,1-.46,3.23l-3.17.35c3.13,1.63,2.26,5.3,1.81,7.74-.9,5.25-3,10.24-4.28,15.55-.44,2-.08,4-.14,6.36l-1.58.18q-1.3,6.11-2.63,12.2l-.71.08c1.4.46,1.74,1.39.63,3.9l-.41.83c-2.07,4.2-2.57,9-3.85,13.53-.42,1.24-2,2.21-3.24,3.53,1.34-7.29,2.68-14.58,4-22.27a22.2,22.2,0,0,1,2.21.31c-.76-1.08-1.74-2.43-1.35-3.59l0,.8q3.88-14.72,7.74-29.43a84.79,84.79,0,0,0,1.79-9.72c3-9.06,5.52-18.08,9.26-26.83l-.89.4c-4.6,13.57-9.14,27.43-13,41.23q-5.11,17.24-9,34.34c-1.75,7.73-3.09,15.42-4.44,23.11-.74,4.59-1,9.13-1.29,13.68-.17-1.51-.22-2.57-.5-4.09-1.23,2.12-2,3.4-2.86,4.68,2.35.93,3.51,2,1.09,4.24-1.2.93-1.63,2.57-2.84,3.89s-3.24,3.53-4,3.23c-2.75-.89-3.58,1.19-4.8,2.91l-11,14.31c-.81.88-1.61,1.37-2.42,2.25l-1.19.14c.58-8.8.77-17.55,2.14-26.44,1-7.25,3.08-14.63,4.81-22,2.59-9.81,5.95-19.31,7.73-29,1.77-8.92,3.56-18.65-3.82-25l-12.82-10.49c-1.65,3-2.89,5.48-4.13,8l1.17,1.06c-.43,1.64-.47,3.62-1.29,4.9-2.86,4.28-6.11,8.62-9,12.9-2,3-3.62,2.79-5.14.18-2.28-4.52-3.36-9.56-8-12.61-5.85-3.72-10.5-8.36-16-12.52-.78-.31-3.16-.05-3.57.79A71.52,71.52,0,0,0,682,682c-7.82,14.36-15.63,28.72-23,43-7,13.88-13.64,28.1-19.87,42.29a144.09,144.09,0,0,0-6.79,21.79c-1.72,6.94-.68,13.56,3.16,19.09,1.91,3,3,6,4.55,9,3.78,8.32,14,11.95,21.69,2.76,2-2.61,4.45-4.86,6.48-7.46l13.41-17c2.44-3.44,4.5-7.24,6.94-10.69,1.23-1.72,2.85-3.48,4.07-5.21,5.33-8.92,10.66-17.85,16-27.17,1.23-2.12,1.68-4.55,2.53-7.42a14,14,0,0,0,2,.57c2.06-3.8,4.12-7.6,7-12.67a35.23,35.23,0,0,1,.68,5.47c0,2.39-.89,4.87-1,7.25s1.09,4.64.65,6.68c-2.57,9.81.4,18.61,1.79,27.58,1.38,9.77,6.75,17.51,12.12,25.25,3.07,4.42,10.52,7.57,15.35,3.46a86,86,0,0,0,11.32-12c3.26-4.33,5.73-9.37,8.6-14.05.29-.51.59-1,.9-1.52a27.71,27.71,0,0,0,4.56,5,84.22,84.22,0,0,0,6.61,5.23c3.51,2.39,6.6,5.62,10.53,6.77,6.29,1.69,13.4,2.09,19.85-3.79,4-4,9.63-6.62,10.56-13.07,0-.4.81-.89,1.21-1.33,2.45-3.44,5.29-6.93,7.34-10.73,2.56-4.48,5-8.94,7.4-13.4q1.57,2.65,3.45,5.21a17.84,17.84,0,0,0,8.16,6.63c5.89,2.13,17.54-6.7,20.47-14.56a27.49,27.49,0,0,1,4.11-7.21c2.84-3.49,6.85-6.32,6.57-11.44,0-.79.82-1.68,1.24-2.52a72.88,72.88,0,0,1,4.11-7.6,56.7,56.7,0,0,1,4.46-5.25c1.21-1.33,2.82-2.7,3.65-4.38,2.87-4.68,5.74-9.76,8.62-14.84l1.18-.14q-.08,4.18-.17,8.36c-.07,3.18-.54,6.81.18,9.9,2.59,8.45,4.38,17.37,9.77,24.32,4.23,5.49,8.08,10.62,15.14,13.41,6.67,2.44,12.61,1.78,19-1.71,2-1.2,4.49-1.94,6.44-3.17.28,1.52.54,3,.73,4.57A6.82,6.82,0,0,1,956,759c-1.7,3.77.2,5.84,2.76,7.51,1.92,1.42,4.84,1.75,6.1,3.57,2.21,2.68,3.88.87,5.86-.65.66-.73,1-1.74,1.67-2.47,4-3,5-5.44,4.1-9.58a8.06,8.06,0,0,1,.08-3.93,73,73,0,0,1,2.46-8.74c1.73-4.76,3.45-9.19,5.16-13.62,2.41-6.13,4.48-12.23,7.21-18.4,2.06-5.12,4.76-10,7.14-15.14l9.18-19.59c.43-.94.84-1.89,1.25-2.85.59-.69,1.19-1.41,1.81-2.18l-.75-.25a57.22,57.22,0,0,1,4.14-8.15c2.35-3.52,2.79-9.12,8.33-10.06.33,0,1-1.41,1.35-2.1.35-1.34.38-2.65.73-4,1.38-3.74,2.76-7.48,7.35-9.62.28,1.93.57,3.52.86,5.12a79.23,79.23,0,0,0,1.12,8.68,19.44,19.44,0,0,0,7.85,12.82C1043,666.51,1045.89,667.16,1047.21,666.36ZM947.38,509.1l-2.78.3-.78-.31c-3.56,0-7.12.4-10.68.39-.8.09-1.57-.62-2.75-.89C934.8,505.73,943.89,505.91,947.38,509.1Zm-27.93-6.83,10.7-1.19c0,.4,0,.79,0,1.19l-10.7,1.19C919.43,503.06,919.44,502.66,919.45,502.27ZM770.11,540.18c1.79-2.27,7.08-4.75,9.88-5.41,4-.84,8-2.87,12.75-4.58C790.37,533.9,778.76,538.64,770.11,540.18Zm30.14-10-.79.09a19.37,19.37,0,0,1-4.74-.27l0-1.2c1.19-.13,2.37.14,3.57-.39s2-1.81,4-3.62c.76,1.9,1.13,3,1.5,4.2A12.62,12.62,0,0,1,800.25,530.15Zm29.84-8.86a36.91,36.91,0,0,1-9.15,3v.4a107.22,107.22,0,0,1-10.74,3.18c-1.19.13-2.36-.54-3.54-.8,0-.8,0-1.59.05-2.39,6.75-1.54,13.49-2.69,20.26-4.62,1.59-.58,2.81-2.3,4.42-3.67l1.17,1.07C831.73,518.73,831.29,520.76,830.09,521.29ZM685.63,753.44l-1.17-.66c-2,3-4.48,6.05-6.92,9.1a19.62,19.62,0,0,1-4.41,3.26c.71,3.5-7,15.07-13.85,19,.06-2.79-.67-5.48.16-7.55,3.31-6.72,7.4-13.53,11.11-20.29.82-1.28,2-2.6,2.05-3.8,1-9.64,7.86-16.34,12.77-24,2.86-4.29,4.93-8.88,7.79-13.17,3.25-4.33,6.9-8.7,10.15-13l1.17,1.06c.62,7.87,4,15.83-1.7,24.4Zm37.58-38.29v-.79c-.4.44-1.2.92-1.21,1.32-2.14,7.78-8.2,14-11.52,21.12-.83,2.07-3.23,3.53-4.46,5.26-3.25,4.32-6.12,9-9.37,13.34a10.05,10.05,0,0,1-4,3.62c.43-1.64.46-3.23,1.28-4.51l9.81-15.38c2-3,4.08-5.61,6.11-8.21,2.44-3.45,5.28-6.94,7.34-10.74,2.46-4.23,4.54-8.83,7-13.47,1.65-3.36,3.69-6.37,5.74-9.76l1.16,1.06C729,703.79,728.45,710.21,723.21,715.15Zm48.92,23.7-.8.48c-.41,2.24-.83,4.47-1.32,6.71l-1.48,2.11q1.11-9.74,2.23-19.47C773.47,731.55,772.6,735.22,772.13,738.85Zm18.34-26.24-1.19.13,2.58-9.81,1.19-.14Zm15-53.65c-2.52,7-4.26,14.36-6.38,21.34a91.82,91.82,0,0,1-4.18,10.79c1.86-13.31,6.48-26.12,11.1-38.94C807.12,654.41,806.29,656.48,805.44,659Zm45.49-132q-1.89,5-3.77,9.94l0-1.19-1.18.13q1.88-5,3.77-9.94Zm-3.6-35.32c-.13,6-.26,11.94-4.32,17.14l.42-1.23-1.19.13Zm-67.75,250-.88.1,1.28-2.05C779.85,740.29,779.71,740.94,779.58,741.59Zm.19-9.5a.06.06,0,0,0,0,0q.71-3.22,1.39-6.46l1.8-2.54-1-.91-.07.1c2.4-11.09,4.91-22.32,7.89-33.37,3-12.24,7.23-24.22,11-36.15,5.1-16.84,10.2-33.67,15.7-50.55,3-9.06,6.7-17.81,10-26.52,2.95-8.26,5.5-16.87,8.44-25.14a148.82,148.82,0,0,1,7.5-17.9c-3.49,15.47-10.14,30.49-15.2,45.74-5.08,15.64-10.54,30.93-16,46.62.4,0,.78.31,1.17.66l1.23-1.72c1.22-1.72,2.83-3.49,3.67-5.56,3.79-11.14,7.59-22.67,11.4-34.21l8.85-26A4.93,4.93,0,0,1,840,555.9c-.86,2.88-1.31,5.71-2.16,8.58l-6.3,17.37L824,602.92l-8.82,24.79c-2.13,7-4.25,14-6.77,21-.42,1.23-1.63,2.16-2.44,3,.45-2.43,1.29-4.9,2.15-8.17a6.26,6.26,0,0,0-1.23,1.41c1.91-4.9,5.66-9.48,4.68-14.89l-1.19.13q-2.53,8-5.09,16l.86-.09c-3.71,6.43-8.75,21.89-10.58,29.74-2.6,11-6.38,21.74-9,32.75-1.57,6.64-3,13.27-4.36,19.89Zm96.79-14.57-.41.44L875,716.9l3.66-5.18c.81-.88,2-1.8,2-2.6-.29-4.73,2.86-4.28,6-4.24C883.06,708.86,882.14,714.91,876.56,717.52Zm20.62-22.13a56.7,56.7,0,0,1-4.46,5.25l-2.42,2.65L888,700l-2.4,1.45c-.39-.35-.78-.7-1.16-1.06,1.62-1.76,3.67-5.16,4.85-4.9,3.94.36,6-2.65,8.39-4.5l1.17,1.06A9.45,9.45,0,0,1,897.18,695.39Zm58.07,34-.27.11c.37-1.08.44-2.75,1-3.73C955.74,726.94,955.5,728.15,955.25,729.36Zm41.15-56.07c-.56-4.17,11.57-25.08,15.85-27.5C1006.85,655.18,1001.8,663.89,996.4,673.29Z"/><path class="cls-1" d="M1050.23,661.37v0Z"/><path class="cls-1" d="M1185.82,651.44l.39,0c4.77-.93,7.2-4,8.08-8Z"/><path class="cls-1" d="M1182,663.77v.4c-1.61,1.37-3.23,3.14-4.84,4.5l-9.66,8.21c-2.82,2.3-6,4.24-8.83,6.15L1157.5,682c3.22-2.74,6.44-5.48,10.46-8.7-1.58.18-2.37-.13-2.77.31q-6,4.23-12,8.48c-6.83,5.12-13.66,10.24-20.5,15.75-3.22,2.75-6.05,5.83-9.66,8.22-2.41,1.46-6.73.35-6.44,5.47a7.2,7.2,0,0,0-1.21.93c-4,2.43-8,4.46-11.61,6.85-8,5.65-16.43,10.55-25.56,12.35-3.18.75-7.17,2.38-9.06-1.77-3.78-8.32-2-17.24.56-26.26,1.29-5.3,2.59-10.61,4.29-16a39.32,39.32,0,0,1,2.1-6.19c1.56,1.42,3.51,2.39,5.06,3.81,3.48,4,10.59,4.38,14.62.36,9.29-9.36,19-18.77,27.5-28.84,4.86-5.7,11.3-11.17,12.27-19.61,0-.4.42-.84.82-1.29,5.61-3.4,5.74-9.76,7.42-14.31,2.08-5,1-11.62,0-17.06-1.79-8.93-9.21-13.67-15.82-18.49a11.16,11.16,0,0,0-13.05-.15c-6.8,3.93-13.61,7.86-19.64,12.89a75.76,75.76,0,0,0-14.15,14.66c-5.29,6.94-9.8,14.58-14.31,22.23-2.45,3.84-4.12,8-6.18,12.19-3.72,7.56-7.84,15.16-11.16,22.67-2.07,4.59-2.58,9.81-4.27,14.76a42.18,42.18,0,0,0,.94,30.46c4.52,11,9.41,22.77,19.53,30,7,5.18,14.41,10.31,24.33,8.82a74,74,0,0,0,12.34-3.75,59.08,59.08,0,0,0,10.41-6.31c1.6-1,2.82-2.69,4.43-4.06,6.84-5.52,13.67-10.65,20.51-16.16,3.22-2.74,7.63-5.61,8.49-8.88,1.29-4.91,5.28-6.54,7.72-10,1.22-1.72,2.83-3.09,4.06-4.81,4.47-6.06,8.55-12.06,12.63-18.07l2.43-2.65c2.84-3.09,6-5.82,8.9-9.32,2.42-2.65,4.08-6,6.12-9l-1.17-1.06A35.12,35.12,0,0,0,1182,663.77Zm-99.19-2.12-.42.84c1.67-3.75,3.72-7.55,5.78-11.35a11.58,11.58,0,0,1,1.64-3c2.84-3.09,5.67-6.19,3.76-9.15,3.22-3.13,6.82-5.12,7.68-8,2.92-7.47,9-12.1,14.59-17.1a140.18,140.18,0,0,1,11.65-8.83c2.41-1.85,3.59-1.19,3.53,1.59-.58,8.4-3.9,15.92-9.58,22.89-2.44,3.06-4.49,6.85-6.93,9.9-1.62,1.77-4,2.82-6,4.63-4.84,4.51-9.69,9.42-14.53,13.92l-12.09,10.86-1.16-1.06C1081.54,665.76,1082,663.73,1082.81,661.65Zm69.43,26.06c-1.56,2.43-3.42,2.38-5.6.55l5.62-1.75C1152.25,686.91,1152.24,687.31,1152.24,687.71Z"/><path class="cls-1" d="M237.52,831.83c3.53,5.2,2.17,11.67-2.31,17.51-3.74,5-8.44,9.67-12.19,14.95a43.86,43.86,0,0,1-8.92,9.48c-4.69,3.92-9.37,7.84-14,11.52-3,2.27-6.15,4.32-9.79,4.48a8.76,8.76,0,0,0-2.2,1,10.16,10.16,0,0,1-10.82-3.18,15.93,15.93,0,0,0-3.08-3.31c-.81,3.74-4.73,5.87-4.33,10.2,2.21-1.46,3.93-2.62,5.89-3.81.73-.32,2.19-.48,2.18-.24.22,1.19.91,2.81.42,3.36a79.47,79.47,0,0,1-7.44,7.62c-.49.54-1.7.19-3.15.35a32.31,32.31,0,0,0-.59,4.93c0,2.19-.79,3-3.21,2.78-5.8-.33-9.33-5.29-8-11,.53-2.49.58-4.68-1.06-6.93a14.25,14.25,0,0,1-3.19-9.13c.06-3.16-1.08-6.2-.77-9.39.33-3.93.42-8.07,2.68-12a4.82,4.82,0,0,0,.54-2.49,6,6,0,0,1,2.29-5.11c0-1.95-.64-4.07.86-6.18a9.68,9.68,0,0,0,1.52-3.08,28.11,28.11,0,0,0,1.07-4.74,31.08,31.08,0,0,0,2.28-4.87c1.32-4.76,2.39-9.74,4-14.52a36.42,36.42,0,0,1,3.29-6.69c1.52-2.84,3.27-5.46,5-8.33a4.77,4.77,0,0,1-1.2-.59c1.49-1.62,3-3.25,5-5.41-1.45-.08-2.18,0-3.14-.14,1-1.81,2-3.38,3.26-5.47a6.72,6.72,0,0,1,.2,1.93l.73-.09c.52-1.51,1-3,1.8-5.05-1.46.65-2.2,1-3.42,1.59a49.43,49.43,0,0,1,7.11-15.37,11.26,11.26,0,0,0,.94,1.6c.51-1.27,1-2.3,1.53-3.57a4.77,4.77,0,0,0-1.7-.06c2.38-9,2.89-10.28,4.36-11.17,1.06-4,1.62-7.47,2.9-10.77,1.28-3,2.79-5.89,3.34-9.12a44.71,44.71,0,0,1,2.11-7.52,2.17,2.17,0,0,1,3.17-1.56c4.57,1.68,9.39,2.85,12.69,6.62a4.38,4.38,0,0,1,.7,1.63c-.31,2.7-.36,5.38-1.39,7.92-2.31,6.34-5.11,12.48-7.67,18.83-1.79,4.58-3.83,9.17-5.62,13.75-1.28,3-1.6,6.49-3.59,8.9-3.48,4.27-2.86,9.3-5.62,13.74-2.26,3.65-2.84,8.09-4.38,12.15-1,2.79-2.55,5.62-3.81,8.44-1.28,3.06-2.32,6.33-3.6,9.39-.77,2.27-2,4.35-2.81,6.62-1,3.52-1.84,7-2.89,10.53-1.3,4.27-2.84,8.58-4.39,12.88-.26.51,0,1-.06,2.44a56.63,56.63,0,0,0,4-5.31c1-1.56,1.77-3.11,2.77-4.67,1.75-2.87,3.51-5.74,5.51-8.39,3-3.73,6.21-7.24,9.44-11l.24,0c1.3-4.27,5-6.14,7.93-8.65,6.18-5.54,12.81-10.16,20.78-9.09,4.11.52,7.94,2.53,11.77,4.29,1,.38,1.16,2.31,1.87,3.45,1.17,1.57,2.59,3.11,3.77,4.68Zm-83.59,36.42a101.29,101.29,0,0,0,4.17-13.58c0-.24-1-.62-1.43-1.06a65.51,65.51,0,0,1-1.11,6.68l-1.62,7.47Zm6.24-19.89.73-.07c1-2.31,2-4.61,3-6.9l-.71-.66q-1.53,3.45-3.05,6.9Zm4.75,4.1c1-2.79,2.06-5.58,3.09-8.36l-.73.08q-1.89,3.86-3.8,7.71l.72.65Zm3.64-22.52,2.31-6.09c-2,.95-3,3.49-2.31,6.09m1,8.88,6.15-16-.72.08-6.16,16,.71.65Zm8.7-21.61q-1.93,5.67-3.88,11.36l.73-.08q1.94-5.68,3.88-11.36l-1.44-.57Zm47.38,14.71c.5-.79.28-1.73.3-2.71a8.79,8.79,0,0,0-2.43.51c-6.6,2.67-11.55,7.83-16.74,12.54a38.81,38.81,0,0,0-4.45,4.14,92.83,92.83,0,0,0-5.73,7.68c-3.49,4.75-7,9.51-10.24,14.25-2.5,3.67-4.76,7.57-7.27,11.49.48-.05,1.21.11,1.7-.19,5.16-3.48,10.33-7.21,15.49-10.94a39.52,39.52,0,0,0,4.92-3.7c2.47-2.22,4.71-4.65,6.94-7.08,1.23-1.35,2.72-2.74,4-4.33,2.74-3.46,5.49-7.17,8-10.84,2-3.14,3.76-6.25,5.53-9.36Z"/><path class="cls-1" d="M312.29,811.44c0,1.22.68,2.35.41,3.6-.55,3-1.34,6-1.89,9-.81,4-1.39,8.17-2.44,12.17-.8,3.26-1.12,6.68-3.6,9.64-1,1.08-1,2.79-1.55,4.3-1.83,6.52-3.67,13-5.74,19.35-1.05,3.51-3.06,7.14-3.38,10.57-.3,2.47-1.31,4.52-2.09,6.8a28.46,28.46,0,0,1-2.5,3.92c.92,2.08-.11,4.87-1.37,7.44-.25.27-1,.35-1.47.65-.74.57-1.48,1.38-2.72,2.48a15.24,15.24,0,0,0,3.15-.1c-2.23,2.44-4.21,4.59-6.44,6.78a10.72,10.72,0,0,0,1.65,2c1-2,2-3.87,3-5.68l.73-.08c-.52,1.27-.78,2.52-1.29,3.79-1.27,2.57-2.53,4.9-3.56,7.44-.5,1-.53,2.24-1,3.27-.77,1.79-1.77,3.36-2.53,4.9a31.11,31.11,0,0,0-2.29,4.87c-.26,1-.28,2-.55,3a48.1,48.1,0,0,1-2.05,5.33c-.75,1.31-1.75,2.63-2.5,3.93a9.6,9.6,0,0,0-1,2.3c-1.26,2.32-2.28,4.62-3.54,7-.5.78-1.72,1.16-2.95,1.78.92,2.33-.8,3.73-2.77,5.16a2,2,0,0,0-1,1.33c-.53,2-1.53,3.33-3.94,3.11.66,2.84-.82,4.22-3,5.44a27.78,27.78,0,0,0-3.95,3.34c-4.44,3.66-9.11,6.84-14.69,7.45-6.31.7-12.11-.12-17.37-3.19-7.17-4.3-12.12-10.33-15.83-17.69a18.36,18.36,0,0,1-1.8-6.37c0-1.7,1.29-3.54,2.06-5.57a9.8,9.8,0,0,1,.45,1.41c-1.81,5.3,1.51,8.34,3.86,12,.23.46.7.89.94,1.35,1.15,2.3,2.82,3.82,5.48,4a39.84,39.84,0,0,0,17.48-2.41c1.22-.38,2.43-.52,3.65-.89a3.15,3.15,0,0,0,2-1c4.2-3.62,8.15-7.21,12.84-11.37-3,5.68-8.17,8.43-12.13,12.27,0,.24,0,.48,0,.73.74-.33,1.46-.41,2-.95,3.71-3.56,7.9-6.94,10.9-11.16a153.12,153.12,0,0,0,12-19.31c2.78-5.41,4.6-11.2,6.9-16.8Q271,902,275.21,891.35c2.31-6.09,4.38-12.15,6.45-18.21,2.85-8.58,5.7-17.15,8.3-25.7,1.58-5.77,2.67-11.48,4.25-17.24,1.05-3.52,2.33-7.06,3.38-10.58a4.94,4.94,0,0,0,.28-2c-.24-.23-.47-.44-.71-.65-1.51,2.59-2.77,5.16-4.28,7.76a43,43,0,0,1-2.75,4c-.76,1.29-2,2.64-2.26,3.89-.58,4.2-3.31,7.41-5.32,10.8-3.77,6.24-8.26,12.33-12.27,18.6-2,2.89-3.76,6-5.53,9.11a16.07,16.07,0,0,0-1,3.52c-.81,4-4,6.28-6.25,9.19a4.16,4.16,0,0,1-6.31.46c-2.37-2.41-5-4.55-6.62-7.54-3.27-5.47-4.09-11.94-3-18.86a130.41,130.41,0,0,1,2.46-13.4c2.12-8,4.46-15.8,6.57-23.57.79-2.76,1.09-5.47,1.87-8.23.78-2.51,1.81-5.06,2.59-7.57.52-1.76,1.29-3.55,1.81-5.31.55-3,2.75-4.19,5.14-2.51,2.38,1.93,4.51,4.12,4.18,7.8,0,.25,0,.49,0,.73,2.05,6.1-.27,12.18-2.33,18.25-1,2.54-1.57,5.27-2.35,7.79-1.05,3.76-2.34,7.55-3.39,11.31-1.84,6.76-3.69,13.78-5.54,20.54,0,.25.23.7.45,1.89,4-4.81,7.46-9.08,10.71-13.57,2.73-3.46,5-7.35,7.49-10.79.75-1.06.8-3.49,3.21-2.54a30.28,30.28,0,0,0,2.49-3.44c.5-.53,1-1.08,1.49-1.62l.71.65-15,22.07.72-.08c13.95-18.06,25.27-37.54,35.89-58.39-6.45,7.28-9.78,15.65-15,22.8A153.77,153.77,0,0,1,300.81,794l-.72-.65a15.8,15.8,0,0,0-1.71,1.16c.25-.76.26-1,.51-1.27.75-1.3,1.5-2.11,3.19-2.05,1.45.08,1.43,1.05,2.14,2,1.65,1.76,3.8,3,5.71,4.47.72.41,1.67,1,1.66,1.77.4,3.6.57,7.22.73,10.85ZM220.52,968.1a4.35,4.35,0,0,0,1-1.08c-.23-.22-.47-.68-.95-.63-3.15-.14-6.3,0-9.45.07,1.42,1.79,7.2,3.1,9.41,1.88Zm64.88-77.63c1.29-3.79,2.34-7.55,3.39-11.31l-.73.08c-.77,2-1.54,4.06-2.31,6.33-.72-.4-1.2-.6-1.92-1,0,.73-.27,1.49,0,1.46,1.91,1,.91,2.57.4,4.09-2.31,5.84-4.38,11.9-6.44,17.72-1.29,3.79-2.59,7.57-4.12,11.39-2.56,6.12-5.35,12.26-8.15,18.4a56.42,56.42,0,0,1-3.29,6.44,3.84,3.84,0,0,1-2.21,1.7,4,4,0,0,0-3.45,2.57,27.63,27.63,0,0,1-3,4.21q1.92-4.21,3.82-8.44l-.73.08c-3.49,4.76-6.75,9.74-10.71,14.06s-8.65,8-13.09,11.9c8-2.83,13.52-9.52,19.23-16l.71.65L249,960.34l.71.66,9.72-12.74.71.65c.42,2.87-3.24,4.24-3.54,7,.5-.54,1-.84,1.24-1.11,1.75-2.62,3.49-5,5-7.6,2.27-4.14,4.54-8.27,6.57-12.63,2.8-6.39,5.36-12.74,7.92-19.1,1.53-3.57,3.06-7.14,4.35-10.69,1.54-4.06,3.08-8.12,4.38-12.14ZM268,922.28q-1.89,3.86-3.8,7.71l.72.66c1.26-2.57,2.53-5.15,3.8-7.72L268,923ZM283.23,890l-15.39,39.6.73-.08L284,889.9l-.71-.65ZM272.1,912.11c-.78,2.52-1.57,5-2.35,7.55l.73-.08c.78-2.52,1.56-5,2.35-7.55l-.72-.65Zm7.32-80.77-.72-.65,3-4.7.72.65q-1.51,2.34-3,4.7m6.73,46.9,1.44.57,2.37-9-3.81,8.44m2.94-1.54,11.73-38.48-.73.08q-1.95,6.42-3.91,12.83l-3.93,13.55c-1.06,4.26-3.56,8.17-3.9,12.34l1.46-.16Zm2-15.05c-.3,2.46-.59,4.92-.89,7.39l1.62-7.47-1.46.16Z"/></svg>