<?xml version="1.0" encoding="utf-8"?>
<!-- Generator: Adobe Illustrator 27.4.0, SVG Export Plug-In . SVG Version: 6.00 Build 0)  -->
<svg version="1.1" id="Layer_1" xmlns="http://www.w3.org/2000/svg" xmlns:xlink="http://www.w3.org/1999/xlink" x="0px" y="0px"
	 viewBox="0 0 411 329" style="enable-background:new 0 0 411 329;" xml:space="preserve">
<style type="text/css">
	.st0{clip-path:url(#SVGID_00000063600249691875571360000011281036175227757469_);}
	.st1{fill:#FFFFFF;}
</style>
<g>
	<defs>
		<rect id="SVGID_1_" width="411" height="329"/>
	</defs>
	<clipPath id="SVGID_00000085228352452672003410000016506371716835148472_">
		<use xlink:href="#SVGID_1_"  style="overflow:visible;"/>
	</clipPath>
	<g style="clip-path:url(#SVGID_00000085228352452672003410000016506371716835148472_);">
		<path class="st1" d="M179.6,94.3c2.3,0.7,4.1-1.5,6.5-2.3c-0.4,0.4-0.7,0.8-0.9,1.2c-0.7,1.3-2.4,2-2.2,3.8c0,0.1-0.3,0.3-0.4,0.4
			c-0.7,0.6-1.4,1.2-2,1.8c-0.5,0.5-1.1,1.4-1.5,1.4c-1,0-2-0.3-2.7-0.9c-1.7-1.6-3-3.3-3.8-5.7c-1.2-4.2-0.4-8.6,0.7-13
			c0.4-1.8,0.8-3.6,1.2-5.4c0.6-2.6,1.3-5.2,1.9-7.7c0.1-0.8-0.1-1.8-0.1-2.7c0-1.1,0.2-2.2,0.4-3.8c-1.4,1.1-2.4,1.9-3.4,2.7
			c-0.4,0.3-0.7,0.6-1.1,0.9c-1.6,1.2-2.7,3-3.9,4.8c-0.5,1-1.6,1.8-2.3,2.8c-2.4,3.4-4.7,6.6-6.8,10c-1.9,3.2-3.7,6.6-5.4,9.9
			c-1.2,2.2-2.5,4.3-4,6.4c-1.8,2.5-2.8,5.6-4.2,8.4c-0.3,0.7-0.7,1.3-1.1,1.9c-0.3,0.4-0.7,0.7-0.9,1.2c-0.4,0.7-0.7,1.8-1.8,1.7
			c-1.1-0.1-2.3-0.4-3.1-1.1c-1.7-1.3-2.3-3.5-3.2-5.4c-0.3-0.4,0-1.1,0-1.6c0.2-4.5,1.7-8.8,3.2-13.2c1.6-4.3,3-8.8,4.5-13.2
			c1.3-4.1,2.7-8.1,4.2-12.2c0.7-2,1.4-4.1,2.2-6c0.7-1.8,1.4-3.7,2.3-5.4c0.6-1.4,1.5-1.6,2.7-0.8c0.8,0.6,1.5,1.2,2.1,1.8
			c0.1,0,0.3,0.1,0.3,0.3c0.2,1.6,0.9,3.3,0.4,4.8c-0.9,4-2.3,7.9-3.5,11.8c-0.6,1.9-1,3.9-1.6,5.8c-0.3,0.8-0.8,1.7-1.3,2.6
			c-0.1,0.1-0.1,0.4-0.1,1.1c2.9-4.1,4.7-8.3,8.6-11.2c-0.8-0.3-0.8-0.3,1.3-3.1c-0.3,0.7-0.6,1.4-0.8,2.1c0.1,0,0.3,0,0.4,0
			c1.1-1.6,2.2-3.2,3.3-4.8c-0.3-0.3-0.5-0.5-0.8-0.7c2.5-2.6,4.9-5.1,7.4-7.7c-0.1-0.1-0.3-0.3-0.4-0.4c-0.5,0.3-1.1,0.7-1.6,1.1
			c-0.5,0.5-0.9,0.9-1.4,1.4c-0.1-0.1-0.3-0.3-0.4-0.4c0.7-0.8,1.2-1.6,1.9-2.2c1.6-1.4,3.2-3.4,5.6-3c1.1,0.1,2.4-0.3,2.9,1.2
			c0.1,0.3,0.7,0.3,0.9,0.4c1.1,0.3,2.2,0.6,3.2,1c0.3,0.1,0.5,0.6,0.4,0.8c-0.7,1,0,1.4,0.5,1.8c1.9,1.7,2.9,3.7,2.3,6.6
			c-0.3,1.5-0.2,3-0.1,4.5c0.1,1.4,0.1,2.6-0.9,3.7c-0.1,0.3-0.1,0.8,0,1.1c0.5,1.3-0.3,2.4-0.6,3.7c-0.7,3.3-2.4,6.5-2,9.8
			c0,0.3-0.3,0.6-0.4,0.8c-0.1,0.4-0.4,0.8-0.4,1.3c0,1.4-0.1,2.7-0.1,4.2L179.6,94.3z M153,85.9c6.4-10,12.5-20.1,21.3-28.5
			c-0.1-0.1-0.3-0.3-0.4-0.4c-0.3,0.2-0.5,0.3-0.8,0.5c-2.2,1.1-2.9,3.8-5.2,4.9c-0.4,0.2-0.5,1-0.8,1.4c-0.4,0.6-0.8,1.2-1.4,1.6
			c-0.8,0.9-1.9,1.6-2.5,2.6c-1.1,2.2-2.2,4.3-3.8,6.2c-1.6,2.1-2.9,4.4-4.3,6.7c-1,1.6-1.8,3.3-2.7,5c0.1,0.1,0.3,0.3,0.4,0.4
			L153,85.9z M158.4,47.4c-1.5,1.2-3,1.3-4-0.1c-0.1-0.3-0.1-0.9,0-1.1c2.9-3.3,5.8-6.6,8.7-9.7c0.4-0.4,1.5-0.5,2-0.4
			c2.1,1,4.1,2.1,6.1,3.3c1.1,0.7,2.1,1.4,3.2,2.1c0.8,0.4,1.6,0.5,2.4-0.1c0.8-0.6,1.8-1.3,2.6-2c2-2,4-4.1,6-6.1
			c0.3-0.3,0.9-0.5,1.4-0.4c1.7,0.6,1.8,2.5,0.4,4.1c-1.6,1.8-3.2,3.7-4.7,5.6c-1.2,1.5-2.3,3.1-4.8,3.4c-2,0.5-3.3-1.1-4.9-2.2
			c-1.9-1.3-3.6-2.6-5.4-3.8c-1.1-0.8-2.1-0.7-3.1,0.5c-1.5,1.9-3,3.8-4.6,5.6c-0.4,0.6-0.9,1.1-1.5,1.5L158.4,47.4z"/>
		<path class="st1" d="M233.6,77.7c0.5-0.5,1.1-0.8,1.6-1.1c0.1,0.1,0.3,0.3,0.4,0.4c-0.7,1-1.2,2.2-2.1,3.1c-1,1.2-2,2.1-3,3.2
			c-0.3,0.3-0.5,0.6-0.8,0.9c-1.4,2-2.8,4.1-4.3,6.1c-0.4,0.6-0.9,1.1-1.4,1.6c-0.8,1.2-2.2,1.7-2.6,3.4c-0.3,1.1-1.8,2.1-2.9,3
			c-2.3,1.9-4.6,3.6-7,5.5c-0.5,0.5-1,1.1-1.5,1.4c-1.1,0.8-2.3,1.6-3.5,2.2c-1.4,0.5-2.8,1-4.2,1.3c-3.4,0.5-5.9-1.2-8.3-3
			c-3.4-2.4-5.1-6.5-6.6-10.2c-1.3-3.1-1.6-6.7-0.3-10.3c0.6-1.7,0.7-3.4,1.5-5c1.1-2.6,2.5-5.2,3.8-7.7c0.7-1.4,1.3-2.9,2.1-4.1
			c1.5-2.6,3.1-5.2,4.9-7.6c1.4-1.9,3-3.6,4.8-5c2-1.7,4.3-3,6.7-4.4c1.5-1,3.1-0.9,4.4,0c2.3,1.6,4.7,3.3,5.4,6.3
			c0.4,1.9,0.7,4.1,0,5.8c-0.6,1.5-0.6,3.7-2.5,4.9c-0.1,0.1-0.3,0.3-0.3,0.4c-0.3,2.9-2.5,4.7-4.2,6.7c-2.9,3.4-6.2,6.6-9.3,9.8
			c-1.4,1.4-3.8,1.2-5-0.1c-0.5-0.5-1.2-0.8-1.7-1.3c-0.3,0.7-0.5,1.4-0.7,2.1c-0.6,1.8-1,3.6-1.5,5.4c-0.9,3.1-1.5,6.1-0.2,8.9
			c0.7,1.4,2,0.9,3.1,0.6c3.1-0.6,6-2.3,8.7-4.2c1.2-0.8,2.6-1.5,3.9-2.3c0.1-0.1,0.4-0.3,0.4-0.3c-0.1-1.8,1.4-1.4,2.2-1.9
			c1.2-0.8,2.2-1.9,3.3-2.8c2.3-1.9,4.6-3.6,7-5.4c1.4-1,2.7-1.9,4.1-2.9c0.1-0.1,0.4,0,0.9-0.1c-1.4,1.1-2.4,2-3.5,3
			c0.1,0.1,0.3,0.3,0.4,0.4c0.9-0.7,2-1.3,3-2.1c1.1-0.9,2.2-1.9,3.3-2.8c0.5-0.5,1.1-1.1,1.6-1.5L233.6,77.7z M200,76.9
			c-0.3,0.7-0.4,1.4-0.7,2.1c0.1,0.1,0.3,0.3,0.4,0.4c1.4-1.2,2.7-2.4,4.1-3.7c1.6-1.5,3.3-3.2,4.9-4.7c0.7-0.6,1.5-1,2-1.6
			c0.8-1,1.5-2.3,2.3-3.4c1.9-2.4,3.1-4.9,3.2-7.8c0-1-0.4-1.2-1.2-0.5c-1.4,1-2.7,1.9-3.9,3c-1.9,1.7-4,3.3-5,5.8
			c-0.3,1-1.5,1.6-2.6,2.7c0.7,1-0.3,2-1.3,3.1c-0.3,0.3-0.4,0.7-0.5,1c-0.7,1.3-1.4,2.6-2,3.9L200,76.9z M221.5,85.9
			c0.8,0.7,1.5,0.8,2-0.1c0-0.1,0-0.3,0-0.4c-0.7,0.2-1.4,0.4-2,0.6V85.9z M235,73.5c0.9-0.9,1.9-1.8,2.9-2.7
			c-0.3,1.4-1.1,2.4-2.7,2.7H235z"/>
		<path class="st1" d="M242.8,80.4c2.3-0.1,4.2,0.8,4.9,3.1c0.3,0.7,0.5,1.3,0.9,2.3c-0.7-0.2-1.1-0.1-1.4-0.4
			c-1.1-1.1-3.1-1.4-4.6-0.6c-0.1,0.1-0.3,0.3-0.4,0.3c-0.8,0.4-2,0-2,1.7c0,1-0.3,1.9-0.6,2.9c-0.4,1.7-0.7,3.3-1.3,5
			c-1,3-2.2,5.8-2.5,8.8c-0.2,1.8-1.2,3.6-1.9,5.5c-1,3-2,5.9-3.1,8.7c-0.8,2.1-2.1,4.1-3.1,6.3c-1.1,2.3-2.3,4.6-3.4,6.8
			c-0.4,0.7-0.8,1.4-1.2,2.2c-0.1-0.1-0.3-0.3-0.4-0.4c0,0.5,0.1,1.1,0,1.5c-1,1.9-2,3.6-2.9,5.3c-0.5,1-0.6,2.5-2.2,2.8
			c-0.1,0-0.4,0.4-0.4,0.7c-0.6,3.6-3.5,5.9-5.4,8.7c-0.4,0.6-1.2,1.2-1.6,1.5c-1.1,0.5-0.3,1.2-0.7,1.7c-0.7,0.8-1.5,1.4-2.3,2
			c-0.1,0.1-0.3,0.3-0.5,0.5c1.5,0.4,0.7,1,0,1.6c-1.2,1.1-2.5,2.3-3.7,3.4c-0.5,0.5-1.2,0.8-1.9,1.3c-0.4,0.3-0.8,0.5-1.1,0.8
			c-1.6,1.9-4.3,2.9-6.8,2.4c-2-0.4-3.6-1.5-4.9-2.8c-1.6-1.7-3-3.4-4.2-5.3c-1.9-3-2.3-6.5-0.7-10.2c1.4-3.4,2.6-6.9,4.2-10.2
			c2.1-4.1,4.5-8,7-12c2.1-3.2,4.3-6.4,6.6-9.4c3.3-4.3,6.8-8.4,10.3-12.6c1.9-2.1,4-4.1,6.1-6.2c0.1,0.1,0.3,0.3,0.4,0.4
			c-0.5,0.9-1,1.7-1.5,2.4c-0.3,0.4-0.7,0.7-1.1,1.1c-1.8,1.9-3.7,3.8-5.5,5.7c-0.8,0.9-1.4,1.9-2.1,2.8c-1,1.3-1.9,2.6-3,3.8
			c-3.7,4.2-6.9,8.8-10,13.5c-0.4,0.6-0.5,1.3-0.7,2c3.7-5,7.3-10.1,11.3-14.9c4-4.9,8.3-9.5,12.8-14c4.5-4.4,9.3-8.4,14-12.6
			c-0.1-0.1-0.3-0.3-0.4-0.4c-0.8,0.4-1.6,0.7-2.3,1.2c-1.6,1-2.6,2.9-4.5,3.5c-0.3,0-0.5,0.7-0.8,1.2l-1.6,0.2
			c0.8-0.9,1.6-1.9,2.6-2.7c2.3-1.9,4.8-3.6,7.1-5.5c0.3-0.3,0.7-0.8,0.8-1.2c0.4-1.9,0.9-3.9,1.2-5.8c0.5-2.6,0.9-5.2,1.2-7.8
			c0.2-1.6,1-3.4,0.4-5c-0.4-0.9,0.2-2.2,0.2-3.3c0-0.8-0.1-1.6-0.1-2.4c0-0.4,0.1-1,0.4-1.3c0.1-0.1,0.8-0.1,1.1,0
			c1.7,1,2.5,2.8,3.2,4.6c1,2.4,0.9,5.2,0.9,7.9c0,2.4-0.5,4.9-0.8,7.4c-0.1,1.2,0,1.8,1.4,1.7L242.8,80.4z M227.9,103.4
			c0.9-3.1,1.8-6,2.7-9.4c-0.7,0.4-0.9,0.4-1.2,0.5c-1.2,1.2-2.5,2.4-3.7,3.7c-2.5,2.3-4.9,4.7-7.4,7c-1.1,0.9-2.5,2.3-3.4,2.3
			c-1.8-0.1-1.2,1.6-2.3,1.9c0.1,0.1,0.3,0.3,0.4,0.4c0.5-0.3,1.1-0.7,1.6-1c0,0.7-0.3,1.2-0.7,1.7c-1.5,1.8-3.2,3.4-4.5,5.2
			c-0.8,1.2-1.6,1.9-2.3,1.9c-1.2,1.2-2,2-3,2.9c0.4,0.2,0.7,0.5,1.2,1c-0.7,0.2-1.1,0.4-1.2,0.4c-0.5,1-1,1.9-1.5,2.6
			c-1.4,2-2.5,4.3-4.3,6c-1.5,1.4-2.2,3.1-3.5,4.6c-0.4,0.4-0.1,1.2-0.4,1.8c-1,1.6-2.1,3.1-3.1,4.6c-0.4,0.6-0.8,1.2-1.1,1.9
			c-0.7,1.7-1.2,3.5-2,5.2c-1.7,3.3-2.4,6.5-1.7,10.1c0.4,1.6,1,2,2.2,2.2c2.2,0.3,4-0.2,6.2-1.5c2.8-1.8,5.4-3.8,7.8-6.1
			c1.6-1.5,2.6-3.7,3.9-5.6c1-1.5,1.9-2.9,2.9-4.4c1.1-1.6,2.5-3.1,3.5-4.8c1.7-2.9,3.1-5.9,4.6-8.7c0.5-1,1.1-2,1.5-3.1
			c1.4-3.1,2.7-6.2,4.1-9.4c0.7-1.6,1.4-3,2.3-4.7c0-0.3-0.3-0.9,0-1.4c1.5-2.3,2-4.9,2.7-7.5L227.9,103.4z M205.8,157.6
			c-0.1-0.1-0.3-0.3-0.4-0.4c-0.9,1.2-1.9,2.4-2.9,3.5c0.1,0.1,0.3,0.3,0.4,0.4C203.9,160,204.9,158.8,205.8,157.6z M216.7,141.5
			c-0.7,1.2-1.4,2.3-2.1,3.5C215.8,144,216.8,142.9,216.7,141.5z M221.3,133.9c1-2,2-4,3-6c-0.1-0.1-0.3-0.3-0.4-0.4
			c-0.4,0.6-0.8,1.2-1.1,1.8c-0.8,1.7-1.7,3.4-2.5,5.2c-1.1,2.3-2.4,4.6-3.5,6.9c0.4-0.3,0.8-0.6,1.1-1.1c1.2-2.2,2.5-4.3,3.7-6.6
			L221.3,133.9z M221.9,94.3c-0.8,2-2.6,2.9-4.1,4.4C217.9,97.2,220.4,94.8,221.9,94.3z M229.1,93.8c-1.2,1-2.4,1.9-3.7,2.9
			c0.1,0.1,0.3,0.3,0.4,0.4c1.2-1.1,2.4-2.2,3.7-3.3c-0.1-0.1-0.3-0.3-0.4-0.4V93.8z M226.9,122.4c0.6-2.5,2.3-4.7,2.7-7.3
			c-0.1,0-0.3,0-0.4,0c-1,2.4-2,4.8-3,7.2c0.1,0.1,0.3,0.3,0.4,0.4L226.9,122.4z M252.1,24.8c1.1,1.4,1.1,3.1,0.6,4.8
			c-0.9,2.5-2,4.9-3,7.5c0,0.1,0,0.4-0.1,0.4c-2.7,1.4-2.5,4.2-3.8,6.4c-0.3-0.1-0.5-0.2-0.8-0.3c-0.8,0.8-1.9,1.4-2.5,2.4
			c-1.1,2-1.8,4.2-2.7,6.4c-0.1,0.4-0.4,0.8-0.7,1.3c-0.3-0.3-0.7-0.5-0.8-0.8c-1-2.4-0.8-5.2-0.2-7.9c0.4-1.9,0.9-3.9,1.6-5.8
			c1.4-3.9,3-7.9,4.4-11.8c0.4-1.1,0.7-2.2,1-3.4c0.3-0.8,0.6-1.7,0.9-2.7c2.4,1.1,4.9,1.6,6.5,3.6L252.1,24.8z"/>
		<path class="st1" d="M298.4,69.8c-0.1-0.1-0.3-0.3-0.4-0.4c0.3-0.7,0.6-1.4,0.8-2.1c-0.1,0-0.3,0-0.4,0c-1.8,2.9-3.6,5.8-5.4,8.7
			c-0.1,0.1,0.1,0.5,0.4,1.3c1.7-2.6,3.2-4.8,4.7-7c0.1,0,0.3,0,0.4,0c-0.1,1.2-0.3,2.4-0.5,3.8c0.4-0.2,0.7-0.2,1-0.3
			c-0.1,0.3-0.1,0.4-0.3,0.6c-1.2,1.6-2.3,3.2-2.9,5.3c-0.7,2.5-2.7,4.9-4.1,7.3c-1,1.6-1.8,3.3-2.9,4.8c-1.1,1.5-2.5,2.9-3.8,4.1
			c-1.6,1.4-4.2,0.3-5.2-1.2c-1.8-2.6-3.7-5.3-4.1-8.6c-0.5-3-1.5-6-0.6-9.4c0.1-0.7-0.3-1.5-0.2-2.3c0-0.8,0.3-1.6,0.3-2.4
			c0-0.5-0.1-1.1-0.2-1.9c-1,1.7-1.7,3-2.4,4.3c-0.4-0.1-0.7-0.2-0.7-0.2c-0.3,1-0.4,1.8-0.9,2.5c-1.8,3.2-3.6,6.2-5.4,9.2
			c-0.4,0.6-0.9,1.2-1.4,1.8c-0.8,1.2-1.5,2.4-2.4,3.6c-1.5,1.9-3,3.8-4.6,5.8c-0.7,0.9-1.5,1.6-2.2,2.5c-2.6,3.1-6.1,1.9-7.4-1
			c-0.5-1-0.9-2-1.5-3.1c-1.3-1.9-1.6-4.1-1.1-6.5c0.6-2.5,1.3-5,2.3-7.4c2.1-4.8,4.4-9.6,6.8-14.4c2.5-4.9,5.2-9.8,7.9-14.6
			c0.7-1.3,1.7-2.5,2.6-3.7c0.1-0.3,0.9-0.4,1.2-0.3c1.9,1.4,3.4,3,5.4,4.3c1.6,1,1.9,2.7,2.7,4.3c0.5,0.9,1.1,1,1.8-0.1
			c1-1.5,2.1-2.9,3-4.4c0.3-0.4,0.3-1.1,0.4-1.7c-0.1-0.1-0.3-0.3-0.4-0.4c0.4-0.8,0.8-1.7,1.4-2.7c1.5,1.2,2.9,2.4,4.3,3.6
			c2.5,2.2,1.9,5.4,1.3,8.5c-0.6,3.3-1.8,6.5-2.6,9.9c-0.6,2.5-1.3,5-1.6,7.5c-0.5,3-0.5,6-0.7,9c0.1,0,0.3,0,0.4,0
			c0.3-0.3,0.5-0.5,0.8-0.8c1.2-1.6,2.5-3.3,3.7-4.9c0.4-0.6,0.7-1.3,1.6-1c0.3,0.1,0.9-0.7,1.4-1.1c0.4-0.4,0.5-1,1-1.3
			c0.8-0.8,0.4-1.1-0.4-1.4c0.3-0.4,0.5-0.9,1-1.6c0.1,0.7,0.1,1.1,0.2,1.9c2.5-3.5,4.7-6.7,7.1-10.1c0.7,0.7,2.3,0.1,2.1,1.6
			c0,0.7-0.7,1.4-1.1,2.2L298.4,69.8z M263.2,77.2c1.9-2.9,3.9-5.8,5.8-8.7c1.9-2.9,0.8-5.6,0.6-8.3c-0.1-0.1-0.3-0.3-0.4-0.4
			c-1.1,1.5-2.3,3-3.5,4.4c-1,1.5-1.7,3-2.7,4.5c-1.7,2.6-4,4.9-4.3,8.1c0,0.4-0.4,0.8-0.7,1.3c-1.2,2.3-2.7,4.6-3.8,6.9
			c-0.3,0.7,0,1.6-0.1,2.6c2.3-1.4,5-5.3,4.7-6.5c0.5-0.3,1.1-0.7,1.5-1.1c0.8-1,1.6-2.1,2.3-3.1L263.2,77.2z M276,64.2
			c1.8-1.7,2-3.9,2.7-5.8c-0.1-0.1-0.3-0.3-0.4-0.4c-0.7,1.2-1.4,2.2-2,3.3c-0.8,1.6-1.5,3.1-2.4,4.6c-0.7,1.3-1.7,2.5-2.5,3.7
			c-0.7,0.9-1.4,1.8-2.1,2.8c-1.1,1.8-2.2,3.5-3.3,5.2c-0.3,0.4-0.3,1-0.4,1.5c0.7-0.3,1.1-0.8,1.4-1.2c1.1-1.5,2.1-3.1,3.2-4.5
			c0.4-0.6,1.2-1.1,1.5-1.8c1.1-2.4,3.2-4.5,3.9-7.2c0-0.1,0.3-0.3,0.4-0.4V64.2z M296.3,66.8c-0.8,1.2-1.6,2.3-2.5,3.7
			c-0.1-0.1-0.3-0.3-0.4-0.4c0.8-1.2,1.7-2.3,2.5-3.5c0.1,0.1,0.3,0.3,0.4,0.4V66.8z"/>
		<path class="st1" d="M350.3,4.2c2.3,0.8,2.1,2.6,1.6,4.8c-0.6,2.6-1.5,5-2.7,7.6c-0.8,1.7-1.4,3.8-2.2,5.8
			c-0.1,0.3-0.1,0.7-0.3,0.8c-1.8,1.4-1.8,3.4-2.5,5.3c-0.7,1.7-1.5,3.4-2.1,5.2c-1.1,3.1-2.2,6.3-3.3,9.4c-0.6,1.8-1.1,3.6-2,5.3
			c-0.8,1.6-1.5,3.1-2,4.9c-0.3,1.8-1,3.5-1.6,5.2c-0.6,1.7-1,3.4-1.7,4.9c-1,2.6-2.3,5-3.2,7.5c-0.4,1.1-0.4,2.3-0.7,3.5
			c-0.4,1.8-1,3.6-1.5,5.4c-0.3,1-0.7,2.1-0.6,3c0.1,1.5-1.4,3-0.5,4.5c0.1,0.3-0.1,1-0.3,1.5c-0.6,1.5,0.1,3.2-0.9,4.8
			c-0.4,0.7,0.7,1.4,1.5,1.2c1.1-0.3,2.2-1.3,3.2-0.6c-1.2,2.3-2.4,4.6-3.7,6.9c-0.1,0.3-0.8,0.5-1.1,0.4c-1.3-0.5-2.3-1.4-3-2.6
			c-1.4-2.4-2.4-5-2.7-7.9c-0.2-2.6,0-5.1,0.2-7.7c0.2-3.3,0.5-6.4,1.8-9.5c0.8-2.1,1.2-4.5,1.8-6.7c-0.1-0.1-0.3-0.3-0.4-0.4
			c-0.4,0.4-1,0.9-1.2,1.5c-2.1,3.3-4.7,6.2-7.4,8.9c-1.1,1.1-1.9,2.4-2.9,3.5c-0.4,0.4-0.8,0.9-1.2,1.4c-0.3,0.3-0.7,0.5-0.8,0.8
			c-1.1,2.7-3.6,4.3-5.5,6.3c-1.8,1.8-3.7,3.1-5.8,3.9c-1.6,0.6-2.8,0-3.7-1.2c-3.5-4.8-2.9-10.1-0.6-16c2.2-5.6,4.9-10.9,8.1-16.2
			c3.1-5,6-10.4,10.5-14.5c1.6-1.5,3.4-2.9,5.7-3.5c1.5-0.3,2.4,0.1,3.3,1c1.7,1.6,3.4,3.1,5.3,4.5c0.3,0.3,1.1-0.3,1.8-0.5
			c0.3,0.7,0.8,0.6,1.2-0.1c0.5-0.9,1-1.9,1.4-2.9c0.1-0.3,0-0.7,0-1.1c0-0.5,0-1.2,0.3-1.8c0.7-1.6,1.5-3.1,2.3-4.7
			c0.3-0.6,0.4-1.1,0.6-1.7c0.9-2.7,1.7-5.3,2.6-8c0.1-0.7,0.3-1.4,0.7-2c1.7-2.5,2.1-5.2,3-7.9c0.9-2.9,1.9-5.7,2.7-8.7
			c0.7-2.2,1.3-4.5,1.9-6.7c0.4-1.4,1.1-1.5,2.4-1.2c1.9,0.5,2.2,2.3,3.5,3.3c0.3,0.3,0.4,0.6,0.7,0.7L350.3,4.2z M314.3,64.2
			c0.7-1.2,1.3-2.4,2.1-3.5c0.8-0.9,1.4-2.6,3.2-2.1c0.3,0.1,0.8-0.8,1.4-1.4c-0.5-0.2-0.8-0.3-1.5-0.5c0.8-1.2,1.5-2,2.2-3.1
			c0.1-0.3,0.1-0.7,0.3-1c-0.4-0.1-0.8-0.2-1.1-0.1c-0.7,0.1-1.4,0.3-2,0.5c-2,0.6-4.1,1.2-5.4,2.9c-2.2,2.7-4.3,5.4-6.4,8.3
			c-0.5,0.7-1,1.6-1.5,2.3c-0.7,0.9-1.6,1.7-2.3,2.7c-0.7,1.2-1.3,2.4-2,3.6c-1.4,2.7-2.8,5.4-4.2,8.1c0.1,0.1,0.3,0.3,0.4,0.4
			c1.8-1.8,4-3.1,5.6-5.2c1.6-2.1,3.6-3.9,5.5-5.9c1.1-1.1,2.3-2,3.1-3.2c0.8-1.3,1.5-1.9,3-1.7c1.4-1.8,2.9-3.5,4.4-5.3
			c-0.1-0.1-0.3-0.3-0.4-0.4c-1.4,1.6-2.7,3.3-4.1,4.9C314.5,64.4,314.4,64.3,314.3,64.2z M322.3,60.1c-0.1-0.1-0.3-0.3-0.4-0.4
			c-0.7,1-1.4,2-2.1,3.1c0.1,0.1,0.3,0.3,0.4,0.4C320.9,62.1,321.6,61.1,322.3,60.1z M323.1,85.3c0.3-1.2,0.4-2.1,0.6-2.8
			c-1.6,0.8-2.6,2-2.4,4.2c0.7-0.6,1.2-1.1,1.5-1.4H323.1z M323.2,54c0-0.1-0.3-0.4-0.4-0.5c-0.3,0.6-0.5,1.1-0.8,1.7
			c0.3,0.1,0.5,0.2,0.8,0.3c0.3-0.6,0.5-1.1,0.8-1.7L323.2,54z M326,76c0.4-1.1,0.7-2.4,1-3.6c-1.8,0.1-2.6,0.8-3,2.5
			c-0.3,1.2-0.7,2.5-1.2,3.8c0,0.7,0.8,1.3-0.3,2c-0.1,0-0.1,0.4,0,0.5c0,0.1,0.4,0.2,0.5,0.2c0.1-0.1,0.3-0.4,0.4-0.7
			c0.4-1.5,0.9-3.1,1.3-4.3c0.7-0.2,1.4-0.3,1.4-0.4H326z M332.6,55.7c1.1-1.9,1-3.8,0.9-5.9c-0.5,0.3-0.9,0.5-1.4,0.7
			c0.3,0.7,0.4,1,0.5,1.6c-0.7,0.2-1.1,0.3-1.5,0.3c0,0.7,0,1.2,0,1.9c0.3,0.1,0.5,0.2,1.2,0.4c-0.7,0.6-1.2,1.1-1.8,1.5
			c-1.4,2.9-2.6,6-3.8,9.1c-0.8,2.1-1.7,4.1-0.9,6.4c0.4-0.3,0.9-0.5,1.1-0.8c0.4-0.7,0.6-1.4,0.8-2.1c0.6-1.4,1.1-2.8,1.7-4.2
			c-0.4,0-0.7,0.1-1.2,0.1c0.8-1,1.5-1.9,2.1-2.9c0.1-0.3,0.1-0.8,0-1.1c-0.8-1.3-0.8-1.3,0.8-2c-0.8-0.7-0.4-1.2,0.4-1.7
			c0.3-0.1,0.5-0.6,0.8-1L332.6,55.7z"/>
		<path class="st1" d="M377.7,56.9c0.1,0.3,0.3,0.5,0.4,0.8c-1.6,1.5-3.3,3.1-4.8,4.7c-0.8,0.8-1.4,1.6-2.6,1.4
			c-0.1,0-0.3,0.1-0.4,0.3c-2.3,2.7-5.5,4.2-8.1,6.4c-1.4,1.1-2.7,2.3-2.8,4.2c0,0.1-0.3,0.3-0.4,0.4c-0.3,0.3-0.7,0.8-0.7,0.9
			c0.4,1.4-0.7,2.4-1.4,3.4c-2.4,3.5-4.9,6.9-7.1,10.4c-0.8,1.3-1.8,2.5-2.8,3.7c-2.5,2.7-4.5,3.3-7.2,1.5c-2.3-1.5-4.2-3.4-6.1-5.4
			c-0.8-0.8-1-2.3-1.1-3.7c-0.2-2.8,0.3-5.6,1.4-8.3s1.9-5.5,2.8-8.1c2.4-6.8,3.9-13.8,7.4-20.2c1.8-3.3,3.7-6.6,5.6-9.9
			c1.5-2.7,3.3-5.4,5.3-8.4c1.4,0.4,2.8,0.6,3.9,1.3c2.4,1.6,4.7,3.3,6.7,5.3c1.3,1.4,1.9,3.4,2.8,5.2c0.1,0.1,0.3,0.4,0.1,0.5
			c-1.1,2-0.6,4-0.9,5.9c-0.8,4.1-1.6,8.3-2.6,12.6c0.3-0.2,0.7-0.3,1.1-0.5c1.2-0.7,2.4-1.4,3.7-1.9c0.4-0.2,0.9-0.1,1.4-0.1
			c1.6-1.7,3.9-0.5,5.6-2.4L377.7,56.9z M339.6,89.2c4.9-4.6,8.1-10.1,11.8-15.1c-2.5-1.2-4.9-2.3-7.5-3.5c-1.6,6-4.8,11.7-4.4,18.3
			L339.6,89.2z M353.2,37.7c-3.5,4.8-5.9,10.2-8.5,15.5c0.1,0.1,0.3,0.3,0.4,0.4c2.8-5.2,5.6-10.3,8.4-15.5c-0.1,0-0.3,0-0.4,0
			L353.2,37.7z M359.8,58.6c0.4-0.8,0.4-2.2,1.9-2.4c0.1,0,0.3-0.4,0.4-0.8c-0.4,0-0.7,0.1-0.9,0.1c-0.1-0.1-0.3-0.3-0.4-0.4
			c0.7-0.6,1.5-1.1,1.9-1.8c0.4-0.7,0.6-1.7,0.7-2.6c0.1-0.8,0-1.6,0-2.4c-0.1,0-0.3,0-0.4,0c0,0.1,0,0.3,0,0.4
			c0,0.1-0.1,0.3-0.4,0.6c0.2-4.5,0.7-8.7-1.2-12.8c-1,1.1-1.8,1.8-2.3,2.7c-1.4,2.2-2.6,4.3-4,6.5c-0.4,0.7-1.2,1.5-1.4,2.2
			c-0.2,1.9-1.5,3.4-2,5.3c-0.7,3.5-2.6,6.8-3.8,10.1c-0.4,1.1-0.4,2.3-0.6,3.4c-0.1,1.1,0.4,1.4,1.5,1.2c2.2-0.7,4.3-1.1,6.5-1.9
			c0.8-0.4,1.8-1.1,2.2-1.9c1-1.9,1.6-3.9,2.4-5.9L359.8,58.6z M365.1,55.1c0.1,0,0.1-0.3,0.1-0.4c0.4-2.5,0.9-5,1.4-7.6
			c-0.5,0.1-0.8,0.1-1.6,0.3c1.6-2.2,1.3-3.9,0.3-5.7c-0.4,3.5-0.7,6.9-1,10.4c0,0.5,0.3,1.1,0.4,1.6c0,0.3-0.1,0.5-0.3,0.8
			c-0.3,0.6-0.7,1.2-1,1.7c-0.3,0.7-0.3,1.4-0.6,2.1c-0.7,2-1.6,3.8-2.3,5.7c0.1,0.1,0.3,0.3,0.4,0.4c0.7-0.3,1.8-0.6,2-1.2
			c0.8-1.7,1.4-3.5,2-5.3c0.3-1-0.5-2,0.6-2.9L365.1,55.1z M361.8,50.9c-0.3,1-0.6,1.9-0.9,2.9c-0.1,0-0.3,0-0.4,0
			c0.3-1,0.6-1.9,0.9-2.9c0.3,0,0.5-0.1,0.8-0.1L361.8,50.9z"/>
		<path class="st1" d="M106.2,162.8c0.4,0.9,0.2,2.1,0.1,3.2c-0.3,1.9-0.5,4-1.3,5.7c-1.3,2.7-1.3,5.6-2,8.3
			c-0.4,1.7-0.7,3.3-1.9,4.8c-0.3,0.4-0.1,1.1-0.3,1.9c0,0,0.1,0.3,0.4,0.5c-0.1,0.1-0.3,0.3-0.4,0.3c-0.7,0.3-0.9,0.7-0.7,1.4
			c0.1,0.5-0.3,1.4-0.6,2.1c-0.3,2-0.6,4.1-2.6,6c1.2,0.4,0.9,1.1,0.6,2.1c-0.7,2.1-1,4.3-1.6,6.4c-0.4,1.5-1.1,3.1-1.7,4.6
			c-0.1,0.3-0.3,0.6-0.3,0.8c-0.6,2.2-1,4.6-1.6,6.8c-0.3,0.8-1,1.7-1.5,2.7c0.1,0.1,0.4,0.4,0.7,0.7c-0.4,0.3-0.8,0.6-1.2,0.9
			c0.1,0,0.3,0,0.4,0c-0.6,1.9-1.2,3.9-1.6,5.8c-0.4,1.7-0.7,3.3-1.2,5c-0.3,1-0.8,1.9-1.1,2.6c-0.4,1.3-0.8,2.4-1.3,3.5
			c0,0.1-0.1,0.3-0.1,0.4c-0.4,1.9-0.9,3.9-1.5,5.8c-0.4,1.5-1,3.1-1.6,4.6c-0.6,1.8-1.3,3.7-2,5.5c-0.4,1.1-1,2.3-1.4,3.4
			c-0.3,0.6-0.5,1.1-1,1.7c0.2,2-0.1,3.3-2,6.3c0.3,0.3,0.5,0.5,0.8,0.7c-0.1,0.1-0.1,0.3-0.3,0.4c-0.1,0.3-0.5,0.6-0.5,0.9
			c-0.1,1.4-0.5,2.6-1,3.9c-0.5,1.3-1.1,2.6-1.6,3.8c-0.3,0.8-0.4,1.8-0.7,2.8c-0.3,1.2-0.7,2.5-1.2,3.8c-0.8,2.4-1.7,4.8-2.6,7.2
			c-0.8,2.3-1.6,4.5-2.3,6.7c-1,3-2,5.9-3,8.8c-0.7,2.1-1.6,4.1-2.4,6.1c-1,2.4-2,4.8-3,7.2c-0.1,0.3-0.3,0.6-0.4,0.8
			c-1.2,1.8-2.5,3.5-3.7,5.3c-0.5,0.9-1.2,1.4-2.2,1.2c-1.5-0.4-3.1-0.3-4-1.9c-0.3-0.4-1.2-0.3-1.7-0.6c-2.5-1.5-3.8-4-5.2-6.4
			c-0.5-1-0.5-2.4-0.7-3.6c-0.6-2.9-1.4-5.8-1.8-8.7c-0.5-2.4-0.8-4.8-1.1-7.2c-0.4-4.5-0.7-9.1-1.1-13.6c-0.3-4.7-0.6-9.4-0.8-14.1
			c-0.2-3.4-0.3-6.7-0.3-10.1c0-0.5,0.1-1.1,0.3-1.8c0.5,0.2,0.9,0.3,1.6,0.5c-0.1-0.7-0.3-1.2-0.4-1.9c-0.5,0.3-0.9,0.5-1.6,1
			c0.6-15.9,1.2-31.4,1.8-47c-0.1,0-0.3,0-0.4,0c-0.4,0.8-0.8,1.7-1.3,2.6c-0.4,0.7-0.8,1.4-1.1,2.2c-0.1,0.4,0,0.9-0.1,1.4
			c-0.7,1.8-1.5,3.5-2.3,5.3c-0.3,0.6-0.4,1.3-0.6,1.9c-0.7,2.2-1.3,4.5-2,6.6c-0.6,1.7-1.5,3.3-2.3,4.8c-0.3,0.6-0.1,1.2-0.3,1.8
			c-0.8,2.3-1.8,4.5-2.7,6.8c-0.4,1-0.6,2.1-0.9,3.2c-0.1,0.4-0.3,0.8-0.4,1.2c-0.8,2.4-1.6,4.8-2.6,7c-0.5,1.4-1.1,2.7-0.9,4.2
			c0.1,0.4-0.4,1-0.7,1.6c-0.6,1.4-1.1,2.8-1.7,4.2c-0.1,0.4-0.3,0.8-0.3,1.2c-0.1,1.2-0.8,2.4-0.8,3.7c0.1,1.2-0.6,2.6-1,3.9
			c-0.4,1.4-0.9,2.8-1.3,4.2c-0.4,1.5-1,3.1-1.4,4.6c-0.4,1.5-0.7,3.2-1.1,4.8c-0.5,2.6-0.9,5.2-1.2,7.8c-0.5,3.3-0.9,6.6-1.3,9.9
			c-0.3,3.5-0.5,7.1-0.5,10.6c0,2.3,0.4,4.5,0.7,6.8c0.1,1,0.2,1.9,0.3,2.8c0,0.1,0.1,0.4,0,0.5c-0.8,0.8-1.5,1.8-2.4,2.2
			c-0.7,0.3-1.9-0.1-2.4-0.5c-1.9-1.5-1.9-4.1-2.6-6.3c-1.4-4.4-1.3-9.2-0.8-14c0.5-4.8,1-9.5,1.6-14.4c0.3-2.6,1.1-5.1,1.6-7.6
			c0.9-3.7,1.8-7.5,2.8-11.2c1.6-5.8,3.2-11.7,5.1-17.6c1.9-6.1,4.2-12.2,6.3-18.2c1.4-4.1,2.7-8.3,4.2-12.3
			c1.1-3.1,2.4-6.2,3.5-9.3c0.7-2.1,1.2-4.2,1.8-6.2c0.1-0.5,0.5-1.1,0.7-1.7c0.3-1.2,0.4-2.5,0.9-3.7c0.4-1.5,1-3.1,1.6-4.5
			c0.8-2.1,1.7-4.2,2.6-6.4c0.1-0.4,0.4-0.8,0.7-1c3.9-1.4,7.4-0.9,10.3,1.4c0.5,0.3,0.5,1.4,0.5,2.2c0,4.2,0.1,8.4,0,12.5
			c-0.1,2.7-0.4,5.4-0.4,8.1c0,2.2,0,4.3-0.1,6.5c-0.2,3.9-0.6,7.9-0.8,11.8c0,1.6,0.1,3.2-0.1,4.9c-0.2,2.3-0.5,4.5-0.5,6.8
			c0,1.8,0.3,3.5,0.3,5.2c0,1.4-0.3,2.7-0.4,4.1c0,1,0.2,1.9,0.2,2.8c0,4.3,0,8.6,0,12.9c0,1.8,0.2,3.5,0.3,5.2
			c0.2,2.8,0.4,5.6,0.6,8.4c0.3,3.1,0.5,6.1,0.9,9.2c0.5,3.3,0.9,6.7,1.5,9.9c0.5,2.9,1.1,5.7,1.7,8.4c0,0.3,0.1,0.5,0.4,1
			c0.5-1.4,0.2-3.1,2.2-3.1c-0.3,1.4-0.6,2.6-1,4.3c0.5-0.6,0.9-0.9,1.1-1.3c1.1-2.7,2.4-5.4,3.4-8.1c1.1-3.2,2.2-6.4,3.3-9.7
			c0.3-0.8-0.1-2.3,1.6-2.3c0.1,0,0.7-0.9,0.5-1c-0.5-0.9,0.4-1.5,0.7-2.2c0.1-0.3,0.3-0.7,0.1-1c-0.4-1,0.3-1.9,1.1-2.8
			c0,0.4,0,0.8,0,1.2c0.7-0.8,2-1.4,0.4-2.5c-0.3-0.1,0-1.1,0.4-1.7c0,0.5,0,1.1,0,1.6c0.3-0.6,0.5-1.1,1-1.9
			c-0.5-0.1-0.8-0.2-1.4-0.3c0.4-1,0.6-2.4,1.3-2.9c1.2-0.8,1.2-1.9,1.7-2.9c0.4-0.8,0.8-1.7,1.1-2.6c0.3-0.8,0.4-1.7,0.7-2.5
			c0.3-1,0.8-1.9,1.1-2.8c0.3-1,0.3-2,0.6-3c0.9-2.9,1.9-5.9,2.9-8.8c1.3-3.8,2.4-7.6,3.7-11.3c0.9-2.7,1.9-5.3,2.7-8
			c1-3,2-5.9,3-8.8c0.4-1.1,1.1-1.4,1.9-1c-0.7,1.4-1.4,2.7-2,4c-0.4,1-1.1,2-0.5,3.1c0.3,0.4-0.4,1.4-0.7,2.1
			c-0.1,0.5-0.3,1.1-0.7,2c-1.8,1.4-1,3.5-1.1,5.8c0.4-0.4,0.8-0.6,0.9-0.9c0.9-2.7,1.7-5.3,2.6-8c0.7-2.1,1.4-4.2,2.2-6.4
			c-0.3,0-0.7-0.1-1.1-0.1c1.8-0.6,1.8-2,2.2-3.4c0.4-1.8,1.2-3.7,1.9-5.7c-0.7,0.3-1.1,0.5-1.5,0.7c-0.1-0.1-0.3-0.3-0.4-0.4
			c0.3-0.3,0.5-0.7,0.9-0.9c1.2-0.7,1.5-1.5,0.9-2.5c-0.7-1-0.1-1.9,0.8-2.3c1.1-0.4,1.1-1.1,1.2-1.8c0.3-0.8,0.6-1.7,0.7-2.5
			c0.1-0.5,0.1-1.2,0.3-1.9c0-0.3,0-0.5,0.1-0.7c1.8-1.5,0.9-3.7,1.9-5.6c0.1-0.3-0.4-0.9-0.7-1.4c0.1-0.5,0.4-1.2,0.7-2.1
			c0.3,0.3,0.5,0.5,1.1,0.7c0.3-1,1-1.9-0.5-2c-0.4-1.7,0.7-2.8,1.7-4.1c1-1.3,1.4-3,2-4.5c0-0.1-0.5-0.6-0.9-0.7
			c-0.3-0.1-0.8,0.2-0.9,0.5c-0.4,1.1-0.7,2.2-1.1,3.4c-0.9,2.5-1.7,5-2.4,7.7c-0.4,1.2-0.7,2.6-1,3.9c-0.1,0.5-0.3,1-0.7,1.4
			c-0.3-0.8-0.5-1.6,0-2.6c0.4-0.8,0.6-1.8,0.9-2.8c0.7-2.5,1.5-5,2.2-7.5c0.3-1.2,0.7-2.5,0.9-3.7c0.1-0.4-0.3-0.9-0.4-1.5
			c-0.4,0.3-0.8,0.6-1.2,1.1c0-0.5,0-0.9,0-1.5c0.4,0,0.8-0.1,1.2-0.1c0.8-0.1,1.2-0.4,1.4-1.2c0.4-2.5,1.1-4.8,1.6-7.2
			c0.1-0.7,0.8-1.3,0.8-2c0-0.7-0.4-1.3-0.6-2.1c0.3,0,0.5-0.1,1.4-0.3c-0.7-0.6-1.1-1.1-1.6-1.7c0.4,0,0.9-0.1,1.8-0.2
			c-0.1-0.5-0.1-1.2-0.4-1.6c-0.1-0.3-0.8,0-1.5,0c0.6-1.7,1.7-3.5,0.4-5.4c-0.8,1.2,0.2,3.1-2.1,3.7c1.1-2.3,0.9-4.4,0.8-6.6
			c0-0.5,0-1.4,0.2-1.4c0.8-0.2,1.8-0.6,2.3-0.3c1.3,0.7,2.7,0.3,3.9,0c1.8-0.3,3.5-0.3,4.1,1.2L106.2,162.8z M4.1,288.1
			c-0.5,3.5-0.9,6.7-1.4,10.2C4.1,296.9,5.1,289.6,4.1,288.1z M5.7,287.5c0.7-3.6,1.5-7.2,2.2-10.8c-0.4,0-0.8,0.1-1.2,0.1
			c0,0.3,0,0.5,0,0.8c0,0.4-0.1,0.8-0.3,1.2c-0.3,1.2-0.6,2.5-0.9,3.7c-0.1,0.7-0.4,1.4-0.6,2.1c-0.1,1-1,2-0.1,2.9
			C5.2,287.6,5.5,287.5,5.7,287.5z M6.6,289c1.2-1.8,0.6-3.8,1.5-5.7c-0.1,0-0.3,0-0.4,0c-0.6,1.9-1.2,3.9-1.7,5.8
			c0.1,0,0.3,0,0.4,0L6.6,289z M7.9,276.7c1.4-1,0.7-2.2,1.1-3.4c-0.1,0-0.3-0.1-0.4-0.1c-0.4,0.4-0.8,0.9-0.9,1.1
			c0.1,1.1,0.2,1.9,0.3,2.7L7.9,276.7z M10.9,272.6c-0.1,0-0.3,0-0.4,0c-0.7,2.6-1.5,5.3-2.2,7.9c0.1,0,0.3,0,0.4,0
			C9.4,277.9,10.2,275.3,10.9,272.6z M29,214.7c1.1-3.2,2.3-6.6,3.4-10c-0.1,0-0.3,0-0.4,0c-0.1,0.1-0.3,0.3-0.3,0.4
			c-1.4,3.4-2.8,6.8-4.2,10.2c-1.1,3-2.4,5.9-3.4,8.9c-1.6,4.5-3,9-4.6,13.4c-1.3,3.8-2.8,7.5-4.1,11.3c-0.7,1.8-0.9,3.7-1.5,5.6
			c-0.6,1.8-1.4,3.5-2,5.3c-0.9,2.7-1.6,5.3-2.3,8c-0.3,1.2-0.7,2.4-1,3.6c0,0.3,0.4,0.6,0.8,1.1c0.6-1.4,1-2.5,1.3-3.7
			c1.6-5.3,3-10.6,4.8-15.9c1.1-3.5,2.6-7,3.7-10.5c0.4-1.4,0.6-2.8,1-4.2c0.6-1.5,1.3-3,1.8-4.5c0.6-1.7,1-3.4,1.6-5
			c0.6-1.5,1.3-3.1,1.9-4.6c1.1-3.1,2.3-6.2,3.4-9.3L29,214.7z M18.8,247.2c-0.1,0-0.3,0-0.4,0c-0.6,1.4-1.1,2.8-1.7,4.2
			c0.1,0,0.3,0,0.4,0C17.7,250,18.3,248.6,18.8,247.2z M37.2,249.5c0.2-1.5,0.3-3,0.5-4.5c-1.5,1.9-1.6,4.3-0.4,4.6L37.2,249.5z
			 M38.8,256.5c-0.1-2.2-0.2-4.3-0.3-6.7C37.5,251.3,37.6,254,38.8,256.5z M54.8,298.1c0.8,1.3-1.4,6.9-3,8.1c1-2.8,2-5.5,3-8.3
			V298.1z M56,294.2c1.3-3.3,2.4-6.2,3.5-9.2C60.2,285.9,57.6,293.4,56,294.2z M60.2,284.6c-0.3-0.1-0.5-0.2-0.8-0.3
			c0.7-1.7,1.4-3.4,2.1-5.1c0.3,0.1,0.5,0.2,0.8,0.3C61.6,281.2,60.9,282.9,60.2,284.6z M61.5,293.1c0.3-0.7,1.6-1.2,0.2-2.4
			c-0.3,1-0.4,1.7-0.6,2.4c0.1,0,0.3,0,0.4,0V293.1z M64.7,286.1c0.3-0.8,1.6-1.7,0.7-2.5c0.3-0.7,0.5-1.1,0.7-1.6
			c0-0.1-0.4-0.5-0.4-0.5c-0.4,0.3-0.8,0.6-1.2,1.1c-0.1,0.1-0.1,0.4-0.1,0.5c-0.4,1.3-0.9,2.5-1.3,3.8c-0.3,1-0.6,1.9-0.9,2.9
			c0.1,0,0.3,0,0.4,0c0.1-0.1,0.4-0.3,0.5-0.5c0.5-1,1.2-2,1.5-3L64.7,286.1z M64.8,271.1c-0.1,0-0.3,0-0.4,0
			c0.4-1.1,0.8-2.3,1.3-3.4c0.1,0,0.3,0,0.4,0C65.6,268.9,65.2,270,64.8,271.1z M66.7,281.2c0.1-0.8,0.3-1.5,0.4-2.2
			c-0.3,0-0.7,0.1-0.8,0.2c-0.4,0.6-0.7,1.3,0.5,1.8L66.7,281.2z M68.1,277.8c0.5-0.3,0.8-1,1.2-1.6c-0.1,0-0.3,0-0.4,0
			c-0.7,0.4-1.4,0.7-2.4,1.2c0.5,0.2,1.2,0.8,1.5,0.7L68.1,277.8z M69.4,274.8c0.3-0.7,0.6-1.4,0.8-2.1c-0.1-0.1-0.3-0.3-0.4-0.4
			c-0.4,0.4-1.1,0.8-1.2,1.2c-0.1,0.4,0.3,0.9,0.4,1.4c0.1,0,0.3,0,0.4,0L69.4,274.8z M75.6,257.5c0.7-2.2,1.4-4.5,2.2-6.7
			c-2,0-2.3,0.1-2.7,2.4c0.4,0.1,0.8,0.2,1.2,0.3c-0.3,0.2-0.5,0.5-0.8,0.6c-0.3,0.1-0.5,0.3-0.8,0.5c0.1,0.3,0.3,0.5,0.4,0.8
			c0.1,0.3,0.3,0.5,0.5,1c-1.8-0.2-2.3,0.8-2.8,4.3c0.4-0.2,0.8-0.4,1.4-0.7c-0.4,0.4-0.5,0.9-0.8,1c-1.4,0.8-1.6,2.1-1.7,3.4
			c0,0.3-0.1,0.5-0.3,0.8c-0.7,1.8-1.4,3.7-2.1,5.6c1.6,0.4,1.8-0.9,2.2-1.7c0.5-1,1-2,1.4-3c0.1-0.3,0.4-0.6,0.4-0.7
			c-0.4-1.7,0.6-3,1.3-4.5c0.5-1.1,0.7-2.5,1.2-3.8L75.6,257.5z M76,238.6c0.7,1.3,0.5,1.7-1,3c0.3-1.1,0.6-1.9,0.9-3.1L76,238.6z
			 M77.8,234.3c-0.5,1.1-1.1,2.3-1.7,3.4c-0.1-0.1-0.3-0.3-0.4-0.4c0.4-1.1,0.8-2.3,1.3-3.4c0.1,0.1,0.3,0.3,0.4,0.4L77.8,234.3z
			 M78.1,249.4c0.4-1.5,0.9-3.1,1.3-4.7c-0.7,0.2-1.1,0.4-1.5,0.6c0.1,0.1,0.3,0.3,0.4,0.4c-0.4,0.6-1.1,1.2-1.2,1.8
			c-0.1,0.7,0.3,1.5,0.5,2.1c0.1,0,0.3,0,0.4,0L78.1,249.4z M77.6,236.8c1-2.8,2-5.6,3-8.7C81.1,229.4,78.9,235.6,77.6,236.8z
			 M83.2,218.1c-0.4,0.8-0.8,1.7-1.3,2.6l-0.8-0.3c0.3-0.8,0.6-1.7,0.9-2.5c0.3,0.1,0.5,0.2,0.8,0.3L83.2,218.1z M84.8,225.2
			c-0.1,0-0.7,0.2-1.2,0.4c-0.1-0.3-0.3-0.4-0.3-0.5c0.6-1.8,1.2-3.6,1.7-5.4c0.9-2.5,1.7-5,2.6-7.6c0.1-0.4,0.4-0.8,0.5-1.3
			c0.4,0.2,0.8,0.4,0.9,0.6c-0.4,0.8-0.8,1.6-1.1,2.3c-0.7,2.1-1.4,4.2-2,6.3c-0.4,1.7-0.7,3.5-1.2,5.5L84.8,225.2z M88.8,223.1
			c0.3-0.8,0.6-1.7,0.9-2.5c-0.3,0-0.5,0.1-0.8,0.1c-0.3,1-0.6,2-0.9,2.9c0.1,0,0.3,0,0.4,0L88.8,223.1z M89,210.2
			c-0.3,0-0.5,0.1-0.8,0.1c0.4-1.5,0.9-3.1,1.3-4.6c0.3,0,0.5-0.1,0.8-0.1C89.9,207.1,89.5,208.6,89,210.2z M90.9,189.7
			c-0.3,1.1-0.6,2.2-0.9,3.3c-0.1,0-0.3,0-0.4,0c0.3-1.1,0.6-2.2,0.9-3.3c0.3,0,0.5-0.1,0.8-0.1L90.9,189.7z M96.2,175.6
			c1.9,1.5-0.4,2.3-0.2,3.4c-0.1,0-0.3,0-0.4,0c0.1-1,0.3-1.9,0.6-3.3V175.6z M96.9,195.1c-0.1,0-0.3,0-0.4,0
			c-0.3,0.8-0.6,1.7-0.8,2.5c0.3,0,0.5-0.1,0.8-0.1C96.6,196.8,96.7,195.9,96.9,195.1z M96.7,186.1c1.9-0.2,2.2-1.1,2.6-4.2
			c-0.5,0.2-1.4,0.3-1.5,0.6c-0.7,1.6-1.3,3.1-2,4.8c0.8,0,1.4,0,1.9-0.1c0-0.1,0-0.3,0-0.4c-0.3-0.3-0.5-0.5-1.1-0.8V186.1z"/>
		<path class="st1" d="M134.8,256.8c-0.1-0.1-0.3-0.3-0.4-0.4c0.3-0.7,0.6-1.4,0.8-2.1c-0.1,0-0.3,0-0.4,0c-1.8,2.9-3.6,5.8-5.4,8.7
			c-0.1,0.1,0.1,0.5,0.4,1.3c1.7-2.6,3.2-4.8,4.7-7c0.1,0,0.3,0,0.4,0c-0.1,1.2-0.3,2.4-0.5,3.8c0.4-0.2,0.7-0.2,0.9-0.3
			c-0.1,0.3-0.1,0.4-0.3,0.6c-1.2,1.6-2.3,3.2-2.9,5.3c-0.7,2.5-2.7,4.9-4.1,7.3c-1,1.6-1.8,3.3-2.9,4.8c-1.1,1.5-2.5,2.9-3.8,4.1
			c-1.6,1.4-4.2,0.3-5.2-1.2c-1.8-2.6-3.7-5.3-4.1-8.6c-0.5-3-1.5-6-0.6-9.4c0.1-0.7-0.3-1.5-0.2-2.3c0-0.8,0.3-1.6,0.3-2.4
			c0-0.5-0.1-1.1-0.2-1.9c-1,1.7-1.7,3-2.4,4.3c-0.4-0.1-0.7-0.2-0.7-0.2c-0.3,1-0.4,1.8-0.9,2.5c-1.8,3.2-3.6,6.2-5.4,9.2
			c-0.4,0.6-0.9,1.2-1.4,1.8c-0.8,1.2-1.5,2.4-2.4,3.7c-1.5,1.9-3,3.8-4.6,5.8c-0.7,0.9-1.5,1.6-2.2,2.5c-2.6,3.1-6.1,1.9-7.4-0.9
			c-0.5-1-0.9-2-1.5-3.1c-1.3-1.9-1.6-4.1-1.1-6.5c0.6-2.5,1.3-5,2.3-7.4c2.1-4.8,4.4-9.6,6.8-14.4c2.5-4.9,5.2-9.8,7.8-14.6
			c0.7-1.3,1.7-2.5,2.6-3.7c0.1-0.3,1-0.4,1.2-0.3c1.9,1.4,3.4,3,5.4,4.2c1.6,1,2,2.7,2.7,4.3c0.5,0.9,1.1,0.9,1.8-0.1
			c1-1.5,2.1-2.9,3-4.4c0.3-0.4,0.3-1.1,0.4-1.7c-0.1-0.1-0.3-0.3-0.4-0.4c0.4-0.8,0.8-1.7,1.4-2.7c1.5,1.2,2.9,2.4,4.3,3.6
			c2.5,2.2,1.9,5.4,1.3,8.5c-0.6,3.3-1.8,6.5-2.6,9.9c-0.6,2.5-1.3,5-1.6,7.5c-0.5,3-0.5,6-0.7,9c0.1,0,0.3,0,0.4,0
			c0.3-0.3,0.5-0.5,0.8-0.8c1.2-1.6,2.5-3.3,3.7-4.9c0.4-0.6,0.7-1.3,1.6-1c0.3,0.1,1-0.7,1.4-1.1c0.4-0.4,0.5-1,1-1.3
			c0.8-0.8,0.4-1.1-0.4-1.4c0.3-0.4,0.5-0.9,1-1.6c0.1,0.7,0.1,1.1,0.2,1.9c2.5-3.5,4.7-6.7,7-10.1c0.7,0.7,2.3,0.1,2.1,1.6
			c0,0.7-0.7,1.4-1.1,2.2L134.8,256.8z M99.6,264.2c1.9-2.9,3.9-5.8,5.8-8.7c1.9-2.9,0.8-5.6,0.6-8.3c-0.1-0.1-0.3-0.3-0.4-0.4
			c-1.1,1.5-2.3,3-3.5,4.4c-1,1.5-1.7,3-2.6,4.5c-1.7,2.6-4,4.9-4.3,8.2c0,0.4-0.4,0.8-0.7,1.3c-1.2,2.3-2.7,4.6-3.8,6.9
			c-0.3,0.7,0,1.6-0.1,2.6c2.3-1.4,4.9-5.3,4.7-6.5c0.5-0.3,1.1-0.7,1.5-1.1c0.8-1,1.6-2.1,2.3-3.1L99.6,264.2z M112.3,251.2
			c1.8-1.7,2-3.9,2.7-5.8c-0.1-0.1-0.3-0.3-0.4-0.4c-0.7,1.2-1.4,2.2-1.9,3.3c-0.8,1.6-1.5,3.1-2.4,4.6c-0.7,1.3-1.7,2.5-2.5,3.7
			c-0.7,0.9-1.4,1.8-2.1,2.8c-1.1,1.8-2.2,3.5-3.3,5.2c-0.3,0.4-0.3,1-0.4,1.5c0.7-0.3,1.1-0.8,1.4-1.2c1.1-1.5,2.1-3.1,3.2-4.5
			c0.4-0.6,1.2-1.1,1.5-1.8c1.1-2.4,3.2-4.5,3.9-7.2c0-0.1,0.3-0.3,0.4-0.4V251.2z M132.7,253.8c-0.8,1.2-1.6,2.3-2.5,3.7
			c-0.1-0.1-0.3-0.3-0.4-0.4c0.8-1.2,1.6-2.3,2.5-3.5c0.1,0.1,0.3,0.3,0.4,0.4V253.8z"/>
		<path class="st1" d="M199.6,180.4c1.1,1.2,1,2.6-0.1,3.9c-2.2-0.3-3.9-1.6-6.3-1.3c-2.3,0.3-4.6-0.4-6.8-0.4
			c-2.7-0.1-5.4-0.1-8.1,0.1c-3.6,0.3-7.3,0.7-10.9,0.9c-0.4,0-0.8-0.3-1.1-0.8c5.1-0.5,10.2-1.1,15.6-1.7c-0.4-0.4-0.7-0.9-0.9-0.8
			c-1.8,0.1-3.5,0.3-5.3,0.4c-0.7,0.1-1.4,0-2,0.1c-1.8,0.2-3.5,0.5-5.3,0.7c-0.3,0-0.7,0.2-0.8,0.1c-0.9-0.7-1.8-0.1-2.7,0.3
			c-0.8,0.2-1.8,0.5-2.6,0.3c-1.6-0.4-2.7,1-4.1,1.2c0,0.1,0,0.3,0,0.4c2.6-0.3,5.1-0.5,7.7-0.8c-0.1,1.2-1.2,1.8-2.6,1.5
			c-0.1,0-0.3-0.3-0.3-0.3c-1.6,1.5-3.6,0.3-5.3,1.4c-0.3,0.1-0.5,0.5-0.7,0.8c-0.4,1.1-0.7,2.4-1.1,3.5c-0.3,0.7-0.8,1.3-1.1,2
			c-0.4,1.3-0.3,2.7-1.6,3.8c0.1,2.7-1.6,5-2.2,7.5c-0.6,2.2-1.6,4.3-2.3,6.6c-0.8,2.4-1.6,4.8-2.3,7.1c-0.1,0.5-0.5,1-0.7,1.6
			c-1,2.8-2,5.6-2.8,8.6c-0.7,2.2-1.2,4.5-2.3,6.6c-0.3,0.4,0.1,1.1,0,1.6c-0.3,1-0.8,1.9-1.1,2.8c-0.3,0.8-0.6,1.8-0.9,2.8
			c-0.4,1.2-0.9,2.5-1.2,3.9c-1,4.6-2.1,9.1-3,13.7c-0.6,2.8-1.1,5.7-1.2,8.5c0,2.2,0.4,4.3,0.8,6.4c0.1,1,1.9,0.9,2.6,0
			c1.8-2.1,3.6-4.2,5.4-6.2c0.1,0.1,0.3,0.3,0.4,0.4c-0.8,1-1.6,2.1-2.5,3.1c0.1,0.1,0.3,0.3,0.4,0.4c1.2-1.6,2.5-3.3,4-5.2
			c-0.7,0.2-0.9,0.3-1.8,0.5c1.4-1.8,2.5-3.3,3.6-4.7c0.1,0,0.3,0,0.4,0c-0.5,1.1-1.1,2.3-1.8,3.7c2.8-1.1,3.8-3.4,5.2-5.2
			c1.6-2.2,3.3-4.6,5-6.8c1-1.3,1.9-2.8,2.9-4.1c0.4-0.6,0.8-1.2,1.2-1.8c0.1,0.1,0.3,0.3,0.4,0.4c-1.1,1.8-2.2,3.5-3.3,5.2
			c-1,1.6-1.9,3.2-2.7,4.9c-0.4,1.1-0.3,2.4-0.5,3.7c0,0.3,0,0.5-0.1,0.7c-1.4,2.4-2.7,4.9-4.1,7.3c-0.7,1.3-1.7,2.5-2.5,3.7
			c-0.1,0.1-0.4,0.3-0.4,0.4c-0.3,2.2-2.2,3.1-3.6,4.5c-2.2,2-4.6,1.9-6.8,1.3c-1.3-0.4-2.4-1.5-3.6-2.3c-0.8-0.6-1.6-1.2-2.3-1.8
			c-3.3-2.9-3.8-6.9-3.1-11.3c0.2-1.9,0.2-3.8,0.5-5.7c0.5-2.6,0.9-5.2,1.5-7.9c0.9-3.9,1.9-7.8,3.1-11.7c1.5-5.2,3.2-10.3,4.9-15.4
			c1.9-5.7,3.7-11.5,5.7-17.2c1.6-4.8,3.4-9.5,5.1-14.3c0.3-1,0.2-2,0.3-3c0-0.3,0.4-0.4,0.9-1.1c-3.5,0.7-6.8,1.3-10.1,1.9
			c-0.1,0.5-0.7,0.9-1.8,1c-1.4,0.3-2.7,1-4.1,1.4c-2.6,0.8-5.3,1.4-7.7,2.5c-3.5,1.5-6.9,3.2-10.3,4.9c-1.8,0.9-3.7,1.6-5.4,2.6
			c-1.9,1.2-3.8,2.6-5.7,4c-0.8,0.6-1.4,0.5-1.8-0.2c-0.5-1.2-1-2.3-1.3-3.5c-0.1-0.4,0.4-1.2,0.8-1.6c1.5-1,3.1-1.7,4.6-2.5
			c1.9-1.2,3.8-2.4,5.8-3.5s4.2-2.3,6.4-2.6c2-0.2,3.5-1.5,5.4-1.7c0.4,0,0.8-0.6,1.1-0.8c0.9,0,1.9,0.1,3.1,0.1
			c0.1-0.1,0.4-0.4,0.5-0.6c0.8,0,1.5,0,2.2-0.1c0-0.1,0-0.3,0-0.4c-0.3-0.1-0.5-0.2-1.2-0.3c0.5-0.2,0.8-0.4,1.1-0.5
			c0.5-0.2,1.2-0.3,1.6-0.6c1.1-0.9,4.9-2,6.2-1.5c-1,0.4-1.8,0.7-2.7,1.1c2.4,0.3,3.4-0.4,3.1-2.1c1.2,0.1,2.3,0.5,3.2,0.3
			c0.9-0.3,1.9-1.2,2.8-1.8c0,0.1,0,0.4,0,0.4c0.9-0.1,1.9-0.2,2.8-0.4c0.8-0.2,1.8-0.3,2.4-0.8c0.5-0.5,0.9-1.3,1.2-2
			c1-2.6,2.1-5.1,2.8-7.7c0.3-1.2,1.7-2.5,0.8-3.9c-0.1-0.1,0-0.7,0.1-0.8c1.9-1.4,1.3-3.5,2-5.2c1-2.4,1.7-4.9,2.6-7.3
			c0.1-0.5,0.3-1.1,0.3-1.6c0.2-2,1.3-2.7,3-1.9c0.8,0.3,1.6,0.8,2.5,0.9c1.9,0.5,2.2,2.2,2.3,3.7c0.1,1.4-0.6,2.9-1.2,4.3
			c-1.9,5.2-3.8,10.4-5.7,15.6c-0.3,0.7-0.4,1.4-0.6,2.1c0.5,0.1,1.1,0.1,1.8,0.2c-0.1,0.3-0.3,0.6-0.5,0.9c1.1-0.1,2-0.2,3-0.3
			c0-0.1,0-0.3,0-0.4c-0.7-0.1-1.4-0.1-2-0.2c0-0.1,0-0.3,0-0.4c1.5-0.1,3-0.3,4.5-0.5c0,0.1,0,0.3,0,0.4c-0.4,0.2-0.8,0.4-1.1,0.5
			c1.8-0.2,3.5-0.4,5.3-0.6c0-0.1,0-0.3,0-0.4c-0.4-0.1-0.8-0.2-1.2-0.3c0-0.1,0-0.3,0-0.4c1.1-0.1,2.2-0.3,3.2-0.4
			c0,0.1,0,0.3,0,0.4c-0.4,0.2-0.8,0.4-1.2,0.5c0.8,0.6,1.5,0.4,2-0.4c0.3-0.4,0.8-0.9,1.2-0.9c3.9-0.3,7.8-0.5,11.7-0.8
			c0.5-0.1,1.1-0.4,1.6-0.6c0.5,0.9,1.6,0.9,3.1-0.1c-0.1,0.3-0.1,0.5-0.1,0.7c1.8,0.1,3.5,0,5.2,0.2c1.5,0.1,3.2,0.2,3,2.4
			c0,0.1,0.1,0.3,0.3,0.4L199.6,180.4z M128.9,259.2c0.1-1.2,0.4-2.5-0.5-3.5c-0.3,2.9-0.7,5.7-1,8.6c0.6-1.7,0.9-3.3,1.2-5
			L128.9,259.2z M128,191.7c3-0.5,7.2-2.2,8-3.4c-1.6,0.6-3,1.3-4.3,1.6c-1.1,0.3-3.2,1.3-3.5,2.2L128,191.7z M131.2,249.4
			c0.5-1.3,0-1.4-1.2-1.5c-0.5,2.6-0.9,5.1-1.4,7.6c0.4-0.4,0.9-0.8,1.1-1.2c0.4-1.5,0.6-3.2,1.3-4.6L131.2,249.4z M130.3,246.8
			c-0.1,0.4,0.3,0.9,0.5,1.3c0.1,0,0.3,0,0.4,0c0.3-1.4,0.6-2.8,0.9-4.1c0.3,0,0.5-0.1,0.5-0.1c0-0.8-0.1-1.5,0-2.2
			c0.4-1.8,1.1-3.5,1.5-5.3c0.1-0.8,0.4-2.1-0.6-2.6c-0.1,1.1-0.3,2.2-0.6,3.3c-0.9,3.3-1.8,6.7-2.6,10L130.3,246.8z M142.7,220.8
			c-0.1-0.1-0.3-0.3-0.4-0.2c1.9-5.3,3.7-10.5,5.4-15.9c1.7-5.2,4-10.3,5.1-15.5c-1,2-1.8,4-2.6,6.1c-1,2.8-1.9,5.7-2.8,8.6
			c-1.1,3-2.4,5.9-3.4,9c-1.9,5.7-3.6,11.5-5.3,17.2c-1.3,4.1-2.7,8.1-3.8,12.3c-1.3,4.9-2.4,9.8-3.4,14.7c-0.3,1.1-0.3,2.2-0.5,3.3
			c0.1,0,0.3,0,0.4,0c0.8-3.7,1.5-7.5,2.4-11.2c0.9-3.7,2.2-7.4,3.1-11.1c0.7-3.2,3-10,4.3-11c-0.3,1.1-0.6,1.9-0.7,2.8
			c0.3-0.3,0.7-0.6,0.8-1c0.8-2.4,1.6-4.8,2.3-7.1c1-2.8,2-5.6,3-8.4c0.8-2.4,1.7-4.8,2.6-7.2c0.7-2,1.4-3.9,2.2-5.9
			c0.3-1,0.4-1.9,0.7-2.9c-0.4,0.2-0.7,0.5-0.8,0.8c-1,3-2,5.9-3,8.8c-1.3,3.9-2.6,7.9-3.9,11.6c-0.3,0.7-0.8,1.3-1.2,1.9
			L142.7,220.8z M136.7,224.6c-1.3,3-2.2,6-3.1,9.1c0.4,0,0.8-0.1,1.1-0.1c0.1-0.5,0.1-0.8,0.1-1.1c0.1,0,0.3,0,0.4,0
			c0,1.1,0,2.2-0.1,3.5c0.3-0.3,0.4-0.4,0.4-0.6c0.3-1.1,0.6-2.1,0.3-3.4c-0.2-1.6,0.9-3.6,1.3-5.4c0.3-0.8,0.4-1.7,0.7-2.6
			c0.3,0.1,0.8,0.3,1.3,0.5c0-0.3,0-0.8,0-0.8c-1.4-0.1-0.5-1.3-0.6-1.9c0-0.3,0.5-0.7,0.7-1.2c1.1-3.2,2-6.6,3.3-9.8
			c1-2.6,1.2-5.1,2.4-7.6c1.4-2.7,1.9-5.7,2.9-8.7c0.3-1.1,1-2.1,1.3-3.3c0.6-1.7,1-3.4,1.5-5c-0.1,0-0.3,0-0.4,0
			c-0.3,0.6-0.7,1.2-1,1.7c-0.6,1.4-1,2.8-1.6,4.2c-1.4,3.8-3,7.6-4.4,11.4c-1.9,5.3-3.6,10.8-5.6,16.1c-0.6,1.7-0.7,3.3-1.5,5
			L136.7,224.6z M136.1,247c-0.1,0-0.3,0-0.4,0c-0.3,1.1-0.6,2.2-0.9,3.3c0.1,0,0.3,0,0.4,0C135.5,249.2,135.8,248.1,136.1,247z
			 M138.5,188.3c0.4,0,0.8-0.2,1.2-0.4c-0.1-0.4-0.3-0.8-0.5-1.4c-0.7,0.6-0.9,1.1-1.4,1.2c-0.4,0.2-0.8,0.1-1.2,0.1
			c0,0.1,0,0.3,0,0.4c0.5,0.1,1.1,0.1,1.6,0.1L138.5,188.3z M140.4,229.7c-1.6,4.3-3.1,8.7-3.8,13.2c0.5-1.1,1-2.4,1.4-3.7
			c0.7-2.4,1.3-4.9,2.2-7.3C140.6,231.2,140.8,230.5,140.4,229.7z M141.9,222.3c0.1,0,0.3,0,0.4,0c0.4,2-1.2,3.6-1.7,5.4
			c-0.1,0-0.3,0-0.4,0C140.8,225.9,141.4,224.1,141.9,222.3z M145.5,186.3c1.1-0.3,2.2-0.5,3.1-1c0.4-0.2,0.5-0.9,0.8-1.3
			c-0.1-0.1-0.3-0.3-0.4-0.4c-0.5,0.5-0.9,1.1-1.5,1.2c-2.3,0.7-4.6,1.1-6.9,1.6c0,0.3,0,0.5,0,0.8c0.4,0.1,0.8,0.3,1.2,0.3
			c1.2-0.3,2.4-0.7,3.7-1.1V186.3z M153,181c1.4-1.8,1.4-3.8,1.5-5.8c-0.6,1.8-1.2,3.7-1.7,5.4c0.1,0,0.3,0,0.4,0L153,181z
			 M154.4,190.6c0.4-1.1,0.8-2.3,1.3-3.4c-0.1-0.1-0.3-0.3-0.4-0.4c-0.4,1.1-0.8,2.3-1.3,3.4c0.1,0,0.3,0,0.4,0V190.6z M182.6,178.8
			c0-0.1,0-0.3,0-0.4c-1.2,0.1-2.4,0.3-3.7,0.4c0,0.1,0,0.3,0,0.4C180.2,179.1,181.4,179,182.6,178.8z M187.6,181.2
			c0.3,0,0.5-0.1,0.9-0.1c-1.2-1.1-4.3-1.1-5.8-0.2c0.4,0.1,0.7,0.3,0.9,0.3c1.2,0,2.4-0.1,3.6-0.1L187.6,181.2z"/>
		<path class="st1" d="M202.7,243.9c0,0.5,0.1,0.9,0,1.2c-0.8,1.9-1.7,3.7-2.5,5.6c-0.3,0.4-0.7,0.8-0.9,1.2
			c-0.3,0.3-0.7,0.6-0.7,0.9c0,2-1.3,3.4-2.8,4.6c-0.5,0.5-0.9,1.1-1.4,1.6c-0.4,0.6-0.5,1.3-1,1.7c-1.1,1.2-2.7,2.2-3.4,3.6
			c-0.7,1.4-1.8,2.2-2.7,3.3c-0.7,0.9-1,2.1-1.8,2.9c-0.7,0.6-1.8,0.9-2.6,1.4c-2.2,1.2-4.2,1.4-6.5,0.6c-2.4-1-3.7-2.7-5.1-4.6
			c-1.8-2.4-2.4-5.4-3.3-8.3c-0.3-1.1-0.1-2.3-0.1-3.4c0-1,0-1.9,0.1-2.9c-0.1,0-0.3,0-0.4,0c-1,1.7-2,3.5-2.9,5
			c-0.3,0.6-0.8,1-1.2,1.5c-0.5,0.6-1.1,1.2-1.5,1.8c-0.5,0.9-1,1.7-1.4,2.6c-0.1,0.3-0.4,0.6-0.4,0.8c0.1,1.8-1.3,2.7-2.2,3.9
			c-0.5,0.7-1.1,1.6-1.4,2.4c-1,2.7-5,5.7-6.9,4.9c-1.1-0.4-2.1-1.2-2.8-2.3c-3.1-4.2-4.5-9.2-2.8-15.1c1.4-4.8,3-9.4,4.6-14
			c1.4-4.3,3-8.6,5.2-12.6c0.8-1.3,1.1-1.5,2.3-0.7c1.5,0.9,2.9,2,3,3.8c0.1,3,0,5.9-1.7,9c-1.5,2.6-2.4,5.5-3.5,8.4
			c-0.7,1.8-1.4,3.8-2,5.7c-0.3,1.1-0.4,2.3-0.7,3.5c-0.1,0.7-0.3,1.4-0.2,2.3c1.1-1.1,2.3-2,3.3-3.2c3.6-4.2,7-8.5,10.6-12.6
			c2.3-2.7,4.9-5.3,7.3-8c0.7-0.8,1.2-1.6,1.7-2.5c1.3-2.6,2.4-5.3,3.7-7.8c0.5-1,1.4-1,2.4-0.1c0.8,0.6,1.7,0.9,2.4,1.5
			c1.1,0.9,2,2.1,2.7,3.3c0.1,0.3-0.4,1.2-0.8,1.6c-1.2,0.9-2.3,1.8-2.4,3.5c0,0.8-0.7,1.7-1,2.5c-1.7,5-3.8,10-4.7,15.2
			c-0.3,1.8-0.6,3.6-0.9,5.4c-0.1,1.1,0.7,1.5,2,1.4c2.4-0.3,4.3-1.8,6.4-3.1c2.2-1.3,4.3-2.8,6.4-4.5c3.3-2.7,6.4-5.6,9.7-8.4
			c0.5-0.5,1.2-0.9,1.8-1.5c0.8-0.9,1.6-1.8,2.6-3L202.7,243.9z M158.4,259.4c1.9-0.9,2.2-3,3.4-4.3c-1.1,0-2.2-0.2-2,1.4
			c0,0.3-0.4,0.6-0.7,0.9c-0.4,0.6-0.8,1.2-1.2,1.8c0.1,0.1,0.3,0.3,0.4,0.4L158.4,259.4z M165.9,250.8c-0.1-0.1-0.3-0.3-0.4-0.4
			c-0.8,0.6-1.5,1.6-2.8,1.5c-0.4-0.1-1.1,1.1-1.6,1.7c0.1,0.1,0.3,0.3,0.4,0.4c0.3-0.2,0.5-0.3,0.8-0.5c0.3,0.4,0.5,0.8,0.8,1.1
			c0.3-0.3,0.5-0.6,0.8-0.9c0.5-0.6,1.1-1.2,1.5-1.8C165.6,251.6,165.8,251.2,165.9,250.8z M188.8,261.1c1.1-0.8,1.8-1.7,1.4-3.1
			c-0.3,0.3-0.4,0.4-0.4,0.6c-0.3,0.8-0.6,1.4-1.6,1.7c-0.9,0.3-1.9,1.2-2.7,1.9c-0.3,0.3-0.3,1-0.4,1.4c0.4-0.2,0.8-0.2,1.2-0.5
			c0.8-0.6,1.6-1.4,2.4-2L188.8,261.1z M191.8,257.5c2-1.8,4-3.7,6.2-5.7c-0.5-0.1-0.7-0.1-0.7-0.1c-2,1.7-4.1,3.4-6,5.1
			c-0.3,0.3-0.4,1-0.3,1.2c0.1,0.3,0.5,0.5,0.8,0.7c0.1-0.1,0.3-0.3,0.4-0.4c-0.1-0.4-0.3-0.8-0.4-1.2L191.8,257.5z"/>
		<path class="st1" d="M227.6,228.7c0.1,0.7-0.6,1.9-1.3,2.4c-0.5,0.3-1.8,0.1-2.3-0.4c-1.7-1.3-2.9-3.1-3.2-5.3
			c-0.3-1.2-0.4-2.4-0.5-3.6c-0.1-0.7-0.3-1.3-0.4-2.1c-1.9,0.9-2.5,2.4-3,4c-0.1,0.5-0.1,1.1-0.3,1.6c-0.1,0.3-0.4,0.8-0.5,0.9
			c-2.3,0.4-2.5,2.7-3.4,4.2c-1.1,1.8-1.8,3.7-2.7,5.6c-1.3,2.7-2.5,5.4-3.8,8.1c-1,2.1-2.1,4.1-3,6.2c-1.1,2.6-2,5.1-3,7.6
			c-0.7,1.8-1.4,3.7-2.1,5.6c-0.4,1.1-0.7,2.4-1,3.6c-0.1,0.5-0.1,1.1,0,1.6c0.4,1.7-0.1,2.7-1.7,4c-0.3,0.3-0.4,0.7-0.7,1
			c-0.8,0.6-1.5,1.4-2.4,0.3c-0.5-0.8-1.7-0.9-2.5-1.5c-1.1-0.7-1.9-1.5-1.1-3.1c0.1-0.4,0-1-0.1-1.5c-0.2-1.9-0.7-3.7-0.8-5.6
			c-0.1-1.5,0.2-3,0.5-4.5c1.1-5.1,2-10.2,3.3-15.3c0.6-2.6,1.9-5.2,2.7-7.9c0.3-0.8,0.2-1.8,0.3-2.6c0.1-0.5,0.5-1.1,0.7-1.7
			c1.2-4.2,2.3-8.4,3.5-12.5c0.6-1.8,1.2-3.6,1.6-5.4c0.1-0.4,0-0.9,0-1.4c0-0.5,0-1.6,0.2-1.6c0.7-0.2,1.5-0.3,2.2-0.3
			c1.8,0.4,2.9,1.7,4.4,2.3c2.1,1,2.6,2.8,2.4,5.1c0,0.7-0.4,1.3-0.7,1.8c-0.7,1.8-1.4,3.7-2,5.5c-0.5,1.4-0.9,2.9-1.3,4.5
			c0.1,0.1,0.3,0.3,0.4,0.4c0.7-1.6,1.4-3.1,2.2-4.6c1.1-1.9,2.4-3.6,3.5-5.4c0.5-1,1.1-2,1.7-3c1-1.7,1.8-3.4,3.1-4.9
			c0.4-0.6,1.8-1,2.4-0.8c2,0.4,4.3,0.9,5.7,2.2c2,1.8,3.2,4.3,3.1,7.5c-0.3,3.1-0.4,6.2,0.1,9.3L227.6,228.7z M211.9,222.5
			c-1.8,1-6.8,9.6-6.5,11.4C207.6,230,209.7,226.5,211.9,222.5z"/>
		<path class="st1" d="M271.8,237.9c-0.1-0.1-0.3-0.3-0.4-0.4c0.3-0.7,0.6-1.4,0.8-2.1c-0.1,0-0.3,0-0.4,0c-1.8,2.9-3.6,5.8-5.4,8.7
			c-0.1,0.1,0.1,0.5,0.4,1.3c1.7-2.6,3.2-4.8,4.7-7c0.1,0,0.3,0,0.4,0c-0.1,1.2-0.3,2.4-0.5,3.8c0.4-0.2,0.7-0.2,1-0.3
			c-0.1,0.3-0.1,0.4-0.3,0.6c-1.2,1.6-2.3,3.2-2.9,5.3c-0.7,2.5-2.7,4.9-4.1,7.3c-1,1.6-1.8,3.3-2.9,4.8c-1.1,1.5-2.5,2.9-3.8,4.1
			c-1.6,1.4-4.2,0.3-5.2-1.2c-1.8-2.6-3.7-5.3-4.1-8.6c-0.5-3.1-1.5-6-0.6-9.4c0.1-0.7-0.3-1.5-0.2-2.3c0-0.8,0.3-1.6,0.3-2.4
			c0-0.5-0.1-1.1-0.2-1.9c-1,1.7-1.7,3-2.4,4.3c-0.4-0.1-0.7-0.2-0.7-0.2c-0.3,1-0.4,1.8-0.9,2.5c-1.8,3.2-3.6,6.2-5.4,9.2
			c-0.4,0.6-0.9,1.2-1.4,1.8c-0.8,1.2-1.5,2.4-2.4,3.6c-1.5,1.9-3,3.8-4.6,5.8c-0.7,0.9-1.5,1.6-2.2,2.5c-2.6,3.1-6.1,1.9-7.4-1
			c-0.5-1-0.9-2-1.5-3.1c-1.3-1.9-1.6-4.1-1.1-6.5c0.6-2.5,1.3-5,2.3-7.4c2.1-4.8,4.4-9.6,6.8-14.4c2.5-4.9,5.2-9.8,7.8-14.6
			c0.7-1.3,1.7-2.5,2.6-3.7c0.1-0.3,0.9-0.4,1.2-0.3c1.9,1.4,3.4,3,5.4,4.3c1.6,1,2,2.7,2.7,4.3c0.5,0.9,1.1,0.9,1.8-0.1
			c1-1.5,2.1-2.9,3-4.4c0.3-0.4,0.3-1.1,0.4-1.7c-0.1-0.1-0.3-0.3-0.4-0.4c0.4-0.8,0.8-1.7,1.4-2.7c1.5,1.2,2.9,2.4,4.3,3.6
			c2.5,2.2,1.9,5.4,1.3,8.5c-0.6,3.3-1.8,6.5-2.6,9.9c-0.6,2.5-1.3,5-1.6,7.5c-0.5,3-0.5,6-0.7,9c0.1,0,0.3,0,0.4,0
			c0.3-0.3,0.5-0.5,0.8-0.8c1.2-1.6,2.5-3.3,3.7-4.9c0.4-0.6,0.7-1.3,1.6-1c0.3,0.1,0.9-0.7,1.4-1.1c0.4-0.4,0.5-1,1-1.3
			c0.8-0.8,0.4-1.1-0.4-1.4c0.3-0.4,0.5-0.9,1-1.6c0.1,0.7,0.1,1.1,0.2,1.9c2.5-3.5,4.7-6.7,7-10.1c0.7,0.7,2.3,0.1,2.1,1.6
			c0,0.7-0.7,1.4-1.1,2.2L271.8,237.9z M236.6,245.3c1.9-2.9,3.9-5.8,5.8-8.7c1.9-2.9,0.8-5.6,0.6-8.3c-0.1-0.1-0.3-0.3-0.4-0.4
			c-1.1,1.5-2.3,3-3.4,4.4c-1,1.5-1.7,3-2.6,4.5c-1.7,2.6-4,4.9-4.3,8.2c0,0.4-0.4,0.8-0.7,1.3c-1.3,2.3-2.7,4.6-3.8,6.9
			c-0.3,0.7,0,1.6-0.1,2.6c2.3-1.4,4.9-5.3,4.7-6.5c0.5-0.3,1.1-0.7,1.5-1.1c0.8-1,1.6-2.1,2.3-3.1L236.6,245.3z M249.3,232.3
			c1.8-1.7,2-3.9,2.7-5.8c-0.1-0.1-0.3-0.3-0.4-0.4c-0.7,1.2-1.4,2.2-1.9,3.3c-0.8,1.6-1.5,3.1-2.4,4.6c-0.7,1.3-1.7,2.5-2.5,3.7
			c-0.7,0.9-1.4,1.8-2.1,2.8c-1.1,1.8-2.2,3.5-3.3,5.2c-0.3,0.4-0.3,1-0.4,1.5c0.7-0.3,1.1-0.8,1.4-1.2c1.1-1.5,2.1-3.1,3.2-4.5
			c0.4-0.6,1.2-1.1,1.5-1.8c1.1-2.4,3.2-4.5,3.9-7.2c0-0.1,0.3-0.3,0.4-0.4L249.3,232.3z M269.7,234.9c-0.8,1.2-1.6,2.3-2.5,3.7
			c-0.1-0.1-0.3-0.3-0.4-0.4c0.8-1.2,1.6-2.3,2.5-3.5c0.1,0.1,0.3,0.3,0.4,0.4V234.9z"/>
		<path class="st1" d="M298.1,167.5c0.1,0.3,0.4,0.5,0.4,0.8c-0.2,2.3-0.4,4.6-0.7,6.9c-0.1,0.8-0.3,1.9-1.2,2.2c0,1.1,0,2-0.1,3
			c0,0.1-0.1,0.4-0.3,0.4c-1.8,0.5-1.2,1.9-1.5,3c-0.3,0.8-0.6,1.7-0.9,2.5c-0.3,0.7-0.4,1.4-0.7,2.1c-0.5,1.4-1.5,2.9-1.6,4.2
			c-0.2,2-1.7,3.4-2.1,5.4c-0.3,1.5-1.1,3.1-1.7,4.6c-0.4,1.1-0.7,2.4-1.3,3.5c-1.7,3.1-3.5,6.2-5.1,9.2c-0.3,0.6-0.4,1.3-0.7,1.8
			c-1.5,3-3.1,6-4.6,9c-1.7,3.5-3.5,7.1-5.1,10.8c-0.5,1.3-0.9,2.7-2.1,3.6c-0.5,0.5-1.2,0.8-1.9,1c-0.8,0.4-1.2,0.7-1.1,1.8
			c0.1,0.5-0.3,1.1-0.4,1.7c-0.3,1.4,0.7,2.9-0.9,4.1c0.8,0.8-0.3,1.1-0.7,1.7c1.2,0.7,1.2,1.6,0.3,2.8c-0.5,0.7-0.2,1.8-0.3,2.3
			c-0.7,2.1,0.6,3.6,0.4,5.5c-0.2,1.6,0.3,3.3,0.6,4.9c0.1,1.2,0.9,1.4,1.9,0.6c1.8-1.4,3.7-2.9,5.2-4.5c2.2-2.4,4.1-5,6.2-7.6
			c0.3-0.3,0.7-0.5,0.9-0.7c-0.4,0.8-0.8,1.7-1.3,2.6c2.7,0.1,3.8-2.3,5.4-4c0.4-0.4,0.8-0.8,1.2-1.1c0.1,0.1,0.3,0.3,0.4,0.4
			c-2.6,3.7-5.3,7.3-7.9,11.1c0.8,0.6,0.5,1.2-0.2,2c-1.5,1.9-2.9,3.9-4.4,5.9c-0.3,0.3-0.7,0.6-1.1,0.8c-3,1.4-5.4,1.4-7.8-0.6
			c-3.2-2.7-5.5-5.8-6.2-10.1c-0.4-2.3,0-4.6,0-6.9c0-0.1,0.1-0.4,0.3-0.4c1.5-0.6,0.9-1.2,0.4-1.9c-0.3-0.4,0-1.1,0.2-2.2
			c0.4,0.6,0.5,0.9,0.7,1.1c0.1-0.1,0.3-0.2,0.3-0.3c0.4-2.1,0.9-4.1,1.4-6.2c0.1-0.8,0.4-1.5,0.4-2.3c0-0.5-0.4-1-0.5-1.6
			c-0.1-0.7-0.1-1.4-0.1-2c0.1,0,0.3,0,0.4,0c0.1,0.5,0.3,1.1,0.4,2c0.6-2.2,1.2-4.2,1.8-6.1c1.2-4.1,2.3-8.2,3.5-12.2
			c1-3.4,2-6.7,3-10c1.5-4.9,2.8-9.8,4.2-14.5c1.4-4.5,3-9,4.5-13.4c0.6-1.8,0.8-3.9,1.7-5.6c0.5-1,0.8-2,1-3
			c0.1-0.8,0.2-1.6,0.3-2.4c0-0.1,0-0.3,0.1-0.4c1.9-1.7,1.8-4.1,2.7-6.2c1.6-3.7,3-7.5,4.5-11.1c0.3-0.8,0.7-1.4,1.8-0.7
			c1.5,0.9,3.1,1.5,4.6,2.3c2.1,1.1,3.8,5,3.3,7.6c-0.1,0.5,0.1,1.1,0.2,1.6L298.1,167.5z M262,247.7c0.1-1.1,0.3-2.2,0.5-3.3
			c-0.1,0-0.3,0-0.4,0c-0.1,1.1-0.3,2.2-0.5,3.3c0.3,0,0.5-0.1,0.8-0.1L262,247.7z M262.4,233.9c-0.8-0.4-0.7-1.3,0.7-2.8
			c-0.1,0.9-0.3,1.9-0.5,2.9L262.4,233.9z M264,228.4c-0.1,0-0.3,0-0.4,0c0-0.1-0.1-0.3-0.1-0.4c0.3-1,0.6-1.9,0.9-2.9
			c0.1,0,0.3,0,0.4,0c-0.3,1.1-0.6,2.2-0.9,3.3H264z M264.8,236.2c0.4-1.3,0.9-2.5,1.3-3.8c-0.1,0-0.3,0-0.4,0
			c-0.5,1.1-1.1,2.3-1.7,3.4c0.1,0.1,0.3,0.3,0.4,0.4L264.8,236.2z M267.4,226.9c-0.3,0-0.5,0.1-0.8,0.1c-0.1,1.1-0.3,2.2-0.5,3.3
			c0.1,0,0.3,0,0.4,0C266.8,229.1,267.1,228,267.4,226.9z M269.5,210.3c-0.4,1-0.8,2-1.3,3c-0.1,0-0.3,0-0.4,0
			c0.3-1,0.6-1.9,0.9-2.9c0.1,0,0.3,0,0.4,0L269.5,210.3z M294,177.8c-0.1-0.8,0-1.6,0-2.4c-0.1,0-0.3,0-0.4,0
			c-0.3,1.4-0.6,2.8-0.9,4.2c-0.3,0-0.5,0.1-0.8,0.1c0.9-5.4,2.4-10.8,0.7-16.3c-0.8,1.9-1.7,3.3-2.3,4.8c-0.4,1-0.4,2.1-0.7,3
			c-0.8,2.5-1.9,5.1-2.8,7.6c-0.8,2.3-1.7,4.6-2.7,6.9c-1,2.3-2.1,4.5-3.1,6.8c-0.1,0.4-0.1,0.9-0.1,1.4c-0.5,0.6-1.4,1.5-1.2,1.9
			c0.7,1.3,0.1,2-1,3c-0.4,0.3-0.5,1-0.7,1.6c-0.4,1.1-0.7,2.2-1,3.4c-0.1,0.1,0.1,0.5,0,0.8c-1,3-2.6,5.8-2.2,9
			c0,0.1-0.1,0.3-0.3,0.4c-0.8,0.9-1.6,1.8-2.6,2.9c0.4,0.1,0.8,0.2,1.2,0.3c-0.1,0.1-0.3,0.3-0.4,0.4c-0.4,0.2-0.8,0.4-1.2,0.5
			c0.3,0.5,0.4,0.9,0.4,0.9c-0.5,1-1.2,1.8-1.4,2.6c-0.1,0.7,0.4,1.5,0.6,2.2c0,0,0.1-0.1,0.3-0.3c1.4-2.6,2.8-5.2,4.3-7.6
			c0.8-1.3,1.1-3,2.8-3.7c1.1-1.5,2.3-2.8,3.2-4.4c0.5-0.9,0.8-1.3,1.8-0.7c0.1-0.4,0.3-0.7,0.3-1c0-0.7-0.3-1.5,0-1.9
			c1-1.7,0.9-4.1,3.3-5c0.1,0,0.3-0.3,0.4-0.4c0.5-1,1.1-2,0.3-3.1c0.5-0.1,1.2,0,1.2-0.1c0.6-1.4,1.5-3,1.4-4.3
			c-0.1-1.4,0.3-1.5,1.1-1.9c-0.1-0.5-0.4-1.2-0.2-1.6c0.6-1.4,1.3-2.7,1.8-4.1c0.1-0.4,0.5-1,0.4-1.1c-0.9-1.4,0.7-2.6,0.5-3.9
			V177.8z M273.1,206.4c-0.4,1.4-0.7,2.5-1,3.6c0.1,0,0.3,0,0.4,0c0.4-0.7,0.8-1.4,1.2-2.2c-0.1-0.4-0.3-0.9-0.5-1.6L273.1,206.4z
			 M275.5,218.3c1.1-1.2,2.1-2.5,2.8-3.9c0.3-0.6,0.3-1.4,0.4-2.1c-1.1,2-2.2,4-3.4,6H275.5z M283.3,250.2c-1.1,1.8-2.2,3.5-4,4.8
			c1.1-1.8,2.2-3.5,3.3-5.2c0.1,0.1,0.3,0.3,0.4,0.4L283.3,250.2z M288,193.8c0.6-1.5,1.1-3.1,1.7-4.6c0.1,0,0.3,0,0.4,0
			C289.4,190.7,288.7,192.3,288,193.8c-0.1,0-0.3,0-0.4,0L288,193.8z"/>
		<path class="st1" d="M323,236.5c0.5-0.5,1.1-0.8,1.6-1.2c0.1,0.1,0.3,0.3,0.4,0.4c-0.7,1.1-1.2,2.2-2.1,3.2c-1,1.2-2,2.2-3,3.3
			c-0.3,0.3-0.5,0.6-0.8,1c-1.4,2.1-2.8,4.2-4.3,6.4c-0.4,0.6-1,1.1-1.4,1.7c-0.8,1.2-2.2,1.8-2.6,3.5c-0.3,1.2-1.8,2.2-2.9,3.1
			c-2.3,1.9-4.6,3.7-7,5.7c-0.5,0.5-0.9,1.1-1.5,1.4c-1.1,0.8-2.3,1.6-3.5,2.2c-1.4,0.6-2.8,1-4.2,1.3c-3.4,0.5-5.9-1.3-8.3-3.1
			c-3.4-2.6-5.1-6.7-6.6-10.6c-1.3-3.2-1.6-7-0.3-10.7c0.6-1.8,0.7-3.6,1.5-5.2c1.1-2.6,2.5-5.3,3.8-8c0.7-1.5,1.3-3,2.1-4.3
			c1.5-2.7,3.1-5.4,4.9-7.8c1.4-2,3-3.7,4.8-5.2c2-1.8,4.3-3.1,6.7-4.5c1.5-1,3.1-0.9,4.4,0.1c2.2,1.7,4.7,3.4,5.4,6.5
			c0.4,1.9,0.7,4.3,0,6c-0.6,1.6-0.6,3.8-2.5,5c-0.1,0.1-0.3,0.3-0.3,0.4c-0.3,3-2.5,4.9-4.2,6.9c-2.9,3.5-6.2,6.8-9.3,10.1
			c-1.4,1.4-3.8,1.2-5-0.1c-0.5-0.5-1.2-0.8-1.7-1.4c-0.3,0.7-0.6,1.5-0.7,2.2c-0.6,1.9-1,3.8-1.5,5.6c-0.9,3.2-1.5,6.3-0.2,9.2
			c0.7,1.5,2,0.9,3.1,0.6c3.1-0.6,6-2.3,8.7-4.3c1.2-0.8,2.6-1.5,3.9-2.4c0.1-0.1,0.4-0.3,0.4-0.3c-0.1-1.8,1.4-1.4,2.2-1.9
			c1.2-0.8,2.2-1.9,3.3-2.9c2.3-1.9,4.6-3.7,7-5.5c1.4-1,2.7-2,4.1-3c0.1-0.1,0.4,0,0.9-0.1c-1.4,1.1-2.4,2.1-3.5,3.1
			c0.1,0.1,0.3,0.3,0.4,0.4c0.9-0.7,2-1.4,3-2.2c1.1-0.9,2.2-1.9,3.3-2.9c0.5-0.5,1.1-1.1,1.6-1.6V236.5z M289.3,235.6
			c-0.3,0.7-0.4,1.5-0.7,2.2c0.1,0.1,0.3,0.3,0.4,0.4c1.4-1.3,2.7-2.6,4.1-3.8c1.6-1.6,3.3-3.3,4.9-4.9c0.7-0.6,1.5-1,2-1.6
			c0.8-1.1,1.5-2.4,2.4-3.5c1.9-2.4,3.1-5.1,3.2-8.1c0-1-0.4-1.2-1.2-0.6c-1.4,1-2.7,2-3.9,3.1c-1.9,1.8-4,3.4-5,6
			c-0.3,1-1.5,1.7-2.6,2.8c0.7,1.1-0.3,2.1-1.3,3.2c-0.3,0.3-0.4,0.7-0.5,1.1c-0.7,1.4-1.4,2.7-2,4L289.3,235.6z M310.8,244.9
			c0.8,0.8,1.5,0.8,2-0.1c0-0.1,0-0.3,0-0.4c-0.7,0.2-1.4,0.4-2,0.7V244.9z M324.3,232.1c0.9-1,1.9-1.9,2.9-2.9
			c-0.3,1.4-1.1,2.5-2.7,2.8L324.3,232.1z"/>
		<path class="st1" d="M365.9,218.5c0.5,0.6,0.4,1.2-0.8,1.9c-1.8,0.9-3.5,1.9-5.1,3c-1.6,1.1-3.1,2.5-4.9,3.9
			c0.9,0.8,1.9,1.5,2.6,2.6c1.7,2.1,3.1,4.4,3.2,7.3c0.1,2.4,0.3,5-0.1,7.5c-0.9,4.6-2.7,9-5.4,12.9c-1.5,2.2-3.3,4.1-4.8,6.2
			c-1,1.3-1.7,2.9-2.8,4.2c-2.1,2.5-4.1,5.2-6.5,7.5c-2.2,2.1-4.6,3.9-7,5.9c-0.8,0.6-1.8,1.1-2.4,1.9c-0.9,0.9-1.6,2.1-2.6,2.9
			c-3.9,3-8,6-12.1,9c-1.5,1.1-3,2.2-4.6,3c-3.5,1.8-7,3.8-10.7,4.8c-4.3,1.2-8.3,0.1-11.1-3.2c-1.2-1.4-2.1-2.9-3-4.4
			c-1.6-2.5-1.2-5.3,0.3-8.1c1.2-2.3,2.7-4.5,4.4-6.4c0.8-0.9,1.2-2,1.9-2.9c1.2-1.5,2.6-2.9,3.8-4.3c0.7-0.9,1.1-2,1.8-2.9
			c0.5-0.7,1.4-1.4,2-2.1c0.7-0.8,1.2-1.5,1.8-2.2c1.2-1.4,2.3-2.7,3.6-3.9c0.3-0.3,1.1,0,1.8,0.1c-0.3-0.4-0.4-0.6-0.5-0.9
			c0.3-0.7,0.4-1.5,1-2c1.4-1.4,2.7-2.6,4.1-3.8c0.5-0.5,1.2-0.8,1.8-1.4c2.2-2,4.4-4,6.6-6.1c1.1-1.1,1.9-2.2,2.9-3.3
			c0.1-0.1,0.3-0.3,0.4-0.4c2.4-1.9,5.2-3.5,7.4-5.7c1.6-1.7,3.4-3.1,5.2-4.5c0.5-0.5,1.2-0.8,1.8-1.1c-0.1-0.1-0.3-0.3-0.4-0.4
			c-1.6,0.8-3.4,1.5-4.9,2.6c-4.1,2.9-8,6-12,9c-1.4,1.1-2.4,1.2-3.4,0c-1.2-1.5-2.3-3-3.2-4.6c-0.3-0.5-0.1-1.9,0.3-2.4
			c1.5-1.9,3.3-3.6,5-5.4c2-2.3,4.3-4.4,6.2-6.8c2.8-3.3,5.8-6.2,8.7-9.2c2.5-2.7,4.6-5.8,6.8-8.7c0.1-0.1,0.1-0.4,0.4-1
			c-2.4,1.6-4.6,3.1-6.8,4.4c-4.9,3-8.6,7.4-13,11.1c-1.5,1.4-2.7,2.9-3.9,4.6c-0.7,1-2.7,1.5-4.2,1.8c-1.2,0.3-2.2-0.4-2.7-1.6
			c-0.1-0.4-0.4-0.6-0.7-0.9c-1.2-0.8-1.2-2.6,0.1-3.7c2.6-2.3,5.2-4.6,7.8-6.9c2.3-2,4.6-4,7-6c1.1-0.9,2.2-2,3.3-2.9
			c2.9-2.6,6.1-4.6,9.5-6.3c1.8-0.9,3.5-1.9,5.3-2.7c2.4-1.2,4.9-0.7,6.4,1.9c0.7,1,1.4,2,1.9,3.1c0.8,1.8-0.4,3.7-1.3,5.3
			c-1,1.6-2.2,3.1-3.5,4.6c-0.5,0.7-1.4,1.4-1.9,2.1c-2.5,3.5-5.3,6.8-8.3,9.8c-0.1,0.1-0.3,0.4-0.4,0.7c0.4,0,0.7,0.1,0.8,0
			c3.9-1.5,7.8-1.9,11.6-0.5c0.7,0.2,1.6-0.2,2.3-0.3c-0.1,0.1-0.4,0.4-0.8,0.8c0.7,0.3,1.2,0.7,2,1.1c3.8-2.3,7.7-4.8,11.8-7.2
			L365.9,218.5z M351.1,245c2.4-4.3,3.3-8.7,2.7-13.3c-0.1-0.5-0.8-1.3-1.3-1.2c-0.7-0.1-1.8,0.3-2.2,0.9c-0.7,0.9-1.1,0.8-1.6,0.2
			c-0.7-0.7-1.3-0.7-2.3,0.4c0.9,0.2,1.6,0.4,2.7,0.5c-2.3,1.8-4.4,3.2-6.4,4.6c-0.1-0.1-0.3-0.3-0.4-0.4c1.4-1.2,2.7-2.4,4.1-3.7
			c0-0.1,0-0.3,0-0.4c-1.4,0.5-2.7,1.1-4.2,1.7c0.4,0.4,0.5,0.6,0.9,1.1c-0.8,0.1-1.4,0.1-1.9,0.2c-0.4,0-0.9,0-1.1,0.1
			c-1.1,1.1-2.8,1.2-3.3,3.1c0,0.1-0.3,0.3-0.4,0.4c-0.8,0.6-1.6,1.2-2.4,1.9c0,0.1,0,0.3,0,0.4c-0.7,0.2-1.4,0.4-2.2,0.8
			c0.3-0.6,0.4-1,0.6-1.4c0-0.1,0-0.3,0-0.4c-0.4,0.4-0.8,0.9-1.2,1.4c0.1,0.5,0.1,0.9-0.1,1.4c-0.4,0.7-1,1.3-0.2,2
			c2.4-1.8,4.8-3.5,7.1-5.2c0.4-0.3,1.5-0.6,1.5-0.4c0.4,1,0.9,0.3,1.5,0c0.5-0.3,1.1-0.8,1.6-1.3c-1.5,1.6-3,3.3-4.5,5l-0.3,0
			c-2.4,1.9-4.9,3.8-7.4,5.7c-1.9,1.4-3.3,3.6-5.6,4.5c-1,0.4-1.6,1-1.8,2.1c0,0.3-0.7,0.6-1.1,0.9c-1.2,0.9-2.7,1.8-3.5,3
			c-0.5,0.7-0.8,1.6-1.9,1.8c-0.3,0-0.5,0.3-0.8,0.5c-1.1,1.1-2.2,2.1-3.3,3.2c-0.1,0.1-0.4,0.4-0.4,0.6c0.3,1.2-0.7,1.8-1.4,2
			c-1.5,0.6-1.9,1.8-2.6,3c-0.1,0.3-0.3,0.7-0.5,1c-2.5,2.7-5,5.4-7.4,8.1c-0.7,0.8-1.6,1.4-1.9,2.2c-1,2.8-2.7,5.3-4.1,8
			c-0.7,1.3-0.9,2.8-1.2,4.3c0,0.4,0.5,1.2,0.8,1.1c1.1,0,2.2-0.1,3.2-0.4c5.8-1.3,10.8-4.7,15.9-8.1c3.1-2.1,6-4.7,9-7.2
			c2.6-2.2,5.2-4.3,7.7-6.7c1.9-1.8,3.7-3.8,5.5-5.9c3.3-3.7,6.7-7.3,9.6-11.3c2.4-3.4,4.2-7.2,6.1-10.8L351.1,245z M297.5,277.5
			c-1.2,0.8-1.4,2.3-2.2,3.5c0.9-1.1,1.9-2.1,2.9-3.1c-0.1-0.1-0.3-0.3-0.4-0.4L297.5,277.5z M340,265.9c0.7-0.8,1-1.7,1.4-2.6
			c-0.3,0.2-0.5,0.3-0.7,0.5c-2.3,2.6-4.7,5.1-7.2,7.7c-1.6,1.8-3.4,3.6-5.3,5.2c-4,3.4-8.1,6.7-12.1,10.1c-4.1,3.5-8.9,6-13.3,8.8
			c-1.1,0.7-2.3,1.2-3.4,1.7c-0.9,0.4-1.9,0.8-2.8,1.1c0,0.1,0,0.3,0,0.4c5.4-1.1,10.4-3.6,14.9-7.2c0-0.1,0-0.4,0-0.5
			c0.7-0.2,1.4-0.3,1.8-0.6c1.4-1,2.7-2,4.1-3.1c1.8-1.4,3.5-3,5.2-4.5c1.1-0.9,2-2,3.1-2.9c2.4-2,4.9-3.9,7-6.3
			c2.3-2.6,4.8-5,7.2-7.7H340z M299.1,276.5c1.8-0.6,1.8-2.8,3.2-3.7C300.3,273.1,300,275.1,299.1,276.5z M303.8,272.6
			c-0.8,1.2-1.6,2.3-2.5,3.5c0.1,0.1,0.3,0.3,0.4,0.4c0.9-1.2,1.9-2.4,2.9-3.5c-0.1-0.1-0.3-0.3-0.4-0.4L303.8,272.6z M304.5,270.1
			c0,0,0.1,0.1,0.3,0.5c2.6-2.9,5.1-5.6,7.6-8.3c0.1,0.1,0.3,0.3,0.4,0.4c-0.4,0.7-0.8,1.4-1.2,2.2c0.1,0.1,0.3,0.3,0.4,0.4
			c1.1-1.1,2.2-2.1,3.3-3.2c0-0.1-0.1-0.3-0.1-0.4c-0.4,0.2-0.8,0.4-1.2,0.5c0-0.1,0-0.3,0-0.4c0.7-0.8,1.4-1.5,1.9-2
			c0.7,0.1,1.1,0.1,1.5,0.3c0.1,0,0.4-0.6,0.4-0.6c-0.3-0.3-0.7-0.5-1.1-0.8c1.5-1.5,3-2.9,4.5-4.4c1.1-1.1,2.1-2.4,3.3-3.3
			c0.8-0.6,1.8-1.9,3.2-0.9c-1.2-1.5,0.3-2,1-2.8c0.7-0.6,1.5-1.1,2.3-1.8c-0.5-0.4-0.9-0.6-1.1-0.7c-0.7,0.7-1.5,2.2-2.3,2.3
			c-1.2,0.1-1.5,1-2.2,1.6c-0.4,0.3-0.9,0.7-1.4,1.1c-0.3,0.3-0.4,0.7-0.8,1.3c-0.5-0.1-1.2,0-1.2,1.1c0,0.1-0.5,0.6-0.7,0.6
			c-1.2-0.1-1.8,0.5-1.9,1.6c0,0.3-0.3,0.6-0.5,0.9c-0.9,0.9-1.9,1.7-2.7,2.6c-0.5,0.5-0.8,1.2-1.4,1.6c-1.1,0.9-2.7,1.6-3.3,2.8
			c-0.8,1.6-2.3,2.3-3.3,3.6c-1,1.5-2.1,2.8-3.2,4.3H304.5z M309,266.9c-0.8,1-1.6,2.1-2.5,3.1c0.1,0.1,0.3,0.3,0.4,0.4
			c0.8-1,1.6-2.1,2.5-3.1C309.3,267.2,309.2,267,309,266.9z M337.9,270.9c-1.2,1.4-2.5,2.7-3.7,4.1
			C335.5,273.6,336.7,272.2,337.9,270.9z M341.6,263c1.4-0.7,1.9-1.8,2.5-3c-0.1-0.1-0.3-0.3-0.4-0.4c-0.7,1.2-1.4,2.3-2.1,3.5V263z
			 M358.3,220.8c-0.9,0.5-1.9,1-2.8,1.5c-0.1-0.1-0.3-0.3-0.4-0.4c0.9-0.5,1.9-1,2.8-1.5c0.1,0.3,0.3,0.5,0.4,0.8V220.8z
			 M363.6,218.5c-1.6,0.8-3.2,1.7-4.9,2.6c-0.1-0.3-0.3-0.5-0.4-0.8c1.6-0.8,3.2-1.7,4.9-2.6c0.1,0.1,0.3,0.3,0.4,0.4V218.5z"/>
		<path class="st1" d="M409.6,202.2c-0.1-0.1-0.3-0.3-0.4-0.4c0.3-0.7,0.6-1.4,0.8-2.1c-0.1,0-0.3,0-0.4,0c-1.8,2.9-3.6,5.8-5.4,8.7
			c-0.1,0.1,0.1,0.5,0.4,1.3c1.7-2.6,3.2-4.8,4.7-7c0.1,0,0.3,0,0.4,0c-0.1,1.2-0.3,2.4-0.5,3.8c0.4-0.2,0.7-0.2,0.9-0.3
			c-0.1,0.3-0.1,0.4-0.3,0.6c-1.2,1.6-2.3,3.2-2.9,5.3c-0.7,2.5-2.7,4.9-4.1,7.3c-1,1.6-1.8,3.3-2.9,4.8c-1.1,1.5-2.5,2.9-3.8,4.1
			c-1.6,1.4-4.2,0.3-5.2-1.2c-1.8-2.6-3.7-5.3-4.1-8.6c-0.5-3-1.5-6-0.6-9.4c0.1-0.7-0.3-1.5-0.2-2.3c0-0.8,0.3-1.6,0.3-2.4
			c0-0.5-0.1-1.1-0.2-1.9c-1,1.7-1.7,3-2.4,4.3c-0.4-0.1-0.7-0.2-0.7-0.2c-0.3,1-0.4,1.8-0.9,2.5c-1.8,3.2-3.6,6.2-5.4,9.2
			c-0.4,0.6-0.9,1.2-1.4,1.8c-0.8,1.2-1.5,2.4-2.4,3.6c-1.5,1.9-3,3.8-4.6,5.8c-0.7,0.9-1.5,1.6-2.2,2.5c-2.6,3.1-6.1,1.9-7.4-0.9
			c-0.5-1-0.9-2-1.5-3.1c-1.3-1.9-1.6-4.1-1.1-6.5c0.6-2.5,1.3-5,2.3-7.4c2.1-4.8,4.4-9.6,6.8-14.4c2.5-4.9,5.2-9.8,7.8-14.6
			c0.7-1.3,1.7-2.5,2.6-3.7c0.1-0.3,0.9-0.4,1.2-0.3c1.9,1.4,3.4,3,5.4,4.2c1.6,1,2,2.7,2.7,4.3c0.5,0.9,1.1,1,1.8-0.1
			c1-1.5,2.1-2.9,3-4.4c0.3-0.4,0.3-1.1,0.4-1.7c-0.1-0.1-0.3-0.3-0.4-0.4c0.4-0.8,0.8-1.7,1.4-2.7c1.5,1.2,2.9,2.4,4.3,3.6
			c2.5,2.2,1.9,5.4,1.3,8.5c-0.6,3.3-1.8,6.5-2.6,9.9c-0.6,2.5-1.3,5-1.6,7.5c-0.5,3-0.5,6-0.7,9c0.1,0,0.3,0,0.4,0
			c0.3-0.3,0.5-0.5,0.8-0.8c1.2-1.6,2.5-3.3,3.7-4.9c0.4-0.6,0.7-1.3,1.6-1c0.3,0.1,0.9-0.7,1.4-1.1c0.4-0.4,0.5-1,0.9-1.3
			c0.8-0.8,0.4-1.1-0.4-1.4c0.3-0.4,0.5-0.9,1-1.6c0.1,0.7,0.1,1.1,0.2,1.9c2.5-3.5,4.7-6.7,7-10.1c0.7,0.7,2.3,0.1,2.1,1.6
			c0,0.7-0.7,1.4-1.1,2.2L409.6,202.2z M374.4,209.6c1.9-2.9,3.9-5.8,5.8-8.7c1.9-2.9,0.8-5.6,0.6-8.3c-0.1-0.1-0.3-0.3-0.4-0.4
			c-1.1,1.5-2.3,3-3.4,4.4c-1,1.5-1.7,3-2.6,4.5c-1.7,2.6-4,4.9-4.3,8.2c0,0.4-0.4,0.8-0.7,1.3c-1.2,2.3-2.7,4.6-3.8,6.9
			c-0.3,0.7,0,1.6,0,2.6c2.3-1.4,4.9-5.3,4.7-6.5c0.5-0.3,1.1-0.7,1.5-1.1c0.8-1,1.6-2.1,2.3-3.1L374.4,209.6z M387.2,196.6
			c1.8-1.7,2-3.9,2.7-5.8c-0.1-0.1-0.3-0.3-0.4-0.4c-0.7,1.2-1.4,2.2-1.9,3.3c-0.8,1.6-1.5,3.1-2.4,4.6c-0.7,1.3-1.7,2.5-2.5,3.7
			c-0.7,0.9-1.4,1.8-2.1,2.8c-1.1,1.8-2.2,3.5-3.3,5.2c-0.3,0.4-0.3,1-0.4,1.5c0.7-0.3,1.1-0.8,1.4-1.2c1.1-1.5,2.1-3.1,3.2-4.5
			c0.4-0.6,1.2-1.1,1.5-1.8c1.1-2.4,3.2-4.5,3.9-7.2c0-0.1,0.3-0.3,0.4-0.4L387.2,196.6z M407.5,199.2c-0.8,1.2-1.6,2.3-2.5,3.7
			c-0.1-0.1-0.3-0.3-0.4-0.4c0.8-1.2,1.6-2.3,2.5-3.5c0.1,0.1,0.3,0.3,0.4,0.4V199.2z"/>
		<path class="st1" d="M257.3,130.6c0,1.2,0.5,2.4-0.2,3.8c-0.4,0.8-0.4,1.8-0.7,2.7c-0.5,1.4-1.2,2.9-1.9,4.2
			c-0.4,0.8-1.1,1.5-1.6,2.3c-0.7,1.4-1.8,2.6-2.7,3.9c-0.1,0.1-0.2,0.1-0.3,0.2c-0.5,0.5-1.1,1.1-1.6,1.6c-0.5,0.5-0.9,1.1-1.4,1.6
			c-0.3,0.3-0.5,0.5-0.8,0.8c-0.4,0.3-0.7,0.5-1.1,0.8c-0.1,0.1-0.3,0.1-0.3,0.1c-0.7,0.9-1.6,0.8-2.6,0.9c-0.6,0-1.1,0.4-1.2,1
			c-0.1,0.5-0.4,1.1-0.5,1.6c-0.1,0.1-0.1,0.3-0.2,0.4c-0.2,0.7-0.3,1.3-0.4,2c0.4,0.8-0.5,1.5-0.6,2.3c-0.1,0.8-0.3,1.6-0.5,2.3
			c-0.1,0.5-0.3,1-0.4,1.5c-0.1,0.6-0.3,1.2-0.4,1.8c-0.3,1.5-0.7,2.9-1,4.3c-0.4,1.6-0.8,3.1-1.2,4.7c-0.1,0.2-0.2,0.4-0.3,0.5
			c-0.1,0.1-0.2,0.3-0.2,0.4c0.1,0.9-0.4,1.8-0.5,2.7c0,0.4,0,0.7,0,1.1c0,0.4,0,0.8-0.3,1.1c-0.4,0.3-0.6,0.1-0.9,0
			c-0.8-0.2-1.2-0.7-1.1-1.6c0.1-1.1,0.3-2.2,0.3-3.3c0-1-0.2-2-0.1-3c0.1-1.5,0.4-3.1,0.7-4.7c0.2-1.1,0.4-2.3,0.7-3.4
			c0.6-2.5,1.2-5,1.8-7.5c0.3-1.1,0.5-2.3,0.8-3.5c0.3-1.2,0.7-2.4,0.9-3.7c0.1-0.3,0.1-0.7,0.1-0.9c0.3-1.2,0.5-2.4,0.8-3.6
			l1.4-5.1c0.4-1.4,0.8-2.8,1.1-4.2c0.3-1.1,0.5-2.3,0.8-3.5c0.2-0.9,0.4-1.9,0.5-2.9c0.1-0.4,0-0.7,0-1.1c1.2-0.1,2.2,0.2,3.2,0.6
			c0.1,0,0.2,0.3,0.3,0.4c0.3,1.3,0.1,2.6-0.1,3.9c-0.1,0.6,0,1.2-0.1,1.7c-0.3,1.2-0.8,2.3-1.1,3.4c-0.1,0.5-0.1,1-0.1,1.5
			c0,0.2-0.1,0.4-0.2,0.5c-0.5,0.4-0.4,0.8-0.3,1.3c0.1,0.1,0.1,0.3,0,0.3c-0.6,0.4-0.1,1.1-0.5,1.6c0.1-0.1,0.3-0.3,0.3-0.4
			c0.3-0.6,0.6-1.2,0.9-1.9c0.4-1,0.7-2.1,1.4-2.9c0.4-0.6,0.7-1.1,1-1.7c0.4-0.8,0.8-1.6,1.2-2.4c0.2-0.3,0.5-0.6,0.7-0.9
			c0.6-0.9,1.2-1.9,1.8-2.8c0.3-0.4,0.6-0.7,0.4-1.2c0-0.1,0.2-0.3,0.3-0.3c0.8-0.4,1.2-1,1.5-1.8c0.2-0.5,0.8-1,1.4-0.8
			c1,0.3,2,0.5,2.6,1.4c0.2,0.4,0.3,0.9,0.3,1.4L257.3,130.6z M234.8,168c0.1-0.4,0-0.7,0-1.1c-0.6,0.7-1.4,4.9-1.2,6.5
			c0.1-0.8,0.3-1.6,0.5-2.3c0.3-1.1,0.6-2.1,0.8-3.2L234.8,168z M237.1,157.9c-0.1,0-0.1-0.1-0.2-0.1c-0.1,0.2-0.3,0.3-0.4,0.5
			c-0.2,0.5-0.3,1.1-0.4,1.6c-0.4,1.5-0.8,3-1.1,4.5c-0.1,0.7-0.2,1.4-0.3,2.2c0.2-0.1,0.4-0.1,0.4-0.1
			C235.8,163.6,236.6,160.8,237.1,157.9z M237.3,157.5c0.4-1.8,0.8-3.4,1.2-5.1C237.7,153.7,236.9,157,237.3,157.5L237.3,157.5z
			 M242.5,151c4.1-2,12.7-16.8,11.8-20.2c-0.7,0.9-1.3,1.7-1.9,2.4c-0.3,0.4-0.5,0.8-0.9,0.4c-0.2,0.3-0.4,0.4-0.5,0.7
			c-0.6,1-1.2,2-1.8,3c-0.7,1.1-1.4,2.3-2,3.4c-0.4,0.8-0.8,1.6-1.2,2.3c-0.3,0.6-0.8,1.1-0.3,1.7c0.1,0,0,0.3-0.1,0.4
			c-0.5,0.8-0.8,1.6-1.5,2.3c-0.1,0.1-0.2,0.3-0.3,0.4c-0.3,0.5-0.5,1.1-0.7,1.7c-0.2,0.4-0.4,0.9-0.6,1.5L242.5,151z M244.2,151.6
			c1.7-1.2,3-2.7,4.1-4.4c-0.1,0-0.1-0.1-0.2-0.1C246.8,148.5,245.5,150,244.2,151.6L244.2,151.6z"/>
		<path class="st1" d="M274.9,137.8c0.1,0.1,0.1,0.2,0.2,0.3c-0.7,0.7-1.4,1.4-2.1,2c-0.4,0.3-0.6,0.7-1.1,0.6
			c-0.1,0-0.1,0.1-0.2,0.1c-1,1.2-2.4,1.9-3.5,2.8c-0.6,0.5-1.2,1-1.2,1.8c0,0.1-0.1,0.1-0.2,0.2c-0.1,0.1-0.3,0.3-0.3,0.4
			c0.1,0.6-0.3,1-0.6,1.5c-1,1.5-2.1,3-3.1,4.5c-0.4,0.6-0.8,1.1-1.2,1.6c-1.1,1.2-2,1.5-3.1,0.6c-1-0.7-1.8-1.5-2.6-2.3
			c-0.3-0.4-0.4-1-0.5-1.6c-0.1-1.2,0.1-2.4,0.6-3.6c0.5-1.2,0.8-2.4,1.2-3.5c1.1-3,1.7-6,3.2-8.8c0.8-1.4,1.6-2.9,2.4-4.3
			c0.7-1.2,1.5-2.3,2.3-3.7c0.6,0.2,1.2,0.3,1.7,0.6c1.1,0.7,2.1,1.4,3,2.3c0.6,0.6,0.8,1.5,1.2,2.3c0.1,0,0.1,0.2,0,0.2
			c-0.5,0.9-0.3,1.8-0.4,2.6c-0.3,1.8-0.7,3.6-1.1,5.5c0.1-0.1,0.3-0.1,0.5-0.2c0.5-0.3,1.1-0.6,1.6-0.8c0.2-0.1,0.4,0,0.6-0.1
			c0.7-0.7,1.7-0.3,2.4-1L274.9,137.8z M258.2,151.9c2.2-2,3.5-4.4,5.1-6.6c-1.1-0.5-2.2-1-3.2-1.5c-0.7,2.6-2.1,5.1-1.9,8
			L258.2,151.9z M264.2,129.5c-1.5,2.1-2.6,4.5-3.7,6.8c0.1,0,0.1,0.1,0.2,0.1c1.2-2.3,2.4-4.5,3.7-6.8c-0.1,0-0.1,0-0.2,0
			L264.2,129.5z M267,138.6c0.2-0.4,0.2-1,0.8-1c0.1,0,0.1-0.2,0.2-0.4c-0.2,0-0.3,0-0.4,0c-0.1,0-0.1-0.1-0.2-0.1
			c0.3-0.3,0.7-0.5,0.8-0.8c0.2-0.3,0.3-0.7,0.3-1.2c0.1-0.4,0-0.7,0-1.1c-0.1,0-0.1,0-0.2,0c0,0.1,0,0.1,0,0.2s-0.1,0.1-0.2,0.3
			c0.1-1.9,0.3-3.8-0.5-5.6c-0.4,0.5-0.8,0.8-1,1.2c-0.6,1-1.2,1.9-1.8,2.9c-0.2,0.3-0.5,0.7-0.6,0.9c-0.1,0.8-0.7,1.5-0.9,2.3
			c-0.3,1.5-1.1,3-1.7,4.4c-0.2,0.5-0.2,1-0.3,1.5c-0.1,0.5,0.1,0.6,0.6,0.5c0.9-0.3,1.9-0.5,2.8-0.8c0.4-0.1,0.8-0.5,0.9-0.8
			c0.4-0.8,0.7-1.7,1.1-2.6L267,138.6z M269.4,137c0.1,0,0.1-0.1,0.1-0.2c0.2-1.1,0.4-2.2,0.6-3.3c-0.2,0-0.4,0-0.7,0.1
			c0.7-1,0.5-1.7,0.1-2.5c-0.1,1.5-0.3,3-0.4,4.5c0,0.2,0.1,0.5,0.1,0.7c0,0.1-0.1,0.3-0.1,0.4c-0.1,0.3-0.3,0.5-0.4,0.8
			c-0.1,0.3-0.1,0.6-0.3,0.9c-0.3,0.9-0.7,1.7-1,2.4c0.1,0,0.1,0.1,0.2,0.1c0.3-0.1,0.8-0.3,0.9-0.5c0.4-0.7,0.6-1.5,0.9-2.3
			c0.1-0.4-0.2-0.9,0.3-1.3L269.4,137z M267.9,135.2c-0.1,0.4-0.3,0.8-0.4,1.3c-0.1,0-0.1,0-0.2,0c0.1-0.4,0.3-0.8,0.4-1.3
			c0.1,0,0.2,0,0.4,0H267.9z"/>
		<path class="st1" d="M289.3,132.5c0,0.3-0.3,0.8-0.5,1.1c-0.2,0.1-0.8,0-1-0.2c-0.7-0.5-1.2-1.3-1.4-2.3c-0.1-0.5-0.1-1.1-0.2-1.6
			c0-0.3-0.1-0.6-0.1-0.9c-0.8,0.4-1.1,1.1-1.3,1.7c-0.1,0.3-0.1,0.5-0.1,0.7c-0.1,0.1-0.2,0.4-0.3,0.4c-1,0.2-1.1,1.2-1.5,1.8
			c-0.5,0.8-0.8,1.6-1.2,2.4c-0.5,1.2-1.1,2.4-1.6,3.5c-0.4,0.9-0.9,1.8-1.3,2.7c-0.5,1.1-0.9,2.2-1.3,3.3c-0.3,0.8-0.6,1.6-0.9,2.4
			c-0.2,0.5-0.3,1-0.4,1.6c-0.1,0.3-0.1,0.5,0,0.7c0.1,0.7,0,1.2-0.7,1.7c-0.1,0.1-0.2,0.3-0.3,0.4c-0.4,0.3-0.7,0.6-1.1,0.1
			c-0.2-0.3-0.8-0.4-1.1-0.7c-0.5-0.3-0.8-0.7-0.5-1.4c0.1-0.2,0-0.4,0-0.7c-0.1-0.8-0.3-1.6-0.4-2.4c0-0.7,0.1-1.3,0.2-2
			c0.5-2.2,0.9-4.5,1.4-6.7c0.3-1.1,0.8-2.3,1.2-3.4c0.1-0.4,0.1-0.8,0.1-1.1c0.1-0.3,0.3-0.5,0.3-0.7c0.5-1.8,1-3.7,1.5-5.5
			c0.3-0.8,0.5-1.6,0.7-2.4c0.1-0.2,0-0.4,0-0.6c0-0.2,0-0.7,0.1-0.7c0.3-0.1,0.7-0.1,0.9-0.1c0.8,0.1,1.3,0.7,1.9,1
			c0.9,0.4,1.1,1.2,1.1,2.2c0,0.3-0.2,0.5-0.3,0.8c-0.3,0.8-0.6,1.6-0.9,2.4c-0.3,0.6-0.4,1.3-0.6,1.9c0.1,0,0.1,0.1,0.2,0.1
			c0.3-0.7,0.6-1.4,1-2c0.5-0.8,1-1.6,1.5-2.3c0.3-0.4,0.5-0.9,0.7-1.3c0.4-0.8,0.8-1.5,1.4-2.2c0.2-0.3,0.8-0.4,1.1-0.4
			c0.9,0.2,1.9,0.4,2.5,1c0.9,0.8,1.4,1.9,1.4,3.3C289.1,129.8,289.1,131.2,289.3,132.5L289.3,132.5z M282.4,129.9
			c-0.8,0.4-3,4.2-2.8,5C280.5,133.2,281.4,131.6,282.4,129.9z"/>
		<path class="st1" d="M315.3,103.9c0.1,0.1,0.2,0.2,0.2,0.3c-0.1,1-0.1,2-0.3,3c-0.1,0.4-0.1,0.8-0.5,1c0,0.5,0,0.9,0,1.3
			c0,0.1-0.1,0.2-0.1,0.2c-0.8,0.2-0.5,0.8-0.7,1.3c-0.1,0.4-0.3,0.7-0.4,1.1c-0.1,0.3-0.2,0.6-0.3,0.9c-0.3,0.6-0.7,1.2-0.7,1.8
			c-0.1,0.9-0.7,1.5-0.9,2.3c-0.1,0.7-0.5,1.4-0.7,2c-0.2,0.5-0.3,1-0.5,1.5c-0.7,1.4-1.5,2.7-2.3,4c-0.1,0.3-0.2,0.5-0.3,0.8
			c-0.7,1.3-1.4,2.6-2,3.9c-0.7,1.5-1.5,3.1-2.2,4.7c-0.3,0.5-0.4,1.2-0.9,1.6c-0.3,0.2-0.5,0.4-0.8,0.4c-0.4,0.1-0.5,0.3-0.5,0.8
			c0.1,0.2-0.1,0.5-0.2,0.7c-0.1,0.6,0.3,1.3-0.4,1.8c0.3,0.4-0.1,0.5-0.3,0.7c0.5,0.3,0.5,0.7,0.1,1.2c-0.3,0.3-0.1,0.8-0.1,1
			c-0.3,0.9,0.3,1.6,0.2,2.4c-0.1,0.7,0.1,1.5,0.3,2.2c0,0.5,0.4,0.6,0.8,0.3c0.8-0.6,1.6-1.2,2.3-2c0.9-1.1,1.8-2.2,2.7-3.3
			c0.1-0.1,0.3-0.2,0.4-0.3c-0.2,0.4-0.4,0.7-0.5,1.1c1.2,0,1.7-1,2.4-1.7c0.2-0.2,0.4-0.3,0.5-0.5c0.1,0,0.1,0.1,0.2,0.1
			c-1.1,1.6-2.3,3.2-3.4,4.9c0.3,0.3,0.2,0.5-0.1,0.9c-0.7,0.8-1.3,1.7-1.9,2.6c-0.1,0.1-0.3,0.3-0.5,0.4c-1.3,0.6-2.4,0.6-3.4-0.3
			c-1.4-1.2-2.4-2.6-2.7-4.4c-0.1-1,0-2,0-3c0-0.1,0.1-0.2,0.1-0.2c0.7-0.3,0.4-0.5,0.2-0.8c-0.1-0.1,0-0.5,0.1-0.9
			c0.2,0.3,0.2,0.4,0.3,0.5c0.1-0.1,0.1-0.1,0.1-0.1c0.2-0.9,0.4-1.8,0.6-2.7c0.1-0.4,0.2-0.7,0.2-1c0-0.2-0.2-0.4-0.2-0.7
			c0-0.3,0-0.6,0-0.9c0.1,0,0.1,0,0.2,0c0.1,0.2,0.1,0.5,0.1,0.9c0.3-1,0.5-1.8,0.8-2.7c0.5-1.8,1-3.6,1.5-5.3
			c0.4-1.5,0.9-2.9,1.3-4.4c0.6-2.1,1.2-4.2,1.8-6.3c0.6-1.9,1.3-3.9,1.9-5.9c0.3-0.8,0.3-1.7,0.8-2.4c0.3-0.4,0.4-0.9,0.4-1.3
			c0.1-0.4,0.1-0.7,0.1-1.1c0-0.1,0-0.1,0.1-0.2c0.8-0.7,0.8-1.8,1.2-2.7c0.7-1.6,1.3-3.3,2-4.9c0.1-0.4,0.3-0.6,0.8-0.3
			c0.6,0.4,1.4,0.7,2,1c0.9,0.5,1.6,2.2,1.5,3.3c-0.1,0.3,0,0.5,0.1,0.7L315.3,103.9z M299.5,138.9c0.1-0.5,0.1-0.9,0.2-1.4
			c-0.1,0-0.1,0-0.2,0c-0.1,0.5-0.1,0.9-0.2,1.4c0.1,0,0.2,0,0.4,0H299.5z M299.7,132.9c-0.4-0.2-0.3-0.5,0.3-1.2
			c-0.1,0.4-0.1,0.8-0.2,1.3L299.7,132.9z M300.4,130.5c-0.1,0-0.1,0-0.2,0c0-0.1-0.1-0.1,0-0.2c0.1-0.4,0.3-0.8,0.4-1.3
			c0.1,0,0.1,0,0.2,0C300.6,129.5,300.5,130,300.4,130.5L300.4,130.5z M300.7,133.9c0.2-0.5,0.4-1.1,0.5-1.6c-0.1,0-0.1,0-0.2,0
			c-0.3,0.5-0.5,1-0.7,1.5c0.1,0,0.1,0.1,0.2,0.1L300.7,133.9z M301.9,129.8c-0.1,0-0.2,0-0.4,0c-0.1,0.5-0.1,0.9-0.2,1.4
			c0.1,0,0.1,0,0.2,0C301.6,130.8,301.7,130.3,301.9,129.8z M302.8,122.6c-0.2,0.4-0.4,0.9-0.5,1.3c-0.1,0-0.1,0-0.2,0
			c0.1-0.4,0.3-0.8,0.4-1.3c0.1,0,0.1,0,0.2,0L302.8,122.6z M313.5,108.4c0-0.4,0-0.7,0-1.1c-0.1,0-0.1,0-0.2,0
			c-0.1,0.6-0.3,1.2-0.4,1.8c-0.1,0-0.2,0-0.4,0c0.4-2.3,1-4.7,0.3-7.1c-0.4,0.8-0.7,1.4-1,2.1c-0.2,0.4-0.2,0.9-0.3,1.3
			c-0.4,1.1-0.8,2.2-1.2,3.3c-0.4,1-0.8,2-1.2,3c-0.4,1-0.9,2-1.4,3c-0.1,0.2-0.1,0.4-0.1,0.6c-0.3,0.3-0.6,0.7-0.5,0.8
			c0.3,0.5,0,0.9-0.4,1.3c-0.2,0.1-0.3,0.4-0.3,0.7c-0.2,0.5-0.3,1-0.4,1.5c-0.1,0.1,0,0.2,0,0.4c-0.4,1.3-1.1,2.5-0.9,3.9
			c0,0.1-0.1,0.1-0.1,0.2c-0.4,0.4-0.7,0.8-1.1,1.2c0.2,0,0.4,0.1,0.5,0.1c-0.1,0.1-0.1,0.1-0.2,0.2c-0.2,0.1-0.4,0.1-0.5,0.2
			c0.1,0.2,0.2,0.4,0.2,0.4c-0.3,0.4-0.5,0.8-0.6,1.1c-0.1,0.3,0.1,0.6,0.3,1c0,0,0.1-0.1,0.1-0.1c0.6-1.1,1.2-2.3,1.9-3.3
			c0.4-0.6,0.5-1.3,1.2-1.6c0.5-0.7,1-1.2,1.4-1.9c0.3-0.4,0.4-0.6,0.8-0.3c0.1-0.2,0.1-0.3,0.1-0.4c0-0.3-0.1-0.6,0-0.8
			c0.4-0.8,0.4-1.8,1.5-2.2c0.1,0,0.1-0.1,0.2-0.2c0.3-0.4,0.5-0.9,0.1-1.4c0.2,0,0.5,0,0.5-0.1c0.3-0.6,0.7-1.3,0.6-1.9
			c0-0.6,0.1-0.7,0.5-0.8c0-0.2-0.2-0.5-0.1-0.7c0.3-0.6,0.5-1.2,0.8-1.8c0.1-0.2,0.3-0.4,0.2-0.5c-0.4-0.6,0.3-1.2,0.2-1.7
			L313.5,108.4z M304.4,120.9c-0.2,0.6-0.3,1.1-0.4,1.6c0.1,0,0.1,0,0.2,0c0.2-0.3,0.4-0.6,0.5-0.9c-0.1-0.2-0.1-0.4-0.2-0.7
			L304.4,120.9z M305.4,126.1c0.5-0.5,0.9-1.1,1.2-1.7c0.1-0.3,0.1-0.6,0.2-0.9C306.3,124.3,305.8,125.2,305.4,126.1L305.4,126.1z
			 M308.8,140c-0.5,0.8-1,1.5-1.8,2.1c0.5-0.8,1-1.5,1.5-2.3c0.1,0,0.1,0.1,0.2,0.1L308.8,140z M310.9,115.4c0.3-0.7,0.5-1.4,0.7-2
			c0.1,0,0.1,0,0.2,0C311.5,114,311.2,114.7,310.9,115.4c-0.1,0-0.1,0-0.2,0L310.9,115.4z"/>
		<path class="st1" d="M329.7,133.6c-0.1,0-0.1-0.1-0.2-0.1c0.1-0.3,0.3-0.6,0.4-0.9c-0.1,0-0.1,0-0.2,0c-0.8,1.3-1.6,2.5-2.4,3.8
			c-0.1,0.1,0,0.2,0.1,0.6c0.7-1.1,1.4-2.1,2-3.1c0.1,0,0.1,0,0.2,0c-0.1,0.5-0.1,1.1-0.2,1.7c0.2-0.1,0.3-0.1,0.4-0.1
			c-0.1,0.1-0.1,0.2-0.1,0.3c-0.5,0.7-1,1.4-1.3,2.3c-0.3,1.1-1.2,2.1-1.8,3.2c-0.4,0.7-0.8,1.4-1.3,2.1c-0.5,0.7-1.1,1.2-1.7,1.8
			c-0.7,0.6-1.8,0.1-2.3-0.5c-0.8-1.1-1.6-2.3-1.8-3.8c-0.2-1.3-0.7-2.6-0.3-4.1c0.1-0.3-0.1-0.6-0.1-1c0-0.4,0.1-0.7,0.1-1.1
			c0-0.2,0-0.5-0.1-0.8c-0.4,0.8-0.7,1.3-1,1.9c-0.2,0-0.3-0.1-0.3-0.1c-0.1,0.4-0.2,0.8-0.4,1.1c-0.8,1.4-1.6,2.7-2.4,4
			c-0.2,0.3-0.4,0.5-0.6,0.8c-0.4,0.5-0.7,1.1-1,1.6c-0.7,0.8-1.3,1.7-2,2.5c-0.3,0.4-0.7,0.7-0.9,1.1c-1.1,1.4-2.7,0.8-3.2-0.4
			c-0.2-0.4-0.4-0.9-0.7-1.4c-0.6-0.8-0.7-1.8-0.5-2.9c0.3-1.1,0.6-2.2,1-3.2c0.9-2.1,1.9-4.2,3-6.3c1.1-2.1,2.3-4.2,3.4-6.4
			c0.3-0.5,0.7-1.1,1.1-1.6c0.1-0.1,0.4-0.1,0.5-0.1c0.8,0.6,1.5,1.3,2.4,1.9c0.7,0.4,0.8,1.2,1.2,1.9c0.2,0.4,0.5,0.4,0.8,0
			c0.4-0.6,0.9-1.3,1.3-1.9c0.1-0.2,0.1-0.5,0.2-0.7c-0.1,0-0.1-0.1-0.2-0.1c0.2-0.4,0.4-0.7,0.6-1.2c0.6,0.5,1.3,1,1.9,1.6
			c1.1,0.9,0.8,2.4,0.5,3.7c-0.3,1.4-0.8,2.9-1.1,4.3c-0.3,1.1-0.6,2.2-0.7,3.3c-0.2,1.3-0.2,2.6-0.3,3.9c0.1,0,0.1,0,0.2,0
			c0.1-0.1,0.3-0.2,0.4-0.3c0.5-0.7,1.1-1.4,1.6-2.1c0.2-0.3,0.3-0.5,0.7-0.4c0.1,0,0.4-0.3,0.6-0.5c0.2-0.2,0.3-0.4,0.4-0.6
			c0.4-0.3,0.2-0.5-0.1-0.6c0.1-0.2,0.3-0.4,0.4-0.7c0.1,0.3,0,0.5,0.1,0.8c1.1-1.5,2-2.9,3.1-4.4c0.3,0.3,1,0.1,0.9,0.7
			c0,0.3-0.3,0.6-0.5,0.9L329.7,133.6z M314.4,136.9c0.8-1.3,1.7-2.6,2.6-3.8c0.8-1.3,0.3-2.4,0.3-3.6c-0.1,0-0.1-0.1-0.2-0.1
			c-0.5,0.7-1,1.3-1.5,1.9c-0.4,0.6-0.7,1.3-1.2,1.9c-0.7,1.1-1.8,2.1-1.9,3.6c0,0.2-0.2,0.4-0.3,0.5c-0.5,1-1.2,2-1.6,3
			c-0.1,0.3,0,0.7,0,1.1c1-0.6,2.2-2.3,2-2.8c0.3-0.1,0.5-0.3,0.7-0.5c0.4-0.4,0.7-0.9,1-1.4L314.4,136.9z M320,131.2
			c0.8-0.7,0.8-1.7,1.2-2.6c-0.1,0-0.1-0.1-0.2-0.1c-0.3,0.5-0.6,0.9-0.8,1.5c-0.4,0.7-0.7,1.4-1,2c-0.3,0.5-0.7,1.1-1.1,1.6
			c-0.3,0.4-0.6,0.8-0.9,1.2c-0.5,0.8-1,1.5-1.5,2.3c-0.1,0.2-0.1,0.4-0.2,0.7c0.3-0.1,0.5-0.4,0.6-0.5c0.5-0.7,0.9-1.4,1.4-2
			c0.2-0.3,0.5-0.5,0.7-0.8c0.5-1.1,1.4-2,1.7-3.1c0-0.1,0.1-0.1,0.2-0.2V131.2z M328.8,132.3c-0.4,0.5-0.7,1-1.1,1.6
			c-0.1,0-0.1-0.1-0.2-0.1c0.4-0.5,0.7-1,1.1-1.5C328.7,132.3,328.8,132.4,328.8,132.3L328.8,132.3z"/>
		<path class="st1" d="M136,42.7c-0.1-1.2-0.4-2.4-0.8-3.5c-0.5-1.1-1.1-2-2.8-2c-1.6,0-3.2-0.8-4.6-1.2c-0.8,0-1.5-0.1-2.2,0
			c-0.4,0-0.9,0.3-1.2,0.5c-0.3,0.3-0.3,0.8-0.4,1.4c0.4-0.1,0.8-0.3,1.4-0.4c0,0.5,0.1,1,0,1.2c-1,1.5-1.9,3-3,4.5
			c-1.6,2.3-3.4,4.6-5,6.9c-0.5,0.8-1.1,1.6-1.6,2.4c-0.9,1.5-1.6,3.1-2.7,4.3c-2.4,3-5.1,5.7-6.6,9.3c-0.8,1.9-2.2,3.5-3.2,5.3
			c-2.4,3.9-5,7.9-7.6,11.8c-1.1,1.6-2.2,3.3-3.2,4.9c-0.3,0.4-0.5,0.8-0.8,1.2c-0.1-0.1-0.3-0.3-0.4-0.4c2.1-3.4,4.2-6.9,6.4-10.3
			c-0.1,0.3,0,0.6,0.3,1c0.8-1.4,1.6-2.7,2.4-4.1h-0.4c-1.3,1.4-2,2.2-2.2,2.8c-0.1-0.1-0.2-0.2-0.4-0.4c-0.4,0.4-0.8,0.8-1.1,1.4
			c-1.5,2.3-3,4.8-4.5,7c-0.4,0.7-0.9,1.2-1.4,1.9c-1.5,2.6-3,5.2-4.3,7.7c-0.5,1.1-1.9,2-0.9,3.7c0,0.1-0.1,0.4-0.3,0.5
			c-1.5,2.2-2.3,4.8-4.5,6.4c-0.3,0.1-0.3,0.7-0.4,1.1c-0.1,0.7-0.1,1.4-0.4,1.9c-1.4,2.2-2.8,4.3-4.3,6.5c-0.3,0.3-0.7,0.5-1.1,0.7
			c-2.2,0.5-4.3,0.9-6.5,1.4c-0.8,0.1-1.5,0.4-2.3,0.5c-2.8,0.3-5.8,0.4-8.7,0.8c-5.7,0.8-11.4,1.8-17.1,2.7
			c-3.8,0.7-7.6,1.4-11.4,2.2c-2.3,0.5-2.6,1.9-1.1,3.8c0.5,0.8,1.1,1.6,1.6,2.4c0.5,0.9,2.2,1.8,3.4,1.6c0.5,0,1.1,0.3,1.6,0.4
			c0.4,0.1,0.9,0.4,1.4,0.3c3.2-0.5,6.4-1.1,9.6-1.6c3.8-0.5,7.6-1.1,11.4-1.6c4.1-0.5,8.1-1.1,12.5-1.6c-0.4,0.7-0.7,1.1-0.8,1.5
			c-0.3,0.5-0.4,1.1-0.7,1.8c-1.9-1.1-1.9,0.8-2.3,1.6c-3,6.1-5.8,12.2-8.5,18.3c-0.9,2.2-1.6,4.5-2.3,6.8c-0.3,0.8-0.4,2,0.9,2.4
			c1.8,0.5,3.5,0,5-0.9c1.2-0.9,2.3-2.2,2.6-3.8c0.1-0.8,0.4-1.8,0.8-2.6c1.6-3.3,3.4-6.5,5-9.7c0.7-1.2,1.4-2.4,2-3.7
			c0.9-1.9,2-3.7,3-5.6c0.9-2,1.8-4.2,2.6-6.2c0.4-1.1,1.1-1.8,2.2-1.9c1.9-0.3,3.8-0.5,5.7-0.8c2-0.3,4.1-0.4,6.1-0.8
			c2.7-0.4,5.4-1.1,8.1-1.5c3.2-0.5,6.5-1,9.7-1.5c3-0.4,6-1,9.1-1.5v0.7c-0.7,5.6-1.5,11.1-2.2,16.6c-0.9,7.6-1.8,15.2-2.6,22.7
			c-0.6,4.9-1.1,9.8-1.7,14.6c0.5-0.2,1.1-0.3,1.8-0.4c0.1-2.3,0.1-4.6,0.4-6.9c0.1-2,0.5-4.1,0.8-6.1c0.3-2.2,0.4-4.3,0.7-6.5
			c0.3-2.2,0.7-4.3,0.9-6.5c0.4-2.9,0.8-5.7,1.1-8.5c0.4-3.8,0.8-7.7,1.4-11.5c0.3-1.8,0.7-3.5,1.1-5.3c0.1-0.5,0.3-1.1,0.4-1.6h0.4
			c0,0.4,0.1,0.8,0.1,1.1c-0.3,2.4-0.7,4.9-0.9,7.3c-0.4,3.1-0.7,6.2-1.1,9.3c-0.8,5.6-1.6,11.1-2.3,16.6c-0.3,2-0.3,4.1-0.4,6.1
			l-0.3-0.5c-0.3,3.5-0.5,7-0.9,10.6c-0.1,0.8-0.2,1.6-0.3,2.4c0.8,0,1.7,0.1,2.5,0.3c0.9-1.4,2.1-2.6,3.5-3.3
			c0.1-0.3,0.3-0.5,0.5-0.6c0,0.1,0.1,0.3,0.1,0.4c0.3-0.1,0.5-0.2,0.9-0.3c0-0.3,0.1-0.7,0.1-1c0.3-1.9-0.7-4.1,0.9-5.8
			c0.1-0.1,0-0.5,0-0.8c-0.1-0.7-0.5-1.6-0.3-2c0.8-1.1,0.9-2.2,0.9-3.4c0-1,0.1-1.9,0.1-2.9c0.1-3,0.3-6,0.5-9.1
			c0.9-0.3,1.1-1.2,0.8-2.3c-0.1-0.3-0.1-0.5-0.1-0.8c0.1-1.5,0.4-3,0.5-4.6c0.1-0.9-0.3-2,0.8-2.9c0.4-0.4,0.4-1.4,0.5-2
			c0.3-2.4,0.5-4.9,0.8-7.3c0.1-0.8,0.1-1.9-0.3-2.4c-0.7-0.8-0.4-1.1,0.1-1.6c0.4-0.4,0.9-1,0.9-1.5c0.1-1.2,0.3-2,1.9-2.2
			c0.7,0,1.4-0.8,1.8-1.5c0.1-0.1-0.4-0.8-0.7-1.2c-0.4-0.7-0.9-1.2-1.5-1.8c0.5-0.4,0.9-0.7,1.4-1.1c-0.7-0.4-1.1-0.7-1.4-0.8
			c0.3-1.2,0.5-2.2,0.7-3.1c0.1-1.2-0.5-2.8,0-3.7c1.4-2.2,1.1-4.6,1.6-6.9c0.1-0.4,0-0.8,0-1.2c0-0.5-0.1-1.1,0.1-1.5
			c1.4-2.2,1.5-4.5,1.5-7.2c-0.4,0.3-0.7,0.4-0.9,0.5h-0.5l1.2-1.6c0.1,0.1,0.3,0.3,0.4,0.4c0.5-4.1,1.1-8.1,1.8-12.2
			c-0.4-0.1-0.8-0.3-1.6-0.5c2-0.5,1.8-2,2-3.3v-0.4c0.1-2.7,0.3-5.4,0.4-8.1c0.1-2,0.3-4.1,0.3-6.1c0-2.4-0.1-4.9-0.1-7.3l0.5-0.7
			C136,46.6,136.1,44.6,136,42.7z M129.1,56.2c1.4,2.3-1.1,26.1-2,28.5C127.7,75.4,128.4,65.9,129.1,56.2z M127,58h0.4
			c-0.1,1-0.3,1.9-0.4,2.9h-0.4C126.8,59.9,126.9,58.9,127,58z M126.2,72.2c-0.1,1.4-0.3,2.3-0.4,3.3C125,74.9,125,73.5,126.2,72.2z
			 M123.6,45.4l0.1-0.3c0.1,0.1,0.3,0.3,0.4,0.4c-0.7,1.1-1.4,2.2-2,3.4c-0.1-0.3-0.5-0.5-0.5-0.5C122.3,47.3,123,46.4,123.6,45.4z
			 M120.5,49.3c0.4,0.1,0.8,0.3,1.2,0.4c-0.1,0.5-0.3,1.1-0.4,1.6h-0.8V49.3z M118.5,52.3v0.3c0.1-0.4,0.9-0.5,1.5-0.8
			c0.1,0.1,0.3,0.3,0.4,0.4c-0.7,1-1.4,1.9-2,2.9h-0.4C118.1,54,118.1,53.1,118.5,52.3z M110,65c0.4-0.8,1.1-1.5,1.6-2.2
			c0.5-0.7,1.4-1.2,1.8-1.9c0.8-1.4,1.5-2.7,2.2-4.1c0.3-0.5,0.4-1.2,0.9-1.9c0.4,0.5,0.8,1.1,1.2,1.6c-0.4,0.1-0.8,0.3-1.1,0.4
			c-1.1,1.6-1.5,3.4-3.1,4.6c-1.2,1-1.8,2.9-2.6,4.3c-0.7,1.2-0.9,1.5-1.6,1.4c0.3-1,0.4-1.8,0.8-2.4L110,65z M108.2,67.7
			c0.3,0.1,0.5,0.3,0.8,0.4c-0.1,0.5-0.3,1.1-0.4,1.6c0.3,0,0.5,0.1,1.1,0.3c-0.4,0.4-0.7,1-0.9,1c-0.4,0-1.1-0.5-1.1-0.7
			c0.1-0.8,0.5-1.5,0.8-2.3L108.2,67.7z M102.8,73.7l0.1,0.1c0.8-1.1,1.6-2,2.4-3c0.3-0.3,0.7-0.4,0.9-0.7c0.1,0.4,0.3,0.8,0.4,1.2
			c0,0.1-0.1,0.3-0.1,0.4c0.3,1.6,0.3,1.6-0.3,1.8c-0.7,0.1-1.4,0.3-2,0.4c-0.5,0.1-1.1,0.3-1.8,0.4
			C102.7,74.1,102.7,73.8,102.8,73.7z M103.3,74.9l0.1,0.3c0.4,0.8,0.5,1.2,0.7,1.6c-0.7,0.4-1.2,0.7-1.8,1
			c-0.1-0.1-0.3-0.3-0.4-0.4C102.4,76.7,102.8,76,103.3,74.9z M100.3,78.1l-0.1-0.1c0.1-0.1,0.3-0.3,0.4-0.4
			c0.3,0.4,0.7,0.8,0.7,1.2c0,0.8-0.1,1.6-1.1,1.8c-0.1-0.4-0.3-0.8-0.4-1.2h0.9C100.6,79,100.5,78.5,100.3,78.1z M100.3,80.7h-0.1
			c0,1.4-1.4,1.1-1.9,1.8C98,80.7,98.3,80.4,100.3,80.7z M94.1,87.2l0.1,0.1c0.8-1.4,1.6-2.7,2.6-3.9c0.3-0.4,0.8-0.7,1.4-1
			c-0.4,1-0.8,1.9-1.1,2.9c-0.1,0.5,0.1,1.2,0.3,1.9c-0.4-0.3-0.8-0.5-1.5-1c0.3,0.7,0.4,1.1,0.7,1.8c-0.9-0.5-1.8-1-2,0.5
			c-0.1-0.1-0.3-0.3-0.4-0.4C94.1,87.9,94,87.5,94.1,87.2z M93.3,88.4v-0.1c0.3,0.5,0.5,1.1,0.5,1.1c-0.9,0.7-0.3,1.5-0.3,2.2
			c0,0.5-0.4,1.1-0.7,1.6h-0.4v-1.5c-0.5,0.1-0.9,0.3-1.6,0.5C91.7,90.8,92.4,89.8,93.3,88.4z M90.1,94.1v0.1c0.4,0.8,0.4,0.8-2,4.5
			C87.6,97.8,88.8,95,90.1,94.1z M86.7,98.6l0.1,0.3c0.1,0.1,0.3,0.3,0.4,0.4c0,2.3-1.5,3.7-3,5c-0.1-0.1-0.3-0.3-0.4-0.4
			C84.8,102.1,85.7,100.3,86.7,98.6z M95.1,117.6l-0.1-0.3c-4.6,0.8-9.2,1.2-13.8,1.8v-0.4c0.4-0.3,0.7-0.7,1.1-0.7
			c5.1-0.8,10.3-1.6,15.4-2.4c3.1-0.4,6.2-0.7,9.3-0.9c0.5,0,1.1,0.4,1.9,0.7C104.1,116.7,99.5,116.8,95.1,117.6z M118.6,109
			c-0.1,0.5-0.8,1.2-1.4,1.4c-4.5,0.8-8.9,1.5-13.4,2.3h-0.1c-4.1,0.7-8.1,1.5-12.2,2.2c-2.3,0.4-4.6,0.7-6.9,1
			c-0.4,0-0.8-0.1-1.6-0.1c12.3-22.7,27.1-43.4,42-64.1h0.4v3.3c0,2,0,4.1-0.1,6.1c0,0.5-0.1,1.1-0.1,1.6c-0.4,2.9-0.8,5.7-1.1,8.7
			c0,0.5,0.3,1.1,0.3,1.6c-0.1,1.9-0.3,3.8-0.5,5.6c-0.5,3.8-1.1,7.6-1.6,11.4c-0.1,0.7-0.1,1.4-0.4,2c-0.1,0.4-0.5,0.7-0.9,1.1
			c1.5,0.7,0.3,1.9,0.1,2.9C120.3,100.1,119.4,104.5,118.6,109z M125.3,85c-0.1,1.4-0.3,2.7-0.5,4.1c-0.4,3-0.9,6-1.5,8.9
			c-0.3,1.6-0.7,3.3-0.9,4.9c-0.3,1.9-0.4,3.8-0.8,5.6c-0.1,0.7-0.5,1.2-0.8,1.8h-0.4c0.1-1.4,0.3-2.7,0.5-4.1
			c0.4-2.6,0.8-5.2,1.4-7.7c0.3-1.5,0.8-3,1.2-4.5c0.1-0.7,0-1.4,0.1-2c0.4-2.3,0.8-4.6,1.2-6.9L125.3,85L125.3,85z M115.1,173.4
			v-0.1c-0.7-1.2,0-10.3,0.8-13.3h0.4C115.9,164.3,115.5,168.6,115.1,173.4z M116.3,159h-0.7c0.7-5.7,1.4-11.4,2-17h0.8
			C117.7,147.7,117.4,153.3,116.3,159z M118.6,141.3v0.1c-0.4-0.5-0.7-0.8-0.7-0.9c1-6.5,1.9-13,2.8-19.5h0.8
			C120.7,127.6,119.7,134.3,118.6,141.3z M121.1,137.3h-0.7c0.9-5.4,0.9-11,2.3-16.2h0.8C122.7,126.4,121.9,131.8,121.1,137.3z
			 M123.1,110.1c1.4-7.6,2.7-14.9,4.1-22.2C127.7,91,124.5,108.9,123.1,110.1z M127,111.5v-0.1c-0.9-1.1-0.8-2.9,0.4-3.8
			C127.3,108.9,127.2,110.1,127,111.5z M130.8,84.8l0.4,0.4c-0.3,0.1-0.5,0.1-0.8,0.3c-0.8,0.4-0.9,1.4-0.3,2
			c0.3,0.3,0.4,0.7,0.4,1.1c0,0.8,0,1.6-0.1,2.4c-0.4,2.2-0.9,4.3-1.6,6.5v-1.2h-0.4c-0.3,0.5-0.5,1.1-0.8,1.8
			c1.9,0.7,1.1,1.9,0.5,3.1c-0.1-0.7-0.3-1.4-0.4-2h-0.4v3.3c0,0-0.3,0.1-0.5,0.3v0.3c1.4,0.5,0.9,1.6,0.5,2.4
			c-0.7,1.4-1.5,2.6-2.4,4.2c2-12.7,4.1-25.1,6.1-37.6c0.7,2.7-1.1,5.6,0.1,8.4c-0.3,0.3-0.5,0.5-1.1,1.1c0.9,0,1.9,0.1,1.2,1.4
			l0.4,0.5c-0.4-0.1-0.8-0.3-1.2-0.4c-0.1,0.7-0.3,1.2-0.4,1.9L130.8,84.8L130.8,84.8z"/>
	</g>
</g>
</svg>
