<svg xmlns="http://www.w3.org/2000/svg" xmlns:xlink="http://www.w3.org/1999/xlink" xml:space="preserve" id="Layer_1" x="0" y="0" style="enable-background:new 0 0 411 329" version="1.1" viewBox="0 0 411 329"><style>.st1{fill:#fff}</style><defs><path id="SVGID_1_" d="M0 0h411v329H0z"/></defs><clipPath id="SVGID_00000085228352452672003410000016506371716835148472_"><use xlink:href="#SVGID_1_" style="overflow:visible"/></clipPath><g style="clip-path:url(#SVGID_00000085228352452672003410000016506371716835148472_)"><path d="M180 94c2 1 4-1 6-2l-1 1-2 4-2 2-2 2-3-1-3-6c-2-4-1-9 0-13l1-5 2-8v-3l1-4-4 3-1 1-4 5-2 3-7 10a190 190 0 0 0-9 16l-4 8-2 2v1l-2 2-3-1-4-5v-2l4-13 4-13 4-13 3-6 2-5c0-1 1-2 3-1a20 20 0 0 1 2 2v5l-3 12-2 6-1 2v1l8-11 2-3-1 2 4-5h-1l7-8-2 1-1 1h-1l2-2c2-2 4-4 6-3 1 0 2-1 3 1h1l3 1v1l1 2c2 1 3 3 2 6v5l-1 3v5c-1 4-3 7-2 10l-1 1v6zm-27-8c6-10 13-20 21-29l-1 1-5 4-1 2-1 1-3 3-4 6-4 7-3 5h1zm5-39c-1 2-3 2-4 0v-1l9-10h2l6 3 3 2h3l2-2 6-6h2c1 0 2 2 0 4l-5 6c-1 1-2 3-4 3-2 1-4-1-5-2l-6-4c-1-1-2-1-3 1a124 124 0 0 1-6 7v-1zM234 78l1-1h1l-3 3-2 3-1 1-5 6-1 2-3 3-3 3-7 6-1 1-4 2-4 2c-3 0-6-1-8-3l-7-10V85l2-5 3-7 2-5 5-7 5-5 7-5h4c3 2 5 4 6 7v6l-3 4v1c0 3-3 5-4 7l-10 9c-1 2-3 2-5 0l-1-1-1 2-1 5c-1 4-2 7-1 9s2 1 3 1l9-4 4-3c0-2 2-1 3-2l3-3 7-5 4-3h1l-4 3h1l3-2 3-2 2-2zm-34-1-1 2h1l4-3 5-5 2-2 2-3c2-2 3-5 3-8h-1l-4 3c-2 1-4 3-5 6l-2 2-2 3v1l-2 4zm22 9h2v-1l-2 1zm13-12 3-3c0 1-1 2-3 2z" class="st1"/><path d="M243 80c2 0 4 1 5 4l1 2-2-1h-5c-1 0-2 0-2 2v3l-2 5-2 9-2 5-3 9-3 6-4 7-1 2v1l-3 5-2 3-1 1c0 4-3 6-5 9l-2 1v2l-3 2v2l-4 3-2 2h-1c-2 2-4 3-7 3l-5-3-4-5c-2-3-2-7-1-11l5-10a163 163 0 0 1 13-21l11-13 6-6v1l-1 2-2 1-5 6-2 3-3 3-10 14-1 2 11-15 13-14 14-13-2 1-5 4-1 1h-1l2-3 7-5 1-1 1-6 2-8V59h2l3 5 1 8-1 7 1 2 1-1zm-15 23 3-9-2 1-3 3-8 7-3 3c-2-1-1 1-2 1v1l2-1-1 2-5 5-2 2-3 3 1 1h-1l-1 3-5 6-3 4-1 2-3 5-1 1-2 6c-2 3-2 6-2 10l3 2c2 0 4 0 6-2l8-6 4-5 2-5 4-4 5-9 1-3 4-10 2-4 1-2 2-7v-1zm-22 55-1-1-2 4 3-3zm11-16-2 3 2-3zm4-8 3-6-1 1-3 6-3 6 1-1 4-6h-1zm1-40-4 5c0-2 2-4 4-5zm7 0-4 3h1l4-3-1-1v1zm-2 28 3-7h-1l-3 7 1 1v-1zm25-97 1 5-3 7c-3 2-3 5-4 7h-1l-3 2-2 6-1 2-1-1v-8l2-6 4-12 1-3 1-3 7 4h-1z" class="st1"/><path d="M298 70v-1l1-2h-1l-5 9v1l5-7h1l-1 4h1l-3 6-4 7-3 5-4 4c-2 1-4 0-5-1-2-3-4-6-4-9-1-3-2-6-1-9v-7l-2 4h-1l-1 3-5 9-2 2-2 3-5 6-2 3c-3 3-6 1-7-1l-2-4-1-6 2-7a312 312 0 0 1 15-29l3-4h1l5 4 3 4h2l3-4v-2l1-3 4 3c3 3 2 6 2 9l-3 10-1 7-1 9h1l4-5c0-1 0-2 1-1l2-1 1-2c1-1 0-1-1-1l1-2 1 2 7-10c0 1 2 0 2 2l-1 2h-1zm-35 7 6-8c2-3 1-6 1-9h-1l-3 4-3 5c-2 2-4 5-4 8l-1 1-4 7v3l5-7 1-1 3-3zm13-13c2-1 2-4 3-6h-1l-2 3-2 5-3 4-2 2-3 6v1l1-1 3-5 2-1 4-8zm20 3-2 3h-1l3-3z" class="st1"/><path d="M350 4c3 1 2 3 2 5l-3 8-2 5v1l-3 6-2 5-3 9-2 5-2 5-2 5-2 5c0 3-2 5-3 8v3l-2 6v3c0 1-2 3-1 4v2l-1 5 1 1 4-1a232 232 0 0 1-5 8l-3-3c-2-2-3-5-3-8v-8l2-9 2-7h-1l-1 1-7 9-3 4-1 1-1 1c-1 3-4 4-6 6l-5 4c-2 1-3 0-4-1-4-5-3-10-1-16l8-16c4-5 6-11 11-15 2-1 3-3 6-3 1-1 2 0 3 1l5 4h3l2-3v-3l2-5 1-2 2-8 1-2c2-2 2-5 3-8l3-8 2-7 2-1c2 0 2 2 4 3v1zm-36 60 2-3c1-1 2-3 4-2l1-2h-1l2-3v-1h-3l-6 3-6 8-1 3-3 2-2 4-4 8h1l5-5 6-6 3-3c1-1 1-2 3-2l4-5-4 4h-1zm8-4-2 3 2-3zm1 25 1-3c-2 1-3 3-3 5l2-2zm0-31-1 1 1 1 1-2h-1zm3 22 1-4c-2 1-3 1-3 3l-1 4v2c-1 0-1 0 0 0l2-5h1zm7-20 1-6-2 1 1 1h-2v2l1 1-1 1-4 9c-1 2-2 4-1 7l1-1 1-2 1-4h-1l2-3v-1l1-2c-1-1 0-1 1-2v-1h1zM378 57v1l-5 4-2 2h-1c-2 3-5 4-8 6-1 2-3 3-3 5l-1 1c1 1 0 2-1 3l-7 11-3 4c-3 2-5 3-7 1-3-1-4-3-6-5l-1-4c-1-3 0-6 1-8l3-8 7-21 6-10 5-8 4 1 7 6 2 5h1c-2 2-1 4-1 6l-3 13 1-1 4-2h1c2-1 4 0 6-2h1zm-38 32c5-4 8-10 11-15l-7-3c-2 6-5 11-4 18zm13-51-8 15v1l8-16zm7 21c0-1 0-3 2-3v-1l-1 1v-1l2-2v-5 1c0-4 0-8-2-12l-2 2-4 7-1 2-2 5-4 10-1 4 2 1 6-2 3-2 2-6v1zm5-4 2-8h-2a366 366 0 0 0-1 5l1 2h-1l-1 2v2l-3 6h1l2-1 2-5v-3zm-3-4-1 3v-3h1zM106 163v3l-1 6-2 8-2 5v3l-1 1-1 2c0 2 0 4-2 6l1 2-2 7-2 4v1l-2 7-1 2 1 1-2 1h1l-2 6-1 5-1 2-1 4h-1a62 62 0 0 1-3 11l-2 5-1 4-1 1c0 2 0 4-2 7h1l-1 1v1l-1 3-2 4v3l-2 4-2 7-2 7-3 9-3 6-3 7v1l-4 5-2 1c-2 0-3 0-4-2h-2l-5-7-1-3-2-9-1-7-1-14-1-14a170 170 0 0 1 0-12l2 1v-2l-2 1 2-47h-1l-1 2-1 3v1l-2 5-1 2-2 7-2 5-1 1-2 7-1 3-1 2-2 7-1 4-1 1-1 5-1 1-1 3c1 2 0 3-1 4l-1 5-1 4-1 5-2 8-1 10v17l1 3-3 3-2-1c-2-1-2-4-3-6l-1-14 2-15 2-7 2-11 6-18 6-18 4-13 4-9 1-6 1-2 1-3 2-5 2-6 1-1c4-2 7-1 10 1l1 2v13l-1 8v6l-1 12v42l1 8 1 10 1 10a178 178 0 0 0 2 9c1-1 0-3 2-3l-1 4 2-1 3-8 3-10c1-1 0-2 2-2v-1l1-2v-1l1-3v1c1-1 2-1 1-3v-1 1l1-2h-1l1-3 2-3 1-2v-3l2-3v-3l3-8 4-12 2-8 3-8c1-2 2-2 2-1l-2 4v3l-1 2-1 2-1 6 1-1 3-8 2-7h-1c2 0 2-2 2-3l2-6-1 1-1-1 1-1c1 0 2-1 1-2s0-2 1-2l1-2 1-3v-2c2-2 1-4 2-6l-1-1 1-2h1v-2c-1-1 0-2 1-4l2-4-1-1-1 1-1 3-2 8-1 4-1 1v-3l1-2 2-8 1-4v-1l-1 1v-2h1l1-1 2-7 1-2-1-2h1l-1-2h2l-1-2h-1v-5c-1 1 0 3-2 3l1-6v-2h6l4 1h2zM4 288l-1 10c1-1 2-8 1-10zm2 0 2-11H7v1l-1 1v4l-1 2v3h1zm1 1 1-6-2 6h1zm1-12 1-4-1 1v3zm3-4-3 8h1l2-8zm18-58 3-10-5 10-3 9-4 14-5 11-1 6-2 5-2 8-1 3v2l2-4 5-16 3-11 1-4 2-4 2-5 2-5 3-9zm-10 32h-1l-1 4 2-4zm18 3 1-5c-2 2-2 4-1 5zm2 7-1-7 1 7zm16 41c1 1-2 7-3 8l3-8zm1-4zm4-9-1-1 3-5-2 6zm2 8v-2l-1 2h1zm3-7v-2l1-2-1 1h-1l-1 4-1 3h1v-1l2-3zm0-15h-1l2-3-1 3zm2 10v-2h-1l1 2zm1-3 1-2-3 1 2 1zm1-3 1-2v-1l-1 2v1zm7-17 2-7c-2 0-3 0-3 2l1 1h-1v1l1 1c-2 0-3 1-3 5l1-1-1 1-1 3-1 1-2 6c2 0 2-1 3-2l1-3v-1l2-4 1-4v1zm0-19c1 1 1 1-1 3l1-4v1zm2-5-2 4v-1l1-3h1zm0 15 1-4h-1v1l-1 2 1 2v-1zm0-12zm5-19-1 3-1-1 1-2h1zm2 7-1 1-1-1 2-5 3-8v-1h1l-1 3-2 6-1 6v-1zm4-2 1-2h-1l-1 3 1-1zm0-13h-1l2-4-1 4zm2-20-1 3v-3h1zm5-14c2 1 0 2 0 3v-3zm1 19-1 3 1-1v-2zm0-9c2 0 2-1 2-4l-1 1-2 4h2l-1-1zM135 257l-1-1 1-2-6 9 1 1 5-7-1 4h1l-3 6-4 7-3 5-4 4c-1 1-4 0-5-1-2-3-4-6-4-9l-1-9v-3l1-2-1-2-2 4h-1l-1 3-5 9-2 2-2 3-5 6-2 3c-2 3-6 2-7-1l-2-3-1-7 3-7 6-15 8-14 3-4h1l5 4 3 4h2l3-4v-2l1-3 5 4c2 2 1 5 1 8l-3 10-1 8-1 9 1-1 4-5 1-1 2-1 1-2-1-1 1-2 1 2 7-10c0 1 2 0 2 2l-1 2zm-35 7 5-9c2-2 1-5 1-8l-4 4-3 5c-1 2-4 5-4 8l-1 1-3 7v3l4-7 2-1 2-3h1zm12-13 3-6-2 3-3 5-2 4-2 2-4 6v1l1-1 4-5 1-1 4-8zm21 3-3 4v-1l2-3h1z" class="st1"/><path d="M200 180c1 2 1 3-1 4l-6-1h-15l-11 1-1-1 16-2-1-1-5 1h-8v1h-6l-4 1v1l8-1c0 1-1 2-3 1-2 2-4 0-5 2h-1l-1 4-1 2-2 4-2 7-2 7-3 7v1l-3 9-2 7v1l-2 3v3l-2 4-3 13-1 9 1 6h3l5-6v1l-2 3 4-5h-2l4-4-1 3 5-5 5-7 3-4 1-2v1l-3 5-3 5v4l-4 8-3 3v1l-4 4c-2 2-4 2-7 2l-3-3-3-2c-3-2-3-6-3-11l1-6 1-7 3-12 5-16 6-17 5-14v-3l1-1-10 2-2 1-4 1-7 3-11 5-5 2-6 4h-2l-1-4 1-1 5-3 5-3 7-3 5-1 1-1h3l1-1h2l-1-1h1l2-1c1-1 4-2 6-1l-3 1c2 0 3 0 3-2h3l3-2v1l3-1h2l2-2 2-8c1-1 2-3 1-4v-1c2-1 2-3 2-5l3-7v-2c0-2 1-3 3-2l3 1c2 1 2 2 2 4l-1 4-6 16-1 2h2v1h3v-1h-2l4-1-1 1 6-1h-2v-1h4l-2 1 2-1 2-1h11l2-1h3v1h5c2 0 3 0 3 2v1l1 1zm-71 79-1-3-1 8 2-5zm-1-67 8-4-4 2-4 2zm3 57c1-1 0-1-1-1l-1 8 1-2 1-4v-1zm-1-2 1 1 1-4h1v-2l1-6v-2l-1 3-3 10zm13-26h-1l6-16 5-16-3 6-3 9-3 9-5 17-4 12-4 15v3l3-11 3-11 4-11-1 3 1-1 3-7 3-9a208 208 0 0 1 4-13l1-3-1 1-3 9-4 12-1 2zm-6 4-3 9h1v-2 4-1l1-3 1-5 1-3 1 1v-4l4-10 2-8 3-9 1-3 2-5h-1l-1 2-1 4-5 11-5 17-2 5h1zm-1 22-1 3 1-3zm3-59h1l-1-1-1 1h-1 2zm1 42c-1 4-3 8-3 13l1-4 2-7v-2zm2-8c1 2-1 4-1 6h-1l2-6zm4-36 3-1v-1l-1 1-7 1v1h1l3-1zm7-5 2-6-2 6zm1 10 2-4h-1l-1 3v1zm29-12v-1l-4 1h4zm5 2h-5 5z" class="st1"/><path d="M203 244v1l-3 6-1 1v1c0 2-2 3-3 4l-2 2-1 2-3 3-3 4-2 3-2 1h-7c-2 0-3-2-5-4l-3-8v-7l-3 5-2 2-1 2-1 2-1 1-2 4-1 2c-1 3-5 6-7 5l-3-2c-3-4-5-9-3-15l5-14 5-13 2-1c2 1 3 2 3 4 0 3 0 6-2 9l-3 9-2 5-1 4v2l3-3 11-13 7-8 2-2 4-8h2l2 1 3 4-1 1-2 4-1 2-5 16-1 5 2 1c3 0 5-1 7-3l6-4 10-9 2-1 2-3h-1zm-45 15 4-4-2 1-1 1-1 2v1-1zm8-8v-1l-3 2-2 2h1l1 1 1-1 1-2 1-1zm23 10c1-1 2-2 1-3v1l-2 1-2 2-1 2 1-1 3-2zm3-3 6-6h-1l-6 5v1l1 1v-2 1z" class="st1"/><path d="m228 229-2 2h-2c-2-2-3-3-3-6l-1-3v-2c-2 1-3 2-3 4v1l-1 1-3 4-3 6-4 8-3 6-3 8-2 5-1 4v2l-2 4v1h-3l-2-1c-1-1-2-2-1-4v-1l-1-6v-4l4-15 2-8 1-3v-2l4-12 1-6v-1l1-2h2l4 2c2 1 3 3 3 6l-1 1a121 121 0 0 0-3 10v1l2-5 4-5 1-3 3-5 3-1 6 2c2 2 3 4 3 8v9zm-16-6c-2 1-7 9-7 11l7-11zM272 238h-1l1-3-6 9 1 1 5-7-1 4h1v1l-3 5-4 7-3 5-4 4c-1 1-4 0-5-1l-4-9v-9l-1-2 1-3-1-2-2 5-1-1-1 3-5 9-1 2-3 3-4 6-3 3c-2 3-6 2-7-1l-1-3c-2-2-2-4-2-7l3-7 7-15 7-14 3-4h1l6 4 2 4h2l3-4v-2l1-3 5 4c2 2 2 5 1 8l-3 10-1 8-1 9h1v-1l4-5 2-1 1-1 1-2v-1l1-2v2l7-10c1 1 2 0 2 2l-1 2zm-35 7 5-8c2-3 1-6 1-9l-4 4-2 5-5 8v1l-4 7v3c2-2 5-5 4-7l2-1 2-3h1zm12-13c2-1 2-4 3-5v-1l-2 3-3 5-2 4-2 2-4 6v1l1-1 4-4 1-2 4-8zm21 3-3 4v-1l2-3h1z" class="st1"/><path d="M298 168h1l-1 7-1 2v3l-1 1c-2 0-1 2-1 3l-1 2-1 2-1 5-3 5-1 5-2 3-5 9v2l-5 9-5 11-2 4-2 1-1 1-1 2c0 1 1 3-1 4v12l1 5c0 1 1 2 2 1l5-5 6-7 1-1-1 3c2 0 3-3 5-4l1-1h1l-8 11v2l-5 6-1 1c-3 1-5 1-8-1-3-3-5-6-6-10v-7c2-1 1-1 1-2v-2l1 1v-1l1-6 1-2-1-2v-2h1v2l2-6 3-12 3-10 4-14 5-14 2-5 1-3v-3l3-6 4-12h2l5 2c2 1 3 5 3 8v3zm-36 80 1-4h-1v4zm0-14 1-3v3h-1zm2-6v-3h1l-1 3zm1 8 1-4-2 4h1zm2-9-1 3 1-3zm3-17-2 3 1-3h1zm24-32v-3l-1 5h-1c1-6 2-11 1-17l-3 5v3l-3 8-3 7-3 6v2c-1 1-2 1-1 2l-1 3-1 1-1 4v1c-1 3-3 5-2 9l-3 3h1v1h-2l1 1-2 3 1 2 5-8 3-4 3-4 2-1v-3c1-1 1-4 3-5h1v-3h1c1-2 2-3 1-5l2-2-1-1 2-4 1-1v-5zm-21 28-1 4h1l1-2-1-2zm3 12 2-4 1-2-4 6h1zm7 32-4 5 4-5zm5-56 2-5-2 5z" class="st1"/><path d="m323 237 2-2v1l-2 3-3 3-1 1-4 7-2 1-2 4-3 3-7 6-2 1-3 2-4 1c-4 1-6-1-9-3s-5-6-6-10c-2-3-2-7-1-11l2-5 4-8 2-4 5-8 5-5 6-5h5l5 7v6l-2 5h-1c0 3-2 5-4 7l-9 10h-5l-2-1-1 2-1 5c-1 4-2 7 0 10h3c3 0 6-2 8-4l4-3h1c0-2 1-1 2-2l3-3 7-5 4-3h1l-3 3 3-2 3-3 2-1zm-34-1v2l4-4 5-5 2-1 2-4 4-8h-2l-4 3-4 6-3 3c1 1 0 2-1 3l-1 1-2 4zm22 9h2v-1l-2 1zm13-13 3-3c0 2-1 3-3 3z" class="st1"/><path d="m366 219-1 1-5 3-5 4 3 3c1 2 3 4 3 7v8c-1 4-3 9-6 13l-4 6-3 4-7 8-7 5-2 2-3 3-12 9-4 3-11 5c-4 1-8 0-11-3l-3-5c-2-2-1-5 0-8l4-6 2-3 4-4 2-3 2-2 2-3 3-3h2v-1l1-2 4-4 2-1 6-6 3-4 8-6 5-4 2-1-1-1-4 3-12 9h-4l-3-5v-2l5-6 7-6 8-10 7-8v-1l-6 4-13 11-4 5-5 2-2-2-1-1v-4l8-7 7-6 3-2 10-7 5-2c3-2 5-1 7 1l1 4c1 1 0 3-1 5l-3 4-2 3a78 78 0 0 1-9 10h1c4-1 8-2 11 0l3-1-1 1 2 1 12-7zm-15 26c3-4 3-9 3-13l-1-2-3 1-1 1h-3l3 1-6 4h-1l4-4-4 1 1 1-2 1h-1c-1 1-3 1-3 3h-1l-2 2-2 1v-2l-1 2v3l7-5h3l2-2-5 5-8 6-5 5-2 2-1 1-4 3-1 1-1 1-4 3v1l-1 2c-2 0-2 1-3 3v1l-8 8-2 2-4 8-1 4c0 1 0 2 1 1h3c6-1 11-5 16-8l9-7 8-7 5-6 10-11 6-11zm-53 33c-2 0-2 2-3 3l3-3v-1 1zm42-12 1-3v1a254 254 0 0 1-13 13l-12 10-13 9-4 1-2 1v1c5-1 10-4 14-7v-1l2-1 4-3 6-4 3-3 7-6 7-8zm-41 11 3-4c-2 0-2 2-3 4zm5-4-3 3 1 1 3-4h-1zm1-3v1l7-9 1 1-1 2 3-3h-1l2-2h2l-1-1 4-5 3-3c1-1 2-2 4-1-2-1 0-2 1-3l2-2h-1l-2 2c-2 0-2 1-3 2l-1 1-1 1-1 1-1 1-2 1v1l-3 3-1 1-3 3-4 4-3 4zm4-3-2 3 2-3zm29 4-4 4 4-4zm4-8 2-3-2 3zm16-42-2 1h-1l3-2v1zm6-2-5 2-1-1 5-2h1v1z" class="st1"/><path d="M410 202h-1l1-2-6 8 1 2 4-7h1l-1 3h1v1l-3 5-4 7-3 5-4 4c-1 2-4 1-5-1-2-2-4-5-4-8-1-3-2-6-1-10v-6l-2 4h-1l-1 2-5 9-2 2-2 4-5 6-2 2c-2 3-6 2-7-1l-2-3-1-6 2-8 7-14 8-15 3-4h1l5 4c2 1 2 3 3 5h2l3-5v-2l1-3 4 4c3 2 2 5 2 8l-3 10-1 8-1 9 1-1 4-5 1-1 2-1 1-1-1-2 1-1v2l7-10 3 1-2 2h1zm-36 8 6-9c2-3 1-6 1-8l-1-1-3 5-3 4c-1 3-4 5-4 8l-1 2-3 6v3c2-1 5-5 4-6l2-2 2-3v1zm13-13 3-6-1-1-1 4-3 4-2 4-2 3-4 5v1l1-1 4-4 1-2 4-7v-1 1zm21 2-3 4v-1l2-3h1zM257 131v3l-1 3-1 4-2 3-3 3v1l-2 1-1 2-1 1h-1v1h-3l-1 2-1 1v3l-1 2v2l-1 2v1l-1 5-1 4-1 1v4l-1 1c0 1 0 0 0 0l-2-1 1-4v-7l1-4 2-7 1-4 1-3v-5l2-5 1-4 1-4v-4l3 1h1v6l-2 3v4l-1 1h1l1-2 1-3 1-1 1-3 1-1 2-3v-1l2-2 1-1 3 2v2zm-22 37v-1c-1 1-2 5-1 6v-2l1-3zm2-10-1 2-1 4v3-1l2-8zm0 0 2-6-2 6zm6-7c4-2 12-17 11-20l-2 2v1h-1l-2 3-2 4-1 2v2l-2 2v1l-1 2-1 1h1zm1 1 4-5-4 5zM275 138l-2 2-1 1-4 3-1 1v1h-1v2l-3 4-1 2h-4l-2-2-1-2 1-3 1-4 3-9 3-4 2-4 2 1 3 2 1 3v2l-2 6h1l2-1 3-1zm-17 14 5-7-3-1-2 8zm6-22-4 6h1l3-6zm3 9 1-1v-1h-1l1-1 1-1v-1h-1v-5l-1 1-2 3-1 1-1 2-1 5-1 1 1 1 3-1 1-1 1-3v1zm2-2 1-3h-1l1-3-1 5v1l-1 1-1 3h1l1-1v-2l1-1h-1zm-1-2-1 1v1l1-2z" class="st1"/><path d="M289 133v1l-1-1-2-2v-2l-1 1v1h-1l-1 2-1 3-2 3-1 3-2 3v2l-1 2v1l-1 1v1h-1l-1-1-1-1v-5l2-7 1-3v-2l2-6v-3h1l2 1 1 2v1l-1 2v2l1-2 1-2 1-2 1-2h2l2 1 1 3v5zm-7-3s-3 4-2 5l2-5zM315 104h1l-1 3v3l-1 1-1 1v1l-1 2v2l-1 2-1 2-2 4-2 4-2 5-1 2h-1l-1 1c1 0 0 0 0 0v10h1l2-2 3-3v-1 2l2-2 1-1-4 5v1l-2 3h-3l-3-4v-4c1 0 0 0 0 0v-1h1v-5l1 1v-3l2-5 1-5 2-6 2-6 1-2v-3l1-3 2-5h1l2 1 2 3v1l-1 1zm-15 35v-1h-1v1h1zm0-6v-1 1zm0-2v-1l1-1-1 2zm1 3v-2l-1 2h1zm1-4h-1v1h1v-1zm1-7-1 1 1-1zm11-15v-1h-1v2-7l-1 2v1l-2 4-1 3-1 3-1 1v1l-1 1v2l-1 4-1 1v1l-1 1 1 1 2-3 1-2 1-2h1v-1l2-2v-2l1-2 1-1h-1l1-2v-1l1-1v-1zm-10 13v2l1-1-1-1zm1 5 2-2v-1l-2 3zm4 14-2 2 2-2zm2-25 1-2-1 2z" class="st1"/><path d="m330 134-1-1h1l-3 3v1l2-3h1l-1 2 1-1v1l-2 2-1 3-2 2-1 2h-3l-2-4v-7l-1 2-1 1-2 4-1 1-1 1-2 3-1 1c-1 1-2 1-3-1v-1l-1-3 1-3 3-6 3-7 2-1v-1l2 2 2 2c0 1 0 1 0 0l2-2v-2l2 2 1 4-1 4-1 3v4l2-2 1-1 1-1h-1l1-1v1l3-5 1 1-1 1h1zm-16 3 3-4v-4c0 1 0 0 0 0l-1 2-2 2-1 4h-1l-1 3v1l2-2v-1l1-1zm6-6 1-2v-1l-1 2-1 2-1 2-1 1-1 2-1 1 1-1 2-2v-1l2-3zm9 1-1 2h-1l2-2zM136 43l-1-4c0-1-1-2-3-2l-4-1h-2l-2 1v1l1-1v2l-3 4-5 7-1 3-3 4-7 9c0 2-2 4-3 5a391 391 0 0 1-11 17v1h-1l7-10v1l2-5-2 3h-1l-1 1-4 7-2 2-4 8c0 1-2 2-1 4-2 2-2 5-5 7v3a243 243 0 0 1-6 7l-6 1-3 1h-8l-17 3-12 2c-2 1-2 2-1 4l2 3 3 1 2 1h1l10-2 11-1 13-2-1 2-1 1c-2-1-2 1-2 2l-9 18-2 7 1 2a6 6 0 0 0 7-4l1-3 5-10 2-3 3-6 3-6 2-2 6-1 6-1 8-1 10-2 9-1v1l-2 16-3 23-2 15 2-1v-7l1-6 1-6 1-7 1-8 1-12 1-5 1-2v1l-1 8-1 9-2 17v6l-1-1-1 11v2h3l3-3h2v-1c0-2-1-4 1-6v-1l-1-2 1-3v-3l1-9 1-3v-5l1-3v-2l1-7v-4l1-2c0-1 0-2 2-2l2-1-1-2-2-1 2-2h-2l1-3v-4l2-7v-3l1-7-1 1 1-2 2-12h-1c2-1 1-2 2-4V49h1v-6zm-7 13c1 3-1 26-2 29l2-29zm-2 2v3-3zm-1 14v4-4zm-2-27v1l-2 3v-1l2-3zm-3 4 1 1-1 1h-1v-2zm-2 3v1l1-1-2 3 1-3zm-9 13 2-2 1-2 3-4v-2l2 1-1 1-3 4-3 5-2 1 1-2zm-2 3h1v2h1l-1 1-1-1v-2zm-5 6 2-3 1-1 1 1v1l-1 2h-4 1zm0 1 1 2-2 1v-1l1-2zm-3 3h1v1l-1 2v-2h1l-1-1zm0 3-2 2c0-2 0-3 2-2zm-6 6 3-4 1-1-1 3v2l-1-1 1 2c-1 0-2-1-2 1l-1-1v-1zm-1 1 1 1-1 3v1h-1v-1h-1l2-4zm-3 6-2 5 2-5zm-3 5c0 3-1 4-3 5l3-5zm8 19v-1l-14 2 1-1 16-2 9-1h2l-14 3zm24-9-2 1-13 3-13 2-6 1h-2c12-23 27-44 42-64v11l-1 8v8l-2 11v2l-1 1c2 1 0 2 0 3l-2 13zm6-24v4l-2 9-1 5v6l-1 1h-1l1-4 1-7 1-5 1-2 1-7zm-10 88c-1-1 0-10 1-13l-1 13zm1-14 2-17-2 17zm3-18h-1l3-20-2 20zm2-4h-1c1-5 1-11 3-16l-2 16zm2-27 4-22c1 3-2 21-4 22zm4 2v-4 4zm4-27-1 1v5l-1 7v-2h-1v2c2 1 1 2 0 3v-2h-1v6l-2 5 6-38v8l-1 2c1 0 2 0 1 1l1 1-2-1v2h1z" class="st1"/></g></svg>