<?xml version="1.0" encoding="UTF-8"?>
<svg id="Layer_1" data-name="Layer 1" xmlns="http://www.w3.org/2000/svg" xmlns:xlink="http://www.w3.org/1999/xlink" viewBox="0 0 268.21 89.14">
  <defs>
    <style>
      .cls-1 {
        clip-path: url(#clippath);
      }

      .cls-2 {
        fill: none;
      }

      .cls-3 {
        fill: #0a483a;
      }
    </style>
    <clipPath id="clippath">
      <rect class="cls-2" x=".21" y=".1" width="268" height="89"/>
    </clipPath>
  </defs>
  <g class="cls-1">
    <path class="cls-3" d="m21.91,37.9c-.39,1.1-1.08,2.07-2,2.8-.8.6-2,1-3.6,1.2l.2-.7v-.5c0-.5-.2-.9-.6-1.2-.59-.29-1.24-.42-1.9-.4-2,0-3.7,1.1-4.8,3.1-1.2,2-1.7,4.9-1.5,8.4.2,4,.9,6.9,2.3,8.7,1.33,1.91,3.58,2.97,5.9,2.8,1,0,1.9-.3,2.9-.6s2-.8,3.1-1.4v.6c.17,1.58-.62,3.11-2,3.9-1.3.9-3.3,1.3-6.1,1.4-4.2.2-7.5-1-9.9-3.6C1.32,59.44-.07,55.63,0,51.7c-.1-4.6,1-8.4,3.4-11.2,2.5-2.9,5.8-4.3,9.9-4.5,1.5,0,3,0,4.4.4,1.6.2,3,.7,4.2,1.5Zm9-1.7h17.6c-.3,1.9-.8,3.2-1.6,4-.8.6-2,1-3.9,1.2l.2-.6.1-.3c0-.4-.2-.6-.8-.8l-2.6-.2c-2,0-3.4.1-3.8.4-.4.2-.6.8-.6,1.5v6.1h8l1.4-.4c-.5,1.6-1,2.6-1.4,3.1-.5.5-1.4.7-2.7.7h-5.3v7.8c0,.9,0,1.5.2,2,.2.3.4.6.8.7l1.2.4,2.7.1h3.3c1.71-.05,3.42-.25,5.1-.6-.18,1.23-.66,2.4-1.4,3.4-.6.5-1.8.8-3.7.8h-16.2c.64-1.38.98-2.88,1-4.4v-18.2c0-1-.2-1.8-.6-2.2s-1-.7-2-.7c.3-1.4.8-2.3,1.4-2.8.7-.7,1.8-1,3.6-1Zm24,.1h5.5v.5l.1,1,.7,1.3,8.8,14.3c.5.6.9,1.4,1.3,2.3l1.4,3h.3l-.5-2.5-.1-2.3v-10.8c0-1.3-.3-2.2-.7-2.6-.4-.5-1.2-.7-2.4-.7h-.1c.2-1.12.72-2.16,1.5-3,.6-.4,1.6-.6,3-.6h4.1c-.5.5-.8,1.3-1,2-.3.9-.4,2-.4,3.5v16.4c0,1.6.2,2.7.6,3.3.4.5,1.1.8,2,.8-.15.98-.61,1.89-1.3,2.6-.5.4-1.6.7-3,.7h-5.1v-.7l-.1-.8-.3-.7-9.7-15.3-1.2-2.4-1-2.7h-.3l.3,3v12.7c0,1.3.3,2.2.8,2.7.5.4,1.3.7,2.5.7-.5,1.4-1,2.3-1.5,2.7-.6.4-1.6.7-3,.7h-3.7c.4-.6.6-1.3.8-2.2l.2-3.6v-16.5c0-1.2-.1-2-.6-2.5-.4-.4-1-.6-2-.7.4-1.4.8-2.3,1.5-2.8.5-.4,1.4-.7,2.6-.7v-.1Zm52.1-.4c-.6,1.8-1.3,3-2,3.5s-1.8.8-3.5.8h-1.7c-1.3,0-2.1,0-2.4.3s-.5.8-.5,1.5v16.8c0,1.3.1,2.2.5,2.6.4.4,1,.7,2.1.7-.4,1.3-.9,2.2-1.4,2.6-.6.4-1.5.7-2.9.7h-6.5c.4-.7.6-1.6.9-2.5l.3-3.3v-17.7c0-.8,0-1.4-.3-1.6-.3-.3-1-.3-2.1-.3l-4.5.1c-1,.1-1.7.3-2.5.6.36-1.32,1.05-2.52,2-3.5.8-.6,2-.9,3.6-.9l4.3.2,7.1.2c2.7,0,4.8,0,6.3-.2l3.2-.6Zm6.4.3h17.6c-.3,1.9-.8,3.2-1.6,4-.7.6-2,1-3.9,1.1l.3-.5v-.4c0-.4-.2-.6-.8-.8l-2.5-.2c-2.1,0-3.4.2-3.8.4s-.7.8-.7,1.5v6.2h6.8l1.2-.1,1.5-.3c-.5,1.6-1,2.5-1.5,3s-1.4.7-2.7.7h-5.3v7.8c0,.9,0,1.5.3,1.9.1.4.4.6.7.8l1.3.4h5.9c1.71-.02,3.42-.18,5.1-.5-.17,1.23-.65,2.4-1.4,3.4-.6.5-1.8.7-3.6.7h-16.1l.8-2.1c.2-.7.2-1.5.2-2.3v-18.1c0-1.1-.1-1.9-.5-2.3-.4-.4-1-.6-2-.7.3-1.4.8-2.3,1.4-2.7.5-.6,1.7-.9,3.4-.9h-.1Zm23.6,0h5.4v.5c0,.4,0,.7.2,1l.6,1.3,9,14.3,1.2,2.3,1.4,3h.3c-.3-.9-.4-1.7-.5-2.5l-.2-2.3v-10.7c0-1.3-.2-2.2-.6-2.6-.4-.4-1.2-.7-2.4-.7h-.2c.22-1.09.74-2.09,1.5-2.9.6-.5,1.6-.6,3.1-.6h4c-.4.5-.8,1.2-1,2-.3.8-.3,2-.3,3.5v16.2c0,1.7.1,2.7.5,3.3.4.5,1.2.8,2.1.8-.3,1.3-.8,2.2-1.4,2.6-.6.5-1.6.7-3,.7h-5.2l.1-.2v-1.3l-.5-.7-9.6-15.2c-.94-1.65-1.71-3.39-2.3-5.2h-.3l.3,3,.1,2.5v10.2c0,1.3.3,2.2.8,2.7.4.5,1.2.7,2.5.7-.5,1.4-1,2.4-1.6,2.8-.5.4-1.5.6-3,.6h-3.6c.3-.5.6-1.3.7-2.2.2-.9.3-2,.3-3.5v-16.7c0-1.2-.2-2-.6-2.5-.4-.4-1-.7-2-.8.3-1.3.8-2.3,1.4-2.8.87-.42,1.83-.63,2.8-.6Zm53.8,25.7c-.5,1.5-1,2.4-1.5,2.8s-1.5.7-3,.7h-5.9c.4-.7.5-1.3.7-2,.31-1.32.31-2.68,0-4-.2-.6-.3-1.4-.7-2.3h-10l-.5,1.9-.1,1.2c0,.7.1,1,.5,1.4.3.3.8.5,1.4.5h.2c-.5,1.4-1,2.3-1.4,2.7-.5.4-1.4.6-2.8.6h-4c.7-1,1.5-3.3,2.6-7.1l1.5-5.3,2.4-7.2c1-3,1.4-4.7,1.4-5.1s0-.7-.3-.9c-.2-.2-.6-.2-1.3-.3l1.2-2.4c.4-.5.7-.7,1-.8l1.5-.2,3.4-.1h.5l2,.1.8.5c3.15,7.73,5.82,15.64,8,23.7.1.5.4,1,.8,1.1.4.2.9.3,1.5.3l.2.1-.1.1Zm-15.6-21.4c-.1,1.2-.8,3.7-2.1,7.7l-1.9,5.7h8.3l-1.2-4.7-2.6-8.8-.5.1Zm34,10.8l5.5,8.7c.4.7,1,1.3,1.5,1.7.6.4,1.2.5,1.9.5-.4,1.2-.9,2-1.3,2.5-.74.47-1.62.68-2.5.6h-5l.1-.6v-.3l-.1-.8-.6-1.3-4.9-9-1.5.2-1.1.2v5.4c0,1.2.1,2,.5,2.4.3.4,1,.7,1.9.8-.4,1.3-.8,2.1-1.3,2.5-.5.4-1.4.6-2.8.6h-6c.3-.7.7-1.5.8-2.2.2-.7.3-1.5.3-2.3l-.1-17.7c0-1.2-.2-2-.6-2.4-.4-.4-1.1-.7-2-.8.3-1.5,1-2.5,2-3,1.1-.6,3.6-.8,7.6-.8l4.1.1,2.8.6c2,.6,3.5,1.6,4.6,3,1.07,1.29,1.63,2.92,1.6,4.6,0,1.6-.5,3-1.5,4.3-1,1.18-2.32,2.05-3.8,2.5h-.1Zm-8-.9c2.2,0,3.9-.6,5-1.6,1-1,1.5-2.6,1.5-4.6,0-1.6-.4-2.9-1-3.8-.8-1-1.7-1.4-3-1.4-1,0-1.6.2-2,.7s-.5,1.3-.5,2.5v8.3-.1Zm21.9-7.5c0-1.2-.2-2-.6-2.5-.4-.4-1-.7-2-.8.5-1.4,1-2.4,1.5-2.8.5-.4,1.5-.6,2.8-.6h6.3l-.8,2.3c-.1.8-.3,1.5-.3,2.3v17.8c0,1.3,0,2.1.5,2.5.3.4,1,.6,2,.8-.5,1.5-1,2.4-1.5,2.8s-1.5.6-2.9.6h-6.2l.8-2.2.3-2.2v-18h.1Zm35.7-3.7c-2.6-2.6-5.8-4-9.8-4-4,.2-7.3,1.5-9.6,4.3-2.53,3.08-3.78,7.02-3.5,11,0,4.5,1.4,8.1,3.8,10.8,2.5,2.7,5.7,4,9.8,4s7.2-1.5,9.6-4.2,3.5-6.5,3.4-11c0-4.5-1.2-8.1-3.7-10.9h0Zm-5.2,19.9c-1,2-2.4,3-4.2,3-1.9,0-3.2-1-4.3-2.9-1-1.9-1.5-4.9-1.5-8.8-.1-3.8.4-6.8,1.3-8.7,1-2,2.3-3,4.2-3.1,1.8,0,3.3,1,4.2,2.9,1,2,1.6,5,1.6,8.8s-.4,6.8-1.3,8.8Zm14.6,3.5c0,1.5-1.2,2.7-2.8,2.7-1.55.06-2.84-1.15-2.9-2.7,0,0,0,0,0,0,0-1.6,1.3-2.8,2.9-2.8s2.8,1.3,2.8,2.8Zm-5,0c0,1.2,1,2.1,2.2,2.1s2-1,2-2.1c0-1.3-.8-2.2-2-2.2s-2.1,1-2.1,2.2h-.1Zm1.8,1.4h-.7v-2.7l1-.1,1,.1c.2.1.3.4.3.6,0,.3-.3.6-.6.7.3,0,.4.3.5.6,0,.4.2.6.2.6h-.7l-.2-.6c-.1-.3-.3-.4-.6-.4h-.3v1.2h.1Zm0-1.5h.3c.3,0,.6-.1.6-.4s-.1-.4-.5-.4h-.3v.8s-.1,0-.1,0ZM107.61,15.4l5.3,8.7c.5.7,1,1.3,1.6,1.7.5.4,1.2.5,1.8.5-.3,1.2-.8,2-1.3,2.4-.7.48-1.55.73-2.4.7h-5v-1.7l-.7-1.3-4.8-9-1.5.2c-.4,0-.8,0-1.2.2v5.3c0,1.2.2,2,.5,2.4s1,.7,2,.8c-.4,1.3-.8,2.1-1.3,2.5s-1.4.6-2.9.6h-6l.9-2.2.2-2.3V7.3c0-1.2-.2-2-.6-2.4s-1.2-.7-2.1-.8c.4-1.5,1.1-2.5,2.2-3,1-.6,3.5-.8,7.5-.8l4,.1c1.3.2,2.2.3,3,.6,1.8.6,3.4,1.6,4.4,3,1.07,1.29,1.63,2.92,1.6,4.6,0,1.6-.4,3-1.4,4.2-.7,1.1-2,2-3.8,2.6Zm-8-.9c2.1,0,3.7-.6,4.8-1.7,1-1,1.6-2.5,1.6-4.5,0-1.6-.4-2.9-1-3.8-.8-1-1.8-1.4-3-1.4-1,0-1.6.2-2,.7-.4.5-.6,1.3-.6,2.5l.1,8.2h.1Zm40.2-10.4c-2.5-2.7-5.7-4-9.8-4s-7.2,1.5-9.6,4.2c-2.49,3.1-3.71,7.03-3.4,11,0,4.6,1.3,8.1,3.8,10.9,2.5,2.6,5.7,4,9.7,4,4-.2,7.3-1.5,9.6-4.3,2.5-2.7,3.6-6.4,3.5-11,.11-3.95-1.24-7.79-3.8-10.8Zm-5.2,19.8c-1,2-2.4,3-4.2,3-1.9,0-3.3-.9-4.3-2.8-1-2-1.5-5-1.5-8.8-.1-3.9.4-6.9,1.2-8.8,1-2,2.4-3,4.2-3,1.9,0,3.4.9,4.3,2.8,1,2,1.6,5,1.6,8.8s-.4,6.8-1.3,8.8ZM148.01.1h5.4v.5l.1,1,.7,1.2,9,14.3,1.2,2.4,1.3,3h.4c-.3-1-.4-1.7-.5-2.6l-.2-2.2V6.9c0-1.3-.2-2.2-.6-2.6-.4-.5-1.2-.7-2.5-.7h-.1c.2-1.12.72-2.16,1.5-3,.6-.4,1.6-.6,3-.6h4.1c-.5.6-.8,1.2-1,2-.3.8-.4,2-.4,3.5v16.2c0,1.7.2,2.8.6,3.3.4.6,1.1.8,2.1.8-.3,1.3-.8,2.2-1.4,2.6-.6.5-1.7.7-3,.7h-5.2v-1.4l-.4-.7-9.5-15.2c-.94-1.65-1.72-3.39-2.3-5.2h-.3l.3,3v12.8c0,1.3.3,2.1.8,2.6s1.3.8,2.5.8c-.5,1.3-1,2.3-1.5,2.7-.6.4-1.5.6-3,.6h-3.6c.3-.5.5-1.2.7-2.1.2-1,.2-2,.2-3.6V6.8c0-1.2-.1-2-.5-2.5-.4-.4-1-.6-2.1-.7.4-1.4.9-2.4,1.5-2.9.6-.4,1.5-.6,2.7-.6ZM18.51,72.9v2.2h-7.2v4.5h5.7v2.5h-5.7v4.5h7.2v2.4h-10.1v-16h10.1v-.1Zm6,13.5h6.5v2.5h-9.5v-16h3v13.5Zm16.8-3.8v6.3h-3v-16h5c1,0,2,0,2.8.3.8.2,1.4.6,1.9,1s.9.9,1.1,1.4c.3.6.4,1.2.4,1.9l-.3,1.5c-.37.95-1.03,1.76-1.9,2.3-.3.4-1,.6-1.5.8.4.2.7.5,1,.9l4,6h-2.6l-.7-.2-.5-.5-3.4-5.2-.4-.4-.6-.1h-1.4.1Zm0-2h1.9c.91,0,1.79-.32,2.5-.9l.6-.8c.2-.4.2-.8.2-1.2,0-.8-.3-1.4-.8-1.8-.6-.4-1.4-.7-2.5-.7h-2v5.3h.1v.1Zm26.9.3c.08,2.2-.75,4.33-2.3,5.9-3.31,3.12-8.49,3.12-11.8,0-1.57-1.59-2.41-3.77-2.3-6-.08-2.2.75-4.33,2.3-5.9,3.31-3.12,8.49-3.12,11.8,0,1.54,1.61,2.33,3.78,2.2,6h.1Zm-3.2,0c0-1,0-1.7-.3-2.4-.2-.7-.5-1.3-1-1.7-.4-.5-1-1-1.6-1.2-.64-.25-1.32-.38-2-.4-.9,0-1.6.2-2.2.4-.6.3-1.1.7-1.6,1.2-.4.4-.8,1-1,1.7-.3.8-.4,1.5-.4,2.4s.1,1.7.4,2.3c.2.7.5,1.3,1,1.8.4.5,1,.9,1.6,1.1,1.35.53,2.85.53,4.2,0,.7-.2,1.2-.6,1.6-1.1.5-.5.9-1,1-1.8.3-.6.3-1.4.3-2.3Zm7.8-8h.2l.3.2.2.3,8.4,10.7v-11.2h2.6v16h-2.1l-.5-.4-8.4-10.8.1.7v10.5h-2.7v-16s1.9,0,1.9,0Zm34.4,8c.05,2.16-.78,4.26-2.3,5.8-.7.7-1.5,1.3-2.6,1.7-1,.4-2,.5-3.3.5h-6.1v-16h6.1c1.2,0,2.4.1,3.3.5,1.92.79,3.47,2.29,4.3,4.2.3,1,.6,2.1.6,3.3Zm-3,0c0-1-.2-1.7-.4-2.4s-.6-1.3-1-1.7c-.5-.5-1-1-1.7-1.2-.6-.2-1.3-.4-2-.4h-3.2v11.3h3.1c.8,0,1.5-.1,2.1-.4.7-.2,1.2-.6,1.6-1.1,1.01-1.12,1.51-2.6,1.4-4.1h.1Zm16-8v2.2h-7.2v4.5h5.6v2.5h-5.6v4.5h7.1v2.4h-10.2v-16h10.3v-.1Zm18.7,12.2l.4.2,1.2,1.3c-.6.8-1.4,1.5-2.4,1.9-2.12.86-4.48.86-6.6,0-1-.4-1.8-1-2.4-1.7-.7-.75-1.25-1.63-1.6-2.6-.3-1-.5-2.1-.5-3.3s.1-2.4.5-3.3c.39-.97.97-1.85,1.7-2.6.75-.73,1.63-1.31,2.6-1.7,2.11-.87,4.47-.9,6.6-.1.8.4,1.7.9,2.2,1.5l-1,1.4-.2.3h-.4l-.5-.1-.6-.4c-.3-.2-.7-.4-1-.4-.5-.2-1-.2-1.7-.2-.68.02-1.36.15-2,.4-.7.2-1.3.7-1.7,1.1-.5.5-.8,1-1,1.8-.56,1.55-.56,3.25,0,4.8.2.7.5,1.3,1,1.7.4.5,1,1,1.5,1.2.6.2,1.2.4,2,.4l1.1-.1c.3,0,.6,0,.9-.2l.8-.4.7-.6c.1,0,.2,0,.3-.2h.1v-.1Zm19.7-4.2c0,1.2-.1,2.2-.5,3.3-.39.97-.97,1.85-1.7,2.6-3.31,3.12-8.49,3.12-11.8,0-1.57-1.59-2.41-3.77-2.3-6-.08-2.2.75-4.33,2.3-5.9,3.31-3.12,8.49-3.12,11.8,0,1.54,1.61,2.33,3.78,2.2,6Zm-3,0c0-1-.1-1.7-.4-2.4-.2-.7-.5-1.3-1-1.7-.3-.5-.9-1-1.5-1.2-1.35-.53-2.85-.53-4.2,0-.7.3-1.2.7-1.7,1.2-.4.4-.8,1-1,1.7-.3.8-.3,1.5-.3,2.4s0,1.7.3,2.3c.2.7.6,1.3,1,1.8s1,.9,1.7,1.1c.64.25,1.32.38,2,.4.75,0,1.5-.13,2.2-.4.6-.2,1-.6,1.6-1.1.4-.5.8-1,1-1.8.2-.6.3-1.4.3-2.3h0Zm14.5-5.1l-.3.3h-.9l-.7-.5-.9-.4-1.2-.1-1,.1-.8.4c-.3.2-.4.4-.5.7l-.2.8c0,.4.1.7.4,1l.8.6,1.2.5,1.3.5,1.4.5,1.2.8c.4.4.7.8.8,1.2.3.5.4,1,.4,1.7,0,.8-.2,1.4-.4,2-.95,2-2.99,3.26-5.2,3.2h-1.6l-1.5-.5c-.5-.1-.9-.4-1.3-.6l-1-1,.9-1.4.3-.2h.4l.6.1.7.5,1,.5c.4.2,1,.3,1.5.3.9,0,1.5-.2,2-.7s.7-1,.7-1.8c0-.4,0-.7-.3-1l-.8-.7-1.2-.4-1.4-.4-1.4-.6-1.2-.8c-.3-.3-.6-.7-.8-1.2s-.3-1.2-.3-1.9c0-.5,0-1.1.3-1.7l1-1.4c.6-.4,1-.8,1.7-1,1.54-.62,3.26-.62,4.8,0,.73.29,1.41.69,2,1.2l-.5,1.4Zm15.1-2.9v2.4h-5v13.6h-3v-13.6h-4.9v-2.4s12.9,0,12.9,0Zm14.8,16h-2.4l-.6-.1c-.2-.2-.3-.3-.3-.5l-1.3-3.3h-6.6l-1.2,3.3c0,.2-.1.3-.3.5-.2.15-.45.22-.7.2h-2.3l6.3-16h3l6.4,16v-.1Zm-10.4-6h5.1l-2-5.3c0-.3,0-.5-.2-.8l-.4-1-.3,1c0,.3-.1.6-.3.8l-1.9,5.3h0Zm20.3-.3v6.3h-3v-16h5c1,0,2,0,2.8.3.8.2,1.4.6,1.9,1s.9.9,1.1,1.4c.3.6.4,1.2.4,1.9l-.3,1.5c-.1.5-.4.9-.7,1.3l-1.1,1c-.4.4-1,.6-1.6.8.4.2.7.5,1,.9l4,6h-2.6l-.7-.2-.5-.5-3.4-5.2-.4-.4-.6-.1h-1.3Zm0-2h1.9c.91,0,1.79-.32,2.5-.9l.6-.8c.2-.4.2-.8.2-1.2,0-.8-.3-1.4-.8-1.8-.6-.4-1.4-.7-2.5-.7h-2v5.3h.1v.1Zm15.3-7.7h-3v16h3v-16Zm15.1,12.2l.4.2,1.3,1.3c-.7.8-1.5,1.5-2.5,1.9-2.12.86-4.48.86-6.6,0-1-.4-1.8-1-2.4-1.7-.67-.76-1.18-1.64-1.5-2.6-.4-1-.6-2.1-.6-3.3-.08-2.2.75-4.33,2.3-5.9.72-.72,1.57-1.3,2.5-1.7,2.11-.87,4.47-.9,6.6-.1.9.4,1.7.9,2.2,1.5l-1,1.4s0,.2-.2.3h-.4l-.5-.1c-.1-.2-.4-.3-.6-.4-.3-.2-.7-.4-1-.4-.5-.2-1-.2-1.7-.2-.68.02-1.36.15-2,.4-.7.2-1.3.7-1.7,1.1-.5.5-.8,1-1,1.8-.56,1.55-.56,3.25,0,4.8.2.7.5,1.3,1,1.7.4.5,1,1,1.5,1.2.6.2,1.3.4,2,.4l1.1-.1c.3,0,.7,0,.9-.2l.8-.4.7-.6c.1,0,.2,0,.3-.2h.1v-.1Zm18.5,3.8h-2.4l-.6-.1c-.2-.2-.4-.3-.4-.5l-1.2-3.3h-6.6l-1.2,3.3c0,.2-.2.3-.3.5-.2.15-.45.22-.7.2h-2.2l6.3-16h3l6.4,16-.1-.1Zm-10.5-6h5.1l-2-5.3c0-.3,0-.5-.2-.8l-.4-1-.3,1c0,.3-.1.6-.3.8l-1.9,5.3h0Z"/>
  </g>
</svg>