<svg xmlns="http://www.w3.org/2000/svg" xml:space="preserve" id="Layer_1" x="0" y="0" style="enable-background:new 0 0 218.2 72.6" version="1.1" viewBox="0 0 218.2 72.6"><style>.st0{fill:#fff}</style><path d="M17.7 30.9a7 7 0 0 1-1.6 2.2c-.9.6-1.9.8-2.9 1l.2-.6.1-.4c0-.4-.2-.8-.6-1-.5-.3-1-.4-1.5-.3a4.8 4.8 0 0 0-4 2.5c-.9 1.7-1.3 3.9-1.2 6.8.1 3.2.7 5.6 1.8 7.1a5.3 5.3 0 0 0 4.8 2.2c.8 0 1.6-.2 2.4-.5a15 15 0 0 0 2.6-1.2v.4c.1 1.3-.5 2.5-1.6 3.1-1.1.7-2.8 1.1-5 1.2-3.3.1-6.1-.8-8-2.9-2-2.1-3-4.9-3.1-8.7s.8-6.8 2.8-9.1c2-2.4 4.9-3.7 8-3.7a11 11 0 0 1 3.6.4c1 .4 2.1.8 3.2 1.5M24.9 29.5h14.3c-.3 1.5-.7 2.6-1.3 3.1-.9.7-2 1-3.1 1l.1-.4.1-.3c0-.3-.2-.6-.7-.7a15 15 0 0 0-5.2.1c-.4.3-.6.8-.5 1.3v5h5.5l1-.1 1.2-.3c-.2.9-.6 1.7-1.2 2.5a4 4 0 0 1-2.2.6h-4.3v6.3l.1 1.5c.1.3.3.6.6.7l1 .3 2.2.1h2.7l2.5-.1 1.7-.3c-.3 1.4-.7 2.3-1.2 2.7s-1.5.6-2.9.6H22.1c.3-.6.5-1.1.6-1.7l.2-1.8V34.9c.1-.6-.1-1.3-.5-1.8-.5-.4-1-.6-1.7-.6.1-.8.6-1.7 1.2-2.3.6-.4 1.6-.6 3-.7M44.5 29.6h4.4v.4l.1.8.5 1 7.3 11.6 1 2 1.1 2.5h.3l-.4-2.1-.1-1.8v-8.9a3 3 0 0 0-.6-2.2c-.6-.4-1.3-.6-2-.6H56c.2-.9.6-1.7 1.3-2.4.8-.4 1.6-.6 2.4-.6H63c-.4.5-.7 1-.8 1.6-.2.9-.3 1.9-.3 2.8V47c0 1.3.1 2.2.5 2.7s1 .8 1.7.7c-.1.8-.6 1.5-1.1 2.1a5 5 0 0 1-2.4.6h-4.2l.1-.2v-.3l-.1-.7-.3-.6-7.8-12.2-1-2-.8-2.2h-.2l.3 2.4.1 2.1v8.4a3 3 0 0 0 .6 2.2c.6.5 1.3.7 2 .6-.2.8-.6 1.6-1.3 2.2a4 4 0 0 1-2.4.5h-2.9l.6-1.8.2-2.9V35.1c.1-.7-.1-1.4-.5-2-.5-.4-1-.6-1.7-.6.2-.8.6-1.7 1.3-2.3.4-.5 1.2-.7 1.9-.6M87 29.2c-.3 1-.8 2-1.6 2.8-.8.5-1.9.7-2.9.6h-1.3c-.7-.1-1.4 0-2 .3-.3.3-.4.8-.3 1.2l-.1 13.8c-.1.7.1 1.5.4 2.1.5.4 1.1.6 1.7.6a4 4 0 0 1-1.2 2.2c-.7.4-1.5.6-2.3.6h-5.3c.3-.6.6-1.3.7-2l.2-2.7.1-14.5c0-.7-.1-1.1-.3-1.3a5 5 0 0 0-1.7-.3l-3.6.1c-.7.1-1.4.2-2 .5.3-1 .8-2 1.6-2.8.8-.6 1.9-.8 2.9-.8l3.5.1 5.7.1 5.1-.1c.9 0 1.8-.2 2.7-.5M92.1 29.5h14.4c-.3 1.5-.7 2.6-1.3 3.1s-1.7.9-3.1 1l.1-.4.1-.3c0-.3-.2-.6-.7-.7-.7-.1-1.4-.3-2.1-.2-1.7 0-2.8.1-3.1.3-.4.3-.6.8-.5 1.3v5h5.5l1-.1 1.2-.3c-.2.9-.6 1.7-1.2 2.5a4 4 0 0 1-2.2.6h-4.3v6.3l.1 1.5c.1.3.3.6.6.7.3.1.7.3 1.1.3l2.2.1h2.7l2.5-.1 1.7-.3c-.3 1.4-.7 2.3-1.2 2.7s-1.5.6-2.9.6H89.3c.3-.6.5-1.1.6-1.7l.2-1.8V34.9c.1-.6-.1-1.3-.4-1.9-.5-.4-1.1-.6-1.7-.6.1-.8.6-1.7 1.2-2.2.6-.4 1.6-.6 2.9-.7M111.3 29.5h4.4v.5l.1.8.5 1 7.3 11.6 1.1 2c.5.8.8 1.6 1.1 2.5h.3l-.4-2.1-.1-1.8v-8.9c.1-.8-.1-1.5-.6-2.1-.6-.4-1.3-.6-1.9-.6h-.1c.2-.9.6-1.7 1.3-2.4.8-.4 1.6-.6 2.5-.6h3.3c-.4.5-.7 1-.8 1.6-.2.9-.3 1.9-.3 2.8V47c0 1.4.1 2.2.5 2.7s1.1.8 1.7.7c-.1.8-.6 1.5-1.2 2.1a5 5 0 0 1-2.4.6h-4.2l.1-.2v-.3l-.1-.7-.3-.6-7.8-12.3a44 44 0 0 0-1.1-2l-.8-2.2h-.3l.3 2.4.1 2.1v8.4a3 3 0 0 0 .6 2.2c.6.5 1.3.7 2 .6-.2.8-.6 1.6-1.3 2.2-.8.4-1.6.6-2.4.5h-2.9l.6-1.8.2-2.9V35c.1-.7-.1-1.4-.4-2-.5-.4-1.1-.6-1.7-.6.2-.8.6-1.7 1.3-2.3.3-.4 1.1-.6 1.8-.6M155.2 50.4c-.2.8-.6 1.7-1.2 2.3-.4.3-1.3.6-2.4.6h-4.8l.6-1.5.1-1.7-.1-1.5a9 9 0 0 0-.6-2h-8.2l-.4 1.5-.1 1c0 .4.1.8.4 1.1.4.3.8.4 1.2.3h.1c-.2.8-.6 1.6-1.1 2.2-.4.3-1.1.5-2.3.5h-3.1a25 25 0 0 0 2-5.8l1.3-4.3 1.9-5.9c.5-1.3.9-2.7 1.2-4.1 0-.3-.1-.6-.3-.7-.4-.1-.7-.3-1.1-.2l.9-1.8c.2-.4.5-.6.8-.7l1.2-.2 2.8-.1h.5a8 8 0 0 1 1.6.1l.7.4a13 13 0 0 1 1.4 3.2l2.6 7.5c.6 1.6 1.1 3.3 1.5 5.2l.9 3.3c.1.3.4.7.7.9.4.3.8.4 1.3.4zM142.5 33a95.7 95.7 0 0 1-3.2 10.9h6.8l-1.1-3.8-2.2-7.1h-.3zM170.2 41.8l4.4 7c.4.6.8 1 1.3 1.3.4.3 1 .5 1.5.5-.1.8-.6 1.4-1.1 2-.6.3-1.3.6-1.9.5h-4.1l.1-.5v-.3l-.1-.7-.5-1-4-7.4-1.3.2-.9.1V48c-.1.7.1 1.4.4 2 .4.4 1 .7 1.5.7a3 3 0 0 1-1.1 2c-.7.3-1.5.6-2.3.5h-4.9a7 7 0 0 0 .6-1.7l.2-1.8V35.1c.1-.7-.1-1.4-.5-2-.5-.4-1.1-.6-1.7-.6.2-1 .8-2 1.8-2.5a39.8 39.8 0 0 1 11.8-.2c1.5.4 2.7 1.3 3.7 2.4.9 1 1.3 2.4 1.3 3.8a6 6 0 0 1-1.1 3.5 5 5 0 0 1-3.1 2.3m-6.5-.7c1.5 0 2.9-.5 4-1.4A5 5 0 0 0 169 36a5 5 0 0 0-.9-3.1 2.5 2.5 0 0 0-2.4-1.1c-.6-.1-1.2.1-1.6.6-.4.6-.5 1.3-.4 2v6.7zM181.5 34.9c.1-.7-.1-1.4-.4-2-.4-.4-1.1-.6-1.7-.6.2-.8.6-1.7 1.3-2.3.7-.4 1.5-.6 2.2-.5l5.2.1-.7 1.9-.2 1.9-.1 14.5c-.1.7.1 1.5.4 2.1.5.4 1.1.6 1.7.6-.2.8-.6 1.7-1.3 2.3-.7.4-1.5.6-2.3.5h-5.2l.7-1.7.2-1.9.2-14.9zM210.6 32a11 11 0 0 0-15.6 0l-.2.2c-1.9 2.2-2.9 5.2-2.9 8.9s1.1 6.7 3.1 8.9a11 11 0 0 0 15.6 0l.2-.2c1.9-2.2 2.9-5.2 2.9-8.9a13 13 0 0 0-3.1-8.9m-4.3 16.1c-.8 1.6-1.9 2.4-3.4 2.5s-2.6-.8-3.5-2.4-1.3-4-1.3-7.2.3-5.6 1.1-7.2 1.9-2.4 3.4-2.5 2.6.8 3.5 2.4 1.3 4 1.3 7.2-.3 5.6-1.1 7.2M218.2 51c0 1.3-1 2.2-2.2 2.3-1.3.1-2.3-.9-2.4-2.1s.9-2.3 2.1-2.4h.3c1.3 0 2.2 1 2.2 2.2m-3.9 0c0 1 .7 1.7 1.7 1.7h.1c.9 0 1.7-.8 1.7-1.7.1-1-.6-1.7-1.6-1.8s-1.7.6-1.8 1.6l-.1.2m1.3 1.2h-.5V50l.8-.1.8.1.2.5c0 .3-.2.5-.5.5.2.1.4.3.4.6l.1.6h-.6l-.1-.6c-.1-.2-.1-.3-.5-.3h-.3l.2.9zm0-1.2h.3c.3 0 .5-.1.5-.3s-.1-.3-.5-.3h-.3v.6zM87.4 12.5l4.4 7.1c.3.6.8 1 1.3 1.3.4.3 1 .5 1.5.5-.1.8-.6 1.4-1.1 2-.6.4-1.3.6-1.9.6h-4.1l.1-.5v-.3l-.1-.7-.5-1-4-7.4-1.3.2-.9.1v4.5c-.1.7.1 1.4.4 2 .4.4 1 .7 1.5.7a3 3 0 0 1-1.1 2c-.6.2-1.5.4-2.2.4h-4.9a7 7 0 0 0 .6-1.7l.2-1.8V5.9c.1-.7-.1-1.4-.5-2-.5-.4-1.1-.6-1.7-.6.2-1 .8-2 1.7-2.5.9-.5 3-.8 6.2-.8l3.3.1 2.3.4c1.5.5 2.7 1.3 3.7 2.5.8 1 1.3 2.4 1.3 3.8.1 1.3-.3 2.5-1.2 3.5-.6 1-1.7 1.8-3 2.2m-6.6-.7c1.5 0 2.9-.5 4-1.4a5 5 0 0 0 1.3-3.7 5 5 0 0 0-.9-3.1 2.5 2.5 0 0 0-2.4-1.1c-.6-.1-1.2.1-1.6.6-.3.6-.6 1.3-.4 2v6.7zM113.6 3.3a11 11 0 0 0-15.6 0l-.2.2C95.9 5.7 95 8.7 95 12.4s1.1 6.7 3.1 8.9a11 11 0 0 0 15.6 0l.2-.2c1.9-2.2 2.9-5.2 2.9-8.9s-1.2-6.7-3.2-8.9m-4.2 16.1c-.8 1.6-1.9 2.4-3.4 2.5s-2.7-.8-3.5-2.4-1.3-4-1.3-7.2.3-5.6 1.1-7.2 1.9-2.4 3.4-2.5 2.7.8 3.5 2.4 1.3 4 1.3 7.2-.4 5.6-1.1 7.2M120.3 0h4.4v.4l.1.8.5 1.1 7.3 11.6 1.1 1.9c.5.7.7 1.6 1.1 2.5h.3l-.4-2.1-.1-1.8V5.7a3 3 0 0 0-.6-2.2c-.6-.4-1.3-.6-1.9-.6h-.1c.2-.9.6-1.7 1.3-2.4.8-.4 1.6-.6 2.5-.6h3.3c-.4.5-.7 1-.8 1.6-.2.9-.3 1.9-.3 2.8v13.3c0 1.3.1 2.2.5 2.6.4.5 1.1.8 1.7.7-.1.8-.6 1.5-1.1 2.1a5 5 0 0 1-2.4.6h-4.2l.1-.2V23l-.1-.7-.3-.6-7.8-12.4-1.1-1.9-.8-2.2h-.5l.3 2.4.1 2.1V18a3 3 0 0 0 .6 2.2c.6.5 1.3.7 2 .6-.2.8-.6 1.6-1.3 2.2-.8.4-1.6.6-2.4.5h-2.9l.6-1.8.2-2.9V5.6c.1-.7-.1-1.4-.4-2-.5-.4-1.1-.6-1.7-.6.2-.8.6-1.7 1.3-2.3.4-.5 1.2-.7 1.9-.7M14.7 63.7h-3.1v8.7H9.8v-8.7H6.7v-1.5h8.1l-.1 1.5zM26.4 62.2v10.3h-2V68h-4.8v4.5h-2V62.2h2v4.4h4.8v-4.4h2zM32.3 63.7v2.9H36v1.5h-3.6V71h4.5v1.5h-6.5V62.2h6.5v1.5h-4.6zM53.5 72.4h-1.7c-.3 0-.6-.1-.7-.4l-2.2-3.3-.3-.3a.8.8 0 0 0-.4-.1h-.8v4.1h-1.9V62.2h3.1l1.8.2 1.3.6c.3.3.6.6.7.9l.2 1.2-.1 1-.4.8-.7.7a3 3 0 0 1-1 .4l.3.3.3.3 2.5 3.8zm-4.9-5.3.9-.1c.3 0 .5-.2.7-.3l.4-.6.1-.7c0-.5-.1-.9-.5-1.2-.5-.3-1-.5-1.6-.4h-1.3v3.4l1.3-.1zM60.4 70.9l1-.2.8-.5.5-.8c.2-.3.1-.7.1-1.1v-6.1h1.9v6.1c0 .6-.1 1.2-.3 1.7l-.8 1.3a3 3 0 0 1-1.3.9l-1.7.3-1.8-.3a3 3 0 0 1-1.3-.9l-.8-1.3a5 5 0 0 1-.3-1.7v-6.1h1.9v6.1l.1 1.1.5.8.8.6.7.1zM79.6 62.2v10.3H78v-6.6l.1-.8-3.1 5.8c-.1.3-.4.4-.7.4H74c-.3 0-.6-.1-.7-.4L70.2 65l.1.5c.1.2 0 .3 0 .4v6.6h-1.6V62.2h1.8l.1.1.1.1 3.1 5.7.2.5.2.5.2-.5.2-.5 3.1-5.7.1-.1.1-.1h1.7zM98.6 67.3l-.3 2.1c-.3.6-.7 1.2-1.1 1.6-.5.5-1.1.8-1.7 1.1-.7.3-1.4.4-2.2.4-.7 0-1.4-.1-2.1-.4-.6-.3-1.2-.6-1.7-1.1s-.8-1.1-1.1-1.7a6 6 0 0 1 0-4.2c.2-.6.6-1.2 1.1-1.7.5-.5 1.1-.8 1.7-1.1 1.1-.4 2.4-.5 3.6-.2l1.3.5 1.1.8.8 1 .5 1.3.1 1.6zm-2 0-.2-1.5c-.1-.4-.3-.8-.6-1.1s-.6-.6-1.1-.7c-.8-.3-1.8-.3-2.7 0a2.6 2.6 0 0 0-1.7 1.8c-.3 1-.3 2 0 3.1.1.4.3.8.6 1.1s.6.6 1.1.7c.8.3 1.8.3 2.7 0a2.6 2.6 0 0 0 1.7-1.8l.2-1.6zM103.9 63.7v3.1h3.8v1.5h-3.8v4.2H102V62.2h6.5v1.5h-4.6zM123.6 70l.3.1.8.8c-.4.5-1 .9-1.5 1.2a5.7 5.7 0 0 1-4.2 0c-.6-.3-1.1-.6-1.5-1.1-.4-.5-.8-1.1-1-1.7a7.6 7.6 0 0 1 0-4.2c.2-.6.6-1.2 1.1-1.7.4-.5 1-.8 1.6-1.1.7-.3 1.4-.4 2.1-.4s1.3.1 2 .3a4 4 0 0 1 1.5 1l-.6.9-.1.1-.3.1-.2-.1-.3-.1-.3-.2-.4-.2-.6-.1-.7-.1a3.5 3.5 0 0 0-2.3 1c-.3.3-.5.7-.6 1.1l-.2 1.5c0 .5.1 1.1.3 1.5.1.4.4.8.7 1.1s.6.6 1 .7c.4.1.8.3 1.3.3l.7-.1.6-.1.5-.2.5-.3c-.2.1-.2.1-.2 0-.1.1-.1.1 0 0zM137.2 67.3c0 .7-.1 1.4-.4 2.1-.2.6-.6 1.2-1.1 1.7-.5.5-1.1.8-1.7 1.1-1.4.6-2.9.6-4.3 0a4.7 4.7 0 0 1-2.7-2.8 6 6 0 0 1 0-4.2 5 5 0 0 1 2.7-2.8c1.1-.4 2.4-.5 3.6-.2l1.3.5 1.1.8.8 1.1.5 1.3c.2.4.2.9.2 1.4zm-1.9 0-.2-1.5c-.1-.4-.4-.8-.6-1.1s-.6-.6-1.1-.7c-.8-.3-1.8-.3-2.7 0a2.6 2.6 0 0 0-1.7 1.8c-.3 1-.3 2 0 3.1.1.4.4.8.6 1.1s.6.6 1.1.7c.8.3 1.8.3 2.7 0a2.6 2.6 0 0 0 1.7-1.8l.2-1.6zM146.1 64.1l-.2.2-.2.1-.4-.1c-.2 0-.3-.1-.4-.3l-.6-.3-.8-.1-.7.1c-.2.1-.4.1-.5.3l-.3.4-.1.6.2.6.6.4.8.3.8.3.8.3.8.5.6.8.2 1.1-.2 1.3c-.1.4-.4.8-.7 1.1-.4.3-.7.6-1.1.7a4 4 0 0 1-1.5.3l-1-.1-.9-.3-.8-.4c-.3-.1-.5-.3-.7-.6l.6-.9.2-.1.3-.1.4.1.5.3.6.3.9.1a2 2 0 0 0 1.3-.4c.3-.3.5-.7.4-1.1a1 1 0 0 0-.2-.6c-.1-.2-.4-.3-.6-.4l-.8-.3-.8-.3-.8-.3-.8-.5-.6-.8-.2-1.2.2-1.1.6-1c.2-.3.6-.6 1.1-.7l1.5-.3a5 5 0 0 1 1.7.3c.5.1.9.4 1.3.8l-.5 1zM157.3 63.7h-3.1v8.7h-1.9v-8.7h-3.1v-1.5h8.1v1.5zM168.1 72.4h-1.5l-.4-.1-.2-.3-.8-2.1H161l-.8 2.1-.2.3-.4.1h-1.5l4.1-10.3h1.9l4 10.3zm-3.3-3.8-1.3-3.4-.2-.6-.2-.7-.2.7-.2.6-1.3 3.4h3.4zM183.6 72.4h-1.7c-.3 0-.6-.1-.7-.4l-2.2-3.3-.3-.3a.8.8 0 0 0-.4-.1h-.8v4.1h-1.9V62.2h3.1l1.8.2 1.3.6c.3.3.6.6.7.9.3.7.3 1.5.1 2.2l-.4.8-.7.7a3 3 0 0 1-1 .4c.3.1.5.3.6.6l2.5 3.8zm-4.9-5.3.9-.1c.3 0 .5-.2.7-.3l.4-.6.1-.7c0-.5-.1-.9-.5-1.2-.5-.3-1.1-.5-1.5-.4h-1.3v3.4l1.2-.1zM188.4 72.4h-1.9V62.2h1.9v10.2zM199.4 70l.3.1.8.8c-.4.5-1 .9-1.5 1.2-.7.3-1.5.4-2.2.4s-1.4-.1-2.1-.4c-.6-.3-1.1-.6-1.5-1.1a5.9 5.9 0 0 1-1.4-3.8c0-.7.1-1.4.4-2.1.2-.6.6-1.2 1.1-1.7.5-.5 1-.8 1.6-1.1a6.4 6.4 0 0 1 4.1-.1 4 4 0 0 1 1.5 1l-.6.9-.1.1-.3.1-.2-.1-.3-.1-.4-.2-.4-.2-.6-.1-.7-.1-1.3.3c-.4.1-.7.4-1 .7-.3.3-.5.7-.6 1.1l-.2 1.5c0 .5.1 1.1.3 1.5.1.4.4.8.7 1.1s.6.6 1 .7c.4.1.8.3 1.3.3l.7-.1.6-.1.5-.2.5-.3c-.2.1-.1.1 0 0-.1.1 0 .1 0 0zM212.3 72.4h-1.5l-.4-.1-.2-.3-.8-2.1h-4.3l-.8 2.1-.2.3-.4.1h-1.5l4.1-10.3h1.9l4.1 10.3zm-3.4-3.8-1.3-3.4-.2-.6-.2-.7-.2.7-.2.6-1.3 3.4h3.4z" class="st0"/></svg>