<svg xmlns="http://www.w3.org/2000/svg" id="Layer_1" data-name="Layer 1" viewBox="0 0 409.9 260.5"><defs><style>.cls-1{fill:#fff}</style></defs><path d="m147 53-1-2a48 48 0 0 0-5-4v1l-1 6-1-1-5-2-6 3-7 11-5 8-2 6-2 7v4c0 3 0 6 3 8 2 1 5 1 7-1l9-11 3-6 4-5v2l-2 6-1 5v1l-1 3-4 10-1 5-3 6-3 6-6 9-2 3-3 4-8 6-5 2h-3l-1-2 1-4 1-3a209 209 0 0 1 1-12l1-5c0-1-1-2 1-3v-2l1-8v-4l1-1c0-2 0-2 2-3l2-2-1-1-1-1 1-2h-1l1-3v-4l1-7v-2l1-1 1-8-1 1 1-2 1 1 2-13h-2c2-1 2-2 2-4l1-8V26l1-1v-6l-1-3c0-1-1-2-3-2l-4-1-3 1h-1v2l1-1v1l-3 5-5 8-2 2-3 5-7 10-3 6-8 13-3 5-1 1h-1l7-11v1l3-5h-1l-2 4v-1l-1 2-5 7-1 2-5 9c-1 1-2 2-1 4l-5 7v1l-1 2a194 194 0 0 1-5 8l-7 2-2 1-9 2-17 4-12 4c-2 1-3 2-1 4l1 2c1 1 3 2 4 1l1 1h2l10-3 11-3 13-3-1 2-1 1c-2 0-2 2-2 2a638 638 0 0 0-11 29c2 1 4 0 5-1l3-4 1-3 5-10 2-4 3-6 3-7 2-2 6-2 6-1 9-2 9-3 10-3v1l-3 17-3 24-3-5v-7l-2 4v1l3 9 1 2-1 12-1 7-1 11v11c0 1-1 2 1 3l1-2 3-2 3-4v-6l1-11 1-2c1-1 2-2 0-3 0-1 0-3 2-4l-1-4 1 1 1 1h6l5-2c4-1 7-3 10-6l1-1h1l1-2 6-8v-2l3-4 4-8 2-4 1-1v-1l-2 1v-1l2-2h-1l1-1 2-6 1-2c2-2 2-4 2-7l2-6v-1l1-1v-3l2-7 1-7 1-9h1l-1-9Zm-51 47h1l-4 21v-1l3-20Zm-1-11 1-4 2-8 1-4v-2l2-8-1 5-1 9-1 5-1 6-1 1h-1Zm-2 33c-1 6-1 12-3 17h1l-1 1 2-18h1Zm-3 18v3-3Zm6-23h-1l3-17h1l-3 17Zm6-27c-1-1 0-3 1-4l-1 4Zm5-32-1 1c1 0 2 0 1 1l1 1h-2v2l1-1v1h-1v6l-2 7v-2l-1 2c2 1 1 2 1 3l-1-2v4h-1c2 1 1 2 1 3l-3 4 7-39v9Zm-4-22h1l-1 3v-3Zm3-2a11176 11176 0 0 0 0 0Zm-3 32a4232 4232 0 0 1 0 0Zm-1-16v4-4Zm-2-27h1l-2 4h-1l2-4Zm-3 5h1v2h-1v-2Zm-2 3 2-1v1l-2 3h-1l1-3Zm-9 14 2-3 2-2 2-4 1-2 1 1-1 1-3 5c-2 1-2 3-3 5l-2 1 1-2Zm-2 3h1v2h1l-1 1-1-1 1-2h-1Zm-5 6 2-3 1-1 1 2-1 2h-2l-2 1 1-1Zm0 2 1 1-2 2v-1l1-2Zm-3 3 1 1-1 2v-3Zm0 3-2 2c0-2 0-2 2-2Zm-6 7 2-4 2-1-1 3v2l-2-1 1 2h-2v-1Zm-1 1v3l-1 2v-1h-2l3-4Zm-4 6v1l-2 4 2-5Zm-3 5v1c0 2-1 4-3 5l3-6Zm8 19-14 3v-1h1l16-5 9-2 2 1-14 4Zm9-6-13 3-7 2h-1c13-24 28-47 44-70v10l-1 1-1 9v8l-2 11-1 2-1 2a488 488 0 0 1-4 18l-13 4Zm9 41 1-7 1-8 2-12 1-6 1-1v1l-1 7-1 10-3 17-1 6-1-1 1-6Zm-4 37 1-11 1-5v-10l2 2-1 4-2 19-1 1Zm3-3h-1l1-9h1l-1 9Zm2-15v-5 5Zm34-29-2 3-1 2c-2 2-2 6-5 8l-3 5-2 1-2 1c7-6 10-14 15-21v1Zm4-8-1 3h-1v-1l1-3h1v1Zm1-3v-2h1l-1 2Zm-10-29 2-4 9-17 6-5 3-2c-4 11-11 20-20 28Zm12-12 6-9c-1 3-3 7-6 9Zm7-10h-1l2-5-1 5ZM199 68l2-2-2 2ZM244 4V3l-4-3-3 1-1 7-3 9-3 8-1 2-3 8v2l-2 5-1 1v1l-1 3h-1l-2 1-6-5-3-1-6 4-11 15a98 98 0 0 0-9 20l-4 3-3 3c-1 1-3 0-2 2h-1l-4 3-9 4c-1 0-2 1-3-1v-9l2-5 1-2 1 1h5l10-10c2-2 4-4 4-7 2-1 2-3 3-5v-6c-1-3-3-5-5-6h-5l-7 4-5 5-5 8-2 4-4 8-1 5v10l7 11c2 2 5 3 8 3l5-1 3-3 2-1 7-6 3-2 1 2c1 1 2 2 4 1 2 0 4-2 6-4s4-3 5-6l1-1 1-1 3-4c3-2 6-5 8-9l1-1-1 7c-2 3-2 6-2 10v7l2 8 3 3h1l4-7h-3c-1 1-2 0-2-1l1-5 1-1v-5l1-3 1-5 1-4 3-8 2-5 2-5 2-5 2-5 3-10 2-5c1-2 1-4 3-5v-1l2-6 3-8c1-2 1-4-2-5Zm-81 68 2-4v-1l2-3 2-3 5-6 4-3 2 1-4 8-2 3-2 2-5 5-4 3h-1l1-2Zm54-17-1 1v-2l1 1Zm-4 4c-2 0-2 2-3 3l-2 3v1l4-5h1l-5 5-3 2-3 3-6 6-5 5 2-3 1-1 3-3 2-3v-1l-2 2-2 1-2 2 2-2 2-4 2-3 1-2 7-8c1-2 3-3 5-3l3-1h1l-1 1-2 4h2l-2 1Zm1 5h-1l2-3h1l-2 3Zm3 23h-1l-1 1 2-4v3Zm3-10-2 1-1 4v1l-1-1v-2l2-4c0-2 1-2 3-3l-1 4Zm6-20-1 1v2q-2 0-1 2v1l-2 3 1-1-2 5v2l-2 1 1-7 4-9 2-2h-1v-2h1v-2h1l-1 6ZM212 166l1-1 1-2-2 1h1l-1 1v1ZM194 204l-4 10c2-1 4-9 4-10ZM189 218v-1l-3 9c2-1 4-7 3-8ZM200 187l-1 3 1-3ZM215 146ZM210 157l-1 3c2-1 2-2 1-3ZM218 136h-1l-1 3h1l1-3ZM197 199l-1-1-2 5v1l3-5ZM212 153l-1-1-1 4h1l1-3ZM224 124l-1 4h1l1-4h-1Z" class="cls-1"/><path d="m218 164 2-6 1-4 1-3 2-5 1-6 1-1h-1l2-3 2-7v-1l2-5 1-6v-2c2-2 2-4 2-6l1-2 1-2v-2l2-5 2-9 1-6v-3l-2 1-4-1h-4l-2 1v1l-1 7c2-1 1-3 2-4v5h1l1 2h-2l1 1v1h-1l1 2-1 1h1l-1 1-2 8-1 1h-2l-1 4h1l1-3 1-1v2l-1 4-2 7-1 3v3l1-2 1-4 2-8 1-3h2l-2 5c-1 1-2 2-1 4v2l-1-1-1 2 1 2c-1 2 0 4-2 6v2l-1 3-1 2h-1l2-4 1-3h-1l-1 1-2 8-2 5v1l1-1v1l1-3h1l-2 6c0 1 0 3-2 3h1l-2 7-2 6-1 5h-1v-3c0-2-1-4 1-5l1-2 1-2v-3l2-4c-1-1-1 0-2 1l-3 9-3 8-4 11-2 9-1 3-1 3-1 3-1 2-2 3-1 3h1l-1 2v-1 1c1 1 0 2-1 3v-1l-1 2v1l-1 3v1c-2 0-2 1-2 2l-3 10-4 8-1 2 1-5c-2 0-1 2-2 3v-1l-2-8-2-10-1-10v-8l-1-6v-16l1-4-1-5 1-7v-5l1-12v-30c-3-2-7-3-11-1v1l-3 6-1 5-1 4-1 1-2 7-3 9-5 13-6 18a440 440 0 0 0-8 29l-2 8-1 15v14c1 2 1 5 3 6l2 1 3-2v-4l-1-7a94 94 0 0 1 2-20 184 184 0 0 1 2-13l2-5 1-4 1-4 1-4v-1l2-5v-1l1-4 3-7v-2l1-3 3-7v-2l3-5 2-6v-2l2-6 1-1 1-2 1-3-1 48 1-1 1 2-2-1v12a487 487 0 0 0 3 36l2 9 1 3c1 3 2 5 5 7h2c1 2 2 2 4 2l2-1 4-5v-1l3-7 3-7 3-9 2-6 3-8 1-4 1-2 1-4 1-4 1-1v-1h-1c2-3 2-5 2-7l1-1 2-4a101 101 0 0 0 3-10Zm8-57Zm8-7c0 3-1 4-2 4h1v1h-2l2-5h1Zm-3 13h1l-1 2-1 1 1-3Zm-8 26h1l-1 2v1l1-3Zm-3 1 1-2-1 2Zm-84 78 1-11c2 2 0 9-1 11Zm2-11v-3l1-2a2206 2206 0 0 0 1-5v-1h1l-2 11h-1Zm3-11Zm-1 12h-1l2-5 1-1-2 6Zm1-12v-3l1-1c0 2 1 3-1 4Zm1 4 2-8-2 8Zm9-30h-1l2-4-1 4Zm12-37-4 9-2 5-1 5-2 5-1 4-4 11-5 16-1 4-1-2 1-3 2-8 2-6 2-5 4-12 5-13 3-9 5-11-3 10Zm8 35c-1 0-1-2 1-4l-1 4Zm1 0Zm24 44h-1l1-2v2Zm3-7v1l-2 3h-1l1-3a580 580 0 0 0 3-5v2c1 1-1 1-1 2Zm2-5v-2h1l-1 2Zm1-3-1-1 2-1h1l-2 2Zm2-3h-1v-1l1-2 1 1-1 2Zm6-18-1 4c-1 1-2 3-1 5h-1l-1 3c-1 1-1 2-3 2a309 309 0 0 1 5-10v-1l-1 1c1-4 1-5 3-5l-1-1v-1h1l1-1h-2c1-2 1-3 3-3l-2 7ZM231 104h1-1ZM268 173ZM278 124l3-7-2 5-6 16-1 5v-1l6-18ZM266 167ZM360 151Z" class="cls-1"/><path d="m359 153 1-2v-7l-2-7-5-1h-2l-3 4-1 3-3 4-2 4 1-4 2-4v-2c0-2 0-3-2-4l-4-2h-1l-1 1v1l-1 5-3 10v2l-1 2-2 7-2 8-2 2c-2 1-4 3-7 3l-2-1 1-6 5-15 1-3c0-2 1-2 2-3l1-2-3-3-2-2h-2l-4 8-2 3-7 8-11 13-3 3v-2l1-4v-1l2-3h-1l1-2 3-8c2-3 2-6 2-9 0-2-2-3-3-4h-2l-6 13-4 14-1 9-4 5 1-4-4 5h2l-4 5 2-4-6 6h-2l-1-6v-4l2-2h-1v-4l2-2-1-1 2-10 1-4 1-2 1-3v-2c2-2 2-4 3-7l3-8v-2l3-7 2-7 2-7 2-4 1-2 1-4 1-1 5-1 3-1h-8c2 0 3-2 4-1h3c1-1 2-2 3-1l6-1h7l1 1-16 1 1 1 11-1h9l7 1c2-1 4 1 6 1v-4l1-2h-1c1-2-1-2-3-3h-10l-12 1-1 1h-2 1v-1l-3 1h1v1h-5 1v-1l-4 1 2 1h-3v-1h-2l1-2 6-16 1-4-2-4-3-1c-2-1-3 0-3 2v2l-3 7c-1 2 0 4-2 6 1 2-1 3-1 4l-3 8-1 2-3 1-2 1v-1l-3 2h-4c1 1 0 2-3 2l3-1c-1-1-5 0-6 1l-2 1h-1l1 1h-2l-1 1h-4l-5 2c-3 0-5 2-7 3l-6 3-4 3-1 1 1 4h2l6-4 5-2 11-5c2-2 5-2 7-3l4-1 2-1 11-2-1 1-1 3-2 7 2-7 2-4 1-2-1 5-2 3-2 9-3 8-3 10-1 1c0 1-1 2 1 2v1l-2-1v3l-2 6v3l-1 1v-4 1h-1v3l-1 5v2l-1 1v4h-1v1l-1 5-1 1 1-7h1v-2 1l2-10 1-4 3-9a293 293 0 0 0-9 34l-1 5v-2l-1 2v2l-1 1-1 1-2 1-3 5-1 1h-1l1-9 2-8 2-10c1-3 2-6-1-9l-4-3-2 3h1l-1 2-3 4h-2l-2-4-6-5-1 1-3 3-8 15a298 298 0 0 0-9 22c-1 3 0 5 1 7l2 3c1 3 4 4 7 1l2-3 5-5 2-4 2-2 5-9 1-3h1l2-4 1 2-1 2v3l1 9 4 9c1 1 4 3 6 1l3-4c2-1 2-3 3-5h1l1 1 3 2 3 3c2 0 5 0 7-2l4-4v-1l3-3 2-5 1 2 3 2c2 1 6-2 7-5l2-2 2-4v-1l2-3 1-2 2-1 3-5v6c1 3 1 6 3 8s3 4 6 5c2 1 4 1 6-1l2-1a20 20 0 0 1 1 3c-1 1 0 2 1 3l2 1h2v-1c2-1 2-2 2-3v-2l1-3 1-5 3-6 2-5 3-7 1-1 1-1h-1l2-3c1-1 1-3 3-3v-2c1-1 1-3 3-3v1l1 3 2 5h2Zm-34-54h-6 6Zm-10-3h4l-4 1v-1Zm-51 13 3-1 4-2c0 1-4 3-7 3Zm10-3h-2l1-1 2-1v2h-1Zm10-3-3 1-4 1h-1v-1l7-1 2-2v1l-1 1Zm-50 80-2 3-2 1c0 1-2 5-5 7v-3l4-7 1-1c0-4 3-6 4-9l3-4 4-5v1c0 3 1 5-1 8l-6 9Zm13-13-4 7-2 2-3 5-1 1v-2l4-5 2-3 2-3 3-5 2-3-3 6Zm17 8v3h-1l1-6v3Zm7-9h-1l1-3v3Zm5-19-2 8-2 4 4-14v2Zm15-45-1 3 1-3Zm-1-12-1 6v-1h-1l2-5Zm-23 86v-1 1Zm0-3v-3h1v-1l2-11 4-13 6-17 3-9 3-9 3-6-6 16-5 16 1-1 1-1 4-12 3-9 1-1-1 3-2 6-3 7-3 9-2 7-1 1 1-3-1 1 2-5h-1l-1 5-4 10-3 12-1 6-1 2Zm33-5v-1l1-1 1-1c0-2 1-2 2-2l-4 5Zm7-8-1 2-1 1-1-1h-1l2-2 3-1-1 1Zm20 12 1-1-1 1Zm15-20c-1-1 4-8 5-9l-5 9ZM360 151ZM407 148c2 0 3-1 3-3l-3 3ZM406 152l-2 2-3 3-3 2-1-1 4-3-1 1-4 2-7 6-4 3s-2 0-2 2l-4 2-9 5-3-1c-2-3-1-6 0-9l1-6 1-2 2 2h5l9-10 5-7 3-5v-6c-1-3-4-5-6-7h-4l-7 5-5 5-5 7-2 5-4 7-1 6c-2 3-2 7 0 10 1 4 3 8 7 10 2 2 5 4 8 3l4-1 4-2 1-1 7-6 3-3 3-4 1-1 5-6 1-1 3-4 2-3h-1l-1 1Zm-35-1v1l2-4 1-1c1-1 2-2 1-3l3-3c1-3 3-4 5-6l4-3h1c0 3-1 6-3 8l-3 4-2 1-5 5-4 4v-3Zm24 9-2 1 2-1ZM80 210c1 2 1 4-1 6l-4 5-3 4a192 192 0 0 1-8 5h-1c-2 1-3 0-4-1l-1-1-2 4 3-2v2l-2 2h-1v2l-2 1c-2 0-3-2-2-4l-1-2-1-3v-4l1-4v-1l1-1v-3l1-1v-1l1-2 1-5 1-2 2-3 1-2h-1l1-2v1h1v-2h-1l3-5v1-2l1-4 1-3 2-3v-3a1 1 0 0 1 1-1c2 1 4 1 5 3v3l-3 7-2 4-1 3c-2 2-1 4-2 5l-2 4-1 3-1 3-1 3-1 3-2 5v1l2-2 1-2 1-3 4-3c0-2 1-3 2-3 3-2 5-4 8-4l4 2v1l2 2v-1Zm-29 13 1-5v2l-1 3Zm2-7 1-3-1 3Zm2 1 1-3-2 3h1Zm1-8 1-2-1 2m0 4 3-6h-1l-2 6Zm3-8-1 4 2-4h-1Zm17 5v-1h-1l-6 5-1 1-2 3-4 5-2 4 6-4 1-1 3-3 1-1 3-4 2-3v-1Z" class="cls-1"/><path d="M106 203v1l-1 3-1 5-1 3v1l-2 7-2 4v2l-1 1-1 3-1 1h1l-2 2v1l1-2h1l-1 1-1 3v1l-1 2-1 2v1l-1 1-1 2v1l-1 2-1 1-1 1-1 1-1 1-1 2-2 1-5 2c-2 1-4 0-6-1s-4-3-5-6l-1-2 1-2v1l2 4 2 2 6-1 1-1h1l4-4-4 4v1l1-1 3-3 5-7 2-6 3-7 2-7 3-8 1-6 2-4v-1h-1l-1 3-1 1-1 1-2 4-4 7-2 3v1l-2 3a1 1 0 0 1-2 0l-3-2-1-7 1-4 2-9 1-2 1-3v-2l2-1 2 3-1 6-1 3-1 4-2 7v1l4-5 2-4h2v-2h1l-5 8 13-21-6 8 6-9h-1l1-1 1 1 2 1v1l1 4Zm-32 54h-3 3Zm22-27 2-4h-1l-1 3v-1 2l-2 6-2 4-2 7-2 2-2 1-1 2 2-3h-1l-3 5-5 4c3-1 5-3 7-6v1l-1 1v1l3-5h1l-2 3h1l2-3 2-4 3-7 1-4 2-4-1-1Zm-6 11-1 3 2-2h-1v-1Zm6-11-6 14h1l5-14Zm-4 8-1 2 1-2Zm2-28 1-2-1 2m3 16 1-3-1 3m1 0 4-14h-1a374 374 0 0 0-2 9l-2 5h1Zm0-6v3l1-3h-1Z" class="cls-1"/></svg>