<svg xmlns="http://www.w3.org/2000/svg" width="535" height="428" fill="none"><g fill="#DCBF6F" clip-path="url(#a)"><path d="M234 123c3 1 5-2 8-3l-1 1c-1 2-3 3-3 5v1l-3 2-2 2-4-1-4-8c-2-5-1-11 0-17l2-7 2-10v-3l1-5-5 3-1 1-5 7-3 3-9 13-7 13-5 9c-3 3-4 7-6 10l-1 3-1 1c-1 1-1 3-3 3l-4-2-4-7v-2c0-6 2-12 4-17l6-17 6-16 2-8 3-7c1-2 2-2 4-1l3 2v7l-4 15-2 8-2 3v2c4-6 6-11 11-15l2-4-1 3 5-7-1-1 9-10-2 1-2 2h-1l3-3c2-2 4-5 7-4l4 1 1 1 4 1 1 1v3c3 2 4 4 3 8v6l-1 5v1c1 2 0 4-1 5-1 4-3 9-2 13l-1 1-1 2v5l1 2Zm-35-11c8-13 16-26 28-37l-1-1-1 1c-2 1-3 5-6 6l-2 2-1 2-4 4-5 8-5 8-4 7h1Zm7-50c-2 1-4 1-5-1v-1a593 593 0 0 1 14-13l8 4 4 3h3l4-3 7-8h2c2 0 3 3 1 5l-6 7c-2 2-3 4-7 5l-6-3-7-5h-4l-6 8-2 2ZM304 101l2-1h1l-3 4-4 4-1 1-6 8-1 2-4 5-4 4-9 7-2 2-4 3-6 1c-4 1-7-1-10-4-5-3-7-8-9-13-2-4-2-9 0-13l1-7 5-10 3-5 6-10 7-7 8-5c2-2 4-1 6 0 3 2 6 4 7 8v7c-1 2-1 5-3 7h-1c0 4-3 6-5 9l-12 13h-7l-2-2-1 3-2 7c-1 4-2 8 0 11 1 2 3 1 4 1l11-5 6-3v-1c0-2 2-2 3-2l4-4 9-7 6-4h1l-5 4 1 1 4-3 4-4 2-2Zm-44-1-1 3h1l5-4 7-7 2-2 3-4c3-3 4-6 5-10 0-1-1-2-2-1l-5 4c-3 2-5 4-7 8l-3 3c1 1 0 3-2 4v1l-3 5Zm28 12h3v-1l-3 1Zm18-16 4-4-4 4Z"/><path d="M316 105c3-1 6 1 6 4l2 3-2-1c-2-1-4-2-6-1l-1 1c-1 0-2 0-2 2l-1 4-2 6-3 12-2 7-4 11-5 8-4 9-2 3v2l-4 6c-1 2-1 4-3 4v1c-1 5-5 8-7 11l-2 2c-2 1-1 2-1 3l-3 2-1 1c2 0 1 1 0 2l-5 4-2 2-2 1c-2 2-6 4-9 3l-6-4-6-7c-2-3-2-8 0-13l5-13a190 190 0 0 1 31-44l8-8h1l-2 3-2 2-7 7-3 4-4 5-13 17v3l14-19 17-19 18-16-3 1c-3 1-4 4-6 5l-1 1h-2l3-3 9-7 1-2 2-7 1-10c1-3 2-5 1-7v-7l1-2h1c2 1 3 4 4 6 2 3 2 7 1 10l-1 10c0 1 0 2 2 2h1Zm-19 29 3-12-1 1-5 5-10 9-4 3c-3 0-2 2-3 2v1l2-2-1 3-5 6-3 3-4 4 1 1h-1l-2 4-6 8-5 6v2l-4 6-2 2-2 7c-2 4-3 9-2 13 0 2 1 3 3 3s5 0 8-2l10-8 5-7 4-6 4-6 6-11 2-5 5-12 3-6v-2l4-9v-1Zm-29 71h-1l-3 4v1l4-5Zm14-21-3 5c2-2 3-3 3-5Zm6-10 4-8h-1l-1 2-3 7-5 9 2-1 4-9Zm1-51-6 5c1-2 4-5 6-5Zm9-1-5 4h1l5-4h-1Zm-3 37 4-9h-1l-3 9v1-1Zm33-127c2 2 2 4 1 6l-4 10v1c-4 2-3 5-5 8h-1c-1 1-3 1-3 3l-4 8-1 2-1-1V58l2-7 6-16 1-4 1-4 9 5h-1Z"/><path d="M388 91v-1l1-2h-1l-7 11 1 2 6-9h1l-1 5 1-1v1l-4 7-5 9-4 7-5 5c-2 2-6 0-7-2-2-3-5-6-5-11-1-4-2-8-1-12v-9l-3 6h-1l-1 3-7 12-2 2-3 5-6 8-3 3c-3 4-8 2-10-1l-2-4c-1-3-2-6-1-9l3-9a393 393 0 0 1 19-38l3-5h2l7 5 4 6h2l4-6v-3l2-3 5 5c4 2 3 7 2 11l-3 12-3 10-1 12h1l1-1 5-7 2-1 2-1 1-2v-2l1-2v3l9-14c1 1 3 1 3 3l-1 2h-1Zm-45 9 7-11c3-4 1-7 1-11h-1l-4 6-4 5c-2 4-5 7-5 11l-1 2-5 9v3c3-2 6-7 6-8l2-2 3-4h1Zm16-16c3-3 3-6 4-8l-1-1-2 5-3 6-4 5-2 3-5 7v2l1-2 5-6 2-2 5-9v-1 1Zm27 3-3 5-1-1 3-4h1Z"/><path d="M456 6c3 1 3 3 2 6l-3 10-3 7-1 1c-2 2-2 5-3 7l-3 7-4 12-2 7c-2 2-2 4-3 7l-2 6-2 7-5 9v5l-2 7-1 4c0 2-2 4-1 6v2l-1 6c-1 1 0 2 1 1h5l-5 9h-1l-4-3c-2-3-4-7-4-11v-10l3-12 2-9h-1l-1 2-10 11-4 5-1 2-1 1-7 8-8 5c-2 1-4 0-5-2-5-6-4-13-1-20 3-8 7-15 11-21 4-7 8-14 14-19l7-5 4 1 7 6h4l2-4v-4l3-6 1-2 3-11 1-2c3-3 3-7 4-10l4-12 2-8c1-2 2-2 3-2 3 1 3 3 5 4l1 1v1Zm-47 77 3-4c1-1 2-3 4-3l2-2h-2l3-4v-1l-1-1-3 1-7 4-8 10-2 3-3 4-3 5-5 10v1l8-7 7-8 4-4c1-2 2-2 4-2l6-7h-1l-5 6-1-1Zm10-5-3 4h1l2-4Zm2 33v-4c-2 1-3 3-3 6l2-2h1Zm0-41h-1l-1 2h1l1-2Zm3 29 2-5c-3 0-4 1-4 3l-2 5v4l1-1 2-6h1Zm9-27 1-7-2 1 1 2h-2v3h2l-3 2-5 12c-1 3-2 5-1 8l1-1 2-3 2-5h-2l3-4v-1c-1-2-1-2 1-3-1-1 0-1 1-2l1-1v-1ZM492 74v1l-6 6-3 2h-1c-3 4-7 6-11 9-1 1-3 3-3 5l-1 1-1 1c1 2 0 3-1 4l-10 14-3 5c-3 3-6 4-10 2l-7-7-2-5c0-4 0-7 2-11l4-11c3-8 5-18 9-26l8-13 6-11 5 2c4 2 7 4 9 7l4 7-1 8-4 16h2l5-3h1c3-2 6-1 8-3h1Zm-50 42c6-6 11-13 15-20l-9-4c-2 8-7 15-6 24Zm18-67c-5 6-8 13-11 20v1l11-20v-1Zm8 27c1-1 1-3 3-3v-1h-1l2-3 1-3v-3l-1 1c0-6 1-11-1-17l-3 4-6 8-2 3-2 7-5 13-1 5c0 1 1 2 2 1l8-2 3-3c2-2 2-5 3-7Zm7-4v-1l2-10-2 1a1816 1816 0 0 0-1 6l1 2-1 1-1 2-1 3-3 7 1 1 2-2 3-7c0-1-1-2 1-4l-1 1Zm-4-6-1 4h-1l1-4h1ZM138 212v4l-1 7-3 11c-1 2-1 5-3 6v3l1 1h-1l-1 2-1 3c0 2 0 5-3 7 2 1 1 2 1 3l-2 8-2 6-1 1-2 9-2 4 1 1-2 1h1l-2 8-2 6-1 3-2 5v1l-2 7-2 6-3 7-2 5-1 2-2 8 1 1-1 1v1l-2 5-2 5-1 3-1 5-4 10-3 8-4 12c0 3-2 5-3 8l-4 9v1l-5 7-3 2c-2-1-4-1-5-3l-2-1-7-8-1-5-2-11-2-9-1-18-1-18v-16l2 1v-3l-3 2 3-61h-1l-1 3-2 3v2l-3 6-1 3-2 8-3 7-1 2-3 9-1 4-1 2-3 9c-1 2-2 3-1 5l-1 2-3 6v1l-1 5-1 5-2 6-2 6-1 6-2 10-2 13v14l1 9v4l-3 3-3-1c-3-2-3-5-4-8l-1-18 3-19 2-10 3-15 7-22 8-24 6-16 4-12 2-8 1-3 2-4 2-6 3-9 1-1c5-2 9-1 13 2l1 3v16l-1 11v8l-1 16v6l-1 9 1 7-1 5v20l1 7 1 11 1 12 2 13 2 11v1c1-1 1-4 3-4l-1 6 1-2 5-10 4-13c0-1 0-3 2-3l1-1c-1-1 0-2 1-3v-1c0-2 0-3 2-4l-1 2c1-1 3-2 1-4l1-2v2l1-2h-2l2-4 2-4 1-3 1-3 2-4 1-4 3-12 5-14 4-11 4-11c0-2 1-2 2-2l-2 6c-1 1-2 2-1 4l-1 2-1 3c-2 2-1 5-1 8l1-2 3-10 3-8-1-1c2 0 2-2 3-4l2-7-2 1v-1l1-1c1-1 2-2 1-3-1-2 0-3 1-3l2-3 1-3v-3c3-2 1-5 3-8l-1-1 1-3 1 1c0-2 1-3-1-3 0-2 1-3 3-5l2-6-1-1-1 1-2 4-3 10-1 5-1 2v-3l1-4 3-10 1-5v-2l-2 2v-2h2l1-2 2-9 2-3-1-3h2l-3-2h3l-1-2h-2c1-3 3-5 1-7-1 1 0 4-3 4 2-3 1-5 1-8v-2h9c2-1 4-1 5 1l2-1ZM5 375l-1 13c1-2 3-11 1-13Zm2-1 3-14H9v1l-1 2-1 5v2c-1 2-2 3-1 4h1Zm2 2c1-2 0-5 2-7h-1l-2 7h1Zm1-16c2-1 1-3 2-4h-1l-1 1v3Zm4-5-3 10 3-10Zm24-76 4-13-1 1-5 13-5 12-6 17-5 15-2 7-2 7c-2 3-3 7-3 10l-2 5 1 2 2-5 6-21 5-14 1-5 3-6 2-6 2-6 5-13Zm-14 43-2 5 2-5Zm24 3 1-6c-2 2-2 5 0 6h-1Zm2 9v-9 9Zm21 54c1 1-1 9-4 10l4-10Zm2-5 4-12c1 1-2 11-4 12Zm5-13h-1l3-7 1 1-3 6Zm2 11c0-1 2-1 0-3v3Zm4-9c1-1 2-2 1-3l1-2v-1l-2 2-2 5-1 4h1v-1l2-3v-1Zm0-19 1-5h1l-2 5Zm3 13v-3h-1c0 1-1 2 1 3Zm2-5 1-2-3 2 2 1v-1Zm1-4 1-2v-1l-2 2 1 2v-1Zm8-22 3-9c-2 0-3 0-3 3l1 1-1 1h-1l1 1v2c-2-1-3 1-3 5l1-1-1 2-2 4v1l-3 8c2 0 2-2 3-3l2-4v-1l2-5 1-5Zm1-25c1 2 1 3-1 4l1-4Zm2-5-2 4 1-5 1 1Zm1 19 1-6-2 1 1 1-2 2 1 3h1v-1Zm-1-16 4-11c1 1-2 9-4 11Zm7-24-1 3h-1l1-4 1 1Zm2 9h-1l2-7 3-10 1-2 1 1-1 3-3 8-2 7Zm6-3 1-3h-1l-1 4 1-1Zm0-17h-1a13453 13453 0 0 0 3-6l-2 6Zm2-26-1 4 1-4h1-1Zm7-19c3 2 0 4 0 5h-1l1-4v-1Zm1 26-2 3h2v-3Zm0-12c2 0 3-1 3-5h-2l-2 7h2v-1l-1-1ZM175 334l1-3h-1l-7 11 1 2 6-9h1l-1 5 1-1v1l-4 7-5 10-4 6-5 5c-2 2-5 1-7-1-2-4-5-7-5-12-1-3-2-7-1-12v-8l-3 5h-1l-1 3-7 12-2 3-3 4-6 8-3 3c-3 4-8 3-10-1l-2-4c-1-2-2-5-1-9l3-9 9-19 10-19 3-5h2l7 6 4 5h2l4-6v-2l2-4 5 5c4 3 3 7 2 11l-3 13-3 9-1 12h1l1-1 5-6 2-2 2-1 1-2v-2l1-2v3l9-13c1 1 3 0 3 2l-1 3-1-1Zm-45 10 7-12c3-4 1-7 1-10l-1-1-4 6-3 6c-3 3-6 6-6 10l-1 2-5 9v3c3-2 6-7 6-8l2-2 3-4 1 1Zm16-17c3-2 3-5 4-8h-1l-2 4-3 6-4 5-2 3-5 7v2l2-1 4-6 2-3 5-9v-1 1Zm27 3-3 5-1-1 3-4h1Z"/><path d="M260 235v5l-8-2h-20l-14 1-1-1 20-2-1-2-7 1h-3l-6 1h-2c-1-1-2 0-3 1h-3c-2-1-4 1-6 2l10-1c0 2-1 2-3 2-3 2-5 0-7 1l-1 1-2 5-1 3-2 4c0 4-2 7-3 10l-3 9-3 9-1 2-4 11-3 9v2l-1 4a87 87 0 0 0-3 8l-4 18-1 11 1 9h3l7-9 1 1-4 4h1l5-6h-2l5-6-2 5c3-1 5-4 7-7l6-9 4-5 1-2h1l-4 7-4 7v4l-1 1-5 10-3 5h-1c0 3-3 4-4 6-3 3-6 2-9 2l-5-3-3-3c-4-3-5-9-4-14l1-8 2-10a223 223 0 0 1 10-35l8-23 6-18 1-4 1-2a1677 1677 0 0 0-15 4l-6 2-10 3-13 7-7 3-8 5h-2l-2-4 1-2 6-4 8-4 8-4 7-2 2-1h4l1-1h2l-1-1h1l2-1c2-1 7-3 8-2l-3 1c3 1 4 0 4-2h4l4-2h4l3-1 1-3 4-10c0-2 2-3 1-5v-1c3-2 2-5 3-7l3-9v-3c1-2 2-3 4-2l4 1c2 1 3 3 3 5l-2 6-7 20-1 3h2v1h3v-1h-2v-1h6l-2 1 7-1-2-1 5-1v1h-2 3l1-1 16-1 2-1h4l-1 1h7c2 0 4 0 4 3l1 1-1 2Zm-92 102-1-4-1 11 1-7h1Zm-1-88c3 0 9-2 10-4l-6 2-4 3v-1Zm4 75-2-1-2 9 2-1 2-6v-1Zm-1-3v2h1l1-6h1v-3l2-6-1-4-1 4-3 13Zm16-34h-1l7-21 7-20-3 8-4 11-5 12-6 22-5 16-5 19v5-1l3-14 4-15c1-4 4-13 6-14l-1 4 1-2 3-9 4-11 3-9 3-8 1-4-1 1-4 12-5 15-2 2v1Zm-8 5-4 12h1v-2h1v5-1l1-4 2-7v-4l2 1v-1c-2 0 0-2-1-3l1-1 5-13 3-10 4-11 1-4 2-7-2 3-2 5-6 15-7 21-2 6h1Zm-1 29-2 5h1l1-5Zm3-76 2-1-1-1-2 1h-1v1h2Zm3 54-5 17 2-5 3-9v-3Zm2-10c1 3-1 5-2 7l2-7Zm4-47 4-1 2-2h-1l-2 1-9 3v1h2l4-1v-1Zm10-7c2-2 2-4 2-7l-2 7Zm2 13 2-4-1-1-1 4v1Zm37-15v-1l-5 1h5Zm6 3h1c-1-2-5-2-7-1l1 1h5Z"/><path d="M264 317v2l-3 7-2 2-1 1-3 6-2 2-1 2-5 5-3 4-3 4-3 2h-8c-4-1-5-3-7-6-3-3-3-7-4-10l-1-5 1-3h-1l-4 6-1 2-2 2-2 4-1 1c0 2-1 3-3 5l-1 3c-2 4-7 8-9 7l-4-3c-4-6-6-12-4-20l6-18 7-17h3c2 1 4 2 4 5s0 7-2 11l-5 11-2 8-1 4-1 3 5-4 13-16 10-11 2-3 5-10c1-2 2-1 3 0l3 1 4 5-1 2c-2 1-3 2-3 4l-2 4c-2 6-5 13-6 20l-1 7c0 1 1 2 2 1 4 0 6-2 9-4l8-6 13-10 2-2 3-4-1-1Zm-58 20c3-1 3-3 5-5-2 0-3 0-3 2l-1 1-2 2 1 1v-1Zm10-11h-1c-1 1-1 2-3 2l-2 2h1l1 1 1-1 2-2 1-2Zm30 14 2-4h-1l-2 3-4 2v2l1-1 4-2Zm4-5 8-7h-1a622 622 0 0 0-8 8l1 1v-2Z"/><path d="m296 297-1 4-3-1c-3-2-4-4-5-7v-4l-1-3-4 5v2l-1 1c-3 1-3 4-4 6l-4 7-5 10-3 9-4 9-3 8-1 4v3c0 2-1 3-3 5v1c-2 1-2 2-4 0l-3-1c-1-1-2-2-1-5l-1-1-1-8 1-6 4-19 4-11v-3l1-2 5-17 2-7v-4h3l6 3c2 1 3 4 3 7l-1 2-3 7-1 6v1l3-6 5-7 2-4 4-7 3-1c2 1 5 1 7 3 3 2 5 6 4 10v12-1Zm-20-7c-2 1-9 12-9 14l9-14ZM354 309h-1l1-3-7 12v1l6-9h1l-1 5h2l-1 1-4 7-5 9-4 6-5 6c-2 1-5 0-7-2l-5-11c-1-4-2-8-1-12v-9l-3 6-1-1-1 4-7 12-2 2-3 5-6 7-3 4c-3 4-8 2-9-2l-2-4c-2-2-2-5-2-8l3-10 9-18 10-19 4-5 1-1 7 6c2 1 3 4 4 6 1 1 1 1 2-1l4-5 1-2-1-1 2-3 6 4c3 3 2 7 1 11l-3 13-2 10-1 11 1-1 5-6c1-1 1-2 2-1l2-2 1-1v-2l1-2v2l10-13c1 1 3 0 2 2l-1 3v-1Zm-46 10 8-11c2-4 1-8 0-11v-1l-5 6-3 6c-2 3-5 6-6 11l-1 1-5 9v4c3-2 7-7 6-9l2-1 3-4h1Zm17-17c2-2 2-5 3-7l-1-1-2 4-3 6-3 5-3 4-4 7-1 2 2-2 4-6 2-2 5-10h1Zm26 4-3 4h-1l4-5v1Z"/><path d="m388 218 1 1-1 9-2 3v4c-3 1-2 3-2 4l-2 3-1 3-2 6-2 7-3 6-1 4-7 12-1 2-6 12-6 14-3 5-3 1-1 3-1 2c0 2 1 4-1 5 1 1 0 2-1 2 2 1 2 2 1 4l-1 3c-1 3 1 5 1 7l1 7h2l7-5 8-10 1-1-2 3c4 0 5-3 8-5l1-1h1a1265 1265 0 0 0-11 17l-6 8-1 1c-4 2-7 2-10-1-4-4-7-8-8-13v-10c2 0 1-1 1-2v-3l1 2v-1l2-8v-8l1 3 2-8 4-16 4-13 6-19 6-17 2-8 1-4 1-3 3-9 6-14c1-1 1-2 2-1l7 3c2 1 4 7 4 10v4Zm-47 104 1-4h-1v4h1-1Zm1-18c-1 0-1-1 1-3l-1 3Zm2-7h-1l1-4h1l-1 4Zm1 10 1-5-2 5h1Zm3-12h-1l-1 5h1l1-5Zm3-21-2 3 1-3h1Zm32-43v-3h-1l-1 6h-1c1-7 3-14 1-21l-3 6-1 4-4 10-3 9-4 8v2l-2 3c1 1 0 2-1 4l-1 2-2 4v1c-1 4-3 8-2 12h-1l-3 4h1v1l-2 1 1 1-2 3 1 3 6-10c1-2 1-4 3-5l4-6 3-1v-3c1-3 1-6 5-7 1-2 2-3 0-5h2l2-5 1-3v-2l2-5 1-2c-1-2 1-3 1-5v-1Zm-27 38-2 4h1l1-3v-2 1Zm3 15 3-5 1-3-5 8h1Zm10 41-5 7 4-7h1Zm6-73 2-6h1l-3 6h-1 1Z"/><path d="m420 308 3-2v1l-3 4-4 4-1 1-5 9-2 2-4 4c0 2-2 3-3 4l-9 8-2 2-5 2-5 2c-5 1-8-2-11-4-5-3-7-9-9-14-1-4-2-9 0-14l2-7 5-10 2-5 7-11 6-6 9-6c2-2 4-1 5 0 3 2 7 4 7 8v8c0 2 0 5-3 7-1 4-3 7-6 9-3 5-8 9-12 13-2 2-5 2-6 0l-2-1-1 2-2 8c-1 4-2 8-1 12 1 2 3 1 4 1l12-6 5-3v-1c0-2 2-1 3-2l5-4 9-7 5-4h1l-4 4 4-2 4-4 2-2Zm-43-2-1 3v1l5-5 7-6 3-3 3-4c2-3 4-7 4-11h-2l-5 4c-2 2-5 4-6 7l-4 4c1 1 0 3-1 4l-1 2-3 5 1-1Zm28 13h2v-1l-2 1Zm17-17 4-4c-1 2-2 4-4 4Z"/><path d="M476 284c1 1 1 2-1 3l-7 4-6 5 4 3c2 3 4 6 4 10l-1 9c-1 6-3 12-6 17l-7 8-3 6-9 9-9 8-3 2-3 4-16 12-6 4c-5 2-9 5-14 6-6 2-11 0-15-4l-4-6c-2-3-1-7 1-10l6-9 2-4 5-5 2-4 3-3 2-3 5-5h2v-1l1-2 5-5 3-2 8-8 4-5h1l9-7 7-6 2-2-7 3-15 12h-5l-4-6v-3l7-8 8-8 11-12 9-12 1-1-9 6c-7 4-11 10-17 14l-5 6c-1 2-4 2-6 3l-3-2-1-1c-2-2-2-4 0-5l10-9 9-8 5-4 12-8 7-4c3-1 6-1 8 3l3 4c1 2-1 5-2 7l-4 6-3 2a103 103 0 0 1-11 14h1c5-2 10-2 15 0l3-1-1 1 2 2 16-10Zm-19 35c3-6 4-12 4-18l-2-1-3 1h-2c-1-1-2-1-3 1h3l-8 7v-1l5-5-6 2 2 1-3 1h-1c-2 1-4 1-5 4l-3 3-3 1 1-2-2 2v4l9-7h4l2-2-6 7-10 7c-2 2-4 5-7 6-2 0-2 1-3 3l-1 1-5 4-2 2-1 1-4 4-1 1-2 2-3 4-1 1-10 11-2 3-5 10-2 6 1 1h4c8-2 14-6 21-11l12-9 10-9 7-7 12-15 8-14h1Zm-70 42-3 5 4-5h-1Zm56-15 1-3-10 10-7 7-15 13c-6 5-12 8-18 11l-4 3-4 1v1c7-2 14-5 20-10l2-1a100 100 0 0 0 12-10l4-4 9-8 9-10h1Zm-54 14c3-1 3-4 5-5-3 0-4 3-5 5Zm6-5-3 4 1 1 3-5h-1Zm1-4 1 1 10-11v1l-2 3h1l4-4v-1l-1 1 2-3h3l-2-2 6-5 4-5c1 0 3-2 5-1-2-2 0-2 1-3l3-3-2-1-3 3-2 2-2 2-1 2c-1-1-2 0-2 1l-1 1c-1 0-2 0-2 2l-1 1-4 3-1 2-5 4-4 5-4 5h-1Zm6-4-3 4 1 1 3-4-1-1Zm38 5-5 6 5-6Zm5-10 3-4h-1l-2 4Zm21-55-3 2h-1l4-2v1-1Zm7-3-6 4-1-1 7-4v1Z"/><path d="m533 263 1-3h-1l-7 11 1 2 6-9v5l1-1v1l-4 7-6 10-3 6-5 5c-2 2-6 1-7-1-2-4-5-7-5-12-1-3-2-7-1-12l-1-3 1-3v-2l-4 5-2 3-7 12-1 3-3 4-6 8-3 3c-4 4-8 3-10-1l-2-4c-2-2-2-5-1-9l3-9c2-6 5-13 9-19l10-19 3-5h2l7 6c2 1 2 3 3 5h3l4-6v-2l1-4 6 5c3 3 3 7 2 11l-4 13-2 9-1 12h1l1-1 5-6 2-2 2-1 1-2c1-1 0-1-1-2l2-2v3l9-13c1 1 3 0 3 2l-2 3v-1Zm-46 10 8-12c2-3 1-7 1-10l-1-1-4 6-4 6c-2 3-5 6-5 10l-1 2-5 9v3c3-1 6-7 6-8l2-2 3-4v1Zm17-17c2-2 3-5 3-8l-3 4-3 6-3 5-3 3-4 7v2l1-1 4-6 2-3 5-9 1-1v1Zm26 3-3 5v-1l3-4ZM335 170v5l-1 3-3 6-2 3-3 5h-1l-2 2-2 2-1 1-1 1v1l-4 1-1 1-1 2v1l-1 2c1 1-1 2-1 3v3l-1 2v3l-2 5-1 6-1 1v5l-1 2h-1c-1 0-2-1-1-2v-8a70 70 0 0 1 2-11l2-10 1-4 1-5v-1l1-5 2-7 2-5 1-5v-5l5 1v8l-2 4v5l-1 2v-1l1-2 2-4 1-2 2-3 1-1 2-4 1-1v-1l2-2c0-1 1-2 2-1 1 0 3 0 3 2l1 1v1Zm-29 49v-2l-2 9 1-3 1-5v1Zm3-14h-1v1l-1 2-1 6v3l3-12Zm0 0 1-7c-1 2-2 6-1 7Zm7-9c5-2 16-21 15-26l-2 3-2 1v1l-3 4-2 4-2 3v3l-2 3-1 3-1 1Zm2 1c2-1 4-3 5-6l-5 6ZM358 179v1l-3 2-1 1-5 4-2 2v1l-1 2-4 6-2 2c-1 2-2 2-4 1l-3-3-1-2 1-5 2-5 4-11 3-6 3-4h2l4 3 2 3v1l-1 3-1 7h1l2-1 4-2Zm-22 19 7-9-4-2-3 10v1Zm8-30-5 9 5-8v-1Zm4 12 1-1v-1l-1 1v-1l1-1 1-1v-2 1h-1v-7l-2 1-2 4-1 1-1 3-2 6v3l4-1 1-2 2-3Zm3-2v-7l-1 6v2l-1 1-1 3v1l1-1 2-3v-2Zm-2-2-1 2 1-2Z"/><path d="m377 172-1 2h-1l-2-3-1-2v-2l-1 3-1 1-2 2-1 4-3 4-1 4-2 4-1 3-1 2v1l-1 2v1h-1l-2-1-1-2c1 0 0 0 0 0v-6l2-9 2-4v-3l2-7 1-3v-2h1l3 2 1 2v1l-1 4-1 2 1-2 2-3 1-2 2-3h2l3 1 2 4v5Zm-9-3-4 6 4-6ZM410 135l1 1-1 4v2l-1 1v1l-1 2v1l-1 2c0 2-1 2-2 3v3l-1 2-3 5-1 1-2 6-3 6-1 2h-1l-1 1v1l-1 3v9l1 1 3-3 4-4v1l3-2 1-1-5 7v1l-2 3-1 1-4-1c-2-1-3-3-4-6v-4l1-1v-1 1-1l1-3v-3 1l1-4 2-7 2-5 2-9 3-7 1-4v-1l1-2 1-3 3-7h1l2 1c2 1 3 3 2 5h1l-1 1Zm-20 46v-2 2Zm0-8 1-2-1 2Zm1-3v-2 2Zm0 4 1-2-1 2Zm2-5h-1v2l1-2Zm1-10-1 2 1-1v-1Zm14-18v-1l-1 2v-9l-1 3v1l-2 5-2 4-1 3v1l-1 1-1 2v1l-1 2-1 5v1l-2 1h1v1h-1v3l3-4 1-2 2-3h1v-2l2-3 1-2 1-2 1-1v-1l1-3v-3Zm-12 16v2l1-1-1-1Zm2 7 1-2v-1l-2 3h1Zm4 18-2 3 2-3Zm3-32 1-2-1 2h-1 1Z"/><path d="M429 174v-2l-3 5v1l3-4v3l-1 3-3 4-1 2-2 3c-1 1-3 0-3-1-1-1-3-3-3-5v-9l-1 3-1-1v2l-3 5-1 1-2 2-2 3-1 2c-2 2-4 1-5-1v-1l-1-4 1-4 4-8 5-9 1-2h1l3 2 1 3h1l2-3v-1l1-1 2 2c2 1 2 3 1 4l-1 6-1 4-1 5h1l2-3h1l1-1v-2h1v1l4-6 1 1v1h-1Zm-20 4 4-5v-5l-2 3-2 2-2 5-1 1-2 4v1l3-4h1l1-2Zm7-7 2-4-1 2-2 3-1 2-1 1-2 3v1-1l2-2 1-1 2-4v-1 1Zm12 1-1 2h-1a2466 2466 0 0 1 2-2ZM177 56l-1-5c-1-1-1-3-4-3l-6-1h-4l-1 2h2v1l-4 6-6 9-2 3-4 6c-3 4-7 7-9 12l-4 7-10 15-4 6-1 2 8-14v1l3-5-3 4-1-1-1 2-6 9-2 3-5 10c-1 1-3 2-1 4l-1 1c-2 3-3 6-6 8v2l-1 2-5 9-2 1-8 1-3 1-11 1-23 4-14 2c-3 1-4 3-2 5l2 4 5 2h2l1 1 13-3 15-2 16-2-1 2-1 2c-2-1-2 2-3 3a762 762 0 0 0-14 32c0 1-1 3 1 3 2 1 5 0 7-1 1-1 3-3 3-5l1-3 7-13 2-5 4-7 3-8 3-2 8-1 8-1 10-2 13-2 12-2v1l-3 21-3 30-3 19 3-1v-9l1-8 1-8 1-9 2-11 2-15 1-7v-2h1v2l-1 9-1 12-3 22-1 8v-1l-2 14v3l3 1 5-5 1-1v1h1v-2c0-2-1-5 1-7v-4l1-4v-4l1-12 1-3v-1l1-6c0-1-1-3 1-4v-2l1-10v-5l2-2c0-2 0-3 2-3l2-2-1-1-2-3 2-1-2-1 1-4v-5c2-3 2-6 2-9v-1l1-2 2-10-2 1 1-2h1l2-15-2-1c3-1 2-3 3-4V64l1-1v-7Zm-9 17c2 3-1 34-3 37l3-37Zm-3 2h1l-1 4v-4Zm-1 19v4-4Zm-3-35h1l-3 5-1-1 3-4Zm-4 5 1 1v2h-1v-3Zm-3 4 2-1 1 1-3 4v-4Zm-11 17 2-3 3-3 2-5 2-2 1 2h-1c-2 2-2 5-4 6s-3 4-4 6l-2 2 1-4v1Zm-2 3 1 1-1 2h2l-1 1-2-1 1-3Zm-7 8 3-4 1-1 1 2-1 3h-2l-3 1 1-1Zm1 1v1l1 2-3 1 2-4Zm-4 5-1-1h1l1 1c0 2 0 3-2 3v-2h1v-1Zm0 3h-1c0 2-1 1-2 2 0-2 0-2 3-2Zm-8 8v1l3-5 2-2-2 4 1 2-2-1 1 3c-2-1-3-2-3 0h-1l1-2Zm-2 2 1 1v3l-1 2h-1v-2l-2 1 3-5Zm-4 7v1c1 1 1 1-2 5-1-1 1-4 2-6Zm-4 6v1h1c0 3-2 5-4 7l-1-1 4-7Zm11 25-18 2v-1h1l20-4 12-1 3 1-18 3Zm30-11-1 2-18 3-16 2-9 2-2-1c16-29 35-56 55-83v14l-2 12 1 2-1 7-2 15-1 2-1 2c2 1 1 2 0 3l-3 18Zm9-31-1 5-2 12-1 6-1 7-1 2v-5l2-10 2-6v-2l1-9h1Zm-13 115v-1c-1-1 0-13 1-17l-1 18Zm1-19 2-22h1l-3 22Zm3-23v-1l3-26h1l-4 27Zm4-5h-1c1-7 1-15 3-22h1l-3 22Zm2-36 6-29c0 4-4 28-6 29Zm5 2c-1-2-1-4 1-5l-1 5Zm5-35 1 1h-1l-1 3 1 1v3l-2 9v-2h-1l-1 3c3 0 2 2 1 4l-1-3v4l-1 1c2 1 1 2 1 3l-3 6 8-49c0 3-2 7 0 11l-2 1c2 0 3 0 2 2h-1l-1 2h1Z"/></g><defs><clipPath id="a"><path fill="#fff" d="M0 0h535v428H0z"/></clipPath></defs></svg>