<svg width="283" height="325" viewBox="0 0 283 325" fill="none" xmlns="http://www.w3.org/2000/svg">
<g opacity="0.5" clip-path="url(#clip0_54_1365)">
<path d="M111.757 23.8548C108.183 24.3234 104.951 24.0488 101.942 22.838C98.6201 21.5529 95.1726 22.8759 92.0518 22.1332C86.3972 20.9525 80.7652 21.7556 75.6384 22.514C55.4432 25.6222 37.8865 34.9641 22.8343 49.0239C14.595 56.626 7.45549 65.1493 1.2597 74.5567C-4.47548 83.4143 -9.86143 92.1901 -11.4132 102.868C-11.7027 104.777 -12.1112 106.494 -12.7128 108.329C-15.981 118.598 -16.4479 128.874 -15.1984 139.559C-13.3169 154.516 -10.2316 169.264 -1.95284 182.281C0.425294 186.145 2.61025 190.127 5.18155 193.872C9.96744 200.781 15.37 207.178 21.8869 212.356C24.6735 214.503 27.4972 216.494 30.3581 218.329C33.219 220.164 36.2359 222.036 39.2899 223.753C43.518 226.078 47.8204 228.091 52.1228 230.104C56.8932 232.228 61.4334 234.628 66.7313 235.229C67.0434 235.303 67.1994 235.341 67.5115 235.415C74.6447 236.618 81.4883 239.73 89.0671 239.061C92.2918 238.674 92.6932 239.759 92.1437 242.761C91.1115 247.791 89.1058 252.755 89.9832 258.075C90.2732 259.628 89.4041 261.894 88.2897 263.113C85.6003 266.1 84.7908 270.194 85.1776 273.419C85.6315 279.133 85.0748 284.936 85.5659 290.494C85.7444 292.515 85.6627 292.165 87.5648 291.794C93.8878 290.166 98.821 286.064 104.074 282.697C107.395 280.52 110.404 278.268 114.483 277.755C116.192 277.502 117.849 276.083 117.745 273.749C119.676 272.56 121.571 271.527 123.503 270.338C124.082 269.982 124.691 268.808 124.966 269.038C129.142 270.196 132.181 267.127 135.554 266.117C139.083 265.143 140.956 265.588 141.736 269.237C142.108 271.139 142.435 272.536 144.159 273.605C144.211 274.772 143.996 276.369 144.435 277.298C147.452 282.633 150.855 287.729 154.029 293.101C154.623 294.067 154.943 294.803 155.976 293.235C159.46 288.293 162.669 283.121 164.511 277.459C165.677 273.945 166.888 270.935 169.228 268.03C171.145 265.518 173.255 262.888 173.879 259.574C174.874 254.699 175.163 249.327 181.211 247.469C181.404 247.35 181.597 247.231 181.828 246.956C185.252 240.187 191.612 234.94 191.633 226.536C191.574 224.709 192.487 222.948 192.933 221.075C193.26 219.009 194.56 217.011 192.709 215.086C193.66 209.707 191.78 205.137 189.238 200.575C187.491 197.522 188.799 196.184 192.365 195.054C195.04 194.207 197.485 197.097 199.87 194.697C208.459 193.938 215.726 189.732 222.204 184.678C225.481 181.996 229.106 179.231 230.763 174.349C232.003 170.522 236.134 167.713 236.431 163.002C236.505 162.69 237.241 162.371 237.627 162.133C242.909 157.949 247.523 153.112 251.074 147.197C251.609 146.335 252.025 145.279 252.798 144.804C258.987 141.66 261.914 135.597 266.49 130.915C268.221 129.184 267.82 128.099 265.598 127.735C257.529 126.309 249.815 122.001 241.137 125.212C240.751 125.449 240.045 124.952 239.577 124.84C238.016 124.469 236.033 124.491 235.089 123.607C234.457 122.797 235.289 120.687 235.155 119.171C235.058 117.5 234.65 115.754 234.241 114.007C234.151 112.997 233.594 111.875 233.78 111.095C236.981 101.799 236.363 91.9244 238.94 82.4802C240.433 76.8999 241.109 71.29 241.316 65.5686C241.45 63.6219 240.566 64.5656 239.518 64.8109C231.375 67.1598 222.845 69.7465 216.567 75.3423C211.753 79.6375 206.18 82.2684 201.046 85.8281C198.112 87.7678 195.028 86.869 193.088 83.9343C191.981 82.3518 191.03 80.8064 190.116 79.105C184.43 68.354 176.122 59.6169 166.737 51.9425C153.346 41.0067 139.198 31.869 122.264 27.5093C121.016 27.2123 120.035 26.4842 118.824 26.0311C116.676 25.3552 114.164 23.4385 111.757 23.8548ZM126.704 264.505C126.273 264.238 125.345 264.676 124.728 265.189C121.764 267.946 118.955 270.74 116.147 273.534C111.503 275.727 106.741 277.726 102.216 280.112C100.321 281.145 98.3896 282.334 96.7775 284.258C94.9721 286.302 91.5171 286.963 88.7309 288.279C88.6266 285.946 88.4852 283.769 88.693 281.51C89.0193 275.982 88.4094 270.231 90.2143 264.725C93.3126 263.484 93.6614 259.939 93.2897 258.037C92.182 252.992 94.3512 248.727 95.2349 244.321C96.0072 240.383 96.1632 240.42 101.023 240.092C106.736 239.638 112.294 239.147 117.926 238.344C118.082 238.381 118.038 237.876 118.112 237.564C120.103 238.203 119.65 239.414 118.729 240.514C114.115 245.351 109.814 250.263 107.043 256.364C103.915 258.422 102.355 261.514 101.694 264.984C100.424 266.165 96.687 272.86 95.974 275.164C93.0538 274.963 94.2504 277.556 93.6041 278.887C94.1094 278.842 94.8524 279.184 95.0828 278.909C96.004 277.809 96.7692 276.672 97.5344 275.535C99.3693 272.674 101.048 269.776 102.883 266.915C103.455 265.897 104.027 264.879 104.792 263.742C105.899 261.862 107.162 260.019 108.232 258.296C111.493 254.29 114.755 250.285 118.016 246.28C119.629 244.355 121.947 242.928 122.266 240.201C124.465 238.581 126.664 236.961 128.826 235.497C130.409 234.39 131.523 233.171 131.642 236.827C131.739 238.499 131.799 240.326 131.702 242.117C131.673 242.934 132.304 243.744 132.78 244.517C132.677 249.109 133.428 253.574 136.155 257.356C137.619 259.518 137.946 260.915 135.316 262.268C132.649 263.776 130.227 266.333 126.704 264.505ZM185.01 198.25C188.666 205.056 191.275 212.107 189.924 219.864C189.151 223.802 188.067 227.666 187.139 231.567C186.47 234.376 186.032 236.91 182.822 238.619C180.928 239.652 180.341 242.81 178.885 244.772C178.157 245.753 177.087 247.477 176.463 247.328C172.8 246.786 172.83 249.431 172.31 251.616C171.144 258.593 168.686 264.768 163.648 269.999C162.534 271.218 162.363 273.321 161.799 275C160.439 278.634 159.117 282.111 157.446 285.671C156.725 287.313 154.467 287.105 153.515 285.56C150.825 281.622 148.291 277.721 145.601 273.783C145.488 267.327 143.935 264.154 141.23 258.894C138.644 253.826 136.637 248.403 136.569 242.451C136.599 241.634 135.967 240.824 135.492 240.051C135.744 238.298 136.777 236.73 135.781 234.679C135.424 234.099 136.88 232.138 137.883 231.387C139.273 230.399 141.256 230.376 142.765 229.581C146.747 227.396 150.492 224.825 154.355 222.447C154.742 222.209 155.284 222.008 155.633 221.926C155.678 222.432 156.072 222.855 155.96 223.323C155.931 224.141 155.589 224.884 155.403 225.664C154.846 228.004 154.133 230.308 153.732 232.686C153.524 234.944 153.666 237.122 153.77 239.455C153.384 243.155 153.117 247.048 152.731 250.749C152.821 255.222 152.792 259.502 152.881 263.975C153.231 267.355 153.387 270.855 153.737 274.236C153.782 274.741 154.369 275.046 154.762 275.469C155.03 275.038 155.453 274.644 155.409 274.139C155.312 272.467 155.059 270.758 154.999 268.93C154.977 266.947 155.304 264.881 155.593 262.971C155.593 262.971 155.125 262.86 154.813 262.786C156.819 257.822 155.161 252.316 156.542 247.204C156.58 247.048 155.837 246.706 155.406 246.439C156.111 243.474 157.01 240.39 157.559 237.389C157.708 236.764 156.92 235.917 156.444 235.145C157.299 231.556 158.19 227.811 159.044 224.222C160.24 219.89 162.223 216.405 166.124 213.871C170.797 210.861 174.17 206.388 177.506 202.07C178.694 200.539 180.195 199.083 181.659 197.782C182.855 196.913 184.215 196.742 185.01 198.25ZM260.486 129.816C262.359 130.262 262.53 131.621 261.452 132.684C259.38 135.159 256.757 137.173 254.684 139.647C251.69 143.221 247.79 145.756 245.39 150.296C243.295 154.249 238.384 156.872 234.721 159.793C233.258 161.093 231.861 161.42 232.515 164.214C233.288 167.201 230.398 169.646 228.244 171.771C227.359 172.715 225.732 173.317 225.51 174.253C224.811 177.879 223.4 180.346 220.116 182.368C217.605 183.913 216.082 186.849 212.657 186.693C205.918 192.839 197.455 190.989 189.49 191.897C188.828 191.904 187.461 191.414 187.535 191.102C187.409 190.247 187.669 189.155 188.167 188.449C191.643 182.846 195.239 177.437 196.642 170.846C197.459 167.413 200.231 164.775 200.81 160.956C200.951 159.67 203.351 158.593 204.777 157.448C205.357 157.091 206.129 156.616 206.709 156.259C207.288 155.902 208.061 155.427 208.641 155.07C209.22 154.713 209.993 154.238 210.572 153.881C211.152 153.524 211.925 153.049 212.504 152.692C213.084 152.335 213.856 151.86 214.436 151.503C215.015 151.146 215.788 150.671 216.368 150.314C218.299 149.125 220.231 147.936 222.163 146.747C226.383 144.948 230.722 143.343 234.942 141.544C236.763 140.823 238.546 140.258 240.366 139.537C242.186 138.816 243.97 138.251 245.79 137.53C247.454 136.772 248.963 135.977 250.627 135.219C250.82 135.1 251.162 134.357 251.043 134.164C250.612 133.896 250.062 133.436 249.713 133.518C247.93 134.083 246.265 134.841 244.601 135.599C242.781 136.32 240.997 136.885 239.177 137.605C237.357 138.326 235.574 138.891 233.753 139.612C229.013 140.133 225.231 142.86 220.974 144.815C218.574 145.893 216.018 146.933 213.618 148.011C213.039 148.367 212.266 148.843 211.686 149.2C211.107 149.557 210.334 150.032 209.755 150.389C209.175 150.746 208.402 151.221 207.823 151.578C207.243 151.935 206.471 152.41 205.891 152.767C205.312 153.124 204.539 153.599 203.959 153.956C203.64 153.221 202.852 152.374 202.882 151.556C203.684 146.801 205.266 142.231 204.857 137.022C204.336 132.282 205.844 131.487 211.276 130.141C217.948 128.431 224.427 126.841 231.337 128.98C232.86 129.507 234.8 128.979 236.546 128.571C244.578 126.69 252.528 127.922 260.486 129.816ZM206.493 85.8052C210.564 84.6308 213.767 82.2602 216.887 79.5403C221.932 74.9701 228.203 72.1756 234.592 69.5743C236.762 68.7716 238.805 70.5769 238.13 72.7243C234.668 83.1123 235.026 94.0793 232.226 104.46C231.78 106.332 232.041 108.702 229.76 109.973C228.638 110.531 229.002 111.772 230.221 112.886C232.502 115.078 232.651 121.378 231.002 123.459C230.735 123.89 229.724 123.979 228.907 123.95C222.056 123.638 215.532 124.724 209.016 126.471C206.379 127.162 204.298 125.513 204.699 123.135C205.174 120.445 205.924 117.986 206.556 115.333C206.868 115.407 207.336 115.519 207.336 115.519C210.805 109.255 214.311 102.835 217.625 96.5333C218.784 95.8199 221.77 91.5843 222.602 89.474C223.761 88.7605 226.748 84.5249 227.58 82.4146C230.5 82.6149 229.303 80.0219 229.949 78.6918C229.444 78.7364 228.701 78.3947 228.471 78.6697C227.55 79.7694 226.784 80.9064 226.019 82.0433C224.444 83.8119 222.988 85.7736 221.413 87.5422C220.002 90.0092 216.866 91.4065 216.436 94.6016C212.491 100.093 208.39 105.547 205.738 111.841C205.47 112.272 205.203 112.703 204.78 113.097C204.267 112.48 203.405 111.945 203.516 111.477C203.679 105.251 200.312 99.9978 199.234 94.1354C198.863 92.2333 199.479 91.7205 200.319 90.2715C202.042 87.8788 204.048 86.3776 206.493 85.8052ZM119.225 30.5784C131.686 35.0277 143.925 40.4133 155.019 47.8349C163.72 53.5329 170.691 60.9624 177.892 68.117C179.073 69.3874 179.445 71.2895 180.203 72.9538C180.983 73.1395 182.15 73.0873 182.544 73.5108C187.768 81.3492 192.294 89.3511 195.275 98.3042C197.935 106.522 199.549 114.985 200.114 123.693C200.36 128.203 199.789 132.684 199.878 137.157C200.02 146.259 196.886 154.581 194.843 163.163C193.804 167.532 191.397 171.411 189.577 175.595C189.577 175.595 189.109 175.483 188.797 175.409C188.619 180.313 184.882 183.546 182.787 187.499C178.79 195.286 172.393 200.689 166.784 206.938C166.361 207.332 165.35 207.421 164.652 207.585C164.11 211.248 160.625 212.727 158.196 214.622C152.564 218.888 146.301 222.344 140.156 225.992C139.384 226.468 138.172 226.015 137.199 225.948C133.975 229.797 129.309 230.006 125.007 231.455C116.484 234.703 107.263 234.652 98.2506 235.805C94.0154 236.281 89.6091 235.398 85.3218 234.707C82.1267 234.276 78.9166 232.523 75.8851 232.791C72.3483 233.104 70.067 230.912 67.0651 230.362C63.9071 229.776 60.7121 229.345 57.7027 228.134C49.6107 224.725 41.4445 221.627 34.3405 216.144C30.2981 213.039 25.9064 210.015 21.9011 206.754C16.0901 202.074 11.5124 196.368 7.12791 190.543C1.27937 182.556 -3.56616 173.818 -6.39819 164.241C-9.18557 155.169 -11.1556 146.127 -11.6917 136.601C-11.9153 130.612 -11.3215 124.653 -11.7012 118.627C-11.984 114.273 -10.0898 109.778 -8.894 105.446C-5.46269 92.4125 0.509913 80.4788 8.67458 69.7262C21.3265 53.2816 34.6847 40.7972 50.7482 33.5731C57.5985 30.4219 65.1623 28.4297 72.8897 27.136C81.6275 25.753 89.8455 26.5545 98.4052 26.613C105.954 26.7607 112.857 28.2386 119.225 30.5784Z" fill="#DCBF6F"/>
<path d="M104.975 43.3452C104.864 43.8134 104.716 44.4375 104.604 44.9056C101.454 44.9803 102.925 47.8037 101.93 49.2155C101.462 49.1041 100.837 48.9556 100.369 48.8442C98.6967 42.0159 93.0196 38.8513 87.2687 39.4612C79.3035 40.3686 70.8256 40.6594 63.3661 44.9846C60.9958 45.245 60.2382 47.0432 59.9115 49.1088C59.5476 51.3305 59.377 53.4333 59.2063 55.5361C58.6268 55.8928 57.8541 56.3684 57.2746 56.7252C56.8436 56.4577 56.4126 56.1903 56.1748 55.8039C53.0536 51.5987 52.4666 51.2942 48.1275 52.8996C46.6935 53.3827 45.3041 54.3711 43.989 55.0474C38.9962 57.3217 36.4482 62.486 32.243 65.6072C31.4035 67.0562 30.408 68.4681 29.5686 69.9171C25.2962 70.5491 24.7989 74.7176 22.57 77.1549C20.3412 79.5923 19.71 82.245 19.5839 84.8531C19.3465 87.9292 21.6279 90.1209 24.3698 91.7627C23.7903 92.1194 23.0176 92.595 22.4381 92.9517C18.2993 91.6371 13.9673 90.4413 10.743 94.2905C9.324 96.0962 7.05055 98.0284 7.35551 100.904C6.3529 105.117 5.38743 109.174 4.38482 113.387C1.88896 119.718 2.62531 126.323 3.04957 132.855C3.48134 140.047 6.43149 142.893 13.6761 143.627C14.1442 143.739 14.7684 143.887 15.2365 143.999C15.1251 144.467 14.9766 145.091 14.8652 145.559C12.3539 147.105 9.64947 148.769 7.13821 150.315C6.65547 152.344 6.1356 154.528 5.65286 156.557C8.09103 165.711 11.6511 174.307 16.8384 182.302C17.9085 184.04 18.362 186.291 20.9329 186.573C23.7788 187.086 26.2308 187.175 28.3853 185.049C28.9648 184.693 29.7375 184.217 30.3171 183.86C30.6738 184.44 31.1494 185.213 31.5061 185.792C27.2863 191.053 27.1528 193 30.4004 198.06C32.4218 201.344 35.5873 202.592 38.7156 203.995C42.1563 208.936 47.0161 212.071 52.6782 213.913C61.5428 216.847 62.6723 216.951 67.2492 215.732C67.9998 216.735 68.7503 217.738 69.7312 218.466C70.7121 219.194 71.7301 219.766 72.7481 220.338C73.1048 220.918 73.5805 221.69 73.9372 222.27C74.4053 222.381 75.0295 222.53 75.4976 222.641C75.9657 222.753 76.5899 222.901 77.058 223.013C79.0865 223.495 81.2711 224.015 83.2996 224.498C85.3281 224.981 87.5127 225.501 89.5412 225.983C90.2768 225.664 91.1237 224.876 91.9411 224.906C98.829 225.061 105.434 224.325 110.865 219.517C111.348 217.488 111.868 215.304 112.351 213.275C112.819 213.386 113.443 213.535 113.911 213.646C114.268 214.226 114.743 214.999 115.1 215.578C115.301 216.12 115.546 217.168 115.821 217.398C118.281 218.149 120.74 218.899 123.311 219.181C125.221 219.47 127.123 219.099 128.988 218.883C129.099 218.415 129.248 217.791 129.359 217.323C130.332 217.389 131.544 217.842 132.316 217.367C135.214 215.583 137.837 213.569 140.578 211.749C141.158 211.392 141.93 210.916 142.51 210.56C143.862 209.727 145.021 209.014 146.373 208.181C146.953 207.825 147.726 207.349 148.305 206.992C148.417 206.524 148.565 205.9 148.676 205.432C149.256 205.075 150.029 204.6 150.608 204.243C151.188 203.886 151.96 203.411 152.54 203.054C153.008 203.165 153.632 203.314 154.1 203.425C154.36 202.333 154.583 201.397 154.843 200.304C155.423 199.948 156.195 199.472 156.775 199.115C156.886 198.647 157.035 198.023 157.146 197.555C159.71 197.176 160.928 194.828 161.336 193.111C161.663 191.045 160.355 188.921 159.745 186.632C160.481 186.312 161.373 186.03 161.989 185.517C162.569 185.161 163.029 184.611 163.609 184.254C164.998 183.266 166.306 181.928 167.814 181.133C169.322 180.338 170.088 179.201 170.147 177.566C170.459 177.64 170.927 177.752 170.927 177.752C174.211 172.268 178.549 167.2 179.329 160.46C179.433 159.331 180.198 158.194 180.926 157.213C183.712 152.435 184.023 149.047 181.927 142.613C181.571 142.033 181.095 141.26 180.738 140.681C179.571 137.27 176.837 136.29 173.679 135.703C173.79 135.235 173.939 134.611 174.05 134.143C176.666 134.93 178.991 134.165 181.035 132.507C181.651 131.995 182.736 131.593 183.041 131.006C183.679 129.015 183.969 127.105 184.452 125.077C184.021 124.809 183.434 124.505 183.352 124.156C181.932 119.036 182.34 113.857 181.738 108.768C181.225 104.688 181.603 100.327 177.91 97.1396C178.021 96.6715 178.17 96.0474 178.281 95.5792C175.16 94.8366 172.04 94.0939 168.919 93.3512C169.03 92.8831 169.179 92.2589 169.29 91.7908C169.401 91.3227 169.55 90.6985 169.661 90.2304C170.241 89.8737 171.251 89.7845 171.519 89.3535C173.331 84.5087 171.57 80.1325 168.456 76.5886C164.161 71.7742 159.635 67.2348 154.686 63.0893C152.606 61.44 149.641 60.7345 146.795 60.2221C145.703 59.9622 144.477 61.649 143.125 62.4813C142.397 63.4622 141.55 64.2499 140.822 65.2308C140.465 64.6513 139.989 63.8786 139.633 63.299C140.264 60.6464 140.858 58.1497 141.489 55.497C140.813 54.182 140.367 52.5919 139.267 51.6707C135.225 48.5653 131.145 45.6159 125.81 45.1707C125.342 45.0593 124.681 45.0668 124.25 44.7994C117.428 40.2083 113.535 39.9412 104.975 43.3452ZM61.6951 52.0064C61.3976 49.7923 63.3665 48.4471 64.5551 46.9164C70.8185 43.4606 78.026 44.3514 84.6535 42.1364C87.3283 41.2891 91.3929 42.9158 94.2909 44.5948C96.9139 46.0434 98.6975 48.941 97.8063 52.6859C97.5092 53.9342 95.9342 55.7028 98.5126 56.6462C98.2527 57.7385 98.0299 58.6747 97.77 59.767C97.384 63.4673 97.117 67.3608 96.731 71.0611C96.4711 72.1534 96.2483 73.0897 95.9883 74.1819C96.0033 75.5045 94.5026 76.961 96.8061 77.6741C96.4201 81.3744 96.1531 85.2679 95.7671 88.9682C96.0199 90.6772 93.4344 92.535 96.2135 94.0208C95.9536 95.1131 95.7307 96.0493 95.4708 97.1416C95.1366 98.5459 94.6092 100.069 94.4311 101.511C94.4386 102.172 95.0702 102.982 95.5459 103.755C95.0631 105.783 94.5433 107.968 94.0605 109.996C93.7263 111.4 93.511 112.998 93.0208 114.365C92.7162 114.952 91.7875 115.391 91.0148 115.866C89.4318 113.511 87.6558 111.275 86.0728 108.92C83.9772 105.948 82.0375 103.013 79.9419 100.041C80.0533 99.573 80.2018 98.9489 80.3132 98.4807C78.4032 94.7287 76.6492 91.0137 74.7392 87.2617C73.3495 84.7875 72.3461 82.0756 70.7631 79.7204C68.1101 75.6266 67.0842 70.9308 65.3598 66.3985C64.5571 64.2289 65.7308 61.3756 63.3009 59.8081C62.7656 57.2075 62.0743 54.5698 61.6951 52.0064ZM101.938 118.466C102.918 119.194 103.706 120.041 104.687 120.769C104.286 123.147 106.262 122.463 107.437 123.072C103.863 127.003 103.982 127.196 107.14 131.245C107.029 131.713 106.88 132.338 106.769 132.806C106.657 133.274 106.509 133.898 106.398 134.366C105.929 134.255 105.305 134.106 104.837 133.995C102.281 135.035 101.91 136.596 103.723 138.676C103.931 139.88 104.333 140.964 104.541 142.168C103.137 141.834 101.613 141.306 100.172 141.128C99.5104 141.136 98.7006 141.767 97.9279 142.243C97.668 143.335 97.4452 144.272 97.1852 145.364C97.0738 145.832 96.9253 146.456 96.8139 146.924C96.3458 146.813 95.7216 146.664 95.2535 146.553C93.3214 144.28 91.6496 144.376 90.201 146.999C89.7328 146.888 89.1087 146.739 88.6406 146.628C88.2838 146.049 87.8082 145.276 87.4515 144.696C87.8525 142.319 85.8761 143.002 84.702 142.393C82.6735 141.91 83.8622 140.38 83.7729 139.369C83.6465 138.515 83.1337 137.898 82.6952 136.969C81.603 136.709 80.6667 136.487 79.5744 136.227C79.6858 135.759 79.8344 135.134 79.9458 134.666C81.0677 134.109 82.1896 133.551 83.4304 133.187C86.4173 132.414 84.3738 130.609 84.5519 129.167C85.28 128.186 86.1269 127.399 86.855 126.418C87.4345 126.061 88.2072 125.586 88.7867 125.229C88.8981 124.761 89.0467 124.137 89.1581 123.668C89.2695 123.2 89.418 122.576 89.5294 122.108C89.6408 121.64 89.7894 121.016 89.9008 120.548C91.6097 120.295 93.4676 122.88 94.9533 120.101C95.5699 119.588 96.4987 119.15 96.9964 118.444C97.5684 117.426 97.1596 115.68 99.1881 116.163C99.5895 117.247 100.147 118.369 100.548 119.454C101.091 119.253 101.514 118.86 101.938 118.466ZM81.1728 143.367C81.3213 142.743 81.3138 142.082 80.7639 141.621C81.4698 142.119 81.3213 142.743 81.1728 143.367ZM27.7059 90.9078C26.6136 90.6479 25.6774 90.4251 24.5851 90.1651C23.5446 87.6092 22.5041 85.0534 21.4635 82.4975C24.8514 79.3466 24.9399 73.4321 30.0145 71.5071C30.3638 71.4253 30.5123 70.8012 30.9358 70.4073C31.6638 69.4264 32.5108 68.6387 33.2389 67.6578C35.9358 65.3318 38.7888 63.043 41.3668 60.5238C42.4069 59.6172 43.2464 58.1682 44.4425 57.2987C51.1219 52.7878 53.3511 53.8129 56.0863 61.7185C56.287 62.2608 56.8369 62.7215 57.3496 63.3381C58.0706 65.1585 58.6355 66.9417 59.3564 68.762C59.5646 69.9657 59.966 71.0504 60.1741 72.2541C62.1956 75.5381 64.0981 78.6289 66.1195 81.9128C65.5921 83.4361 65.7631 84.7958 66.7515 86.1852C68.929 89.5063 70.7201 93.0652 72.5112 96.6241C73.7449 99.0611 75.1346 101.535 76.3683 103.972C79.2667 109.114 82.1651 114.255 85.2195 119.434C85.4277 120.637 85.8291 121.722 86.0373 122.926C85.5917 124.798 83.8381 124.546 83.3996 123.617C82.2848 121.373 80.0706 121.671 78.2353 121.069C77.7671 120.958 77.143 120.809 76.6749 120.698C73.8808 117.889 67.416 113.878 63.7453 112.674C62.653 112.415 61.7167 112.192 60.6245 111.932C60.5498 108.781 57.7265 110.253 56.3146 109.257C56.7156 106.88 54.7392 107.563 53.5651 106.954C52.4729 106.694 51.5366 106.472 50.4443 106.212C50.9121 102.861 47.16 104.771 46.127 102.876C45.0568 101.137 42.6344 100.231 40.7544 99.1242C36.4817 96.2938 32.1718 93.6194 27.7059 90.9078ZM7.15916 138.449C6.0811 132.587 4.14858 126.851 5.75283 120.802C6.38411 118.15 8.88035 115.281 6.27942 112.354C7.1335 108.765 8.02471 105.02 8.87878 101.431C10.9073 101.914 10.9666 100.279 11.0705 99.1499C11.189 95.8805 13.8638 95.0332 16.1076 93.9184C16.6871 93.5617 18.2104 94.0891 18.5671 94.6686C20.1872 96.8678 22.8248 96.1764 24.898 97.1644C24.8237 97.4765 24.7123 97.9446 24.7123 97.9446C28.7397 99.7274 32.1209 102.84 36.6385 103.256C38.6971 106.384 41.7882 107.944 45.2583 108.605C44.8573 110.982 46.8337 110.299 48.0077 110.908C49.1 111.168 50.0363 111.391 51.1285 111.651C50.7276 114.028 52.7039 113.344 53.878 113.954C53.9226 114.459 53.893 115.276 54.2051 115.35C61.3162 118.032 67.5878 122.163 74.2383 125.394C75.3305 125.654 76.2668 125.877 77.3591 126.137C76.9581 128.514 78.9345 127.831 80.1085 128.44C83.3783 132.021 83.5268 131.397 78.9945 133.121C78.415 133.478 77.6423 133.953 77.0628 134.31C75.9705 134.05 75.0343 133.827 73.942 133.567C72.6194 133.582 71.1629 132.082 70.4498 134.385C67.6858 134.222 65.0406 134.252 62.2765 134.089C59.3639 134.55 56.4141 135.167 53.5758 135.316C47.6613 135.227 41.8435 136.811 36.0554 137.576C28.0531 138.64 20.0137 139.859 12.175 141.621C9.64868 141.844 7.45662 140.663 7.15916 138.449ZM16.9865 178.215C15.3364 173.371 13.8795 168.407 10.9144 164.239C8.9376 161.46 10.1409 157.79 7.5846 155.368C7.84453 154.276 8.06734 153.339 8.32727 152.247C14.4938 147.119 16.4406 147.253 27.0359 144.993C34.4883 143.469 42.03 142.955 49.4377 140.926C51.0278 140.48 53.0417 143.103 54.0964 140.056C54.5646 140.168 55.1887 140.316 55.6568 140.427C57.9157 140.635 63.0425 139.877 64.2015 139.163C68.0504 138.925 72.0181 138.88 75.867 138.642C77.2789 139.637 80.1022 138.166 80.1769 141.316C78.7132 142.617 77.4057 143.954 75.9421 145.255C75.8307 145.723 75.6821 146.347 75.5707 146.815C72.7399 147.626 70.0651 148.473 69.4042 151.943C67.4724 153.132 65.5407 154.321 63.6089 155.51C60.2136 158 56.9743 160.526 53.5789 163.016C51.2012 162.615 51.885 164.591 51.2758 165.765C48.7646 167.311 46.0601 168.976 43.5489 170.522C43.4375 170.99 43.2889 171.614 43.1775 172.082C37.5976 174.052 33.9945 178.8 29.284 181.966C28.8977 182.204 29.0612 182.902 28.9127 183.526C28.4446 183.415 27.8204 183.266 27.3523 183.155C22.5004 184.144 18.317 182.324 16.9865 178.215ZM56.0514 212.902C50.6493 209.968 45.782 206.172 40.6473 202.806C39.0348 201.269 37.4222 199.731 35.7725 198.349C33.9668 196.93 31.121 196.417 31.5516 193.222C31.8336 190.651 32.5838 188.192 34.783 186.572C35.6224 185.123 36.6179 183.711 37.4574 182.262C38.8096 181.43 39.9686 180.716 41.3209 179.884C43.364 178.227 45.4443 176.414 47.4874 174.756C51.7522 173.463 54.0032 169.547 57.5174 167.251C57.6288 166.782 57.7774 166.158 57.8888 165.69C58.4683 165.333 59.241 164.858 59.8205 164.501C62.3318 162.955 65.0362 161.291 67.5475 159.745C73.1345 154.974 78.5284 150.322 84.1154 145.551C84.2268 145.083 84.3753 144.459 84.4867 143.991C84.9549 144.102 85.579 144.251 86.0471 144.362C85.5644 146.391 85.0817 148.419 84.5618 150.604C84.0048 152.944 83.4478 155.285 82.8908 157.626C82.408 159.654 82.0442 161.876 81.4054 163.867C80.7295 166.015 81.2276 168.771 78.3225 169.893C80.7228 172.278 77.3867 173.133 77.0154 174.694C75.129 183.313 73.1238 191.739 71.0815 200.321C70.5987 202.35 70.0788 204.534 69.5961 206.563C68.9794 207.076 67.8947 207.477 67.553 208.22C65.2056 213.927 61.2604 215.956 56.0514 212.902ZM108.859 214.093C108.562 215.341 108.383 216.783 107.93 217.994C107.589 218.737 106.786 220.03 106.281 220.074C102.12 220.238 98.093 221.918 94.0138 222.431C87.9136 223.123 82.7493 220.575 77.1765 219.743C76.3963 219.558 75.8389 218.436 75.014 217.745C74.6423 215.843 73.7653 213.985 74.7905 211.756C75.6595 209.49 75.9045 207.075 76.4243 204.89C77.3306 202.468 79.2844 199.8 78.987 197.586C78.4071 194.48 79.8185 192.013 80.3309 189.167C80.6872 186.284 81.6677 183.55 82.3732 180.585C83.0788 177.62 83.7101 174.968 84.4156 172.003C85.0323 171.49 86.117 171.089 86.4216 170.502C87.2832 167.574 87.8698 164.416 88.5754 161.451C89.5408 157.394 90.5063 153.337 91.4718 149.28C92.1031 146.628 93.7528 148.009 95.0382 148.151C94.8525 148.931 94.3177 149.793 94.4812 150.491C97.425 163.063 100.525 175.672 103.662 188.124C106.598 196.572 109.028 205.065 108.859 214.093ZM151.282 181.32C152.939 183.364 154.752 185.444 156.409 187.487C159.568 191.536 159.687 191.729 156.113 195.66C154.538 197.429 153.082 199.391 151.507 201.159C150.779 202.14 149.932 202.928 149.204 203.909C148.624 204.265 147.852 204.741 147.272 205.098C144.894 204.697 145.578 206.673 144.969 207.847C144.39 208.204 143.617 208.68 143.037 209.036C142.569 208.925 141.945 208.776 141.477 208.665C139.099 208.264 139.783 210.24 139.174 211.414C135.57 212.7 131.93 214.142 128.326 215.428C125.154 216.981 121.787 215.191 118.682 215.771C118.332 215.853 117.582 214.85 117.032 214.389C115.508 210.399 114.802 206.439 113.977 202.285C112.728 195.063 110.275 188.049 108.483 181.028C107.933 177.105 106.454 173.62 104.47 170.18C104.455 168.858 105.955 167.401 103.652 166.688C103.763 166.22 103.912 165.596 104.023 165.128C103.852 163.768 103.949 161.977 103.235 160.818C100.976 157.148 102.595 152.422 99.5634 149.227C99.6748 148.759 99.8233 148.135 99.9347 147.667C99.578 147.087 99.1024 146.315 98.7456 145.735C98.857 145.267 99.0056 144.643 99.117 144.175C100.217 145.096 100.967 142.637 102.854 144.405C109.149 150.519 116.29 155.846 123.044 161.41C123.944 161.789 125.036 162.049 125.742 162.547C128.692 165.392 132.296 167.569 135.974 169.434C136.175 169.976 136.301 170.831 136.695 171.254C138.263 172.287 139.868 173.163 141.473 174.04C142.565 174.3 143.501 174.523 144.594 174.782C144.193 177.16 146.169 176.476 147.343 177.086C147.373 179.731 148.867 181.075 151.282 181.32ZM178.844 141.714C179.312 141.825 179.936 141.974 180.404 142.085C180.293 142.553 180.144 143.177 180.033 143.646C180.241 144.849 180.954 146.008 180.813 147.294C179.172 156.961 176.201 165.981 170.652 174.059C170.191 174.609 169.574 175.121 169.114 175.671C169.002 176.139 168.854 176.764 168.742 177.232C168.163 177.588 167.39 178.064 166.811 178.421C162.643 181.386 162.524 181.193 158.296 178.868C153.481 176.238 149.587 172.508 145.619 169.091C144.95 168.437 143.82 168.333 142.958 167.798C142.914 167.293 142.943 166.476 142.631 166.401C134.992 161.781 127.235 156.967 120.591 150.934C119.499 150.674 118.563 150.451 117.47 150.191C116.393 147.791 114.661 146.06 111.972 145.585C110.73 142.487 107.372 141.358 105.284 139.047C105.543 137.955 105.766 137.019 106.026 135.926C108.055 136.409 109.89 137.011 111.956 137.338C112.58 137.486 113.427 136.698 114.2 136.223C115.76 136.594 117.32 136.965 118.881 137.337C124.141 138.094 129.595 138.732 134.856 139.49C136.26 139.824 137.784 140.351 139.225 140.529C139.887 140.522 140.696 139.89 141.469 139.415C142.873 139.749 144.397 140.276 145.838 140.454C146.499 140.447 147.309 139.815 148.082 139.34C151.782 139.726 155.676 139.993 159.376 140.379C163.842 139.628 168.552 139.924 173.092 138.861C175.188 138.371 177.305 139.864 178.844 141.714ZM176.015 98.1727C180.088 103.923 179.464 110.7 179.614 117.001C179.703 121.474 182.438 125.917 179.883 130.42C179.771 130.888 179.623 131.512 179.511 131.98C175.662 132.218 171.695 132.263 167.846 132.502C166.137 132.754 164.279 130.169 162.793 132.948C161.701 132.688 160.765 132.465 159.672 132.205C159.093 132.562 158.32 133.038 157.741 133.394C157.273 133.283 156.648 133.134 156.18 133.023C153.342 133.172 150.66 133.358 147.821 133.507C147.821 133.507 147.71 133.975 147.636 134.287C146.231 133.953 144.708 133.426 143.266 133.247C142.605 133.255 141.795 133.887 141.023 134.362C139.462 133.991 137.902 133.619 136.341 133.248C133.377 132.543 130.293 131.644 127.291 131.094C126.667 130.946 125.82 131.734 125.047 132.209C123.487 131.838 121.927 131.466 120.366 131.095C119.274 130.835 118.338 130.612 117.245 130.352C114.749 129.758 112.252 129.164 109.755 128.57C107.259 127.976 108.485 126.289 108.626 125.004C109.094 125.115 109.718 125.264 110.186 125.375C112.66 123.985 115.253 122.789 117.727 121.399C120.937 119.69 123.991 117.943 127.2 116.234C130.952 114.324 134.667 112.57 138.419 110.66C139.623 110.452 140.708 110.05 141.912 109.842C145.664 107.932 149.379 106.178 153.131 104.268C157.574 101.533 162.21 98.6795 166.653 95.9447C167.901 96.2417 169.818 97.1926 170.435 96.6798C173.132 94.3538 174.328 96.9469 176.015 98.1727ZM144.507 64.2942C149.084 63.0751 152.554 63.736 155.794 68.1343C159.272 72.9191 164.793 76.0466 167.929 81.5743C169.319 84.0485 169.185 85.9952 168.472 88.2987C167.744 89.2796 166.897 90.0673 166.169 91.0482C162.417 92.9582 158.702 94.7121 154.95 96.6221C148.798 99.6098 142.527 102.404 136.375 105.392C130.402 106.938 125.149 110.305 119.933 113.515C116.07 115.893 112.124 117.922 108.142 120.107C105.839 119.394 107.339 117.938 107.324 116.615C110.475 116.54 109.003 113.717 109.999 112.305C110.578 111.948 111.351 111.473 111.93 111.116C112.042 110.648 112.19 110.024 112.302 109.556C114.68 109.957 113.996 107.98 114.605 106.806C114.716 106.338 114.865 105.714 114.976 105.246C117.97 101.672 120.771 98.2161 122.628 93.8766C123.133 93.832 123.951 93.8616 123.988 93.7056C124.961 90.3098 127.584 88.2959 129.537 85.6282C130.637 83.0869 131.855 80.7388 132.954 78.1975C134.418 76.8971 135.726 75.5595 137.189 74.259C137.761 73.241 138.489 72.2601 139.098 71.0861C139.633 70.2241 139.856 69.2878 140.235 68.3887C141.736 66.9322 143.043 65.5946 144.507 64.2942ZM122.511 45.8696C121.991 48.0541 123.893 47.6824 124.949 48.0984C128.151 49.1903 131.235 50.089 134.17 51.6119C136.83 52.9044 137.328 55.661 139.714 56.7232C138.614 59.2645 137.396 61.6126 136.296 64.1539C135.457 65.6029 134.462 67.0148 133.622 68.4638C133.511 68.9319 133.362 69.5561 133.251 70.0242C130.873 69.6232 131.557 71.5996 130.948 72.7736C130.836 73.2418 130.688 73.8659 130.576 74.334C127.426 74.4087 128.897 77.232 127.902 78.6439C125.524 78.2429 126.208 80.2193 125.599 81.3934C122.211 81.0817 124.24 85.027 121.684 86.0675C120.056 86.6695 119.388 89.4782 118.318 91.2022C118.207 91.6703 118.058 92.2945 117.947 92.7626C116.788 93.476 113.801 97.7116 112.969 99.8219C110.592 99.421 111.276 101.397 110.666 102.571C110.555 103.04 110.406 103.664 110.295 104.132C109.753 104.332 108.898 104.459 108.475 104.853C107.442 106.421 106.565 108.026 105.689 109.631C105.577 110.099 105.429 110.723 105.318 111.191C102.94 110.79 103.624 112.767 103.014 113.941C102.755 115.033 102.532 115.969 102.272 117.061C101.915 116.482 101.439 115.709 101.083 115.13C100.726 114.55 100.25 113.777 99.8936 113.198C100.265 111.638 100.636 110.077 101.008 108.517C100.993 107.194 102.493 105.738 100.19 105.025C100.45 103.932 100.673 102.996 100.933 101.904C100.918 100.581 102.418 99.1247 100.115 98.4116C100.486 96.8512 100.858 95.2908 101.229 93.7304C100.976 92.0215 103.562 90.1636 100.783 88.6779C101.414 86.0252 102.008 83.5285 102.639 80.8759C103.352 75.1099 104.027 69.4999 104.74 63.734C104.777 63.5779 104.034 63.2362 103.603 62.9688C103.974 61.4084 104.346 59.848 104.717 58.2876C103 54.4166 105.177 50.8127 105.756 46.9934C105.867 46.5253 106.016 45.9011 106.127 45.433C111.737 42.646 117.05 44.5699 122.511 45.8696Z" fill="#DCBF6F"/>
</g>
<defs>
<clipPath id="clip0_54_1365">
<rect width="267.383" height="277.649" fill="white" transform="translate(-49 260.119) rotate(-76.614)"/>
</clipPath>
</defs>
</svg>
