<svg width="335" height="32" viewBox="0 0 335 32" fill="none" xmlns="http://www.w3.org/2000/svg">
<path d="M3 13C1.34315 13 0 14.3431 0 16C0 17.6569 1.34315 19 3 19V13ZM303 16C303 24.8366 310.163 32 319 32C327.837 32 335 24.8366 335 16C335 7.16344 327.837 0 319 0C310.163 0 303 7.16344 303 16ZM9.07692 19C10.7338 19 12.0769 17.6569 12.0769 16C12.0769 14.3431 10.7338 13 9.07692 13V19ZM21.2308 13C19.5739 13 18.2308 14.3431 18.2308 16C18.2308 17.6569 19.5739 19 21.2308 19V13ZM33.3846 19C35.0415 19 36.3846 17.6569 36.3846 16C36.3846 14.3431 35.0415 13 33.3846 13V19ZM45.5385 13C43.8816 13 42.5385 14.3431 42.5385 16C42.5385 17.6569 43.8816 19 45.5385 19V13ZM57.6923 19C59.3492 19 60.6923 17.6569 60.6923 16C60.6923 14.3431 59.3492 13 57.6923 13V19ZM69.8462 13C68.1893 13 66.8462 14.3431 66.8462 16C66.8462 17.6569 68.1893 19 69.8462 19V13ZM82 19C83.6569 19 85 17.6569 85 16C85 14.3431 83.6569 13 82 13V19ZM94.1538 13C92.497 13 91.1538 14.3431 91.1538 16C91.1538 17.6569 92.497 19 94.1538 19V13ZM106.308 19C107.965 19 109.308 17.6569 109.308 16C109.308 14.3431 107.965 13 106.308 13V19ZM118.462 13C116.805 13 115.462 14.3431 115.462 16C115.462 17.6569 116.805 19 118.462 19V13ZM130.615 19C132.272 19 133.615 17.6569 133.615 16C133.615 14.3431 132.272 13 130.615 13V19ZM142.769 13C141.112 13 139.769 14.3431 139.769 16C139.769 17.6569 141.112 19 142.769 19V13ZM154.923 19C156.58 19 157.923 17.6569 157.923 16C157.923 14.3431 156.58 13 154.923 13V19ZM167.077 13C165.42 13 164.077 14.3431 164.077 16C164.077 17.6569 165.42 19 167.077 19V13ZM179.231 19C180.888 19 182.231 17.6569 182.231 16C182.231 14.3431 180.888 13 179.231 13V19ZM191.385 13C189.728 13 188.385 14.3431 188.385 16C188.385 17.6569 189.728 19 191.385 19V13ZM203.538 19C205.195 19 206.538 17.6569 206.538 16C206.538 14.3431 205.195 13 203.538 13V19ZM215.692 13C214.035 13 212.692 14.3431 212.692 16C212.692 17.6569 214.035 19 215.692 19V13ZM227.846 19C229.503 19 230.846 17.6569 230.846 16C230.846 14.3431 229.503 13 227.846 13V19ZM240 13C238.343 13 237 14.3431 237 16C237 17.6569 238.343 19 240 19V13ZM252.154 19C253.811 19 255.154 17.6569 255.154 16C255.154 14.3431 253.811 13 252.154 13V19ZM264.308 13C262.651 13 261.308 14.3431 261.308 16C261.308 17.6569 262.651 19 264.308 19V13ZM276.461 19C278.118 19 279.461 17.6569 279.461 16C279.461 14.3431 278.118 13 276.461 13V19ZM288.615 13C286.958 13 285.615 14.3431 285.615 16C285.615 17.6569 286.958 19 288.615 19V13ZM300.769 19C302.426 19 303.769 17.6569 303.769 16C303.769 14.3431 302.426 13 300.769 13V19ZM312.923 13C311.266 13 309.923 14.3431 309.923 16C309.923 17.6569 311.266 19 312.923 19V13ZM3 19H9.07692V13H3V19ZM21.2308 19H33.3846V13H21.2308V19ZM45.5385 19H57.6923V13H45.5385V19ZM69.8462 19H82V13H69.8462V19ZM94.1538 19H106.308V13H94.1538V19ZM118.462 19H130.615V13H118.462V19ZM142.769 19H154.923V13H142.769V19ZM167.077 19H179.231V13H167.077V19ZM191.385 19H203.538V13H191.385V19ZM215.692 19H227.846V13H215.692V19ZM240 19H252.154V13H240V19ZM264.308 19H276.461V13H264.308V19ZM288.615 19H300.769V13H288.615V19ZM312.923 19H319V13H312.923V19Z" fill="black" fill-opacity="0.7"/>
</svg>
