<svg data-name="Favicon" xmlns="http://www.w3.org/2000/svg" viewBox="0 0 394.86 179.84"><path d="M58.41 81.61A8.16 8.16 0 0 1 55.92 85a10.61 10.61 0 0 1-4.46 1.45 6.44 6.44 0 0 0 .33-.89 2 2 0 0 0 .11-.61 1.72 1.72 0 0 0-.9-1.5 4 4 0 0 0-2.24-.45 6.78 6.78 0 0 0-6 3.87Q40.74 90.6 41 97.27q.26 7.31 2.75 10.83a8.09 8.09 0 0 0 7.34 3.36 12.6 12.6 0 0 0 3.62-.68 21.41 21.41 0 0 0 3.83-1.78 3.39 3.39 0 0 0 0 .35 3.39 3.39 0 0 1 0 .35 5.18 5.18 0 0 1-2.42 4.79q-2.54 1.68-7.65 1.84-7.68.26-12.22-4.47T31.5 98.58q-.29-8.58 4.22-13.91a15.81 15.81 0 0 1 12.15-5.61 20.31 20.31 0 0 1 5.45.53 19.94 19.94 0 0 1 5.09 2M69.44 79.58h21.8c-.38 2.35-1 3.94-1.95 4.8s-2.51 1.37-4.77 1.55a6.61 6.61 0 0 0 .27-.65 1.88 1.88 0 0 0 .08-.44c0-.46-.34-.8-1-1a11.9 11.9 0 0 0-3.21-.32c-2.64 0-4.22.16-4.73.47a2.1 2.1 0 0 0-.77 1.93v7.55h8.39a10.25 10.25 0 0 0 1.53-.12 16.06 16.06 0 0 0 1.8-.39A8.8 8.8 0 0 1 85 96.65a5.1 5.1 0 0 1-3.31.85h-6.54v9.72a7.62 7.62 0 0 0 .26 2.35 1.84 1.84 0 0 0 .86 1 4.64 4.64 0 0 0 1.63.47 28.37 28.37 0 0 0 3.31.13h4.07a31.89 31.89 0 0 0 3.8-.18 12.76 12.76 0 0 0 2.53-.53c-.49 2.14-1.1 3.53-1.81 4.15s-2.21.94-4.46.95H65.28a13.92 13.92 0 0 0 .95-2.64 11.79 11.79 0 0 0 .32-2.8V87.61a4.21 4.21 0 0 0-.69-2.81 4 4 0 0 0-2.55-.94 6.17 6.17 0 0 1 1.77-3.44c.77-.61 2.23-.91 4.38-.91M99.28 79.66h6.67v.63a3.32 3.32 0 0 0 .23 1.17 11 11 0 0 0 .77 1.59l11.05 17.7c.47.78 1 1.75 1.56 2.92s1.13 2.45 1.69 3.85h.41a31 31 0 0 1-.59-3.19 21 21 0 0 1-.19-2.76v-13.4a4.74 4.74 0 0 0-.82-3.24 4.08 4.08 0 0 0-3-.86h-.21a7.32 7.32 0 0 1 1.87-3.57 6.21 6.21 0 0 1 3.78-.84h5a5.66 5.66 0 0 0-1.29 2.47 17.86 17.86 0 0 0-.4 4.28v20.1c0 2.06.25 3.43.74 4.08a3.15 3.15 0 0 0 2.6 1 4.53 4.53 0 0 1-5.42 4.06h-6.42a2.77 2.77 0 0 0 .09-.33 3.25 3.25 0 0 0 0-.53 3.39 3.39 0 0 0-.16-1 3.22 3.22 0 0 0-.45-.91l-11.85-18.79a27.79 27.79 0 0 1-1.54-3 33.06 33.06 0 0 1-1.28-3.36h-.38c.18 1.31.32 2.55.41 3.69s.13 2.22.13 3.16v12.67a4.81 4.81 0 0 0 .88 3.32 4.16 4.16 0 0 0 3.06.92 7.24 7.24 0 0 1-1.88 3.4 6.25 6.25 0 0 1-3.67.79h-4.5a8.73 8.73 0 0 0 .88-2.7 26.4 26.4 0 0 0 .29-4.38V88a4.93 4.93 0 0 0-.7-3.09 3.46 3.46 0 0 0-2.58-.88 7.17 7.17 0 0 1 1.85-3.52 5.33 5.33 0 0 1 3.36-.89M163.76 79.12q-1.2 3.28-2.48 4.26c-.86.65-2.31 1-4.37 1h-1.98c-1.66 0-2.66.13-3 .43a2.33 2.33 0 0 0-.57 1.85l-.06 20.9a5.07 5.07 0 0 0 .68 3.18 3.58 3.58 0 0 0 2.64.83 6.75 6.75 0 0 1-1.76 3.32 5.66 5.66 0 0 1-3.46.81h-8.12a10.29 10.29 0 0 0 1.06-3.09 22.14 22.14 0 0 0 .35-4.14l.07-21.91c0-1-.18-1.68-.55-2a5 5 0 0 0-2.56-.43c-2.5 0-4.34.06-5.53.19a13.14 13.14 0 0 0-3.08.68 8.8 8.8 0 0 1 2.44-4.26 7.07 7.07 0 0 1 4.47-1.12c.41 0 2.18.06 5.31.17s6 .18 8.75.19q5.1 0 7.78-.17a18.37 18.37 0 0 0 4-.6M171.7 79.56h21.8c-.39 2.33-1 3.94-2 4.79s-2.51 1.36-4.78 1.54a4.19 4.19 0 0 0 .27-.66 1.42 1.42 0 0 0 .08-.44c0-.45-.34-.79-1-1a11.34 11.34 0 0 0-3.2-.33c-2.64 0-4.22.15-4.73.46a2.07 2.07 0 0 0-.78 1.93v7.55h8.39a12 12 0 0 0 1.53-.11 16.8 16.8 0 0 0 1.8-.4 8.9 8.9 0 0 1-1.84 3.77 5 5 0 0 1-3.32.83h-6.57v9.73a7.62 7.62 0 0 0 .25 2.34 1.77 1.77 0 0 0 .86 1 4.64 4.64 0 0 0 1.62.48 28.11 28.11 0 0 0 3.32.14h4.07a34.69 34.69 0 0 0 3.8-.17 12.5 12.5 0 0 0 2.52-.53c-.49 2.14-1.09 3.52-1.82 4.15s-2.21.94-4.45.94h-20.06a13.08 13.08 0 0 0 1-2.64 12.24 12.24 0 0 0 .32-2.79V87.62a4.33 4.33 0 0 0-.68-2.81 4 4 0 0 0-2.55-.94 6 6 0 0 1 1.78-3.43c.76-.61 2.23-.91 4.38-.91M200.87 79.56h6.68a.78.78 0 0 0-.05.23v.4a3.24 3.24 0 0 0 .23 1.17 11.86 11.86 0 0 0 .77 1.64l11.06 17.67c.46.78 1 1.76 1.55 2.93s1.13 2.45 1.7 3.85h.4a33.38 33.38 0 0 1-.59-3.19 21 21 0 0 1-.19-2.75V88.08a4.81 4.81 0 0 0-.81-3.24 4.16 4.16 0 0 0-3-.86h-.22a7.28 7.28 0 0 1 1.88-3.58 6.26 6.26 0 0 1 3.77-.83h5a5.83 5.83 0 0 0-1.29 2.47 17.89 17.89 0 0 0-.4 4.29v20.09c0 2.07.24 3.44.73 4.08a3.13 3.13 0 0 0 2.6 1 6 6 0 0 1-1.75 3.22 6.13 6.13 0 0 1-3.69.85h-6.4a3.18 3.18 0 0 0 .09-.33 3.27 3.27 0 0 0 0-.51 3.36 3.36 0 0 0-.14-1 3.12 3.12 0 0 0-.46-.91L206.53 94a28.73 28.73 0 0 1-1.53-3c-.46-1.05-.89-2.17-1.28-3.36h-.37c.18 1.32.32 2.55.41 3.7s.14 2.22.13 3.15v12.67a4.86 4.86 0 0 0 .88 3.32 4.12 4.12 0 0 0 3.06.92 7.17 7.17 0 0 1-1.88 3.41 6.34 6.34 0 0 1-3.67.78h-4.5a8.54 8.54 0 0 0 .88-2.71 25.42 25.42 0 0 0 .29-4.38V87.94a5 5 0 0 0-.69-3.09 3.47 3.47 0 0 0-2.59-.89 7 7 0 0 1 1.86-3.51 5.21 5.21 0 0 1 3.35-.9M267.5 111.35a8.45 8.45 0 0 1-1.83 3.54c-.62.53-1.85.79-3.69.79h-7.33a10.89 10.89 0 0 0 .81-2.37 12.55 12.55 0 0 0 .25-2.58 12.09 12.09 0 0 0-.26-2.32 30.27 30.27 0 0 0-.8-3h-12.41a55.8 55.8 0 0 0-.62 2.37 7.92 7.92 0 0 0-.22 1.53 2.3 2.3 0 0 0 .6 1.69 2.48 2.48 0 0 0 1.78.57h.22a8.6 8.6 0 0 1-1.72 3.38c-.56.48-1.73.71-3.51.72H234c.78-1.19 1.8-4.12 3.09-8.77.78-2.76 1.42-4.94 1.9-6.55.76-2.46 1.74-5.47 2.93-9a47.73 47.73 0 0 0 1.85-6.25 1.29 1.29 0 0 0-.45-1.11 3.24 3.24 0 0 0-1.64-.36 13.66 13.66 0 0 1 1.32-2.79 2.51 2.51 0 0 1 1.25-1 7.6 7.6 0 0 1 1.76-.28c.74-.06 2.15-.09 4.21-.1h.78a13 13 0 0 1 2.44.15 2.05 2.05 0 0 1 1 .58 27 27 0 0 1 2.13 4.9c1.06 2.83 2.37 6.62 4 11.4.8 2.4 1.57 5.06 2.33 8s1.21 4.62 1.39 5.13a2.68 2.68 0 0 0 1.08 1.34 3.83 3.83 0 0 0 1.94.42Zm-19.36-26.49a59 59 0 0 1-2.58 9.46c-1 3-1.73 5.37-2.26 7.13h10.29c-.32-1.4-.83-3.31-1.55-5.75s-1.79-6.06-3.29-10.87ZM290.39 98.29 297 109a6.59 6.59 0 0 0 1.91 2.06 4.3 4.3 0 0 0 2.31.71 6.07 6.07 0 0 1-1.62 3 4.71 4.71 0 0 1-3 .78h-6.27c.07-.32.12-.57.17-.74a2.1 2.1 0 0 0 0-.41 3.32 3.32 0 0 0-.19-1 12.79 12.79 0 0 0-.72-1.57l-6-11.24q-1.14.23-1.86.33c-.48.08-.93.13-1.37.17v6.74a5.19 5.19 0 0 0 .63 3 3.5 3.5 0 0 0 2.37 1 6.57 6.57 0 0 1-1.59 3.07 6.13 6.13 0 0 1-3.51.69h-7.38a12.94 12.94 0 0 0 1-2.68 11.85 11.85 0 0 0 .33-2.8l-.07-22a4.72 4.72 0 0 0-.72-3 3.68 3.68 0 0 0-2.62-.9 5.43 5.43 0 0 1 2.73-3.82q2-1 9.3-1c1.95 0 3.67.07 5.13.21a17.52 17.52 0 0 1 3.51.67 11.77 11.77 0 0 1 5.61 3.67 8.81 8.81 0 0 1 2 5.74 8.26 8.26 0 0 1-1.75 5.27 10.81 10.81 0 0 1-5.06 3.42m-9.94-1.12a9 9 0 0 0 6-2.11 7.33 7.33 0 0 0 2-5.59 7.8 7.8 0 0 0-1.34-4.78 4.25 4.25 0 0 0-3.41-1.77 3.08 3.08 0 0 0-2.47.86 5 5 0 0 0-.69 3.07ZM307.51 87.78a5 5 0 0 0-.66-3 3.57 3.57 0 0 0-2.49-1 7.65 7.65 0 0 1 1.85-3.5 5.61 5.61 0 0 1 3.42-.75h7.91a16.22 16.22 0 0 0-1 2.89 11.89 11.89 0 0 0-.37 2.9l-.13 22a5 5 0 0 0 .65 3.15 3.72 3.72 0 0 0 2.54 1 8.16 8.16 0 0 1-1.86 3.49 5.93 5.93 0 0 1-3.51.71h-7.82a13.1 13.1 0 0 0 1-2.69 11.55 11.55 0 0 0 .36-2.83ZM351.71 83.29a16.75 16.75 0 0 0-24 .34q-4.45 5.15-4.32 13.62t4.7 13.48a16.77 16.77 0 0 0 24-.35q4.47-5.13 4.34-13.61t-4.73-13.48m-6.45 24.56q-1.72 3.74-5.17 3.77c-2.3 0-4-1.17-5.28-3.62s-1.86-6.08-1.93-10.89.46-8.45 1.62-11 2.87-3.74 5.17-3.77 4.05 1.17 5.27 3.62 1.87 6.09 1.94 10.89-.47 8.46-1.62 10.95M363.38 112.2a3.47 3.47 0 1 1-3.46-3.38 3.4 3.4 0 0 1 3.46 3.38m-6.08 0a2.62 2.62 0 0 0 2.64 2.7 2.59 2.59 0 0 0 2.57-2.68 2.61 2.61 0 1 0-5.21 0m2.08 1.77h-.78v-3.38a7 7 0 0 1 1.3-.1 2 2 0 0 1 1.17.25.91.91 0 0 1 .33.74.86.86 0 0 1-.7.78 1 1 0 0 1 .62.83 2.28 2.28 0 0 0 .25.84h-.85a3.16 3.16 0 0 1-.27-.82c-.06-.37-.26-.54-.7-.54h-.37Zm0-1.91h.37c.44 0 .79-.15.79-.5s-.23-.51-.72-.51a2 2 0 0 0-.44 0ZM164.44 53.74l6.65 10.73a6.59 6.59 0 0 0 1.91 2.06 4.3 4.3 0 0 0 2.31.71 6.07 6.07 0 0 1-1.62 3 4.71 4.71 0 0 1-3 .78h-6.27c.07-.32.12-.57.17-.74a2.1 2.1 0 0 0 0-.41 3.32 3.32 0 0 0-.19-1 12.79 12.79 0 0 0-.72-1.57l-6-11.24q-1.14.22-1.86.33c-.48.08-.93.13-1.37.17v6.74a5.19 5.19 0 0 0 .63 3 3.5 3.5 0 0 0 2.37 1 6.57 6.57 0 0 1-1.59 3.07 6.13 6.13 0 0 1-3.51.69h-7.38a12.94 12.94 0 0 0 1-2.68 11.85 11.85 0 0 0 .33-2.8l-.07-22.05a4.72 4.72 0 0 0-.72-3 3.68 3.68 0 0 0-2.62-.9 5.43 5.43 0 0 1 2.73-3.82q2-1 9.3-1c1.95 0 3.67.07 5.13.21a17.52 17.52 0 0 1 3.51.67 11.77 11.77 0 0 1 5.61 3.67 8.81 8.81 0 0 1 2 5.74 8.26 8.26 0 0 1-1.75 5.27 10.81 10.81 0 0 1-5.06 3.42m-9.94-1.12a9 9 0 0 0 6-2.11 7.33 7.33 0 0 0 2-5.59 7.8 7.8 0 0 0-1.34-4.78 4.25 4.25 0 0 0-3.57-1.73 3.08 3.08 0 0 0-2.47.86 5 5 0 0 0-.69 3.07ZM204.34 39.66a16.74 16.74 0 0 0-24 .35q-4.46 5.15-4.33 13.62t4.7 13.47a16.76 16.76 0 0 0 24-.34q4.47-5.15 4.34-13.61t-4.72-13.49m-6.45 24.57C196.73 66.71 195 68 192.71 68s-4.05-1.17-5.28-3.62-1.86-6.08-1.93-10.89.47-8.46 1.62-11 2.87-3.74 5.17-3.78 4.06 1.18 5.28 3.63 1.87 6.08 1.94 10.89-.48 8.45-1.62 11M214.51 34.76h6.67a.79.79 0 0 0 0 .23 3.28 3.28 0 0 0 .21 1.57 11.3 11.3 0 0 0 .78 1.59l11.06 17.68c.47.78 1 1.75 1.55 2.92s1.14 2.46 1.7 3.85h.41a33.78 33.78 0 0 1-.6-3.2 22.62 22.62 0 0 1-.18-2.75V43.28a4.77 4.77 0 0 0-.82-3.24 4.12 4.12 0 0 0-3-.85H232a7.41 7.41 0 0 1 1.88-3.58 6.33 6.33 0 0 1 3.77-.83h5a5.92 5.92 0 0 0-1.29 2.48 17.89 17.89 0 0 0-.39 4.28v20.1c0 2.06.24 3.43.73 4.08a3.16 3.16 0 0 0 2.61 1 6 6 0 0 1-1.73 3.28 6.09 6.09 0 0 1-3.68.86h-6.4a3.18 3.18 0 0 0 .08-.33 2.89 2.89 0 0 0 0-.51 3.29 3.29 0 0 0-.15-1A3.41 3.41 0 0 0 232 68l-11.84-18.81a28.53 28.53 0 0 1-1.54-3 34 34 0 0 1-1.28-3.36H217c.19 1.31.32 2.55.41 3.7s.14 2.21.14 3.15v12.67a4.79 4.79 0 0 0 .89 3.31 4.09 4.09 0 0 0 3.05.93 7.07 7.07 0 0 1-1.88 3.4 6.31 6.31 0 0 1-3.67.79h-4.5a8.45 8.45 0 0 0 .89-2.71 26.58 26.58 0 0 0 .28-4.38V43.13a5 5 0 0 0-.69-3.09 3.51 3.51 0 0 0-2.59-.89 7.08 7.08 0 0 1 1.87-3.51 5.2 5.2 0 0 1 3.35-.9M54.15 124.94v2.95h-8.83v5.52h6.95v2.85h-6.95v5.63h8.83v2.96H41.59v-19.91h12.56zM61.61 141.8h7.97v3.05H57.91v-19.91h3.7v16.86zM82.39 137.08v7.78h-3.71V125h6.08a12.73 12.73 0 0 1 3.49.42 6.79 6.79 0 0 1 2.38 1.17 4.59 4.59 0 0 1 1.37 1.76 6.07 6.07 0 0 1 .44 2.32 5.91 5.91 0 0 1-.3 1.9 5.63 5.63 0 0 1-.85 1.63 6 6 0 0 1-1.38 1.28 7.17 7.17 0 0 1-1.87.88 3.74 3.74 0 0 1 1.21 1.14l5 7.36H90.9a1.61 1.61 0 0 1-.82-.2 1.58 1.58 0 0 1-.57-.55l-4.19-6.37a1.48 1.48 0 0 0-.52-.51 1.78 1.78 0 0 0-.83-.15Zm0-2.66h2.31a5.9 5.9 0 0 0 1.83-.26 3.7 3.7 0 0 0 1.28-.73 3 3 0 0 0 .75-1.09 3.9 3.9 0 0 0 .24-1.34 2.84 2.84 0 0 0-1-2.33 4.81 4.81 0 0 0-3-.81h-2.41ZM115.58 134.9a11 11 0 0 1-.73 4.06 9.53 9.53 0 0 1-2 3.22 9.26 9.26 0 0 1-3.18 2.13 11.41 11.41 0 0 1-8.24 0 9.31 9.31 0 0 1-3.19-2.13 9.56 9.56 0 0 1-2.11-3.18 11.66 11.66 0 0 1 0-8.12 9.46 9.46 0 0 1 2.06-3.22 9.31 9.31 0 0 1 3.19-2.13 10.81 10.81 0 0 1 4.13-.77 10.53 10.53 0 0 1 4.11.78 9.38 9.38 0 0 1 3.18 2.12 9.53 9.53 0 0 1 2 3.22 11 11 0 0 1 .73 4.06m-3.8 0a9.27 9.27 0 0 0-.43-2.94 6.13 6.13 0 0 0-1.25-2.21 5.31 5.31 0 0 0-2-1.39 7.42 7.42 0 0 0-5.25 0 5.3 5.3 0 0 0-2 1.39 6.14 6.14 0 0 0-1.17 2.21 10 10 0 0 0 0 5.88 6 6 0 0 0 1.26 2.2 5.54 5.54 0 0 0 2 1.39 7.42 7.42 0 0 0 5.25 0 5.55 5.55 0 0 0 2-1.39 6 6 0 0 0 1.25-2.2 9.27 9.27 0 0 0 .43-2.94M121.41 125a.82.82 0 0 1 .29.08.87.87 0 0 1 .26.18 3.15 3.15 0 0 1 .27.31l10.45 13.31c0-.32-.06-.63-.07-.94s0-.6 0-.86v-12.14h3.26v19.91h-1.91a1.7 1.7 0 0 1-.73-.13 1.72 1.72 0 0 1-.57-.5L122.23 131c0 .3 0 .59.07.88s0 .55 0 .79v12.22h-3.27v-19.95H121a2.42 2.42 0 0 1 .42 0M164 134.9a10.89 10.89 0 0 1-.73 4 9.28 9.28 0 0 1-2.05 3.15 9.44 9.44 0 0 1-3.18 2.06 11.35 11.35 0 0 1-4.12.72h-7.6V125h7.6a11.14 11.14 0 0 1 4.12.73 9.57 9.57 0 0 1 3.18 2 9.28 9.28 0 0 1 2.05 3.15 10.89 10.89 0 0 1 .73 4m-3.79 0a9.27 9.27 0 0 0-.44-2.94 6.14 6.14 0 0 0-1.25-2.2 5.38 5.38 0 0 0-2-1.39 6.8 6.8 0 0 0-2.62-.48H150v14h3.87a6.8 6.8 0 0 0 2.62-.48 5.5 5.5 0 0 0 2-1.39 6.14 6.14 0 0 0 1.25-2.2 9.27 9.27 0 0 0 .44-2.94M179.98 124.94v2.95h-8.83v5.52h6.96v2.85h-6.96v5.63h8.83v2.96h-12.56v-19.91h12.56zM203.29 140.16a.7.7 0 0 1 .52.23l1.46 1.59a8.11 8.11 0 0 1-3 2.3 10.3 10.3 0 0 1-4.25.8 10.12 10.12 0 0 1-4-.76 8.79 8.79 0 0 1-3-2.11 9.22 9.22 0 0 1-1.93-3.22 12.23 12.23 0 0 1-.66-4.09 10.89 10.89 0 0 1 .74-4.11 9.39 9.39 0 0 1 2.09-3.21 9.67 9.67 0 0 1 3.23-2.11 11.14 11.14 0 0 1 4.15-.75 9.88 9.88 0 0 1 3.88.71 9.25 9.25 0 0 1 2.84 1.88l-1.22 1.69a1 1 0 0 1-.28.29.73.73 0 0 1-.47.13 1.11 1.11 0 0 1-.65-.25 8.32 8.32 0 0 0-.84-.54 6.71 6.71 0 0 0-1.29-.53 6.47 6.47 0 0 0-2-.25 6.64 6.64 0 0 0-2.59.49 5.71 5.71 0 0 0-2 1.39 6.5 6.5 0 0 0-1.32 2.21 8.45 8.45 0 0 0-.48 2.93 8.64 8.64 0 0 0 .48 3 6.37 6.37 0 0 0 1.29 2.2 5.51 5.51 0 0 0 1.91 1.37 5.84 5.84 0 0 0 2.37.48 9.54 9.54 0 0 0 1.37-.09 5.5 5.5 0 0 0 1.13-.26 4.79 4.79 0 0 0 1-.46 5.74 5.74 0 0 0 .92-.7 1.32 1.32 0 0 1 .29-.19.62.62 0 0 1 .33-.08M227.71 134.9a11 11 0 0 1-.71 4.1 9.53 9.53 0 0 1-2 3.22 9.26 9.26 0 0 1-3.18 2.13 11.41 11.41 0 0 1-8.24 0 9.31 9.31 0 0 1-3.19-2.13 9.56 9.56 0 0 1-2.06-3.22 11.66 11.66 0 0 1 0-8.12 9.46 9.46 0 0 1 2.06-3.22 9.31 9.31 0 0 1 3.19-2.13 10.81 10.81 0 0 1 4.13-.77 10.53 10.53 0 0 1 4.11.78 9.38 9.38 0 0 1 3.18 2.12 9.53 9.53 0 0 1 2 3.22 11 11 0 0 1 .73 4.06m-3.8 0a9.27 9.27 0 0 0-.43-2.94 6.13 6.13 0 0 0-1.25-2.21 5.31 5.31 0 0 0-2-1.39 7.42 7.42 0 0 0-5.25 0 5.3 5.3 0 0 0-2 1.39 6.14 6.14 0 0 0-1.26 2.21 10 10 0 0 0 0 5.88A6 6 0 0 0 213 140a5.54 5.54 0 0 0 2 1.39 7.42 7.42 0 0 0 5.25 0 5.55 5.55 0 0 0 2-1.39 6 6 0 0 0 1.25-2.2 9.27 9.27 0 0 0 .43-2.94M241.85 128.57a.94.94 0 0 1-.35.42.81.81 0 0 1-.47.13 1.14 1.14 0 0 1-.62-.22l-.81-.47a7.11 7.11 0 0 0-1.1-.48 4.68 4.68 0 0 0-1.48-.21 4.17 4.17 0 0 0-1.34.19 2.75 2.75 0 0 0-1 .51 2.05 2.05 0 0 0-.59.79 2.61 2.61 0 0 0-.19 1 1.8 1.8 0 0 0 .39 1.17 3.28 3.28 0 0 0 1 .79 9.17 9.17 0 0 0 1.47.6l1.69.55a17.61 17.61 0 0 1 1.69.69 5.75 5.75 0 0 1 1.47 1 4.5 4.5 0 0 1 1 1.47 5.13 5.13 0 0 1 .39 2.11 6.76 6.76 0 0 1-.46 2.52 6 6 0 0 1-1.35 2.06 6.24 6.24 0 0 1-2.17 1.37 7.86 7.86 0 0 1-2.93.51 9.72 9.72 0 0 1-1.87-.19 10.09 10.09 0 0 1-1.77-.53 9.58 9.58 0 0 1-1.59-.83 7.72 7.72 0 0 1-1.31-1.07l1.07-1.78a1.42 1.42 0 0 1 .37-.32.85.85 0 0 1 .47-.13 1.32 1.32 0 0 1 .75.28c.26.19.58.4.94.63a6.63 6.63 0 0 0 1.28.62 4.9 4.9 0 0 0 1.77.29 3.63 3.63 0 0 0 2.45-.75 2.7 2.7 0 0 0 .87-2.16 2 2 0 0 0-.39-1.28 3.21 3.21 0 0 0-1-.83 7.36 7.36 0 0 0-1.48-.57l-1.68-.51a17.21 17.21 0 0 1-1.68-.66 5.57 5.57 0 0 1-1.47-1 4.54 4.54 0 0 1-1-1.55 5.92 5.92 0 0 1-.39-2.29 5.44 5.44 0 0 1 1.7-4 6.27 6.27 0 0 1 2-1.28 7.48 7.48 0 0 1 2.77-.49 9.2 9.2 0 0 1 3.25.56 7.17 7.17 0 0 1 2.53 1.54ZM260.54 124.94v3.05h-5.99v16.86h-3.7v-16.86h-6.02v-3.05h15.71zM278.92 144.85h-2.86a1.27 1.27 0 0 1-.8-.24 1.38 1.38 0 0 1-.44-.6l-1.49-4.01h-8.25l-1.49 4a1.28 1.28 0 0 1-1.22.84h-2.88l7.82-19.91h3.79ZM266 137.34h6.35l-2.35-6.63c-.11-.29-.24-.64-.37-1s-.26-.83-.39-1.3c-.13.47-.26.91-.38 1.31s-.25.76-.36 1.06ZM291.21 137.08v7.78h-3.7V125h6.07a12.68 12.68 0 0 1 3.49.42 6.62 6.62 0 0 1 2.38 1.17 4.62 4.62 0 0 1 1.37 1.81 6.06 6.06 0 0 1 .43 2.32 6.2 6.2 0 0 1-.29 1.9 5.65 5.65 0 0 1-.86 1.63 5.79 5.79 0 0 1-1.37 1.28 7.17 7.17 0 0 1-1.87.88 3.74 3.74 0 0 1 1.21 1.14l5 7.36h-3.34a1.63 1.63 0 0 1-.82-.2 1.75 1.75 0 0 1-.57-.55l-4.18-6.37a1.48 1.48 0 0 0-.52-.51 1.84 1.84 0 0 0-.83-.15Zm0-2.66h2.32a5.83 5.83 0 0 0 1.82-.26 3.53 3.53 0 0 0 1.28-.73 2.74 2.74 0 0 0 .75-1.09 3.7 3.7 0 0 0 .25-1.39 2.82 2.82 0 0 0-1-2.33 4.77 4.77 0 0 0-3.05-.81h-2.37ZM306.43 124.95h3.72v19.91h-3.72zM328.86 140.16a.71.71 0 0 1 .52.23l1.46 1.59a8.11 8.11 0 0 1-3 2.3 10.33 10.33 0 0 1-4.25.8 10.05 10.05 0 0 1-4-.76 8.93 8.93 0 0 1-3-2.11 9.36 9.36 0 0 1-1.92-3.22 12.23 12.23 0 0 1-.67-4.09 10.89 10.89 0 0 1 .75-4.11 9.25 9.25 0 0 1 2.09-3.21 9.67 9.67 0 0 1 3.23-2.11 11.11 11.11 0 0 1 4.15-.75 9.88 9.88 0 0 1 3.88.71 9.25 9.25 0 0 1 2.84 1.88l-1.23 1.69a1.1 1.1 0 0 1-.28.29.76.76 0 0 1-.48.13 1.1 1.1 0 0 1-.64-.25 8.32 8.32 0 0 0-.84-.54 6.71 6.71 0 0 0-1.29-.53 6.49 6.49 0 0 0-2-.25 6.62 6.62 0 0 0-2.58.49 5.71 5.71 0 0 0-2 1.39 6.35 6.35 0 0 0-1.32 2.21 8.45 8.45 0 0 0-.48 2.93 8.64 8.64 0 0 0 .48 3 6.51 6.51 0 0 0 1.28 2.2 5.55 5.55 0 0 0 1.92 1.37 5.84 5.84 0 0 0 2.37.48 9.54 9.54 0 0 0 1.37-.09 5.4 5.4 0 0 0 1.12-.26 4.88 4.88 0 0 0 1-.46 6.23 6.23 0 0 0 .92-.7 1.32 1.32 0 0 1 .29-.19.62.62 0 0 1 .33-.08M351.69 144.85h-2.87a1.26 1.26 0 0 1-.79-.24 1.4 1.4 0 0 1-.45-.6L346.1 140h-8.25l-1.49 4a1.25 1.25 0 0 1-.43.58 1.19 1.19 0 0 1-.79.26h-2.88l7.82-19.91h3.79Zm-12.89-7.51h6.35l-2.43-6.63c-.11-.29-.23-.64-.36-1s-.27-.83-.39-1.3c-.13.47-.26.91-.38 1.31s-.25.76-.37 1.06Z"/></svg>