<svg width="108" height="157" fill="none" xmlns="http://www.w3.org/2000/svg"><path d="M107.412 20.6c0-13.9-6.7-20.6-20.5-20.6h-66.5C6.912.1.212 6.8.112 20.4c-.1 19.2 0 38.3 0 57.5 0 19.2.4 38.4-.1 57.5-.4 14.7 9.1 21 20.9 20.9 22-.2 44 0 66-.1 13.8 0 20.5-6.7 20.5-20.6v-115Zm-10.8.3v114.5c0 7.6-1.9 9.6-9.3 9.6h-67c-7.4 0-9.3-2-9.3-9.6v-115c0-7.1 2-9.1 9.2-9.1 2.3 0 4.7.1 7 0 4.9-.2 8.4-.3 10.8 6.1 3.2 8.4 12.1 5.6 19 6 5.3.3 11.1-.6 12.5-6 1.8-6.8 6-6.2 10.8-6.1 3 .1 6 0 9 0 4.7.1 7 2.6 7.2 7.1.1.9.1 1.7.1 2.5Z" fill="#0A483A"/></svg>