<svg width="185" height="184" fill="none" xmlns="http://www.w3.org/2000/svg"><path d="M91.866 182.827c0 .201 0 .201 0 0 9.451 0 18.702.402 28.153 0 34.99-1.607 60.931-25.913 63.143-60.665 1.408-20.892 1.006-42.185-.402-63.277-2.011-31.538-29.158-57.25-61.132-58.455-19.707-.603-39.615-.603-59.323.2C29.728 1.836 3.185 27.146 1.173 59.89-.033 80.177-.436 100.667.57 121.156c1.609 34.351 27.55 59.862 62.138 61.67 9.652.603 19.506 0 29.158 0Z" fill="#fff"/><path d="M91.866 182.827c-9.652 0-19.506.402-29.158 0-34.588-1.808-60.53-27.319-62.138-61.67-1.006-20.288-.603-40.778.603-61.267C3.184 27.145 29.728 1.835 62.305.63c19.708-.803 39.616-.803 59.323-.2 31.974 1.205 59.121 26.716 61.132 58.455 1.408 21.092 1.609 42.185.402 63.277-2.212 34.752-28.153 59.058-63.143 60.665-9.451.402-18.702.201-28.153 0 0 .201 0 .201 0 0Zm79.03-91.4c-.202 0-.202 0 0 0-.202-9.04 0-18.079-.202-27.118-.603-28.123-22.924-50.621-51.479-51.224-18.099-.402-36.197-.201-54.295 0-29.36.602-51.48 23.1-51.882 52.83-.202 17.075-.202 34.15 0 51.225.2 28.926 20.712 51.625 49.469 53.233a584.566 584.566 0 0 0 59.322 0c28.354-1.808 48.664-24.307 49.067-52.831V91.427Z" fill="#0A483A"/><path d="M170.895 91.427v26.114c-.402 28.324-20.712 51.024-49.066 52.631a487.198 487.198 0 0 1-59.323 0c-28.756-1.407-49.267-24.106-49.468-53.032-.202-17.075-.202-34.15 0-51.224.402-29.73 22.522-52.229 51.881-52.63 18.099-.402 36.197-.402 54.296 0 28.555.401 50.876 22.9 51.479 51.023.201 9.04 0 18.079.201 27.118-.201 0-.201 0 0 0Zm-48.865-57.05c-11.261 1.809-22.321 1.005-30.968 5.224-15.686 7.834-10.457 24.909-12.066 38.77-6.435.602-11.864 1.205-17.495 1.807v19.284a713.54 713.54 0 0 1 18.098 1.407v49.215h22.121v-49.416c6.032-.402 11.06-.603 16.087-1.005.603-1.607 1.206-2.611 1.408-4.017.804-4.821 1.206-9.843 2.011-15.669-3.419-.401-6.234-.602-9.05-.803-3.217-.201-6.435-.402-9.451-.603-2.815-19.887-2.413-20.49 19.305-25.913v-18.28Z" fill="#fff"/><path d="M122.03 34.378v18.079c-21.718 5.625-22.12 6.227-19.305 25.913 3.016.201 6.234.402 9.451.603 2.816.2 5.832.603 9.05.803-.805 5.826-1.207 10.647-2.011 15.669-.201 1.205-.805 2.41-1.408 4.018-5.027.2-10.055.602-16.087 1.004v49.416H79.6v-49.215c-6.637-.603-12.267-1.005-18.099-1.406V79.977c5.63-.602 11.06-1.004 17.495-1.808 1.609-13.86-3.62-30.935 12.066-38.77 8.647-4.017 19.707-3.414 30.968-5.021Z" fill="#0A483A"/></svg>