<svg xmlns="http://www.w3.org/2000/svg" width="185" height="184" fill="none"><path fill="#fff" d="M91.9 182.8c0 .2 0 .2 0 0 9.4 0 18.7.4 28.1 0 35-1.6 61-25.9 63.2-60.6 1.4-21 1-42.2-.4-63.3A64 64 0 0 0 121.6.4C102-.2 82-.2 62.3.6A63.3 63.3 0 0 0 1.2 60a565.6 565.6 0 0 0-.6 61.3 63.8 63.8 0 0 0 62.1 61.6c9.7.6 19.5 0 29.2 0Z"/><path fill="#0A483A" d="M91.9 182.8c-9.7 0-19.5.4-29.2 0A63.8 63.8 0 0 1 .6 121.2c-1-20.3-.6-40.8.6-61.3C3.2 27 29.7 1.9 62.3.6 82-.2 102-.2 121.6.4A63.8 63.8 0 0 1 182.8 59a511 511 0 0 1 .4 63.3c-2.3 34.7-28.2 59-63.2 60.6-9.4.4-18.7.2-28.1 0 0 .2 0 .2 0 0Zm79-91.4c-.2 0-.2 0 0 0-.2-9 0-18-.2-27A52.2 52.2 0 0 0 119.2 13c-18-.4-36.2-.2-54.3 0A52.2 52.2 0 0 0 13 65.9c-.2 17-.2 34.2 0 51.2a52 52 0 0 0 49.5 53.3 584.6 584.6 0 0 0 59.3 0 52 52 0 0 0 49.1-52.9v-26Z"/><path fill="#fff" d="M170.9 91.4v26.1a51.9 51.9 0 0 1-49 52.7 487.2 487.2 0 0 1-59.4 0 51.6 51.6 0 0 1-49.5-53c-.2-17.1-.2-34.2 0-51.3a51.9 51.9 0 0 1 52-52.6c18-.4 36.1-.4 54.2 0a51.9 51.9 0 0 1 51.5 51c.2 9 0 18 .2 27.1-.2 0-.2 0 0 0Zm-48.9-57c-11.2 1.8-22.3 1-31 5.2-15.6 7.8-10.4 25-12 38.8l-17.5 1.8v19.3a713.5 713.5 0 0 1 18.1 1.4V150h22.1v-49.4l16.1-1c.6-1.6 1.2-2.6 1.4-4 .8-4.9 1.2-9.9 2-15.7l-9-.8-9.5-.6c-2.8-20-2.4-20.5 19.3-26V34.5Z"/><path fill="#0A483A" d="M122 34.4v18c-21.7 5.7-22 6.3-19.3 26l9.5.6 9 .8c-.8 5.8-1.2 10.6-2 15.6-.2 1.2-.8 2.5-1.4 4l-16 1V150H79.5v-49.2l-18.1-1.4V80c5.6-.6 11-1 17.5-1.8 1.6-13.9-3.6-31 12-38.8 8.7-4 19.8-3.4 31-5Z"/></svg>