<svg xmlns="http://www.w3.org/2000/svg" width="181" height="181" fill="none"><path fill="#fff" d="M89.7 180.8c8.9-.2 17.7 0 26.6-.2a63.3 63.3 0 0 0 63.5-64.5c.2-16.9.4-33.8.2-50.6A64.6 64.6 0 0 0 116.5.4c-18.1-.6-36-.4-54.2.2a62.8 62.8 0 0 0-61.7 60 749.5 749.5 0 0 0 0 59.6A63.3 63.3 0 0 0 62 180.8c9 .4 18.3 0 27.6 0Z"/><path fill="#0A483A" d="M89.7 180.8c-9.3 0-18.3.2-27.6 0A63.3 63.3 0 0 1 .6 120.2a749.5 749.5 0 0 1 0-59.5A62.8 62.8 0 0 1 62.3.6c18.1-.6 36-.6 54.2-.2 36.1 1 63 29 63.3 65 .2 17 .2 33.8-.2 50.7a62.9 62.9 0 0 1-63.3 64.5c-8.9.4-17.7.2-26.6.2ZM167 91.3h.2c0-9.4.2-18.5 0-27.8a51.3 51.3 0 0 0-49.5-50.6c-18.7-.6-37.5-.6-56.2.4a50.4 50.4 0 0 0-48.7 51c-.4 17.4-.4 35-.2 52.6a52 52 0 0 0 49.7 51.6c18.7.6 37.5.6 56.2-.2A50.6 50.6 0 0 0 167 119c.4-9 0-18.4 0-27.7Z"/><path fill="#fff" d="M167 91.3c0 9.3.4 18.4 0 27.7a50.6 50.6 0 0 1-48.5 49.3c-18.7.6-37.5.8-56.2.2a52 52 0 0 1-49.7-51.6c-.2-17.5 0-35.2.2-52.6.4-28 21-49.8 48.7-51 18.7-.8 37.5-1 56.2-.4a51.3 51.3 0 0 1 49.5 50.6c.4 9.3 0 18.4 0 27.8h-.2ZM89 148.6c7.9-.2 15.8 0 23.7-.2a33.2 33.2 0 0 0 33.7-34c.4-15 .4-30.3.2-45.6-.2-19-14-33.5-32.7-34.1a601 601 0 0 0-46.4 0C46.3 35.7 34 49 33.3 70.4a843 843 0 0 0 0 44.7c.4 19.4 15 33.3 34.1 33.7l21.7-.2Z"/><path fill="#0A483A" d="M89.1 148.6c-7.3 0-14.4.2-21.7 0a33.9 33.9 0 0 1-34-33.7 843 843 0 0 1 0-44.7c.5-21.4 13.1-34.5 34.2-35.5a601 601 0 0 1 46.4 0c18.7.6 32.3 15 32.7 34.1.2 15.3.2 30.4-.2 45.7a33.2 33.2 0 0 1-33.7 34c-8 .3-15.8.1-23.7.1ZM44 91.5c-.2 7.3-.2 14.4-.2 21.8 0 13.9 9 24.4 22.6 24.8 15.4.6 30.8.4 46.4-.2 13.6-.6 22.2-8.7 23-22.2.8-16.1.8-32.4.2-48.5a23 23 0 0 0-21.7-21.8c-16-.4-32-.4-48.3.2-12.8.4-21.2 9.3-22 22.2-.4 7.8 0 15.7 0 23.7Z"/><path fill="#fff" d="M44 91.5c0-8-.4-16 0-23.9.8-12.9 9.2-21.8 22-22.2 16-.6 32.2-.6 48.3-.2A23 23 0 0 1 136 67c.8 16.1.6 32.4-.2 48.5-.6 13.5-9.4 21.8-23 22.2-15.4.6-30.8.8-46.4.2-13.6-.4-22.6-11-22.6-24.8 0-7.2 0-14.3.2-21.6Zm74 1.1A27.8 27.8 0 1 0 62.6 91a28 28 0 0 0 27.4 28.7c15.2.2 28-12 28.2-27Zm1.7-22.4c3-3.6 6.3-6 6-8.1 0-2.2-3.3-4.4-5.2-6.6-2.4 2.2-6 3.8-6.5 6.4-.4 1.6 3 4.5 5.7 8.3Z"/><path fill="#0A483A" d="M118 92.6c-.1 15.1-13 27.4-28.1 27A27.7 27.7 0 0 1 62.5 91a28 28 0 0 1 28.2-27A27.6 27.6 0 0 1 118 92.6Zm-9.6-1.5a19 19 0 0 0-18-17.7c-9.6 0-18.4 8.7-18.2 18.3.2 9.7 8.6 18 18.5 18 10-.2 18-8.5 17.7-18.6Zm11.3-20.9c-2.8-3.8-6.3-6.7-5.7-8.3.7-2.6 4.3-4.4 6.5-6.4 2 2.2 5.3 4.4 5.3 6.6.2 2.2-3.2 4.3-6.1 8.1Z"/><path fill="#fff" d="M108.4 91a18 18 0 0 1-17.7 18.7c-9.9 0-18.3-8.3-18.5-18-.2-9.6 8.6-18.3 18.3-18.3a19 19 0 0 1 18 17.7Z"/></svg>