<svg width="181" height="181" fill="none" xmlns="http://www.w3.org/2000/svg"><path d="M89.704 180.764c8.872-.198 17.744 0 26.616-.198 36.473-.794 62.891-27.785 63.483-64.501.197-16.87.394-33.74.197-50.609-.591-36.12-27.404-64.104-63.483-65.097C98.379-.236 80.438-.037 62.3.558 28.39 1.748 2.17 27.351.591 60.693a749.488 749.488 0 0 0 0 59.539c1.38 33.342 28.193 59.341 61.512 60.532 9.069.397 18.335 0 27.601 0Z" fill="#fff"/><path d="M89.704 180.764c-9.266 0-18.335.199-27.601 0-33.319-1.191-60.131-27.189-61.512-60.532a749.482 749.482 0 0 1 0-59.539C2.17 27.351 28.39 1.749 62.301.558 80.437-.037 98.378-.037 116.516.36c36.079.992 62.892 28.976 63.286 65.096.197 16.87.197 33.74-.197 50.609-.395 36.914-26.813 63.707-63.286 64.501-8.872.397-17.744.198-26.616.198Zm77.284-89.507h.197c0-9.328.197-18.458 0-27.786-.986-27.785-21.884-49.616-49.485-50.608-18.73-.595-37.459-.595-56.189.397-27.798 1.19-48.302 23.022-48.696 51.005-.394 17.465-.394 35.129-.197 52.594.394 27.586 22.278 50.807 49.682 51.6 18.73.596 37.459.596 56.188-.198 26.616-.992 47.317-22.228 48.5-49.219.394-9.13 0-18.458 0-27.785Z" fill="#0A483A"/><path d="M166.988 91.256c0 9.328.394 18.458 0 27.786-1.183 26.991-21.884 48.227-48.499 49.219-18.73.595-37.46.794-56.189.198-27.404-.794-49.485-24.014-49.682-51.601-.197-17.465 0-35.128.197-52.593.394-27.983 20.898-49.815 48.697-51.005 18.729-.794 37.459-.993 56.188-.397 27.601.992 48.499 22.823 49.485 50.608.394 9.328 0 18.458 0 27.785h-.197Zm-77.875 57.357c7.886-.199 15.772 0 23.658-.199 19.715-.595 33.319-14.289 33.713-33.937.394-15.084.394-30.365.197-45.647-.197-19.053-13.997-33.54-32.727-34.136a601.083 601.083 0 0 0-46.33 0c-21.293.992-33.714 14.29-34.305 35.724a842.998 842.998 0 0 0 0 44.654c.394 19.45 14.983 33.342 34.107 33.739 7.295 0 14.392-.198 21.687-.198Z" fill="#fff"/><path d="M89.113 148.613c-7.295 0-14.392.198-21.687 0-19.124-.397-33.713-14.488-34.107-33.739a843.01 843.01 0 0 1 0-44.655c.591-21.434 13.209-34.533 34.304-35.525a601.086 601.086 0 0 1 46.331 0c18.729.595 32.333 15.083 32.727 34.136.197 15.282.197 30.365-.197 45.647-.394 19.846-14.195 33.342-33.713 33.938-7.886.396-15.772.198-23.658.198ZM43.965 91.455c-.197 7.343-.197 14.488-.197 21.831 0 13.893 9.069 24.411 22.672 24.808 15.378.596 30.756.397 46.331-.198 13.604-.596 22.278-8.733 23.067-22.228.788-16.076.788-32.35.197-48.426-.591-11.908-10.252-21.434-21.687-21.83-15.97-.398-32.136-.398-48.302.198-12.815.397-21.293 9.328-22.081 22.228-.394 7.74 0 15.678 0 23.617Z" fill="#0A483A"/><path d="M43.965 91.455c0-7.939-.394-15.877 0-23.816.789-12.9 9.266-21.83 22.081-22.228 15.97-.595 32.136-.595 48.302-.198 11.238.198 21.096 9.923 21.687 21.83.789 16.076.592 32.35-.197 48.426-.592 13.496-9.463 21.831-23.067 22.228-15.378.596-30.756.794-46.33.199-13.604-.397-22.673-10.916-22.673-24.808 0-7.145 0-14.29.197-21.633Zm74.129 1.19c.197-15.876-11.829-28.578-27.404-28.777-14.983-.198-28.193 12.305-28.193 26.992 0 16.075 11.83 28.38 27.404 28.777 15.181.198 27.996-12.106 28.193-26.991Zm1.577-22.426c2.958-3.572 6.309-5.954 6.112-8.137 0-2.183-3.351-4.366-5.323-6.55-2.366 2.184-5.915 3.772-6.506 6.352-.394 1.587 2.957 4.564 5.717 8.335Z" fill="#fff"/><path d="M118.094 92.646c-.197 15.083-13.012 27.388-28.192 26.991-15.773-.397-27.602-12.702-27.405-28.778 0-14.686 13.21-27.19 28.193-26.99 15.575 0 27.601 12.701 27.404 28.777Zm-9.66-1.588c-.197-9.13-8.872-17.663-17.941-17.663-9.66 0-18.532 8.732-18.335 18.258.197 9.725 8.674 18.061 18.532 18.061 10.055-.199 17.941-8.534 17.744-18.656ZM119.671 70.22c-2.76-3.772-6.308-6.749-5.717-8.336.789-2.58 4.337-4.367 6.506-6.351 1.972 2.183 5.323 4.366 5.323 6.55.197 2.182-3.154 4.365-6.112 8.136Z" fill="#0A483A"/><path d="M108.434 91.058c.197 10.122-7.689 18.656-17.744 18.656-9.858 0-18.335-8.336-18.532-18.06-.197-9.527 8.674-18.26 18.335-18.26 9.069 0 17.744 8.535 17.941 17.664Z" fill="#fff"/></svg>