<svg xmlns="http://www.w3.org/2000/svg" width="184" height="185" fill="none"><path fill="#0A483A" d="M62.02.4h60c1.4.4 2.8 1 4.3 1.2 31.5 3.6 57.3 32.4 57.5 64.1.1 17.7.1 35.3 0 53-.1 35.9-29.6 65.4-65.6 65.5-17 .1-34 0-51 0-32 0-58.3-21.2-65.2-52.6-.7-3.1-1.3-6.1-2-9.2v-60c.4-1.1 1-2.1 1.1-3.2 3.9-28.7 23.7-50.3 51.8-56.7l9.1-2.1ZM92.42 12v-.5c-12.6.6-25.4-.1-37.8 1.9-23.3 3.8-42.5 26.9-42.8 50-.3 19.5-.3 39 0 58.5.5 24.8 22.4 49.1 46.9 50.5 22.2 1.3 44.6 1.2 66.8 0 22.7-1.2 45-22.8 46.4-45.4 1.4-22.3 1.6-44.9.1-67.3-1.8-26.8-26.3-47.7-53.1-47.8-8.8.1-17.6.1-26.5.1Z"/><path fill="#0A483A" d="M132.42 138.1v-11.5c0-11.3.1-22.7 0-34-.1-7.9-5.7-13.5-13.5-13.5-8.2 0-14 5.3-14.1 13.4-.1 13.2 0 26.3-.1 39.5v6.1c-7.8 0-15 .1-22.3-.2-.9 0-2.4-2.2-2.4-3.3-.1-21.2-.1-42.3-.1-63.5 0-2.7 1.3-3.9 4-3.9 4.8 0 9.7.2 14.5-.1 3.8-.2 7 0 6.9 5.6 1.7-1.2 2.8-1.8 3.7-2.7 9.1-8.1 19.3-10.1 30.6-5.6 12 4.8 17.6 14.5 18.1 26.9.5 14.1 0 28.3.2 42.5 0 3.3-1.1 4.4-4.4 4.3-6.9-.2-13.5 0-21.1 0Zm-67.6-.2h-24.2c-.1-1.6-.3-3.2-.3-4.8 0-20.2.1-40.3-.1-60.5 0-4 .9-5.8 5.2-5.5 5.1.3 10.3-.1 15.5.2 1.4.1 3.7 2 3.7 3.1.3 22.3.2 44.6.2 67.5Zm-24.5-98c0-6.9 5.3-12.3 12.3-12.3 7 0 12.2 5.2 12.2 12.2 0 7.1-5.2 12.3-12.2 12.3-6.9 0-12.3-5.3-12.3-12.2Z"/></svg>