<svg xmlns="http://www.w3.org/2000/svg" width="184" height="184" fill="none"><path fill="#fff" d="M90.55 183.95v-1.2c9.4 0 18.62.2 28.03 0 35.24-.8 62.67-27.5 63.87-62.8.6-18.47.8-36.73.2-55.19-.8-37.12-28.03-63.8-65.27-64.6-17.02-.21-34.04-.21-51.06-.01C32.3.55 5.46 23.02 1.65 56.73c-2.4 22.08-1.8 44.75-.6 67.02 1.8 27.9 19.62 49.36 46.65 56.19 13.82 3.4 28.63 2.8 42.85 4Z"/><path fill="#0A483A" d="M90.55 183.95c-14.22-1.2-28.83-.6-42.65-4.01-27.03-6.83-45.05-28.3-46.65-56.19-1.4-22.27-1.8-44.94.6-67.02C5.45 23.03 32.5.55 66.32.15c17.02-.2 34.04-.2 51.06 0 37.24.8 64.47 27.29 65.47 64.41.6 18.46.4 36.72-.2 55.18-1.2 35.32-28.63 62-63.87 62.8-9.41.2-18.62 0-28.03 0-.2.6-.2 1-.2 1.41Zm79.69-92.7c-.2-9.43 0-18.66-.2-28.1-.8-25.88-20.43-47.95-46.05-49.56a582.3 582.3 0 0 0-62.07-.4c-27.83 1.4-48.25 23.68-48.66 51.57-.4 18.06-.2 36.12.2 54.18.6 28.7 22.23 50.36 51.06 51.16 17.42.4 34.64.4 52.06.2 30.83-.2 53.66-23.07 53.66-53.97V91.25Z"/><path fill="#fff" d="M170.24 91.25v25.08c0 30.9-22.83 53.78-53.66 53.98-17.42.2-34.64.2-52.06-.2-28.83-.8-50.45-22.48-51.05-51.17-.4-18.06-.4-36.12-.2-54.18.4-27.89 20.82-50.16 48.65-51.57 20.62-1 41.44-1 62.07.4 25.62 1.61 45.45 23.68 46.05 49.57.2 9.23 0 18.66.2 28.09Zm-78.69 41.13c11.41-.2 22.63.2 34.04-.2 14.01-.4 23.82-10.43 24.22-24.08.4-10.03.4-20.06.2-30.1-.6-17.25-9.6-26.88-26.63-27.28a1758.72 1758.72 0 0 0-65.07 0c-14.01.2-24.22 10.23-24.82 23.87-.4 10.64-.4 21.47-.2 32.1.6 15.66 10.4 25.09 26.22 25.7 10.62.2 21.43 0 32.04 0Z"/><path fill="#0A483A" d="M91.55 132.38c-10.61 0-21.42.2-32.03 0-15.82-.6-25.63-10.03-26.23-25.68-.4-10.64-.4-21.47.2-32.1.6-13.45 10.8-23.68 24.82-23.88 21.63-.4 43.45-.6 65.08 0C140.4 51.12 149.4 60.75 150 78c.4 10.03.2 20.06-.2 30.1-.4 13.84-10.4 23.67-24.22 24.07-11.41.4-22.63 0-34.04.2Zm-13.81-59v36.93c12.4-6.02 23.42-11.44 36.64-17.86-13.02-6.62-23.63-12.24-36.64-19.06Z"/><path fill="#fff" d="M77.73 73.39c13.02 6.82 23.63 12.44 36.64 19.26a7498.44 7498.44 0 0 0-36.64 17.66V73.39Z"/></svg>