<svg id="Layer_1" data-name="Layer 1" xmlns="http://www.w3.org/2000/svg" viewBox="0 0 126.63 112.24"><defs><style>.cls-1{fill:none;stroke:#000;stroke-linecap:round;stroke-linejoin:round;stroke-width:6px;}</style></defs><title>YOUTUBE ICON</title><g id="Icon_feather-youtube" data-name="Icon feather-youtube"><path id="Path_4" data-name="Path 4" class="cls-1" d="M106.16,34.54a11.29,11.29,0,0,0-7.88-8.13c-7-1.71-35-1.71-35-1.71s-28,0-35,1.87a11.28,11.28,0,0,0-7.89,8.13A117.46,117.46,0,0,0,18.6,56.2a117.47,117.47,0,0,0,1.87,21.67,11.28,11.28,0,0,0,7.89,7.8c7,1.87,35,1.87,35,1.87s28,0,35-1.87a11.29,11.29,0,0,0,7.88-8.13A117.41,117.41,0,0,0,108,56.2a117.54,117.54,0,0,0-1.87-21.67Z"/><path id="Path_5" data-name="Path 5" class="cls-1" d="M53.85,69.5,77.23,56.21,53.85,42.91Z"/></g></svg>