<svg xmlns="http://www.w3.org/2000/svg" width="219" height="219" fill="none"><path fill="#0A483A" d="M109 219h-2l-1-1 1-1h7l1 1-1 1h-5Zm-9 0-7-1v-1l1-1h7l1 2-2 1Zm21-1-1-1 1-1 7-1 1 1-1 1-7 1Zm-34-1-7-2-1-1 1-1 7 1 1 2-1 1Zm48-1-1-1v-1l7-2 1 1v1l-7 2Zm-61-3h-1l-6-3-1-1 2-1 6 3 1 1-1 1Zm74-1-1-1v-1l7-3 1 1v1l-7 3Zm-87-4-1-1-6-3v-1l1-1 6 3 1 2-1 1Zm99-2h-1l1-2 6-3h1v2l-6 3h-1Zm-111-5-1-1-5-4-1-1h2l6 4v1l-1 1Zm123-2h-1v-2l6-4h1v2a100 100 0 0 1-6 4Zm-134-7h-1l-5-5v-1h2l5 4v2h-1Zm145-2h-1v-2l5-4h2v1a113 113 0 0 1-6 5Zm-155-8h-1l-4-5v-2h2l4 6v1h-1Zm164-2v-1l4-6h1l1 2a112 112 0 0 1-6 5Zm-172-8-1-1-4-6 1-1h1l4 6-1 1v1Zm181-3h-1v-1l3-6 2-1v2l-3 6h-1Zm-188-9-1-1-3-6v-2l2 1 3 6-1 2Zm194-3-1-1 3-7h1l1 1a126 126 0 0 1-4 7ZM7 147l-1-1-2-6 1-2 1 1 2 7v1H7Zm205-2v-1l-1-1 2-6 2-1v1l-1 7-2 1ZM4 134l-2-1-1-7a1 1 0 0 1 2 0l2 6-1 2Zm212-3-1-1 1-7a1 1 0 1 1 2 0l-1 7-1 1ZM1 120l-1-1v-7a1 1 0 0 1 2 0l1 7-1 1H1Zm217-3-1-1a107 107 0 0 0 0-12l1-1 1 1a113 113 0 0 1 0 12l-1 1ZM1 106l-1-1 1-7 1-1 1 2-1 6-1 1Zm216-8-1-1-1-6a1 1 0 1 1 2-1l1 7-1 1ZM3 93H2l-1-2 2-6a1 1 0 0 1 2 0l-1 7-1 1Zm212-8-1-1-2-7 1-1 1 1 2 6-1 2ZM6 79H5v-1l2-7h1l1 1-2 6-1 1Zm205-7-1-1-3-6 1-2 1 1 3 6-1 2ZM10 66l-1-1 4-7h1v2l-3 6h-1Zm195-7h-1l-3-6v-2h1l4 7-1 1ZM17 54h-1v-2l4-5 1-1 1 2-4 6h-1Zm181-7h-1l-4-5v-2h1l4 6v1ZM25 43h-1v-2l4-5h2v1a108 108 0 0 0-5 6Zm164-6-1-1-5-4v-2h2l5 5v2h-1ZM34 33l-1-1v-1l6-5h1v2a109 109 0 0 0-6 5Zm145-6h-1l-5-4v-2h1l6 4v2h-1ZM45 24l-1-1v-1l6-4h1v2a108 108 0 0 0-6 4Zm123-5h-1l-6-3v-2h1l6 3 1 2h-1ZM56 16a1 1 0 0 1 0-2l6-3h1v2a101 101 0 0 0-7 3Zm100-3-1-1-6-2-1-2h2l6 2 1 2-1 1Zm-87-3-1-1V8l7-2h1l-1 2a121 121 0 0 0-6 2Zm74-3h-1l-6-2-1-1 1-1 7 2 1 2h-1ZM82 6l-1-1V4l7-2 1 1v1l-7 2Zm47-2-6-1-1-1 1-1 7 1 1 1-2 1ZM95 3l-1-1 1-1 7-1 1 1-1 1-7 1Zm21-1h-7l-1-1 1-1h7l1 1-1 1ZM58 51l18 84H58l-4-20-15 1-4 19H18l16-83 24-1Zm-16 49h9l-5-31-4 31Zm62-49c17 0 23 7 23 20v6c0 6-2 12-7 15 7 2 8 9 8 15v7c0 12-6 20-23 20l-27 1-1-84h27Zm-9 16v18h7c5 0 8-3 8-6v-6c-1-4-2-6-7-6h-8Zm1 33v19h8c5 0 6-3 6-6v-7c0-3-2-6-7-6h-7Zm52 34-20-83h18l7 31 5 30 4-30 6-32h18l-18 84h-20Zm-58 25c0-7 3-11 9-11s9 4 9 10c0 7-3 11-9 11s-9-4-9-10Zm11-1c0-3 0-5-2-4-2 0-3 1-3 4 0 4 1 6 3 6s3-2 2-6Zm3 32h-6l17-42h6l-17 42Zm7-10c0-6 3-10 9-10 6-1 9 4 9 10 0 7-3 11-9 11s-9-4-9-11Zm12 0c0-3-1-5-3-5s-3 2-3 5c0 4 1 5 3 5s3-2 3-5Z"/></svg>