<svg xmlns="http://www.w3.org/2000/svg" width="263" height="240" fill="none"><path fill="#0A483A" d="M143.85 238.416c65.805 0 119.15-53.371 119.15-119.208C263 53.371 209.655 0 143.85 0 78.046 0 24.7 53.371 24.7 119.208c0 65.837 53.346 119.208 119.15 119.208Z"/><mask id="a" width="239" height="239" x="24" y="1" maskUnits="userSpaceOnUse" style="mask-type:luminance"><path fill="#fff" d="M143.85 239.96c65.805 0 119.15-53.371 119.15-119.208C263 54.916 209.655 1.544 143.85 1.544 78.046 1.544 24.7 54.916 24.7 120.752c0 65.837 53.346 119.208 119.15 119.208Z"/></mask><g mask="url(#a)"><path fill="#0A483A" d="M181.852 84.99c6.61 1.624 13.102 3.446 19.475 5.862-.158.197-.316.395-.435.554-1.069 1.07-1.742 2.416-2.257 3.802-1.148 2.93-1.86 6.02-2.375 9.109-1.068 6.495-1.662 13.069-2.058 19.643-.435 7.367-.356 14.773-.119 22.139.079 1.861.159 3.762.436 5.624v-2.06c.158-5.663.316-11.326.514-16.99.119-3.366.238-6.732.475-10.138.475-7.287 1.109-14.575 2.771-21.743.396-1.782.99-3.485 1.623-5.188a8.356 8.356 0 0 1 1.227-2.257c1.504-2.1 3.325-2.1 4.79.04.594.87 1.029 1.86 1.425 2.811.95 2.376 1.504 4.871 1.979 7.366a118.976 118.976 0 0 1 1.821 14.456c.317 5.069.673 10.178.792 15.287a281.49 281.49 0 0 1 .079 15.287c-.119 5.149-.396 10.337-.752 15.485-.396 5.624-.95 11.208-2.138 16.713-.475 2.178-1.148 4.356-1.781 6.495-.198.673-.515 1.267-.831 1.901-.673 1.267-1.584 2.178-3.009 2.654-3.681 1.188-7.283 2.613-10.965 3.762-7.244 2.257-14.606 3.921-22.088 5.148-2.454.396-4.908.753-7.363 1.149-1.068.158-1.029.158-1.227 1.267-.435 2.852-.91 5.703-1.781 8.436a31.14 31.14 0 0 1-1.623 4.158c-.594 1.268-1.583 2.06-2.969 2.614-8.629 3.367-17.496 5.822-26.521 7.723-4.632.95-9.303 1.703-13.974 2.337-4.71.633-9.46 1.069-14.211 1.307-5.462.277-10.925.396-16.388.118-3.008-.158-6.017-.237-9.025-.514-3.444-.278-6.848-.713-10.252-1.109-4.71-.555-9.422-1.426-14.053-2.456-12.31-2.653-24.265-6.495-35.784-11.604-4.117-1.822-7.126-4.871-9.065-8.95-1.86-3.921-3.048-8.04-3.959-12.238-.95-4.475-1.504-9.03-1.86-13.624-.436-5.505-.475-11.049-.317-16.554.238-7.327.95-14.614 2.732-21.743.83-3.326 1.86-6.534 3.325-9.663 2.018-4.238 5.146-7.327 9.46-9.188 2.573-1.109 5.186-2.139 7.799-3.208.316-.119.672-.277 1.068-.436-.079-.237-.119-.396-.198-.594-2.256-4.515-3.602-9.307-4.552-14.218-1.069-5.584-1.583-11.208-1.86-16.87-.198-5.07-.198-10.14.079-15.209.435-7.683 1.385-15.287 3.76-22.653a52.212 52.212 0 0 1 2.375-5.98c1.94-4.04 5.028-6.931 9.105-8.753a182.357 182.357 0 0 1 35.705-11.525c5.265-1.109 10.57-2.06 15.913-2.693 3.959-.475 7.957-.752 11.955-1.07 5.66-.435 11.321-.514 16.982-.316 4.908.198 9.777.475 14.646.99 13.498 1.426 26.68 4.198 39.545 8.594 1.029.357 2.058.753 3.127 1.149-2.85 2.772-3.563 6.416-4.433 9.98-.951 3.92-1.386 7.96-1.861 11.96a201.82 201.82 0 0 0-1.108 16.238c-.198 6.614-.079 13.228.237 19.881.04 1.267.159 2.574.396 3.842v-3.05c.079-4.04.119-8.079.238-12.119.158-4.673.316-9.346.633-13.98.435-6.89 1.029-13.742 2.335-20.515.475-2.455 1.03-4.87 1.98-7.168.316-.792.752-1.544 1.187-2.297.198-.356.515-.713.792-.99 1.148-1.109 2.454-1.109 3.562.08.436.474.871 1.029 1.148 1.623.515 1.07.99 2.178 1.346 3.287 1.109 3.327 1.702 6.812 2.177 10.257a178.393 178.393 0 0 1 1.623 17.783c.198 4.673.317 9.346.436 13.98.039 2.02 0 4.04 0 6.06.079.197.079.395.119.712Zm-81.465 137.267c.039.278.079.555.079.792.079 0 .118-.039.198-.039-.08-.238-.159-.515-.277-.753a9.885 9.885 0 0 1-.436-.95 10.57 10.57 0 0 0-.277-1.069c-.435-1.466-.91-2.891-1.306-4.357-2.771-10.138-3.959-20.515-4.513-30.97-.237-4.475-.356-8.99-.396-13.505-.118-10.97.198-21.901 1.544-32.792.594-4.911 1.346-9.782 2.573-14.535.792-3.089 1.742-6.178 2.652-9.228.159-.316.277-.633.436-.95.079-.238.158-.515.237-.752a.363.363 0 0 1-.198-.04c0 .277-.039.554-.039.792-.475.158-.555.515-.436.95-.514.159-.514.634-.633 1.03-1.188 3.089-2.098 6.258-2.85 9.505-1.742 7.485-2.692 15.089-3.325 22.772-.555 6.654-.792 13.347-.792 20.04 0 7.168.277 14.376.91 21.545.594 6.653 1.425 13.306 2.85 19.841.792 3.723 1.782 7.406 3.167 10.97.119.278.317.515.475.793-.158.356-.079.712.357.91Zm75.883-30.415c.04.277.079.554.119.792.079-.04.119-.04.198-.08a2.953 2.953 0 0 1-.317-.712l-.119-.476c-2.098-5.901-3.325-12-4.235-18.138-1.069-7.327-1.623-14.733-1.781-22.179-.119-6.059-.04-12.118-.04-18.178v-1.069c-.633-.119-.713.198-.713.634l-.118 3.168c-.198 8.475 0 16.95.712 25.426.475 6.059 1.227 12.118 2.415 18.099.792 3.92 1.781 7.802 3.206 11.564.159.436.436.792.673 1.149ZM19.871 127.327c-.197.317-.475.594-.633.95-1.662 3.644-2.81 7.485-3.72 11.406-1.743 7.485-2.613 15.129-3.01 22.812-.276 5.426-.118 10.852.317 16.277.475 5.703 1.228 11.367 2.455 16.99 1.029 4.792 2.414 9.505 4.592 13.901l.474.832c.08-.277.04-.475-.079-.673-1.741-3.842-2.968-7.842-3.919-11.961-1.979-8.435-2.85-17.029-3.087-25.663a140.013 140.013 0 0 1 1.94-27.881c.95-5.584 2.375-11.05 4.552-16.317.04-.238.079-.475.119-.673.356-.713.752-1.386 1.108-2.099-.08-.04-.119-.079-.198-.079-.317.712-.871 1.346-.91 2.178ZM117.843 27.01c-.158.277-.396.515-.475.792-.871 2.733-1.821 5.465-2.573 8.238-1.187 4.435-1.979 8.99-2.533 13.544-.515 4.198-.911 8.436-1.267 12.634-.237 2.653-.356 5.267-.435 7.92-.119 3.684-.238 7.327-.238 11.01 0 3.525.119 7.01.277 10.535.198 4.277.555 8.594.832 12.871.079.911.198 1.822.316 2.773.04.317.119.515.554.317v-.634c-.316-4.753-.831-9.505-.95-14.258-.197-6.138-.197-12.316-.158-18.455.079-8.792.633-17.505 1.861-26.218.752-5.505 1.82-10.97 3.364-16.317.436-1.623.95-3.208 1.425-4.752.079-.277.198-.515.317-.753-.079-.04-.158-.04-.238-.079 0 .277-.039.555-.079.832Zm28.066 3.604c-.436.119-.436.515-.554.831-1.148 3.05-2.019 6.14-2.732 9.307-1.979 8.832-2.929 17.783-3.325 26.773-.237 5.386-.277 10.772-.277 16.198 0 3.485.119 6.97.317 10.416.277 4.316.712 8.633 1.108 12.95.198 1.941.515 3.881.792 5.782.039.277.079.634.594.555 0-.238-.04-.515-.08-.753-.475-4.396-1.108-8.792-1.425-13.228-.356-4.673-.514-9.386-.593-14.098-.198-10.654.079-21.307 1.306-31.921.554-4.753 1.227-9.466 2.375-14.1.752-2.93 1.623-5.821 2.494-8.712.079-.277.198-.555.316-.832-.079 0-.158-.04-.237-.04-.04.278-.079.555-.079.872Zm-17.932 187.089c-.158.356 0 .634.356.792-.119-.277-.237-.515-.356-.792a84.643 84.643 0 0 1-1.029-3.406c-2.771-9.663-3.959-19.564-4.513-29.584-.277-4.871-.356-9.782-.435-14.693-.119-6.337.039-12.634.435-18.971.356-5.346.871-10.693 1.702-16 .911-5.584 2.098-11.128 3.959-16.475.079-.198.079-.396.158-.594-.277.277-.435.594-.554.951-.673 2.099-1.465 4.198-2.019 6.336-2.098 7.802-3.167 15.763-3.76 23.802-.357 4.792-.555 9.584-.713 14.377-.238 8.594.079 17.148.831 25.703.515 5.782 1.267 11.524 2.415 17.188.752 3.604 1.662 7.168 2.969 10.574.198.317.396.554.554.792ZM45.72 118.812c-.198.237-.475.475-.594.752-.91 1.901-1.86 3.802-2.652 5.783-3.008 7.762-4.433 15.92-5.383 24.158-.515 4.554-.792 9.109-.91 13.663-.238 8.951.118 17.862 1.226 26.773.673 5.227 1.623 10.376 3.048 15.485 1.188 4.237 2.732 8.356 4.909 12.237.158.278.356.555.515.832-.357-1.109-.91-2.139-1.386-3.208-2.613-5.782-4.236-11.881-5.383-18.139-1.267-6.97-1.94-14.019-2.138-21.108-.198-7.882-.198-15.763.475-23.644.435-5.267 1.108-10.535 2.217-15.723 1.267-5.94 2.969-11.723 5.74-17.188.197-.237.237-.475.316-.673.159-.277.357-.515.554-.792l-.237-.119c-.119.277-.198.594-.317.911Zm131.184-67.287c.039-.317.039-.634.079-.95h-.119c0 .316.04.633.04.95.118 1.188.237 2.376.277 3.564.237 4.475.593 8.99.712 13.465.119 5.07.158 10.14.079 15.208-.118 5.466-.316 10.931-.673 16.357-.277 4.356-.831 8.713-1.346 13.03a68.328 68.328 0 0 1-1.939 10.138c-.198.634-.436 1.267-.634 1.941h-.237c-.317-.951-.713-1.901-.99-2.852-1.227-4.198-1.741-8.554-2.414-12.871-.238-1.624-.436-3.248-.673-4.871-.119.356-.159.713-.119 1.069.238 2.574.435 5.148.752 7.723.436 3.524.99 7.01 1.979 10.416.238.831.555 1.623.911 2.415.119.278.475.594.752.674.158.039.514-.357.673-.634.356-.752.752-1.505.95-2.297.633-2.693 1.306-5.386 1.781-8.119.871-4.792 1.386-9.624 1.623-14.495.277-5.782.554-11.564.673-17.346.119-6.06-.04-12.12-.475-18.179-.356-4.515-.792-9.03-1.227-13.544-.158-.277-.317-.555-.435-.792ZM93.182 200.396c-.356-3.01-.673-5.941-1.03-8.95-2.651 1.227-5.224 2.297-8.114 2.178 2.454-.634 4.75-1.624 6.967-2.812.752-.396 1.148-.792 1.03-1.743-.199-1.584-.238-3.168-.357-4.752-.04-.357-.08-.713-.119-1.109-1.465.554-2.81 1.148-4.235 1.624-1.742.594-3.207.752-4.355.554.555-.119.99-.198 1.425-.317 2.375-.554 4.513-1.703 6.65-2.812.476-.237.515-.633.476-1.069-.08-2.139-.12-4.317-.198-6.455 0-.476-.04-.99-.08-1.584-3.998.198-7.837.792-11.717 1.148 3.8-1.307 7.72-1.901 11.638-2.376v-7.644c-15.28.159-30.48.634-45.72 2.139v1.188c.119 4.119.198 8.198.356 12.317.278 6.02 1.07 12 2.217 17.901.317 1.544.673 3.089 1.03 4.633.078.396.237.713.751.793 2.85.237 5.74.554 8.59.792 2.217.198 4.434.316 6.65.475 3.92.237 7.838.594 11.797.673 5.383.119 10.806.079 16.19.119.277 0 .554-.04.91-.079a90.911 90.911 0 0 0-.633-3.723c-3.998.871-7.838 1.426-11.678.079 3.959.673 7.72-.039 11.56-1.188Zm.198-65.901h-4.75v-.198c1.623-.238 3.246-.475 4.948-.713.198-1.188.435-2.416.633-3.762-.475-.04-.831-.079-1.187-.079-2.692 0-5.344-.04-8.036 0-5.344.118-10.727.316-16.071.514-1.188.04-2.375.119-3.563.238-2.89.238-5.819.475-8.709.713-2.137.198-4.275.396-6.412.634-.238.039-.554.198-.633.356-.278.752-.555 1.545-.555 2.416 1.109.079 2.138.158 3.207.237-.91.278-1.86.436-2.81.555-.318.04-.713.079-.792.475-.317 1.347-.555 2.693-.911 4.198 1.03-.237 1.9-.435 2.731-.633-.673.514-1.425.91-2.177 1.227-.594.238-.791.594-.91 1.149-.752 4.515-1.227 9.029-1.584 13.584-.04.436 0 .832 0 1.386 6.65-1.505 13.142-1.861 19.674.04-1.544.039-3.088-.08-4.671-.119-4.71-.119-9.382-.119-14.092.198-.95.039-.99.079-1.069 1.03-.08 1.703-.158 3.445-.198 5.148 0 .238.04.436.08.673.158.04.237.08.316.08 1.742-.198 3.483-.396 5.225-.555 3.88-.396 7.759-.832 11.638-1.109 4.196-.277 8.392-.475 12.588-.554 4.869-.119 9.738-.04 14.607-.04h1.346v-3.921c-2.573-.237-5.107-.435-7.6-.713-3.207-.356-6.572-1.069-7.522-1.584 5.107.278 10.134 1.07 15.24 1.228.198-3.129.356-6.099.515-9.188a27.502 27.502 0 0 1-1.94-.515c-.633-.158-1.267-.356-1.9-.515 0-.039 0-.039.04-.079 1.266.158 2.533.277 3.84.436a413.08 413.08 0 0 0 1.464-12.238ZM63.533 68.871c6.77-1.544 13.38-1.861 19.95.04-6.61-.238-13.26-.475-19.99.198-.079 2.257-.158 4.475-.276 6.812.752-.08 1.385-.159 1.979-.238 3.483-.356 6.967-.752 10.45-1.03 3.88-.316 7.798-.554 11.678-.792 2.77-.158 5.541-.198 8.352-.237 3.365-.04 6.729 0 10.134 0h3.246v-4.08a62.418 62.418 0 0 1-15.32-2.138c5.146.238 10.253 1.03 15.438 1.148.198-3.128.357-6.099.515-9.148-1.227-.317-2.375-.594-3.484-.911 0-.04 0-.08.04-.119 1.148.119 2.296.278 3.483.396.475-4.118.911-8.079 1.346-12.158-1.504-.04-2.889-.119-4.275-.159a11.355 11.355 0 0 1 2.217-.554c.752-.119 1.504-.158 2.217-.238.396-1.188.633-3.128.514-3.762-5.423-.753-39.505.91-44.414 2.218-.198.831-.435 1.663-.673 2.653 1.148.04 2.138.08 3.128.12v.197c-1.109.198-2.177.357-3.325.555-.317 1.465-.594 2.89-.91 4.514 1.068-.237 1.939-.435 2.85-.633-.674.475-1.347.91-2.099 1.148-.752.238-1.069.713-1.108 1.426 0 .08-.04.198-.04.277-.435 3.604-.91 7.169-1.346 10.773-.158 1.188-.198 2.376-.277 3.722Zm38.16 36.792c.158-.039.277-.118.435-.158 2.494-.594 4.79-1.663 7.046-2.891.396-.238.673-.436.634-.99-.159-1.782-.238-3.565-.357-5.347-.039-.356-.118-.673-.158-1.07-2.89 1.268-5.581 2.575-8.906 2.258.554-.079.91-.158 1.227-.198 2.493-.435 4.671-1.623 6.887-2.772.634-.317.832-.713.792-1.386-.119-2.337-.158-4.713-.237-7.05 0-.237-.04-.514-.08-.91-1.939.198-3.839.395-5.739.594-1.9.198-3.8.435-5.7.633 3.681-1.307 7.52-1.94 11.36-2.376.198-.792.198-6.93 0-7.525-4.512-.633-43.385 1.228-45.601 2.178-.673 4.951 1.148 27.446 2.414 29.505 3.444-.356 6.849-.792 10.253-1.029 4.79-.278 9.58-.515 14.369-.555 4.117-.039 8.194.198 12.311.357 2.058.079 4.077.356 6.135.515.515.039 1.03 0 1.623 0-.158-1.347-.277-2.575-.435-4-2.731 1.306-5.344 2.257-8.273 2.217Zm44.968 113.624c-.079-.277-.119-.396-.198-.475-1.821-3.327-2.929-6.891-3.84-10.495-2.177-8.792-3.127-17.782-3.523-26.812-.237-5.109-.277-10.178-.277-15.287-.039-6.97.317-13.901.99-20.832.514-5.188 1.266-10.297 2.414-15.366.871-3.723 1.9-7.367 3.523-10.812.278-.555.555-1.109.911-1.782-2.811-.832-5.502-1.624-8.313-2.456-1.108 2.218-1.979 4.396-2.652 6.693 1.702.911 3.325 1.822 4.75 3.089-1.662-.633-3.365-1.267-5.106-1.94-.95 3.049-1.623 6.02-2.177 9.069 1.187.317 2.256.634 3.325.911 0 .04-.04.079-.04.158-1.148-.118-2.256-.277-3.483-.435-.277 1.584-.475 3.049-.752 4.515.475.198.87.396 1.266.554.356.159.713.357 1.029.515 0 .04-.039.04-.039.079-.752-.119-1.504-.277-2.336-.435-.277 1.821-.554 3.485-.633 5.148.356.198.594.317.91.475h-.989c-.277 2.456-.554 4.872-.634 7.367h2.376c0 .039 0 .079.039.118-.792.278-1.623.515-2.533.832-.079 2.218-.317 4.436-.277 6.693.316.04.514.04.752.079-.277.119-.515.238-.792.357-.079 2.218-.119 4.436-.198 6.693 1.227.277 2.336.554 3.484.832 0 .039-.04.079-.04.158-1.108-.119-2.217-.198-3.365-.317v3.683c.99.04 1.9.119 2.811.159v.158c-.911.119-1.861.238-2.89.357.079 2.455.119 4.871.198 7.208 1.583.594 3.088.95 4.394 1.821-1.425-.237-2.811-.515-4.236-.752-.198 1.584.475 11.564.871 12.713l1.544-.119c.515-.04.99-.079 1.504-.04.475.04.99-.277 1.584.08-1.623.277-3.128.554-4.671.831.316 3.565.791 7.01 1.425 10.495 1.504-.198 2.929-.396 4.314-.594 0 .04 0 .079.04.119-1.346.356-2.731.713-4.196 1.109.317 2.218.792 4.356 1.346 6.455 1.267.08 2.375.198 3.523.278v.079a125.94 125.94 0 0 0-3.365.396c.554 2.297 1.148 4.475 2.019 6.574.515-.079.95-.198 1.386-.277 0 .039 0 .04.039.079-.396.198-.792.436-1.306.673.594 1.347 1.148 2.693 1.781 4.119 2.85-.871 5.582-1.663 8.313-2.495Zm48.095-26.535c-.435-.831-.752-1.425-1.029-2.059-1.544-3.287-2.533-6.733-3.365-10.257-1.86-7.961-2.691-16.04-3.166-24.198-.357-6.495-.515-12.951-.357-19.446.159-6.178.436-12.317 1.069-18.455.515-5.109 1.267-10.179 2.454-15.169.95-4.079 2.138-8.119 4.157-11.841l.118-.357c-1.187-.633-7.362-2.416-8.312-2.376-.99 2.06-1.9 4.238-2.494 6.495 1.742.911 3.365 1.822 4.75 3.09-1.702-.635-3.365-1.308-5.146-1.981-.91 3.05-1.663 6.02-2.177 9.109 1.267.356 2.414.634 3.562.95 0 .04-.039.08-.039.119a454.417 454.417 0 0 0-3.682-.475c-.277 1.584-.514 3.01-.752 4.515.792.356 1.465.673 2.138.99-.04.04-.04.079-.079.158-.713-.118-1.386-.277-2.177-.396-.198 1.703-.436 3.248-.594 4.832-.04.238.277.475.435.752-.593-.079-.554.357-.593.713-.198 2.06-.357 4.08-.515 6.139 0 .198.039.356.079.594h2.177c-.514.317-1.069.515-1.623.673-.791.238-.791.238-.831.99-.04.951-.119 1.901-.158 2.891-.04.911-.08 1.783-.08 2.694 0 .198.238.396.357.594-.475 0-.436.435-.475.831-.04 1.901-.079 3.842-.079 5.743 0 .119.079.237.118.396 1.267.277 2.494.594 3.761.871V140c-1.267-.119-2.534-.238-3.84-.356v3.722h3.523v.198c-1.187.159-2.335.278-3.483.436v6.733c0 .435.237.594.633.752 1.346.475 2.652.951 3.998 1.465-1.544 0-2.969-.514-4.552-.554.158 4.277.396 8.396.831 12.515.871 0 1.623.039 2.375 0 1.702-.159 1.702-.159 2.217.079-1.465.238-2.929.515-4.513.792.317 3.565.752 7.01 1.425 10.495 1.465-.198 2.811-.356 4.157-.554 0 .039 0 .079.039.119-1.346.356-2.691.712-4.077 1.108.436 2.218.792 4.397 1.425 6.456 1.109.079 2.177.158 3.207.238v.118c-.99.119-1.98.238-3.048.357.593 2.297 1.147 4.475 2.018 6.574.475-.079.832-.158 1.227-.198 0 .04.04.04.04.079-.356.198-.712.396-1.148.674.594 1.386 1.188 2.693 1.781 4.079 2.811-.951 5.503-1.743 8.313-2.575Zm-41.405-75.366c-1.9 2.218-2.296 2.891-3.246 5.743-.119.356-.238.752-.357 1.148-1.147 3.763-1.82 7.604-2.216 11.485-.475 4.753-1.029 9.466-1.307 14.218-.277 5.228-.316 10.456-.277 15.683.04 4.832.277 9.624.436 14.456.158-.119.158-.198.158-.317-.039-6.535.158-13.03.436-19.564.237-5.862.475-11.723 1.029-17.545.396-4.475.95-8.95 1.821-13.386.514-2.614 1.108-5.267 2.296-7.683.435-.872 1.029-1.703 1.623-2.456.435-.554 1.108-.831 1.86-.792.99 0 1.583.634 2.138 1.307.831 1.03 1.306 2.218 1.781 3.446.95 2.574 1.504 5.227 1.979 7.881.079.356.158.752.277 1.188.95-.317 1.782-.594 2.692-.871-.396-.832-.792-1.545-1.108-2.258-1.544-3.406-2.534-6.97-3.365-10.574-1.94-8.594-2.771-17.307-3.127-26.099-.198-4.554-.198-9.148-.238-13.703A206.522 206.522 0 0 1 157.784 56c.515-4.91 1.267-9.782 2.415-14.574.95-4 2.098-7.921 4.077-11.565.04-.118.04-.237.079-.435-2.731-.872-5.423-1.743-8.194-2.377-1.108 2.179-1.939 4.357-2.612 6.614 1.662.911 3.285 1.783 4.631 3.05-1.623-.634-3.286-1.228-4.988-1.901-.95 3.05-1.623 6.02-2.177 9.109 1.306.356 2.494.673 3.682.99 0 .04-.04.08-.04.119-1.227-.159-2.454-.317-3.8-.476-.277 1.545-.515 3.01-.752 4.515.435.198.791.357 1.148.515.356.159.712.357 1.029.515 0 .04-.04.08-.04.119-.712-.119-1.464-.238-2.256-.396-.198 1.623-.356 3.128-.594 4.633-.079.515.317.634.792 1.03-.871-.277-.95.08-.99.555-.158 2.059-.356 4.079-.514 6.138 0 .198.039.357.079.634h2.137v.158c-.752.238-1.504.476-2.335.753a320.014 320.014 0 0 0-.317 6.336c0 .198.238.396.357.634-.475.04-.396.436-.396.792l-.119 5.07c0 .356.04.712.079 1.069 1.386.317 2.652.633 3.919.91v.12c-1.306-.12-2.573-.278-3.958-.397-.08 1.307-.119 2.456.039 3.723 1.227.08 2.336.119 3.484.159v.04c-1.148.118-2.257.276-3.523.395.039 2.456.118 4.832.158 7.208 1.504.555 2.89 1.07 4.315 1.624 0 .08-.04.119-.04.198-1.385-.238-2.731-.475-4.196-.713.158 4.317.396 8.475.831 12.634 1.623.198 3.127-.317 4.632.039-1.505.278-3.009.515-4.592.792.396 3.565.752 7.01 1.465 10.456 1.425-.198 2.731-.357 4.037-.515 0 .04 0 .079.04.119-1.307.356-2.573.673-3.84 1.03 0 1.029 0 1.029.792 1.346.435.119.989.356 1.623.594ZM51.816 210.97c0 .198-.04.317 0 .396l3.207 7.248c.158.356.475.515.87.554 3.959.476 7.878.911 11.876 1.03 1.346.04 2.731.158 4.196.238-2.771.396-5.423.594-8.036.435-2.613-.158-5.225-.435-7.877-.673.04.158.079.277.158.396.99 1.426 1.98 2.812 2.93 4.238.237.356.593.475.989.554 2.375.317 4.71.673 7.086.99 4.948.713 9.935 1.07 14.923 1.307 5.74.277 11.44.238 17.18 0 .475-.039.95-.119 1.504-.158-.435-.872-.831-1.584-1.148-2.337-.198-.475-.515-.673-1.069-.713-1.069-.079-2.137-.237-3.206-.396 1.187-.198 2.375-.079 3.523-.396-.792-2.297-1.584-4.515-2.375-6.812-6.848.872-13.617.713-20.267-1.227 6.65.752 13.3 1.108 20.069.356-.515-1.901-.871-3.683-1.346-5.307-2.731.475-5.344 1.03-7.957 1.386-3.008.436-6.966.277-7.956-.198 5.304-.435 10.53-.832 15.794-1.742-.079-.555-.198-.99-.237-1.466-.04-.554-.357-.713-.871-.673a42.42 42.42 0 0 1-3.167.119c-6.294.079-12.588.039-18.842-.317-2.692-.158-5.423-.238-8.115-.515-4.354-.396-8.669-.95-13.023-1.426-.159 0-.277.04-.554.08.356 1.108.672 2.138.99 3.168.118.317.355.436.672.475 2.019.238 4.077.555 6.096.792 1.465.159 2.89.277 4.354.436v.198c-1.702.119-3.444.277-5.146.277-1.741 0-3.444-.198-5.225-.317Zm42.91-83.762c.594-2.376 1.108-4.594 1.702-6.97-1.425-.08-2.77-.159-4.077-.238 1.187-.317 2.415-.475 3.602-.554.594-.04.87-.278 1.03-.832.435-1.386.95-2.772 1.385-4.119.079-.198.079-.396.158-.713-1.504.04-2.93.119-4.315.159 1.386-.476 2.81-.793 4.236-1.03.435-.079.712-.238.91-.634a52.46 52.46 0 0 1 1.267-2.574c.079-.158.079-.356.119-.555-.95-.079-1.86-.118-2.732-.158-.277 0-.514-.04-.791-.04-8.63-.198-17.22-.079-25.77.951-3.72.436-7.402.95-11.123 1.465-.554.08-.99.278-1.306.753-1.03 1.584-2.098 3.129-3.167 4.673-.119.158-.158.396-.238.673 2.296.08 4.553.198 6.77.278-2.138.277-4.276.435-6.453.554-.673.04-1.108.238-1.385.911-.634 1.465-1.307 2.891-1.94 4.356-.08.198-.119.476-.198.832 4.79-1.148 9.46-1.228 14.171-.396-2.414.158-4.829.317-7.204.475-2.454.159-4.869.396-7.363.594-.475 1.386-.95 2.733-1.425 4.238 14.726-1.941 29.372-2.852 44.137-2.099ZM83.919 35.881c-.475.04-.99.119-1.464.159l-12.074.831c-.514.04-.752.277-.91.713-.317.95-.633 1.861-.95 2.812-.08.198-.08.436-.119.752 14.686-1.742 29.332-2.653 44.097-1.9.555-2.337 1.109-4.594 1.663-6.97-1.583-.08-2.969-.16-4.394-.238v-.12c1.544-.197 3.127-.395 4.711-.593.633-1.862 1.227-3.644 1.86-5.505h-4.235c1.068-.357 2.177-.713 3.325-.792 1.108-.12 1.702-.555 2.058-1.585.277-.752.673-1.465 1.108-2.336-.475-.04-.791-.119-1.108-.119-4.117-.08-8.273-.237-12.39-.158-5.7.079-11.36.396-17.021 1.109-3.365.435-6.73.91-10.134 1.386-.515.079-.87.277-1.148.673-1.108 1.663-2.217 3.287-3.325 4.95-.08.12-.08.278-.119.436 2.455.119 4.87.238 7.244.357-2.414.237-4.83.396-7.244.554-.514.04-.791.238-.99.673-.712 1.584-1.424 3.129-2.137 4.713-.08.159-.08.317-.119.634 4.592-1.149 9.184-1.307 13.815-.436Zm31.866 162.693c-1.861-.515-3.721-.831-5.661-.871a21.753 21.753 0 0 0-5.898.673c.356 2.218.713 4.396 1.069 6.654 5.779-.317 11.44-.674 17.14-1.228-.514-3.564-.989-7.05-1.465-10.574-4.631-.04-9.223-.396-13.577-2.02 4.433.594 8.907.99 13.419.871-.317-5.109-.633-10.099-.95-15.129-.594-.118-1.227-.237-1.86-.356.316-.158.633-.158.91-.158.317 0 .633-.04 1.029-.08-.039-2.099-.118-4.118-.158-6.099a99.762 99.762 0 0 0-2.336-.396c-.712-.118-1.425-.277-2.137-.435a39.95 39.95 0 0 1-2.058-.555c2.177-.039 4.354.277 6.531.238v-3.881c-5.779-.436-11.519-.555-17.338-.792a62.897 62.897 0 0 0-.04 7.208c2.93.316 5.78.633 8.59.95v.198c-1.425-.079-2.81-.158-4.235-.198-1.425-.04-2.811 0-4.236 0-.237 1.149-.119 5.228.198 5.98 4.394.198 8.313 1.624 11.638 4.555-3.563-2.258-7.402-3.485-11.717-3.406-.04 1.703.039 3.247.277 4.871 1.544-.277 3.008-.752 4.433-.634-1.148.357-2.375.674-3.523 1.109-.91.317-.91.357-.831 1.268.277 3.089.594 6.178.871 9.307.04.514.158 1.029.237 1.465 2.059-.079 4.038-.238 6.017-.159 1.98.119 3.919.674 5.661 1.624Zm22.801-94.495c-.317-5.109-.634-10.099-.95-15.089-.673-.119-1.307-.237-2.059-.356.792-.08 1.425-.159 2.138-.238-.079-2.139 0-4.119-.198-6.139-2.177-.356-4.236-.633-6.215-1.465 2.058.119 4.117.277 6.254.396.08-1.386.119-2.614 0-3.96-5.818-.357-11.558-.634-17.377-.713-.079 2.495-.119 4.832.039 7.129 3.128.356 6.136.712 9.105 1.069-3.048-.04-6.057-.159-9.184-.08.04 2.06.119 3.961.159 5.902.435.04.712.118.989.118 3.84.198 7.284 1.545 10.292 3.921.198.159.356.317.515.475-3.602-2.257-7.442-3.406-11.757-3.366.119 1.703.198 3.287.277 4.832 1.782-.238 3.405-.475 5.067-.713-1.346.475-2.731.832-4.077 1.267-.911.278-.95.357-.831 1.268.316 3.366.633 6.732.989 10.059.079.634.317.792.99.752.673-.079 1.306-.158 1.979-.198 2.771-.277 5.463.159 8.075 1.189.198.079.357.198.515.277-2.138-.436-4.275-.871-6.452-.555 4.275.99 8.51 1.981 12.904 2.971-.317-2.575-.673-5.109-.989-7.684-4.553.04-8.986-.356-13.261-1.9 4.314.633 8.629 1.029 13.063.831ZM20.109 122.851c-.04-.039-.08-.079-.158-.118-.99.396-1.94.871-2.93 1.227-1.82.674-3.008 1.941-3.8 3.684-1.82 3.96-3.246 8.118-4.314 12.316-2.138 8.159-3.167 16.515-3.365 24.951-.159 5.822.079 11.643.752 17.465.673 5.941 1.82 11.802 3.563 17.545.99 3.287 2.177 6.534 3.68 9.624.595 1.267 1.545 2.257 2.811 2.811 1.03.476 2.059.872 3.088 1.307.198.08.396.08.752.159-.237-.475-.396-.792-.594-1.109-.554-1.03-1.148-1.98-1.623-3.05-.475-1.029-.83-2.138-1.187-3.247-.119-.396-.356-.594-.752-.673-.554-.119-1.069-.317-1.781-.595h2.018c-.079-.316-.118-.514-.198-.752-.554-1.901-1.108-3.802-1.623-5.743-.158-.633-.475-.91-1.068-1.108-1.188-.357-2.336-.753-3.523-1.149 0-.04 0-.04.04-.079 1.345.277 2.69.554 4.155.831-.079-.475-.118-.792-.158-1.108-.237-1.189-.514-2.416-.712-3.604-.357-2.06-.634-4.119-.95-6.179-.04-.356-.04-.712-.475-.871.316-.317.316-.713.237-1.109a23.843 23.843 0 0 1-.198-1.663c-.237-3.644-.435-7.287-.673-10.891 0-.277-.079-.555-.118-.911-.634.079-1.148.119-1.663.198v-.04c.554-.158 1.108-.356 1.702-.515.08-2.693.08-5.307.198-7.881.119-2.653.317-5.267.515-7.96-.95-.396-1.9-.832-2.85-1.228 0-.039.04-.119.04-.158.91.198 1.86.396 2.889.633.198-1.663.396-3.247.594-4.871h-1.98a64.007 64.007 0 0 1 1.98-.475c.079-.159.118-.198.118-.277.594-3.169 1.227-6.377 1.821-9.545.04-.198 0-.436 0-.713a221.55 221.55 0 0 1-3.84.753c.99-.476 2.02-.872 3.088-1.109.871-.198 1.188-.674 1.425-1.505 1.148-4.396 2.692-8.634 4.948-12.634 0-.277.04-.436.119-.634Zm10.015-62.376c.673-3.525 1.306-6.97 1.98-10.574-1.505.317-2.851.594-4.197.871 1.108-.475 2.256-.91 3.404-1.227.752-.199 1.109-.595 1.346-1.347 1.188-4.475 2.732-8.792 4.988-12.832.08-.158.119-.316.237-.673-1.227.515-2.295.99-3.364 1.426-1.584.633-2.652 1.742-3.405 3.287-1.94 4.119-3.364 8.436-4.512 12.832-2.138 8.198-3.127 16.594-3.325 25.03-.238 8.395.396 16.752 1.94 24.989.87 4.594 2.018 9.109 3.602 13.505.118.357.277.713.435 1.07 1.465-.476 2.81-.951 4.156-1.426-.079-.317-.118-.555-.197-.753-.357-1.227-.713-2.495-.99-3.722-.159-.792-.554-1.188-1.306-1.347-1.03-.277-1.98-.634-2.97-.95 0-.04.04-.08.04-.119 1.227.237 2.415.475 3.721.752-.673-3.96-1.306-7.762-1.979-11.604h-.515c.515-.594.515-.594.475-1.267-.435-4.277-.791-8.554-.87-12.871 0-.198-.08-.357-.12-.594-.474.04-.87.04-1.306.079.198-.159.436-.277.674-.277.593-.04.791-.396.752-.95-.04-.278 0-.516 0-.793.118-3.723.237-7.406.395-11.129.04-1.069.159-2.178.238-3.208-1.03-.514-2.059-.752-3.127-1.465 1.187.238 2.137.436 3.087.634.357-.95.673-4.198.515-4.911h-1.267v-.08c.436-.158.91-.237 1.465-.356Zm-6.61 80.555c-.436 2.099-.872 4.079-1.07 6.178 2.89.04 5.7-.119 8.472.396-2.85.515-5.74.515-8.709.832-.356 2.336-.673 4.633-.831 7.01 1.464.198 2.85.396 4.196.594v.158c-1.425.079-2.85.198-4.315.277-.08 1.545-.396 2.971-.198 4.515 2.415-.158 4.79-.277 7.165-.436a26.646 26.646 0 0 1-6.294 1.347c-1.03.119-1.069.119-1.108 1.109l-.12 4.079c0 .317.04.634.04 1.03 4.71-.911 9.342-1.782 14.013-2.693.159-3.842.317-7.644.515-11.525-.91.079-1.702.158-2.454.198-.753.04-1.505.04-2.296 0-.752-.04-1.505-.119-2.257-.198 2.375-.515 4.79-.594 7.126-1.109.356-3.287.752-6.455 1.108-9.743-.475-.039-.87-.039-1.267-.079-.396-.039-.831.079-1.346-.237.99-.159 1.86-.278 2.692-.396.594-2.971 1.148-5.862 1.742-8.911-4.592.554-9.025 1.307-13.498 2.218-.396 1.346-.792 2.653-1.03 4.118 2.97-.475 5.78-.911 8.59-1.346 0 .079.04.119.04.198-2.85 1.03-5.82 1.782-8.907 2.416Zm22.8-68.515c-2.454.871-5.067 1.188-7.6 1.544-.277 1.268-.356 5.228-.08 6.02 4.632-.871 9.224-1.782 13.855-2.653.159-3.882.317-7.683.475-11.485-1.267.04-2.375.118-3.483.118-1.109 0-2.217.04-3.286-.316 2.296-.317 4.552-.594 6.888-.911.356-3.287.752-6.495 1.108-9.782-1.029-.08-1.979-.159-2.929-.198v-.08c.99-.158 2.019-.277 3.008-.435.594-2.97 1.148-5.822 1.742-8.832-.475.04-.87.04-1.227.08-1.188.158-2.375.316-3.523.514-2.692.475-5.423.91-8.115 1.426-.237.04-.633.237-.673.435-.396 1.188-.752 2.416-.91 3.802 3.048-.475 6.017-.95 8.946-1.425-.198.198-.396.277-.633.356-2.653.713-5.305 1.465-7.957 2.1-.514.118-.792.316-.87.87-.12.792-.317 1.545-.436 2.337-.198.99-.356 1.98-.554 3.129 3.087 0 6.017-.08 8.946.515-3.009.237-6.057.475-9.026.712-.475 1.703-.95 6.258-.752 7.05 1.227.158 2.494.356 3.76.515v.198c-1.305.079-2.651.198-4.037.277-.118 1.505-.316 2.891-.277 4.475 2.652-.04 5.146-.198 7.64-.356Zm73.746 83.881c.158-2.614.317-5.03.515-7.485.198-2.416.395-4.832.633-7.366-4.275-.317-8.432-.634-12.588-.951a25.994 25.994 0 0 1 6.294-.515c2.138.079 4.275.198 6.452.317.198-1.624.515-3.208.594-4.832-.99-.198-1.9-.356-2.81-.554v-.119h2.968c.198-1.188.396-2.337.634-3.525-5.74-.594-11.401-.95-17.18-1.148-.277 1.584-.673 3.089-.792 4.633.673.238 1.307.476 1.94.713.594.238 1.188.515 1.781.753-.039.039-.039.079-.079.119a773.8 773.8 0 0 1-3.76-.594c-.555 1.742-1.584 11.009-1.307 12.079 4.434.277 8.867.515 13.34.792-2.256.356-4.473.594-6.729.634-2.256.039-4.552-.08-6.927-.119-.119 1.584-.198 3.128-.317 4.752.515-.079.871-.158 1.227-.198a16.694 16.694 0 0 1 4.434-.237c2.81.237 5.541.95 8.194 1.821 1.148.278 2.256.634 3.483 1.03Zm3.286-114.218c-.278 1.584-.555 3.09-.832 4.594 1.267.515 2.415.95 3.602 1.426-.039.08-.039.119-.079.198-1.187-.198-2.375-.356-3.562-.554-.515 1.544-1.623 10.89-1.386 12.04 2.138.118 4.315.276 6.492.395 2.138.119 4.275.198 6.373.475-4.354.674-8.708.634-13.181.357 0 1.663-.357 3.168-.198 4.792.237-.04.356 0 .514-.04 2.573-.554 5.107-.435 7.68 0 2.691.476 5.264 1.347 7.837 2.179.357.118.753.198 1.188.316.396-4.95.752-9.782 1.108-14.574-.079-.079-.158-.119-.198-.158-4.116-.357-8.194-.713-12.429-1.07 4.315-.792 8.55-.594 12.865-.079.237-1.663.435-3.247.673-4.871-.594-.119-1.109-.238-1.584-.317-.475-.08-.95-.198-1.425-.277 0-.04 0-.08.04-.119h3.127c.198-1.148.396-2.297.594-3.525-5.819-.594-11.44-.91-17.219-1.188Zm-6.136 180.555c0 .039.04.118.04.158-2.138.396-4.236.832-6.492 1.267.396.872.791 1.664 1.148 2.456 5.739-.634 11.281-1.505 16.863-2.693a241.018 241.018 0 0 0-2.098-4.436c-3.919.317-7.798.317-11.678-.475 3.721-.317 7.442-.119 11.242-.594-.752-2.456-1.464-4.832-2.216-7.287-2.93.119-5.859.277-8.788.396v-.159c2.85-.435 5.66-.831 8.59-1.267-.357-1.624-.713-3.208-1.03-4.752-5.7.673-11.281 1.346-16.981 2.019 1.148 5.466 2.493 10.773 4.631 15.961 2.296-.159 4.513-.396 6.769-.594Zm7.521-99.763c.435-1.307.831-2.574 1.227-3.921-.95-.396-1.86-.752-2.731-1.108 0-.04.039-.119.039-.159.99.159 1.98.317 2.93.475.871-1.94 1.662-3.722 2.533-5.584-5.621-1.188-11.202-2.059-16.823-2.693-.475.951-.95 1.782-1.188 2.733 2.415.356 4.711.713 6.927 1.386a344.337 344.337 0 0 1-6.61-.436c-.554-.039-.871.08-1.029.634-.555 1.663-1.148 3.327-1.703 4.99-.039.159 0 .317 0 .436.396.119.713.237 1.148.356-1.464.119-1.464.119-1.781 1.386-.475 1.743-.91 3.525-1.346 5.307a9.197 9.197 0 0 0-.158 1.03c5.7.673 11.281 1.346 16.942 2.02.435-1.901.871-3.723 1.346-5.703-4.117-.673-8.115-1.307-12.113-1.98 0-.08 0-.159.04-.198 2.058.039 4.116.039 6.135.198 1.979.158 4.038.514 6.215.831Zm11.123-96.871c-2.612-.04-5.225-.436-7.877-.396-.792 2.02-1.504 3.96-2.058 6.02.356.119.633.237 1.108.396-.554.119-.911.158-1.306.237-.713 2.456-1.425 4.911-1.861 7.446 5.74.673 11.321 1.346 16.942 2.02.436-1.901.871-3.763 1.307-5.703a653.464 653.464 0 0 1-5.978-.95c-1.9-.317-3.839-.634-5.739-.951 0-.08.039-.159.039-.198 4.038-.277 7.996.277 11.994 1.07.436-1.387.832-2.654 1.267-4-1.069-.397-2.019-.793-3.008-1.15 0-.039.039-.079.039-.118 1.069.198 2.098.356 3.207.554.831-1.861 1.662-3.683 2.493-5.584-.316-.08-.554-.198-.791-.238-3.286-.594-6.571-1.188-9.857-1.742-1.821-.317-3.681-.475-5.502-.713-.238-.04-.633 0-.713.119-.475.792-.91 1.584-1.108 2.495 2.573.475 4.988.95 7.402 1.386ZM38.595 86.772c.158 2.297.317 4.475.475 6.693 1.306.12 2.494-.317 3.681.12a221.48 221.48 0 0 1-3.562.593c.118 2.178.396 4.198.752 6.337 4.552-.357 8.946-.673 13.459-.99a3966.26 3966.26 0 0 0-.594-6.575H48.61c-1.346 0-2.692-.158-3.998-.554.91-.198 1.82-.158 2.692-.198.91-.04 1.78-.04 2.691-.08.91-.039 1.821-.078 2.692-.158-.119-4.198-.237-8.237-.356-12.356-4.71.673-9.342 1.109-13.894 1.822v4.396c2.098-.515 4.116-1.11 6.175-1.07-1.86.634-3.88 1.307-6.017 2.02Zm-11.123 85.782c-.238.08-.515.159-.752.238a261.307 261.307 0 0 1-5.186 1.703c-.435.119-.673.317-.633.832.158 1.742.237 3.485.396 5.227.04.278.118.555.197.832h4.315c-1.544.357-2.969.317-4.354.832.237 2.059.514 4.079.752 6.218 4.552-.357 8.986-.674 13.498-.99-.198-2.218-.356-4.357-.554-6.575-2.93.079-5.78.119-8.51-.633a73.267 73.267 0 0 1 4.156-.238c1.425-.04 2.81-.04 4.275-.079-.119-4.198-.238-8.238-.317-12.436-4.71.634-9.342 1.109-13.894 1.782v4.396c2.256-.515 4.394-1.029 6.61-1.109Zm2.652 34.258c0 .079 0 .158-.04.237h-3.246c.396.951.792 1.703 1.07 2.496.316.792.712 1.386 1.701 1.346.277 0 .594.079.871.158 1.425.278 2.85.515 4.236.793-1.86.237-3.721-.238-5.82-.04.99 1.426 1.822 2.693 2.692 3.921.159.237.555.396.832.435 1.306.238 2.612.436 3.919.634 1.385.238 2.77.515 4.196.792 0 .079 0 .119-.04.198-2.415-.119-4.79-.198-7.442-.317 1.03.951 1.821 1.941 3.088 2.297 2.81.792 5.581 1.585 8.392 2.377.593.158 1.187.277 1.94.435-.199-.356-.317-.554-.436-.752-1.03-1.782-2.098-3.525-3.088-5.307-.316-.555-.673-.792-1.266-.951-1.148-.277-2.296-.633-3.444-.99-.198-.039-.356-.158-.515-.237 0-.04.04-.08.04-.119 1.385.158 2.731.317 4.116.515 0-.198.04-.278 0-.357-.672-1.901-1.385-3.802-2.058-5.663-.158-.396-.396-.555-.792-.673-.514-.119-.99-.278-1.504-.436 0-.04 0-.079.04-.119.593.04 1.187.119 1.9.159-.317-1.149-.594-2.179-.871-3.208-.119-.436-.396-.515-.792-.634-4.037-.871-8.075-1.782-12.073-2.654-.277-.079-.554-.079-.87-.118 0 .198-.04.277 0 .396.474 1.505.989 3.01 1.464 4.515.118.435.435.514.831.554 1.069.079 2.019.198 2.969.317ZM53.637 34.455c0-.04-.04-.079-.04-.118.198-.12.357-.278.594-.357a400.056 400.056 0 0 1 6.175-2.455c.594-.238.99-.515 1.307-1.07.712-1.267 1.504-2.495 2.296-3.722.118-.159.158-.357.277-.555-.159-.04-.238-.04-.277-.04-3.405.951-6.809 1.862-10.213 2.852-.317.08-.633.238-.871.436-.712.594-1.386 1.228-2.058 1.861-.159.119-.238.357-.396.634 1.425-.436 2.652-.832 3.998-.872-1.306.832-2.652 1.466-4.157 1.822-.752.159-1.266.555-1.702 1.228-1.385 2.02-2.533 4.198-3.483 6.455-.08.238-.119.476-.198.792 1.227-.237 2.296-.475 3.404-.712.04.079.04.158.08.237-.832.317-1.663.792-2.534.99-1.188.278-1.781.95-2.058 2.1-.159.673-.396 1.346-.634 2.059.238 0 .357.04.436.04 4.196-.99 8.392-2.06 12.667-2.773.435-.08.593-.317.712-.713.396-1.307.792-2.574 1.188-3.88.04-.12.04-.239.04-.397-.674.04-1.267.08-1.861.119 0-.08 0-.119-.04-.198.594-.238 1.148-.475 1.742-.634.356-.119.633-.317.792-.673.514-1.267 1.029-2.495 1.544-3.763.04-.118.04-.237.04-.514a237.066 237.066 0 0 0-6.77 1.821Zm-20.821 85.228c1.266-.079 2.414-.713 3.72-.594-1.306.871-2.73 1.426-4.235 1.822a2.01 2.01 0 0 0-1.267.832c-1.504 2.138-2.731 4.475-3.76 6.851-.08.198-.08.396-.119.673.673-.158 1.267-.277 1.82-.396l1.782-.356c0 .079.04.119.04.198-.832.317-1.623.792-2.454.95-1.465.317-2.178 1.188-2.455 2.575-.118.554-.316 1.109-.514 1.742 4.631-1.03 9.104-2.02 13.617-3.01.514-1.109 1.385-4.158 1.346-4.752h-1.663c.436-.317.871-.594 1.386-.713.672-.158.95-.555 1.187-1.188.356-1.03.831-2.02 1.227-3.01.08-.238.159-.475.277-.871-2.454.713-4.75 1.346-7.085 1.98.198-.198.396-.357.633-.475a310.185 310.185 0 0 1 6.452-2.575c.515-.198.832-.435 1.07-.911a67.067 67.067 0 0 1 1.9-3.168c.237-.396.514-.752.87-1.307-.475.079-.752.079-.99.159-3.127.871-6.254 1.742-9.341 2.613-1.544.555-2.455 1.822-3.444 2.931Zm-3.92 75.446c2.613.079 5.186.158 7.878.237a319.868 319.868 0 0 1-.95-7.01c-.119-.079-.158-.118-.198-.079-.119 0-.277.04-.396.04-3.919 1.03-7.917 1.03-11.915.475-.316-.04-.633 0-.91 0-.04.119-.04.158-.04.158.396 3.367 1.109 6.654 1.9 9.941.12.436.396.594.792.634l10.332 1.782c.83.158 1.662.238 2.652.356-.396-1.94-.752-3.722-1.109-5.584-2.81.119-5.462.079-8.035-.95Zm25.612-87.881a96.516 96.516 0 0 0-.515-3.565c-.198-1.148-.158-2.336-.554-3.525-4.473 1.268-8.867 1.07-13.419.515.515 3.723 1.188 7.248 2.138 10.693.99.159 1.86.357 2.73.476.476.079.99.079 1.465-.04 2.217-.475 4.434-.99 6.65-1.465a24.357 24.357 0 0 1 1.98-.396c-.119-.674-.237-1.228-.356-1.822-2.732.198-5.305.079-7.798-.871h7.679Zm47.897 54.772c5.938.594 11.678 1.148 17.457 1.703.079-2.139.238-4.119.119-6.099-1.9-.594-3.681-1.149-5.502-1.664-2.811-.831-5.661-1.584-8.63-1.742-1.029-.079-2.058-.119-3.167.198-.079 2.495-.158 5.03-.277 7.604Zm35.231-92.396c-.713-.198-1.505-.436-2.296-.673-3.444-1.03-6.888-2.179-10.451-2.575-1.425-.158-2.81-.158-4.196-.079-.316.871-.554 6.772-.356 7.762 5.74.555 11.48 1.149 17.338 1.703-.039-2.02-.039-4.04-.039-6.138Zm25.532 73.267c.356 7.564.712 15.01 1.068 22.574 1.544.04 3.048.119 4.632.04-.317-5.109-.634-10.059-.911-15.089-.752-.119-1.504-.238-2.375-.396.871-.04 1.584-.079 2.336-.119v-6.178c-1.663-.277-3.207-.555-4.75-.832Zm-11.994 50.02c0 .396-.04.792 0 1.188.316 4.277.712 8.515 1.543 12.713.436 2.138 1.03 4.237 1.584 6.337.118.514.396.99.673 1.425.316.475.712.475.989-.039.396-.674.752-1.347.95-2.06.594-2.218 1.188-4.475 1.623-6.732 1.465-7.446 2.059-15.01 2.336-22.614.198-5.268.277-10.535.277-15.802 0-3.842-.119-7.683-.317-11.525-.198-3.96-.594-7.921-.91-11.881-.159-1.703-.396-3.406-.634-5.109-.079 1.188.08 2.376.119 3.564.277 5.03.633 10.06.752 15.089.198 7.604.159 15.248-.158 22.852-.158 3.247-.317 6.495-.633 9.703-.357 4-.832 8.039-1.346 12.039-.436 3.248-1.03 6.456-1.94 9.624-.158.515-.356 1.03-.554 1.545-.079 0-.159 0-.238-.04-2.414-6.535-2.889-13.465-4.116-20.277Zm52.528-6.218c-.118 0-.198-.04-.316-.04-2.455-6.455-2.89-13.306-3.998-20.198-.08.238-.119.317-.119.436 0 .396 0 .792.039 1.188.357 4.238.753 8.436 1.584 12.594.396 2.02.989 4.04 1.544 6.06.118.475.395.911.673 1.346.277.396.593.396.91.079.198-.237.356-.475.475-.752.356-.99.792-1.98 1.029-3.01 1.861-7.208 2.732-14.574 3.167-21.98.317-5.347.554-10.733.594-16.079.039-5.228-.04-10.456-.238-15.684-.158-4.316-.594-8.594-.95-12.871-.158-1.742-.396-3.445-.633-5.188-.159.317-.159.594-.159.871.278 4.317.673 8.634.871 12.99.277 7.367.396 14.773.119 22.139-.158 3.921-.277 7.802-.515 11.723-.277 3.841-.712 7.723-1.108 11.564-.396 3.683-.95 7.367-1.821 10.97a144.544 144.544 0 0 0-1.148 3.842Zm-28.976 6.297a47.393 47.393 0 0 1-11.598-.356c-.119 1.346-.356 2.534-.277 3.762.752-.04 1.425-.079 2.058-.119v.159c-.712.198-1.464.356-2.216.554-.08.713-.198 1.386-.238 2.059-.039.238 0 .436 0 .793a156.96 156.96 0 0 0 14.33-2.416c-.673-1.505-1.346-2.891-2.059-4.436Zm-11.044-8a455.464 455.464 0 0 1-.514 7.366c3.8 0 7.442-.039 11.123-.435-.752-2.495-1.504-4.872-2.217-7.287-2.81.118-5.581.237-8.392.356Zm5.344-18.297h-4.948c.198 1.901-.277 3.762.238 5.584-.555 1.822-.119 3.644-.357 5.584 2.296-.198 4.394-.277 6.532-.594a958.71 958.71 0 0 1-1.465-10.574Zm-5.7-42.139c.079-.039.158-.039.238-.079-.198-.673-.396-1.386-.594-2.059-2.454-9.109-3.523-18.456-3.959-27.842-.237-5.782-.277-11.604-.277-17.386-.039-8.673.436-17.346 1.623-25.94.713-5.07 1.663-10.06 3.127-14.931.08-.277.119-.555.198-.832a10.396 10.396 0 0 0-.989 2.376c-2.296 7.406-3.325 15.05-3.959 22.733-.316 3.723-.475 7.485-.673 11.208-.316 6.812-.237 13.624.119 20.436.277 5.9.792 11.802 1.702 17.703.673 4.356 1.544 8.673 2.85 12.871.159.594.396 1.148.594 1.742Zm30.876-28.356c-.04 0-.079-.04-.119-.04-.119.317-.316.674-.396.99-.752 2.614-1.623 5.189-2.216 7.802-1.782 7.763-2.534 15.684-2.969 23.604-.317 6.099-.475 12.238-.317 18.377.238 8.871.831 17.703 2.256 26.495.713 4.396 1.703 8.713 3.207 12.871.119.356.277.673.435 1.03-.039-.674-.237-1.307-.435-1.941-.198-.634-.396-1.267-.554-1.901-2.257-8.475-3.286-17.148-3.761-25.901a263.757 263.757 0 0 1-.396-12.515c-.119-10.02.119-20.039 1.346-30.02.554-4.475 1.267-8.91 2.336-13.267.514-1.861 1.068-3.723 1.583-5.584Zm-48.412 117.03c.079-.04.158-.04.198-.079-.04-.119-.04-.238-.079-.357-.554-2.059-1.148-4.158-1.663-6.218-1.702-7.485-2.533-15.089-2.969-22.732-.395-7.248-.475-14.495-.356-21.743.158-7.287.515-14.574 1.465-21.782.712-5.505 1.741-10.97 3.364-16.317.08-.198.119-.436.159-.634-.238.198-.356.396-.396.594-.752 2.575-1.583 5.109-2.177 7.723-1.584 6.891-2.296 13.901-2.771 20.951-.396 5.782-.515 11.564-.475 17.386.079 8.475.514 16.95 1.623 25.346.594 4.555 1.385 9.109 2.652 13.545.475 1.426.95 2.891 1.425 4.317ZM56.487 109.703c.634-.356.356-.792.317-1.109a133.483 133.483 0 0 1-1.781-15.881c-.515-9.267-.475-18.535.197-27.802.396-5.07 1.03-10.06 2.02-15.05 1.266-6.336 3.047-12.554 5.977-18.336.079-.159.079-.317.118-.476-.554.713-.95 1.466-1.346 2.218-2.929 6.02-4.591 12.476-5.779 19.01-.91 4.95-1.544 9.94-1.82 14.97-.238 4.476-.476 8.951-.476 13.387 0 5.148.198 10.336.673 15.485.396 4.198.91 8.356 1.663 12.515.04.316.158.673.237 1.069Zm-21.257 5.228c0-.238.04-.357 0-.515a22.541 22.541 0 0 0-.435-1.545c-2.296-8.396-3.286-16.95-3.76-25.584-.278-5.346-.199-10.733.118-16.08.396-5.9 1.03-11.801 2.217-17.623 1.069-5.307 2.533-10.495 4.83-15.406.118-.277.237-.554.355-.871-.04-.04-.118-.04-.158-.08-.198.357-.356.714-.554 1.03-2.177 4.159-3.563 8.595-4.632 13.189-2.177 9.425-3.166 19.01-3.206 28.673.08 8.277.871 16.515 2.415 24.594.593 3.129 1.504 6.257 2.256 9.346.08.317.08.674.554.872Zm128.69 64.792c-.079 1.742-.159 3.366-.238 5.029 2.771-.396 5.423-.752 8.194-1.148-.356-1.663-.712-3.208-1.069-4.871-2.335.356-4.591.673-6.887.99Zm3.998-42.416v-4.871c-1.979.633-3.919 1.267-5.898 1.901.118.792.237 1.505.356 2.257 1.821.277 3.602.475 5.542.713Zm-.04 1.346c-1.781.04-3.483-.277-5.265-.198.119 1.228.198 2.297.317 3.406.04.396.317.555.673.555l3.563.237c.198 0 .435-.039.712-.079v-3.921ZM64.127 29.783c-.04-.04-.08-.04-.119-.08-.118.238-.277.436-.396.673.04.04.08.04.12.08.118-.238.276-.476.395-.674Zm99.832 96.356c.04 0 .08-.04.119-.04-.079-.198-.158-.356-.237-.554-.04 0-.08.039-.119.039.039.159.158.357.237.555Zm-.039-91.644c.039 0 .079.04.119.04.039-.159.118-.357.158-.515-.04 0-.079-.04-.119-.04a3.619 3.619 0 0 1-.158.515Zm-17.497 180.198c.04 0 .08-.04.159-.04l-.238-.475c-.039 0-.079.04-.119.04.08.158.159.317.198.475Z"/><path fill="#fff" d="M93.182 200.396c-3.84 1.109-7.6 1.861-11.519 1.148 3.84 1.387 7.68.793 11.678-.079.197 1.228.395 2.456.633 3.723-.356.04-.633.079-.91.079-5.384-.039-10.807.04-16.19-.119-3.92-.118-7.878-.435-11.797-.673a188.032 188.032 0 0 1-6.65-.475c-2.85-.238-5.74-.555-8.59-.792-.515-.04-.673-.357-.752-.792-.356-1.545-.713-3.089-1.03-4.634a118.297 118.297 0 0 1-2.216-17.901c-.198-4.119-.237-8.198-.356-12.317v-1.188c15.24-1.505 30.44-1.98 45.72-2.138v7.643c-3.919.475-7.838 1.109-11.638 2.376 3.88-.356 7.719-.95 11.717-1.148.04.594.08 1.069.08 1.584.078 2.139.118 4.317.197 6.455 0 .436 0 .832-.475 1.07-2.137 1.148-4.275 2.297-6.65 2.812-.435.118-.91.198-1.425.316 1.148.198 2.612.04 4.354-.554 1.386-.475 2.771-1.069 4.236-1.624.04.396.079.753.118 1.109.12 1.584.159 3.168.357 4.753.118.95-.277 1.346-1.03 1.742-2.216 1.188-4.512 2.178-6.966 2.812 2.89.119 5.462-.95 8.114-2.178.317 3.049.634 5.98.99 8.99Zm-8.194-19.762c-.475.158-.95.277-1.385.435-2.494.832-4.988.792-7.482-.079-1.069-.396-2.177-.832-3.246-1.228a15.702 15.702 0 0 0-5.225-.99c-2.217-.039-4.354.396-6.452.951-3.444.911-6.77 2.178-10.292 2.812 1.227-.04 2.454-.08 3.642-.317 2.77-.555 5.541-1.149 8.312-1.782 3.286-.713 6.492-.634 9.659.435.99.357 2.019.634 3.008.951 3.326 1.069 6.492.594 9.461-1.188Zm2.177-14.416c-5.027.871-10.054 1.861-15.082 2.653-5.066.792-10.133 1.347-14.764 1.941 9.896.317 20.069-.832 29.846-4.594Zm-12.667 34.495c-.594-.119-1.148-.198-1.742-.357-2.612-.633-5.185-1.346-7.758-1.98-3.8-.95-7.56-1.109-11.36-.079-.238.079-.436.158-.674.238.436.079.831.039 1.227.039 1.702 0 3.365-.079 5.067 0 2.533.119 5.027.792 7.482 1.347 2.533.594 5.066 1.109 7.758.792Zm-10.371-12.317c5.265 1.109 10.49 2.178 15.675 3.247-4.908-2.495-10.173-3.326-15.675-3.247Zm-16.23-12.277c1.98-.832 4.038-.911 6.136-.911.87 0 1.702.039 2.573-.04 1.03-.079 2.098-.119 3.246-.673-.673-.04-1.108-.079-1.583-.119-2.02-.198-3.998-.356-6.017-.158-1.623.237-3.167.673-4.355 1.901Zm10.688 13.109c-3.127.871-6.373 1.227-9.58 1.623 3.445 1.149 6.611.357 9.58-1.623ZM93.38 134.495c-.475 4.158-.91 8.119-1.385 12.198-1.307-.158-2.573-.317-3.84-.436 0 .04 0 .04-.04.08.634.158 1.267.356 1.9.514.634.159 1.267.317 1.94.515-.158 3.089-.356 6.06-.515 9.188-5.146-.158-10.133-.91-15.24-1.227.95.515 4.315 1.227 7.521 1.584 2.534.277 5.067.475 7.6.713v3.921h-1.345c-4.87 0-9.738-.04-14.607.039-4.196.079-8.392.277-12.588.555-3.88.277-7.758.712-11.638 1.108-1.741.159-3.483.397-5.225.555-.079 0-.198-.04-.317-.079a3.5 3.5 0 0 1-.079-.674c.08-1.703.119-3.445.198-5.148.04-.951.08-.99 1.069-1.03 4.71-.277 9.381-.317 14.092-.198 1.544.04 3.088.119 4.671.119-6.492-1.861-13.023-1.545-19.674-.04 0-.514-.039-.95 0-1.386.357-4.554.832-9.069 1.584-13.584.08-.554.317-.95.91-1.148.752-.278 1.505-.713 2.178-1.228-.871.198-1.703.396-2.732.634.317-1.505.594-2.852.91-4.198.08-.396.476-.436.792-.476.95-.119 1.9-.277 2.81-.554-1.028-.079-2.097-.159-3.206-.238 0-.871.278-1.624.555-2.416.079-.158.395-.356.633-.356 2.138-.238 4.275-.436 6.413-.634 2.89-.237 5.819-.475 8.708-.713 1.188-.079 2.375-.198 3.563-.237 5.344-.198 10.727-.396 16.071-.515 2.692-.079 5.344 0 8.036 0 .356 0 .713.04 1.188.079-.238 1.307-.436 2.535-.634 3.763-1.742.237-3.365.475-4.948.712v.198c1.465.04 3.008.04 4.671.04Zm-5.146 19.604c-10.965-2.97-22.167-3.881-33.488-3.446 11.162.832 22.325 2.139 33.488 3.446Zm-29.292-14.733c1.147.119 2.137.198 3.047.317 3.92.475 7.799.951 11.718 1.386 4.037.436 8.035.357 12.033-.475a17.338 17.338 0 0 0 1.94-.475c.594-.159 1.187-.357 1.781-.515a.793.793 0 0 0-.514-.04c-3.009.594-6.017 1.03-9.065.872-4.157-.238-8.313-.634-12.43-.99-2.731-.278-5.502-.436-8.51-.08Zm22.523 6.139c-3.008.04-6.175.198-9.342.119-3.206-.04-6.413-.238-9.58-.476-3.127-.277-6.214-.712-9.302-1.069 8.036 2.891 19.99 3.248 28.224 1.426Zm-15.715-9.941c5.067-.515 10.134-.356 15.16-.356-5.105-1.426-10.172-1.069-15.16.356ZM63.533 68.871c.08-1.346.119-2.534.277-3.722.436-3.604.91-7.208 1.346-10.773 0-.079.04-.198.04-.277.04-.713.356-1.188 1.108-1.426.752-.237 1.425-.673 2.098-1.148-.87.198-1.781.396-2.85.633.317-1.584.633-3.049.91-4.514 1.148-.198 2.257-.357 3.326-.555v-.198c-.99-.04-1.98-.079-3.128-.119.238-.99.475-1.821.673-2.653 4.909-1.307 38.952-3.01 44.414-2.218.119.634-.158 2.574-.514 3.762-.713.08-1.465.12-2.217.238-.752.119-1.465.238-2.217.555 1.386.04 2.771.079 4.275.158-.435 4.04-.91 8.04-1.346 12.158-1.187-.118-2.335-.277-3.483-.396 0 .04 0 .08-.04.12 1.148.276 2.296.593 3.484.91-.158 3.05-.356 6.02-.515 9.149-5.225-.12-10.331-.911-15.438-1.149a62.155 62.155 0 0 0 15.32 2.139v4.079h-3.246c-3.365 0-6.73-.04-10.134 0-2.771.04-5.542.119-8.352.238-3.88.198-7.799.475-11.678.792-3.483.277-6.967.673-10.45 1.03-.594.079-1.227.118-1.98.237.08-2.337.159-4.555.278-6.812 6.73-.673 13.34-.436 19.99-.198-6.571-1.901-13.182-1.584-19.95-.04Zm42.87-2.732c-11.242-3.01-22.642-3.881-33.726-3.565a6146.141 6146.141 0 0 0 33.726 3.565Zm-28.817-14.97v.316c1.069.12 2.137.198 3.206.317 3.998.475 7.996.95 11.994 1.386 3.721.396 7.403.119 11.044-.673.634-.159 1.307-.317 1.94-.475.594-.159 1.148-.357 1.742-.515-3.484.633-7.007 1.109-10.57.871-4.354-.277-8.708-.752-13.023-1.07-2.098-.118-4.235-.078-6.333-.158ZM70.46 56c5.977 2.772 21.613 3.525 29.292 1.426-4.869.396-9.698.396-14.567.158-4.869-.277-9.698-.871-14.725-1.584Zm28.62-8.752c-5.226-1.386-10.253-1.11-15.36.198 5.107-.04 10.174-.12 15.36-.198ZM101.693 105.663c2.929.04 5.542-.911 8.233-2.217.159 1.386.277 2.653.436 4-.594 0-1.109.039-1.623 0-2.059-.159-4.077-.436-6.136-.515-4.116-.159-8.194-.396-12.31-.357-4.79.04-9.58.277-14.37.555-3.444.198-6.848.673-10.252 1.029-1.267-2.059-3.088-24.594-2.415-29.505 2.217-.95 41.089-2.812 45.602-2.178.198.594.198 6.733 0 7.525-3.84.436-7.64 1.07-11.361 2.376 1.9-.198 3.8-.435 5.7-.633 1.9-.198 3.8-.396 5.74-.594.039.395.079.633.079.91.079 2.337.119 4.713.237 7.05.04.673-.197 1.07-.791 1.386-2.217 1.148-4.394 2.297-6.888 2.772-.356.08-.712.12-1.227.198 3.285.317 6.017-.99 8.906-2.257.08.396.159.752.159 1.07.119 1.781.198 3.563.356 5.346.04.554-.237.752-.633.99-2.257 1.228-4.553 2.297-7.046 2.891-.119.04-.238.119-.396.158Zm1.662-13.227-1.781.594c-2.692.95-5.383.91-8.036-.12-1.029-.395-2.098-.791-3.166-1.187-2.732-1.03-5.542-1.188-8.392-.634a79.979 79.979 0 0 0-5.107 1.267c-2.573.713-5.146 1.426-7.719 2.179 1.227-.04 2.455-.12 3.642-.357 2.415-.475 4.83-1.03 7.244-1.584 3.602-.792 7.125-.752 10.648.475.95.357 1.94.634 2.93.911 1.345.357 2.73.634 4.116.436 2.02-.238 3.88-.95 5.621-1.98Zm1.227-14.139c-4.868.871-9.737 1.743-14.646 2.574-4.908.832-9.856 1.386-14.804 1.862 10.094.396 19.99-.753 29.45-4.436Zm-6.887 25.426c-4.79-2.416-9.896-3.327-15.28-3.169 5.106 1.03 10.213 2.099 15.28 3.169ZM77.23 86.773v-.199c-.08-.04-.159-.119-.278-.119-2.177-.079-4.354-.237-6.531-.237-1.386 0-2.731.396-3.959 1.148-.316.198-.633.475-.95.713 1.782-.673 3.563-.831 5.384-.871 1.306-.04 2.652-.04 3.959-.119.791 0 1.583-.198 2.374-.317Zm-.753 14.415c-1.583.357-3.206.792-4.829 1.03-1.623.277-3.246.396-4.869.594 0 .079.04.158.04.237 3.483.951 6.69.159 9.658-1.861ZM146.661 219.287c-2.771.792-5.463 1.624-8.313 2.416-.633-1.426-1.187-2.733-1.781-4.119.514-.277.91-.475 1.306-.673 0-.04 0-.04-.039-.079-.436.079-.871.158-1.386.277-.831-2.099-1.425-4.277-2.019-6.574 1.188-.119 2.257-.278 3.365-.396v-.08c-1.148-.079-2.296-.158-3.523-.277-.554-2.099-1.029-4.237-1.346-6.455 1.465-.396 2.85-.753 4.196-1.109 0-.04 0-.079-.04-.119-1.385.198-2.81.396-4.314.594a114.852 114.852 0 0 1-1.425-10.495c1.583-.277 3.048-.554 4.671-.832-.594-.356-1.109-.039-1.584-.079-.475-.039-.989 0-1.504.04l-1.544.119c-.396-1.149-1.108-11.129-.871-12.713 1.425.237 2.811.515 4.236.752-1.306-.832-2.811-1.228-4.394-1.822-.079-2.376-.119-4.752-.198-7.208 1.069-.118 1.979-.237 2.89-.356v-.158c-.911-.04-1.821-.119-2.811-.159v-3.683c1.148.119 2.257.198 3.365.317 0-.04.04-.079.04-.159-1.148-.277-2.257-.554-3.484-.831.079-2.297.119-4.475.198-6.693.317-.119.515-.238.792-.357-.238 0-.436-.039-.752-.079-.08-2.297.198-4.515.277-6.693.91-.317 1.741-.554 2.533-.832 0-.039 0-.079-.039-.119h-2.376c.08-2.495.357-4.91.634-7.366h.989c-.316-.158-.554-.277-.91-.475.079-1.663.356-3.327.633-5.149.832.159 1.584.278 2.336.436 0-.04.039-.04.039-.079-.356-.159-.673-.357-1.029-.515-.396-.198-.791-.356-1.266-.554.237-1.466.475-2.931.752-4.515 1.187.158 2.335.277 3.483.435 0-.039.04-.079.04-.158-1.069-.277-2.178-.594-3.325-.911a79.382 79.382 0 0 1 2.177-9.069c1.741.673 3.444 1.307 5.106 1.94-1.385-1.267-3.008-2.178-4.75-3.089a37.432 37.432 0 0 1 2.652-6.693c2.811.832 5.502 1.624 8.313 2.456-.356.673-.633 1.227-.911 1.782-1.623 3.445-2.691 7.128-3.523 10.812-1.148 5.069-1.9 10.217-2.414 15.366a192.67 192.67 0 0 0-.99 20.832c.04 5.109.04 10.217.277 15.287.396 9.029 1.346 18.02 3.523 26.812.911 3.643 2.019 7.208 3.84 10.495.079.198.119.317.198.554ZM194.756 192.753c-2.81.831-5.502 1.623-8.352 2.455-.594-1.426-1.188-2.733-1.781-4.079.435-.238.791-.476 1.147-.674 0-.039-.039-.039-.039-.079-.396.079-.752.119-1.227.198-.832-2.099-1.425-4.277-2.019-6.574 1.069-.119 2.058-.238 3.048-.356v-.119a588.843 588.843 0 0 0-3.206-.238c-.634-2.059-.99-4.237-1.425-6.455 1.385-.357 2.731-.753 4.077-1.109 0-.04 0-.079-.04-.119-1.346.198-2.652.356-4.156.554a114.804 114.804 0 0 1-1.425-10.495c1.544-.277 3.048-.514 4.512-.792-.514-.237-.514-.237-2.216-.079-.752.079-1.505 0-2.375 0-.475-4.119-.673-8.277-.832-12.515 1.623.079 3.048.555 4.553.555-1.346-.476-2.653-.99-3.998-1.466-.396-.118-.634-.316-.634-.752v-6.733c1.148-.119 2.296-.277 3.484-.435v-.198h-3.523v-3.723c1.306.119 2.573.237 3.839.356v-.119c-1.266-.277-2.494-.594-3.76-.871-.04-.158-.119-.277-.119-.396.04-1.901.04-3.842.079-5.742 0-.397 0-.832.475-.832-.119-.198-.356-.396-.356-.594 0-.911.039-1.782.079-2.693.04-.951.119-1.901.158-2.891.04-.753.04-.753.832-.99.554-.159 1.108-.357 1.623-.674h-2.177c-.04-.237-.119-.435-.08-.594.159-2.059.357-4.079.515-6.138.04-.357 0-.793.594-.713-.159-.278-.436-.515-.436-.753.159-1.584.396-3.128.594-4.831.792.158 1.504.277 2.177.396.04-.04.04-.08.079-.159a129.88 129.88 0 0 0-2.137-.99c.237-1.465.475-2.931.752-4.515 1.306.159 2.494.317 3.681.475 0-.039.04-.079.04-.118-1.148-.317-2.296-.594-3.563-.951a67.715 67.715 0 0 1 2.177-9.109 353.85 353.85 0 0 1 5.146 1.98c-1.385-1.267-3.008-2.178-4.75-3.089.594-2.297 1.504-4.435 2.494-6.495.95-.04 7.125 1.703 8.313 2.377l-.119.356c-2.019 3.723-3.206 7.762-4.156 11.842-1.188 4.99-1.9 10.059-2.455 15.168-.633 6.138-.91 12.277-1.068 18.455-.159 6.495 0 12.99.356 19.446.435 8.119 1.306 16.237 3.167 24.198.831 3.525 1.821 6.97 3.364 10.257.317.753.634 1.347 1.069 2.179Z"/><path fill="#fff" d="M153.351 117.386c-.594-.238-1.188-.436-1.782-.673-.752-.277-.752-.317-.791-1.347 1.266-.356 2.573-.673 3.839-1.029 0-.04 0-.08-.039-.119a224.21 224.21 0 0 0-4.038.515c-.712-3.486-1.069-6.892-1.464-10.456 1.583-.277 3.087-.554 4.591-.792-1.504-.356-3.048.198-4.631-.04-.435-4.158-.673-8.316-.831-12.633 1.464.237 2.85.475 4.196.713 0-.08.039-.12.039-.198-1.425-.515-2.81-1.07-4.314-1.624-.04-2.376-.119-4.713-.159-7.208 1.267-.158 2.375-.277 3.523-.396v-.04c-1.108-.04-2.256-.118-3.483-.158-.119-1.267-.079-2.416-.04-3.723 1.386.159 2.692.277 3.959.396v-.119c-1.267-.277-2.573-.594-3.919-.91a9.616 9.616 0 0 1-.079-1.07l.118-5.07c0-.356-.079-.791.396-.791-.119-.198-.356-.436-.356-.634.079-2.099.198-4.237.317-6.337.831-.277 1.583-.514 2.335-.752v-.158h-2.137c-.04-.278-.08-.436-.08-.634.159-2.06.357-4.08.515-6.139.04-.435.119-.831.99-.554-.515-.436-.871-.515-.792-1.03.237-1.505.396-3.01.594-4.633.831.158 1.543.277 2.256.395 0-.04.04-.079.04-.118-.357-.159-.713-.357-1.03-.515-.356-.159-.712-.317-1.148-.515.238-1.505.475-2.93.753-4.515 1.345.159 2.573.317 3.8.475 0-.04.039-.079.039-.118-1.187-.317-2.414-.634-3.681-.99.554-3.05 1.227-6.06 2.177-9.11 1.702.634 3.365 1.268 4.988 1.902-1.346-1.307-2.969-2.139-4.632-3.05.673-2.257 1.505-4.436 2.613-6.614 2.771.674 5.463 1.505 8.194 2.377-.04.197 0 .316-.079.435-1.98 3.644-3.127 7.564-4.078 11.564-1.147 4.793-1.9 9.664-2.414 14.575-.831 7.564-1.188 15.128-1.148 22.693.039 4.554.039 9.148.237 13.703.357 8.792 1.188 17.505 3.128 26.099.831 3.604 1.82 7.168 3.364 10.574.317.713.713 1.426 1.109 2.257-.871.278-1.703.555-2.692.872a16.596 16.596 0 0 1-.277-1.188c-.515-2.654-1.069-5.307-1.979-7.882-.436-1.227-.95-2.415-1.782-3.445-.554-.673-1.148-1.267-2.137-1.307-.752 0-1.425.238-1.861.792-.594.792-1.187 1.584-1.623 2.455-1.187 2.416-1.781 5.07-2.296 7.684-.871 4.435-1.425 8.871-1.821 13.386-.554 5.822-.791 11.683-1.029 17.544-.277 6.535-.475 13.03-.435 19.565 0 .079 0 .198-.159.317-.158-4.832-.395-9.624-.435-14.456-.04-5.228 0-10.455.277-15.683.238-4.753.792-9.505 1.306-14.218.396-3.881 1.069-7.723 2.217-11.485.119-.396.238-.753.356-1.149 1.109-2.772 1.505-3.485 3.405-5.663ZM51.816 210.97c1.781.119 3.484.317 5.186.357 1.702 0 3.444-.159 5.146-.278v-.198c-1.465-.118-2.89-.237-4.355-.435a325.7 325.7 0 0 1-6.096-.792c-.316-.04-.554-.159-.672-.476-.317-1.029-.673-2.059-.99-3.168.237-.04.396-.079.554-.079 4.354.475 8.67.99 13.023 1.426 2.692.237 5.423.356 8.115.514 6.294.357 12.588.396 18.843.317 1.068 0 2.098-.079 3.166-.119.515-.039.832.119.871.674.04.435.159.911.238 1.465-5.265.911-10.49 1.307-15.795 1.743.99.475 4.949.633 7.957.198 2.612-.357 5.185-.911 7.956-1.386.475 1.623.832 3.405 1.346 5.306-6.769.753-13.419.397-20.07-.356 6.651 1.941 13.42 2.059 20.268 1.228.792 2.297 1.584 4.515 2.375 6.812-1.148.316-2.335.158-3.523.396 1.069.119 2.138.317 3.207.396.514.039.83.198 1.068.713.317.752.713 1.465 1.148 2.336-.554.079-1.029.159-1.504.159-5.74.237-11.44.277-17.18 0-4.987-.238-9.975-.634-14.923-1.307-2.375-.317-4.71-.674-7.086-.99-.435-.04-.752-.198-.99-.555-.989-1.426-1.978-2.812-2.928-4.237-.08-.119-.08-.238-.159-.397 2.652.238 5.265.515 7.877.674 2.653.158 5.305-.079 8.036-.436-1.504-.079-2.85-.198-4.196-.238-3.958-.118-7.917-.554-11.875-1.029-.396-.04-.713-.198-.871-.555l-3.206-7.247c.04-.119.04-.238.04-.436Zm26.364 11.287c3.8 1.426 11.558 1.386 14.052 0H78.18Zm-23.118-7.406c3.167 1.07 11.994 1.387 15.121.753-1.108-.317-12.152-.871-15.12-.753ZM94.726 127.208c-14.765-.753-29.411.158-44.216 1.901.515-1.505.95-2.812 1.425-4.238 2.494-.198 4.908-.435 7.363-.594 2.414-.158 4.79-.277 7.204-.475-4.71-.832-9.381-.713-14.171.396.079-.356.119-.594.198-.832.633-1.465 1.306-2.891 1.94-4.356.276-.634.712-.871 1.385-.911 2.137-.119 4.275-.277 6.452-.555-2.217-.079-4.473-.158-6.769-.277.08-.237.119-.475.238-.673 1.029-1.584 2.098-3.129 3.166-4.673.317-.476.752-.713 1.307-.753 3.72-.475 7.402-1.029 11.123-1.465 8.55-.99 17.18-1.109 25.77-.951.277 0 .514.04.791.04.871.04 1.782.119 2.732.158-.04.198-.04.396-.119.555-.396.871-.871 1.703-1.267 2.574-.198.396-.435.555-.91.634-1.425.237-2.85.554-4.236 1.03 1.425-.04 2.81-.119 4.315-.159-.08.317-.08.515-.159.713-.474 1.386-.95 2.733-1.385 4.119-.158.554-.435.792-1.03.831-1.187.08-2.414.238-3.601.555 1.346.079 2.652.158 4.077.238-.515 2.534-1.069 4.792-1.623 7.168Zm-.752-4.673v-.198c-.277-.04-.554-.08-.871-.119-3.444-.317-6.888-.119-10.332.039-4.116.198-8.273.317-12.35-.396.356.198.752.317 1.148.436 3.76 1.069 7.6 1.386 11.48 1.109 3.68-.238 7.283-.594 10.925-.871Zm-8.867-10.258c-3.919-.515-15.042 1.743-17.22 3.525 5.78-1.188 11.48-2.337 17.22-3.525Zm-10.253 7.921c2.257-.04 4.394-.673 6.492-1.465 2.455-.911 4.87-1.822 7.323-2.733.04 0 .08-.04.12-.079-4.988.317-9.343 2.653-13.935 4.277ZM83.92 35.881c-4.593-.871-9.184-.713-13.816.396.08-.317.08-.475.119-.633.713-1.585 1.425-3.13 2.138-4.713.197-.436.475-.634.99-.674 2.414-.158 4.829-.316 7.243-.554-2.414-.119-4.79-.238-7.244-.357.04-.158.04-.316.119-.435 1.108-1.664 2.217-3.287 3.325-4.95.277-.397.633-.595 1.148-.674 3.365-.435 6.73-.95 10.134-1.386 5.66-.713 11.32-1.03 17.021-1.109 4.117-.04 8.273.08 12.39.159.317 0 .633.079 1.108.118-.395.872-.831 1.545-1.108 2.337-.356 1.03-.95 1.505-2.058 1.584-1.148.119-2.217.475-3.325.792h4.235c-.633 1.861-1.227 3.644-1.86 5.505-1.584.198-3.128.396-4.711.594V32c1.425.08 2.811.158 4.394.238-.554 2.336-1.108 4.594-1.663 6.97-14.765-.753-29.411.198-44.097 1.9.04-.316.04-.514.119-.752.317-.95.673-1.861.95-2.812.158-.475.396-.712.91-.712 4.038-.278 8.036-.555 12.074-.832.475 0 .95-.08 1.464-.119Zm4.591-1.94c0 .04 0 .079-.04.118.198.08.357.159.555.198 2.375.713 4.829 1.07 7.323 1.189 4.196.198 8.392-.198 12.548-.634 1.069-.119 2.098-.238 3.127-.357a23.009 23.009 0 0 0-3.641-.316c-3.682.04-7.403.198-11.084.237-2.256 0-4.473-.119-6.73-.198-.712-.04-1.385-.158-2.058-.237Zm14.765-9.703c-6.175.079-12.231 1.03-17.892 3.683a1597.085 1597.085 0 0 1 17.892-3.683Zm3.602 3.524c-5.027.396-9.5 2.733-14.131 4.436.316.04.673.08.99 0 1.424-.356 2.929-.594 4.314-1.109 2.929-1.03 5.898-2.218 8.827-3.327ZM115.785 198.574c-1.781-.99-3.681-1.544-5.661-1.624-1.979-.079-3.958.08-6.017.159a58.218 58.218 0 0 1-.237-1.466 670.042 670.042 0 0 1-.871-9.306c-.079-.911-.079-.951.831-1.268 1.188-.396 2.375-.752 3.523-1.109-1.425-.119-2.889.357-4.433.634-.198-1.624-.317-3.168-.277-4.871 4.315-.08 8.154 1.148 11.717 3.406-3.325-2.931-7.244-4.357-11.638-4.555-.317-.752-.435-4.832-.198-5.98 1.386 0 2.811-.04 4.236 0 1.425.04 2.81.119 4.235.198v-.198c-2.85-.317-5.7-.634-8.59-.951a48.76 48.76 0 0 1 .04-7.207c5.819.237 11.559.356 17.338.792v3.881c-2.177.039-4.315-.277-6.531-.238.672.198 1.345.396 2.058.555.712.158 1.425.277 2.137.435.753.159 1.505.278 2.336.396.04 2.02.119 4 .158 6.099-.396.04-.712.08-1.029.08-.277 0-.594 0-.91.158.633.119 1.266.238 1.86.356.317 5.03.633 10.02.95 15.129-4.552.119-8.986-.277-13.419-.871 4.354 1.624 8.946 1.98 13.577 2.02.476 3.524.951 7.01 1.465 10.574-5.7.554-11.361.95-17.14 1.228-.356-2.258-.713-4.436-1.069-6.654a21.753 21.753 0 0 1 5.898-.673c1.94.039 3.84.356 5.661.871ZM138.586 104.079c-4.394.198-8.749-.198-13.063-.713 4.235 1.545 8.669 1.941 13.261 1.901.316 2.574.672 5.109.989 7.683-4.394-1.029-8.669-1.98-12.904-2.97 2.177-.317 4.314.079 6.452.555-.158-.08-.317-.198-.515-.278-2.573-1.029-5.264-1.505-8.075-1.188-.673.079-1.306.159-1.979.198-.713.079-.95-.079-.99-.752-.356-3.367-.673-6.733-.989-10.06-.08-.91-.04-.99.831-1.267 1.346-.436 2.731-.792 4.077-1.267-1.663.237-3.285.475-5.067.712-.079-1.544-.198-3.128-.277-4.831 4.354-.04 8.194 1.148 11.757 3.366-.159-.158-.317-.356-.515-.475-3.048-2.376-6.452-3.723-10.292-3.92-.277 0-.594-.08-.989-.12-.04-1.94-.119-3.841-.159-5.9 3.127-.08 6.175 0 9.184.079-3.009-.357-6.017-.713-9.105-1.07-.158-2.297-.079-4.673-.039-7.129 5.819.08 11.558.357 17.377.713.119 1.307.08 2.575 0 3.96-2.137-.118-4.196-.276-6.254-.395 1.979.792 4.038 1.07 6.215 1.465.198 2.02.119 4 .198 6.139-.713.079-1.346.158-2.138.237.752.12 1.346.238 2.059.357.316 4.871.633 9.822.95 14.97ZM30.124 60.475c-.515.12-.99.238-1.465.357v.079h1.267c.158.713-.158 3.96-.515 4.91-.95-.197-1.9-.395-3.087-.633 1.068.713 2.098.95 3.127 1.465l-.238 3.208c-.158 3.723-.277 7.406-.395 11.13v.791c.04.555-.159.871-.753.95-.237.04-.435.12-.673.278.436-.04.832-.04 1.307-.08.04.238.119.397.119.595.079 4.317.435 8.594.87 12.871.08.673.08.673-.475 1.267h.515c.633 3.842 1.306 7.684 1.98 11.604-1.267-.277-2.495-.514-3.722-.752 0 .039-.04.079-.04.119.99.317 1.98.713 2.97.95.752.198 1.147.594 1.306 1.347.277 1.267.673 2.495.99 3.723.04.198.118.435.197.752-1.385.475-2.691.911-4.156 1.426-.158-.357-.317-.713-.435-1.07a83.85 83.85 0 0 1-3.603-13.505 117.642 117.642 0 0 1-1.94-24.99c.238-8.475 1.188-16.831 3.326-25.03 1.148-4.395 2.573-8.712 4.512-12.831.753-1.545 1.821-2.654 3.405-3.287 1.069-.436 2.137-.871 3.364-1.426-.118.357-.158.515-.237.673-2.256 4.04-3.8 8.357-4.988 12.832-.198.792-.554 1.149-1.346 1.347a21.901 21.901 0 0 0-3.404 1.227c1.346-.277 2.692-.554 4.196-.871-.673 3.564-1.346 7.01-1.98 10.574ZM23.513 141.03c3.088-.634 6.057-1.386 8.946-2.377 0-.079-.04-.118-.04-.198-2.81.436-5.66.872-8.59 1.347.199-1.465.595-2.772 1.03-4.119 4.434-.911 8.907-1.624 13.498-2.218-.593 3.01-1.187 5.941-1.741 8.911-.871.119-1.702.238-2.692.396.515.317.95.198 1.346.238.396.039.792.039 1.267.079-.357 3.287-.752 6.456-1.109 9.743-2.335.475-4.75.594-7.125 1.109.752.079 1.504.158 2.256.198.752.039 1.504.039 2.296 0 .792-.04 1.584-.119 2.454-.198-.158 3.881-.316 7.683-.514 11.524-4.671.911-9.263 1.783-14.013 2.693-.04-.396-.08-.712-.04-1.029l.12-4.08c.039-.99.039-.99 1.107-1.108a26.645 26.645 0 0 0 6.294-1.347c-2.375.158-4.71.277-7.164.436-.159-1.545.118-2.971.198-4.515 1.464-.079 2.89-.198 4.314-.277v-.159a359.633 359.633 0 0 0-4.196-.594c.119-2.416.436-4.713.832-7.01 2.968-.317 5.858-.317 8.708-.831-2.77-.515-5.581-.357-8.471-.396.119-2.179.594-4.119 1.03-6.218ZM46.314 72.515c-2.494.158-4.988.317-7.6.475-.04-1.544.158-2.97.277-4.475 1.385-.119 2.692-.198 4.037-.277v-.198c-1.266-.159-2.493-.357-3.76-.515-.198-.792.277-5.386.752-7.05l9.025-.713c-2.929-.633-5.858-.554-8.946-.514.198-1.11.356-2.1.554-3.13.159-.791.317-1.544.436-2.336.079-.554.356-.713.87-.871a589.863 589.863 0 0 0 7.957-2.1c.238-.039.436-.157.634-.355-2.93.475-5.899.95-8.947 1.425.159-1.386.515-2.614.91-3.802.08-.198.436-.396.674-.435 2.692-.476 5.383-.95 8.115-1.426 1.187-.198 2.335-.357 3.523-.515.395-.04.752-.04 1.227-.08-.594 3.01-1.148 5.862-1.742 8.833-.99.158-2.019.277-3.008.435v.08c.95.079 1.9.118 2.929.197-.356 3.288-.752 6.495-1.108 9.783-2.336.316-4.592.594-6.888.91 1.069.357 2.177.317 3.285.317 1.109 0 2.257-.079 3.484-.119-.159 3.802-.317 7.565-.475 11.486-4.592.87-9.224 1.782-13.855 2.653-.277-.792-.237-4.752.08-6.02 2.493-.475 5.106-.792 7.56-1.663ZM120.06 156.396c-1.267-.396-2.335-.752-3.444-1.109-2.692-.871-5.383-1.584-8.194-1.822a16.64 16.64 0 0 0-4.433.238c-.357.079-.713.119-1.227.198.118-1.624.198-3.168.316-4.752 2.375.039 4.671.198 6.928.118 2.256-.039 4.473-.277 6.729-.633-4.434-.278-8.907-.515-13.34-.792-.277-1.07.752-10.337 1.306-12.08 1.227.198 2.494.396 3.761.594.039-.039.039-.079.079-.118-.594-.238-1.188-.515-1.781-.753-.594-.237-1.227-.435-1.94-.713.119-1.584.475-3.049.792-4.633 5.779.237 11.44.554 17.179 1.148a92.068 92.068 0 0 1-.633 3.525h-2.969v.119c.911.158 1.782.356 2.811.554-.079 1.624-.396 3.208-.594 4.832-2.177-.119-4.315-.238-6.452-.317-2.098-.079-4.236.079-6.294.515 4.156.317 8.273.634 12.588.95-.198 2.535-.436 4.951-.634 7.367-.237 2.534-.356 4.95-.554 7.564ZM123.346 42.178c5.819.278 11.44.594 17.179 1.188-.198 1.228-.396 2.337-.593 3.525h-3.128c0 .04 0 .08-.039.119.475.08.95.198 1.425.277.514.119 1.029.198 1.583.317-.237 1.663-.435 3.208-.673 4.871-4.314-.515-8.51-.713-12.865.08 4.236.356 8.313.712 12.43 1.069.039 0 .119.079.198.158-.357 4.792-.752 9.624-1.109 14.574-.435-.118-.791-.198-1.187-.316-2.573-.872-5.146-1.703-7.838-2.179-2.573-.435-5.106-.554-7.679 0-.119.04-.277.04-.515.04-.158-1.584.198-3.129.198-4.792 4.473.277 8.827.317 13.182-.357-2.138-.277-4.275-.356-6.373-.475-2.178-.119-4.355-.277-6.492-.396-.238-1.148.831-10.535 1.385-12.04 1.188.199 2.375.357 3.563.555.039-.08.039-.119.079-.198-1.188-.475-2.336-.91-3.602-1.426.316-1.505.554-2.97.871-4.594ZM117.21 222.733c-2.217.198-4.473.396-6.769.633-2.098-5.188-3.483-10.495-4.631-15.96 5.7-.673 11.281-1.347 16.981-2.02.357 1.545.673 3.129 1.03 4.753-2.93.435-5.74.831-8.59 1.267v.158c2.929-.118 5.858-.277 8.788-.396.752 2.456 1.464 4.832 2.216 7.288-3.8.475-7.521.277-11.242.594 3.84.792 7.719.792 11.678.475a244.017 244.017 0 0 1 2.098 4.435c-5.582 1.189-11.163 2.06-16.863 2.694-.396-.793-.752-1.585-1.148-2.456 2.256-.436 4.354-.871 6.492-1.267 0-.079-.04-.119-.04-.198ZM124.731 122.97c-2.177-.317-4.236-.673-6.294-.831-2.019-.159-4.077-.119-6.136-.198 0 .079 0 .158-.039.198 3.998.633 8.036 1.307 12.113 1.98-.475 1.94-.871 3.802-1.346 5.703-5.621-.673-11.242-1.347-16.942-2.02.039-.317.079-.673.158-1.03a259.36 259.36 0 0 1 1.346-5.307c.317-1.267.356-1.227 1.781-1.386-.475-.158-.792-.237-1.148-.356 0-.119-.039-.317 0-.436.554-1.663 1.148-3.327 1.702-4.99.198-.554.475-.673 1.03-.634 2.216.198 4.393.317 6.61.436-2.217-.673-4.512-1.03-6.927-1.386.237-.99.712-1.782 1.187-2.733 5.621.594 11.203 1.505 16.824 2.693a617.157 617.157 0 0 1-2.534 5.584c-.95-.158-1.939-.316-2.929-.475 0 .04-.039.119-.039.159.87.356 1.781.712 2.731 1.109a49.252 49.252 0 0 1-1.148 3.92ZM135.854 26.099a841.39 841.39 0 0 0-7.402-1.426c.198-.91.633-1.703 1.108-2.495.08-.119.475-.158.713-.119 1.821.198 3.681.396 5.502.713 3.286.555 6.571 1.149 9.857 1.743.237.04.475.158.791.237-.87 1.901-1.662 3.723-2.493 5.585-1.069-.198-2.138-.357-3.207-.555 0 .04-.039.08-.039.119.989.396 1.939.752 3.008 1.148-.435 1.347-.831 2.654-1.267 4-3.998-.792-7.956-1.346-11.994-1.069 0 .08-.039.159-.039.198 1.9.317 3.839.634 5.739.95 1.94.317 3.919.634 5.978.951-.436 1.94-.871 3.802-1.307 5.703-5.621-.673-11.202-1.346-16.942-2.02.436-2.534 1.148-4.99 1.861-7.445.395-.08.752-.12 1.306-.238-.475-.158-.752-.277-1.108-.396.514-2.06 1.266-3.96 2.058-6.02 2.652.04 5.265.396 7.877.436ZM38.595 86.772c2.138-.713 4.156-1.386 6.175-2.099-2.098-.04-4.077.555-6.175 1.07v-4.397c4.513-.712 9.144-1.148 13.894-1.821.119 4.118.238 8.198.356 12.356-.87.04-1.78.119-2.691.159-.91.04-1.782.04-2.692.079-.91.04-1.821 0-2.692.198 1.306.396 2.652.554 3.998.554h4.196c.198 2.178.396 4.357.594 6.575-4.513.356-8.946.673-13.459.99-.356-2.1-.633-4.159-.752-6.337 1.227-.198 2.375-.396 3.563-.594-1.188-.396-2.375.04-3.682-.119-.277-2.139-.435-4.317-.633-6.614ZM27.472 172.555c-2.217.039-4.355.554-6.61 1.188v-4.396c4.551-.674 9.183-1.188 13.893-1.783.119 4.159.238 8.238.317 12.436-1.465.04-2.85.04-4.275.079-1.386.04-2.771.119-4.157.238 2.771.713 5.582.713 8.511.634.198 2.217.356 4.356.554 6.574-4.512.317-8.946.673-13.498.99a332.626 332.626 0 0 1-.752-6.218c1.385-.515 2.81-.515 4.354-.832h-4.315c-.04-.237-.158-.514-.197-.831a232.055 232.055 0 0 0-.396-5.228c-.04-.515.198-.713.633-.832 1.742-.554 3.444-1.148 5.186-1.703.237-.158.514-.237.752-.316ZM30.124 206.812c-.95-.119-1.9-.277-2.85-.357-.396-.039-.713-.118-.832-.554-.474-1.505-.99-3.01-1.464-4.515-.04-.079 0-.198 0-.396.316.04.594.079.87.119 4.038.871 8.076 1.782 12.074 2.653.396.079.673.198.792.634.277 1.03.554 2.02.87 3.208-.712-.079-1.306-.119-1.9-.159 0 .04 0 .08-.04.119.516.159.99.317 1.505.436.396.079.633.277.792.673.673 1.901 1.385 3.802 2.058 5.664.04.079 0 .198 0 .356a128.67 128.67 0 0 1-4.117-.515c0 .04-.04.079-.04.119.16.079.318.198.516.238 1.147.316 2.295.673 3.443.99.554.158.95.396 1.267.95.99 1.782 2.058 3.564 3.088 5.307.118.198.237.396.435.753-.752-.159-1.346-.278-1.94-.436-2.81-.792-5.581-1.584-8.392-2.376-1.266-.357-2.018-1.347-3.087-2.297 2.613.118 5.027.237 7.442.316 0-.079 0-.118.04-.198-1.386-.277-2.772-.514-4.197-.792-1.306-.237-2.612-.396-3.919-.633-.316-.04-.672-.198-.83-.436a161.064 161.064 0 0 1-2.692-3.921c2.098-.198 3.958.317 5.818.04-1.425-.277-2.85-.515-4.235-.792-.277-.04-.594-.159-.871-.159-.99.08-1.385-.514-1.702-1.346-.317-.792-.673-1.545-1.069-2.495h3.246c-.119-.04-.119-.119-.08-.198ZM53.637 34.455c2.217-.633 4.394-1.227 6.73-1.9-.04.277 0 .395-.04.514-.515 1.268-1.03 2.495-1.544 3.763-.158.396-.396.554-.792.673-.593.198-1.148.435-1.741.633 0 .08 0 .12.04.199.593-.04 1.187-.08 1.86-.12-.04.199 0 .318-.04.397-.396 1.307-.831 2.574-1.187 3.881-.12.396-.278.634-.713.713-4.275.673-8.471 1.742-12.667 2.772-.08.04-.198 0-.435-.04.237-.712.475-1.386.633-2.059.277-1.148.87-1.822 2.058-2.099.871-.198 1.703-.634 2.534-.99-.04-.08-.04-.158-.08-.238-1.068.238-2.177.436-3.404.713.08-.317.12-.554.198-.792.95-2.257 2.098-4.436 3.484-6.455.435-.634.95-1.03 1.702-1.228 1.504-.317 2.85-.99 4.156-1.822-1.346.04-2.573.476-3.998.872.198-.317.277-.515.396-.634.673-.634 1.346-1.267 2.058-1.861.238-.199.555-.357.871-.436l10.213-2.852c.04 0 .119 0 .277.04-.119.198-.158.396-.277.554-.752 1.228-1.583 2.456-2.296 3.723-.317.555-.712.871-1.306 1.07-2.058.791-4.117 1.623-6.175 2.455-.198.08-.396.237-.594.356.04.12.08.159.08.198ZM32.816 119.683c1.029-1.109 1.9-2.376 3.444-2.812 3.127-.871 6.214-1.742 9.341-2.613.278-.08.555-.08.99-.159-.356.555-.633.911-.87 1.307-.634 1.03-1.267 2.099-1.9 3.168-.278.476-.595.713-1.07.911-2.177.792-4.314 1.703-6.452 2.575-.237.079-.435.237-.633.475 2.296-.634 4.592-1.307 7.085-1.98a7.88 7.88 0 0 1-.277.871c-.396.99-.87 2.02-1.227 3.01-.237.594-.514 1.029-1.187 1.188-.475.119-.95.356-1.386.713h1.663c.04.554-.832 3.643-1.346 4.752-4.473.99-8.946 1.98-13.617 3.01.198-.673.396-1.188.514-1.742.277-1.387 1.03-2.258 2.455-2.575.83-.198 1.622-.633 2.454-.95 0-.079-.04-.119-.04-.198l-1.781.356c-.594.119-1.148.238-1.821.396.04-.277.04-.515.119-.673 1.029-2.416 2.216-4.713 3.76-6.852.317-.475.713-.712 1.267-.831a12.98 12.98 0 0 0 4.236-1.822c-1.307-.238-2.455.396-3.721.475ZM28.897 195.129c2.573 1.069 5.225 1.109 7.996.95.356 1.822.712 3.644 1.108 5.584-.99-.119-1.82-.237-2.652-.356l-10.331-1.782c-.396-.08-.674-.238-.792-.634-.792-3.287-1.504-6.574-1.9-9.941 0-.039 0-.079.04-.158.276 0 .593-.04.91 0 4.037.515 7.996.515 11.954-.515.119-.039.277-.039.396-.039.04 0 .04.039.198.079.317 2.257.633 4.554.95 7.01-2.692-.08-5.304-.159-7.877-.198ZM54.508 107.248h-7.68c2.494.91 5.067 1.029 7.799.871.118.594.237 1.148.356 1.822-.712.158-1.346.277-1.98.396-2.216.515-4.433 1.029-6.65 1.465a6.09 6.09 0 0 1-1.464.04 44.569 44.569 0 0 1-2.731-.476c-.95-3.485-1.623-6.97-2.138-10.693 4.552.555 8.986.753 13.42-.515.355 1.189.355 2.377.553 3.525.198 1.188.317 2.376.515 3.565Z"/><path fill="#fff" d="M102.405 162.02c.08-2.575.198-5.109.277-7.604 1.109-.278 2.138-.238 3.167-.198 2.969.198 5.78.911 8.63 1.742 1.821.515 3.602 1.07 5.502 1.664.119 1.98-.04 4-.119 6.099a4386.366 4386.366 0 0 1-17.457-1.703ZM137.636 69.624v6.138a3654.752 3654.752 0 0 0-17.338-1.703c-.198-.99.039-6.89.356-7.762 1.385-.08 2.81-.119 4.196.08 3.602.395 7.006 1.544 10.45 2.574.831.237 1.623.475 2.336.673ZM163.168 142.891c1.543.277 3.087.555 4.71.832v6.178c-.712.04-1.425.079-2.335.119.871.158 1.623.277 2.375.396.316 5.03.633 9.98.91 15.089-1.544.079-3.087.04-4.631-.04-.317-7.524-.673-15.01-1.029-22.574ZM176.904 51.525c.118.237.277.514.316.752.436 4.515.871 9.03 1.227 13.545.475 6.06.594 12.118.475 18.178-.118 5.782-.396 11.564-.673 17.346a118.26 118.26 0 0 1-1.623 14.495c-.475 2.733-1.148 5.426-1.781 8.119-.198.792-.594 1.545-.95 2.297-.119.278-.475.674-.673.634-.277-.079-.633-.356-.752-.673-.356-.792-.673-1.584-.91-2.416-.99-3.406-1.544-6.891-1.98-10.416-.316-2.574-.514-5.148-.752-7.723-.039-.356 0-.713.119-1.069.238 1.624.435 3.247.673 4.871.633 4.317 1.187 8.674 2.415 12.872.277.95.673 1.901.989 2.851h.238c.198-.634.475-1.267.633-1.941a67.337 67.337 0 0 0 1.94-10.138c.514-4.317 1.069-8.673 1.346-13.03.356-5.465.554-10.891.673-16.356.118-5.07.079-10.139-.08-15.208-.118-4.515-.435-8.99-.712-13.466.079-1.188-.04-2.376-.158-3.524ZM151.174 192.911c1.227 6.851 1.662 13.782 4.156 20.277.079 0 .158 0 .237.04.198-.515.396-1.03.555-1.545a61.919 61.919 0 0 0 1.939-9.624c.515-4 .99-8 1.346-12.039.317-3.248.475-6.456.633-9.703.357-7.604.357-15.248.159-22.852-.119-5.029-.475-10.059-.752-15.089-.079-1.188-.198-2.376-.119-3.564.198 1.703.475 3.406.633 5.109.357 3.96.713 7.92.911 11.881.198 3.841.316 7.683.316 11.525 0 5.267-.079 10.534-.277 15.802-.316 7.564-.91 15.128-2.335 22.613-.436 2.258-1.029 4.515-1.623 6.733-.198.713-.554 1.426-.95 2.06-.277.514-.673.514-.99.039-.277-.436-.554-.911-.673-1.426-.554-2.099-1.148-4.198-1.583-6.336-.831-4.198-1.227-8.436-1.544-12.713-.039-.396-.039-.792-.039-1.188ZM203.702 186.693c.357-1.307.752-2.574 1.069-3.921.871-3.604 1.425-7.287 1.821-10.97.396-3.842.831-7.683 1.108-11.564.277-3.882.396-7.802.515-11.723.277-7.366.158-14.772-.119-22.139-.158-4.317-.554-8.633-.871-12.99 0-.277 0-.594.159-.871.198 1.742.475 3.445.633 5.188.356 4.277.752 8.594.95 12.871.198 5.228.317 10.456.238 15.683a365.999 365.999 0 0 1-.594 16.08c-.436 7.406-1.307 14.772-3.167 21.98-.277 1.03-.673 2.02-1.029 3.01a3.008 3.008 0 0 1-.475.752c-.277.357-.634.357-.911-.079a5.374 5.374 0 0 1-.673-1.347c-.554-2.019-1.148-3.999-1.543-6.059-.832-4.158-1.228-8.396-1.584-12.594-.039-.396-.039-.792-.039-1.188 0-.079.039-.198.118-.436 1.109 6.891 1.544 13.743 3.998 20.198a.568.568 0 0 0 .396.119ZM174.726 192.99c.713 1.545 1.386 2.931 2.098 4.436-4.75 1.029-9.5 1.782-14.329 2.415 0-.316-.04-.554 0-.792.079-.673.158-1.346.237-2.059.792-.198 1.504-.356 2.217-.554v-.159c-.673.04-1.346.079-2.058.119-.119-1.228.158-2.416.277-3.762 3.839.633 7.679.712 11.558.356ZM163.682 184.99c2.85-.119 5.582-.238 8.392-.356.752 2.455 1.465 4.792 2.217 7.287-3.681.356-7.323.435-11.123.435.158-2.455.316-4.831.514-7.366ZM169.026 166.693c.515 3.564.99 7.01 1.465 10.574-2.138.357-4.236.396-6.532.594.238-1.94-.198-3.802.357-5.584-.515-1.822-.04-3.683-.238-5.584h4.948ZM100.189 114.852c-.871 3.089-1.86 6.138-2.653 9.227-1.227 4.792-1.94 9.664-2.573 14.535-1.345 10.891-1.662 21.822-1.543 32.792.04 4.515.158 8.99.395 13.505.555 10.455 1.782 20.832 4.513 30.97.396 1.466.871 2.891 1.306 4.357.12.356.159.713.278 1.069h.04c-.16-.277-.397-.515-.476-.792-1.385-3.564-2.335-7.248-3.167-10.97-1.425-6.535-2.256-13.188-2.85-19.842-.633-7.168-.87-14.337-.91-21.545 0-6.693.237-13.386.791-20.039.634-7.644 1.584-15.287 3.326-22.772.752-3.208 1.662-6.416 2.85-9.505.198-.317.198-.832.673-.99ZM45.68 118.772c-.079.198-.079.436-.197.634-2.771 5.426-4.473 11.247-5.74 17.188-1.108 5.188-1.781 10.416-2.217 15.723-.673 7.881-.673 15.762-.475 23.643.198 7.089.831 14.139 2.138 21.109 1.148 6.218 2.77 12.317 5.383 18.139.475 1.03.99 2.059 1.386 3.208-.159-.277-.357-.555-.515-.832-2.177-3.841-3.72-7.96-4.908-12.238-1.425-5.069-2.375-10.257-3.048-15.485a172.786 172.786 0 0 1-1.227-26.772c.118-4.554.395-9.148.91-13.663.91-8.238 2.375-16.396 5.383-24.159.753-1.98 1.742-3.841 2.653-5.782.04-.238.316-.436.475-.713ZM127.977 217.703c-.158-.238-.396-.475-.475-.753-1.306-3.445-2.217-7.009-2.969-10.574-1.187-5.663-1.94-11.406-2.415-17.188-.752-8.554-1.068-17.109-.831-25.703.119-4.792.356-9.584.713-14.376.593-8.04 1.662-16 3.76-23.802.594-2.139 1.346-4.238 2.019-6.337.119-.356.277-.673.554-.95a3.265 3.265 0 0 1-.158.594c-1.9 5.346-3.048 10.891-3.959 16.475-.87 5.307-1.385 10.654-1.702 16a232.796 232.796 0 0 0-.435 18.97c.079 4.911.158 9.822.435 14.693.554 9.981 1.742 19.921 4.513 29.585.277 1.109.594 2.257.95 3.366ZM163.326 124.554c-.198-.594-.435-1.188-.594-1.742-1.306-4.198-2.177-8.515-2.85-12.871-.91-5.862-1.425-11.763-1.702-17.703-.317-6.812-.435-13.624-.119-20.436.198-3.723.356-7.485.673-11.208.634-7.683 1.702-15.327 3.959-22.733.237-.831.554-1.623.989-2.376-.079.277-.119.555-.198.832-1.504 4.871-2.454 9.9-3.127 14.93-1.187 8.595-1.662 17.268-1.623 25.941.04 5.782.04 11.604.277 17.386.396 9.386 1.504 18.733 3.959 27.842.198.673.396 1.386.593 2.059-.118.04-.158.079-.237.079ZM194.202 96.198c-.515 1.861-1.069 3.723-1.544 5.624-1.069 4.356-1.821 8.792-2.335 13.267-1.227 9.98-1.465 20-1.346 30.02.039 4.158.158 8.356.396 12.515.475 8.752 1.504 17.386 3.76 25.901.159.633.356 1.267.554 1.901.198.633.396 1.227.436 1.94-.159-.356-.277-.673-.436-1.029-1.504-4.198-2.493-8.515-3.206-12.872-1.465-8.752-2.019-17.624-2.256-26.495-.159-6.138-.04-12.237.316-18.376.436-7.921 1.188-15.842 2.969-23.604.594-2.653 1.465-5.228 2.217-7.802.119-.356.277-.673.396-.99.039-.04.079-.04.079 0ZM145.79 213.228c-.475-1.426-.95-2.891-1.346-4.357-1.227-4.435-2.019-8.95-2.652-13.544-1.108-8.436-1.544-16.872-1.623-25.347-.04-5.782.079-11.604.475-17.386.475-7.05 1.188-14.059 2.771-20.951.594-2.613 1.425-5.148 2.177-7.722.079-.238.158-.436.396-.594-.04.198-.079.435-.158.633-1.663 5.347-2.653 10.773-3.365 16.317-.95 7.248-1.346 14.495-1.465 21.782-.158 7.248-.079 14.495.357 21.743.435 7.643 1.266 15.247 2.968 22.733.475 2.099 1.109 4.158 1.663 6.217.04.119.04.238.079.357-.119.079-.198.079-.277.119ZM145.869 30.574c-.831 2.93-1.702 5.822-2.454 8.792-1.148 4.634-1.821 9.347-2.375 14.1-1.227 10.613-1.465 21.267-1.306 31.92.079 4.713.237 9.386.593 14.1.317 4.435.95 8.831 1.425 13.227.04.237.04.515.08.752-.515.04-.555-.277-.594-.554-.277-1.941-.594-3.842-.792-5.782-.435-4.317-.831-8.634-1.108-12.95-.238-3.486-.317-6.931-.317-10.417 0-5.386.04-10.811.277-16.198.396-8.99 1.346-17.94 3.325-26.772.713-3.168 1.584-6.297 2.732-9.307.079-.356.079-.792.514-.91ZM117.843 26.97c-.475 1.584-.989 3.169-1.425 4.753-1.544 5.346-2.573 10.812-3.364 16.316-1.228 8.713-1.782 17.466-1.861 26.218-.039 6.139-.039 12.317.158 18.456.159 4.752.634 9.505.95 14.257v.634c-.395.198-.514-.04-.554-.317-.118-.911-.237-1.822-.316-2.772-.317-4.277-.634-8.594-.832-12.871-.158-3.486-.277-7.01-.277-10.535 0-3.683.119-7.366.238-11.01.079-2.654.198-5.307.435-7.92.356-4.239.752-8.437 1.267-12.635.554-4.554 1.346-9.108 2.533-13.544.752-2.772 1.702-5.505 2.573-8.238.079-.277.317-.515.475-.792ZM56.487 109.703c-.119-.396-.237-.713-.277-1.069a166.566 166.566 0 0 1-1.662-12.515 155.314 155.314 0 0 1-.673-15.485c0-4.475.237-8.95.475-13.386.277-5.03.91-10.02 1.82-14.97 1.228-6.575 2.89-12.99 5.78-19.01.356-.753.792-1.506 1.346-2.218-.04.158-.04.316-.119.475-2.93 5.822-4.71 12-5.977 18.336-.99 4.99-1.623 9.98-2.02 15.05-.712 9.267-.751 18.535-.197 27.802.317 5.307.87 10.614 1.781 15.881.119.317.356.753-.277 1.109ZM35.23 114.931c-.475-.159-.475-.515-.554-.832-.752-3.129-1.662-6.218-2.256-9.347-1.544-8.118-2.336-16.356-2.296-24.594.04-9.663 1.03-19.247 3.206-28.673 1.069-4.554 2.455-8.99 4.632-13.188.198-.356.356-.713.554-1.03.04.04.119.04.158.08-.119.277-.237.594-.356.87-2.296 4.912-3.76 10.1-4.83 15.407-1.187 5.822-1.86 11.683-2.216 17.623a136.211 136.211 0 0 0-.119 16.08c.436 8.633 1.465 17.227 3.76 25.584.159.515.317 1.03.436 1.544-.08.08-.119.238-.119.476ZM163.92 179.723c2.335-.317 4.552-.634 6.887-.951.357 1.624.673 3.208 1.069 4.872-2.731.396-5.383.752-8.194 1.148.079-1.703.159-3.287.238-5.069ZM176.27 191.842c-.237-.396-.514-.753-.673-1.149-1.425-3.762-2.414-7.643-3.206-11.564-1.188-5.98-1.94-12-2.415-18.099-.673-8.476-.871-16.911-.712-25.426l.118-3.168c0-.396.08-.713.713-.634v1.069c0 6.06-.079 12.119.04 18.179.158 7.405.712 14.811 1.781 22.178.91 6.178 2.137 12.237 4.235 18.138.04.159.08.357.119.476ZM167.918 137.307c-1.94-.238-3.721-.436-5.542-.673-.119-.753-.238-1.466-.356-2.258 1.979-.633 3.919-1.267 5.898-1.901v4.832ZM167.878 138.654v3.92c-.277.04-.475.08-.712.08l-3.563-.238c-.356-.04-.633-.158-.673-.555-.119-1.069-.198-2.178-.317-3.405 1.782-.04 3.444.237 5.265.198ZM45.72 118.812c.119-.317.198-.594.317-.911l.237.119a5.634 5.634 0 0 0-.554.792ZM64.127 29.782c-.119.238-.277.436-.396.673-.04-.04-.079-.04-.119-.079.12-.238.277-.436.396-.673.04 0 .08.04.119.08ZM163.959 126.138c-.079-.198-.158-.356-.237-.554.039 0 .079-.04.119-.04.079.198.158.357.237.555-.039 0-.079 0-.119.039ZM100.189 114.851c-.119-.435-.08-.792.435-.95-.158.317-.317.634-.435.95ZM100.624 113.901c0-.277.04-.554.04-.792.079 0 .118 0 .198.039-.08.238-.159.476-.238.753ZM176.231 191.881l.356.713c-.079.04-.119.04-.198.079-.04-.277-.079-.554-.158-.792ZM176.904 51.485c0-.317-.04-.633-.04-.95h.119c0 .356-.04.673-.079.95ZM163.92 34.495c.079-.158.119-.317.198-.515.039 0 .079.04.118.04-.039.158-.118.356-.158.515-.079-.04-.119-.04-.158-.04ZM145.909 30.614c.039-.277.039-.594.079-.871.079 0 .158.04.237.04a4.085 4.085 0 0 0-.316.831ZM146.423 214.693c-.079-.158-.118-.317-.198-.475.04 0 .08-.04.119-.04l.238.475c-.04 0-.079.04-.159.04Z"/><path fill="#fff" d="M127.977 217.703c.119.238.237.515.396.752-.396-.118-.515-.396-.396-.752ZM117.843 27.01l.119-.832c.079.04.158.04.238.08-.119.237-.238.475-.357.752ZM99.951 221.307c.158.317.277.634.436.95v-.039c-.436-.159-.515-.515-.436-.911ZM100.387 222.257c.079.238.197.515.277.753-.08 0-.119.039-.198.039 0-.277-.04-.554-.079-.792Z"/><path fill="#0A483A" d="M84.988 180.634c-2.969 1.782-6.096 2.257-9.421 1.227-.99-.316-2.019-.633-3.008-.95-3.167-1.069-6.413-1.149-9.66-.436-2.77.594-5.54 1.228-8.312 1.782-1.187.238-2.415.278-3.642.317 3.523-.633 6.849-1.901 10.292-2.812 2.098-.554 4.236-.99 6.453-.95 1.82.039 3.562.317 5.225.99 1.069.396 2.177.832 3.246 1.228 2.494.911 4.987.911 7.481.079.396-.198.871-.317 1.346-.475ZM87.165 166.218c-9.777 3.762-19.95 4.911-29.886 4.594 4.631-.594 9.738-1.149 14.765-1.941 5.067-.792 10.094-1.782 15.121-2.653ZM74.498 200.713c-2.692.277-5.225-.198-7.798-.792-2.494-.555-4.948-1.228-7.482-1.347-1.662-.079-3.364 0-5.066 0-.396 0-.792.04-1.227-.039.237-.079.435-.198.672-.238 3.8-.99 7.6-.832 11.361.079a440.21 440.21 0 0 1 7.759 1.981 15.78 15.78 0 0 0 1.781.356ZM64.127 188.396c5.502-.079 10.767.752 15.675 3.247a1371.865 1371.865 0 0 0-15.675-3.247ZM47.897 176.119c1.188-1.188 2.732-1.663 4.355-1.861 2.018-.238 4.037-.04 6.017.158.435.04.91.079 1.583.119-1.148.515-2.217.594-3.246.673-.87.079-1.702.04-2.573.04-2.098-.08-4.156.039-6.136.871ZM58.585 189.228c-2.969 1.98-6.135 2.772-9.58 1.624 3.207-.396 6.453-.753 9.58-1.624ZM88.234 154.099c-11.163-1.267-22.286-2.574-33.488-3.446 11.32-.435 22.483.476 33.488 3.446ZM58.941 139.366c3.009-.356 5.74-.198 8.511.04 4.157.356 8.273.752 12.43.99 3.048.198 6.056-.277 9.065-.871a.786.786 0 0 1 .514.039c-.594.159-1.187.357-1.781.515-.634.159-1.267.317-1.94.476-3.998.831-7.996.91-12.033.475-3.92-.436-7.799-.951-11.717-1.386-.911-.119-1.861-.159-3.049-.278ZM81.465 145.505c-8.273 1.822-20.188 1.465-28.263-1.426 3.087.357 6.215.792 9.302 1.069 3.206.278 6.413.436 9.58.476 3.206.039 6.373-.08 9.381-.119ZM65.75 135.564c4.988-1.425 10.055-1.782 15.16-.356-5.026.04-10.093-.119-15.16.356ZM106.403 66.139c-11.44-1.188-22.8-2.416-33.726-3.565 11.084-.317 22.484.555 33.726 3.565ZM77.586 51.168c2.098.04 4.235.04 6.333.159 4.355.317 8.709.792 13.024 1.069 3.562.238 7.046-.238 10.569-.871-.594.158-1.148.356-1.742.514-.633.159-1.267.317-1.94.476a35.66 35.66 0 0 1-11.044.673c-3.998-.436-7.996-.91-11.994-1.386a88.014 88.014 0 0 0-3.206-.317v-.317ZM70.46 56c4.988.752 9.857 1.346 14.726 1.584 4.869.238 9.698.238 14.567-.158-7.64 2.099-23.315 1.346-29.292-1.426ZM99.08 47.248c-5.185.079-10.252.118-15.359.198 5.107-1.307 10.134-1.585 15.36-.198ZM103.355 92.436c-1.741 1.03-3.562 1.782-5.581 1.98-1.386.158-2.771-.08-4.117-.436-.99-.277-1.98-.554-2.93-.91-3.522-1.228-7.045-1.308-10.647-.476-2.415.555-4.83 1.109-7.244 1.584-1.188.238-2.415.317-3.642.357 2.573-.713 5.146-1.466 7.719-2.179 1.702-.475 3.365-.91 5.106-1.267 2.85-.554 5.66-.396 8.392.634 1.069.396 2.098.792 3.167 1.188 2.652 1.03 5.344 1.07 8.036.119.554-.198 1.148-.396 1.741-.594ZM104.582 78.297c-9.46 3.644-19.356 4.792-29.41 4.436 4.947-.476 9.895-1.03 14.804-1.862 4.869-.831 9.738-1.703 14.606-2.574ZM97.695 103.723c-5.107-1.07-10.173-2.099-15.28-3.169 5.384-.198 10.49.753 15.28 3.169ZM77.23 86.772c-.792.119-1.544.277-2.336.357-1.306.079-2.652.079-3.958.118-1.821.04-3.642.159-5.384.872l.95-.713c1.227-.753 2.573-1.149 3.959-1.149 2.177 0 4.354.159 6.531.238.08 0 .158.08.277.119-.04.04-.04.119-.04.158ZM76.477 101.188c-2.968 2.059-6.135 2.812-9.658 1.861 0-.079-.04-.158-.04-.237 1.623-.198 3.246-.317 4.87-.594 1.622-.278 3.205-.674 4.828-1.03ZM78.18 222.257h14.052c-2.494 1.426-10.213 1.426-14.052 0ZM55.062 214.851c3.009-.118 14.013.436 15.121.753-3.127.634-11.954.277-15.12-.753ZM93.974 122.535c-3.642.316-7.244.633-10.886.871-3.88.238-7.719-.079-11.48-1.109a9.775 9.775 0 0 1-1.147-.436c4.116.713 8.233.594 12.35.396 3.444-.158 6.888-.356 10.331-.039.278.039.555.079.871.119-.04.039-.04.118-.04.198ZM85.107 112.277c-5.74 1.188-11.44 2.337-17.22 3.525 2.178-1.782 13.301-4.04 17.22-3.525ZM74.855 120.198c4.591-1.624 8.946-3.921 13.933-4.317-.04.04-.079.079-.118.079-2.455.911-4.87 1.822-7.324 2.733-2.058.792-4.196 1.465-6.492 1.505ZM88.511 33.94c.673.08 1.346.199 2.019.238 2.256.08 4.473.238 6.73.198 3.681-.04 7.402-.198 11.083-.237 1.227 0 2.454.118 3.642.316-1.029.12-2.098.278-3.127.357-4.157.436-8.313.832-12.51.634-2.493-.12-4.908-.476-7.322-1.188-.198-.04-.356-.159-.554-.199.04-.04.04-.079.04-.118ZM103.276 24.238c-5.977 1.227-11.915 2.455-17.892 3.683 5.7-2.693 11.717-3.604 17.892-3.683ZM106.878 27.762c-2.929 1.11-5.858 2.297-8.867 3.327-1.385.475-2.85.753-4.314 1.11-.317.078-.634.039-.99 0 4.671-1.704 9.144-4.04 14.171-4.436Z"/></g></svg>