<svg xmlns="http://www.w3.org/2000/svg" width="293" height="264" fill="none"><g clip-path="url(#a)" opacity=".6"><path fill="#012D25" d="m23.6 37.4-.3-.3c.5-.5 1.2-.8 1.9-1l5.9-2.3 3.4-1.3.7-.3c1.5-.2 3 .3 4.5 1.2a23 23 0 0 1 5.6-1.6v-.4l-.7-.3.4-.5c1.6-.6 2.9-1.6 4.3-2.3.8-.3 1.7-.5 2.4-1 .8-.4 1.6-.3 2.4-.7.5-.2 1.2-.2 1.8-.3.5-.1 1 .2 1.6.4l.6.3c1.6.8 1.6.8 3.7.2 1.4-.4 2.9-.5 4.2-1 1.4-.4 2.9-.3 4.2-1 1.1 0 2.1-.5 3.2-.7l5.3-1.3c1-.3 2.2-.4 3.3-.8 1.1-.3 2.3-.3 3.4-.8l1.8-.3 1-1.5c.6-.2 1.3-.4 2.1-.4s1.5-.3 2.3-.3c.5 0 1-.1 1.4-.3.5-.2 1-.1 1.4-.3l1.3-.2c.5 0 1-.1 1.5-.4.4-.2.8-.3 1.2-.2.5.2.8-.4 1.3 0h1.3l2 .8 2.1-.5c1.5-.2 2.8-.8 4.2-.6.7-.5 1.5-.2 2.3-.3l1.8-.3c.6 0 1.3.2 1.9-.3h.1l4.2-.3 2.5-.3c.7 0 1.6.2 2.3 0 1.3-.4 2.6 0 3.8-.3 2-.4 3.9 0 5.7-.3 1.7-.3 3.5-.1 5.4-.3-.2-.5.2-1.1-.3-1.6v-2.8c.1-2.4-.2-4.7-.3-7 0-.6-.1-1.1.2-1.6l-.2-.3 1.5-1.3c1.3 0 2.4-.4 3.6-.3h3.5c1.5.2 2.8.5 3.8 1.6.7 3.8.3 7.6.4 11.4l-.3 1.6h4.8c1.2 0 2.4.5 3.6.3a12 12 0 0 1 3.6 0c1.3.4 2.5.1 3.8.4 1.2.2 2.5 0 3.7.3l2.1.2c.5-.5 1-.6 1.7-.6 2.4.1 4.8.4 7.2.4l2.1.3 2.1.3 2.4.4 2.3.5c.9.2 1.6.8 2.8 1.4 1 0 2.1.2 3.4.6h1.2l.9.3c.7.1 1.5 0 2 .4.7.4 1.5 0 2 .5 1.8 0 3.5.7 5.2 1 1.6.3 3.3.4 4.7 1.1.9-.1 1.6.2 2.4.4l2.4.5c.5.1 1 .6 1.6.2-.6-.7-1.8-.6-1.8-1.8 1-.8 2.1-.6 3.1-.4 1.2.2 2.3.4 3.4.8l3.1 1.1 3.3 1c.8.3 1.6.3 2.4.8.7.4 1.6.5 2.4.7l2.1.6c.2 0 .3.3.5.4v1h.3c.8.1 1.6.3 2.3.6 1.7.7 3.2 1.5 5 1.8l.4.4c.7-.4 1.3-.5 2-1 .4-.3.8-.3 1.4 0l4.7 1.6c1.4.5 3 1 4.3 1.7 1.8 1 3.7 1.6 5.6 2.4 1.7.8 3.1 1.9 4.5 3.2A55 55 0 0 1 280.3 55a90.3 90.3 0 0 1 4.4 11.9c.6 1.5 1.2 3.1 1.5 4.8.2 1.3.7 2.5 1 3.7.2 1.1.7 2.2.8 3.3 0 1 .2 2.1.6 3.1.3.7.2 1.4.5 2 .2.8 0 1.7.3 2.5.4 1.1.3 2.4.9 3.5v.4c.1 1 .1 2.2.3 3.2.2.7.1 1.5.3 2.2.3.8 0 1.5.3 2.1.4.8.2 1.6.3 2.3l.3 1.8c0 .6-.2 1.3.2 1.9v.2l.3 5.9c0 1 .5 2 .3 3.1 0 1-.2 2.2 0 3.1.5 1.6.3 3.1.3 4.7a575.2 575.2 0 0 1-.3 18.8c-.1 1-.1 1.9-.3 2.8l-.6 5.4c-.4.7 0 1.5-.3 2.1-.3.7-.1 1.4-.3 2-.4 1.4-.3 2.9-.8 4.3-.2.3 0 .7 0 1.1l-.4 1c-.2 1.9-.8 3.6-1.8 5.5l1.2.5-.3.3v.6c.3 2-.4 3.8-1 5.6-.6 1.7-1.2 3.3-2 4.9-1.2 2.5-2 5.2-3.4 7.6l-.8 2c-.2.8-1 1.2-.8 2-.8.7-.9 1.9-1.5 2.8-.6.9-.9 1.9-1.5 2.8-1.1 1.7-2.1 3.5-3.3 5.1a23.8 23.8 0 0 1-4.5 4.7c-.8.8-2 1.4-3.1 1.8-1.1.4-2 1.2-3.2 1.7-2.7 1.1-3.8 1.8-6.4 2l-1.2.5.5 3.3.3 1.8c.2.5-.2 1.3.3 1.8-.2.8.3 1.7.3 2.5.1 1 .2 2 .6 3 .2.7 0 1.3.2 2 .4.8.2 1.8.4 2.7.4 1.3.3 2.7.8 4 .2.5.1 1 .4 1.7.3.7.2 1.5.3 2.3l.3 1.3.6 3.7c.2 1.3.3 2.7.6 4 .3 1.1.3 2.3.9 3.5.2.5 0 1.2.2 1.8.4.9.2 2 .4 2.8 0 .6-.2 1.2-.3 1.7 0 .3-.9 1-1.3 1.2-.8.6-1.8.7-2.8.9l-5.2.7c-1 0-2.2 0-3.2.3-2.1.4-4.3.2-6.4.2-1 0-2 .2-3 .5-.5.2-1.2.1-1.8.1l-.6-.6c-.2 0-.2.3-.5.2a132.6 132.6 0 0 0-8.3-3.7c-1-.3-1.9-.9-2.8-1.2l-6.9-3-2.6-1.1c-2.8-1.3-5.7-2.4-8.4-3.9-1.1-.1-2-1-3-1.3l-3-1.4c-2.3-.8-4.4-2-6.6-2.9-1.6-.6-3.1-1.2-4.7-2l-5.2-2-2.5-1a6608.9 6608.9 0 0 0-10.2-4.2L171 227l-1.7-1c-.7-.3-1.2-.9-1.8-1.4-1.6 0-3.2.5-4.8.3-1 .5-2.2 0-3.3.3-1.7.4-3.4 0-5 .3-2.9.5-5.7 0-8.5.4-2.3.2-4.7.4-7 .2-2.9-.3-5.7 0-8.5-.3l-4.4-.3-1.8-.2h-2l-.6-.4c.1.7-.1 1.3.3 2 .3.5-.1 1.1.2 1.7.4.6.2 1.4.4 2.1.3 1 .2 2.1.4 3.1l.2 1.5c.1.5-.2 1 .3 1.4v.3c0 .7 0 1.4.3 2.1.2.6.1 1.3.3 2 .2 1 .2 2.1.3 3.3l.3 1.6c.1.6-.3 1.2.3 1.7v.3c.1 1.2.1 2.5.3 3.7.3 1.3.4 2.7.8 4 .3.8.4 1.6.4 2.5 0 .4.3.8.1 1.3l-.1 1.4c-1 1-2.4 1.4-3.7 1.5h-3.8c-1.7-.1-3.4.2-5 .4-1 0-2 0-2.8.3-1.1.4-2.4-.1-3.5.5-1.5-.2-3 .4-4.5.4-.8 0-3.2-.6-3.9-1-1.1-.5-2.4-.7-3.4-1.4-1.3-.9-2.8-1.5-4.1-2.4-2-1.2-4.3-2.2-6.4-3.3a73 73 0 0 1-6.8-4l-5.7-3.4L69 246a227 227 0 0 0-9.2-5.3l-7-3.7-4.7-2.3c-1.4-.7-2.7-1.5-3.7-2.6l-1.4-1.1-1.3-.9v-2.6c-.1-1 .2-1.7.4-2.6l.5-2.1c.3-.8.2-1.5.3-2.3l.2-1.8c.2-.6-.2-1.3.3-1.8v-.6c0-.7 0-1.3.3-2 .2-.6 0-1.3.3-2 .2-.4 0-1 0-1.5l-3-1c-1.2 1.3-3 .9-4.5 1-1.1-.8-2.5-1.1-3.8-1.5-1.1-.4-2.2-.7-3.4-.9-.6 0-1.1-.4-1.7-.6l-1.5-1 .5-.6c-2.1-.5-3.4-2-4.8-3.5-.6-.6-1-1.3-1.4-2-.6-1.2-1.5-2.2-1.8-3.5-.2-.7-.7-1.5-1-2.2-.5-1-.6-2.2-1-3.2l-1-3c-.4-2-1.1-3.9-1.6-5.8l-.7-3c-.2-1-.6-1.8-.7-2.8 0-.2-.2-.3-.3-.5-1.2.6-2.4.2-3.7.4L7 175.7c-.6-1.6-.4-3.2-.4-4.7s-.1-3 .5-4.6H3.7c-.4 0-.9.2-1.2-.3-.3.5-.6 0-1 0l-.5-.3c0-.9-.8-1.4-.8-2.3 0-.6.3-1.2-.2-1.8v-.5l.2-.5v-1.4l.5-1.2 1.5-1.5h4.1c.2-.3.5-.5.5-.7v-2.4l-1.1-2.2-1-.4-.5-2.3.3-2.7 1.1-1.4.9-.1v-.4c-.2-.4-.2-.9-.3-1.3v-.6c0-2.7 0-5.6-.4-8.3-.3-2.3 0-4.6-.2-6.9-.4-2.7-.2-5.4-.3-8v-8.1c0-1.8.5-3.6.3-5.4 0-1.8-.2-3.7 0-5.5.4-2 0-3.8.4-5.7.2-1.4 0-2.8.2-4.2.2-1.2.1-2.4.4-3.5.2-1 .2-1.9.2-2.8 0-.6.4-1.2.3-1.9 0-.5-.1-1.2.3-1.8-.2-1.2.4-2.2.3-3.4L8 75c0-.5 0-1 .2-1.4.3-.6.1-1.4.3-2.1.3-.8 0-1.8.4-2.5.4-.8 0-1.6.6-2.4.2-.3 0-1 .2-1.5l.4-1.7c.2-.4 0-1 .3-1.5.4-1 .2-2 .8-2.9 0-1.3.6-2.5 1-3.8.3-1.2.8-2.4 1-3.7.2-.6.8-1 .7-1.8l2.7-5.4c1.2-2.2 2.8-4.2 4.7-5.8l2.3-1.2Zm-9.3 118.8c0-.1 0-.2-.2-.3 0 .2.1.2.2.3l.2.2c0-.1 0-.2-.2-.2Zm.5.2.3.3h.4c-.2-.1-.3-.2 0 0v.6h2.1c-1-.3-1.5-.4-2.8-1ZM6 146.9l-.4.6c-.1.4-.3 1 0 1.7L6 147s.2 0 .2-.2l-.2.2Zm200.2 71.5h-1.7c-.8.4-1.7.5-2.6.6l-2.7.4-1.2.7c3 .5 5.5-1 8.2-2v.3h.8v-.2c-.2 0-.6 0-.8.2ZM252.4 35l.2.2-.2-.2c-.4-1-1.5-1-1.9-1.7l-3-.4c-.6 0-1-.5-1.5-.5-.9-.1-1.6-.8-3.3-1l.3.3.5-.1c-.2 0-.4-.1 0 .1-.1.8.7 1 1 1.4l1.4.4 3 .7c1.1.3 2.2.8 3.5.8Zm-55-14h.1c0-.1 0-.2-.2-.3v.1l.4.2 2.7 2.7c.8.1 2-.2 3.2.3.6.2 1.2-.1 1.8.2.6.3 1.4 0 2 .4 1.9 0 3.6.9 5.4.9 1.6.7 3.3.7 4.9 1.2 1.3.4 2.7.5 4 .9.8.1 1.4.5 2.2.3l.5.2c.7.1 1.3.7 2 .3l-2.4-2c-1.5.3-3-.4-4.5-.7l-2.8-.8c-1-.1-1.8-.2-2.8-.5-.4-.2-1-.4-1.5-.3-1.4 0-2.6-.7-4-.6-1.6-.8-3.5-.7-5.2-1.2-1.4-.3-2.8-.5-4.2-1-.5-.2-1-.4-1.5-.3ZM27.3 188v.1l.1.3.1-.1h-.3v-21.6h-1.5l-1.7.2h-1.8l-1.3.1.4.9c.1.8 0 1.8.3 2.5.4.7 0 1.5.6 2-.1 1 .4 1.8.6 2.6.2 1.7.7 3.3 1.2 4.9.9 2.8 1.8 5.6 3.3 8.2ZM182 21l.2.3V21c0-.1 0-.2-.2-.2-.6-1-1.8-1.5-2.5-2.4-.9 0-1.7.2-2.4 0l-1.2-.2-1.2-.3-4-.3h-.4c-.5-.5-1.3-.4-2-.3-.7 0-1.3-.3-2-.3-1.3-.1-2.6 0-4-.3-1.2-.2-2.4 0-3.7 0-1.3.1-2.5-.4-3.8-.3h-3.4l-.6.6c-1.5.4-3 .8-4.5.9-1.4.1-2.7-.3-4-.8-.8-.3-1.5-.5-2.3-.4-2.3.1-4.6-.2-6.9.2-1.7.3-3.6 0-5.4.3-1.1.3-2.3 0-3.5.3-1.3.3-2.7 0-4 .3-1 .3-2.1 0-3.2.3-1 .3-2 .2-3 .3-2 .3-4 .2-6 .4-.6 0-1.2-.3-1.6.2-.2-.4-.6.2-.9-.2l-.7.2 1 .7c.4.2 1 .4 1 .7 0 .6.6.5.8.8l.8.8c.4-.2.7-.5 1.1-.6a27.1 27.1 0 0 1 4.6-.9l2-.2c1.5-.2 2.9 0 4.3-.3 1.1-.3 2.4 0 3.6-.3 1.4-.3 2.8 0 4.2-.3 1.4-.2 2.8 0 4.2-.3 1.3-.2 2.6-.1 3.9 0 1.3 0 2.6-.4 3.9-.3h10.7c1.8-.2 3.5.3 5.3.3 1.5 0 3.2-.3 4.8.2 2.7-.2 5.3.5 8 .4.4 0 .8-.2 1 0 .7.4 1.5.3 2.2.2.8 0 1.5.4 2.2.4 1.1 0 2.2-.2 3.2.2 1.5-.2 3 .5 4.4.3ZM254 32.5l-.2-.2s0 .2.2.2l2 1.6c1.2 1.3 2.7 2.6 4 4.1l3 4.1c1.7 2.4 3.2 5 4.6 7.5.7 1.5 1.6 3 2.2 4.5l2 5 1.9 5.2 2.3 7.1 1.2 4.1.7 2.5c.2.8.3 1.7.6 2.5.2.8.2 1.7.5 2.5.3.6.1 1.3.4 2 .3.6 0 1.3.3 1.9.5 1.4.4 2.8.8 4.3.4 1.1.3 2.4.4 3.5v.5c.4.6.3 1.3.2 2 0 .7.3 1.3.4 2 0 1.3-.1 2.6.2 4 .2 1 0 2.1 0 3.2.1 1 .4 2.1.4 3.2v15c0 2.1.1 4.3-.3 6.4-.3 1.5 0 3-.3 4.4-.3 1.1 0 2.5-.3 3.7-.3 1 0 2-.3 3-.3 1.2-.2 2.5-.4 3.8v.2c-.4.5 0 1.2-.3 1.7-.3.6-.2 1.2-.3 1.8v.5c-.4.4-.2.9-.2 1.4l-.3 1.3c-.1.9-.3 1.8-.6 2.6l-.3 2.1c-.1.8-.1 1.7-.4 2.4l-.2 1.3c-.1.3-.3.7-.3 1.2 0 .4-.6.8-.2 1.2 2.8-.7 5.6-.9 8.5-1.2.1-1.2 0-2.6.3-3.8.3-.8.1-1.7.4-2.4.5-1.3.4-2.7.8-4 .2-.5 0-1.2.3-1.8.3-.5.2-1.3.3-2 .3-1.2.4-2.6.6-3.9.3-1.2.3-2.4.4-3.6v-.4c.4-.6.3-1.3.2-2 0-.7.3-1.3.4-2 0-1.1-.2-2.3.3-3.4-.2-2.1.3-4.2.3-6.3v-12.8c0-2.1.2-4.2-.3-6.3-.3-1.2 0-2.6-.3-3.9-.2-1 0-2-.3-3.1-.3-.8.1-1.8-.3-2.7-.3-.8 0-1.8-.3-2.7-.3-.7 0-1.4-.3-2.2-.3-.7 0-1.5-.3-2.2.1-1.6-.7-3-.6-4.5-.5-.6-.4-1.4-.5-2l-.7-3.2a37 37 0 0 0-1.2-4.6 91 91 0 0 1-1.2-4.4l-1.5-4.8c-.3-1.5-1-2.9-1.5-4.4l-3-7.5-2.3-4.4-2.3-3.8-2-2.8c-.6-1-1.3-2-2-2.8-.9-.9-1.5-2-2.4-2.8-1.4-1.2-2.8-2.3-4-3.5-3.1-1-5.9-2.4-9-3Zm-29.7-8.7c.2.3.3.4.4.3h.4c-.2-.1-.4-.2 0 0v.1l.3.4c1.6 1 3 2.5 4.4 3.8.7.6 1.5 1 2 1.7.5.8 1 1.3 1.6 2 .8.8 1.6 1.6 2.2 2.5 1.3 1.6 2.5 3.3 3.6 5l3 4.8a97.6 97.6 0 0 1 5.2 11.5c1 1.3.9 3 1.8 4.2.2 1.5 1.2 2.8 1.2 4.4.5 1 .8 2 1 3.1.2 1.1 1 2.2.8 3.4.6 1 .6 2.2.9 3.3l.7 3 .7 3.6c.2.7.5 1.4.4 2.2.7 1.4.4 2.9.8 4.3.1.5.4 1 .4 1.6 0 .7 0 1.2.2 1.9s.1 1.5.3 2.2l.3 2.4.3 4.5v.3c.5.6.4 1.3.3 2 0 .7.3 1.3.3 2 .2 1.3-.2 2.7.4 4-.2 2 .1 4.2.2 6.3v10.1l.1 2.2c.2.8 0 1.4 0 2.1v4.5c.1 1.5-.4 3-.3 4.5 0 .6.2 1.3 0 1.9-.3.7-.2 1.3-.3 2 0 .6-.3 1.3-.3 2-.1 1.1 0 2.4-.4 3.6-.1.8 0 1.6-.3 2.3-.2.5-.1 1-.2 1.5 0 .6-.2 1-.3 1.6-.1 1 0 1.9-.3 2.8-.3.7-.1 1.3-.4 2-.4 1.1-.5 2.4-.8 3.6-.2 1.1-.6 2.2-.7 3.3l-.2 1c1.6-.4 3 .3 4.5-.4 1.5.2 2.8-.2 4.1-.8l.6-1.5c.6-1.2.8-2.5 1.1-3.8.3-1.1.6-2.2.7-3.3.1-.7 0-1.4.3-2 .3-.6.1-1.3.3-1.8.2-.7.3-1.3.3-2v-.6c.4-.6.3-1.3.3-2s.2-1.3.3-2c0-1 0-2.2.2-3.4.3-1 0-2 0-3 .1-1.1.4-2.2.4-3.2v-14.3c0-2.2.2-4.4-.3-6.6-.2-1.2 0-2.4 0-3.7 0-1.3-.4-2.4-.3-3.6.1-1.8-.5-3.6-.3-5.4v-.2c-.5-.6-.3-1.3-.3-2l-.3-1.9c-.1-.8.1-1.7-.2-2.6-.3-.7 0-1.6-.4-2.5-.2-.7 0-1.5-.2-2.3-.3-.6-.1-1.4-.4-2.2l-.3-1.8-.3-2-1-5c-.2-1.5-.7-3-.8-4.5-.6-.8-.3-2-.9-2.8.2-1-.7-1.9-.6-3-.6-1.4-.9-3-1.5-4.6l-2.2-6-2-5c-1.7-3.4-3.4-6.7-5.3-10l-2.6-4-2.6-4.2-2.2-3-1.5-1.7-1.8-1.6c-1-.8-2.1-1.7-3.5-2-.9-.3-1.7-.7-2.6-.9-1.7-.3-3.3-1.2-5-1.7-.9 0-1.7-.4-3.4-.9Zm-13.3 82c-1.8 0-3.6 0-5.3-.2-3-.3-6 0-9-.3-2.3-.3-4.7 0-7.1 0h-7c-2.3.1-4.7-.4-7-.3h-9.9c-3.3.1-6.5-.1-9.8.3-2.9.3-5.7-.1-8.6.2-2 .3-4.2 0-6.2.1l-6.3.3h-1.3c0 1.2 0 2.2.3 3.3-.2 2.7.2 5.5.3 8.3v13.7c0 1.7.2 3.3-.3 5-.2 1 0 2.3 0 3.4.1 1.2-.3 2.2-.3 3.3l-.3 6v.3c-.6 1-.1 2-.4 3.2 1.4-.1 2.6.1 3.7.2 2.7.2 5.4 0 8.1.3 3.8.3 7.7-.1 11.5.3 2 .2 4.2 0 6.2 0H180c3 0 5.8.2 8.8-.2 1.6-.3 3.2 0 5 0h4.8c1.7.1 3.3-.4 5-.3h6.4c0-1.2 0-2.2.3-3.3.2-1 0-1.9.3-2.9.2-.5 0-1.3 0-1.9-.2-.7.3-1.3.3-1.9 0-1.7-.1-3.3.2-5 .3-1.1 0-2.3 0-3.5v-3.8l.3-3.4v-4.8l-.2-4.8v-3.3c.2-2.8-.3-5.5-.3-8.3ZM204 64.5c-1.6-.3-3.1.2-4.6-.4-.6-.2-1.3 0-2 0l-1.9-.3c-1.5 0-3 .1-4.5-.2-1.2-.3-2.5-.1-3.7-.3-1.8-.3-3.6 0-5.4-.3-2-.3-4 0-6-.3-3-.3-6.2 0-9.3-.3-3.4-.2-6.8 0-10.3 0h-10.1c-3.4 0-6.8-.4-10.2.2-3-.2-5.9.5-8.8.4h-.2c.4 1.5 1 3 1.2 4.4 0 1.4.8 2.6.6 4 .7 1.2.5 2.6 1 4l.5 3.3c.2 1.6.6 3.3.6 5v.5c.5.4.2 1 .3 1.4l.3 1.5.3 4v.2c.4.4.4 1 .3 1.5 0 .6.3 1.1.3 1.7 0 1-.1 2 .3 2.8-.2 1.7.3 3.3.3 5v2c1.1 0 2 0 3-.2 1.3-.3 2.6-.1 3.9-.3 1.7-.3 3.5 0 5.2-.3 2-.3 4 0 5.9-.3 2.5-.4 5.1 0 7.8-.3 3.4-.3 6.8 0 10.3 0h10c3.5 0 6.8-.2 10.3.1 3 .4 6.2 0 9.3.1l9.3.3c.8 0 1.7-.1 2.6.4-.1-1.5.3-3-.3-4.3.2-1.5-.3-2.8-.3-4.2v-.8c-.4-.5-.4-1.2-.3-1.8.1-.7-.3-1.2-.3-1.8 0-1.2-.2-2.3-.3-3.5v-.2c-.5-.5-.1-1-.3-1.5-.2-.6-.3-1-.3-1.6.1-.8-.5-1.6-.3-2.5-.6-.5-.1-1.3-.5-2-.3-.6-.2-1.4-.4-2 0-.7-.2-1.4-.3-2-.3-1.1-.7-2.2-.9-3.4-.6-.5-.2-1.3-.4-1.9-.4-.9-.5-2-.8-2.8l-1-3Zm-77.9 125.9c2.5.2 4.8 0 7.2.2 3.2.4 6.5 0 9.7.4 2.7.3 5.5-.2 8.2.2 1.8.3 3.7.2 5.6 0 1.8 0 3.7.5 5.5.4h8.2c2.7 0 5.4.2 8-.2 2.2-.4 4.5.2 6.7-.4 2.4.2 4.7-.4 7.1-.3 1.5 0 3-.5 4.4-.3h.1c1.3-.4 2.5-.5 3.9-.7.4-.8 1-1.6 1.1-2.4l1.5-4.5c.5-1.5 1-3 1.2-4.7.4-2 1.2-3.8 1.6-5.7.2-.8.5-1.6.5-2.5 0-.7.3-1.4.5-2 0-.5.3-.9.4-1.3l.6-2.7.6-3c.1-1.6.7-3.1.6-4.7l.2-1-.7-.2h-1.3l-1.2.3H201c-1.7 0-3.3.3-5 .3h-27.6c-3.3 0-6.6.2-9.9-.2-3.4-.4-6.7.1-10.2-.3-2-.3-4.2 0-6.4-.3-2.3-.4-4.7-.2-7-.4-.3 0-.7.2-.9 0-.6-.5-1.1-.2-1.6-.3-.1.7-.3 1.3-.3 2l-.3 1.8c0 1.8-.7 3.7-.7 5.5v.5c-.4 1-.4 2.1-.6 3.2-.2 1 .2 1.9.3 2.8.3 2-.4 4-.6 6-.6.5 0 1.4-.5 1.9-.2 1.2-.6 2.3-1 3.5-.1.9-.3 1.7-.6 2.5l-.8 2.6c-.3 1.3-.9 2.6-1.2 4Zm.7-128.6 1.3-.4c1 0 2 0 3-.2 1.1-.3 2.2-.1 3.3-.3 1.5-.3 3.1 0 4.7-.3 1.7-.2 3.4 0 5.2 0 1.7 0 3.5-.4 5.2-.4h17.8c2.3 0 4.7 0 7 .3 2.7.3 5.6-.2 8.4.3 1.6.3 3.2-.1 4.8.3 1 .3 2.2 0 3.3 0l3 .3c2.2-.1 4.3.4 6.4.3h.3c.9.6 1.8.1 2.8.3-.8-2.1-1.3-4.2-2-6.2l-2-5.4c-.7-1.6-1.2-3.2-2-4.8-.6-1.5-1.2-3.2-2-4.8l-2-4c-1.6-.1-3.4 0-5-.4-1.3-.4-2.7-.1-4-.5-1.1-.4-2.4-.1-3.6-.3-1.5-.3-3 0-4.5-.3-1.6-.3-3.2 0-4.8-.3-1.2-.2-2.4-.1-3.6 0-1.2 0-2.4-.4-3.6-.3h-20c-2.2-.2-4.4.3-6.6.2H135l-1.4.1c-.4.2-.8-.2-1 .2-2.1-.1-4.1.1-6.2.3-1.1.1-2.3-.3-3.4.3-1.5-.2-3 .4-4.5.4h-.9l1 2.2c.6 1.5 1.2 3 2 4.5.7 1.6.8 3.3 1.9 4.7.5 2.3 1.4 4.4 2 6.6l1.3 4.1 1.1 3.5ZM88.3 204.7l-.8 1.9a17 17 0 0 1-5.5 7c-1.2.8-2.4 1.5-3.9 1.9-.6.2-1.4.3-1.8.6-.6.5-1.4 0-1.9.6-1.1 0-2.2.5-3.4.3-.9-.2-1.6-.6-2.4-.6-1.6 0-3.1-.7-4.7-.6l-.6-.3-2.4 1.2h-1.2c-.5-.5-1.1-.3-1.7-.6-1-.4-2-.4-3-.6-1-.2-2-.3-2.9-.6-.8-.3-1.7-.4-2.4-1l-1.6-1-.3-.3.4-.4-1.9-.7c0 .6.2 1.2 0 1.6-.4.6-.2 1.2-.3 1.8 0 .7-.3 1.3-.3 2-.1 1.1 0 2.4-.4 3.5-.1.7-.3 1.3-.2 2 .1.8-.3 1.4-.3 2.1 0 .8-.3 1.6-.5 2.3-.3.8-.6 1.6-.3 2.5.4.2.7.3 1 .6 1 .5 1.7 1.2 2.7 1.6 1 .4 1.8 1 2.8 1.5.7.2 1.3.6 2 1 .6.3 1.4.5 2 1 .7.5 1.5.7 2.2 1.1.7.4 1.4 1 2.2 1.2.8.3 1.3.8 2 1.1 1.4.5 2.7 1.2 3.9 2 1.9 1 3.8 2 5.6 3.3 1.2.8 2.6 1.3 3.7 2.2l3.7 2.2c2.1 1.4 4.3 2.5 6.5 3.7l5.3 2.8c.7.4 1.6.6 2.2 1 1.6 1.2 3.3 2 5 2.9 1.2.6 2.4 1.3 4 1.6-.2-1.7-.1-3.4-.5-5s-.5-3.2-.8-4.8c-.3-1.5-.3-3-.4-4.5v-.3c-.4-.6-.3-1.3-.3-1.9.1-.8-.3-1.4-.3-2.1 0-1 0-2-.2-2.9-.3-1.2-.1-2.5-.3-3.7-.3-1.4-.3-2.9-.3-4.3v-.2c-.4-.6-.4-1.3-.3-2 0-.6-.3-1.2-.3-1.9-.2-1 0-2-.3-3.1-.3-1.2-.3-2.5-.4-3.8v-.3c-.5-.6-.2-1.3-.3-2 0-.6-.3-1.2-.3-1.9s0-1.5-.2-2.2c-.3-1.3-.3-2.7-.4-4.2l-1.5-1.1a15 15 0 0 0-3-2.4c-.7-.5-1.4-.8-2.4-.8Zm30.1 3.8v1.6l.3 1.3.4 1.5c0 .5.4 1 .6 1.4.8-.1 1.5.1 2.2.2 1.3.2 2.7 0 4 .3 1.3.3 2.6 0 3.8.3 1.2.3 2.5-.1 3.6.4 2.2-.2 4.4.2 6.6.2h7.8c2.5 0 5 .1 7.6-.2 3.2-.4 6.4.2 9.6-.4H168.3c.5 0 1 0 1.5-.3.5.5 1 0 1.5 0 2 0 3.8-.2 5.7-.3h.3c.6-.6 1.3-.2 2-.3a38 38 0 0 1 2.1-.3c1 0 2 0 3-.3.7-.2 1.3 0 2-.3.9-.3 1.8-.5 3-.5 4-6.3 7.3-13.1 10.3-20.3h-.9c-.2.3-.6.3-1 .3-1 0-2.1 0-3.2.2-1.4.3-2.8 0-4.2.3-.5.2-1 0-1.7 0h-1.5l-1.5.3h-6c-1.5 0-3 .5-4.5.4h-7.4c-2.5 0-5 .1-7.5-.3-2.1-.3-4.3.2-6.4-.2-1.6-.4-3.2 0-4.9-.3-1.5-.3-3.1 0-4.8-.3-1.3-.3-2.7.1-4-.4-2.3.3-4.5-.3-6.7-.3-.9 0-1.7 0-2.6-.2-.9-.3-1.8 0-2.7-.1l-2.5-.4-1.6 4-1.7 4.2-2 4.5c-.5 1.5-1.2 2.8-2 4.3Zm.3-57.1c.1-1.5 0-2.8.3-4.2.3-1.5 0-3 .3-4.6.3-1.7 0-3.5.3-5.3.3-1.6.2-3.3 0-5 0-1.7.4-3.4.4-5v-9.8l-.4-9.5v-1h-5.7c-1.7 0-3.5 0-5.4.3-2 .2-4.2 0-6.4 0-2 0-4.1.2-6.3-.2-1.4-.3-2.8-.1-4.3 0l-4.3.2H87c-1 .5-2.1.5-3.1.7-.3.9.1 1.8.2 2.7.2 2.3-.1 4.7.3 7.1.3 1.7.1 3.4 0 5-.1 1.8.4 3.5.3 5.2v5.3c0 1.8.2 3.6-.2 5.4.2 2.7-.4 5.4-.4 8v.6c-.5.8-.2 1.5-.2 2.2 1.6.2 3.1-.2 4.6.3.7.2 1.5 0 2.2 0 .8 0 1.4.2 2.1.3 1 .1 2-.1 3 .3.6.2 1.3 0 2 0l1.8.3c1.6.1 3.2-.1 4.8.3 1 .2 2 0 3 0h2.8c1-.1 1.9.3 2.9.3h5.6Zm91.3 15.8h1.8c1-.5 2-.3 3-.3h3.2l3.1-.4c-.1-2.2 0-4.3.6-6.3.1-.7 0-1.3.2-2l.3-2.1.6-4.2c.2-1 0-2.1.3-3.2.2-.9 0-1.9.3-2.8.2-1.3 0-2.5.3-3.8.3-2 0-4.2.3-6.4.2-2.6 0-5.3 0-8s.2-5.3-.2-8c-.3-1.6-.2-3.3 0-5 0-1.7-.4-3.3-.4-5 0-1.3.2-2.6-.3-4 .1-1.7-.2-3.3-.3-5l-.3-4.8v-.2c-.4-.6-.2-1.2-.3-1.8l-.3-1.9c-.1-.7.2-1.3-.2-2s0-1.6-.4-2.4c-.3-.6.2-1.4-.2-2.1-.3-.7 0-1.5-.4-2.2l-.3-2.1c0-.7 0-1.5-.3-2.1-.3-.7 0-1.4-.3-2-.5-1.3-.6-2.6-1-4 0-.5 0-1.1-.2-1.7-.6-1.3-.8-2.7-1.1-4l-1.7-6.2c-.2-1-.7-2-1-3.1-.4-1.1-1-2.2-1-3.4l-2.2-5.4-3.1-7-1-2.3-1.4-2.5c-.6-1.2-1.1-2.5-1.9-3.6-.7-1.2-1.2-2.5-2-3.7l-1.2-2-.3-.6-2.5-3.2c-1.3-1.7-2.8-3-4.5-4.2l-2-1.3c-.8-.2-1.5 0-2.2-.3-.7-.3-1.5-.4-2.2-.5-.7-.2-1.4-.5-2.2-.5-.7 0-1.5 0-2-.3-.8-.4-1.3-.2-2-.2.7.5 1.4.9 1.9 1.4 1.7 1.8 3.6 3.5 5.1 5.5 1.3 1.6 2.7 3.3 3.8 5.1 1.3 2.1 2.7 4.1 3.8 6.3 1.4 2.5 2.7 5 3.7 7.5l2.4 5.6c.9 2.1 1.5 4.3 2.3 6.4.3.9.5 1.7 1 2.6l.7 2.6c.3.7.6 1.4.7 2.1 0 .9.6 1.5.7 2.3 0 .8.3 1.7.6 2.5.6 1.6.9 3.4 1.4 5l.5 2.3.4 2.4c.5 1.7.6 3.4 1.1 5 .2.6 0 1.2.3 1.9.2.5.2 1.1.3 1.8.3 1.3.4 2.6.6 4 .3 1 .3 2.2.4 3.4 0 .1-.1.3 0 .4.4.4.3 1 .2 1.5 0 .6.4 1 .4 1.7 0 1 0 2 .2 3.2.2 1.3 0 2.7.3 4 .2 1.5 0 3.2.3 4.8.3 2.4 0 4.9.3 7.3.2 2.3 0 4.6 0 7 0 2.3 0 4.7-.2 7-.4 2.6 0 5.3-.4 8-.2 2-.2 4.2-.3 6.3v.3c-.4.7-.2 1.4-.2 2.1-.1.8-.3 1.5-.3 2.3-.1 1.3-.1 2.6-.4 3.9-.1.7 0 1.3-.3 2-.2.6-.2 1.3-.2 2v.3c-.5 1-.4 2-.6 3-.3 1.2-.4 2.5-.8 3.8l-.2.4c.1 1-.3 2-.6 3ZM113.8 65.6c-.8 0-1.6 0-2.5.2-1.2.3-2.4 0-3.6.4-.9.2-1.8-.2-2.7.2-.9.4-1.8.1-2.7.3-1.2.3-2.4.1-3.6.3-1.4.3-2.8.3-4.2.4h-.1c-.6.4-1.4.3-2 .2-.7 0-1.3.3-2 .4-1.5 0-3 .2-4.4.3h-.3c-.6.5-1.4 0-2.1.3l-2.1.3c-.4 0-.9-.1-1.3.2-.2.2-.8 0-1.3-.1V70c.6.6 0 1.3.4 1.7.5.5 0 1.2.5 1.8.2.3 0 1 .3 1.6.2.7 0 1.7.4 2.4s-.1 1.6.5 2.3c-.2.8.3 1.6.4 2.4l.2 2.5v.6c.5.3.3.8.4 1.2l.2 1.2c.1 1 0 1.7.3 2.6l.3 2.4.3 2.4.3 3c.3 1.7.3 3.4.3 5.1 0 1 0 2.1.5 3l1-.5c1.7-.4 3.4-.5 5-.5 3.8-.2 7.6 0 11.4-.1 3.7 0 7.5.1 11.2-.3 2.2-.2 4.4 0 6.7 0v-.5c0-1.5.1-3-.2-4.5-.3-1.1 0-2.4-.3-3.6-.2-.6 0-1.2 0-1.8l-.4-1.7c0-1.3-.2-2.5-.3-3.8v-.3c-.5-.4-.2-1-.3-1.4l-.2-1.5c-.2-1-.1-2.2-.4-3.2-.2-.6 0-1.3-.3-1.9-.3-.6 0-1.2-.3-1.5-.4-.6 0-1.2-.3-1.7-.2-.5-.2-1-.2-1.5l-.4-2c-.4-.6 0-1.2-.5-1.8-.3-.6-.1-1.3-.3-2-.3-.6-.2-1.3-.4-1.9-.5-.9-.6-1.7-.9-2.7Zm111.4 39.6.4 2.5c0 1.6-.3 3.2.3 4.7-.2 2.8.2 5.5.2 8.3V135c0 1.6.2 3.2-.2 4.8-.3 1 0 2.2 0 3.4l-.3 3.3-.4 4.3v.4l-.3 1.2c1.4-.2 2.7.2 4-.3.5-.2 1.3 0 1.9 0l1.8-.3c.9 0 1.7 0 2.6-.3.6-.2 1.4 0 2 0 .8 0 1.4-.2 2-.3l5.6-.3h.1c1-.7 2.4 0 3.5-.6 1.4.1 2.6-.4 4-.6l1.5-.6c0-1 0-2 .3-3 .2-.8 0-1.7.2-2.5.3-1 .2-2.1.4-3.1.2-1.3 0-2.6.2-4 .3-1.3 0-2.7 0-4.1v-.9l.3-.5c-.1-.4-.3-.7-.2-1 0-1 .3-2 .3-2.9l-.3-6.4c-.1-2.2.2-4.5-.3-6.8-.2-1 0-2 0-3l-.3-3.1v-1.4c-1.3 0-2.6 0-3.8-.2-2-.3-4.3 0-6.4-.3-2.3-.3-4.5.1-6.7-.3-1.4-.3-3-.1-4.3 0-1.5 0-2.8-.3-4.3-.4l-3.8.1Zm-97 62 .4-1.2v-1.6c.4-.4.2-1 .3-1.5l.3-1.5c-.1-1.3.5-2.6.3-3.9l.2-.5.1-1.6c0-.6.2-1.1.3-1.7-.8-.8.1-1.5 0-2.2l.3-.7c0-1.3-.2-2.6.2-3.9.2-.4 0-.8 0-1.3 0-.4 0-.9.2-1.3l.1-1v-3.5c.1-1 .3-2.1.3-3.3V117c0-.6.2-1.2-.2-1.8-.2-.2 0-.5.2-.9l-.2-.4c-.1-1.7 0-3.5-.3-5.2-.3-1.5 0-3-.3-4.6-.3-1.2 0-2.5-.3-3.8-.3-1 0-2.2-.3-3.3-.3-.9 0-1.9-.3-2.8-.2-.9 0-1.8-.3-2.7l-.3-2.7c-.3-1.3-.2-2.5-.4-3.8v-.2c-.6-1.5-.6-3-.8-4.6-.2-1.6-.6-3.2-.7-4.8 0-.6 0-1.4-.3-2-.6-1.5-.6-3.1-1-4.7l-1.2-5.3-.7-2.9-.8-2.8c-.2-1-.8-1.8-.7-2.8-1-2.3-1.4-4.9-2.5-7.1l-1-2.5c-.2-.8-.7-1.5-1-2.3-.6-2.2-1.8-4.1-2.7-6.2l-1.5-3c-1-2-2.2-4-3.5-6-1.7-2.5-3.3-5-5.6-7.1-.7-.8-1.6-1.3-2.5-1.8-.2.1-.3.3-.5.3-.7.3-1.5.2-2.2.4l-2.9.6c-1 .2-1.9.5-3 .5l-1 .5c1.3.3 2.2 1 3.1 1.8l1.4 1.2 1.1 1.3 1.4 1.4.5.5 2.5 3.7a81.4 81.4 0 0 1 9.7 19.7 137 137 0 0 1 2.2 6.8c.5 1.5.6 3.1 1.4 4.5.2 2 1.1 3.8 1.2 5.8.8 2 .8 4.2 1.5 6.2-.1 1.5.7 2.8.6 4.4.4.5.1 1.3.4 1.9.2.5.1 1 .2 1.5.2.6.4 1 .3 1.6-.1 1 .5 2 .3 3 .5.8 0 1.6.3 2.3.4.8.2 1.6.3 2.3v.5c.6 1 .1 2.3.5 3.4.4 1.2 0 2.5.3 3.8.3 1.2.1 2.6.3 3.9.3 1.5.1 3.1.3 4.8.3 2.8 0 5.7.3 8.6.3 2.3.2 4.7 0 7 0 2.4.2 4.7-.2 7-.2 1.8-.1 3.7 0 5.6.1 1.8-.3 3.5-.4 5.4 0 1.3.2 2.7-.2 4-.2 1 0 2 0 3l-.4 3c0 1 .2 1.9-.2 2.9-.2.6 0 1.4 0 2.2l-.3 2.2-.3 5.4v.3c-.6.7-.2 1.5-.4 2.2.6.2 1 .4 1.5.4h2.5c.9.1 1.7.3 2.6.3l1.5.2Zm45.6 56.7.8.5 3.5 1.8c1 .4 1.7 1.1 2.6 1.4l2.5 1.1 2.6 1c1.5.8 3.1 1.4 4.7 2l8.4 3.7 6 2.7c.9.3 1.7.7 2.4 1.2.8.4 1.7.5 2.4 1.2 1.6.4 3.1 1.4 4.8 2 1.4.7 2.8 1.5 4.2 2 .6.2 1 .6 1.5.7 1.3.4 2.4 1.1 3.7 1.6 1.5.5 3 1.4 4.5 2l3.9 1.5 3.9 1.8c1.2.6 2.4 1.4 3.9 1.8 0-.9 0-1.9-.3-2.5-.5-.8.2-1.7-.5-2.2.1-.8-.2-1.6-.4-2.4l-.6-3c-.2-.6-.5-1.2-.5-1.8 0-1-.2-1.9-.4-2.8l-.2-1-.1-1.2c-.3-1-.5-1.9-.5-2.8v-.7c-.6-.5-.2-1.1-.3-1.7-.1-.5-.3-1.1-.3-1.7l-.3-3.6v-.2c-.4-1-.6-2-.6-3.1v-.7c-.5-.6-.2-1.3-.3-1.8 0-.7-.3-1.3-.3-2 0-1.1 0-2.2-.4-3.3l-.2-1.5-.3-1.5c-.1-.8 0-1.7-.4-2.4-.3-.5.1-1.2-.5-1.6l-.3-1.8v-1.9l-3.1-1.5c-1-.5-2-1-3.2-1l-.3.4c-.3 1-.4 1.9-.9 2.7-.6 1.3-1.4 2.5-2.3 3.7l-2.9 3.7c-.9 1-1.9 1.8-2.9 2.7a42 42 0 0 1-7.9 5.3l-2.8 1.1c-1.1.4-2.2.7-3.5.8-1.1 0-2.2-.4-3.3-.4l-6.9.3h-.2c-.6.5-1.3.1-1.8.3-.7.3-1.3.2-1.8.3l-.6.2c-1.6.5-3.1.8-4.8 1-1 .1-2.2 0-3.2 0-.7 0-1.4-.3-2-1a63 63 0 0 1-4.2.6Zm-61.3-35.3c.2-.9.3-1.8.7-2.6.6-1.4.6-3 1.4-4.4 0-1.8 1-3.4.9-5.2.5-.6.3-1.5.6-2.3.2-.7 0-1.6.3-2.3.3-.8 0-1.6.3-2.3.3-.6 0-1.2.3-1.7.3-.6.3-1.2.3-1.8v-.6c.4-.6.2-1.3.3-2l.2-2 .4-5.3v-.3c.6-.7.1-1.5.3-2.3H114c-1.5.2-2.8-.3-4.2-.3-2 0-4 .3-6-.3-2.3.2-4.4-.3-6.6-.3-1.2 0-2.4-.5-3.7-.3-.6-.5-1.4-.2-2-.3-.8 0-1.5-.3-2.2-.3-1.5 0-3-.5-4.6-.3l-.9-.3-.4.4c0 .9 0 1.6-.3 2.4-.3.7.2 1.5-.3 2.3 0 1.3-.4 2.7-.5 4-.2 1.5-.8 2.9-1.2 4.3l.5.2v2.5c0 .9 0 1.7-.3 2.6-.2.8 0 1.7-.3 2.4s-.1 1.4-.3 2a76.4 76.4 0 0 1-1.9 7.6l-.5 2.3c1.5.4 3 .4 4.3.7 1 .3 2.2 0 3.1.4.8.2 1.5 0 2.2.2.7.4 1.4.2 2.1.3h.3c.5.4 1.3 0 1.8.3.6.3 1.2 0 1.8.3.8.3 1.7 0 2.4.3.6.4 1.4-.1 1.8.6.7-.2 1.4.2 2 .2.7 0 1.3.2 2 .3 1.3.3 2.6.4 4 .6l4.4.3h1.9ZM48 30.8l1.2.4c1.3.6 3.8 2.6 4.4 3.3.6.7 1 1.5 1.6 2.1 2 2 3 4.6 4.2 7 .9 1.8 1.7 3.6 2.4 5.5l2.5 7 1.4 4.7 1.4 5.2c.2.6.1 1.3.4 2 .5 1.4.7 3 1 4.5.3 1.1.7 2.2.6 3.4h.1c.2.8.5 1.5.5 2.3L70 80c.4 1.2.6 2.5.8 3.7.2.9.1 1.9.4 2.7.5 1.4.4 2.8.8 4.3.2.5.2 1.2.3 1.8.2.6 0 1.3.3 2 .2.7 0 1.6.3 2.4.2.8 0 1.7.3 2.6.3 1.2.2 2.5.3 3.8v.3c.4.6.4 1.3.3 2 0 .6.3 1.3.3 2 .2 1.1 0 2.4.3 3.7.3.9 0 2 .1 3l.3 3v13.4c0 1.8 0 3.6-.2 5.4-.3 1.9 0 3.9-.4 5.8-.2 1 .1 2.2-.3 3.3-.2.6 0 1.3 0 2 .2.6-.3 1.2-.3 2 .1 1.6-.5 3.2-.3 4.8v.3c-.5.7-.2 1.5-.3 2.3l-.3 2.2-.1.9-.7 3.2 2 .1c1.6.5 3.2 1 5 .8.6-1.5 1-3 1.3-4.7l.3-1.5c0-.5-.1-1 .3-1.5-.3-.8.3-1.6.3-2.4 0-.9.2-1.7.3-2.5v-.6c.5-.5.1-1.1.3-1.7l.2-1.7c.1-.8 0-1.7.3-2.5.2-.9 0-1.8 0-2.7 0-.9.3-1.7.3-2.5v-15.4c.1-1.7-.2-3.4-.3-5 0-1.6.2-3-.2-4.6-.3-1-.1-2 0-3.1 0-1-.5-2-.4-3.1 0-1 0-2-.2-2.9-.3-1.3-.1-2.7-.3-4-.3-1.7-.2-3.3-.3-5v-.2c-.5-.5-.2-1.2-.3-1.7 0-.6-.2-1.1-.3-1.7L80 89v-.2c-.5-.4-.2-.9-.3-1.3 0-.5-.3-.9-.3-1.3 0-1-.5-1.9-.3-2.9-.6-1.3-.6-2.6-.8-4l-.8-3.8-1.1-5.2-1-4-1.4-4.9c-.4-1.7-1-3.3-1.3-5l-2-6.1a57 57 0 0 0-12-20.6 9.6 9.6 0 0 0-2.8-2c-.4-.1-.6-.2-1 0-2 .8-4 1.5-5.9 2.5-.2 0-.5.3-1 .6Zm170.8 34.4.7 2.8c.4 1.1.5 2.3.8 3.4.3.9.6 1.8.7 2.7 0 1.4.4 2.7.7 4l1 5.8.4 1.8.2 2 .7 4.3c.2 1.3.2 2.6.3 4v.2c.4.6.3 1.3.3 2-.1.6.3 1.3.3 2 0 1.2.1 2.5.4 3.6h7.7c2.2 0 4.3-.1 6.4 0 2.1 0 4.2 0 6.3.2 1.6 0 3.1-.1 4.7.2 1.1.3 2.4 0 3.7 0 0-1.5-.5-2.9-.3-4.4v-.1c-.6-.6-.2-1.3-.3-2-.1-.6-.3-1.3-.3-2 0-1-.2-2-.4-3a35 35 0 0 0-.5-3.5c-.2-.9-.4-1.7-.3-2.6-.6-.4 0-1.2-.4-1.7-.5-.6.2-1.4-.4-2l-.3-1.8c0-1.2-.4-2.5-.7-3.7l-1.1-5-.9-3.1c0-.4-.2-.7-.5-.8l-1.7-.3c-1.2-.1-2.4.2-3.6-.3-.7-.2-1.4 0-2 0-.8 0-1.5-.3-2.2-.3-1 0-2-.6-3.1-.3-.6-.5-1.4-.1-2-.3-.7-.3-1.4-.3-2-.3h-.5c-.7-.5-1.5-.1-2.1-.3-.7-.2-1.4-.4-2.1-.3-1.2 0-2.3-.5-3.5-.3h-.2c-.5-.6-1.2-.2-1.8-.3-.7 0-1.3-.2-2-.3ZM116 207.7h-2c-.8 0-1.5 0-2.2.3-.6.2-1.3 0-2 .3-.6.2-1.4 0-2 0-.8 0-1.5.2-2.2.3h-7.8c.1 1.3 0 2.5.3 3.7.2.8 0 1.7 0 2.5l.3 2.4c0 1.6.6 3.1.3 4.7v.1c.5.6.3 1.4.3 2l.3 2 .3 4.7v.3c.6.6.2 1.2.3 1.8l.3 2 .3 4.3v.2c.5.5.3 1.2.3 1.8l.3 1.8.3 4.2v.3c.5.4.3 1 .3 1.4l.3 1.5c.1 1 0 1.9.3 2.7.6 1.6.6 3.1.8 4.7.2 1.2.4 2.4.4 3.6 1.4 0 2.7.3 4-.3 1.2.2 2.2-.4 3.4-.3h.5c.5-.6 1.4 0 2-.6.7.2 1.5-.1 2.2-.3.9-.2 1.8 0 2.6-.3.7-.3 1.5 0 2-.3.9-.4 1.6-.2 2.4-.2h1l.4-.4-.2-.8c-.1-.7.1-1.5-.2-2.3-.4-.6.1-1.5-.4-2.2 0-1.6-.7-3.2-.6-4.8v-.5c-.5-.3-.2-.8-.3-1.2l-.2-1.3c-.1-.7 0-1.3-.3-2-.2-.7-.1-1.5-.3-2.3l-.3-2.2c-.2-1.6-.2-3-.6-4.6-.1-.7 0-1.5-.3-2.2-.2-.7 0-1.5-.3-2.3-.2-.5 0-1.1-.2-1.7-.2-.5-.1-1.2-.4-1.8-.2-.5 0-1.2-.2-1.8-.2-.6-.1-1.2-.4-1.8-.2-.6-.1-1.2-.2-1.9l-1-4.7c-.2-1.7-1-3.3-.9-5-.6-.5 0-1.2-.4-1.7s0-1.1-.3-1.8Zm-88.3-171 1.8 1 .5.2c.9.6 1.8 1 2.4 1.8l2.6 2.9a65.8 65.8 0 0 1 5.6 10l1.8 4.5.7 2.4c.6 1.5 1 3 1.4 4.6.2 1 .3 2 .6 2.9.5 1.5.8 3.1 1 4.7.3 1.3.8 2.5.7 3.8.7.6.2 1.5.6 2.3.3.7.1 1.7.4 2.5.2.7 0 1.5.3 2.1l.2 1.2.3 1.4c.1 1 0 2.1.4 3.1.2.8 0 1.6.3 2.3.2.5.3 1 .2 1.5-.1.7.3 1.1.3 1.7l.3 3.9v.3c.4.5.2 1.2.3 1.8l.3 1.8c0 1.3 0 2.5.2 3.8.3 1.3 0 2.7.3 4 .3 1.7 0 3.3.3 5 .2 1 0 2.2 0 3.3v3.4c0 1 .3 2 .3 3.1v5c0 1.8-.2 3.4-.3 5V141.3c0 .5-.3 1-.2 1.4.2.5 0 .8 0 1.3.2 3-.4 5.8-.3 8.8v.9c-.6.5-.2 1.2-.4 1.8l-.3 2-.2 1.5.7.4a4 4 0 0 1 2 .4l2.1.8c1 .3 2 .6 3.1.6 0-1 .1-2 .3-2.8.2-1.5 0-3 .3-4.5.2-1 0-2.2.3-3.3.2-1.2 0-2.5.3-3.7.2-1.3 0-2.5.3-3.8.2-1.2 0-2.4 0-3.6 0-1.2.4-2.4.3-3.6-.2-6.8.3-13.6-.3-20.4l-.3-7v-.3c-.5-.7-.4-1.5-.3-2.1 0-.8-.3-1.5-.4-2.3l-.2-4.6V99c-.4-.6-.4-1.3-.3-2l-.3-1.9-.3-2.3c-.1-.7 0-1.5-.2-2.2-.2-.7-.1-1.4-.4-2.1-.2-.7 0-1.4-.3-2.1-.2-.6.1-1.2-.3-1.9-.2-.5 0-1.2-.3-1.9-.2-.6 0-1.2-.3-1.8l-.3-1.8-.3-1.8-.4-1.9-.3-2-.8-3c-.2-1-.3-1.9-.6-2.7l-1.2-3.9c-.3-1.3-.6-2.6-1.1-3.8-.4-1-.8-1.8-1-2.8 0-.5-.3-1-.5-1.4-.1-.5-.1-1.1-.4-1.6-.7-1.3-1.2-2.7-1.7-4a65.8 65.8 0 0 0-6.5-12.3c-2-2.5-3-3.4-5-4.4-2.4 1.3-5.1 2.2-7.8 3.4ZM30.5 192l1-1a41.5 41.5 0 0 0 4.3-9.2v-6.4c0-1.1.3-2.1.3-3.2 0-4.7.1-9.5-.3-14.3-.2-4.2 0-8.3 0-12.5v-12.7c0-4-.3-8.2.3-12.3v-53c-.5-1.2-.7-2.5-1.2-3.8-.9-2.3-1.5-4.7-2.7-7l-.3-.6c-.3-1.5-1.5-2.7-2-4.1H28l-1 .7.4 2.3v11.3c0 3.8-.1 7.6.2 11.4.3 3.5 0 7 .1 10.4.1 3.5-.1 7 .3 10.4.2 2.6 0 5.3 0 8v8.2c0 2.7-.2 5.4 0 8 .4 2.7.3 5.4.3 8V157h2.5c1.1 1 1.4 2.3 1.6 3.6.2 1 0 2 0 3 0 .7-.4 1.4-.7 2-.4.6-1 .6-1.5.8-.8-.4-1.5-.1-2.2-.2l.2 1v6.7l.4 6.6c0 2.3.5 4.6.3 6.9l.2.3c-.4 1-.1 2.1-.2 3.2l1.5 1.1Zm222.8 9.8-1 .5c-1.9.1-3.5.8-5.4.7-.2 0-.6-.2-.8 0-.5.3-1 .3-1.6.2-.6 0-1.1.3-1.7.3-1 0-2.1-.2-3.1.3-1.4-.3-2.8.3-4.2.3l-1 .7c-.2 1.3.5 2.4.3 3.7.5.6.1 1.4.4 2 .2.8.5 1.5.5 2.2 0 .9.5 1.6.3 2.4v.5c.5.7.4 1.5.6 2.3.2.8.2 1.7.3 2.5.2.8.1 1.8.4 2.6.4 1.5.5 3 .7 4.5.3 1.6.7 3.2.7 4.8.5.7.2 1.5.4 2.1.2 1 .5 2 .5 3v.5c.6.6.1 1.3.3 2 .3.6.5 1.3.5 2 .1 1.3.7 2.5.7 3.8.4.4.1 1 .3 1.5l.2 1.6c0 .6.4 1 .3 1.5-.1 1.3.3 2.4.4 3.7.8-.9 1.9-.9 2.8-1 1.8 0 3.5-.5 5.3-.3h.5c.6-.5 1.4-.2 2-.3l2.1-.2c.8-.1 1.5.2 2.1-.3 1.3.1 2.4-.5 3.5-.7.3 0 .5-.3.7-.4l-.3-1c0-1.1-.3-2-.3-3.1 0-1-.4-2-.6-3 0-.7 0-1.5-.3-2.1l-.2-1.3-.3-1.3c-.1-1 0-1.9-.3-2.7-.5-1.6-.5-3.2-.9-4.7-.2-.9 0-1.9-.3-2.7-.5-1.3-.4-2.7-.8-4-.3-.8 0-1.8-.4-2.5-.4-.9 0-1.7-.6-2.5-.2-.4.2-1-.2-1.7-.4-.4-.3-1.2-.4-1.8l-.3-1.6-.3-1.5c-.3-.7-.2-1.5-.4-2.1-.3-.7-.3-1.5-.5-2.2-.2-.8 0-1.6-.3-2.4.2-1.5-.5-3-.3-4.8ZM222.8 167c.1.6-.1 1.2-.2 1.7-.1 1.3-.3 2.6-.7 4-.2 1-.4 2-.8 3l-1 3c-.7 2.4-1.5 4.8-2.5 7l-1 3h.8c.7-.4 1.4-.4 2.1-.4.2 0 .4.1.4 0 .6-.4 1.2-.2 1.7-.2l1.8-.3c.8 0 1.4 0 2.2-.3.6-.3 1.4 0 2.1-.3.7-.2 1.5-.2 2.3-.3l4.3-.6c1.7-.1 3.3-.3 5-.6l4.2-1 2.2-1c.3-.4.6-.7.7-1.2l.7-2 .8-2.2c.3-.7.5-1.4.6-2.2.1-.8.8-1.4.7-2.2a23 23 0 0 0 1.4-7.3v-.5c.7-.6.2-1.5.6-2.2.4-.6.2-1.6.3-2.3l.4-2.1c.3-.8.4-1.6.5-2.4l.6-2.6c.2-.8.2-1.6.3-2.6-.5 0-1.2-.2-1.6 0-.4.3-.8.2-1.2.3l-1.4.3c-.8 0-1.6-.1-2.4.3-1.7-.2-3.3.4-5 .3-2 0-4 .6-6 .4-1.1.5-2.2.2-3.4.2l-1.3.2-3.6.2c-.8-.6-1.7-.2-2.5-.4l-.6 5-.7 3.7c-.2 1.3-.7 2.6-1.3 3.9v.2c0 .2.2.3.5.5ZM113.3 63.4l-.5-1.6c-.2-1.7-1-3.3-1.4-4.9-.4-1.5-1-3-1.5-4.4l-2-5.3c-.8-2.2-1.9-4.3-2.9-6.4l-1-2a8 8 0 0 0-2.5.3c-.7.2-1.4 0-2.1.2-.7.3-1.4.2-2.1.3-1.5.3-3 .3-4.4.6l-3.6.6-4.2.7c-.4 0-.8.2-1.1.3h-1.2c-1.2.5-2.5.7-3.8 1-.6 0-1.3 0-1.8.2-1.2.5-2.4.6-3.7.8l-2.2.5C74.6 52 76.5 60 78.5 68c1.1-.2 2.3-.6 3.5-.6.6-.6 1.4 0 2-.4.7-.3 1.3 0 2-.3.6-.2 1.3-.2 2-.3h.6c.4-.4.9-.2 1.3-.2.6-.1 1-.3 1.6-.3.7 0 1.5 0 2.2-.3.7-.2 1.5 0 2.3-.3.8-.2 1.7 0 2.5-.3.9-.2 1.8 0 2.7-.3.8-.2 1.6 0 2.5-.3.7-.3 1.6 0 2.5-.3l3-.3c1.3-.2 2.7.1 4.1-.4Zm71.3-39.8h-.5c-1.6-.4-3.2-1-4.9-.9-.6-.6-1.3-.2-2-.3-.7 0-1.3-.3-2-.3-1.3-.1-2.5.1-3.8-.3-.8-.2-1.7 0-2.5 0-.9.1-1.6-.3-2.4-.3-1.5 0-3 0-4.4-.3-1-.2-2.3-.1-3.4 0-1.2.1-2.3-.4-3.5-.3h-10.4c-.8-.2-1.6 0-2.4 0h-4.6c-1.5 0-3 0-4.5.3-1.9.3-3.9-.1-5.8.3-1.5.3-3 0-4.5.3-1.3.2-2.8 0-4.2.3-1 .2-2 0-2.9.2-1 .3-2 0-3.1.4l-3.5.4 2.3 2.8c.7 1 1.5 1.8 2 2.9l1.9 3c.6 1 .8 2.2 1.6 3 1-.1 1.8-.5 2.7-.5l2.4-.3 2.4-.3 3-.3c1.5-.2 3 0 4.5-.3 1.6-.3 3.2 0 4.8-.3 1.2-.2 2.4 0 3.6 0 1.2.1 2.4-.4 3.6-.3 8.5.1 17-.3 25.4.3 1.5.1 3-.2 4.6.2.9.3 1.9.1 2.8 0 1 0 1.8.3 2.7.3 1.4 0 2.8 0 4.1.3 1.9.3 3.8.2 5.7.3l.9.1c.6.5 1.2.2 1.8.2a67 67 0 0 0-7.5-10.6Zm62.7 42.6v-.7c-.6-1-.7-2.3-1.2-3.5-1.1-3.3-2.3-6.7-3.7-9.9l-3.4-6.8-1-1.5c-.8 0-1.4-.5-2.2-.6-1.4-.1-2.7-.8-4.2-1-1 0-1.9-.6-2.8-.7-1.7-.1-3.2-1-4.8-1-2-.8-4.2-.8-6.3-1.4l-2.6-.6c-.8-.2-1.8 0-2.6-.4-.7-.3-1.4 0-2-.4-.6-.3-1.5-.2-2.2-.3 0 .2.2.3.3.4 1.5 3.2 3.2 6.5 4.6 9.9.4 1.1 1 2.2 1.3 3.4l1.1 3c.5 1 .7 2 1 3 .2 1.2.8 2.2 1 3.5 0 1 .6 2 .9 2.8l2.7.4c1.2.1 2.5 0 3.8.3 1 .2 2 0 3 .3.8.2 1.7 0 2.5.3.5.2 1.3-.1 1.8.1.6.4 1.1.2 1.7.3l1.6.2 2.2.4c.7.1 1.5 0 2.2.2.6.2 1.3 0 2 0 .5.1 1.1.3 1.8.3h3.5ZM26 54.2c-1 1.9-1.8 3.8-2.5 5.7-.6 1.9-1.2 3.8-1.6 5.8l-.7 3c-.2 1-.5 2-.5 3.1v3.7c-.2 1.3.3 2.5.3 3.8v5.8c.1 1-.4 1.9-.3 2.9v45.7c0 3.8.3 7.6-.3 11.3v3.3c0 1 .3 2 .3 2.9 0 2 .1 4 .4 6.1h5.7l.5-.4V115c0-4.7.2-9.3-.3-13.9-.2-2.4 0-4.8 0-7.3s0-4.9-.2-7.3c-.3-3.3 0-6.7 0-10s-.6-6.7-.4-10v-8.1l-.4-4.3ZM108 199.8c1.4-3 2.5-6 3.6-9l-4.7-.5h-.5c-.4-.4-.9-.2-1.3-.3l-1.4-.2c-1 0-1.8-.6-2.8-.4-1.4-.6-2.9-.4-4.3-.8-.8-.3-1.8 0-2.5-.4-.9-.4-1.7 0-2.5-.5-.5-.3-1.2 0-1.8-.3-.6-.2-1.2 0-1.8-.4-1.6 0-3-.5-4.5-.6l-1.3-.3c-.4 0-.9.2-1.2-.3l-3-.3a7 7 0 0 0-.4 1c-.1.2 0 .6-.2.9l-2.5 7.2-2.4 6-2.2 4.8-.2 1H72c.6 0 1.2.3 1.7.5s1.1 0 1.7.4c.4.3 1 .2 1.6.3l3.4.7c.5.2 1 0 1.4.2.5.5 1 .2 1.6.3.6-.8 1.3-1.5 1.8-2.4l1.7-3c.6-1.3 1.7-1.8 2.9-2 1.3-.3 2.6-.3 3.9-.3h.9c.5-.5 1.2-.3 1.8-.4l1.8-.2c1-.1 1.8 0 2.7-.3.8-.2 1.7 0 2.5 0 .9 0 1.6-.5 2.4-.4h2.2Zm77.3 22.2.1.3 3-.9c1.7-.4 3.4-1.1 5.3-1.3a2 2 0 0 0 1-.3l1.9-1.3c1.9-1.8 3.6-3.7 5-5.8.9-1.3 1.6-2.7 2.4-4l3.3-6c2-3.5 3.5-7.2 5.1-11l1.7-4 2-5.4c1-2.5 1.7-5 2.6-7.6.4-1.2.4-2.6 1.1-3.7-.2-1 .7-1.8.3-2.6l-1 .1h-6.7c-.8 0-1.5.3-2.1.7 0 .5.2 1.2 0 1.5-.4.5 0 1.2-.4 1.5-.4.4 0 1-.3 1.4-.3.4-.5 1-.5 1.4-.1 1.3-.8 2.4-1.2 3.7-.3 1.2-.8 2.5-1.3 3.7l-1.4 3.5c-.6 2-1.5 3.7-2.1 5.7-.3.9-1 1.6-1.2 2.5-.7 2-1.6 4-2.5 6-1.6 3-3 6.2-4.8 9.3l-3.2 5.2c-.8 1.4-1.8 2.5-2.8 3.8-.5.6-1.2 1.1-1.6 1.8-.4.8-1 1.4-1.7 1.8ZM70.7 164.4l.3.6c.2 1.8-.4 3.5-.3 5.3-.4.3-.2.8-.3 1.2l-.3 1.2c0 .8 0 1.7-.3 2.4s-.1 1.3-.3 1.8c-.6 1.8-1 3.7-1.4 5.5l-1 3.8c-1 2.7-1.8 5.4-3 8a135.3 135.3 0 0 1-5.3 11.8 14.6 14.6 0 0 1-5 5.6l-1.7 1 .5.4 3.7 1c1.4.1 2.8.4 4.2.8l1-.4c1.6-1.5 3.2-3.1 4.2-5.2 1.2-2.7 2.7-5.3 3.9-8 .4-1.1 1.1-2.1 1.4-3.2.3-1.2 1-2.3 1.3-3.5.3-1.2.9-2.3 1.3-3.5.6-1.5 1.2-3.1 1.6-4.7.4-1.8 1.2-3.4 1.2-5.3.5-1 .6-2 .9-3 .3-1 .6-2.2.6-3.3.7-.6 0-1.5.6-2-.2-.8.3-1.4.4-2.1 0-1 .2-1.8.5-2.7l.4-2.3c-3.2.4-6-.6-9.1-1.2ZM37.3 73.7v37.4c.1 4-.3 8 .3 12.1.2 1.3 0 2.7 0 4 0 1.3.2 2.6-.3 4 .7.2-.1.7.2 1.2.3.5 0 1.2 0 1.8v40.6l.1 1.2.8-2.6 1-4.2c0-1.3.7-2.5.5-3.8.6-1.3.4-2.9 1-4.2 0-.5-.2-1.2 0-1.6.4-.5.2-1 .2-1.5l.3-1.5c.1-1-.1-2 .3-3-.1-2 .5-4.2.4-6.3v-1l.2-.9c-.3-.7-.3-.7-.2-1l.2-.7v-2.4c.1-.7-.2-1.5.3-2.3-.4-.3-.2-.7-.2-1.1l.2-1c0-.4.2-.8-.1-1l.1-1c0-3.4.2-6.8-.2-10.2-.4-3.6.1-7.3-.3-10.9-.3-2.1 0-4.4 0-6.5 0-2.2-.6-4.4-.4-6.6v-.5c-.4-.6-.3-1.3-.2-2 0-.7-.3-1.3-.4-1.9 0-.8 0-1.6-.2-2.4-.3-.8 0-1.6-.4-2.4-.2-.7 0-1.4-.3-2.2-.2-.6-.1-1.3-.3-2-.1-1.2-.3-2.4-.6-3.5-.2-.8 0-1.6-.3-2.4-.3-.7-.1-1.6-.6-2.3 0-1.9-.6-3.6-1-5.4Zm207.4 112.8c-1.3.7-2.6.5-3.8.9-.6.2-1.4.1-2 .3l-2.2.3c-1.2.2-2.5.2-3.7.3h-.3c-.4.4-1 .2-1.4.3l-1.5.3-3.7.3h-.3c-.5.6-1.2.2-1.8.3l-1.9.3c-2-.2-4 .5-6 .3-.3.6-.8 1.1-.9 1.7-.3 1.6-1.1 3-1.8 4.4-.8 2-1.6 3.9-2.6 5.7-1.2 2.2-2.2 4.5-3.6 6.6-.4.5-.7 1.2-1 1.8l4.8-1.1 4.9-1c1.6-.2 3.2-.6 5-1 1.4-1.3 2.2-3.1 3-5 .4-1 .7-2 .6-3 .8-.8 1.5-1.6 2.6-1.8.9 0 1.7-.3 2.5-.4h1.2c.6-.5 1.3-.3 2-.4.7 0 1.4-.3 2-.2 2 .1 3.9-.5 5.8-.4l1.3-2.6c1-2.2 2-4.4 2.8-7ZM103 36.9a59.5 59.5 0 0 0-7.7-10.7c-.8.2-1.8.2-2.6.5-.6.3-1.2 0-1.8.2-.8.3-1.6.5-2.5.6a8 8 0 0 0-2 .3c-2 .7-4.2.8-6.3 1.5l-3.5.8c-.9.2-1.7.5-2.6.6-1.7.1-3.2.7-4.8 1-1.4.2-2.8.7-4.3.9v.5l3.3 5c1 1.6 1.6 3.3 2.5 5 1.5-1 3.2-1.2 4.8-1.6l3.8-.7c.7-.1 1.4 0 2-.3l1.2-.3 1-.2c1-.1 1.9-.1 2.8-.4.6-.2 1.4 0 2-.3.4-.2.8-.2 1.3-.2l1.5-.3 1.4-.3 3.1-.3h.4c.4-.5.8-.2 1.2-.3.5 0 1-.2 1.4-.3.7 0 1.4 0 2-.2l2.4-.5Zm173.6 110.6c.2-1 .5-2 .4-3 .4-.6.2-1.2.3-1.8l.3-1.9c0-.9 0-1.8.2-2.7.2-1 0-2 .4-3.1-.3-2.7.3-5.3.3-7.9v-18.8l-.5-.4h-1.4c-.6-.4-1.2-.2-1.8-.3-.6-.1-1.2-.3-1.9-.3H270l-1.3-.3c-.1.7.1 1.3.2 2 .2 1 0 2 0 3l.3 3v20.6c0 1.3.3 2.7-.3 4v2.7c0 .4.2.8-.2 1.2-.4.3.4.6 0 1-.3.2-.1.9-.1 1.3v1c-.5.6-.3 1.1-.3 1.7.9 0 1.5 0 2.3-.3.6-.3 1.4 0 2-.3 1-.4 2-.3 3-.4h1Zm-205.2.2c.2-1.3 0-2.6.3-4 .3-1.2 0-2.5.3-3.8.2-1 0-2 0-3.1 0-1 .4-2 .4-3-.1-3.4-.2-6.9 0-10.3 0-3.4-.4-6.8-.4-10.1 0-1.3-.2-2.5-.4-3.7h-1.7c-.6 0-1.1.3-1.6.3-1.9-.1-3.6.4-5.4.3h-1.1c.1.6.3 1 .3 1.6.2 1.5-.2 3 .4 4.4-.3 3.4.3 6.8.3 10.2v5.2c0 1.7 0 3.5-.3 5.2-.2 1.7 0 3.5 0 5.2v1.4c-.6 1.3-.2 2.7-.3 4 1 0 2 .6 3 .4 1-.2 1.9.4 2.9.3h3c0-.2.1-.3.3-.5Zm112.8 72.1c.3-.4.6-1 1.2-1.3.6-.3.7-1 1.1-1.4.5-.4.8-1 1.3-1.6h-.7c-.9.4-2 .4-2.9.5-1 .1-2.1.6-3.3.3-.6.4-1.3.4-2 .3l-1.9.3c-1.3.1-2.7 0-4.2.3-1.7.3-3.5 0-5.4.3-1.5.3-3 .1-4.6 0-1.6-.1-3 .4-4.6.3-7.4-.1-14.9.4-22.3-.3-1.1 0-2.3.2-3.4-.2-.6-.3-1.4 0-2 0l-2-.3-4.7-.4h-.1c-1.2-.5-2.4-.1-3.5-.3l1.2 6.5.3.4 2.4.2c1.4.2 2.7 0 4.1.4h5.5c.6 0 1.3-.1 1.8.2.6-.6 1 .5 1.6.1 1.8.2 3.7-.3 5.5-.3h4.6c1.5 0 3 0 4.5-.2 1.7-.4 3.4 0 5-.4 1.4-.2 2.8 0 4.1-.2 1.2-.3 2.5-.1 3.8-.4 1.3-.2 2.7-.2 4.1-.3h.3c.6-.5 1.2-.2 1.8-.3l1.9-.2c1 0 2-.6 3.1-.4.5-.3 1-.2 1.5-.3l1.5-.2c.5 0 1 0 1.4-.3.4-.3.9 0 1.4-.3.8-.4 1.6-.3 2.6-.5Zm-133.9-59-.4 3.4v.4c-.4.9-.3 1.8-.6 2.6-.2.7 0 1.5-.3 2.1-.7 1.8-.5 3.8-1.4 5.5 0 1.8-.8 3.4-1.2 5-.2.8-.3 1.8-.7 2.4-.4.8-.5 1.6-.7 2.4l-1.7 5a30 30 0 0 1-1.7 4.2c-.7 1.5-1.3 3-2.2 4.4-.8 1.3-1.7 2.5-2.4 3.8-2 1.8-3.4 4-6.1 4.9l.4.5c2 .4 3.9 1 5.8 1.5.6.1 1.4.2 1.7 1l1.4-1.2c1.5-1.5 2.9-3 4.2-4.7 1-1.4 1.6-3 2.6-4.3.1-1 .8-1.9 1.2-2.8l2-5 2.5-7.6 1.2-4c.3-.9.7-1.8.9-2.8.3-2.3 1.4-4.5 1.5-7 .6-1 .4-2.3.9-3.5.3-.7.2-1.6.3-2.4l.5-2c-1.8.3-3.4-.4-5-.9-1-.1-1.8-.5-2.7-.9Zm21.1-53.3c-.1-1 .2-2.2-.2-3.3-.3-.7 0-1.6-.3-2.4-.3-.8 0-1.6-.3-2.4-.3-.8 0-1.5-.3-2.3-.2-.7-.2-1.5-.3-2.2 0-1.7-.7-3.2-.6-4.8-.5-.7-.2-1.4-.4-2.1-.2-.8-.5-1.6-.5-2.5 0-.8-.5-1.4-.3-2.2-.6-1.1-.4-2.4-.9-3.5.2-1.4-.7-2.6-.6-4-.6-1.2-.5-2.7-1-4-1.3-.2-2.5.5-3.8.3h-.1c-.5.5-1.1.2-1.7.3-.6 0-1.1.4-1.8.3H57c0 1.6.7 3 .7 4.3.5.6 0 1.4.3 1.8.3.5.1.9.3 1.3l.2 1.4c0 .9.6 1.8.4 2.8.4.6 0 1.5.3 2.1.3.7.2 1.4.3 2.2v.2c.4.6 0 1.4.3 2 .3.7.2 1.4.3 2v.5c.5.6.2 1.2.2 1.8.1.6.3 1.2.3 1.9l.3 4.2v.1c.5.6.4 1.3.3 2 0 .7.4 1.4.3 2 0 1.4 0 2.6.4 3.7 3-.7 6.3-.8 9.4-1.5Zm206.8-1.6c-.2-1.5 0-2.8-.3-4.2-.3-1 0-2.1-.3-3.3-.2-1 0-2-.3-3-.3-1.2-.3-2.5-.3-3.7v-.3c-.8-.6 0-1.6-.6-2.1 0-.9-.2-1.7-.4-2.5 0-.7-.1-1.6-.3-2.3-.4-1.1-.5-2.3-.8-3.4-.4-1.2-.7-2.3-.9-3.5-.3-1.4-1-2.7-1-4-.4-.3 0-.8-.4-1.1a3 3 0 0 0-.8-.5c-1-.4-2-.8-3-1-.7-.2-1.3-.5-2-.6-.8-.1-1.4-.5-2.2-.5-.7-.1-1.3-.7-2-.4l.3.4.6 2.3.5 2.4c.2.6 0 1.4.4 1.8.4.5 0 1.1.5 1.6.3.5.1 1.2.3 1.8l.6 2.8.4 3 .3 1c0 .4-.2 1 0 1.3.4.7 0 1.4.3 2 .3.7.3 1.4.3 2.1v.4c.5.6.2 1.2.3 1.7l.3 1.8c0 .8-.2 1.7.3 2.5-.2 1.4.3 2.9.3 4.3 0 1 0 1.9.4 2.7l.8-.2c1.5-.2 3 .5 4.6.3.4 0 1-.2 1.3 0 1 .5 1.8.2 2.8.4ZM61.8 149c0 .6.2 1.4 0 1.9-.4.6-.2 1.1-.3 1.7l-.3 1.8c0 1-.5 2-.3 3-.5.6 0 1.4-.4 2-.5 1-.3 2-.8 3l.1 1.2c.3.4.2.8.2 1-.3 1.3-.3 2.6-.7 3.8l-.2.7c-.1.8 0 1.7-.4 2.4-.3.8-.3 1.6-.5 2.4l-.6 2.6-.8 2.9c1.3.5 2.9.4 4.2 1 1.4.5 2.9.4 4.3.8 0-.2.3-.3.3-.6.6-2.2 1.1-4.5 1.5-6.8l.7-3.9c.1-1.2.2-2.5.6-3.7.2-.9 1.3-1.6.5-2.7l.2-.2.4-1.6c0-.6.2-1.1.3-1.7.2-.6.4-1.2.3-1.8-.2-.6.2-1.1.3-1.7.1-1-.2-2 .2-3.2.3-1 0-2 .4-3-3.2-.1-6.1-.5-9.2-1.3Zm214.4 17 .3 1.7v3.8c0 .8-.2 1.6-.4 2.3l-1.6 4.3c-.3.8-.5 1.7-1 2.4-.7 1-.8 2.2-1.7 3-.6 2-1.6 3.6-2.3 5.5-.3 1-.8 2-1.4 2.8l-1.4 2.9-2 3.2c-.7 1-1.3 2.1-2.1 3.1-1 1.2-2 2.3-3.2 3.1l-2.6 2c1.1.2 1 0 2-.1 1.3-.3 2.5-1 3.8-1.3.7-.2 1.5-.5 2.1-.9.7-.4 1.4-.8 2-1.4 1.8-1.7 3.6-3.4 5-5.5 1-1.6 2.1-3.1 3-4.8l1.6-2.8c1.3-1.8 2-4 3.1-5.8 0-.8.6-1.3.8-2l.8-1.8.8-2 2.9-6.9c.7-1.8 1-3.7 1.3-5.5l-1.5-.4c-1.4-.2-2.7 0-4 .3l-4.3.9Zm-158.8 39.4 1-2.4c1-1.8 1.7-3.8 2.4-5.6 1.3-3.3 2.3-6.8 3.4-10.1l1.5-5 .7-2.6.7-2.5c.3-.8.1-1.7.4-2.5l.5-2.6.6-2.7c-1.3-.3-2.7-.7-4.1-.7-.5 0-1 .2-1.3 0-.5-.3-1-.2-1.4-.3l-1.5-.2c0 1.4-.5 2.6-.3 4v.2c-.5.5-.2 1-.3 1.5 0 .6-.2 1-.3 1.5 0 1-.3 1.8-.5 2.7l-1 3.9c-.2 1.7-1 3.2-1.3 4.8 0 .6-.5 1-.5 1.6 0 .5-.4 1-.6 1.6l-2.5 6.5-2.2 5c.2.1.2.3.4.3l2.5 1c1.4.4 2.7 1.2 3.7 2.6Zm90.7-169c1.8-.2 3.6.1 5.5.3.8 0 1.6.3 2.5.3.6.7 1.6-.2 2.1.5.9 0 1.6.2 2.5.3.7.1 1.4.5 2.2.3.4.4 1 .2 1.4.4l1.5.3c1 .2 2 .6 3.2.5.5.5 1.2.4 1.8.6l1.8.3 1.8.6 2.3.4c-2.4-3.6-4.5-7-7.4-10h-.2c-2.1-.3-4.1-1-6.2-1.5l-5.7-1.4c-1.1-.2-2.3-.6-3.5-.6-.5-.5-1.2-.4-1.8-.5-.7-.3-1.4-.2-2.1-.4-.7 0-1.3-.3-2-.4-1-.2-2.1-.6-3.2-.7-1-.1-2-.5-3-.8l-.6-.1c1.2 2 2.6 3.7 3.7 5.7s2 4 3.4 5.9Zm41.7 162.1.8-1c1-1.5 1.8-3.1 2.7-4.7.4-.7 1-1.2 1-2 .7-.8.9-1.9 1.5-2.7.6-.8.6-2 1.4-2.7.4-1.5 1.3-3 1.7-4.5 1-3 2.2-5.9 3.3-8.8.6-1.7.9-3.4.6-5.3-.8.1-1.4.4-2 .3-2.2-.2-4.3.5-6.5.3l-.4.7-.3 1.5-.3 1.5c0 .7-.3 1.3-.5 2a33 33 0 0 1-.6 2.1l-1 2.9-2.7 7.2c-.7 2-1.6 3.9-2.4 5.8-.8 1.8-1.7 3.4-2.6 5.1 1 .5 2 .8 3 1 1.1.4 2.1 1 3.3 1.3Zm19.8-18.9.9-3c.2-1 .8-1.8 1-2.7.3-1.4 1-2.7 1-4.3.6-1.5 1-3.2.8-5l.3-1.5c.1-.6.1-1.3.4-1.7.4-1 .4-2 .7-3l.7-3.2c.1-1.5.6-3 .6-4.6l.3-.8-7 .4H268c-.2 1 0 1.7-.3 2.7-.3.8 0 1.7-.3 2.7-.3.5-.2 1.1-.3 1.8-.2.6-.2 1.3-.3 2-.3 1-.4 2.2-.8 3.3-.3.9-.6 1.7-.4 2.7l.3 1.2c-.1 1.2 0 2.4-.2 3.6l-.8 2.9-1.4 3.4c-.5 1.2-1 2.4-1.2 3.7l-.4 1.2c.7.2 1-.2 1.6-.2 1.8-.2 3.3-1 5-1.3l1-.3ZM49.6 49c.7 1.4 1.3 2.6 1.7 3.9.6 1.8 1.3 3.6 1.8 5.5l1.6 5.6 1.7 7c.1.3.4.5.5.6 2.8-.3 5.5-1 8.3-1.2-1.8-8-4-15.7-7.3-23.2-1.3 0-2.4.6-3.6.8-1.5.2-2.8 1.2-4.6 1Zm-24.4.6c-.5.5-1.1 1-1.5 1.6-1.2 1.8-2 3.7-2.8 5.7-.7 2.3-1.6 4.5-2 6.9-.6.4-.2 1.1-.6 1.7-.3.5-.3 1.2-.4 1.8 0 .5 0 1.2-.4 1.5-.4.6 0 1.2-.4 1.8-.4.6-.3 1.4-.3 2.1 0 .9-.5 1.7-.3 2.5-.7.8-.2 1.7-.6 2.5-.3.6 0 1.3-.3 2-.3.6.1 1.4-.4 2 0 1.5-.3 3-.6 4.4-.2 1.3-.2 2.6-.3 4v.2c-.4.6-.3 1.3-.3 2 .1.6-.2 1.2-.3 1.9-.1 1 0 2-.2 3.1-.3 1.5-.1 3-.3 4.4-.3 1.5.2 3.1-.4 4.6 0 2.4 0 4.8-.2 7.2-.2 2.3 0 4.6 0 7 0 2.3-.1 4.6.2 6.9.3 2.4-.1 4.8.3 7.3.3 1.2-.2 2.5.3 3.7-.2 1.8.4 3.6.4 5.3 2.2 2.3 1.8 1.6 2.2 3.7l.1-.2c0-.7 0-1.4-.2-2.1-.3-1 0-2-.3-2.9-.2-.5 0-1.2 0-1.8l-.3-1.8c-.2-1.4 0-2.8-.3-4.2-.3-1.2-.1-2.5 0-3.7.1-1.3-.3-2.5-.3-3.7v-7.2c-.2-2.3.2-4.7.3-7 0-2-.3-3.9.2-5.8.3-1 .1-2 0-3s.4-2 .3-3c-.1-2 .5-3.7.4-5.6v-.1c.4-.6.3-1.3.2-2 0-.7.4-1.3.4-2l.2-4v-.1c.5-.4.4-1 .3-1.5 0-.6.3-1.1.3-1.7.1-1.1.1-2.3.4-3.4.1-.8 0-1.6.3-2.1.3-.6.2-1 .2-1.6l.3-1.5c0-.9.5-1.7.3-2.5.5-.5.3-1 .4-1.6l.2-1.6.3-1.5c.1-1.3.6-2.6.6-4l.3-.9c0-1.2.5-2.4.9-3.5a28 28 0 0 1 1.2-3.5c.7-1.8 1.7-3.2 2.9-4.3.7-.6 1.4-1.1 2.4-1.1.2 0 .5-.3.8-.5-1-.2-2 .2-2.4-1-.4.2-.8.2-1.2.2ZM252 45l.7 1c1 1.2 1.5 2.7 2.2 4 1.6 3.2 3.2 6.4 4.4 9.8.7.8.6 2 1.1 2.8.4.8.8 1.6.9 2.5.1 1 .8 1.6.7 2.5 0 .2.2.2.4.4h2.5c1.2.6 2.5.5 3.7.9l2.9.5c-2.3-7.4-5.1-14.5-8.9-21.3-1.8-.3-3.4-1.3-5.2-1.7-1.7-.4-3.4-1.1-5.4-1.4ZM56.5 180.8l-.4.7c-.4 1.7-1 3.3-1.5 4.9l-1.4 4-1.6 4.3c-.4 1.4-1 2.7-1.7 4l-1.4 2.9 8.5 2c3.3-6.6 6-13.4 8-20.6-.5-.2-1-.5-1.6-.4h-.7l-6.2-1.8Zm-37.1-30.6c0-.5.2-1.2 0-1.5-.4-.5 0-.8 0-1.2 0-2 0-3.8.2-5.7.3-2 .1-4 0-6.1 0-2 .5-4 .4-6v-6.1c0-2-.4-4-.4-6v-38c-.2.6 0 1.3-.3 1.6-.4.6-.1 1.2-.2 1.7l-.3 1.8c-.1 1.3 0 2.6-.4 3.8l-.2 2-.3 2c-.1 1 0 2-.3 3-.2 1.4 0 2.9-.3 4.3-.2 1.4.2 2.8-.3 4.2-.2.6 0 1.3 0 2v1.7c.1.6-.3 1.1-.2 1.8l-.1 1.7V127c0 2.6-.2 5.2.2 7.8.2 1.3 0 2.6 0 3.8.6.7.4 1.5.3 2.2 0 .7.4 1.5.4 2.2 0 1-.2 2 .3 2.9-.3 1.2.5 2.4.3 3.7l1.2.6Zm29.2-4.2c0-1.4.3-2.6.3-3.9v-23.3l-.3-7.8v-.4l-4.4 1.3c-.1 1 .2 2 .3 3v16.3c0 2.7.2 5.3-.2 8-.3 1.5 0 3.1 0 4.5l4.3 2.3Zm-18.3 18.2c1.1-2.4 1-3.1-.3-5h-6.6c-.3 0-.7-.2-.9 0-.4.4-1 .4-1.5.2-.5-.3-1.1.4-1.5 0-.3-.5-.5.2-.8-.2h-1c-1.4 0-2.8-.1-4.1.2-1.2.2-2.4 0-3.3 0-.8-.3-1.4-.6-2-.7l-3-.8H3l.5 1 .4 2.6c.2.9-.6 1.7-.2 2.6.8 0 1.4.3 2.1.3h6.4l6.3.3h1.8c1.6 0 3.1 0 4.7-.2 1.7-.3 3.4-.6 5.2-.4 0 .1 0 0 .1 0ZM44 176.4l.2-.2c.2-1.2.8-2.3 1-3.5 0-.6 0-1.3.2-1.8.3-.6.3-1.3.5-1.8.2-.7 0-1.6.4-2.1.4-.7.2-1.4.5-2 .3-1 .6-2 .6-3 .1-1.4.5-2.8.6-4.1 0-1.5.4-3 .3-4.5 0-1-.2-2 0-2.8.3-1 .2-2 .3-3.1h-1c-1.5-.6-2.4-1.6-3.7-1.7v1.8c0 .6-.3 1-.3 1.6-.2 1 0 2-.3 3-.3.8 0 1.9-.3 2.9-.3 1.2-.2 2.5-.4 3.7v.3c-.4.5 0 1.3-.3 1.8-.2.6-.2 1.2-.2 1.8v.4l-.6 2c0 .6.2 1.1-.2 1.6-.3.4 0 1-.4 1.5-.2.4 0 1-.2 1.5-.3.6-.2 1.4-.4 2 2 1.2 2.5 3.1 3.7 4.7Zm225.1 5.7c-2.7.6-5.3 1.4-8.1 1.5-2.3 5.4-5.2 10.5-8.1 15.5l2.3 1.2 5.2-1 3.5-5.6c1-1.8 2.1-3.7 3-5.7.7-2 2-3.7 2.2-6ZM44.2 75.2c-1.7.7-2.4 2-3.3 3 0 .6-.2 1.2 0 1.5.4.6.2 1 .3 1.6l.3 1.5c0 .8.4 1.5.3 2.3.4.4.2 1 .3 1.5l.3 1.5c0 1 .5 2 .3 3.1.7 1 0 2.2.5 3.2.4.8 0 1.7.4 2.6.2.7 0 1.6 0 2.4l.3 2.2v2l.4 6.7 4-.7c0-1.4.1-2.7-.2-4.2-.2-1.2 0-2.6-.3-3.9-.3-1.3-.2-2.7-.3-4.1V97c-.6-.6-.2-1.2-.3-1.8l-.3-1.9c0-1-.2-2-.4-3.1 0-1.1-.2-2.3-.5-3.5-.2-.8-.3-1.7-.3-2.5-.4-.3-.2-.8-.3-1.3l-.2-1.3-.4-2.7a9.4 9.4 0 0 1-.6-3.8ZM142 4v10c0 .9.4 1.5 1.2 1.8.7.2 1.2.5 2 .4h2c.7 0 1.3-.3 1.8-.6l1.3-.7v-11a14 14 0 0 1-8.3 0ZM36.8 197l.7-1.2c1.2-2.2 2-4.6 3-6.9.3-.8.5-1.8.9-2.6.6-1.3.8-2.6 1.2-4 .5-1.3.8-2.8 1.3-4.3-2.2-.2-3-2-4-3.7l-.5 1c-.2 1.8-.7 3.5-1.2 5.2-1 3-2 6-3.6 8.8l.7.7c0 2.4.8 4.7 1.5 7ZM15.1 65.9l-1-1c-.3-1-.9-1.8-1.4-2.7-.1.6-.4 1-.4 1.4 0 1.3-.8 2.4-.7 3.6-.6 1.4-.4 2.8-.8 4.1-.3.9-.4 1.8-.3 2.7-.6.5-.1 1.2-.4 1.7-.2.6-.2 1.1-.2 1.8v.7c-.6.6-.2 1.2-.4 1.8l-.3 1.8c0 .6 0 1.2-.2 1.9-.3.6 0 1.3-.1 2L8.6 88c1.3-.1 2.2.7 3.4 1.2l.2-3v-.4c.5-.5.2-1 .3-1.6 0-.6.2-1.1.3-1.7 0-.7 0-1.3.2-2s.2-1.5.3-2.2l.3-2.4c.1-.4.3-.8.3-1.3v-1.3c.5-1.2.6-2.6 1-4 .2-1 .5-2 .5-3 0-.1.4-.1.2-.4H15Zm42-20.4a28.6 28.6 0 0 0-5.6-9.1c-1.3.3-2.5.5-3.6 1l-3.6.9a89 89 0 0 1 5 9.6c2.5-.9 5-2 7.9-2.4Zm6.8-14 2.5-.8 4.8-1.3 5.5-1.4c1-.3 2.2-.3 3.2-.7l4.4-1 3.6-.8c1.7-.3 3.4-1 5.3-1.2-.5-1.3-2-1.3-2.6-2.3h-1c-1.7.7-3.6 1-5.4 1.5-1.1.4-2.3.5-3.4.8l-4.2 1-3 .7-4.4 1-2.9.8c-1.6.5-3.3 1.1-5 1.1l2.6 2.7ZM43.6 74A98 98 0 0 0 38 54l-.4-.8c-1.5 1.3-1.4 3.5-2.6 4.8l1.6 3.8c.7 2 1.3 4.2 1.9 6.4l.6 2.4c.2.8.2 1.7.5 2.5.3.4.3 1 .3 1.6 0 .6.3 1 .5 1.4l3.2-2ZM8.4 90.1c-.2 1.6.2 3.3-.3 4.8-.2.6 0 1.2 0 1.8v1.8c0 .6.2 1.2-.2 1.7.4.5-.3 1 0 1.5.2.4 0 1-.1 1.6-.2 2.7.1 5.5-.2 8.2-.3 2 0 4 0 6l2.7-.4c-.4-3.1.4-6.2.2-9.4v-1.6c0-.5.5-.9 0-1.3.6-1 .2-1.9.3-2.8l.3-2.8.3-5.4v-.3c.6-.8.2-1.7.3-2.4l-2.1-.4-.7-1-.5.4Zm16.9 113.2c1 1 2 1.6 3 2.2.4.2.8.2 1.1 0 .6-.2 1.2-.6 1.6-1l2-1.8c1-1 1.7-2.3 2.5-3.5-.5-.7-.9-1.3-1.2-2-.1-.4 0-.8-.2-1.2-.5-1.2-.8-2.5-1.1-3.7l-2.5 1.5c-.8.6-1.9.7-2.8 1.1 0 1 0 2-.2 3l-.6 2.7-.7 2.7h-1Zm90.2 2.4c-1.5-.2-2.5-1.2-3.8-1.7-1.3-.5-2.7-.7-3.9-1.7-2 .3-4.1-.3-6.2.3-.6.2-1.4 0-2 0l-2.1.4c-.9 0-1.8-.2-2.5 0-.8.2-1.6.3-2.8.2C94 204.5 96 205 97 207c.7-.1 1.5-.3 2.3-.3h2.5c2.8-.2 5.5.3 8.1-.4 1.9.2 3.7-.5 5.5-.3l.2-.2Zm-89.8-11-1.3-1c-1.7-1.2-2.1-3.2-3.1-4.8-.5-.8-.8-1.8-1.1-2.7-.4-.8-.8-1.7-1-2.7-.4-1.5-1-3-1.4-4.7l-.8 1.4-1.2.6.4 1 .7 2.9c1 2.7 1.6 5.5 2.9 8 0 1 .7 1.6 1 2.5 0 .9.7 1.7 1 2.5.6 1.3 1.2 2.5 2 3.6.3.3.2.5.6.4.4-2.4 1-4.7 1.3-7ZM16.3 63.2l.2-.2 1-3.5c1-2.7 1.9-5.4 3.2-7.9.2-.4.4-.9.2-1-.4-.4-.2-.9-.3-1.3l-.3-1.2c0-1.5-.4-2.8-.7-4.6-1.4 2.7-2.7 5-3.7 7.6-1.1 3-2 6.2-2.8 9.2l1.3.5 1.9 2.4ZM21 41.4c.6 1.4.7 2.9 1 4.2.2 1.2.6 2.4 1 3.6 1.3-1 2.6-1 4-1 .3-1.3 1-2.4 1.3-3.7.4-1.1 1-2.3 2.2-3a10 10 0 0 0-5.3-3.7c-1.7.8-2.8 2.3-4.2 3.6Zm-9.7 102-.3-1.5c0-1.1 0-2.2-.3-3.3-.3-1.5.2-3-.3-4.5.2-3.1-.4-6.2-.4-9.4v-6.1H8.7l-1.3-.3v.9c0 1.7 0 3.5.3 5.4.3 2.8-.2 5.6.3 8.5.3 1.5 0 3 .3 4.6.2 1.3 0 2.6.3 4 .1.5.1 1.1.5 1.7h2.3Zm249.4-98.6-1.5-2.3-2.4-3a4 4 0 0 0-1.9-1.6l-2.9-1-5.6-1.5-.6-.3 5.1 7.7.7.1.8.2h1.4c.4.1 1 .2 1.3.4.6.3 1.4.2 2 .5 1.1.4 2.3.5 3.6.8Zm-215 164.4c.2.2.3.4.5.4l4.8 1.4a14 14 0 0 0 4.9-5.3c-1.5-.5-2.8-1-4.1-1.3-1.5-.3-2.9-.8-4.4-1.2a26 26 0 0 1-5 6c.7 0 1.4-.3 1.8 0 .6.4 1-.4 1.6 0Zm155.7 8 .9-.2c2-.4 4-1 6-1.2 1.4-.2 2.8-.7 4.2-.7.4 0 .8-.2 1-.5l2.5-2 .7-.8c.9-.4 1.4-1.1 2-2-.4 0-.8-.2-1 0-.6.5-1.5.1-2.2.5-.7.4-1.7 0-2.5.4-.8.3-1.7.2-2.5.5-1.1.3-2.4.2-3.7.3h-1.5l-4 5.7Zm-136.2-3.5c1.6-.1 2.7.2 3.9.5.4.1.9 0 1.3-.1.8-.4 1.6-.5 2.4-.7 1.7-.4 3.5-.6 5.1-1.2 1-.4 2-.6 3-1.3l-.4-.4c-3.9-.6-7.5-1.7-11.2-2.8-1.2 2-2.4 4-4 6Zm184-12.9c-.3-.3-.4-.5-.6-.5-1-.3-2-.9-3-1.1-1.1-.3-2.3-.8-3.7-.8-1.8 0-3.6.6-5.5.3h-.6c-.6.7-1.6.1-2.3.5-.7.3-1.6.2-2.4.4l-3 .4c.3.2.5.5.7.5 1 .1 1.7.5 2.5 1 1.5.6 3 .9 4.6.8.4 0 .7-.3 1-.3 1.8.1 3.5-.5 5.3-.3 1-.4 2-.3 3-.3h.2c.5-.6 1.3 0 1.8-.3s1.1-.3 2-.3ZM36.8 50.6c-1-1.3-1.4-2.8-2.2-4-.8-1.4-1.8-2.6-2.7-4-1.6 2-1.8 4.4-2.5 6.7.9.9 2 1.6 2.7 2.8.7 1 1.3 2.2 2 3.5.8-1.5 1.4-3 2.7-4.1v-.9ZM29.3 193c-1-.8-2.1-1-2.6-2.2-1.3-1.3-2-3-2.7-4.7-.6-1-1-2.3-1.3-3.5l-1.1-3.7-.8-3.1-.7-3.2c-.3-.9-.4-1.8-.6-2.8L19 167l-1.7.1.3 1.3.7 3.3c.4 1.4.5 2.9 1.1 4.2.2.6.3 1.4.6 2l.5 2 1.2 3.9c.8 2.6 1.9 5 3.1 7.5.4.8 1 1.4 1.5 2v.1l1-.2.7.7 1.3-.8ZM7.8 166.6v7.3c1 1 1 1 3.3 1l1.4-.7v-7.6H7.8Zm1.6-20.8-1.1.6a6 6 0 0 0-1.4 3.7c1.3.4.5 1.7 1.2 2.4l-.2.2v4c0 .2.4.4.6.4.6-.1 1 .2 1.3.4 1 .6 1.8.6 2.7 0l.7-2.5-3.9-2.3c0-.5-.7-.7-1-1.2 0-.4-.3-.8-.3-1.3v-1.8l1.9-2 2.3-.5v-.1H9.4Zm0 5.6c.9-.2 1.5.4 2.3.7l2.3 1.3c0-.7 0-1.4.4-2 .4-.6.7-1.1 1.5-1.4-.5-.3-1-.5-1.2-.8-.4-.5-1.1-.7-1.7-1-.4-.3-1-.5-1.4-.3-1 .3-2.3.6-2.6 2l.4 1.5ZM50.2 34.8c-1.2-.5-1.6-1.9-3-2-.8.5-1.9.5-2.8.8l-3 1.2.7.6.8 1 .6.5 6.7-2.1Zm-35.1 143 2-2c-1-3-1.6-6-2.3-9.2H14v5c0 2.8 0 2.8 1 6.1Zm.5-22.9 1.1.3H18c.6-.4 1-1 1-1.6l-.2-1.1-1-.8c-.6-.2-1.3.2-1.8-.3l-1 .6c-.2.6.2 1.2-.4 1.6.3.5 1 .6 1 1.3Zm126-153c1.4 1 2.8.8 4.1.8 1.5.1 2.7-.2 4-.7 0-.2-.2-.3-.4-.5-1.3.1-2.5-.4-3.8-.3-1.3 0-2.5 0-3.8.7ZM2.5 163.5l.3-2.3c0-.8-.3-1.4-.6-2l-.9.7v3.2c0 .4.3.8.4 1.2l.8-.8ZM255 202.2l.3 1 .1 1.2c1-1.1 2.4-1.5 3-2.9l-3.4.7ZM19.8 155.5l-.6 1 .4.8h.7l-.5-1.8Z"/><path fill="#fff" d="M210.9 105.8c0 2.8.5 5.5.3 8.3v3.3l.3 4.8v4.7c0 1.2-.3 2.3-.3 3.5v3.7c0 1.2.2 2.4 0 3.6-.4 1.7-.2 3.3-.3 5 0 .6-.4 1.2-.3 1.9.1.6.2 1.4 0 2-.3.9 0 1.9-.3 2.8-.3 1-.2 2-.3 3.2h-6.4c-1.7 0-3.2.5-5 .3h-4.8c-1.7 0-3.3-.2-5 0-3 .5-5.9.2-8.8.3h-24c-3.8-.5-7.7 0-11.4-.4-2.8-.2-5.5 0-8.1-.2-1.2-.1-2.4-.4-3.7-.3.2-1.1-.3-2.2.3-3.2v-.3l.3-6c0-1 .5-2.1.3-3.2a9.8 9.8 0 0 1 0-3.5c.5-1.6.3-3.2.3-5v-13.6c0-2.8-.4-5.6-.3-8.4-.3-1-.3-2-.2-3.2h1.2l6.3-.3c2 0 4.2.2 6.3 0 2.8-.5 5.7 0 8.5-.4 3.3-.4 6.6-.1 9.9-.2h9.8c2.4 0 4.7.4 7 .3 2.4-.2 4.7 0 7 0 2.4 0 4.9-.3 7.2 0 3 .3 6 0 9 .2 1.7.2 3.4.2 5.2.3ZM204 64.5l1 3c.2.9.3 1.9.7 2.8.3.6-.2 1.3.5 1.9.1 1.1.5 2.2.8 3.3l.3 2c.2.7 0 1.5.4 2 .4.7 0 1.5.6 2-.2 1 .3 1.8.2 2.6 0 .6.2 1 .3 1.5.2.5-.2 1 .3 1.5v.3l.3 3.5c0 .6.5 1.1.3 1.8 0 .6 0 1.2.3 1.8v.7c0 1.4.5 2.8.3 4.2.6 1.4.2 2.8.3 4.4-.9-.6-1.7-.4-2.6-.4-3-.1-6.1-.3-9.2-.3-3.2 0-6.3.2-9.4-.1-3.4-.3-6.8-.2-10.2-.2h-10.1c-3.4 0-6.9-.2-10.3 0-2.6.3-5.2 0-7.8.4-2 .2-4 0-5.9.2-1.7.3-3.5 0-5.2.4-1.3.2-2.6 0-3.9.2l-3 .3v-2c0-1.8-.5-3.3-.3-5-.4-1-.2-2-.3-2.9 0-.5-.4-1-.3-1.6 0-.6.1-1.1-.3-1.5V91l-.3-4-.3-1.4c0-.5.2-1-.2-1.4v-.6c0-1.7-.5-3.3-.7-5 0-1-.3-2.2-.6-3.3-.3-1.3-.2-2.7-.8-4 .1-1.3-.6-2.6-.7-3.9-.1-1.5-.8-3-1.1-4.4h.1c3 0 6-.6 8.8-.4 3.4-.6 6.8-.2 10.2-.3h10.2c3.4 0 6.8-.2 10.3 0 3 .3 6.2 0 9.2.4 2 .2 4 0 6 .3 1.8.2 3.6 0 5.4.2 1.3.2 2.6 0 3.8.3 1.5.4 3 .2 4.4.3.7 0 1.4.2 2 .3.6 0 1.3-.2 1.9 0 1.6.6 3 .1 4.7.4ZM126.2 190.4c.3-1.4.9-2.7 1.3-4 .2-.9.4-1.8.8-2.6l.6-2.6c.3-1.1.8-2.3 1-3.5.5-.5 0-1.3.5-1.8.2-2 .9-4 .6-6-.1-1-.5-2-.3-2.9.2-1 .1-2.2.6-3.2v-.4c0-1.9.6-3.7.7-5.6l.2-1.8.3-2c.6.2 1.1-.1 1.7.4h.9c2.3 0 4.7 0 7 .4 2.1.3 4.3 0 6.4.2 3.4.5 6.8 0 10.2.4 3.3.3 6.6.2 9.9.2H196c1.8 0 3.4-.3 5.1-.3h5.2c.4 0 .8-.3 1.3-.3h1.3l.7.2-.2 1c0 1.5-.6 3-.6 4.7l-.6 3c0 .8-.4 1.7-.6 2.7l-.5 1.2c-.1.7-.4 1.3-.4 2 0 1-.3 1.7-.5 2.5-.4 2-1.2 3.8-1.6 5.8a27 27 0 0 1-1.2 4.7l-1.5 4.4c-.2 1-.7 1.7-1.1 2.5-1.4.2-2.7.2-3.9.7h-.1c-1.5-.3-3 .3-4.4.3-2.4 0-4.7.5-7.2.3-2.2.6-4.4 0-6.6.3-2.7.4-5.4.2-8 .3h-8.2c-1.9 0-3.7-.4-5.5-.4-1.9.2-3.7.3-5.6 0-2.7-.4-5.5 0-8.2-.3-3.3-.4-6.5 0-9.7-.3-2.5-.2-4.8 0-7.3-.2ZM127 61.8c-.4-1.3-.8-2.4-1-3.5l-1.3-4.1c-.6-2.2-1.6-4.3-2-6.6-1.2-1.4-1.3-3.2-2-4.7l-2-4.6-.9-2.1c.3 0 .6-.1.8 0 1.5 0 3-.6 4.5-.4 1.1-.6 2.3-.2 3.5-.3 2-.2 4-.5 6.1-.3.2-.5.7 0 1-.2.4-.2 1-.1 1.5-.1h2.7c2.2 0 4.3-.4 6.6-.3h20c1.2 0 2.3.4 3.6.3 1.2 0 2.4-.2 3.6 0 1.6.4 3.2.1 4.8.3 1.5.3 3 0 4.5.4 1.2.2 2.4 0 3.6.2 1.3.4 2.6.2 4 .5 1.6.4 3.3.3 5 .5l2 4 2 4.8 2 4.7c.6 1.8 1.2 3.6 2 5.5l2 6.2c-1-.2-2 .3-2.9-.3h-.3c-2 0-4.1-.5-6.2-.3L191 61c-1 0-2.2.2-3.2 0-1.7-.4-3.3 0-4.9-.3-2.7-.5-5.6 0-8.3-.3-2.4-.4-4.7-.2-7-.3h-17.8c-1.8 0-3.5.4-5.2.3-1.8 0-3.5-.2-5.3 0-1.5.3-3 .1-4.6.3-1.1.2-2.2 0-3.3.3-1 .3-2 .2-3 .3-.6 0-1 .2-1.5.4ZM88.3 204.7c1 0 1.7.3 2.4.7 1.2.6 2 1.5 3 2.4l1.4 1.1c.2 1.5.1 2.9.5 4.1.2.8.2 1.5.2 2.3 0 .7.2 1.3.3 2 0 .6-.2 1.3.3 2v.2c0 1.2 0 2.5.3 3.7.3 1.1.2 2.1.3 3.2.1.6.4 1.3.3 2 0 .6 0 1.3.3 1.9v.2c0 1.4 0 2.9.3 4.3.3 1.3.1 2.5.3 3.7l.3 2.9c0 .7.4 1.3.3 2 0 .7-.2 1.4.3 2v.3c0 1.5 0 3 .3 4.5.4 1.5.5 3.1.8 4.7.4 1.6.3 3.3.5 5.1-1.5-.3-2.7-1-4-1.6-1.7-1-3.4-1.7-5-2.9-.6-.4-1.4-.7-2.2-1-1.7-1-3.5-2-5.2-2.8a80.6 80.6 0 0 1-6.5-3.7c-1.3-.8-2.6-1.4-3.7-2.3-1.2-.8-2.6-1.3-3.8-2.1-1.7-1.2-3.7-2.3-5.6-3.4-1.2-.7-2.4-1.4-3.8-2-.7-.2-1.3-.8-2-1-.9-.2-1.5-.8-2.3-1.2-.6-.4-1.5-.6-2-1-.7-.6-1.5-.8-2.2-1.1-.6-.4-1.2-.8-2-1l-2.7-1.5c-1-.5-1.8-1.1-2.7-1.7l-1-.5c-.4-.9 0-1.7.2-2.5.3-.8.6-1.5.6-2.3 0-.7.4-1.4.3-2.1-.1-.7 0-1.3.2-2 .3-1.2.2-2.4.4-3.6l.2-2c.1-.5 0-1.1.3-1.7.2-.4 0-1 0-1.6l2 .7-.5.4.4.4c.5.2 1 .5 1.5 1 .7.5 1.7.6 2.5.8.9.4 1.9.5 2.8.7 1 .2 2.1.2 3 .6.6.2 1.2.1 1.8.5.3.2.9 0 1.2 0l2.3-1.1.6.3c1.6 0 3.1.5 4.7.6.9 0 1.6.4 2.4.5 1.2.3 2.3-.3 3.5-.2.5-.7 1.3-.1 1.9-.6.4-.3 1.2-.5 1.8-.6 1.5-.4 2.7-1.1 3.9-2 2.5-1.8 4.2-4.2 5.5-7 .3-.4.5-1 .8-1.7ZM118.4 208.5c.8-1.5 1.5-2.8 2.1-4.3l2-4.5 1.6-4.1 1.6-4c.9 0 1.7.2 2.6.3.8 0 1.8-.2 2.6 0 .9.3 1.7.3 2.6.3 2.3 0 4.5.5 6.7.3 1.3.5 2.8 0 4 .4 1.7.3 3.3 0 4.9.3 1.6.3 3.2 0 4.8.3 2.1.4 4.3 0 6.4.2 2.5.4 5 .2 7.5.3h7.5c1.5.1 3-.4 4.5-.3h6c.4 0 1-.4 1.5-.3h1.5c.5 0 1.1.1 1.6 0 1.4-.4 2.8-.1 4.2-.4 1.1-.2 2.3-.2 3.3-.2.4 0 .7 0 1-.3.1-.1.4 0 .8 0-3 7.2-6.2 14-10.2 20.3a12 12 0 0 0-3.1.5c-.7.2-1.3 0-2 .3-.9.3-2 .2-3 .3l-2 .3c-.7.1-1.5-.2-2 .3h-.3c-2 0-3.8.2-5.7.3-.5 0-1 .5-1.6 0-.4.3-1 .3-1.5.3H165c-3.2.6-6.4 0-9.6.4-2.5.3-5 .2-7.6.2h-7.8c-2.1 0-4.3-.4-6.6-.2-1.1-.5-2.4-.1-3.5-.4-1.3-.3-2.6 0-3.8-.3-1.4-.3-2.7-.1-4-.3-.8 0-1.5-.3-2.3-.2l-.6-1.4-.3-1.5c-.2-.4-.3-1-.3-1.3-.1-.6 0-1.1 0-1.6ZM118.7 151.4h-5.6c-1 0-1.9-.4-2.8-.3h-2.9c-1 0-2 .2-3 0-1.5-.4-3.2-.2-4.8-.3l-1.8-.3c-.6 0-1.3.2-1.9 0-1-.4-2-.2-3-.3l-2.1-.3c-.8 0-1.6.2-2.2 0-1.6-.5-3-.1-4.7-.3 0-.7-.2-1.5.2-2.2v-.5c0-2.7.6-5.4.4-8 .5-1.9.2-3.7.3-5.5v-5.3c0-1.8-.5-3.4-.3-5.1 0-1.7.2-3.4 0-5-.5-2.5-.2-4.9-.4-7.3 0-.9-.4-1.7-.2-2.7 1-.2 2.1-.2 3.1-.6h.2l4.3-.3c1.5 0 3-.2 4.4 0 2 .5 4.2.2 6.3.3 2.1 0 4.3.2 6.4 0 1.8-.3 3.6-.2 5.4-.3h5.6v1l.4 9.5v9.7c0 1.7-.4 3.4-.3 5 0 1.7.2 3.5 0 5.1-.3 1.8 0 3.6-.3 5.3-.3 1.5 0 3-.4 4.6-.2 1.3-.2 2.6-.3 4Z"/><path fill="#fff" d="M210 167.2c.3-1.1.7-2 .6-3.1l.2-.4c.4-1.3.4-2.6.8-3.9.2-1 0-2 .6-2.9v-.3c0-.7 0-1.4.2-2l.3-2c.3-1.3.3-2.6.4-4l.3-2.2c0-.7-.2-1.4.2-2v-.4c.1-2.1 0-4.3.3-6.4.4-2.6 0-5.3.4-7.9.3-2.3.1-4.7.2-7 0-2.4.2-4.7 0-7-.3-2.5 0-5-.3-7.3-.2-1.6 0-3.2-.3-4.8-.2-1.3 0-2.7-.3-4a17 17 0 0 1-.2-3.2c0-.6-.5-1-.4-1.7.1-.5.3-1-.2-1.5-.1 0 0-.3 0-.4-.1-1.2-.1-2.3-.4-3.5l-.6-4c-.1-.5 0-1.2-.3-1.7-.2-.7 0-1.3-.3-1.9-.5-1.6-.6-3.3-1-5-.3-.8-.4-1.6-.5-2.4l-.5-2.3c-.5-1.6-.8-3.3-1.4-5-.3-.8-.5-1.7-.6-2.5 0-.8-.7-1.4-.7-2.3 0-.7-.4-1.4-.7-2-.2-1-.4-1.9-.8-2.7l-1-2.6c-.6-2.1-1.3-4.3-2.2-6.4l-2.4-5.6c-1-2.6-2.3-5-3.7-7.5-1.1-2.2-2.6-4.2-3.8-6.3-1.1-1.8-2.5-3.5-3.8-5.1-1.5-2-3.4-3.7-5.1-5.5-.5-.5-1.2-.9-2-1.4.8 0 1.3-.2 2 .2.6.3 1.4.3 2 .3.9 0 1.6.3 2.3.5.7 0 1.5.2 2.2.5.7.3 1.4.1 2.1.3l2 1.3c1.8 1.2 3.3 2.5 4.6 4.2l2.5 3.2.3.6 1.2 2 2 3.7c.8 1.1 1.3 2.4 2 3.6l1.2 2.5 1.1 2.4c1.2 2.2 2.1 4.6 3.1 6.9l2.2 5.4c0 1.2.6 2.3 1 3.4.2 1 .8 2 1 3.1l1.7 6.2c.3 1.3.5 2.7 1 4 .3.6.2 1.2.4 1.8.3 1.3.4 2.7.9 4 .2.5 0 1.2.3 1.9.2.6.2 1.4.3 2 .1.8.1 1.5.3 2.2.3.7.1 1.5.4 2.2.4.7 0 1.5.2 2.1.4.8 0 1.6.4 2.3.4.8 0 1.4.2 2.1l.3 1.9c0 .6-.2 1.2.3 1.8v.2l.3 4.8c0 1.7.4 3.3.3 5 .5 1.4.3 2.7.3 4 0 1.8.4 3.3.3 5 0 1.7-.2 3.4 0 5 .5 2.7.2 5.3.3 8 0 2.7.2 5.4 0 8-.3 2.2 0 4.3-.3 6.4-.2 1.3 0 2.6-.3 3.8-.2 1-.1 2-.3 2.8-.3 1.1 0 2.2-.3 3.2l-.6 4.2c-.1.7 0 1.4-.3 2-.2.8 0 1.4-.2 2-.5 2.1-.7 4.2-.6 6.4l-3.1.4h-3.2c-1 0-2-.2-3 .2-.5.2-1.2 0-1.8 0ZM113.8 65.6l.7 2.7c.1.6 0 1.3.4 2 .2.6 0 1.4.3 1.9.4.6.1 1.2.5 1.9l.4 1.9c0 .5 0 1 .2 1.5.3.5-.1 1.1.3 1.7.3.3 0 1 .3 1.5.2.6.1 1.3.3 2 .3 1 .2 2 .4 3l.2 1.6c.1.5-.2 1 .3 1.4v.3l.3 3.8c0 .6.3 1.2.3 1.7v1.8c.4 1.2.1 2.5.4 3.6.3 1.5.1 3 .2 4.5v.5c-2.3 0-4.5-.2-6.7 0-3.7.4-7.5.2-11.2.3H90c-1.7.1-3.4.2-5 .6l-1.1.5c-.5-.9-.4-2-.5-3 0-1.7 0-3.4-.3-5-.2-1 0-2-.3-3l-.3-2.5-.3-2.4-.3-2.6-.2-1.2c-.1-.4.1-.9-.3-1.2v-.6l-.3-2.5c0-.8-.6-1.6-.4-2.4-.6-.7 0-1.6-.5-2.3-.4-.7-.1-1.7-.4-2.4-.2-.6 0-1.3-.3-1.6-.5-.6 0-1.3-.5-1.8-.3-.5.1-1.1-.3-1.7-.2-.2 0-.7 0-1.1.4 0 1 .3 1.2.1.5-.3.9-.2 1.3-.2.7 0 1.4-.2 2-.3.8-.2 1.6.2 2.2-.3h.3l4.5-.3c.6 0 1.2-.4 2-.4.6 0 1.3.2 1.9-.2h.1c1.4-.1 2.8-.1 4.2-.4 1.2-.2 2.5 0 3.6-.3.9-.2 1.8 0 2.7-.3.9-.4 1.8 0 2.7-.2 1.2-.4 2.5-.1 3.6-.4 1-.2 1.9-.1 2.7-.2ZM225.2 105.2h3.8c1.4 0 2.8.4 4.2.3 1.4 0 3-.2 4.3 0 2.2.5 4.5 0 6.7.4 2.1.3 4.3 0 6.4.3l3.8.2v1.4l.3 3v3.1c.6 2.3.2 4.5.3 6.8l.3 6.4c0 1-.2 1.9-.3 2.9l.2 1-.2.5v.9c0 1.4.2 2.8 0 4.1-.3 1.4 0 2.7-.3 4-.2 1 0 2-.3 3-.2 1-.1 1.8-.3 2.6-.3 1-.2 2-.3 3-.5.1-1 .5-1.5.5-1.4.2-2.6.8-4 .7-1 .7-2.4-.1-3.5.6h-.1c-1.9 0-3.7.2-5.6.3l-1.9.3c-.7 0-1.4-.2-2 0-1 .3-1.8.2-2.7.3l-1.8.3c-.6 0-1.3-.2-1.9 0-1.3.5-2.6.1-4 .3l.2-1.2.2-.4.3-4.3.3-3.3c0-1.2-.2-2.4 0-3.4.4-1.7.2-3.3.3-4.8v-14.2c0-2.8-.5-5.5-.3-8.3-.6-1.6-.2-3.1-.3-4.7 0-1-.2-1.7-.3-2.6Z"/><path fill="#fff" d="m128.2 167.1-1.5-.2-2.5-.3h-2.5c-.5 0-1-.3-1.5-.4.2-.8-.3-1.6.3-2.3v-.2l.4-5.4.2-2.3c0-.8-.2-1.6 0-2.2.4-1 .2-2 .3-2.9l.3-3c0-1-.2-2 0-3 .5-1.3.3-2.7.3-4 0-1.8.5-3.6.4-5.4-.1-1.9-.3-3.7 0-5.5.4-2.4.2-4.7.3-7 0-2.4.2-4.8 0-7-.4-3 0-5.9-.4-8.7-.2-1.6 0-3.2-.3-4.8-.2-1.3 0-2.6-.3-3.9-.2-1.3 0-2.6-.3-3.7-.4-1.2.1-2.5-.5-3.5v-.5c-.2-.7.1-1.5-.3-2.3-.3-.6.2-1.5-.3-2.2.2-1-.5-2-.3-3.1 0-.6-.2-1-.3-1.5-.1-.5 0-1-.3-1.6-.2-.5 0-1.3-.3-2 0-1.4-.7-2.8-.6-4.3-.7-2-.7-4.2-1.5-6.2 0-2-1-3.8-1.2-5.8-.8-1.4-1-3-1.4-4.5l-2.2-6.8c-.6-1.9-1.4-3.7-2.1-5.5a86 86 0 0 0-3.8-8c-1.2-2.1-2.3-4.3-3.8-6.2-1-1.1-1.7-2.4-2.5-3.7l-.6-.5c-.4-.4-1-.9-1.3-1.4L97 24l-1.4-1.2c-1-.7-1.8-1.5-3-1.8.3-.2.6-.4 1-.4 1 0 2-.3 2.9-.6 1-.2 2-.3 2.9-.6.6-.2 1.5-.1 2.2-.3l.5-.4c.9.6 1.8 1 2.5 1.8 2.3 2 3.9 4.7 5.6 7.2l3.5 6 1.5 3c.9 2 2 4 2.7 6.1.3.8.8 1.5 1 2.3.3.8.5 1.7 1 2.5 1 2.3 1.4 4.8 2.5 7.1-.1 1 .5 1.9.7 2.9l.8 2.7c.1 1 .4 2 .7 2.9.4 1.8.7 3.6 1.2 5.3.4 1.6.4 3.2 1 4.8.3.5.3 1.3.3 2l.7 4.7c.3 1.5.3 3.1.8 4.6v.3c0 1.2 0 2.5.4 3.7.2 1 0 1.9.3 2.7.2 1 0 1.9.3 2.7.2 1 0 2 .2 2.9.3 1 0 2.2.4 3.2.3 1.3 0 2.6.2 3.8.4 1.5 0 3.1.4 4.6.3 1.8.2 3.5.2 5.3l.2.4-.2.8c.4.6.3 1.2.3 1.8v19.7l-.3 3.3v3.4l-.1 1-.1 1.3v1.4c-.5 1.2-.3 2.6-.4 3.9l-.2.6c.1.7-.8 1.5 0 2.3-.2.5-.3 1-.3 1.6l-.1 1.6-.2.5c.2 1.3-.4 2.6-.3 4l-.3 1.4c-.1.5.1 1-.3 1.5v1.7l-.5 1.1ZM173.8 224l4.1-.5c.6.6 1.3.8 2 .9 1 0 2.2.1 3.2 0l4.9-1 .5-.2c.6 0 1.2 0 1.8-.2.5-.3 1.2 0 1.8-.4h.3l6.8-.2c1.2 0 2.2.3 3.3.3 1.3 0 2.4-.4 3.5-.7a25 25 0 0 0 6.8-3.5 41.8 41.8 0 0 0 6.8-5.7l2.9-3.7c1-1.1 1.7-2.3 2.3-3.6.5-1 .7-1.9 1-2.8l.2-.5c1.2.1 2.2.6 3.2 1.1l3.1 1.5v2c.2.5.4 1.1.3 1.7.6.4.3 1 .5 1.6.4.7.3 1.6.4 2.4l.3 1.5.3 1.5.3 3.3c0 .7.3 1.3.3 2 0 .6-.2 1.2.3 1.8v.7c0 1 .2 2 .6 3v.3l.3 3.7.3 1.6c.1.6-.2 1.2.3 1.7v.7c0 1 .3 1.9.5 2.8v1.1l.4 1.1c0 1 .3 1.9.3 2.9 0 .5.3 1.1.5 1.7l.7 3c0 .8.4 1.6.3 2.4.7.6 0 1.4.5 2.2.4.6.2 1.6.3 2.5-1.5-.4-2.6-1.2-4-1.8-1.2-.7-2.5-1.2-3.8-1.8l-3.9-1.5c-1.5-.5-3-1.5-4.5-2-1.3-.4-2.4-1.2-3.7-1.6-.5-.1-1-.5-1.5-.7l-4.2-2c-1.6-.6-3.1-1.5-4.8-2-.7-.7-1.6-.8-2.4-1.2l-2.3-1.2-6-2.7-8.5-3.7c-1.6-.6-3.2-1.2-4.7-2l-2.6-1c-.8-.3-1.6-.8-2.5-1-1-.4-1.7-1-2.5-1.5l-3.6-1.8c-.1-.2-.3-.4-.7-.6Z"/><path fill="#fff" d="M112.5 188.6h-1.8c-1.5 0-3 0-4.4-.3-1.3-.2-2.7-.3-4-.6l-2-.3c-.7 0-1.3-.4-2-.2-.4-.7-1.2-.2-1.8-.6-.7-.3-1.6 0-2.4-.3-.6-.2-1.2 0-1.9-.3-.5-.2-1.2.1-1.7-.3h-.3c-.7 0-1.4 0-2.2-.3-.6-.2-1.4 0-2-.2-1-.3-2.2-.1-3.2-.4-1.4-.3-2.8-.3-4.3-.7l.5-2.2 1-4.4c.3-1 .4-2.1.8-3.2.3-.7 0-1.4.4-2.1.2-.7 0-1.6.3-2.4.3-.9.3-1.7.3-2.6v-2.5l-.5-.2c.4-1.4 1-2.8 1.1-4.3.2-1.3.6-2.7.6-4 .5-.8 0-1.6.3-2.3.3-.8.2-1.5.3-2.4l.4-.4.9.3c1.5-.2 3 .3 4.6.3l2.1.3c.7 0 1.5-.2 2.1.3 1.3-.2 2.4.3 3.6.3 2.2 0 4.4.5 6.6.3 2 .6 4 .2 6 .3 1.4 0 2.8.4 4.2.3h4.5c-.2.8.2 1.6-.4 2.3v.3l-.3 5.2-.3 2.1c0 .7.2 1.4-.2 2v.6c0 .6 0 1.2-.3 1.8-.3.5 0 1-.3 1.7-.3.6 0 1.5-.3 2.3-.3.7-.1 1.6-.4 2.3-.2.8 0 1.6-.5 2.3.1 1.8-1 3.4-1 5.2-.7 1.3-.7 3-1.3 4.4-.5.8-.6 1.7-.8 2.6ZM225 24l2.7.9c1.6.5 3.2 1.3 5 1.7l2.6.8a10 10 0 0 1 3.4 2c.7.5 1.2 1.1 1.8 1.7.6.5 1.1 1 1.6 1.7l2 3 2.8 4a89 89 0 0 1 7.7 14.1l2.1 5 2.3 6c.6 1.6.8 3.2 1.4 4.7 0 1 .8 2 .7 3 .5.8.3 2 .9 2.8 0 1.5.6 3 .8 4.4l1 5.1.3 2c0 .5.1 1.2.3 1.7.2.8 0 1.6.3 2.3.3.8 0 1.6.3 2.3.3.8 0 1.7.3 2.5.4.9.1 1.7.2 2.6.1.6.4 1.3.4 2 0 .6-.2 1.3.2 1.9v.1c-.2 1.9.5 3.6.3 5.4-.1 1.3.4 2.4.3 3.6 0 1.3-.2 2.6 0 3.8.5 2.2.3 4.4.3 6.6v14.2l-.3 3.2c0 1 .2 2.1 0 3-.3 1.2-.2 2.4-.3 3.5 0 .7-.3 1.3-.3 2s.2 1.3-.3 2v.6c0 .6 0 1.3-.3 2-.1.5 0 1.1-.2 1.8-.3.5-.3 1.3-.3 2-.1 1-.5 2.1-.7 3.2-.4 1.3-.6 2.6-1.1 3.9l-.6 1.5c-1.4.5-2.7 1-4.2.8-1.4.6-2.9 0-4.5.4l.2-1c.1-1.2.6-2.2.8-3.3.2-1.3.3-2.5.8-3.7.2-.6 0-1.3.3-2 .3-.8.2-1.9.4-2.8l.2-1.5c.1-.5 0-1 .3-1.5.2-.7 0-1.5.3-2.3.3-1.2.2-2.5.3-3.7l.3-2c.1-.7 0-1.3.3-2 .2-.5 0-1.2 0-1.9 0-1.5.5-3 .4-4.5-.2-1.4 0-3 0-4.4-.1-.7.2-1.4 0-2.1-.2-.8 0-1.5 0-2.3v-4.6l-.1-5.5c-.1-2-.4-4.2-.3-6.3-.6-1.3-.2-2.7-.3-4 0-.7-.4-1.3-.3-2 0-.6.1-1.3-.3-2v-.2c0-1.5 0-3-.4-4.5-.1-.8 0-1.6-.2-2.4-.2-.8-.1-1.6-.4-2.3-.2-.6-.2-1.2-.2-1.8 0-.6-.2-1.1-.4-1.7-.3-1.4-.1-3-.8-4.2.2-.8-.2-1.5-.3-2.3l-.8-3.5-.7-3c-.3-1.1-.3-2.3-.9-3.3.2-1.3-.6-2.3-.8-3.4-.2-1.1-.4-2.2-1-3.2 0-1.6-1-2.9-1.2-4.4-.9-1.3-.8-3-1.7-4.2-.7-2.4-1.9-4.6-3-6.9l-2.3-4.6c-.9-1.6-2-3.2-3-4.7l-3.5-5c-.7-1-1.5-1.7-2.2-2.6-.6-.6-1.3-1.2-1.7-2-.5-.6-1.3-1-2-1.7-1.4-1.3-2.8-2.6-4.3-3.7l-.4-.4V24ZM48 30.8l1-.7c2-1 4-1.7 6-2.6.3-.1.6 0 .9.1 1 .5 2 1.1 2.8 2 1.4 1.4 2.6 3 3.8 4.6a84.1 84.1 0 0 1 5.7 9.7c1 2 1.8 4 2.5 6.2l2 6.2c.4 1.7 1 3.3 1.3 5l1.4 5 1 3.9 1.1 5.1.8 4c.1 1.2.2 2.6.8 3.9-.2 1 .3 1.9.3 2.9l.3 1.3c0 .4-.2 1 .3 1.2v.3l.3 3.9c0 .6.2 1.1.3 1.7 0 .5-.2 1.2.3 1.6v.3c0 1.6 0 3.3.3 5 .2 1.3 0 2.7.3 4 .2 1 .3 1.9.2 2.8 0 1.1.4 2.1.3 3.2 0 1-.2 2.1 0 3 .5 1.6.2 3 .3 4.6.1 1.7.4 3.4.3 5v15.4l-.2 2.6c0 .9.1 1.8-.1 2.6-.3 1-.2 1.7-.3 2.6l-.2 1.7c-.2.5.2 1.2-.3 1.7v.6l-.3 2.5c0 .8-.6 1.5-.3 2.4-.4.5-.3 1-.3 1.5l-.3 1.5c-.3 1.6-.7 3.2-1.3 4.7-1.8 0-3.4-.3-5-.8-.7-.2-1.3-.1-2-.1l.7-3.3.1-.8.3-2.3c.1-.7-.2-1.5.3-2.2v-.3c-.2-1.7.4-3.3.3-5 0-.6.5-1.1.3-1.9 0-.6-.2-1.3 0-1.9.4-1.1.1-2.2.3-3.3.4-2 0-4 .4-5.8.3-1.9.2-3.6.2-5.4v-13.4l-.3-3c0-1 .2-2 0-3-.4-1.3-.2-2.5-.4-3.8 0-.7-.3-1.3-.3-2 0-.6.1-1.3-.3-1.9v-.3c0-1.3 0-2.6-.3-3.9-.2-.8 0-1.7-.3-2.5s0-1.7-.3-2.4c-.2-.7-.1-1.4-.3-2-.1-.6-.1-1.3-.3-1.8-.4-1.4-.3-2.9-.8-4.3-.3-.9-.2-1.9-.4-2.7-.2-1.3-.4-2.5-.8-3.7a8 8 0 0 1-.3-2c0-.7-.4-1.4-.5-2.1 0 0-.1-.1 0-.2 0-1.1-.4-2.2-.7-3.3-.3-1.5-.5-3.1-1-4.6-.3-.6-.2-1.3-.4-2l-1.4-5.1-1.4-4.7a208.7 208.7 0 0 0-5-12.5c-1.2-2.4-2.2-5-4-7-.7-.6-1.1-1.5-1.7-2.1a16 16 0 0 0-4.4-3.3l-1.2-.3Z"/><path fill="#fff" d="m219 65.2 2 .4c.5 0 1.2-.3 1.8.3h.1c1.2-.3 2.3.3 3.5.2.7 0 1.4.1 2 .3.8.2 1.6-.2 2.2.3 0 .1.3 0 .4 0 .8 0 1.4 0 2.1.3.6.2 1.4-.2 2 .3 1-.2 2 .4 3.1.3l2.1.3h2.1c1.2.5 2.4.2 3.6.3.6 0 1.1.2 1.7.4.3 0 .5.3.5.7l1 3.2 1 4.9c.3 1.2.6 2.5.7 3.8 0 .6.4 1.2.3 1.8.6.5 0 1.4.4 1.9.4.6-.2 1.3.5 1.8-.1.8 0 1.7.2 2.5.3 1.1.4 2.3.6 3.5 0 1 .4 2 .4 3.1l.2 2c.2.6-.2 1.4.3 2-.2 1.5.4 3 .3 4.5-1.2 0-2.6.2-3.7 0-1.6-.4-3.1-.2-4.7-.3l-6.2-.2H225.3c-.3-1-.5-2.3-.4-3.7 0-.6-.4-1.2-.3-1.9 0-.7.1-1.3-.3-2V96l-.3-4c-.2-1.4-.5-2.8-.6-4.3l-.3-2c-.2-.5-.2-1.2-.3-1.7-.5-2-.6-3.9-1.1-5.8-.3-1.4-.6-2.7-.7-4 0-1-.4-2-.7-2.8l-.7-3.4-.7-2.8ZM116 207.7c.2.7-.1 1.3.3 1.9.4.5-.2 1.2.4 1.6-.2 1.8.7 3.4 1 5.1l.8 4.7c.1.6.1 1.3.3 1.8.2.7 0 1.3.3 1.9.3.6 0 1.2.3 1.8.2.6 0 1.3.3 1.8.2.6 0 1.2.3 1.7.3.7 0 1.6.3 2.2.3.8 0 1.6.3 2.3l.6 4.5c0 .8.1 1.6.3 2.3.2.8 0 1.6.3 2.3.2.6.1 1.3.2 2l.3 1.3c0 .4-.2.9.2 1.2v.5c0 1.6.7 3.1.7 4.8.5.7 0 1.5.3 2.2.4.8.1 1.5.3 2.3 0 .2 0 .5.2.8l-.4.3h-1c-.8.1-1.6-.1-2.4.3-.6.3-1.3 0-2 .3-.8.2-1.7.1-2.6.3-.7.1-1.5.5-2.3.3-.5.6-1.5 0-2 .6h-.4c-1.2-.1-2.3.5-3.5.3-1.2.6-2.6.2-3.9.3 0-1.3-.2-2.4-.4-3.6-.2-1.5-.3-3.2-.8-4.7-.3-.8-.2-1.8-.3-2.7l-.3-1.5c0-.5.1-1-.3-1.4v-.3l-.3-4.2-.3-1.8c0-.6.2-1.3-.3-1.8v-.2l-.3-4.3c0-.7-.2-1.3-.3-2-.1-.6.2-1.3-.3-1.8v-.3l-.3-4.6-.3-2.1c0-.7.2-1.4-.3-2v-.1c.2-1.6-.4-3.1-.3-4.7L98 215c0-.8.2-1.7 0-2.5-.4-1.2-.2-2.4-.3-3.7h7.7c.8 0 1.5-.3 2.2-.3h2c.7-.3 1.4-.1 2-.3.7-.3 1.5-.3 2.2-.3h2.1ZM27.7 36.8c2.7-1.2 5.4-2.1 8-3.3 2 1 3 1.9 5 4.3a70.8 70.8 0 0 1 6.5 12.3c.5 1.4 1 2.7 1.7 4 .3.5.3 1 .5 1.6l.5 1.5c.2 1 .6 1.8 1 2.7.5 1.3.7 2.6 1 3.8l1.2 3.9.6 2.7.8 3.1.4 2 .3 1.8.3 1.8c.1.6.1 1.3.3 1.8.3.6.1 1.3.4 1.8.2.7 0 1.5.3 2 .3.6 0 1.3.3 1.8.3.7 0 1.5.3 2.1.2.7 0 1.5.3 2.1.2.8.1 1.6.3 2.3l.2 2.2c0 .7.4 1.3.3 2 0 .7 0 1.3.3 2 0 1.6.2 3.2.3 4.7 0 .8.4 1.5.3 2.3 0 .7-.2 1.5.3 2.1v.3c.1 2.3.1 4.7.3 7 .6 6.8.2 13.6.4 20.4 0 1.3-.4 2.4-.4 3.7 0 1.2.2 2.4 0 3.5-.3 1.3 0 2.6-.3 3.8-.2 1.3 0 2.5-.3 3.7-.2 1.1 0 2.3-.3 3.3-.3 1.5 0 3-.3 4.5-.2 1-.2 1.8-.2 2.8-1.1 0-2.2-.3-3.1-.6-.7-.2-1.4-.4-2.1-.8-.6-.2-1.3-.5-2-.4-.3 0-.5-.2-.8-.3l.3-1.6c0-.7.2-1.3.3-2 0-.6-.3-1.3.3-1.8v-.9c-.1-3 .5-5.9.3-8.8 0-.4.2-.8 0-1.3l.3-1.3V134l.3-4.9v-5c0-1.1-.3-2.2-.3-3.2v-3.4c0-1.1.2-2.2 0-3.3-.4-1.6 0-3.3-.3-5-.3-1.3-.1-2.7-.3-4-.3-1.2-.2-2.5-.3-3.7l-.3-1.9c0-.6.2-1.2-.3-1.8v-.3l-.3-3.9c0-.5-.4-1-.3-1.6.1-.5 0-1-.2-1.6-.2-.7-.1-1.4-.3-2.2-.3-1-.2-2.1-.4-3.2l-.2-1.3-.3-1.3c-.2-.6 0-1.3-.3-2-.2-.9 0-1.8-.4-2.6-.4-.7.1-1.6-.5-2.3 0-1.3-.5-2.5-.7-3.7-.3-1.6-.5-3.2-1-4.8l-.7-2.9c-.3-1.5-.8-3-1.3-4.6l-.8-2.4-1.8-4.5c-.8-1.7-1.5-3.4-2.4-5-1-1.8-2-3.5-3.2-5l-2.5-2.8C32 39 31 38.5 30.3 38l-.6-.3-2-1Z"/><path fill="#fff" d="m30.5 192-1.6-1c.2-1.1-.1-2.1.2-3.2l-.2-.4c.2-2.3-.2-4.5-.3-6.8l-.3-6.6v-6.7l-.2-1c.7 0 1.4-.2 2.1.2.5-.3 1.2-.2 1.5-.8.4-.7.7-1.4.8-2v-3c-.2-1.3-.5-2.6-1.6-3.6h-2.6v-26.4c0-2.7.1-5.3-.2-8-.3-2.7 0-5.4 0-8v-8.2c0-2.7.2-5.4 0-8-.4-3.5-.2-7-.3-10.4-.1-3.5.2-7-.1-10.4-.3-3.8-.2-7.6-.2-11.4V55c0-.7-.3-1.5-.4-2.3l1-.7h1.7c.6 1.4 1.8 2.5 2 4.1l.4.7c1.1 2.1 1.8 4.6 2.7 7 .4 1.2.6 2.5 1.1 3.8.1.2 0 .6 0 .8v52c-.6 4.2-.1 8.3-.2 12.4v12.7c0 4.1-.3 8.4 0 12.5.3 4.7.2 9.5.2 14.3l-.2 3.1v6.5a41.5 41.5 0 0 1-4.2 9.1l-1.1 1ZM253.9 32.5c3 .7 5.8 2 8.9 3 1.2 1.3 2.6 2.4 4 3.6 1 .8 1.5 1.8 2.3 2.7l2.2 2.9 1.9 2.7 2.3 3.8 2.2 4.4c1.1 2.6 2.2 5 3.1 7.6.5 1.5 1.2 2.9 1.5 4.4l1.5 4.8 1.2 4.4c.4 1.5.9 3 1.2 4.6l.7 3.1c.1.7 0 1.4.5 2-.1 1.6.7 3 .6 4.6.4.7 0 1.5.3 2.2.3.7 0 1.4.3 2.1.3 1 0 2 .3 2.7.4 1 0 1.9.3 2.8.3 1 0 2.1.3 3.1.3 1.3 0 2.7.3 3.9.5 2 .2 4.2.3 6.3V127c0 2-.5 4.1-.3 6.3-.5 1-.2 2.3-.3 3.4 0 .7-.4 1.3-.4 2 0 .6.2 1.3-.2 2-.1 0 0 .2 0 .4l-.4 3.6-.6 4c-.1.6 0 1.3-.3 1.9-.4.6 0 1.2-.3 1.8-.4 1.3-.3 2.6-.8 4-.3.7-.1 1.6-.4 2.3-.4 1.3-.2 2.6-.3 3.9-2.9.3-5.7.4-8.5 1.1-.4-.4.2-.7.2-1.2l.3-1.2c0-.4 0-.8.2-1.2.3-.7.3-1.6.4-2.4l.3-2.1c.3-.9.5-1.7.6-2.6 0-.5.2-1 .3-1.4 0-.4-.2-1 .2-1.4.1 0 0-.2 0-.4 0-.6 0-1.2.3-1.8.2-.5-.1-1.2.3-1.7v-.3c.1-1.2.1-2.5.4-3.7.2-1 0-2 .3-3 .4-1.3 0-2.6.3-3.8.4-1.5 0-3 .3-4.3.4-2.2.2-4.3.3-6.4v-15.1c0-1-.3-2-.3-3.1 0-1 .2-2.2-.1-3.3-.3-1.3-.2-2.7-.2-4 0-.7-.4-1.3-.4-2 0-.6.2-1.3-.2-2-.1 0 0-.2 0-.4-.1-1.2 0-2.5-.4-3.6-.3-1.4-.3-2.9-.8-4.3-.2-.5 0-1.3-.3-1.9-.3-.6-.1-1.3-.4-2-.3-.7-.3-1.6-.5-2.4-.3-.8-.4-1.7-.6-2.6l-.7-2.4-1.2-4-2.3-7.2-1.9-5.2-2-5c-.6-1.6-1.4-3-2.2-4.5-1.4-2.6-2.9-5.1-4.5-7.5-1-1.5-2.1-2.8-3.2-4.1-1.2-1.5-2.6-2.8-4-4.2l-2-1.5ZM253.3 201.8c-.2 1.8.5 3.3.3 4.8.4.8 0 1.6.3 2.4.3.7.2 1.5.5 2.2.2.6.1 1.4.4 2l.3 1.6.3 1.6c.1.6 0 1.4.4 1.8.4.6 0 1.3.2 1.7.6.8.2 1.7.6 2.5.3.7 0 1.7.4 2.5.4 1.3.3 2.7.8 4 .3.8.1 1.8.3 2.7.4 1.5.4 3.1.9 4.7.3.8.2 1.8.3 2.7 0 .5.2 1 .3 1.3 0 .4 0 .9.2 1.3.2.6.3 1.4.3 2l.6 3c0 1 .4 2 .3 3.1l.3 1c-.2.2-.4.5-.7.5-1.1.2-2.3.8-3.5.7-.6.4-1.3.2-2 .3l-2.2.2c-.6.1-1.3-.2-2 .3h-.5c-1.8-.2-3.5.3-5.3.4-1 0-2 0-2.8.9 0-1.3-.5-2.4-.4-3.7l-.3-1.5c0-.6 0-1-.2-1.6-.2-.5.1-1.1-.3-1.5 0-1.3-.6-2.5-.7-3.8 0-.7-.2-1.4-.5-2-.2-.7.3-1.4-.3-2v-.6c0-1-.3-2-.5-2.9-.2-.6 0-1.4-.4-2 0-1.7-.4-3.3-.7-4.9-.2-1.5-.3-3-.7-4.5l-.4-2.6c-.1-.8-.1-1.7-.3-2.5-.2-.8-.1-1.6-.6-2.3v-.5c.2-.8-.3-1.5-.3-2.4 0-.7-.3-1.5-.5-2.1-.3-.7 0-1.5-.4-2.1.2-1.3-.4-2.4-.3-3.7l1-.7c1.4 0 2.8-.5 4.2-.3 1-.5 2.1-.3 3.1-.3.6 0 1-.4 1.7-.3.5 0 1 .1 1.6-.2.2-.2.6 0 .8 0 1.8.1 3.5-.6 5.3-.7.3 0 .6-.2 1.1-.5ZM222.8 167l-.8-.4v-.3a15 15 0 0 0 1.4-3.9l.7-3.7.6-5c.8.2 1.7-.2 2.5.4l3.6-.1 1.3-.2c1.2 0 2.3.2 3.3-.3 2.1.2 4.1-.4 6.2-.3 1.6 0 3.2-.5 4.9-.3.8-.5 1.6-.3 2.4-.4l1.4-.2c.4-.1.8 0 1.2-.3.4-.2 1 0 1.6 0 0 .9-.1 1.7-.3 2.6l-.6 2.6c-.1.8-.2 1.5-.5 2.3l-.4 2c0 .9 0 1.8-.3 2.5-.4.7.1 1.6-.5 2.2-.1 0 0 .2 0 .4a23 23 0 0 1-1.5 7.3c.1.9-.6 1.5-.7 2.3 0 .7-.3 1.4-.6 2.1l-.8 2.2-.7 2c-.1.5-.4.9-.7 1.3l-2.2.9a35.6 35.6 0 0 1-9.2 1.7c-1.4.1-2.9.3-4.3.6-.8 0-1.6 0-2.3.3-.7.2-1.5 0-2.1.3-.7.3-1.4.1-2.2.2l-1.8.3c-.5 0-1.1-.2-1.7.3h-.4c-.7 0-1.4 0-2 .3h-1l1.1-3c1-2.2 1.8-4.6 2.6-7l.9-3c.4-1 .6-2 .8-3 .4-1.3.6-2.6.7-4 .3-.5.5-1 .4-1.7ZM113.3 63.4c-1.4.5-2.8.2-4.2.5-1 .2-2 0-3 .2-.9.2-1.8 0-2.6.4-.8.3-1.6 0-2.4.2-.9.3-1.8.2-2.7.4-.9.2-1.7 0-2.5.3-.8.2-1.6 0-2.3.3-.8.2-1.5.2-2.3.2l-1.5.3c-.5 0-1-.1-1.4.3h-.6c-.6 0-1.3 0-2 .3-.5.2-1.3 0-2 .3-.5.3-1.3-.3-1.9.3-1.2 0-2.4.4-3.6.6-2-8-3.8-16-7.2-23.7l2.3-.4c1.2-.3 2.5-.4 3.7-.8l1.8-.4c1.3-.2 2.6-.4 3.8-.8l1.2-.1 1-.3c1.5-.1 2.9-.5 4.2-.7l3.7-.5c1.4-.3 3-.3 4.3-.6.8-.2 1.5 0 2.1-.3.8-.3 1.5-.1 2.1-.3a8 8 0 0 1 2.6-.3l1 2 2.9 6.4 2 5.3 1.5 4.5c.5 1.6 1.1 3.2 1.4 4.9l.6 1.5ZM184.6 23.6c2.8 3.2 5.3 6.8 7.4 10.6-.5 0-1.1.3-1.8-.1-.2-.2-.5 0-.9-.1-1.9-.1-3.8 0-5.6-.4-1.4-.2-2.7-.1-4-.2-1 0-1.8-.5-2.8-.3-1 0-2 .2-2.8 0-1.6-.5-3.1-.2-4.7-.3-8.4-.6-16.9-.1-25.3-.3-1.3 0-2.4.4-3.6.3-1.2 0-2.5-.2-3.6 0-1.6.4-3.2.1-4.8.3-1.5.3-3 .1-4.5.4-1 .1-2 0-3 .2l-2.5.3-2.4.3c-.9 0-1.7.4-2.6.6-.8-.9-1-2-1.7-3l-1.8-3c-.6-1.1-1.4-2-2-3l-2.3-2.8 3.5-.4c1-.3 2.1 0 3.1-.3s2 0 2.9-.3c1.3-.3 2.8 0 4.2-.3 1.5-.3 3 0 4.5-.3 2-.4 3.9 0 5.8-.3 1.5-.2 3-.2 4.5-.2h4.6c.8 0 1.5-.3 2.3-.1h10.5c1.1 0 2.2.5 3.4.3 1.1 0 2.4-.2 3.4 0 1.5.4 3 .3 4.4.3.8 0 1.6.5 2.4.3.9 0 1.8-.2 2.5 0 1.3.5 2.5.2 3.8.3l2.1.3c.7.1 1.4-.2 2 .3 1.6 0 3.2.6 4.8 1l.6-.1ZM247.3 66.2h-3.6l-1.8-.3h-2c-.7-.3-1.5-.2-2.2-.3l-2-.3-1.8-.3c-.5 0-1 .1-1.7-.3-.4-.2-1.2.1-1.7 0-.9-.4-1.8-.1-2.6-.4-1-.2-2 0-3-.3-1.3-.3-2.5-.1-3.8-.3-.8 0-1.7-.2-2.7-.4-.2-.8-.8-1.8-.9-2.8-.1-1.2-.7-2.3-1-3.5-.2-1-.4-2-1-3l-1-3-1.4-3.4c-1.3-3.4-3-6.6-4.6-9.9l-.3-.3c.8 0 1.6-.1 2.2.2.7.3 1.4.1 2 .5.8.3 1.8.1 2.7.4l2.6.6c2 .5 4.2.6 6.2 1.4 1.7 0 3.2.8 4.9.9 1 0 1.8.6 2.8.8 1.4.1 2.7.8 4.2 1 .7 0 1.3.6 2.1.5.4.6.8 1 1 1.6 1.2 2.2 2.4 4.4 3.4 6.7 1.5 3.3 2.6 6.6 3.8 10 .4 1 .5 2.4 1.2 3.5v.7ZM25.9 54.1l.4 4.4v8.1c-.2 3.3.3 6.6.3 10 0 3.3-.2 6.6 0 10 .3 2.4.2 4.8.3 7.3 0 2.4-.2 4.9 0 7.3.5 4.6.2 9.2.2 13.9v41.8c0 .2-.2.3-.4.5h-5.8c-.2-2-.4-4.1-.4-6.1l-.2-3c0-1-.2-2.1 0-3.2.5-3.8.2-7.6.2-11.3V88c0-1 .5-1.8.4-2.8v-5.8c0-1.3-.5-2.5-.4-3.8V72c0-1 .4-2 .6-3 .1-1.1.4-2 .6-3A51.8 51.8 0 0 1 26 54ZM108 200h-2c-1-.2-1.7.3-2.5.3s-1.8-.2-2.5 0l-2.7.3-1.8.2c-.6.1-1.3 0-1.9.3-.2.2-.6 0-.8 0-1.4.1-2.7.1-4 .4-1.1.2-2.2.7-2.8 2l-1.7 3c-.5.9-1.2 1.6-1.8 2.4-.6-.1-1.1.1-1.6-.3-.3-.3-.9 0-1.4-.2l-3.4-.7c-.6-.1-1.3 0-1.7-.3-.5-.5-1-.2-1.6-.4l-1.7-.5h-2l.3-1 2.2-4.8 2.4-6 2.5-7.2c0-.4 0-.7.2-1 0-.3.2-.5.4-.9l3 .3c.3.5.8.3 1.2.3l1.2.3c1.6.1 3 .7 4.6.6.5.4 1.2.1 1.8.4.6.2 1.3 0 1.8.3.7.4 1.6.1 2.5.5.7.4 1.7.1 2.5.4 1.4.4 2.9.2 4.3.8 1-.2 1.9.3 2.8.4l1.4.2c.4.1.8-.1 1.2.3h.6l4.7.4c-1.2 3.1-2.3 6.1-3.7 9.1ZM185.3 222c.8-.3 1.3-.9 1.8-1.6.4-.7 1-1.2 1.6-1.9 1-1.2 2-2.4 2.8-3.8l3.1-5.2c1.8-3 3.3-6.2 4.8-9.3 1-2 1.9-4 2.5-6 .3-.9 1-1.6 1.2-2.5.6-1.9 1.5-3.7 2.1-5.7l1.4-3.4c.6-1.2 1-2.5 1.4-3.8.3-1.2 1-2.4 1.1-3.7 0-.4.2-1 .5-1.4.3-.4 0-1 .4-1.4.3-.3-.1-1 .3-1.5.2-.3 0-1 0-1.5.6-.4 1.3-.6 2.1-.6h6.7l1-.2c.4.8-.5 1.7-.2 2.7-.7 1-.8 2.4-1.2 3.6l-2.6 7.6-2 5.5-1.7 4c-1.5 3.7-3.1 7.4-5 11l-3.3 6-2.4 3.9c-1.4 2.2-3.2 4-5 5.8l-2 1.3-1 .4c-1.8.1-3.6.8-5.3 1.3l-3 .8-.1-.3Zm28.4-48h1.8l1.4-1c-.2-.8.3-1.6-.4-2.3-1.4 0-2.7.1-3.9 1l.4.7-.7.5 1.4 1.1Zm1.7 4.7c-.5-1-1.6-.6-2.2-1l-1.9.3-.7.7v.8c1.4 1.4 1.4 1.4 3.5 1.4l1.3-1v-1.2ZM70.7 164.4c3 .6 5.9 1.6 9 1.2 0 .9-.1 1.6-.4 2.3l-.5 2.7c0 .7-.5 1.3-.3 2-.6.6 0 1.5-.6 2 0 1.2-.3 2.3-.6 3.4-.3 1-.4 2-1 3 0 2-.8 3.6-1.2 5.3-.3 1.6-1 3.2-1.5 4.7-.5 1.2-1 2.3-1.3 3.5l-1.4 3.5c-.2 1.1-1 2-1.4 3.1-1.1 2.8-2.6 5.4-3.9 8-1 2.2-2.6 3.8-4.2 5.3l-1 .4c-1.3-.4-2.7-.7-4.2-.9-1.2-.2-2.4-.5-3.6-1-.2 0-.3-.1-.5-.3.6-.4 1.2-.6 1.6-1 2.5-1.9 3.5-2.7 5-5.6 1-1.6 1.7-3.2 2.5-4.8l3-7 2.8-8 1-3.8c.6-1.8.8-3.7 1.4-5.5.2-.6 0-1.2.4-1.8.3-.7.2-1.6.3-2.4l.3-1.2c0-.4-.2-.9.3-1.2-.1-1.8.5-3.5.3-5.3l-.3-.6Zm4.8 9.5-1-1h-1.2l-1 .6v1.6l.8 1 1.5-.4 1-1v-.8Zm-2.7-5.3c.5 1 1.3 1.2 2.1 1.5l1.5-.7.3-1c-.2-.9-1.1-.9-1.5-1.1l-2.4.6v.7ZM37.3 73.7c.5 1.8 1.1 3.5 1.2 5.3.5.7.3 1.6.6 2.3.2.8.1 1.7.3 2.4l.7 3.5c0 .7 0 1.4.2 2 .3.8.1 1.5.4 2.2.2.8 0 1.6.3 2.4.3.8.1 1.6.3 2.4 0 .7.3 1.3.3 2 0 .6-.2 1.3.3 2v.4c-.2 2.2.3 4.3.3 6.6 0 2.2-.2 4.4 0 6.5.4 3.7 0 7.3.3 10.9.4 3.4.1 6.8.3 10.2l-.2 1c.3.2.2.6.2 1l-.3 1c0 .4-.2.8.3 1.2-.6.6-.2 1.5-.3 2.2v2.4l-.3.7.2 1-.2 1v1c.2 2-.5 4.1-.3 6.2-.5 1-.2 2-.4 3 0 .6-.3 1-.2 1.6 0 .4 0 .9-.2 1.4-.2.4 0 1-.2 1.6-.4 1.4-.2 2.9-.8 4.2.2 1.3-.5 2.5-.7 3.8-.1 1.4-.6 2.8-.9 4.2-.1.8-.4 1.6-.7 2.7l-.1-1.3v-40.6c0-.6.2-1.4 0-1.8-.4-.5.4-1-.3-1.3.5-1.2.2-2.6.3-3.9v-4c-.6-4-.2-8-.3-12V73.6ZM244.8 186.5c-.9 2.5-2 4.7-3 6.9l-1.3 2.6c-2-.1-3.8.5-5.7.4-.7-.1-1.4.2-2 .2-.8.1-1.4-.1-2 .3-.4.2-.9 0-1.2 0l-2.5.5c-1.2.2-1.9 1-2.7 1.8 0 1-.2 2-.6 3-.8 1.9-1.6 3.7-3 5-1.8.4-3.4.8-5 1l-4.8 1-4.8 1c.3-.5.5-1.2.9-1.7 1.4-2 2.4-4.4 3.6-6.6 1-1.8 1.8-3.8 2.7-5.7.6-1.5 1.4-2.8 1.7-4.4.2-.6.6-1.1 1-1.7 2 .2 4-.5 6-.3l1.8-.3c.6-.1 1.3.3 1.8-.3h.3l3.7-.3 1.5-.3c.5 0 1 .1 1.4-.3h.3c1.2 0 2.5-.1 3.7-.3l2.1-.3c.8-.2 1.5-.1 2.2-.3 1.2-.4 2.5-.2 3.8-1ZM102.9 36.9a21.6 21.6 0 0 1-4.3.7c-.5 0-1 .2-1.3.3-.4 0-1-.2-1.3.2h-.4l-3.1.4-1.4.2-1.5.3c-.5.1-.9 0-1.4.3-.5.2-1.2 0-2 .3-.7.3-1.7.2-2.6.3-.4 0-.7.2-1 .3-.4 0-.8 0-1.2.2-.6.3-1.4.2-2.1.4a52 52 0 0 0-3.7.7c-1.7.3-3.4.7-4.9 1.5-1-1.7-1.5-3.4-2.5-4.9a360 360 0 0 0-3.3-5v-.6c1.5-.1 2.9-.6 4.3-.8 1.6-.3 3.1-1 4.8-1 .9-.1 1.7-.5 2.6-.7 1.1-.2 2.3-.4 3.5-.8 2-.6 4.3-.7 6.4-1.4l2-.4c.8 0 1.6-.2 2.4-.5.6-.3 1.2 0 1.8-.3.8-.3 1.8-.3 2.6-.4 1.8 2 5.4 6.5 7.6 10.7Z"/><path fill="#fff" d="M276.5 147.5h-1c-.9 0-2 0-2.9.4-.7.2-1.5 0-2.1.2-.7.3-1.4.3-2.2.3 0-.5-.3-1 .2-1.6v-1c0-.4-.2-1 0-1.3.5-.5-.3-.8.1-1 .4-.4.2-.8.2-1.2v-2.7c.6-1.3.3-2.7.4-4V115l-.3-3V109c-.1-.6-.4-1.2-.3-2l1.3.4h3l1.8.2c.6.1 1.2 0 1.8.3.4.2 1 0 1.4 0l.5.5V127c0 2.6-.5 5.2-.3 7.9-.4 1-.1 2.1-.4 3-.2 1-.1 2-.2 2.8l-.3 1.8c0 .6.2 1.3-.3 1.8 0 1.1-.2 2-.4 3.1ZM71.3 147.7l-.4.4h-3c-1 .1-1.8-.4-2.8-.3-1 .2-2-.3-3-.3.1-1.4-.3-2.8.3-4.1V142c0-1.7-.2-3.5 0-5.2.3-1.7.2-3.5.3-5.2v-5.2c0-3.4-.5-6.8-.3-10.1-.6-1.5-.2-3-.4-4.5l-.3-1.5h1c1.8 0 3.6-.5 5.5-.4.5 0 1-.3 1.6-.3h1.7c.2 1.3.4 2.5.4 3.7 0 3.4.4 6.7.4 10.1-.2 3.4-.1 6.8 0 10.3 0 1-.4 2-.4 3s.2 2.1 0 3.1c-.3 1.3 0 2.7-.3 3.9-.4 1.4-.1 2.6-.3 4ZM184 219.8c-.9.1-1.7.1-2.4.5-.6.2-1 0-1.4.2-.5.3-1 .3-1.4.3l-1.5.3c-.6 0-1.1 0-1.5.3-1.1-.2-2.1.4-3.2.3l-1.8.3c-.6.1-1.3-.3-1.8.3h-.3c-1.4 0-2.8 0-4.2.3-1.3.2-2.5 0-3.7.3-1.4.3-2.8 0-4 .3-1.8.4-3.5 0-5.2.3-1.5.3-3 .2-4.5.3h-4.6c-1.8 0-3.7.5-5.5.3-.6.4-1-.7-1.5-.1-.6-.4-1.2-.2-1.8-.2H128c-1.3-.4-2.7-.2-4-.4-.8-.1-1.6-.3-2.4-.2l-.4-.4-1.2-6.5c1.2.1 2.4-.3 3.5.3h.2l4.6.3c.7 0 1.3.3 2 .3.6 0 1.4-.2 2 0 1.2.5 2.3.2 3.5.3 7.4.6 14.8.1 22.2.3 1.6 0 3-.4 4.7-.3 1.5.1 3 .2 4.6 0 1.8-.4 3.6 0 5.4-.3 1.4-.3 2.8-.2 4.2-.3.6 0 1.3-.4 2-.3.6 0 1.3 0 1.9-.3 1 .2 2.2-.3 3.3-.3 1-.1 2-.1 2.9-.6h.6c-.4.6-.7 1.2-1.2 1.6-.5.4-.5 1.1-1.2 1.4-.6.3-.9 1-1.2 1.4ZM50.2 160.8l2.5 1c1.7.5 3.3 1.1 5.1.9l-.5 2c-.1.8 0 1.7-.3 2.4-.5 1.2-.3 2.4-1 3.5 0 2.5-1 4.6-1.4 7-.2 1-.6 1.9-.9 2.8l-1.2 4c-.8 2.5-1.6 5-2.6 7.6l-2 5c-.3 1-1 1.7-1 2.8-1 1.3-1.7 2.9-2.7 4.3a35.9 35.9 0 0 1-4.2 4.6l-1.4 1.2c-.4-.7-1-.8-1.7-1-2-.4-3.8-1-5.8-1.5l-.5-.4c2.7-.8 4.3-3.1 6.2-5l2.4-3.7c.9-1.4 1.5-3 2.2-4.4a30 30 0 0 0 1.6-4.2l1.8-5c.2-.8.3-1.6.7-2.4.4-.7.5-1.6.7-2.4.3-1.6 1.1-3.2 1.2-5 1-1.7.7-3.7 1.4-5.5.2-.6.1-1.4.3-2 .3-1 .2-1.8.6-2.7v-.4c.3-1.2.4-2.3.5-3.5Zm1.8 7c1.7 0 1.8-.1 2.4-1 .4-.6.4-1.2-.2-1.7h-1.9l-1.8.8v.7l1.5 1.2Zm-1.5 5.2c.7.5 1.3.6 2 .1.8-.4 1.3-1 1.2-1.9l-.4-.4h-2.1l-.7.7v1.5ZM71.3 107.5c-3.1.7-6.3.7-9.4 1.5-.4-1.2-.5-2.4-.4-3.6 0-.7-.5-1.4-.3-2.1 0-.7.2-1.4-.3-2v-.1l-.3-4.2-.3-1.9c0-.6.2-1.2-.3-1.8V93c0-.7 0-1.4-.3-2.1-.2-.6.2-1.4-.3-2v-.2c0-.8.1-1.4-.2-2.2-.3-.6.1-1.4-.4-2 .2-1-.3-2-.3-3l-.3-1.3c0-.4.1-.8-.2-1.3-.4-.4.2-1.2-.4-1.8 0-1.4-.6-2.7-.6-4.3H58c.7.1 1.3-.2 1.9-.3.5-.2 1.2.2 1.6-.3h.2c1.3.2 2.5-.5 3.7-.3.5 1.3.4 2.8 1 4 0 1.4.9 2.6.7 4 .5 1 .3 2.4.8 3.5-.2.8.4 1.4.4 2.2 0 .9.2 1.7.5 2.5.2.7-.1 1.5.3 2 0 1.7.6 3.2.7 4.9 0 .7 0 1.6.2 2.2.3.8 0 1.5.3 2.3.3.7.1 1.6.3 2.4.3.8 0 1.6.3 2.4.5 1.1.2 2.2.3 3.3ZM278.1 105.9c-1-.2-1.8.1-2.7-.4-.3-.2-.8 0-1.3 0-1.6.2-3-.4-4.6-.3l-.8.2c-.4-.8-.5-1.8-.4-2.7 0-1.5-.5-2.9-.3-4.3-.5-.8-.2-1.6-.3-2.5l-.3-1.8c0-.5.2-1.1-.3-1.7V92c0-.7 0-1.4-.3-2-.2-.7.1-1.4-.3-2-.2-.4 0-1 0-1.4l-.3-1-.4-3c-.2-1-.3-1.9-.6-2.8-.1-.6 0-1.4-.3-1.8-.4-.5 0-1-.5-1.6-.3-.4-.2-1.2-.3-1.8l-.6-2.4-.6-2.3-.3-.4c.7-.3 1.3.3 2 .4.7 0 1.5.4 2.2.5.7.1 1.3.4 2 .6 1 .2 2 .6 3 1 .3 0 .6.3.9.5.3.2-.1.8.4 1 0 1.4.7 2.7 1 4.1.2 1.2.4 2.4.8 3.5l.8 3.4.4 2.3c0 .8.4 1.6.3 2.5.7.5-.1 1.5.6 2.1v.3c0 1.2 0 2.5.3 3.7.2 1 0 2 .3 3 .3 1.2 0 2.3.3 3.3.3 1.3 0 2.7.2 4.2ZM61.8 149c3 .8 6 1.2 9.2 1.2-.4 1 0 2.2-.3 3.1-.4 1.1-.1 2.2-.3 3.2 0 .6-.4 1-.3 1.7.2.6-.1 1.2-.3 1.8 0 .6-.2 1.1-.3 1.7l-.4 1.6-.1.2c.7 1.1-.3 1.8-.6 2.7-.3 1.2-.4 2.5-.6 3.7l-.7 4c-.3 2.2-.8 4.5-1.4 6.7 0 .2-.3.4-.4.6-1.4-.4-2.9-.3-4.3-.8-1.3-.6-2.8-.5-4.2-1l.8-2.9c.3-.8.4-1.7.6-2.6l.6-2.4c.3-.8.2-1.6.3-2.4l.2-.7c.4-1.2.5-2.4.7-3.7 0-.4.1-.7-.1-1.1-.2-.3-.3-.8-.1-1.1.4-1 .3-2.1.8-3.1.2-.6-.2-1.4.3-2-.2-1 .3-2 .3-3l.3-1.8c.1-.6 0-1.1.3-1.7.2-.5 0-1.3 0-1.9ZM276.2 166c1.6-.2 3-.5 4.5-.9 1.2-.3 2.6-.5 3.9-.3.5 0 1 .2 1.5.4-.3 1.9-.6 3.8-1.3 5.5l-2.8 7-1 1.9-.7 1.9c-.2.6-.8 1.2-.7 2-1.2 1.8-1.9 4-3.2 5.8-.6.8-1 1.8-1.5 2.7-1 1.7-2 3.3-3.1 4.8a31.2 31.2 0 0 1-5 5.6c-.5.5-1.3 1-2 1.3a9 9 0 0 1-2 1c-1.4.3-2.6 1-3.9 1.2-1 .1-1 .3-2 .1 1-.6 1.7-1.3 2.6-2 1.2-.8 2.2-1.9 3.2-3l2.2-3.2a33 33 0 0 0 2-3.2c.4-1 .8-2 1.3-2.8.6-1 1-2 1.4-2.9.7-1.9 1.7-3.6 2.3-5.5 1-.8 1-2 1.7-3 .5-.7.7-1.6 1-2.4l1.6-4.3c.3-.7.4-1.5.5-2.3v-3.7l-.5-1.6Zm4.2 9.5.6-1v-1.9l-.4-.4h-1.4l-1.4 1.4v1.1l.7.8h1.9Zm2.3-7.9c-.7-.6-1.6-.4-2.4-.4-.6.5-1 1-1 2l1.3 1c.8 0 1.7 0 2.2-.8.3-.5.5-1.2 0-1.8ZM117.4 205.4a8.2 8.2 0 0 0-3.8-2.8l-2.4-.9c-.2 0-.2-.2-.4-.3l2.1-5 2.6-6.5c.2-.5.5-1 .6-1.6 0-.6.4-1 .5-1.5.3-1.7 1-3.2 1.3-4.9l1-4 .5-2.5c0-.6.2-1 .3-1.5 0-.6-.3-1.1.3-1.6v-.2c-.2-1.3.3-2.6.3-4l1.4.2c.5.1 1 0 1.4.3.3.2.9.1 1.3 0 1.5 0 2.8.5 4.2.7l-.6 2.7-.6 2.6c-.2.8 0 1.7-.3 2.5-.4.8-.4 1.7-.7 2.6l-.8 2.5-1.5 5c-1 3.4-2 6.8-3.3 10-.7 2-1.4 3.8-2.4 5.7l-1 2.5Zm6.6-25 .7-1.3-.6-1.5H122l-.8.4c-.8 1.2-.2 2 .7 2.9h1.4l.7-.4Zm-1-9.6c-.8 1.2-.9 2-.2 2.7.6.6 1.3.7 2.6 0l.3-1.5-.9-1.2H123ZM208 36.4l-3.3-5.9c-1-2-2.4-3.7-3.7-5.7l.7.1c1 .3 2 .7 3 .8 1 .1 2.1.5 3.2.7l2 .4 2 .4c.6.1 1.3 0 1.9.5 1.2 0 2.3.4 3.4.6l5.7 1.4c2.1.4 4.1 1.2 6.2 1.6h.2c2.9 2.9 5 6.3 7.4 9.9l-2.2-.4-1.9-.6-1.8-.3c-.6-.2-1.3 0-1.8-.6-1.1 0-2.1-.3-3.2-.5l-1.5-.3c-.4-.2-1 0-1.3-.4-.8.2-1.5-.2-2.3-.3-.8 0-1.6-.4-2.4-.3-.6-.7-1.6.2-2.2-.5l-2.5-.3c-1.9-.2-3.7-.5-5.5-.3ZM249.8 198.5l-3.2-1.2c-1-.3-2-.5-3-1l2.5-5.1 2.5-5.8 2.6-7.3 1-2.8.7-2.1.5-2 .3-1.6.2-1.5.4-.6c2.2.2 4.3-.5 6.5-.3.6 0 1.3-.3 2-.4.3 2 0 3.7-.6 5.4-1 3-2.3 5.8-3.2 8.8l-1.8 4.5c-.8.7-.8 1.8-1.4 2.7-.6.8-.7 1.9-1.5 2.6 0 .8-.6 1.4-1 2l-2.7 4.9-.8.8Zm10-28.5c-.6-.7-1.3-1.2-2.2-1l-1.6 1.2v1.4l1 .6c1.2.1 2.2 0 2.9-1.1v-1Zm-5 5.7c.8 2.3 2.6 1.8 4.1.6V175l-1-.7c-1.3-.3-2.1.7-3.2 1.4ZM269.6 179.6l-1.1.3c-1.7.4-3.2 1.1-5 1.3-.5 0-1 .4-1.6.2l.4-1.2c.3-1.3.7-2.5 1.2-3.7l1.4-3.4.8-2.9c.2-1.2.1-2.4.2-3.6l-.3-1.2c-.2-1 .1-1.8.4-2.7.4-1 .5-2.2.8-3.4l.3-2c.1-.6 0-1.2.3-1.7.4-1 0-2 .3-2.7.3-1 .1-1.7.3-2.7h1.3l7-.4-.3.8c0 1.6-.5 3-.6 4.6l-.7 3.2c-.3 1-.3 2-.7 3-.3.5-.3 1.1-.4 1.7 0 .6-.3 1-.3 1.5.1 1.8-.2 3.5-.9 5 0 1.6-.6 2.9-1 4.3-.1 1-.7 1.8-.9 2.7l-1 3ZM49.7 48.9c1.7.2 3-.8 4.6-1 1.2-.2 2.3-.7 3.6-.8 3.2 7.5 5.4 15.3 7.2 23.2-2.8.2-5.4 1-8.3 1.2l-.4-.6-1.8-7c-.4-1.9-1-3.8-1.5-5.6-.5-1.9-1.2-3.7-1.8-5.5-.4-1.3-1-2.5-1.6-3.9ZM25.2 49.5h1.2c.4 1.1 1.5.8 2.4 1l-.8.4c-1 0-1.7.6-2.4 1.2a11 11 0 0 0-3 4.3 28 28 0 0 0-1.1 3.5c-.4 1.1-.8 2.3-.9 3.5l-.3.9c0 1.4-.5 2.6-.6 4l-.3 1.4-.2 1.7c-.1.5.1 1-.4 1.5.2.9-.3 1.7-.3 2.6l-.3 1.5c0 .5 0 1-.2 1.5-.3.6-.2 1.4-.3 2.1-.3 1.1-.3 2.3-.4 3.5 0 .5-.4 1-.3 1.6 0 .6.2 1.1-.3 1.5v.2l-.2 3.9c0 .7-.5 1.3-.4 2.1.1.6.2 1.3-.2 2v.1c.1 1.9-.5 3.7-.4 5.5.1 1-.4 2-.3 3 .1 1 .2 2 0 3-.5 2-.2 3.9-.2 5.8 0 2.4-.5 4.7-.4 7v7.2c0 1.3.5 2.5.4 3.8-.1 1.2-.3 2.5 0 3.6.3 1.5.1 2.9.3 4.2l.2 1.9v1.8c.4 1 .1 2 .4 2.8.2.7.2 1.4.2 2.2l-.1.2c-.4-2.1 0-1.5-2.2-3.7 0-1.8-.6-3.6-.4-5.4-.5-1.2 0-2.5-.3-3.7-.5-2.4 0-4.9-.3-7.3-.3-2.3-.2-4.6-.2-6.9 0-2.3-.2-4.6 0-7 .2-2.3.2-4.7.2-7.1.6-1.5.1-3.1.4-4.7.2-1.4 0-2.9.3-4.3l.2-3.2c0-.6.4-1.2.3-2 0-.6 0-1.3.3-1.9v-.2c0-1.3.1-2.7.3-4 .2-1.4.6-2.8.6-4.3.5-.6.1-1.5.4-2.1.3-.7 0-1.4.3-2 .4-.7 0-1.7.6-2.4-.2-.9.2-1.7.3-2.5 0-.8 0-1.6.3-2.1.4-.6 0-1.2.4-1.8.3-.4.3-1 .4-1.6.1-.6 0-1.3.4-1.8.3-.5 0-1.2.5-1.7.5-2.4 1.4-4.6 2.1-6.8.7-2 1.6-4 2.8-5.8.3-.7 1-1.2 1.5-1.7ZM252 45c2 .2 3.7 1 5.5 1.4 1.8.3 3.4 1.3 5.2 1.6 3.8 6.8 6.6 14 8.8 21.3-1-.2-2-.2-2.8-.5-1.2-.4-2.5-.3-3.6-.8-.3-.2-.7 0-1 0h-1.7c0-.2-.3-.3-.3-.4 0-1-.6-1.7-.7-2.6a7 7 0 0 0-1-2.4c-.4-1-.3-2-1-2.9A72 72 0 0 0 255 50c-.8-1.4-1.3-2.9-2.2-4.2l-.8-.8ZM56.5 180.8l6.2 1.8h.7c.7 0 1.1.3 1.6.5-2 7.1-4.7 14-8 20.4l-8.4-1.9 1.4-2.8 1.7-4c.4-1.5 1-2.9 1.6-4.3.4-1.4 1-2.7 1.3-4 .6-1.7 1.2-3.3 1.6-5l.3-.7ZM182 20.9c-1.5.2-3-.5-4.4-.3-1-.5-2-.3-3.1-.3-.8 0-1.5-.4-2.3-.3-.7 0-1.4.2-2-.2-.3-.2-.8 0-1.1 0-2.7 0-5.4-.6-8-.4-1.6-.6-3.3-.3-4.9-.3-1.8 0-3.5-.4-5.2-.3h-10.8c-1.3 0-2.6.5-3.9.3-1.2 0-2.6-.2-3.8 0-1.5.3-2.9.1-4.2.3-1.4.3-2.9 0-4.3.4-1.2.2-2.4 0-3.6.2-1.4.3-2.8.2-4.2.4l-2 .2c-.8 0-1.4.2-2 .3-1 .1-1.8.3-2.6.6-.4 0-.8.3-1.2.5-.2-.2-.6-.4-.8-.8-.2-.3-.8-.2-.8-.8 0-.2-.6-.4-1-.6l-1-.8.8-.1c.2.4.6-.3.8.2.5-.5 1-.2 1.5-.3 2-.1 4.1 0 6.2-.3l3-.3c1-.3 2.1 0 3.1-.3 1.4-.3 2.8 0 4-.3 1.3-.3 2.4 0 3.5-.3 1.8-.4 3.7 0 5.4-.3 2.4-.4 4.7 0 7-.2.7-.1 1.5 0 2.1.3 1.4.6 2.8 1 4.2.8 1.5 0 3-.4 4.4-.9.2 0 .4-.3.7-.6h3.4c1.3 0 2.4.5 3.8.4 1.2-.2 2.5-.2 3.7 0 1.3.3 2.7.2 4 .2.7 0 1.3.4 2 .3.6 0 1.4-.2 2 .3 0 .1.3 0 .4 0l4 .3 1.2.3 1.2.3c.7.2 1.5 0 2.3 0 .7 1 1.9 1.3 2.5 2.4Z"/><path fill="#fff" d="m19.4 150.2-1.2-.6c.2-1.3-.5-2.5-.3-3.8-.5-.9-.3-1.9-.3-2.8 0-.8-.4-1.5-.3-2.3 0-.7.2-1.5-.3-2 0-1.4.2-2.7 0-4-.5-2.5-.2-5.1-.3-7.7v-15.8c0-.6.3-1.2.2-1.8-.2-.6.2-1.1.2-1.7v-1.8c0-.6-.2-1.3 0-2 .4-1.3 0-2.8.3-4.2.2-1.3 0-2.8.3-4.2.2-1 .1-2 .2-3.1.1-.7.4-1.3.3-2 0-.7.1-1.3.3-2 .3-1.2.2-2.5.3-3.7l.3-1.8c.1-.6-.1-1.1.3-1.7.2-.4 0-1 .2-1.6l.1 1v37c0 2 .3 3.9.3 6v6c.2 2-.3 4-.3 6s.2 4.1 0 6.1c-.3 2-.2 3.9-.2 5.7 0 .4-.4.8-.1 1.3.2.3 0 1 0 1.5ZM48.6 146l-4.4-2.3c0-1.4-.2-3 0-4.5.4-2.7.2-5.3.2-8V115c0-1-.4-2-.2-3.1l4.3-1.3v.4l.3 7.8V142l-.2 3.9ZM30.3 164.2h-.1c-1.8-.2-3.6 0-5.3.3-1.5.3-3 .1-4.6.3h-1.8l-6.3-.3H5.8c-.7 0-1.4-.3-2.1-.4-.4-.8.4-1.7.2-2.6l-.4-2.6-.5-1h2.2l3.1.8 2 .7c.9 0 2.1.2 3.2 0 1.4-.3 2.7-.2 4-.2h1.2c.3.5.5-.3.8.2.3.4 1-.3 1.5 0 .4.2 1 .2 1.5-.2h7.4c1.4 1.9 1.5 2.6.4 5ZM44 176.4c-1.2-1.6-1.8-3.5-3.7-4.6.1-.6 0-1.4.4-2 .2-.5 0-1.2.2-1.5.4-.6 0-1.2.4-1.5.4-.6.1-1 .2-1.6l.6-2v-.5c0-.6 0-1.1.2-1.8.3-.5 0-1.2.3-1.8v-.2c.1-1.3 0-2.6.4-3.8.2-1 0-2 .3-3 .4-1 .1-1.9.3-2.8 0-.6.4-1 .3-1.7v-1.8c1.3.2 2.2 1.2 3.7 1.7h1c0 1 0 2-.2 3.1-.3.9 0 1.9 0 2.8 0 1.5-.3 3-.4 4.5l-.6 4c0 1-.3 2.2-.6 3-.3.7-.1 1.5-.5 2.1-.3.6-.2 1.4-.4 2-.2.7-.2 1.4-.5 2-.2.5-.2 1.2-.3 1.7-.1 1.3-.7 2.3-1 3.5v.2ZM269.1 182c-.2 2.3-1.5 4-2.3 6a96.6 96.6 0 0 1-6.4 11.3l-5.2 1c-1-.4-1.6-.8-2.3-1.2 2.9-5 5.7-10 8-15.5 2.9-.1 5.5-.9 8.2-1.5ZM44.2 75.2c-.1 1.5.2 2.6.6 3.7l.3 2.7.2 1.4c0 .4 0 .9.4 1.2-.1.9 0 1.7.2 2.6.3 1.1.4 2.3.6 3.5 0 1 .4 2 .4 3.1l.2 1.8c.2.6-.2 1.3.3 1.9v.2l.3 4.2c.3 1.3 0 2.7.4 3.9.3 1.4 0 2.8.2 4.2l-4.1.7-.4-6.7v-2c0-.8-.2-1.5-.3-2.3 0-.8.2-1.6 0-2.4-.3-.8 0-1.8-.3-2.5-.5-1 0-2.2-.6-3.2.2-1.1-.4-2-.3-3.2l-.3-1.5c0-.5.2-1-.3-1.5.2-.8-.2-1.5-.3-2.2 0-.6-.2-1-.3-1.5-.1-.5.1-1-.2-1.6-.3-.4 0-1 0-1.5 1-1 1.6-2.3 3.3-3ZM142 3.9c2 .8 6.4.8 8.3 0v11l-1.2.6c-.6.4-1.2.7-1.8.7h-2.1c-.7 0-1.3-.3-2-.5-.8-.3-1.2-1-1.2-1.8v-10ZM36.8 197c-.7-2.3-1.5-4.5-1.6-7l-.7-.7c1.6-2.8 2.6-5.8 3.6-8.8.5-1.7 1-3.4 1.2-5.1 0-.4.3-.7.4-1 1 1.6 1.9 3.4 4.1 3.6l-1.2 4.4c-.4 1.3-.7 2.6-1.3 3.9-.4.8-.5 1.7-.9 2.6-.9 2.3-1.8 4.7-3 7l-.6 1.1ZM15.1 65.9h.6c.2.2-.2.3-.2.4 0 1-.3 2-.6 3-.3 1.4-.4 2.7-.8 4-.2.4 0 .9 0 1.3-.1.4-.3.8-.3 1.3l-.4 2.3c-.1.8 0 1.6-.3 2.3-.2.7-.2 1.3-.2 2l-.3 1.6c0 .6.2 1.2-.3 1.7v.5l-.2 2.9c-1.2-.5-2-1.4-3.4-1.2l.3-2.2c0-.7-.2-1.5.1-2 .3-.7.2-1.3.2-1.9l.4-1.8c0-.6-.3-1.3.2-1.8.2-.1 0-.5 0-.7 0-.7 0-1.3.4-1.9.2-.4-.2-1.1.3-1.6a7 7 0 0 1 .3-2.7c.4-1.3.2-2.8.9-4-.2-1.4.6-2.5.6-3.7 0-.4.3-.9.4-1.4.6.9 1.2 1.7 1.5 2.7l.8.9ZM57.2 45.5c-3 .5-5.4 1.5-7.9 2.4-1.4-3.2-3-6.5-5-9.6l3.6-1c1-.5 2.3-.6 3.6-1 2.4 2.7 4.2 5.7 5.7 9.2ZM64 31.6l-2.7-2.7c1.7 0 3.3-.6 5-1L69 27c1.4-.4 3-.6 4.4-1.1l3-.7c1.4-.3 2.8-.5 4.2-1l3.4-.7c1.8-.6 3.7-.9 5.5-1.5h.9c.6 1 2.1 1 2.6 2.3-1.8.2-3.5.8-5.3 1.2l-3.5.7-4.5 1c-1 .4-2.1.5-3.1.8L71 29.5c-1.6.3-3.2.8-4.8 1.3l-2.4.8ZM43.6 74l-3 2c-.3-.4-.6-.8-.6-1.4 0-.5 0-1.1-.3-1.6-.3-.8-.3-1.7-.5-2.5l-.6-2.4c-.6-2.2-1.2-4.3-2-6.4L35.2 58c1.2-1.4 1-3.5 2.6-4.8l.4.8c1.2 2.7 2 5.4 2.9 8.2 1 4 2 8 2.6 11.8ZM27.1 188.2c-1.4-2.8-2.3-5.6-3.2-8.4-.5-1.6-1-3.2-1.2-4.8-.2-1-.7-1.7-.6-2.6-.6-.6-.2-1.4-.6-2-.3-.8-.2-1.7-.3-2.6 0-.3-.3-.5-.4-.9h3.1c.6 0 1.1-.3 1.7-.3h1.5v21.6ZM8.4 90.1l.4-.4.7 1 2.1.3c-.1.8.4 1.6-.3 2.4v.3l-.3 5.4c0 1-.1 2-.3 2.9 0 .9.3 1.8-.2 2.7.5.5 0 1 0 1.4v1.6c0 3.1-.7 6.2-.3 9.4l-2.8.4c0-2.1-.2-4.1 0-6 .5-2.8.2-5.5.3-8.3 0-.5.3-1.2.1-1.5-.3-.6.4-1 0-1.5.4-.5.1-1.1.2-1.7v-1.8c0-.6-.2-1.2 0-1.8.6-1.5.2-3.1.4-4.8ZM25.3 203.3h.9l.7-2.7.6-2.8.3-3c.9-.4 2-.4 2.8-1 .7-.7 1.6-1 2.4-1.6.4 1.3.6 2.6 1.1 3.8l.3 1.2 1 2c-.7 1.2-1.3 2.4-2.4 3.4-.7.6-1.2 1.3-2 1.9a6 6 0 0 1-1.5 1c-.4.2-.8.1-1.2 0-1-.6-2-1.2-3-2.2ZM115.5 205.7l-.2.2c-1.9-.2-3.7.4-5.5.3-2.7.6-5.4.2-8 .3h-2.6l-2.4.4c-.9-2-2.8-2.4-4.6-3.7 1.1 0 2 0 2.7-.2.8-.2 1.7 0 2.5 0l2.1-.4c.7 0 1.5.2 2 0 2.2-.6 4.3 0 6.3-.3 1.1 1 2.6 1.1 3.8 1.6 1.4.6 2.4 1.6 4 1.8ZM25.7 194.7c-.2 2.3-.9 4.6-1.3 7-.4.1-.4-.1-.6-.4-.8-1-1.5-2.3-2-3.6-.4-.8-1-1.6-1.1-2.5-.2-.9-1-1.5-1-2.4-1.2-2.6-1.9-5.4-2.8-8.1-.4-1-.5-1.9-.8-2.8 0-.4-.2-.7-.3-1.1l1.1-.6c.3-.4.5-.9 1-1.4.3 1.6.9 3.2 1.3 4.7.2 1 .6 1.9 1 2.7.3 1 .5 2 1 2.7 1 1.6 1.5 3.6 3.1 4.8l1.4 1ZM16.3 63.2l-1.9-2.4c-.3 0-.7-.3-1.3-.5 1-3 1.7-6.2 2.8-9.2 1-2.5 2.3-4.9 3.7-7.6.3 1.8.7 3.1.7 4.6l.3 1.2c.1.4 0 .9.3 1.3.2.2 0 .6-.2 1A48.3 48.3 0 0 0 16.5 63l-.2.2ZM21.1 41.4c1.4-1.3 2.5-2.8 4.2-3.5a10 10 0 0 1 5.3 3.6c-1.2.7-1.8 2-2.2 3-.4 1.3-1 2.5-1.3 3.8-1.4-.1-2.8 0-4 1-.4-1.3-.8-2.4-1-3.6-.3-1.4-.4-3-1-4.3ZM11.4 143.3H9.1c-.3-.5-.3-1.1-.4-1.7-.4-1.3 0-2.7-.4-3.9-.3-1.6 0-3.1-.2-4.6-.5-3 0-5.8-.3-8.6l-.3-5.4v-.8l1.2.3h1.5v6.1c0 3.1.6 6.2.3 9.4.5 1.5.1 3 .4 4.5.2 1 .2 2.2.3 3.3-.1.4 0 .9.2 1.4ZM260.8 44.8l-3.6-.8c-.6-.2-1.4-.1-2-.5-.4-.2-1-.2-1.3-.3h-1.4l-.8-.2a3 3 0 0 0-.7-.1L246 35l.6.3 5.6 1.6c1 .3 2 .5 2.9 1 .8.2 1.4.7 2 1.5l2.3 3 1.5 2.3ZM45.9 209.2c-.6-.4-1 .4-1.6 0-.3-.2-1 0-1.7 0 2-2 3.7-3.8 5-6 1.5.5 2.9 1 4.3 1.3 1.4.3 2.6.8 4.1 1.2-1.4 2.2-2.8 4.1-4.9 5.3l-4.8-1.3-.4-.5ZM201.5 217.2a427 427 0 0 0 3.9-5.6h1.5c1.2-.1 2.5 0 3.7-.4.8-.2 1.7-.1 2.5-.5.7-.3 1.8 0 2.5-.4.7-.3 1.5 0 2.2-.5h.9c-.5 1-1 1.6-2 2l-.7.8-2.4 2c-.3.3-.7.5-1 .5-1.5 0-2.8.5-4.2.7l-6 1.2-.9.2ZM65.3 213.7c1.7-2 2.8-4 4-6 3.7 1 7.3 2.2 11.2 2.8l.3.4c-.8.7-1.9.9-2.9 1.3-1.6.6-3.4.9-5.1 1.2-.8.2-1.7.3-2.4.7-.4.1-.9.2-1.3.1a9 9 0 0 0-3.8-.5ZM249.4 200.8c-1 0-1.6 0-2.2.3-.6.2-1.3-.3-1.8.3h-.2c-1 0-2-.1-3 .3-1.7-.2-3.5.4-5.2.3-.4 0-.8.3-1.1.3-1.6.1-3.1-.2-4.6-.9-.8-.4-1.7-.8-2.6-1-.2 0-.3-.2-.6-.4l3-.4c.8-.2 1.7-.1 2.4-.4.8-.4 1.6.2 2.3-.5h.6c1.9.2 3.7-.2 5.5-.3 1.3 0 2.5.5 3.8.8 1 .2 1.9.8 3 1l.7.6ZM36.7 50.6v.8c-1.3 1-2 2.7-2.8 4.1L32 52c-.7-1.2-1.8-1.8-2.7-2.7.7-2.3 1-4.8 2.5-6.7 1 1.3 1.9 2.6 2.7 4 .8 1.2 1.2 2.7 2.2 4Z"/><path fill="#fff" d="m29.3 193-1.3.8-.7-.7c-.3 0-.6 0-1 .2.1 0 0 0 0 0l-1.5-2.1c-1.2-2.5-2.2-5-3-7.5l-1.2-3.8-.6-2.2c-.3-.6-.3-1.3-.6-2-.5-1.3-.7-2.7-1-4.1l-.8-3.3-.2-1.3c.4-.2 1 0 1.6-.1l.6 3 .5 2.6.8 3.3.7 3.1 1.1 3.7A33 33 0 0 0 24 186c.8 1.6 1.4 3.4 2.8 4.6.4 1.2 1.6 1.5 2.5 2.3ZM197.7 20.9l1.3.3 4.3 1c1.7.3 3.5.3 5.1 1 1.4 0 2.7.7 4 .7.6 0 1.1 0 1.6.2.9.4 1.8.5 2.7.6l2.9.7c1.5.4 3 1 4.5.8l2.4 2c-.8.3-1.4-.2-2-.3l-.6-.2c-.7.2-1.4-.2-2-.4-1.4-.3-2.9-.4-4.2-.8-1.6-.5-3.3-.5-4.8-1.2-1.9 0-3.6-1-5.5-1-.6-.3-1.4 0-2-.3-.6-.3-1.2 0-1.7-.3-1.2-.4-2.5-.1-3.3-.2l-2.7-2.6ZM7.8 166.6h4.7v7.6l-1.4.7c-2.2 0-2.2 0-3.3-1v-7.3ZM9.4 145.8h2.8v.1l-2.3.4-1.9 2v1.9c0 .5.2 1 .4 1.3.2.5.8.7.9 1.2l3.9 2.3-.7 2.6c-.9.5-1.8.5-2.7-.1-.3-.2-.7-.5-1.3-.4l-.6-.3v-4.1l.2-.2c-.7-.7 0-2-1.2-2.4a6 6 0 0 1 1.4-3.7l1.1-.6Z"/><path fill="#fff" d="m9.4 151.4-.4-1.6c.3-1.3 1.5-1.6 2.6-2 .4-.1 1 0 1.4.3.6.4 1.3.5 1.7 1 .3.4.7.5 1.2.9-.8.3-1.1.8-1.5 1.4-.4.6-.4 1.3-.4 2l-2.3-1.3c-.8-.3-1.4-1-2.3-.7ZM50.2 34.8 43.4 37c0-.2-.4-.4-.6-.6l-.7-1-.8-.6 3-1.1c1-.4 2-.4 2.9-.9 1.4.1 1.8 1.5 3 2ZM15 177.7c-1-3.3-1-3.3-1-6.2v-4.9h.9a73 73 0 0 0 2.2 9.2l-2 2ZM15.6 155c-.1-.8-.7-1-1-1.4.6-.4.2-1 .4-1.6l1-.6c.5.6 1.2.1 1.8.3l1 .8c0 .3.4.7.3 1.2 0 .7-.5 1.1-1 1.6h-1.3l-1.2-.4ZM252.4 34.9c-1.2 0-2.4-.5-3.6-.8a41 41 0 0 1-4.4-1c-.2-.6-1-.7-1-1.5 1 0 1.7.6 2.6.6.5 0 .9.5 1.4.5l3 .4c.5.8 1.6.9 2 1.8ZM141.7 2c1.3-.8 2.5-.7 3.8-.8 1.3 0 2.6.4 3.8.3l.5.5c-1.4.5-2.6.8-4 .7-1.4 0-2.8.2-4.1-.8ZM2.4 163.5l-.8.8-.4-1.2v-3.2l.9-.7c.4.6.7 1.3.6 2l-.3 2.3ZM206.2 218.4c-2.7.7-5.2 2.2-8.2 1.7l1.2-.7a515 515 0 0 1 5.3-1h1.7ZM255.1 202.2l3.3-.7c-.6 1.4-1.9 1.8-3 3v-1.3l-.3-1ZM19.8 155.5l.5 1.8h-.7l-.4-.7.6-1ZM6 147l-.5 2.2c-.2-.7 0-1.3 0-1.7l.4-.7.1.1ZM15.5 156.7l2.1.5-1.1.1h-1v-.6ZM206.2 218.2h.8v.2h-.8v-.2ZM14.8 156.4l.7.2-.4.1-.3-.3ZM242.7 31.3l.7.2-.4.1-.3-.3ZM224.2 23.8l.8.2-.5.1-.3-.3ZM27.2 188l.2.2c-.1 0-.2 0-.3-.2ZM14.4 156.1l.2.2-.3-.1ZM6 147c0-.2 0-.3.2-.3l-.2.2ZM252.4 34.9l.3.1-.1.1-.2-.2ZM253.9 32.5l-.3-.1v-.1c.2 0 .2.1.3.2ZM182 20.9l.3.2h-.1l-.2-.2ZM197.5 21c0-.2-.2-.2-.2-.3l.2.2Z"/><path fill="#fff" d="m14.3 156.2-.2-.2c.1 0 .2 0 .2.2Z"/><path fill="#012D25" d="m213.7 174-1.4-1 .7-.6-.4-.6c1.2-1 2.5-1 3.9-1 .8.6.2 1.5.4 2.3l-1.4 1h-1.8Zm.5-1.4v.1h.3-.3ZM215.4 178.7v1.2l-1.3 1c-2.1 0-2.1 0-3.5-1.4v-.8l.7-.7c.7 0 1.2-.2 1.9-.3.6.4 1.6 0 2.2 1Zm-1.8 1.3v-1.5h-.5c0 .5-.3 1 .5 1.5ZM75.5 173.9v.8l-1 1-1.5.5-.8-1.1v-1.6l1-.7h1.2l1.1 1.1Zm-2 1 .5-.6v-.6c-.6.4-.8.7-.4 1.3ZM72.8 168.6v-.7l2.4-.6c.4.3 1.3.2 1.5 1.1l-.3 1-1.5.7c-.8-.3-1.6-.5-2-1.5Zm2.2-.9c-.7 1 0 1.1 0 1.6l.3-.6-.3-1ZM52 167.8l-1.5-1.2v-.7l1.8-.8h1.9c.6.5.6 1 .1 1.7-.5.8-.7 1-2.3 1Zm.5-1.7v.1h.4v-.1h-.4ZM50.5 173v-1.5l.7-.7h2.1l.4.4c0 .9-.4 1.5-1.2 2-.7.4-1.3.3-2-.2Zm1.8-1.5a8 8 0 0 0-1 .4h.8s0-.3.2-.4ZM280.4 175.5h-2l-.6-.8v-1.1l1.4-1.4h1.4l.4.4v1.9l-.6 1ZM282.7 167.6c.6.7.4 1.3 0 1.8-.4.7-1.3.8-2.1.7l-1.4-1c0-.8.5-1.4 1-2 1 0 1.8 0 2.5.5Zm-1.7.8c0-.1 0-.2-.2-.3v.1l.2.2.2.3v-.1c0-.1 0-.2-.2-.2ZM124 180.5l-.7.4h-1.4c-.9-.8-1.5-1.6-.7-3l.8-.3h2c.3.4.5 1 .7 1.5l-.7 1.4Zm-1.9-.7c.5.1.5.1.4-.6l-.4.7ZM123 170.8h1.8l.9 1.2-.3 1.6c-1.3.6-2 .5-2.6-.1-.7-.8-.6-1.5.3-2.7Zm.8 1.2h-.3l.1.5h.2v-.5ZM259.9 170v1c-.7 1.2-1.7 1.3-2.8 1.2l-1.1-.6v-1.4l1.6-1.2c.9-.2 1.6.3 2.3 1Zm-2.7.8.7.6c.6-.8.6-1 .2-1.3l-.9.7ZM254.7 175.7c1-.7 1.9-1.6 3.2-1.3l1 .6v1.4c-1.5 1.1-3.3 1.5-4.2-.7Zm3-.3c-.7-.4-1 0-1.1.4l.2.4 1-.8Z"/><path fill="#fff" d="M214.4 172.8h.2l-.2-.2-.2.1h.2ZM213.6 180c-.8-.6-.5-1-.5-1.4l.5-.1v1.5ZM73.6 175c-.3-.6-.2-1 .3-1.3 0 .3.2.5.1.6l-.4.7ZM75 167.7l.3 1-.3.6c.1-.5-.7-.7 0-1.6ZM52.7 166.2h.2l-.2-.2-.2.1.2.1ZM52.3 171.5l-.2.5-.7-.1.9-.4ZM281 168.3l.3.2v.1l-.3-.2ZM281 168.4l-.2-.2.2.2ZM122.1 179.8l.4-.6c0 .8 0 .8-.4.7ZM123.8 172v.5h-.2l-.1-.5h.3ZM257.2 170.8l.9-.7c.4.2.4.5-.2 1.3l-.7-.6ZM257.7 175.4l-1 .8-.1-.4c.2-.4.4-.8 1.1-.4Z"/></g><defs><clipPath id="a"><path fill="#fff" d="M0 0h293v264H0z"/></clipPath></defs></svg>