<svg xmlns="http://www.w3.org/2000/svg" width="1029" height="1027" fill="none"><path fill="#DCBF6F" d="M1014 795c-25-19-109-31-376 93-51 24-108 46-167 64-44-49-63-121-54-209 10-109 59-192 114-259l-17 48a325 325 0 0 0-52 115h2c15-25 32-53 73-74l-1-2c-39 20-56 45-71 68 8-32 25-67 47-99a171 171 0 0 0-8 38h2c19-20 55-40 86-58 23-12 42-23 51-31v-2l-1-1s-30-5-48-43h-2c-24 21-51 49-73 81 4-14 10-30 18-47 20-24 41-46 61-66l3 8c13 29 38 49 54 51h25l-7 6-6 5c0-2-1-4-5-5-3-2-6-1-8 1s-3 5-2 7c0 1 1 4 5 4h4c-4 6-14 13-21 15l-1 2 2 1 12-3c-6 4-14 8-21 9l-1 1 1 1c6 1 12 0 17-1-10 6-20 9-20 9l-1 1 2 1c143-36 171-191 193-316l14-66 2-6c6-21 21-37 44-56s87-60 127-78V1l-1-1c-43 13-114 46-148 73-4 3-6 6-8 10-7 15-14 35-19 58-4 11-16 30-40 40-26 11-59 20-72 10l-4-5 3-3c5-6 17-11 30-15l16-7c38-17 57-39 58-51 8-3 14-8 18-15l8-18-1-3c-4-4-22-2-41 5-20 7-85 34-94 97l1 9-29 37c-18-10-42-20-72-28-48-13-105-20-151-19-59-14-117-23-173-25-125-7-192 18-204 23l-4 5 4 6c12 7 39 17 60 25l17 7c6 2 13 1 16 0 36-8 72-13 105-14-30 3-62 8-93 17-2 1-5 2-5 5s2 5 6 7c18 8 95 38 120 38h3l14-3c-6 3-10 5-11 7-2 3-1 6 3 8 17 11 59 31 76 29l16-5-9 4c-2 1-3 3-2 4 3 8 50 26 69 19l8-4-4 5c-1 2 0 3 2 4 7 4 36 10 52 2v1c5 4 25 7 40-2 11 1 22-1 33-6-6 12-9 24-11 36-24 37-43 74-57 107a479 479 0 0 0-120 267c-9 88 10 160 54 210-58 17-117 31-171 41-102 17-240 26-328-31l-1 2c88 57 227 49 329 32 55-9 114-23 172-41 10 10 20 19 31 27 41 29 95 45 157 45h5c65-1 139-19 214-52 79-35 147-100 152-146 1-15-4-26-15-34ZM593 447c13 27 35 39 46 42-9 8-27 18-48 30-31 17-65 36-85 56 1-9 4-23 10-42 23-34 51-64 77-86ZM855 85c2-4 4-7 7-9 30-24 88-52 130-67-39 20-91 53-111 70-18 15-32 29-40 45 4-15 9-28 14-39ZM655 468c-16-2-39-21-52-49l-4-9 24-24 37-37 3-3c34-35 59-61 52-89l16-5 29-10c10 19 20 43 24 67-11 33-25 62-41 89-23 35-45 57-60 70-9 1-18 2-28 0Zm-31-162 45-57 11 5 2 2a389 389 0 0 1-39 46l-4 3-5 6c-4-1-7-2-10-5Zm7 7c-7 6-15 11-23 15l3-4 11-16 9 5Zm10-6 14-13c11-10 21-18 31-24-2 16-15 36-31 40-4 2-11 2-18 2l4-5Zm24-25 19-25c2 3 2 7 2 11-7 3-14 8-21 14Zm20-27 14-20a44 44 0 0 1 13 21l-23 10c0-4-2-8-4-11Zm26-9c-3-4-6-9-11-13l2-2 8-12c5-8 11-12 16-12 5-1 10 2 14 6 6 7 13 16 19 26l-28 10-16 6-4-9Zm51-6c17-8 32-20 48-45-5 39-13 76-25 109-4-23-13-46-23-64ZM657 487c-2 0-3-1-3-3-1-1 0-3 1-4l4-2 2 1c2 0 3 2 3 3v2c-4 3-5 3-7 3Zm-10 30 9-6v-1l-1-1h-1l-11 3c7-3 14-7 18-11v-1l-2-1-11 4c8-5 16-12 18-18l2-1 6-5 10-9c31-5 54-26 69-45 6-8 12-16 16-24-25 52-62 95-122 116Zm137-157c-2 8-13 37-33 63-14 18-35 38-64 44 16-13 36-35 57-68 16-26 30-54 41-85 2 16 2 32-1 46Zm-67-182c9-62 72-89 92-96 14-5 25-6 32-6l7 1v1c-2 7-5 12-8 17-3 6-9 11-16 13 0-2-2-5-8-5-13 0-25 7-30 14l-1 4h7a332 332 0 0 0 29-9h1c-1 11-20 32-56 48l-16 6c-13 5-26 10-31 16l-1 2-1-6Zm105-69-1 1-6 2a300 300 0 0 1-27 6c5-6 16-13 27-13 4 0 6 1 7 4Zm-106 80 5 5c16 13 61-4 74-9 19-8 30-22 37-33l-11 57c-8 47-18 98-33 145 2-14 1-30-2-45a603 603 0 0 0 25-120c-17 27-33 41-51 49-6-10-12-20-18-26-6-5-11-8-16-8-7 1-13 6-19 14l-8 12-1 2-10-7 28-36Zm-29 37 10 8-14 20-3-2-10-5 10-12 7-9Zm-2-1-7 9-10 12c-66-29-131-52-195-68 73 1 166 20 212 47Zm-19 23-44 57-3-3-12-14c-12-15-27-34-52-56-33-30-66-45-82-51 63 16 128 38 193 67Zm-94 89 4-4c10-10 28-33 25-36h-2c-3 1-7 7-12 15l-18 25c-11 7-25 6-32 5l-5-3 2-2c7-6 14-13 20-21l9-7c15-13 23-20 20-25h-1c-2 0-6 4-17 17l-12 14-24 22v1c-10 5-26 4-39 2-8-2-12-4-12-5 0-2 4-6 12-12l29-15c48-27 47-31 46-33l-2-1c-5 1-51 29-74 47l-19 10c-15 6-53-8-63-16l-2-2v-1l33-14 89-28c3-1 5-3 4-5h-7l-4 1a952 952 0 0 1-123 42c-15 3-57-17-74-28-3-2-3-3-2-5 1-3 12-7 28-11a822 822 0 0 1 162-16v-3l-5-1a627 627 0 0 0-157 18l-33 6a471 471 0 0 1-127-43l4-3c51-15 105-20 152-20 54 2 98 10 121 14l18 2c2 1 5 0 5-2s-3-3-4-3-61-13-139-13h-1c-49-2-106 1-166 14v1c-2 0-9 2-14-1l-17-6a460 460 0 0 1-62-29l2-2c12-5 78-30 203-24 55 3 112 11 170 25l7 3c13 6 50 20 86 52 24 22 40 42 51 55a203 203 0 0 0 16 18 303 303 0 0 0-16 24c-11 5-22 7-33 7Zm11-15 6-8a159 159 0 0 1-6 8Zm-17-18v-2l15-16c1 3-7 10-15 18Zm-61 9Zm-33-27 49-17 4-1 4-1-3 1-54 18Zm-60-33Zm6-47a615 615 0 0 1 68 10h-2l-17-2-49-8Zm188 126 24-15c-13 15-24 31-35 47 2-11 5-22 11-32Zm-12 37c13-19 27-37 42-55 8 1 15 0 19-1 18-5 32-26 34-43v-1c8-5 16-8 24-11 6 26-19 52-52 86l-3 3-37 37-23 23c-4-12-5-25-4-38Zm-2 5c-1 12 1 23 5 35-19 19-38 39-57 61 13-30 30-63 52-96Zm434 454c-4 45-72 110-150 145-75 33-148 50-213 51-63 1-119-14-161-44l-29-26c58-18 115-40 166-63 106-50 193-82 259-96 56-13 95-12 115 2 10 7 15 18 13 31Z" opacity=".3"/></svg>