<svg width="1029" height="1027" viewBox="0 0 1029 1027" fill="none" xmlns="http://www.w3.org/2000/svg">
<path opacity="0.3" d="M1014.44 794.882C988.501 776.29 904.968 763.957 637.996 888.208C587.03 911.953 529.624 933.674 471.115 951.713C427.141 902.566 408.373 831.329 416.837 742.973C427.325 634.369 476.267 550.799 531.464 483.796C524.104 501.467 518.217 517.85 513.801 531.839C488.778 568.47 468.723 608.782 461.363 645.966C461.179 646.518 461.547 647.07 462.099 647.254C462.651 647.438 463.203 647.254 463.571 646.702C478.658 622.036 495.77 594.241 536.8 573.072L535.696 570.863C497.426 590.559 479.762 616.145 465.411 639.339C473.139 606.574 490.25 571.784 511.593 539.57C506.257 557.242 503.681 570.495 503.497 577.306C503.497 577.858 503.865 578.226 504.233 578.41C504.601 578.594 505.153 578.41 505.521 578.042C524.656 557.978 560.535 538.098 591.998 520.427C614.629 507.726 634.316 496.865 642.779 488.582C643.147 488.214 643.147 487.846 643.147 487.293C642.963 486.925 642.595 486.557 642.227 486.373C641.859 486.373 612.237 480.667 594.389 443.484C594.205 443.115 593.837 442.931 593.469 442.747C593.102 442.747 592.734 442.747 592.366 442.931C567.711 463.732 541.4 492.447 518.585 524.476C523.369 510.303 529.44 494.288 536.8 476.801C557.039 452.871 577.83 430.966 597.701 410.902C598.621 413.663 599.725 416.241 601.013 418.818C614.445 448.085 638.916 467.597 654.739 469.806C663.571 470.911 671.666 470.911 679.578 469.99C677.002 472.199 674.61 474.224 672.586 475.881C670.194 477.905 668.17 479.378 666.882 480.667C666.698 478.826 665.594 476.801 662.283 475.512C659.339 474.408 656.211 474.96 654.003 477.169C651.979 479.194 650.875 481.955 651.611 484.164C651.979 485.453 653.083 487.661 656.763 488.398C658.235 488.766 659.707 488.766 661.363 488.03C656.579 494.104 647.379 500.731 640.02 503.124C639.468 503.308 639.1 503.86 639.284 504.596C639.468 505.149 640.02 505.517 640.572 505.517C646.091 504.78 650.323 504.044 653.451 503.124C647.195 507.173 638.916 511.039 632.476 511.959C631.924 511.959 631.372 512.511 631.372 513.248C631.372 513.8 631.924 514.352 632.476 514.352C638.364 514.72 644.435 513.616 648.851 512.511C639.284 518.77 628.98 521.715 628.98 521.715C628.428 521.899 628.06 522.636 628.06 523.188C628.244 523.74 628.796 524.292 629.532 524.108C773.414 487.661 801.197 332.855 823.46 208.42C827.876 184.307 831.923 161.665 836.523 141.601C837.443 139.208 838.179 137.183 838.731 135.711C845.355 114.542 860.442 98.7119 882.705 79.9363C905.52 60.7925 969.917 20.4802 1009.66 2.25678C1010.21 2.0727 1010.58 1.33641 1010.21 0.784182C1010.03 0.231958 1009.29 -0.136191 1008.74 0.0478832C966.422 12.749 895.217 45.6984 860.626 72.9414C857.13 75.7025 855.474 78.6477 853.451 82.6974C845.539 98.1596 839.467 118.04 834.315 140.865C829.715 151.909 818.492 171.421 794.205 181.361C767.526 192.406 734.776 200.873 722.448 191.301C720.608 189.829 719.136 187.988 718.4 185.779C719.136 184.675 720.056 183.754 720.792 182.834C725.576 176.575 738.455 171.974 750.967 167.556C756.855 165.531 762.374 163.506 767.158 161.297C805.245 144.178 824.012 121.537 824.564 109.756C832.659 106.627 838.915 101.657 842.779 95.2144C845.907 90.0604 848.115 84.7222 850.691 77.3592C851.059 76.0707 850.875 74.7822 849.955 73.8618C845.907 69.8121 828.244 72.021 808.556 78.8318C788.869 85.6426 723.736 112.886 715.456 176.207C715.088 179.705 715.088 182.65 715.824 185.227C708.281 194.983 697.793 208.052 686.57 222.226C669.458 211.918 644.987 202.162 615.181 194.062C566.975 181.177 510.305 173.998 463.571 174.919C404.878 160.745 347.288 152.278 291.354 149.516C166.056 143.258 99.4505 168.476 87.307 173.446C84.9151 174.367 83.6271 176.023 83.4431 177.68C83.2592 179.152 83.9951 181.361 87.491 183.57C99.0825 190.933 125.761 201.057 147.288 209.341C153.544 211.734 159.432 213.943 163.848 215.783C170.287 218.36 177.095 216.704 179.671 216.151L180.223 215.967C216.47 207.684 251.796 203.45 285.099 201.794C254.556 204.739 222.909 210.077 192.183 219.097C189.791 219.833 187.031 221.49 186.847 224.067C186.663 226.644 188.871 228.853 193.286 230.877C210.95 238.977 288.41 269.165 313.065 269.165C314.353 269.165 315.457 269.165 316.377 268.981C316.561 268.981 321.713 267.876 329.993 266.404C323.921 268.613 319.873 271.006 318.953 273.215C317.481 276.344 318.401 278.553 321.897 280.946C338.824 291.99 380.959 312.238 397.886 309.845C399.174 309.661 405.062 308.005 413.525 305.428C410.581 306.716 407.637 307.821 404.694 309.109C402.67 310.029 402.486 311.502 403.038 312.791C406.349 320.89 453.451 339.481 471.851 332.303C471.851 332.303 475.163 330.646 480.314 327.885C477.738 330.278 475.898 332.303 475.715 333.407C475.346 334.511 476.082 335.8 477.922 336.904C485.098 341.322 514.169 347.397 529.808 339.481C529.992 339.665 530.176 339.85 530.36 340.034C534.776 344.083 554.831 347.213 569.551 338.377C580.958 339.297 592.182 337.088 602.853 332.487C597.149 343.899 593.654 355.68 592.366 367.645C568.263 404.644 549.127 442.195 534.96 475.328C477.554 543.62 425.485 629.399 414.813 741.868C406.349 830.408 424.933 902.013 468.907 951.529C411.317 969.201 352.44 983.374 297.61 992.578C196.414 1010.43 57.8682 1018.53 -29.7121 961.838L-31 963.862C57.1323 1020.93 196.414 1012.83 297.61 996.075C352.992 986.872 412.237 972.514 470.379 954.659C479.578 964.599 489.698 973.802 500.921 981.902C541.768 1011.35 595.861 1027 657.867 1027C659.707 1027 661.547 1027 663.387 1027C728.336 1026.08 802.117 1008.22 876.818 975.275C955.934 940.485 1024.01 874.77 1028.8 828.568C1030.08 814.21 1025.3 802.613 1014.44 794.882ZM592.55 446.613C606.349 474.224 627.876 486.005 639.284 488.95C630.268 496.865 611.869 507.173 590.71 518.954C560.167 535.889 525.944 555.033 506.073 574.545C506.809 566.077 510.121 551.719 516.009 533.128C539.008 499.258 566.607 468.702 592.55 446.613ZM855.29 84.7222C857.314 80.8566 858.786 78.0955 861.914 75.7025C892.089 52.141 950.046 23.9776 992.181 8.88346C952.806 29.1317 900.92 62.2651 880.865 79.0159C862.65 94.2941 849.035 107.916 840.939 123.93C844.987 109.02 849.771 95.7667 855.29 84.7222ZM654.739 468.334C639.468 466.309 615.917 447.165 602.853 418.818C601.565 415.872 600.277 412.927 599.357 409.982C607.453 401.883 615.549 393.967 623.276 386.236C636.34 373.351 648.851 361.018 660.075 349.421L663.203 346.292C696.689 311.318 722.08 284.995 715.456 257.384C720.976 255.359 726.128 253.703 731.28 252.046C741.215 248.733 750.599 245.787 759.798 241.554C770.47 260.697 779.67 284.995 784.085 309.109C773.046 341.69 759.062 371.326 742.503 397.649C720.24 433.175 697.977 455.08 682.89 468.15C674.058 469.438 664.674 469.622 654.739 468.334ZM623.828 306.348C635.236 291.438 651.979 270.453 668.722 249.285C672.402 250.942 675.898 252.414 679.578 254.071C680.498 254.439 681.234 254.991 681.97 255.543C673.506 267.508 663.755 280.025 653.083 291.806C649.587 294.935 646.091 298.249 642.595 301.93C641.491 303.035 640.571 304.323 639.468 305.428C637.628 307.268 635.604 308.925 633.764 310.582C630.268 309.845 626.956 308.557 623.828 306.348ZM631.372 312.607C624.012 318.681 616.285 324.019 608.189 328.253C609.109 326.78 609.845 325.492 610.765 324.019C612.789 320.89 616.837 315.368 622.356 308.189C625.3 310.214 628.244 311.686 631.372 312.607ZM641.123 307.268C645.723 302.851 650.323 298.433 654.555 293.647C665.594 283.707 676.082 276.344 686.018 270.453C684.178 286.284 670.746 306.348 654.923 310.398C650.507 311.502 644.067 312.422 637.444 311.502C638.548 310.029 639.836 308.741 641.123 307.268ZM664.859 281.866C671.666 273.767 677.922 265.483 683.626 257.384C686.018 260.329 686.386 264.379 686.386 267.508C679.394 271.374 672.218 276.16 664.859 281.866ZM684.914 255.359C689.881 248.18 694.665 241.37 698.713 235.295C703.129 239.161 706.441 243.026 708.649 247.076C710.305 250.021 711.409 252.966 712.328 255.727C704.785 258.489 696.873 261.986 688.594 266.22C688.594 261.802 687.306 257.936 684.914 255.359ZM710.857 245.787C708.465 241.554 704.969 237.32 700.185 233.27C700.737 232.534 701.289 231.614 701.841 230.877C704.785 226.644 707.361 222.778 709.569 219.465C715.088 211.366 720.792 207.132 726.496 206.764C731.096 206.395 735.695 208.604 740.295 213.39C746.367 219.649 752.623 228.669 758.695 238.977C749.679 243.21 740.479 246.156 730.728 249.285C725.576 250.942 720.424 252.598 714.904 254.623C713.8 251.862 712.513 248.917 710.857 245.787ZM761.822 240.265C778.566 232.166 794.389 219.649 810.028 194.615C804.693 234.191 796.597 270.822 785.373 304.323C780.774 281.314 771.758 258.489 761.822 240.265ZM656.947 486.925C655.107 486.557 654.003 485.637 653.635 484.348C653.267 482.875 654.003 481.035 655.291 479.746C655.843 479.194 657.131 478.274 659.155 478.274C659.707 478.274 660.443 478.458 661.179 478.642C663.203 479.378 664.307 480.667 664.307 482.139C664.307 482.691 664.123 483.428 663.939 483.98C660.259 487.293 658.603 487.293 656.947 486.925ZM647.379 517.297C650.139 515.641 653.083 513.616 655.659 511.407C656.027 511.039 656.211 510.303 655.843 509.934C655.659 509.566 655.291 509.382 654.739 509.382C654.555 509.382 654.371 509.382 654.371 509.382C654.371 509.382 649.587 511.223 643.331 512.143C650.139 509.198 656.763 505.148 660.627 501.467C660.995 501.099 661.179 500.363 660.811 499.81C660.443 499.258 659.707 499.258 659.155 499.442C659.155 499.442 656.211 501.099 648.115 502.756C655.659 498.338 663.57 491.343 665.962 485.453C666.514 484.9 667.066 484.532 667.618 483.98C668.722 482.691 670.93 481.035 673.874 478.642C676.634 476.433 679.946 473.672 683.81 470.358C715.272 464.836 738.087 444.036 752.991 425.076C759.246 417.161 764.582 408.693 769.182 400.594C744.159 452.871 706.809 496.313 647.379 517.297ZM784.269 359.73C782.43 367.645 771.39 397.465 751.151 423.419C737.351 441.091 716.192 460.602 687.49 467.045C702.577 453.608 723.368 432.071 744.343 398.753C760.35 373.351 773.782 345.004 784.821 313.895C787.213 329.725 787.397 345.556 784.269 359.73ZM717.48 177.68C725.576 115.647 789.421 88.9559 808.924 82.3292C823.092 77.3592 834.499 75.5185 841.123 75.5185C844.619 75.5185 846.827 76.0707 847.747 76.807C847.931 76.9911 848.115 77.3592 847.931 77.7274C845.539 84.9063 843.331 90.2444 840.387 95.2144C836.891 100.921 831.371 105.523 824.196 108.468C823.644 106.259 821.988 102.761 815.548 102.761C803.221 102.761 791.077 109.94 786.477 116.935C785.373 118.408 784.637 120.065 785.373 121.169C786.293 122.273 787.765 121.905 790.525 121.169C791.077 120.985 791.629 120.985 792.181 120.801C801.933 118.408 808.372 116.383 815.916 113.99C817.756 113.438 819.412 112.886 821.436 112.149C821.62 112.149 821.804 111.965 821.988 111.965C820.516 123.01 801.933 144.178 766.054 160.377C761.454 162.402 755.935 164.426 750.047 166.451C737.351 171.053 724.104 175.655 718.768 182.466C718.4 183.018 718.032 183.386 717.664 183.938C717.112 182.098 717.112 179.889 717.48 177.68ZM821.804 109.388C821.436 109.572 820.884 109.756 820.516 109.756C818.492 110.309 816.652 111.045 814.996 111.597C807.636 113.99 801.197 116.015 791.445 118.408C790.893 118.592 790.341 118.776 789.789 118.776C789.053 118.96 788.317 119.144 787.765 119.328C787.949 119.144 788.133 118.776 788.317 118.224C792.549 111.781 803.773 105.154 815.364 105.154C819.044 105.154 821.068 106.443 821.62 109.02C821.62 109.02 821.62 109.204 821.804 109.388ZM716.376 189.092C717.296 191.117 718.768 192.958 720.608 194.431C736.983 207.132 781.51 190.197 794.757 184.675C814.076 176.759 825.484 162.954 831.739 151.725C828.06 169.396 824.564 188.54 820.884 208.973C812.604 255.543 803.405 306.532 787.581 353.839C789.605 339.85 788.869 324.387 786.109 309.109C798.437 272.662 807.452 232.718 812.788 189.277C812.788 188.724 812.604 188.172 812.052 187.988C811.5 187.804 810.948 187.988 810.58 188.54C794.205 216.336 777.83 229.589 760.35 238.24C754.279 227.564 747.839 218.36 741.583 211.918C736.431 206.58 731.096 204.003 725.76 204.371C719.32 204.923 713.064 209.525 706.993 218.176C704.785 221.49 702.209 225.171 699.265 229.589C698.713 230.325 698.345 231.061 697.793 231.798C694.849 229.405 691.537 227.012 687.858 224.803C699.081 211.181 708.833 198.664 716.376 189.092ZM686.754 226.46C690.433 228.853 693.929 231.246 696.873 233.639C692.825 239.713 688.226 246.524 683.258 253.519C682.338 252.782 681.418 252.23 680.498 251.862C677.002 250.389 673.69 248.733 670.194 247.26C673.322 243.21 676.634 239.161 679.762 235.295C682.154 232.35 684.546 229.405 686.754 226.46ZM684.73 225.171C682.522 227.932 680.13 230.877 677.922 233.823C674.61 237.872 671.298 242.106 667.986 246.34C601.933 217.072 536.616 194.431 472.771 178.416C545.815 178.6 639.284 198.112 684.73 225.171ZM666.33 248.364C649.771 269.165 633.212 290.149 621.804 304.875C620.884 304.139 619.964 303.219 619.228 302.298C615.549 298.249 611.501 293.279 606.901 287.572C595.493 273.399 580.038 254.255 555.199 231.798C522.081 201.978 488.778 187.436 472.771 180.993C536.064 196.824 600.829 219.281 666.33 248.364ZM572.31 337.088C573.782 335.984 575.07 334.88 576.174 333.407C585.926 322.731 603.589 300.274 601.197 297.144C601.013 296.776 600.277 296.224 598.805 296.96C596.229 298.433 592.366 303.955 586.662 312.422C581.878 319.417 575.806 328.069 568.999 336.536C557.959 343.899 543.792 343.163 536.984 341.506C533.856 340.77 532.2 339.85 531.648 339.297C532.568 338.745 533.304 338.193 534.04 337.457C540.848 331.198 547.839 323.835 554.279 316.472C557.407 313.711 560.535 311.134 563.479 308.557C577.83 296.224 586.478 288.861 582.982 284.443C582.614 284.075 582.246 283.891 581.694 283.891C579.67 283.891 575.806 288.125 564.767 300.826C561.087 305.059 557.039 309.845 552.623 314.631C544.896 321.442 536.8 328.989 529.44 337.088C529.256 337.273 529.072 337.641 528.888 337.825C519.137 343.347 502.577 342.427 490.25 339.665C481.786 337.825 478.106 335.616 477.554 334.88C478.106 333.223 482.338 329.357 490.25 323.283C498.53 318.865 508.833 313.343 518.953 307.637C566.975 280.762 565.503 276.896 564.767 275.239C564.767 275.055 564.215 274.319 563.295 274.319C557.775 274.503 512.329 303.219 488.778 321.442C482.706 324.755 476.45 327.885 470.379 331.014C455.107 336.904 416.653 322.731 406.901 315C404.694 313.343 404.694 312.607 404.694 312.607C404.694 312.607 404.694 312.422 405.246 312.238C417.389 307.084 428.245 302.482 438.364 298.433C474.611 287.02 522.633 271.742 526.864 270.085C530.36 268.797 532.016 267.14 531.464 265.483C530.912 263.827 528.336 263.643 524.472 264.931C523.552 265.299 522.265 265.668 520.425 266.22C510.121 269.349 485.466 276.896 437.812 296.224C416.653 302.851 399.542 308.005 397.334 308.373C381.694 310.582 340.296 291.254 323.001 279.841C319.873 277.816 320.057 276.712 320.793 275.239C322.265 272.11 333.121 268.06 349.496 264.011C391.814 257.016 464.307 246.524 505.705 249.653C507.913 249.837 510.121 249.101 511.041 247.628C511.593 246.892 511.593 246.156 511.225 245.419C510.673 244.315 509.017 243.579 506.257 243.579C475.898 242.474 432.476 246.156 389.79 253.335C375.991 255.727 361.455 258.489 349.312 261.618C329.441 264.931 316.009 267.508 315.641 267.692C296.138 271.006 212.238 238.24 193.838 229.773C189.239 227.564 188.871 225.907 188.871 225.355C188.871 224.251 190.343 223.146 192.551 222.41C244.068 207.132 297.794 202.346 344.896 202.346C399.358 204.187 442.964 211.734 466.331 215.599C474.427 217.072 480.314 217.992 483.994 218.36C486.202 218.544 488.594 217.992 488.962 216.336C489.33 214.127 485.834 213.39 484.73 213.206C483.81 213.022 424.013 199.953 346 199.953C345.816 199.953 345.448 199.953 345.264 199.953C296.322 198.296 238.733 200.873 179.487 214.495L178.935 214.679C176.543 215.231 170.287 216.888 164.584 214.495C159.984 212.654 154.096 210.445 147.84 208.052C127.601 200.321 100.002 189.645 88.5949 182.466C86.571 181.177 85.4671 179.889 85.6511 178.784C85.6511 177.864 86.571 177.128 88.0429 176.575C100.002 171.605 166.24 146.571 290.986 152.83C346.368 155.591 403.038 163.874 460.811 177.68C460.995 178.6 462.467 179.152 467.803 181.177C481.418 186.515 517.849 200.873 553.727 233.086C578.382 255.359 593.837 274.503 605.245 288.493C609.845 294.383 613.893 299.353 617.756 303.403C618.676 304.507 619.78 305.428 620.7 306.164C615.181 313.343 610.949 319.049 608.925 322.178C607.269 324.571 605.797 327.148 604.509 329.541C594.021 334.695 583.35 337.457 572.31 337.088ZM582.798 322.178C584.822 319.233 586.846 316.472 588.686 313.895C592.182 308.741 595.493 304.139 597.701 301.562C595.309 305.612 590.158 313.343 582.798 322.178ZM565.503 303.587C565.871 303.219 566.055 302.851 566.423 302.482C572.494 295.304 578.934 287.941 581.142 286.468C581.51 289.413 573.966 296.408 565.503 303.587ZM504.785 312.975C509.017 310.029 513.801 306.716 519.137 303.219C539.744 289.597 556.855 279.473 562.007 277.264C558.143 282.602 533.856 297.144 504.785 312.975ZM472.403 285.548C498.53 275.792 513.617 271.19 521.161 268.797C523 268.245 524.288 267.876 525.208 267.508C526.864 266.956 527.968 266.772 528.704 266.772C528.336 267.14 527.416 267.692 526.128 268.06C523.184 269.165 499.082 277.08 472.403 285.548ZM411.685 252.782C439.468 248.917 469.459 246.156 495.218 246.156C499.082 246.156 502.761 246.156 506.441 246.34C508.097 246.34 508.833 246.708 509.201 246.892C508.833 247.26 507.729 247.812 506.257 247.628C481.234 245.603 445.54 248.549 411.685 252.782ZM418.125 206.211C457.683 210.077 483.626 215.599 484.178 215.783C484.914 215.967 485.466 216.151 485.834 216.336C485.466 216.336 484.914 216.52 484.362 216.336C480.866 215.967 474.979 215.047 466.883 213.574C455.107 211.55 438.548 208.788 418.125 206.211ZM605.981 331.934C614.077 328.069 621.988 323.099 629.532 317.024C617.021 332.302 605.613 347.949 594.941 363.963C596.781 353.103 600.461 342.243 605.981 331.934ZM594.389 369.302C606.717 350.342 620.516 331.566 635.604 313.527C643.699 315 651.427 313.711 655.475 312.607C672.586 308.373 686.938 286.652 688.594 269.901C688.594 269.533 688.594 269.349 688.594 268.981C697.057 264.379 705.153 260.882 712.88 257.936C718.768 284.443 693.929 310.214 661.179 344.267L658.051 347.397C646.827 359.177 634.5 371.326 621.436 384.212C613.893 391.575 606.349 399.122 598.437 407.037C594.389 394.888 593.102 382.003 594.389 369.302ZM591.63 373.535C591.078 385.5 592.734 397.465 596.597 409.246C578.014 427.837 558.695 448.085 539.928 469.99C553.175 439.986 570.286 406.669 591.63 373.535ZM1026.22 828.199C1021.62 873.482 954.094 938.46 875.714 972.882C801.381 1005.65 727.784 1023.32 663.203 1024.42C599.541 1025.34 543.792 1009.88 502.209 979.877C491.538 972.146 481.602 963.31 472.771 953.922C531.096 935.883 588.134 914.162 638.916 890.601C744.895 841.269 832.107 808.872 898.161 794.514C953.726 782.365 993.469 783.285 1012.97 797.091C1023.28 804.086 1027.69 814.578 1026.22 828.199Z" fill="#DCBF6F"/>
</svg>
