<svg width="748" height="756" viewBox="0 0 748 756" fill="none" xmlns="http://www.w3.org/2000/svg">
<path opacity="0.3" d="M55.2293 60.2795C28.8752 94.236 12.4038 136.352 10.5096 179.375C9.60371 200.721 12.4038 222.067 19.2394 242.26C26.3221 263.359 36.9461 283.469 49.382 301.849C61.9825 320.475 77.3008 337.783 95.9958 350.476C105.714 357.069 116.256 362.179 127.456 365.723C133.797 367.701 140.386 369.432 146.81 370.916C150.763 371.822 161.222 372.564 160.152 378.828C158.175 380.723 155.704 382.042 153.151 383.031C137.256 389.295 119.55 384.762 102.996 387.07C80.2657 390.202 58.5235 399.268 40.158 412.949C27.8045 422.098 17.0982 434.131 9.60371 447.565C2.35633 460.505 -2.42036 475.999 1.28569 490.835C3.50932 499.736 8.8625 506.412 13.7215 513.912C20.1454 523.72 25.4985 534.187 30.1929 544.984C39.5815 566.742 45.4288 589.407 51.6056 612.237C60.006 643.392 75.5714 678.832 107.443 691.936C125.891 699.519 145.492 695.81 164.764 696.717C174.317 697.129 184.694 698.777 192.682 704.381C199.436 709.162 203.471 716.579 207.671 723.503C208.989 725.646 212.53 725.233 212.695 722.514C212.942 717.404 211.954 712.458 210.389 707.678C207.013 697.293 201.33 687.98 195.153 679.079C186.835 667.046 177.858 655.425 169.952 643.062C162.293 631.029 156.281 618.913 152.74 605.067C149.445 592.292 148.704 579.023 148.622 565.918C148.457 549.105 147.716 531.714 152.41 515.395C154.387 508.555 158.01 500.148 165.505 497.923C171.434 496.109 176.294 500.313 179.588 504.681C188.647 516.714 192.435 532.868 196.306 547.127C198.118 553.803 200.177 560.396 202.236 566.99C206.436 580.836 209.813 594.93 212.942 609.023C219.119 636.963 223.896 665.48 232.131 692.925C239.296 716.744 252.473 740.316 276.274 750.701C296.369 759.52 318.029 755.811 338.454 750.536C359.043 745.179 381.361 738.75 401.621 748.888C401.868 748.97 402.115 749.135 402.28 749.217C405.327 750.618 407.798 745.426 404.833 743.942C404.174 743.613 403.515 743.283 402.857 742.953C397.256 739.822 394.539 734.135 393.55 727.788C392.48 720.7 393.797 713.53 393.386 706.442C393.056 700.013 392.068 693.667 390.091 687.568C385.891 674.546 378.314 662.925 370.079 652.046C353.113 629.71 331.948 611.248 312.758 591.056C294.063 571.358 277.757 550.011 267.956 524.461C264.909 516.549 262.191 508.472 260.215 500.23C258.238 491.576 256.756 482.016 259.144 473.362C261.697 463.966 270.18 456.713 279.898 461.741C284.675 464.213 288.793 468.005 292.746 471.631C298.593 476.906 303.946 482.758 308.888 488.774C329.23 513.335 344.96 541.605 361.514 568.803C376.832 593.94 392.891 618.584 412.328 640.754C426.658 657.073 443.294 672.98 463.8 681.139C473.848 685.096 484.637 686.826 495.343 685.837C510.414 684.354 523.344 676.524 536.851 670.343C551.263 663.749 566.17 658.722 579.676 650.315C586.018 646.359 592.442 641.826 599.689 639.6C602.077 638.859 604.383 638.611 606.772 638.611C607.513 638.776 608.254 638.859 608.995 639.023C609.407 639.106 609.736 639.023 609.983 638.776C613.442 639.106 616.901 639.848 620.36 640.425C622.666 640.754 623.078 637.375 621.102 636.633C615.172 634.326 609.654 631.111 604.219 627.897C580.747 614.133 554.887 605.726 529.521 596.083C504.567 586.523 479.695 576.138 456.553 562.786C433.411 549.434 411.092 532.209 396.845 509.214C389.268 497.016 383.997 483.335 382.679 468.911C382.02 461.741 381.773 454.323 382.267 447.153C382.597 442.043 384.903 438.004 389.927 436.356C401.209 432.565 414.963 437.592 425.011 442.785C436.046 448.471 445.929 456.631 454.741 465.285C473.107 483.17 487.684 504.434 504.402 523.72C512.391 532.951 520.956 541.769 528.862 551.165C536.768 560.561 544.592 570.039 553.075 578.94C568.476 595.259 586.924 610.671 609.489 614.957C631.149 619.078 654.621 614.051 672.739 601.441C684.516 593.199 694.646 582.732 707.329 575.891C718.941 569.627 731.871 570.286 744.637 568.968C744.966 568.968 745.295 568.803 745.542 568.555C745.542 568.555 745.542 568.638 745.625 568.638C745.872 568.968 746.201 568.968 746.448 568.72C746.613 568.885 746.778 569.05 746.943 569.215C747.519 569.792 748.343 568.968 747.848 568.391C747.272 567.731 746.695 567.154 746.119 566.495C746.119 566.413 746.037 566.248 746.037 566.165C743.648 560.726 741.26 555.368 739.201 549.846C735.001 538.225 733.436 526.522 734.26 514.159C734.918 503.115 736.895 492.153 737.554 481.192C738.213 470.642 737.636 460.257 733.601 450.367C729.565 440.477 722.73 431.905 715.071 424.652C709.388 419.378 703.376 414.597 696.952 410.394C696.87 410.229 696.623 410.064 696.376 409.982C696.376 409.982 696.376 409.982 696.293 409.982C668.045 391.603 633.537 383.361 600.183 381.712C577.617 380.641 555.216 383.361 532.651 383.443C516.344 383.526 478.625 383.69 485.46 357.564C489.66 341.492 508.932 333.085 523.509 329.212C546.734 322.948 571.194 319.157 595.242 319.898C616.737 320.558 636.091 329.953 654.95 339.349C676.198 349.981 697.858 360.613 716.059 376.19C717.377 377.344 719.188 375.119 718.035 373.883C712.847 368.608 708.07 362.839 704.117 356.575C696.458 344.377 692.011 330.283 689.705 316.107C687.646 303.167 686.822 289.898 683.116 277.288C679.492 265.008 672.739 254.788 662.939 246.546C654.291 239.375 644.326 234.018 633.785 230.144C612.289 222.315 588.571 220.914 566.005 224.375C538.827 228.578 514.203 241.353 491.555 256.436C467.754 272.178 446.176 291.134 421.304 305.228C410.186 311.492 398.409 317.096 385.891 320.063C377.408 322.124 367.608 323.607 359.043 320.97C349.984 318.168 346.607 309.678 349.325 300.942C352.043 292.041 358.384 284.458 364.149 277.37C371.561 268.139 378.644 258.744 386.879 250.172C396.762 239.952 407.551 230.557 419.081 222.232C450.047 199.897 493.614 188.935 531.251 199.155C537.18 202.369 543.439 204.924 550.028 206.078C552.251 206.49 553.487 202.864 551.428 201.875C546.487 199.485 541.463 197.424 536.192 195.776C535.451 195.529 534.627 195.364 533.886 195.116C531.745 193.963 529.603 192.644 527.627 191.408C520.709 187.122 513.791 182.671 507.944 176.902C496.002 165.116 489.166 149.539 478.048 137.176C460.918 118.22 436.87 107.423 412.163 102.56C386.632 97.5328 358.549 97.5328 333.265 104.126C319.265 107.753 305.923 114.429 296.534 125.802C291.263 132.149 287.146 139.649 282.945 146.737C278.58 154.072 274.463 161.49 270.18 168.825C265.98 176.16 261.78 183.66 256.097 190.007C250.826 195.858 244.732 200.968 239.049 206.325C232.872 212.095 226.86 217.699 219.778 222.397C213.272 226.765 205.942 232.699 198.118 234.183C198.036 234.183 197.871 234.265 197.789 234.265C196.718 234.348 195.73 234.43 194.741 234.43C192.93 234.43 191.365 234.101 191.035 232.122C190.459 228.166 192.6 223.963 192.353 219.842C192.106 215.309 191.282 211.023 191.447 206.49C191.529 201.628 192.106 196.765 192.847 191.902C194.494 181.6 197.212 171.462 199.271 161.242C201.165 151.599 203.059 142.121 206.518 132.89C209.977 123.66 214.425 114.923 219.778 106.681C230.237 90.6096 243.908 77.3402 259.474 66.1313C270.015 58.4663 282.781 49.9772 296.122 46.598C301.476 47.5046 307.158 47.9167 310.864 44.7848C311.935 43.8782 311.276 42.065 309.876 41.9826C305.84 41.8178 301.887 42.2298 297.934 42.9716C296.864 42.7244 295.793 42.4771 294.887 42.3123C283.11 39.8397 271.662 37.3671 260.38 33.0814C248.191 28.3835 237.073 21.4603 225.625 15.2789C205.695 4.23484 184.612 -1.12237 162.458 0.196326C119.797 2.83372 81.0892 26.9 55.2293 60.2795ZM698.764 352.619C696.54 350.146 694.317 347.673 692.175 345.118C682.457 333.91 673.892 321.629 663.598 310.832C647.209 293.607 626.784 279.925 603.56 274.074C577.206 267.398 549.945 271.601 524.744 280.832C497.073 290.969 471.542 305.97 447.082 322.289C434.07 330.942 421.14 339.761 407.304 347.014C401.539 350.064 395.609 352.866 389.432 355.174C383.915 357.316 377.82 359.377 371.808 358.882C371.561 358.882 371.396 358.965 371.232 359.047C370.326 358.882 369.42 358.718 368.514 358.635C372.796 357.234 376.914 355.009 380.62 352.866C386.468 349.487 392.068 345.695 397.668 341.822C407.221 335.228 415.787 327.398 425.011 320.475C434.482 313.305 444.2 306.464 454.247 300.118C464.048 293.854 474.177 288.085 484.801 283.304C495.261 278.524 506.049 274.238 516.92 270.612C527.627 266.986 538.498 264.101 549.616 262.205C560.405 260.392 571.276 259.65 582.229 259.485C603.642 259.238 625.055 261.381 646.467 262.535C647.126 262.535 647.209 261.546 646.55 261.464C643.832 261.299 641.197 261.051 638.479 260.887C617.231 259.321 595.901 257.425 574.653 258.332C564.029 258.744 553.404 259.898 542.945 262.04C531.992 264.266 521.203 267.563 510.661 271.354C499.955 275.227 489.249 279.513 478.954 284.541C468.577 289.651 458.612 295.502 448.894 301.849C439.258 308.113 429.787 314.706 420.81 321.794C412.163 328.635 403.927 335.888 394.868 342.151C389.103 346.108 383.256 350.146 377.079 353.443C373.702 355.256 370.326 356.904 366.702 357.976C366.455 358.058 366.208 358.141 365.961 358.223C360.361 357.399 354.76 356.657 349.16 356.08C351.137 355.421 353.113 354.761 355.09 354.02C359.043 352.454 362.749 350.558 366.29 348.168C369.996 345.695 373.455 342.976 376.914 340.256C383.915 334.816 391.08 329.541 399.398 326.245C400.056 325.997 399.562 324.926 398.903 325.256C394.209 327.069 389.844 329.459 385.726 332.261C378.479 337.124 371.973 343.14 364.561 347.756C361.102 349.899 357.478 351.712 353.69 353.195C351.219 354.185 348.748 355.009 346.278 355.75C340.348 355.174 334.418 354.679 328.406 354.349C329.23 354.102 329.971 353.855 330.794 353.525C337.465 350.805 342.901 345.531 348.336 340.998C353.69 336.465 359.537 331.767 366.702 330.778C367.443 330.695 367.196 329.624 366.455 329.706C362.667 330.118 359.125 331.684 355.913 333.745C349.819 337.618 344.713 342.893 338.948 347.261C336.148 349.404 333.1 351.382 329.806 352.701C327.83 353.525 325.853 353.937 323.794 354.185C314.9 353.772 306.005 353.69 297.111 353.855C299.828 352.948 302.464 351.877 305.099 350.723C319.594 344.294 332.195 333.992 343.148 322.701C343.56 322.289 342.983 321.547 342.489 321.959C339.36 325.008 336.148 327.975 332.853 330.86C326.924 335.97 320.582 340.75 313.747 344.789C310.37 346.767 306.993 348.58 303.452 350.146C300.158 351.63 296.864 352.783 293.487 353.855C289.863 353.937 286.322 354.102 282.698 354.267C292.663 348.333 301.146 340.256 308.311 331.107C312.182 326.162 315.641 320.97 318.853 315.613C322.229 310.008 325.112 304.321 328.159 298.552C334.171 287.013 341.419 276.216 349.819 266.244C358.631 255.694 368.596 245.886 379.055 236.903C384.326 232.37 389.762 228.002 395.692 224.293C401.209 220.831 406.974 217.617 411.586 213.084C411.916 212.754 411.422 212.177 411.092 212.507C409.939 213.578 408.704 214.485 407.469 215.391C402.115 219.348 396.186 222.397 390.668 226.106C384.82 230.062 379.385 234.677 374.114 239.293C363.984 248.194 354.431 257.837 345.948 268.304C337.712 278.524 330.877 289.568 324.947 301.189C319.182 312.398 312.841 323.36 304.852 333.085C297.852 341.492 289.534 348.827 280.145 354.432C274.792 354.761 269.439 355.091 264.086 355.586C264.497 355.338 264.827 355.009 265.239 354.761C268.862 352.206 272.651 349.816 275.863 346.684C278.827 343.8 281.133 340.421 282.863 336.712C284.51 333.085 285.745 329.294 287.063 325.585C288.463 321.547 290.028 317.591 291.675 313.635C298.181 297.563 306.005 281.656 317.123 268.222C328.571 254.293 342.242 241.93 356.737 231.216C371.149 220.501 386.715 211.353 403.104 204.018C419.657 196.6 436.87 191.078 454.577 186.957C455.071 186.792 454.906 186.05 454.412 186.133C452.188 186.545 450.047 187.039 447.823 187.534C430.281 191.572 413.151 197.671 396.927 205.336C380.785 213.001 365.467 222.397 351.384 233.441C344.219 239.046 337.301 245.062 330.794 251.408C324.453 257.59 318.276 264.101 312.923 271.189C302.464 285.035 295.052 300.942 288.793 317.096C287.31 321.052 285.828 324.926 284.51 328.964C283.192 332.921 281.792 336.877 279.569 340.421C275.286 347.261 268.368 351.135 262.109 355.915C257.497 356.327 252.967 356.904 248.438 357.481C254.697 352.948 260.627 347.838 265.403 341.657C267.792 338.525 269.851 335.228 271.415 331.602C273.227 327.481 274.216 323.113 275.451 318.745C278.004 309.514 280.804 300.448 284.263 291.546C287.64 282.975 291.675 274.651 296.04 266.491C304.44 250.667 314.488 235.502 327.088 222.644C338.536 210.941 352.043 201.545 366.455 193.798C380.456 186.38 395.774 180.034 411.751 178.303C412.328 178.221 412.163 177.396 411.586 177.479C409.775 177.644 407.963 177.809 406.151 178.138C398.409 179.292 390.832 181.682 383.503 184.484C375.679 187.534 368.102 191.16 360.772 195.364C346.442 203.441 333.348 213.413 322.229 225.611C310.205 238.881 300.57 254.211 292.499 270.2C288.298 278.442 284.428 286.848 281.216 295.502C277.922 304.486 275.286 313.635 272.815 322.865C271.662 327.069 270.262 331.107 268.203 334.899C266.227 338.443 263.756 341.657 261.038 344.706C256.426 349.734 251.073 353.937 245.555 357.976C242.096 358.47 238.555 359.047 235.096 359.624C241.191 355.338 246.297 349.322 250.662 343.388C253.379 339.761 255.768 335.97 258.074 332.096C261.121 330.366 263.839 328.223 266.145 325.915C270.921 321.052 272.568 314.871 270.098 308.937C280.886 285.283 288.381 260.31 298.84 236.491C310.864 208.963 328.159 181.93 356.572 169.484C370.49 163.385 385.726 161.407 400.798 162.314C414.963 163.138 428.717 166.435 442.388 170.144C455.73 173.77 468.989 177.396 482.578 180.199C489.331 181.6 496.167 183.001 502.838 184.814C507.861 186.215 512.885 187.781 517.579 190.089C518.485 190.666 519.391 191.325 520.297 191.902C503.249 189.347 485.543 190.583 468.824 194.622C444.941 200.309 423.857 211.765 404.915 227.26C385.726 243.002 369.667 261.876 354.925 281.821C349.737 288.909 344.136 297.398 344.054 306.464C343.972 315.201 349.407 322.206 357.56 324.926C366.208 327.728 376.091 326.657 384.82 324.761C396.597 322.206 407.798 317.426 418.422 311.821C444.529 298.057 466.765 278.442 491.143 262.04C514.697 246.134 540.227 232.452 568.723 228.331C592.689 224.87 618.219 227.095 640.455 236.985C651.738 242.013 662.856 249.43 670.516 259.321C679.163 270.612 681.881 284.788 683.857 298.552C685.834 312.481 687.81 326.327 692.834 339.596C694.317 343.882 696.376 348.333 698.764 352.619ZM196.718 409.735C195.812 407.345 194.906 404.954 193.918 402.564C190.871 395.229 186.588 386.74 179.423 382.784C182.553 382.124 185.6 381.548 188.729 380.888C189.8 381.465 190.871 382.042 191.859 382.701C198.036 386.575 206.271 393.416 208.413 400.751C209.319 403.965 207.918 404.378 205.777 404.625C204.871 404.707 203.801 404.872 202.73 405.119C200.753 405.531 195.565 406.685 196.718 409.735ZM158.01 383.113C159.987 381.877 161.881 380.311 163.528 378.498C168.717 377.591 173.905 376.602 179.011 375.531C201.989 370.503 224.719 364.487 248.108 361.52C267.956 359.047 287.887 357.646 307.899 357.811C345.701 358.141 383.173 363.91 419.493 374.46C457.13 385.339 494.108 400.751 528.286 419.872C566.17 441.054 601.336 466.768 636.585 491.824C640.208 494.379 643.914 497.016 647.538 499.571C641.197 495.533 634.938 491.412 628.596 487.456C608.995 475.01 588.983 463.224 569.052 451.439C549.204 439.735 529.356 428.114 508.932 417.482C471.707 398.196 432.093 383.031 391.327 373.223C353.525 364.157 314.735 361.025 275.863 363.251C236.084 365.476 197.047 375.201 158.01 383.113ZM309.958 402.564C304.852 395.724 299.334 389.212 292.91 383.608C288.628 379.817 283.934 376.685 278.91 373.883C275.451 371.905 271.91 370.009 268.533 367.784C275.945 367.124 283.439 366.63 290.934 366.465C291.016 366.465 291.099 366.465 291.181 366.465C293.487 367.866 295.958 369.102 298.346 370.421C302.052 372.564 305.264 375.284 308.311 378.333C310.205 380.311 312.017 382.289 313.664 384.432C312.841 384.762 312.1 385.256 311.523 385.668C305.429 389.954 306.335 397.125 309.958 402.564ZM316.712 388.306L316.794 388.223C317.206 388.059 317.535 387.894 317.947 387.729C331.124 382.949 339.936 394.24 341.583 406.108C341.913 408.663 341.995 412.537 339.442 414.103C338.618 414.597 337.63 414.762 336.642 414.597C335.983 414.515 335.324 414.35 334.748 414.185C333.759 413.856 332.853 413.526 332.112 413.196C325.853 410.476 319.676 405.696 315.147 400.586C311.358 396.383 311.111 391.026 316.712 388.306ZM222.166 361.932C223.072 360.943 223.896 359.871 224.719 358.718C230.319 351.053 234.025 342.316 237.073 333.415C238.967 334.734 241.273 335.64 243.908 335.723C246.873 335.888 249.756 335.311 252.638 334.322C250.25 338.195 247.614 341.987 244.814 345.613C240.285 351.382 234.767 357.234 228.096 360.696C226.119 361.108 224.143 361.52 222.166 361.932ZM239.296 329.459C239.049 329.294 238.802 329.047 238.637 328.8C238.226 328.387 237.896 327.893 237.649 327.481C236.579 325.42 236.908 323.195 236.743 320.97C236.661 319.486 236.002 318.003 235.92 316.684C235.92 316.272 236.084 315.942 236.249 315.613C239.461 309.019 244.897 300.86 253.215 301.189C258.156 301.354 263.427 305.228 265.568 310.091C266.309 311.821 266.721 313.635 266.556 315.448C266.556 315.942 266.474 316.437 266.309 316.931C265.815 318.992 264.58 320.97 262.85 322.701C261.121 324.514 258.98 326.162 256.674 327.481C253.873 329.047 250.909 330.283 248.438 330.778C245.473 331.355 241.767 331.519 239.296 329.459ZM682.293 405.696C670.845 402.976 659.315 400.833 647.62 399.35C640.373 398.443 633.043 397.784 625.714 397.454C618.137 397.042 610.478 396.877 602.818 397.207C587.088 397.866 571.523 400.504 555.958 402.647C545.416 404.048 534.874 405.449 524.25 405.696C518.979 405.861 513.709 405.779 508.603 404.79C507.779 404.625 506.955 404.46 506.214 404.295C503.496 402.976 500.696 401.575 497.896 400.257C497.731 400.092 497.567 400.009 497.402 399.844C497.237 399.68 497.073 399.68 496.908 399.762C495.261 399.02 493.614 398.196 491.966 397.454C500.614 398.031 509.261 396.795 517.909 395.888C527.38 394.899 537.016 394.24 546.322 396.465C546.981 396.63 547.31 395.641 546.651 395.476C541.545 394.158 536.274 393.663 531.003 393.663C521.615 393.746 512.309 395.394 503.002 396.053C498.39 396.383 493.778 396.465 489.166 395.971L488.672 395.888C475.989 390.119 463.142 384.844 450.047 380.064C454.082 379.817 458.036 378.993 461.906 378.333C467.589 377.262 473.271 376.355 479.036 377.179C479.613 377.262 479.778 376.355 479.201 376.19C476.319 375.366 473.189 375.449 470.224 375.778C464.377 376.355 458.612 377.839 452.765 378.663C450.871 378.91 448.976 379.075 447 379.075C436.046 375.201 425.01 371.657 413.81 368.525C414.304 368.525 414.881 368.525 415.375 368.525C430.693 367.948 443.953 358.223 455.482 349.157C461.742 344.212 467.836 339.02 474.342 334.322C480.601 329.706 487.19 325.75 494.519 322.948C512.72 315.86 531.58 309.926 550.769 306.217C559.417 304.568 568.064 303.332 576.958 303.744C585.112 304.074 593.1 305.475 601.007 307.288C616.819 311.08 632.055 316.684 648.032 319.734C648.773 319.898 649.021 318.58 648.279 318.415C646.22 318.003 644.161 317.508 642.103 317.014C626.372 313.222 611.136 307.618 595.324 304.404C587.5 302.838 579.512 301.931 571.441 302.096C562.381 302.343 553.404 303.992 544.592 305.97C534.957 308.113 525.403 310.75 516.015 313.799C511.485 315.283 506.955 316.849 502.508 318.415C498.226 319.981 493.861 321.547 489.743 323.36C482.907 326.409 476.648 330.86 470.636 335.393C464.212 340.338 458.035 345.531 451.694 350.476C439.588 359.789 425.752 368.443 409.857 367.454C408.786 367.207 407.798 366.877 406.727 366.63C404.421 366.053 402.115 365.476 399.809 364.899C407.716 364.981 415.375 361.108 421.881 356.904C429.54 351.877 436.376 345.778 443.458 340.009C446.67 337.454 449.882 334.899 453.341 332.673C458.035 329.624 462.895 326.739 467.754 324.019C477.636 318.415 487.931 313.305 498.39 308.854C508.767 304.404 519.556 300.695 530.427 297.81C531.086 297.645 530.921 296.574 530.262 296.739C528.945 297.068 527.544 297.398 526.227 297.728C515.438 300.612 504.896 304.568 494.684 309.019C484.225 313.552 474.095 318.745 464.295 324.431C459.765 327.069 455.153 329.789 450.788 332.673C447.412 334.981 444.2 337.536 441.07 340.173C433.987 346.025 427.069 352.124 419.246 356.987C412.163 361.355 403.845 364.817 395.362 363.663C395.197 363.663 395.115 363.663 395.033 363.745C389.844 362.591 384.656 361.52 379.467 360.531C379.632 360.531 379.714 360.531 379.879 360.448C385.726 359.459 391.409 357.316 396.927 354.926C403.515 352.042 409.939 348.827 416.198 345.201C429.787 337.454 442.635 328.387 455.73 319.816C468.083 311.739 480.766 304.239 493.943 297.563C506.544 291.134 519.474 285.283 532.98 280.914C546.239 276.629 560.075 273.744 574.076 273.414C586.43 273.167 598.783 274.898 610.56 278.771C633.537 286.354 653.056 301.519 668.704 319.734C678.257 330.778 686.987 342.399 696.87 353.113C699.505 355.998 702.141 358.882 704.858 361.767C705.352 362.509 705.847 363.168 706.341 363.91C705.682 363.415 704.941 362.921 704.282 362.426C685.01 348.992 663.351 338.443 642.103 328.47C632.549 323.937 622.749 319.981 612.372 317.755C601.089 315.283 589.641 315.365 578.111 316.025C566.087 316.684 554.228 318.25 542.451 320.558C532.486 322.536 522.438 324.679 512.967 328.387C498.637 333.992 481.672 344.871 481.425 362.179C481.178 385.092 510.661 386.245 527.215 386.575C550.851 387.07 574.323 383.855 597.959 384.844C619.866 385.751 641.691 389.212 662.28 396.795C668.868 399.268 675.704 402.235 682.293 405.696ZM738.954 559.407C738.542 558.995 738.048 558.665 737.554 558.336C729.071 551.66 719.847 545.643 711.035 539.462C700.658 532.126 690.199 524.874 679.74 517.703C661.621 505.258 643.585 492.565 625.714 479.791C590.218 454.57 554.475 428.773 515.52 408.993C514.367 408.416 513.214 407.839 511.979 407.262C516.838 407.922 521.78 408.004 526.639 407.839C537.757 407.509 548.875 406.191 559.828 404.625C575.476 402.482 591.124 399.927 606.854 399.68C621.843 399.432 636.914 400.504 651.821 402.482C664.833 404.213 677.598 406.932 690.281 410.229C700.74 416.493 710.376 424.076 718.282 433.059C718.694 433.471 719.024 433.966 719.435 434.46C710.047 431.081 701.152 426.383 691.681 423.334C681.387 420.037 670.68 417.977 659.974 416.575C649.515 415.174 639.138 414.515 628.596 414.762C618.219 414.927 607.925 415.669 597.548 415.999C587.335 416.328 577.041 416.163 566.911 414.597C566.334 414.515 566.334 415.422 566.829 415.504C568.064 415.751 569.382 415.916 570.617 416.081C580.747 417.4 590.959 417.317 601.171 416.988C611.466 416.658 621.76 415.916 632.055 415.834C642.597 415.751 653.138 416.74 663.598 418.224C674.304 419.79 685.01 422.098 695.305 425.724C703.87 428.773 711.941 432.894 720.506 435.697C727.095 443.856 732.036 453.417 733.436 464.049C734.095 469.406 734.095 474.845 733.765 480.285C733.354 480.12 732.86 479.955 732.448 479.791C721.494 475.752 711.529 469.653 701.729 463.389C696.787 460.175 691.764 457.043 686.74 453.994C681.881 451.109 676.775 448.554 671.669 446.164C661.456 441.466 650.997 437.263 640.208 434.048C629.749 430.916 619.043 428.773 608.172 427.867C596.889 426.96 585.524 427.62 574.405 429.762C573.829 429.845 573.994 430.834 574.57 430.669C575.97 430.422 577.453 430.175 578.853 430.01C589.971 428.444 601.171 428.279 612.289 429.515C623.161 430.751 633.785 433.306 644.161 436.686C654.785 440.147 665.245 444.515 675.292 449.378C685.752 454.406 695.305 460.999 705.105 467.098C710.047 470.148 715.071 473.197 720.259 475.752C724.542 477.895 728.906 479.873 733.518 481.192C733.107 487.291 732.283 493.307 731.542 499.324C730.554 507.401 729.73 515.56 729.895 523.637C726.518 522.319 723.224 520.918 720.012 519.269C715.894 517.209 711.941 514.901 708.153 512.428C694.234 503.527 681.716 492.73 668.539 482.758C655.444 472.867 641.361 463.554 625.466 458.856C624.808 458.691 624.478 459.598 625.137 459.845C634.032 462.73 642.432 466.851 650.338 471.714C664.421 480.368 677.104 491.247 690.199 501.219C696.705 506.247 703.376 511.027 710.459 515.313C713.918 517.374 717.459 519.269 721.083 521C723.965 522.401 726.93 523.637 729.895 524.709C729.977 527.676 730.224 530.643 730.718 533.528C732.283 542.594 735.495 551.083 738.954 559.407ZM670.104 597.567C669.939 597.567 669.774 597.567 669.61 597.567C668.21 598.061 666.727 598.144 665.245 598.061C657.75 597.897 650.338 595.259 643.173 593.364C634.526 591.056 626.043 588.006 617.89 584.215C601.665 576.715 586.841 566.248 573.911 553.885C559.005 539.627 547.475 522.648 537.757 504.599C528.45 487.291 520.297 469.323 511.567 451.686C503.743 435.697 494.849 418.883 480.354 408.004C495.096 414.597 509.508 421.768 523.674 429.433C563.205 450.944 601.913 474.351 639.797 498.664C657.421 509.956 674.88 521.577 692.834 532.539C702.305 538.308 711.035 545.066 720.341 551.083C726.93 555.286 734.26 558.83 740.683 563.446C740.848 563.94 741.095 564.435 741.342 564.847C737.636 565.176 733.848 565.341 730.142 565.588C724.047 564.847 718.118 563.528 712.27 561.632C703.788 558.913 695.717 555.121 687.81 551C678.422 546.138 669.033 541.11 659.892 535.835C650.832 530.643 642.103 525.038 633.702 518.775C625.796 512.841 617.972 506.741 608.831 502.785C608.172 502.538 607.925 503.527 608.501 503.774C618.713 508.472 627.361 515.725 636.338 522.319C644.82 528.582 653.962 534.022 663.186 539.214C672.245 544.324 681.469 549.352 690.775 553.967C698.599 557.841 706.67 561.385 715.153 563.775C718.447 564.682 721.824 565.424 725.2 566.001C725.118 566.001 725.036 566.001 724.953 566.001C713.835 567.237 704.611 571.852 695.799 577.951C695.305 577.869 694.811 577.869 694.317 577.786C681.963 576.22 670.598 570.369 659.233 565.506C646.797 560.149 634.773 554.215 623.655 546.467C617.972 542.511 612.701 538.143 607.513 533.61C602.077 528.83 596.806 523.967 591.7 518.939C581.57 508.967 572.182 498.335 564.276 486.467C557.111 475.752 550.357 464.049 539.404 456.796C538.91 456.466 538.333 457.29 538.827 457.62C540.145 458.527 541.38 459.516 542.616 460.505C552.746 469.159 559.005 481.274 566.664 491.989C575.064 503.774 585.029 514.324 595.489 524.297C605.536 533.857 616.078 543.088 627.773 550.671C633.455 554.297 639.302 557.594 645.397 560.561C651.244 563.446 657.256 565.918 663.268 568.555C673.233 572.924 683.775 577.786 694.811 578.693C693.164 579.847 691.517 581.083 689.869 582.402C683.281 587.677 676.939 592.951 670.104 597.567ZM608.254 634.243C605.948 634.078 603.642 634.161 601.336 634.655C601.007 634.738 600.76 634.82 600.43 634.903C599.277 634.738 598.124 634.573 596.971 634.49C579.1 632.43 561.146 633.584 543.192 633.501C527.792 633.419 512.885 631.688 498.143 626.743C470.307 617.43 446.094 599.627 424.928 579.6C400.962 556.935 380.62 530.973 361.843 503.939C350.478 487.538 339.03 471.301 327.336 455.23C317.453 441.631 307.241 428.279 297.852 414.35C290.852 404.048 283.934 393.498 275.368 384.432C269.521 378.251 262.521 372.069 254.285 369.35C258.485 368.855 262.603 368.361 266.803 367.948C266.886 368.031 266.968 368.113 267.05 368.113C271.58 371.41 276.769 373.965 281.545 376.85C286.569 379.817 291.016 383.526 295.216 387.564C303.782 395.888 310.699 405.614 317.37 415.422C324.453 425.889 331.783 436.109 339.442 446.081C343.23 451.109 347.101 456.136 350.972 461.164C354.843 466.191 358.466 471.466 362.008 476.659C363.737 479.214 365.384 481.851 367.279 484.241C369.09 486.631 371.067 488.939 373.126 491.164C377.161 495.697 381.361 500.23 384.409 505.505C384.738 506.082 385.726 505.67 385.397 505.011C384.738 503.774 383.915 502.538 383.091 501.302C379.714 496.274 375.432 491.989 371.479 487.373C367.443 482.675 364.067 477.4 360.608 472.29C353.36 461.741 345.289 451.768 337.63 441.548C333.842 436.521 330.053 431.411 326.43 426.218C322.806 421.108 319.347 415.834 315.723 410.724C314.076 408.334 312.429 406.026 310.699 403.718C310.947 404.048 311.194 404.295 311.441 404.625C317.206 410.889 325.771 416.988 334.171 418.636C335.489 418.883 336.724 418.883 337.795 418.801C345.866 429.35 355.007 438.993 366.455 445.917C367.031 446.246 367.69 445.34 367.031 445.01C359.784 440.559 353.36 434.955 347.595 428.691C344.63 425.477 341.83 422.015 339.113 418.553C343.724 417.07 345.783 411.795 344.96 406.273C344.301 401.987 342.572 397.784 340.266 394.158C338.865 391.932 337.054 389.212 334.583 387.894C334.583 387.647 334.583 387.482 334.501 387.234C331.042 381.548 321.159 381.465 314.653 383.938C312.182 380.806 309.464 377.839 306.499 375.119C303.782 372.646 300.817 370.503 297.522 368.69C296.122 367.948 294.64 367.207 293.24 366.465C300.734 366.383 308.229 366.465 315.723 366.712C320.171 370.586 325.194 373.553 330.053 376.85C334.83 380.064 339.442 383.69 343.23 388.141C347.183 392.839 350.313 398.279 353.607 403.471C360.031 413.608 366.867 424.405 377.161 430.999C377.738 431.328 378.314 430.504 377.738 430.092C372.055 426.136 367.361 421.109 363.243 415.586C359.537 410.641 356.243 405.284 352.948 400.092C349.737 394.982 346.525 389.707 342.407 385.256C338.536 381.135 333.924 377.921 329.23 374.789C325.194 372.152 321.241 369.597 317.37 366.712C329.559 367.289 341.666 368.361 353.772 370.091C357.89 372.481 361.761 375.449 365.22 378.745C373.62 386.74 379.961 396.465 386.879 405.614C393.715 414.68 401.457 423.499 411.669 428.691C412.245 428.938 412.822 428.196 412.245 427.867C406.563 424.735 401.539 420.532 397.009 415.834C389.021 407.427 382.844 397.537 375.597 388.553C369.996 381.548 363.737 375.119 356.16 370.421C367.937 372.152 379.55 374.377 391.162 377.179C391.738 377.591 392.233 378.004 392.809 378.333C399.727 383.031 406.892 387.152 413.892 391.767C421.14 396.548 427.728 402.07 434.152 408.004C447.247 420.284 459.353 433.636 470.307 447.812C481.59 462.483 493.119 477.071 504.402 491.824C515.603 506.494 525.733 521.906 536.933 536.659C541.792 543.088 546.569 549.682 551.675 555.863C556.616 561.88 562.134 567.566 568.723 571.77C569.299 572.1 569.876 571.275 569.299 570.863C567.652 569.792 566.17 568.638 564.687 567.484C558.346 562.374 553.157 556.028 548.298 549.599C543.192 542.923 538.086 536.165 533.145 529.407C527.709 521.989 522.521 514.406 517.168 506.906C511.814 499.324 506.214 491.989 500.532 484.653C494.849 477.318 489.084 469.983 483.401 462.647C477.801 455.395 472.366 448.059 466.601 440.971C455.318 427.043 442.964 413.856 429.54 401.987C418.751 392.427 406.068 385.751 394.127 378.004C397.503 378.828 400.962 379.734 404.339 380.641C415.128 383.608 425.834 386.987 436.376 390.614C436.376 390.778 436.376 390.943 436.54 391.026C442.305 393.91 447.659 397.537 452.435 401.905C460.753 409.487 467.342 418.718 474.177 427.62C481.013 436.438 488.178 445.257 497.484 451.603C498.061 452.016 498.637 451.109 498.061 450.697C492.872 446.906 488.178 442.455 483.978 437.675C476.483 429.268 470.142 419.872 462.895 411.218C456.553 403.718 449.388 396.795 440.741 392.18C453.753 396.877 466.601 401.987 479.284 407.674C479.036 407.839 478.872 408.251 479.201 408.498C480.931 409.982 482.578 411.548 484.225 413.196C497.402 426.631 505.555 443.856 513.461 460.669C517.744 469.653 522.027 478.554 526.474 487.456C531.003 496.769 535.698 505.917 540.886 514.901C546.075 523.72 551.757 532.291 558.181 540.286C564.358 547.951 571.358 555.039 578.853 561.468C592.442 573.171 607.677 582.814 624.314 589.49C632.22 592.704 640.373 594.93 648.526 597.155C652.315 598.144 656.103 599.133 659.974 599.792C661.868 600.122 663.845 600.369 665.821 600.287C662.692 602.182 659.397 603.913 655.938 605.314C633.785 614.463 608.254 613.391 587.582 601.111C565.923 588.254 549.863 568.061 533.886 549.022C525.897 539.544 517.332 530.56 509.179 521.165C500.367 511.027 492.131 500.395 483.731 490.01C467.918 470.395 450.376 449.79 427.564 438.004C417.434 432.812 405.821 428.691 394.291 429.845C389.432 430.339 384.409 431.823 381.114 435.614C377.902 439.241 377.161 443.938 377.079 448.554C376.997 462.73 377.573 476.576 382.267 490.093C387.044 503.857 394.95 516.467 404.504 527.511C422.128 547.704 445.023 562.704 468.824 574.654C493.531 587.1 519.391 596.331 545.498 605.232C559.169 609.93 572.594 615.204 585.606 621.468C593.512 625.177 600.677 629.957 608.254 634.243ZM389.185 733.64C381.197 723.997 371.396 716.167 360.196 710.563C347.513 704.217 334.171 698.942 322.641 690.7C310.452 682.046 301.228 670.26 293.405 657.65C285.251 644.463 278.004 630.617 271.333 616.606C257.662 588.006 246.297 558.336 235.014 528.665C223.896 499.489 215.66 469.406 206.436 439.653C208.907 440.889 211.624 441.548 214.26 441.548C216.319 441.548 218.131 441.054 219.695 440.23C220.19 442.455 220.684 444.68 221.26 446.988C224.637 460.917 228.425 474.845 232.79 488.445C237.155 501.961 242.096 515.395 247.861 528.418C253.626 541.522 260.215 554.297 267.792 566.413C268.203 567.072 269.274 566.577 268.862 565.836C267.956 564.27 266.968 562.704 266.062 561.138C258.815 548.693 252.391 535.753 246.791 522.566C241.108 509.132 236.249 495.368 231.967 481.439C227.766 467.675 224.143 453.746 220.848 439.653C220.848 439.57 220.848 439.57 220.848 439.488C224.554 437.015 226.943 432.73 227.684 428.279C229.496 417.894 222.001 401.74 210.636 403.718C206.271 393.993 199.436 385.504 189.882 380.559C193.094 379.899 196.224 379.24 199.436 378.663C204.048 382.372 208.577 386.163 212.777 390.366C216.895 394.487 220.684 398.938 223.978 403.801C227.355 408.746 229.99 414.02 232.378 419.46C237.237 430.257 241.191 441.631 248.191 451.356C248.52 451.851 249.344 451.274 249.014 450.779C245.144 445.092 242.096 438.911 239.379 432.647C234.602 421.768 230.484 410.476 223.401 400.833C219.943 396.136 216.072 391.767 211.872 387.811C208.413 384.515 204.707 381.3 200.753 378.58C206.024 377.509 211.213 376.52 216.484 375.531C221.013 378.58 225.543 381.63 229.661 385.256C234.025 389.13 237.896 393.416 241.355 398.031C244.979 402.894 248.026 408.169 251.073 413.444C257.003 423.911 262.933 434.708 272.239 442.62C272.733 443.032 273.392 442.208 272.898 441.796C267.709 437.18 263.509 431.658 259.803 425.806C253.297 415.504 248.108 404.295 240.449 394.735C234.19 386.987 226.531 380.146 217.884 375.119C224.802 373.8 231.802 372.646 238.72 371.575C241.026 373.306 243.249 375.201 245.308 377.097C255.768 386.658 264.003 398.196 271.992 409.817C280.392 422.098 289.122 434.048 298.428 445.669C307.899 457.455 317.782 468.994 327.088 480.944C335.406 491.659 342.983 502.868 350.395 514.242C362.584 533.115 374.773 551.907 388.279 569.792C401.868 587.759 416.857 604.985 434.317 619.243C451.118 633.007 470.389 643.721 491.555 648.666C492.131 648.831 492.461 647.842 491.884 647.76C489.331 647.183 486.696 646.441 484.225 645.699C463.059 639.188 444.2 626.908 427.811 612.155C410.928 596.908 396.515 579.188 383.173 560.808C370.161 542.841 358.302 524.049 346.195 505.423C329.889 480.285 309.547 458.197 291.263 434.543C282.534 423.169 274.792 411.218 266.392 399.597C258.815 389.13 250.414 379.24 240.202 371.41C243.496 370.916 246.791 370.421 250.167 370.009C251.567 370.339 253.05 370.751 254.368 371.328C265.65 375.943 274.216 385.998 281.463 395.394C288.628 404.707 294.722 414.762 301.64 424.323C313.17 440.312 324.865 456.136 336.477 472.043C348.089 488.032 358.96 504.599 370.573 520.67C388.774 545.89 409.445 569.874 432.999 590.314C454.577 608.941 479.366 624.93 507.285 631.935C535.945 639.106 565.758 633.831 594.912 636.716C590.136 638.611 585.688 641.414 581.406 644.051C574.652 648.172 567.982 652.046 560.734 655.26C553.157 658.557 545.498 661.606 537.921 664.903C530.262 668.282 522.85 672.321 515.109 675.7C502.59 681.139 489.166 683.2 475.825 680.233C464.789 677.76 454.659 672.485 445.517 665.974C425.34 651.551 408.869 631.441 394.374 611.496C374.773 584.462 358.631 555.121 340.76 527.017C332.277 513.665 323.382 500.313 313.417 488.032C305.017 477.73 295.381 466.768 284.016 459.598C275.533 454.241 266.227 454.818 259.721 462.895C254.45 469.406 253.462 478.307 253.956 486.384C254.532 495.78 256.921 505.011 259.885 513.912C262.933 523.225 266.474 532.456 270.839 541.193C283.851 566.99 304.029 587.841 324.124 608.199C344.054 628.474 365.714 649.079 378.973 674.546C385.891 687.815 388.691 701.579 387.538 716.497C387.291 722.184 387.538 728.2 389.185 733.64ZM208.989 405.614C215.001 405.449 219.943 409.24 222.413 414.597C225.049 420.367 225.543 428.361 221.59 433.719C221.096 434.378 220.519 434.955 220.025 435.449C219.613 435.779 219.284 436.026 218.872 436.274C214.507 438.993 208.907 437.015 204.542 433.719C203.142 432.647 201.824 431.328 200.753 430.092C200.424 429.68 200.095 429.268 199.765 428.856C197.706 426.054 196.306 422.757 196.636 419.295C196.636 419.13 196.636 419.048 196.718 418.883C196.965 417.152 197.542 415.669 198.365 414.35C200.671 410.806 204.789 409.735 207.26 406.603C207.507 406.273 207.754 405.943 208.083 405.779C208.413 405.696 208.742 405.614 208.989 405.614ZM204.377 706.195C204.295 705.947 204.212 705.7 204.13 705.535C202.812 702.486 201.412 699.436 199.436 696.717C197.459 693.997 195.236 691.442 192.93 689.052C188.482 684.519 183.541 680.48 178.435 676.689C173.164 672.733 167.811 668.859 162.622 664.738C157.434 660.535 152.492 656.084 147.633 651.469C138.245 642.32 129.762 632.43 121.938 621.963C114.279 611.578 106.867 600.616 101.02 589.16C89.9838 567.484 85.4542 542.923 87.4307 518.692C88.419 506.247 91.0544 493.967 95.4193 482.263C99.6195 470.889 105.384 460.257 111.479 449.79C117.985 438.581 124.574 427.372 131.574 416.493C135.115 410.971 138.821 405.449 143.021 400.421C146.151 396.713 149.61 392.921 151.01 388.223C152.245 388.059 153.398 387.811 154.634 387.564C154.222 388.141 153.893 388.8 153.481 389.377C146.645 400.833 141.457 413.196 136.68 425.559C131.821 438.087 127.374 450.779 121.938 463.142C119.303 468.994 116.503 474.763 114.444 480.862C112.385 486.879 110.82 493.06 109.832 499.324C107.69 512.428 107.938 525.615 110.243 538.638C112.714 552.484 116.914 566.165 117.409 580.341C117.409 581.083 118.562 581.166 118.562 580.424C118.562 578.775 118.479 577.045 118.314 575.396C117.326 561.385 112.961 547.868 110.902 534.022C109.008 521.165 109.42 507.895 111.973 495.203C113.208 489.021 115.02 483.005 117.326 477.071C119.715 470.972 122.679 465.12 125.15 459.021C130.339 446.658 134.703 434.048 139.562 421.603C144.257 409.735 149.445 398.196 155.869 387.152C156.857 386.987 157.846 386.822 158.834 386.658C157.104 389.954 155.704 393.498 154.469 397.042C153.069 401.163 151.916 405.449 151.092 409.735C148.045 425.229 148.045 441.054 147.386 456.796C146.727 472.455 145.41 488.445 139.81 503.198C139.562 503.857 140.633 504.187 140.88 503.527C144.092 495.368 145.986 486.796 147.139 478.142C149.198 462.483 148.869 446.576 149.857 430.834C150.351 423.004 151.257 415.257 152.904 407.592C153.728 403.718 154.798 399.927 156.034 396.218C157.187 392.839 158.587 389.625 159.987 386.41C161.305 386.163 162.54 385.916 163.858 385.668C163.528 392.756 163.693 399.927 164.517 407.015C166.081 419.955 170.611 432.317 174.646 444.598C178.599 456.631 182.47 468.994 182.8 481.769C182.8 482.428 183.87 482.51 183.87 481.851C183.788 474.845 182.635 467.922 180.988 461.164C177.858 448.636 173.082 436.521 169.54 424.158C167.728 417.812 166.246 411.466 165.587 404.872C164.928 398.443 165.011 392.015 164.764 385.504C166.74 385.092 168.717 384.762 170.693 384.35C172.176 385.668 172.999 387.647 173.576 389.542C174.893 393.581 175.552 397.949 176.458 402.07C177.694 407.262 178.929 412.537 180.247 417.729C182.882 428.279 185.435 438.829 188.318 449.213C194 469.736 201.33 489.681 208.577 509.626C216.072 530.148 223.154 550.753 229.99 571.523C236.743 592.127 243.414 612.814 251.567 632.924C255.521 642.65 259.885 652.21 265.897 660.782C271.91 669.354 278.992 677.101 284.098 686.249C284.428 686.826 285.416 686.414 285.087 685.755C283.851 683.447 282.534 681.304 281.051 679.161C275.286 670.59 268.286 662.925 263.015 654.024C257.497 644.546 253.379 634.243 249.591 624.023C241.849 603.419 235.178 582.484 228.261 561.632C221.425 541.028 214.095 520.588 206.683 500.23C199.271 479.791 192.188 459.186 186.753 438.004C184.035 427.372 181.317 416.74 178.682 406.108C177.611 401.575 176.623 397.125 175.47 392.592C174.729 389.625 173.823 386.328 171.682 384.103C172.999 383.855 174.235 383.608 175.552 383.361C177.282 384.103 178.929 385.174 180.329 386.493C187.823 393.251 191.2 403.471 194.247 412.867C191.941 417.4 191.612 423.004 194.165 427.949C195.894 431.411 198.695 434.708 202.071 437.18C203.965 443.032 205.777 448.966 207.507 454.9C212.036 469.9 216.401 484.983 221.26 499.901C226.037 514.654 231.555 529.159 237.073 543.665C248.356 572.924 259.968 602.017 274.298 629.957C281.051 643.227 288.299 656.496 296.946 668.694C305.346 680.48 315.641 690.37 328.077 697.788C339.936 704.794 353.031 709.409 364.89 716.415C374.032 721.854 382.597 729.519 388.938 738.256C367.196 734.135 345.866 742.789 324.947 747.486C303.205 752.432 279.898 750.948 262.603 735.536C240.202 715.59 234.355 685.672 227.519 657.897C220.354 628.886 214.507 599.462 205.612 570.863C203.224 563.198 200.671 555.698 198.612 547.951C196.718 540.698 194.659 533.445 192.271 526.357C189.8 519.104 187 511.851 182.8 505.423C179.917 500.89 175.964 496.192 170.446 495.038C154.963 491.741 149.198 513.582 147.386 524.461C145.904 533.692 145.492 543.088 145.41 552.401C145.327 561.385 144.916 570.369 145.245 579.352C145.739 592.951 147.716 606.468 152.163 619.408C156.693 632.76 164.105 644.628 172.093 656.084C180.082 667.623 188.976 678.584 196.224 690.618C199.353 695.398 202.318 700.673 204.377 706.195ZM147.222 387.647L147.304 387.729C147.057 387.894 146.81 388.059 146.563 388.223C145.739 388.388 144.998 388.636 144.174 388.883C141.292 389.789 138.574 390.943 135.939 392.344C134.703 392.674 133.386 393.086 132.15 393.416C125.562 395.147 118.973 396.465 112.302 397.784C108.514 398.526 104.726 399.597 101.02 400.586C95.1722 402.235 89.3249 404.213 83.6423 406.52C73.3477 410.724 63.4649 416.163 54.4881 422.674C46.9936 428.114 39.7462 434.378 34.3931 441.96C31.9224 445.587 29.7811 449.543 28.6281 453.746C27.9692 456.054 27.7222 458.362 27.5574 460.669C27.3104 463.637 27.1457 466.604 27.1457 469.571C27.0633 481.439 28.6281 493.39 31.9224 504.763C35.4637 517.126 40.8992 528.995 46.9113 540.368C52.0997 550.259 58.1941 559.654 62.8061 569.874C67.0886 579.27 70.7123 589.82 69.6417 600.287C69.5593 601.111 70.877 601.193 70.9594 600.369C71.2065 597.897 71.2888 595.424 71.1241 592.951C70.4652 582.402 66.018 572.264 61.2413 562.951C58.853 558.253 56.2176 553.72 53.5821 549.187C50.3702 543.583 47.323 537.896 44.5229 532.126C39.005 520.67 34.146 508.884 31.4282 496.439C28.8752 484.818 28.1339 472.785 29.1222 460.917C29.2869 458.527 29.534 456.219 30.1929 453.911C30.7694 451.768 31.5929 449.79 32.5812 447.812C34.7225 443.691 37.5226 439.982 40.6522 436.521C46.8289 429.927 54.0763 424.323 61.7354 419.543C72.2771 412.867 83.56 407.674 95.4193 403.883C100.443 402.317 105.467 400.833 110.573 399.68C113.126 399.103 115.679 398.608 118.232 398.114C122.432 397.207 126.715 396.3 130.833 395.229C128.115 396.96 125.562 398.773 123.009 400.669C116.256 405.779 109.996 411.466 104.067 417.4C97.8076 423.663 91.9603 430.422 86.9366 437.675C81.254 445.834 76.3949 454.653 72.5242 463.801C68.9828 472.208 66.1003 481.027 65.1121 490.093C64.1238 498.994 64.4532 508.06 65.6062 516.961C66.7592 525.863 68.6534 534.681 71.0417 543.335C73.6772 552.896 76.7243 562.292 80.348 571.44C82.407 576.468 84.6306 581.495 87.266 586.276C89.4896 590.396 91.878 594.435 93.8545 598.638C97.89 607.21 101.102 616.523 100.278 626.084C100.196 626.826 101.349 626.826 101.431 626.166C101.678 623.941 101.678 621.798 101.514 619.573C100.855 610.342 97.2311 601.605 92.9486 593.528C90.6426 589.16 88.0896 584.957 85.9483 580.424C83.56 575.561 81.5834 570.534 79.6892 565.424C73.3477 548.198 68.324 530.148 66.5945 511.769C65.7709 503.033 65.7709 494.131 67.3357 485.477C68.9005 476.247 72.4418 467.263 76.3949 458.774C80.6775 449.708 85.9483 441.136 91.9603 433.142C97.0664 426.466 102.831 420.367 108.843 414.597C114.938 408.746 121.362 403.141 128.362 398.361C130.75 396.713 133.221 395.064 135.856 393.663C137.174 393.251 138.409 392.839 139.645 392.427C142.28 391.52 144.998 390.531 147.386 388.965C147.469 388.965 147.551 388.965 147.551 388.883C146.975 390.201 146.151 391.438 145.327 392.674C143.68 394.899 141.868 396.96 140.057 399.103C137.915 401.658 136.021 404.378 134.127 407.097C130.256 412.702 126.715 418.471 123.173 424.323C116.667 435.12 109.914 445.834 103.82 456.878C97.9724 467.51 92.7839 478.637 89.4073 490.34C85.9483 502.291 84.1364 514.736 83.9717 527.099C83.56 551.577 89.8191 575.891 102.255 596.99C115.597 619.655 132.15 640.754 151.751 658.227C156.61 662.595 161.716 666.716 166.987 670.672C172.176 674.546 177.611 678.255 182.717 682.376C187.906 686.497 192.847 691.112 197.047 696.304C199.6 699.519 201.33 703.063 202.977 706.772C199.024 702.239 194.33 698.695 188.647 696.387C179.835 692.76 170.034 691.936 160.646 692.019C141.127 692.183 121.444 695.315 103.326 686.085C88.0072 678.255 76.9714 664.573 69.0652 649.491C60.4177 633.007 56.2176 615.452 52.0174 597.484C46.8289 575.149 40.6522 552.814 30.5223 532.209C25.4162 521.907 19.4041 512.181 12.8156 502.785C8.36836 496.439 5.73295 489.104 5.56823 481.357C5.07409 465.862 12.6509 451.109 21.7101 439.076C32.2518 424.982 46.0877 413.608 61.4884 405.202C71.9477 399.515 83.1482 395.229 94.7604 392.592C103.49 390.531 111.973 389.872 120.868 389.872C128.856 389.872 138.574 389.872 147.222 387.647ZM175.964 370.256C178.847 365.146 179.505 358.718 179.341 352.948C179.094 345.118 178.27 337.289 177.117 329.541C174.729 313.964 170.858 298.634 166.822 283.387C158.752 252.48 149.445 221.738 145.492 190.007C143.68 175.418 143.186 160.665 143.763 145.995C144.339 132.478 146.069 118.879 150.269 105.939C154.551 92.7525 161.552 80.3897 172.505 71.6533C183.623 62.7521 197.459 57.9718 211.295 55.0872C224.884 52.2849 238.885 50.9662 252.803 50.6366C259.556 50.4717 266.309 50.3893 273.063 49.6475C275.121 49.4003 277.263 49.0706 279.404 48.6585C269.192 53.5212 259.556 60.2795 250.991 66.7082C234.273 79.2358 220.19 94.813 210.224 113.275C205.201 122.506 201.165 132.313 198.365 142.533C195.565 152.918 194 163.715 191.694 174.265C189.388 184.814 187.247 195.446 187.165 206.325C187.082 213.166 188.729 219.595 187.823 226.436C187.412 229.65 186.588 234.101 189.882 236.079C191.859 237.315 194.247 237.397 196.8 236.903C197.212 237.397 197.789 237.645 198.612 237.562C207.26 235.914 215.166 229.568 222.331 224.705C229.661 219.76 235.837 213.826 242.344 207.891C248.52 202.122 255.026 196.682 260.462 190.171C266.392 183.166 270.674 174.924 275.286 167.012C279.569 159.676 283.769 152.341 288.216 145.088C292.581 138 296.864 130.418 302.793 124.566C313.911 113.522 329.312 108.494 344.466 106.022C370.243 101.819 397.75 102.56 422.952 109.648C435.223 113.11 447 118.137 457.541 125.308C468.66 132.808 477.554 142.451 484.719 153.742C491.555 164.374 498.802 175.006 508.355 183.248C497.567 179.704 486.201 177.891 475.166 175.501C461.165 172.451 447.494 168.166 433.576 164.704C419.74 161.242 405.574 158.687 391.327 159.017C376.502 159.264 361.761 162.644 348.584 169.814C321.571 184.484 305.429 211.847 293.734 239.293C284.428 261.134 277.345 283.717 267.709 305.393C263.344 299.376 255.685 295.75 248.438 298.14L248.767 297.151C256.591 274.238 265.239 251.491 275.204 229.485C284.675 208.633 296.205 188.276 313.829 173.193C322.806 165.528 332.853 159.182 343.889 154.649C354.843 150.198 366.455 147.561 378.15 146.077C389.021 144.676 399.974 144.347 410.845 145.006C421.799 145.748 432.587 147.479 443.294 149.704C443.953 149.869 444.364 148.797 443.623 148.632C440.988 148.055 438.352 147.479 435.717 146.902C414.139 142.698 392.068 142.121 370.326 145.83C358.878 147.808 347.595 151.022 337.054 156.132C326.43 161.242 316.794 168.248 308.229 176.325C291.757 191.902 281.051 212.672 271.992 233.194C262.521 254.623 254.203 276.546 246.708 298.799C246.297 299.953 241.108 302.673 240.038 304.156C238.555 305.97 237.567 308.112 236.496 310.173C234.19 314.541 231.308 319.486 231.884 324.596C232.049 325.915 236.002 332.591 235.92 332.673C235.59 333.58 235.261 334.569 234.931 335.475C231.555 345.201 227.108 354.514 220.519 362.426C216.978 363.251 213.519 364.075 209.977 364.899C211.789 363.415 213.107 361.273 214.178 359.294C215.989 355.915 217.307 352.289 218.46 348.662C221.178 340.256 223.319 331.602 224.884 322.865C226.86 311.574 228.261 300.2 230.237 288.909C232.049 278.359 234.931 268.057 239.132 258.167C243.249 248.606 248.356 239.54 253.462 230.557C253.873 229.897 252.803 229.238 252.473 229.897C251.815 231.051 251.156 232.122 250.497 233.276C245.473 242.013 240.614 250.832 236.826 260.145C234.931 264.843 233.202 269.623 231.884 274.568C230.402 280.008 229.331 285.53 228.425 291.052C226.531 302.261 225.213 313.47 223.154 324.596C221.59 333.003 219.531 341.41 216.813 349.487C215.66 353.031 214.26 356.657 212.448 359.871C211.048 362.262 209.071 365.064 206.189 365.641C206.107 365.641 206.024 365.723 205.942 365.806C202.565 366.63 199.271 367.536 195.894 368.443C201.165 362.097 203.883 354.185 205.118 346.108C207.424 330.448 204.459 314.541 205.448 298.882C205.777 294.266 206.271 289.651 207.26 285.118C208.166 280.832 209.648 276.711 211.295 272.672C214.589 264.595 218.707 256.93 221.59 248.771C221.837 248.112 220.766 247.782 220.519 248.441C217.06 257.507 212.283 265.997 208.824 275.063C205.695 283.469 204.212 292.288 203.883 301.189C203.554 309.349 204.212 317.508 204.459 325.585C205.036 340.256 204.295 355.833 195.071 368.031C194.906 368.278 194.988 368.443 195.236 368.608C193.012 369.185 190.788 369.762 188.565 370.339C189.718 364.075 192.188 358.141 193.588 351.959C195.153 345.118 194.988 338.113 194.741 331.19C194.577 323.937 194.33 316.684 194 309.431C193.341 295.502 192.353 281.491 194.741 267.727C194.906 266.986 193.671 266.903 193.506 267.645C192.024 275.392 191.694 283.304 191.859 291.134C192.024 298.14 192.435 305.063 192.765 311.986C193.094 319.321 193.341 326.657 193.506 333.91C193.588 337.536 193.671 341.245 193.424 344.871C193.177 348.086 192.518 351.217 191.694 354.349C190.212 359.707 188.318 364.981 187.576 370.586C184.776 371.328 181.976 371.987 179.176 372.729C179.917 370.916 180.576 369.02 181.153 367.124C186.506 348.745 183.459 329.047 180.494 310.503C176.87 288.002 171.105 265.997 166.905 243.579C163.034 222.727 160.563 201.215 161.634 179.951C162.128 169.649 163.611 159.347 166.411 149.457C169.293 139.237 173.493 129.429 178.6 120.198C181.235 115.5 184.035 110.885 187.494 106.681C190.706 102.725 194.412 99.1812 198.283 95.8844C206.024 89.2085 214.507 83.4392 222.248 76.8457C222.743 76.4336 222.084 75.6094 221.507 76.1039C219.531 77.7523 217.472 79.3183 215.413 80.9666C207.342 87.148 198.942 92.9173 191.777 100.088C184.2 107.588 178.682 116.654 173.988 126.132C169.376 135.445 165.752 145.253 163.446 155.391C161.222 165.199 160.234 175.336 160.069 185.391C159.657 206.985 162.458 228.578 166.658 249.678C168.881 260.969 171.517 272.178 173.905 283.387C176.211 294.184 178.27 304.981 179.917 315.86C181.4 325.503 182.717 335.228 182.635 345.036C182.635 354.597 181.153 363.992 178.023 373.058C176.211 373.471 174.399 373.883 172.587 374.377C174.07 373.058 175.058 371.74 175.964 370.256ZM73.0183 50.8014C101.843 21.3779 143.186 2.99856 184.694 8.68545C195.4 10.169 205.695 13.3833 215.495 17.9163C227.19 23.2736 238.061 30.1967 250.085 35.0594C261.121 39.51 272.815 42.4771 284.592 44.1255C283.604 44.4552 282.616 44.7848 281.628 45.0321C275.121 46.7629 268.368 47.175 261.615 47.4222C255.191 47.6695 248.685 47.7519 242.261 48.164C228.013 49.153 213.683 50.8014 200.012 54.8399C186.423 58.8784 173.329 65.3895 163.611 75.9391C154.387 85.9942 148.786 98.9339 145.492 112.121C142.198 125.225 141.045 138.825 140.798 152.341C140.551 167.506 141.539 182.589 143.763 197.589C148.539 229.155 158.093 259.65 166.081 290.475C170.117 305.887 173.823 321.464 175.799 337.289C176.705 344.377 177.529 351.794 176.87 358.965C176.376 364.899 174.564 371.41 169.54 375.036C168.223 375.366 166.905 375.613 165.587 375.861C166.164 374.212 166.74 372.481 167.152 370.833C169.128 363.498 169.293 355.833 167.893 348.415C167.07 343.8 165.587 339.432 164.187 334.981C162.54 329.953 160.893 325.008 159.081 319.981C151.916 299.376 143.927 279.101 136.433 258.661C129.433 239.54 123.421 220.172 120.95 199.897C119.715 189.43 119.385 178.88 119.55 168.33C119.715 158.44 119.879 148.55 121.609 138.742C124.656 120.775 131.656 103.879 137.421 86.7359C137.668 86.0766 136.598 85.7469 136.351 86.4063C135.609 88.6316 134.786 90.8569 134.045 92.9998C128.033 109.813 121.526 126.627 119.385 144.511C118.15 154.567 118.15 164.869 118.15 175.006C118.15 185.226 118.809 195.529 120.373 205.666C123.421 225.776 129.844 244.897 136.927 263.854C144.504 284.293 152.41 304.568 159.493 325.173C162.622 334.157 166.246 343.388 167.234 352.866C168.058 360.448 166.987 368.031 164.764 375.284C164.928 373.635 165.011 371.987 164.928 370.339C164.187 359.047 157.846 348.745 151.504 339.679C148.21 334.981 144.751 330.448 141.457 325.832C137.586 320.393 134.127 314.706 130.75 308.937C115.432 282.645 103.902 254.458 95.6664 225.199C89.0779 201.957 85.1247 177.891 88.2543 153.742C89.7367 142.039 92.8662 130.5 97.3959 119.621C102.584 107.176 109.502 95.6372 118.891 85.9942C137.586 66.7906 162.787 56.241 186.259 44.2903C186.918 43.9606 186.423 42.8892 185.765 43.2189C182.717 44.7024 179.752 46.1859 176.705 47.5871C153.151 58.9608 128.527 71.0764 111.644 91.7635C103.49 101.736 97.6429 113.522 93.278 125.638C89.3249 136.599 86.9366 148.055 85.9483 159.594C83.8894 184.732 89.1602 209.292 96.4076 233.194C105.22 262.123 117.326 289.98 133.221 315.777C139.48 325.997 147.139 335.228 153.645 345.283C159.493 354.349 164.681 364.817 163.693 375.861H163.611C163.446 375.449 163.281 375.036 163.034 374.707C163.116 374.377 163.199 374.047 163.199 373.635C163.446 371.08 162.293 368.608 160.975 366.465C159.163 363.745 156.857 361.355 154.469 359.212C149.692 354.844 144.422 351.217 139.151 347.509C131.08 341.904 123.091 336.3 115.02 330.613C105.796 324.102 96.737 317.343 88.419 309.678C79.9363 301.849 72.3595 293.112 66.1827 283.304C59.7589 273.085 54.7351 262.04 50.9467 250.667C47.5701 240.529 45.0994 230.227 44.3582 219.512C43.617 209.128 44.1935 198.743 45.7583 188.441C48.8055 167.918 55.4763 148.055 63.6297 129.099C63.8767 128.522 62.8884 128.193 62.6414 128.769C61.6531 130.995 60.6648 133.302 59.6765 135.61C51.7703 154.566 45.7583 174.429 43.5346 194.952C42.464 205.007 42.2993 215.144 43.4523 225.199C44.6876 235.996 47.7348 246.463 51.4409 256.601C55.5587 267.645 60.8295 278.277 67.5004 288.085C73.8419 297.48 81.5834 305.722 90.0661 313.222C98.3841 320.558 107.443 327.151 116.503 333.497C124.079 338.772 131.574 344.129 139.233 349.404C144.669 353.195 150.186 356.987 154.963 361.602C157.763 364.322 162.293 368.937 162.046 373.306C160.316 370.833 157.846 369.185 154.634 368.278C142.363 364.817 129.844 362.591 118.067 357.646C107.69 353.36 98.1371 347.261 89.4073 340.256C71.7006 325.997 57.2882 307.371 46.0053 287.673C35.1343 268.716 25.9927 248.359 21.3807 226.93C16.9334 206.408 16.1099 185.061 18.8276 164.292C24.1808 122.67 43.5346 80.9666 73.0183 50.8014Z" fill="#DCBF6F"/>
</svg>
