<svg xmlns="http://www.w3.org/2000/svg" width="220" height="110" fill="none"><path fill="#0A483A" d="M34 5 23 9 2 21c-2 1-2 1-1 2 2 7 3 15 7 21l1 5 3 3 5 8c6 8 13 14 22 19l18 9 19 8c10 4 20 6 31 9l21 3c7 1 15 2 22 1 2 2 5-1 7 0s4 0 7-1l7-1 12-5c5-3 8-7 10-10 3-4 3-4 8-3 2 2 5 2 7 3h2l6 2c2 1 2-1 4-1-1-1 0-2-2-2l-11-4-4-1c-5-2-5-2-4-6l2-9v-7l-4-9-8-11-13-11-25-11-9-5-28-8-22-6-24-3-21 2c-4 0-9 1-13 3Zm16-1a123 123 0 0 1 43 2l21 5c9 2 17 6 26 9l9 4c9 3 16 7 24 11 5 2 9 6 12 10l8 10 3 9 1 7-2 8-2 5-2-1V67c2-1 1-2 0-3h-1v3c-2 0-1 1-1 2l1 5-1 1 1 3h-1l-1 4-5-1h-1l-1-1h-1l-3-1-2-1-3-1-1-1-1-5 1-8v-1h1v-7c-1-2 2-4 1-7v-1l-1-2h-1v2h-1v10l-1 3 1 1-1 1c1 5 0 9-1 13h-2l-5-1-2-2-9-2c-1-1-3-2-1-4l-1-2c2-1 1-2 1-2l-1-2 1-1v-5l1-1V41l1-2-1-1c2-1 0-2 1-4h-2v5c-2 0 0 1 0 2-2 2 0 3-1 4v9c-2 0-1 1-1 2l1 1h-1v6c-2 0-1 1-1 2 1 3 0 3-3 3l-9-3-2-2-9-2V51l1-1-1-2v-7l1-1V27l-1-1c2-1 1-2 0-3h-1v3h-1v13l1 2v7l-1 3 1 2h-1v5c0 1 0 2-2 1l-3-1h-2l-14-5c-3 0-4-2-3-4l-1-4c2-1 1-2 1-3l-1-2 1-6-1-2 1-1v-9l-1-6-2-1v8l1 4v5h-1l1 7v2c-2 0 0 2 0 3v5c1 1-1 2-2 2l-12-4c-5-1-5-2-7-7l-1-5 1-1-1-3-1-2-1-4 1-1-1-3c-1-3-3-6-2-9l-1-1-1 1c-1 3 1 6 1 8l2 5-1 2 2 5 1 4-1 2 1 4c0 2 0 1-2 1l-16-5c-1 0-3-1-3-3l-2-6v-2l-1-4-1-5-1-7h-3l1 1 2 6-1 1 1 4c2 4 1 8 2 12-4 0-9-2-13-4l-6-1c-2-2-2-4-2-6l-2-5-1-4h-1v1l-1 1 3 8c0 3 0 3-3 2h-2c-2-3-7-2-10-4l-1 1 2 1 9 3h2l-1 1-2 2-9 5v1h2l10-6h2c0-2 1-2 2-1l3 1 14 4 1 1v1l-13 7-4 3-6 3v1l1 1 6-3 5-4c4-1 8-4 11-6 2-1 4-2 5-1l13 4 6 2v2l-4 2-11 7-10 7-4 2v2l1-1c4-1 6-4 9-5l20-12 5-2 5 2c4 1 9 2 13 5l-4 2-19 16-7 6v1h1l2-2 18-14 10-9 6 1 2 1 14 5c3 1 3 1 1 2l-11 11-2 1-6 6-7 5-2 2-1 1h2c2 0 2-1 2-2h2l11-10v-1l2-1 13-12h4l10 3 9 3c1 2-1 3-2 4l-10 10-5 5-9 8 1 1h1l9-8c2-2 4-3 4-5h2l9-10c2-2 4-3 8-2l1 1 9 2 1 1c2 0 3 1 3 2l-3 4-13 12-1 1-5 5v1h2l5-5h1v-2l9-8 3-3c1-2 4-2 4-4 3-1 5 0 8 1l3 1 2 1h3l1 1 3 1-1 1-5 4-9 9v1h2l5-5c1-1 4-2 4-4l5-4 3-1 2 1-2 5c-3 4-6 7-10 9-4 3-7 5-12 5l-7 2h-7c-2 0-4 2-6 1-7 1-14 0-21-1l-20-4-30-8-17-7-18-9c-8-5-15-11-21-18l-5-8-2-3-1-4c-4-6-4-13-7-20-1-1 0-1 1-3l20-11 11-4 12-3Z"/></svg>