<svg width="823" height="738" viewBox="0 0 823 738" fill="none" xmlns="http://www.w3.org/2000/svg">
<path opacity="0.3" d="M3.17321 628.107C3.70568 627.752 4.23815 627.337 4.77062 626.923C16.9582 618.101 28.9684 609.043 40.9193 599.866C52.6336 590.867 63.6972 580.921 76.0031 572.632C88.7824 564.048 103.159 558.127 116.471 550.431C128.303 543.563 138.42 535.097 147.058 524.677C165.517 502.534 176.581 474.412 199.063 455.704C210.244 446.409 222.905 438.89 234.028 429.536C245.269 420.063 255.09 409.169 264.497 397.98C272.898 387.974 280.708 377.554 288.872 367.371C296.682 357.602 305.97 347.005 318.336 342.683C321.649 341.499 327.092 340.078 328.926 344.459C330.464 348.13 329.103 352.807 327.683 356.181C324.489 363.582 318.099 368.437 312.242 373.647C301.356 383.238 291.298 393.421 279.525 402.006C268.638 409.998 257.22 417.399 247.517 426.753C237.341 436.581 230.537 448.362 224.621 461.151C218.054 475.241 212.552 489.865 206.399 504.192C200.601 517.75 194.625 531.308 190.721 545.635C184.035 570.264 183.207 596.196 187.052 621.831C188.886 634.146 191.904 646.223 195.217 658.242C198.471 669.846 201.843 681.864 201.311 693.764C201.311 693.883 201.311 694.001 201.311 694.12C201.252 694.297 201.192 694.475 201.252 694.653C201.015 698.738 200.187 702.763 198.708 706.493C197.998 708.092 197.229 709.631 196.459 711.23C195.454 713.361 199.181 715.315 200.364 713.243C201.252 711.644 201.962 710.105 202.612 708.447C208.115 696.429 212.67 683.937 219.829 672.747C227.579 660.669 238.229 651.433 247.813 640.836C257.457 630.179 265.799 618.516 274.614 607.208C283.311 596.018 290.47 584.473 295.025 570.975C299.463 557.831 302.007 544.096 305.556 530.716C309.284 516.566 314.667 503.659 322.418 491.345C329.872 479.504 338.274 468.137 343.598 455.053C348.391 443.389 350.994 430.956 353.597 418.642C356.2 406.268 358.744 393.835 363.359 382.054C365.784 375.896 368.743 369.917 372.588 364.588C374.955 361.273 379.629 354.642 384.776 356.359C390.041 358.135 391.994 366.009 392.526 370.686C393.177 376.133 392.526 381.698 391.816 387.027C390.219 398.808 389.568 410.472 389.391 422.431C389.036 450.849 390.515 479.445 393.295 507.922C395.958 535.097 399.685 562.39 408.204 588.736C416.251 613.543 427.728 637.698 443.17 659.189C459.203 681.509 480.975 698.56 498.724 719.4C503.457 724.965 507.835 730.826 511.622 737.102C512.568 738.641 515.172 738.109 514.698 736.214C508.427 710.105 512.923 683.937 514.639 657.946C516.473 630.179 517.183 602.116 515.053 574.172C513.219 550.016 509.078 525.743 500.736 502.594C496.476 490.812 491.092 479.386 484.111 468.847C476.301 457.006 466.835 446.29 459.913 433.857C446.601 409.998 437.845 384.126 430.686 358.194C429.148 352.688 427.787 346.945 427.847 341.321C427.906 336.348 430.154 327.29 437.076 329.362C442.164 330.842 445.951 336.703 448.909 340.67C453.228 346.59 456.896 352.866 460.386 359.26C473.521 383.238 487.01 407.334 504.226 428.943C513.219 440.252 523.691 450.139 533.63 460.618C543.392 470.86 552.977 481.398 563.804 490.634C586.759 510.349 612.673 526.69 632.611 549.661C642.077 560.614 649.709 572.928 657.814 584.828C661.66 590.512 666.097 595.841 669.824 601.524C672.723 606.024 674.853 610.938 676.983 615.792C678.995 620.351 680.888 625.028 683.195 629.469C683.905 630.949 685.739 630.593 686.331 629.409C687.987 625.976 687.869 621.417 687.928 617.628C688.046 612.891 687.869 608.155 687.869 603.419C687.928 588.618 692.72 575.001 695.324 560.732C700.116 534.268 695.264 505.317 683.136 480.451C676.391 466.657 667.28 454.105 658.051 441.732C648.348 428.766 638.823 415.622 627.227 404.137C615.927 392.947 602.851 383.238 588.711 376.015C574.157 368.555 557.887 366.365 543.511 358.55C530.14 351.327 522.094 340.078 513.337 328.178C509.374 322.79 505.173 317.462 500.085 312.903C497.068 310.239 493.873 307.752 490.796 305.147C483.933 299.286 476.597 292.655 472.456 284.603C467.604 275.249 472.101 267.789 481.389 264.415C491.98 260.566 504.522 262.283 515.645 263.941C527.359 265.717 538.896 267.849 550.729 268.914C567.058 270.394 583.387 271.401 599.775 272.703C615.512 274.006 631.131 276.315 646.81 278.032C672.664 280.873 698.873 280.4 723.071 271.993C736.619 267.256 748.63 259.797 761.113 253.047C767.739 249.495 774.484 246.121 781.643 243.693C788.565 241.325 795.901 240.378 803.178 239.253C809.627 238.246 816.076 237.062 822.051 234.576C822.584 234.339 822.82 233.924 822.879 233.451C823.116 233.036 822.998 232.504 822.584 232.267C822.406 232.03 822.169 231.793 821.814 231.675C810.928 227.945 799.983 224.511 788.92 221.551C778.507 218.768 767.976 216.696 757.563 214.15C737.152 209.059 717.51 201.007 698.459 191.771C680.533 183.068 662.902 173.062 643.082 170.339C633.853 169.096 624.86 169.688 615.986 171.938C607.289 174.128 598.947 177.503 590.309 179.93C581.375 182.357 571.791 181.173 562.916 183.897C554.278 186.502 546.173 191.12 538.541 195.678C531.027 200.119 524.105 205.447 516.651 209.947C512.983 212.137 509.137 214.209 505.055 215.69C501.091 217.17 494.524 220.189 491.033 216.222C485.294 209.71 486.004 196.981 488.607 189.758C491.98 180.581 499.73 173.654 506.475 166.905C513.278 160.097 519.313 152.696 526.708 146.539C534.34 140.145 543.037 135.231 551.32 129.666C559.721 124.041 567.649 117.825 574.69 110.602C582.44 102.609 588.534 93.4326 595.042 84.4927C609.478 64.4817 624.683 44.9442 641.367 26.7093C642.55 25.4068 640.479 23.0386 638.941 23.9267C627.7 30.5576 615.926 36.3004 602.615 38.0765C587.883 40.0303 573.092 36.478 558.302 36.6556C535.287 36.9516 516 46.3059 500.381 61.8767C490.915 71.2901 482.454 81.8877 475.828 93.4326C472.219 99.649 469.202 106.161 466.658 112.911C465.297 116.581 463.877 120.252 461.806 123.568C459.795 126.705 456.6 130.435 452.222 128.837C446.246 126.646 445.063 120.134 445.477 114.805C446.365 102.846 450.743 91.1828 452.932 79.5195C455.476 66.021 454.943 53.2328 449.441 40.0895C444.117 27.4197 436.307 15.4605 435.301 1.66585C435.124 -0.347093 432.461 -0.643114 432.106 1.36983C429.917 14.3356 427.906 28.2486 421.043 39.6158C418.795 43.3457 416.073 46.8388 413.174 50.1542C412.878 49.9174 412.346 50.095 412.405 50.5686C412.405 50.687 412.464 50.8054 412.464 50.9239C407.021 57.0219 400.809 62.5279 394.893 68.0339C386.018 76.3225 377.44 84.4335 371.937 95.3863C367.086 105.037 364.424 115.753 363.595 126.646C361.88 148.256 368.151 167.734 381.759 185.495C385.249 189.995 389.095 194.139 391.461 199.349C393.828 204.559 395.011 210.539 395.366 216.163C395.839 223.327 394.301 230.372 390.101 235.345C387.675 233.688 385.131 232.208 382.942 230.254C379.806 227.471 377.321 223.919 374.896 220.603C369.867 213.736 365.134 206.631 360.105 199.764C350.047 185.91 339.634 172.234 328.985 158.794C318.513 145.651 307.686 132.744 296.268 120.43C284.849 108.115 272.898 96.2744 260.474 84.9071C247.931 73.5399 234.915 62.6463 221.367 52.4632C219.888 51.3383 218.35 50.2134 216.812 49.0885C216.634 48.3189 215.51 47.9636 215.037 48.9109C214.09 50.8647 213.262 52.404 211.664 53.9433C211.369 54.2393 211.25 54.7721 211.605 55.1274C216.989 60.6334 223.615 64.9553 229.768 69.5732C238.051 75.7897 245.861 82.539 253.611 89.3475C268.402 102.372 282.779 115.812 296.209 130.139C309.461 144.289 321.885 159.209 333.422 174.72C343.598 188.396 353.301 202.369 364.365 215.334C367.914 219.538 371.464 223.741 374.659 228.241C376.316 230.491 377.854 232.859 379.214 235.286C380.161 237.003 381.167 238.898 381.463 240.792C381.049 240.911 380.575 241.029 380.102 241.147C353.005 247.364 331.47 219.715 310.112 207.105C310.053 206.75 309.875 206.454 309.461 206.217C284.908 192.6 256.451 190.113 230.123 196.27C216.457 199.468 204.506 205.921 191.549 210.716C183.68 213.617 175.871 214.92 167.41 212.788C160.547 211.072 153.921 208.289 146.821 208.052C144.692 207.993 143.686 210.598 145.52 211.9C156.998 220.248 167.529 229.603 181.136 234.161C194.507 238.661 208.588 239.371 222.255 242.095C225.686 242.746 229.058 243.634 232.371 244.759C235.152 245.765 240.773 247.541 241.601 250.857C242.843 255.948 234.206 258.198 230.774 258.672C225.213 259.441 219.474 259.027 213.853 258.731C188.058 257.429 162.026 255.771 136.35 257.133C110.614 258.553 84.4634 263.29 62.9872 277.025C50.7996 284.781 40.9193 295.023 32.104 306.213C27.2526 312.311 22.0463 319.179 15.6566 324.329C10.8053 326.638 6.07221 329.066 1.33915 331.552C-0.0807643 332.322 0.570031 334.927 2.34493 334.453C7.90627 333.151 12.7577 330.427 17.0766 327.053C22.6379 324.448 28.2584 322.02 34.0564 319.948C46.3032 315.686 58.6091 314.442 71.7434 314.442C97.361 314.501 121.736 311.364 146.112 304.614C166.582 298.99 187.112 292.3 208.765 291.471C219.474 291.057 230.182 292.3 240.654 295.201C244.973 296.385 249.292 297.806 253.493 299.523C257.279 301.062 262.486 303.075 265.03 306.509C271.597 315.33 253.67 325.336 247.754 328.178C237.341 333.21 225.982 335.993 214.682 338.835C192.436 344.459 170.132 351.327 150.785 363.286C141.319 369.147 132.741 376.311 126.114 385.132C118.246 395.552 112.093 407.215 103.514 417.162C95.0537 426.931 84.0493 434.213 75.7665 444.159C67.8978 453.572 62.5731 464.88 58.3725 476.425C48.3147 503.837 42.1026 532.669 33.4648 560.555C29.6783 572.692 25.4186 584.651 20.4489 596.314C15.9525 606.912 10.5686 618.397 0.806684 625.147C-1.32319 626.508 1.22083 629.409 3.17321 628.107ZM20.9222 604.899C21.8688 603.004 22.7562 601.05 23.6437 599.156C30.5066 585.539 37.0737 571.804 43.8183 558.127C51.7462 541.965 60.0882 526.039 68.1936 509.935C83.931 478.675 99.7276 446.586 124.99 421.721C137.06 409.82 151.081 399.993 165.399 390.816C172.557 386.257 179.894 381.935 186.993 377.376C194.211 372.759 201.192 367.726 208.292 362.871C215.392 358.076 222.669 353.576 230.36 349.728C237.755 346.057 245.328 342.801 252.842 339.367C268.047 332.381 282.246 323.619 296.8 315.449C311.354 307.338 324.844 297.747 338.629 288.452C351.349 279.867 364.069 270.927 374.896 260.152C369.098 267.671 362.945 274.894 356.496 281.821C346.379 292.655 335.434 302.128 323.187 310.653C308.929 320.6 293.901 329.48 278.637 337.887C263.905 345.939 248.582 353.044 234.679 362.339C220.42 371.871 206.576 382.172 192.969 392.533C178.829 403.308 166.05 415.386 152.974 427.345C140.195 439.067 127.416 450.79 115.82 463.637C103.691 477.017 93.1604 491.818 82.5111 506.324C62.8689 533.025 46.4807 561.739 29.7375 590.275C28.4951 592.051 27.371 593.887 26.2469 595.781C25.1228 597.794 24.0578 599.748 22.9337 601.761C22.1054 603.182 21.2771 604.544 20.3897 605.905C20.5672 605.609 20.7447 605.254 20.9222 604.899ZM25.5369 318.587C27.9034 317.343 30.27 316.278 32.6365 315.094C38.3162 312.252 43.7592 309.055 49.6755 306.568C61.6265 301.477 74.2874 297.865 87.0666 294.905C99.8459 291.945 112.921 289.813 125.523 286.32C131.735 284.603 137.71 282.235 143.804 280.222C149.602 278.328 155.518 276.729 161.553 275.486C173.622 272.999 185.988 271.934 198.471 272.17C212.966 272.407 227.461 273.295 241.956 273.71C249.115 273.947 256.273 274.065 263.432 274.124C270.236 274.124 276.862 273.591 283.548 272.703C290.115 271.815 296.682 270.868 303.367 270.513C309.816 270.157 316.324 270.039 322.773 269.802C333.245 269.388 343.717 268.5 353.36 264.888C342.947 271.105 332.121 277.025 320.229 280.341C309.402 283.301 298.102 284.248 286.742 284.248C280.471 284.248 274.2 283.952 267.929 283.952C260.947 283.952 253.907 284.13 246.926 284.13C233.377 284.011 219.947 281.88 206.399 281.169C193.028 280.518 180.012 282.472 167.114 285.018C154.217 287.623 141.497 290.879 128.718 293.898C115.879 296.918 102.982 299.345 89.8473 301.181C76.7722 302.957 63.8747 305.266 51.4504 309.41C42.6942 312.311 33.7014 314.916 25.3594 318.823C25.4777 318.705 25.4777 318.646 25.5369 318.587ZM36.8962 305.147C37.7837 304.555 38.612 304.022 39.4994 303.549C43.8775 300.944 48.6105 298.872 53.0478 296.267C63.993 289.873 74.8198 283.123 86.83 278.742C109.785 270.394 134.811 269.329 159.187 266.96C165.695 266.309 172.202 265.54 178.77 264.948C185.573 264.355 192.318 263.941 199.122 263.527C212.374 262.816 225.686 262.639 238.82 261.395C263.018 259.027 286.447 252.159 310.999 252.1C323.719 252.041 336.499 253.107 349.219 252.692C355.076 252.515 361.229 252.337 366.909 250.975C368.743 250.561 370.518 249.969 372.292 249.377C373.535 249.318 374.718 249.199 375.901 249.022C370.991 251.567 366.317 254.705 361.525 257.429C356.318 260.389 350.875 262.935 344.9 264.237C338.747 265.599 332.416 266.309 326.027 266.724C319.637 267.138 313.248 267.316 306.917 267.671C300.409 268.026 294.02 268.737 287.571 269.684C280.944 270.69 274.318 271.697 267.574 271.815C260.356 271.934 253.079 271.756 245.801 271.578C231.484 271.164 217.107 270.453 202.731 269.98C190.366 269.565 178.06 269.98 165.931 271.993C159.956 272.999 154.039 274.361 148.241 276.019C142.266 277.736 136.527 280.045 130.611 281.998C118.246 286.024 105.348 288.274 92.628 291.116C80.0262 293.898 67.5428 297.332 55.5326 301.891C49.5572 304.2 43.7 306.805 38.0795 309.884C35.4172 311.364 32.7548 312.903 30.0333 314.324C29.4417 314.62 28.85 314.916 28.2584 315.212C31.2757 311.956 34.0564 308.522 36.8962 305.147ZM200.956 212.137C204.269 211.486 207.582 210.894 210.836 210.124C214.445 209.236 217.995 208.23 221.545 207.105C228.762 204.855 235.98 202.428 243.494 201.244C250.771 200.119 258.226 200.356 265.562 201.658C272.898 202.961 279.998 205.329 287.097 207.697C295.084 210.361 303.131 212.729 310.94 215.926C314.786 217.525 318.631 219.301 322.24 221.432C324.666 222.853 326.973 224.511 329.34 225.991C333.481 228.596 337.682 231.023 341.942 233.273C345.373 235.582 348.864 237.714 352.532 239.43C346.379 237.891 340.463 235.345 334.665 232.859C327.979 229.958 321.412 226.82 314.727 224.097C308.337 221.492 301.77 219.301 295.084 217.643C282.305 214.387 269.171 212.729 256.155 212.256C242.429 211.782 228.822 212.67 215.214 213.617C206.754 214.209 198.293 214.861 189.833 215.334C191.904 214.683 193.915 213.913 195.868 213.144C197.583 212.788 199.299 212.492 200.956 212.137ZM396.549 232.208C399.271 226.405 400.632 219.893 401.46 213.499C402.347 206.927 401.992 200.296 400.632 193.665C398.857 185.258 395.839 177.147 393.295 168.918C390.692 160.57 388.799 152.222 388.799 143.638C388.858 134.343 390.16 125.166 392.112 116.167C394.124 106.931 396.786 97.9321 399.862 89.0514C402.998 79.934 406.134 70.6981 410.689 62.2319C412.701 58.502 414.831 54.9497 416.961 51.3383C419.386 48.4373 421.634 45.3587 423.587 42.1616C425.717 38.6686 427.373 34.9979 428.734 31.1496C427.137 38.1357 425.658 45.181 423.883 52.1671C419.682 68.8628 414.357 85.2032 410.039 101.899C407.968 109.832 406.134 117.825 404.95 125.995C403.826 133.691 403.294 141.506 403.116 149.321C402.998 157.255 403.235 165.188 403.767 173.122C404.241 180.641 406.134 188.1 406.548 195.619C406.962 203.789 404.714 211.427 402.17 219.005C400.277 224.57 398.679 230.609 395.011 235.286C395.603 234.22 396.135 233.214 396.549 232.208ZM438.141 27.5381C438.555 30.2023 439.029 32.8665 439.738 35.5307C440.567 38.6686 441.336 41.8656 441.927 45.0626C443.17 51.5159 443.643 58.0284 443.052 64.4817C442.401 71.2309 441.099 77.921 439.62 84.4927C438.141 91.0644 436.484 97.6361 435.124 104.267C433.822 110.72 432.816 117.233 431.751 123.686C429.622 136.711 427.314 149.736 422.818 162.05C421.694 165.247 420.274 168.326 419.09 171.464C417.966 174.602 416.961 177.799 416.073 181.055C414.357 187.449 412.938 193.902 411.458 200.356C411.103 201.954 410.689 203.612 410.334 205.21C410.334 205.329 410.334 205.388 410.393 205.506C410.275 205.862 410.157 206.276 410.039 206.69C411.044 200.592 411.813 194.435 412.346 188.278C413.115 179.279 413.47 170.221 414.18 161.222C414.89 152.341 415.777 143.401 417.907 134.757C420.037 126.173 423.173 117.943 426.308 109.714C429.503 101.544 432.816 93.3142 435.124 84.7887C437.313 76.5593 438.437 67.9747 438.614 59.3901C438.733 55.0682 438.614 50.7462 438.259 46.4243C437.904 41.984 437.194 37.5437 436.662 33.1034C436.13 28.7222 435.893 24.4003 435.538 20.0784C435.42 18.4207 435.183 16.7038 434.946 15.046C435.479 16.5261 436.011 18.0063 436.603 19.4272C437.313 22.0321 437.727 24.8147 438.141 27.5381ZM619.476 46.0099C617.228 48.3781 614.743 50.5094 612.199 52.5816C608.472 55.6602 604.685 58.6796 601.195 61.9951C597.586 65.3697 594.509 69.218 591.255 72.8887C584.452 80.526 577.352 87.9858 570.075 95.1495C562.857 102.313 555.462 109.359 547.652 115.93C540.02 122.324 531.796 128.008 524.342 134.639C516.887 141.21 510.261 148.552 503.635 155.893C490.027 170.813 475.236 184.666 459.44 197.395C451.571 203.73 443.407 209.651 435.183 215.512C431.041 218.472 426.9 221.432 422.759 224.393C420.747 225.813 418.676 227.175 416.665 228.655C415.304 229.662 414.062 230.787 412.701 231.793C411.932 232.385 411.163 232.918 410.275 233.273C415.896 228.596 420.747 223.09 425.894 217.939C434.118 209.71 443.229 202.309 451.985 194.613C461.156 186.502 470.089 178.154 477.899 168.74C492.867 150.683 502.156 128.6 517.775 110.957C525.821 101.899 535.879 95.3863 546.232 89.0514C556.704 82.6574 567.531 76.7962 578.24 70.8165C588.771 64.9553 599.361 59.0941 609.3 52.2856C614.329 48.8517 618.293 44.2338 622.908 40.2671C623.44 39.7934 624.032 39.3198 624.624 38.9054C623.973 39.9711 623.322 41.0367 622.671 42.0432C622.612 42.1616 622.494 42.28 622.434 42.3392C621.429 43.5825 620.482 44.7666 619.476 46.0099ZM417.73 236.589C424.711 236.352 431.692 236.056 438.673 235.641C453.701 234.812 468.728 233.747 483.401 230.727C497.127 227.945 510.438 223.8 523.514 219.301C536.47 214.861 549.131 209.887 562.325 206.098C586.759 199.053 612.377 195.382 638.29 196.863C652.312 197.691 666.097 200.178 679.882 203.197C695.205 206.513 710.351 210.48 725.615 214.269C740.347 217.939 755.078 221.018 769.928 223.978C774.188 224.807 778.389 225.813 782.648 226.761C780.637 226.524 778.566 226.346 776.555 226.169C762.474 224.985 748.334 225.34 734.253 224.866C705.204 223.86 676.214 221.077 647.283 217.939C633.025 216.4 618.707 214.979 604.39 214.565C597.468 214.387 590.486 214.209 583.683 214.861C577.115 215.453 570.726 216.814 564.395 218.472C551.439 221.847 538.659 225.577 525.643 228.655C512.332 231.793 498.842 234.576 485.235 236.529C471.627 238.483 457.902 239.43 444.057 239.371C430.805 239.312 417.493 238.661 404.359 239.845C402.406 240.022 400.395 240.259 398.443 240.555C400.277 239.845 402.051 238.957 403.767 237.95C408.323 237.062 413.056 236.766 417.73 236.589ZM780.341 235.345C773.774 235.523 767.266 235.878 760.817 236.766C745.671 238.838 730.703 241.562 715.794 244.522C708.754 245.884 701.713 247.245 694.614 248.133C687.81 248.962 681.006 249.436 674.143 249.673C660.121 250.206 646.041 249.673 631.96 248.903C617.761 248.133 603.443 246.89 589.244 246.949C574.512 247.009 559.84 248.548 545.049 247.245C530.909 245.943 516.946 243.752 502.806 244.285C488.844 244.818 475.059 246.831 461.037 247.364C449.796 247.778 438.437 247.423 427.196 246.772C427.078 246.772 426.959 246.772 426.841 246.772C423.824 246.417 420.806 246.002 417.789 245.469C411.636 244.463 405.424 244.226 399.212 243.456C398.324 243.22 397.496 243.042 396.608 242.805C406.725 242.805 416.961 244.285 427.018 245.292C441.158 246.713 455.239 246.535 469.261 245.351C483.697 244.108 497.955 241.799 512.154 239.49C519.49 238.306 526.768 236.944 534.163 236.056C541.736 235.109 549.427 234.457 557.059 233.865C564.632 233.332 572.205 232.8 579.719 232.208C587.173 231.556 594.628 230.727 602.141 230.135C617.406 228.892 632.788 228.418 648.17 229.899C663.612 231.379 678.935 234.635 694.318 236.825C708.517 238.838 722.775 239.134 736.915 238.246C751.529 237.358 765.905 234.694 780.519 233.628C786.612 233.214 792.647 233.273 798.741 234.102C799.747 234.22 800.752 234.398 801.758 234.516C794.599 234.516 787.381 234.457 780.341 235.345ZM772.827 236.707C772.295 236.825 771.703 237.003 771.171 237.121C758.273 240.733 746.204 246.298 733.839 251.153C721.296 256.067 708.339 259.501 695.146 262.698C688.816 264.237 682.426 265.599 675.918 266.546C669.114 267.493 662.251 267.73 655.27 267.493C641.189 267.02 627.049 265.244 613.087 262.461C598.888 259.619 584.747 257.014 570.43 255.475C556.112 253.936 541.736 253.107 527.418 252.396C512.982 251.686 498.547 252.1 484.111 251.804C469.32 251.567 454.588 250.087 439.798 248.252C439.738 248.252 439.679 248.252 439.62 248.252C443.229 248.311 446.897 248.37 450.506 248.429C463.877 248.548 477.011 247.186 490.264 246.061C497.363 245.469 504.463 245.055 511.622 245.232C518.958 245.41 526.235 246.298 533.571 247.186C540.789 248.074 548.066 248.903 555.343 249.081C562.739 249.258 570.134 248.726 577.53 248.489C592.202 247.956 606.756 248.726 621.429 249.554C649.235 251.094 677.338 252.455 704.671 247.778C719.758 245.173 734.667 241.917 749.754 239.49C757.149 238.306 764.544 237.121 772.058 236.648C772.236 236.766 772.531 236.707 772.827 236.707ZM548.717 375.364C563.626 385.251 577.944 395.848 592.675 406.031C607.052 415.978 621.015 426.575 633.084 439.304C644.266 451.027 653.85 464.288 660.713 478.793C667.576 493.239 671.481 508.751 675.09 524.085C678.758 539.774 682.13 555.641 683.136 571.626C683.609 579.204 683.609 586.782 682.84 594.301C682.308 599.156 681.539 604.011 681.065 608.925C680.947 607.741 680.828 606.497 680.71 605.313C679.941 597.084 678.64 588.914 677.22 580.743C674.439 565.35 671.777 549.78 666.866 534.801C662.31 520.888 656.098 507.448 648.525 494.719C640.716 481.635 631.486 468.492 620.186 458.013C613.856 452.092 606.934 446.882 600.13 441.495C592.971 435.811 586.227 429.772 579.541 423.556C566.289 411.301 553.746 398.335 540.73 385.902C515.231 361.51 486.773 340.433 461.037 316.337C448.08 304.2 436.662 290.938 425.362 277.38C419.919 270.868 414.535 264.237 408.678 258.021C415.718 263.29 422.995 268.263 430.154 273.414C437.372 278.624 444.471 284.011 450.92 290.169C457.192 296.089 463.049 302.424 468.847 308.759C474.586 314.975 480.265 321.251 486.3 327.112C492.394 333.032 498.961 338.598 505.469 344.104C512.273 349.846 519.254 355.471 526.472 360.681C533.63 365.891 541.263 370.45 548.717 375.364ZM507.835 717.328C508.19 718.69 508.604 720.11 508.9 721.472C509.019 722.597 509.137 723.663 509.314 724.788C506.238 719.696 504.522 713.953 502.747 708.329C500.322 700.573 498.428 692.699 496.772 684.825C493.281 668.603 490.027 652.44 484.821 636.514C482.218 628.581 479.141 620.766 476.183 612.891C473.166 604.84 470.444 596.669 467.9 588.499C462.93 572.455 458.197 556.174 454.707 539.833C452.991 531.781 451.571 523.73 450.506 515.619C449.5 507.508 448.79 499.397 447.311 491.345C444.412 475.36 439.798 459.73 435.42 444.041C430.923 427.819 425.776 411.774 421.102 395.611C416.428 379.449 413.056 363.108 410.571 346.59C408.086 330.131 406.666 313.673 404.891 297.155C404.3 291.353 403.531 285.61 402.584 279.808V279.867C404.418 286.676 406.075 293.484 407.554 300.352C410.571 314.324 412.938 328.355 415.837 342.328C417.493 350.32 419.445 358.313 421.753 366.187C424.06 374.002 426.841 381.698 429.622 389.336C435.479 405.38 441.454 421.365 446.365 437.706C448.79 445.758 451.157 453.809 453.819 461.802C456.245 469.143 459.026 476.366 461.984 483.53C468.078 498.449 474.704 513.25 479.555 528.584C484.229 543.504 486.655 558.838 488.134 574.231C489.672 589.92 490.264 605.609 492.157 621.239C493.163 629.35 494.405 637.402 495.648 645.513C496.89 653.683 497.955 661.913 499.375 670.023C500.795 678.194 502.392 686.305 503.753 694.475C505.055 702.053 505.824 709.75 507.835 717.328ZM394.715 369.858C394.301 366.66 393.414 363.523 391.816 360.622C389.391 353.517 387.083 346.472 385.841 339.131C383.001 322.731 383.711 305.976 385.308 289.695C386.137 281.347 387.202 272.94 388.681 264.711C389.213 261.869 390.041 259.086 390.692 256.244C390.929 259.145 391.165 262.106 391.343 265.007C391.875 272.94 391.047 280.755 390.633 288.629C389.746 304.2 391.225 320.126 393.118 335.697C395.07 351.563 397.969 367.43 401.697 383.06C405.601 399.519 410.453 415.8 414.772 432.141C423.646 466.065 431.633 500.166 439.857 534.209C443.702 550.194 446.01 566.357 448.258 582.519C450.506 598.505 452.636 614.667 457.369 630.297C461.866 645.158 468.492 659.426 476.183 673.102C484.466 687.844 493.873 701.994 501.801 716.913C502.392 718.038 502.984 719.163 503.576 720.288C502.451 718.926 501.268 717.565 500.085 716.203C498.783 714.427 497.6 712.532 496.417 710.638C494.228 707.263 491.743 704.066 489.258 700.869C483.756 693.942 478.431 686.897 473.225 679.733C462.753 665.287 452.932 650.427 445.063 634.56C437.49 619.345 431.633 603.478 426.308 587.493C421.043 571.804 415.6 555.818 412.464 539.656C409.21 522.605 410.334 505.376 409.506 488.266C408.678 471.215 406.903 454.224 404.773 437.232C402.643 420.181 400.099 403.19 397.673 386.198C397.082 382.054 396.608 377.85 395.78 373.706C395.425 372.463 395.07 371.16 394.715 369.858ZM211.428 679.496C209.534 682.93 207.76 686.482 206.103 690.153C205.985 690.449 205.866 690.686 205.748 690.982C205.748 690.923 205.748 690.863 205.748 690.804C207.7 686.305 207.937 681.095 208.529 676.181C209.475 668.247 211.842 660.61 214.977 653.387C218.231 645.927 221.9 638.645 225.213 631.185C228.585 623.548 231.78 615.792 234.856 608.037C241.068 592.466 246.866 576.777 253.079 561.206C259.291 545.517 265.444 529.472 274.259 515.027C278.46 508.1 283.252 501.587 288.399 495.371C293.665 488.917 299.285 482.879 303.781 475.893C312.656 462.098 318.868 446.764 327.506 432.851C331.825 425.924 336.321 419.175 340.344 412.011C344.308 405.025 347.503 397.624 350.284 390.046C355.786 374.949 359.454 359.26 362.885 343.512C364.601 335.578 366.199 327.645 368.151 319.83C369.512 314.265 371.227 308.759 373.121 303.371C373.062 303.726 373.002 304.022 372.943 304.378C371.464 312.429 370.695 320.6 369.808 328.77C368.033 344.992 364.838 360.918 359.868 376.311C357.206 384.422 354.188 392.296 349.929 399.697C345.787 406.919 340.936 413.728 336.676 420.892C332.476 428.055 329.577 435.693 326.382 443.33C323.069 451.264 319.578 459.078 316.087 466.893C309.047 482.701 302.657 498.745 296.268 514.908C293.132 522.901 289.937 530.834 286.624 538.708C283.311 546.701 280.353 555.108 275.916 562.508C271.656 569.672 265.266 574.941 260.651 581.809C255.978 588.795 252.369 596.432 248.346 603.774C240.299 618.397 231.957 632.902 224.444 647.822C220.835 655.045 217.403 662.386 214.386 669.846C213.143 673.043 212.315 676.299 211.428 679.496ZM362.945 296.799C360.164 299.108 357.028 300.944 354.248 303.253C351.289 305.68 348.686 308.581 345.965 311.304C340.581 316.633 334.901 321.428 328.452 325.514C315.555 333.684 302.125 341.203 289.76 350.083C277.276 359.082 266.509 370.035 255.859 381.047C244.973 392.237 234.265 403.663 222.905 414.379C211.428 425.154 198.708 434.449 186.579 444.514C174.392 454.638 162.736 465.354 151.91 476.899C141.023 488.444 130.137 500.048 119.429 511.711C108.365 523.848 97.8935 536.518 86.6525 548.477C75.7073 560.14 64.0521 571.093 52.3378 581.927C46.4807 587.374 40.6827 592.88 34.7072 598.209C29.7375 602.708 24.472 606.852 19.6206 611.411C19.0881 611.766 18.5556 612.181 18.0823 612.536C19.3248 610.938 20.508 609.28 21.573 607.681C25.1228 602.353 27.9626 596.61 31.749 591.459C43.1084 575.889 57.84 563.16 70.8559 549.01C95.8228 521.894 111.442 487.793 136.35 460.618C149.247 446.527 165.162 435.634 180.781 424.562C196.578 413.373 212.729 402.538 229.058 392.059C236.868 387.027 244.796 382.113 252.369 376.784C259.942 371.397 266.804 365.476 273.431 359.023C286.21 346.59 298.575 333.684 314.608 325.217C329.636 317.284 345.432 310.061 356.141 296.563C361.998 289.162 366.199 280.696 370.754 272.526C373.002 268.441 375.369 264.355 378.031 260.448C380.398 257.014 382.942 253.639 385.013 250.028C385.367 249.377 385.722 248.726 386.018 248.133C386.196 248.015 386.373 247.897 386.492 247.778C386.669 247.66 386.787 247.541 386.965 247.423C386.965 247.482 386.965 247.601 386.906 247.66C385.012 253.284 381.877 258.435 379.155 263.586C377.617 266.546 376.197 269.565 374.955 272.644C373.535 276.196 371.997 279.808 370.399 283.301C368.151 287.978 365.725 292.478 362.945 296.799ZM32.5182 601.82C32.104 602.116 31.749 602.412 31.3349 602.708C31.749 602.353 32.104 602.057 32.459 601.702C32.5182 601.702 32.5182 601.761 32.5182 601.82ZM181.609 217.88C182.083 217.643 182.556 217.406 183.089 217.17C183.68 217.051 184.272 216.933 184.863 216.814C186.224 216.755 187.585 216.696 188.946 216.637C195.868 216.341 202.79 215.867 209.712 215.453C223.497 214.505 237.341 213.558 251.185 213.677C264.32 213.854 277.572 215.157 290.47 218.117C296.978 219.597 303.426 221.492 309.698 223.8C316.501 226.346 323.128 229.366 329.754 232.326C336.262 235.227 342.888 238.187 349.751 240.259C353.124 241.266 356.555 241.917 359.986 242.45C362.471 243.22 365.015 243.812 367.618 244.167C360.282 243.989 352.887 242.154 345.728 240.437C330.405 236.825 315.259 232.267 299.995 228.418C284.79 224.57 269.289 221.373 253.67 220.722C245.683 220.367 237.814 221.077 229.946 221.847C222.136 222.616 214.327 223.09 206.458 222.794C198.175 222.498 189.892 221.432 181.728 219.656C179.361 219.123 177.054 218.591 174.746 217.998C176.876 218.058 178.947 217.939 181.018 217.643C181.018 217.762 181.314 218.058 181.609 217.88ZM432.58 17.5918C432.461 18.0062 432.284 18.4207 432.166 18.8943C432.047 19.1903 431.988 19.4864 431.87 19.7824C432.106 18.8943 432.343 18.0655 432.521 17.1774C432.58 17.2958 432.58 17.4734 432.58 17.5918ZM432.58 21.9137C432.639 21.6769 432.757 21.4401 432.816 21.2033C432.876 22.4466 432.876 23.6899 432.935 24.9332C433.467 33.6954 435.124 42.4576 435.42 51.2199C435.715 59.8045 435.242 68.4483 433.585 76.8553C431.988 85.3216 429.03 93.3734 425.953 101.366C422.818 109.536 419.564 117.647 416.961 125.995C414.357 134.402 412.701 143.046 411.754 151.867C410.039 167.912 409.92 184.134 407.968 200.119C408.264 193.547 406.903 186.916 405.897 180.404C404.714 172.47 404.477 164.359 404.418 156.426C404.3 148.433 404.596 140.441 405.424 132.507C406.311 124.219 407.849 116.108 409.802 108.056C413.943 91.0052 419.268 74.3688 423.824 57.4955C426.131 48.9109 428.083 40.2671 430.036 31.6232C430.864 28.3078 431.456 25.0516 432.58 21.9137ZM402.584 225.873C401.815 226.879 400.987 227.886 400.158 228.892C400.454 228.241 400.691 227.59 400.927 226.938C403.235 220.781 405.542 214.446 406.903 207.934C406.075 213.854 404.95 220.248 402.584 225.873ZM805.071 231.971C799.747 231.26 794.54 230.372 789.216 230.372C774.602 230.372 760.344 233.392 745.908 234.753C731.709 236.115 717.391 236.47 703.074 235.109C687.81 233.628 672.664 230.254 657.4 228.3C642.372 226.346 627.345 226.169 612.377 227.116C597.172 228.063 582.026 229.899 566.821 230.905C551.734 231.911 536.707 232.977 521.857 235.227C507.599 237.417 493.34 239.963 478.964 241.621C464.528 243.338 449.855 244.226 435.183 243.279C425.421 242.687 415.6 241.029 405.838 240.615C415.541 239.963 425.362 240.2 435.065 240.378C448.554 240.615 461.925 240.378 475.236 238.957C502.451 235.997 529.193 229.662 555.225 222.38C561.496 220.663 567.708 218.887 574.157 217.643C580.961 216.341 587.824 215.867 594.864 215.867C609.123 215.808 623.44 216.933 637.758 218.354C666.689 221.255 695.56 224.511 724.55 225.932C731.827 226.287 739.104 226.524 746.322 226.642C753.363 226.761 760.403 226.702 767.443 227.057C780.637 227.708 793.771 229.366 806.728 232.208C806.195 232.148 805.663 232.089 805.071 231.971ZM396.549 262.994C398.798 270.75 400.277 278.742 401.342 286.676C403.59 302.957 404.536 319.356 406.666 335.697C408.796 352.392 411.577 369.147 415.777 385.606C419.919 401.946 425.421 417.991 430.036 434.213C434.473 449.961 439.088 465.709 442.637 481.635C444.412 489.687 445.891 497.798 446.779 505.968C447.666 514.079 448.613 522.131 449.974 530.183C452.873 546.76 457.31 563.101 462.043 579.323C464.409 587.433 466.894 595.544 469.675 603.537C472.397 611.47 475.532 619.226 478.609 627.041C481.744 635.034 484.584 643.204 486.892 651.433C489.14 659.485 490.855 667.715 492.63 675.885C494.287 683.818 495.944 691.692 498.073 699.566C500.026 706.967 502.156 714.604 505.35 721.65C505.765 722.597 506.238 723.544 506.77 724.432C506.534 724.136 506.297 723.781 506.06 723.485C499.552 709.631 491.329 696.547 483.46 683.344C475.177 669.431 467.486 655.222 461.925 640.125C450.506 609.221 449.915 576.185 443.466 544.392C440.034 527.519 435.597 510.705 431.515 493.95C427.433 476.899 423.291 459.907 418.913 442.916C414.653 426.22 409.861 409.584 405.542 392.888C401.46 377.258 398.206 361.51 395.839 345.643C393.473 329.776 391.816 313.613 391.698 297.688C391.639 289.813 392.585 281.998 392.822 274.124C393.059 266.724 392.408 259.205 391.639 251.804C391.58 251.212 391.461 250.561 391.402 249.969C391.402 249.91 391.402 249.85 391.402 249.791C393.295 254.113 395.248 258.435 396.549 262.994ZM36.4229 581.395C39.7952 575.593 43.1675 569.85 46.599 564.048C55.8285 548.359 65.2354 532.788 75.7665 517.928C86.12 503.245 96.7694 488.621 108.129 474.649C119.488 460.677 132.445 448.126 145.697 435.87C158.595 423.911 171.256 411.537 184.923 400.525C198.471 389.632 212.729 379.508 226.928 369.384C234.028 364.292 241.246 359.438 248.878 355.116C256.096 351.031 263.669 347.419 271.064 343.512C286.151 335.46 301.001 326.994 315.318 317.639C328.097 309.292 340.285 300.411 350.994 289.695C357.324 283.419 363.3 276.788 368.979 269.921C366.258 274.775 363.655 279.749 360.815 284.544C356.141 292.418 350.698 299.582 343.421 305.325C336.617 310.712 328.926 314.798 321.235 318.823C313.484 322.849 305.852 326.875 298.871 332.144C291.949 337.354 285.677 343.334 279.465 349.432C273.135 355.648 266.982 362.043 260.119 367.726C252.96 373.647 245.269 378.857 237.519 383.889C221.722 394.191 205.866 404.433 190.306 415.09C182.319 420.596 174.332 426.161 166.464 431.785C158.832 437.232 151.081 442.56 144.1 448.777C116.767 473.169 100.733 506.738 78.4288 535.156C66.8328 549.898 52.8703 562.449 40.5644 576.599C39.1444 578.198 37.7837 579.796 36.4229 581.395ZM384.776 262.283C383.238 269.98 380.398 277.262 377.558 284.544C374.659 292.181 371.642 299.819 369.098 307.575C366.554 315.33 364.66 323.264 362.885 331.256C359.395 346.827 356.141 362.457 351.467 377.673C349.1 385.369 346.379 393.006 343.125 400.348C339.693 408.044 335.315 415.208 330.878 422.253C326.441 429.299 321.945 436.285 317.981 443.626C314.135 450.79 310.644 458.19 306.74 465.354C302.894 472.399 298.516 479.208 293.25 485.306C287.867 491.522 282.601 497.798 277.868 504.488C268.402 517.809 261.835 532.669 255.563 547.707C249.115 563.16 243.257 578.908 237.223 594.538C231.247 609.99 225.035 625.324 218.054 640.362C214.741 647.526 211.487 654.749 209.179 662.386C207.582 667.596 206.872 672.806 206.221 678.135C206.635 666.59 205.926 654.926 207.405 643.441C209.298 628.699 213.735 614.549 218.409 600.577C223.142 586.249 227.402 571.744 231.898 557.358C236.75 541.787 241.897 525.802 249.588 511.474C253.256 504.607 258.344 498.627 262.959 492.351C267.751 485.898 272.188 479.149 276.98 472.695C286.328 459.848 296.327 447.534 305.734 434.746C315.141 421.957 324.252 408.873 331.825 394.901C339.161 381.402 344.604 367.075 349.278 352.451C354.07 337.532 358.507 322.553 364.305 307.989C370.281 292.892 376.197 277.795 382.705 262.875C383.711 260.566 384.717 258.317 385.722 256.067C385.486 258.139 385.19 260.211 384.776 262.283ZM388.266 253.107C388.385 252.041 388.503 250.916 388.562 249.791C388.681 249.022 388.799 248.193 388.976 247.423C389.095 246.89 389.213 246.357 389.331 245.825C389.746 247.423 390.041 248.962 390.219 250.62C390.16 251.094 390.16 251.508 390.101 251.982C389.805 254.764 389.036 257.488 388.326 260.211C388.207 260.566 388.148 260.922 388.089 261.277C388.148 260.507 388.148 259.678 388.148 258.909C388.148 256.955 388.148 255.001 388.266 253.107ZM394.064 250.679C393.828 250.146 393.591 249.614 393.295 249.081C393.414 249.318 393.591 249.614 393.709 249.85C393.946 250.383 394.124 250.916 394.36 251.449C394.301 251.212 394.183 250.916 394.064 250.679ZM396.313 252.278C395.78 251.271 395.248 250.265 394.715 249.318C401.874 259.027 406.43 270.276 412.287 280.755C419.8 294.313 430.686 305.68 441.868 316.455C453.76 327.882 466.421 338.538 478.49 349.787C490.974 361.391 502.096 374.179 514.462 385.961C526.886 397.802 539.547 409.406 551.675 421.602C563.804 433.739 575.755 446.054 588.356 457.717C600.485 469.025 613.383 479.563 624.683 491.7C635.865 503.719 645.39 516.803 652.43 531.426C655.743 538.294 658.583 545.339 661.423 552.444C664.381 559.903 667.753 567.245 670.297 574.823C672.723 582.046 674.084 589.506 676.036 596.847C676.805 599.689 677.752 602.412 678.639 605.195C678.699 606.083 678.758 607.03 678.817 607.918C678.521 607.148 678.284 606.438 678.048 605.846C676.45 601.406 674.439 597.084 672.487 592.821C669.883 587.197 667.339 581.572 664.322 576.125C660.299 568.843 655.862 561.798 651.247 554.812C641.958 540.84 632.137 527.163 621.192 514.375C610.069 501.469 597.704 490.102 584.511 479.267C558.538 457.894 531.678 436.581 511.977 409.228C492.394 382.113 474.349 352.155 447.252 331.375C434.118 321.31 423.705 308.403 415.718 294.076C408.086 280.637 403.412 265.954 396.313 252.278ZM395.958 249.199C397.259 250.324 398.561 251.449 399.744 252.455C404.891 257.073 409.329 262.046 413.825 267.256C425.303 280.755 436.189 294.727 448.613 307.456C473.225 332.677 502.274 353.044 528.365 376.607C541.677 388.685 553.983 401.769 566.525 414.498C579.009 427.167 591.847 439.186 605.987 450.02C613.264 455.585 620.423 461.328 626.517 468.196C631.546 473.88 636.279 479.8 640.598 485.957C649.295 498.272 656.572 511.534 661.955 525.447C667.635 540.07 670.771 555.108 673.67 570.323C675.208 578.494 676.687 586.664 677.693 594.893C677.93 596.788 678.107 598.623 678.225 600.518C677.101 596.373 676.036 592.288 675.09 588.085C671.658 572.988 665.387 558.601 659.411 544.214C653.436 529.709 646.277 515.974 636.397 503.482C626.28 490.634 614.447 479.208 602.26 468.314C576.169 444.988 552.503 419.293 526.827 395.611C520.437 389.75 514.107 383.83 507.954 377.732C501.741 371.634 496.003 365.121 489.85 358.964C478.076 347.064 465.297 336.111 452.873 324.862C440.803 313.85 428.261 302.424 418.736 289.103C410.394 277.38 405.779 263.704 397.792 251.804C397.141 250.916 396.549 250.028 395.958 249.199ZM627.7 33.9914L627.641 34.0506C626.99 34.4651 626.28 34.9387 625.629 35.3531C621.074 38.4317 617.287 42.28 613.264 45.9507C608.768 50.0358 603.561 53.2328 598.355 56.3707C593.267 59.5085 588.061 62.4687 582.854 65.4289C572.323 71.3493 561.674 77.0922 551.261 83.1902C541.203 89.0514 530.731 94.9127 522.094 102.609C504.818 118.002 495.115 139.434 481.981 158.084C467.9 177.976 448.435 192.777 430.627 209.236C424.415 214.92 418.913 221.196 412.997 227.116C409.329 230.787 405.305 234.457 400.691 237.062C404.655 234.398 407.79 230.727 410.689 226.998C417.552 218.117 423.764 208.763 431.16 200.356C438.496 192.008 446.838 184.607 454.233 176.319C461.747 167.912 468.551 158.794 475.71 150.032C489.909 132.626 504.108 115.279 517.42 97.2216C523.336 89.1699 529.371 81.1181 537.535 75.1384C545.818 68.9812 555.817 65.2513 565.638 61.8767C575.341 58.5612 585.162 55.601 594.509 51.3383C603.621 47.194 612.14 42.0432 620.719 37.0108C623.085 36.0636 625.393 35.0571 627.7 33.9914ZM399.448 231.675C399.034 232.208 398.62 232.8 398.206 233.332C398.561 232.74 399.034 232.208 399.448 231.675ZM174.569 220.011C182.97 222.261 191.49 223.919 200.068 224.629C207.878 225.281 215.687 225.162 223.497 224.748C231.543 224.274 239.53 223.268 247.636 223.386C263.314 223.564 278.815 226.287 294.138 229.958C305.438 232.681 316.679 235.937 327.979 238.898C322.418 238.779 316.857 239.075 311.354 239.371C303.722 239.726 296.031 239.786 288.34 239.549C272.721 239.075 257.102 237.654 241.542 235.76C225.568 233.806 209.712 230.668 194.093 226.761C190.366 225.813 186.579 224.925 182.852 223.741C179.539 222.735 176.285 221.432 173.031 220.071C171.493 219.419 170.013 218.768 168.475 218.176C170.487 218.887 172.498 219.479 174.569 220.011ZM222.669 434.746C210.718 443.449 198.057 451.441 187.881 462.157C178.06 472.459 170.901 485.069 163.21 496.969C154.927 509.757 146.348 522.605 135.166 533.202C123.748 544.037 109.608 551.023 95.5861 558.187C87.5399 562.331 79.8487 566.771 72.4533 571.685C76.4173 568.31 80.4404 564.936 84.5818 561.739C102.331 548.181 120.435 534.978 136.409 519.408C144.277 511.711 151.377 503.423 157.944 494.66C164.748 485.543 171.552 476.366 179.184 467.9C186.461 459.789 194.803 452.684 203.677 446.231C212.788 439.659 221.367 432.614 229.591 424.918C233.732 421.069 237.696 417.162 241.897 413.432C246.156 409.702 250.535 406.091 254.735 402.361C260.001 397.684 264.911 392.592 269.585 387.323C255.682 404.729 240.832 421.425 222.669 434.746ZM310.349 343.452C299.699 349.669 291.594 359.378 284.139 368.91C283.429 369.858 282.66 370.805 281.95 371.693L281.891 371.752C274.673 380.277 267.396 388.803 259.35 396.559C251.245 404.374 242.311 411.301 234.146 418.997C226.1 426.634 217.995 434.213 209.061 440.844C204.683 444.1 200.128 447.178 195.809 450.612C191.608 453.928 187.585 457.48 183.739 461.21C167.647 476.958 156.347 496.673 140.846 512.954C125.641 528.94 108.01 542.557 90.4389 555.996C81.7419 562.627 73.3999 569.435 65.1762 576.599C62.8097 578.316 60.4432 580.092 58.0767 581.987C52.5745 586.368 47.0131 590.69 41.3926 595.012C40.446 595.604 39.4994 596.196 38.4936 596.788C37.7837 597.261 37.0146 597.735 36.3046 598.209C38.257 596.492 40.1502 594.775 42.1026 592.999C53.8169 582.164 65.6496 571.389 77.0089 560.14C88.3682 548.832 98.6626 536.695 109.312 524.736C120.316 512.362 131.617 500.285 142.976 488.207C153.98 476.485 165.103 464.88 177.172 454.165C189.005 443.685 201.902 434.509 213.853 424.207C225.804 413.846 236.809 402.538 247.754 391.171C258.522 379.981 269.171 368.437 281.004 358.313C292.895 348.189 306.562 340.255 319.933 332.085C326.204 328.296 332.594 324.507 338.274 319.83C344.072 315.034 348.864 309.232 354.603 304.318C356.673 302.542 358.981 300.944 361.111 299.286C360.282 300.47 359.454 301.654 358.567 302.779C356.2 305.858 353.597 308.759 351.053 311.66C348.509 314.679 345.965 317.639 343.421 320.659C338.392 326.638 333.481 332.618 328.689 338.775C328.452 339.071 328.275 339.367 328.038 339.663C323.069 337.414 314.727 340.847 310.349 343.452ZM332.18 346.294C331.825 343.216 330.642 341.262 328.926 340.196C333.422 334.572 337.978 329.066 342.592 323.56C347.621 317.521 352.828 311.6 357.857 305.562C362.767 299.7 366.731 293.129 370.163 286.32C371.878 282.886 373.417 279.393 374.836 275.841C376.197 272.585 377.44 269.329 379.037 266.191C381.463 261.336 384.362 256.6 386.432 251.508C386.373 252.1 386.255 252.633 386.196 253.225C379.51 267.434 373.594 281.998 367.737 296.563C361.88 311.304 356.496 326.046 351.763 341.203C347.089 356.181 342.415 371.278 335.552 385.428C328.512 399.933 319.815 413.55 310.408 426.575C301.06 439.6 290.943 452.033 281.299 464.821C276.507 471.156 271.952 477.609 267.455 484.181C262.959 490.753 258.048 497.028 253.552 503.6C249.115 509.935 245.92 516.921 242.843 524.026C239.649 531.485 236.809 539.064 234.146 546.76C229.177 561.384 225.154 576.303 220.302 590.927C215.687 604.84 210.777 618.753 207.878 633.258C206.517 640.125 205.63 647.111 205.393 654.216C205.334 656.347 205.275 658.479 205.275 660.61C203.677 644.625 200.482 628.64 200.778 612.595C201.252 586.605 199.299 559.134 210.895 535.511C217.64 521.835 225.568 508.869 232.549 495.312C239.353 482.109 244.382 467.9 251.836 455.112C255.563 448.718 260.119 443.034 265.74 438.12C271.301 433.265 277.395 429.003 282.897 424.089C293.96 414.261 303.19 402.598 311.768 390.697C316.738 383.83 321.59 376.607 326.086 369.443C328.157 366.068 330.168 362.516 331.588 358.786C332.712 355.945 333.718 352.57 332.949 349.373C332.831 348.781 332.594 348.189 332.298 347.656C332.298 347.182 332.239 346.709 332.18 346.294ZM196.223 645.631C189.419 618.634 186.934 590.749 191.312 563.752C193.679 549.069 198.412 535.038 203.855 521.302C209.771 506.442 215.806 491.641 221.84 476.899C227.816 462.216 233.969 446.882 244.441 434.805C253.789 423.97 265.68 415.741 277.217 407.275C289.523 398.276 300.35 388.092 311.591 377.909C318.927 371.219 328.985 363.937 331.588 353.872C331.411 354.642 331.233 355.471 330.996 356.181C329.754 360.148 327.743 363.819 325.613 367.312C321.471 374.12 316.797 380.751 312.242 387.264C303.545 399.637 294.02 411.774 282.719 421.957C272.307 431.312 260.356 438.594 252.605 450.494C244.737 462.572 240.063 476.425 233.732 489.332C226.928 503.245 219.178 516.625 211.901 530.242C206.044 541.195 202.435 552.74 200.897 565.173C199.299 577.842 199.536 590.808 199.418 603.596C199.358 610.76 199.181 617.865 199.713 625.028C200.246 632.014 201.252 638.941 202.198 645.868C203.559 655.696 204.979 665.702 205.097 675.589C205.097 676.24 205.097 676.95 205.038 677.602C204.979 679.082 204.92 680.562 204.861 682.042C203.441 669.668 199.181 657.235 196.223 645.631ZM299.048 544.096C295.617 558.483 292.126 573.106 285.145 586.19C278.223 599.215 268.106 610.701 259.054 622.246C254.144 628.462 249.115 634.619 243.612 640.362C238.702 645.513 233.318 650.249 228.526 655.459C225.686 658.597 223.024 661.794 220.539 665.169C220.894 664.34 221.249 663.511 221.604 662.682C223.083 659.426 225.213 656.347 227.224 653.387C229.413 650.131 231.78 646.934 234.265 643.855C244.086 631.482 255.682 620.469 264.438 607.326C268.875 600.695 272.307 593.591 275.383 586.249C278.4 579.086 281.418 571.863 284.376 564.699C287.393 557.535 290.174 550.253 293.31 543.149C294.907 539.596 296.564 536.044 298.398 532.669C299.285 531.012 300.232 529.354 301.178 527.696C302.125 526.039 303.308 524.618 304.432 523.078C304.432 523.078 304.432 523.078 304.432 523.019C302.362 529.946 300.705 537.051 299.048 544.096ZM358.212 389.217C349.988 414.912 348.509 442.62 334.901 466.301C327.506 479.09 318.276 490.694 311.768 503.955C309.284 509.047 307.272 514.316 305.497 519.704C303.841 522.605 301.474 525.032 299.699 527.874C297.806 530.953 296.149 534.15 294.552 537.406C291.18 544.273 288.281 551.378 285.441 558.423C282.542 565.528 279.465 572.514 276.566 579.619C273.549 586.96 270.591 594.36 266.627 601.169C258.758 614.727 247.576 625.857 237.519 637.816C232.49 643.796 227.698 650.012 223.674 656.703C222.136 659.248 220.716 661.794 219.651 664.577C219.001 666.116 218.409 667.715 217.699 669.254C216.693 670.793 215.687 672.332 214.741 673.872C214.563 674.049 214.327 674.227 214.149 674.405C215.51 670.616 217.167 666.886 218.823 663.215C225.864 647.407 234.265 632.37 242.666 617.332C246.807 609.931 250.89 602.59 254.913 595.13C259.054 587.433 263.314 580.151 269.408 573.876C275.028 568.074 278.933 561.265 282.069 553.865C285.5 545.872 288.872 537.82 292.126 529.709C298.693 513.487 304.61 497.028 311.591 481.043C318.572 465.058 325.613 449.132 332.357 433.029C338.984 417.221 350.875 404.433 357.206 388.448C363.063 373.647 367.145 358.076 369.63 342.268C372.174 326.106 372.47 309.528 377.025 293.839C377.558 292.004 378.09 290.169 378.682 288.392C380.575 283.419 382.468 278.387 384.184 273.295C385.604 269.151 386.492 264.888 387.202 260.566C387.142 262.757 386.965 264.948 386.669 267.079C385.545 274.42 382.764 281.288 380.339 288.215C379.155 291.649 378.09 295.142 377.321 298.694C376.552 302.305 376.02 306.035 375.665 309.706C375.014 317.225 375.073 324.803 375.428 332.381C375.783 339.9 376.256 347.419 376.73 354.879C376.789 355.471 376.789 356.122 376.848 356.714C367.855 364.411 359.868 383.948 358.212 389.217ZM377.676 356.004C377.617 352.925 377.38 349.846 377.203 346.768C376.966 343.038 376.73 339.249 376.552 335.519C376.138 327.941 375.961 320.363 376.434 312.785C376.907 305.384 378.09 298.102 380.398 291.057C381.995 286.143 383.829 281.347 385.367 276.433C385.19 277.972 384.953 279.453 384.776 280.992C382.705 297.155 381.463 313.85 383.297 330.25C384.184 338.124 385.782 345.88 388.266 353.517C388.681 354.701 389.036 355.885 389.45 357.01C385.722 352.629 381.64 353.044 377.676 356.004ZM415.067 600.162C405.01 573.047 400.75 545.398 397.082 517.217C393.236 487.023 391.047 456.829 391.343 426.634C391.461 413.965 391.935 401.413 393.709 388.981C394.242 385.132 394.893 380.988 395.011 376.844C395.011 376.903 395.011 376.962 395.011 376.962C397.378 394.072 399.567 411.182 401.815 428.292C404.122 445.58 406.134 462.927 407.258 480.214C407.79 488.799 408.086 497.384 408.145 506.027C408.264 514.435 408.323 522.842 409.329 531.189C411.281 547.589 416.724 563.633 421.812 579.441C426.959 595.308 432.461 611.115 439.443 626.39C446.601 642.079 455.358 656.939 465.297 671.208C470.385 678.49 475.71 685.654 481.094 692.758C485.708 698.797 490.619 704.54 494.997 710.697C482.987 697.85 469.557 686.186 457.842 673.102C438.733 651.848 424.888 626.449 415.067 600.162ZM484.525 474.886C498.487 498.094 505.587 524.618 509.492 550.668C513.692 578.79 513.929 607.267 512.746 635.389C512.391 644.921 511.799 654.394 511.03 663.866C511.208 661.143 511.267 658.419 511.267 655.755C511.208 633.672 509.669 611.53 507.303 589.446C505.055 568.725 502.57 547.885 497.245 527.519C494.701 517.809 491.506 508.218 487.424 498.982C482.928 488.621 477.485 478.557 472.337 468.433C469.734 463.282 467.131 458.131 464.587 452.921C462.22 448.066 459.736 443.153 457.783 438.12C457.014 436.226 456.363 434.272 455.713 432.377C456.955 434.686 458.257 436.995 459.617 439.245C467.072 451.678 477.07 462.512 484.525 474.886ZM428.734 361.983C432.461 374.772 436.366 387.441 441.099 399.933C444.59 409.11 448.495 418.228 452.932 427.049C453.583 429.299 454.233 431.489 454.943 433.739C456.363 438.12 458.197 442.324 460.15 446.527C462.575 451.678 465.06 456.77 467.604 461.861C472.811 472.163 478.135 482.405 483.164 492.825C487.661 502.179 491.388 511.83 494.287 521.657C500.144 541.432 502.866 561.798 505.232 582.046C507.776 604.188 509.61 626.449 509.965 648.651C510.024 653.802 510.143 658.952 509.847 664.044C509.61 668.662 509.137 673.28 508.664 677.898C507.776 687.193 506.83 696.606 507.658 706.02C507.776 707.381 507.954 708.743 508.19 710.105C508.19 710.815 508.249 711.585 508.249 712.295H508.19C507.717 712.414 507.835 713.065 508.249 713.065C508.249 713.598 508.309 714.19 508.309 714.723C507.599 711.763 506.948 708.802 506.593 705.783C505.646 697.613 504.167 689.443 502.629 681.332C499.671 665.169 497.186 648.888 494.819 632.666C492.512 616.621 491.447 600.636 490.264 584.532C489.081 569.139 487.542 553.746 483.756 538.59C480.029 523.493 474.053 508.988 468.018 494.601C464.942 487.201 461.806 479.859 458.967 472.399C455.949 464.525 453.346 456.474 450.92 448.481C446.01 432.496 440.981 416.57 435.183 400.821C429.326 385.014 423.409 369.206 419.505 352.866C413.943 329.717 411.103 305.917 404.832 282.886C405.01 283.301 405.128 283.715 405.305 284.13C406.785 287.978 408.5 291.767 410.571 295.379C412.701 299.108 414.89 302.779 416.842 306.568C418.795 310.357 420.629 314.265 422.049 318.231C423.291 321.724 424.179 325.336 426.308 328.474C426.723 329.125 427.196 329.717 427.669 330.309C427.255 330.96 426.9 331.612 426.486 332.381C422.344 341.143 426.072 352.866 428.734 361.983ZM672.132 599.274C668.523 593.887 664.322 588.795 660.654 583.348C656.394 577.132 652.312 570.797 647.993 564.581C639.296 552.029 629.416 540.721 618.056 530.42C606.875 520.355 594.864 511.238 583.032 502.061C570.371 492.233 558.361 482.05 547.238 470.505C536.648 459.552 525.584 448.836 515.349 437.528C495.589 415.682 480.206 389.928 466.362 364.352C462.398 357.01 440.389 313.85 428.497 329.243C426.368 326.402 425.243 323.205 424.119 319.889C422.759 315.863 421.161 312.015 419.209 308.167C417.316 304.378 415.186 300.648 412.997 296.918C411.932 295.082 410.808 293.247 409.861 291.293C408.914 289.399 408.027 287.504 407.199 285.551C405.601 281.643 404.181 277.676 402.821 273.71C402.051 271.46 401.282 269.329 400.572 267.079C399.567 263.763 398.561 260.448 397.437 257.192C401.578 265.954 405.01 275.071 409.092 283.893C415.482 297.865 423.764 311.068 434.65 322.257C440.153 327.882 446.424 332.381 452.34 337.532C458.73 343.097 464.646 349.314 470.148 355.708C481.153 368.614 490.915 382.468 500.617 396.322C505.41 403.13 510.084 409.998 515.172 416.511C520.141 422.905 525.584 429.003 531.264 434.805C542.623 446.409 555.048 457.066 567.649 467.367C581.198 478.497 595.219 489.036 607.466 501.587C619.121 513.487 629.475 526.571 639.118 540.011C648.88 553.628 658.465 567.6 666.038 582.46C668.345 586.96 670.416 591.578 672.546 596.196C674.616 600.636 676.746 605.136 678.048 609.813C678.107 610.05 678.225 610.346 678.284 610.701C676.569 606.793 674.616 602.945 672.132 599.274ZM471.923 289.695C476.775 296.918 483.46 303.016 490.086 308.64C493.932 311.897 497.837 314.916 501.327 318.587C506.179 323.737 510.202 329.539 514.343 335.282C522.744 346.886 531.56 356.3 544.635 362.812C551.971 366.483 559.544 368.614 567.294 370.864C575.636 373.291 583.682 376.844 591.255 381.106C621.015 397.802 641.189 423.97 660.713 450.908C670.238 463.992 678.935 477.609 684.674 492.588C689.999 506.56 693.016 521.421 693.49 536.163C693.963 551.556 690.295 565.469 687.159 580.151C684.674 591.815 684.556 603.123 684.438 615.082C684.438 617.805 684.556 620.943 684.142 623.844C683.313 621.594 682.722 619.285 682.248 616.976C682.13 612.477 682.544 607.977 683.136 603.478C684.083 596.196 684.97 588.973 684.97 581.572C684.97 565.824 682.367 550.016 678.995 534.505C675.681 519.408 672.191 504.133 666.689 489.51C661.186 474.768 653.022 461.091 642.905 448.836C632.315 435.989 619.95 424.74 606.756 414.616C592.675 403.841 577.885 393.776 563.271 383.711C548.421 373.469 532.743 364.529 518.544 353.399C504.581 342.446 490.974 330.724 478.786 317.817C467.013 305.384 456.008 292.181 442.578 281.406C429.089 270.513 414.121 261.454 400.691 250.442C397.969 248.252 395.366 245.943 392.822 243.575C393 243.693 393.177 243.752 393.354 243.871C395.425 244.996 397.437 246.061 399.508 247.186C402.466 248.726 405.365 250.383 408.145 252.159C410.985 253.995 413.647 255.948 416.428 257.843C421.93 261.691 427.551 265.362 433.585 268.263C436.307 269.565 439.088 270.69 441.987 271.578C444.767 272.466 447.548 272.999 450.388 273.532C453.76 274.124 457.014 275.367 460.15 276.788C462.635 277.913 465.06 279.275 467.545 280.4C468.373 283.715 470.03 286.912 471.923 289.695ZM468.551 270.572C467.072 273.355 466.835 276.256 467.309 279.216C465.297 278.268 463.345 277.203 461.274 276.256C458.552 274.953 455.713 273.887 452.814 273.118C449.915 272.348 446.956 271.993 444.057 271.164C441.277 270.394 438.555 269.329 435.893 268.145C429.681 265.362 424.001 261.691 418.381 257.843C415.6 255.948 412.878 253.995 410.098 252.1C407.317 250.265 404.418 248.607 401.46 247.009C399.33 245.884 397.141 244.759 395.011 243.634C395.544 243.752 396.076 243.812 396.608 243.93C398.147 244.64 399.685 245.351 401.164 246.121C403.176 247.127 405.187 248.193 407.258 249.022C410.393 250.265 413.647 251.271 416.901 252.159C423.587 254.054 430.45 255.475 437.313 256.481C443.998 257.488 450.684 257.961 457.369 258.909C463.759 259.797 470.208 261.04 476.301 263.231C473.107 265.007 470.326 267.316 468.551 270.572ZM780.164 240.911C765.55 245.943 752.771 254.646 739.223 261.75C714.847 274.539 687.573 278.387 659.589 276.67C644.798 275.782 630.185 273.236 615.453 271.756C598.828 270.098 582.203 269.21 565.638 267.967C552.03 266.901 538.541 265.48 525.111 262.994C514.166 260.981 502.984 258.968 491.92 259.56C487.365 259.797 482.336 260.626 477.899 262.579C472.219 260.211 466.125 259.027 460.15 258.198C453.523 257.251 446.838 256.777 440.212 255.83C433.23 254.883 426.308 253.58 419.445 251.745C416.014 250.798 412.642 249.791 409.269 248.607C407.08 247.837 404.95 246.831 402.88 245.765C402.347 245.528 401.815 245.232 401.282 244.996C406.489 246.061 411.873 246.594 416.842 247.068C420.451 247.423 424.001 247.66 427.61 247.837C427.788 247.837 427.965 247.897 428.083 247.897C442.874 249.673 457.665 252.219 472.515 252.929C487.069 253.639 501.623 252.87 516.177 253.107C530.554 253.343 544.99 254.232 559.366 255.83C573.802 257.429 588.179 259.205 602.496 261.869C616.755 264.474 630.836 267.138 645.212 268.263C651.957 268.796 658.761 269.092 665.505 268.855C672.191 268.559 678.758 267.612 685.207 266.25C691.715 264.888 698.104 263.171 704.494 261.454C710.824 259.738 717.214 258.198 723.426 256.126C736.205 251.863 748.393 246.18 761.113 241.68C767.503 239.43 774.011 237.358 780.814 236.529C781.229 236.47 781.643 236.411 782.116 236.411C786.08 236.293 790.103 236.233 794.067 236.115C797.203 236.056 800.338 235.937 803.415 235.76C804.302 235.76 805.19 235.76 806.077 235.701C797.498 237.24 788.506 238.069 780.164 240.911ZM501.209 219.36C505.469 218.117 509.551 216.459 513.456 214.387C530.021 205.684 544.161 192.718 562.384 186.798C572.027 183.66 582.499 185.14 592.261 182.417C601.077 179.93 609.655 176.615 618.648 174.602C639.592 169.984 659.648 176.97 678.876 186.147C701.003 196.685 722.716 207.638 746.204 214.505C758.273 218.058 770.638 220.189 782.826 223.208C791.405 225.399 799.924 227.826 808.384 230.491C798.741 228.892 789.156 226.465 779.572 224.274C772.472 222.676 765.373 221.373 758.273 219.952C750.582 218.413 742.95 216.637 735.318 214.801C720.231 211.19 705.204 207.223 690.058 203.671C675.859 200.356 661.541 197.218 647.106 195.856C621.31 193.369 595.456 196.034 570.844 202.25C544.102 208.999 519.195 220.603 492.394 227.294C478.135 230.846 463.581 232.681 448.79 233.747C441.218 234.339 433.645 234.931 426.072 235.286C419.505 235.582 412.938 235.582 406.489 236.648C406.193 236.707 405.897 236.766 405.601 236.825L405.66 236.766C410.867 235.405 416.31 235.049 421.635 234.28C427.728 233.392 433.704 231.971 439.62 230.431C445.596 228.951 451.571 227.412 457.665 226.405C463.108 225.517 468.728 225.577 474.112 224.511C475.532 224.215 476.893 223.86 478.254 223.327C479.614 222.794 480.857 222.024 481.981 221.196C483.993 219.715 485.767 217.939 487.779 216.459C489.021 218.354 490.678 219.834 492.867 220.426C495.707 221.255 498.606 220.13 501.209 219.36ZM487.306 215.69C485.472 216.992 483.815 218.591 482.04 219.952C481.034 220.722 479.969 221.432 478.845 221.965C477.662 222.498 476.36 222.853 475.118 223.149C469.853 224.333 464.35 224.097 459.026 224.866C446.838 226.642 435.242 230.668 423.173 232.8C419.978 233.392 416.724 233.688 413.47 234.161C412.878 234.28 412.287 234.339 411.695 234.457C414.062 233.569 416.31 232.385 418.499 231.379C420.747 230.313 422.995 229.425 425.421 228.714C428.438 227.886 431.456 227.116 434.532 226.346C440.567 224.807 446.661 223.268 452.399 220.899C458.434 218.413 464.055 215.157 469.616 211.9C472.574 210.124 475.473 208.23 478.668 206.75C480.561 205.862 482.632 205.033 484.288 203.73C484.288 203.789 484.288 203.789 484.288 203.849C484.466 207.164 485.235 212.019 487.306 215.69ZM575.873 103.971C569.483 111.253 562.147 117.588 554.338 123.331C546.232 129.192 537.358 134.047 529.371 140.086C521.206 146.243 514.58 153.584 507.658 160.985C501.505 167.556 494.583 173.477 489.613 181.055C485.412 187.508 483.697 194.613 484.111 202.369C482.454 203.73 480.324 204.559 478.431 205.388C475.651 206.631 473.107 208.23 470.503 209.769C465.001 213.025 459.499 216.222 453.642 218.887C448.08 221.432 442.164 223.09 436.189 224.629C433.231 225.399 430.213 226.109 427.314 226.938C424.829 227.649 422.404 228.359 420.037 229.366C417.848 230.372 415.718 231.497 413.47 232.504C414.298 231.911 415.067 231.319 415.837 230.727C419.505 227.826 423.528 225.34 427.373 222.616C435.834 216.637 444.412 210.776 452.636 204.441C468.669 192.126 484.111 178.687 497.955 164.063C505.055 156.544 511.799 148.729 519.135 141.447C526.353 134.343 534.4 128.304 542.327 122.087C550.374 115.812 557.887 108.885 565.283 101.84C572.737 94.7351 580.014 87.3345 586.996 79.7564C590.486 75.9673 593.859 72.1782 597.231 68.2707C600.544 64.4224 604.271 61.0478 608.176 57.7916C610.069 56.2522 611.903 54.7129 613.797 53.1736C607.525 61.1662 601.431 69.2772 595.456 77.5066C589.007 86.3873 583.091 95.7415 575.873 103.971ZM613.678 39.379C609.596 41.7472 605.514 44.1154 601.254 46.3059C591.906 51.1607 582.085 54.7129 572.027 58.0876C562.384 61.2846 552.681 64.5408 543.807 69.3364C534.991 74.132 527.951 80.9405 521.857 88.7554C515.231 97.1624 509.078 105.925 502.511 114.332C495.529 123.272 488.371 132.093 481.212 140.914C474.112 149.617 466.954 158.321 459.913 167.142C452.814 176.023 445.004 184.134 437.076 192.304C429.385 200.237 422.699 208.822 416.191 217.702C413.647 221.196 411.044 225.044 408.145 228.596C409.92 226.346 411.458 223.86 412.938 221.432C415.541 217.051 417.966 212.492 420.57 208.111C423.469 203.316 426.545 198.639 429.74 194.021C436.248 184.785 443.347 175.963 450.743 167.379C457.783 159.209 465.119 151.334 471.568 142.691C483.874 126.232 494.109 108.411 506.652 92.1893C512.923 84.0783 519.786 76.4409 527.655 69.81C535.879 62.8831 545.049 57.2587 554.988 52.9368C560.076 50.7462 565.342 48.7925 570.548 46.8388C573.684 45.6547 576.642 44.5298 579.896 43.8785C582.854 43.2865 585.812 42.8129 588.771 42.3392C591.847 42.4576 594.924 42.3984 597.941 42.2208C603.502 41.8064 608.709 40.7999 613.678 39.379ZM581.967 41.984C579.896 42.3392 577.885 42.7537 575.873 43.2865C571.436 44.5298 567.176 46.4835 562.857 48.082C552.681 51.9895 542.86 56.5483 534.045 62.8239C525.762 68.6852 518.425 75.7305 511.858 83.3678C498.369 98.9386 487.897 116.759 476.242 133.573C470.267 142.217 463.759 150.446 456.777 158.32C449.264 166.787 441.987 175.371 435.183 184.37C428.32 193.429 421.93 202.901 416.369 212.848C411.873 220.899 407.495 229.662 399.862 235.286C398.916 235.997 397.91 236.589 396.904 237.181C401.282 233.569 404.241 228.418 406.252 222.853C407.08 221.669 407.79 220.426 408.559 219.183C412.819 211.96 416.191 204.263 419.682 196.626C426.841 180.996 434.828 165.603 444.59 151.453C449.382 144.467 454.825 137.895 459.558 130.79C459.676 130.613 459.795 130.494 459.854 130.317C463.7 127.593 466.184 122.383 467.841 118.535C468.078 118.002 468.314 117.47 468.492 116.937C470.148 114.391 471.805 111.904 473.521 109.418C478.431 102.372 483.756 95.6231 489.495 89.1699C495.234 82.7166 501.446 76.7369 507.776 70.8757C513.929 65.1329 520.26 59.5677 526.886 54.2985C530.081 51.7527 533.335 49.2069 536.825 47.0164C540.198 44.885 543.925 43.2865 547.415 41.2735C547.593 41.1551 547.77 41.0367 547.948 40.9775C548.362 40.9183 548.776 40.8591 549.131 40.7999C560.017 39.675 570.962 41.1551 581.967 41.984ZM488.016 81.1773C502.215 62.5279 520.319 45.9507 544.398 41.5696C543.156 42.2208 541.854 42.8721 540.612 43.5233C537.121 45.3587 533.985 47.4308 530.85 49.7398C523.987 54.8313 517.538 60.3373 511.208 66.021C504.877 71.7638 498.606 77.5658 492.749 83.7823C486.832 90.0579 481.33 96.6296 476.242 103.497C474.408 105.984 472.574 108.589 470.858 111.135C472.278 107.642 473.757 104.149 475.473 100.774C479.023 93.9062 483.283 87.3937 488.016 81.1773ZM457.369 131.619C453.938 136.415 450.388 141.092 446.838 145.828C436.603 159.682 428.379 174.898 420.984 190.468C417.316 198.224 414.002 206.217 410.039 213.795C409.388 215.097 408.678 216.341 407.968 217.584C408.737 214.979 409.447 212.315 410.216 209.769C411.222 206.513 412.346 203.316 413.588 200.178C416.014 193.962 418.795 187.863 421.753 181.884C424.829 175.786 428.024 169.806 431.337 163.886C434.473 158.202 438.082 152.696 440.863 146.776C442.401 143.519 443.762 140.086 444.412 136.474C444.945 133.632 445.181 130.731 445.832 127.949C447.548 130.139 450.033 131.679 453.405 132.093C454.825 132.211 456.186 132.093 457.369 131.619ZM450.743 53.1736C452.281 60.6926 451.749 68.3299 450.506 75.6713C448.435 87.9858 444.176 99.7674 442.46 112.141C441.809 116.759 442.342 122.62 445.004 126.824C444.294 129.429 443.998 132.211 443.525 134.876C442.992 138.132 441.868 141.151 440.567 144.171C437.904 150.21 434.236 155.834 430.982 161.577C427.669 167.379 424.534 173.358 421.516 179.338C418.499 185.318 415.659 191.475 413.233 197.751C413.115 198.106 412.938 198.52 412.819 198.875C413.943 194.554 414.949 190.232 416.014 185.91C416.842 182.653 417.73 179.456 418.736 176.319C419.8 173.062 421.102 169.865 422.404 166.728C427.432 154.472 430.154 141.447 432.343 128.363C433.467 121.791 434.473 115.22 435.656 108.707C436.899 101.958 438.496 95.2679 440.093 88.5778C441.632 82.0061 443.052 75.3752 443.939 68.626C444.767 62.1135 444.886 55.7194 443.88 49.0885C443.407 45.8915 442.756 42.6945 441.987 39.5566C441.277 36.6556 440.389 33.7546 439.857 30.7944C439.443 28.6038 439.088 26.3541 438.733 24.1043C440.448 27.8342 442.342 31.564 444.117 35.2939C446.897 41.0367 449.441 46.9572 450.743 53.1736ZM367.678 146.184C365.844 133.277 367.086 119.719 370.991 107.582C375.191 94.4982 382.823 84.5519 392.645 75.1976C395.366 72.6518 398.088 70.1061 400.868 67.5603C399.33 69.9284 397.851 72.2966 396.313 74.6056C390.219 83.6046 384.776 93.1957 380.812 103.379C377.262 112.556 375.724 122.502 375.428 132.389C375.191 142.158 375.961 152.222 378.8 161.754C381.463 170.813 385.486 179.456 388.444 188.396C385.959 185.14 383.297 182.061 380.989 178.687C374.186 168.859 369.334 157.906 367.678 146.184ZM396.963 206.631C395.898 201.599 394.064 196.744 391.165 192.363C390.751 191.712 390.278 191.061 389.864 190.468C387.556 181.825 383.77 173.595 381.049 165.07C379.51 160.393 378.386 155.656 377.735 150.802C377.085 145.828 376.73 140.796 376.73 135.823C376.671 125.817 377.972 115.753 381.167 106.339C382.883 101.307 385.19 96.3928 387.616 91.6564C390.16 86.7425 393 82.0061 396.017 77.4474C397.496 75.1976 399.034 73.0071 400.454 70.7573C401.933 68.4483 403.412 66.0802 404.95 63.8304L405.01 63.7712C407.495 61.4622 409.92 59.0348 412.228 56.6075C409.802 60.7518 407.376 64.8961 405.483 69.3364C403.649 73.4807 402.051 77.8026 400.513 82.0653C397.378 90.5908 394.538 99.2346 392.349 108.115C388.148 124.87 385.249 142.927 389.509 160.393C393.354 176.141 401.401 191.653 400.691 207.934C400.454 213.44 399.507 218.946 398.088 224.215C398.798 218.472 398.206 212.256 396.963 206.631ZM379.451 232.504C376.434 227.412 372.707 222.735 368.92 218.117C365.134 213.499 361.229 208.94 357.561 204.204C351.644 196.626 345.965 188.811 340.285 181.055C328.689 165.247 316.561 149.854 303.367 135.231C290.174 120.667 276.152 106.872 261.421 93.847C253.67 86.9201 245.92 79.9932 237.755 73.4807C230.833 67.9155 223.379 63.0607 216.516 57.4363C215.332 56.4891 214.208 55.4826 213.143 54.4169C213.735 53.8249 214.327 53.2328 214.8 52.5224C215.273 51.8119 215.687 50.9831 216.042 50.1542C229.354 60.3965 242.193 71.1125 254.617 82.3614C267.041 93.6102 278.933 105.392 290.351 117.588C301.829 129.843 312.774 142.513 323.305 155.538C334.132 168.918 344.722 182.535 354.958 196.389C360.046 203.197 365.015 210.065 369.926 216.992C372.292 220.367 374.777 223.741 377.499 226.879C380.279 230.076 383.297 232.563 386.906 234.812C387.556 235.168 388.148 235.582 388.799 235.937C387.083 237.654 385.072 239.016 382.587 239.963C382.468 237.477 380.575 234.398 379.451 232.504ZM307.568 208.407C307.923 208.644 308.337 208.644 308.692 208.585C317.389 213.795 325.435 220.84 333.777 227.294C333.126 226.879 332.476 226.465 331.825 226.109C329.872 224.866 327.92 223.623 325.968 222.32C322.536 220.011 318.927 218.058 315.2 216.341C307.509 212.788 299.403 210.302 291.357 207.697C284.08 205.329 276.921 202.724 269.526 201.066C262.426 199.468 255.208 198.757 247.991 199.349C240.418 199.941 233.141 202.073 225.982 204.322C219.06 206.513 212.138 208.703 204.979 210.184C203.855 210.42 202.672 210.657 201.547 210.835C209.298 207.46 216.93 203.671 225.154 201.244C251.718 193.369 282.128 194.258 307.568 208.407ZM194.507 234.398C185.573 232.385 176.876 229.425 169.067 224.393C164.334 221.314 159.897 217.821 155.4 214.328C159.837 215.749 164.156 217.643 168.416 219.538C171.67 220.959 174.924 222.38 178.237 223.623C181.669 224.925 185.159 225.873 188.65 226.761C204.21 230.905 219.947 234.22 235.862 236.411C251.481 238.602 267.219 240.082 282.838 240.851C290.529 241.207 298.161 241.384 305.852 241.147C313.248 240.911 320.643 240.318 328.098 240.437C330.523 240.496 333.008 240.615 335.434 240.851C336.972 241.266 338.569 241.621 340.167 242.035C344.012 242.983 347.917 243.812 351.822 244.64C353.479 244.996 355.135 245.292 356.792 245.647C358.389 246.002 359.986 246.357 361.584 246.653C365.074 247.245 368.506 247.186 371.997 246.831C373.417 246.772 374.777 246.594 376.138 246.476C375.31 246.772 374.541 247.009 373.712 247.305C373.18 247.482 372.588 247.66 372.056 247.897C371.937 247.897 371.819 247.897 371.701 247.897C367.619 248.074 363.477 247.719 359.336 247.245C351.112 246.298 343.007 244.581 334.783 243.871C330.227 243.516 325.613 243.516 321.057 243.338C315.969 243.16 310.881 243.042 305.793 242.923C295.676 242.746 285.5 242.746 275.383 243.456C270.354 243.812 265.325 244.344 260.356 245.055C255.445 245.765 250.475 246.653 245.742 248.015C244.973 248.252 244.145 248.489 243.376 248.726C241.246 245.173 235.566 242.983 232.076 241.858C219.888 237.832 206.931 237.181 194.507 234.398ZM243.849 253.58C244.382 252.041 244.263 250.679 243.731 249.436C253.138 247.364 262.604 245.824 272.247 245.055C282.364 244.285 292.54 244.167 302.716 244.285C307.805 244.344 312.893 244.522 317.981 244.64C322.773 244.818 327.624 244.818 332.476 245.114C340.64 245.528 348.745 247.305 356.851 248.429C360.105 248.844 363.477 249.258 366.79 249.377C364.128 250.028 361.288 250.265 358.567 250.561C345.551 251.804 332.416 251.034 319.282 250.679C306.917 250.383 294.848 251.271 282.719 253.166C270.65 255.06 258.699 257.547 246.511 259.145C243.198 259.56 239.885 259.915 236.572 260.211C239.944 259.027 242.666 257.014 243.849 253.58ZM136.645 260.152C161.79 258.731 187.171 260.507 212.433 261.573C210.659 261.632 208.825 261.75 207.05 261.81C193.383 262.461 179.657 263.349 166.109 264.888C141.615 267.671 116.53 268.322 92.983 275.427C80.5587 279.216 69.4952 285.314 58.55 291.826C53.7577 294.668 48.9655 297.391 44.055 299.937C42.3392 300.825 40.6235 301.773 38.9669 302.72C44.1733 296.622 49.5572 290.761 56.006 285.669C78.5471 267.849 107.655 261.81 136.645 260.152ZM256.273 297.806C247.931 294.076 238.879 291.471 229.946 289.991C207.641 286.202 185.692 290.701 164.63 296.385C139.959 303.075 115.642 310.12 89.6698 311.364C76.5356 312.015 63.1055 310.653 50.0896 312.666C44.9424 313.436 39.9136 314.738 35.003 316.278C38.4936 314.975 41.9843 313.791 45.5341 312.666C50.8587 310.89 56.1834 309.055 61.6265 307.634C67.8978 305.976 74.3465 304.792 80.7953 303.726C87.3033 302.72 93.9296 301.95 100.438 300.885C106.768 299.878 113.039 298.635 119.311 297.273C131.912 294.49 144.396 291.234 156.938 288.392C169.363 285.61 182.201 282.827 195.099 282.235C208.41 281.643 221.781 283.952 235.093 284.84C248.582 285.787 262.012 284.781 275.501 285.136C286.742 285.432 298.043 285.491 309.047 283.834C320.406 282.117 330.937 278.328 340.936 273.118C347.03 269.921 352.946 266.546 358.803 262.935C364.246 259.619 369.512 256.067 375.369 253.521C373.002 255.001 370.636 256.422 368.269 257.843C365.252 259.738 362.176 261.573 359.336 263.704C355.372 266.605 351.408 269.506 347.326 272.17C343.243 274.894 338.984 277.38 334.428 279.453C329.872 281.525 325.08 283.005 320.229 284.367C310.704 287.09 300.942 289.28 292.008 293.425C283.252 297.51 275.738 303.49 268.934 310.12C268.875 303.963 261.716 300.174 256.273 297.806ZM56.1243 495.134C59.9699 482.05 64.1705 468.906 70.9742 457.125C78.0147 444.988 88.3091 436.522 98.426 427.108C108.247 417.931 115.287 406.742 122.624 395.671C129.901 384.659 138.124 375.364 149.129 367.904C169.658 354.05 194.27 346.827 218.468 340.729C229.65 337.887 241.009 334.927 251.185 329.599C257.93 326.046 267.041 320.304 268.757 312.252C268.816 312.074 268.816 311.837 268.875 311.66C269.822 310.831 270.709 309.943 271.656 309.055C273.49 307.397 275.324 305.798 277.276 304.259C281.181 301.121 285.382 298.28 289.878 295.971C298.693 291.471 308.514 289.103 318.099 286.498C322.891 285.195 327.743 283.834 332.298 281.998C336.854 280.163 341.173 277.795 345.314 275.249C352.709 270.631 359.336 265.125 366.672 260.448C371.287 257.488 376.079 254.764 380.694 251.745C370.932 263.171 358.981 272.585 346.616 281.229C339.634 286.083 332.535 290.761 325.494 295.497C318.336 300.292 311.295 305.325 303.841 309.765C296.564 314.087 289.05 318.054 281.714 322.198C274.496 326.283 267.514 330.724 260.001 334.394C245.328 341.617 229.946 347.419 216.042 356.063C208.706 360.622 201.725 365.595 194.625 370.45C187.467 375.364 180.012 379.922 172.617 384.481C158.299 393.362 144.1 402.538 131.439 413.55C104.934 436.522 87.8358 467.308 72.2758 498.272C57.84 526.867 43.5817 555.582 29.6783 584.473C30.9208 581.217 32.1632 577.902 33.3464 574.645C42.6351 548.714 48.3739 521.48 56.1243 495.134Z" fill="#DCBF6F"/>
</svg>
