<svg xmlns="http://www.w3.org/2000/svg" width="823" height="738" fill="none"><path fill="#DCBF6F" d="m3 628 2-1 36-27 35-27c13-9 27-15 40-23 12-6 22-15 31-25 19-22 30-51 52-69 11-10 24-17 35-26 11-10 21-21 30-32l25-31c8-9 17-20 29-24 4-2 9-3 11 1 1 4 0 9-1 12-4 8-10 12-16 18l-32 28c-11 8-23 15-32 25-11 10-17 21-23 34l-19 43c-5 14-11 27-15 42-7 24-8 50-4 76l8 36c3 12 7 24 6 36v1l-2 11-3 5c-1 2 3 4 4 2l3-5c5-12 10-24 17-35 8-12 18-22 28-32l27-34c8-11 15-23 20-36l11-40c3-14 9-27 16-40 8-11 16-23 22-36l10-36c2-13 5-25 9-37l10-17c2-4 7-10 12-9 5 2 7 10 8 15l-1 16-3 35a781 781 0 0 0 19 167c8 25 20 49 35 70 16 23 38 40 56 60l13 18c1 2 3 1 3-1-7-26-2-52 0-78 1-28 2-56 0-84-2-24-6-48-14-71-5-12-10-24-17-34-8-12-17-23-24-35a339 339 0 0 1-32-93c0-5 2-14 9-12 5 2 9 8 12 12l11 18c14 24 27 48 44 70l30 32 30 30c23 19 49 36 69 59l25 35 12 17 7 14 6 13c1 2 3 2 3 0 2-3 2-8 2-11v-15c0-14 5-28 7-42 5-27 0-56-12-81-7-13-16-26-25-38-10-13-19-26-31-38-11-11-24-21-38-28-15-7-31-10-45-17-14-8-22-19-31-31-4-5-8-11-13-15l-9-8c-7-6-14-12-19-20-4-10 0-17 9-21 11-3 24-2 35 0l35 5 49 4 47 5c26 3 52 2 76-6 14-5 26-12 38-19 7-4 13-7 21-9 7-3 14-4 21-5l19-4 1-2v-1h-1l-33-10-31-8c-21-5-40-13-60-22-17-9-35-19-55-22-9-1-18 0-27 2l-26 8c-9 2-18 1-27 4s-17 7-24 12l-22 14-12 6c-4 1-10 4-14 0-6-6-5-19-2-26 3-9 11-16 17-23 7-7 13-14 21-20 7-7 16-12 24-17 9-6 17-12 24-19l20-27c14-20 30-39 46-57 2-2-1-4-2-3-11 7-23 12-36 14-15 2-30-2-45-1-23 0-42 9-58 25a151 151 0 0 0-38 62c-2 3-5 6-10 5-6-2-7-9-7-14 1-12 6-24 8-35 2-14 2-27-4-40-5-13-13-25-14-38 0-2-3-3-3-1-2 13-4 27-11 39l-8 10-1 1-17 17c-9 8-18 16-23 27-5 10-8 21-8 32-2 21 4 41 18 58 3 5 7 9 9 14 3 6 4 12 4 17 1 7-1 14-5 19l-7-5-8-9-15-21a1224 1224 0 0 0-64-80 614 614 0 0 0-75-68l-4-3h-2l-3 5v1c5 6 12 10 18 15l24 19a616 616 0 0 1 79 86l31 40 11 13 4 7 2 6h-1c-27 6-49-21-70-34l-1-1c-24-13-53-16-79-10-14 3-25 10-38 15-8 3-16 4-25 2-6-2-13-5-20-5-2 0-3 3-1 4 11 8 22 18 35 22 14 5 28 5 41 8l10 3c3 1 9 3 10 6 1 5-8 7-11 8h-17c-26-2-52-3-78-2-25 2-52 6-73 20-12 8-22 18-31 29-5 6-10 13-16 18l-15 8c-1 0 0 3 1 2a194 194 0 0 1 32-15c12-3 25-5 38-5 25 1 50-3 74-9 21-6 41-13 63-14a104 104 0 0 1 44 9c4 1 9 3 12 7 7 8-11 18-17 21-11 5-22 8-33 11-23 5-45 12-64 24-10 6-18 13-25 22l-22 32c-9 10-20 17-28 27s-13 21-18 32c-10 28-16 57-25 85-3 12-8 24-13 35-4 11-9 22-19 29-2 2 0 4 2 3Zm18-23 3-6 20-41 24-48c16-31 32-63 57-88 12-12 26-22 40-31l22-14 21-14 22-13 23-11c15-7 29-15 44-24l42-27c12-8 25-17 36-28l-19 22c-10 11-21 20-33 29-14 10-29 18-44 27-15 8-30 15-44 24l-42 31c-14 10-27 22-40 34s-26 24-37 37c-12 13-23 28-33 42-20 27-37 56-53 84l-4 6-3 6a96 96 0 0 1-2 3Zm5-286 7-4 17-8c12-6 24-9 37-12l39-9 18-6a163 163 0 0 1 54-8l44 2a864 864 0 0 0 42-1l19-2 20-1c10-1 21-1 30-5-10 6-21 12-33 15-11 3-22 4-33 4h-40c-14 0-27-2-41-3-13 0-26 1-39 4l-38 9-39 7c-13 2-26 4-39 8l-26 10h1Zm11-14 2-1 14-8c11-6 22-13 34-17 23-9 48-10 72-12l20-2 20-1c13-1 27-1 40-3 24-2 47-9 72-9l38 1 18-2 5-2h4l-14 8c-6 3-11 6-17 7-6 2-13 2-19 3l-19 1-19 2-20 2h-22l-43-2a186 186 0 0 0-55 6l-17 6-38 9a266 266 0 0 0-55 19l-8 4-2 1 9-10Zm164-93 10-2 11-3 21-6c8-1 15-1 23 1l21 6 24 8 11 5 7 5a193 193 0 0 0 24 13c-7-1-13-4-18-6l-20-9a185 185 0 0 0-59-12l-41 2-25 1 6-2 5-1Zm196 20a63 63 0 0 0 4-38l-8-25c-2-8-4-17-4-25 0-10 1-19 3-28l8-27c3-9 6-18 11-27l6-11 7-9 5-11-5 21-14 50a221 221 0 0 0-6 71c0 8 2 15 3 23 0 8-2 15-5 23-2 6-3 12-7 16l2-3Zm41-204 2 8 2 9c1 7 2 13 1 19l-3 20-5 20-3 20c-2 13-5 26-9 38l-4 9-3 10-5 19-1 5v2l2-19 2-27 4-26 8-25c4-8 7-17 9-25a108 108 0 0 0 3-39l-1-13-1-13-1-5 2 4 1 9Zm181 18-7 7-11 9-10 11a470 470 0 0 1-43 43l-24 19-20 21a396 396 0 0 1-81 68l-6 5-4 3-3 1c6-4 11-10 16-15l26-23 26-26c15-18 24-40 40-58 8-9 18-16 28-22l32-18 31-19 14-12 2-1a146 146 0 0 1-3 3l-3 4ZM418 237a824 824 0 0 0 65-6c14-3 27-7 41-12l38-13a227 227 0 0 1 118-3l46 11 44 10 13 3-6-1-43-1a1189 1189 0 0 1-130-10h-20c-7 0-13 2-20 3l-38 11a463 463 0 0 1-82 10l-40 1-6 1 6-3 14-1Zm362-2-19 2a760 760 0 0 0-66 11l-21 2-42-1-43-2c-14 0-29 2-44 0l-42-3-42 3h-34l-9-2-19-2h-2l30 2c14 2 28 2 42 0 15-1 29-3 43-6l22-3 23-2 23-2 22-2c15-1 31-2 46 0 16 1 31 5 46 7s29 2 43 1l44-4h18l3 1h-22Zm-7 2h-2l-37 14a297 297 0 0 1-58 16h-21c-14 0-28-2-42-5a478 478 0 0 0-86-10h-43c-15 0-29-2-44-4h11c13 1 26-1 39-2l22-1 22 2 21 2 23-1 43 2c28 1 56 2 84-2l45-9 22-2h1ZM549 375l44 31c14 10 28 21 40 33a152 152 0 0 1 42 85 290 290 0 0 1 8 70l-2 15v-4l-4-24c-3-16-5-31-10-46a201 201 0 0 0-47-77l-20-17-20-17-39-38-80-70c-13-12-24-25-36-39l-16-19 21 15a195 195 0 0 1 39 36l17 18a374 374 0 0 0 40 34l23 14Zm-41 342 1 4v4c-3-5-4-11-6-17-3-7-5-15-6-23-4-16-7-33-12-48l-9-24a455 455 0 0 1-25-97l-4-25c-3-16-7-31-12-47l-14-48c-5-17-8-33-10-49l-6-50-2-17 5 20 8 42a305 305 0 0 0 14 47l16 49 8 24 8 22c6 14 13 29 18 45 4 15 7 30 8 45l4 47 4 25 3 24 5 24 4 23ZM395 370l-3-9a138 138 0 0 1-7-71l4-25 2-9v33a432 432 0 0 0 11 94l13 49 25 102c4 16 6 32 8 49 3 16 5 32 9 47 5 15 11 29 19 43l26 44 2 3-4-4-4-5-7-10a619 619 0 0 1-44-66c-8-16-13-32-19-48l-14-47c-3-17-2-35-2-52l-5-51-7-51-2-12-1-4ZM211 679l-5 11v1l3-15c0-8 3-15 6-23l10-22 10-23 18-47c6-15 12-32 21-46l14-20 16-19c9-14 15-29 24-43l12-21c4-7 8-14 10-22 6-15 9-31 13-46l5-24 5-17v1c-2 8-2 17-3 25a239 239 0 0 1-20 71l-13 21c-5 7-7 15-11 22l-10 24a1220 1220 0 0 0-29 72l-11 24c-4 7-11 12-15 19l-13 22-24 44-10 22-3 9Zm152-382-9 6-8 8c-5 6-11 10-18 15-12 8-26 15-38 24-13 9-23 20-34 31l-33 33-36 31c-13 10-24 20-35 32l-33 35-32 36-35 34-17 16-15 13-2 2 4-5 10-17c11-15 26-28 39-42 25-27 40-61 65-88 13-14 29-25 45-36l48-33 23-15 21-18c13-12 26-25 42-34 15-8 30-15 41-28l15-24 7-13 7-10 1-2 1-1v1l-8 16-4 9a240 240 0 0 1-12 24ZM33 602l-2 1 1-1h1Zm149-384 1-1h6l21-2 41-1a187 187 0 0 1 59 10l20 8 20 8 10 2 8 2c-8 0-15-2-22-4-16-3-31-8-46-12-15-3-31-7-46-7-8-1-16 0-24 1a173 173 0 0 1-48-2l-7-2h7ZM433 18l-1 1v1l1-3v1Zm0 4v-1 4l2 26a113 113 0 0 1-9 50l-9 25c-3 8-4 17-5 26l-4 48-2-20-2-24a202 202 0 0 1 6-48l14-51 6-25c1-4 1-7 3-10Zm-30 204-3 3 1-2 6-19-4 18Zm402 6-16-2c-14 0-29 3-43 5h-43c-15-1-30-5-46-7-15-2-30-2-45-1l-45 4-45 4-43 7c-14 1-29 2-44 1l-29-2 29-1a324 324 0 0 0 120-18l19-4c7-2 14-2 21-2l43 2c29 3 58 7 87 8l21 1h21c14 1 27 2 40 5h-2Zm-408 31 4 24c3 16 4 32 6 49l9 50 14 48 13 48 4 24a416 416 0 0 0 23 98l9 23 8 24 6 25a416 416 0 0 0 14 48l-1-1c-6-13-15-26-23-40s-16-28-21-43c-11-31-12-64-19-96l-11-50-13-51-13-50a449 449 0 0 1-14-95l1-24-1-22-1-2 6 13ZM36 581a2640 2640 0 0 1 40-63l32-43c11-14 24-27 38-39 13-12 25-24 39-35l42-32 22-14 22-11a579 579 0 0 0 80-54l18-20-8 15c-5 7-10 15-18 20-6 6-14 10-22 14a155 155 0 0 0-42 30l-19 19-22 16-48 31-24 17-22 17c-27 24-43 58-66 86-11 15-25 27-37 42l-5 4Zm349-319-7 23-9 23-6 23-12 47a204 204 0 0 1-20 44l-13 22-11 21c-4 7-8 14-14 20l-15 19c-10 14-16 29-22 44l-19 47a757 757 0 0 1-28 67l-3 16 1-35c2-14 7-28 11-42l14-44c5-15 10-31 18-46l13-19 14-19 29-38 26-40c7-14 13-28 17-43l15-44 19-45 3-7-1 6Zm3-9 1-3v-4l1 5v1l-2 8v1-8Zm6-2-1-2 1 1v1Zm2 1-1-3c7 10 11 21 17 32 8 13 19 25 30 35l36 34c13 11 24 24 36 36 13 12 26 23 38 36l36 36 37 34a161 161 0 0 1 36 60c3 8 7 15 9 23 3 7 4 15 6 22l3 8v3l-1-2-6-13-8-17a316 316 0 0 0-43-62c-11-13-23-24-36-35-26-21-53-42-73-70-20-27-38-57-65-78-13-10-23-23-31-37-8-13-13-28-20-42Zm0-3a625 625 0 0 0 18 18c11 14 22 28 35 40 24 26 53 46 79 70l39 37c12 13 25 25 39 36a143 143 0 0 1 35 36 183 183 0 0 1 33 84 387 387 0 0 1 1 18c-3-15-10-29-16-44-6-14-13-28-23-41-10-12-22-24-34-35-26-23-49-49-75-72l-19-18-18-19-37-34c-12-11-25-23-34-36-9-12-13-25-21-37l-2-3ZM628 34l-2 1-13 11a504 504 0 0 1-30 19l-32 18c-10 6-20 12-29 20-17 15-27 36-40 55-14 20-34 35-51 51l-18 18-12 10 10-10 20-27c7-8 16-15 23-24l22-26 41-53c6-8 12-16 21-22 8-6 18-10 28-13 9-3 19-6 29-11l26-14 7-3ZM399 232l-1 1 1-1Zm-224-12a145 145 0 0 0 48 5l25-2c15 1 31 3 46 7l34 9h-17a298 298 0 0 1-69-3l-48-9-11-3-10-4-5-2 7 2Zm48 215c-12 8-25 16-35 27-10 10-17 23-25 35-8 13-17 26-28 36-11 11-25 18-39 25l-24 14 13-10c17-14 35-27 51-43 8-7 15-16 22-24l21-27c7-8 16-15 25-22l26-21 12-12 13-11 15-15c-14 18-29 34-47 48Zm87-92c-10 7-18 16-26 26l-2 3-23 25-25 22-25 22-13 10-12 10c-16 16-28 36-43 52s-33 30-51 43a498 498 0 0 0-32 26 1252 1252 0 0 1-20 15l-2 1 6-5 35-33 32-35a1782 1782 0 0 1 68-71l37-30c12-10 23-21 34-33 11-11 21-23 33-33s26-18 39-26c6-4 13-7 18-12l17-16 6-5-2 4-8 9-8 9-14 18-1 1c-5-3-13 1-18 3Zm22 3c0-3-1-5-3-6l14-16 15-18a99 99 0 0 0 17-30l4-10 7-14v1a820 820 0 0 0-34 88l-16 44c-7 15-16 29-26 42l-29 38-14 19-13 20c-5 6-8 13-11 20l-9 23-14 44-12 42a130 130 0 0 0-3 28c-1-16-5-32-4-48 0-26-2-54 10-77l22-41c6-13 11-27 19-40 4-6 8-12 14-17l17-14a392 392 0 0 0 49-65c1-3 2-6 1-10l-1-1v-2ZM196 646c-7-27-9-55-5-82 3-15 7-29 13-43l18-44c6-15 12-30 22-42 10-11 22-19 33-28 13-9 23-19 35-29 7-7 17-14 20-24l-1 2-5 11-14 20c-8 13-18 25-29 35-11 9-23 17-30 28-8 13-13 26-19 39l-22 41c-6 11-10 23-11 35-2 13-1 26-2 39l1 21 2 21 3 30v6l-9-36Zm103-102c-3 14-7 29-14 42s-17 25-26 36l-15 18-15 15-8 10 1-2 5-10 7-9c10-13 22-24 30-37a3315 3315 0 0 0 20-43l9-21 5-10 3-5 3-5-5 21Zm59-155c-8 26-9 54-23 77-7 13-17 25-23 38l-7 16-5 8-5 9-10 21-8 22-10 21c-8 14-19 25-29 37a149 149 0 0 0-18 27l-2 4-3 5h-1l5-11a1626 1626 0 0 0 36-68c4-8 8-15 14-21s10-13 13-20l10-24 20-49 20-48c7-16 19-29 25-45 6-14 10-30 13-46 2-16 2-32 7-48l2-6a416 416 0 0 0 8-21c-1 7-4 14-7 21a92 92 0 0 0-4 22l-1 22 2 23v2c-9 7-17 27-19 32Zm20-33-1-9a719 719 0 0 1-1-34l4-22 5-15v5c-2 16-4 33-2 49l5 24 1 3c-3-4-7-4-11-1Zm37 244c-10-27-14-55-18-83a665 665 0 0 1-3-128l1-12 7 51a772 772 0 0 1 6 78l1 25c2 17 8 33 13 48a287 287 0 0 0 59 113l14 19-37-38c-19-21-33-47-43-73Zm70-125c13 23 21 50 24 76a446 446 0 0 1 2 105 639 639 0 0 0-14-128c-2-10-5-20-10-29l-15-31-7-15-7-15-2-6 4 7c7 13 17 24 25 36Zm-56-113a507 507 0 0 0 39 100l15 31a357 357 0 0 1 22 89c3 22 5 44 5 67v15l-1 14c-1 9-2 19-1 28v9l-1-9-4-25-8-48-5-48c-1-16-2-31-6-46-4-16-10-30-16-44l-9-23-8-24-16-47c-6-16-12-32-15-48-6-23-9-47-15-70v1l6 11 6 12 5 11 4 10 2 2-2 2c-4 9 0 21 3 30Zm243 237-11-16-13-18c-9-13-19-24-30-35l-35-28c-13-10-25-20-36-31l-32-33c-19-22-35-48-49-74-4-7-26-50-38-35l-4-9-5-12-6-11-3-6a101 101 0 0 1-7-17l-2-7-4-10 12 27c6 14 15 27 26 38l17 16a534 534 0 0 1 48 59l15 20 16 18 37 32c13 11 27 22 39 35a327 327 0 0 1 59 80l7 14 5 14v1l-6-12ZM472 290c5 7 11 13 18 19l11 10 13 16c9 12 18 21 31 28l22 8c9 2 17 6 24 10 30 17 50 43 70 70 9 13 18 27 24 42 5 14 8 28 8 43 1 16-3 29-6 44l-3 35v9l-2-7 1-14a169 169 0 0 0-4-68c-3-16-7-31-12-45-6-15-14-29-24-41-11-13-23-24-36-34l-44-31c-15-11-30-19-44-31-14-11-28-22-40-35s-23-26-36-37c-14-10-29-20-42-31l-8-6 7 3 8 5 8 6a124 124 0 0 0 26 14l8 2c4 0 7 1 10 3l8 3c0 4 2 7 4 10Zm-3-19c-2 2-2 5-2 8l-6-3-8-3-9-2-8-3-18-10-8-6-9-5-6-3h2l4 2 6 3 10 3 20 4 20 3 19 4c-3 2-6 4-7 8Zm311-30c-14 5-27 14-41 21-24 13-51 16-79 15l-45-5-49-4-41-5c-11-2-22-4-33-3-5 0-10 1-14 3-6-3-12-4-18-5l-20-2a167 167 0 0 1-37-10l-2-1a148 148 0 0 0 27 3l45 5h43a459 459 0 0 1 86 9l43 6 21 1c6 0 13-1 19-3l19-5 19-5 38-14c7-3 13-5 20-5l1-1h24c-9 1-17 2-26 5Zm-279-22 12-5c17-8 31-21 49-27 10-3 20-2 30-5l27-7c21-5 41 2 60 11 22 11 44 22 67 29l37 8 25 7-28-6-22-4-23-5-45-11a224 224 0 0 0-119-1c-27 6-52 18-79 24a256 256 0 0 1-66 8l-20 2c5-2 10-2 16-3l18-4 18-4 16-1 4-2 4-2 6-5c1 2 3 4 5 4 3 1 6 0 8-1Zm-14-3-5 4-3 2-4 1-16 2-36 8-10 1h-1l6-3 7-2 10-3 17-5 18-9c3-2 5-4 9-5l5-3 3 12Zm89-112c-7 7-14 14-22 19l-25 17c-8 6-14 14-21 21-6 7-13 12-18 20-5 7-6 14-6 21l-6 3-7 5-17 9-18 6-9 2-7 2-7 4 3-2 11-8 26-19c16-12 31-25 45-40l21-23 23-19a310 310 0 0 0 45-42 473 473 0 0 0 21-22l6-5-19 25-19 26Zm38-65a279 279 0 0 1-42 19l-28 11c-9 5-16 12-22 20l-19 25-22 27-21 26-23 25c-8 8-14 17-21 26l-8 11 5-8 8-13a273 273 0 0 1 30-41l21-24c12-17 22-35 35-51 6-8 13-16 21-22 8-7 17-13 27-17l16-6 9-3a232 232 0 0 1 34-5Zm-32 3-6 1-13 5a124 124 0 0 0-51 35c-14 16-24 34-36 51l-19 24a431 431 0 0 0-41 55c-4 8-9 17-16 22l-3 2c4-3 7-9 9-14l3-4 11-22c7-16 15-31 25-46l15-20v-1a28 28 0 0 0 8-13 328 328 0 0 1 21-28 267 267 0 0 1 48-42l10-6h2c11-1 22 0 33 1Zm-94 39c14-18 32-35 56-39l-3 2a273 273 0 0 0-70 68 135 135 0 0 1 17-31Zm-31 51-10 14c-10 14-19 29-26 44l-11 24-2 4 2-8 4-10a230 230 0 0 1 17-36l10-17c1-3 3-7 3-11l2-8c2 2 4 4 7 4h4Zm-6-79v23l-9 36c0 5 0 11 3 15l-1 8-3 9-10 18a393 393 0 0 0-18 36v1l3-13a162 162 0 0 1 6-19c5-13 8-26 10-39l4-19a395 395 0 0 1 8-40 70 70 0 0 0-2-29l-2-9-1-7 5 11 7 18Zm-83 93a76 76 0 0 1 25-71l8-7-5 7c-6 9-11 18-15 28s-5 20-6 29c0 10 1 20 4 30 2 9 6 17 9 26l-7-9c-7-10-12-21-13-33Zm29 61-6-15-1-2-9-25a79 79 0 0 1-4-29 90 90 0 0 1 11-44l8-15 4-6 5-7 7-7-7 12-4 13-9 26c-4 17-7 35-2 52 3 16 11 32 11 48-1 5-1 11-3 16 1-6 0-12-1-17Zm-18 26-10-15-11-14-18-23a581 581 0 0 0-79-87l-23-21c-7-5-15-10-21-16l-4-3 2-1 1-3a628 628 0 0 1 139 146 1014 1014 0 0 1 22 31l10 8 2 1-6 4c-1-3-2-6-4-7Zm-71-25 1 1 25 18-2-1a319 319 0 0 1-17-10l-24-8-21-7a71 71 0 0 0-44 3 212 212 0 0 1-24 7l23-10c27-8 57-7 83 7Zm-113 26c-9-2-18-5-26-10l-14-10 13 6a202 202 0 0 0 21 7 390 390 0 0 0 117 14l22-1 7 1 5 1 12 3 5 1 5 1h10l4-1-2 1-2 1-13-1-24-3-14-1h-15a348 348 0 0 0-60 5l-3 1c-2-4-7-6-11-7-12-4-25-5-37-8Zm49 20v-5a210 210 0 0 1 59-5l15 1h14l25 3 10 1-8 2h-40c-12-1-24 0-36 2l-36 6-10 1c3-1 6-3 7-6Zm-107 6c25-1 50 1 75 2h-5c-14 0-27 1-41 3-24 3-49 3-73 10-12 4-24 10-34 17a291 291 0 0 1-20 11l17-17c23-18 52-24 81-26Zm119 38c-8-4-17-7-26-8-22-4-44 1-65 6-25 7-49 14-75 15-13 1-27 0-40 2l-15 3 11-3 16-5 19-4 19-3 19-4 38-9c12-2 25-5 38-6l40 3h41l33-1c11-2 22-6 32-11l18-10 16-9-7 4-9 6a275 275 0 0 1-25 15c-4 3-9 4-14 5-9 3-19 5-28 9-9 5-16 10-23 17 0-6-7-10-13-12ZM56 495c4-13 8-26 15-38s17-20 27-30c10-9 17-20 25-31 7-11 15-21 26-28 21-14 45-21 69-27 12-3 23-6 33-11 7-4 16-10 18-18l3-3a109 109 0 0 1 18-13c9-5 19-7 28-10l14-4 13-7c8-4 14-10 22-15l14-8c-10 11-22 21-34 29l-22 14-21 15-22 12c-8 4-14 9-22 12-15 8-30 13-44 22l-21 14-22 14c-15 9-29 19-42 30-26 23-43 53-59 84a5065 5065 0 0 0-39 77c10-26 15-54 23-80Z" opacity=".3"/></svg>