<svg xmlns="http://www.w3.org/2000/svg" width="748" height="756" fill="none"><path fill="#DCBF6F" d="M55 60c-26 34-43 76-44 119-1 22 1 43 8 63 7 21 18 41 30 60 13 18 28 36 47 48 10 7 20 12 31 16l20 5c4 1 14 2 13 8l-7 4c-16 6-33 2-50 4-23 3-44 12-63 26-12 9-23 21-30 35-8 13-12 28-9 43 3 9 8 15 13 23l16 31c10 22 15 44 22 67 8 31 24 67 55 80 19 8 38 4 58 5 9 0 20 2 28 7 6 5 10 13 15 20 1 2 5 1 5-1 0-6-1-11-3-15-3-11-9-20-15-29l-25-36a130 130 0 0 1-21-77c-1-17-1-34 3-51 2-6 6-15 14-17 5-2 10 2 14 7 9 12 12 28 16 42l6 20 11 42c6 28 11 56 19 84 7 24 20 47 44 58 20 9 42 5 62 0 21-6 43-12 64-2 3 2 6-4 3-5l-2-1c-6-3-8-9-9-15-2-7 0-14-1-22l-3-18c-4-13-12-25-20-36-17-22-38-41-57-61a204 204 0 0 1-53-91c-2-8-3-18-1-27 3-9 11-16 21-11a159 159 0 0 1 29 27c20 24 36 53 53 80 15 25 31 50 50 72 15 16 31 32 52 40 10 4 21 6 31 5 15-2 28-9 42-16 14-6 29-11 43-20 6-4 12-8 20-10l7-1h3l10 1c3 1 3-3 1-3l-17-9c-23-14-49-22-74-32-25-9-50-20-73-33-24-14-46-31-60-54-8-12-13-26-14-40l-1-22c1-5 3-9 8-11 11-3 25 2 35 7 11 5 21 14 30 22 18 18 33 39 49 59l25 27 24 28c15 16 34 32 56 36s46-1 64-14c12-8 22-18 34-25 12-6 25-6 38-7h2c1 1 1 0 1-1l-2-2-7-16c-4-12-6-23-5-36l4-33c0-10 0-21-4-31s-11-18-19-25a137 137 0 0 0-19-15c-28-18-62-27-96-28-22-1-45 1-67 1-17 1-54 1-48-25 5-17 24-25 39-29 23-6 47-10 71-9 22 1 41 10 60 19 21 11 43 22 61 37 1 1 3-1 2-2l-14-17c-8-13-12-27-14-41-2-13-3-26-7-39-4-12-10-22-20-30-9-8-19-13-29-17-22-8-45-9-68-6-27 5-52 17-74 32-24 16-46 35-71 49-11 6-23 12-35 15-9 2-18 4-27 1s-12-11-10-20c3-9 9-17 15-24l23-27 32-28c31-22 75-33 112-23 6 3 12 6 19 7 2 0 3-3 1-4l-15-6-2-1-6-4c-7-4-14-8-20-14-12-12-19-27-30-40-17-19-41-30-66-34-25-5-53-5-79 1-14 4-27 10-36 22-6 6-10 14-14 21l-13 22c-4 7-8 15-14 21l-17 16c-6 6-12 12-19 16-7 5-14 11-22 12h-3c-2 0-4 0-4-2-1-4 2-8 1-12l-1-14 2-14 6-31c2-9 4-19 8-28 3-9 7-18 13-26 10-16 24-30 39-41 11-8 24-16 37-19 5 1 11 1 15-2 1-1 0-3-1-3l-12 1-3-1c-12-2-23-5-35-9-12-5-23-12-34-18-20-11-41-16-64-15-42 3-81 27-107 60Zm644 293-7-8-28-34c-17-17-37-31-60-37-27-7-54-2-79 7-28 10-53 25-78 41-13 9-26 18-40 25-5 3-11 6-18 8-5 2-11 4-17 4h-3l12-6 17-11 27-22a421 421 0 0 1 60-37 325 325 0 0 1 65-21c10-2 21-2 32-3 22 0 43 2 64 4l1-2h-9c-21-2-42-4-63-3a196 196 0 0 0-64 13 321 321 0 0 0-90 51l-26 20-18 11-10 5h-1l-17-2 6-2c4-2 8-3 11-6l11-8 22-14v-1l-13 7-21 16a67 67 0 0 1-19 8 426 426 0 0 0-15-2c6-3 12-8 17-13 6-5 12-9 19-10l-1-1c-3 0-7 2-10 4l-17 13-9 6-6 1h-27l8-3c15-7 27-17 38-28 1-1 0-1-1-1a246 246 0 0 1-28 23 102 102 0 0 1-21 9h-10c10-6 18-14 25-23l11-15 9-17c6-12 13-23 22-33a252 252 0 0 1 46-42c5-3 11-6 16-11h-1l-4 2-16 11-17 13a189 189 0 0 0-49 62c-6 11-12 22-20 32-7 8-15 16-25 21l-16 2 1-1 11-8 7-10 4-11a210 210 0 0 1 30-58 247 247 0 0 1 137-81v-1l-6 2a252 252 0 0 0-135 83c-11 14-18 30-24 46l-4 12-5 11c-5 7-12 11-18 16l-14 1c7-4 13-9 17-15 3-3 5-7 6-10l4-13a283 283 0 0 1 21-53 162 162 0 0 1 116-89l-6 1c-8 1-15 4-22 6a169 169 0 0 0-92 86 239 239 0 0 0-19 53l-5 12-7 10-15 13-11 2 16-17 7-11 8-6c5-5 7-11 4-17 11-24 18-49 29-73 12-27 29-54 58-67 13-6 29-8 44-7 14 1 28 4 41 8l41 10 20 5 15 5 2 2c-17-3-34-1-51 3-24 5-45 17-64 32-19 16-35 35-50 55-5 7-11 15-11 24s5 16 14 19c8 3 18 2 27 0 12-3 23-8 33-13 27-14 49-34 73-50s49-30 78-34c24-3 49-1 71 9 12 5 23 12 31 22 8 12 11 26 13 40a189 189 0 0 0 15 54Zm-502 57-3-7c-3-8-7-16-15-20l10-2 3 2c6 4 14 10 16 18 1 3 0 3-2 4h-3c-2 1-7 2-6 5Zm-39-27 6-5 15-2c23-5 46-12 69-14a453 453 0 0 1 171 12c38 11 75 27 109 46 38 21 73 47 109 72l11 8-19-13-60-36-60-34c-37-19-77-34-118-44-37-9-76-12-115-10-40 2-79 12-118 20Zm152 20c-5-7-11-14-17-19l-14-10-10-6 22-2 7 4 10 8 6 6-2 2c-7 4-6 11-2 17Zm7-15h1c13-5 22 6 24 18 0 3 0 7-3 8l-2 1-2-1-3-1c-6-3-12-7-17-12-4-5-4-10 2-13Zm-95-26 3-3c5-8 9-17 12-26 2 2 4 3 7 3l9-2-8 12c-5 5-10 11-17 15l-6 1Zm17-33-1-2-1-6-1-4v-1c3-7 9-15 17-15 5 0 10 4 13 9a11 11 0 0 1 0 7l-3 6-6 4-9 4c-3 0-6 1-9-2Zm443 77a329 329 0 0 0-79-9c-16 1-31 4-47 6a293 293 0 0 1-47 2l-3-1-8-4h-1l-5-3c9 1 17 0 26-1s19-2 28 0c1 1 1 0 1-1l-16-1-28 2h-14l-39-16 12-2c6-1 11-2 17-1v-1h-9c-6 0-11 2-17 3h-6l-33-10h1c16-1 29-11 40-20l19-15c7-4 13-8 21-11 18-7 37-13 56-17a112 112 0 0 1 50 1c16 4 31 10 47 13v-2l-6-1-47-13a110 110 0 0 0-50 2 312 312 0 0 0-42 12l-13 5c-7 3-13 8-19 12l-19 15c-12 10-26 18-42 17h-3l-7-2c8 0 15-4 22-8 8-5 14-11 21-17l10-7a257 257 0 0 1 45-24 234 234 0 0 1 32-12l-4 1a224 224 0 0 0-62 26 282 282 0 0 0-23 16l-22 17c-7 4-15 8-24 7l-16-3 1-1 17-5 19-10 40-25a401 401 0 0 1 77-39c13-4 27-7 41-8 12 0 25 2 37 6 23 7 42 23 58 41l28 33 8 9 1 2-2-2a421 421 0 0 0-92-44c-11-3-22-3-34-2a259 259 0 0 0-65 12c-14 6-31 17-32 34 0 23 30 24 46 25 24 0 47-3 71-2a211 211 0 0 1 84 21Zm57 153-1-1-27-19a2657 2657 0 0 0-85-59c-36-25-72-51-110-71l-4-2 15 1 33-3a304 304 0 0 1 130 6c11 5 20 13 28 22l1 1-27-11a181 181 0 0 0-63-8l-31 1-31-1v1h4l30 1 31-1a213 213 0 0 1 63 10l26 10a57 57 0 0 1 13 44h-2c-11-4-20-10-30-17a569 569 0 0 0-30-17c-11-5-21-9-32-12-10-3-21-5-32-6s-22 0-34 2l1 1 4-1a134 134 0 0 1 65 7c11 3 21 8 31 12 11 5 20 12 30 18a184 184 0 0 0 29 14l-2 18-2 25a105 105 0 0 1-22-12c-14-8-26-19-39-29-14-10-28-19-44-24v1c9 3 17 7 25 12 14 8 27 19 40 29a216 216 0 0 0 31 20l9 4 1 9c1 9 4 17 8 25Zm-69 39h-5c-7 0-15-3-22-5a155 155 0 0 1-69-39c-15-14-27-31-36-49-10-18-18-36-26-53-8-16-17-33-32-44l44 21c39 22 78 45 116 70l53 34 27 18 21 12v2l-11 1-18-4-24-11a700 700 0 0 1-54-32c-8-6-16-12-25-16v1c10 4 18 12 27 18a590 590 0 0 0 79 41c3 2 7 2 10 3-11 1-20 6-29 12h-2c-12-2-23-8-35-12a199 199 0 0 1-67-47c-10-10-20-21-28-33-7-10-14-22-25-29v1l4 3c10 8 16 20 24 31a226 226 0 0 0 79 69l17 8c10 4 21 9 32 10l-5 3-20 16Zm-62 36-7 1h-1l-3-1c-18-2-36 0-54 0-15-1-30-2-45-7-28-10-52-27-73-47-24-23-44-49-63-76l-35-49-29-41c-7-10-14-21-23-30-5-6-12-12-21-15l13-1 15 9 13 11c9 8 16 18 22 27l22 31 12 15 11 16 5 7 6 7c4 5 8 9 11 15 1 0 2 0 1-1l-2-4-12-14c-4-4-7-10-10-15l-23-30-12-16-10-15-5-7v1c6 6 15 12 23 14h4c8 10 17 20 28 27l1-1a92 92 0 0 1-28-26c5-2 7-7 6-13-1-4-2-8-5-12l-5-6v-1c-4-5-14-6-20-3l-9-9-8-6-5-3 23 1 14 10 13 11 11 15c6 11 13 21 23 28l1-1c-6-4-11-9-15-14l-10-16c-3-5-6-10-11-15-3-4-8-7-13-10l-12-8c13 0 25 1 37 3 4 2 8 5 11 9 9 8 15 17 22 27 7 9 14 17 25 23v-1l-15-12-21-27c-6-7-12-14-20-19l35 7 2 1 21 14 20 16c13 12 25 26 36 40l34 44c12 14 22 30 33 45l15 19c5 6 10 12 17 16v-1l-4-4c-7-5-12-11-17-17l-15-21-16-22-16-22-18-22-16-22c-12-14-24-27-37-39-11-10-24-16-36-24a463 463 0 0 1 43 13l15 11c9 7 15 17 22 26 7 8 14 17 23 24l1-1-14-13-21-27c-6-7-14-14-22-19a553 553 0 0 1 38 16l5 5c13 14 22 31 29 48a1612 1612 0 0 0 28 54 212 212 0 0 0 38 46 163 163 0 0 0 70 36l11 3h6l-10 5c-22 9-48 8-68-4-22-13-38-33-54-52l-25-28-25-31c-16-20-34-40-56-52-11-5-22-9-34-8-5 0-10 2-13 6-3 3-4 8-4 13 0 14 1 28 5 41 5 14 13 26 23 38 17 20 40 35 64 47 25 12 50 21 76 30l41 16 22 13ZM389 734c-8-10-18-18-29-23-12-7-26-12-37-20-13-9-22-21-30-33l-22-41c-13-29-25-59-36-88-11-30-19-60-29-89l8 2 6-2 1 7a594 594 0 0 0 27 81 298 298 0 0 0 21 38l-3-5a344 344 0 0 1-34-80l-11-41v-1c4-2 6-6 7-11 1-10-6-26-17-24-5-10-12-18-21-23l9-2 14 11a92 92 0 0 1 19 29c5 11 9 23 16 32h1l-10-18c-4-11-9-23-16-32a97 97 0 0 0-22-22l15-3 14 9 11 13 10 15c6 11 12 22 21 30l1-1-13-16c-7-10-12-22-20-31-6-8-13-15-22-20l21-3 6 5c11 10 19 21 27 33l26 36 29 35 23 33 38 56c14 18 29 35 46 49s36 25 58 30v-1l-8-2c-21-7-40-19-56-34-17-15-31-33-45-51l-37-56c-16-25-36-47-55-70l-25-35c-7-11-16-21-26-29l10-1 4 1c12 5 20 15 27 24l21 29 34 48 35 49c18 25 38 49 62 69 22 19 46 35 74 42 29 7 59 2 88 5l-14 7-20 11-23 10-23 11c-12 5-26 7-39 4-11-2-21-8-30-14-21-14-37-35-52-55-19-27-35-56-53-84-9-13-18-27-28-39-8-10-18-21-29-28-8-6-18-5-24 3-6 6-7 15-6 23a201 201 0 0 0 17 55c13 26 33 47 53 67s42 41 55 67c7 13 10 27 9 41-1 6 0 12 1 18ZM209 406c6-1 11 3 13 9 3 5 4 13 0 19l-2 1-1 1c-4 3-10 1-14-2l-4-4-1-1c-2-3-4-6-3-10l1-5c3-3 7-4 9-7l1-1h1Zm-5 300a45 45 0 0 0-11-17c-5-4-9-9-15-12l-15-12a254 254 0 0 1-62-76 132 132 0 0 1-6-107l16-32a850 850 0 0 1 32-50c3-3 7-7 8-12h4l-2 1c-6 12-12 24-16 37l-15 37-8 18a110 110 0 0 0-4 58c3 13 7 27 7 41h2l-1-5c-1-14-5-27-7-41a114 114 0 0 1 6-57l8-18 15-37c4-12 9-24 16-35h3a77 77 0 0 0-8 23c-3 15-3 31-4 47 0 15-2 31-7 46l1 1c3-9 5-17 6-26l3-47a157 157 0 0 1 6-35l4-10h4l1 21c1 13 6 25 10 38 4 12 7 24 8 37h1l-3-21-11-37c-2-6-4-13-4-19l-1-19 6-2 3 6 2 12 4 16 8 31a2032 2032 0 0 1 42 122c7 21 13 42 22 62 4 10 8 19 14 28 6 8 13 16 18 25h1l-4-7c-6-8-13-16-18-25-6-9-10-20-13-30l-22-62-21-62c-8-20-15-41-20-62l-8-32-4-13c0-3-1-7-3-9l4-1 4 3c8 7 11 17 14 27-2 4-2 10 0 15l8 9 6 18 13 45 16 44a887 887 0 0 0 60 125c8 11 19 21 31 29 12 7 25 11 37 18 9 6 18 14 24 22-22-4-43 5-64 9-22 5-45 4-62-11-23-20-29-50-35-78-8-29-13-59-22-87l-7-23a324 324 0 0 0-16-43c-3-4-7-9-13-10-15-3-21 19-23 29l-2 28v27c1 14 3 27 7 40 5 14 12 26 20 37 8 12 17 23 24 35l8 15Zm-57-318-3 1-8 3-4 1-20 5-11 3a166 166 0 0 0-47 22c-7 5-14 11-20 19l-5 12-1 7-1 9c0 11 2 23 5 35s9 24 15 35l16 30c4 9 8 20 7 30h1v-7c-1-11-5-21-10-30l-7-14a282 282 0 0 1-23-53 120 120 0 0 1-1-42l3-6 8-11a146 146 0 0 1 78-38l12-4a132 132 0 0 0-27 22 149 149 0 0 0-31 47 95 95 0 0 0-7 53 192 192 0 0 0 14 54l7 15 7 13c4 8 7 18 6 27h1l1-6c-1-10-5-18-9-26l-7-14-6-15c-7-17-12-35-13-53v-27a148 148 0 0 1 69-92l4-1c2 0 5-1 7-3h1l-3 4-5 6-6 8-11 17-19 33-15 33a139 139 0 0 0 13 107 256 256 0 0 0 65 74l16 11 14 14 6 11c-4-5-9-8-14-11-9-3-19-4-28-4-20 0-40 3-58-6-15-8-26-21-34-37-9-16-13-34-17-52a227 227 0 0 0-39-95c-5-6-7-13-7-21-1-15 7-30 16-42a123 123 0 0 1 73-46c8-2 17-3 26-3 8 0 18 0 26-2Zm29-18c3-5 4-11 3-17l-2-23c-2-16-6-31-10-47-8-31-18-61-22-93-1-15-2-29-1-44 0-14 2-27 6-40 5-13 12-26 23-34 11-9 24-14 38-17s28-4 42-4l20-1 6-1a172 172 0 0 0-69 64c-5 10-9 19-12 30l-6 31c-3 11-5 21-5 32 0 7 2 14 1 20-1 4-1 8 2 10l7 1 2 1c8-2 16-8 23-13 8-5 14-11 20-17 7-6 13-11 18-18 6-7 11-15 15-23l13-22c5-7 9-15 15-20 11-11 26-17 41-19 26-4 54-3 79 4a95 95 0 0 1 62 44c7 10 14 21 23 29l-33-7-41-11c-14-4-28-6-43-6-14 0-29 4-42 11-27 14-44 42-55 69-10 22-17 45-26 66-5-6-12-9-20-7l1-1c8-23 16-46 26-68 10-20 21-41 39-56a112 112 0 0 1 64-27 174 174 0 0 1 65 4l1-1-8-2c-22-4-44-5-66-1a115 115 0 0 0-62 30c-16 16-27 37-36 57-9 22-18 44-25 66l-7 5-4 6c-2 5-5 9-4 15l4 8-1 2c-3 10-8 20-14 27l-11 3 4-6 4-10 7-26 5-34c2-11 5-21 9-31l14-27c1-1 0-2-1-1l-2 3a223 223 0 0 0-18 42l-4 16-5 34a184 184 0 0 1-11 35c-1 2-3 5-6 6l-10 2c5-6 8-14 9-22 2-16-1-31 0-47l2-14 4-12 11-24-1-1-12 27c-3 8-5 17-5 26v25c1 14 0 30-9 42v1l-6 1 5-18 1-21-1-22c-1-13-2-28 1-41h-1c-2 7-2 15-2 23l1 21a995 995 0 0 1-1 42c-2 6-4 11-4 17l-9 2 2-6c6-18 2-38-1-56-3-23-9-45-13-67-4-21-6-43-5-64a136 136 0 0 1 25-73l11-11 24-19v-1l-7 5-23 19c-8 8-13 17-18 26a132 132 0 0 0-14 59c0 22 2 44 7 65l7 33a549 549 0 0 1 9 62c0 10-2 19-5 28l-5 1 3-4ZM73 51c29-30 70-48 112-42 10 1 21 4 30 9l35 17c11 5 23 7 35 9l-3 1c-7 2-14 2-20 2l-20 1c-14 1-28 3-42 7s-27 10-36 21c-10 10-15 23-19 36a277 277 0 0 0-2 85c6 32 15 63 23 93a363 363 0 0 1 11 69c-1 6-2 12-7 16l-4 1 1-5c2-8 2-15 1-23l-4-13-5-15-23-61a264 264 0 0 1-16-91c0-10 0-19 2-29 3-18 10-35 15-52 1-1 0-1-1-1l-2 7c-6 17-12 34-15 52l-1 30 2 31c3 20 10 39 17 58l22 61c4 9 7 18 8 28 1 7 0 15-2 22v-5c-1-11-7-21-13-30l-11-14-10-17c-16-26-27-55-35-84-7-23-11-47-8-71 2-12 5-23 9-34 6-13 13-24 22-34 19-19 44-30 67-42v-1l-9 5c-24 11-48 23-65 44-9 10-14 22-19 34-4 11-6 22-7 34-2 25 3 49 10 73 9 29 21 57 37 83 6 10 14 19 21 29 5 9 11 20 10 31l-1-1v-1l-2-8-7-7-15-11a4306 4306 0 0 1-51-38 131 131 0 0 1-37-59 126 126 0 0 1-5-63 241 241 0 0 1 14-52c-8 19-14 38-16 59-2 10-2 20-1 30l8 32c5 11 10 21 17 31 6 9 14 18 22 25 8 8 17 14 27 20l22 16 16 13c3 2 7 7 7 11l-7-5c-13-3-25-5-37-10-10-5-20-11-29-18a214 214 0 0 1-68-113A202 202 0 0 1 73 51Z" opacity=".3"/></svg>