<svg width="173" height="197" viewBox="0 0 173 197" fill="none" xmlns="http://www.w3.org/2000/svg">
<path d="M115.803 175.481C115.351 175.753 114.718 175.98 114.04 175.98C113.588 175.98 113.136 175.889 112.638 175.708C110.287 174.711 108.84 171.402 107.981 165.283C105.947 150.778 114.989 143.888 115.396 143.616C116.346 142.891 117.702 143.118 118.38 144.069C119.058 145.021 118.877 146.381 117.928 147.061C117.611 147.288 110.558 152.818 112.231 164.648C112.864 169.271 113.768 170.948 114.13 171.492L126.97 164.331C126.97 164.331 165.988 146.2 171.458 138.268C176.929 130.29 166.892 129.701 156.267 112.567C149.305 101.281 148.039 94.255 139.177 80.6569C130.587 67.4667 127.377 64.7017 121.5 55.8629C115.622 47.0242 114.447 35.919 114.447 35.919L114.221 3.60079C49.9753 -14.1221 -15.8524 34.9672 3.40766 120.273C22.6677 205.578 133.435 196.74 133.435 196.74L125.117 170.269L115.803 175.481Z" fill="#0A483A"/>
</svg>
