<svg width="264" height="267" viewBox="0 0 264 267" fill="none" xmlns="http://www.w3.org/2000/svg">
<g opacity="0.5" clip-path="url(#clip0_88_901)">
<path d="M217.461 72.6795C215.678 70.6077 214.509 68.4437 214.026 66.0317C213.46 63.391 211.188 61.7545 210.362 59.4666C208.76 55.3895 205.909 52.1515 203.297 49.2153C192.931 37.6993 179.708 30.4481 164.534 26.7464C156.288 24.6811 147.914 23.6962 139.372 23.6774C131.371 23.7221 123.566 23.9543 116.149 27.4087C114.818 28.0189 113.559 28.4734 112.145 28.8547C104.274 31.0508 97.5627 35.0264 91.3058 40.2604C82.6021 47.6712 74.5308 55.7588 69.7168 66.4204C68.2551 69.5347 66.6377 72.5758 65.3317 75.7632C62.939 81.6707 61.1279 87.7562 60.5529 94.0418C60.3496 96.7016 60.2607 99.3201 60.2862 101.897C60.3116 104.474 60.3785 107.166 60.5597 109.816C60.8426 113.464 61.3543 117.03 61.866 120.595C62.5017 124.504 62.8673 128.381 64.6882 131.991C64.7709 132.219 64.8122 132.334 64.8948 132.563C67.0971 137.587 67.968 143.221 71.5431 147.749C73.1289 149.633 72.6078 150.339 70.4755 151.238C66.8561 152.675 62.8743 153.466 59.8651 156.234C59.0007 157.063 57.2021 157.454 55.966 157.254C52.9534 156.79 50.0204 157.979 48.136 159.565C44.7009 162.228 40.7891 164.287 37.4684 166.909C36.2609 167.862 36.4484 167.665 37.4748 168.717C41.1357 172.05 45.788 173.474 50.1067 175.406C52.8682 176.607 55.5471 177.579 57.5682 179.953C58.4389 180.932 60.0278 181.392 61.4642 180.356C63.0213 181.087 64.464 181.859 66.0212 182.59C66.4883 182.81 67.4861 182.708 67.4543 182.978C68.4554 186.108 71.665 186.759 73.7084 188.478C75.793 190.312 76.2888 191.685 74.2996 193.696C73.2478 194.723 72.4978 195.511 72.536 197.049C71.8178 197.567 70.7152 198.094 70.3084 198.759C68.1795 202.89 66.3619 207.167 64.2742 211.413C63.9088 212.191 63.5751 212.7 64.9988 212.703C69.5811 212.858 74.1953 212.744 78.5519 211.558C81.2657 210.837 83.6777 210.354 86.4932 210.63C88.8829 210.802 91.4283 211.046 93.7893 210.064C97.2944 208.669 100.822 206.62 104.514 209.683C104.67 209.756 104.826 209.829 105.096 209.861C110.813 209.219 116.784 211.071 122.122 207.591C123.257 206.794 124.753 206.641 126.126 206.145C127.572 205.494 129.38 205.487 129.831 203.514C133.638 201.881 135.755 198.789 137.591 195.28C138.802 192.903 140.194 193.176 142.393 194.969C144.042 196.313 143.226 199.065 145.739 199.58C149.791 204.712 155.479 207.571 161.377 209.58C164.441 210.542 167.701 211.693 171.486 210.714C174.428 209.91 177.927 211.362 181.038 209.592C181.267 209.509 181.775 209.843 182.087 209.989C186.936 211.6 191.922 212.515 197.15 212.308C197.919 212.289 198.761 212.114 199.384 212.407C203.95 215.025 209.012 214.361 213.884 215.317C215.701 215.695 216.223 214.99 215.53 213.429C213.08 207.719 212.606 201.036 206.962 196.867C206.651 196.721 206.673 196.066 206.549 195.723C206.136 194.579 205.297 193.33 205.465 192.364C205.716 191.627 207.4 191.277 208.306 190.562C209.326 189.806 210.264 188.821 211.201 187.836C211.805 187.359 212.285 186.539 212.857 186.333C220.083 184.499 226.089 180.002 233.15 177.711C237.309 176.338 241.148 174.434 244.863 172.187C246.153 171.463 245.187 171.295 244.596 170.732C239.721 166.544 234.535 162.21 228.376 160.554C223.651 159.286 219.666 156.846 215.274 155.07C212.824 154.015 212.112 151.685 213.167 149.235C213.71 147.875 214.295 146.63 214.994 145.343C219.449 137.268 221.537 128.367 222.502 119.224C223.872 106.186 223.785 93.4143 219.511 80.8622C219.18 79.9471 219.234 79.0223 219.018 78.0658C218.554 76.4229 218.726 74.0332 217.461 72.6795ZM71.0516 182.196C71.042 181.812 70.3778 181.405 69.7963 181.227C66.8155 180.493 63.8761 179.873 60.9366 179.254C57.6158 177.22 54.3681 175.031 50.9741 173.153C49.5314 172.381 47.9743 171.65 46.0835 171.427C44.037 171.132 42.1811 169.216 40.1886 167.996C41.625 166.96 42.9469 165.965 44.4658 165.158C48.1075 163.067 51.5013 160.289 55.7436 159.145C57.8187 160.594 60.2115 159.342 61.2633 158.315C64.0025 155.516 67.6093 155.118 70.7711 153.847C73.5898 152.7 73.6311 152.814 75.8588 155.76C78.5218 159.195 81.1436 162.516 83.9942 165.754C84.0355 165.868 84.3373 165.63 84.5661 165.547C84.9888 167.076 84.0323 167.292 82.9519 167.165C77.9659 166.25 73.0626 165.564 68.0418 166.342C65.436 165.214 62.827 165.51 60.3516 166.533C59.0741 166.219 53.2747 166.632 51.5174 167.137C50.4305 165.202 49.2834 167.039 48.1712 167.182C48.4095 167.484 48.5017 168.097 48.7718 168.129C49.8522 168.256 50.8914 168.268 51.9305 168.281C54.5077 168.256 57.0435 168.116 59.6207 168.09C60.5041 168.03 61.3876 167.969 62.4267 167.982C64.0791 167.903 65.7729 167.938 67.3109 167.899C71.2069 168.303 75.1028 168.706 78.9988 169.11C80.8896 169.332 82.7581 170.209 84.6203 169.278C86.5619 169.999 88.5036 170.721 90.3308 171.483C91.6909 172.027 92.9271 172.227 90.6582 173.822C89.6381 174.578 88.5037 175.376 87.3279 176.059C86.7972 176.38 86.5462 177.118 86.2539 177.74C83.2986 179.584 80.7787 181.916 79.5141 185.218C78.7514 187.045 78.0015 187.833 76.0503 186.727C73.9847 185.663 71.3567 185.19 71.0516 182.196ZM137.308 191.632C134.512 196.78 131.125 201.366 125.643 203.733C122.824 204.881 119.923 205.799 117.063 206.832C115.004 207.576 113.215 208.351 110.797 207.026C109.354 206.254 107.107 207.195 105.258 207.087C104.333 207.033 102.795 207.071 102.63 206.613C101.451 204.065 99.7856 205.183 98.184 205.762C93.2744 207.923 88.3362 208.93 82.9244 207.91C81.6883 207.71 80.2837 208.476 78.984 208.816C76.1145 209.464 73.3594 210.071 70.4073 210.491C69.0663 210.717 68.2591 209.198 68.8437 207.952C70.2228 204.609 71.6432 201.38 73.0222 198.037C77.0706 195.282 78.437 192.978 80.6486 189.076C82.7872 185.329 85.3928 181.802 89.1394 179.285C89.67 178.964 89.9211 178.227 90.2134 177.604C91.4305 177.035 92.8541 177.038 93.7407 175.554C93.9599 175.087 95.8094 175.195 96.7023 175.519C97.9067 175.989 98.7457 177.238 99.877 177.864C102.918 179.481 106.106 180.787 109.22 182.249C109.531 182.395 109.884 182.656 110.081 182.843C109.779 183.082 109.674 183.507 109.331 183.631C108.8 183.952 108.187 184.044 107.615 184.251C105.899 184.871 104.142 185.376 102.467 186.11C100.948 186.917 99.6262 187.912 98.1899 188.948C95.6827 190.241 93.1024 191.691 90.5952 192.984C87.7956 194.9 85.0691 196.661 82.2696 198.577C80.2708 200.204 78.1163 201.758 76.1175 203.385C75.8157 203.624 75.8665 204.123 75.7617 204.548C76.1462 204.539 76.572 204.644 76.8739 204.405C77.8939 203.649 78.8726 202.778 80.0071 201.981C81.2559 201.142 82.7018 200.49 84.0333 199.88C84.0333 199.88 83.9093 199.537 83.8267 199.308C87.8084 198.517 90.6111 195.177 94.4276 193.928C94.542 193.886 94.4498 193.273 94.4403 192.889C96.6138 192.104 98.9431 191.392 101.075 190.492C101.533 190.327 101.743 189.475 102.035 188.853C104.666 187.902 107.412 186.911 110.043 185.961C113.287 184.918 116.322 184.727 119.551 186.148C123.402 187.861 127.641 188.14 131.766 188.461C133.231 188.578 134.779 188.925 136.212 189.312C137.261 189.71 137.934 190.501 137.308 191.632ZM212.085 211.053C212.581 212.425 211.79 213.099 210.668 212.858C208.237 212.572 205.869 211.745 203.438 211.46C199.927 211.047 196.698 209.626 192.821 209.992C189.443 210.306 185.738 208.282 182.363 207.173C180.93 206.786 180.142 206.036 178.642 207.612C177.069 209.344 174.317 208.527 172.074 208.044C171.108 207.876 170.049 207.094 169.363 207.342C166.773 208.407 164.622 208.537 161.975 207.295C159.95 206.345 157.456 206.599 156.131 204.362C149.432 202.643 147.087 196.507 143.2 191.832C142.92 191.416 142.663 190.345 142.892 190.262C143.381 189.827 144.182 189.538 144.836 189.56C149.835 189.436 154.761 189.468 159.524 187.618C162.041 186.709 164.866 187.37 167.529 186.15C168.403 185.705 170.084 186.779 171.403 187.208C171.87 187.427 172.493 187.719 172.96 187.939C173.427 188.158 174.05 188.45 174.517 188.669C174.984 188.889 175.607 189.181 176.074 189.4C176.541 189.62 177.164 189.912 177.631 190.131C178.098 190.35 178.721 190.643 179.188 190.862C179.655 191.081 180.278 191.374 180.745 191.593C182.302 192.324 183.86 193.054 185.417 193.785C188.312 195.714 191.134 197.799 194.029 199.728C195.243 200.582 196.342 201.478 197.556 202.333C198.77 203.188 199.87 204.084 201.083 204.939C202.256 205.679 203.387 206.305 204.56 207.046C204.716 207.119 205.329 207.027 205.402 206.871C205.393 206.486 205.456 205.946 205.259 205.759C204.16 204.862 202.987 204.122 201.814 203.382C200.6 202.527 199.501 201.631 198.287 200.776C197.073 199.921 195.973 199.025 194.759 198.17C192.459 195.38 189.157 194.116 186.148 192.228C184.466 191.154 182.744 189.966 181.063 188.892C180.596 188.672 179.973 188.38 179.506 188.161C179.039 187.942 178.416 187.649 177.949 187.43C177.482 187.211 176.859 186.918 176.392 186.699C175.924 186.48 175.302 186.188 174.835 185.968C174.367 185.749 173.745 185.457 173.277 185.237C173.611 184.729 173.821 183.877 174.351 183.556C177.701 182.088 181.257 181.192 184.39 178.767C187.18 176.466 188.311 177.092 191.422 179.978C195.28 183.499 198.982 186.946 200.498 192.218C200.797 193.404 201.938 194.414 202.923 195.351C207.455 199.664 209.978 205.218 212.085 211.053ZM217.553 158.514C219.99 160.608 222.825 161.654 225.847 162.502C230.842 163.802 235.221 166.617 239.527 169.588C240.938 170.63 240.643 172.677 239 173.141C230.973 175.264 224.166 180.05 216.419 182.589C215.046 183.085 213.651 184.235 211.897 183.317C211.077 182.837 210.441 183.584 210.241 184.82C209.8 187.178 205.866 189.892 203.86 189.711C203.476 189.72 202.999 189.117 202.678 188.586C200.028 184.112 196.627 180.426 192.811 177.019C191.276 175.634 191.457 173.629 193.132 172.894C195.035 172.078 196.907 171.531 198.852 170.829C198.934 171.058 199.058 171.401 199.058 171.401C204.473 170.997 210.002 170.552 215.376 170.034C216.31 170.472 220.238 170.606 221.922 170.256C222.857 170.695 226.784 170.828 228.468 170.478C229.555 172.414 230.702 170.577 231.815 170.434C231.576 170.132 231.484 169.519 231.214 169.487C230.134 169.36 229.094 169.347 228.055 169.334C226.279 169.071 224.429 168.963 222.653 168.699C220.502 168.829 218.312 167.422 216.107 168.477C210.984 168.258 205.82 167.924 200.726 168.858C200.342 168.868 199.957 168.878 199.532 168.773C199.71 168.191 199.69 167.422 200.034 167.298C204.05 164.813 205.982 160.494 209.252 157.374C210.304 156.347 210.885 156.525 212.153 156.455C214.387 156.554 216.173 157.202 217.553 158.514ZM216.301 80.2109C218.66 89.9634 220.331 99.9638 220.236 110.085C220.24 117.972 218.425 125.481 216.881 133.022C216.567 134.3 215.515 135.326 214.775 136.499C214.981 137.071 215.499 137.789 215.394 138.215C212.595 144.786 209.401 150.983 204.962 156.595C200.857 161.699 196.16 166.24 190.872 170.219C188.114 172.249 185.035 173.749 182.235 175.666C176.522 179.54 169.941 181.011 163.649 183.283C160.446 184.44 156.985 184.526 153.575 185.111C153.575 185.111 153.451 184.768 153.369 184.539C150.185 186.465 146.581 185.438 143.203 185.753C136.603 186.456 130.517 184.644 124.222 183.685C123.796 183.58 123.32 182.976 122.926 182.601C120.377 183.78 117.99 182.185 115.779 181.432C110.732 179.634 105.937 177.098 101.069 174.718C100.446 174.426 100.23 173.469 99.8673 172.824C96.0858 172.379 94.0138 169.507 91.3063 167.381C85.7037 163.326 81.9029 157.457 77.4253 152.22C75.3629 149.732 74.0917 146.57 72.7474 143.564C71.6923 141.359 71.4698 138.594 70.0397 136.783C68.3713 134.669 68.813 132.312 67.9136 130.179C66.9729 127.933 65.9178 125.727 65.4348 123.315C64.2334 116.766 62.8032 110.299 63.3273 103.515C63.6164 99.6601 63.7084 95.6179 64.1119 91.722C64.6647 86.0909 66.3805 80.8158 68.2521 75.6137C70.8862 68.5844 74.4134 61.8792 79.3102 56.1019C83.9051 50.5629 88.8209 45.5546 94.6393 41.2549C98.3445 38.6236 102.371 36.523 106.035 33.7773C108.678 31.7879 112.317 31.1205 115.561 30.0781C125.254 26.8365 135.305 25.6636 145.518 26.372C161.207 27.56 174.678 30.8422 185.937 38.0269C190.783 41.0615 195.19 45.0304 199.223 49.3934C203.733 54.3601 206.64 59.9052 210.162 65.3582C213.206 70.2074 215.138 75.1996 216.301 80.2109Z" fill="#DCBF6F"/>
<path d="M202.281 76.4806C201.938 76.6045 201.48 76.7698 201.137 76.8937C199.78 74.9267 198.601 77.0336 197.292 76.9892C197.168 76.646 197.003 76.1884 196.879 75.8452C200.514 71.946 200.161 67.03 197.384 63.6362C193.497 58.9618 189.788 53.7059 183.944 50.773C182.794 49.3779 181.339 49.6449 179.893 50.2964C178.332 50.9892 176.928 51.7551 175.523 52.521C175.056 52.3017 174.433 52.0094 173.966 51.7901C173.957 51.4056 173.947 51.0211 174.093 50.7097C175.463 46.9821 175.412 46.4832 172.59 44.3987C171.688 43.6901 170.483 43.2198 169.508 42.6669C165.99 40.4457 161.655 40.9765 157.928 39.607C156.66 39.677 155.351 39.6325 154.083 39.7025C151.906 37.2556 149.055 38.673 146.583 38.2727C144.111 37.8724 142.166 38.5747 140.459 39.5789C138.41 40.7071 137.968 43.065 138.067 45.4865C137.6 45.2672 136.977 44.9749 136.51 44.7556C135.623 41.5842 134.581 38.3398 130.799 37.895C129.064 37.7457 126.894 37.107 125.197 38.4957C122.108 39.6112 119.133 40.6854 116.045 41.8009C110.992 42.8497 107.109 46.0625 103.143 49.0466C98.7611 52.3103 98.1829 55.3641 100.728 60.2642C100.852 60.6074 101.018 61.065 101.142 61.4082C100.798 61.5321 100.341 61.6974 99.9976 61.8213C97.9733 60.8712 95.7933 59.848 93.769 58.8979C92.2819 59.435 90.6803 60.0134 89.1931 60.5505C84.4012 65.902 80.4291 71.7333 77.5153 78.3464C76.8575 79.7478 75.6182 80.9712 76.5081 82.719C77.3661 84.7369 78.329 86.3289 80.5726 86.8118C81.0397 87.0311 81.6626 87.3234 82.1297 87.5427C81.9104 88.0098 81.6181 88.6327 81.3988 89.0998C76.308 88.6106 75.0179 89.3352 73.159 93.4981C71.9166 96.1452 72.441 98.6715 72.851 101.239C71.1478 105.475 71.1797 109.86 72.3652 114.217C74.1894 121.059 74.593 121.818 77.2688 124.214C76.9446 125.107 76.6205 126 76.5665 126.925C76.5125 127.85 76.5729 128.733 76.6333 129.617C76.4141 130.084 76.1218 130.707 75.9025 131.174C76.0264 131.517 76.1917 131.974 76.3156 132.318C76.4396 132.661 76.6049 133.118 76.7288 133.462C77.2659 134.949 77.8443 136.55 78.3814 138.038C78.9185 139.525 79.4969 141.126 80.0339 142.614C80.5424 142.947 81.394 143.157 81.715 143.688C84.4798 148.12 87.6926 152.004 92.9996 153.449C94.4867 152.912 96.0883 152.334 97.5755 151.797C97.6994 152.14 97.8647 152.598 97.9886 152.941C97.7694 153.408 97.4771 154.031 97.2578 154.498C96.9972 154.851 96.4348 155.442 96.403 155.712C96.9496 157.584 97.4963 159.455 98.3861 161.203C98.9963 162.534 100.023 163.586 100.935 164.679C101.278 164.555 101.736 164.39 102.079 164.266C102.441 164.911 102.657 165.868 103.28 166.16C105.616 167.256 107.983 168.083 110.278 169.064C110.745 169.284 111.368 169.576 111.835 169.795C112.925 170.307 113.859 170.745 114.949 171.257C115.416 171.476 116.039 171.769 116.506 171.988C116.849 171.864 117.307 171.699 117.65 171.575C118.117 171.794 118.74 172.086 119.207 172.305C119.674 172.525 120.297 172.817 120.764 173.036C120.888 173.38 121.054 173.837 121.177 174.18C121.978 173.891 122.665 173.643 123.465 173.354C123.933 173.573 124.555 173.866 125.023 174.085C125.366 173.961 125.823 173.796 126.167 173.672C127.473 175.14 129.468 174.936 130.727 174.482C132.173 173.83 132.976 172.118 134.174 170.78C134.683 171.113 135.233 171.561 135.814 171.739C136.281 171.959 136.822 172.022 137.289 172.241C138.493 172.712 139.885 172.985 141.016 173.611C142.148 174.237 143.187 174.25 144.248 173.608C144.331 173.836 144.455 174.18 144.455 174.18C149.298 173.982 154.315 174.627 158.913 172.32C159.673 171.917 160.712 171.929 161.637 171.983C165.825 171.764 168.103 170.553 171.313 166.549C171.532 166.082 171.825 165.459 172.044 164.992C173.722 162.834 173.207 160.692 172.266 158.446C172.609 158.322 173.067 158.157 173.41 158.033C173.998 160.019 175.45 161.175 177.351 161.782C177.932 161.96 178.638 162.481 179.136 162.43C180.665 162.008 181.996 161.398 183.484 160.86C183.474 160.476 183.423 159.977 183.611 159.78C186.267 156.752 189.721 154.858 192.699 152.36C195.073 150.339 197.996 148.765 198.482 145.098C198.825 144.974 199.283 144.809 199.626 144.685C198.8 142.397 197.974 140.109 197.147 137.821C197.491 137.697 197.948 137.532 198.291 137.408C198.635 137.284 199.092 137.119 199.435 136.995C199.902 137.214 200.379 137.818 200.764 137.808C204.59 136.944 206.633 134.008 207.586 130.56C208.854 125.834 209.852 121.077 210.423 116.215C210.605 114.21 209.82 112.036 208.962 110.019C208.672 109.218 207.093 109.142 206.003 108.63C205.078 108.576 204.227 108.366 203.302 108.312C203.521 107.845 203.813 107.222 204.033 106.755C205.978 106.053 207.808 105.392 209.753 104.689C210.306 103.714 211.129 102.77 211.256 101.69C211.545 97.835 211.719 94.0216 209.784 90.453C209.66 90.1098 209.38 89.6936 209.371 89.3091C209.447 83.0743 207.998 80.494 202.281 76.4806ZM178.796 52.6321C180.077 51.523 181.749 52.2126 183.214 52.3301C188.009 54.8658 190.44 59.8072 194.6 63.0897C196.249 64.4338 196.907 67.6879 197.047 70.2237C197.219 72.4895 196.122 74.8252 193.377 75.8167C192.462 76.1472 190.685 75.8835 191.159 77.9109C190.358 78.2001 189.672 78.448 188.871 78.7372C186.364 80.0306 183.783 81.4798 181.276 82.7732C180.475 83.0624 179.789 83.3103 178.988 83.5995C178.155 84.1588 176.608 83.8125 177.113 85.5697C174.606 86.8632 172.026 88.3123 169.518 89.6057C168.54 90.4765 166.287 89.609 166.5 91.9892C165.699 92.2784 165.012 92.5262 164.212 92.8154C163.182 93.1873 161.997 93.486 161.009 93.9722C160.592 94.2519 160.341 94.9891 160.049 95.612C158.562 96.1491 156.96 96.7275 155.473 97.2646C154.443 97.6364 153.341 98.1639 152.27 98.4214C151.771 98.4722 151.107 98.0655 150.484 97.7732C151.32 95.7902 152 93.7342 152.835 91.7512C153.849 89.1867 154.904 86.7366 155.917 84.1721C156.261 84.0482 156.718 83.8829 157.061 83.759C158.647 80.9879 160.274 78.3313 161.86 75.5602C162.851 73.6503 164.154 71.8866 164.99 69.9037C166.483 66.5193 169.035 63.9166 171.192 60.939C172.235 59.5281 174.532 59.0863 174.516 56.8936C175.943 55.4731 177.328 53.9382 178.796 52.6321ZM153.376 105.781C153.322 106.706 153.112 107.557 153.058 108.482C151.383 109.216 152.639 110.185 152.74 111.183C148.762 110.551 148.689 110.707 147.434 114.393C147.09 114.517 146.633 114.682 146.29 114.806C145.946 114.93 145.489 115.095 145.146 115.219C145.022 114.876 144.856 114.418 144.733 114.075C143.01 112.887 141.866 113.3 141.301 115.315C140.624 115.947 140.103 116.653 139.426 117.285C139.054 116.255 138.755 115.07 138.269 114.082C137.989 113.666 137.252 113.415 136.629 113.122C135.828 113.411 135.142 113.659 134.341 113.948C133.998 114.072 133.54 114.238 133.197 114.362C133.073 114.018 132.908 113.561 132.784 113.218C133.423 111.047 132.666 110.027 130.401 110.199C130.277 109.856 130.111 109.398 129.988 109.055C130.207 108.588 130.499 107.965 130.718 107.498C132.393 106.764 131.138 105.794 131.036 104.797C130.499 103.309 131.964 103.427 132.568 102.95C133.057 102.515 133.235 101.933 133.642 101.269C133.353 100.468 133.105 99.782 132.815 98.9812C133.159 98.8573 133.616 98.692 133.959 98.5681C134.779 99.0479 135.599 99.5277 136.346 100.163C138.078 101.736 138.373 99.6897 139.362 99.2035C140.286 99.2575 141.138 99.4672 142.063 99.5212C142.53 99.7404 143.153 100.033 143.62 100.252C143.963 100.128 144.421 99.9628 144.764 99.8389C145.107 99.7149 145.565 99.5497 145.908 99.4257C146.251 99.3018 146.709 99.1365 147.052 99.0126C147.923 99.9913 147.055 102.244 149.435 102.031C150.017 102.209 150.681 102.616 151.336 102.638C152.219 102.578 153.156 101.593 153.694 103.08C153.172 103.785 152.693 104.605 152.171 105.311C152.524 105.571 152.95 105.676 153.376 105.781ZM128.951 102.963C129.409 102.798 129.825 102.518 129.889 101.978C129.867 102.633 129.409 102.798 128.951 102.963ZM139.996 47.2469C139.707 46.4461 139.459 45.7597 139.169 44.9589C140.358 43.2365 141.546 41.5142 142.735 39.7918C146.141 40.6306 149.929 38.2281 153.26 40.6463C153.457 40.8338 153.914 40.6685 154.34 40.7734C155.265 40.8274 156.116 41.0371 157.041 41.0911C159.637 41.8346 162.275 42.6925 164.944 43.2803C165.952 43.5631 167.22 43.4932 168.268 43.8904C173.906 46.2513 174.182 48.0912 170.305 53.1122C170.045 53.4649 169.981 54.0052 169.803 54.5867C168.949 55.8006 168.053 56.9002 167.198 58.1141C166.521 58.7465 166 59.452 165.323 60.0844C164.081 62.7315 162.911 65.2229 161.669 67.87C160.483 68.1687 159.692 68.8425 159.222 70.0468C158.021 72.8084 156.508 75.4237 154.996 78.0391C153.963 79.8345 152.972 81.7444 151.939 83.5399C149.883 87.5153 147.827 91.4908 145.812 95.5806C145.136 96.213 144.614 96.9185 143.938 97.5509C142.565 98.0467 141.996 96.8296 142.403 96.1654C143.362 94.5257 142.253 93.2451 141.872 91.831C141.748 91.4878 141.583 91.0302 141.459 90.687C142.078 87.7475 141.935 81.9799 141.172 79.1517C140.883 78.3509 140.635 77.6645 140.346 76.8637C142.313 75.5067 140.206 74.3279 140.251 73.0186C141.925 72.2845 140.67 71.3153 140.568 70.3175C140.279 69.5167 140.031 68.8303 139.742 68.0295C142.062 66.9331 139.291 65.3475 140.063 63.9048C140.721 62.5034 140.288 60.5904 140.209 58.9379C140.228 55.0515 140.133 51.2064 139.996 47.2469ZM101.303 53.9785C104.573 50.8579 107.408 47.2478 111.911 45.751C113.855 45.0486 116.712 45.4394 117.487 42.573C120.119 41.6228 122.864 40.6313 125.495 39.681C126.032 41.1682 127.094 40.5263 127.853 40.1227C129.976 38.8388 131.625 40.1829 133.265 41.1426C133.732 41.3618 134.031 42.5471 133.812 43.0143C133.09 44.9559 134.625 46.3414 134.86 48.0669C134.632 48.1495 134.289 48.2735 134.289 48.2735C134.832 51.5688 134.263 55.0072 135.878 58.0451C134.75 60.6509 135.045 63.2598 136.069 65.7353C134.394 66.4694 135.649 67.4386 135.751 68.4364C136.04 69.2372 136.288 69.9236 136.577 70.7244C134.902 71.4585 136.158 72.4277 136.259 73.4255C135.958 73.6638 135.427 73.9848 135.51 74.2136C136.765 79.8382 136.752 85.5328 137.467 91.0938C137.757 91.8946 138.005 92.581 138.294 93.3818C136.619 94.1159 137.874 95.0851 137.976 96.0829C137.064 99.6452 137.522 99.48 134.544 97.3224C134.077 97.1031 133.454 96.8108 132.987 96.5915C132.698 95.7907 132.45 95.1043 132.161 94.3035C131.601 93.471 131.948 91.9234 130.19 92.4287C129.145 90.6079 128.026 88.9428 126.981 87.1219C125.478 85.4664 123.86 83.8521 122.586 82.1139C120.183 78.3261 116.761 75.2946 113.869 71.9421C109.868 67.309 105.753 62.7173 101.377 58.4782C100.185 56.9688 100.023 55.0876 101.303 53.9785ZM80.1687 76.7415C82.5551 73.6812 85.0972 70.6941 86.5081 67.0809C87.4486 64.6721 90.2768 63.9094 90.7502 61.2813C91.551 60.9921 92.2374 60.7443 93.0382 60.4551C98.8536 62.2344 99.5781 63.5246 105.416 69.3048C109.48 73.3976 112.941 77.9672 117.307 81.8217C118.251 82.6447 117.425 85.0122 119.796 84.4147C119.92 84.7579 120.085 85.2155 120.209 85.5587C121.016 87.0776 123.628 90.0138 124.563 90.4523C126.314 92.7943 127.991 95.292 129.743 97.6339C129.698 98.9432 131.805 100.122 129.838 101.479C128.405 101.091 127.013 100.818 125.58 100.43C125.237 100.554 124.779 100.72 124.436 100.844C122.745 99.3851 121.096 98.0409 118.62 99.0642C117.063 98.3334 115.506 97.6026 113.949 96.8717C110.959 95.7532 108.01 94.7491 105.019 93.6306C104.285 91.956 103.316 93.2112 102.318 93.3129C100.294 92.3629 98.114 91.3397 96.0897 90.3896C95.7465 90.5135 95.2889 90.6788 94.9457 90.8027C91.377 88.0826 86.8678 87.7714 82.9018 86.1C82.5904 85.9538 82.2155 86.3478 81.7579 86.5131C81.6339 86.1699 81.4687 85.7123 81.3447 85.3691C78.7007 82.703 78.1159 79.2933 80.1687 76.7415ZM74.4085 115.936C74.0239 111.29 74.4083 106.625 74.4081 101.97C74.7131 100.308 75.0182 98.646 75.2088 97.0254C75.3581 95.2903 74.5 93.2724 76.7054 92.2173C78.4531 91.3275 80.3248 90.7809 82.2664 91.5022C83.5344 91.4322 84.8436 91.4767 86.1115 91.4067C87.2015 91.9183 88.1358 92.3568 89.2258 92.8684C91.1261 93.4753 93.1408 94.0409 95.0412 94.6478C97.6343 96.815 101.054 96.6147 103.971 97.8889C104.314 97.7649 104.772 97.5997 105.115 97.4757C105.582 97.695 106.205 97.9873 106.672 98.2066C108.696 99.1567 110.876 100.18 112.9 101.13C118.249 102.69 123.441 104.177 128.789 105.737C129.133 105.613 129.59 105.448 129.933 105.324C130.057 105.667 130.223 106.125 130.347 106.468C128.859 107.005 127.372 107.542 125.771 108.121C124.055 108.74 122.339 109.36 120.623 109.98C119.135 110.517 117.575 111.21 116.047 111.632C114.404 112.096 112.863 113.558 110.943 112.182C110.429 114.696 108.5 112.936 107.356 113.349C101.105 115.735 94.9274 117.966 88.6355 120.239C87.1483 120.776 85.5468 121.354 84.0596 121.891C83.478 121.713 82.7726 121.192 82.1593 121.284C77.5642 122.168 74.6374 120.509 74.4085 115.936ZM95.6052 149.922C94.69 150.252 93.7018 150.739 92.7453 150.955C92.132 151.047 90.9784 151.076 90.7401 150.774C88.9064 148.203 86.1671 146.347 84.146 143.973C81.1715 140.392 80.6407 136.058 78.8515 132.178C78.6449 131.606 79.1248 130.786 79.2201 129.976C80.2719 128.949 81.0853 127.621 82.9253 127.344C84.7239 126.953 86.3572 126.105 87.9588 125.526C89.8718 125.094 92.3759 125.224 93.6565 124.115C95.3852 122.456 97.5365 122.326 99.5544 121.468C101.531 120.496 103.673 119.981 105.846 119.196C108.02 118.411 109.965 117.708 112.138 116.923C112.72 117.101 113.425 117.623 113.924 117.572C116.139 116.901 118.386 115.96 120.559 115.175C123.534 114.101 126.508 113.027 129.482 111.953C131.427 111.251 131.237 112.871 131.681 113.745C131.109 113.952 130.34 113.971 129.965 114.365C123.216 121.458 116.508 128.665 109.914 135.831C105.777 141.205 101.401 146.277 95.6052 149.922ZM134.025 163.204C133.418 165.104 132.852 167.119 132.245 169.019C130.99 172.706 130.917 172.861 126.939 172.229C125.162 171.965 123.313 171.857 121.536 171.594C120.612 171.54 119.76 171.33 118.835 171.276C118.368 171.057 117.745 170.764 117.278 170.545C116.544 168.87 115.575 170.126 114.577 170.227C114.11 170.008 113.487 169.716 113.02 169.497C112.896 169.153 112.731 168.696 112.607 168.353C111.873 166.678 110.904 167.933 109.906 168.035C107.592 166.284 105.164 164.574 102.851 162.823C100.547 161.457 100.283 158.578 98.6243 156.849C98.4273 156.662 98.7514 155.769 98.8149 155.229C100.712 152.604 102.93 150.51 105.221 148.26C109.282 144.465 112.711 139.994 116.419 135.939C118.679 133.959 120.274 131.573 121.631 128.884C122.463 128.325 124.011 128.671 123.505 126.914C123.849 126.79 124.306 126.625 124.649 126.501C125.441 125.827 126.616 125.144 127.055 124.21C128.443 121.251 132.114 120.314 132.88 117.063C133.223 116.939 133.68 116.774 134.024 116.65C134.243 116.182 134.535 115.56 134.754 115.092C135.098 114.969 135.555 114.803 135.898 114.679C135.771 115.76 137.643 115.213 137.306 117.145C136.045 123.679 135.635 130.422 134.914 137.019C135.047 137.747 135.337 138.548 135.314 139.202C134.736 142.256 134.854 145.447 135.2 148.554C134.94 148.907 134.45 149.342 134.345 149.768C134.342 151.192 134.454 152.574 134.565 153.957C134.854 154.757 135.102 155.444 135.391 156.245C133.716 156.979 134.972 157.948 135.073 158.946C133.408 160.064 133.176 161.571 134.025 163.204ZM170.601 164.22C170.725 164.563 170.89 165.021 171.014 165.364C170.671 165.488 170.213 165.653 169.87 165.777C169.193 166.409 168.755 167.344 167.881 167.788C161.068 170.766 154.112 172.632 146.682 172.47C146.142 172.406 145.56 172.228 145.02 172.165C144.677 172.289 144.219 172.454 143.876 172.578C143.409 172.359 142.786 172.066 142.319 171.847C138.706 170.436 138.779 170.281 138.496 166.633C138.162 162.486 138.909 158.466 139.427 154.528C139.563 153.833 139.16 153.073 139.141 152.304C139.443 152.066 139.973 151.745 139.891 151.516C139.646 144.75 139.474 137.829 140.538 131.108C140.249 130.307 140.001 129.621 139.712 128.82C140.786 127.139 141.164 125.322 140.347 123.418C141.796 121.343 141.116 118.744 141.714 116.459C142.515 116.17 143.201 115.922 144.002 115.632C144.539 117.12 144.92 118.534 145.572 119.98C145.737 120.437 146.589 120.647 147.211 120.939C147.625 122.083 148.038 123.227 148.451 124.371C150.157 128.022 152.02 131.747 153.726 135.398C154.098 136.427 154.397 137.613 154.883 138.601C155.163 139.017 155.9 139.268 156.523 139.561C156.895 140.59 157.193 141.776 157.68 142.764C157.959 143.18 158.697 143.431 159.319 143.723C160.613 146.231 162.062 148.811 163.355 151.318C165.688 153.838 167.458 156.949 170.019 159.386C171.202 160.511 171.135 162.475 170.601 164.22ZM197.04 144.326C195.085 149.299 190.528 151.721 186.594 154.435C183.795 156.351 182.114 159.933 178.196 160.184C177.853 160.308 177.395 160.473 177.052 160.597C175.301 158.255 173.623 155.757 171.872 153.415C171.001 152.437 171.869 150.184 169.488 150.397C169.199 149.596 168.951 148.909 168.662 148.109C168.195 147.889 167.572 147.597 167.105 147.378C166.981 147.034 166.816 146.577 166.692 146.234C165.418 144.495 164.185 142.872 162.91 141.133C162.91 141.133 162.567 141.257 162.338 141.34C161.966 140.31 161.668 139.125 161.181 138.137C160.902 137.721 160.164 137.47 159.542 137.177C159.128 136.033 158.715 134.889 158.302 133.745C157.517 131.572 156.805 129.242 155.906 127.11C155.741 126.653 154.889 126.443 154.266 126.151C153.853 125.007 153.44 123.863 153.027 122.719C152.738 121.918 152.49 121.231 152.2 120.431C151.539 118.6 150.878 116.77 150.217 114.939C149.556 113.109 151.136 113.185 152.01 112.74C152.134 113.084 152.299 113.541 152.423 113.884C154.333 114.876 156.169 116.023 158.079 117.014C160.498 118.339 162.875 119.55 165.293 120.875C168.064 122.461 170.721 124.088 173.492 125.673C174.124 126.35 174.83 126.871 175.462 127.548C178.233 129.134 180.89 130.761 183.661 132.346C187.242 134.027 190.979 135.781 194.561 137.462C194.891 138.377 195.085 139.989 195.667 140.167C198.263 140.91 197.116 142.747 197.04 144.326ZM205.428 110.26C208.104 112.656 209.127 115.132 207.684 119.015C206.096 123.21 206.407 128.011 204.205 132.298C203.214 134.208 201.923 134.933 200.166 135.438C199.241 135.384 198.39 135.174 197.465 135.12C194.694 133.535 192.037 131.908 189.266 130.322C184.814 127.662 180.435 124.847 175.983 122.187C172.519 119.041 168.2 117.109 163.996 115.136C160.882 113.674 157.955 112.016 154.914 110.398C154.409 108.641 155.956 108.987 156.789 108.428C158.146 110.395 159.325 108.288 160.634 108.333C161.101 108.552 161.724 108.844 162.191 109.063C162.534 108.939 162.992 108.774 163.335 108.65C164.069 110.325 165.038 109.07 166.036 108.968C166.379 108.844 166.837 108.679 167.18 108.555C170.692 108.968 174.047 109.308 177.571 108.682C177.81 108.984 178.131 109.514 178.245 109.473C180.803 108.678 183.171 109.505 185.675 109.635C187.744 109.276 189.739 109.072 191.808 108.713C193.241 109.101 194.633 109.374 196.066 109.762C196.95 109.701 197.874 109.755 198.872 109.653C199.641 109.634 200.328 109.386 201.055 109.253C202.603 109.599 203.995 109.873 205.428 110.26ZM207.969 88.6513C206.368 89.2297 207.394 90.2815 207.569 91.1236C208.208 93.6086 208.92 95.9379 209.174 98.4325C209.46 100.657 207.919 102.119 208.237 104.073C206.168 104.432 204.172 104.636 202.104 104.995C200.836 105.065 199.527 105.02 198.259 105.09C197.915 105.214 197.458 105.379 197.115 105.503C196.381 103.829 195.411 105.084 194.414 105.186C194.07 105.31 193.613 105.475 193.27 105.599C191.913 103.632 190.734 105.739 189.424 105.694C188.69 104.02 187.721 105.275 186.723 105.377C185.513 103.098 183.854 106.025 182.131 104.836C181.073 104.055 179.014 104.798 177.476 104.837C177.133 104.961 176.675 105.126 176.332 105.25C175.398 104.811 171.47 104.678 169.786 105.027C169.052 103.353 168.083 104.608 167.085 104.71C166.742 104.834 166.284 104.999 165.941 105.123C165.588 104.862 165.153 104.373 164.727 104.268C163.303 104.265 161.921 104.376 160.538 104.487C160.195 104.611 159.738 104.777 159.395 104.901C158.66 103.226 157.691 104.481 156.693 104.583C155.893 104.872 155.206 105.12 154.405 105.409C154.625 104.942 154.917 104.319 155.136 103.852C155.356 103.385 155.648 102.762 155.867 102.295C157.011 101.882 158.155 101.469 159.299 101.056C160.132 100.496 161.679 100.843 161.174 99.0853C161.975 98.7961 162.661 98.5482 163.462 98.259C164.294 97.6997 165.842 98.046 165.337 96.2887C166.481 95.8756 167.625 95.4624 168.769 95.0493C169.747 94.1785 172 95.046 171.787 92.6659C173.732 91.9635 175.563 91.3025 177.507 90.6001C181.46 88.6552 185.299 86.7516 189.252 84.8067C189.367 84.7654 189.275 84.1521 189.265 83.7676C190.409 83.3545 191.553 82.9413 192.697 82.5282C194.438 79.8302 197.629 79.7125 200.292 78.4922C200.635 78.3682 201.092 78.203 201.436 78.079C205.535 80.4781 206.523 84.6474 207.969 88.6513Z" fill="#DCBF6F"/>
</g>
<defs>
<clipPath id="clip0_88_901">
<rect width="202.758" height="210.542" fill="white" transform="translate(0.794189 68.9392) rotate(-19.8569)"/>
</clipPath>
</defs>
</svg>
