<svg xmlns="http://www.w3.org/2000/svg" width="264" height="267" fill="none"><g fill="#DCBF6F" clip-path="url(#a)" opacity=".5"><path d="M217.5 72.7c-1.8-2-3-4.3-3.5-6.7-.5-2.6-2.8-4.2-3.6-6.5-1.6-4.1-4.5-7.3-7.1-10.3a74.7 74.7 0 0 0-38.8-22.5c-8.2-2-16.6-3-25.1-3-8 0-15.8.3-23.3 3.7-1.3.6-2.5 1-4 1.5a55.3 55.3 0 0 0-20.8 11.4 76.6 76.6 0 0 0-21.6 26.1l-4.4 9.4a64.5 64.5 0 0 0-4.7 34c.2 3.7.8 7.2 1.3 10.8.6 3.9 1 7.8 2.8 11.4l.2.6c2.2 5 3 10.6 6.6 15.1 1.6 2 1.1 2.6-1 3.5-3.6 1.5-7.6 2.3-10.6 5-.9.9-2.7 1.3-4 1-3-.4-5.9.8-7.8 2.4-3.4 2.6-7.3 4.7-10.6 7.3-1.2 1-1 .8 0 1.8 3.6 3.4 8.3 4.8 12.6 6.7 2.8 1.2 5.4 2.2 7.5 4.6.8 1 2.4 1.4 3.9.4l4.5 2.2c.5.2 1.5.1 1.5.4 1 3.1 4.2 3.8 6.2 5.5 2 1.8 2.6 3.2.6 5.2-1 1-1.8 1.8-1.8 3.3-.7.6-1.8 1-2.2 1.8-2.1 4-4 8.4-6 12.6-.4.8-.7 1.3.7 1.3 4.6.2 9.2 0 13.6-1.1 2.7-.8 5-1.2 7.9-1 2.4.2 5 .4 7.3-.5 3.5-1.4 7-3.5 10.7-.4l.6.2c5.7-.7 11.7 1.2 17-2.3 1.2-.8 2.7-1 4-1.5 1.5-.6 3.3-.6 3.7-2.6 3.8-1.6 6-4.7 7.8-8.2 1.2-2.4 2.6-2.1 4.8-.3 1.6 1.3.8 4 3.3 4.6 4 5.1 9.8 8 15.7 10 3 1 6.3 2 10 1.1 3-.8 6.5.7 9.6-1.1a42.1 42.1 0 0 0 16.1 2.7c.8 0 1.7-.2 2.3.1 4.5 2.6 9.6 2 14.5 3 1.8.3 2.3-.4 1.6-2-2.4-5.7-2.9-12.4-8.5-16.5-.3-.2-.3-.8-.5-1.2-.4-1.1-1.2-2.4-1-3.3.2-.8 1.9-1.1 2.8-1.8 1-.8 2-1.8 2.9-2.8.6-.4 1-1.3 1.7-1.5 7.2-1.8 13.2-6.3 20.3-8.6 4.1-1.4 8-3.3 11.7-5.5 1.3-.7.3-1-.3-1.5-4.9-4.2-10-8.5-16.2-10.1-4.7-1.3-8.7-3.8-13.1-5.5-2.5-1-3.2-3.4-2.1-5.9.5-1.3 1-2.6 1.8-3.9 4.4-8 6.5-17 7.5-26 1.4-13.1 1.3-25.9-3-38.4-.3-1-.3-1.9-.5-2.8-.4-1.7-.3-4-1.5-5.4ZM71 182.2c0-.4-.7-.8-1.3-1l-8.9-2c-3.3-2-6.5-4.2-10-6-1.4-.8-3-1.5-4.8-1.8-2-.3-4-2.2-6-3.4 1.5-1 2.8-2 4.4-2.8 3.6-2.1 7-5 11.2-6 2.1 1.4 4.5.1 5.6-.9 2.7-2.8 6.3-3.2 9.5-4.5 2.8-1.1 2.8-1 5 2 2.7 3.4 5.3 6.7 8.2 10l.6-.3c.4 1.6-.6 1.8-1.6 1.7-5-1-10-1.6-15-.9a9.6 9.6 0 0 0-7.6.2c-1.3-.3-7.1.1-8.9.6-1-1.9-2.2 0-3.3 0 .2.4.3 1 .6 1 1 .2 2 .2 3.1.2l7.7-.2 2.8-.1 5-.1 11.6 1.2c1.9.2 3.8 1.1 5.6.2l5.7 2.2c1.4.5 2.6.7.4 2.3-1 .8-2.2 1.6-3.4 2.3-.5.3-.8 1-1 1.6-3 1.9-5.5 4.2-6.8 7.5-.7 1.8-1.5 2.6-3.4 1.5-2.1-1-4.7-1.5-5-4.5Zm66.2 9.4a25.1 25.1 0 0 1-11.7 12.1c-2.8 1.2-5.7 2.1-8.5 3.1-2.1.8-3.9 1.6-6.3.2-1.4-.7-3.7.2-5.5 0-1 0-2.5 0-2.7-.4-1.1-2.5-2.8-1.4-4.4-.8-5 2.1-9.9 3.1-15.3 2.1-1.2-.2-2.6.6-4 1-2.8.6-5.5 1.2-8.5 1.6-1.3.2-2.1-1.3-1.6-2.5l4.2-10c4-2.7 5.4-5 7.6-9a28 28 0 0 1 8.5-9.7c.6-.3.8-1 1.1-1.7 1.2-.6 2.7-.6 3.5-2 .3-.5 2.1-.4 3 0 1.2.4 2 1.6 3.2 2.3 3 1.6 6.2 2.9 9.3 4.3l.9.6c-.3.3-.4.7-.8.8-.5.4-1.1.4-1.7.7-1.7.6-3.5 1-5.1 1.8-1.6.8-2.9 1.8-4.3 2.8-2.5 1.3-5.1 2.8-7.6 4l-8.3 5.7-6.2 4.8c-.3.2-.2.7-.3 1.1h1c1-.9 2-1.7 3.2-2.5 1.3-.9 2.7-1.5 4-2.1 0 0 0-.4-.2-.6 4-.8 6.8-4.1 10.6-5.4v-1c2.2-.8 4.5-1.5 6.7-2.4.4-.2.6-1 1-1.6l8-3c3.2-1 6.2-1.2 9.5.2 3.8 1.8 8 2 12.2 2.4 1.4 0 3 .4 4.4.8 1 .4 1.7 1.2 1.1 2.3Zm74.8 19.5c.5 1.3-.3 2-1.4 1.8-2.5-.3-4.8-1.2-7.3-1.4-3.5-.5-6.7-1.9-10.6-1.5-3.4.3-7-1.7-10.4-2.8-1.5-.4-2.3-1.2-3.8.4-1.5 1.7-4.3 1-6.5.4-1-.1-2-1-2.7-.7a8.3 8.3 0 0 1-7.4 0c-2-1-4.5-.7-5.9-3-6.7-1.7-9-7.8-12.9-12.5-.3-.4-.5-1.5-.3-1.5a3 3 0 0 1 2-.7c5-.2 9.9-.1 14.6-2 2.5-.9 5.4-.2 8-1.4.9-.5 2.6.6 3.9 1l1.6.7 1.5.8 1.6.7 1.5.7 1.6.8 1.5.7 4.7 2.2 8.6 6 3.6 2.5 3.5 2.6 3.5 2.1c.1.1.7 0 .8-.1l-.1-1.1c-1.1-1-2.3-1.7-3.5-2.4l-3.5-2.6-3.5-2.6c-2.3-2.8-5.6-4-8.7-6l-5-3.3-1.6-.7-1.6-.8-1.5-.7a741.4 741.4 0 0 1-3.1-1.5c.3-.5.5-1.3 1-1.6 3.4-1.5 7-2.4 10-4.8 2.9-2.3 4-1.7 7.1 1.2a27 27 0 0 1 9.1 12.2c.3 1.2 1.4 2.2 2.4 3.2a39 39 0 0 1 9.2 15.7Zm5.5-52.6c2.4 2.1 5.2 3.2 8.2 4 5 1.3 9.4 4.1 13.7 7 1.4 1.1 1.1 3.2-.5 3.6-8 2.2-14.8 7-22.6 9.5-1.4.5-2.7 1.6-4.5.7-.8-.5-1.5.3-1.7 1.5-.4 2.4-4.3 5-6.3 5-.4 0-.9-.7-1.2-1.2a49 49 0 0 0-9.9-11.6c-1.5-1.4-1.3-3.4.3-4.1 2-.8 3.8-1.4 5.8-2l.2.5c5.4-.4 10.9-.8 16.3-1.4 1 .5 4.8.6 6.5.3 1 .4 4.9.5 6.6.2 1 2 2.2 0 3.3 0-.2-.4-.3-1-.6-1l-3.1-.2c-1.8-.2-3.7-.3-5.4-.6-2.2.1-4.4-1.3-6.6-.2-5.1-.2-10.3-.6-15.4.4l-1.2-.1c.2-.6.2-1.4.5-1.5 4-2.5 6-6.8 9.3-10 1-1 1.6-.8 2.9-.8a8 8 0 0 1 5.4 2Zm-1.3-78.3c2.4 9.8 4 19.8 4 29.9 0 7.9-1.9 15.4-3.4 23-.3 1.2-1.4 2.2-2.1 3.4.2.6.7 1.3.6 1.7-2.8 6.6-6 12.8-10.4 18.4a78.8 78.8 0 0 1-14.1 13.6c-2.8 2-5.9 3.5-8.7 5.5-5.7 3.8-12.3 5.3-18.6 7.6-3.2 1.1-6.6 1.2-10 1.8l-.2-.6c-3.2 2-6.8 1-10.2 1.3-6.6.7-12.7-1.2-19-2.1-.4-.1-.9-.7-1.3-1.1-2.5 1.2-5-.4-7.1-1.2-5-1.8-9.9-4.3-14.7-6.7-.7-.3-.9-1.2-1.2-1.9-3.8-.4-5.9-3.3-8.6-5.4-5.6-4-9.4-10-13.9-15.2-2-2.5-3.3-5.6-4.7-8.6-1-2.2-1.2-5-2.7-6.8-1.6-2.1-1.2-4.5-2-6.6-1-2.3-2-4.5-2.6-6.9-1.2-6.5-2.6-13-2-19.8.2-3.8.3-7.9.7-11.8.6-5.6 2.3-10.9 4.2-16 2.6-7.1 6.1-13.8 11-19.6a87.5 87.5 0 0 1 15.3-14.8c3.7-2.7 7.8-4.8 11.4-7.5 2.7-2 6.3-2.7 9.6-3.7a77 77 0 0 1 30-3.7A85.5 85.5 0 0 1 185.8 38c4.9 3 9.3 7 13.3 11.4 4.5 5 7.4 10.5 11 16 3 4.8 5 9.8 6.1 14.8Z"/><path d="m202.3 76.5-1.2.4c-1.3-2-2.5.1-3.8 0l-.4-1a9 9 0 0 0 .5-12.3c-3.9-4.6-7.6-9.9-13.5-12.8-1.1-1.4-2.6-1.2-4-.5l-4.4 2.2-1.5-.7v-1c1.5-3.8 1.4-4.3-1.4-6.4-1-.7-2.1-1.2-3-1.7-3.6-2.3-8-1.7-11.7-3h-3.8c-2.2-2.4-5-1-7.5-1.4-2.5-.4-4.4.3-6.1 1.3-2 1.1-2.5 3.5-2.4 5.9l-1.6-.7c-.9-3.2-2-6.5-5.7-6.9-1.7-.2-4-.8-5.6.6l-9.2 3.3c-5 1-8.9 4.3-12.9 7.2-4.3 3.3-5 6.4-2.4 11.3l.4 1.1-1.1.4-6.2-2.9-4.6 1.7a67.2 67.2 0 0 0-11.7 17.7c-.6 1.4-1.9 2.7-1 4.4.9 2 1.8 3.6 4 4.1l1.6.7-.7 1.6c-5-.5-6.4.2-8.2 4.4-1.3 2.6-.8 5.2-.3 7.7a20 20 0 0 0-.5 13c1.8 6.9 2.2 7.6 4.9 10-.4 1-.7 1.8-.7 2.7v2.7l-.7 1.6.4 1.1.4 1.2 1.7 4.5 1.6 4.6c.5.3 1.4.6 1.7 1 2.8 4.5 6 8.4 11.3 9.8l4.6-1.6.4 1.1-.7 1.6c-.3.4-.9 1-.9 1.2.5 1.9 1.1 3.8 2 5.5.6 1.3 1.6 2.4 2.5 3.5l1.2-.4c.3.6.6 1.6 1.2 1.9l7 2.9 1.5.7 3.1 1.5 1.6.7 1.2-.4 1.5.7 1.6.7c0 .4.3.8.4 1.2l2.3-.8 1.5.7 1.2-.4c1.3 1.4 3.3 1.2 4.5.8 1.5-.7 2.3-2.4 3.5-3.7.5.3 1 .8 1.6 1l1.5.4c1.2.5 2.6.8 3.7 1.4 1.1.6 2.2.7 3.2 0l.3.6c4.8-.2 9.8.4 14.4-1.9.8-.4 1.8-.4 2.7-.3 4.2-.2 6.5-1.4 9.7-5.5l.7-1.5c1.7-2.2 1.2-4.3.3-6.6.3 0 .8-.2 1.1-.4.6 2 2 3.2 4 3.8.5.2 1.2.7 1.7.6 1.6-.4 2.9-1 4.4-1.5l.1-1.1c2.7-3 6.1-5 9.1-7.4 2.4-2 5.3-3.6 5.8-7.3l1.1-.4-2.5-6.9a1452.2 1452.2 0 0 0 2.3-.8c.5.2 1 .8 1.4.8 3.8-.9 5.8-3.8 6.8-7.2 1.3-4.8 2.3-9.5 2.8-14.4.2-2-.6-4.2-1.4-6.2-.3-.8-2-.9-3-1.4-1 0-1.8-.2-2.7-.3l.7-1.5 5.8-2.1c.5-1 1.3-2 1.5-3 .2-3.9.4-7.7-1.5-11.2-.1-.4-.4-.8-.4-1.2 0-6.2-1.4-8.8-7.1-12.8Zm-23.5-23.9c1.3-1 3-.4 4.4-.3 4.8 2.6 7.2 7.5 11.4 10.8 1.6 1.3 2.3 4.6 2.4 7.1.2 2.3-.9 4.6-3.6 5.6-1 .3-2.7 0-2.2 2.1l-2.3.8c-2.5 1.3-5.1 2.8-7.6 4l-2.3.9c-.8.6-2.4.2-1.9 2l-7.6 4c-1 .9-3.2 0-3 2.4l-2.3.8c-1 .4-2.2.7-3.2 1.2-.4.3-.7 1-1 1.6l-4.5 1.7c-1 .3-2.2.9-3.2 1.1-.5 0-1.2-.3-1.8-.6l2.3-6 3.1-7.6 1.2-.4c1.5-2.8 3.2-5.5 4.8-8.2 1-2 2.3-3.7 3-5.7 1.6-3.4 4.1-6 6.3-9 1-1.4 3.3-1.8 3.3-4 1.4-1.4 2.8-3 4.3-4.3Zm-25.4 53.2c0 1-.3 1.8-.3 2.7-1.7.7-.5 1.7-.4 2.7-4-.6-4-.5-5.3 3.2a1452.2 1452.2 0 0 0-2.3.8c0-.3-.2-.8-.4-1.1-1.7-1.2-2.8-.8-3.4 1.2l-1.9 2c-.3-1-.6-2.2-1.1-3.2-.3-.4-1-.7-1.7-1l-2.3.8-1.1.5-.4-1.2c.6-2.2-.1-3.2-2.4-3l-.4-1.1.7-1.6c1.7-.7.4-1.7.3-2.7-.5-1.5 1-1.4 1.6-1.8.5-.5.6-1 1-1.7l-.8-2.3 1.2-.4c.8.4 1.6 1 2.3 1.6 1.8 1.5 2-.5 3-1 1 0 1.8.3 2.8.3l1.5.8 1.2-.5c.3 0 .8-.3 1.1-.4l1.2-.4c.8 1 0 3.2 2.3 3 .6.2 1.3.6 2 .6.8 0 1.8-1 2.3.5l-1.5 2.2c.3.3.8.4 1.2.5ZM129 103c.4-.2.8-.5.9-1 0 .6-.5.8-1 1Zm11-55.8-.8-2.2 3.5-5.2c3.4.8 7.2-1.6 10.6.8.2.2.6 0 1 .2 1 0 1.8.2 2.7.3 2.6.7 5.3 1.6 8 2.2 1 .3 2.2.2 3.3.6 5.6 2.4 5.9 4.2 2 9.2-.3.4-.3 1-.5 1.5l-2.6 3.5-1.9 2-3.6 7.8c-1.2.3-2 1-2.5 2.1-1.2 2.8-2.7 5.4-4.2 8l-3 5.5-6.2 12-1.9 2c-1.3.5-1.9-.7-1.5-1.3 1-1.7-.1-3-.5-4.4l-.4-1.1c.6-3 .4-8.7-.3-11.5l-.9-2.3c2-1.4 0-2.6 0-3.9 1.6-.7.4-1.7.3-2.7l-.9-2.3c2.4-1-.4-2.7.4-4.1.6-1.4.2-3.3.1-5 0-3.8 0-7.7-.2-11.7ZM101.3 54c3.3-3.1 6.1-6.8 10.6-8.2 2-.8 4.8-.4 5.6-3.2l8-3c.5 1.6 1.6 1 2.4.5 2-1.3 3.7 0 5.4 1 .4.3.7 1.4.5 2-.7 1.9.8 3.2 1 5l-.5.2c.5 3.3 0 6.7 1.6 9.7a9.6 9.6 0 0 0 .2 7.7c-1.7.8-.5 1.7-.3 2.7l.8 2.3c-1.7.8-.4 1.7-.3 2.7-.3.3-.9.6-.8.8 1.3 5.6 1.3 11.3 2 16.9l.8 2.3c-1.7.7-.4 1.7-.3 2.7-1 3.5-.5 3.4-3.5 1.2l-1.5-.7-.8-2.3c-.6-.8-.3-2.4-2-1.9l-3.2-5.3c-1.5-1.6-3.1-3.2-4.4-5-2.4-3.8-5.8-6.8-8.7-10.2-4-4.6-8.1-9.2-12.5-13.4-1.2-1.5-1.4-3.4-.1-4.5ZM80.2 76.7c2.4-3 4.9-6 6.3-9.6 1-2.4 3.8-3.2 4.3-5.8l2.2-.8c5.9 1.7 6.6 3 12.4 8.8 4 4.1 7.5 8.7 12 12.5.9.8 0 3.2 2.4 2.6l.4 1.2c.8 1.5 3.4 4.4 4.4 4.9l5.1 7.1c0 1.3 2.1 2.5.1 3.9l-4.2-1-1.2.3c-1.7-1.4-3.3-2.8-5.8-1.7l-4.7-2.2-8.9-3.3c-.7-1.6-1.7-.4-2.7-.3l-6.2-3-1.2.5c-3.5-2.7-8-3-12-4.7-.3-.1-.7.2-1.1.4l-.5-1.1c-2.6-2.7-3.2-6.1-1.1-8.7ZM74.4 116c-.4-4.6 0-9.3 0-14l.8-4.9c.2-1.7-.7-3.7 1.5-4.8 1.8-.9 3.6-1.4 5.6-.7H86l3.1 1.4 5.8 1.7c2.6 2.2 6 2 9 3.3l1.1-.4 1.6.7 6.2 3 15.9 4.5c.3 0 .8-.3 1.1-.4l.4 1.2a7103.2 7103.2 0 0 0-9.7 3.5c-1.5.5-3 1.2-4.6 1.6-1.6.5-3.1 2-5 .6-.6 2.5-2.5.7-3.6 1.1l-18.8 7-4.5 1.6c-.6-.2-1.3-.7-2-.6-4.5.9-7.5-.8-7.7-5.4Zm21.2 34c-1 .4-1.9.8-2.9 1-.6.1-1.7.2-2-.1-1.8-2.6-4.5-4.5-6.6-6.8-3-3.6-3.5-8-5.2-11.8-.3-.6.2-1.4.3-2.2 1-1 1.9-2.4 3.7-2.7 1.8-.3 3.5-1.2 5-1.8 2-.4 4.5-.3 5.8-1.4 1.7-1.6 3.8-1.8 5.9-2.6 2-1 4-1.5 6.2-2.3l6.3-2.3c.6.2 1.3.7 1.8.7l6.7-2.4 8.9-3.2c2-.7 1.7.9 2.2 1.7-.6.3-1.4.3-1.7.7-6.8 7-13.5 14.3-20 21.4A56.6 56.6 0 0 1 95.5 150Zm38.4 13.3c-.6 1.9-1.1 4-1.8 5.8-1.2 3.7-1.3 3.9-5.3 3.2l-5.4-.6c-.9 0-1.7-.3-2.7-.3l-1.5-.8c-.8-1.6-1.7-.4-2.7-.3l-1.6-.7-.4-1.1c-.7-1.7-1.7-.5-2.7-.4l-7-5.2c-2.4-1.3-2.6-4.2-4.3-6-.2-.1.2-1 .2-1.6 2-2.6 4.1-4.7 6.4-7 4-3.7 7.5-8.2 11.2-12.3 2.3-2 3.9-4.3 5.2-7 .9-.6 2.4-.2 2-2l1-.4c.8-.7 2-1.4 2.5-2.3 1.3-3 5-3.9 5.8-7.1l1.1-.4.8-1.6 1.1-.4c-.1 1 1.7.5 1.4 2.4-1.3 6.6-1.7 13.3-2.4 20 .1.6.4 1.4.4 2.1-.6 3-.4 6.2-.1 9.4-.3.3-.8.7-.9 1.2l.3 4.2.8 2.2c-1.7.8-.4 1.7-.3 2.7-1.7 1.2-2 2.7-1 4.3Zm36.6 1 .4 1.2c-.3 0-.8.3-1.1.4-.7.6-1.1 1.5-2 2-6.8 3-13.8 4.8-21.2 4.7-.6 0-1.1-.3-1.7-.3-.3 0-.8.3-1.1.4l-1.6-.8c-3.6-1.4-3.5-1.5-3.8-5.2-.3-4.1.4-8.1 1-12 0-.8-.3-1.5-.4-2.3.3-.2.9-.6.8-.8-.3-6.8-.4-13.7.6-20.4l-.8-2.3c1-1.7 1.5-3.5.6-5.4 1.5-2 .8-4.7 1.4-7l2.3-.8 1.6 4.4c.1.4 1 .6 1.6 1l1.3 3.4 5.2 11c.4 1 .7 2.2 1.2 3.2.3.4 1 .7 1.6 1 .4 1 .7 2.2 1.2 3.2.3.4 1 .6 1.6 1 1.3 2.4 2.8 5 4 7.5 2.4 2.5 4.2 5.6 6.7 8 1.2 1.2 1.1 3.2.6 5Zm26.4-19.9c-2 5-6.5 7.4-10.4 10.1-2.8 2-4.5 5.5-8.4 5.8l-1.1.4c-1.8-2.3-3.5-4.8-5.2-7.2-.9-1 0-3.2-2.4-3l-.8-2.3-1.6-.7-.4-1.2-3.8-5-.6.1c-.3-1-.6-2.2-1.1-3.2-.3-.4-1-.6-1.7-1l-1.2-3.4c-.8-2.1-1.5-4.5-2.4-6.6-.2-.4-1-.7-1.6-1l-1.3-3.4-.8-2.3-2-5.5c-.6-1.8 1-1.7 1.8-2.2l.4 1.2 5.7 3.1 7.2 3.9 8.2 4.8 2 1.8c2.7 1.6 5.4 3.3 8.2 4.8l10.9 5.2c.3.9.5 2.5 1 2.7 2.7.7 1.5 2.5 1.4 4.1Zm8.4-34c2.7 2.4 3.7 4.8 2.3 8.7-1.6 4.2-1.3 9-3.5 13.3-1 2-2.3 2.6-4 3.1-1 0-1.8-.2-2.7-.3l-8.2-4.8c-4.5-2.6-8.9-5.5-13.3-8.1-3.5-3.2-7.8-5-12-7-3.1-1.5-6-3.2-9-4.8-.6-1.8 1-1.4 1.8-2 1.3 2 2.5-.1 3.8 0l1.6.7 1.1-.4c.8 1.6 1.7.4 2.7.3l1.2-.4c3.5.4 6.8.7 10.4 0 .2.4.5 1 .6.9 2.6-.8 5 0 7.5.1l6.1-.9 4.3 1h2.8c.7 0 1.4-.3 2.2-.4l4.3 1Zm2.6-21.6c-1.6.5-.6 1.6-.4 2.4.6 2.5 1.3 4.8 1.6 7.3.3 2.3-1.3 3.7-1 5.7l-6.1.9h-3.8l-1.2.5c-.7-1.7-1.7-.4-2.7-.3l-1.1.4c-1.4-2-2.6.1-3.9 0-.7-1.6-1.7-.3-2.7-.2-1.2-2.3-2.8.6-4.6-.6-1-.7-3 0-4.6 0l-1.2.5c-.9-.5-4.8-.6-6.5-.3-.7-1.6-1.7-.4-2.7-.3l-1.2.4c-.3-.2-.7-.7-1.2-.8-1.4 0-2.8 0-4.2.2l-1.1.4c-.7-1.7-1.7-.4-2.7-.3l-2.3.8.7-1.5.8-1.6 3.4-1.2c.8-.6 2.4-.3 1.9-2l2.3-.8c.8-.6 2.3-.3 1.8-2l3.5-1.3c1-.8 3.2 0 3-2.3l5.7-2.1 11.8-5.8v-1l3.4-1.3c1.7-2.7 5-2.8 7.6-4l1.1-.4c4.1 2.4 5.1 6.5 6.6 10.6Z"/></g><defs><clipPath id="a"><path fill="#fff" d="M0 0h202.8v210.5H0z" transform="rotate(-19.9 197.3 32.2)"/></clipPath></defs></svg>