<svg xmlns="http://www.w3.org/2000/svg" width="797" height="617" fill="none"><path fill="#DCBF6F" d="m546 217 1-4h2v-2l-1-1v-7l-1-19 2-28c2-12-1-21-10-29a63 63 0 0 1-22-40c-1-8-6-13-12-18l-27-22-3-3-5 17c-4 11-5 22-3 33-2-4-4-9-4-13 0-7 2-14 4-21s5-15 4-23l13 12 20 16c7 5 12 11 14 19l3 13c3 9 7 17 14 23 13 11 20 24 17 42v1c5-6 8-13 8-21v-11c-2-27 19-61 49-69 5-1 11-3 16-6 5-2 10-5 13-9 9-13 21-20 35-23 16-3 30-10 43-20l7-3 1 1-6 11-10 15c-3 6-5 13-4 20 1 10-3 18-9 26l-5 5 2 8c4 17-3 31-15 44-6 6-10 12-12 21-3 15-13 26-24 35l-8 7h-1l1-1c14-1 28 0 42 4 5 1 10 0 15-1 17-4 27 0 37 15 7 11 16 18 28 23 4 1 8 4 12 7 9 6 18 13 29 16v1l-5 2-19 1c-4 0-8 2-10 4-9 10-21 13-33 10-7-1-14 0-20 4s-13 4-20 2l-9-3c-8-5-16-6-26-5s-17-6-24-12c-11-11-21-20-35-26l-20-8c3 12 0 22-8 29 1 19-11 30-30 28-18 19-38 15-46-10l-23 4c-1 12-8 17-19 17-2 14-10 19-27 16l9 10c7 6 12 13 12 23 1 5 3 9 7 13 6 4 8 10 9 17 1 9 0 17-5 25-4 7-5 12-1 20 5 11 1 22-6 31-2 4-6 7-9 10l-5 7-10 11c-11 6-17 15-15 28l-1 1c-3 2-5 0-6-2-1-3-3-7-2-11 0-7-2-13-7-18-6-6-9-13-9-21 0-7-3-13-9-17s-8-11-7-18c1-8-1-16-6-23-4-5-4-11-1-17 2-4 3-9 2-14 0-9 2-17 10-24-10-2-17-6-22-15-7 5-14 7-21 2-7-4-11-10-11-19l-19 6-18 8c4 8 7 17 0 25 2 6 8 12 5 19-2 7-8 11-14 14 1 6 0 12-4 16-4 5-10 8-16 6l-16-8 2 4c5 5 9 11 10 19l8 13 14 27c3 7 2 14-4 21-3 4-4 11-4 16 1 14-6 24-18 30-5 2-7 5-9 10-2 4-6 8-10 11l-12 5c-5 2-9 5-12 10l-5 5-24 14-4 1 1-4c4-5 3-11 1-16l-6-20c-3-7-2-14 3-20 6-7 6-15 2-23l-6-12c-6-12-4-24 5-34l11-12c3-4 4-8 3-13-2-7 0-14 5-20l5-4c4-5 5-11 3-17l-4-10A457 457 0 0 0 18 613c-3 0-6-2-8-1-3 0-5 2-7 4-3-2-2-4-1-7 9-20 17-41 27-61 13-28 28-56 46-81a579 579 0 0 1 113-110c-5-8-12-14-21-18-7-3-12-9-14-17-2-9-11-15-16-22l-15-20c-3-4-3-9-2-14 3-8 2-16-1-24-5-10-4-19 1-28l11-17c3-5 4-11 4-16l2-20c1-3 2-7 5-9 5-6 7-14 8-22l1-6 3 4c0 14 10 23 19 32l10 8c3 4 6 8 5 14-1 4 0 7 3 9l8 6c7 4 12 9 15 17 2 6 2 11 0 17-3 6-3 12 2 18 10 10 9 22 4 34l-3 14c8-2 15-6 23-1 16-10 28-6 34 12l34-12 18-7h-1l-9-3c-5-3-8-6-9-12-1-15 13-27 28-23l3 1c4-11 12-14 22-12v1c-14 1-20 7-17 20 2 7 6 10 16 11-1-14 9-17 21-18-4-7-11-9-17-13 1-8-3-14-10-18l-7-5c-6-4-9-10-9-17-1-8-4-13-10-18-6-3-8-8-9-14v-14c3-9 0-17-5-24l-22-30-4-4 1-2 8 1c11 2 21 2 32-1 13-4 26-1 35 9 7 8 16 12 26 15l15 6c8 5 12 13 14 22 1 5 1 10 3 14s4 9 7 12c12 12 14 25 6 40l-5 10c-2 4-2 8 0 12v9c0 3-2 6-3 8l15 8c8-4 16-2 23 6l10-2c-5-7-5-15-2-22 4-7 9-12 17-13 3-19 14-26 31-21l11-3-19-12c-13-8-25-19-31-34h1c6 9 12 19 21 25l11 8a122 122 0 0 1 32 25c0 1 0 0 0 0Zm77-20 2-1-2 1-3 1-3 2h-1 1l3-2 3-1ZM199 363l-4-3c-2 1-5 0-6 2l-54 44c-24 21-45 45-63 72-25 39-46 81-63 124l-1 5 7 2c32-99 91-177 174-236l6-13 4 3Zm125-68-48 17-7 5 9 3 29-11c8-3 14-7 17-14Zm81-28 2 6 14-21c4-5 7-9 4-15-2-6-2-11 1-16l7-14c4-10 3-19-4-27-9-9-13-18-14-30-2-14-10-22-24-25-12-3-22-8-30-17-10-11-22-12-36-8l-15 1-8 1-7-2 13 16c10 13 18 26 13 44-2 8 1 16 8 21s11 11 11 20c0 5 3 9 7 13l9 6c4 3 7 6 9 11l4 8 18 16c6 7 11 14 14 23 0 3 2 6 4 9h1l1-8h-1l-4-16 3 4Zm163-45 9 3c21 6 40 15 55 31 3 5 8 8 13 11 3 2 7 3 10 2 10-1 19 1 28 6 10 5 20 6 29-1 4-3 9-3 14-2l7 1c9 0 17 0 23-6 5-6 12-9 20-10l6-1v-1l-33-19-13-8-15-19c-8-10-18-13-30-10-8 2-15 3-22 0-11-4-23-4-35-2l-12 4-14 6c-6 7-15 9-26 9-7 0-13 1-20 5l6 1ZM403 499c3-10 9-18 18-23l8-8 8-10c7-6 11-13 13-21 1-5 2-11 0-14-6-10-3-18 1-26l2-4c3-11 4-23-5-32-6-5-8-11-9-18s-4-13-9-17c-9-9-17-18-21-30l-1-1-4 6c-6 5-10 12-11 20 0 9-5 15-13 19-11 5-14 11-14 23 0 5 0 11-2 16-3 6-3 12 1 17 5 6 7 14 6 22-1 7 1 14 7 18s9 10 9 18c0 7 2 13 7 19 6 5 9 12 9 20v6ZM666 82v1c-21 9-35 24-48 42l-2 5 14-7 14-5 13-3 1 1-6 2-29 11c-7 3-12 8-16 14l-10 15 16-6v1c-22 6-30 27-43 43 29-14 51-20 61-18l-6 1-25 6c-15 5-31 11-41 25l-2 2c2-5 6-8 7-13 7-18 12-37 18-55h2l-6 23-9 26 11-14c6-8 12-16 16-24 9-17 10-35 9-53v-6h1c3 15 1 31-2 48l13-20c7-9 12-18 14-29l2-22 1-4c3 12 0 24-3 36l4-4c6-10 12-21 20-31 4-6 7-12 7-19v-9h2v15l47-44 2-1h-1l-1 1-3 1c-11 7-22 11-34 14-13 2-23 8-31 19-5 6-11 11-18 14l-14 4c-30 9-49 43-46 68 1 10-1 20-7 28-5 9-7 18-6 27l5 29c8-4 20-4 32-5 6 0 11-2 14-6 5-6 12-10 18-13 5-1 9-3 13-6 14-9 24-22 28-38 1-7 4-14 10-19 13-12 20-26 15-44-2-6-1-10 3-14 8-7 11-17 9-27l2-11 7-15-42 39 1 2 19-9 1 2-5 3-16 7c-5 3-9 7-12 11l-12 20 24-12ZM176 575c8-4 17-8 22-16 5-6 10-10 17-12l10-5 6-6c1-8 7-12 13-15 10-5 16-13 15-25-1-8 1-15 6-22 2-2 3-7 2-10-2-12-8-21-14-30-4-5-7-10-9-16-1-5-3-9-6-12l-31-29-11-10c-3 6-1 10 1 15 4 10 2 19-5 26l-3 3c-5 5-6 10-4 16 0 4 0 9-2 13l-11 14c-9 8-12 20-6 31 1 4 4 7 6 11 4 10 4 19-3 28-3 5-4 10-3 16l4 12 6 23Zm20-218 1-6c2-16 5-32 13-47 2-2 2-4 2-7 0-6 2-11 4-16 5-12 5-23-4-32-5-5-5-11-3-18 5-13 1-24-11-31l-9-7c-4-3-6-7-6-13 0-3-1-7-3-10-9-9-20-16-27-29l-6 10c-4 4-6 9-7 15l-1 14c0 7-2 14-6 20l-10 17c-4 8-4 16-1 24 4 8 5 17 3 26-2 5-1 9 1 14l14 18c8 9 17 16 19 28 0 2 2 4 4 5l9 6c6 3 12 7 16 13l8 6Zm176-64-12-16-13-4c-12 8-12 19-7 27 6 8 21 14 28 7l4-14Zm135-51c-8-9-21-12-28-6-6 5-8 17-3 23 6 7 20 7 27 1l4-18Zm45-19-6 11-8 8 1 4c3 7 9 8 16 9s12-3 15-9 3-12-1-17c0-2-2-3-4-3l-13-3ZM231 346l-7-2c-9 0-17 6-20 14-3 9 0 15 9 17 13 3 23-7 21-21 0-3-2-5-3-8Zm303-137c-12 0-20 6-20 15 0 8 5 15 13 15 9 1 18-7 19-17l-9-10-3-3Zm-139 76c2-10-2-21-10-26-6-3-13-2-17 2-5 4-5 9-3 15 2 5 5 10 11 13 6-5 12-6 19-4Zm-58-28c-6-5-11-5-16-2-7 5-11 15-9 21 3 6 12 10 20 10l10-16-5-13Zm160 10c-4 9 1 19 15 24 9 3 18-1 21-9l-6-9c-8 0-15-4-20-10l-10 4Zm13-21c-7 11 5 26 21 23 5-3 9-7 9-12l-9-14c-6 1-13-5-21 3Zm-141 65-7 2-8 1c-4 12 1 20 11 23s20-4 21-12l-17-14Zm-118 14-4-3c-7-5-13-3-17 4-5 7-1 16 8 20 2 1 6 2 9 1 11-4 13-15 4-22Zm183-42-9 2c-4 1-8 3-9 7-2 5 1 9 4 13 5 4 12 5 18 2 5-3 7-8 5-14-1-5-4-8-9-10Zm-102 12c-11 7-14 16-7 25 5 8 17 10 23 3l1-10c-7-4-14-9-17-18Zm58 24c-1-10 5-16 12-22-5-7-12-10-18-8-7 2-11 8-11 16 0 7 5 11 17 14Zm-125-3c4-6 4-12 0-17s-11-7-16-4c-6 3-8 11-6 20l10 6 12-5Zm183-25c8 0 13-3 15-9 2-7-1-15-7-19-5-3-10-2-14 2l-3 15 9 11Zm-184 60c1 9-4 16-9 22 10 7 20 6 26-3 5-6 2-14-6-19h-11Zm-26-53c-7-3-13 0-19 4-5 3-7 8-6 14 2 6 6 9 10 10l14-12 1-16Zm295-26c3 7 8 11 14 10s14-9 16-16l-1-7-16-1-13 14Zm-273 71c8 5 16 5 20-1 4-5 2-13-3-17-6-5-14-5-17-2v20Zm152-66c7 7 19 7 24-1 3-5 2-12-3-16-5-3-10-4-14 1-3 4-7 9-7 16ZM245 377l-4 17c6 4 12 9 20 4 6-3 8-8 7-14l-18-8-5 1Zm-8-8c3 3 7 5 12 2 6-4 10-10 11-18l-2-7-1-1c-5 6-12 6-18 6l-2 18Zm256-142 20 12h1c-5-9-7-18 0-27-11-3-21 4-21 15ZM224 339l-2-7-14-13c-3 10-7 19-5 28l21-8Zm10 35-16 8 15 12c6-4 8-10 7-17l-6-3Zm234-100c9 1 21-2 24-6-9 0-17-4-26 1l2 5Zm-53 11-5-2 1 7 4-5Zm-10 9 1-1-5-5v1l4 5Zm113-176-1 24-3-6h-1v4l-15-12c-4-4-10-7-16-9 27 12 39 36 50 61a91 91 0 0 0-40-22l2 1c8 4 17 8 24 13 11 8 21 16 26 29l3 11 1-1v-8l-9-16a346 346 0 0 1-7-12v-1c-7-10-12-21-13-33v-23h-1Zm-16-21c-12-14-19-31-26-48 4 14 8 28 17 39 5 6 8 13 12 19l-2 1c-6-7-14-13-25-17l22 17c5 4 7 9 9 15l4 13h1l-8-29-2-15-1-12h-2l1 17Zm-21 62c-6-13-8-27-6-42 1-6 0-12-5-17 2 8 2 15 2 23-2 13 2 25 9 36Zm51-18v32h1l1-32h-2Zm-13-25v-6h-2v6h2Zm15 25-1-2h-1v2h2Zm-67-47c0 1 0 1 0 0 0 1 0 1 0 0ZM360 241h3v-1h-3v1Zm110-141Zm62 73v2h1v-2h-1Zm-13-55v-2h-1v2h1Zm29 95h1l-1-2h-1v2h1ZM220 521l3 6h1l-2-6-6-20 2-18 2-19c5 12 11 24 20 34l-19-35-5-29-3-13v-2l4 5 19 27 9 13 1-1-3-5c-15-22-32-43-40-69l-5-14-2 1 6 13c7 15 5 30-3 44l-6 11-6 9 2 1c9-12 15-26 20-42l3 9 2 13c1 8 0 16-5 22l-20 25-4 4 1 1c13-10 23-22 30-38l1 1v34l-3 8-17 18-5 5-5 5 1 1 25-22a366 366 0 0 1-28 64c11-17 19-36 27-55l3-6 5 20Zm190-238 1 7 4-5-5-2Zm-4 10-5-5-1 1 5 5 1-1Zm-211 67ZM711 13l2-1h-1l-1 1ZM548 210v-3 3Zm69-9 3-2v-1l-3 3Zm0-1h-1 1Zm6-3 2-1-2 1Zm0 0-3 1v1l3-2Zm-75 8v2-2Zm0 6v1-1Zm65-57 32-10-1-2-31 10v2Zm-29-14 1-19h-2v19h1Zm82-57 7-2v-2l-7 3v1Zm-82 61v-4h-1l-1 4h2ZM213 418l4 5 19 28 9 13 2-1-4-5c-15-22-32-43-40-69h-1c7 15 5 30-3 44l-6 11-5 9 1 1c9-12 16-26 20-42l3 9h1v-3Zm4 65-3 8-17 18-5 5-5 5 1 1 25-22a366 366 0 0 1-28 64c11-17 19-36 27-55l3-6h2l1-17-1-1Zm1 0 2-19v-1h2l-6-29h-1c0 8-1 16-5 22l-20 25-4 4h1c13-9 23-21 29-37l1 1v34h1Zm2-20v1c5 12 11 24 20 34l-18-35h-2Zm-5 38 6 20h1a1884 1884 0 0 0-7-20Zm-12-112-5-14h-2l6 14h1Zm13 45-3-13h-1l3 13h1Zm4 87 3 6h1l-2-6h-2Zm-33-256-1-2-39-40-3-2 1 2 25 26c10 10 20 21 18 37v12c-13-23-33-49-41-52l8 8c11 13 21 26 29 41 2 4 3 7 3 11v17c-9-16-21-31-35-43l18 22c6 7 12 16 16 25l7 27 2-1-2-9c-5-16-2-30 5-44l6-12 3-6-4 3-14 30 1-15c0-7 2-14 4-20 4-12 5-24 4-37l-1-5-1 23-6 22-2-18h-1Zm-14-66-2 11c-4-7-8-13-13-18h-1l4 6 8 17-25-26-1 2c4 4 9 8 12 13 7 7 13 14 18 22 5 9 8 20 12 31l2-1-3-13c5-13 6-30 0-38 1 12 4 24-2 35-5-12-13-22-8-36l1-5h-2Zm-14-7-5-41c-1 14-2 28 3 41h2Zm16 7c1-9-1-18-6-26l4 26h2Zm10 58 1 6 1 2h1l-1-8h-2Zm234 173-2-15v-35c6 10 10 21 18 30l-13-27c-10-16-12-34-8-52 9 13 18 26 31 35l-9-10c-10-12-22-24-24-41h-1c2 13-2 26-9 37l-10 15 2 1 16-26 1 21c1 6 1 12-2 18-4 11-11 20-19 29l-4 6h1c12-11 21-25 27-41l2 25c1 19-4 35-18 48l-4 5 1 1 17-19-2 14h1l5-24 2 5h1Zm-7 32-1-13h-1c-1 8-3 15-10 20l1 1 6-4-1 20h1l1-9 3-15h1Zm6-32c1 9 5 16 10 23l-9-23h-1Zm-10-130 3 15h1l-3-15h-1Zm3 162 5 10 2-1-6-9h-1Zm-2-162-2-3v3h2Zm344-52c-12-4-24-7-34-16l11-6c-6 1-12 4-18 4l-27 1v2c21-1 34 12 48 24-8-11-18-18-30-25h4l19 8 27 9v-1Zm-128-25h5v-2h1c12-5 25-8 36-15l-26 9c-9 4-18 6-28 4h-11v1c7 2 14 2 20 5l25 14 19 12 1-1-17-12-25-15Zm6-2-1 1v1l9 1c7 2 14 3 20 6 7 2 14 7 20 11a1779 1779 0 0 1 24 11l-41-24 24 5-1-2-16-4 8-3v-1l-20 1-26-3Zm-29-3-32 1-2 3h-1l35-2v-2Zm75 6c12-2 21-7 31-14l-31 13v1Zm76 25c6 3 14 4 20 5l1-2-21-4v1Zm-355-51c-3-11-8-21-7-33l1-21h-1l-3 29-20-33-1 1 1 4c-11-9-22-17-29-29h-1l4 8-40-23 4 5 42 26 16 13c-13-5-25-11-39-12 14 4 26 9 38 16 13 7 20 18 26 31-17-12-35-19-54-24 1 2 3 2 6 3l40 18c11 6 15 16 16 29-13-12-48-30-58-29l31 13c12 6 25 13 31 27v-4c1-7 0-14 2-21 1-9 4-17 7-25l1-4h-2l-3 8-8 27Zm2 46c-12-18-27-30-44-40l7 6 28 25c6 5 10 12 10 21l2 7c2-13 3-25 6-37l8-29h-1l-4 8-9 33-1-3-2 9Zm2-9c2-6 2-12-1-18l1 18Zm-43-115 8 21h1l-8-21h-1Zm33 24 2-12h-2l-1 12h1Zm-53-28-4-12-2 1 5 11h1Zm21 4-4-11-1 1 3 10h2Zm57 77 1-2-1-1-1 3h1Zm-231 66 1 2-1-2Zm-17-48c0 1 0 0 0 0Zm461 6v1l1-1h-1Z" opacity=".3"/></svg>