<svg width="797" height="617" viewBox="0 0 797 617" fill="none" xmlns="http://www.w3.org/2000/svg">
<path opacity="0.3" d="M546.054 216.915C546.42 215.691 546.785 214.468 547.15 213.244C547.516 213.215 547.966 213.089 548.43 213.145L548.599 212.948C548.57 212.582 548.528 212.034 548.5 211.668C548.753 211.372 548.64 211.105 548.527 210.838C548.499 210.472 548.485 210.29 548.457 209.924C548.372 208.827 548.203 207.828 548.118 206.731C548.075 206.183 548.019 205.451 547.976 204.903L547.991 205.086C547.934 204.354 547.892 203.806 547.835 203.074L547.849 203.257C547.537 196.844 546.944 190.36 547.18 183.904C547.458 174.409 548.016 164.986 549.222 155.603C550.554 144.28 547.723 135.027 538.929 127.154C526.983 116.581 518.989 103.588 516.9 87.2877C515.912 79.2709 511.156 73.6608 504.979 68.7124C495.961 61.5006 487.096 53.9089 478.246 46.5002C477.163 45.5723 476.08 44.6445 475.095 43.8009C473.254 49.7372 471.752 55.2796 469.869 60.6673C466.034 71.7242 465.152 82.9205 466.775 94.383C465.423 89.9812 462.959 85.4813 463.084 81.1491C463.278 74.1446 464.654 66.9566 466.521 60.1905C468.6 52.5803 472.268 45.3071 471.336 36.8261C475.614 41.0017 479.456 45.487 484.07 49.2686C490.472 54.7515 497.127 59.9388 503.937 64.7464C510.747 69.5539 515.63 75.614 518.08 83.5177C519.432 87.9196 520.32 92.2654 521.489 96.6814C523.744 105.612 527.601 113.867 534.777 119.841C548.129 130.765 555.322 144.096 551.63 161.763C551.475 162.143 551.785 162.579 552.038 163.479C557.324 156.908 560.177 149.79 560.469 141.674C560.566 138.172 560.578 134.768 560.31 131.294C558.4 104.219 579.428 70.4963 608.849 62.0591C614.432 60.5237 620.184 58.7913 625.317 56.1871C629.999 53.7097 635.104 50.7399 638 46.5613C646.715 34.3913 658.682 27.3959 672.704 24.3802C688.807 20.9277 702.7 13.8752 715.862 4.48832C717.957 3.03874 720.362 2.02508 722.668 0.92703C723.076 1.44728 723.568 1.86903 723.976 2.38928C721.77 5.96276 719.746 9.52212 717.539 13.0956C714.517 18.0197 711.411 23.0422 708.487 28.0507C705.001 34.1142 703.288 40.5006 703.952 47.8986C704.997 57.8423 700.5 66.2833 694.567 74.0076C693.316 75.6678 691.784 77.2578 690.181 79.1291C690.646 81.5763 691.027 84.1219 691.675 86.555C696.45 104.303 689.086 118.484 677.417 130.515C671.287 136.875 666.887 143.009 665.076 151.702C661.918 166.753 652.484 177.967 640.983 187.41C638.396 189.633 635.513 191.603 632.729 193.658L632.265 193.602L632.715 193.475C647.019 191.725 661.028 193.309 675.011 196.918C679.512 198.041 684.87 197.167 689.666 196.152C706.923 192.151 717.445 196.211 727.241 211.088C734.024 221.508 742.818 229.381 754.565 233.807C758.926 235.493 763.076 238.023 766.959 240.665C776.188 247.033 784.827 254.09 796.165 256.8C796.208 257.349 796.067 257.912 796.11 258.46C794.478 258.77 792.875 259.446 791.229 259.573C784.731 259.984 778.191 259.846 771.918 260.791C768.374 261.341 763.888 262.791 761.695 265.352C752.725 275.426 741.404 277.682 729.278 275.492C721.542 274.159 715.058 274.753 708.506 279.214C702.558 283.169 695.708 282.595 689.068 281.177C685.889 280.503 682.78 279.548 679.896 277.932C671.821 273.406 663.522 271.933 654.31 272.921C643.634 274.022 636.585 267.302 629.718 260.568C619.362 250.332 608.514 240.871 594.925 235.208C588.65 232.567 582.137 230.403 574.555 227.495C578.048 239.364 575.45 248.578 566.788 255.502C567.992 274.63 556.013 286.225 537.46 284.165C518.564 302.64 499.405 298.696 490.886 274.155C483.544 275.551 476.203 276.946 468.228 278.483C467.094 289.974 459.824 294.675 448.966 294.595C447.298 308.703 439.339 314.009 421.517 310.697C424.627 314.043 427.483 317.685 430.832 320.553C438.289 326.598 442.737 334.163 443.388 343.77C443.798 349.072 445.881 353.417 449.99 356.595C455.758 361.023 458.067 367.098 458.872 373.933C459.832 382.78 458.555 391.248 454.001 398.957C450.094 405.513 449.449 411.449 452.884 419.001C457.967 430.012 453.723 440.549 447.384 450.144C444.91 453.83 441.381 456.954 438.428 460.401C436.657 462.469 434.998 464.805 433.227 466.873C430.021 470.616 427.337 475.146 423.385 477.567C412.122 484.14 406.077 492.792 407.658 506.097C407.686 506.463 407.349 506.857 407.11 507.335C404.115 509.039 401.962 507.366 401.033 504.862C399.766 501.558 398.372 497.803 398.567 494.385C399.197 487.071 396.719 481.192 391.738 476.243C385.758 470.268 382.731 463.237 382.995 454.755C383.175 447.568 380.275 442.182 373.888 438.078C367.697 434.142 365.613 427.405 366.637 420.429C367.885 411.595 366.18 403.818 360.663 396.703C356.779 391.669 356.918 386.324 359.672 380.317C361.64 376.027 362.524 370.808 362.339 366.04C361.983 356.687 364.019 348.528 371.851 341.577C362.426 339.822 355.041 335.887 349.678 327.197C343.126 331.658 336.22 333.94 328.778 329.273C321.912 324.93 318.211 318.686 317.504 309.544C311.161 311.966 305.072 314.092 299.278 316.472C293.484 318.851 287.789 321.315 281.46 323.92C285.065 332.47 288.472 340.851 280.528 348.731C283.316 355.045 288.705 360.514 286.162 368.069C283.844 374.962 278.234 378.522 272.145 381.844C273.174 388.018 271.854 393.547 267.707 398.19C263.559 402.833 258.356 405.719 252.223 403.71C246.934 401.912 242.01 398.89 235.89 395.868C236.862 397.724 237.045 398.906 237.748 399.679C242.856 405.078 246.614 410.857 248.404 418.536C249.615 423.501 253.626 427.789 256.103 432.472C260.734 441.218 265.899 449.74 269.729 458.824C272.784 466.221 272.421 473.423 266.151 480.346C263.016 483.807 262.062 490.502 262.36 495.538C263.322 510.362 256.04 519.662 243.848 526.123C239.433 528.488 236.621 531.373 234.597 536.127C232.714 540.32 228.764 543.936 224.939 546.807C221.55 549.368 217.12 550.355 213.112 552.044C208.303 554.071 203.986 556.52 201.442 561.683C200.416 563.878 198.378 566.059 196.268 567.326C188.366 572.167 180.252 576.658 172.138 581.148C171.168 581.683 169.789 581.697 167.975 582.021C168.396 580.333 168.283 578.871 168.958 578.083C172.697 572.919 172.273 567.434 170.47 561.963C168.287 555.143 165.753 548.533 163.57 541.712C161.359 534.526 161.877 528.14 167.078 521.668C172.631 514.985 172.74 506.883 169.01 499.078C167.039 495 164.717 491.133 162.83 486.957C157.199 474.792 159.121 462.78 168.189 452.79C171.831 448.737 175.387 444.784 178.93 440.647C181.967 437.101 182.936 432.98 181.668 428.48C179.583 420.548 181.746 414.034 187.286 408.364C188.818 406.774 190.168 405.198 191.602 403.524C196.002 398.585 197.125 392.888 194.802 386.63C193.76 383.86 192.619 381.005 191.113 376.983C107.196 437.09 49.7152 515.569 17.9816 613.027C14.9996 612.521 12.2282 611.172 9.69674 611.736C7.1652 612.3 5.12658 614.481 2.67992 616.141C-0.4294 613.991 1.49662 611.542 2.33962 609.362C10.9673 588.922 19.4965 568.397 28.6869 548.097C41.6575 519.595 57.0196 492.288 74.9001 466.626C88.3948 447.281 104.056 429.791 121.083 413.3C141.174 393.628 162.588 375.602 185.31 359.038C186.182 358.419 186.857 357.631 187.616 356.744C182.662 348.574 175.543 343.331 167.313 339.185C160.138 335.601 155.03 330.202 152.917 321.905C150.55 312.707 142.236 307.464 136.818 300.434C131.709 293.839 126.502 287.16 121.83 280.256C119.015 275.967 118.732 271.115 120.361 266.023C123.044 257.906 122.028 249.524 118.509 242.07C113.891 232.311 115.111 223.112 120.031 214.178C123.333 208.129 126.918 202.15 130.713 196.522C133.918 191.584 134.886 186.267 135.179 180.542C135.416 174.086 136.116 167.686 137.365 161.244C137.941 157.98 139.416 154.463 141.525 152.001C147.191 145.585 149.1 138.172 149.575 130.042C149.729 128.466 150.53 126.933 151.415 124.106C152.865 126.201 154.033 127.03 154.005 127.86C154.292 142.277 163.902 151.19 173.245 160.216C176.228 163.112 179.45 165.53 182.518 168.328C186.472 171.885 188.724 176.033 187.587 181.547C186.702 185.57 188.152 188.861 191.374 191.279C193.921 193.289 196.552 195.201 199.253 196.831C205.739 201.02 211.015 206.222 213.972 213.535C216.366 219.512 216.256 225.222 213.768 231.117C211.028 237.306 211.129 243.369 216.124 248.5C226.213 258.848 225.009 270.621 220.344 282.846C218.672 287.39 217.563 292.074 216.777 297.377C224.864 294.912 232.345 290.563 240.28 295.651C256.169 285.869 267.55 290.323 273.549 308.437C284.912 304.339 296.191 300.34 307.554 296.243C313.545 294.032 319.62 291.723 325.696 289.413L326.061 289.385L325.499 289.245C322.277 288.022 318.971 286.899 315.834 285.578C310.882 283.386 307.941 279.842 307.419 274.273C306.034 258.745 319.827 246.826 334.766 250.913C335.61 251.124 336.454 251.334 337.678 251.7C341.823 241.079 349.656 237.714 360.318 240.016C360.346 240.382 360.375 240.748 360.304 241.029C345.747 241.879 340.433 248.084 343.153 260.657C344.604 267.534 349.289 271.035 359.403 272.184C358.469 257.725 368.06 254.5 380.339 253.919C376.003 246.62 368.886 244.964 363.188 241.45C363.258 241.168 363.23 240.803 363.3 240.521C363.522 232.687 359.877 227.175 353.405 223.169C350.802 221.623 348.368 219.88 345.934 218.137C340.18 213.891 336.985 208.252 336.616 201.107C336.205 193.414 333.362 187.564 326.51 183.403C321.206 180.227 318.574 174.728 317.84 168.807C317.219 164.349 316.753 159.51 317.905 155.375C320.503 146.161 318.418 138.229 313.155 130.819C305.752 120.723 298.097 110.923 290.526 101.024C289.4 99.5473 288.372 98.1553 287.331 96.5804C287.57 96.1021 287.809 95.6238 288.048 95.1455C290.636 95.3132 293.392 95.2839 295.91 95.733C306.643 97.754 317.122 97.6794 327.922 94.6368C341.339 90.9322 353.788 93.7401 363.357 104.496C370.21 112.243 378.904 116.445 388.596 119.282C393.773 120.813 398.963 122.527 403.578 125.113C411.949 129.892 416.411 137.64 418.06 147.077C418.878 151.705 419.26 156.641 420.977 161.015C422.597 165.304 424.877 169.818 428.071 173.066C439.947 185.115 442.048 198.012 434.009 212.981C432.154 216.343 430.594 219.958 429.119 223.475C427.489 227.372 427.321 231.156 429.025 235.347C430.137 237.836 429.843 241.169 429.324 243.968C428.72 246.866 427.273 249.553 426.275 252.113C430.875 254.517 435.377 256.836 440.737 259.548C449.259 255.578 457.446 257.98 464.383 265.629C467.463 265.023 470.459 264.515 474.172 263.768C469.387 256.597 468.554 249.396 472.405 242.108C475.834 235.313 480.952 230.135 488.983 229.33C491.563 210.369 502.742 202.699 519.819 208.276C522.688 207.318 525.923 206.332 530.69 204.952C523.557 200.721 517.41 197.334 511.683 193.454C498.768 184.613 487.3 174.279 480.909 159.415C481.092 159.401 481.359 159.288 481.64 159.358C487.861 168.442 493.645 177.835 502.79 184.302C506.491 186.958 510.022 189.812 514.046 191.892C525.863 198.428 536.795 206.595 546.054 216.915C546.266 217.267 546.378 217.534 546.28 217.45C546.378 217.534 546.167 217.182 546.054 216.915ZM622.702 197.192C623.588 196.756 624.488 196.503 625.374 196.066C624.572 196.404 623.686 196.84 622.702 197.192C621.816 197.629 620.93 198.065 619.946 198.417C618.807 199.149 617.569 199.797 616.515 200.43C616.149 200.458 615.868 200.388 616.332 200.444C615.98 200.655 616.247 200.543 616.599 200.332C617.738 199.6 618.975 198.952 620.03 198.319C621.014 197.967 621.9 197.53 622.702 197.192ZM198.885 363.322C197.422 362.24 196.142 361.143 194.861 360.047C192.794 360.666 190.206 360.499 188.744 361.807C170.83 376.344 152.72 390.712 135.314 405.853C110.933 427.144 89.5216 451.148 72.0356 478.344C46.9169 517.441 26.2158 558.956 9.14425 602.214C8.52602 603.733 8.28757 605.407 7.69762 607.292C10.4125 607.91 12.5647 608.387 14.8153 608.949C47.111 510.437 105.9 432.224 188.622 373.313C191.067 368.065 192.964 364.056 194.763 359.962C196.226 361.045 197.506 362.141 198.885 363.322ZM323.996 294.787C307.964 300.349 291.932 305.912 276.012 311.741C273.776 312.558 271.92 314.725 269.235 316.864C273.117 318.311 275.495 319.323 278.154 320.405C287.787 316.533 297.377 312.112 307.334 308.859C314.942 306.156 320.595 301.948 323.996 294.787ZM404.677 266.567C405.395 268.719 406.127 271.054 406.634 272.854C411.779 265.65 416.784 259.009 421.493 252.115C424.627 247.459 428.212 242.675 425.354 236.642C422.82 231.228 423.437 226.122 425.897 221.058C428.019 216.387 430.703 211.857 432.825 207.186C437.125 197.381 435.911 187.634 428.608 180.014C420.405 171.452 415.802 161.875 414.629 150.286C413.161 136.052 404.606 127.701 391.116 124.514C379.497 121.734 369.185 116.829 360.869 107.999C350.751 97.2858 338.866 95.8138 325.266 99.5326C320.4 100.829 315.069 100.873 310.048 101.353C307.306 101.565 304.535 101.412 301.694 101.54C299.907 101.034 298.036 100.627 294.942 99.8545C300.036 106.266 304.103 111.286 307.902 116.418C317.542 129.284 325.621 142.178 320.916 159.832C318.782 167.907 322.147 175.739 329.35 180.884C336.258 185.776 339.707 192.315 339.978 200.571C340.135 206.169 342.584 210.486 346.889 213.832C349.815 215.997 352.756 218.345 355.837 220.13C360.367 222.814 363.308 226.358 364.984 231.378C365.843 234.163 367.11 237.468 369.348 239.042C375.96 243.681 380.928 249.642 386.598 255.182C393.366 261.832 398.053 268.919 400.588 277.92C401.476 281.07 403.446 283.952 404.868 286.877C405.318 286.751 405.866 286.708 406.316 286.582C406.667 283.979 407.003 281.194 407.354 278.592C406.805 278.634 406.355 278.761 405.807 278.804C404.665 273.558 403.524 268.312 402.284 262.982C403.297 264.191 403.945 265.428 404.677 266.567ZM567.576 221.689C570.882 222.812 574.103 224.035 577.395 224.976C598.172 230.819 616.573 240.432 631.517 256.474C635.429 260.678 640.297 264.164 645.221 267.186C647.922 268.817 651.777 269.898 654.871 269.475C664.969 268.05 673.803 270.494 682.891 275.033C692.556 279.896 702.683 281.228 712.245 274.051C716.337 271.067 720.894 270.531 725.845 271.527C728.461 272.061 730.909 272.791 733.497 272.959C741.627 273.434 749.982 273.247 755.732 266.733C761.229 260.514 767.838 257.979 775.503 257.203C777.698 257.033 779.878 256.68 781.973 256.426C782.114 255.864 782.156 255.217 782.38 254.556C771.14 248.343 759.885 241.948 748.728 235.637C744.494 233.206 739.64 231.098 736.249 227.682C730.663 222.044 725.935 215.604 721.037 209.361C713.171 199.209 703.239 195.655 690.737 199.288C683.452 201.415 676.391 201.685 669.118 199.213C657.513 195.42 645.712 195.045 633.898 196.878C629.904 197.555 626.064 199.048 622.324 200.625C618.049 202.427 613.886 204.496 607.769 207.452C602.3 214.037 592.821 216.333 582.413 216.127C575.324 216.031 568.517 217.201 561.978 220.65C563.849 221.057 565.804 221.366 567.576 221.689ZM403.45 499.249C405.668 488.685 411.994 481.299 421.43 476.062C424.425 474.359 426.562 471.067 428.923 468.309C431.876 464.862 434.237 460.909 437.499 457.898C443.77 452.171 448.212 445.389 449.685 437.09C450.513 432.336 451.79 426.259 449.665 422.561C444.345 413.224 446.578 405.234 451.469 397.13C452.2 395.878 452.818 394.359 453.268 393.036C456.428 381.572 457.267 369.827 447.938 360.984C442.478 355.796 439.565 350.227 438.83 343.111C438.096 335.994 435.182 330.425 430.032 325.673C421.027 317.449 413.063 308.408 409.288 296.468C409.176 296.201 408.697 295.962 408.008 295.372C406.49 297.144 405.168 299.086 403.537 300.592C397.534 306.206 393.893 312.649 393.377 321.426C393 329.641 388.277 336.352 380.191 340.012C368.913 345.207 366.116 350.665 366.318 362.789C366.461 368.204 365.816 374.14 363.526 379.008C360.532 385.493 361.027 390.697 365.009 395.815C370.216 402.494 372.245 409.695 370.785 418.177C369.578 425.167 371.635 431.538 377.938 435.741C384.438 440.113 387.112 446.16 386.891 453.994C386.711 461.182 388.851 467.454 394.311 472.642C400.065 478.083 402.98 484.847 402.505 492.977C402.21 495.115 403.013 497.168 403.45 499.249ZM666.201 81.8114C666.328 82.2614 666.37 82.8099 666.398 83.1756C645.248 91.525 630.556 107.284 618.073 125.447C617.244 126.615 616.612 127.952 615.572 129.963C620.887 127.345 625.204 124.896 629.662 123.08C634.204 121.165 638.859 119.517 643.613 117.954C648.099 116.504 652.726 115.686 657.325 114.503C657.466 115.136 657.593 115.586 657.734 116.218C655.751 116.74 653.669 117.177 651.799 117.965C642.137 121.471 632.279 124.809 622.843 128.849C615.98 131.679 610.581 136.787 606.561 143.076C603.356 148.014 600.447 153.205 597.425 158.13C602.6 156.074 607.691 154.117 612.866 152.061C612.993 152.511 612.937 152.975 613.063 153.425C591.18 159.44 583.171 179.557 570.336 195.54C598.813 182.026 620.935 175.533 631.063 178.06C628.714 178.61 627.083 178.92 625.466 179.413C617.055 181.259 608.518 182.655 600.347 185.218C584.639 190.204 569.253 195.808 559.245 210.285C558.753 211.059 557.783 211.594 556.911 212.213C559.117 207.444 562.773 203.575 564.43 198.848C570.668 180.8 576.329 162.428 582.285 144.31C582.833 144.267 583.298 144.323 583.846 144.281C581.852 151.792 580.223 159.276 577.849 166.633C575.124 175.397 571.837 184.02 568.732 192.629C573.273 188.323 576.872 183.723 580.26 178.77C585.714 170.807 591.73 162.984 596.326 154.628C605.181 138.308 606.285 120.473 604.969 102.273C604.799 100.079 604.728 97.9694 604.558 95.7753C605.107 95.7329 605.571 95.789 606.12 95.7465C609.164 111.33 607.328 126.83 603.565 143.584C608.696 136.197 612.505 129.557 617.215 123.858C624.188 115.318 629.163 105.92 630.987 95.019C632.25 87.5639 632.584 79.9966 633.481 72.5698C633.664 71.3601 633.93 70.052 634.211 68.9266C636.635 81.2468 633.954 92.9502 631.272 104.654C632.65 103.443 633.648 102.079 634.548 100.63C641.126 90.5562 647.31 80.1453 654.564 70.4795C659.063 64.4296 661.521 58.1696 661.603 50.8978C661.644 47.8597 661.769 44.7231 661.81 41.685C662.457 41.7269 663.104 41.7688 663.653 41.7264C663.655 46.5086 663.671 51.4736 663.659 57.2685C679.856 41.9448 695.294 27.5075 710.633 12.9859C711.252 12.6621 711.885 12.5212 712.503 12.1975C712.391 11.9303 712.292 11.8459 712.18 11.5787C711.659 11.9869 711.153 12.5778 710.633 12.9859C709.648 13.3379 708.566 13.6056 707.595 14.1405C697.063 20.657 685.742 25.3032 673.619 27.8962C661.496 30.4891 651.006 36.3587 643.33 46.5169C638.326 53.1578 632.35 57.9424 624.559 60.6602C620.087 62.2936 615.629 64.1099 611.129 65.3776C580.779 73.7026 561.665 108.381 564.98 133.416C566.306 143.43 563.624 152.742 558.395 161.24C553.251 169.639 550.737 178.754 551.669 188.431C552.7 198.192 554.926 207.952 556.561 217.206C564.9 213.251 576.996 212.683 589.092 212.115C594.592 211.874 599.584 209.833 603.394 205.583C608.286 199.871 614.53 196.169 621.392 193.339C625.766 191.621 630.224 189.805 634.161 187.201C648.251 177.927 657.754 165.236 661.713 148.651C663.37 141.534 666.11 135.344 671.791 130.306C685.035 118.43 692.104 103.996 686.935 85.9099C685.301 80.2423 686.368 76.2051 690.459 72.026C697.7 64.5685 700.762 55.4108 699.478 44.7498C699.027 41.29 699.827 37.3654 701.035 33.9611C702.847 28.8547 705.504 23.9589 707.949 18.7115C693.72 32.1356 679.745 45.2643 665.685 58.4914C665.995 58.9273 666.304 59.3631 666.712 59.8834C673.209 57.0817 679.791 54.1816 686.288 51.38C686.513 51.9144 686.822 52.3503 686.949 52.8003C685.177 53.6731 683.321 54.6443 681.549 55.5171C676.318 58.0369 670.58 59.9521 665.856 63.0766C661.482 65.9899 657.363 69.8033 654.284 73.996C649.125 81.0167 645.035 88.7823 641.521 94.4802C648.679 90.7078 657.44 86.2596 666.201 81.8114ZM175.863 574.606C183.555 570.608 192.766 567.229 198.29 558.984C202.592 552.766 208.09 548.938 215.079 546.558C218.482 545.375 222.054 543.995 225.12 542.011C227.398 540.547 230.449 538.379 230.828 536.143C232.217 527.942 238.109 524.452 244.367 520.933C253.887 515.598 259.566 508.169 258.647 496.285C258.025 488.24 260.202 480.714 265.473 473.96C267.399 471.512 267.791 467.067 267.255 463.706C265.366 452.356 259.216 442.991 252.798 433.739C249.392 428.944 246.31 423.572 244.493 417.919C243.028 413.25 241.409 408.961 237.934 405.643C227.634 396.139 217.166 386.832 206.866 377.328C203.109 373.94 199.62 370.439 195.75 366.784C192.982 372.608 194.826 377.431 196.854 382.241C200.922 392.043 199.393 400.806 191.604 408.306C190.662 409.206 189.917 410.276 188.975 411.176C184.448 415.665 183.465 420.799 184.509 427.156C185.199 431.333 184.583 436.439 182.657 440.083C180.099 445.063 176.233 449.776 172.03 453.688C162.764 462.314 159.984 473.933 165.558 485.366C167.318 489.093 169.696 492.495 171.541 496.123C176.228 505.602 175.684 515.208 169.442 523.692C165.618 528.954 164.734 534.173 166.481 540.108C167.608 543.975 169.199 547.899 170.241 551.865C172.185 559.164 173.96 566.66 175.863 574.606ZM195.577 357.416C196.251 354.237 196.588 352.648 196.827 350.974C199.155 334.699 201.581 318.509 210.493 304.117C211.631 302.189 212.446 299.643 212.361 297.351C212.26 291.288 214.058 285.999 216.306 280.583C221.042 269.273 220.84 258.344 211.821 248.741C206.91 243.511 206.921 237.716 209.085 231.203C213.524 218.444 209.638 207.432 198.382 199.842C195.09 197.705 192.065 195.456 188.942 193.122C184.538 189.692 182.651 185.516 183.029 179.693C183.253 176.64 182.013 172.506 179.917 170.369C170.658 161.244 159.782 153.808 153.209 141.349C150.847 145.302 149.442 148.538 147.151 151.014C142.975 155.292 141.163 160.398 140.405 166.067C139.76 170.807 139.115 175.547 139.202 180.231C139.205 187.404 137.111 193.636 133.162 199.643C129.451 205.173 126.134 211.039 123.098 216.976C119.022 224.925 118.618 232.773 122.489 241.211C126.149 249.297 127.461 257.932 124.722 266.513C123.022 271.887 123.558 276.444 126.457 280.634C130.905 287.004 135.436 293.275 140.488 299.138C147.679 307.687 156.515 314.913 158.897 326.684C159.319 328.583 161.036 330.566 162.696 331.817C165.736 334.249 168.859 336.582 172.306 338.339C178.341 341.459 183.758 344.903 187.965 350.555C189.528 352.918 192.327 354.633 195.577 357.416ZM371.873 293.108C367.764 287.54 363.964 282.407 359.771 276.938C355.818 275.772 351.302 274.466 346.97 273.145C334.989 281.153 334.656 292.307 339.934 299.9C345.62 308.014 360.503 313.76 367.955 306.654C369.43 301.942 370.637 297.342 371.873 293.108ZM507.104 242.46C499.392 233.123 486.184 230.006 479.013 235.987C472.531 241.363 471.186 252.503 476.181 258.83C481.698 265.945 495.594 266.066 503.384 259.761C504.661 253.685 505.728 248.452 507.104 242.46ZM551.88 223.27C549.28 227.702 547.706 231.135 545.625 233.963C543.461 236.889 540.606 239.225 537.893 242.194C538.175 243.46 538.288 244.922 538.851 246.258C541.962 253.191 548.489 254.342 554.987 255.127C562.133 255.954 566.885 252 570.202 246.133C573.435 240.365 572.884 234.43 569.422 228.903C568.577 227.497 567.001 226.148 565.412 225.811C560.728 224.701 556.17 224.042 551.88 223.27ZM231.186 345.741C228.288 345.138 225.911 344.126 223.52 344.127C214.602 344.173 207.038 349.816 204.017 358.327C201.067 366.556 204.403 372.828 213.04 375.103C225.517 378.277 236.287 367.695 234.368 353.589C233.987 351.043 232.326 348.596 231.186 345.741ZM534.039 209.015C521.564 209.428 513.929 215.353 513.693 224.2C513.5 232.4 519.354 239.121 527.104 239.442C536.246 239.93 544.5 232.486 545.649 222.373C543.003 219.083 540.329 215.427 537.402 212.066C536.572 210.843 535.221 210.028 534.039 209.015ZM395.176 285.236C397.338 275.136 392.509 263.83 384.631 259.473C378.863 256.24 371.802 256.51 367.711 260.689C363.352 264.981 363.214 270.326 365.199 275.782C367.171 281.056 370.295 285.78 375.852 288.662C381.645 283.891 388.326 283.466 395.176 285.236ZM337.075 256.988C331.278 252.195 325.989 251.592 321.026 255.195C313.967 260.247 310.103 269.743 312.426 276.001C314.722 281.893 323.598 286.081 331.84 285.627C335.284 280.211 338.489 275.273 341.947 270.039C340.553 266.284 338.934 261.995 337.075 256.988ZM497.493 266.839C492.701 276.222 498.275 286.459 512.174 291.363C520.586 294.299 529.642 290.104 532.845 281.579C531.072 278.865 529.186 275.884 527.188 272.635C518.678 273.202 512.122 269.294 506.522 263.473C503.119 264.656 500.348 265.698 497.493 266.839ZM510.467 245.51C503.102 257.3 514.88 271.656 531.476 268.625C536.397 265.669 540.25 261.969 540.36 257.454C536.884 251.745 534.252 247.442 531.395 242.604C525.08 244.196 517.609 237.969 510.467 245.51ZM368.758 311.099C367.141 311.592 364.835 312.69 362.303 313.253C359.589 313.831 356.93 313.945 354.286 314.241C350.493 325.846 354.745 334.439 365.351 337.205C374.832 339.691 384.816 333.217 386.261 324.552C380.492 320.124 375.118 316.033 368.758 311.099ZM250.714 324.734C249.532 323.722 248.533 322.695 247.267 321.782C240.387 317.255 234.058 318.665 229.828 325.797C225.428 333.127 228.878 342.057 238.022 346.132C240.498 347.229 244.042 347.874 246.56 347.128C257.67 343.325 259.663 332.227 250.714 324.734ZM434.15 282.59C431.098 283.561 428.342 284.786 425.332 285.111C420.508 285.76 417.007 288.054 415.602 292.485C414.225 297.282 416.745 301.318 420.037 304.65C424.639 309.444 432.347 310.411 437.901 307.315C442.823 304.359 444.959 298.676 443.212 292.741C441.846 288.156 439.102 284.782 434.15 282.59ZM332.449 294.685C320.89 302.201 318.447 311.035 324.639 319.753C330.212 327.599 342.38 330.337 348.172 323.175C348.564 319.926 348.957 316.677 349.405 312.963C341.907 308.761 335.083 303.77 332.449 294.685ZM389.916 319.487C389.405 309.318 395.437 302.873 401.792 297.048C397.401 290.214 390.282 287.362 383.715 289.249C377.414 291.024 372.944 297.439 373.13 304.599C373.316 311.758 378.367 316.425 389.916 319.487ZM265.001 315.628C269.218 309.508 269.229 303.713 264.994 298.89C260.66 293.983 253.908 292.298 248.775 294.902C243.375 297.619 241.057 305.708 242.89 315.131C246.449 317.155 250.191 319.164 253.455 320.935C257.28 319.26 260.74 317.613 265.001 315.628ZM448.007 290.531C456.053 291.104 460.722 288.444 462.632 282.226C464.823 274.883 462.091 266.909 456.211 263.41C451.104 260.402 446.012 261.163 442.441 264.934C441.318 270.631 440.223 275.498 439.297 280.168C442.041 283.543 444.771 286.734 448.007 290.531ZM264.227 350.819C264.653 359.891 260.211 366.673 254.7 372.709C265.013 380.005 275.491 378.734 281.451 370.18C285.514 364.44 282.683 356.382 274.819 351.012C271.682 350.887 268.461 350.86 264.227 350.819ZM238.255 298.015C230.786 295.374 224.64 297.964 218.973 301.989C214.094 305.494 212.169 310.333 213.353 316.127C214.537 321.922 218.814 324.902 223.344 326.391C228.335 321.958 232.722 318.032 237.193 314.008C237.458 309.113 237.878 303.838 238.255 298.015ZM532.856 272.197C535.517 279.257 540.779 283.08 546.855 281.967C553.198 280.74 561.493 272.65 562.559 266.221C563.008 263.703 562.346 261.088 562.19 259.076C555.636 258.755 550.375 258.519 546.31 258.281C541.544 263.248 537.2 267.723 532.856 272.197ZM259.962 343.24C267.883 348.146 275.872 347.988 279.935 342.247C283.674 337.084 282.433 329.363 277.115 324.808C271.205 319.746 263.118 319.82 259.532 323.408C259.831 330.835 259.833 336.812 259.962 343.24ZM412.206 277.113C419.115 284.396 430.55 283.604 435.737 275.753C438.857 270.914 437.574 263.839 432.776 260.072C428.274 256.557 422.564 256.447 419.386 260.555C415.605 265.17 411.851 270.151 412.206 277.113ZM245.292 377.115C243.832 383.206 242.582 388.453 241.276 394.164C247.453 397.917 253.235 402.528 260.899 398.165C266.89 394.758 269.265 389.792 268.193 384.265C261.807 381.356 255.996 378.771 249.891 375.932C248.541 376.312 246.91 376.622 245.292 377.115ZM236.794 369.495C240.142 372.363 244.419 374.148 248.792 371.235C255.176 366.97 259.309 360.948 259.995 353.17C260.177 350.765 258.783 348.206 258.135 345.773C257.657 345.534 257.094 345.393 256.616 345.154C251.639 350.965 245.057 351.474 239.233 351.097C238.266 357.61 237.523 363.461 236.794 369.495ZM492.765 227.106C499.518 231.182 506.173 235.174 512.729 239.082C513.179 238.955 513.713 238.73 514.262 238.687C509.138 229.519 506.786 220.504 514.293 211.738C503.222 208.916 493.042 216.417 492.765 227.106ZM224.193 338.557C223.545 336.124 222.77 333.241 222.389 331.891C217.071 327.336 212.737 323.624 207.714 319.322C205.046 328.818 201.421 337.835 202.986 347.37C210.383 344.315 217.063 341.5 224.193 338.557ZM234.264 373.646C228.231 376.503 223.267 378.911 217.951 381.529C222.974 385.831 227.899 390.048 232.823 394.266C238.898 389.566 241.132 383.967 239.821 376.527C237.809 375.487 235.797 374.447 234.264 373.646ZM468.002 274.362C477.046 274.766 488.592 271.85 492.163 268.079C483.358 268.392 474.96 264.443 466.326 269.341C466.917 271.043 467.523 272.927 468.002 274.362ZM415.135 285.256C413.334 284.567 412.293 284.188 410.493 283.499C410.775 285.961 410.902 287.606 411.086 289.983C412.773 288.014 413.701 286.93 415.135 285.256ZM405.222 293.84C405.56 293.446 405.897 293.052 406.319 292.559C404.546 291.041 402.872 289.607 401.099 288.089C400.93 288.286 400.761 288.483 400.593 288.68C402.014 290.409 403.618 292.124 405.222 293.84ZM517.532 118.048C517.296 125.7 517.06 133.351 516.796 141.833C515.585 139.259 514.811 137.572 513.938 135.8C513.573 135.828 513.123 135.955 512.757 135.983C512.757 137.179 512.758 138.374 512.899 140.203C507.679 135.732 502.952 131.683 498.224 127.634C493.595 123.67 488.404 120.761 482.144 119.497C509.182 131.385 521.049 155.207 531.735 180.408C520.071 169.906 507.451 161.317 491.991 157.638C492.428 158.524 492.92 158.946 493.68 159.255C501.825 163.499 510.561 167.054 518.131 172.171C529.09 179.509 539.474 187.718 544.079 200.882C545.262 204.285 546.009 207.998 546.924 211.514C547.29 211.486 547.838 211.443 548.204 211.415L548.443 210.937C548.415 210.571 548.401 210.388 548.372 210.022C548.287 208.925 548.118 207.927 548.033 206.83C547.991 206.281 547.934 205.55 547.892 205.001L547.906 205.184C547.85 204.453 547.807 203.904 547.751 203.173L547.765 203.356C544.95 197.871 542.134 192.387 539.319 186.903C537.264 182.923 535.391 178.929 533.519 174.936C533.055 174.88 532.506 174.922 532.141 174.95L531.845 174.697C531.817 174.331 531.803 174.149 531.775 173.783C525.286 163.616 519.515 153.21 519.37 140.622C519.338 133.083 519.04 125.657 518.826 118.132C518.347 117.893 517.982 117.921 517.532 118.048ZM502.023 97.0832C490.076 82.9244 482.629 66.3023 476.419 49.0327C479.899 63.1106 484.349 76.6536 493.173 88.4789C497.577 94.3001 500.857 101.036 504.573 107.462C504.137 107.772 503.786 107.983 503.35 108.293C496.68 100.531 488.604 94.8101 478.082 90.7496C486.2 97.0194 493.417 102.347 500.213 108.167C504.744 112.048 507.433 117.082 508.63 123.059C509.518 127.405 511.32 131.68 512.658 135.899C513.024 135.871 513.474 135.744 513.84 135.716C511.248 125.984 508.473 116.266 506.162 106.604C504.965 101.822 504.4 96.8994 503.836 91.9768C503.44 88.0527 503.41 84.1004 503.198 80.1622C502.551 80.1203 501.819 80.1768 501.271 80.2192C501.526 85.9015 501.683 91.4994 502.023 97.0832ZM481.359 159.288C475.446 145.858 472.529 131.921 475.153 117.095C476.247 111.032 474.684 105.083 469.998 100.388L470.181 100.373C472.406 107.743 472.325 115.015 471.625 122.61C470.252 135.776 473.506 148.124 480.81 159.331C480.909 159.415 481.092 159.401 481.359 159.288ZM532.253 140.729C532.258 151.489 532.164 162.165 532.168 172.925C532.534 172.897 533.082 172.854 533.448 172.826C533.542 162.15 533.72 151.376 533.716 140.616C533.168 140.659 532.619 140.701 532.253 140.729ZM518.853 116.107C518.979 114.166 519.006 112.14 519.132 110.199C518.583 110.241 517.936 110.2 517.388 110.242C517.361 112.267 517.418 114.194 517.489 116.304C517.939 116.177 518.389 116.051 518.853 116.107ZM533.632 140.715C533.575 139.983 533.336 139.266 533.279 138.535C532.914 138.563 532.731 138.577 532.365 138.605C532.323 139.253 532.197 139.998 532.253 140.729C532.619 140.701 533.168 140.659 533.632 140.715ZM466.676 94.2987C466.887 94.6502 467.014 95.1003 466.676 94.2987C467.07 94.6361 467.281 94.9876 466.676 94.2987ZM360.304 241.029C361.233 241.141 362.161 241.253 363.089 241.365C363.16 241.084 363.131 240.718 363.202 240.437C362.273 240.325 361.331 240.03 360.402 239.918C360.346 240.382 360.375 240.748 360.304 241.029ZM470.097 100.472C469.885 100.12 469.674 99.7689 469.984 100.205C469.857 99.7547 469.885 100.12 470.097 100.472ZM532.07 172.84C531.901 173.037 531.831 173.319 531.746 173.417C531.775 173.783 531.789 173.966 531.817 174.331L532.112 174.585C532.577 174.641 533.125 174.598 533.491 174.57C533.448 174.021 533.392 173.29 533.349 172.741C532.899 172.868 532.534 172.897 532.07 172.84ZM518.896 117.851C518.938 117.204 518.896 116.655 518.937 116.008C518.473 115.952 518.023 116.079 517.559 116.023C517.517 116.67 517.56 117.218 517.518 117.865C517.982 117.921 518.347 117.893 518.896 117.851ZM548.416 212.962L548.584 212.765C548.556 212.399 548.514 211.851 548.485 211.485L548.274 211.133C547.909 211.162 547.36 211.204 546.994 211.232C547.037 211.781 547.093 212.512 547.136 213.061C547.6 213.117 547.966 213.089 548.416 212.962ZM220.441 520.76C221.075 523.01 221.892 525.246 222.526 527.496C223.06 527.271 223.595 527.046 224.045 526.919C223.242 524.866 222.524 522.714 221.623 520.576C219.918 513.995 218.214 507.413 216.411 500.747C216.886 495.008 217.348 489.086 217.824 483.347C218.609 476.849 219.31 470.449 220.193 464.035C225.36 476.143 231.329 487.913 239.575 498.219C233.508 486.365 227.54 474.595 221.473 462.74C219.528 453.05 217.681 443.444 215.652 433.853C214.68 429.605 213.806 425.442 212.834 421.195C212.861 420.365 212.875 419.352 212.903 418.523L212.72 418.537C214.043 420.182 215.548 421.813 216.787 423.556C223.106 432.724 229.439 442.075 235.758 451.243C238.756 455.518 242.021 459.68 245.103 463.856C245.539 463.546 245.974 463.237 246.326 463.025C245.27 461.268 244.215 459.51 243.075 457.851C227.861 435.943 210.806 415.19 203.073 388.933C201.426 384.278 199.595 379.638 197.948 374.983C197.329 375.306 196.696 375.447 196.077 375.771C197.894 380.229 199.794 384.588 201.709 389.131C208.677 404.318 206.672 418.82 198.661 432.959C196.468 436.716 194.557 440.542 192.547 444.284C190.945 447.351 189.16 450.432 187.459 453.415C187.937 453.654 188.317 453.808 188.795 454.047C197.68 441.68 204.271 428.203 208.568 412.42C209.962 416.175 210.807 418.777 211.751 421.463C212.624 425.626 213.512 429.971 214.386 434.134C215.093 442.081 214.041 449.888 209.388 456.317C203.146 464.801 196.117 472.61 189.383 480.673C188.118 482.15 186.557 483.374 185.278 484.669C185.672 485.006 185.967 485.259 186.361 485.597C199.311 475.858 209.321 463.772 215.587 448.48C216.15 448.621 216.614 448.677 217.177 448.817C216.971 460.421 216.666 471.941 216.544 483.446C215.547 486.007 215.14 489.073 213.551 491.127C208.336 497.416 202.726 503.368 197.117 509.32C195.5 511.009 193.587 512.444 191.872 514.048C190.241 515.554 188.526 517.158 186.895 518.664C187.387 519.086 187.796 519.606 188.288 520.028C196.105 512.893 203.923 505.759 212.682 497.724C203.48 523.819 192.631 547.65 178.646 570.16C181.317 567.838 183.51 565.277 185.225 562.478C195.823 544.92 204.409 526.322 211.659 507.092C212.502 504.912 214.02 503.139 215.243 501.113C216.849 507.61 218.737 514.178 220.441 520.76ZM410.493 283.499C410.775 285.961 410.902 287.606 411.086 289.983C412.689 288.112 413.616 287.029 415.135 285.256C413.334 284.567 412.293 284.188 410.493 283.499ZM406.136 292.573C404.363 291.055 402.689 289.621 400.916 288.103C400.747 288.3 400.579 288.497 400.41 288.694C402.014 290.409 403.618 292.124 405.124 293.755C405.461 293.361 405.799 292.967 406.136 292.573ZM194.763 359.962C196.043 361.059 197.422 362.24 198.702 363.336C197.506 362.141 196.226 361.045 194.763 359.962ZM710.633 12.9859C711.252 12.6621 711.885 12.5212 712.503 12.1975C712.391 11.9303 712.292 11.8459 712.18 11.5787C711.575 12.0853 711.153 12.5778 710.633 12.9859ZM548.358 209.839C548.273 208.742 548.104 207.744 548.019 206.647C548.189 207.645 548.273 208.742 548.358 209.839ZM616.613 200.514C617.752 199.783 618.99 199.135 620.044 198.502L620.03 198.319C618.891 199.051 617.836 199.684 616.613 200.514ZM616.599 200.332C616.332 200.444 615.98 200.655 616.332 200.444C615.966 200.472 616.332 200.444 616.599 200.332ZM622.702 197.192C623.588 196.756 624.488 196.503 625.374 196.066C624.572 196.404 623.686 196.84 622.702 197.192ZM622.702 197.192C621.816 197.629 620.916 197.882 620.03 198.319L620.044 198.502C621.014 197.967 621.816 197.629 622.702 197.192ZM547.962 204.72C548.005 205.268 548.061 206 548.104 206.548C548.061 206 548.019 205.451 547.962 204.72ZM548.429 210.754L548.19 211.232L548.401 211.584C548.654 211.288 548.626 210.922 548.429 210.754ZM612.979 153.524C623.499 150.411 634.004 147.115 644.524 144.003C644.298 143.468 644.157 142.835 644.031 142.385C633.469 144.95 622.921 147.697 612.88 152.244C612.908 152.61 612.951 153.158 612.979 153.524ZM584.126 139.569C584.292 133.394 584.542 127.121 584.709 120.946C584.062 120.904 583.33 120.961 582.683 120.919C582.7 127.079 582.632 133.339 582.747 139.583C583.113 139.555 583.661 139.513 584.126 139.569ZM666.497 83.26C668.733 82.4433 671.053 81.5281 673.289 80.7114C673.064 80.177 672.839 79.6426 672.628 79.291C670.49 80.1921 668.437 80.9947 666.299 81.8957C666.328 82.2614 666.37 82.8099 666.497 83.26ZM583.565 144.211C583.719 142.635 583.873 141.06 584.126 139.569C583.577 139.611 583.113 139.555 582.564 139.598C582.41 141.173 582.158 142.664 582.004 144.239C582.552 144.197 583.101 144.155 583.565 144.211ZM213.142 418.044L212.987 418.424C214.31 420.069 215.816 421.7 217.054 423.444C223.373 432.612 229.706 441.963 236.025 451.13C239.023 455.405 242.288 459.567 245.37 463.743C245.806 463.434 246.242 463.124 246.593 462.913C245.538 461.155 244.482 459.397 243.342 457.738C228.128 435.831 211.073 415.077 203.34 388.821C202.89 388.947 202.342 388.99 201.976 389.018C208.945 404.206 206.939 418.708 198.928 432.847C196.735 436.603 194.824 440.43 192.814 444.172C191.212 447.239 189.427 450.32 187.726 453.302C188.204 453.541 188.584 453.696 189.063 453.935C197.947 441.568 204.538 428.09 208.835 412.307C210.229 416.062 211.074 418.664 212.018 421.35C212.384 421.322 212.834 421.195 213.199 421.167C213.227 420.337 213.241 419.324 213.268 418.494L213.142 418.044ZM216.629 483.348C215.631 485.908 215.224 488.974 213.636 491.029C208.42 497.318 202.811 503.27 197.201 509.222C195.584 510.91 193.672 512.346 191.957 513.95C190.326 515.456 188.61 517.06 186.979 518.565C187.472 518.987 187.88 519.507 188.372 519.929C196.19 512.795 204.007 505.66 212.766 497.626C203.564 523.72 192.716 547.551 178.73 570.062C181.402 567.74 183.595 565.179 185.309 562.379C195.907 544.821 204.494 526.224 211.744 506.993C212.587 504.813 214.105 503.04 215.328 501.014C215.876 500.972 216.326 500.845 216.79 500.901C217.266 495.162 217.728 489.241 218.204 483.502C217.543 483.277 216.994 483.32 216.629 483.348ZM218.007 483.333C218.792 476.835 219.493 470.435 220.376 464.021L220.334 463.472L220.573 462.994C221.023 462.867 221.388 462.839 221.838 462.712C219.893 453.022 218.047 443.416 216.017 433.824C215.567 433.951 215.103 433.895 214.653 434.022C215.36 441.968 214.308 449.775 209.655 456.205C203.414 464.689 196.384 472.498 189.65 480.56C188.385 482.037 186.824 483.262 185.545 484.556C185.939 484.893 186.234 485.147 186.628 485.484C199.578 475.745 209.588 463.659 215.855 448.368C216.417 448.508 216.882 448.564 217.444 448.705C217.238 460.309 216.933 471.828 216.811 483.334C216.994 483.32 217.543 483.277 218.007 483.333ZM220.474 462.909L220.235 463.388L220.278 463.936C225.444 476.044 231.413 487.815 239.659 498.121C233.592 486.266 227.624 474.496 221.557 462.642C221.29 462.754 220.924 462.783 220.474 462.909ZM215.145 501.028C216.948 507.695 218.653 514.276 220.54 520.844C220.99 520.717 221.356 520.689 221.904 520.647C220.2 514.065 218.495 507.483 216.692 500.817C216.143 500.859 215.595 500.902 215.145 501.028ZM203.326 388.638C201.679 383.983 199.848 379.342 198.201 374.687C197.582 375.011 196.949 375.152 196.33 375.476C198.147 379.934 200.047 384.293 201.962 388.835C202.328 388.807 202.876 388.765 203.326 388.638ZM215.919 433.74C214.947 429.493 214.073 425.33 213.101 421.082C212.735 421.111 212.285 421.237 211.919 421.266C212.793 425.429 213.681 429.774 214.555 433.937C215.005 433.811 215.553 433.768 215.919 433.74ZM220.441 520.76C221.075 523.01 221.892 525.246 222.526 527.496C223.06 527.271 223.595 527.046 224.045 526.919C223.242 524.866 222.524 522.714 221.623 520.576C221.356 520.689 220.807 520.732 220.441 520.76ZM186.763 264.842C186.355 264.322 185.947 263.802 185.524 263.099L185.539 263.281C172.818 249.826 160.013 236.469 147.293 223.014C146.392 222.072 145.14 221.341 144.071 220.596C143.72 222.003 144.043 222.622 144.55 223.226C153.119 231.76 161.857 240.097 170.075 248.843C179.798 259.219 189.986 269.651 188.473 285.771C188.053 289.85 188.28 293.971 188.225 298.021C175.219 274.932 154.983 248.722 147.203 245.645C150.032 248.921 152.452 251.677 154.69 254.447C165.61 267.214 176.361 280.178 184.061 295.309C185.792 298.67 187.186 302.424 187.483 306.264C188.006 311.834 187.333 317.404 187.223 323.114C177.848 306.549 166.478 291.518 151.578 279.611C157.587 287.148 164.453 293.882 170.195 301.531C176.049 309.447 181.749 317.744 185.663 326.73C189.45 335.266 190.917 344.717 193.452 353.718C193.902 353.591 194.352 353.464 194.802 353.337C194.196 350.257 193.843 346.882 192.787 343.929C187.717 328.318 190.538 313.661 198.001 299.565C200.081 295.541 202.26 291.602 204.34 287.578C205.211 285.764 205.984 283.865 206.855 282.05C204.971 282.655 204.043 283.739 203.396 284.892C198.646 294.824 193.981 304.658 189.231 314.59C189.51 309.878 190.155 305.138 190.252 300.44C190.249 293.267 191.652 286.444 194.167 279.72C198.41 267.988 199.488 255.765 198.442 243.43C198.301 241.602 197.695 239.717 197.287 238.001C196.235 245.808 196.829 253.487 195.833 260.83C194.852 268.355 192.393 275.811 190.484 283.224C189.651 277.218 188.819 271.213 187.973 265.024C187.776 264.856 187.227 264.898 186.763 264.842ZM173.289 198.839C172.644 202.384 171.914 206.027 171.114 209.952C166.554 203.315 162.515 197.465 158.476 191.616C158.026 191.743 157.562 191.687 157.111 191.813C158.378 193.923 159.743 196.116 160.926 198.324C163.643 203.724 166.191 209.321 168.823 214.819C169.034 215.171 169.33 215.424 169.02 214.988C169.147 215.438 169.034 215.171 168.908 214.721C160.718 206.341 152.613 197.863 144.424 189.484C144.002 189.976 143.482 190.384 143.06 190.877C147.155 195.067 151.516 199.144 155.358 203.629C161.522 210.786 168.304 217.619 172.794 225.732C178.143 235.435 181.2 246.419 185.212 256.685C185.662 256.558 186.127 256.614 186.577 256.487C185.59 252.057 184.519 247.726 183.533 243.295C188.999 229.537 189.569 213.123 184.446 205.15C185.196 217.232 187.662 228.905 181.703 239.85C176.86 228.361 169.499 217.618 174.459 204.451C175.063 202.749 174.626 200.667 174.752 198.726C174.302 198.853 173.838 198.797 173.289 198.839ZM158.574 191.7C157.078 178.297 155.666 164.795 154.169 151.391C153.204 165.077 152.057 178.777 157.21 191.898C157.66 191.771 158.026 191.743 158.574 191.7ZM174.752 198.726C175.606 189.555 173.563 180.976 169.102 173.228C170.498 181.765 171.893 190.302 173.289 198.839C173.838 198.797 174.302 198.853 174.752 198.726ZM185.311 256.769C185.382 258.879 185.552 261.073 185.539 263.281L185.524 263.099C185.933 263.619 186.341 264.139 186.763 264.842C187.227 264.898 187.776 264.856 188.24 264.912C187.746 262.099 187.168 259.385 186.675 256.572C186.225 256.699 185.676 256.741 185.311 256.769ZM418.964 429.901C418.202 424.81 416.99 419.845 416.96 414.698C416.702 403.038 417.077 391.237 417.185 379.548C423.209 389.659 426.603 401.444 435.173 409.978C430.879 400.838 426.501 391.795 421.589 382.979C412.411 366.582 409.788 349.311 414.422 330.743C423.092 344.144 432.422 356.574 444.775 366.47C442.369 362.702 439.273 359.539 436.43 356.08C425.905 343.65 414.057 331.967 412.067 314.555C411.701 314.583 411.152 314.626 410.787 314.654C413.324 328.437 408.927 340.549 401.533 351.973C398.244 357.01 395.433 362.285 392.341 367.491C392.917 367.814 393.494 368.137 393.888 368.475C399.356 359.499 404.641 350.537 409.87 342.039C410.21 348.819 410.03 356.006 411.116 362.912C412.145 369.086 411.669 374.825 409.351 380.522C404.883 391.72 397.798 401.189 390.417 410.405C389.082 412.163 387.746 413.922 386.411 415.681C386.706 415.934 387.1 416.271 387.48 416.426C398.981 404.592 408.244 391.184 414.187 375.274C415.006 383.488 414.996 391.674 415.533 399.817C416.723 418.763 411.736 435.151 397.578 448.293C396.116 449.602 395.047 451.248 393.782 452.725C394.176 453.063 394.668 453.485 395.062 453.822C400.208 447.814 405.353 441.806 411.511 434.616C410.951 440.454 410.544 444.716 410.04 448.893C410.504 448.949 410.954 448.822 411.418 448.878C412.765 441.325 414.127 433.954 415.67 425.374C416.67 427.596 417.219 428.749 417.768 429.902C418.063 430.155 418.513 430.028 418.964 429.901ZM412.225 461.692C411.9 457.486 411.575 453.281 411.235 448.893C410.771 448.837 410.321 448.963 409.857 448.907C409.087 456.784 407.078 464.113 399.555 469.109C400.034 469.348 400.428 469.685 400.906 469.924C402.748 468.77 404.689 467.701 406.967 466.237C406.407 473.27 405.889 479.656 405.554 486.027C406.201 486.069 406.75 486.027 407.312 486.167C407.621 483.016 407.83 479.781 408.42 476.701C409.233 471.764 410.132 466.728 410.945 461.791C411.325 461.945 411.775 461.818 412.225 461.692ZM417.599 430.099C419.361 438.608 422.543 446.455 428.383 452.993C425.215 445.328 422.131 437.566 418.964 429.901C418.513 430.028 418.063 430.155 417.599 430.099ZM407.56 300.281C408.574 305.076 409.505 309.971 410.519 314.767C410.885 314.738 411.434 314.696 411.799 314.668C410.869 309.773 409.854 304.977 408.924 300.083C408.474 300.21 408.024 300.337 407.56 300.281ZM410.861 461.889C412.578 465.067 414.211 468.344 415.928 471.522C416.547 471.198 416.983 470.888 417.602 470.565C415.716 467.584 414.013 464.588 412.127 461.607C411.775 461.818 411.325 461.945 410.861 461.889ZM408.84 300.182C408.502 299.38 408.08 298.677 407.418 297.257C407.053 298.48 406.898 298.86 406.926 299.226C406.955 299.592 407.349 299.929 407.475 300.379C408.024 300.337 408.474 300.21 408.84 300.182ZM752.728 248.112C741.01 244.052 728.913 241.033 718.684 232.443C722.832 230.191 726.629 228.15 730.426 226.109C723.984 227.251 718.106 229.729 712.086 230.378C703.24 231.338 694.111 231.032 685.109 231.177C685.053 231.641 685.18 232.091 685.124 232.555C705.575 231.801 718.858 245.397 733.097 257.079C725.272 246.28 714.622 239.379 703.395 232.154C704.632 231.506 705.94 231.773 707.08 232.237C713.241 234.611 719.333 237.267 725.579 239.543C734.582 242.985 743.655 246.146 752.743 249.49C752.799 249.026 752.756 248.477 752.728 248.112ZM624.78 222.875C626.538 223.015 628.381 223.056 630.139 223.196C630.195 222.732 630.153 222.183 630.209 221.719L630.279 221.438L630.743 221.494L631.292 221.452C643.231 216.482 655.832 212.932 666.575 205.571C657.884 208.543 649.32 211.964 640.854 215.47C631.938 219.102 622.909 221.272 613.273 219.166C609.813 218.422 605.973 218.719 602.372 218.538C602.316 219.002 602.443 219.452 602.387 219.916C609.041 221.517 616.003 222.358 622.095 225.014C630.662 228.766 638.695 233.938 646.799 238.83C653.453 242.822 659.869 247.292 666.355 251.481C666.692 251.087 667.015 250.51 667.353 250.116C661.528 246.152 656.055 241.977 650.062 238.21C641.733 232.784 633.165 227.836 624.78 222.875ZM630.828 221.395L630.392 221.705C630.336 222.169 630.378 222.718 630.322 223.182C633.29 223.504 636.342 223.728 639.24 224.332C645.893 225.932 652.772 226.872 659.046 229.514C666.08 232.464 672.678 236.92 679.318 240.729C686.831 245.115 694.259 249.598 701.688 254.082C702.011 253.505 702.334 252.929 702.756 252.436C689.25 244.284 675.66 236.23 662.055 227.993C670.087 229.579 677.753 231.194 685.504 232.71C685.56 232.245 685.433 231.795 685.489 231.331C680.13 229.814 674.77 228.298 669.411 226.781L668.947 226.725L669.326 226.879C672.013 225.936 674.699 224.992 677.385 224.049C677.258 223.599 677.314 223.135 677.187 222.685C670.605 223.194 664.065 224.251 657.426 224.029C648.663 223.695 640.097 222.334 631.292 221.452L630.828 221.395ZM602.358 218.355C591.528 218.641 580.782 218.828 569.966 219.297C569.136 219.269 568.335 220.802 567.576 221.689L567.478 221.604C579.109 220.981 590.741 220.357 602.373 219.733C602.429 219.269 602.401 218.903 602.358 218.355ZM677.286 223.964C688.523 221.808 698.423 216.628 707.858 210.196C697.607 214.392 687.439 218.489 677.089 222.6C677.215 223.05 677.159 223.514 677.286 223.964ZM752.743 249.49C759.467 252.005 766.542 253.113 773.435 254.236C773.575 253.673 773.701 252.928 773.842 252.365C766.837 250.975 759.832 249.586 752.728 248.112C752.756 248.477 752.799 249.026 752.743 249.49ZM398.474 198.255L398.46 198.072C395.052 187.299 389.829 176.851 391.118 164.979C391.875 158.115 391.9 151.308 392.277 144.289C391.729 144.331 391.265 144.275 390.716 144.318C389.862 153.489 389.008 162.66 388.098 173.49C380.835 161.636 374.319 151.104 367.887 140.473C367.436 140.6 366.972 140.544 366.522 140.671C366.818 142.119 367.1 143.385 367.523 145.284C356.717 136.371 345.883 128.288 339.408 115.913C338.958 116.04 338.41 116.082 338.044 116.11C339.367 118.951 340.775 121.693 341.676 123.831C328.508 116.48 315.044 108.876 301.581 101.272C302.89 102.735 303.959 104.675 305.507 105.659C319.801 114.486 334.249 122.934 348.389 132.141C354.002 135.753 358.618 140.73 363.739 145.116C351.275 139.735 339.064 134.057 325.463 132.994C338.728 136.842 351.332 141.661 363.192 148.746C375.53 156.068 383.186 167.064 388.677 179.791C372.37 167.533 353.745 160.972 334.516 156.113C336.289 157.632 338.455 158.292 340.551 159.233C353.972 165.093 367.547 170.573 380.645 177.01C392.209 182.645 396.25 193.277 397.141 205.991C384.323 193.647 348.843 176.066 338.983 177.013C349.351 181.453 359.86 185.331 369.806 190.263C382.326 196.377 394.875 202.856 400.746 216.933C400.929 215.723 401.111 214.513 401.195 213.219C401.558 206.018 401.259 198.591 402.649 191.586C404.221 183.371 407.382 175.494 409.798 167.489C410.248 166.167 410.416 164.775 410.682 163.466C410.303 163.312 409.838 163.256 409.459 163.101C408.475 165.844 407.21 168.517 406.325 171.345C403.6 180.109 400.974 188.957 398.347 197.805L398.474 198.255ZM400.321 243.544C388.499 226.249 372.854 214.215 355.844 203.575C357.885 206.176 360.446 208.369 362.908 210.478C372.265 218.491 381.692 226.223 390.711 234.631C396.761 240.325 400.984 247.356 400.664 256.301C400.552 258.425 401.833 260.717 402.551 262.869C404.712 250.378 406.325 237.93 409.048 225.579C411.14 215.761 414.54 206.209 417.377 196.517C416.913 196.461 416.547 196.489 415.999 196.532C414.847 199.472 413.413 202.342 412.458 205.451C409.34 216.268 406.32 227.17 403.202 237.987C402.766 237.101 402.428 236.3 402.076 235.315C401.641 238.016 401.093 240.45 400.321 243.544ZM402.259 235.301C403.803 229.112 403.604 222.965 400.859 217.2C401.325 223.234 401.792 229.267 402.259 235.301ZM358.595 120.223C361.242 127.1 363.889 133.977 366.621 140.755C367.071 140.628 367.535 140.684 367.985 140.558C365.338 133.681 362.691 126.804 359.959 120.026C359.594 120.054 359.045 120.096 358.595 120.223ZM392.277 144.289C393.246 140.167 394.032 136.06 393.988 131.925C393.341 131.883 392.877 131.827 392.23 131.785C391.725 135.963 391.404 140.126 390.899 144.304C391.265 144.275 391.813 144.233 392.277 144.289ZM339.423 116.096C337.93 112.257 336.438 108.417 334.847 104.494C334.312 104.719 333.693 105.043 333.061 105.184C334.722 108.826 336.299 112.567 337.96 116.209C338.508 116.166 339.057 116.124 339.423 116.096ZM359.959 120.026C358.762 116.439 357.65 112.755 356.453 109.169C355.82 109.31 355.201 109.633 354.568 109.774C355.85 113.262 357.215 116.651 358.497 120.139C359.045 120.096 359.594 120.054 359.959 120.026ZM417.293 196.616C417.517 195.954 417.644 195.209 417.869 194.548C417.587 194.478 417.306 194.407 417.109 194.239C416.8 194.998 416.406 195.856 416.097 196.616C416.463 196.588 416.927 196.644 417.293 196.616ZM185.524 263.099C185.933 263.619 186.341 264.139 186.763 264.842C186.355 264.322 185.848 263.717 185.524 263.099ZM168.823 214.819C169.034 215.171 169.33 215.424 169.02 214.988C169.063 215.537 169.034 215.171 168.823 214.819ZM630.363 221.339L630.293 221.621L630.729 221.311L630.363 221.339Z" fill="#DCBF6F"/>
</svg>
