<svg width="219" height="219" viewBox="0 0 219 219" fill="none" xmlns="http://www.w3.org/2000/svg">
<path d="M109.457 219C108.737 219 108.046 219 107.325 218.971C106.72 218.971 106.23 218.453 106.23 217.848C106.23 217.242 106.749 216.753 107.354 216.753C109.63 216.781 111.906 216.781 114.183 216.666C114.211 216.666 114.211 216.666 114.24 216.666C114.845 216.666 115.335 217.127 115.364 217.732C115.393 218.337 114.903 218.856 114.298 218.885C112.684 218.971 111.071 219 109.457 219ZM100.468 218.654C100.439 218.654 100.41 218.654 100.382 218.654C98.0767 218.453 95.743 218.193 93.4668 217.876C92.8618 217.79 92.4296 217.214 92.516 216.609C92.6025 216.004 93.1787 215.571 93.7838 215.658C96.0311 215.975 98.3072 216.234 100.555 216.436C101.16 216.493 101.621 217.012 101.563 217.646C101.534 218.193 101.044 218.654 100.468 218.654ZM121.126 218.395C120.579 218.395 120.089 217.963 120.031 217.415C119.974 216.81 120.406 216.263 121.011 216.176C123.258 215.946 125.534 215.629 127.782 215.226C128.387 215.11 128.963 215.543 129.078 216.148C129.193 216.753 128.79 217.329 128.156 217.444C125.88 217.848 123.575 218.164 121.27 218.395C121.213 218.395 121.155 218.395 121.126 218.395ZM86.8401 216.637C86.7537 216.637 86.696 216.637 86.6096 216.609C84.3335 216.119 82.0573 215.571 79.8388 214.938C79.2338 214.765 78.888 214.16 79.0609 213.555C79.2338 212.949 79.8388 212.604 80.4439 212.777C82.6336 213.382 84.8521 213.929 87.0706 214.419C87.6756 214.534 88.0502 215.139 87.9349 215.744C87.7909 216.292 87.3299 216.637 86.8401 216.637ZM134.697 216.061C134.207 216.061 133.746 215.715 133.602 215.197C133.458 214.592 133.832 213.987 134.437 213.843C136.627 213.324 138.845 212.719 141.006 212.056C141.583 211.883 142.216 212.2 142.389 212.805C142.562 213.382 142.245 214.016 141.64 214.188C139.422 214.88 137.174 215.485 134.927 216.032C134.869 216.061 134.783 216.061 134.697 216.061ZM73.5578 212.921C73.4426 212.921 73.2985 212.892 73.1833 212.863C70.9936 212.085 68.8039 211.25 66.6718 210.356C66.0956 210.126 65.8363 209.463 66.0956 208.887C66.3261 208.311 66.9887 208.051 67.565 208.311C69.6682 209.204 71.8003 210.039 73.9324 210.789C74.5086 210.99 74.8256 211.624 74.6239 212.2C74.451 212.633 74.0188 212.921 73.5578 212.921ZM147.892 211.999C147.431 211.999 147.028 211.711 146.855 211.278C146.625 210.702 146.913 210.068 147.489 209.838C149.592 209.031 151.724 208.167 153.77 207.216C154.317 206.957 154.98 207.216 155.239 207.763C155.499 208.311 155.239 208.973 154.692 209.233C152.589 210.184 150.428 211.077 148.267 211.912C148.152 211.999 148.008 211.999 147.892 211.999ZM60.8518 207.533C60.6789 207.533 60.5061 207.504 60.362 207.418C58.2876 206.38 56.2419 205.257 54.2251 204.075C53.7065 203.758 53.5048 203.096 53.8217 202.548C54.1387 202.03 54.8013 201.828 55.3488 202.145C57.308 203.297 59.3248 204.392 61.3416 205.401C61.889 205.689 62.1195 206.352 61.8314 206.899C61.6585 207.302 61.2552 207.533 60.8518 207.533ZM160.426 206.323C160.022 206.323 159.648 206.121 159.446 205.746C159.158 205.199 159.359 204.536 159.907 204.248C161.895 203.182 163.883 202.03 165.813 200.848C166.332 200.532 167.023 200.676 167.34 201.223C167.657 201.742 167.513 202.433 166.966 202.75C165.007 203.96 162.961 205.141 160.944 206.207C160.771 206.265 160.598 206.323 160.426 206.323ZM48.9525 200.56C48.7508 200.56 48.5203 200.503 48.3187 200.359C46.3883 199.062 44.4867 197.708 42.6715 196.267C42.1817 195.893 42.0953 195.201 42.4699 194.711C42.8444 194.222 43.5359 194.135 44.0257 194.51C45.812 195.893 47.6848 197.247 49.5576 198.515C50.0762 198.86 50.1914 199.552 49.8457 200.071C49.644 200.387 49.2983 200.56 48.9525 200.56ZM172.123 199.062C171.777 199.062 171.432 198.889 171.201 198.601C170.855 198.111 170.971 197.42 171.46 197.045C173.304 195.749 175.148 194.337 176.906 192.925C177.396 192.551 178.087 192.608 178.462 193.098C178.836 193.588 178.779 194.279 178.289 194.654C176.503 196.094 174.63 197.535 172.728 198.86C172.584 199.004 172.354 199.062 172.123 199.062ZM38.0328 192.147C37.7735 192.147 37.5142 192.061 37.3125 191.859C35.5838 190.332 33.8551 188.747 32.2128 187.105C31.7807 186.673 31.7807 185.981 32.2128 185.52C32.645 185.088 33.3365 185.088 33.7975 185.52C35.411 187.105 37.082 188.69 38.7819 190.188C39.2429 190.591 39.3006 191.283 38.8972 191.744C38.6379 192.032 38.321 192.147 38.0328 192.147ZM182.841 190.419C182.553 190.419 182.236 190.303 182.034 190.073C181.631 189.612 181.66 188.92 182.092 188.488C183.763 186.961 185.405 185.348 186.961 183.705C187.393 183.273 188.085 183.244 188.546 183.676C188.978 184.109 189.007 184.8 188.575 185.261C186.961 186.932 185.29 188.575 183.59 190.13C183.389 190.303 183.1 190.419 182.841 190.419ZM28.2368 182.409C27.9199 182.409 27.6318 182.294 27.4013 182.034C25.8742 180.305 24.376 178.49 22.9642 176.675C22.5897 176.185 22.6761 175.494 23.1659 175.119C23.6557 174.745 24.3472 174.831 24.7218 175.321C26.1047 177.107 27.5741 178.865 29.0724 180.565C29.4757 181.026 29.4469 181.717 28.9859 182.121C28.7842 182.322 28.5249 182.409 28.2368 182.409ZM192.378 180.45C192.119 180.45 191.859 180.363 191.658 180.19C191.197 179.787 191.139 179.095 191.513 178.634C192.983 176.906 194.395 175.091 195.749 173.275C196.123 172.786 196.815 172.67 197.305 173.045C197.794 173.419 197.91 174.111 197.535 174.601C196.152 176.473 194.712 178.289 193.213 180.075C193.012 180.305 192.695 180.45 192.378 180.45ZM19.7949 171.547C19.4492 171.547 19.1035 171.374 18.873 171.057C17.5764 169.155 16.3087 167.167 15.1274 165.179C14.8105 164.661 14.9834 163.969 15.5308 163.652C16.0494 163.335 16.7409 163.508 17.0578 164.056C18.2103 166.015 19.4492 167.945 20.7169 169.818C21.0627 170.337 20.9186 171.028 20.4288 171.374C20.2271 171.489 19.9966 171.547 19.7949 171.547ZM200.589 169.357C200.388 169.357 200.186 169.299 199.984 169.184C199.466 168.838 199.322 168.176 199.667 167.657C200.906 165.755 202.087 163.767 203.182 161.808C203.47 161.261 204.162 161.088 204.709 161.376C205.257 161.664 205.43 162.356 205.141 162.903C204.018 164.92 202.808 166.937 201.54 168.867C201.31 169.184 200.935 169.357 200.589 169.357ZM12.7649 159.705C12.3615 159.705 11.9581 159.474 11.7853 159.1C10.748 157.054 9.73961 154.922 8.81763 152.79C8.58714 152.214 8.84644 151.58 9.39387 151.321C9.97011 151.09 10.604 151.349 10.8633 151.897C11.7564 153.971 12.736 156.046 13.7445 158.063C14.0326 158.61 13.8021 159.273 13.2547 159.561C13.1106 159.647 12.9377 159.705 12.7649 159.705ZM207.302 157.314C207.13 157.314 206.985 157.285 206.813 157.198C206.265 156.939 206.035 156.276 206.294 155.729C207.274 153.683 208.196 151.58 209.031 149.477C209.262 148.9 209.895 148.641 210.472 148.872C211.048 149.102 211.307 149.736 211.077 150.312C210.212 152.473 209.262 154.605 208.282 156.708C208.138 157.083 207.735 157.314 207.302 157.314ZM7.31942 147.056C6.85843 147.056 6.42625 146.768 6.28219 146.307C5.50427 144.118 4.78397 141.899 4.15011 139.681C3.97724 139.104 4.32298 138.47 4.89922 138.298C5.50427 138.125 6.10932 138.47 6.28219 139.047C6.91605 141.236 7.60753 143.397 8.35664 145.558C8.55832 146.134 8.27021 146.768 7.69397 146.97C7.57872 147.028 7.46348 147.056 7.31942 147.056ZM212.46 144.521C212.344 144.521 212.229 144.492 212.114 144.463C211.538 144.262 211.221 143.657 211.394 143.052C212.114 140.891 212.748 138.701 213.324 136.511C213.468 135.906 214.073 135.56 214.678 135.705C215.283 135.849 215.629 136.454 215.485 137.059C214.909 139.306 214.246 141.553 213.526 143.743C213.353 144.204 212.921 144.521 212.46 144.521ZM3.54506 133.803C3.02645 133.803 2.56546 133.457 2.45022 132.939C1.96041 130.691 1.52824 128.386 1.18249 126.081C1.09606 125.476 1.49942 124.9 2.10447 124.814C2.70952 124.727 3.28576 125.131 3.37219 125.736C3.71794 127.983 4.1213 130.23 4.6111 132.449C4.75516 133.054 4.3518 133.63 3.74675 133.774C3.68912 133.803 3.60269 133.803 3.54506 133.803ZM215.917 131.181C215.859 131.181 215.773 131.181 215.715 131.152C215.11 131.037 214.707 130.461 214.822 129.856C215.254 127.637 215.6 125.361 215.888 123.114C215.975 122.509 216.522 122.076 217.127 122.163C217.732 122.249 218.164 122.797 218.078 123.402C217.79 125.707 217.415 128.012 216.983 130.288C216.926 130.806 216.436 131.181 215.917 131.181ZM1.47061 120.175C0.894376 120.175 0.404574 119.743 0.375763 119.166C0.17408 116.861 0.0300205 114.528 0.00120864 112.223C-0.0276032 111.618 0.462198 111.099 1.09606 111.07C1.70111 111.041 2.21972 111.531 2.24853 112.165C2.30616 114.441 2.4214 116.717 2.62309 118.994C2.68071 119.599 2.21972 120.146 1.61467 120.204C1.52824 120.175 1.49942 120.175 1.47061 120.175ZM217.646 117.495C217.617 117.495 217.588 117.495 217.588 117.495C216.983 117.467 216.522 116.919 216.551 116.314C216.695 114.067 216.753 111.762 216.753 109.486C216.753 107.728 216.724 105.942 216.637 104.184C216.609 103.579 217.07 103.061 217.703 103.032C218.309 103.003 218.827 103.464 218.856 104.098C218.942 105.884 219 107.699 219 109.486C219 111.791 218.914 114.153 218.77 116.458C218.741 117.034 218.251 117.495 217.646 117.495ZM1.12487 106.403H1.09606C0.49101 106.374 0.00120865 105.855 0.0300205 105.25C0.116456 102.945 0.289327 100.611 0.519822 98.3065C0.577445 97.7015 1.12487 97.2405 1.72992 97.2981C2.33497 97.3557 2.79596 97.9032 2.73833 98.5082C2.50784 100.756 2.36378 103.061 2.24853 105.308C2.21972 105.913 1.72992 106.403 1.12487 106.403ZM217.185 98.393C216.637 98.393 216.148 97.9608 216.09 97.4134C215.831 95.166 215.514 92.8899 215.11 90.6713C214.995 90.0663 215.399 89.4901 216.004 89.3748C216.609 89.2596 217.185 89.6629 217.3 90.268C217.703 92.5441 218.049 94.8491 218.309 97.1541C218.366 97.7591 217.934 98.3065 217.329 98.393C217.271 98.393 217.242 98.393 217.185 98.393ZM2.53665 92.6882C2.47903 92.6882 2.4214 92.6882 2.36378 92.6594C1.75873 92.5441 1.35537 91.9967 1.4418 91.3916C1.81635 89.1155 2.27734 86.8105 2.79596 84.5632C2.94002 83.9582 3.54506 83.5836 4.1213 83.7277C4.72635 83.8717 5.1009 84.4768 4.95684 85.053C4.43823 87.2715 4.00605 89.5189 3.6315 91.7374C3.54506 92.2848 3.05526 92.6882 2.53665 92.6882ZM214.793 84.8225C214.304 84.8225 213.843 84.4768 213.727 83.987C213.18 81.7973 212.575 79.5787 211.912 77.4178C211.739 76.8416 212.056 76.2077 212.633 76.0349C213.209 75.862 213.843 76.1789 214.016 76.7552C214.707 78.9737 215.341 81.221 215.888 83.4684C216.032 84.0734 215.658 84.6785 215.082 84.8225C214.966 84.7937 214.88 84.8225 214.793 84.8225ZM5.64833 79.2618C5.53308 79.2618 5.44665 79.233 5.3314 79.2042C4.75516 79.0313 4.40942 78.3974 4.58229 77.8212C5.24496 75.6027 5.99407 73.3842 6.8008 71.1944C7.00249 70.6182 7.66516 70.3301 8.24139 70.5318C8.81763 70.7335 9.10575 71.3961 8.90407 71.9724C8.09734 74.1045 7.37704 76.2942 6.71437 78.4551C6.57031 78.9449 6.13813 79.2618 5.64833 79.2618ZM210.673 71.6554C210.212 71.6554 209.809 71.3961 209.636 70.9351C208.829 68.8319 207.936 66.6998 206.985 64.6541C206.726 64.1067 206.985 63.444 207.533 63.1847C208.08 62.9254 208.743 63.1847 209.002 63.7321C209.982 65.8354 210.875 67.9963 211.711 70.1284C211.941 70.7046 211.653 71.3385 211.077 71.569C210.933 71.6266 210.789 71.6554 210.673 71.6554ZM10.4887 66.3252C10.3447 66.3252 10.1718 66.2964 10.0277 66.2388C9.4803 65.9795 9.221 65.3168 9.4803 64.7694C10.4311 62.6661 11.4395 60.5628 12.5344 58.4884C12.8225 57.9409 13.4851 57.7392 14.0326 58.0274C14.58 58.3155 14.7817 58.9782 14.4936 59.5256C13.4275 61.5424 12.4191 63.5881 11.4971 65.6625C11.3243 66.0659 10.8921 66.3252 10.4887 66.3252ZM204.911 59.151C204.508 59.151 204.133 58.9493 203.931 58.5748C202.865 56.5868 201.713 54.5987 200.503 52.6683C200.186 52.1497 200.33 51.4582 200.849 51.1413C201.367 50.8244 202.059 50.9684 202.376 51.487C203.614 53.4463 204.767 55.4631 205.891 57.5087C206.179 58.0562 205.977 58.7188 205.43 59.007C205.257 59.1222 205.084 59.151 204.911 59.151ZM16.9138 54.1089C16.7121 54.1089 16.5104 54.0513 16.3375 53.9361C15.8189 53.6191 15.646 52.9276 15.963 52.409C17.1731 50.421 18.4696 48.4618 19.7949 46.589C20.1407 46.0992 20.8322 45.9551 21.3508 46.3297C21.8406 46.6754 21.9846 47.3669 21.6101 47.8855C20.3136 49.7295 19.0458 51.6599 17.8645 53.5903C17.6629 53.9361 17.2883 54.1089 16.9138 54.1089ZM197.593 47.4822C197.247 47.4822 196.901 47.3093 196.7 47.0212C195.374 45.1772 193.991 43.3621 192.551 41.6045C192.176 41.1147 192.234 40.4232 192.695 40.0487C193.185 39.6453 193.876 39.7317 194.251 40.1927C195.72 41.9791 197.132 43.8519 198.486 45.7246C198.832 46.2144 198.716 46.9059 198.227 47.2805C198.054 47.4245 197.823 47.4822 197.593 47.4822ZM24.837 42.8434C24.6065 42.8434 24.3472 42.757 24.1455 42.6129C23.6557 42.2384 23.5981 41.5181 23.9727 41.0571C25.4133 39.2419 26.9403 37.4844 28.4961 35.7557C28.8995 35.2947 29.6198 35.2659 30.0808 35.6693C30.5418 36.0726 30.5706 36.7929 30.1672 37.2539C28.6402 38.925 27.142 40.6825 25.7302 42.4401C25.4997 42.6994 25.1828 42.8434 24.837 42.8434ZM188.892 36.8217C188.604 36.8217 188.287 36.7065 188.085 36.476C186.529 34.8049 184.916 33.1914 183.273 31.6356C182.841 31.2034 182.812 30.5119 183.244 30.0509C183.677 29.6187 184.368 29.5899 184.829 30.0221C186.5 31.6068 188.171 33.2779 189.727 34.9778C190.159 35.4388 190.131 36.1302 189.67 36.5624C189.41 36.7065 189.151 36.8217 188.892 36.8217ZM34.1432 32.644C33.8551 32.644 33.567 32.5287 33.3365 32.2982C32.9043 31.8661 32.9331 31.1458 33.3653 30.7136C35.0364 29.1001 36.7651 27.5443 38.5226 26.046C38.9836 25.6427 39.7039 25.7003 40.0785 26.1613C40.4818 26.6223 40.4242 27.3426 39.9632 27.7171C38.2345 29.1866 36.5346 30.7424 34.9212 32.2982C34.6907 32.5287 34.4025 32.644 34.1432 32.644ZM178.865 27.3426C178.606 27.3426 178.375 27.2561 178.145 27.0833C176.416 25.6427 174.601 24.2021 172.757 22.8767C172.267 22.5022 172.152 21.8107 172.527 21.3209C172.901 20.8311 173.593 20.7158 174.082 21.0904C175.955 22.4445 177.799 23.914 179.585 25.3834C180.046 25.7867 180.133 26.4782 179.729 26.9392C179.499 27.1985 179.182 27.3426 178.865 27.3426ZM44.6307 23.7123C44.285 23.7123 43.9681 23.5682 43.7376 23.2513C43.363 22.7615 43.4783 22.07 43.9681 21.6954C45.812 20.3125 47.7424 18.9583 49.6728 17.7194C50.1914 17.3736 50.8829 17.5177 51.1998 18.0363C51.5456 18.5549 51.4015 19.2464 50.8829 19.5633C48.9813 20.8023 47.1086 22.1276 45.2934 23.4818C45.0917 23.6258 44.8612 23.7123 44.6307 23.7123ZM167.744 19.1888C167.542 19.1888 167.34 19.1312 167.139 19.0159C165.237 17.8058 163.249 16.6245 161.261 15.5297C160.714 15.2415 160.541 14.5501 160.829 14.0314C161.117 13.484 161.808 13.3111 162.327 13.5993C164.344 14.7229 166.361 15.9042 168.32 17.172C168.839 17.4889 168.983 18.1804 168.666 18.699C168.464 18.9871 168.118 19.1888 167.744 19.1888ZM56.1555 16.1923C55.7809 16.1923 55.3776 15.9907 55.1759 15.6161C54.8878 15.0687 55.0606 14.406 55.6081 14.0891C57.6249 12.9654 59.6993 11.8705 61.7738 10.8621C62.3212 10.6028 62.9839 10.8333 63.272 11.3807C63.5313 11.9282 63.3008 12.5908 62.7534 12.879C60.7078 13.8586 58.6909 14.9246 56.7029 16.0483C56.53 16.1347 56.3572 16.1923 56.1555 16.1923ZM155.672 12.5044C155.499 12.5044 155.355 12.4756 155.211 12.3892C153.165 11.4096 151.062 10.5164 148.93 9.68083C148.353 9.45034 148.065 8.81647 148.296 8.24023C148.526 7.66399 149.16 7.37587 149.736 7.60637C151.897 8.47073 154.058 9.39271 156.133 10.3723C156.68 10.6316 156.939 11.2943 156.651 11.8417C156.478 12.2739 156.075 12.5044 155.672 12.5044ZM68.5446 10.1706C68.1124 10.1706 67.6802 9.91133 67.5073 9.47915C67.2768 8.90291 67.5362 8.26904 68.1124 8.03855C70.2445 7.17419 72.463 6.33864 74.6527 5.61834C75.2289 5.41666 75.8628 5.73359 76.0645 6.30983C76.2662 6.88607 75.9492 7.51993 75.373 7.72161C73.2121 8.44191 71.08 9.24865 68.9768 10.0842C68.8327 10.1418 68.6886 10.1706 68.5446 10.1706ZM142.822 7.4335C142.706 7.4335 142.591 7.40468 142.476 7.37587C140.315 6.68438 138.125 6.05052 135.907 5.47428C135.302 5.33022 134.956 4.72517 135.1 4.12012C135.244 3.51506 135.849 3.16932 136.454 3.31338C138.701 3.88962 140.949 4.52348 143.138 5.24378C143.715 5.44547 144.032 6.05052 143.859 6.65557C143.743 7.11656 143.311 7.4335 142.822 7.4335ZM81.6252 5.79121C81.1353 5.79121 80.6744 5.47428 80.5591 4.95566C80.4151 4.35061 80.7608 3.74556 81.337 3.6015C83.5844 2.99645 85.8605 2.47783 88.1366 2.04565C88.7417 1.9304 89.3179 2.30496 89.4332 2.91001C89.5484 3.51506 89.1739 4.0913 88.5688 4.20655C86.3503 4.63873 84.103 5.15735 81.9133 5.73359C81.8268 5.79121 81.7116 5.79121 81.6252 5.79121ZM129.482 4.03368C129.424 4.03368 129.338 4.03368 129.28 4.00487C127.061 3.6015 124.785 3.22694 122.538 2.96764C121.933 2.8812 121.501 2.33377 121.558 1.72872C121.645 1.12367 122.192 0.691488 122.797 0.749112C125.102 1.03723 127.407 1.38298 129.683 1.81516C130.288 1.9304 130.692 2.50664 130.576 3.1117C130.461 3.65912 130 4.03368 129.482 4.03368ZM95.1379 3.14051C94.5905 3.14051 94.1007 2.73714 94.0431 2.1609C93.9566 1.55585 94.3888 0.979608 94.9938 0.921984C97.27 0.633864 99.6037 0.374556 101.938 0.230496C102.543 0.201684 103.09 0.662676 103.119 1.26773C103.148 1.87278 102.687 2.42021 102.082 2.44902C99.8054 2.59308 97.5293 2.82358 95.282 3.14051C95.2532 3.14051 95.1955 3.14051 95.1379 3.14051ZM115.796 2.3914C115.767 2.3914 115.767 2.3914 115.738 2.3914C113.664 2.27615 111.561 2.21852 109.457 2.21852H108.91C108.305 2.21852 107.815 1.72872 107.786 1.12367C107.786 0.518616 108.276 0 108.881 0H109.457C111.589 0 113.75 0.057624 115.854 0.172872C116.459 0.201684 116.948 0.7203 116.891 1.35416C116.862 1.9304 116.372 2.3914 115.796 2.3914ZM57.6249 51.343L75.6323 134.523L57.8266 134.667L54.0522 115.45L38.8972 115.565L35.4398 134.84L17.6341 134.984L34.2873 51.5447L57.6249 51.343ZM41.6919 100.295L51.0846 100.208C48.2034 85.6869 47.0509 78.9449 46.129 69.4657C45.2358 78.8584 44.1986 86.2055 41.6919 100.295ZM103.81 50.9396C120.752 50.7955 127.205 58.4307 127.321 71.1944L127.378 76.9568C127.436 83.0938 125.448 89.2308 119.57 92.0543C126.572 94.3881 128.185 100.64 128.243 106.662L128.3 113.635C128.416 126.369 122.106 134.12 105.136 134.264L78.0525 134.523L77.361 51.1989L103.81 50.9396ZM95.282 66.671L95.426 84.7073L102.398 84.6496C107.441 84.6208 109.601 82.3159 109.573 78.5703L109.515 72.5486C109.486 68.8319 108.017 66.5557 102.975 66.5845L95.282 66.671ZM95.5701 100.323L95.7141 118.734L104.012 118.677C109.054 118.648 110.495 116.458 110.466 112.597L110.408 106.23C110.379 102.628 108.19 100.237 103.148 100.266L95.5701 100.323ZM147.547 133.918L128.329 50.7379L146.365 50.5939L152.877 82.4023C155.873 97.0388 156.651 102.225 157.832 112.194C158.841 102.196 159.504 96.7795 162.269 82.3447L168.262 50.421L186.299 50.2769L168.493 133.774L147.547 133.918ZM90.2399 158.552C90.1823 152.07 92.6313 147.863 98.8258 147.806C105.02 147.748 107.527 151.926 107.585 158.408C107.642 164.891 105.193 169.184 98.9987 169.213C92.833 169.299 90.2975 165.064 90.2399 158.552ZM101.477 158.466C101.448 155.124 100.9 153.482 98.8834 153.51C96.8666 153.539 96.348 155.181 96.3768 158.495C96.4056 161.837 96.953 163.537 98.9699 163.508C100.958 163.508 101.505 161.808 101.477 158.466ZM104.041 190.419L97.9615 190.476L114.845 148.267L120.924 148.209L104.041 190.419ZM111.301 180.248C111.244 173.765 113.693 169.559 119.887 169.501C126.082 169.443 128.588 173.621 128.646 180.104C128.704 186.587 126.255 190.879 120.06 190.908C113.866 190.937 111.359 186.731 111.301 180.248ZM122.538 180.133C122.509 176.79 121.962 175.148 119.945 175.177C117.928 175.206 117.409 176.848 117.438 180.161C117.467 183.504 118.015 185.204 120.031 185.175C122.048 185.146 122.567 183.475 122.538 180.133Z" fill="#0A483A"/>
</svg>
