<svg width="134" height="46" fill="none" xmlns="http://www.w3.org/2000/svg"><path d="M3 20a3 3 0 1 0 0 6v-6Zm130.121 5.121a3 3 0 0 0 0-4.242L114.029 1.787a3 3 0 1 0-4.242 4.242L126.757 23l-16.97 16.97a3 3 0 1 0 4.242 4.243l19.092-19.092ZM9.4 26a3 3 0 1 0 0-6v6Zm12.8-6a3 3 0 1 0 0 6v-6ZM35 26a3 3 0 1 0 0-6v6Zm12.8-6a3 3 0 1 0 0 6v-6Zm12.8 6a3 3 0 1 0 0-6v6Zm12.8-6a3 3 0 1 0 0 6v-6Zm12.8 6a3 3 0 1 0 0-6v6ZM99 20a3 3 0 0 0 0 6v-6Zm12.8 6a3 3 0 1 0 0-6v6Zm12.8-6a3 3 0 1 0 0 6v-6ZM3 26h6.4v-6H3v6Zm19.2 0H35v-6H22.2v6Zm25.6 0h12.8v-6H47.8v6Zm25.6 0h12.8v-6H73.4v6ZM99 26h12.8v-6H99v6Zm25.6 0h6.4v-6h-6.4v6Z" fill="#0A483A"/></svg>