<svg width="134" height="46" viewBox="0 0 134 46" fill="none" xmlns="http://www.w3.org/2000/svg">
<path d="M3 20C1.34315 20 0 21.3431 0 23C0 24.6569 1.34315 26 3 26V20ZM133.121 25.1213C134.293 23.9497 134.293 22.0503 133.121 20.8787L114.029 1.7868C112.858 0.615223 110.958 0.615223 109.787 1.7868C108.615 2.95837 108.615 4.85786 109.787 6.02944L126.757 23L109.787 39.9706C108.615 41.1421 108.615 43.0416 109.787 44.2132C110.958 45.3848 112.858 45.3848 114.029 44.2132L133.121 25.1213ZM9.4 26C11.0569 26 12.4 24.6569 12.4 23C12.4 21.3431 11.0569 20 9.4 20V26ZM22.2 20C20.5431 20 19.2 21.3431 19.2 23C19.2 24.6569 20.5431 26 22.2 26V20ZM35 26C36.6569 26 38 24.6569 38 23C38 21.3431 36.6569 20 35 20V26ZM47.8 20C46.1431 20 44.8 21.3431 44.8 23C44.8 24.6569 46.1431 26 47.8 26V20ZM60.6 26C62.2569 26 63.6 24.6569 63.6 23C63.6 21.3431 62.2569 20 60.6 20V26ZM73.4 20C71.7431 20 70.4 21.3431 70.4 23C70.4 24.6569 71.7431 26 73.4 26V20ZM86.2 26C87.8569 26 89.2 24.6569 89.2 23C89.2 21.3431 87.8569 20 86.2 20V26ZM99 20C97.3432 20 96 21.3431 96 23C96 24.6569 97.3432 26 99 26V20ZM111.8 26C113.457 26 114.8 24.6569 114.8 23C114.8 21.3431 113.457 20 111.8 20V26ZM124.6 20C122.943 20 121.6 21.3431 121.6 23C121.6 24.6569 122.943 26 124.6 26V20ZM3 26H9.4V20H3V26ZM22.2 26H35V20H22.2V26ZM47.8 26H60.6V20H47.8V26ZM73.4 26H86.2V20H73.4V26ZM99 26H111.8V20H99V26ZM124.6 26H131V20H124.6V26Z" fill="#0A483A"/>
</svg>
