<svg width="108" height="157" viewBox="0 0 108 157" fill="none" xmlns="http://www.w3.org/2000/svg">
<path d="M107.412 20.6C107.412 6.7 100.712 0 86.9122 0C64.7122 0 42.6122 0 20.4122 0C6.91218 0.1 0.212185 6.8 0.112185 20.4C0.0121846 39.6 0.112185 58.7 0.112185 77.9C0.112185 97.1 0.512185 116.3 0.0121846 135.4C-0.387815 150.1 9.11218 156.4 20.9122 156.3C42.9122 156.1 64.9122 156.3 86.9122 156.2C100.712 156.2 107.412 149.5 107.412 135.6C107.412 97.3 107.412 59 107.412 20.6ZM96.6122 20.9C96.6122 59.1 96.6122 97.2 96.6122 135.4C96.6122 143 94.7122 145 87.3122 145C65.0122 145 42.6122 145 20.3122 145C12.9122 145 11.0122 143 11.0122 135.4C11.0122 116.2 11.0122 97.1 11.0122 77.9C11.0122 58.7 11.0122 39.6 11.0122 20.4C11.0122 13.3 13.0122 11.3 20.2122 11.3C22.5122 11.3 24.9122 11.4 27.2122 11.3C32.1122 11.1 35.6122 11 38.0122 17.4C41.2122 25.8 50.1122 23 57.0122 23.4C62.3122 23.7 68.1122 22.8 69.5122 17.4C71.3122 10.6 75.5122 11.2 80.3122 11.3C83.3122 11.4 86.3122 11.3 89.3122 11.3C94.0122 11.4 96.3122 13.9 96.5122 18.4C96.6122 19.3 96.6122 20.1 96.6122 20.9Z" fill="#0A483A"/>
</svg>
