<svg width="132" height="106" viewBox="0 0 132 106" fill="none" xmlns="http://www.w3.org/2000/svg">
<path d="M132 15.948C132 4.92375 127.171 0.092901 116.15 0.092901C82.7167 -0.030967 49.2833 -0.030967 15.8499 0.092901C4.70544 0.092901 0.123827 4.92375 0.123827 16.0719C0 40.35 0 64.752 0 89.154C0 101.417 4.58161 106 16.8405 106C33.1857 106 49.4071 106 65.7523 106C82.2214 106 98.8143 106 115.283 106C127.295 106 132 101.417 132 89.6494C132 65.1236 132 40.4739 132 15.948ZM118.008 13.8422C100.919 24.4949 85.0694 34.5282 68.9719 44.3138C67.4859 45.1808 64.5141 45.1808 63.0281 44.3138C47.0544 34.5282 31.0807 24.4949 13.9925 13.8422C49.1595 13.8422 82.8405 13.8422 118.008 13.8422ZM118.75 92.2507C83.7073 92.2507 48.9118 92.2507 13.4972 92.2507C13.4972 70.8215 13.4972 49.2685 13.4972 26.9722C16.7167 28.9541 19.4409 30.5644 22.1651 32.1747C34.9193 40.1022 47.7974 48.0298 60.4278 56.2051C64.3902 58.8063 67.2383 59.054 71.4484 56.3289C85.0694 47.4105 99.0619 38.8636 112.807 30.3167C114.54 29.2019 116.274 28.3348 118.627 26.9722C118.75 49.3923 118.75 70.5738 118.75 92.2507Z" fill="#0A483A"/>
</svg>
