<svg width="132" height="106" fill="none" xmlns="http://www.w3.org/2000/svg"><path d="M132 15.948C132 4.924 127.171.093 116.15.093a13536.11 13536.11 0 0 0-100.3 0C4.705.093.124 4.923.124 16.072 0 40.35 0 64.752 0 89.154 0 101.417 4.582 106 16.84 106h98.443C127.295 106 132 101.417 132 89.65V15.947Zm-13.992-2.106c-17.089 10.653-32.939 20.686-49.036 30.472-1.486.867-4.458.867-5.944 0-15.974-9.786-31.947-19.82-49.035-30.472h104.015Zm.742 78.409H13.497V26.972c3.22 1.982 5.944 3.592 8.668 5.203 12.754 7.927 25.632 15.855 38.263 24.03 3.962 2.601 6.81 2.849 11.02.124 13.621-8.919 27.614-17.465 41.359-26.012 1.733-1.115 3.467-1.982 5.82-3.345.123 22.42.123 43.602.123 65.279Z" fill="#0A483A"/></svg>