<svg width="185" height="184" viewBox="0 0 185 184" fill="none" xmlns="http://www.w3.org/2000/svg">
<path d="M91.866 182.827C91.866 183.028 91.866 183.028 91.866 182.827C101.317 182.827 110.568 183.229 120.019 182.827C155.009 181.22 180.95 156.914 183.162 122.162C184.57 101.27 184.168 79.9773 182.76 58.8851C180.749 27.3472 153.602 1.63483 121.628 0.429566C101.921 -0.173069 82.0125 -0.173069 62.3054 0.630444C29.7283 1.83571 3.18408 27.1464 1.17315 59.8895C-0.0334099 80.1782 -0.435596 100.668 0.569869 121.157C2.17861 155.508 28.1196 181.019 62.7076 182.827C72.36 183.43 82.2136 182.827 91.866 182.827Z" fill="white"/>
<path d="M91.8661 182.827C82.2136 182.827 72.36 183.229 62.7076 182.827C28.1196 181.019 2.17861 155.508 0.569869 121.157C-0.435596 100.869 -0.0334099 80.3791 1.17315 59.8895C3.18408 27.1464 29.7283 1.83571 62.3054 0.630444C82.0125 -0.173069 101.921 -0.173069 121.628 0.429566C153.602 1.63483 180.749 27.1464 182.76 58.8851C184.168 79.9773 184.369 101.07 183.162 122.162C180.95 156.914 155.009 181.22 120.019 182.827C110.568 183.229 101.317 183.028 91.8661 182.827C91.8661 183.028 91.8661 183.028 91.8661 182.827ZM170.896 91.4274C170.694 91.4274 170.694 91.4274 170.896 91.4274C170.694 82.3879 170.896 73.3483 170.694 64.3088C170.091 36.1859 147.77 13.6875 119.215 13.0849C101.116 12.6831 83.018 12.884 64.9196 13.0849C35.56 13.6875 13.4398 36.1859 13.0376 65.9158C12.8365 82.9905 12.8365 100.065 13.0376 117.14C13.2387 146.066 33.7502 168.765 62.5065 170.373C82.2136 171.377 102.122 171.377 121.829 170.373C150.183 168.565 170.493 146.066 170.896 117.542C170.896 108.904 170.896 100.266 170.896 91.4274Z" fill="#0A483A"/>
<path d="M170.895 91.4273C170.895 100.065 170.895 108.904 170.895 117.541C170.493 145.865 150.183 168.565 121.829 170.172C102.122 171.377 82.2135 171.377 62.5064 170.172C33.7501 168.765 13.2386 146.066 13.0375 117.14C12.8364 100.065 12.8364 82.9904 13.0375 65.9158C13.4397 36.1858 35.5599 13.6874 64.9195 13.2857C83.0179 12.8839 101.116 12.8839 119.215 13.2857C147.77 13.6874 170.091 36.1858 170.694 64.3087C170.895 73.3483 170.694 82.3878 170.895 91.4273C170.694 91.4273 170.694 91.4273 170.895 91.4273ZM122.03 34.3779C110.769 36.1858 99.7086 35.3823 91.0616 39.6007C75.3763 47.435 80.6047 64.5096 78.996 78.3702C72.561 78.9729 67.1315 79.5755 61.5009 80.1781C61.5009 87.2089 61.5009 93.0343 61.5009 99.4624C67.5337 99.8642 72.9632 100.266 79.5993 100.869C79.5993 117.742 79.5993 133.813 79.5993 150.084C87.4419 150.084 94.078 150.084 101.72 150.084C101.72 133.411 101.72 117.14 101.72 100.668C107.752 100.266 112.78 100.065 117.807 99.6633C118.41 98.0563 119.013 97.0519 119.215 95.6457C120.019 90.8247 120.421 85.8027 121.226 79.9772C117.807 79.5755 114.992 79.3746 112.176 79.1737C108.959 78.9729 105.741 78.772 102.725 78.5711C99.9097 58.6842 100.312 58.0815 122.03 52.6578C122.03 47.6359 122.03 42.6139 122.03 34.3779Z" fill="white"/>
<path d="M122.03 34.3779C122.03 42.8148 122.03 47.6359 122.03 52.457C100.312 58.0816 99.9097 58.6842 102.725 78.3702C105.741 78.5711 108.959 78.772 112.176 78.9729C114.992 79.1738 118.008 79.5755 121.226 79.7764C120.421 85.6019 120.019 90.4229 119.215 95.4449C119.014 96.6502 118.41 97.8554 117.807 99.4625C112.78 99.6633 107.752 100.065 101.72 100.467C101.72 116.939 101.72 133.21 101.72 149.883C94.078 149.883 87.442 149.883 79.5993 149.883C79.5993 133.612 79.5993 117.541 79.5993 100.668C72.9633 100.065 67.3327 99.6633 61.501 99.2616C61.501 92.8335 61.501 87.008 61.501 79.9773C67.1316 79.3746 72.5611 78.9729 78.9961 78.1694C80.6048 64.3088 75.3764 47.2341 91.0616 39.3999C99.7086 35.3823 110.769 35.985 122.03 34.3779Z" fill="#0A483A"/>
</svg>
