<?xml version="1.0" encoding="utf-8"?>
<!-- Generator: Adobe Illustrator 27.4.0, SVG Export Plug-In . SVG Version: 6.00 Build 0)  -->
<svg version="1.1" id="flag-icons-fr" xmlns="http://www.w3.org/2000/svg" xmlns:xlink="http://www.w3.org/1999/xlink" x="0px"
	 y="0px" viewBox="0 0 640 480" style="enable-background:new 0 0 640 480;" xml:space="preserve">
<style type="text/css">
	.st0{fill:#FFFFFF;}
	.st1{fill:#000091;}
	.st2{fill:#E1000F;}
	.st3{fill:#D9D9D9;filter:url(#Adobe_OpacityMaskFilter);}
	.st4{mask:url(#mask0_298_274_00000054243691365043124740000010883155740661450118_);}
	.st5{fill:#03288E;}
</style>
<path class="st0" d="M0,0h640v480H0V0z"/>
<path class="st1" d="M0,0h133v480H0V0z"/>
<path class="st2" d="M507,0h133v480H507V0z"/>
<defs>
	<filter id="Adobe_OpacityMaskFilter" filterUnits="userSpaceOnUse" x="142.2" y="197.1" width="355.7" height="98.5">
		<feColorMatrix  type="matrix" values="1 0 0 0 0  0 1 0 0 0  0 0 1 0 0  0 0 0 1 0"/>
	</filter>
</defs>
<mask maskUnits="userSpaceOnUse" x="142.2" y="197.1" width="355.7" height="98.5" id="mask0_298_274_00000054243691365043124740000010883155740661450118_">
	<circle class="st3" cx="312.2" cy="213.4" r="330.4"/>
</mask>
<g class="st4">
	<path class="st5" d="M476.1,246.5l-13.2-8.6c-6.6-4.3-10.4-10.5-10.4-18.7v-2.5c0-11.7,6.8-19.5,22.4-19.5s22.5,7.8,22.5,19.5v5.9
		h-16.7v-5.3c0-3.3-1.2-5.3-5.7-5.3s-5.6,1.9-5.6,5.3v1.5c0,3,1.2,5.1,5.5,7.8l13.3,8.6c7.2,4.6,9.7,9.9,9.7,18.5v2.4
		c0,11.7-7.4,19.5-22.9,19.5s-22.8-7.8-22.8-19.5v-5.8h16.7v5.2c0,3.3,1.4,5.3,6.1,5.3c4.6,0,6.2-1.9,6.2-5.3V254
		C481.1,250.9,480.2,249,476.1,246.5z"/>
	<path class="st5" d="M449.9,274.5h-16.7v-76.3h16.7V274.5z"/>
	<path class="st5" d="M394.9,198.2h21.4l15.9,76.3h-16.3l-3.3-17.6h-13.9l-3.3,17.6H379L394.9,198.2z M405.6,214.7
		c-0.9,8.6-1.9,15.3-4.3,28.2h8.6C407.3,229.6,406.3,223.4,405.6,214.7z"/>
	<path class="st5" d="M351.9,283l1.7-7.5c-13.5-1-20.2-8.7-20.2-19.6v-39.1c0-11.7,7.5-19.7,23-19.7s23.1,8,23.1,19.7v9.1H363v-8.3
		c0-3.3-2-5.5-6.6-5.5s-6.5,2.1-6.5,5.5v37.3c0,3.4,1.9,5.5,6.5,5.5s6.6-2.2,6.6-5.5v-8.3h16.5v9.1c0,10.6-6.3,18.2-18.9,19.5
		l-0.8,3.4c2.2,0.2,6.4,2,6.4,7.4c0,5.8-4.4,9.4-11.1,9.4c-1.9,0-3.6-0.2-5.6-0.7v-7.3c0.8,0.3,2.3,0.6,3.6,0.6
		c1.9,0,3.5-0.9,3.5-2.5s-1.2-2.6-3.6-2.6H351.9z"/>
	<path class="st5" d="M313.1,274.5l-10.2-26.2c-6.2-15.8-8.6-24.3-9-25.6c0.4,1.3,2.8,10.9,2.8,31.5v20.3h-16.3v-76.3h16.3l10,25.6
		c5.8,15,8.3,23.5,8.7,25.3c-0.6-2-2.6-12-2.6-31.7v-19.2H329v76.3H313.1z"/>
	<path class="st5" d="M242,198.2h21.4l15.9,76.3h-16.3l-3.3-17.6h-13.9l-3.3,17.6h-16.3L242,198.2z M252.7,214.7
		c-0.9,8.6-1.9,15.3-4.3,28.2h8.6C254.4,229.6,253.4,223.4,252.7,214.7z"/>
	<path class="st5" d="M210.1,274.5l-8.6-26.9h-3.4v26.9h-16.5v-76.3h21.8c15.5,0,23.1,8,23.1,19.7v10c0,7.4-3,13.2-9.1,16.6l10.9,30
		H210.1z M203.4,212.5h-5.3v20.8h5.3c4.6,0,6.6-2.1,6.6-5.5V218C210,214.7,208,212.5,203.4,212.5z"/>
	<path class="st5" d="M158.9,274.5h-16.7v-76.3h37.8v14.3h-21v19.2h18.6V246h-18.6V274.5z"/>
</g>
</svg>
