<svg width="220" height="110" viewBox="0 0 220 110" fill="none" xmlns="http://www.w3.org/2000/svg">
<path d="M34.0183 4.97245C30.3921 6.45601 26.603 7.78095 22.9502 9.17432C16.4124 11.8087 7.83079 16.5673 2.15746 20.5576C0.339477 21.8733 0.22979 21.895 0.765178 23.3164C3.33243 30.445 3.67935 37.9188 8.05806 44.4969C8.8693 45.6725 8.74656 47.2245 9.36503 48.5339C9.95689 49.7531 10.7415 50.8385 11.5528 52.0142C13.2817 54.7263 14.7912 57.4819 16.7128 60.0603C22.5077 67.503 29.9012 73.6736 38.6739 78.6157C44.6675 82.009 50.5514 85.424 57.1532 88.1236C63.3728 90.7082 69.3431 93.6287 75.7021 95.8991C85.9372 99.5007 96.4513 102.474 107.301 104.617C114.215 106.014 121.073 107.612 128.239 108.29C135.379 108.878 142.512 110.231 149.722 109.086C152.119 110.52 154.575 108.219 156.622 108.862C159.298 109.668 161.279 108.511 163.636 108.234C166.212 107.914 168.791 107.211 171.314 106.71C175.921 105.796 179.716 103.706 183.485 101.526C187.942 98.9223 190.764 95.4979 193.479 91.7128C196.111 88.0397 196.137 88.1299 201.33 89.1998C203.012 90.9664 205.834 90.6927 207.878 91.7191C208.726 91.8372 209.49 92.0674 210.338 92.1856C212.386 92.8294 214.267 93.6971 216.398 94.229C218.392 94.6924 218.488 93.0502 219.612 92.9227C219.346 92.0207 220.097 90.6305 218.016 90.6616C214.556 88.7706 210.231 88.6742 206.548 87.2093C205.265 86.7956 204.008 86.4722 202.725 86.0585C197.706 83.9995 197.842 84.068 199.357 79.7572C200.367 76.8834 200.885 73.9163 201.267 70.8807C201.559 68.7222 201.579 66.4269 200.857 64.3742C199.872 61.0369 199.134 57.7464 197.136 54.5149C194.842 50.6738 192.298 47.1686 189.123 43.8842C185.27 39.8751 181.224 35.9998 176.102 33.1975C168.227 28.9366 160.215 24.6072 151.426 21.5778C147.932 20.3617 145.047 18.4521 141.716 17.3946C132.322 14.6763 123.54 10.8819 113.84 8.7016C106.381 7.03142 99.2307 4.44062 91.6585 3.17477C84.0864 1.90892 76.3481 0.866994 68.4403 0.431564C61.2439 0.0458976 54.2571 0.764348 47.1606 1.50457C42.6102 2.21681 38.2494 3.17787 34.0183 4.97245ZM50.1194 4.44994C56.7505 3.70661 63.518 3.03169 70.3587 3.39248C77.8011 3.8248 85.1838 4.84183 92.5099 6.06103C99.7264 7.302 106.577 9.66576 113.681 11.3111C122.889 13.398 131.289 17.0774 140.164 19.6122C143.468 20.5795 146.218 22.4207 149.465 23.5901C157.872 26.5044 165.448 30.5383 172.941 34.6842C177.791 37.3497 181.784 41.0446 185.364 44.9168C188.376 48.0425 190.866 51.3673 192.998 55.0498C194.833 58.1227 195.545 61.3231 196.476 64.4799C197.061 66.4642 197.015 68.6694 196.806 70.7159C196.481 73.5493 195.936 76.4262 195.009 79.1881L192.809 83.5392C192.042 83.6916 191.274 83.844 191.064 82.7399C190.858 81.2532 190.871 79.723 190.884 78.1928C191.552 76.9145 191.399 75.6082 190.917 74.3673C190.837 74.0967 190.73 73.7359 190.651 73.4653C190.873 73.0392 191.451 72.638 191.428 72.1652C191.298 71.3317 190.923 70.4515 190.683 69.6397C192.302 69.223 191.241 68.3832 191.248 67.6181C191.168 67.3475 191.062 66.9868 190.982 66.7162C192.77 65.6929 191.709 64.8532 190.759 63.9916C190.622 63.9232 189.828 63.9854 189.855 64.0756C189.685 64.6821 189.652 65.357 189.619 66.0319C189.699 66.3025 189.805 66.6633 189.885 66.9339C188.266 67.3506 189.327 68.1904 189.32 68.9555C189.443 70.5541 189.43 72.0844 189.554 73.683C189.331 74.1091 188.753 74.5103 188.776 74.9831C188.906 75.8166 189.282 76.6968 189.521 77.5086C189.219 77.6641 188.806 77.8413 188.723 77.9533C188.464 79.4369 188.342 80.9889 188.083 82.4724C186.281 81.8753 184.589 81.2563 182.787 80.6592C182.651 80.5908 182.458 80.7245 182.239 80.768C181.83 80.5628 181.285 80.2891 180.876 80.0838C180.547 80.1491 180.108 80.2362 179.779 80.3015C178.825 79.8225 178.007 79.412 177.053 78.933C176.206 78.8148 175.441 78.5847 174.593 78.4665C173.53 78.0093 172.602 77.6205 171.648 77.1415C171.239 76.9363 170.913 76.619 170.614 76.392C169.999 74.7 169.603 72.9645 170.248 71.2135C171.311 68.5201 171.171 65.6836 171.277 62.8937C171.197 62.6231 171.091 62.2624 171.011 61.9918C171.23 61.9482 171.559 61.8829 171.559 61.8829C171.934 59.6125 172.968 57.2114 172.246 55.1587C171.392 52.6549 173.681 50.5773 172.77 48.2758C172.72 47.7128 172.398 47.0131 172.73 46.5652C173.119 45.9152 173.258 45.601 172.358 45.3024C171.975 45.1874 171.483 45.0941 171.101 44.979C171.151 45.5419 171.201 46.1049 171.251 46.6678C170.948 46.8233 170.427 47.0224 170.48 47.2028C170.344 50.285 170.81 53.4387 169.634 56.5365C169.159 57.681 169.584 59.1242 169.491 60.3838C169.571 60.6544 169.678 61.0152 169.758 61.2857C169.508 61.6217 168.903 61.9327 168.874 62.225C169.576 66.5731 168.609 70.775 167.998 75.0017C167.313 75.0422 166.353 75.3283 165.944 75.123C164.365 74.0998 162.394 74.1091 160.619 73.6021C160.157 73.2165 159.641 72.6504 159.013 72.4887C156.091 71.6365 153.169 70.7843 150.247 69.9321C149.326 68.7782 147.362 68.0224 148.665 66.1408C149.053 65.4907 148.515 64.4519 148.385 63.6184C150.004 63.2016 148.943 62.3619 148.95 61.5968C148.763 60.9654 148.604 60.4242 148.418 59.7929C148.667 59.4569 148.999 59.0091 149.248 58.6732C149.169 58.4026 149.062 58.0418 148.982 57.7712C148.902 57.5006 148.796 57.1399 148.716 56.8693C150.335 56.4525 149.274 55.6127 149.281 54.8476C149.201 54.577 149.095 54.2163 149.015 53.9457C149.264 53.6098 149.869 53.2988 149.899 53.0064C149.845 49.6754 150.174 46.4594 150.476 43.1533C150.426 42.5903 150.376 42.0274 150.326 41.4644C150.359 40.7895 150.365 40.0244 150.508 39.3277C150.428 39.0572 150.322 38.6964 150.242 38.4258C152.167 37.471 149.856 35.5426 151.398 34.4727C151.073 34.1555 150.694 33.6578 150.338 33.633C149.872 33.6299 149.075 34.0746 149.128 34.255C149.334 35.7417 148.118 37.1288 149.119 38.5533C147.168 39.4179 148.993 40.4878 148.82 41.4769C146.703 42.5655 149.183 43.8873 148.488 45.0754C146.933 47.6755 148.004 50.5182 147.625 53.1712C147.705 53.4418 147.812 53.8026 147.891 54.0732C146.273 54.49 147.333 55.3297 147.327 56.0948C147.407 56.3654 147.513 56.7262 147.593 56.9968C147.29 57.1523 146.878 57.3296 146.795 57.4415C146.862 59.2423 146.929 61.0432 146.995 62.844C145.377 63.2607 146.437 64.1005 146.431 64.8656C146.624 67.8825 145.936 68.3055 142.575 67.5404C140.019 65.5654 136.682 65.273 133.567 64.5546C133.105 64.1689 132.59 63.6028 131.961 63.4411C129.039 62.5889 126.118 61.7367 123.196 60.8845C123.245 58.2968 123.211 55.8211 123.261 53.2334C123.075 52.6021 122.915 52.0609 122.729 51.4295C122.951 51.0034 123.53 50.6022 123.506 50.1294C123.377 49.2959 123.001 48.4157 122.761 47.604C123.18 46.6616 123.382 42.2295 123.093 40.8548C123.395 40.6993 123.917 40.5003 123.864 40.3199C123.271 35.9501 123.856 31.6331 123.755 27.3566C123.675 27.086 123.569 26.7252 123.489 26.4546C124.951 25.1141 124.031 23.9602 123 22.8281C122.864 22.7597 121.767 22.9774 121.71 23.1796C121.514 23.6959 121.81 24.3055 121.86 24.8684C121.94 25.139 122.046 25.4998 122.126 25.7704C121.824 25.9259 121.302 26.1249 121.355 26.3053C121.948 30.6752 121.363 34.9921 121.464 39.2686C121.65 39.9 121.81 40.4412 121.996 41.0726C121.577 42.0149 121.375 46.447 121.664 47.8217C121.601 48.789 121.429 49.778 121.366 50.7453C121.552 51.3766 121.712 51.9178 121.898 52.5492C121.595 52.7047 121.074 52.9037 121.1 52.9939C121.443 54.549 121.21 56.1228 121.197 57.653C121.211 59.2734 121.314 60.0168 118.967 59.1459C117.93 58.7789 116.644 58.7478 115.524 58.4928C115.198 58.1755 114.845 57.7681 114.436 57.5628C109.577 56.045 104.826 54.5055 99.9666 52.9877C97.0382 52.9006 96.2899 50.7577 96.7949 49.3208C97.3564 47.6817 96.5452 46.5061 96.4751 45.0878C98.4262 44.2232 96.6011 43.1533 96.7738 42.1642C96.5876 41.5329 96.4279 40.9917 96.2417 40.3603C96.6604 39.4179 96.8624 34.9859 96.573 33.6112C96.3867 32.9798 96.2271 32.4386 96.0409 31.8073C96.3433 31.6518 96.8651 31.4527 96.8119 31.2723C96.6186 28.2554 96.3157 25.2603 96.5877 22.2465C96.7702 20.1098 96.2413 17.9233 95.8222 15.7151C95.7424 15.4445 94.8415 15.1459 94.3229 14.9624C94.0737 15.2983 93.6051 15.6778 93.6849 15.9484C93.8282 18.4023 94.5732 20.9278 94.1149 23.3102C93.8559 24.7938 94.9131 26.0161 94.5742 27.229C94.262 28.5322 94.0595 29.8136 94.6779 31.123C94.7577 31.3936 94.8642 31.7544 94.944 32.025C94.6415 32.1805 94.1197 32.3795 94.1463 32.4697C94.5389 34.5878 94.9049 36.6156 94.6127 38.7741C94.7989 39.4055 94.9586 39.9467 95.1448 40.578C93.1938 41.4427 95.0188 42.5126 94.8462 43.5016C95.4049 45.3957 94.2119 47.2556 95.2626 49.243C95.8012 50.2818 94.2624 50.9692 92.8696 50.5773C88.9073 49.7407 85.4734 47.9399 81.4845 47.013C75.5011 45.6228 75.6407 45.3086 74.2039 40.4381C73.725 38.8145 73.2195 37.1008 72.7406 35.4773C72.9632 35.0512 73.5149 34.5598 73.5182 34.1772C73.282 32.9829 72.853 31.9223 72.5071 30.7498C72.3209 30.1184 72.1613 29.5772 71.975 28.9459C71.6291 27.7733 71.2566 26.5106 70.9108 25.338C71.16 25.0021 71.7649 24.6911 71.7948 24.3988C71.5586 23.2044 70.9667 21.9852 70.8402 20.7692C70.3711 17.998 68.2034 15.373 69.4062 12.3654C69.5458 12.0513 68.1828 11.367 67.5845 10.9129C67.4715 11.3173 67.2489 11.7434 67.1359 12.1477C66.3187 14.8878 67.5556 17.5066 68.3006 20.032C68.8327 21.836 69.3649 23.6399 69.897 25.4438C69.6743 25.8699 69.1227 26.3613 69.1194 26.7439C69.5152 28.4793 70.1304 30.1713 70.6626 31.9752C71.1149 33.5085 71.5406 34.9517 71.9929 36.485C71.7702 36.9111 71.2185 37.4025 71.2153 37.7851C71.5313 39.25 72.0667 40.6713 72.4924 42.1145C72.4793 43.6447 71.5519 43.2559 70.322 43.0226C64.8871 41.5235 60.0072 39.1504 54.4327 37.9654C52.9302 37.5953 50.6632 36.9951 50.6529 34.9921C50.0409 32.9176 49.4024 30.7529 48.7904 28.6784C50.4091 28.2616 49.3487 27.4219 49.3552 26.6568C49.0093 25.4842 48.6368 24.2215 48.2909 23.0489C47.7588 21.245 47.2267 19.4411 46.6946 17.6372C46.9139 17.5936 47.243 17.5283 47.243 17.5283C46.6609 15.1615 46.2151 12.863 45.5234 10.5179C45.4968 10.4277 44.2636 10.577 43.4692 10.6392C43.549 10.9098 43.6554 11.2706 43.7352 11.5412C44.3472 13.6157 44.9857 15.7804 45.5977 17.8549C45.375 18.281 44.8234 18.7724 44.8201 19.155C45.0563 20.3493 45.4853 21.4098 45.8311 22.5824C47.8494 26.6692 46.7699 31.2754 48.4592 35.4275C43.6759 34.5629 39.3677 32.5537 34.7804 31.1728C32.9787 30.5756 31.2037 30.0686 29.3455 29.6736C27.2213 28.3767 27.2941 26.2618 26.6523 24.4796C26.1201 22.6757 25.588 20.8718 25.0559 19.0679C24.6568 17.7149 24.2577 16.362 23.8852 15.0993C23.8586 15.0091 23.3666 14.9158 23.1207 14.8691C23.0908 15.1615 23.0609 15.4538 23.0045 15.656C22.7818 16.0821 22.2301 16.5735 22.2535 17.0462C22.942 19.7739 23.8232 22.3678 24.6214 25.0737C25.4196 27.7795 25.4196 27.7795 21.9493 27.0362C21.4573 26.9429 20.9388 26.7594 20.4468 26.6661C17.6743 24.3521 13.4828 24.7067 10.4046 22.9307C10.2683 22.8623 9.47059 23.3071 9.19475 23.5528C9.00198 23.6865 9.16162 24.2277 9.32452 24.3863C9.8963 24.7502 10.4947 25.2043 11.1229 25.366C13.9085 26.1498 16.6941 26.9336 19.5894 27.6956C19.9983 27.9008 20.3241 28.2181 20.733 28.4233C21.0056 28.5602 21.4443 28.4731 21.7734 28.4078C21.6338 28.7219 21.6039 29.0143 21.3281 29.26C20.557 29.7949 19.6231 30.1713 18.7423 30.728C16.0436 32.6003 12.5037 33.5894 10.4832 36.1864C10.2073 36.4321 10.0678 36.7462 9.79193 36.9919C10.1476 37.0168 10.5299 37.1319 10.7492 37.0884C11.1049 37.1132 11.4074 36.9577 11.8461 36.8706C15.0667 34.7992 18.8558 33.4743 21.8602 31.0639C22.3288 30.6845 23.2861 30.7809 23.9443 30.6502C23.9008 29.3222 24.7219 29.3502 25.8687 29.6954C26.7695 29.994 27.697 30.3828 28.5978 30.6813C33.1519 32.7372 37.9852 34.1648 43.0112 35.4586C43.3935 35.5737 43.9387 35.8474 44.0451 36.2082C44.1249 36.4788 43.8458 37.107 43.5433 37.2625C39.1195 39.1909 35.427 42.0242 31.4919 44.4284C29.3812 44.7519 28.4375 46.2759 26.8687 47.2556C25.1072 48.369 23.0465 49.2555 21.285 50.3689C20.9826 50.5244 20.7567 51.3331 20.7833 51.4233C21.3284 51.697 22.1462 52.1075 22.4486 51.952C24.29 51.1091 25.8321 50.0392 27.6468 49.1062C29.6543 48.0394 31.5255 46.9041 32.7717 45.2246C37.056 43.6104 40.7186 41.0694 44.461 38.799C46.1394 37.7975 47.542 37.0417 49.2872 37.841C53.1865 39.645 57.5311 40.5967 61.7094 41.7723C63.8668 42.3944 65.9943 43.3088 68.1217 44.2232C69.0492 44.6119 69.1257 45.2651 68.0522 45.9556C66.7593 46.6896 65.8454 47.9212 64.4993 48.4748C60.3247 50.0672 56.8549 52.4745 53.3851 54.8818C49.9153 57.2891 45.9036 59.0402 42.5701 61.5159C41.2207 62.452 39.981 63.3664 38.7945 64.4612C38.6284 64.6852 38.9243 65.2948 38.921 65.6773C39.3332 65.5 39.6356 65.3445 40.0744 65.2574C43.6175 63.8858 45.9671 61.2235 49.1844 59.5347C56.0045 55.8895 62.2828 51.5881 68.8868 47.604C70.4555 46.6242 72.1274 46.3879 73.6929 45.7907C75.3849 46.4096 76.9938 47.1405 78.7689 47.6475C83.2731 49.1404 88.1661 49.9833 91.9758 52.6643C90.6264 53.6004 89.2238 54.3562 88.0107 55.3608C81.7792 60.6077 75.5477 65.8546 68.854 70.7158C66.3747 72.5446 64.3574 74.7591 61.9046 76.6781C61.2432 77.1913 60.8311 77.3686 61.7585 77.7573C62.2771 77.9408 62.9884 77.9906 63.4006 77.8133C64.1152 77.4805 64.7766 76.9673 65.4379 76.4542C71.1444 71.7889 76.6879 66.9649 82.5307 62.3681C86.1699 59.3543 90.135 56.6578 93.4484 53.3267C95.5889 52.7109 97.4671 53.9612 99.4648 54.0421C99.7906 54.3593 100.143 54.7668 100.552 54.972C105.412 56.4898 110.162 58.0294 115.022 59.5471C117.94 60.7819 117.914 60.6917 116.285 62.2561C112.586 65.8546 108.751 69.3847 105.052 72.9832C104.228 73.3378 102.835 72.9459 103.125 74.3206C100.565 75.8788 98.7142 77.8693 96.7268 79.7914C94.766 81.8037 91.9608 83.3153 90.1629 85.4862C89.475 85.9092 88.787 86.3322 88.1256 86.8453C87.7667 87.203 87.7069 87.7877 87.4843 88.2138C88.0859 88.2854 88.8505 88.5155 89.3989 88.4067C90.9611 88.1921 91.3798 87.2497 91.4993 86.0802C91.8283 86.0149 92.2937 86.018 92.5961 85.8625C96.4846 82.5128 100.483 79.1414 104.345 75.7015C104.537 75.5678 104.431 75.207 104.461 74.9146C105.149 74.4916 105.701 74.0002 106.388 73.5772C110.636 69.8699 114.993 66.1408 119.24 62.4334C119.902 61.9202 121.547 61.5936 122.641 61.7585C126.134 62.9746 129.518 64.2124 133.012 65.4285C135.987 66.4611 139.045 67.3817 142.02 68.4143C143.018 70.2213 141.419 71.4934 140.316 72.4762C136.73 75.6704 133.307 79.0232 129.857 82.2858C128.611 83.9653 125.948 84.7802 125.437 86.9822C122.486 89.573 119.398 92.0954 116.473 94.7764C116.307 95.0003 116.41 95.7436 116.6 95.9924C116.899 96.2195 117.857 96.3159 118.023 96.092C121.22 93.5478 124.254 90.8451 126.69 87.6882C128.644 86.441 130.735 85.2623 131.11 82.9918C131.659 82.883 132.37 82.9327 132.646 82.687C135.683 79.6017 138.611 76.5382 141.513 73.3844C143.53 71.17 145.87 69.6553 149.556 70.7376C150.018 71.1233 150.534 71.6894 151.162 71.8511C154.084 72.7033 157.006 73.5555 159.927 74.4077C160.227 74.6347 160.606 75.1324 161.071 75.1355C162.932 75.1479 164.159 75.7637 164.282 77.3624C163.122 78.5474 161.853 79.7541 160.693 80.9391C156.416 84.9388 152.275 89.0069 147.998 93.0067C147.748 93.3426 147.416 93.7904 147.167 94.1263C145.538 95.6908 143.91 97.2552 142.281 98.8196C142.005 99.0653 141.866 99.3795 141.809 99.5816C141.78 99.874 141.913 100.325 142.159 100.372C142.677 100.555 143.525 100.673 143.691 100.449C145.349 98.5926 146.981 96.6456 148.503 94.7204C148.832 94.6551 149.271 94.568 149.6 94.5027C149.849 94.1668 150.181 93.7189 150.431 93.383C153.385 90.4096 156.366 87.5265 159.321 84.5531C160.315 83.5921 162.179 83.222 162.029 81.5331C163.189 80.3482 165.629 79.9594 165.619 77.9564C168.776 76.8523 171.336 78.4447 174.095 79.1383C174.943 79.2565 175.707 79.4866 176.555 79.6048C177.509 80.0838 178.327 80.4943 179.281 80.9733C180.128 81.0915 180.893 81.3217 181.74 81.4398C182.149 81.6451 182.694 81.9188 183.103 82.1241C183.894 82.4444 184.769 82.6528 185.56 82.9732C185.254 83.5112 184.948 84.0493 184.616 84.4972C183.263 85.8159 181.775 87.0662 180.312 88.4067C177.168 91.1312 174.024 93.8558 170.907 96.6705C170.548 97.0282 169.803 97.6533 170.95 97.9985C171.469 98.182 172.316 98.3002 172.592 98.0545C174.55 96.4248 176.617 94.7733 178.275 92.9165C179.409 91.6413 181.822 91.1623 181.702 89.1811C183.576 87.6633 185.587 86.214 187.325 84.6278C188.153 83.8907 188.728 83.872 189.655 84.2608C190.337 84.6029 191.211 84.8113 192.002 85.1317L189.523 90.1111C186.974 93.6723 184.236 96.9846 179.972 99.4541C176.286 101.522 172.709 103.569 168.405 104.328C165.992 104.807 163.496 105.398 161.056 105.786C158.919 106.02 156.938 107.177 154.398 106.44C152.487 105.864 150.224 108.032 147.854 106.688C140.973 107.768 134.222 106.53 127.411 105.877C120.627 105.314 114.015 103.762 107.457 102.39C97.2088 100.319 87.1866 97.4387 77.3605 94.0423C71.274 91.9087 65.5763 89.1251 59.6294 86.6774C53.4098 84.0928 47.6888 80.8364 42.0774 77.5583C33.7136 72.8214 26.6193 66.8778 21.1769 59.8426C19.3084 57.4446 17.8255 54.7792 16.2595 52.2257C15.5846 51.1185 14.6902 50.0548 14.2347 48.904C13.6428 47.6848 13.7922 46.223 12.9809 45.0474C8.928 38.7865 8.55122 31.6051 6.00731 24.9492C5.49853 23.6181 5.58161 23.5061 7.31651 22.3025C12.6874 18.4676 20.8835 13.9765 27.0922 11.4075C30.6087 9.94566 34.2316 8.84465 37.6384 7.40463C41.7034 5.83398 45.8449 4.91647 50.1194 4.44994Z" fill="#0A483A"/>
</svg>
