<svg width="550" height="197" viewBox="0 0 550 197" fill="none" xmlns="http://www.w3.org/2000/svg">
<path d="M32.6941 62.1671C29.9642 63.9617 27.0854 65.6171 24.3236 67.3263C19.3971 70.5225 13.082 75.9873 9.00562 80.4242C7.70366 81.882 7.61839 81.9137 8.21271 83.2496C11.0991 89.961 12.2482 97.2216 16.5205 103.222C17.307 104.292 17.3897 105.819 18.0375 107.037C18.6534 108.171 19.4081 109.155 20.1946 110.225C21.8949 112.706 23.4246 115.251 25.2636 117.583C30.7703 124.293 37.4085 129.607 45.0076 133.591C50.2013 136.33 55.3098 139.1 60.9095 141.103C66.1898 143.03 71.3097 145.31 76.6651 146.917C85.2785 149.453 94.0421 151.349 102.978 152.403C108.675 153.104 114.351 154.009 120.167 153.985C125.952 153.876 131.82 154.514 137.458 152.707C139.544 153.877 141.242 151.396 142.956 151.829C145.192 152.359 146.643 151.04 148.497 150.545C150.522 149.986 152.505 149.053 154.466 148.323C158.047 146.99 160.842 144.588 163.605 142.099C166.87 139.132 168.729 135.521 170.461 131.567C172.14 127.731 172.172 127.816 176.453 128.364C178.006 129.927 180.233 129.39 181.989 130.196C182.681 130.23 183.32 130.382 184.013 130.416C185.727 130.849 187.334 131.515 189.102 131.831C190.753 132.092 190.638 130.48 191.523 130.248C191.204 129.394 191.643 127.965 189.981 128.194C186.991 126.68 183.517 126.999 180.398 125.922C179.323 125.641 178.279 125.446 177.204 125.165C172.945 123.635 173.063 123.689 173.773 119.337C174.246 116.436 174.315 113.491 174.267 110.492C174.249 108.357 173.997 106.116 173.18 104.181C172.003 101.019 171.028 97.8778 169.051 94.9153C166.767 91.3861 164.322 88.2086 161.398 85.307C157.846 81.763 154.155 78.368 149.727 76.1231C142.926 72.718 136.008 69.2591 128.619 67.1433C125.68 66.2906 123.148 64.7029 120.358 63.9895C112.521 62.2351 105.048 59.372 97.0289 58.172C90.8628 57.2555 84.8367 55.4109 78.6274 54.8998C72.418 54.3886 66.1018 54.1119 59.7206 54.4433C53.9147 54.7552 48.4052 56.1246 42.8106 57.5257C39.2509 58.656 35.8719 60.011 32.6941 62.1671ZM45.5226 60.1172C50.7444 58.7575 56.0832 57.4516 61.6016 57.1494C67.6098 56.8595 73.6385 57.146 79.6455 57.6351C85.5672 58.156 91.3273 59.8076 97.2057 60.7338C104.82 61.8899 111.974 64.6772 119.374 66.3021C122.132 66.9301 124.548 68.464 127.284 69.2947C134.354 71.3347 140.889 74.5469 147.37 77.8763C151.564 80.0137 155.191 83.2377 158.509 86.6742C161.284 89.4366 163.666 92.4432 165.801 95.8331C167.629 98.6565 168.572 101.712 169.685 104.703C170.385 106.584 170.605 108.74 170.676 110.758C170.746 113.554 170.646 116.414 170.226 119.198L168.972 123.654C168.375 123.877 167.778 124.099 167.482 123.041C167.143 121.61 166.975 120.116 166.807 118.621C167.193 117.31 166.918 116.049 166.388 114.884C166.292 114.628 166.165 114.286 166.069 114.03C166.198 113.592 166.614 113.146 166.54 112.686C166.339 111.885 165.936 111.062 165.649 110.293C166.897 109.732 165.95 109.013 165.866 108.266C165.77 108.01 165.643 107.668 165.548 107.411C166.86 106.242 165.913 105.524 165.051 104.774C164.934 104.72 164.306 104.857 164.337 104.942C164.272 105.55 164.325 106.212 164.377 106.874C164.472 107.13 164.599 107.472 164.695 107.729C163.448 108.29 164.395 109.008 164.479 109.756C164.764 111.304 164.932 112.799 165.217 114.347C165.088 114.784 164.672 115.231 164.746 115.69C164.947 116.491 165.35 117.314 165.637 118.083C165.413 118.264 165.103 118.477 165.05 118.594C165.015 120.066 165.098 121.593 165.064 123.065C163.552 122.655 162.125 122.213 160.613 121.802C160.496 121.749 160.358 121.897 160.187 121.961C159.836 121.8 159.367 121.585 159.016 121.424C158.76 121.519 158.419 121.646 158.163 121.741C157.344 121.365 156.641 121.042 155.822 120.666C155.129 120.632 154.491 120.48 153.798 120.446C152.893 120.102 152.106 119.811 151.286 119.435C150.935 119.274 150.637 118.995 150.371 118.802C149.681 117.21 149.162 115.554 149.474 113.783C150.011 111.053 149.568 108.298 149.327 105.566C149.232 105.309 149.105 104.967 149.009 104.711C149.18 104.647 149.436 104.552 149.436 104.552C149.471 102.3 150.019 99.8584 149.202 97.9241C148.225 95.5624 149.816 93.3158 148.819 91.1569C148.713 90.6122 148.373 89.9602 148.587 89.4913C148.822 88.8197 148.897 88.4998 148.142 88.2946C147.822 88.2188 147.417 88.1748 147.098 88.0991C147.204 88.6437 147.309 89.1883 147.415 89.7329C147.191 89.9136 146.796 90.1578 146.86 90.3287C147.111 93.3497 147.851 96.3829 147.271 99.5186C147.024 100.681 147.533 102.049 147.606 103.287C147.701 103.543 147.828 103.885 147.924 104.142C147.763 104.493 147.315 104.855 147.326 105.143C148.395 109.319 148.111 113.512 148.114 117.696C147.571 117.801 146.835 118.172 146.484 118.01C145.101 117.163 143.524 117.36 142.044 117.035C141.629 116.703 141.15 116.2 140.629 116.102C138.19 115.55 135.752 114.998 133.313 114.446C132.442 113.408 130.781 112.858 131.604 110.897C131.84 110.226 131.287 109.263 131.086 108.462C132.333 107.901 131.387 107.183 131.303 106.435C131.08 105.837 130.889 105.324 130.666 104.726C130.827 104.374 131.04 103.905 131.201 103.554C131.105 103.297 130.978 102.955 130.883 102.699C130.787 102.442 130.66 102.1 130.565 101.844C131.812 101.282 130.865 100.564 130.781 99.817C130.685 99.5606 130.558 99.2187 130.463 98.9622C130.623 98.6106 131.071 98.2492 131.061 97.961C130.629 94.7154 130.518 91.5454 130.374 88.29C130.268 87.7454 130.163 87.2008 130.057 86.6562C130.005 85.9944 129.921 85.2471 129.954 84.5535C129.858 84.2971 129.731 83.9551 129.636 83.6987C131.065 82.5828 128.99 80.9219 130.1 79.7303C129.802 79.4518 129.441 79.0024 129.153 79.0122C128.78 79.0537 128.194 79.564 128.257 79.735C128.596 81.1661 127.784 82.6362 128.751 83.9306C127.29 84.961 128.876 85.8306 128.853 86.8124C127.285 88.0772 129.424 89.13 129.007 90.3559C128.065 93.0422 129.254 95.714 129.26 98.3393C129.356 98.5958 129.483 98.9377 129.578 99.1941C128.331 99.7557 129.278 100.474 129.362 101.221C129.457 101.478 129.585 101.819 129.68 102.076C129.456 102.257 129.147 102.469 129.093 102.586C129.357 104.337 129.62 106.088 129.884 107.839C128.636 108.401 129.583 109.119 129.667 109.866C130.174 112.792 129.672 113.271 126.893 112.845C124.616 111.162 121.91 111.196 119.333 110.793C118.918 110.461 118.44 109.958 117.918 109.86C115.479 109.308 113.041 108.756 110.603 108.203C110.34 105.673 110.025 103.26 109.763 100.73C109.54 100.132 109.349 99.6191 109.126 99.0207C109.255 98.5836 109.671 98.1367 109.597 97.6776C109.396 96.8766 108.993 96.0535 108.706 95.2842C108.932 94.3245 108.577 89.9799 108.185 88.6659C108.409 88.4853 108.803 88.2411 108.74 88.0701C107.756 83.8622 107.72 79.5933 107.141 75.4294C107.046 75.173 106.919 74.831 106.823 74.5746C107.837 73.1265 106.966 72.0885 106.009 71.0822C105.892 71.0285 105.039 71.3459 105.017 71.5486C104.921 72.0712 105.229 72.6378 105.334 73.1824C105.43 73.4388 105.557 73.7808 105.652 74.0372C105.428 74.2179 105.034 74.4621 105.097 74.633C106.081 78.8409 106.117 83.1098 106.696 87.2737C106.918 87.8721 107.109 88.385 107.332 88.9833C107.107 89.9431 107.462 94.2877 107.854 95.6016C107.916 96.5516 107.893 97.5333 107.956 98.4833C108.178 99.0817 108.369 99.5946 108.592 100.193C108.368 100.374 107.973 100.618 108.005 100.703C108.461 102.188 108.458 103.746 108.626 105.241C108.826 106.821 108.995 107.536 107.015 106.911C106.142 106.652 105.108 106.745 104.182 106.603C103.884 106.325 103.555 105.961 103.203 105.799C99.1359 104.783 95.1537 103.735 91.0863 102.718C88.7318 102.914 87.883 100.894 88.1197 99.4432C88.3781 97.7899 87.5916 96.7201 87.3701 95.3427C88.8312 94.3123 87.2454 93.4427 87.2684 92.461C87.0457 91.8626 86.8548 91.3498 86.6321 90.7514C86.8573 89.7917 86.5023 85.4471 86.1103 84.1331C85.8876 83.5348 85.6967 83.0219 85.474 82.4236C85.698 82.2429 86.0925 81.9987 86.0289 81.8278C85.5224 78.902 84.9307 76.008 84.7971 73.0408C84.694 70.9381 84.0157 68.8548 83.4227 66.7399C83.3272 66.4834 82.5712 66.2782 82.1347 66.1487C81.9744 66.5004 81.6435 66.9155 81.7389 67.1719C82.1398 69.5531 83.0306 71.9465 82.9415 74.3153C82.9071 75.788 83.896 76.8797 83.7661 78.0959C83.6681 79.3975 83.6554 80.6675 84.3032 81.8862C84.3986 82.1426 84.5259 82.4845 84.6213 82.7409C84.3973 82.9216 84.0028 83.1658 84.0346 83.2513C84.5958 85.2808 85.1253 87.2248 85.143 89.3592C85.3658 89.9576 85.5566 90.4705 85.7794 91.0688C84.3183 92.0992 85.9041 92.9688 85.8811 93.9505C86.5493 95.7456 85.8111 97.6748 86.8839 99.5139C87.4363 100.476 86.2845 101.294 85.1238 101.045C81.8543 100.607 78.8954 99.1783 75.5941 98.6553C70.6421 97.8708 70.7172 97.5509 68.9992 92.9351C68.4265 91.3964 67.822 89.7723 67.2493 88.2337C67.3779 87.7966 67.7622 87.2642 67.7202 86.8906C67.3919 85.7476 66.9248 84.7536 66.5112 83.6424C66.2885 83.044 66.0976 82.5312 65.8749 81.9328C65.4613 80.8216 65.0159 79.6249 64.6023 78.5137C64.7626 78.162 65.2106 77.8006 65.2004 77.5125C64.8721 76.3695 64.2561 75.2363 64.0131 74.0616C63.3144 71.402 61.2731 69.0475 61.8853 65.9974C61.9603 65.6774 60.7895 65.14 60.2575 64.7541C60.2143 65.1595 60.0857 65.5966 60.0424 66.002C59.7077 68.7543 61.0032 71.1917 61.8941 73.5851C62.5304 75.2947 63.1667 77.0042 63.803 78.7138C63.6745 79.151 63.2901 79.6833 63.3321 80.0569C63.8514 81.7128 64.5411 83.3051 65.1774 85.0147C65.7183 86.4679 66.2274 87.8355 66.7682 89.2887C66.6397 89.7258 66.2553 90.2581 66.2973 90.6318C66.7211 92.0312 67.3154 93.3671 67.8245 94.7348C67.9925 96.2294 67.2047 95.9387 66.1929 95.8287C61.6673 94.8855 57.484 93.0363 52.8834 92.413C51.6374 92.1955 49.7526 91.8265 49.5108 89.8727C48.779 87.9067 48.0155 85.8552 47.2837 83.8892C48.5309 83.3277 47.5841 82.6096 47.5001 81.8623C47.0865 80.751 46.6411 79.5543 46.2274 78.4431C45.5911 76.7335 44.9548 75.024 44.3185 73.3144C44.489 73.2509 44.7448 73.1557 44.7448 73.1557C44.0029 70.9015 43.378 68.7011 42.5508 66.4786C42.519 66.3931 41.5492 66.6568 40.9205 66.7934C41.016 67.0499 41.1433 67.3918 41.2387 67.6482C41.9705 69.6142 42.734 71.6657 43.4658 73.6318C43.3373 74.0689 42.9529 74.6012 42.9949 74.9749C43.3232 76.1178 43.7903 77.1118 44.2039 78.2231C46.2961 82.0184 45.969 86.6169 47.8054 90.5075C43.8754 90.1212 40.1923 88.5724 36.3591 87.6635C34.8471 87.253 33.367 86.928 31.8334 86.7203C29.9817 85.6577 29.7934 83.5868 29.0718 81.9089C28.4355 80.1993 27.7992 78.4898 27.1629 76.7802C26.6856 75.498 26.2084 74.2158 25.763 73.0191C25.7312 72.9336 25.3264 72.8896 25.1241 72.8676C25.1343 73.1558 25.1444 73.444 25.1228 73.6467C24.9943 74.0838 24.6099 74.6162 24.6837 75.0753C25.5529 77.6714 26.5608 80.1185 27.5153 82.6829C28.4698 85.2473 28.4698 85.2473 25.605 84.8537C25.2003 84.8097 24.7638 84.6802 24.3591 84.6362C21.8698 82.6432 18.5557 83.3901 15.8844 81.9513C15.7673 81.8976 15.1806 82.4079 14.9884 82.6741C14.8497 82.823 15.0406 83.3359 15.1895 83.4751C15.6897 83.7756 16.2216 84.1615 16.7434 84.2592C19.0648 84.7577 21.3861 85.2562 23.7927 85.7229C24.144 85.8841 24.4418 86.1626 24.793 86.3238C25.0272 86.4313 25.3683 86.3043 25.6241 86.2091C25.549 86.529 25.5592 86.8172 25.367 87.0834C24.8121 87.6792 24.1083 88.1358 23.4682 88.7634C21.526 90.8487 18.8076 92.1525 17.4929 94.8802C17.3007 95.1464 17.2256 95.4663 17.0335 95.7325C17.3211 95.7227 17.6405 95.7985 17.8111 95.735C18.0987 95.7253 18.3227 95.5446 18.6637 95.4176C21.0004 93.0881 23.8792 91.4327 26.0033 88.793C26.3342 88.3778 27.1118 88.3804 27.6234 88.1899C27.4338 86.898 28.0943 86.8468 29.0527 87.0741C29.8086 87.2793 30.5964 87.57 31.3524 87.7752C35.2378 89.346 39.2734 90.2769 43.4478 91.0589C43.7672 91.1346 44.2356 91.3496 44.3628 91.6915C44.4583 91.948 44.3081 92.5878 44.0841 92.7685C40.7675 95.0735 38.1419 98.1918 35.272 100.914C33.6201 101.432 33.0423 103.01 31.9007 104.116C30.6204 105.371 29.0741 106.433 27.7937 107.688C27.5698 107.869 27.4832 108.68 27.515 108.765C27.9834 108.98 28.6859 109.302 28.9099 109.122C30.2856 108.123 31.3954 106.931 32.7394 105.847C34.222 104.614 35.5876 103.327 36.3894 101.569C39.6309 99.584 42.2667 96.7538 44.9979 94.1801C46.2247 93.0423 47.2594 92.1705 48.7497 92.7837C52.0815 94.1712 55.6705 94.6845 59.1525 95.4322C60.952 95.8329 62.7618 96.5218 64.5715 97.2107C65.3593 97.5014 65.4967 98.1315 64.7178 98.908C63.7684 99.748 63.1804 101.037 62.1674 101.706C59.0111 103.66 56.5141 106.341 54.0171 109.022C51.5201 111.703 48.5128 113.796 46.1328 116.531C45.1618 117.573 44.276 118.584 43.4538 119.766C43.3469 120.001 43.6549 120.567 43.6969 120.941C44.0061 120.729 44.2301 120.548 44.5712 120.421C47.2477 118.743 48.8182 115.921 51.1968 113.965C56.2315 109.755 60.7559 104.957 65.5781 100.437C66.7197 99.3308 68.0306 98.9402 69.2142 98.2077C70.6409 98.6499 72.0141 99.2093 73.4942 99.5343C77.274 100.56 81.2893 100.915 84.6516 103.167C83.6806 104.21 82.6459 105.081 81.7919 106.178C77.4151 111.894 73.0383 117.611 68.2467 122.995C66.4751 125.017 65.1184 127.371 63.3786 129.479C62.909 130.043 62.5997 130.255 63.3875 130.546C63.8241 130.675 64.3993 130.656 64.7086 130.443C65.2418 130.05 65.7114 129.486 66.1811 128.922C70.2053 123.823 74.0806 118.585 78.222 113.541C80.7839 110.251 83.6436 107.24 85.9078 103.673C87.5495 102.867 89.1989 103.908 90.8075 103.795C91.1053 104.074 91.4349 104.438 91.7862 104.599C95.8536 105.615 99.8358 106.664 103.903 107.68C106.384 108.606 106.352 108.52 105.231 110.203C102.689 114.068 100.03 117.88 97.4888 121.746C96.8703 122.171 95.7096 121.922 96.1016 123.236C94.2346 125.001 92.9848 127.121 91.6179 129.186C90.2829 131.338 88.2135 133.081 87.0273 135.372C86.5259 135.85 86.0245 136.329 85.5548 136.893C85.3092 137.277 85.3296 137.853 85.201 138.29C85.691 138.302 86.3299 138.454 86.7562 138.295C87.9818 137.936 88.2071 136.977 88.1664 135.824C88.4222 135.729 88.7951 135.687 89.0191 135.506C91.7413 131.866 94.5489 128.193 97.2394 124.466C97.3781 124.318 97.2508 123.976 97.2407 123.687C97.7421 123.209 98.1264 122.676 98.6279 122.198C101.596 118.174 104.649 114.118 107.617 110.093C108.087 109.529 109.366 109.053 110.26 109.109C113.199 109.962 116.052 110.846 118.991 111.699C121.493 112.422 124.048 113.028 126.55 113.751C127.56 115.419 126.428 116.814 125.659 117.878C123.161 121.339 120.812 124.938 118.431 128.452C117.629 130.21 115.592 131.26 115.44 133.458C113.379 136.269 111.202 139.026 109.173 141.922C109.066 142.156 109.235 142.872 109.416 143.097C109.682 143.29 110.46 143.292 110.567 143.058C112.829 140.269 114.943 137.341 116.525 134.027C117.944 132.623 119.48 131.273 119.516 129.021C119.942 128.863 120.518 128.843 120.71 128.577C122.782 125.275 124.769 122.006 126.723 118.65C128.08 116.296 129.777 114.594 132.854 115.298C133.269 115.63 133.747 116.133 134.269 116.231C136.708 116.783 139.146 117.335 141.584 117.888C141.85 118.081 142.212 118.53 142.585 118.489C144.076 118.323 145.13 118.806 145.415 120.355C144.625 121.622 143.749 122.921 142.959 124.189C140.001 128.501 137.16 132.867 134.203 137.18C134.042 137.531 133.828 138 133.668 138.352C132.547 140.034 131.426 141.717 130.304 143.399C130.112 143.666 130.037 143.986 130.015 144.188C130.026 144.476 130.185 144.904 130.387 144.926C130.824 145.055 131.516 145.09 131.623 144.855C132.734 142.884 133.813 140.828 134.807 138.804C135.063 138.709 135.404 138.582 135.66 138.486C135.82 138.135 136.034 137.666 136.194 137.314C138.213 134.13 140.263 131.031 142.282 127.847C142.965 126.814 144.415 126.274 144.098 124.641C144.888 123.373 146.796 122.76 146.554 120.807C148.953 119.427 151.188 120.736 153.477 121.149C154.17 121.184 154.809 121.335 155.501 121.369C156.321 121.746 157.023 122.068 157.843 122.444C158.535 122.479 159.174 122.63 159.866 122.664C160.218 122.825 160.686 123.04 161.037 123.202C161.708 123.439 162.432 123.558 163.103 123.795C162.921 124.35 162.739 124.904 162.525 125.373C161.596 126.789 160.55 128.152 159.535 129.6C157.336 132.56 155.137 135.519 152.969 138.564C152.724 138.948 152.201 139.629 153.159 139.856C153.596 139.986 154.288 140.02 154.48 139.754C155.857 137.976 157.319 136.167 158.431 134.196C159.189 132.843 161.065 132.145 160.738 130.223C162.062 128.562 163.502 126.956 164.709 125.241C165.285 124.443 165.743 124.37 166.531 124.66C167.117 124.929 167.841 125.049 168.511 125.286L167.108 130.382C165.482 134.101 163.676 137.596 160.551 140.414C157.841 142.785 155.217 145.124 151.86 146.276C149.984 146.975 148.054 147.79 146.147 148.403C144.463 148.835 143.012 150.153 140.893 149.677C139.296 149.298 137.737 151.63 135.683 150.546C130.3 152.257 124.752 151.695 119.223 151.709C113.726 151.808 108.253 150.926 102.843 150.215C94.3972 149.173 86.0383 147.321 77.7762 144.946C72.655 143.446 67.7692 141.275 62.7231 139.455C57.4428 137.527 52.4832 134.896 47.6089 132.234C40.3611 128.411 33.9889 123.289 28.8118 116.944C27.0364 114.782 25.5385 112.323 23.9872 109.981C23.3177 108.965 22.4778 108.012 21.9789 106.933C21.363 105.8 21.3121 104.359 20.5256 103.289C16.5511 97.5665 15.4121 90.594 12.5996 84.3418C12.0371 83.0913 12.0905 82.9741 13.3391 81.6335C17.1915 77.3773 23.2291 72.2105 27.8998 69.1095C30.5445 67.3466 33.3164 65.9256 35.8757 64.1944C38.9467 62.2728 42.1551 60.9813 45.5226 60.1172Z" fill="#0A483A"/>
<path d="M196.496 44.9285C195.186 44.1072 193.907 43.1944 192.628 42.3426C190.283 40.852 186.689 39.2106 183.977 38.3301C183.094 38.0569 183.063 38.0264 182.605 38.5451C180.286 41.1081 177.388 43.0318 175.647 46.0513C175.342 46.6003 174.701 46.9363 174.304 47.4549C173.938 47.943 173.663 48.4615 173.358 49.0105C172.625 50.2305 171.831 51.3897 171.189 52.64C169.386 56.3301 168.406 60.2325 168.188 64.2864C168.032 67.0601 167.846 69.8034 168.086 72.6071C168.296 75.2584 168.324 77.91 168.686 80.5307C169.291 84.7359 170.2 88.8799 171.505 92.9318C172.325 95.5215 173.053 98.1417 174.209 100.64C175.394 103.107 176.275 105.757 178.162 107.828C178.069 108.955 179.471 109.197 179.622 110.02C179.834 111.087 180.687 111.451 181.265 112.152C181.904 112.913 182.696 113.582 183.396 114.282C184.675 115.561 186.259 116.291 187.873 116.99C189.792 117.81 191.712 117.899 193.754 117.866C195.736 117.833 195.705 117.864 196.312 119.814C195.945 120.789 196.615 121.642 196.614 122.556C196.735 122.861 196.796 123.166 196.917 123.47C197.069 124.293 197.098 125.116 197.31 125.939C197.523 126.7 198.194 126.334 198.468 126.669C198.773 126.363 199.474 126.271 199.048 125.601C199.111 124.016 198.29 122.585 198.139 121.031C198.049 120.513 197.927 120.025 197.836 119.507C197.656 117.374 197.656 117.435 199.668 116.884C201.01 116.516 202.291 115.966 203.571 115.355C204.486 114.927 205.401 114.377 206.073 113.645C207.202 112.516 208.361 111.478 209.247 110.045C210.316 108.367 211.202 106.69 211.874 104.86C212.7 102.634 213.434 100.378 213.529 98.0311C213.655 94.4345 213.781 90.777 213.237 87.1812C213.026 85.749 213.21 84.3468 212.968 83.006C212.18 79.2887 211.941 75.5097 210.879 71.8231C210.059 68.9896 209.667 66.0337 208.664 63.2614C207.662 60.4891 206.538 57.717 205.139 55.0366C203.862 52.6 202.188 50.499 200.484 48.3676C199.297 47.0585 198.049 45.8714 196.496 44.9285ZM199.903 50.0446C201.516 52.0238 203.129 54.0638 204.345 56.3787C205.652 58.9067 206.716 61.557 207.688 64.2379C208.629 66.8884 209.053 69.6919 209.811 72.4035C210.813 75.9073 211.022 79.5339 211.779 83.038C212.052 84.3482 211.867 85.6895 212.049 87.0303C212.563 90.4737 212.467 93.9179 212.31 97.3621C212.216 99.5871 211.543 101.782 210.717 103.886C210.075 105.624 209.25 107.241 208.212 108.827C207.357 110.169 206.228 111.176 205.16 112.244C204.489 112.916 203.604 113.435 202.75 113.863C201.561 114.443 200.311 114.963 199.03 115.33L196.866 115.668C196.653 115.455 196.44 115.242 196.836 114.906C197.385 114.479 197.996 114.112 198.606 113.746C199.246 113.653 199.734 113.287 200.131 112.829C200.222 112.738 200.344 112.616 200.436 112.524C200.649 112.494 200.923 112.585 201.106 112.463C201.411 112.218 201.686 111.883 201.961 111.608C202.448 112.034 202.57 111.485 202.875 111.302C202.967 111.211 203.089 111.089 203.181 110.997C203.942 111.331 204.065 110.783 204.218 110.264C204.218 110.203 204.035 109.96 204.005 109.99C203.73 110.082 203.456 110.235 203.181 110.387C203.09 110.479 202.968 110.601 202.876 110.693C202.389 110.267 202.267 110.815 201.961 110.999C201.351 111.426 200.741 111.792 200.131 112.22C199.918 112.251 199.644 112.16 199.461 112.282C199.156 112.526 198.881 112.861 198.606 113.136C198.484 113.075 198.332 112.984 198.271 112.984C197.631 113.259 196.99 113.595 196.35 113.87C196.229 113.139 196.138 112.438 196.017 111.707C196.017 111.646 195.926 111.616 195.865 111.555C195.865 111.372 195.866 111.128 195.866 110.945C195.775 110.854 195.653 110.732 195.562 110.641C195.562 110.214 195.562 109.848 195.563 109.422C195.441 109.117 195.381 108.812 195.259 108.508C195.229 108.05 195.199 107.654 195.2 107.228C195.2 107.045 195.261 106.862 195.292 106.709C195.841 106.099 196.452 105.55 197.275 105.335C198.555 105.029 199.653 104.296 200.782 103.655C200.873 103.563 200.995 103.441 201.087 103.35C201.148 103.41 201.239 103.502 201.239 103.502C202.215 103.074 203.374 102.829 204.045 102.096C204.869 101.211 206.149 101.454 206.881 100.599C207.095 100.447 207.308 100.172 207.552 100.172C207.888 100.141 208.04 100.11 207.98 99.7447C207.949 99.5923 207.888 99.4095 207.858 99.2572C207.645 99.4098 207.431 99.5625 207.218 99.7152C207.096 99.6543 206.913 99.5327 206.852 99.5937C205.602 100.296 204.442 101.212 202.979 101.58C202.43 101.702 201.942 102.19 201.423 102.465C201.332 102.557 201.21 102.679 201.118 102.77C200.935 102.771 200.692 102.649 200.57 102.71C198.983 103.992 197.123 104.695 195.324 105.521C195.172 105.307 194.867 105.064 194.868 104.881C194.96 104.119 194.565 103.479 194.413 102.779C194.474 102.535 194.597 102.23 194.536 101.986C194.293 100.828 194.051 99.6703 193.809 98.5125C194.084 97.933 193.993 97.1102 194.999 97.0785C195.334 97.0476 195.64 96.6206 195.945 96.3764C196.432 96.8025 196.554 96.2537 196.859 96.0705C197.073 95.8569 197.256 95.6738 197.47 95.4602C197.653 95.4599 197.896 95.4596 198.079 95.4594C198.171 95.3679 198.293 95.2458 198.385 95.1543C198.476 95.0627 198.598 94.9406 198.69 94.8491C199.177 95.2752 199.299 94.7264 199.604 94.5432C199.696 94.4516 199.818 94.3296 199.91 94.238C200.092 94.2378 200.336 94.3594 200.458 94.2983C201.77 93.4738 203.112 92.8016 204.484 92.099C204.697 91.9463 204.911 91.7936 205.125 91.641C205.399 91.4883 205.704 91.305 206.009 91.1827C206.1 91.0912 206.223 90.9691 206.314 90.8776C207.076 91.2729 207.382 90.0534 208.113 90.2963C208.174 90.1133 208.296 89.8694 208.236 89.7475C208.144 89.5952 207.809 89.4433 207.748 89.5043C207.199 89.9317 206.407 89.8717 206.04 90.5427C205.309 90.1169 205.247 90.9703 204.82 91.1537C203.967 90.7281 203.936 91.8558 203.326 91.9175C201.985 92.0411 201.069 93.0784 199.941 93.598C199.849 93.6895 199.727 93.8116 199.636 93.9031C199.149 93.477 199.026 94.0258 198.721 94.209C198.629 94.3006 198.507 94.4226 198.416 94.5142C198.294 94.4534 198.142 94.3621 198.081 94.3622C197.379 94.8202 196.678 95.2783 195.976 95.7363C195.489 95.3102 195.366 95.859 195.061 96.0422C193.902 96.8361 193.598 96.7145 193.233 95.4349C193.509 94.124 192.962 92.9665 192.628 91.7782C192.69 91.5343 192.812 91.2294 192.751 90.9857C192.509 89.8278 192.266 88.6699 192.024 87.512C193.061 86.9012 194.037 86.2904 195.074 85.6796C195.288 85.466 195.471 85.2829 195.684 85.0693C195.898 85.0385 196.172 85.1296 196.355 85.0075C196.66 84.7633 196.935 84.4277 197.209 84.1531C197.667 84.0611 199.466 83.0531 199.954 82.6258C200.076 82.6866 200.259 82.8083 200.32 82.7472C201.937 81.4957 203.766 80.64 205.444 79.5712C205.536 79.4797 205.658 79.3576 205.749 79.2661C206.572 79.4175 206.847 78.838 207.092 78.2282C207.092 78.1672 206.787 77.8628 206.696 77.8934C206.452 77.9546 206.269 78.1987 206.055 78.3513C205.964 78.4429 205.842 78.565 205.75 78.6565C205.628 78.5957 205.445 78.474 205.384 78.535C203.768 79.7866 201.938 80.6423 200.26 81.7111C200.047 81.9247 199.863 82.1078 199.65 82.3214C199.193 82.4134 197.393 83.4214 196.905 83.8487C196.508 84.0625 196.082 84.2459 195.685 84.4597C195.471 84.6733 195.288 84.8564 195.075 85.07C194.953 85.0092 194.77 84.8875 194.74 84.918C194.19 85.4064 193.52 85.712 192.91 86.0785C192.269 86.4755 191.994 86.6892 191.874 85.714C191.813 85.2874 191.57 84.861 191.449 84.4344C191.51 84.2515 191.602 84.038 191.602 83.8552C191.238 81.905 190.905 79.9853 190.542 78.0351C189.995 77.0605 190.697 76.2977 191.367 76.114C192.13 75.8997 192.435 75.3507 192.984 74.9843C193.715 75.4101 193.777 74.5566 194.204 74.3732C194.418 74.1596 194.601 73.9765 194.814 73.7629C195.272 73.6709 197.071 72.6629 197.559 72.2357C197.773 72.022 197.956 71.8389 198.17 71.6253C198.291 71.6861 198.474 71.8078 198.535 71.7468C199.694 70.9529 200.823 70.1287 202.073 69.4871C202.958 69.0288 203.721 68.3269 204.514 67.6554C204.605 67.5638 204.545 67.1982 204.515 66.9849C204.332 66.9851 204.088 66.9244 203.997 67.016C203.051 67.6572 202.197 68.5116 201.16 68.9396C200.519 69.2147 200.244 69.8551 199.695 70.0386C199.116 70.2527 198.567 70.4972 198.17 71.0158C198.079 71.1073 197.957 71.2294 197.865 71.3209C197.743 71.2601 197.561 71.1384 197.53 71.169C196.767 71.8099 196.035 72.4204 195.12 72.8482C194.907 73.0618 194.724 73.2449 194.51 73.4585C193.779 73.0327 193.717 73.8862 193.29 74.0696C192.649 74.7104 191.674 74.7726 191.094 75.5962C190.788 76.0233 190.21 75.6887 190.089 75.1403C189.633 73.6474 189.666 72.0929 189.241 70.5696C188.604 68.2845 188.756 68.2538 190.404 66.606C190.953 66.0567 191.533 65.4769 192.082 64.9276C192.296 64.8969 192.6 64.9574 192.753 64.8658C193.18 64.4996 193.516 64.1029 193.912 63.7062C194.126 63.4926 194.309 63.3095 194.523 63.0959C194.919 62.6992 195.347 62.272 195.743 61.8753C195.926 61.8751 196.17 61.9967 196.292 61.9356C196.719 61.5693 197.085 61.0812 197.543 60.7454C198.55 59.9212 199.161 58.5795 200.594 58.2424C200.746 58.2118 200.747 57.6022 200.808 57.2973C200.625 57.3585 200.412 57.3893 200.229 57.4504C198.979 57.8482 198.185 58.8854 197.331 59.7399C196.72 60.3502 196.11 60.9605 195.5 61.5708C195.286 61.6015 194.982 61.541 194.829 61.6326C194.219 62.1819 193.67 62.7922 193.059 63.4025C192.541 63.9213 192.052 64.4095 191.534 64.9283C191.32 64.959 191.015 64.8984 190.863 64.9901C190.344 65.4479 189.886 65.9666 189.398 66.4548C188.788 66.8213 188.758 66.4251 188.606 65.9681C188.121 63.8353 188.093 61.6713 187.456 59.5691C187.304 58.9902 187.092 58.1066 187.885 57.618C188.587 56.9161 189.319 56.1837 190.021 55.4819C190.508 55.908 190.631 55.3592 190.936 55.176C191.333 54.7793 191.76 54.3521 192.157 53.9554C192.767 53.345 193.377 52.7347 193.988 52.1244C194.048 52.1853 194.14 52.2766 194.14 52.2766C194.964 51.5137 195.787 50.8117 196.581 50.0182C196.611 49.9877 196.307 49.6224 196.124 49.3788C196.033 49.4703 195.911 49.5924 195.819 49.6839C195.117 50.3858 194.385 51.1182 193.683 51.82C193.47 51.8508 193.165 51.7902 193.012 51.8818C192.585 52.2481 192.25 52.6447 191.853 53.0414C190.632 54.6887 188.589 55.4532 187.276 57.0092C186.669 55.2422 186.61 53.3526 186.247 51.5244C186.126 50.793 185.974 50.0922 185.762 49.3915C185.854 48.3856 186.708 47.8969 187.288 47.2561C187.899 46.6458 188.509 46.0355 189.119 45.4252C189.577 44.9675 190.035 44.5097 190.462 44.0825C190.492 44.052 190.432 43.8692 190.401 43.7778C190.279 43.8389 190.157 43.9 190.066 43.9306C189.852 43.9613 189.548 43.9008 189.365 44.0229C188.419 44.9079 187.564 45.8233 186.649 46.7388C185.733 47.6543 185.733 47.6543 185.339 46.3442C185.278 46.1614 185.248 45.9481 185.187 45.7653C185.555 44.3019 184.581 43.023 184.674 41.5904C184.674 41.5294 184.339 41.3775 184.187 41.3472C184.095 41.3168 183.912 41.4999 183.882 41.5914C183.851 41.8657 183.79 42.1706 183.85 42.4143C184.093 43.5112 184.335 44.6081 184.608 45.7355C184.608 45.9184 184.547 46.1013 184.546 46.2842C184.546 46.4061 184.668 46.5279 184.759 46.6192C184.607 46.6499 184.485 46.711 184.333 46.6807C183.967 46.5592 183.632 46.3463 183.236 46.1944C181.956 45.7692 180.86 44.8562 179.428 44.8275C179.276 44.7972 179.123 44.8279 178.971 44.7976C179.032 44.9194 179.062 45.0718 179.123 45.1327C179.184 45.2545 179.305 45.3153 179.427 45.4371C180.889 45.9839 182.168 46.8967 183.722 47.291C183.966 47.3516 184.118 47.6867 184.301 47.8694C184.819 47.5335 184.971 47.8076 185.062 48.2646C185.123 48.6303 185.153 49.0265 185.213 49.3921C185.302 51.3731 185.696 53.2928 186.181 55.2428C186.212 55.3951 186.211 55.639 186.089 55.761C185.998 55.8526 185.693 55.9139 185.571 55.8531C183.926 54.8798 182.068 54.364 180.331 53.6651C179.784 53.0562 178.991 53.1181 178.29 52.8447C177.498 52.5409 176.737 52.0846 175.945 51.7808C175.823 51.72 175.457 51.8424 175.427 51.8729C175.426 52.1167 175.426 52.4825 175.548 52.5433C176.248 52.9386 176.979 53.1815 177.71 53.5464C178.533 53.9416 179.355 54.2758 180.27 54.2747C181.762 55.2787 183.498 55.8556 185.143 56.5241C185.875 56.828 186.453 57.1016 186.483 57.8635C186.542 59.5702 187.027 61.2155 187.391 62.8608C187.573 63.714 187.633 64.6283 187.693 65.5426C187.723 65.9387 187.478 66.1219 186.991 65.9396C186.443 65.6965 185.772 65.6973 185.285 65.3931C183.823 64.4196 182.178 63.873 180.533 63.3264C178.888 62.7798 177.395 61.8978 175.75 61.4122C175.11 61.1996 174.501 61.0175 173.831 60.8964C173.709 60.8965 173.526 61.1406 173.373 61.2322C173.525 61.3235 173.647 61.3843 173.769 61.506C175.018 62.3274 176.541 62.4475 177.851 63.0859C180.653 64.4235 183.609 65.4257 186.503 66.6108C187.203 66.8842 187.629 67.3713 188.177 67.7364C188.268 68.4373 188.298 69.1382 188.449 69.8391C188.752 71.6674 189.39 73.4648 189.082 75.3548C188.443 75.1423 187.864 74.8687 187.224 74.7171C183.903 73.9592 180.582 73.2013 177.322 72.1995C176.103 71.8353 174.823 71.7149 173.574 71.3812C173.239 71.2902 173.087 71.1989 173.117 71.5951C173.147 71.8084 173.268 72.0521 173.421 72.1434C173.695 72.2954 174.03 72.3864 174.365 72.4775C177.351 73.2053 180.368 73.8416 183.353 74.6304C185.273 75.0852 187.131 75.723 189.112 75.9948C189.782 76.5426 189.659 77.4571 190.024 78.1272C189.963 78.3101 189.871 78.5236 189.871 78.7065C190.234 80.6566 190.567 82.5763 190.93 84.5265C191.02 85.776 191.051 85.7455 190.106 85.5943C187.943 85.2617 185.779 84.8681 183.616 84.5355C183.311 84.353 183.19 83.8045 182.702 84.2318C181.575 83.776 180.416 83.6555 179.259 83.4741C178.07 83.3232 176.913 82.776 175.694 82.7165C175.389 82.595 175.084 82.4734 174.749 82.3824C174.536 82.3522 174.292 82.4744 174.078 82.5051C174.17 82.7184 174.23 83.0231 174.382 83.1753C174.778 83.632 175.235 83.54 175.723 83.2956C175.815 83.3869 175.906 83.5392 176.028 83.6C178.13 84.0546 180.263 84.5396 182.396 84.9637C182.487 84.994 182.609 84.872 182.731 84.8109C183.036 84.9324 183.341 84.993 183.645 85.1145C185.961 85.5993 188.307 86.1146 190.623 86.5994C190.958 86.6904 191.415 87.147 191.567 87.5431C191.778 88.9753 191.959 90.3771 192.171 91.8093C192.352 93.0282 192.595 94.247 192.776 95.4659C192.257 96.2285 191.434 96.0162 190.825 95.895C188.844 95.5012 186.833 95.1989 184.853 94.8661C183.938 94.8672 183.086 94.1977 182.11 94.5647C180.495 94.2314 178.88 93.8371 177.235 93.5344C177.113 93.5345 176.838 93.7482 176.777 93.8702C176.746 94.0226 176.898 94.3577 177.02 94.3576C178.666 94.7822 180.341 95.1154 182.079 95.1438C182.962 95.478 183.846 95.8731 184.821 95.4452C184.974 95.5974 185.095 95.8411 185.248 95.8714C187.076 96.113 188.874 96.3241 190.702 96.5047C191.982 96.6251 193.049 97.02 193.352 98.4826C193.29 98.7265 193.168 99.0314 193.229 99.2751C193.471 100.433 193.713 101.591 193.956 102.749C193.925 102.901 193.803 103.145 193.894 103.297C194.259 103.907 194.259 104.455 193.648 104.883C192.948 104.792 192.216 104.671 191.515 104.58C189.078 104.157 186.64 103.794 184.202 103.37C184.019 103.371 183.775 103.371 183.592 103.371C182.648 103.22 181.703 103.069 180.759 102.917C180.606 102.887 180.454 102.918 180.362 102.948C180.24 103.009 180.088 103.162 180.118 103.253C180.148 103.467 180.27 103.771 180.392 103.771C181.458 103.861 182.556 103.921 183.622 103.95C183.714 104.041 183.835 104.163 183.927 104.255C184.11 104.254 184.353 104.254 184.536 104.254C186.304 104.495 188.041 104.768 189.808 105.009C190.387 105.1 190.905 105.617 191.545 105.16C192.246 105.25 192.885 105.95 193.678 105.462C194.744 106.222 194.621 107.442 194.894 108.508C195.015 108.813 195.076 109.117 195.197 109.422C195.197 109.849 195.196 110.214 195.196 110.641C195.317 110.946 195.378 111.25 195.499 111.555C195.499 111.738 195.499 111.982 195.499 112.165C195.529 112.5 195.62 112.835 195.65 113.17C195.375 113.201 195.101 113.232 194.857 113.232C194.065 113.111 193.273 112.929 192.45 112.778C190.744 112.414 189.037 112.051 187.301 111.718C187.087 111.687 186.691 111.596 186.782 112.053C186.812 112.267 186.934 112.571 187.086 112.602C188.122 112.844 189.189 113.117 190.255 113.207C190.987 113.267 191.656 113.937 192.419 113.418C193.394 113.661 194.369 113.964 195.344 114.146C195.801 114.237 195.923 114.42 195.953 114.816C195.952 115.12 196.043 115.456 196.073 115.791L193.604 116.19C191.684 116.223 189.825 116.134 187.997 115.344C186.444 114.644 184.921 113.976 183.764 112.758C183.094 112.088 182.363 111.419 181.724 110.719C181.207 110.079 180.354 109.714 180.142 108.709C179.99 107.947 178.68 107.735 178.742 106.638C176.947 104.659 176.096 102.161 175.002 99.7852C173.877 97.4397 173.179 94.9109 172.42 92.4431C171.206 88.6043 170.357 84.6432 169.753 80.6208C169.39 78.122 169.363 75.5924 169.153 73.0629C168.942 70.4116 169.098 67.7598 169.284 65.1385C169.502 61.2674 170.452 57.5175 172.163 54.0408C172.743 52.8515 173.507 51.7229 174.209 50.5943C174.514 50.1063 174.759 49.5574 175.125 49.1302C175.492 48.6421 176.101 48.3366 176.407 47.7876C178.087 44.9511 180.862 43.0885 182.999 40.6476C183.426 40.1594 183.487 40.1594 184.31 40.4327C186.899 41.2524 190.311 42.8331 192.565 44.2323C193.844 45.0232 195.001 45.9361 196.25 46.6965C197.681 47.6396 198.868 48.7658 199.903 50.0446Z" fill="#DCBF6F"/>
<path d="M516.655 62.1671C519.385 63.9617 522.264 65.6171 525.026 67.3263C529.952 70.5225 536.267 75.9873 540.344 80.4242C541.646 81.882 541.731 81.9137 541.137 83.2496C538.25 89.961 537.101 97.2216 532.829 103.222C532.043 104.292 531.96 105.819 531.312 107.037C530.696 108.171 529.941 109.155 529.155 110.225C527.455 112.706 525.925 115.251 524.086 117.583C518.579 124.293 511.941 129.607 504.342 133.591C499.148 136.33 494.04 139.1 488.44 141.103C483.16 143.03 478.04 145.31 472.684 146.917C464.071 149.453 455.307 151.349 446.372 152.403C440.674 153.104 434.998 154.009 429.182 153.985C423.398 153.876 417.529 154.514 411.892 152.707C409.806 153.877 408.108 151.396 406.394 151.829C404.157 152.359 402.707 151.04 400.852 150.545C398.828 149.986 396.845 149.053 394.883 148.323C391.302 146.99 388.507 144.588 385.744 142.099C382.48 139.132 380.621 135.521 378.888 131.567C377.21 127.731 377.178 127.816 372.897 128.364C371.344 129.927 369.117 129.39 367.361 130.196C366.668 130.23 366.029 130.382 365.337 130.416C363.623 130.849 362.015 131.515 360.248 131.831C358.597 132.092 358.711 130.48 357.827 130.248C358.145 129.394 357.706 127.965 359.368 128.194C362.359 126.68 365.832 126.999 368.951 125.922C370.027 125.641 371.07 125.446 372.146 125.165C376.404 123.635 376.287 123.689 375.577 119.337C375.103 116.436 375.034 113.491 375.083 110.492C375.101 108.357 375.353 106.116 376.17 104.181C377.347 101.019 378.322 97.8778 380.298 94.9153C382.582 91.3861 385.027 88.2086 387.952 85.307C391.504 81.763 395.194 78.368 399.622 76.1231C406.423 72.718 413.341 69.2591 420.73 67.1433C423.669 66.2906 426.202 64.7029 428.991 63.9895C436.828 62.2351 444.302 59.372 452.321 58.172C458.487 57.2555 464.513 55.4109 470.722 54.8998C476.931 54.3886 483.248 54.1119 489.629 54.4433C495.435 54.7552 500.944 56.1246 506.539 57.5257C510.099 58.656 513.478 60.011 516.655 62.1671ZM503.827 60.1172C498.605 58.7575 493.266 57.4516 487.748 57.1494C481.74 56.8595 475.711 57.146 469.704 57.6351C463.782 58.156 458.022 59.8076 452.144 60.7338C444.529 61.8899 437.376 64.6772 429.975 66.3021C427.217 66.9301 424.802 68.464 422.066 69.2947C414.996 71.3347 408.461 74.5469 401.979 77.8763C397.786 80.0137 394.159 83.2377 390.841 86.6742C388.065 89.4366 385.684 92.4432 383.548 95.8331C381.721 98.6565 380.778 101.712 379.664 104.703C378.964 106.584 378.744 108.74 378.673 110.758C378.603 113.554 378.704 116.414 379.124 119.198L380.377 123.654C380.974 123.877 381.571 124.099 381.868 123.041C382.206 121.61 382.374 120.116 382.542 118.621C382.156 117.31 382.431 116.049 382.962 114.884C383.057 114.628 383.185 114.286 383.28 114.03C383.152 113.592 382.735 113.146 382.809 112.686C383.01 111.885 383.414 111.062 383.7 110.293C382.453 109.732 383.4 109.013 383.484 108.266C383.579 108.01 383.706 107.668 383.802 107.411C382.49 106.242 383.437 105.524 384.298 104.774C384.415 104.72 385.044 104.857 385.012 104.942C385.077 105.55 385.025 106.212 384.973 106.874C384.877 107.13 384.75 107.472 384.655 107.729C385.902 108.29 384.955 109.008 384.871 109.756C384.586 111.304 384.418 112.799 384.133 114.347C384.261 114.784 384.678 115.231 384.604 115.69C384.403 116.491 383.999 117.314 383.713 118.083C383.937 118.264 384.246 118.477 384.3 118.594C384.334 120.066 384.251 121.593 384.286 123.065C385.798 122.655 387.224 122.213 388.736 121.802C388.853 121.749 388.992 121.897 389.163 121.961C389.514 121.8 389.982 121.585 390.333 121.424C390.589 121.519 390.93 121.646 391.186 121.741C392.006 121.365 392.708 121.042 393.528 120.666C394.22 120.632 394.859 120.48 395.551 120.446C396.456 120.102 397.244 119.811 398.064 119.435C398.415 119.274 398.713 118.995 398.979 118.802C399.668 117.21 400.188 115.554 399.876 113.783C399.339 111.053 399.782 108.298 400.022 105.566C400.117 105.309 400.245 104.967 400.34 104.711C400.17 104.647 399.914 104.552 399.914 104.552C399.878 102.3 399.331 99.8584 400.148 97.9241C401.124 95.5624 399.533 93.3158 400.531 91.1569C400.637 90.6122 400.976 89.9602 400.763 89.4913C400.527 88.8197 400.452 88.4998 401.208 88.2946C401.527 88.2188 401.932 88.1748 402.252 88.0991C402.146 88.6437 402.04 89.1883 401.935 89.7329C402.159 89.9136 402.553 90.1578 402.49 90.3287C402.239 93.3497 401.498 96.3829 402.079 99.5186C402.326 100.681 401.816 102.049 401.744 103.287C401.648 103.543 401.521 103.885 401.426 104.142C401.586 104.493 402.034 104.855 402.024 105.143C400.955 109.319 401.239 113.512 401.235 117.696C401.778 117.801 402.514 118.172 402.865 118.01C404.249 117.163 405.826 117.36 407.306 117.035C407.721 116.703 408.199 116.2 408.721 116.102C411.159 115.55 413.598 114.998 416.036 114.446C416.908 113.408 418.569 112.858 417.745 110.897C417.51 110.226 418.062 109.263 418.263 108.462C417.016 107.901 417.963 107.183 418.047 106.435C418.27 105.837 418.46 105.324 418.683 104.726C418.523 104.374 418.309 103.905 418.149 103.554C418.244 103.297 418.371 102.955 418.467 102.699C418.562 102.442 418.69 102.1 418.785 101.844C417.538 101.282 418.485 100.564 418.569 99.817C418.664 99.5606 418.791 99.2187 418.887 98.9622C418.726 98.6106 418.278 98.2492 418.289 97.961C418.72 94.7154 418.832 91.5454 418.976 88.29C419.081 87.7454 419.187 87.2008 419.293 86.6562C419.345 85.9944 419.429 85.2471 419.396 84.5535C419.491 84.2971 419.618 83.9551 419.714 83.6987C418.285 82.5828 420.359 80.9219 419.249 79.7303C419.547 79.4518 419.908 79.0024 420.196 79.0122C420.569 79.0537 421.156 79.564 421.092 79.735C420.754 81.1661 421.566 82.6362 420.598 83.9306C422.059 84.961 420.474 85.8306 420.497 86.8124C422.064 88.0772 419.925 89.13 420.343 90.3559C421.284 93.0422 420.096 95.714 420.089 98.3393C419.994 98.5958 419.867 98.9377 419.771 99.1941C421.018 99.7557 420.072 100.474 419.988 101.221C419.892 101.478 419.765 101.819 419.669 102.076C419.893 102.257 420.203 102.469 420.256 102.586C419.993 104.337 419.729 106.088 419.466 107.839C420.713 108.401 419.766 109.119 419.682 109.866C419.176 112.792 419.677 113.271 422.457 112.845C424.734 111.162 427.439 111.196 430.016 110.793C430.431 110.461 430.91 109.958 431.432 109.86C433.87 109.308 436.308 108.756 438.747 108.203C439.009 105.673 439.325 103.26 439.587 100.73C439.809 100.132 440 99.6191 440.223 99.0207C440.095 98.5836 439.678 98.1367 439.752 97.6776C439.953 96.8766 440.357 96.0535 440.643 95.2842C440.418 94.3245 440.773 89.9799 441.165 88.6659C440.941 88.4853 440.546 88.2411 440.61 88.0701C441.594 83.8622 441.629 79.5933 442.208 75.4294C442.304 75.173 442.431 74.831 442.526 74.5746C441.512 73.1265 442.384 72.0885 443.341 71.0822C443.458 71.0285 444.311 71.3459 444.332 71.5486C444.429 72.0712 444.121 72.6378 444.015 73.1824C443.92 73.4388 443.793 73.7808 443.697 74.0372C443.921 74.2179 444.316 74.4621 444.252 74.633C443.268 78.8409 443.233 83.1098 442.654 87.2737C442.431 87.8721 442.24 88.385 442.017 88.9833C442.243 89.9431 441.888 94.2877 441.496 95.6016C441.433 96.5516 441.456 97.5333 441.394 98.4833C441.171 99.0817 440.98 99.5946 440.758 100.193C440.982 100.374 441.376 100.618 441.344 100.703C440.889 102.188 440.891 103.746 440.723 105.241C440.524 106.821 440.354 107.536 442.335 106.911C443.208 106.652 444.241 106.745 445.167 106.603C445.465 106.325 445.795 105.961 446.146 105.799C450.214 104.783 454.196 103.735 458.263 102.718C460.618 102.914 461.467 100.894 461.23 99.4432C460.971 97.7899 461.758 96.7201 461.979 95.3427C460.518 94.3123 462.104 93.4427 462.081 92.461C462.304 91.8626 462.495 91.3498 462.717 90.7514C462.492 89.7917 462.847 85.4471 463.239 84.1331C463.462 83.5348 463.653 83.0219 463.875 82.4236C463.651 82.2429 463.257 81.9987 463.321 81.8278C463.827 78.902 464.419 76.008 464.552 73.0408C464.655 70.9381 465.334 68.8548 465.927 66.7399C466.022 66.4834 466.778 66.2782 467.215 66.1487C467.375 66.5004 467.706 66.9155 467.611 67.1719C467.21 69.5531 466.319 71.9465 466.408 74.3153C466.442 75.788 465.454 76.8797 465.583 78.0959C465.681 79.3975 465.694 80.6675 465.046 81.8862C464.951 82.1426 464.824 82.4845 464.728 82.7409C464.952 82.9216 465.347 83.1658 465.315 83.2513C464.754 85.2808 464.224 87.2248 464.206 89.3592C463.984 89.9576 463.793 90.4705 463.57 91.0688C465.031 92.0992 463.445 92.9688 463.468 93.9505C462.8 95.7456 463.538 97.6748 462.466 99.5139C461.913 100.476 463.065 101.294 464.226 101.045C467.495 100.607 470.454 99.1783 473.755 98.6553C478.707 97.8708 478.632 97.5509 480.35 92.9351C480.923 91.3964 481.527 89.7723 482.1 88.2337C481.972 87.7966 481.587 87.2642 481.629 86.8906C481.958 85.7476 482.425 84.7536 482.838 83.6424C483.061 83.044 483.252 82.5312 483.475 81.9328C483.888 80.8216 484.334 79.6249 484.747 78.5137C484.587 78.162 484.139 77.8006 484.149 77.5125C484.477 76.3695 485.093 75.2363 485.336 74.0616C486.035 71.402 488.076 69.0475 487.464 65.9974C487.389 65.6774 488.56 65.14 489.092 64.7541C489.135 65.1595 489.264 65.5966 489.307 66.002C489.642 68.7543 488.346 71.1917 487.455 73.5851C486.819 75.2947 486.183 77.0042 485.546 78.7138C485.675 79.151 486.059 79.6833 486.017 80.0569C485.498 81.7128 484.808 83.3051 484.172 85.0147C483.631 86.4679 483.122 87.8355 482.581 89.2887C482.71 89.7258 483.094 90.2581 483.052 90.6318C482.628 92.0312 482.034 93.3671 481.525 94.7348C481.357 96.2294 482.145 95.9387 483.157 95.8287C487.682 94.8855 491.865 93.0363 496.466 92.413C497.712 92.1955 499.597 91.8265 499.839 89.8727C500.57 87.9067 501.334 85.8552 502.066 83.8892C500.819 83.3277 501.765 82.6096 501.849 81.8623C502.263 80.751 502.708 79.5543 503.122 78.4431C503.758 76.7335 504.395 75.024 505.031 73.3144C504.86 73.2509 504.605 73.1557 504.605 73.1557C505.347 70.9015 505.971 68.7011 506.799 66.4786C506.83 66.3931 507.8 66.6568 508.429 66.7934C508.333 67.0499 508.206 67.3918 508.111 67.6482C507.379 69.6142 506.615 71.6657 505.884 73.6318C506.012 74.0689 506.397 74.6012 506.355 74.9749C506.026 76.1178 505.559 77.1118 505.146 78.2231C503.053 82.0184 503.38 86.6169 501.544 90.5075C505.474 90.1212 509.157 88.5724 512.99 87.6635C514.502 87.253 515.982 86.928 517.516 86.7203C519.368 85.6577 519.556 83.5868 520.278 81.9089C520.914 80.1993 521.55 78.4898 522.187 76.7802C522.664 75.498 523.141 74.2158 523.587 73.0191C523.618 72.9336 524.023 72.8896 524.225 72.8676C524.215 73.1558 524.205 73.444 524.227 73.6467C524.355 74.0838 524.74 74.6162 524.666 75.0753C523.797 77.6714 522.789 80.1185 521.834 82.6829C520.88 85.2473 520.88 85.2473 523.744 84.8537C524.149 84.8097 524.586 84.6802 524.99 84.6362C527.48 82.6432 530.794 83.3901 533.465 81.9513C533.582 81.8976 534.169 82.4079 534.361 82.6741C534.5 82.823 534.309 83.3359 534.16 83.4751C533.66 83.7756 533.128 84.1615 532.606 84.2592C530.285 84.7577 527.963 85.2562 525.557 85.7229C525.206 85.8841 524.908 86.1626 524.556 86.3238C524.322 86.4313 523.981 86.3043 523.725 86.2091C523.8 86.529 523.79 86.8172 523.982 87.0834C524.537 87.6792 525.241 88.1358 525.881 88.7634C527.823 90.8487 530.542 92.1525 531.857 94.8802C532.049 95.1464 532.124 95.4663 532.316 95.7325C532.028 95.7227 531.709 95.7985 531.538 95.735C531.251 95.7253 531.027 95.5446 530.686 95.4176C528.349 93.0881 525.47 91.4327 523.346 88.793C523.015 88.3778 522.238 88.3804 521.726 88.1899C521.916 86.898 521.255 86.8468 520.297 87.0741C519.541 87.2793 518.753 87.57 517.997 87.7752C514.112 89.346 510.076 90.2769 505.902 91.0589C505.582 91.1346 505.114 91.3496 504.987 91.6915C504.891 91.948 505.041 92.5878 505.265 92.7685C508.582 95.0735 511.208 98.1918 514.077 100.914C515.729 101.432 516.307 103.01 517.449 104.116C518.729 105.371 520.275 106.433 521.556 107.688C521.78 107.869 521.866 108.68 521.834 108.765C521.366 108.98 520.664 109.302 520.44 109.122C519.064 108.123 517.954 106.931 516.61 105.847C515.127 104.614 513.762 103.327 512.96 101.569C509.719 99.584 507.083 96.7538 504.352 94.1801C503.125 93.0423 502.09 92.1705 500.6 92.7837C497.268 94.1712 493.679 94.6845 490.197 95.4322C488.397 95.8329 486.588 96.5218 484.778 97.2107C483.99 97.5014 483.853 98.1315 484.632 98.908C485.581 99.748 486.169 101.037 487.182 101.706C490.338 103.66 492.835 106.341 495.332 109.022C497.829 111.703 500.837 113.796 503.217 116.531C504.188 117.573 505.074 118.584 505.896 119.766C506.003 120.001 505.695 120.567 505.653 120.941C505.343 120.729 505.119 120.548 504.778 120.421C502.102 118.743 500.531 115.921 498.153 113.965C493.118 109.755 488.594 104.957 483.771 100.437C482.63 99.3308 481.319 98.9402 480.135 98.2077C478.709 98.6499 477.335 99.2093 475.855 99.5343C472.075 100.56 468.06 100.915 464.698 103.167C465.669 104.21 466.704 105.081 467.558 106.178C471.934 111.894 476.311 117.611 481.103 122.995C482.874 125.017 484.231 127.371 485.971 129.479C486.44 130.043 486.75 130.255 485.962 130.546C485.525 130.675 484.95 130.656 484.641 130.443C484.108 130.05 483.638 129.486 483.168 128.922C479.144 123.823 475.269 118.585 471.128 113.541C468.566 110.251 465.706 107.24 463.442 103.673C461.8 102.867 460.151 103.908 458.542 103.795C458.244 104.074 457.915 104.438 457.563 104.599C453.496 105.615 449.514 106.664 445.446 107.68C442.966 108.606 442.998 108.52 444.119 110.203C446.66 114.068 449.319 117.88 451.861 121.746C452.479 122.171 453.64 121.922 453.248 123.236C455.115 125.001 456.365 127.121 457.732 129.186C459.067 131.338 461.136 133.081 462.322 135.372C462.824 135.85 463.325 136.329 463.795 136.893C464.04 137.277 464.02 137.853 464.148 138.29C463.658 138.302 463.02 138.454 462.593 138.295C461.368 137.936 461.142 136.977 461.183 135.824C460.927 135.729 460.554 135.687 460.33 135.506C457.608 131.866 454.801 128.193 452.11 124.466C451.971 124.318 452.099 123.976 452.109 123.687C451.607 123.209 451.223 122.676 450.722 122.198C447.754 118.174 444.701 114.118 441.733 110.093C441.263 109.529 439.984 109.053 439.089 109.109C436.151 109.962 433.297 110.846 430.359 111.699C427.857 112.422 425.301 113.028 422.799 113.751C421.79 115.419 422.921 116.814 423.69 117.878C426.188 121.339 428.538 124.938 430.919 128.452C431.721 130.21 433.757 131.26 433.91 133.458C435.97 136.269 438.148 139.026 440.176 141.922C440.283 142.156 440.114 142.872 439.933 143.097C439.667 143.29 438.89 143.292 438.783 143.058C436.52 140.269 434.406 137.341 432.824 134.027C431.405 132.623 429.869 131.273 429.833 129.021C429.407 128.863 428.832 128.843 428.64 128.577C426.568 125.275 424.581 122.006 422.626 118.65C421.269 116.296 419.573 114.594 416.496 115.298C416.081 115.63 415.602 116.133 415.08 116.231C412.642 116.783 410.204 117.335 407.765 117.888C407.499 118.081 407.138 118.53 406.765 118.489C405.273 118.323 404.219 118.806 403.934 120.355C404.725 121.622 405.6 122.921 406.391 124.189C409.348 128.501 412.189 132.867 415.147 137.18C415.307 137.531 415.521 138 415.681 138.352C416.803 140.034 417.924 141.717 419.045 143.399C419.237 143.666 419.312 143.986 419.334 144.188C419.324 144.476 419.165 144.904 418.962 144.926C418.526 145.055 417.834 145.09 417.727 144.855C416.616 142.884 415.536 140.828 414.542 138.804C414.287 138.709 413.945 138.582 413.69 138.486C413.529 138.135 413.315 137.666 413.155 137.314C411.137 134.13 409.086 131.031 407.068 127.847C406.384 126.814 404.935 126.274 405.252 124.641C404.461 123.373 402.554 122.76 402.795 120.807C400.396 119.427 398.162 120.736 395.872 121.149C395.18 121.184 394.541 121.335 393.848 121.369C393.029 121.746 392.326 122.068 391.507 122.444C390.814 122.479 390.176 122.63 389.483 122.664C389.132 122.825 388.664 123.04 388.312 123.202C387.642 123.439 386.918 123.558 386.247 123.795C386.429 124.35 386.611 124.904 386.825 125.373C387.754 126.789 388.8 128.152 389.814 129.6C392.013 132.56 394.213 135.519 396.38 138.564C396.626 138.948 397.149 139.629 396.19 139.856C395.754 139.986 395.062 140.02 394.869 139.754C393.492 137.976 392.03 136.167 390.919 134.196C390.16 132.843 388.284 132.145 388.612 130.223C387.288 128.562 385.847 126.956 384.641 125.241C384.064 124.443 383.606 124.37 382.818 124.66C382.233 124.929 381.509 125.049 380.838 125.286L382.242 130.382C383.867 134.101 385.673 137.596 388.799 140.414C391.508 142.785 394.133 145.124 397.49 146.276C399.366 146.975 401.295 147.79 403.203 148.403C404.887 148.835 406.338 150.153 408.457 149.677C410.054 149.298 411.613 151.63 413.667 150.546C419.049 152.257 424.598 151.695 430.126 151.709C435.623 151.808 441.097 150.926 446.507 150.215C454.952 149.173 463.311 147.321 471.573 144.946C476.695 143.446 481.58 141.275 486.626 139.455C491.907 137.527 496.866 134.896 501.741 132.234C508.988 128.411 515.361 123.289 520.538 116.944C522.313 114.782 523.811 112.323 525.362 109.981C526.032 108.965 526.872 108.012 527.371 106.933C527.987 105.8 528.037 104.359 528.824 103.289C532.798 97.5665 533.937 90.594 536.75 84.3418C537.312 83.0913 537.259 82.9741 536.01 81.6335C532.158 77.3773 526.12 72.2105 521.45 69.1095C518.805 67.3466 516.033 65.9256 513.474 64.1944C510.403 62.2728 507.194 60.9813 503.827 60.1172Z" fill="#0A483A"/>
<path d="M352.854 44.9285C354.163 44.1072 355.442 43.1944 356.721 42.3426C359.066 40.852 362.661 39.2106 365.372 38.3301C366.256 38.0569 366.286 38.0264 366.744 38.5451C369.064 41.1081 371.961 43.0318 373.702 46.0513C374.008 46.6003 374.648 46.9363 375.045 47.4549C375.411 47.943 375.686 48.4615 375.992 49.0105C376.725 50.2305 377.519 51.3897 378.16 52.64C379.963 56.3301 380.943 60.2325 381.161 64.2864C381.317 67.0601 381.503 69.8034 381.263 72.6071C381.053 75.2584 381.026 77.91 380.663 80.5307C380.059 84.7359 379.15 88.8799 377.844 92.9318C377.024 95.5215 376.296 98.1417 375.141 100.64C373.955 103.107 373.075 105.757 371.188 107.828C371.28 108.955 369.879 109.197 369.727 110.02C369.515 111.087 368.662 111.451 368.084 112.152C367.445 112.913 366.653 113.582 365.953 114.282C364.675 115.561 363.091 116.291 361.476 116.99C359.557 117.81 357.637 117.899 355.595 117.866C353.614 117.833 353.644 117.864 353.037 119.814C353.404 120.789 352.735 121.642 352.736 122.556C352.614 122.861 352.554 123.166 352.432 123.47C352.281 124.293 352.251 125.116 352.039 125.939C351.827 126.7 351.156 126.334 350.882 126.669C350.577 126.363 349.875 126.271 350.301 125.601C350.238 124.016 351.06 122.585 351.21 121.031C351.301 120.513 351.422 120.025 351.513 119.507C351.693 117.374 351.693 117.435 349.681 116.884C348.34 116.516 347.059 115.966 345.778 115.355C344.863 114.927 343.948 114.377 343.277 113.645C342.148 112.516 340.988 111.478 340.102 110.045C339.034 108.367 338.148 106.69 337.475 104.86C336.649 102.634 335.915 100.378 335.821 98.0311C335.694 94.4345 335.568 90.777 336.112 87.1812C336.324 85.749 336.139 84.3468 336.381 83.006C337.169 79.2887 337.408 75.5097 338.471 71.8231C339.29 68.9896 339.683 66.0337 340.685 63.2614C341.687 60.4891 342.812 57.717 344.21 55.0366C345.488 52.6 347.161 50.499 348.865 48.3676C350.052 47.0585 351.301 45.8714 352.854 44.9285ZM349.447 50.0446C347.834 52.0238 346.221 54.0638 345.005 56.3787C343.697 58.9067 342.634 61.557 341.662 64.2379C340.72 66.8884 340.297 69.6919 339.538 72.4035C338.537 75.9073 338.328 79.5339 337.57 83.038C337.297 84.3482 337.482 85.6895 337.301 87.0303C336.787 90.4737 336.882 93.9179 337.039 97.3621C337.133 99.5871 337.806 101.782 338.632 103.886C339.274 105.624 340.099 107.241 341.137 108.827C341.992 110.169 343.121 111.176 344.189 112.244C344.861 112.916 345.745 113.435 346.599 113.863C347.788 114.443 349.039 114.963 350.319 115.33L352.484 115.668C352.697 115.455 352.91 115.242 352.513 114.906C351.964 114.479 351.354 114.112 350.744 113.746C350.104 113.653 349.616 113.287 349.219 112.829C349.127 112.738 349.005 112.616 348.914 112.524C348.7 112.494 348.426 112.585 348.243 112.463C347.938 112.218 347.663 111.883 347.389 111.608C346.902 112.034 346.779 111.485 346.474 111.302C346.382 111.211 346.26 111.089 346.169 110.997C345.407 111.331 345.285 110.783 345.132 110.264C345.132 110.203 345.314 109.96 345.345 109.99C345.619 110.082 345.894 110.235 346.168 110.387C346.26 110.479 346.382 110.601 346.473 110.693C346.96 110.267 347.083 110.815 347.388 110.999C347.998 111.426 348.608 111.792 349.218 112.22C349.432 112.251 349.706 112.16 349.889 112.282C350.194 112.526 350.469 112.861 350.743 113.136C350.865 113.075 351.017 112.984 351.078 112.984C351.719 113.259 352.359 113.595 352.999 113.87C353.12 113.139 353.211 112.438 353.332 111.707C353.332 111.646 353.423 111.616 353.484 111.555C353.484 111.372 353.484 111.128 353.484 110.945C353.575 110.854 353.697 110.732 353.788 110.641C353.787 110.214 353.787 109.848 353.786 109.422C353.908 109.117 353.969 108.812 354.09 108.508C354.12 108.05 354.15 107.654 354.149 107.228C354.149 107.045 354.088 106.862 354.057 106.709C353.508 106.099 352.898 105.55 352.075 105.335C350.794 105.029 349.696 104.296 348.568 103.655C348.476 103.563 348.354 103.441 348.262 103.35C348.202 103.41 348.11 103.502 348.11 103.502C347.134 103.074 345.976 102.829 345.304 102.096C344.48 101.211 343.201 101.454 342.468 100.599C342.255 100.447 342.041 100.172 341.797 100.172C341.462 100.141 341.309 100.11 341.37 99.7447C341.4 99.5923 341.461 99.4095 341.491 99.2572C341.705 99.4098 341.918 99.5625 342.132 99.7152C342.254 99.6543 342.436 99.5327 342.497 99.5937C343.748 100.296 344.907 101.212 346.371 101.58C346.919 101.702 347.408 102.19 347.926 102.465C348.018 102.557 348.14 102.679 348.231 102.77C348.414 102.771 348.658 102.649 348.78 102.71C350.366 103.992 352.226 104.695 354.025 105.521C354.178 105.307 354.482 105.064 354.482 104.881C354.389 104.119 354.785 103.479 354.936 102.779C354.875 102.535 354.753 102.23 354.814 101.986C355.056 100.828 355.298 99.6703 355.541 98.5125C355.266 97.933 355.356 97.1102 354.35 97.0785C354.015 97.0476 353.71 96.6206 353.405 96.3764C352.918 96.8025 352.795 96.2537 352.49 96.0705C352.276 95.8569 352.093 95.6738 351.88 95.4602C351.697 95.4599 351.453 95.4596 351.27 95.4594C351.179 95.3679 351.056 95.2458 350.965 95.1543C350.873 95.0627 350.751 94.9406 350.66 94.8491C350.173 95.2752 350.05 94.7264 349.745 94.5432C349.653 94.4516 349.531 94.3296 349.44 94.238C349.257 94.2378 349.013 94.3594 348.891 94.2983C347.58 93.4738 346.238 92.8016 344.866 92.099C344.652 91.9463 344.438 91.7936 344.225 91.641C343.95 91.4883 343.645 91.305 343.34 91.1827C343.249 91.0912 343.127 90.9691 343.035 90.8776C342.274 91.2729 341.968 90.0534 341.236 90.2963C341.175 90.1133 341.053 89.8694 341.114 89.7475C341.205 89.5952 341.54 89.4433 341.601 89.5043C342.15 89.9317 342.943 89.8717 343.309 90.5427C344.04 90.1169 344.102 90.9703 344.529 91.1537C345.382 90.7281 345.414 91.8558 346.023 91.9175C347.365 92.0411 348.28 93.0784 349.409 93.598C349.5 93.6895 349.622 93.8116 349.714 93.9031C350.201 93.477 350.323 94.0258 350.628 94.209C350.72 94.3006 350.842 94.4226 350.934 94.5142C351.055 94.4534 351.208 94.3621 351.269 94.3622C351.97 94.8202 352.672 95.2783 353.373 95.7363C353.861 95.3102 353.983 95.859 354.288 96.0422C355.447 96.8361 355.752 96.7145 356.116 95.4349C355.84 94.124 356.387 92.9665 356.721 91.7782C356.66 91.5343 356.538 91.2294 356.598 90.9857C356.841 89.8278 357.083 88.6699 357.325 87.512C356.288 86.9012 355.312 86.2904 354.275 85.6796C354.062 85.466 353.879 85.2829 353.665 85.0693C353.452 85.0385 353.178 85.1296 352.995 85.0075C352.689 84.7633 352.415 84.4277 352.14 84.1531C351.683 84.0611 349.883 83.0531 349.395 82.6258C349.273 82.6866 349.091 82.8083 349.03 82.7472C347.413 81.4957 345.583 80.64 343.905 79.5712C343.814 79.4797 343.692 79.3576 343.6 79.2661C342.777 79.4175 342.502 78.838 342.258 78.2282C342.258 78.1672 342.562 77.8628 342.654 77.8934C342.898 77.9546 343.081 78.1987 343.294 78.3513C343.386 78.4429 343.508 78.565 343.599 78.6565C343.721 78.5957 343.904 78.474 343.965 78.535C345.582 79.7866 347.412 80.6423 349.089 81.7111C349.303 81.9247 349.486 82.1078 349.7 82.3214C350.157 82.4134 351.956 83.4214 352.444 83.8487C352.841 84.0625 353.268 84.2459 353.664 84.4597C353.878 84.6733 354.061 84.8564 354.275 85.07C354.397 85.0092 354.579 84.8875 354.61 84.918C355.159 85.4064 355.83 85.712 356.44 86.0785C357.08 86.4755 357.355 86.6892 357.476 85.714C357.536 85.2874 357.779 84.861 357.901 84.4344C357.84 84.2515 357.748 84.038 357.748 83.8552C358.111 81.905 358.444 79.9853 358.807 78.0351C359.355 77.0605 358.653 76.2977 357.982 76.114C357.22 75.8997 356.914 75.3507 356.365 74.9843C355.634 75.4101 355.572 74.5566 355.145 74.3732C354.932 74.1596 354.749 73.9765 354.535 73.7629C354.078 73.6709 352.278 72.6629 351.79 72.2357C351.577 72.022 351.393 71.8389 351.18 71.6253C351.058 71.6861 350.875 71.8078 350.814 71.7468C349.655 70.9529 348.526 70.1287 347.276 69.4871C346.392 69.0288 345.629 68.3269 344.836 67.6554C344.744 67.5638 344.804 67.1982 344.835 66.9849C345.018 66.9851 345.261 66.9244 345.353 67.016C346.298 67.6572 347.153 68.5116 348.19 68.9396C348.83 69.2147 349.105 69.8551 349.654 70.0386C350.233 70.2527 350.782 70.4972 351.179 71.0158C351.271 71.1073 351.393 71.2294 351.484 71.3209C351.606 71.2601 351.789 71.1384 351.819 71.169C352.582 71.8099 353.314 72.4204 354.229 72.8482C354.443 73.0618 354.626 73.2449 354.84 73.4585C355.57 73.0327 355.632 73.8862 356.059 74.0696C356.7 74.7104 357.676 74.7726 358.256 75.5962C358.561 76.0233 359.14 75.6887 359.261 75.1403C359.716 73.6474 359.684 72.0929 360.109 70.5696C360.746 68.2845 360.593 68.2538 358.946 66.606C358.396 66.0567 357.817 65.4769 357.267 64.9276C357.054 64.8969 356.749 64.9574 356.597 64.8658C356.17 64.4996 355.834 64.1029 355.437 63.7062C355.223 63.4926 355.04 63.3095 354.827 63.0959C354.43 62.6992 354.003 62.272 353.606 61.8753C353.423 61.8751 353.18 61.9967 353.058 61.9356C352.63 61.5693 352.264 61.0812 351.807 60.7454C350.8 59.9212 350.189 58.5795 348.756 58.2424C348.603 58.2118 348.602 57.6022 348.541 57.2973C348.724 57.3585 348.937 57.3893 349.12 57.4504C350.371 57.8482 351.164 58.8854 352.019 59.7399C352.629 60.3502 353.239 60.9605 353.85 61.5708C354.063 61.6015 354.368 61.541 354.52 61.6326C355.13 62.1819 355.68 62.7922 356.29 63.4025C356.809 63.9213 357.297 64.4095 357.816 64.9283C358.029 64.959 358.334 64.8984 358.486 64.9901C359.005 65.4479 359.463 65.9666 359.951 66.4548C360.561 66.8213 360.591 66.4251 360.743 65.9681C361.228 63.8353 361.256 61.6713 361.893 59.5691C362.045 58.9902 362.257 58.1066 361.464 57.618C360.762 56.9161 360.03 56.1837 359.328 55.4819C358.841 55.908 358.718 55.3592 358.413 55.176C358.017 54.7793 357.59 54.3521 357.193 53.9554C356.583 53.345 355.972 52.7347 355.362 52.1244C355.301 52.1853 355.21 52.2766 355.21 52.2766C354.386 51.5137 353.562 50.8117 352.769 50.0182C352.738 49.9877 353.043 49.6224 353.225 49.3788C353.317 49.4703 353.439 49.5924 353.53 49.6839C354.232 50.3858 354.964 51.1182 355.666 51.82C355.88 51.8508 356.184 51.7902 356.337 51.8818C356.764 52.2481 357.1 52.6447 357.497 53.0414C358.718 54.6887 360.761 55.4532 362.073 57.0092C362.681 55.2422 362.739 53.3526 363.103 51.5244C363.224 50.793 363.375 50.0922 363.588 49.3915C363.495 48.3856 362.641 47.8969 362.061 47.2561C361.451 46.6458 360.841 46.0355 360.23 45.4252C359.772 44.9675 359.315 44.5097 358.888 44.0825C358.857 44.052 358.918 43.8692 358.948 43.7778C359.07 43.8389 359.192 43.9 359.284 43.9306C359.497 43.9613 359.802 43.9008 359.985 44.0229C360.931 44.9079 361.785 45.8233 362.701 46.7388C363.616 47.6543 363.616 47.6543 364.011 46.3442C364.071 46.1614 364.102 45.9481 364.162 45.7653C363.795 44.3019 364.769 43.023 364.675 41.5904C364.675 41.5294 365.01 41.3775 365.163 41.3472C365.254 41.3168 365.437 41.4999 365.468 41.5914C365.499 41.8657 365.56 42.1706 365.499 42.4143C365.257 43.5112 365.014 44.6081 364.741 45.7355C364.742 45.9184 364.803 46.1013 364.803 46.2842C364.803 46.4061 364.681 46.5279 364.59 46.6192C364.742 46.6499 364.864 46.711 365.017 46.6807C365.382 46.5592 365.717 46.3463 366.113 46.1944C367.393 45.7692 368.489 44.8562 369.922 44.8275C370.074 44.7972 370.226 44.8279 370.379 44.7976C370.318 44.9194 370.288 45.0718 370.227 45.1327C370.166 45.2545 370.044 45.3153 369.922 45.4371C368.46 45.9839 367.181 46.8967 365.627 47.291C365.383 47.3516 365.231 47.6867 365.049 47.8694C364.53 47.5335 364.378 47.8076 364.287 48.2646C364.227 48.6303 364.197 49.0265 364.136 49.3921C364.047 51.3731 363.653 53.2928 363.168 55.2428C363.138 55.3951 363.138 55.639 363.26 55.761C363.352 55.8526 363.657 55.9139 363.778 55.8531C365.423 54.8798 367.282 54.364 369.018 53.6651C369.566 53.0562 370.358 53.1181 371.059 52.8447C371.851 52.5409 372.613 52.0846 373.405 51.7808C373.526 51.72 373.892 51.8424 373.923 51.8729C373.923 52.1167 373.924 52.4825 373.802 52.5433C373.101 52.9386 372.37 53.1815 371.639 53.5464C370.817 53.9416 369.994 54.2758 369.08 54.2747C367.588 55.2787 365.851 55.8556 364.206 56.5241C363.475 56.828 362.896 57.1016 362.867 57.8635C362.808 59.5702 362.322 61.2155 361.958 62.8608C361.777 63.714 361.717 64.6283 361.657 65.5426C361.627 65.9387 361.871 66.1219 362.358 65.9396C362.907 65.6965 363.577 65.6973 364.064 65.3931C365.526 64.4196 367.171 63.873 368.817 63.3264C370.462 62.7798 371.954 61.8978 373.599 61.4122C374.239 61.1996 374.848 61.0175 375.519 60.8964C375.641 60.8965 375.824 61.1406 375.976 61.2322C375.824 61.3235 375.702 61.3843 375.58 61.506C374.332 62.3274 372.808 62.4475 371.498 63.0859C368.696 64.4235 365.741 65.4257 362.847 66.6108C362.146 66.8842 361.72 67.3713 361.172 67.7364C361.081 68.4373 361.052 69.1382 360.9 69.8391C360.598 71.6674 359.96 73.4648 360.267 75.3548C360.907 75.1423 361.485 74.8687 362.125 74.7171C365.447 73.9592 368.768 73.2013 372.028 72.1995C373.246 71.8353 374.526 71.7149 375.775 71.3812C376.111 71.2902 376.263 71.1989 376.233 71.5951C376.203 71.8084 376.081 72.0521 375.929 72.1434C375.655 72.2954 375.32 72.3864 374.984 72.4775C371.998 73.2053 368.982 73.8416 365.996 74.6304C364.076 75.0852 362.218 75.723 360.237 75.9948C359.567 76.5426 359.69 77.4571 359.326 78.1272C359.387 78.3101 359.478 78.5236 359.479 78.7065C359.115 80.6566 358.782 82.5763 358.419 84.5265C358.329 85.776 358.299 85.7455 359.243 85.5943C361.407 85.2617 363.57 84.8681 365.734 84.5355C366.038 84.353 366.16 83.8045 366.648 84.2318C367.775 83.776 368.933 83.6555 370.091 83.4741C371.279 83.3232 372.437 82.776 373.656 82.7165C373.961 82.595 374.265 82.4734 374.6 82.3824C374.814 82.3522 375.058 82.4744 375.271 82.5051C375.18 82.7184 375.119 83.0231 374.967 83.1753C374.571 83.632 374.114 83.54 373.626 83.2956C373.535 83.3869 373.444 83.5392 373.322 83.6C371.219 84.0546 369.086 84.5396 366.953 84.9637C366.862 84.994 366.74 84.872 366.618 84.8109C366.313 84.9324 366.009 84.993 365.704 85.1145C363.388 85.5993 361.042 86.1146 358.726 86.5994C358.391 86.6904 357.935 87.147 357.783 87.5431C357.571 88.9753 357.39 90.3771 357.178 91.8093C356.997 93.0282 356.755 94.247 356.573 95.4659C357.092 96.2285 357.915 96.0162 358.524 95.895C360.505 95.5012 362.516 95.1989 364.497 94.8661C365.411 94.8672 366.264 94.1977 367.24 94.5647C368.854 94.2314 370.469 93.8371 372.115 93.5344C372.237 93.5345 372.511 93.7482 372.572 93.8702C372.603 94.0226 372.451 94.3577 372.329 94.3576C370.684 94.7822 369.008 95.1154 367.271 95.1438C366.387 95.478 365.504 95.8731 364.528 95.4452C364.376 95.5974 364.254 95.8411 364.102 95.8714C362.274 96.113 360.476 96.3241 358.647 96.5047C357.367 96.6251 356.301 97.02 355.998 98.4826C356.059 98.7265 356.181 99.0314 356.121 99.2751C355.878 100.433 355.636 101.591 355.394 102.749C355.424 102.901 355.546 103.145 355.455 103.297C355.09 103.907 355.091 104.455 355.701 104.883C356.402 104.792 357.133 104.671 357.834 104.58C360.272 104.157 362.71 103.794 365.147 103.37C365.33 103.371 365.574 103.371 365.757 103.371C366.702 103.22 367.646 103.069 368.591 102.917C368.743 102.887 368.896 102.918 368.987 102.948C369.109 103.009 369.262 103.162 369.231 103.253C369.201 103.467 369.08 103.771 368.958 103.771C367.891 103.861 366.794 103.921 365.727 103.95C365.636 104.041 365.514 104.163 365.423 104.255C365.24 104.254 364.996 104.254 364.813 104.254C363.046 104.495 361.309 104.768 359.541 105.009C358.962 105.1 358.445 105.617 357.804 105.16C357.103 105.25 356.464 105.95 355.671 105.462C354.605 106.222 354.729 107.442 354.456 108.508C354.334 108.813 354.274 109.117 354.152 109.422C354.153 109.849 354.153 110.214 354.154 110.641C354.032 110.946 353.972 111.25 353.85 111.555C353.85 111.738 353.851 111.982 353.851 112.165C353.821 112.5 353.73 112.835 353.7 113.17C353.974 113.201 354.248 113.232 354.492 113.232C355.284 113.111 356.077 112.929 356.899 112.778C358.606 112.414 360.312 112.051 362.049 111.718C362.262 111.687 362.658 111.596 362.567 112.053C362.537 112.267 362.416 112.571 362.263 112.602C361.227 112.844 360.161 113.117 359.094 113.207C358.363 113.267 357.693 113.937 356.931 113.418C355.956 113.661 354.981 113.964 354.006 114.146C353.549 114.237 353.427 114.42 353.397 114.816C353.397 115.12 353.306 115.456 353.276 115.791L355.745 116.19C357.665 116.223 359.525 116.134 361.352 115.344C362.906 114.644 364.429 113.976 365.586 112.758C366.255 112.088 366.986 111.419 367.625 110.719C368.142 110.079 368.995 109.714 369.208 108.709C369.359 107.947 370.669 107.735 370.607 106.638C372.403 104.659 373.253 102.161 374.347 99.7852C375.472 97.4397 376.17 94.9109 376.929 92.4431C378.143 88.6043 378.992 84.6432 379.597 80.6208C379.959 78.122 379.987 75.5924 380.197 73.0629C380.407 70.4116 380.251 67.7598 380.065 65.1385C379.847 61.2674 378.898 57.5175 377.187 54.0408C376.606 52.8515 375.843 51.7229 375.14 50.5943C374.835 50.1063 374.591 49.5574 374.224 49.1302C373.858 48.6421 373.248 48.3366 372.943 47.7876C371.263 44.9511 368.487 43.0885 366.35 40.6476C365.923 40.1594 365.862 40.1594 365.04 40.4327C362.45 41.2524 359.038 42.8331 356.785 44.2323C355.506 45.0232 354.349 45.9361 353.1 46.6965C351.669 47.6396 350.481 48.7658 349.447 50.0446Z" fill="#DCBF6F"/>
<g clip-path="url(#clip0_888_731)">
<path d="M319.18 89.3504C318.196 88.1962 317.553 86.9926 317.292 85.6533C316.985 84.1869 315.729 83.2729 315.277 82.0015C314.4 79.7355 312.828 77.9315 311.387 76.2956C305.668 69.8791 298.352 65.8206 289.945 63.7258C285.376 62.5576 280.734 61.9884 275.996 61.9546C271.557 61.9576 267.227 62.0651 263.103 63.9611C262.363 64.2959 261.664 64.5446 260.878 64.7523C256.506 65.949 252.772 68.136 249.287 71.0223C244.439 75.1095 239.939 79.5739 237.24 85.4749C236.42 87.1985 235.515 88.8811 234.782 90.6456C233.438 93.9161 232.417 97.2869 232.081 100.772C231.961 102.247 231.904 103.699 231.912 105.129C231.919 106.559 231.948 108.052 232.042 109.523C232.189 111.547 232.463 113.526 232.737 115.505C233.079 117.675 233.271 119.827 234.271 121.834C234.316 121.962 234.339 122.025 234.384 122.152C235.592 124.945 236.06 128.073 238.031 130.595C238.905 131.644 238.614 132.034 237.429 132.527C235.417 133.314 233.206 133.742 231.53 135.27C231.048 135.727 230.049 135.939 229.364 135.825C227.694 135.559 226.064 136.211 225.014 137.085C223.101 138.553 220.926 139.685 219.077 141.13C218.404 141.655 218.509 141.547 219.075 142.133C221.097 143.992 223.674 144.794 226.064 145.878C227.593 146.552 229.076 147.098 230.191 148.421C230.671 148.966 231.551 149.226 232.351 148.655C233.213 149.065 234.011 149.497 234.873 149.907C235.131 150.03 235.685 149.976 235.666 150.126C236.213 151.865 237.992 152.235 239.121 153.194C240.272 154.217 240.543 154.98 239.434 156.09C238.848 156.657 238.43 157.092 238.447 157.945C238.047 158.23 237.434 158.52 237.207 158.887C236.014 161.173 234.994 163.541 233.825 165.89C233.62 166.321 233.433 166.602 234.223 166.608C236.765 166.707 239.325 166.656 241.745 166.01C243.252 165.617 244.591 165.356 246.152 165.517C247.477 165.619 248.889 165.761 250.201 165.223C252.149 164.459 254.111 163.331 256.152 165.041C256.238 165.082 256.324 165.123 256.474 165.141C259.647 164.8 262.954 165.844 265.925 163.929C266.556 163.489 267.387 163.409 268.15 163.137C268.954 162.78 269.957 162.781 270.212 161.688C272.329 160.792 273.511 159.083 274.539 157.141C275.217 155.826 275.989 155.982 277.204 156.982C278.115 157.732 277.654 159.256 279.047 159.549C281.281 162.407 284.429 164.008 287.695 165.139C289.392 165.681 291.197 166.328 293.299 165.795C294.934 165.357 296.871 166.172 298.601 165.199C298.728 165.154 299.009 165.34 299.182 165.422C301.867 166.329 304.631 166.85 307.531 166.75C307.958 166.741 308.425 166.647 308.77 166.811C311.296 168.276 314.106 167.921 316.806 168.465C317.813 168.679 318.104 168.289 317.724 167.422C316.38 164.248 316.136 160.539 313.016 158.211C312.844 158.129 312.858 157.766 312.79 157.575C312.564 156.94 312.102 156.245 312.198 155.709C312.34 155.301 313.275 155.112 313.779 154.717C314.347 154.301 314.87 153.757 315.392 153.213C315.729 152.95 315.997 152.497 316.315 152.384C320.329 151.386 323.672 148.908 327.595 147.656C329.907 146.906 332.041 145.861 334.108 144.624C334.826 144.226 334.29 144.13 333.964 143.816C331.271 141.48 328.406 139.061 324.994 138.126C322.377 137.41 320.173 136.045 317.741 135.048C316.385 134.456 315.997 133.162 316.588 131.806C316.894 131.053 317.221 130.363 317.613 129.651C320.106 125.184 321.288 120.252 321.849 115.183C322.644 107.954 322.631 100.87 320.294 93.8951C320.113 93.3865 320.146 92.8737 320.029 92.3425C319.776 91.4299 319.877 90.1047 319.18 89.3504ZM237.664 149.702C237.66 149.488 237.293 149.261 236.97 149.161C235.319 148.745 233.69 148.394 232.061 148.042C230.225 146.905 228.429 145.681 226.551 144.63C225.753 144.198 224.891 143.788 223.843 143.66C222.709 143.49 221.684 142.422 220.583 141.74C221.382 141.169 222.118 140.621 222.963 140.178C224.989 139.028 226.879 137.496 229.235 136.873C230.383 137.682 231.713 136.994 232.3 136.428C233.827 134.882 235.828 134.672 237.586 133.975C239.153 133.347 239.175 133.41 240.403 135.05C241.871 136.963 243.316 138.812 244.888 140.616C244.911 140.68 245.079 140.548 245.206 140.503C245.437 141.352 244.905 141.47 244.306 141.396C241.543 140.875 238.825 140.481 236.038 140.899C234.595 140.266 233.147 140.423 231.771 140.984C231.064 140.806 227.845 141.019 226.869 141.295C226.272 140.218 225.63 141.234 225.013 141.311C225.144 141.479 225.194 141.819 225.343 141.837C225.942 141.911 226.519 141.921 227.095 141.931C228.525 141.924 229.932 141.853 231.362 141.846C231.852 141.815 232.342 141.784 232.918 141.793C233.835 141.754 234.775 141.778 235.628 141.761C237.788 141.995 239.948 142.23 242.108 142.464C243.157 142.593 244.191 143.084 245.226 142.573C246.301 142.978 247.376 143.384 248.388 143.812C249.141 144.117 249.826 144.231 248.563 145.11C247.995 145.527 247.364 145.966 246.71 146.342C246.414 146.519 246.273 146.927 246.109 147.272C244.465 148.286 243.061 149.573 242.35 151.401C241.922 152.413 241.504 152.848 240.425 152.229C239.282 151.633 237.825 151.363 237.664 149.702ZM274.392 155.117C272.827 157.965 270.936 160.5 267.888 161.798C266.322 162.427 264.71 162.928 263.12 163.493C261.976 163.9 260.982 164.326 259.644 163.584C258.846 163.152 257.597 163.667 256.571 163.602C256.058 163.57 255.205 163.587 255.115 163.333C254.467 161.916 253.541 162.532 252.651 162.848C249.921 164.034 247.179 164.579 244.18 163.998C243.495 163.884 242.714 164.305 241.992 164.49C240.398 164.842 238.868 165.171 237.229 165.396C236.485 165.517 236.041 164.673 236.369 163.983C237.143 162.132 237.94 160.345 238.714 158.495C240.967 156.977 241.732 155.703 242.969 153.544C244.166 151.472 245.621 149.522 247.706 148.136C248.001 147.96 248.142 147.551 248.306 147.207C248.983 146.894 249.772 146.9 250.268 146.079C250.391 145.821 251.417 145.886 251.911 146.068C252.578 146.332 253.04 147.027 253.666 147.377C255.349 148.283 257.113 149.016 258.837 149.835C259.009 149.917 259.204 150.063 259.313 150.167C259.145 150.299 259.085 150.535 258.895 150.602C258.599 150.779 258.259 150.829 257.941 150.942C256.987 151.281 256.011 151.556 255.08 151.959C254.235 152.402 253.499 152.951 252.7 153.521C251.306 154.232 249.87 155.029 248.476 155.739C246.918 156.795 245.4 157.764 243.842 158.819C242.729 159.716 241.53 160.573 240.416 161.47C240.248 161.601 240.275 161.878 240.216 162.114C240.429 162.11 240.665 162.169 240.833 162.038C241.401 161.621 241.946 161.141 242.578 160.701C243.273 160.239 244.077 159.882 244.817 159.547C244.817 159.547 244.749 159.356 244.704 159.229C246.915 158.801 248.479 156.956 250.599 156.273C250.663 156.251 250.613 155.91 250.609 155.697C251.817 155.267 253.111 154.879 254.296 154.386C254.551 154.295 254.669 153.824 254.833 153.479C256.295 152.959 257.821 152.416 259.283 151.896C261.086 151.327 262.77 151.23 264.557 152.026C266.689 152.987 269.039 153.154 271.327 153.343C272.139 153.412 272.997 153.608 273.79 153.827C274.371 154.05 274.743 154.491 274.392 155.117ZM315.82 166.094C316.091 166.857 315.65 167.229 315.028 167.092C313.681 166.926 312.37 166.462 311.022 166.296C309.075 166.058 307.288 165.261 305.136 165.453C303.262 165.618 301.212 164.485 299.343 163.861C298.549 163.642 298.114 163.224 297.277 164.094C296.4 165.051 294.876 164.59 293.633 164.316C293.097 164.22 292.512 163.784 292.131 163.919C290.691 164.503 289.498 164.569 288.033 163.873C286.912 163.34 285.528 163.474 284.799 162.23C281.087 161.258 279.803 157.848 277.66 155.244C277.506 155.012 277.366 154.418 277.493 154.372C277.766 154.132 278.211 153.974 278.574 153.988C281.347 153.933 284.079 153.964 286.727 152.951C288.125 152.454 289.691 152.828 291.171 152.158C291.657 151.914 292.587 152.514 293.317 152.756C293.576 152.879 293.92 153.043 294.179 153.165C294.438 153.288 294.782 153.452 295.041 153.575C295.299 153.698 295.644 153.862 295.903 153.985C296.161 154.108 296.506 154.272 296.764 154.394C297.023 154.517 297.368 154.681 297.626 154.804C297.885 154.927 298.229 155.091 298.488 155.214C299.35 155.623 300.211 156.033 301.073 156.443C302.674 157.521 304.234 158.685 305.834 159.763C306.505 160.24 307.113 160.74 307.784 161.218C308.455 161.695 309.062 162.195 309.733 162.673C310.382 163.087 311.008 163.437 311.656 163.851C311.742 163.892 312.083 163.842 312.124 163.756C312.12 163.543 312.156 163.243 312.047 163.139C311.44 162.639 310.792 162.225 310.143 161.811C309.472 161.333 308.865 160.833 308.193 160.356C307.522 159.878 306.915 159.378 306.244 158.901C304.975 157.347 303.147 156.636 301.483 155.581C300.553 154.981 299.601 154.317 298.671 153.716C298.413 153.593 298.068 153.43 297.81 153.307C297.551 153.184 297.206 153.02 296.948 152.897C296.689 152.774 296.345 152.61 296.086 152.487C295.828 152.364 295.483 152.201 295.224 152.078C294.966 151.955 294.621 151.791 294.363 151.668C294.549 151.387 294.668 150.915 294.963 150.738C296.825 149.933 298.8 149.446 300.545 148.109C302.099 146.84 302.724 147.191 304.442 148.8C306.573 150.763 308.617 152.686 309.444 155.615C309.606 156.273 310.236 156.837 310.78 157.359C313.282 159.764 314.667 162.852 315.82 166.094ZM318.996 136.965C320.342 138.133 321.912 138.721 323.586 139.2C326.353 139.934 328.775 141.508 331.155 143.168C331.935 143.75 331.766 144.884 330.853 145.137C326.395 146.293 322.606 148.929 318.301 150.317C317.538 150.588 316.761 151.222 315.791 150.708C315.337 150.44 314.983 150.852 314.868 151.537C314.617 152.844 312.427 154.339 311.315 154.233C311.102 154.237 310.839 153.901 310.663 153.606C309.205 151.117 307.329 149.063 305.221 147.162C304.373 146.39 304.479 145.278 305.41 144.875C306.468 144.427 307.508 144.129 308.589 143.745C308.634 143.872 308.702 144.063 308.702 144.063C311.706 143.854 314.775 143.622 317.757 143.349C318.274 143.595 320.453 143.68 321.388 143.49C321.905 143.736 324.083 143.821 325.019 143.631C325.616 144.708 326.258 143.692 326.875 143.616C326.743 143.448 326.694 143.107 326.544 143.089C325.945 143.015 325.369 143.006 324.792 142.996C323.808 142.845 322.782 142.78 321.797 142.629C320.604 142.695 319.393 141.908 318.167 142.487C315.326 142.352 312.462 142.153 309.634 142.657C309.421 142.661 309.207 142.666 308.971 142.606C309.072 142.284 309.063 141.858 309.254 141.79C311.489 140.422 312.572 138.032 314.395 136.31C314.981 135.743 315.303 135.843 316.007 135.808C317.245 135.869 318.234 136.233 318.996 136.965ZM318.516 93.525C319.797 98.9414 320.697 104.493 320.617 110.108C320.597 114.483 319.57 118.643 318.693 122.822C318.515 123.53 317.929 124.096 317.515 124.745C317.628 125.063 317.913 125.463 317.854 125.699C316.283 129.336 314.495 132.765 312.017 135.866C309.726 138.686 307.108 141.192 304.164 143.385C302.628 144.504 300.916 145.327 299.358 146.383C296.178 148.516 292.523 149.314 289.027 150.558C287.247 151.191 285.327 151.229 283.434 151.544C283.434 151.544 283.366 151.353 283.321 151.226C281.549 152.286 279.553 151.707 277.678 151.872C274.015 152.244 270.644 151.222 267.155 150.673C266.919 150.614 266.656 150.277 266.439 150.068C265.022 150.715 263.702 149.824 262.477 149.4C259.683 148.389 257.03 146.969 254.336 145.635C253.991 145.472 253.874 144.94 253.674 144.582C251.578 144.325 250.436 142.725 248.94 141.539C245.843 139.274 243.751 136.008 241.282 133.091C240.144 131.705 239.448 129.948 238.71 128.276C238.131 127.05 238.015 125.516 237.227 124.507C236.307 123.33 236.558 122.024 236.065 120.838C235.55 119.59 234.97 118.363 234.709 117.024C234.061 113.388 233.285 109.797 233.594 106.034C233.765 103.897 233.827 101.655 234.062 99.4949C234.384 96.3728 235.35 93.4512 236.402 90.5706C237.883 86.6785 239.857 82.9686 242.59 79.7772C245.154 76.7172 247.894 73.9524 251.133 71.5831C253.196 70.1336 255.435 68.9793 257.475 67.4662C258.947 66.3699 260.967 66.0096 262.77 65.4402C268.155 63.6685 273.734 63.0453 279.398 63.4661C288.097 64.168 295.561 66.0255 301.787 70.0417C304.467 71.7383 306.901 73.952 309.126 76.3832C311.614 79.1507 313.212 82.2346 315.15 85.2691C316.826 87.9674 317.884 90.742 318.516 93.525Z" fill="#DCBF6F"/>
<path d="M310.748 91.4174C310.558 91.4853 310.303 91.5757 310.113 91.6435C309.365 90.5487 308.706 91.7142 307.979 91.6859C307.912 91.4952 307.821 91.2409 307.753 91.0502C309.781 88.8972 309.598 86.1692 308.067 84.279C305.924 81.6754 303.881 78.7497 300.647 77.1068C300.013 76.3298 299.205 76.474 298.401 76.8314C297.533 77.2114 296.752 77.6325 295.971 78.0535C295.712 77.9306 295.368 77.7667 295.109 77.6438C295.105 77.4305 295.101 77.2172 295.183 77.0448C295.952 74.9808 295.926 74.7039 294.366 73.5399C293.867 73.1443 293.2 72.8802 292.661 72.5708C290.715 71.329 288.309 71.6117 286.245 70.8418C285.542 70.8771 284.816 70.8489 284.112 70.8842C282.911 69.521 281.326 70.2995 279.956 70.0706C278.586 69.8418 277.505 70.2261 276.556 70.7785C275.415 71.3987 275.164 72.7055 275.212 74.049C274.954 73.9261 274.609 73.7623 274.35 73.6394C273.867 71.8777 273.298 70.0751 271.201 69.818C270.239 69.7305 269.037 69.3703 268.092 70.136C266.375 70.7463 264.723 71.3341 263.006 71.9444C260.2 72.5124 258.038 74.2841 255.83 75.9285C253.39 77.727 253.061 79.4195 254.459 82.1446C254.527 82.3353 254.618 82.5896 254.685 82.7803C254.495 82.8481 254.24 82.9385 254.05 83.0064C252.929 82.4738 251.723 81.9003 250.603 81.3677C249.776 81.6616 248.886 81.9781 248.06 82.2719C245.387 85.2274 243.168 88.4513 241.533 92.1118C241.165 92.8874 240.474 93.5627 240.963 94.5346C241.433 95.6563 241.963 96.5421 243.206 96.8161C243.465 96.939 243.809 97.1029 244.068 97.2258C243.945 97.4843 243.781 97.829 243.658 98.0876C240.836 97.8023 240.118 98.2007 239.075 100.505C238.379 101.97 238.663 103.373 238.883 104.798C237.927 107.143 237.933 109.576 238.578 111.996C239.572 115.796 239.793 116.219 241.271 117.555C241.089 118.049 240.907 118.544 240.874 119.057C240.842 119.57 240.873 120.06 240.904 120.55C240.781 120.809 240.617 121.153 240.494 121.412C240.562 121.603 240.653 121.857 240.72 122.048C240.788 122.238 240.879 122.493 240.946 122.683C241.24 123.51 241.557 124.4 241.851 125.226C242.145 126.053 242.461 126.943 242.755 127.769C243.036 127.955 243.508 128.074 243.684 128.369C245.206 130.836 246.978 132.999 249.918 133.815C250.744 133.521 251.634 133.205 252.46 132.911C252.528 133.102 252.619 133.356 252.687 133.547C252.564 133.805 252.4 134.15 252.277 134.409C252.131 134.603 251.818 134.93 251.799 135.08C252.098 136.119 252.396 137.159 252.884 138.131C253.219 138.871 253.786 139.458 254.289 140.066C254.479 139.999 254.734 139.908 254.925 139.84C255.124 140.199 255.241 140.73 255.586 140.894C256.878 141.509 258.189 141.974 259.459 142.524C259.718 142.647 260.063 142.811 260.321 142.934C260.924 143.221 261.442 143.467 262.045 143.753C262.303 143.876 262.648 144.04 262.907 144.163C263.097 144.095 263.352 144.005 263.542 143.937C263.801 144.06 264.146 144.224 264.404 144.347C264.663 144.47 265.007 144.633 265.266 144.756C265.334 144.947 265.424 145.201 265.492 145.392C265.937 145.234 266.318 145.098 266.763 144.94C267.022 145.063 267.367 145.227 267.625 145.35C267.816 145.282 268.07 145.191 268.261 145.124C268.981 145.942 270.089 145.834 270.788 145.585C271.592 145.228 272.043 144.28 272.711 143.541C272.992 143.728 273.296 143.978 273.618 144.078C273.876 144.201 274.176 144.238 274.434 144.361C275.101 144.625 275.873 144.78 276.498 145.13C277.124 145.481 277.701 145.491 278.291 145.137C278.336 145.265 278.404 145.455 278.404 145.455C281.091 145.359 283.873 145.731 286.43 144.463C286.852 144.241 287.429 144.251 287.942 144.284C290.265 144.174 291.533 143.508 293.324 141.296C293.447 141.037 293.611 140.693 293.734 140.434C294.67 139.242 294.39 138.052 293.875 136.803C294.065 136.735 294.32 136.645 294.51 136.577C294.831 137.681 295.634 138.326 296.686 138.668C297.008 138.768 297.398 139.059 297.675 139.032C298.524 138.802 299.264 138.467 300.091 138.173C300.087 137.96 300.06 137.683 300.164 137.574C301.646 135.902 303.567 134.86 305.226 133.483C306.548 132.368 308.174 131.504 308.454 129.471C308.645 129.403 308.899 129.313 309.09 129.245C308.637 127.973 308.185 126.702 307.733 125.43C307.924 125.363 308.178 125.272 308.369 125.204C308.56 125.137 308.814 125.046 309.005 124.978C309.263 125.101 309.526 125.437 309.739 125.433C311.864 124.964 313.006 123.341 313.544 121.431C314.26 118.813 314.826 116.177 315.157 113.481C315.263 112.369 314.833 111.162 314.363 110.04C314.205 109.595 313.329 109.548 312.725 109.262C312.213 109.229 311.741 109.11 311.228 109.078C311.351 108.819 311.515 108.475 311.638 108.216C312.718 107.832 313.735 107.47 314.816 107.086C315.126 106.546 315.585 106.025 315.658 105.426C315.829 103.288 315.936 101.174 314.872 99.1887C314.805 98.998 314.651 98.7663 314.646 98.553C314.706 95.0947 313.909 93.6593 310.748 91.4174ZM297.786 78.1241C298.5 77.5123 299.425 77.8994 300.237 77.9686C302.89 79.3883 304.226 82.136 306.524 83.9683C307.435 84.7184 307.791 86.5253 307.862 87.9323C307.951 89.1897 307.337 90.4823 305.811 91.0249C305.302 91.2057 304.318 91.0546 304.575 92.1805C304.13 92.3387 303.748 92.4744 303.303 92.6326C301.909 93.3433 300.474 94.1401 299.079 94.8507C298.634 95.009 298.253 95.1446 297.808 95.3028C297.345 95.6108 296.487 95.4145 296.763 96.3907C295.368 97.1013 293.933 97.8981 292.539 98.6088C291.993 99.0891 290.746 98.6018 290.857 99.9227C290.412 100.081 290.031 100.217 289.586 100.375C289.014 100.578 288.356 100.741 287.806 101.008C287.574 101.162 287.433 101.57 287.269 101.915C286.443 102.209 285.553 102.525 284.726 102.819C284.154 103.022 283.541 103.312 282.946 103.452C282.669 103.479 282.302 103.251 281.957 103.087C282.426 101.99 282.809 100.851 283.278 99.7534C283.847 98.3336 284.439 96.9773 285.009 95.5575C285.199 95.4897 285.454 95.3993 285.644 95.3315C286.531 93.7986 287.441 92.3294 288.328 90.7965C288.884 89.7398 289.611 88.765 290.08 87.6673C290.918 85.794 292.34 84.3572 293.545 82.7113C294.127 81.9315 295.403 81.6927 295.4 80.4763C296.196 79.6922 296.968 78.8446 297.786 78.1241ZM283.54 107.537C283.507 108.05 283.389 108.522 283.356 109.035C282.425 109.438 283.119 109.979 283.173 110.532C280.967 110.171 280.926 110.257 280.22 112.298C280.029 112.366 279.775 112.457 279.584 112.525C279.394 112.592 279.139 112.683 278.949 112.751C278.881 112.56 278.79 112.306 278.722 112.115C277.77 111.451 277.135 111.677 276.815 112.793C276.438 113.142 276.147 113.532 275.77 113.881C275.566 113.309 275.404 112.65 275.137 112.101C274.983 111.869 274.575 111.728 274.23 111.564C273.785 111.722 273.404 111.858 272.959 112.016C272.768 112.084 272.514 112.174 272.323 112.242C272.255 112.052 272.165 111.797 272.097 111.606C272.457 110.404 272.04 109.836 270.783 109.925C270.715 109.735 270.625 109.48 270.557 109.29C270.68 109.031 270.844 108.686 270.966 108.428C271.897 108.025 271.204 107.484 271.15 106.93C270.856 106.104 271.669 106.173 272.005 105.91C272.277 105.67 272.378 105.348 272.605 104.981C272.447 104.536 272.311 104.154 272.153 103.709C272.344 103.642 272.598 103.551 272.789 103.483C273.242 103.752 273.696 104.02 274.108 104.375C275.065 105.252 275.234 104.118 275.784 103.851C276.297 103.883 276.768 104.002 277.281 104.034C277.54 104.157 277.885 104.321 278.143 104.444C278.334 104.376 278.588 104.286 278.779 104.218C278.969 104.15 279.224 104.059 279.414 103.992C279.605 103.924 279.859 103.833 280.05 103.766C280.531 104.311 280.043 105.558 281.364 105.447C281.686 105.547 282.054 105.774 282.417 105.789C282.907 105.757 283.429 105.214 283.723 106.04C283.432 106.43 283.164 106.883 282.873 107.273C283.068 107.419 283.304 107.478 283.54 107.537ZM269.999 105.908C270.253 105.817 270.485 105.663 270.521 105.364C270.507 105.727 270.253 105.817 269.999 105.908ZM276.277 75.0308C276.119 74.5858 275.983 74.2044 275.825 73.7594C276.489 72.8072 277.153 71.855 277.817 70.9028C279.705 71.3774 281.812 70.055 283.653 71.4056C283.762 71.5101 284.016 71.4197 284.252 71.479C284.765 71.5115 285.237 71.6301 285.75 71.6626C287.188 72.0821 288.649 72.5652 290.128 72.8986C290.686 73.0582 291.389 73.0229 291.97 73.2461C295.091 74.5711 295.239 75.5925 293.075 78.3672C292.929 78.5622 292.893 78.8617 292.792 79.1838C292.315 79.8548 291.815 80.4623 291.337 81.1334C290.96 81.4823 290.669 81.8722 290.292 82.2212C289.595 83.6862 288.94 85.0651 288.244 86.5301C287.585 86.6926 287.144 87.0641 286.88 87.7309C286.206 89.2595 285.36 90.7062 284.514 92.1529C283.936 93.146 283.381 94.2028 282.803 95.1959C281.652 97.3956 280.501 99.5952 279.372 101.858C278.995 102.207 278.704 102.597 278.327 102.946C277.564 103.218 277.252 102.541 277.479 102.174C278.016 101.267 277.404 100.553 277.196 99.7677C277.129 99.577 277.038 99.3227 276.97 99.132C277.322 97.5031 277.258 94.3032 276.843 92.7323C276.685 92.2873 276.549 91.9059 276.391 91.4609C277.486 90.7135 276.32 90.0538 276.348 89.3276C277.279 88.925 276.586 88.3839 276.532 87.8301C276.374 87.3851 276.238 87.0037 276.08 86.5587C277.37 85.9568 275.837 85.0697 276.269 84.2715C276.638 83.4959 276.403 82.4335 276.364 81.5167C276.385 79.3608 276.342 77.2276 276.277 75.0308ZM254.796 78.6594C256.618 76.9372 258.2 74.9424 260.702 74.1243C261.783 73.74 263.366 73.9646 263.804 72.3767C265.266 71.8568 266.792 71.3142 268.254 70.7943C268.548 71.6207 269.139 71.2675 269.561 71.0457C270.742 70.3393 271.653 71.0895 272.56 71.6263C272.819 71.7492 272.981 72.4075 272.858 72.666C272.453 73.7411 273.301 74.5139 273.426 75.4717C273.299 75.5169 273.109 75.5847 273.109 75.5847C273.401 77.4142 273.076 79.32 273.963 81.0096C273.331 82.452 273.487 83.9 274.048 85.276C273.117 85.6787 273.811 86.2197 273.865 86.7735C274.023 87.2185 274.159 87.5999 274.317 88.045C273.386 88.4476 274.08 88.9887 274.133 89.5424C273.965 89.6738 273.67 89.8504 273.715 89.9776C274.396 93.1011 274.374 96.26 274.755 99.3468C274.913 99.7918 275.049 100.173 275.207 100.618C274.276 101.021 274.97 101.562 275.024 102.116C274.508 104.089 274.762 103.999 273.116 102.794C272.858 102.671 272.513 102.507 272.255 102.384C272.096 101.939 271.961 101.558 271.803 101.113C271.495 100.649 271.691 99.7919 270.715 100.067C270.14 99.0545 269.524 98.1277 268.949 97.1148C268.119 96.1923 267.227 95.2925 266.524 94.3248C265.202 92.217 263.312 90.526 261.717 88.6585C259.51 86.0775 257.24 83.5191 254.824 81.1557C254.167 80.3151 254.082 79.2711 254.796 78.6594ZM243.009 91.2288C244.342 89.5377 245.76 87.8876 246.552 85.8871C247.081 84.5535 248.652 84.1381 248.922 82.6816C249.367 82.5234 249.748 82.3877 250.193 82.2295C253.414 83.2324 253.812 83.9501 257.035 87.1724C259.278 89.4539 261.186 91.9982 263.597 94.1483C264.119 94.6074 263.654 95.9184 264.97 95.5934C265.038 95.7842 265.129 96.0384 265.197 96.2292C265.64 97.074 267.081 98.7099 267.598 98.9557C268.563 100.26 269.487 101.65 270.452 102.954C270.424 103.68 271.589 104.339 270.495 105.087C269.701 104.868 268.929 104.712 268.135 104.494C267.945 104.561 267.69 104.652 267.5 104.72C266.566 103.906 265.654 103.156 264.278 103.717C263.417 103.307 262.555 102.897 261.693 102.488C260.037 101.859 258.404 101.294 256.749 100.665C256.346 99.7344 255.805 100.428 255.251 100.482C254.131 99.9492 252.924 99.3757 251.804 98.8431C251.613 98.9109 251.359 99.0014 251.168 99.0692C249.196 97.5505 246.695 97.3656 244.5 96.4276C244.328 96.3456 244.119 96.5632 243.864 96.6536C243.797 96.4629 243.706 96.2086 243.638 96.0179C242.179 94.5318 241.864 92.6387 243.009 91.2288ZM239.707 112.955C239.507 110.377 239.732 107.79 239.745 105.208C239.919 104.287 240.093 103.366 240.203 102.467C240.29 101.505 239.82 100.383 241.046 99.8041C242.018 99.3153 243.058 99.0171 244.133 99.4226C244.836 99.3872 245.563 99.4155 246.266 99.3801C246.869 99.6669 247.386 99.9127 247.99 100.199C249.042 100.541 250.158 100.861 251.211 101.202C252.643 102.412 254.541 102.31 256.155 103.025C256.346 102.957 256.6 102.866 256.791 102.799C257.05 102.922 257.394 103.085 257.653 103.208C258.773 103.741 259.98 104.314 261.1 104.847C264.062 105.727 266.939 106.566 269.901 107.446C270.092 107.378 270.346 107.288 270.537 107.22C270.605 107.411 270.695 107.665 270.763 107.856C269.937 108.15 269.11 108.443 268.22 108.76C267.267 109.099 266.313 109.438 265.359 109.777C264.533 110.071 263.666 110.451 262.817 110.681C261.904 110.934 261.045 111.741 259.984 110.973C259.692 112.366 258.626 111.384 257.991 111.61C254.517 112.917 251.084 114.137 247.587 115.381C246.761 115.675 245.871 115.991 245.045 116.285C244.722 116.185 244.333 115.894 243.992 115.943C241.441 116.421 239.822 115.492 239.707 112.955ZM251.373 131.866C250.864 132.047 250.315 132.314 249.783 132.431C249.443 132.48 248.803 132.493 248.672 132.325C247.661 130.894 246.147 129.857 245.032 128.535C243.392 126.54 243.109 124.134 242.127 121.977C242.014 121.659 242.283 121.205 242.338 120.756C242.924 120.19 243.379 119.455 244.4 119.307C245.399 119.095 246.308 118.629 247.198 118.312C248.26 118.078 249.649 118.157 250.362 117.545C251.326 116.629 252.519 116.563 253.641 116.092C254.74 115.558 255.93 115.279 257.137 114.849C258.345 114.42 259.426 114.035 260.634 113.606C260.956 113.706 261.346 113.997 261.623 113.97C262.853 113.604 264.102 113.089 265.31 112.659C266.963 112.071 268.616 111.484 270.269 110.896C271.349 110.512 271.239 111.41 271.484 111.896C271.166 112.009 270.739 112.018 270.53 112.235C266.767 116.151 263.026 120.131 259.349 124.088C257.039 127.058 254.598 129.859 251.373 131.866ZM272.649 139.338C272.307 140.391 271.987 141.507 271.646 142.559C270.939 144.601 270.898 144.687 268.693 144.325C267.708 144.174 266.683 144.109 265.698 143.958C265.185 143.926 264.713 143.807 264.201 143.775C263.942 143.652 263.597 143.488 263.339 143.365C262.936 142.434 262.395 143.128 261.841 143.181C261.583 143.058 261.238 142.895 260.98 142.772C260.912 142.581 260.821 142.327 260.753 142.136C260.351 141.205 259.81 141.899 259.256 141.952C257.977 140.975 256.635 140.02 255.357 139.042C254.082 138.278 253.944 136.68 253.028 135.717C252.92 135.612 253.102 135.118 253.139 134.818C254.198 133.367 255.434 132.212 256.711 130.97C258.974 128.876 260.889 126.405 262.957 124.166C264.216 123.074 265.107 121.754 265.867 120.267C266.33 119.959 267.188 120.155 266.912 119.179C267.103 119.111 267.357 119.021 267.548 118.953C267.989 118.581 268.643 118.205 268.889 117.688C269.667 116.051 271.706 115.541 272.139 113.74C272.33 113.672 272.584 113.581 272.775 113.514C272.898 113.255 273.062 112.91 273.185 112.652C273.375 112.584 273.63 112.494 273.82 112.426C273.747 113.025 274.787 112.727 274.595 113.798C273.877 117.418 273.631 121.158 273.213 124.815C273.285 125.22 273.444 125.665 273.429 126.028C273.1 127.72 273.157 129.49 273.341 131.215C273.195 131.41 272.922 131.65 272.863 131.886C272.857 132.676 272.915 133.443 272.973 134.21C273.132 134.655 273.267 135.037 273.425 135.482C272.494 135.884 273.188 136.425 273.242 136.979C272.315 137.595 272.182 138.43 272.649 139.338ZM292.935 140.002C293.003 140.192 293.094 140.447 293.161 140.637C292.971 140.705 292.716 140.796 292.526 140.863C292.149 141.212 291.903 141.73 291.417 141.974C287.629 143.607 283.765 144.623 279.645 144.513C279.345 144.476 279.023 144.376 278.723 144.339C278.533 144.407 278.278 144.497 278.088 144.565C277.829 144.442 277.484 144.279 277.226 144.156C275.226 143.363 275.266 143.277 275.119 141.253C274.946 138.951 275.371 136.723 275.669 134.541C275.747 134.155 275.525 133.733 275.516 133.306C275.684 133.175 275.98 132.998 275.934 132.871C275.817 129.117 275.741 125.277 276.349 121.552C276.191 121.107 276.056 120.726 275.897 120.281C276.498 119.351 276.712 118.344 276.264 117.286C277.074 116.138 276.704 114.695 277.041 113.429C277.486 113.271 277.868 113.135 278.313 112.977C278.607 113.803 278.814 114.589 279.172 115.392C279.262 115.647 279.734 115.765 280.079 115.929C280.305 116.565 280.531 117.201 280.757 117.836C281.694 119.866 282.717 121.937 283.653 123.968C283.857 124.54 284.019 125.198 284.286 125.748C284.44 125.979 284.849 126.12 285.193 126.284C285.397 126.857 285.559 127.515 285.826 128.064C285.98 128.296 286.388 128.437 286.733 128.601C287.444 129.996 288.241 131.431 288.951 132.825C290.238 134.229 291.212 135.96 292.626 137.319C293.279 137.946 293.236 139.035 292.935 140.002ZM307.656 129.038C306.558 131.792 304.024 133.123 301.834 134.618C300.276 135.673 299.334 137.655 297.159 137.784C296.969 137.851 296.714 137.942 296.524 138.01C295.559 136.706 294.635 135.316 293.67 134.012C293.189 133.466 293.677 132.219 292.356 132.331C292.198 131.886 292.062 131.504 291.904 131.059C291.645 130.936 291.301 130.772 291.042 130.65C290.974 130.459 290.884 130.205 290.816 130.014C290.114 129.046 289.434 128.142 288.732 127.174C288.732 127.174 288.541 127.242 288.414 127.287C288.211 126.715 288.048 126.057 287.781 125.507C287.627 125.276 287.219 125.134 286.874 124.97C286.648 124.335 286.422 123.699 286.196 123.063C285.767 121.855 285.378 120.561 284.885 119.376C284.795 119.122 284.323 119.003 283.978 118.839C283.752 118.204 283.526 117.568 283.3 116.932C283.142 116.487 283.006 116.106 282.848 115.661C282.486 114.644 282.124 113.626 281.763 112.609C281.401 111.592 282.277 111.639 282.763 111.394C282.831 111.585 282.921 111.839 282.989 112.03C284.046 112.585 285.061 113.227 286.118 113.782C287.456 114.523 288.771 115.201 290.109 115.943C291.642 116.83 293.111 117.74 294.644 118.627C294.993 119.004 295.383 119.295 295.732 119.672C297.265 120.56 298.734 121.469 300.267 122.357C302.249 123.299 304.317 124.282 306.299 125.224C306.48 125.733 306.583 126.627 306.905 126.727C308.344 127.147 307.702 128.163 307.656 129.038ZM312.402 110.164C313.88 111.501 314.441 112.877 313.63 115.027C312.737 117.349 312.897 120.014 311.663 122.386C311.108 123.443 310.391 123.841 309.414 124.116C308.902 124.084 308.43 123.965 307.917 123.933C306.384 123.046 304.915 122.136 303.382 121.249C300.92 119.761 298.498 118.188 296.036 116.7C294.123 114.946 291.732 113.862 289.406 112.756C287.682 111.937 286.063 111.008 284.38 110.103C284.105 109.127 284.962 109.323 285.426 109.015C286.173 110.11 286.833 108.944 287.559 108.973C287.818 109.096 288.162 109.259 288.421 109.382C288.612 109.315 288.866 109.224 289.057 109.156C289.459 110.087 290 109.394 290.554 109.34C290.745 109.272 290.999 109.182 291.19 109.114C293.136 109.353 294.997 109.55 296.954 109.213C297.085 109.381 297.262 109.676 297.325 109.653C298.746 109.22 300.057 109.684 301.446 109.763C302.595 109.57 303.702 109.462 304.851 109.269C305.645 109.488 306.416 109.643 307.21 109.862C307.7 109.831 308.213 109.864 308.767 109.81C309.194 109.801 309.575 109.666 309.979 109.594C310.837 109.79 311.608 109.945 312.402 110.164ZM313.871 98.1843C312.981 98.5008 313.547 99.0871 313.642 99.5547C313.99 100.935 314.378 102.229 314.512 103.613C314.665 104.848 313.806 105.655 313.977 106.74C312.828 106.933 311.721 107.041 310.572 107.234C309.869 107.27 309.143 107.241 308.439 107.277C308.248 107.345 307.994 107.435 307.803 107.503C307.401 106.572 306.86 107.266 306.306 107.319C306.115 107.387 305.861 107.477 305.67 107.545C304.923 106.45 304.263 107.616 303.537 107.588C303.134 106.657 302.593 107.35 302.039 107.404C301.374 106.137 300.446 107.756 299.494 107.092C298.909 106.655 297.765 107.062 296.911 107.079C296.72 107.147 296.466 107.238 296.275 107.305C295.758 107.06 293.58 106.975 292.645 107.164C292.242 106.233 291.701 106.927 291.147 106.981C290.957 107.048 290.702 107.139 290.512 107.207C290.317 107.061 290.076 106.789 289.84 106.729C289.051 106.724 288.284 106.782 287.517 106.839C287.326 106.907 287.072 106.998 286.881 107.066C286.478 106.135 285.937 106.828 285.383 106.882C284.938 107.04 284.557 107.176 284.112 107.334C284.235 107.076 284.399 106.731 284.522 106.472C284.644 106.214 284.808 105.869 284.931 105.61C285.567 105.384 286.203 105.158 286.838 104.932C287.302 104.624 288.159 104.821 287.884 103.844C288.329 103.686 288.71 103.551 289.155 103.392C289.619 103.084 290.476 103.281 290.201 102.305C290.836 102.078 291.472 101.852 292.108 101.626C292.653 101.146 293.901 101.633 293.789 100.312C294.87 99.9282 295.887 99.5665 296.967 99.1822C299.166 98.1141 301.3 97.0686 303.498 96.0006C303.562 95.9779 303.513 95.6375 303.508 95.4242C304.144 95.1981 304.78 94.972 305.415 94.746C306.389 93.2541 308.159 93.1976 309.639 92.5279C309.83 92.4601 310.084 92.3696 310.275 92.3018C312.543 93.6438 313.08 95.9593 313.871 98.1843Z" fill="#DCBF6F"/>
</g>
<defs>
<clipPath id="clip0_888_731">
<rect width="112.475" height="116.793" fill="white" transform="translate(199 86.6841) rotate(-19.5749)"/>
</clipPath>
</defs>
</svg>
