<svg width="72" height="57" viewBox="0 0 72 57" fill="none" xmlns="http://www.w3.org/2000/svg">
<path d="M28.4801 24.0715L38.1111 36.1956C38.1111 36.1956 36.2678 47.5623 29.6083 52.8659C22.9489 58.1717 0 56.6548 0 56.6548C0 56.6548 0.421977 54.0852 1.22151 50.4995L11.7287 38.0434C12.1696 37.5215 11.6321 36.7531 10.9903 36.9885L4.28306 39.4415C5.88657 34.8153 7.9165 30.5533 10.3462 28.6178C17.0057 23.3142 28.4801 24.0715 28.4801 24.0715ZM70.6844 3.44577L68.479 0.669613C67.8694 -0.0966074 66.7556 -0.224311 65.9905 0.385334L40.1744 20.1294L36.3833 15.3577C35.818 14.6459 34.702 14.7792 34.3189 15.6031L31.5061 21.6607L41.1372 33.7848L47.6667 32.4023C48.5551 32.2146 48.9348 31.1585 48.3707 30.4478L44.5852 25.6817L70.4012 5.93766C71.1663 5.32912 71.2941 4.21311 70.6844 3.44577Z" fill="#0A483A"/>
</svg>
