<svg width="26" height="26" viewBox="0 0 26 26" fill="none" xmlns="http://www.w3.org/2000/svg">
<path d="M12.9829 6.32278C9.29957 6.32278 6.32858 9.29378 6.32858 12.9771C6.32858 16.6605 9.29957 19.6315 12.9829 19.6315C16.6663 19.6315 19.6373 16.6605 19.6373 12.9771C19.6373 9.29378 16.6663 6.32278 12.9829 6.32278ZM12.9829 17.3033C10.6026 17.3033 8.65673 15.3632 8.65673 12.9771C8.65673 10.5911 10.5969 8.65094 12.9829 8.65094C15.369 8.65094 17.3091 10.5911 17.3091 12.9771C17.3091 15.3632 15.3632 17.3033 12.9829 17.3033ZM21.4616 6.05059C21.4616 6.91351 20.7666 7.60269 19.9095 7.60269C19.0465 7.60269 18.3574 6.90772 18.3574 6.05059C18.3574 5.19346 19.0523 4.49849 19.9095 4.49849C20.7666 4.49849 21.4616 5.19346 21.4616 6.05059ZM25.8688 7.62585C25.7704 5.54673 25.2955 3.70506 23.7723 2.18771C22.255 0.670357 20.4133 0.19546 18.3342 0.0912149C16.1914 -0.030405 9.76868 -0.030405 7.62585 0.0912149C5.55253 0.189669 3.71085 0.664565 2.18771 2.18192C0.664566 3.69927 0.19546 5.54094 0.0912149 7.62006C-0.030405 9.76289 -0.030405 16.1856 0.0912149 18.3284C0.189669 20.4075 0.664566 22.2492 2.18771 23.7665C3.71085 25.2839 5.54673 25.7588 7.62585 25.863C9.76868 25.9847 16.1914 25.9847 18.3342 25.863C20.4133 25.7646 22.255 25.2897 23.7723 23.7665C25.2897 22.2492 25.7646 20.4075 25.8688 18.3284C25.9905 16.1856 25.9905 9.76868 25.8688 7.62585ZM23.1005 20.6276C22.6488 21.7627 21.7743 22.6372 20.6334 23.0947C18.9249 23.7723 14.8709 23.616 12.9829 23.616C11.0949 23.616 7.03513 23.7665 5.33245 23.0947C4.19733 22.643 3.32283 21.7685 2.86531 20.6276C2.18771 18.9191 2.34408 14.8651 2.34408 12.9771C2.34408 11.0891 2.1935 7.02934 2.86531 5.32666C3.31704 4.19154 4.19154 3.31704 5.33245 2.85951C7.04092 2.18192 11.0949 2.33829 12.9829 2.33829C14.8709 2.33829 18.9307 2.18771 20.6334 2.85951C21.7685 3.31124 22.643 4.18575 23.1005 5.32666C23.7781 7.03513 23.6218 11.0891 23.6218 12.9771C23.6218 14.8651 23.7781 18.9249 23.1005 20.6276Z" fill="white"/>
</svg>
