<svg width="181" height="181" viewBox="0 0 181 181" fill="none" xmlns="http://www.w3.org/2000/svg">
<path d="M89.7043 180.764C98.5761 180.566 107.448 180.764 116.32 180.566C152.793 179.772 179.211 152.781 179.803 116.065C180 99.195 180.197 82.3255 180 65.456C179.409 29.3354 152.596 1.35182 116.517 0.359497C98.379 -0.235898 80.4381 -0.0374328 62.3001 0.557962C28.3899 1.74875 2.16867 27.3507 0.591457 60.6928C-0.197152 80.5393 -0.197152 100.386 0.591457 120.232C1.97152 153.574 28.7842 179.573 62.103 180.764C71.172 181.161 80.4381 180.764 89.7043 180.764Z" fill="white"/>
<path d="M89.7043 180.764C80.4381 180.764 71.3691 180.963 62.103 180.764C28.7842 179.573 1.97152 153.575 0.591457 120.232C-0.197152 100.386 -0.197152 80.5395 0.591457 60.693C2.16867 27.3509 28.3899 1.7489 62.3001 0.558108C80.4381 -0.0372864 98.379 -0.0372864 116.517 0.359643C152.596 1.35197 179.409 29.3355 179.803 65.4561C180 82.3257 180 99.1952 179.606 116.065C179.211 152.979 152.793 179.772 116.32 180.566C107.448 180.963 98.5761 180.764 89.7043 180.764ZM166.988 91.2566H167.185C167.185 81.9287 167.382 72.7993 167.185 63.4715C166.199 35.6864 145.301 13.8553 117.7 12.8629C98.9704 12.2675 80.241 12.2675 61.5115 13.2599C33.713 14.4507 13.2092 36.2818 12.8149 64.2654C12.4206 81.7303 12.4206 99.3936 12.6177 116.859C13.012 144.445 34.8959 167.666 62.3001 168.459C81.0296 169.055 99.759 169.055 118.488 168.261C145.104 167.269 165.805 146.033 166.988 119.042C167.382 109.912 166.988 100.584 166.988 91.2566Z" fill="#0A483A"/>
<path d="M166.988 91.2564C166.988 100.584 167.382 109.714 166.988 119.042C165.805 146.033 145.104 167.269 118.489 168.261C99.7591 168.856 81.0296 169.055 62.3002 168.459C34.896 167.665 12.8149 144.445 12.6178 116.858C12.4206 99.3935 12.6178 81.7301 12.8149 64.2652C13.2093 36.2817 33.7131 14.4505 61.5115 13.2597C80.241 12.4659 98.9705 12.2674 117.7 12.8628C145.301 13.8551 166.199 35.6863 167.185 63.4713C167.579 72.7992 167.185 81.9286 167.185 91.2564C167.185 91.2564 167.185 91.2564 166.988 91.2564ZM89.1129 148.613C96.999 148.414 104.885 148.613 112.771 148.414C132.486 147.819 146.09 134.125 146.484 114.477C146.878 99.3935 146.878 84.1117 146.681 68.8299C146.484 49.7773 132.684 35.2893 113.954 34.6939C98.5762 34.0985 83.1983 34.0985 67.6233 34.6939C46.3308 35.6863 33.9102 48.9834 33.3188 70.4176C32.9245 85.3025 32.9245 100.187 33.3188 115.072C33.7131 134.522 48.3024 148.414 67.4261 148.811C74.7207 148.811 81.8182 148.613 89.1129 148.613Z" fill="white"/>
<path d="M89.1128 148.613C81.8181 148.613 74.7207 148.811 67.426 148.613C48.3023 148.216 33.713 134.125 33.3187 114.874C32.9244 99.9891 32.9244 85.1042 33.3187 70.2193C33.9101 48.7851 46.5279 35.6864 67.6232 34.6941C83.001 34.0987 98.3789 34.0987 113.954 34.6941C132.683 35.2895 146.287 49.7774 146.681 68.8301C146.878 84.1119 146.878 99.1952 146.484 114.477C146.09 134.323 132.289 147.819 112.771 148.415C104.885 148.811 96.9989 148.613 89.1128 148.613ZM43.9649 91.4551C43.7677 98.7983 43.7677 105.943 43.7677 113.286C43.7677 127.179 52.8368 137.697 66.4403 138.094C81.8181 138.69 97.196 138.491 112.771 137.896C126.375 137.3 135.049 129.163 135.838 115.668C136.626 99.5921 136.626 83.318 136.035 67.2424C135.444 55.3345 125.783 45.8081 114.348 45.4112C98.3789 45.0143 82.2124 45.0143 66.046 45.6097C53.2311 46.0066 44.7535 54.9375 43.9649 67.8378C43.5706 75.5779 43.9649 83.5165 43.9649 91.4551Z" fill="#0A483A"/>
<path d="M43.965 91.455C43.965 83.5164 43.5707 75.5778 43.965 67.6392C44.7536 54.739 53.2311 45.8081 66.046 45.4111C82.0154 44.8157 98.1818 44.8157 114.348 45.2127C125.586 45.4111 135.444 55.1359 136.035 67.0438C136.824 83.1195 136.627 99.3936 135.838 115.469C135.246 128.965 126.375 137.3 112.771 137.697C97.3932 138.293 82.0154 138.491 66.4403 137.896C52.8368 137.499 43.7678 126.98 43.7678 113.088C43.7678 105.943 43.7678 98.7982 43.965 91.455ZM118.094 92.6458C118.291 76.7686 106.265 64.0668 90.6901 63.8684C75.7065 63.6699 62.4973 76.1732 62.4973 90.8596C62.4973 106.935 74.3264 119.24 89.9014 119.637C105.082 119.835 117.897 107.531 118.094 92.6458ZM119.671 70.2193C122.629 66.6469 125.98 64.2653 125.783 62.0822C125.783 59.8991 122.432 57.716 120.46 55.5328C118.094 57.716 114.545 59.3037 113.954 61.8837C113.56 63.4714 116.911 66.4484 119.671 70.2193Z" fill="white"/>
<path d="M118.094 92.6457C117.897 107.729 105.082 120.034 89.9015 119.637C74.1293 119.24 62.3001 106.935 62.4973 90.8595C62.4973 76.1731 75.7065 63.6698 90.6901 63.8683C106.265 63.8683 118.291 76.5701 118.094 92.6457ZM108.434 91.058C108.237 81.9286 99.5619 73.3946 90.4929 73.3946C80.8325 73.3946 71.9606 82.1271 72.1578 91.6534C72.3549 101.378 80.8325 109.714 90.6901 109.714C100.745 109.515 108.631 101.18 108.434 91.058Z" fill="#0A483A"/>
<path d="M119.671 70.2191C116.911 66.4483 113.363 63.4713 113.954 61.8836C114.743 59.3035 118.291 57.5174 120.46 55.5327C122.432 57.7158 125.783 59.8989 125.783 62.0821C125.98 64.2652 122.629 66.4483 119.671 70.2191Z" fill="#0A483A"/>
<path d="M108.434 91.0582C108.631 101.18 100.745 109.714 90.6901 109.714C80.8325 109.714 72.3549 101.378 72.1578 91.6536C71.9606 82.1272 80.8325 73.3948 90.4929 73.3948C99.5619 73.3948 108.237 81.9288 108.434 91.0582Z" fill="white"/>
</svg>
