<svg id="Layer_1" data-name="Layer 1" xmlns="http://www.w3.org/2000/svg" viewBox="0 0 396.16 238.48"><title>HOJAS</title><path d="M72.92,193.83c-.88-1-1.79-2.05-2.61-3.13s-.53-1.57.85-1.92c1.78-.45,3.41-1.53,5.19-1.88s3.71-.08,5.61-1c3.19-1.51,6.82-2.11,9.93-3.73,2.79-1.46,6.17-1.05,8.69-3.27.54-.47,1.21-.46,1.36-1.48.36-2.37-.67-4.44-1.49-6.41a20.41,20.41,0,0,1-1.61-7.85c0-2,.51-4.09-.82-6.15a5,5,0,0,1,0-4.37c1.9-3.42-.33-7.46,1.89-10.72-.6-3.48,1.12-6.49,2-9.66a6.31,6.31,0,0,1,1-2.07c2-2.63,2.74-5.87,4.5-8.68s4-5.26,5.48-8.19a20.13,20.13,0,0,1,5-5.9c2-1.74,3.38-4,5.5-5.71,4.43-3.58,8.47-7.65,12.66-11.52.13-.11.22-.28.36-.34a59.8,59.8,0,0,0,5.44-2.52c1.63-1,2.92-2.92,4.61-3.28a6.78,6.78,0,0,0,3.71-2c.35-.36.65-.85,1.07-1,2.26-1,4.71-1.63,6.77-2.92a23.49,23.49,0,0,1,6.66-3.28,14.28,14.28,0,0,0,3.32-1.6,103.86,103.86,0,0,1,20-8.37,9.45,9.45,0,0,0,2.08-1c6.52-4,13.74-6.46,21-8.46,6.88-1.91,13.32-5.06,20.3-6.55,1-1.9,3-1,4.43-1.27,5.09-.9,9.65-3.91,15-3.7,3.35-1.81,7.62-.38,10.74-3,3,.7,5.67-1,8.58-1.06,2.37-.06,4.72-.67,7.08-.92a36.43,36.43,0,0,0,6.64-.83c2.77-.8,6-.39,8.93-.13s5.82-1,8.65.84c.92.62,2.6.17,3.93.09,3.73-.23,7.19.84,10.78,1.66,3.34.76,6.71,1.47,10.07,2.21a70.7,70.7,0,0,1,11.51,3.65c4.84,2,9.63,4.13,14.27,6.54a73.19,73.19,0,0,1,11.55,7c4.87,3.81,10.43,6.67,14.85,11.06,2.49.49,3.41,3.27,5.86,4a4.62,4.62,0,0,1,2.41,2.43c.48,1-.69,2.18-.78,3.06-.46,4.89-2.6,9.37-3.2,14.22-.28,2.27-2,4.23-1.95,6.67-2.38,1.85-2.08,4.89-2.78,7.32s-3.05,4.66-2.2,7.61c-2.07,1.7-1.69,4.6-3.38,6.64-1.27,1.56-1.95,3.8-2.76,5.81-1.49,3.7-3.8,7.09-5.85,10.56-1.26,2.15-2.64,4.24-4,6.34-1,1.55-3.16,2.37-3,4.67-2.15.63-2.42,3.14-4.16,4.18-2,1.22-2.95,3.49-4.68,5.07-1.44,1.3-2.78,3.11-4.24,4.41-3.63,3.22-7.77,5.86-11.62,8.86s-8.61,4.68-12.06,8.27c-.23.24-.43.57-.72.69-1.5.62-3.42.57-4.43,1.94-1.14,1.56-2.62,1.74-4.27,2.22-1,.28-3.12.27-2.93,2.45,0,.1-.85.24-1.28.4-4.6,1.8-8.4,5.22-13.35,6.39-1.59.38-3,1.63-4.39,2.62-4.1,2.93-9,4.06-13.59,5.79-6,2.28-12,4.78-18.23,6.66-4.3,1.31-8.32,3.6-13,3.6-1.29,0-2.57,1-3.89,1.38A47.35,47.35,0,0,1,233,217c-3.22.54-6.7.3-9.66,1.89s-6.17.9-9.24,1.77c-3.58,1-7.49,1-11.12,2.17a4.08,4.08,0,0,1-1,0c-5,.33-10,.84-15.07.88-1.18,0-1.89,1.48-3.36.51-.94-.62-2.53-.46-3.8-.34s-2.38.69-3.6.92c-.61.12-1.58.21-1.89-.14-1.24-1.4-2.78-.72-4.18-.8-2.16-.12-4.38.24-6.48-.1a40.32,40.32,0,0,0-6.59-1c-2,0-4.4-.06-6-1.07-1.87-1.18-4.29,0-5.75-1.86-2.91,1.21-4.35-2.24-7.17-2.18-2.11.05-4.3-1.5-6.37-2.5a63.19,63.19,0,0,1-6.53-3.54c-3.35-2.15-10.72-10.19-13.36-13.66-2.19-2.89-3.67-6.16-5.52-9.22-1.63-2.69-3-3.58-5.73-2.84a36.51,36.51,0,0,0-4.68,2c-.47-1.93-2-.62-3-1a4.58,4.58,0,0,1,4-2,27.12,27.12,0,0,0,3-1c1-.45,2.18-.58,2.67-1.76-1.11,0-3-.42-3.19,0-.76,1.72-3.23-.31-3.52,1.82a11,11,0,0,0-5.41,1.9c-.77.55-2.35-.75-2.59,1.1-3.24.64-6.21,2.48-9.67,2.21-.08,0-.21.51-.32.79-.79,0-2-.3-2.28.06a9.13,9.13,0,0,0-.72,2.94C73.09,191.81,73,191.86,72.92,193.83Zm36-15,1.73.23c-.24.44-.5.86-.72,1.31-.06.12,0,.3,0,.45-1.81.46-1.08,1.77-.76,2.7.82,2.32,2.19,4.5,2.66,6.87.57,2.88,2.67,4.72,4.22,6.72a44.41,44.41,0,0,0,13,11.65,101.39,101.39,0,0,0,12.1,5.74,63,63,0,0,0,16.22,4.13c5.63.62,11.28,1.68,17.05,1.24,4.47-.34,9-.12,13.48,0s8.64-1.69,13.08-1c.32.05.78.15,1,0,1.69-1.39,3.88-.42,5.54-1.1,1.91-.78,3.86-.4,5.61-1,3.9-1.24,8.16-.73,11.91-2.58a8.4,8.4,0,0,1,1.86-.34c4.88-1.06,9.78-2.09,14.64-3.24,1.79-.43,3.87-.74,5.18-1.85,2-1.7,4.29-.66,6.41-1.5,5.43-2.15,11-3.95,16.37-6.32,3.94-1.73,8.3-2.48,12.27-4.15s7.94-4.09,12-6c2.81-1.29,5.28-3.39,8.15-4.44A42.75,42.75,0,0,0,308,183c.56-.31,1-1.14,1.51-1.14,3,0,4.36-3.08,7.09-3.44,3.91-3.47,8.65-5.74,12.82-8.83a172.62,172.62,0,0,0,15.33-12.4c6.82-6.38,11.94-14.15,16.83-22a49.56,49.56,0,0,0,4-7.34,67.84,67.84,0,0,1,4-8.34c1.57-2.72,2.06-5.81,3.12-8.7,1.93-5.22,4.17-10.34,5-15.9,1.77-1.67.15-4.3,1.44-5.87,1.63-2,1.33-4.44,2.28-6.58.73-1.64,1.15-4.37-1-5.25-3.82-1.55-6.56-4.51-9.56-6.95-6.88-5.6-14.55-9.87-22.1-14.32a85.06,85.06,0,0,0-19.63-8.07c-3.26-.95-6.47-2.09-9.76-2.95-1.39-.36-3.27.28-4.28-.44-1.4-1-3.29.22-4.06-1-1.2-1.88-2.26.59-3.64-.29-1.75-1.14-4.36.33-6.32-1.1-.88,2.29-2.65-1.05-4,.67-.54.71-2.51-1.85-4-.06-1.05-1.2-2.14-1.08-3.43-.28-.92.57-2-1.58-3.12.14-.86,1.36-2.12-1.51-3.09.13-3.23-.09-6.34.77-9.51,1.15-3.68.45-7.38.68-11.07,1-.43,0-.8.49-1.24.61-4.35,1.18-8.94,1.42-13.09,3.36a1.2,1.2,0,0,1-.5,0c-5.35-.31-9.88,2.84-15.07,3.54-4.19.56-8.23,2.51-12.24,4.1s-8.2,2.68-12.27,4.14c-4.22,1.51-8.23,3.5-12.37,5.09a269.72,269.72,0,0,0-27.19,11.55c-2.33,1.19-4.91,1.93-7.12,3.28a41.43,41.43,0,0,1-4.49,2.45A84.48,84.48,0,0,0,145.76,89c-2.62,1.72-5.5,3-7.9,5.23-2.71,2.51-5.46,5-8.37,7.32-1.22,1-2.9,1.67-3.53,3-.8,1.76-2.82,1.79-3.72,3.36a37.73,37.73,0,0,1-3.42,4.49c-1.4,1.76-3,3.41-4.2,5.27-2.34,3.5-4.92,6.94-6.55,10.77-.75,1.78-1.51,3.7-2.2,5.58-.76,2-.93,4.21-1.78,6.26s-.9,4.31-1.18,6.5-1,4.77-.44,6.87c.36,1.34-.61,2.47-.35,2.72,1.2,1.17.71,2.49.75,3.74A39.75,39.75,0,0,0,105,171.74C105.87,174.21,105.65,177.57,108.89,178.84Z" style="fill:#aeaeae"/><path d="M92.9,58.9c2.35,1.08,2.16,3.74,2.78,5.53,1.31,3.84,1.68,8,2.16,12.09.26,2.22,1.42,4.18,1.17,6.58-.21,2-.93,4.25.69,6.18.22.26-.28,1.08-.35,1.66-.11.9-.52,2-.12,2.66a5.92,5.92,0,0,1,.48,5.63c-1.26,2.32-.91,4.55-.7,6.67.32,3.19-1.16,6-1.11,9.09,0,2.89-1.38,5.52-1.71,8.24-.8,6.59-3,12.71-5.35,18.8-1.59,4.16-3.78,8.09-5.76,12.1-.17.35-.77.48-1.17.72v-1C86.68,148,89.63,142.3,91.44,136c1.64-5.67,2.56-11.51,4.46-17.1-.72-2.82,1.14-5.33,1-8.07s.57-5.4.88-8.09a86.22,86.22,0,0,0,.09-13c-.17-4.19-1.52-8.3-1-12.56-1.62-2.13-.6-4.7-1.2-7-.89-3.45-1.86-6.87-2.8-10.31Z" style="fill:#b2b2b2"/><path d="M54.93,183.83c0-2-.13-4,0-5.91s.7-3.66.93-5.51c.19-1.5.15-2.4-2.1-2.76-2.65-.42-5.86-.22-7.86-2.81h1c1.16,0,2.77-.49,3.4.09,1.8,1.67,3.8.53,5.65.89.24,0,.55-.24.83-.37a3.17,3.17,0,0,0-.49-.69c-.79-.66-1.6-1.28-2.4-1.92v-1c2.88,1.54,3,1.51,3-1.2,0-1.94-.1-3.89,0-5.81a12.93,12.93,0,0,1,1-3h1c0,2.11,0,4.22,0,6.33,0,3,0,3,3.51,2.67a3.85,3.85,0,0,1,.48,0l1,1c-1.69.34-3.39.63-5.07,1a1.38,1.38,0,0,0-.88.85c-.07.61-.08,1.63.26,1.82,1.06.59,2.67,1.58,3.38,1.18,2.67-1.51,6.14,0,8.49-2.49.35-.37,1.2-.27,1.82-.39l1,1a23.23,23.23,0,0,1-11.22,3c-3.76,0-3.76,0-3.77,4v2h-1c-.34.42-.93.83-1,1.27-.11,1.81,0,3.64-.09,5.45C55.86,183,55.26,183.41,54.93,183.83Z" style="fill:#b5b5b5"/><path d="M25,142.85c-.24-1.53.38-3.06-.88-4.62-.87-1.08.52-3.12-.76-4.61-.43-.51-.34-1.53-.34-2.31q0-16.34,0-32.66c0-.72-.37-1.76,1-1.77.15.76-.49,1.91,1,2-.44,5.48.38,11-.77,16.52-.82,3.93.44,8.29.77,12.46,0,2.15.08,4.31,0,6.46s1.75,4.19,1,6.54C25.8,141.61,26.45,142.77,25,142.85Z" style="fill:#b8b8b8"/><path d="M92.9,186.83c1,.38,2.53-.93,3,1-5.47,2-10.89,4.17-16.44,5.91-2.06.65-3.65,2.58-6.09,2.16-.43-.07-.93.31-1.4.48.2-.57.39-1.14.6-1.7.1-.29.23-.57.35-.85.07-2,.17-2,2-1h1l1-1c.61-.11,1.23-.18,1.83-.34s1.45-.44,2.17-.66a27.29,27.29,0,0,1,8-3A5.34,5.34,0,0,1,92.9,186.83Z" style="fill:#acacac"/><path d="M25,98.88c-1.49-.09-.85-1.24-1-2a49.63,49.63,0,0,1,.83-9.6c.7-3,.94-6.16,2.11-9.13.4-1,0-2.31.11-3.47,0-.29.62-.53.95-.79v2c-.33,3.66-.67,7.33-1,11-.28.12-.8.24-.8.34C26.43,91.17,25.1,95,25,98.88Z" style="fill:#b6b6b6"/><path d="M38.94,49.9c.23-.72.24-1.68.72-2.14,4.27-4.12,7.93-8.93,13.27-11.85l1,1c-5.57,3.36-9.88,8.07-14,13Z" style="fill:#b7b7b7"/><path d="M28,75.89v-2c-.46-3.55,1.58-6.51,2.37-9.77C30.83,62,32.05,60,33,57.9l1,1a1.34,1.34,0,0,1,0,.49,111.31,111.31,0,0,0-5.51,16.5A2.41,2.41,0,0,1,28,75.89Z" style="fill:#b6b6b6"/><path d="M56.93,32.91c2.67-1.73,6-2.3,8.3-4.72.23-.24,1.25-.1,1.59.2a22.26,22.26,0,0,1,2.1,2.52h-1c-1.17-.45-2-1.63-3.62-.11s-4.21,2.11-6.37,3.11Z" style="fill:#b4b4b4"/><path d="M83.91,153.85v1c0,.32.14.77,0,1-2.35,2.67-3.63,6.26-7,8l-1-1C79.31,160.5,80.94,156.58,83.91,153.85Z" style="fill:#b6b6b6"/><path d="M34,58.9l-1-1c1-1.55,2.29-3,2.91-4.67a5.88,5.88,0,0,1,3.08-3.33h1C37.8,52.81,36.21,56.08,34,58.9Z" style="fill:#bababa"/><path d="M76.91,36.91C79.14,39,81.4,41,83.56,43.13c.35.35.24,1.17.35,1.78l-8-8Z" style="fill:#b2b2b2"/><path d="M25,142.85c1.5-.08.85-1.24,1-2,.34.23.86.41,1,.72.73,2.07,1.36,4.18,2,6.27l-1,1c-1.64-.42-1.26-2.12-1.95-3.14A12.19,12.19,0,0,1,25,142.85Z" style="fill:#bebebe"/><path d="M33,156.85c-2.23-1.82-4.12-3.84-4-7h1l4,7Z" style="fill:#b7b7b7"/><path d="M33,156.85h1l5,5v1c-1.85.45-2.6-1.08-3.54-2.1S32.51,158.92,33,156.85Z" style="fill:#afafaf"/><path d="M92.9,58.9v1c-1.55-1.72-2.89-3.56-3-6l1-1C91.6,54.89,93.37,56.52,92.9,58.9Z" style="fill:#b6b6b6"/><path d="M54.93,183.83c.33-.42.93-.83,1-1.27.11-1.81,0-3.64.09-5.45,0-.44.62-.85,1-1.27v7c.3,1.64-.37,2.3-2,2Z" style="fill:#ccc"/><path d="M67.92,30.91h1c2.72,0,3.69,2.21,5,4h-1l-2.61-2.1C69.52,32.17,68.72,31.55,67.92,30.91Z" style="fill:#b8b8b8"/><path d="M56.93,32.91l1,1-4,3-1-1C53.44,33.82,55.63,34,56.93,32.91Z" style="fill:#c3c3c3"/><path d="M75.91,162.84l1,1-4,3-1-1Z" style="fill:#c2c2c2"/><path d="M90.9,52.9l-1,1-3-4,1-1Z" style="fill:silver"/><ellipse cx="57.43" cy="179.33" rx="0.71" ry="4.95" style="fill:#aaa"/><path d="M46.94,166.84h-1c-1.71.08-3.44.21-4-2h1A4.6,4.6,0,0,1,46.94,166.84Z" style="fill:#b8b8b8"/><path d="M87.9,48.9l-1,1-3-4h1Z" style="fill:#b7b7b7"/><path d="M56.93,182.83h1c-.09.92,0,2.55-.3,2.63a13.08,13.08,0,0,1-3.54,0l.84-.66C56.56,185.13,57.23,184.47,56.93,182.83Z" style="fill:#b5b5b5"/><path d="M72.92,34.91h1a2.46,2.46,0,0,1,3,2h-1A2.45,2.45,0,0,1,72.92,34.91Z" style="fill:#c1c1c1"/><path d="M42.94,164.84h-1a2.46,2.46,0,0,1-3-2v-1Z" style="fill:#b9b9b9"/><path d="M30,149.85H29l-1-1,1-1Z" style="fill:#bbb"/><path d="M84.91,45.91h-1v-1Z" style="fill:#afafaf"/><path d="M108.89,178.84c-3.24-1.27-3-4.63-3.87-7.1a39.75,39.75,0,0,1-2.15-11.61c0-1.25.45-2.57-.75-3.74-.26-.25.71-1.38.35-2.72-.56-2.1.15-4.57.44-6.87s.35-4.51,1.18-6.5,1-4.22,1.78-6.26c.69-1.88,1.45-3.8,2.2-5.58,1.63-3.83,4.21-7.27,6.55-10.77,1.24-1.86,2.8-3.51,4.2-5.27a37.73,37.73,0,0,0,3.42-4.49c.9-1.57,2.92-1.6,3.72-3.36.63-1.37,2.31-2.08,3.53-3,2.91-2.28,5.66-4.81,8.37-7.32,2.4-2.22,5.28-3.51,7.9-5.23a84.48,84.48,0,0,1,11.51-5.93,41.43,41.43,0,0,0,4.49-2.45c2.21-1.35,4.79-2.09,7.12-3.28a269.72,269.72,0,0,1,27.19-11.55c4.14-1.59,8.15-3.58,12.37-5.09,4.07-1.46,8.25-2.53,12.27-4.14s8-3.54,12.24-4.1c5.19-.7,9.72-3.85,15.07-3.54a1.2,1.2,0,0,0,.5,0c4.15-1.94,8.74-2.18,13.09-3.36.44-.12.81-.57,1.24-.61,3.69-.37,7.39-.6,11.07-1,3.17-.38,6.28-1.24,9.51-1.15,1-1.64,2.23,1.23,3.09-.13,1.08-1.72,2.2.43,3.12-.14,1.29-.8,2.38-.92,3.43.28,1.45-1.79,3.42.77,4,.06,1.34-1.72,3.11,1.62,4-.67,2,1.43,4.57,0,6.32,1.1,1.38.88,2.44-1.59,3.64.29.77,1.21,2.66,0,4.06,1,1,.72,2.89.08,4.28.44,3.29.86,6.5,2,9.76,2.95A85.06,85.06,0,0,1,348.71,56c7.55,4.45,15.22,8.72,22.1,14.32,3,2.44,5.74,5.4,9.56,6.95,2.18.88,1.76,3.61,1,5.25-.95,2.14-.65,4.6-2.28,6.58-1.29,1.57.33,4.2-1.44,5.87-.86,5.56-3.1,10.68-5,15.9-1.06,2.89-1.55,6-3.12,8.7a67.84,67.84,0,0,0-4,8.34,49.56,49.56,0,0,1-4,7.34c-4.89,7.85-10,15.62-16.83,22a172.62,172.62,0,0,1-15.33,12.4c-4.17,3.09-8.91,5.36-12.82,8.83-2.73.36-4.13,3.45-7.09,3.44-.5,0-.95.83-1.51,1.14a42.75,42.75,0,0,1-6.12,3.31c-2.87,1-5.34,3.15-8.15,4.44-4.07,1.88-7.9,4.25-12,6s-8.33,2.42-12.27,4.15c-5.37,2.37-10.94,4.17-16.37,6.32-2.12.84-4.42-.2-6.41,1.5-1.31,1.11-3.39,1.42-5.18,1.85-4.86,1.15-9.76,2.18-14.64,3.24a8.4,8.4,0,0,0-1.86.34c-3.75,1.85-8,1.34-11.91,2.58-1.75.56-3.7.18-5.61,1-1.66.68-3.85-.29-5.54,1.1-.2.17-.66.07-1,0-4.44-.67-8.68,1.09-13.08,1s-9-.29-13.48,0c-5.77.44-11.42-.62-17.05-1.24a63,63,0,0,1-16.22-4.13,101.39,101.39,0,0,1-12.1-5.74,44.41,44.41,0,0,1-13-11.65c-1.55-2-3.65-3.84-4.22-6.72-.47-2.37-1.84-4.55-2.66-6.87-.32-.93-1-2.24.76-2.7.75-.15,1.91.5,2-1,1.48,0,2.82,0,3.93,1.38,2.59,3.28,5.36,6.42,8.06,9.62.93,1.1,1.89,2.19,2.8,3.32s1.77,3.29,2.91,3.49c2.1.37,1.14,2.44,2.59,3.21s2.15,2.67,3.25,4a1.37,1.37,0,0,0,2.41-.57,2.82,2.82,0,0,0-1-3.06c-1.55-1.17-2.46-3-3.91-4.27s-2.36-3-3.77-4.27-1.13-3.49-3.27-3.86c-2.36-3.19-4.59-6.48-7.6-9.14-.72-.64-.63-1.33.32-1.87,1.38-.78,3.26-.47,4.29-2,5.83-2,11.7-3.88,17.47-6,3.49-1.31,3.57-1.64,5.79.9,2.53,2.87,4.79,6,7.09,9s4.57,5.67,6.82,8.52,4.17,6,6.72,8.71c3.84,4.08,7.15,8.65,10.72,13,.33.4.77,1.26,1.38.3a7.19,7.19,0,0,0,.81-2.06c0-.16-.4-.51-.67-.68-3.08-2-3.62-6.26-7-8-.26-2.83-3-4-4.26-6.13-1.39-2.32-3.47-4.22-5.19-6.35a29.25,29.25,0,0,0-2.53-3.41c-1.1-1-1.15-3-3.07-3.17.1-2.62-2.53-3.48-3.57-5.42s-2.94-3.8-4.5-5.63c-1.33-1.57-1.1-3,.87-3.52,8.05-2.19,15.5-6.12,23.62-8.07,1.15-1.57,2.15-1,3.12.21,1.1,1.38,2.25,2.72,3.32,4.12s2,3.68,3.47,4.43c1.77.88,2.17,2.55,3.29,3.72s2.28,2.58,3.33,3.95c5.34,7,10.93,13.82,16.48,20.66,2,2.49,4.23,4.83,6.27,7.31,1.63,2,1.8,2.1,3.42.83.45-.35,1.22-.8,0-1.24a3,3,0,0,1-1.22-1c-3.07-4.07-6.49-7.85-9.57-11.91-3.22-4.23-7.27-7.89-10-12.38-1.62-2.66-4.3-4.17-5.66-7.1s-4.14-4.92-6.15-7.46c-1.65-2.09-3.06-4.37-4.58-6.57,2.32-.83,4.65-1.62,7-2.49,4.32-1.64,8.6-3.37,12.92-5,3.9-1.44,7.84-2.76,11.74-4.2.49-.17.71-1.07,1.44-.24,1.93,2.21,3.87,4.43,5.92,6.53,2.94,3,6,5.94,9,8.9a2.87,2.87,0,0,0,1,2.57c4.6,4.82,9.13,9.71,13.65,14.61a23.65,23.65,0,0,1,3.27,4c1.13,1.95,3.05,3.15,4.25,5.15a15.83,15.83,0,0,0,4.79,4.62l1,1,.76,1,1.24-1c.34-.42,1-.88.94-1.25-.16-1.2-1.23-.61-1.94-.75.73-2-1.6-1.72-1.9-2.59-.93-2.71-3.48-3.83-5.07-5.85s-3.42-4.25-5.26-6.27c-4-4.44-8.14-8.81-12.18-13.25-.39-.43-.34-1.3-.76-1.63s-1.19-.28-1.81-.39c-.11-.62,0-1.43-.38-1.82-4-4.47-8.14-8.89-12.24-13.3-1.37-1.47-1.27-2.36.57-2.85a42,42,0,0,0,7.37-2.69c3-1.47,6.39-2.18,9.57-3.35,4.32-1.59,8.6-3.29,12.88-5,1.67-.66,3.84-.53,4.62,1.09s2.77,1.85,2.87,3.7c1.93,0,1.79,2.77,3.72,2.77.32,1.7,2,2.33,2.87,3.69.94,1.51,2.51,2.63,3.8,3.93l3.88,3.87,4.22,4.23,4.22,4.24c-.62,2.63,3.41,1.72,3.12,4.1,1.88,0,1.72,1.95,2.75,2.77s2.08,1.73,3.12,2.6l1,1,1,1,1,1,1,1,1,1,1,1,1,1,.76,1,1.24-1v-1l-1-1-1-1-1-1c.31-1.64-.36-2.3-2-2v-1c-.09-1.49-1.24-.85-2-1,.3-1.63-.37-2.3-2-2,0-.49.16-1.35,0-1.43-3.22-1.48-5-4.29-7-7a52.18,52.18,0,0,0-5.21-5.31c-1.76-1.76-3.57-3.46-5.26-5.29s-4.06-3.28-4.92-5.9c-2.87,0-2.71-3.56-5.13-4.23-.76-.21-.45-2-2.06-2.09-.54,0-1-1.39-2-2.05-2-1.42-1.46-2.88,1-3.71,1.74-.59,3.44-1.3,5.14-2,5.11-2.06,10.45-3.51,15.4-6,4.9-1.23,4.9-1.23,9,1a8.71,8.71,0,0,0,1.43,1.88c2.14,1.6,4.39,3,6.55,4.62,1.67,1.22,3.26,2.56,4.88,3.86,1.47,1.2,3,2.39,4.38,3.64s2.54,2.6,4,3.66,3.64.89,4.08,3.15a86.83,86.83,0,0,1,14.3,11.25,6.59,6.59,0,0,0,2.4,1.38,1.5,1.5,0,0,0,1.35-.42,2.13,2.13,0,0,0,.43-1.64,3.93,3.93,0,0,0-1.36-1.43c-3.12-2.48-6.07-5.24-9.45-7.31-2.56-1.57-4.18-4.1-6.63-5.61-6.28-3.88-11.64-8.89-17.33-13.51-1.82-1.48-3.51-3.19-6-3.52-.57-.74-1.1-1.52-1.73-2.21-1.28-1.42-1.14-2.29.7-2.77,2.79-.72,5.33-2.07,8-3,1.89-.67,3.8-1.28,5.66-2,2.44-1,4.87-1.92,7.25-3s5.5-.2,7.4-2.72c.17-.22,1.11,0,1.65.23,4.77,1.55,7.49,6.16,12,8.09.06,0-.07.39,0,.47,1.74,1.58,3.27,3.75,5.34,4.56s3.5,2.59,5.35,3.71c2.18,1.33,4,3.29,6,4.86,2.25,1.72,4.61,3.32,6.93,4.95.39.28.77,1.35,1.31.23a11.27,11.27,0,0,0,.54-2.36c-1.51.37-1.18-1.12-1.76-1.65a30.23,30.23,0,0,0-4.58-3.35,105.07,105.07,0,0,1-11.1-8.26,64.73,64.73,0,0,0-7.5-5.87c-2.87-1.74-5.2-4.37-7.78-6.6-.95-.82-.83-1.07.42-1.31,2-.38,4.26-.53,5.77-1.64,1.76-1.3,3.8-1.37,5.57-2.32,2.1-1.12,4.85-.83,6.46-3,3.42.78,5.86-2,9-2.46.57-.08,1.46-.54,1.65-.33,1.73,2,4.54,2.65,6.09,4.35s3.66,2.56,5.35,4c2,1.66,3.94,3.31,5.94,4.92a2.08,2.08,0,0,0,1.27.49,3.81,3.81,0,0,0,1.69-.59,1.77,1.77,0,0,0-.39-1.25c-1.57-1.35-3.32-2.51-4.83-3.92a58.81,58.81,0,0,0-11.06-8.22,1.46,1.46,0,0,1-.62-1.1c0-.31.51-.7.87-.85.71-.3,1.49-.41,2.21-.68,4.92-1.77,9.83-3.54,14.72-5.37a1.88,1.88,0,0,0,1.08-1.15c.19-1,.14-1.72-1.39-1.91-2.5-.29-4.05,1.57-6.13,2.18-4.72,1.37-9.3,3.18-13.89,5-.84.33-1.52,1.75-1.52-.42a7.89,7.89,0,0,1,0-2.48,90.24,90.24,0,0,0,3.14-13.67c.14-.77.91-1.63.81-2.63-.08-.71.41-1.81-.94-1.82-.87,0-1.92-.46-2.11,1.21-.23,2-1.42,3.92-.94,6.07-2.19,1.57-.33,4.21-1.79,6.29-1.21,1.74-.81,4.59-1.24,6.92a4.66,4.66,0,0,1-1.06,2A9.75,9.75,0,0,1,341.18,92c-2.22.77-4.86.76-6.47,2.92A36.47,36.47,0,0,0,329.17,96a80.79,80.79,0,0,0-10.2,4.28c-1.34.71-2.52.35-3.75.6.17-1,.29-1.93.52-2.88.28-1.2,1-2.4.93-3.58-.24-5,2.93-9.56,2.05-14.66,2.1-4.34,1.6-9.29,3.12-13.71a22,22,0,0,0,.84-7.12,1.23,1.23,0,0,0-.74-1,1.38,1.38,0,0,0-1.18.52c-1.29,2.73-1.24,5.78-2,8.65-.92,3.5-.76,7.25-2.09,10.63a12.29,12.29,0,0,0-.94,5.11c0,.83.34,1.92-.05,2.45-1.42,1.88-1.18,4.19-1.85,6.24-.73,2.23-.49,4.77-1.17,7s-1.11,4.55-4.09,5.37a80.83,80.83,0,0,0-10.34,3.94c-2.18.93-4.87.8-6.48,3a12.46,12.46,0,0,0-2.83.39c-1.87.71-3.65,1.65-5.49,2.43s-2.63.16-2.67-1.87c-.07-4.65,1.58-9,2.32-13.57s1.44-9.29,2.65-13.84A44.73,44.73,0,0,0,287.09,77c.26-2.91,1.5-5.62,1.61-8.5a31.11,31.11,0,0,1,1.74-7.79c.34-1.17-.52-2.73-1.63-2.8-1.34-.08-.86,1-1.09,1.71-1.05,3.32-2.21,6.61-2,10.17,0,.5.21,1.18,0,1.47-1.78,2.12-.9,4.87-1.84,7.25s-.74,5-1.15,7.52c-.21,1.28-.82,2.49-.93,3.76a11.9,11.9,0,0,1-1,4.12c-.62,1.37-.23,3-.9,4.62-1,2.57-.85,5.64-1.19,8.5a6.32,6.32,0,0,1-.7,3.23c-.88,1.36-.93,3.26-1.29,4.94-.47,2.21-3.26.89-4,2.67a9.67,9.67,0,0,0-3.25.62c-6,2.81-12.55,4.2-18.44,7.33a4.9,4.9,0,0,1-2.47,0c-.19,0-.5-.74-.46-.77,1.49-1.17-.13-1.91-.26-2.86s.77-2,.85-3.07c.16-2,.05-4,.05-6,0-1.84-.05-3.67,0-5.5s-.52-3.93,1-5.58c-1.36-1.72.38-3.42.05-5.18a25.84,25.84,0,0,1-.05-4.49c0-1.66-.05-3.33,0-5,.06-1.4-.52-3,.94-4.07-2.45-1.42.2-2.76.13-4.19-.22-4.65-.07-9.32-.11-14a3.59,3.59,0,0,0-.51-1.25c-.56.24-1.32.34-1.65.76a4.11,4.11,0,0,0-.78,2.15c-.08,2.83.07,5.67-.06,8.49s.17,5.7-.8,8.64c-.83,2.56-.17,5.61-.17,8.44,0,1.66.11,3.34,0,5s.76,3.32-.67,4.71c1,1.43-.05,2.69-.23,4.06a45.84,45.84,0,0,0-.07,6,33.47,33.47,0,0,0,.07,5.49c.29,1.77-1.43,3.4-.1,5.2.83,1.11-1.74,2.37,0,3.62-.83.81-1.62,2.27-2.49,2.32-3.42.19-6.15,2.17-9.22,3.2-7.15,2.39-14.14,5.24-21.19,7.91-.87-.09-2,.43-2-1.24.05-4.59,0-9.17,0-13.76v-26l.83-.33-.83-.67v-2l1-.76-1-1.24v-2l.83-.33-.83-.67v-2c.28-.11.8-.22.8-.34.1-3.88.19-7.77.17-11.66,0-1.32-.89-1.31-3,0v1l-1,.75,1,1.25v1l-1,.75,1,1.25v2l-1,.75c.33.42.67.83,1,1.24v1c-1.37,1-1.37,2,0,3v1l-1,.76,1,1.24v1c-1.94.34-.95,1.86-.95,2.77-.07,14.73-.05,29.47-.05,44.2-5.59,1.25-10.72,3.83-16.11,5.66-5.1,1.73-10,4.13-15.24,5.36-2,.45-3.23-.24-2.49-1.26,1.16-1.58-.2-2.54-.22-3.75-.14-7.18.83-14.41-.85-21.55-.41-1.73-.06-3.65-.06-5.47v-5.49c0-1.66.09-3.33,0-5s.77-3.66-1-5.07c.77-1.56,1.16-3.11,0-4.66,1.22-2-.69-4.1,0-6.17,0-.11-.4-.48-.67-.55s-.82,0-.9.12c-.5,1.11-1.59,2.89-1.22,3.29,1.59,1.72,0,3.6.66,5.43.72,2.08.17,4.59.17,6.92s0,4.66,0,7c0,2-.41,4.09.73,6-1.66,2.16,1,4,.38,6.29s-.12,4.63-.12,7,.09,4.66,0,7c-.1,1.88,1,3.67.27,5.66-.14.37,1.14,1.26.32,2.41-.32.45.52,1.58.37,2.31a3.6,3.6,0,0,1-1.31,2.38,56.79,56.79,0,0,1-6.05,2.24c-4.92,1.73-9.84,3.5-14.66,5.54a32.29,32.29,0,0,1-5.38,1.44c-1,.21-1.57-.09-1.52-1.26a44.82,44.82,0,0,0,0-4.49,27.25,27.25,0,0,1-.44-4.26c.13-1.28-.48-2.31-.52-3.48-.06-1.49,0-3,0-4.49-.36-4.43.91-9-1-13.31,1.72-1-.63-2.42.06-3,1.63-1.42-.74-2.46-.06-3.66,0-3.58,0-7.16,0-10.74,0-.43-.62-.84-1-1.25v-2l-.75-1-1.25,1-1,.76,1,1.24v1l-1,.75,1,1.25v5c0,2.26-.05,4.52,0,6.77,0,.42.62.82,1,1.23a2.36,2.36,0,0,1-1,2.52c1.2.72,1,1.9,1,3,0,4.57,0,9.14,0,13.71,0,.72-.35,1.73,1,1.74-.31.52-1,1.23-.88,1.53,1.89,4,.47,8.1.8,12.13a2.81,2.81,0,0,1-1.48,2.25c-5,1.22-9.48,3.68-14.37,5.11a32.86,32.86,0,0,0-4.67,2c-1.45.68-3.28.53-4.38,2-1.65-.43-2.11-1.59-2-3.15.06-.95,0-1.9,0-2.85l.83-.33-.83-.67v-13c0-3.92,0-7.83,0-11.75,0-.42-.62-.83-1-1.25h-1c-.34.4-.91.78-1,1.2a37,37,0,0,0,0,3.8v1c0,6.74,0,13.49,0,20.23,0,.72-.36,1.75,1,1.76v1c-1.37,1-1.37,2,0,3v1C110.22,177.5,109.55,178.17,108.89,178.84Z" style="fill:#fefefe"/><path d="M88.9,187.83a27.29,27.29,0,0,0-8,3c-.47-1.93-2-.62-3-1,.11-.28.24-.8.32-.79,3.46.27,6.43-1.57,9.67-2.21Z" style="fill:#dadada"/><path d="M88.9,187.83l-1-1c.24-1.85,1.82-.55,2.59-1.1a11,11,0,0,1,5.41-1.9l1,1a4.58,4.58,0,0,0-4,2A5.34,5.34,0,0,0,88.9,187.83Z" style="fill:#ccc"/><path d="M96.9,184.83l-1-1c.29-2.13,2.76-.1,3.52-1.82.17-.38,2.08,0,3.19,0-.49,1.18-1.71,1.31-2.67,1.76A27.12,27.12,0,0,1,96.9,184.83Z" style="fill:#c1c1c1"/><path d="M77.91,189.83c1,.38,2.53-.93,3,1-.72.22-1.44.48-2.17.66s-1.22.23-1.83.34l-1,1h-1a9.13,9.13,0,0,1,.72-2.94C75.86,189.53,77.12,189.83,77.91,189.83Z" style="fill:#dfdfdf"/><path d="M108.89,178.84c.66-.67,1.33-1.34,2-2,2.38.21,2.48.38,1.31,2.19a3.9,3.9,0,0,0-.31.8c-.09,1.5-1.25.85-2,1,0-.15,0-.33,0-.45.22-.45.48-.87.72-1.31Z" style="fill:#b5b5b5"/><path d="M83.91,44.91v1l3,4,3,4c.11,2.44,1.45,4.28,3,6,.94,3.44,1.91,6.86,2.8,10.31.6,2.3-.42,4.87,1.2,7-.56,4.26.79,8.37,1,12.56a86.22,86.22,0,0,1-.09,13c-.31,2.69-1,5.33-.88,8.09s-1.71,5.25-1,8.07c-1.9,5.59-2.82,11.43-4.46,17.1-1.81,6.31-4.76,12-7.53,17.86-3,2.73-4.6,6.65-8,9l-4,3c-.62.12-1.47,0-1.82.39-2.35,2.46-5.82,1-8.49,2.49-.71.4-2.32-.59-3.38-1.18-.34-.19-.33-1.21-.26-1.82a1.38,1.38,0,0,1,.88-.85c1.68-.4,3.38-.69,5.07-1,1.74-.57,3.48-1.12,5.21-1.72s3.15-1.14,4.72-1.71c-1.85-1.4-3.46-.19-5.15.41-.44.16-1.07-.15-1.45.06-1.41.73-3.28.47-4.33,2a3.85,3.85,0,0,0-.48,0c-3.5.31-3.5.31-3.51-2.67,0-2.11,0-4.22,0-6.33A17.67,17.67,0,0,1,59,151c.07-.43.62-.79,1-1.18,3.22-.72,6.44-1.44,9.65-2.2.17,0,.23-.52.34-.8h3c3-.8,5.93-1.56,8.88-2.41a12.14,12.14,0,0,0,2-1c-.7-.19-1.46-.65-2.09-.52-2.14.46-4.22,1.23-6.46,1.08-.45,1.83-3.09-.26-3.37,1.87h-2c-2.25-.21-4.13,1-6.14,1.64-3.18,1.06-3.83.59-3.85-2.74,0-1.3,0-2.6,0-3.89a39.23,39.23,0,0,0,0-4.34,2.44,2.44,0,0,1,1.66-2.6,24.9,24.9,0,0,1,4.37-1.06c1.67-.51,3.33-1,5-1.55,0,0,0-.29,0-.45a18.77,18.77,0,0,0,2.81,0c.44-.07.79-.63,1.18-1h2c1.78-.33,4.15-.09,5.18-1.15,1.21-1.24,3.35.2,3.82-1.85a5.23,5.23,0,0,0,1,0,4.33,4.33,0,0,0,.85-.31,3.44,3.44,0,0,0-.85-.65,2.85,2.85,0,0,0-1,0c-3.25.64-6.22,2.48-9.67,2.21-.09,0-.22.52-.33.79h-1c-.6.11-1.22.18-1.82.34s-1.45.44-2.17.66c-1.9.4-3.79.77-5.67,1.21-.16,0-.22.52-.33.79-1.08.15-2.33-.45-3.2.7-.49-.51-1.51-1.25-1.4-1.48,1.38-3,.2-6.17.6-9.21,0-1.6-.06-3.2,0-4.79,0-.42.62-.81,1-1.21l1-1c2.3-.47,4.74-.6,6.85-1.49s4.56-.58,6.14-2.51h1l3-1c.61-.11,1.23-.18,1.82-.33s1.45-.44,2.18-.67c2-.66,4.07-1.28,6.07-2,.41-.16.62-.86.92-1.32-.38-.21-1-.7-1.1-.59-2,1.61-5.08.86-6.89,3-1,.38-2.53-.92-3,1-1,.38-2.53-.92-3,1h-2c-1.38,1.26-3.41.51-4.78,1.38-2.55,1.62-5.48,1.73-8.21,2.62v-17h1l1-1h2l3-1c2.75-.88,5.43-2,8.07-3.15,2.29-1,5.11-.75,6.92-2.85,1.66.48,3-.71,4.44-1.06a8.14,8.14,0,0,0,2.37-1.62,21.33,21.33,0,0,0-3.28-.26c-.53,0-1,.7-1.54.93-1,.4-2,.68-3,1-4.83,1.42-9.22,4.05-14.21,5-.31.06-.52.63-.78,1-1,.38-2.53-.93-3,1h-1c-1.92-.47-.62-2-1-3a27,27,0,0,0,0-3.92c-.5-3.56.31-6.62,3-9.07.5,0,1.09.17,1.48,0,3.86-2,7.68-4,11.51-6,2.77-1.33,5.56-2.62,8.29-4,.37-.2.43-1,.63-1.53-.44-.14-1.07-.55-1.29-.39-2.71,1.95-6.2,2.54-8.63,5-.49,0-1.25-.2-1.43,0-1.58,2.14-4.18,2.63-6.28,3.89-1.74,1-3.79,1.57-5.28,3.08h-1c0-3.91-.16-7.83.06-11.73.15-2.66.61-5.45,3.94-6.26,1.59-1.13,3.76-1.28,5-3,3.68-.61,6.23-3.4,9.42-5a1.23,1.23,0,0,0,.54-.75,1.42,1.42,0,0,0-.15-.92.73.73,0,0,0-.66,0c-2.88,2.8-6.88,3.57-10.15,5.63-1.59,1.12-3.77,1.28-5,3-2,1.05-2,1.05-2-.78a15.15,15.15,0,0,0,0-2.43c-.66-3.7,1.1-7.15,1-10.78l3-2h1c1.42-.92,2.84-1.83,4.25-2.76.5-.33,1-.68,1.46-1-.62-.08-1.48-.45-1.83-.17-1.51,1.2-3.76,1.16-4.88,2.95h-1c-.52-1-1.9,2.9-2-.33-.08-2.63,0-5.26,0-7.89,0-.26-.31-.52-.48-.78-.17.26-.46.52-.48.78,0,1.15,0,2.3,0,3.45a30.67,30.67,0,0,1-2,6.77l-3-2c-1.13-1-2.23-2-3.42-2.85-.26-.2-.85,0-1.3.06a3.21,3.21,0,0,0,.48,1c1.05,1,2.15,1.85,3.24,2.77l4,3c.34.43,1,.87.95,1.28-.21,3.7.78,7.48-.89,11.1-.45,1-.23,2.24-.32,3.37-1-.59-2.07-1.13-3.06-1.77s-1.78-1.32-2.67-2l-4-3-2-1c-1.35-1.18-2.66-2.41-4.08-3.5-.21-.17-.94.18-1.31.46a1.06,1.06,0,0,0-.13,1c1.48,1.07,3,2.06,4.52,3.08l2,1,4,3c1.78,1.28,3.42,2.87,5.39,3.73,1.28.57,1.72,1,1.62,2.31-.37,4.65-.68,9.3-1,14-.49,0-1.12.2-1.45,0-4.2-3-8.36-6-12.53-9-.67-.33-1.34-.66-2-1l-3-2c-.94-.66-1.86-1.36-2.84-2-.18-.11-.6.08-.86.22a.83.83,0,0,0,.13.65c.83.73,1.71,1.41,2.57,2.1l3,2c.66.34,1.33.67,2,1l14,10c.34.4.94.8,1,1.22.1,1.92,0,3.85,0,5.77h-1c-.46-.63-.82-1.68-1.42-1.83-2.63-.69-3.91-3-5.4-4.76-.58-.7-1.26-1.06-1.78-1.63-1.59-1.78-4,.27-5.43-1.35-1.26-1.41-2.1-3.66-3.63-4.25-2.31-.9-2.21-2.32-2.4-4.12a2.69,2.69,0,0,0-1.67-1.75,5.62,5.62,0,0,1-3.44-2,1,1,0,0,0-.84-.29c-.37.15-.91.52-.92.8-.07,2.65-.07,5.3,0,8,0,1.63-.48,3.83.36,4.73s3.06.3,4.67.48a43.08,43.08,0,0,1,7.47,1.19c.76.23.9,2.18,1.54,3.21.24.39,1.09.42,1.67.58,2.07.58,5.12.3,5.85,2.32,1.13,3.13,3.22,2.63,5.41,2.68v6h-1c-2.64-2.42-6.07-3.36-9.14-5-5-2.67-10.13-5.26-15.23-7.84-.34-.18-.88,0-1.33.06.16.35.24.83.52,1a14.86,14.86,0,0,0,1.67.75l23.51,12c.33.4.93.8,1,1.22.1,1.92,0,3.85,0,5.77-.33.41-.93.81-1,1.23-.09,2.26,0,4.51,0,6.77,0,.31,0,.62,0,.93-.05.59-.13,1.18-.2,1.78l-1.79-.71h-1c-.26-.33-.46-.82-.8-1-2.38-1.05-4.83-2-7.2-3-5.3-2.41-10.57-4.9-15.86-7.34a4.45,4.45,0,0,0-1-.22c.07.45,0,1.1.23,1.31,1,.8,2,1.93,3.09,2.06,3.85.46,6.66,3.15,10.16,4.37a110.32,110.32,0,0,1,10.43,4.83h2c2,2.65,2,2.65,2,6-.34.42-1,.83-1,1.26-.08,3.13,0,6.25,0,9.38,0,1.39-.54,1.6-1.8,1.09-1.69-.68-3.46-1.17-5.2-1.74,0-.17,0-.46,0-.48q-4.48-1.78-9-3.5a3,3,0,0,0-1,0,15,15,0,0,0-5-2c-.64-1.9-3.06-.38-3.85-2-.38.22-1,.37-1.08.67a2,2,0,0,0,.38,1.23c1.4-.27,2.43.55,3.55,1.1l5,2a57.87,57.87,0,0,1,10,4c1.88.67,3.73,1.44,5.65,2,1.64.45,2.55,1.25,2.35,3-.34.4-.93.78-1,1.21-.11,1.59,0,3.19,0,4.78v3c0,2.82,0,2.82-2,3-.26-.33-.46-.84-.8-1-2.43-.94-4.9-1.77-7.34-2.68-4.3-1.61-8.59-3.27-12.9-4.87-.26-.1-.63.11-.94.17.15.43.18,1.13.47,1.26,1.66.77,3.38,1.42,5.09,2.09q7.71,3,15.42,6c2.24.21,2.79.76,3,3a12.93,12.93,0,0,0-1,3c-.15,1.92,0,3.87,0,5.81,0,2.71-.11,2.74-3,1.2h-1c-.26-.33-.46-.83-.8-1-2.84-1.16-5.82-2-8.44-3.71-.38-.24-1.49-.11-1.61.14-.38.84,0,1.23,1,1.61,3,1.14,5.91,2.6,8.84,3.93h2c.8.64,1.61,1.26,2.4,1.92a3.17,3.17,0,0,1,.49.69c-.28.13-.59.41-.83.37-1.85-.36-3.85.78-5.65-.89-.63-.58-2.24-.09-3.4-.09a4.6,4.6,0,0,0-4-2l-4-3-5-5-4-7-1-2c-.67-2.09-1.3-4.2-2-6.27-.11-.31-.63-.49-1-.72.73-2.35-1.11-4.28-1-6.54s0-4.31,0-6.46c.34,0,.76.14,1,0a3.48,3.48,0,0,0,1.37-4.07,2.58,2.58,0,0,1,.65-3.44c1.3-1.21,2.73-2.42,4.47-2.38,1.9,0,2.92,1.5,3.59,3.32a2.4,2.4,0,0,0,2.73,1.62,4.69,4.69,0,0,1,2.47,0c2.39,1,5.92.15,7.13,3s3.26,3.1,5.77,2.94a20.69,20.69,0,0,1,2.49,0c1.11.08,1.38-.45,1.34-1.47-.09-2.39,0-4.74-.92-7.09-.63-1.59-1.29-2.76-3-2.39-2.4.53-4.32-1.24-6.57-1-2.83.24-4-1.55-4.84-3.79,0-.11-.26-.19-.4-.21q-2.77-.52-5.57-1c-2-.34-4.05-.59-6.05-1.05a2.28,2.28,0,0,1-1.42-1.26,21.19,21.19,0,0,1-1.2-5c-.32-4.33.11-4.69,4.59-4.71a14.82,14.82,0,0,1,3,0c2.32.45,4.81.44,6.14,3.13a3.36,3.36,0,0,0,3.68,1.88c2.39-.33,4.53,1.46,7.07,1.07a3.11,3.11,0,0,1,2.37,1.8c.46,1.49.9.95,1.41.24,1.16-1.61,2.09-6.27,1.66-8.26a1.34,1.34,0,0,0-.87-.85,25.78,25.78,0,0,0-4.48,0,8.49,8.49,0,0,1-6.69-2c-2-1.69-3.92-4.11-7.2-3.07-.19.06-.53-.31-.76-.52-2.1-1.86-3.48-4.41-5.91-6-.48-.3-.68-1-1-1.54s-1-1.26-1.44-1.89c-.18.72-.38,1.43-.55,2.16-.28,1.26-1.29.64-2,.78.33-3.66.67-7.33,1-11a2.41,2.41,0,0,0,.48,0,111.31,111.31,0,0,1,5.51-16.5,1.34,1.34,0,0,0,0-.49c2.26-2.82,3.85-6.09,6-9,4.11-4.92,8.42-9.63,14-13l4-3c2.16-1,4.69-1.58,6.37-3.11s2.45-.34,3.62.11c.8.64,1.6,1.26,2.39,1.9l2.61,2.1a2.45,2.45,0,0,0,3,2Zm-28,92.94-.5-2c-.7.33-1.38.92-2.08.94a27.23,27.23,0,0,1-4.31-.35,20.82,20.82,0,0,0-2.74-.56c-2.52,0-3.73-1.31-4.39-3.6S40.13,129,38.06,130c-2.56,1.17-5.07.82-7.6.83-1.51,0-1.65.73-1.5,1.82q.43,3,1,6.05a4.25,4.25,0,0,0,.6,1.18,4.8,4.8,0,0,0,1.35-.92c.93-1.37,2.26-2.55,3.76-2,3.15,1.17,7.17.55,9.21,4.28.4.74,1.74,1.72,2.23,1.53,2.3-.9,4.51.66,6.65,0,.86-.25,1.58-1.32,2.11-2.18C56.17,140.11,55.93,139.3,55.93,137.85Zm-16-78.28c-.25,1.59.22,2.14,2.26,2.5A9.28,9.28,0,0,1,48.55,66a4,4,0,0,0,4.18,2c2.22-.26,3.75.88,4.71,2.91a1.91,1.91,0,0,0,1.31.63c.49-.59,1.26-1.46,1.1-2-.9-2.91-4.73-3.47-5.49-6.62a1.52,1.52,0,0,0-1.06-.94c-3.92-.42-6.65-2.75-9.3-5.37a2.92,2.92,0,0,0-2.61-.48,2,2,0,0,0-1.46,2.31A6.31,6.31,0,0,1,39.94,59.57Zm14,96.76c-.58-.5-1.18-1.44-1.73-1.41-2.42.15-3.9-1.91-6-2.32-.63-3.59-3.44-2.68-5.74-2.73-1.16,0-2.27.08-3.11-1-.11-.14-1,.09-1.24.39a1.49,1.49,0,0,0,.11,1.29c.58.93,1.79,1.35,1.77,2.78,0,1.77,1.07,2.42,2.81,2.54,2.53.17,5,.62,7.55,1,1.73,2.6,3.41-1,5.14-.06C53.52,156.81,53.7,156.57,54,156.33ZM59.43,53.9a17.15,17.15,0,0,0,3-.07c.2,0,.24-1,.36-1.61C60.8,52,60.34,50.31,60,49c-.42-1.72-2.17-.87-2.75-1.93-2.17,2.09-3.21-.73-4.77-1.2-.51-.16-.72-1.28-1.07-2a18,18,0,0,1-1.76,1.73c-.74.55-1.61.92-2.37,1.44a.92.92,0,0,0-.33.81c.14.38.48,1,.74,1,2.12,0,4.46-.33,5.61,2C54.63,53.53,56.8,54.07,59.43,53.9Z" style="fill:#fefefe"/><path d="M62.92,162.84c1-1.49,2.92-1.23,4.33-2,.38-.21,1,.1,1.45-.06,1.69-.6,3.3-1.81,5.15-.41-1.57.57-3.14,1.17-4.72,1.71s-3.47,1.15-5.21,1.72Z" style="fill:#bfbfbf"/><path d="M55.93,149.85c2-.18,2-.18,2-3h1l1,3c-.34.39-.89.75-1,1.18a17.67,17.67,0,0,0,0,2.82h-1c-.21-2.24-.76-2.79-3-3Z" style="fill:#b5b5b5"/><path d="M53.93,164.84h-2l1-1h1Z" style="fill:#b0b0b0"/><path d="M27,86.88c.71-.14,1.72.48,2-.78.17-.73.37-1.44.55-2.16.48.63,1,1.25,1.44,1.89s.57,1.24,1,1.54c2.43,1.55,3.81,4.1,5.91,6,.23.21.57.58.76.52,3.28-1,5.15,1.38,7.2,3.07a8.49,8.49,0,0,0,6.69,2,25.78,25.78,0,0,1,4.48,0,1.34,1.34,0,0,1,.87.85c.43,2-.5,6.65-1.66,8.26-.51.71-1,1.25-1.41-.24a3.11,3.11,0,0,0-2.37-1.8c-2.54.39-4.68-1.4-7.07-1.07A3.36,3.36,0,0,1,41.71,103c-1.33-2.69-3.82-2.68-6.14-3.13a14.82,14.82,0,0,0-3,0c-4.48,0-4.91.38-4.59,4.71a21.19,21.19,0,0,0,1.2,5,2.28,2.28,0,0,0,1.42,1.26c2,.46,4,.71,6.05,1.05q2.79.48,5.57,1c.14,0,.36.1.4.21.85,2.24,2,4,4.84,3.79,2.25-.2,4.17,1.57,6.57,1,1.68-.37,2.34.8,3,2.39.94,2.35.83,4.7.92,7.09,0,1-.23,1.55-1.34,1.47a20.69,20.69,0,0,0-2.49,0c-2.51.16-4.53,0-5.77-2.94s-4.74-2-7.13-3a4.69,4.69,0,0,0-2.47,0A2.4,2.4,0,0,1,36,121.27c-.67-1.82-1.69-3.28-3.59-3.32-1.74,0-3.17,1.17-4.47,2.38a2.58,2.58,0,0,0-.65,3.44,3.48,3.48,0,0,1-1.37,4.07c-.22.16-.64,0-1,0-.33-4.17-1.59-8.53-.77-12.46,1.15-5.57.33-11,.77-16.52.15-3.91,1.48-7.71,1.2-11.66C26.15,87.12,26.67,87,27,86.88Z" style="fill:#fefefe"/><path d="M75.91,192.83l1-1Z" style="fill:#aeaeae"/><path d="M210.81,113.87v2c-.34.26-.95.51-1,.78-.08,2.14-.08,4.29,0,6.43,0,.28.62.52,1,.78v1c-.34.42-.95.83-1,1.25-.07,3.92,0,7.83,0,11.74,0,1,0,2,0,2.94.07,1.19.83,1.45,1.94.57a6.37,6.37,0,0,0,1.05-1.5c7.05-2.67,14-5.52,21.19-7.91,3.07-1,5.8-3,9.22-3.2.87-.05,1.66-1.51,2.49-2.32-1.7-1.25.87-2.51,0-3.62-1.33-1.8.39-3.43.1-5.2a33.47,33.47,0,0,1-.07-5.49,45.84,45.84,0,0,1,.07-6c.18-1.37,1.27-2.63.23-4.06,1.43-1.39.53-3.13.67-4.71s0-3.33,0-5c0-2.83-.66-5.88.17-8.44,1-2.94.68-5.76.8-8.64s0-5.66.06-8.49a4.11,4.11,0,0,1,.78-2.15c.33-.42,1.09-.52,1.65-.76a3.59,3.59,0,0,1,.51,1.25c0,4.67-.11,9.34.11,14,.07,1.43-2.58,2.77-.13,4.19-1.46,1.09-.88,2.67-.94,4.07-.06,1.66,0,3.33,0,5a25.84,25.84,0,0,0,.05,4.49c.33,1.76-1.41,3.46-.05,5.18-1.51,1.65-.92,3.68-1,5.58s0,3.66,0,5.5c0,2,.11,4-.05,6-.08,1.05-1,2.11-.85,3.07s1.75,1.69.26,2.86c0,0,.27.75.46.77a4.9,4.9,0,0,0,2.47,0c5.89-3.13,12.46-4.52,18.44-7.33a9.67,9.67,0,0,1,3.25-.62c1,.38,2.53-.93,3,1-4.95,2.48-10.29,3.93-15.4,6-1.7.69-3.4,1.4-5.14,2-2.48.83-3.06,2.29-1,3.71,1,.66,1.42,2,2,2.05,1.61.1,1.3,1.88,2.06,2.09,2.42.67,2.26,4.28,5.13,4.23.86,2.62,3.18,4,4.92,5.9s3.5,3.53,5.26,5.29a52.18,52.18,0,0,1,5.21,5.31c2,2.69,3.77,5.5,7,7,.18.08,0,.94,0,1.43.67.67,1.33,1.34,2,2,.08,1.5,1.24.85,2,1v1l2,2,1,1,1,1,1,1v1h-2l-1-1-1-1-1-1-1-1-1-1-1-1-1-1c-1-.87-2.05-1.77-3.12-2.6s-.87-2.81-2.75-2.77c.29-2.38-3.74-1.47-3.12-4.1l-4.22-4.24-4.22-4.23L264.44,145c-1.29-1.3-2.86-2.42-3.8-3.93-.84-1.36-2.55-2-2.87-3.69-1.93,0-1.79-2.78-3.72-2.77-.1-1.85-2.13-2.18-2.87-3.7s-3-1.75-4.62-1.09c-4.28,1.7-8.56,3.4-12.88,5-3.18,1.17-6.55,1.88-9.57,3.35a42,42,0,0,1-7.37,2.69c-1.84.49-1.94,1.38-.57,2.85,4.1,4.41,8.2,8.83,12.24,13.3.36.39.27,1.2.38,1.82-.3.19-.61.56-.9.55a3.39,3.39,0,0,1-1.09-.55c-3-3-6-5.88-9-8.9-2-2.1-4-4.32-5.92-6.53-.73-.83-1,.07-1.44.24-3.9,1.44-7.84,2.76-11.74,4.2-4.32,1.61-8.6,3.34-12.92,5-2.3.87-4.63,1.66-7,2.49,1.52,2.2,2.93,4.48,4.58,6.57,2,2.54,4.85,4.63,6.15,7.46s4,4.44,5.66,7.1c2.74,4.49,6.79,8.15,10,12.38,3.08,4.06,6.5,7.84,9.57,11.91a3,3,0,0,0,1.22,1c1.26.44.49.89,0,1.24-1.62,1.27-1.79,1.15-3.42-.83-2-2.48-4.24-4.82-6.27-7.31-5.55-6.84-11.14-13.66-16.48-20.66-1-1.37-2.19-2.74-3.33-3.95s-1.52-2.84-3.29-3.72c-1.52-.75-2.31-2.92-3.47-4.43s-2.22-2.74-3.32-4.12c-1-1.23-2-1.78-3.12-.21-8.12,1.95-15.57,5.88-23.62,8.07-2,.54-2.2,1.95-.87,3.52,1.56,1.83,3.39,3.55,4.5,5.63s3.67,2.8,3.57,5.42c1.92.15,2,2.17,3.07,3.17a29.25,29.25,0,0,1,2.53,3.41c1.72,2.13,3.8,4,5.19,6.35,1.29,2.16,4,3.3,4.26,6.13,3.38,1.75,3.92,6,7,8,.27.17.71.52.67.68a7.19,7.19,0,0,1-.81,2.06c-.61,1-1.05.1-1.38-.3-3.57-4.34-6.88-8.91-10.72-13-2.55-2.7-4.46-5.85-6.72-8.71s-4.63-5.61-6.82-8.52-4.56-6.16-7.09-9c-2.22-2.54-2.3-2.21-5.79-.9-5.77,2.16-11.64,4-17.47,6-1.16,0-2.83-.47-3.37.11-.81.87-2.82.29-2.66,2.24,0,.5-.37,1-.56,1.55-.24-.57-.45-1.14-.71-1.7s-.46-.8-.7-1.2c1.1-1.46,2.93-1.31,4.38-2a32.86,32.86,0,0,1,4.67-2c4.89-1.43,9.4-3.89,14.37-5.11a2.81,2.81,0,0,0,1.48-2.25c-.33-4,1.09-8.18-.8-12.13-.14-.3.57-1,.88-1.53v-2c0-3.94,0-7.88,0-11.82,0-.39.34-.77.52-1.15a4.35,4.35,0,0,1,.43,1.29c0,2.46,0,4.93.07,7.39,0,.43.62.84,1,1.26,0,1.5,0,3,0,4.49,0,1.17.65,2.2.52,3.48a27.25,27.25,0,0,0,.44,4.26,44.82,44.82,0,0,1,0,4.49c0,1.17.57,1.47,1.52,1.26a32.29,32.29,0,0,0,5.38-1.44c4.82-2,9.74-3.81,14.66-5.54a56.79,56.79,0,0,0,6.05-2.24,3.6,3.6,0,0,0,1.31-2.38c.15-.73-.69-1.86-.37-2.31.82-1.15-.46-2-.32-2.41.71-2-.37-3.78-.27-5.66.12-2.33,0-4.66,0-7s-.44-4.77.12-7-2-4.13-.38-6.29c-1.14-1.88-.7-4-.73-6,0-2.32,0-4.65,0-7s.55-4.84-.17-6.92c-.63-1.83.93-3.71-.66-5.43-.37-.4.72-2.18,1.22-3.29.08-.15.62-.2.9-.12s.71.44.67.55c-.65,2.07,1.26,4.12,0,6.17,1.16,1.55.77,3.1,0,4.66,1.74,1.41.85,3.35,1,5.07s0,3.33,0,5v5.49c0,1.82-.35,3.74.06,5.47,1.68,7.14.71,14.37.85,21.55,0,1.21,1.38,2.17.22,3.75-.74,1,.53,1.71,2.49,1.26,5.28-1.23,10.14-3.63,15.24-5.36,5.39-1.83,10.52-4.41,16.11-5.66,1.94-.34.95-1.86.95-2.77.07-14.73.05-29.47.05-44.2v-1l2-1v2l-.83.33.83.67v1l-1,1v1l1,1v1l-1,.75,1,1.25v2c-.28.12-.81.23-.81.35q-.08,4.16,0,8.3C210,113.64,210.53,113.75,210.81,113.87Z" style="fill:#adadad"/><path d="M339.71,94.88c-1.61,2.17-4.36,1.88-6.46,3-1.77,1-3.81,1-5.57,2.32-1.51,1.11-3.79,1.26-5.77,1.64-1.25.24-1.37.49-.42,1.31,2.58,2.23,4.91,4.86,7.78,6.6a64.73,64.73,0,0,1,7.5,5.87,105.07,105.07,0,0,0,11.1,8.26,30.23,30.23,0,0,1,4.58,3.35c.58.53.25,2,1.76,1.65a11.27,11.27,0,0,1-.54,2.36c-.54,1.12-.92,0-1.31-.23-2.32-1.63-4.68-3.23-6.93-4.95-2.05-1.57-3.83-3.53-6-4.86-1.85-1.12-3.17-2.85-5.35-3.71s-3.6-3-5.34-4.56c-.09-.08,0-.45,0-.47-4.52-1.93-7.24-6.54-12-8.09-.54-.18-1.48-.45-1.65-.23-1.9,2.52-5,1.63-7.4,2.72s-4.81,2-7.25,3c-1.86.73-3.77,1.34-5.66,2-.47-1.93-2-.62-3-1,1.61-2.17,4.3-2,6.48-3A80.83,80.83,0,0,1,308.56,104c3-.82,3.44-3.2,4.09-5.37s.44-4.8,1.17-7c.67-2,.43-4.36,1.85-6.24.39-.53.08-1.62.05-2.45a12.29,12.29,0,0,1,.94-5.11c1.33-3.38,1.17-7.13,2.09-10.63.77-2.87.72-5.92,2-8.65a1.38,1.38,0,0,1,1.18-.52,1.23,1.23,0,0,1,.74,1,22,22,0,0,1-.84,7.12c-1.52,4.42-1,9.37-3.12,13.71.88,5.1-2.29,9.63-2.05,14.66.05,1.18-.65,2.38-.93,3.58-.23,1-.35,1.92-.52,2.88,1.23-.25,2.41.11,3.75-.6A80.79,80.79,0,0,1,329.17,96a36.47,36.47,0,0,1,5.54-1.11c1.18-.13,2.42.36,3.46-.84C338.58,93.55,339.67,93.69,339.71,94.88Z" style="fill:#b0b0b0"/><path d="M339.71,94.88c0-1.19-1.13-1.33-1.54-.84-1,1.2-2.28.71-3.46.84,1.61-2.16,4.25-2.15,6.47-2.92a9.75,9.75,0,0,0,4.43-2.52,4.66,4.66,0,0,0,1.06-2c.43-2.33,0-5.18,1.24-6.92,1.46-2.08-.4-4.72,1.79-6.29-.48-2.15.71-4,.94-6.07.19-1.67,1.24-1.21,2.11-1.21,1.35,0,.86,1.11.94,1.82.1,1-.67,1.86-.81,2.63A90.24,90.24,0,0,1,349.74,85a7.89,7.89,0,0,0,0,2.48c0,2.17.68.75,1.52.42,4.59-1.77,9.17-3.58,13.89-5,2.08-.61,3.63-2.47,6.13-2.18,1.53.19,1.58.92,1.39,1.91a1.88,1.88,0,0,1-1.08,1.15c-4.89,1.83-9.8,3.6-14.72,5.37-.72.27-1.5.38-2.21.68-.36.15-.84.54-.87.85a1.46,1.46,0,0,0,.62,1.1,58.81,58.81,0,0,1,11.06,8.22c1.51,1.41,3.26,2.57,4.83,3.92a1.77,1.77,0,0,1,.39,1.25,3.81,3.81,0,0,1-1.69.59,2.08,2.08,0,0,1-1.27-.49c-2-1.61-4-3.26-5.94-4.92-1.69-1.43-3.73-2.2-5.35-4s-4.36-2.39-6.09-4.35c-.19-.21-1.08.25-1.65.33C345.57,92.85,343.13,95.66,339.71,94.88Zm3-1.8a8.9,8.9,0,0,0-1.43-.17c-.14,0-.25.41-.37.63a7.44,7.44,0,0,0,1.3.31C342.29,93.85,342.44,93.45,342.67,93.08Z" style="fill:#b1b1b1"/><path d="M291.74,110.87c1,.38,2.53-.93,3,1-2.69.95-5.23,2.3-8,3-1.84.48-2,1.35-.7,2.77.63.69,1.16,1.47,1.73,2.21-.06.61-.05,1.15-1,.59a7.42,7.42,0,0,0-2-.59c-4.09-2.23-4.09-2.23-9-1-.47-1.93-2-.62-3-1,.74-1.78,3.53-.46,4-2.67.36-1.68.41-3.58,1.29-4.94a6.32,6.32,0,0,0,.7-3.23c.34-2.86.15-5.93,1.19-8.5.67-1.64.28-3.25.9-4.62a11.9,11.9,0,0,0,1-4.12c.11-1.27.72-2.48.93-3.76.41-2.51.24-5.23,1.15-7.52s.06-5.13,1.84-7.25c.24-.29.06-1,0-1.47-.24-3.56.92-6.85,2-10.17.23-.7-.25-1.79,1.09-1.71,1.11.07,2,1.63,1.63,2.8a31.11,31.11,0,0,0-1.74,7.79c-.11,2.88-1.35,5.59-1.61,8.5a44.73,44.73,0,0,1-1.37,7.41c-1.21,4.55-1.9,9.23-2.65,13.84s-2.39,8.92-2.32,13.57c0,2,.87,2.63,2.67,1.87s3.62-1.72,5.49-2.43A12.46,12.46,0,0,1,291.74,110.87Z" style="fill:#afafaf"/><path d="M284.75,119.87a7.42,7.42,0,0,1,2,.59c.91.56.9,0,1-.59,2.5.33,4.19,2,6,3.52,5.69,4.62,11.05,9.63,17.33,13.51,2.45,1.51,4.07,4,6.63,5.61,3.38,2.07,6.33,4.83,9.45,7.31a3.93,3.93,0,0,1,1.36,1.43,2.13,2.13,0,0,1-.43,1.64,1.5,1.5,0,0,1-1.35.42,6.59,6.59,0,0,1-2.4-1.38,86.83,86.83,0,0,0-14.3-11.25c-.44-2.26-2.69-2.13-4.08-3.15s-2.62-2.47-4-3.66-2.91-2.44-4.38-3.64c-1.62-1.3-3.21-2.64-4.88-3.86-2.16-1.58-4.41-3-6.55-4.62A8.71,8.71,0,0,1,284.75,119.87Z" style="fill:#b2b2b2"/><path d="M226.8,158.85a3.39,3.39,0,0,0,1.09.55c.29,0,.6-.36.9-.55.62.11,1.37.05,1.81.39s.37,1.2.76,1.63c4,4.44,8.15,8.81,12.18,13.25,1.84,2,3.58,4.12,5.26,6.27s4.14,3.14,5.07,5.85c.3.87,2.63.64,1.9,2.59.34.67.67,1.33,1,2h-2l-1-1a15.83,15.83,0,0,1-4.79-4.62c-1.2-2-3.12-3.2-4.25-5.15a23.65,23.65,0,0,0-3.27-4c-4.52-4.9-9.05-9.79-13.65-14.61A2.87,2.87,0,0,1,226.8,158.85Z" style="fill:#b2b2b2"/><path d="M114.88,176.84c.24.4.5.78.7,1.2s.47,1.13.71,1.7c.19-.52.6-1.05.56-1.55-.16-1.95,1.85-1.37,2.66-2.24.54-.58,2.21-.11,3.37-.11-1,1.51-2.91,1.2-4.29,2-1,.54-1,1.23-.32,1.87,3,2.66,5.24,5.95,7.6,9.14.31,1.64-.36,2.3-2,2-2.7-3.2-5.47-6.34-8.06-9.62-1.11-1.41-2.45-1.42-3.93-1.38a3.9,3.9,0,0,1,.31-.8c1.17-1.81,1.07-2-1.31-2.19v-5q0-10.11,0-20.23c0-.72.37-1.75-1-1.76v-1c.33-.4.91-.77,1-1.2a37,37,0,0,0,0-3.8h1c0,3.92,0,7.83,0,11.75,0,.42.62.83.95,1.25v1a4.77,4.77,0,0,0,0,6v1c-1.36,1-1.36,2,0,3v2l-.82.33.82.67c0,.95.05,1.9,0,2.85C112.77,175.25,113.23,176.41,114.88,176.84Z" style="fill:#aeaeae"/><path d="M141.86,146.85c-.33-.42-.94-.83-1-1.26-.1-2.46,0-4.93-.07-7.39a4.35,4.35,0,0,0-.43-1.29c-.18.38-.52.76-.52,1.15,0,3.94,0,7.88,0,11.82v2c-1.33,0-1-1-1-1.74,0-4.57,0-9.14,0-13.71,0-1.12.21-2.3-1-3a2.36,2.36,0,0,0,1-2.52c0-2.26,0-4.51,0-6.77,0-.42-.62-.82-1-1.23v-1l1-.76c-.33-.41-.66-.83-1-1.24v-2c.2-.3.57-.62.55-.91s-.35-.73-.55-1.09v-3h2v2c0,3.58,0,7.16,0,10.74,0,.43.62.84,1,1.25-.68,1.2,1.69,2.24.06,3.66-.69.6,1.66,2-.06,3C142.77,137.86,141.5,142.42,141.86,146.85Z" style="fill:#b4b4b4"/><path d="M123.88,190.83c1.63.3,2.3-.36,2-2,2.14.37,2,2.7,3.27,3.86s2.37,3,3.77,4.27,2.36,3.1,3.91,4.27a2.82,2.82,0,0,1,1,3.06,1.37,1.37,0,0,1-2.41.57c-1.1-1.34-1.85-3.27-3.25-4s-.49-2.84-2.59-3.21c-1.14-.2-1.93-2.29-2.91-3.49S124.81,191.93,123.88,190.83Z" style="fill:#b8b8b8"/><path d="M208.81,94.88c0,14.73,0,29.47-.05,44.2,0,.91,1,2.43-.95,2.77,0-14.73,0-29.47.05-44.2C207.86,96.74,206.87,95.22,208.81,94.88Z" style="fill:#bcbcbc"/><path d="M210.81,92.88l-2,1v-17c.86.09,2-.44,2,1.23,0,3.59,0,7.17,0,10.76v4Z" style="fill:#b2b2b2"/><path d="M109.89,149.85c1.35,0,1,1,1,1.76q0,10.11,0,20.23c-1.35,0-1-1-1-1.76C109.88,163.34,109.89,156.59,109.89,149.85Z" style="fill:#b5b5b5"/><path d="M212.81,139.86a6.37,6.37,0,0,1-1.05,1.5c-1.11.88-1.87.62-1.94-.57,0-1,0-2,0-2.94,0-3.91,0-7.82,0-11.74,0-.42.62-.83,1-1.25,0,4.59,0,9.17,0,13.76C210.77,140.29,211.94,139.77,212.81,139.86Z" style="fill:#b2b2b2"/><path d="M210.81,88.88c0-3.59,0-7.17,0-10.76,0-1.67-1.15-1.14-2-1.23,2.08-1.32,3-1.33,3,0,0,3.89-.07,7.78-.17,11.66C211.61,88.66,211.09,88.77,210.81,88.88Z" style="fill:#bcbcbc"/><path d="M112.88,156.85c-.33-.42-.94-.83-.95-1.25-.08-3.92,0-7.83,0-11.75.33.42.94.83,1,1.25C112.91,149,112.88,152.93,112.88,156.85Z" style="fill:#b5b5b5"/><path d="M140.86,126.86c-.33-.41-.94-.82-1-1.25-.08-3.58,0-7.16,0-10.74.34.41.95.82,1,1.25C140.9,119.7,140.86,123.28,140.86,126.86Z" style="fill:#b9b9b9"/><path d="M210.81,113.87c-.28-.12-.81-.23-.81-.35q-.08-4.14,0-8.3c0-.12.53-.23.81-.35Z" style="fill:#b2b2b2"/><path d="M210.81,123.86c-.34-.26-.95-.5-1-.78-.08-2.14-.08-4.29,0-6.43,0-.27.62-.52,1-.78Z" style="fill:#b2b2b2"/><path d="M137.86,122.86c.34.41.94.81,1,1.23.09,2.26,0,4.51,0,6.77-.33-.41-.93-.81-1-1.23C137.81,127.38,137.86,125.12,137.86,122.86Z" style="fill:#b9b9b9"/><path d="M112.88,163.84a4.77,4.77,0,0,1,0-6Z" style="fill:#b5b5b5"/><path d="M110.89,143.85a37,37,0,0,1,0,3.8c0,.43-.62.8-1,1.2a37,37,0,0,1,0-3.8C110,144.63,110.55,144.25,110.89,143.85Z" style="fill:#b5b5b5"/><path d="M110.89,172.84v3C109.52,174.83,109.52,173.84,110.89,172.84Z" style="fill:#b5b5b5"/><path d="M291.74,169.84l-2-2C291.38,167.54,292.05,168.2,291.74,169.84Z" style="fill:#bdbdbd"/><path d="M112.88,167.84c-1.36-1-1.36-2,0-3Z" style="fill:#b5b5b5"/><path d="M137.86,115.87c.2.36.53.72.55,1.09s-.35.61-.55.91l-1-1.25Z" style="fill:#b9b9b9"/><path d="M287.75,165.84c-.67-.66-1.33-1.33-2-2C287.38,163.54,288.05,164.21,287.75,165.84Z" style="fill:#bdbdbd"/><path d="M256.77,190.83c-.33-.67-.66-1.33-1-2,.71.14,1.78-.45,1.94.75C257.76,190,257.11,190.41,256.77,190.83Z" style="fill:#c7c7c7"/><path d="M208.81,87.88v3C207.44,89.88,207.44,88.89,208.81,87.88Z" style="fill:#bcbcbc"/><path d="M208.81,77.89v2l-1-1.25Z" style="fill:#bcbcbc"/><path d="M137.86,112.87v2l-1-1.24Z" style="fill:#b9b9b9"/><path d="M208.81,80.89v2l-1-1.25Z" style="fill:#bcbcbc"/><path d="M208.81,84.89v2c-.33-.41-.67-.82-1-1.24Z" style="fill:#bcbcbc"/><path d="M254.77,190.83h2l-1.24,1Z" style="fill:#c7c7c7"/><path d="M208.81,91.88v2l-1-1.24Z" style="fill:#bcbcbc"/><path d="M210.81,94.88v-1l1,1.24-1,.76Z" style="fill:#bcbcbc"/><path d="M289.75,166.84c-.76-.15-1.92.5-2-1C288.51,166,289.66,165.35,289.75,166.84Z" style="fill:#bdbdbd"/><path d="M139.86,112.87h-2l1.25-1Z" style="fill:#b9b9b9"/><path d="M137.86,119.87c.34.41.67.83,1,1.24l-1,.76Z" style="fill:#b9b9b9"/><path d="M112.88,170.84l-.82-.67.82-.33.83.67Z" style="fill:#b5b5b5"/><path d="M210.81,102.88l-1-1.25,1-.75Z" style="fill:#bcbcbc"/><path d="M209.81,98.88v-1h1l.83.67-.83.33Z" style="fill:#bcbcbc"/><path d="M292.74,173.84h2l-1.24,1Z" style="fill:#bdbdbd"/><path d="M291.74,172.84l1,1Z" style="fill:#bdbdbd"/><path d="M210.81,97.88h-1l1-1Z" style="fill:#b2b2b2"/><path d="M290.75,171.84l1,1Z" style="fill:#bdbdbd"/><path d="M209.81,98.88h1v1Z" style="fill:#b2b2b2"/><path d="M293.74,171.84l-1-1Z" style="fill:#bdbdbd"/><path d="M289.75,170.84l1,1Z" style="fill:#bdbdbd"/><path d="M292.74,170.84l-1-1Z" style="fill:#bdbdbd"/><path d="M288.75,169.84l1,1Z" style="fill:#bdbdbd"/><path d="M287.75,168.84l1,1Z" style="fill:#bdbdbd"/><path d="M285.75,166.84l1,1Z" style="fill:#bdbdbd"/><path d="M253.77,189.83l1,1Z" style="fill:#c7c7c7"/><path d="M210.81,91.88v-1l.83.67Z" style="fill:#bcbcbc"/><path d="M294.74,172.84l-1-1Z" style="fill:#bdbdbd"/><path d="M60.92,90.88c-2.19,0-4.28.45-5.41-2.68-.73-2-3.78-1.74-5.85-2.32-.58-.16-1.43-.19-1.67-.58-.64-1-.78-3-1.54-3.21A43.08,43.08,0,0,0,39,80.9c-1.61-.18-3.86.38-4.67-.48S34,77.32,34,75.69c0-2.66,0-5.31,0-8,0-.28.55-.65.92-.8a1,1,0,0,1,.84.29,5.62,5.62,0,0,0,3.44,2,2.69,2.69,0,0,1,1.67,1.75c.19,1.8.09,3.22,2.4,4.12,1.53.59,2.37,2.84,3.63,4.25,1.44,1.62,3.84-.43,5.43,1.35.52.57,1.2.93,1.78,1.63,1.49,1.79,2.77,4.07,5.4,4.76.6.15,1,1.2,1.42,1.83Z" style="fill:#fefefe"/><path d="M55.93,137.85c0,1.45.24,2.26,0,2.74-.53.86-1.25,1.93-2.11,2.18-2.14.64-4.35-.92-6.65,0-.49.19-1.83-.79-2.23-1.53-2-3.73-6.06-3.11-9.21-4.28-1.5-.55-2.83.63-3.76,2a4.8,4.8,0,0,1-1.35.92,4.25,4.25,0,0,1-.6-1.18q-.57-3-1-6.05c-.15-1.09,0-1.81,1.5-1.82,2.53,0,5,.34,7.6-.83,2.07-.94,3.17,0,3.85,2.31s1.87,3.62,4.39,3.6a20.82,20.82,0,0,1,2.74.56,27.23,27.23,0,0,0,4.31.35c.7,0,1.38-.61,2.08-.94Z" style="fill:#fefefe"/><path d="M39.94,59.57a6.31,6.31,0,0,0,0-1.17,2,2,0,0,1,1.46-2.31,2.92,2.92,0,0,1,2.61.48c2.65,2.62,5.38,5,9.3,5.37a1.52,1.52,0,0,1,1.06.94C55.12,66,59,66.59,59.85,69.5c.16.51-.61,1.38-1.1,2a1.91,1.91,0,0,1-1.31-.63c-1-2-2.49-3.17-4.71-2.91a4,4,0,0,1-4.18-2,9.28,9.28,0,0,0-6.35-3.9C40.16,61.71,39.69,61.16,39.94,59.57Z" style="fill:#fefefe"/><path d="M54,156.33c-.25.24-.43.48-.47.46-1.73-1-3.41,2.66-5.14.06-2.51-.34-5-.79-7.55-1-1.74-.12-2.84-.77-2.81-2.54,0-1.43-1.19-1.85-1.77-2.78a1.49,1.49,0,0,1-.11-1.29c.22-.3,1.13-.53,1.24-.39.84,1.06,1.95,1,3.11,1,2.3,0,5.11-.86,5.74,2.73,2.13.41,3.61,2.47,6,2.32C52.77,154.89,53.37,155.83,54,156.33Z" style="fill:#fefefe"/><path d="M65.92,45.91c.08,3.63-1.68,7.08-1,10.78a15.15,15.15,0,0,1,0,2.43c0,1.83,0,1.83,2,.78l1,1c-3.33.81-3.79,3.6-3.94,6.26-.22,3.9-.06,7.82-.06,11.73-.33.41-.64.85-1,1.23a6.89,6.89,0,0,1-1,.77v-1c.34-4.65.65-9.3,1-14,.1-1.3-.34-1.74-1.62-2.31-2-.86-3.61-2.45-5.39-3.73l1-1c.89.67,1.75,1.38,2.67,2s2,1.18,3.06,1.77c.09-1.13-.13-2.4.32-3.37,1.67-3.62.68-7.4.89-11.1,0-.41-.61-.85-.95-1.28v-1a7.79,7.79,0,0,0,2-.59C65.87,44.75,65.86,45.29,65.92,45.91Z" style="fill:#bbb"/><path d="M59.43,53.9c-2.63.17-4.8-.37-6.11-3-1.15-2.32-3.49-2-5.61-2-.26,0-.6-.59-.74-1a.92.92,0,0,1,.33-.81c.76-.52,1.63-.89,2.37-1.44a18,18,0,0,0,1.76-1.73c.35.68.56,1.8,1.07,2,1.56.47,2.6,3.29,4.77,1.2.58,1.06,2.33.21,2.75,1.93.32,1.31.78,3,2.73,3.22-.12.56-.16,1.57-.36,1.61A17.15,17.15,0,0,1,59.43,53.9Z" style="fill:#fefefe"/><path d="M65.92,132.86a24.9,24.9,0,0,0-4.37,1.06,2.44,2.44,0,0,0-1.66,2.6,39.23,39.23,0,0,1,0,4.34c-1.93-.47-.62-2-1-3,.2-1.78-.71-2.58-2.35-3-1.92-.53-3.77-1.3-5.65-2l1-1c1.74.57,3.51,1.06,5.2,1.74,1.26.51,1.8.3,1.8-1.09,0-3.13,0-6.25,0-9.38,0-.43.62-.84,1-1.26h1c-.4,3,.78,6.19-.6,9.21-.11.23.91,1,1.4,1.48.87-1.15,2.12-.55,3.2-.7Z" style="fill:#bcbcbc"/><path d="M55.93,115.87A110.32,110.32,0,0,0,45.5,111c-3.5-1.22-6.31-3.91-10.16-4.37-1.1-.13-2.13-1.26-3.09-2.06-.26-.21-.16-.86-.23-1.31a4.45,4.45,0,0,1,1,.22c5.29,2.44,10.56,4.93,15.86,7.34,2.37,1.08,4.82,2,7.2,3,.34.15.54.64.8,1Z" style="fill:silver"/><path d="M59.93,97.88l-23.51-12a14.86,14.86,0,0,1-1.67-.75c-.28-.2-.36-.68-.52-1,.45,0,1-.24,1.33-.06,5.1,2.58,10.19,5.17,15.23,7.84,3.07,1.63,6.5,2.57,9.14,5Z" style="fill:#bdbdbd"/><path d="M55.93,149.85l-1,1q-7.71-3-15.42-6c-1.71-.67-3.43-1.32-5.09-2.09-.29-.13-.32-.83-.47-1.26.31-.06.68-.27.94-.17,4.31,1.6,8.6,3.26,12.9,4.87,2.44.91,4.91,1.74,7.34,2.68C55.47,149,55.67,149.52,55.93,149.85Z" style="fill:silver"/><path d="M58.93,137.86c.38,1-.93,2.53,1,3,0,1.29,0,2.59,0,3.89,0,3.33.67,3.8,3.85,2.74,2-.67,3.89-1.85,6.14-1.64v1c-.11.28-.17.76-.34.8-3.21.76-6.43,1.48-9.65,2.2l-1-3c-.38-1,.92-2.53-1-3,0-1.59-.07-3.19,0-4.78C58,138.64,58.59,138.26,58.93,137.86Z" style="fill:silver"/><path d="M61.92,79.89v1l-1,1-14-10,1-1c4.17,3,8.33,6,12.53,9C60.8,80.09,61.43,79.89,61.92,79.89Z" style="fill:silver"/><path d="M67.92,93.88c.26-.33.47-.9.78-1,5-1,9.38-3.62,14.21-5l1,1C82.1,91,79.28,90.77,77,91.73c-2.64,1.11-5.32,2.27-8.07,3.15Z" style="fill:#bfbfbf"/><path d="M61.92,113.87c2.73-.89,5.66-1,8.21-2.62,1.37-.87,3.4-.12,4.78-1.38l1,1c-1.58,1.93-4.1,1.65-6.14,2.51s-4.55,1-6.85,1.49h-1l-1-1Z" style="fill:#bdbdbd"/><path d="M65.92,45.91c-.06-.62,0-1.16-1-.59a7.79,7.79,0,0,1-2,.59v-1a30.67,30.67,0,0,0,2-6.77c0-1.15,0-2.3,0-3.45,0-.26.31-.52.48-.78.17.26.48.52.48.78,0,2.63,0,5.26,0,7.89.08,3.23,1.46-.65,2,.33l1,1Z" style="fill:#bebebe"/><path d="M64.92,78.89c1.49-1.51,3.54-2,5.28-3.08,2.1-1.26,4.7-1.75,6.28-3.89.18-.23.94,0,1.43,0l1,1c-3.83,2-7.65,4-11.51,6-.39.2-1,0-1.48,0Z" style="fill:#bdbdbd"/><path d="M52.93,163.84l-1,1c-2.93-1.33-5.82-2.79-8.84-3.93-1-.38-1.39-.77-1-1.61.12-.25,1.23-.38,1.61-.14,2.62,1.71,5.6,2.55,8.44,3.71C52.47,163,52.67,163.51,52.93,163.84Z" style="fill:#c5c5c5"/><path d="M71.92,56.9c3.27-2.06,7.27-2.83,10.15-5.63a.73.73,0,0,1,.66,0,1.42,1.42,0,0,1,.15.92,1.23,1.23,0,0,1-.54.75c-3.19,1.56-5.74,4.35-9.42,5Z" style="fill:#bfbfbf"/><path d="M71.92,145.85c.28-2.13,2.92,0,3.37-1.87,2.24.15,4.32-.62,6.46-1.08.63-.13,1.39.33,2.09.52a12.14,12.14,0,0,1-2,1c-3,.85-5.92,1.61-8.88,2.41Z" style="fill:#c4c4c4"/><path d="M78.91,72.89l-1-1c2.43-2.42,5.92-3,8.63-5,.22-.16.85.25,1.29.39-.2.53-.26,1.33-.63,1.53C84.47,70.27,81.68,71.56,78.91,72.89Z" style="fill:#c4c4c4"/><path d="M64.92,78.89h1c-2.72,2.45-3.53,5.51-3,9.07a27,27,0,0,1,0,3.92c-1.92-.47-.62-2-1-3,0-1.92.06-3.85,0-5.77,0-.42-.62-.82-1-1.22l1-1a6.89,6.89,0,0,0,1-.77c.37-.38.68-.82,1-1.23Z" style="fill:#b5b5b5"/><path d="M51.93,131.86l-1,1a57.87,57.87,0,0,0-10-4l1-1a3,3,0,0,1,1,0q4.51,1.71,9,3.5C52,131.4,51.93,131.69,51.93,131.86Z" style="fill:#bdbdbd"/><path d="M85.91,126.86c-.47,2-2.61.61-3.82,1.85-1,1.06-3.4.82-5.18,1.15l-1-1c.11-.27.24-.8.33-.79,3.45.27,6.42-1.57,9.67-2.21Z" style="fill:#bbb"/><path d="M61.92,113.87h-1l-1-1c0-2.26,0-4.51,0-6.77,0-.42.62-.82,1-1.23.16.76-.49,1.92,1,2Z" style="fill:#c8c8c8"/><path d="M61.92,88.88c.38,1-.92,2.53,1,3,.38,1-.92,2.53,1,3v1l-1,1-.33-.83-.67.83h-1v-8Z" style="fill:#c6c6c6"/><path d="M59.93,112.87l1,1,1,1v1c-.33.4-.92.79-1,1.21-.11,1.59,0,3.19,0,4.79h-1c0-3.35,0-3.35-2-6v-1l1.79.71c.07-.6.15-1.19.2-1.78C60,113.49,59.93,113.18,59.93,112.87Z" style="fill:#b7b7b7"/><path d="M82.91,107.87c1.81-2.09,4.85-1.34,6.89-3,.13-.11.72.38,1.1.59-.3.46-.51,1.16-.92,1.32-2,.76-4,1.38-6.07,2Z" style="fill:#c7c7c7"/><path d="M83.91,88.88l-1-1c1-.33,2-.61,3-1,.55-.23,1-.9,1.54-.93a21.33,21.33,0,0,1,3.28.26,8.14,8.14,0,0,1-2.37,1.62C86.87,88.17,85.57,89.36,83.91,88.88Z" style="fill:#bcbcbc"/><path d="M60.92,96.88h1v10c-1.49-.08-.84-1.24-1-2,0-1.92.06-3.85,0-5.77,0-.42-.62-.82-1-1.22v-1Z" style="fill:#afafaf"/><path d="M71.92,56.9l1,1c-1.24,1.72-3.41,1.87-5,3l-1-1C68.15,58.18,70.33,58,71.92,56.9Z" style="fill:#c6c6c6"/><path d="M49.93,55.9c-1.51-1-3-2-4.52-3.08a1.06,1.06,0,0,1,.13-1c.37-.28,1.1-.63,1.31-.46,1.42,1.09,2.73,2.32,4.08,3.5Z" style="fill:#c8c8c8"/><path d="M65.92,132.86l-1-1c.11-.27.17-.75.33-.79,1.88-.44,3.77-.81,5.67-1.21v1c0,.16,0,.44,0,.45C69.25,131.84,67.59,132.35,65.92,132.86Z" style="fill:#c2c2c2"/><path d="M68.92,42.91C70,41.12,72.29,41.16,73.8,40c.35-.28,1.21.09,1.83.17-.49.34-1,.69-1.46,1-1.41.93-2.83,1.84-4.25,2.76Z" style="fill:#bfbfbf"/><path d="M41.94,127.86l-1,1-5-2,1-1A15,15,0,0,1,41.94,127.86Z" style="fill:#c4c4c4"/><path d="M56.93,58.9l-1,1-4-3,1-1Z" style="fill:#c6c6c6"/><path d="M58.93,43.91c-1.09-.92-2.19-1.81-3.24-2.77a3.21,3.21,0,0,1-.48-1c.45,0,1-.26,1.3-.06,1.19.88,2.29,1.89,3.42,2.85Z" style="fill:#c3c3c3"/><path d="M36.94,125.86l-1,1c-1.12-.55-2.15-1.37-3.55-1.1a2,2,0,0,1-.38-1.23c.08-.3.7-.45,1.08-.67C33.88,125.48,36.3,124,36.94,125.86Z" style="fill:#c5c5c5"/><path d="M58.93,43.91l1-1,3,2v2Z" style="fill:#bebebe"/><path d="M70.92,130.86v-1c.72-.22,1.44-.48,2.17-.66s1.22-.23,1.82-.34v1c-.39.33-.74.89-1.18,1A18.77,18.77,0,0,1,70.92,130.86Z" style="fill:#b4b4b4"/><path d="M82.91,107.87l1,1c-.73.23-1.44.48-2.18.67s-1.21.22-1.82.33v-1C80.38,107,81.92,108.25,82.91,107.87Z" style="fill:#b6b6b6"/><ellipse cx="43.94" cy="69.39" rx="0.98" ry="2.56" transform="translate(-38.19 70.27) rotate(-58.27)" style="fill:#c2c2c2"/><path d="M42.94,67.89l-1,1c-.86-.69-1.74-1.37-2.57-2.1a.83.83,0,0,1-.13-.65c.26-.14.68-.33.86-.22C41.08,66.53,42,67.23,42.94,67.89Z" style="fill:#c3c3c3"/><path d="M79.91,108.87v1l-3,1v-1C77.38,108,78.93,109.25,79.91,108.87Z" style="fill:#b6b6b6"/><path d="M67.92,93.88l1,1-3,1-1-1C65.39,93,66.94,94.26,67.92,93.88Z" style="fill:#b2b2b2"/><path d="M52.93,55.9l-1,1-2-1,1-1Z" style="fill:#b7b7b7"/><path d="M44.94,70.89l1-1c.66.34,1.33.67,2,1l-1,1C46.27,71.56,45.6,71.23,44.94,70.89Z" style="fill:#b8b8b8"/><path d="M57.93,143.85c1.92.47.62,2,1,3h-1Z" style="fill:#bcbcbc"/><path d="M71.92,145.85l1,1h-3v-1Z" style="fill:#b8b8b8"/><path d="M64.92,94.88l1,1h-2v-1Z" style="fill:#b2b2b2"/><path d="M76.91,109.87v1h-1l-1-1Z" style="fill:#b5b5b5"/><path d="M85.91,126.86v-1a2.85,2.85,0,0,1,1,0,3.44,3.44,0,0,1,.85.65,4.33,4.33,0,0,1-.85.31A5.23,5.23,0,0,1,85.91,126.86Z" style="fill:#adadad"/><path d="M68.92,42.91l1,1h-1l-1-1Z" style="fill:#b4b4b4"/><path d="M74.91,129.86v-1h1l1,1Z" style="fill:#b2b2b2"/><path d="M57.93,114.87v1h-2l1-1Z" style="fill:#b0b0b0"/><path d="M61.92,96.88l.67-.83.33.83Z" style="fill:#afafaf"/><path d="M61.92,115.87v-1h1Z" style="fill:#c8c8c8"/><path d="M210.81,94.88v1l-.83-.67Z" style="fill:#b2b2b2"/><path d="M342.67,93.08c-.23.37-.38.77-.5.77a7.44,7.44,0,0,1-1.3-.31c.12-.22.23-.62.37-.63A8.9,8.9,0,0,1,342.67,93.08Z" style="fill:#a8a8a8"/></svg>