<svg width="251" height="144" viewBox="0 0 251 144" fill="none" xmlns="http://www.w3.org/2000/svg">
<path d="M34.187 14.0159C30.71 15.0773 27.1114 15.9609 23.6245 16.9289C17.3618 18.8021 8.94073 22.5624 3.24336 25.8933C1.41197 26.9976 1.31036 27.0066 1.5708 28.4914C2.77137 35.9243 1.92975 43.4436 4.83789 50.537C5.38331 51.8081 5.03407 53.3468 5.38619 54.7293C5.72839 56.0183 6.26388 57.1961 6.80931 58.4672C7.93986 61.3828 8.86718 64.3165 10.191 67.1208C14.2344 75.2447 19.906 82.2822 27.0024 88.2514C31.8483 92.3463 36.5925 96.4502 42.0901 99.9221C47.2629 103.234 52.1607 106.853 57.5071 109.867C66.1202 114.666 75.0802 118.868 84.4688 122.279C90.447 124.483 96.3434 126.883 102.659 128.398C108.964 129.819 115.145 132.005 121.78 131.702C123.706 133.416 126.261 131.4 127.996 132.283C130.269 133.401 132.221 132.474 134.375 132.472C136.732 132.453 139.151 132.05 141.488 131.844C145.756 131.466 149.478 129.818 153.191 128.076C157.585 125.991 160.64 122.894 163.656 119.423C166.58 116.054 166.59 116.148 171.076 117.824C172.31 119.788 174.88 119.844 176.554 121.109C177.295 121.327 177.944 121.646 178.685 121.863C180.42 122.747 181.972 123.834 183.798 124.615C185.513 125.312 185.853 123.68 186.879 123.683C186.78 122.75 187.667 121.446 185.798 121.234C182.99 118.938 179.131 118.337 176.057 116.441C174.972 115.878 173.896 115.407 172.81 114.844C168.631 112.198 168.743 112.282 170.765 108.145C172.113 105.387 173.034 102.479 173.844 99.4857C174.439 97.3599 174.81 95.0653 174.48 92.927C174.113 89.4727 173.959 86.0937 172.667 82.6269C171.204 78.5155 169.466 74.7112 167.129 71.0541C164.295 66.5928 161.269 62.2427 157.112 58.8408C150.714 53.6579 144.205 48.3907 136.799 44.3337C133.857 42.7091 131.567 40.4614 128.746 39.0146C120.75 35.1982 113.468 30.3763 105.116 27.0627C98.6912 24.5209 92.6856 21.094 86.0977 18.9436C79.5098 16.7932 72.7386 14.8476 65.7221 13.489C59.3351 12.2633 52.9656 12.1669 46.4945 12.0794C42.3085 12.2611 38.2539 12.7139 34.187 14.0159ZM48.6908 15.372C54.7455 15.4021 60.9118 15.5164 66.984 16.6758C73.5841 17.9769 80.0406 19.8562 86.4154 21.9311C92.6885 24.0151 98.4611 27.1799 104.571 29.6553C112.497 32.8182 119.455 37.4803 127.014 41.0525C129.825 42.406 132.004 44.5693 134.733 46.1185C141.814 50.0158 147.978 54.9365 154.051 59.9596C157.985 63.1928 160.992 67.3561 163.602 71.6487C165.818 75.128 167.536 78.7456 168.878 82.6793C170.048 85.9684 170.192 89.254 170.539 92.5216C170.758 94.5755 170.376 96.7767 169.874 98.8002C169.145 101.598 168.214 104.413 166.958 107.068L164.316 111.166C163.605 111.229 162.894 111.291 162.876 110.162C162.921 108.65 163.168 107.121 163.416 105.591C164.211 104.39 164.276 103.065 164.035 101.767C164.005 101.487 163.965 101.113 163.936 100.833C164.201 100.433 164.781 100.099 164.833 99.6229C164.845 98.7737 164.644 97.8491 164.555 97.0088C166.069 96.7807 165.249 95.8166 165.372 95.0517C165.343 94.7717 165.303 94.3982 165.273 94.1181C167.033 93.3029 166.212 92.3388 165.493 91.3658C165.382 91.2814 164.661 91.2509 164.67 91.3443C164.425 91.9314 164.291 92.6029 164.158 93.2744C164.187 93.5545 164.227 93.9279 164.257 94.208C162.743 94.4361 163.563 95.4002 163.439 96.1651C163.303 97.7791 163.056 99.3089 162.92 100.923C162.654 101.323 162.075 101.657 162.023 102.133C162.01 102.982 162.211 103.907 162.3 104.747C162.006 104.868 161.609 104.997 161.517 105.099C161.057 106.554 160.707 108.092 160.247 109.547C158.725 108.739 157.304 107.922 155.783 107.114C155.671 107.03 155.478 107.141 155.275 107.159C154.94 106.906 154.494 106.568 154.159 106.315C153.854 106.342 153.448 106.378 153.143 106.405C152.362 105.815 151.693 105.308 150.912 104.718C150.171 104.5 149.522 104.181 148.781 103.964C147.898 103.382 147.127 102.885 146.347 102.294C146.012 102.041 145.769 101.686 145.536 101.424C145.246 99.6586 145.159 97.8758 146.006 96.1988C147.374 93.6277 147.686 90.7729 148.211 87.9936C148.181 87.7135 148.141 87.3401 148.112 87.06C148.315 87.042 148.62 87.0151 148.62 87.0151C149.306 84.7869 150.602 82.5048 150.272 80.3665C149.892 77.7614 152.264 75.9496 151.803 73.5402C151.845 72.9711 151.664 72.2332 152.03 71.8238C152.479 71.2187 152.652 70.9207 151.891 70.5168C151.567 70.357 151.14 70.2062 150.816 70.0464C150.774 70.6156 150.732 71.1848 150.69 71.7539C150.395 71.8742 149.897 72.0125 149.916 72.1992C149.32 75.2676 149.251 78.4778 147.719 81.4404C147.117 82.5303 147.276 84.024 146.999 85.2737C147.028 85.5537 147.068 85.9272 147.098 86.2073C146.823 86.5143 146.233 86.7549 146.161 87.044C146.12 91.4769 144.606 95.5687 143.407 99.727C142.787 99.6876 141.883 99.8618 141.548 99.6087C140.291 98.4005 138.524 98.1798 137.012 97.4653C136.658 97.0255 136.284 96.3989 135.746 96.1638C133.26 94.97 130.774 93.7763 128.288 92.5825C127.641 91.3204 125.997 90.3349 127.454 88.604C127.903 87.9989 127.581 86.8965 127.593 86.0473C129.107 85.8191 128.287 84.8551 128.41 84.0902C128.341 83.4367 128.281 82.8765 128.212 82.223C128.487 81.916 128.854 81.5066 129.129 81.1996C129.099 80.9195 129.059 80.546 129.03 80.2659C129 79.9859 128.96 79.6124 128.93 79.3323C130.445 79.1042 129.624 78.1401 129.748 77.3753C129.718 77.0952 129.678 76.7217 129.649 76.4417C129.924 76.1346 130.514 75.894 130.585 75.6049C131.051 72.2654 131.841 69.0857 132.621 65.8126C132.663 65.2434 132.705 64.6743 132.747 64.1051C132.881 63.4336 133.005 62.6688 133.24 61.9883C133.211 61.7082 133.171 61.3348 133.141 61.0547C135.012 60.3238 133.24 58.1246 134.786 57.2339C134.543 56.8784 134.28 56.3363 133.966 56.2699C133.549 56.2124 132.766 56.5644 132.786 56.7511C132.742 58.2629 131.438 59.509 132.115 61.0512C130.234 61.6887 131.704 62.9723 131.397 63.9419C129.332 64.7841 131.35 66.3962 130.545 67.504C128.751 69.9244 129.271 72.894 128.523 75.5046C128.553 75.7846 128.593 76.1581 128.623 76.4382C127.108 76.6663 127.929 77.6304 127.805 78.3952C127.835 78.6753 127.874 79.0488 127.904 79.3288C127.609 79.4492 127.213 79.5785 127.121 79.6808C126.903 81.4906 126.685 83.3004 126.468 85.1102C124.953 85.3383 125.774 86.3024 125.65 87.0672C125.358 90.1087 124.676 90.4517 121.784 89.2939C119.798 87.0193 116.854 86.3372 114.175 85.2548C113.82 84.815 113.446 84.1884 112.908 83.9533C110.422 82.7595 107.936 81.5658 105.45 80.372C105.893 77.7884 106.245 75.3071 106.688 72.7235C106.619 72.0699 106.559 71.5098 106.49 70.8563C106.755 70.4559 107.335 70.1219 107.387 69.6461C107.399 68.7968 107.198 67.8722 107.109 67.032C107.629 66.1378 108.493 61.7264 108.446 60.317C108.741 60.1967 109.239 60.0584 109.219 59.8717C109.363 55.4298 110.552 51.1782 111.121 46.8871C111.091 46.607 111.052 46.2336 111.022 45.9535C112.538 44.7828 111.891 43.5207 111.143 42.2675C111.031 42.1832 110.015 42.273 109.933 42.4687C109.678 42.9625 109.849 43.607 109.807 44.1762C109.837 44.4562 109.877 44.8297 109.906 45.1098C109.611 45.2301 109.113 45.3684 109.133 45.5551C108.99 49.997 107.801 54.2486 107.232 58.5397C107.301 59.1932 107.361 59.7534 107.43 60.4069C106.91 61.301 106.045 65.7124 106.093 67.1218C105.887 68.0824 105.58 69.0519 105.374 70.0125C105.444 70.666 105.503 71.2262 105.573 71.8797C105.278 72 104.78 72.1383 104.79 72.2317C104.857 73.8278 104.406 75.3755 104.158 76.9052C103.921 78.5283 103.898 79.2841 101.93 78.1388C101.058 77.6505 99.9105 77.4693 98.9463 77.0834C98.7034 76.7279 98.4505 76.2791 98.1159 76.0259C93.9965 73.94 89.9787 71.8451 85.8594 69.7592C83.2496 69.3303 82.9097 67.0986 83.5836 65.7197C84.3393 64.145 83.7939 62.8739 83.9498 61.4466C85.8309 60.809 84.361 59.5254 84.6682 58.5559C84.5987 57.9024 84.5391 57.3422 84.4697 56.6887C84.99 55.7945 85.8543 51.3831 85.8071 49.9737C85.7376 49.3202 85.678 48.76 85.6085 48.1065C85.9034 47.9862 86.4016 47.8479 86.3817 47.6612C86.6738 44.6197 86.8642 41.5873 87.5726 38.6032C88.0655 36.4864 87.9289 34.2368 87.8939 31.9781C87.8641 31.6981 87.1032 31.2942 86.6669 31.05C86.3919 31.3571 85.9136 31.6821 85.9434 31.9621C85.6934 34.4345 85.9713 37.0486 85.1934 39.3791C84.7327 40.8334 85.4912 42.1799 85.0007 43.3541C84.52 44.6217 84.141 45.8803 84.4931 47.2628C84.5229 47.5429 84.5626 47.9163 84.5924 48.1964C84.2975 48.3167 83.7994 48.455 83.8093 48.5483C83.8344 50.7136 83.8495 52.7855 83.255 54.9113C83.3245 55.5649 83.384 56.125 83.4535 56.7785C81.5725 57.4161 83.0424 58.6997 82.7352 59.6692C82.9436 61.6298 81.5882 63.3517 82.223 65.4631C82.5453 66.5654 81.0608 67.0736 79.8736 66.5189C76.4532 65.2194 73.6548 63.0166 70.2245 61.6237C65.0791 59.5342 65.2525 59.2362 64.7165 54.1947C64.5378 52.5142 64.3492 50.7404 64.1705 49.0599C64.4357 48.6595 65.0056 48.2321 65.0675 47.8497C65.0401 46.627 64.8194 45.5157 64.6903 44.302C64.6209 43.6485 64.5613 43.0883 64.4918 42.4348C64.3628 41.2211 64.2238 39.914 64.0947 38.7003C64.3698 38.3933 64.9596 38.1527 65.0315 37.8636C65.004 36.6409 64.6618 35.3519 64.736 34.1202C64.7431 31.2924 63.2061 28.4127 64.7472 25.5435C64.9207 25.2455 63.8053 24.4017 63.3393 23.8775C63.1758 24.2689 62.9106 24.6693 62.7471 25.0607C61.5925 27.7072 62.2968 30.4721 62.5747 33.0862C62.7732 34.9534 62.9718 36.8206 63.1703 38.6878C62.9052 39.0882 62.3352 39.5156 62.2733 39.898C62.3603 41.6809 62.6505 43.4457 62.849 45.3129C63.0178 46.9001 63.1766 48.3938 63.3454 49.981C63.0802 50.3814 62.5102 50.8087 62.4483 51.1912C62.5055 52.6939 62.766 54.1787 62.9248 55.6725C62.6772 57.2022 61.9063 56.7049 60.8406 56.328C56.2032 54.1936 52.1977 51.2495 47.3869 49.4131C46.098 48.8675 44.1598 48.0022 44.4594 45.9967C44.2311 43.8494 43.9929 41.6088 43.7646 39.4615C45.2788 39.2333 44.4583 38.2693 44.5822 37.5044C44.4531 36.2907 44.3141 34.9837 44.1851 33.77C43.9866 31.9028 43.788 30.0356 43.5895 28.1684C43.7927 28.1504 44.0976 28.1234 44.0976 28.1234C43.9411 25.6871 43.8962 23.3351 43.6381 20.9077C43.6282 20.8143 42.5005 20.8198 41.7793 20.7894C41.809 21.0694 41.8487 21.4429 41.8785 21.723C42.1068 23.8703 42.3451 26.1109 42.5734 28.2582C42.3082 28.6586 41.7383 29.086 41.6764 29.4684C41.7038 30.6911 41.9245 31.8024 42.0536 33.0161C43.2314 37.3411 41.5542 41.8244 42.4271 46.1764C38.2756 44.753 34.7262 42.2397 30.8299 40.3226C29.3081 39.5147 27.7961 38.8003 26.1925 38.1882C24.4897 36.6425 24.881 34.5346 24.5808 32.6764C24.3823 30.8092 24.1838 28.942 23.9852 27.0748C23.8363 25.6744 23.6874 24.274 23.5485 22.9669C23.5385 22.8736 23.1122 22.7228 22.8991 22.6474C22.8273 22.9364 22.7554 23.2255 22.6737 23.4212C22.4085 23.8216 21.8385 24.249 21.7866 24.7248C21.9828 27.5346 22.3722 30.233 22.67 33.0339C22.9678 35.8347 22.9678 35.8347 19.9738 34.6859C19.5475 34.5351 19.1112 34.2909 18.6849 34.1402C16.5581 31.5011 12.7488 31.3667 10.2651 29.2304C10.1536 29.146 9.37045 29.498 9.08547 29.7117C8.89217 29.823 8.95173 30.3832 9.07319 30.5609C9.52928 30.9918 9.99529 31.516 10.5331 31.7511C12.9076 32.8605 15.2821 33.9699 17.7581 35.0703C18.0927 35.3234 18.3357 35.6789 18.6703 35.932C18.8934 36.1007 19.2998 36.0648 19.6047 36.0378C19.4312 36.3359 19.3594 36.625 19.0744 36.8386C18.3012 37.284 17.4065 37.5515 16.5317 38.0059C13.8255 39.5645 10.5021 40.1411 8.29167 42.504C8.00668 42.7177 7.83323 43.0158 7.54825 43.2295C7.86301 43.2959 8.1877 43.4556 8.39093 43.4377C8.7057 43.5041 9.00061 43.3837 9.40706 43.3478C12.6114 41.6509 16.2099 40.7672 19.2729 38.7058C19.7512 38.3808 20.5939 38.589 21.2036 38.5351C21.3694 37.2011 22.1006 37.3249 23.0747 37.8042C23.8356 38.2081 24.6064 38.7054 25.3674 39.1093C29.1299 41.698 33.2394 43.6905 37.5421 45.5718C37.8668 45.7315 38.313 46.069 38.3527 46.4425C38.3825 46.7226 38.0356 47.3187 37.7407 47.439C33.4805 48.8523 29.736 51.2567 25.8402 53.2033C23.8996 53.2806 22.8192 54.6955 21.2629 55.4928C19.5133 56.4014 17.5307 57.0479 15.781 57.9565C15.4861 58.0769 15.1591 58.8597 15.169 58.953C15.6152 59.2905 16.2844 59.7968 16.5793 59.6765C18.3587 59.0479 19.9051 58.1573 21.6746 57.4354C23.6374 56.6021 25.4886 55.6845 26.8639 54.1493C30.9506 53.0341 34.6233 50.9188 38.3258 49.0835C39.9837 48.2773 41.3567 47.6847 42.7968 48.6882C46.0116 50.9483 49.7566 52.4077 53.3183 54.0718C55.1549 54.946 56.9197 56.1092 58.6845 57.2725C59.4553 57.7698 59.4232 58.4323 58.3551 58.998C57.0838 59.5816 56.0752 60.7074 54.784 61.1043C50.7989 62.2106 47.3195 64.2145 43.8401 66.2185C40.3607 68.2225 36.4971 69.5065 33.1292 71.5949C31.7761 72.3742 30.5246 73.1445 29.293 74.1016C29.1096 74.3063 29.2807 74.9508 29.2188 75.3332C29.6154 75.2039 29.9103 75.0836 30.3167 75.0477C33.7021 74.0886 36.2173 71.6987 39.3598 70.3842C46.0312 67.5326 52.3184 63.961 58.8485 60.7448C60.4049 59.9475 61.939 59.9061 63.4334 59.4913C64.8536 60.3081 66.1822 61.2272 67.6941 61.9417C71.4987 63.9612 75.7519 65.3756 78.7511 68.503C77.3981 69.2823 76.0251 69.8749 74.7835 70.7386C68.3924 75.2618 62.0012 79.7849 55.2556 83.8683C52.7526 85.4089 50.6041 87.3894 48.1111 89.0235C47.4395 89.4598 47.043 89.5891 47.8138 90.0864C48.25 90.3305 48.8796 90.4633 49.2761 90.334C49.9675 90.0844 50.6391 89.6481 51.3107 89.2117C57.1418 85.2093 62.8515 81.0291 68.7941 77.111C72.5188 74.5199 76.4864 72.2843 79.9682 69.3377C81.9806 68.9713 83.4703 70.4416 85.2473 70.7557C85.4903 71.1111 85.7431 71.56 86.0777 71.8131C90.1971 73.899 94.2149 75.9939 98.3343 78.0799C100.758 79.656 100.748 79.5627 99.0485 80.9381C95.1801 84.1073 91.2002 87.1922 87.3319 90.3614C86.5388 90.62 85.3516 90.0653 85.3989 91.4747C82.8662 92.7353 80.901 94.5111 78.8244 96.2026C76.7576 97.9874 74.0117 99.1726 72.0665 101.135C71.3849 101.478 70.7034 101.821 70.0318 102.257C69.6552 102.573 69.5115 103.152 69.2464 103.552C69.7743 103.694 70.4237 104.013 70.9317 103.968C72.3642 103.936 72.8846 103.042 73.1719 101.886C73.4768 101.859 73.8931 101.916 74.1881 101.796C78.1878 98.8975 82.2891 95.9904 86.2789 92.999C86.4722 92.8876 86.4325 92.5142 86.5044 92.2251C87.1859 91.8821 87.7559 91.4548 88.4374 91.1118C92.8138 87.8976 97.2918 84.6745 101.668 81.4604C102.34 81.024 103.864 80.8892 104.818 81.1818C107.76 82.8064 110.601 84.44 113.543 86.0646C116.049 87.4451 118.646 88.7232 121.152 90.1037C121.767 92.0283 120.139 93.1146 118.999 93.9694C115.294 96.7472 111.711 99.7027 108.117 102.565C106.742 104.1 104.232 104.605 103.434 106.749C100.391 108.997 97.236 111.16 94.2027 113.502C94.0194 113.707 93.9972 114.462 94.1285 114.734C94.3615 114.996 95.2042 115.204 95.3876 114.999C98.6439 112.826 101.779 110.476 104.448 107.601C106.391 106.581 108.445 105.646 109.131 103.418C109.639 103.373 110.269 103.506 110.554 103.292C113.751 100.559 116.846 97.8351 119.931 95.0178C122.079 93.0373 124.409 91.7947 127.544 93.3079C127.899 93.7478 128.273 94.3744 128.811 94.6095C131.297 95.8033 133.783 96.997 136.269 98.1907C136.502 98.4529 136.765 98.995 137.181 99.0525C138.847 99.2821 139.85 100.042 139.714 101.656C138.493 102.706 137.169 103.765 135.948 104.816C131.499 108.319 127.163 111.907 122.714 115.41C122.439 115.717 122.073 116.126 121.798 116.433C120.098 117.809 118.398 119.184 116.698 120.56C116.413 120.773 116.239 121.071 116.157 121.267C116.086 121.556 116.135 122.023 116.348 122.098C116.785 122.342 117.526 122.56 117.709 122.355C119.481 120.69 121.243 118.933 122.903 117.184C123.208 117.157 123.614 117.121 123.919 117.094C124.194 116.787 124.561 116.377 124.836 116.07C127.941 113.44 131.056 110.903 134.161 108.272C135.2 107.426 136.927 107.274 137.053 105.566C138.275 104.516 140.52 104.411 140.82 102.406C143.819 101.67 145.866 103.562 148.231 104.578C148.972 104.795 149.621 105.115 150.362 105.332C151.143 105.922 151.812 106.429 152.593 107.019C153.334 107.236 153.983 107.556 154.724 107.773C155.059 108.026 155.505 108.364 155.84 108.617C156.499 109.03 157.25 109.34 157.909 109.753C157.553 110.256 157.196 110.759 156.829 111.168C155.414 112.33 153.888 113.407 152.371 114.578C149.134 116.937 145.898 119.297 142.671 121.75C142.295 122.066 141.531 122.604 142.506 123.084C142.942 123.328 143.683 123.545 143.968 123.331C145.973 121.929 148.079 120.518 149.851 118.853C151.063 117.709 153.298 117.512 153.496 115.515C155.409 114.215 157.434 112.999 159.236 111.615C160.091 110.974 160.609 111.022 161.379 111.52C161.937 111.941 162.688 112.252 163.347 112.665L160.359 117.358C157.527 120.624 154.563 123.619 150.362 125.593C146.742 127.232 143.223 128.863 139.25 129.12C137.014 129.318 134.687 129.618 132.442 129.722C130.491 129.706 128.538 130.633 126.377 129.599C124.754 128.8 122.392 130.705 120.476 129.084C114.146 129.361 108.289 127.334 102.289 125.886C96.2985 124.531 90.6152 122.206 84.9518 120.068C76.091 116.8 67.5574 112.748 59.2789 108.203C54.1557 105.358 49.4809 101.907 44.5311 98.7639C39.3583 95.4518 34.7355 91.5256 30.2144 87.5904C23.4525 81.8744 18.014 75.0989 14.2234 67.4239C12.9194 64.8063 12.002 61.966 10.9929 59.2281C10.5591 58.0414 9.92196 56.8726 9.6913 55.6679C9.3491 54.3788 9.70827 52.9335 9.16285 51.6624C6.49764 44.9244 7.26743 37.6942 6.01487 30.7371C5.76436 29.3457 5.85605 29.2433 7.59575 28.2414C12.9982 25.0307 21.0327 21.4931 26.9905 19.6469C30.3659 18.5945 33.7811 17.9156 37.0549 16.8722C40.9384 15.7749 44.7898 15.34 48.6908 15.372Z" fill="#0A483A"/>
<path d="M216.809 40.2109C215.625 39.0483 214.5 37.803 213.358 36.6181C211.243 34.5166 207.816 31.9347 205.129 30.3425C204.249 29.8373 204.225 29.799 203.579 30.1933C200.326 32.1268 196.63 33.272 193.873 35.8121C193.384 36.2769 192.593 36.4414 192.013 36.8519C191.475 37.24 191.028 37.6825 190.539 38.1473C189.393 39.1658 188.199 40.1077 187.143 41.1806C184.127 44.3708 181.941 47.9896 180.539 51.9605C179.572 54.6756 178.581 57.3525 178.036 60.2023C177.501 62.8927 176.768 65.5349 176.407 68.2351C175.854 72.5739 175.648 76.9325 175.899 81.3045C176.043 84.0948 176.08 86.8913 176.614 89.6791C177.191 92.4445 177.384 95.3115 178.835 97.8679C178.41 98.9641 179.861 99.5754 179.788 100.433C179.712 101.549 180.532 102.137 180.958 102.986C181.432 103.911 182.098 104.786 182.656 105.667C183.675 107.276 185.183 108.42 186.734 109.541C188.579 110.864 190.636 111.461 192.86 111.968C195.019 112.46 194.977 112.482 195.075 114.58C194.396 115.453 194.877 116.477 194.613 117.385C194.657 117.72 194.635 118.039 194.679 118.374C194.607 119.232 194.402 120.057 194.396 120.931C194.407 121.744 195.24 121.557 195.441 121.962C195.86 121.74 196.647 121.834 196.378 121.055C196.902 119.497 196.423 117.857 196.706 116.273C196.757 115.734 196.766 115.217 196.816 114.678C197.234 112.511 197.216 112.571 199.557 112.556C201.118 112.546 202.666 112.338 204.23 112.069C205.346 111.886 206.496 111.582 207.435 111.032C208.985 110.208 210.541 109.484 211.913 108.293C213.555 106.909 214.998 105.476 216.254 103.836C217.79 101.843 219.235 99.7946 220.012 97.4873C221.184 93.9466 222.373 90.3453 222.816 86.6281C222.999 85.1488 223.602 83.8042 223.725 82.4078C223.94 78.5052 224.767 74.6865 224.675 70.742C224.601 67.7095 225.025 64.6682 224.735 61.6481C224.445 58.628 224.023 55.5758 223.277 52.5422C222.592 49.7829 221.381 47.2524 220.146 44.6835C219.235 43.0686 218.222 41.5588 216.809 40.2109ZM219.033 46.1963C220.214 48.5897 221.376 51.0436 222.03 53.6658C222.721 56.5239 223.112 59.4389 223.395 62.3602C223.654 65.2431 223.307 68.1411 223.35 71.0364C223.429 74.7832 222.613 78.4425 222.427 82.1251C222.346 83.4993 221.76 84.7833 221.571 86.1637C221.138 89.7216 220.044 93.1189 218.883 96.5002C218.141 98.6864 216.78 100.69 215.279 102.562C214.083 104.12 212.723 105.508 211.141 106.809C209.828 107.917 208.314 108.619 206.848 109.398C205.927 109.888 204.818 110.17 203.769 110.369C202.312 110.631 200.807 110.817 199.312 110.843L196.867 110.607C196.698 110.339 196.528 110.07 197.054 109.842C197.773 109.562 198.54 109.359 199.307 109.157C200.028 109.234 200.663 108.999 201.225 108.649C201.35 108.583 201.518 108.494 201.643 108.427C201.884 108.453 202.155 108.616 202.388 108.543C202.79 108.381 203.184 108.12 203.561 107.92C203.967 108.472 204.258 107.959 204.641 107.858C204.767 107.791 204.934 107.702 205.06 107.635C205.79 108.169 206.08 107.656 206.395 107.181C206.413 107.121 206.285 106.83 206.243 106.853C205.919 106.871 205.578 106.95 205.236 107.03C205.11 107.096 204.943 107.185 204.817 107.252C204.411 106.7 204.121 107.213 203.737 107.314C202.952 107.578 202.185 107.78 201.401 108.044C201.16 108.018 200.889 107.855 200.656 107.928C200.254 108.09 199.86 108.351 199.483 108.551C199.368 108.458 199.23 108.327 199.163 108.311C198.39 108.415 197.598 108.58 196.825 108.684C196.904 107.925 197.007 107.205 197.086 106.446C197.104 106.385 197.013 106.331 196.965 106.254C197.018 106.073 197.088 105.83 197.141 105.649C197.068 105.534 196.971 105.381 196.898 105.266C197.022 104.842 197.127 104.478 197.251 104.055C197.206 103.72 197.228 103.401 197.184 103.066C197.283 102.604 197.364 102.202 197.488 101.778C197.541 101.597 197.66 101.431 197.737 101.288C198.508 100.827 199.328 100.442 200.282 100.447C201.759 100.481 203.161 100.043 204.569 99.7042C204.695 99.6375 204.863 99.5485 204.988 99.4817C205.037 99.5583 205.11 99.6732 205.11 99.6732C206.291 99.5061 207.618 99.5688 208.557 99.0187C209.705 98.3573 211.024 98.9365 212.064 98.2813C212.339 98.1861 212.65 97.9698 212.915 98.034C213.287 98.092 213.461 98.1018 213.501 97.7224C213.512 97.563 213.498 97.3653 213.509 97.2059C213.234 97.3011 212.958 97.3963 212.683 97.4915C212.568 97.3989 212.405 97.2296 212.321 97.2741C210.763 97.6415 209.242 98.2449 207.549 98.2231C206.919 98.1998 206.249 98.5558 205.607 98.6919C205.482 98.7587 205.314 98.8477 205.189 98.9144C204.99 98.8663 204.761 98.681 204.611 98.7094C202.522 99.5639 200.302 99.7708 198.113 100.115C198.009 99.8628 197.749 99.5403 197.802 99.3586C198.121 98.6257 197.876 97.8856 197.914 97.1491C198.05 96.9229 198.27 96.6522 198.275 96.3939C198.345 95.1792 198.415 93.9644 198.485 92.7496C198.95 92.2466 199.088 91.405 200.188 91.6395C200.561 91.6975 201.015 91.3539 201.416 91.1919C201.822 91.7442 202.113 91.2313 202.496 91.1298C202.789 90.9741 203.041 90.8405 203.334 90.6848C203.532 90.7329 203.797 90.7971 203.995 90.8453C204.121 90.7785 204.288 90.6895 204.414 90.6227C204.539 90.556 204.707 90.4669 204.833 90.4002C205.238 90.9525 205.529 90.4396 205.913 90.3381C206.038 90.2714 206.206 90.1824 206.331 90.1156C206.53 90.1637 206.759 90.3491 206.909 90.3206C208.569 89.8481 210.217 89.5351 211.908 89.1998C212.184 89.1046 212.459 89.0094 212.735 88.9142C213.076 88.835 213.46 88.7336 213.826 88.6927C213.951 88.6259 214.119 88.5369 214.244 88.4702C214.957 89.0644 215.64 87.9335 216.363 88.3683C216.482 88.2027 216.684 87.9926 216.654 87.8554C216.598 87.6799 216.279 87.4403 216.195 87.4848C215.476 87.7642 214.634 87.4951 214.044 88.0649C213.373 87.4484 213.061 88.2801 212.545 88.3495C211.742 87.7009 211.383 88.8131 210.704 88.7132C209.214 88.4812 207.923 89.27 206.549 89.4878C206.424 89.5545 206.256 89.6436 206.131 89.7103C205.725 89.158 205.434 89.6709 205.051 89.7724C204.925 89.8391 204.757 89.9281 204.632 89.9949C204.517 89.9022 204.378 89.7713 204.312 89.7552C203.419 90.0249 202.527 90.2945 201.634 90.5641C201.228 90.0118 200.938 90.5247 200.554 90.6261C199.068 91.1084 198.773 90.9071 198.746 89.5391C199.422 88.3093 199.162 87.0143 199.141 85.7452C199.278 85.519 199.498 85.2484 199.502 84.9901C199.573 83.7753 199.643 82.5606 199.713 81.3458C201.013 81.0131 202.247 80.6643 203.548 80.3316C203.841 80.1758 204.092 80.0423 204.385 79.8865C204.626 79.9124 204.897 80.0754 205.13 80.0025C205.532 79.8405 205.926 79.5797 206.303 79.3794C206.825 79.4089 209.067 78.8832 209.719 78.5877C209.834 78.6803 209.997 78.8496 210.081 78.8051C212.195 77.989 214.425 77.6227 216.552 77.0043C216.678 76.9375 216.845 76.8485 216.971 76.7817C217.82 77.1498 218.285 76.6467 218.725 76.1054C218.743 76.0448 218.5 75.6618 218.392 75.668C218.11 75.6643 217.841 75.8584 217.566 75.9536C217.44 76.0204 217.273 76.1094 217.147 76.1762C217.032 76.0835 216.869 75.9143 216.785 75.9588C214.672 76.7749 212.441 77.1412 210.314 77.7596C210.021 77.9154 209.77 78.0489 209.477 78.2047C208.954 78.1751 206.713 78.7008 206.06 78.9964C205.569 79.104 205.053 79.1733 204.561 79.2809C204.268 79.4367 204.017 79.5702 203.724 79.726C203.609 79.6334 203.446 79.4641 203.404 79.4863C202.668 79.8264 201.853 79.9526 201.086 80.1554C200.277 80.3805 199.917 80.5203 200.067 79.5193C200.124 79.0793 199.983 78.5912 199.974 78.1353C200.093 77.9696 200.254 77.7818 200.306 77.6001C200.473 75.566 200.664 73.5702 200.831 71.5361C200.517 70.4228 201.498 69.8504 202.278 69.8453C203.167 69.8339 203.656 69.3692 204.357 69.1503C205.027 69.7668 205.34 68.935 205.856 68.8657C206.149 68.7099 206.4 68.5764 206.693 68.4206C207.216 68.4502 209.457 67.9244 210.11 67.6289C210.403 67.4731 210.654 67.3396 210.947 67.1838C211.062 67.2765 211.225 67.4458 211.309 67.4013C212.794 66.919 214.256 66.3984 215.796 66.0915C216.887 65.8701 217.917 65.3743 218.97 64.9168C219.096 64.85 219.135 64.4706 219.164 64.2507C218.965 64.2025 218.718 64.0778 218.593 64.1445C217.383 64.5316 216.21 65.1547 214.963 65.3058C214.189 65.4098 213.706 65.9734 213.058 66.0106C212.368 66.0701 211.703 66.1679 211.123 66.5783C210.998 66.645 210.83 66.7341 210.704 66.8008C210.59 66.7082 210.427 66.5389 210.385 66.5612C209.373 66.9964 208.403 67.4094 207.288 67.5925C206.995 67.7483 206.744 67.8818 206.451 68.0376C205.78 67.4211 205.468 68.2528 204.952 68.3222C204.072 68.7895 202.997 68.5933 202.131 69.2583C201.677 69.602 201.145 69.1164 201.171 68.5393C201.107 66.9353 201.589 65.3992 201.566 63.7729C201.532 61.3336 201.706 61.3434 203.968 60.1417C204.721 59.7412 205.517 59.3183 206.271 58.9178C206.511 58.9437 206.824 59.0845 207.016 59.0338C207.584 58.7828 208.063 58.4774 208.607 58.1881C208.9 58.0323 209.151 57.8988 209.444 57.743C209.989 57.4538 210.575 57.1422 211.119 56.8529C211.318 56.9011 211.547 57.0864 211.697 57.0579C212.266 56.8069 212.803 56.4188 213.396 56.2061C214.725 55.6534 215.774 54.4816 217.425 54.5257C217.599 54.5356 217.775 53.93 217.93 53.6433C217.714 53.6557 217.473 53.6298 217.257 53.6422C215.787 53.7068 214.628 54.5276 213.455 55.1507C212.618 55.5958 211.78 56.0409 210.943 56.4859C210.703 56.46 210.39 56.3192 210.198 56.3699C209.378 56.7545 208.607 57.2156 207.769 57.6607C207.057 58.039 206.387 58.395 205.675 58.7733C205.435 58.7474 205.122 58.6066 204.93 58.6574C204.236 58.9751 203.59 59.3695 202.92 59.7255C202.153 59.9284 202.235 59.5267 202.201 59.0324C202.289 56.7846 202.881 54.6268 202.794 52.3691C202.796 51.7537 202.82 50.8195 203.82 50.5437C204.784 50.0318 205.789 49.4977 206.752 48.9859C207.157 49.5382 207.448 49.0253 207.832 48.9239C208.376 48.6346 208.962 48.323 209.507 48.0337C210.344 47.5886 211.182 47.1436 212.019 46.6985C212.068 46.7751 212.14 46.89 212.14 46.89C213.253 46.3497 214.349 45.87 215.438 45.2914C215.479 45.2691 215.254 44.8256 215.126 44.5352C215.001 44.6019 214.833 44.691 214.708 44.7577C213.745 45.2696 212.74 45.8036 211.777 46.3155C211.536 46.2896 211.223 46.1488 211.031 46.1995C210.463 46.4505 209.985 46.7558 209.44 47.0451C207.642 48.3592 205.206 48.5785 203.335 49.7776C203.185 47.861 203.664 45.9677 203.796 44.0547C203.875 43.2959 203.912 42.5594 203.883 41.8069C204.273 40.8318 205.34 40.572 206.153 40.0886C206.99 39.6435 207.828 39.1985 208.665 38.7534C209.294 38.4196 209.922 38.0858 210.508 37.7742C210.55 37.752 210.536 37.5543 210.53 37.4554C210.38 37.4839 210.23 37.5123 210.122 37.5185C209.882 37.4926 209.569 37.3518 209.335 37.4248C208.055 38.0541 206.864 38.7378 205.608 39.4054C204.352 40.073 204.352 40.073 204.301 38.6667C204.287 38.469 204.316 38.249 204.303 38.0513C205.122 36.6943 204.434 35.1658 204.947 33.7668C204.965 33.7062 204.645 33.4666 204.488 33.3962C204.398 33.3418 204.147 33.4753 204.087 33.5582C203.975 33.8226 203.821 34.1094 203.816 34.3676C203.764 35.5218 203.711 36.6761 203.683 37.8686C203.63 38.0502 203.511 38.2158 203.459 38.3975C203.423 38.5186 203.52 38.6718 203.593 38.7867C203.419 38.7769 203.269 38.8054 203.113 38.735C202.751 38.5176 202.449 38.2173 202.063 37.9616C200.797 37.2007 199.871 36.0035 198.326 35.5961C198.169 35.5257 197.995 35.5158 197.839 35.4454C197.869 35.5826 197.858 35.742 197.907 35.8186C197.938 35.9558 198.053 36.0484 198.15 36.2016C199.578 37.1318 200.703 38.3772 202.275 39.18C202.522 39.3048 202.591 39.678 202.736 39.9078C203.395 39.7111 203.481 40.0238 203.448 40.502C203.409 40.8814 203.327 41.283 203.288 41.6624C202.815 43.6546 202.69 45.6664 202.655 47.7326C202.645 47.892 202.574 48.1342 202.407 48.2232C202.281 48.29 201.933 48.2703 201.818 48.1777C200.314 46.7754 198.447 45.7712 196.764 44.6174C196.345 43.8674 195.468 43.7193 194.786 43.2623C194.015 42.7509 193.32 42.0961 192.548 41.5847C192.434 41.492 192.002 41.5168 191.96 41.5391C191.889 41.7813 191.784 42.1446 191.898 42.2373C192.544 42.8155 193.268 43.2503 193.956 43.8062C194.734 44.4165 195.53 44.9662 196.522 45.2069C197.852 46.5993 199.569 47.632 201.161 48.7314C201.867 49.2268 202.416 49.6518 202.229 50.4168C201.802 52.1284 201.856 53.8918 201.777 55.6231C201.729 56.519 201.531 57.4434 201.333 58.3678C201.251 58.7694 200.934 58.8869 200.458 58.5769C199.933 58.1902 199.205 58.0137 198.764 57.5825C197.459 56.2284 195.832 55.2501 194.204 54.2718C192.577 53.2934 191.212 52.0222 189.567 51.1044C188.935 50.7239 188.326 50.3818 187.634 50.0841C187.501 50.052 187.233 50.2461 187.041 50.2968C187.18 50.4278 187.294 50.5204 187.391 50.6736C188.51 51.8201 190.128 52.3425 191.365 53.3234C194.02 55.3939 196.937 57.1714 199.735 59.1146C200.416 59.5717 200.738 60.1684 201.228 60.6762C201.124 61.3967 200.955 62.1011 200.918 62.8376C200.72 64.7346 200.895 66.6895 200.018 68.4865C199.386 68.106 198.837 67.681 198.186 67.3611C194.802 65.7295 191.418 64.0979 188.17 62.2401C186.953 61.5558 185.599 61.0976 184.34 60.4356C184.003 60.2565 183.864 60.1255 183.782 60.5272C183.754 60.7471 183.816 61.0215 183.955 61.1524C184.208 61.376 184.546 61.5551 184.883 61.7342C187.912 63.2473 191.001 64.6776 194.013 66.2512C195.964 67.2109 197.796 68.3362 199.867 69.1303C200.436 69.8519 200.039 70.7281 200.242 71.4905C200.123 71.6562 199.962 71.844 199.91 72.0257C199.743 74.0598 199.552 76.0556 199.385 78.0897C199.123 79.3551 199.165 79.3329 198.184 78.9327C195.933 78.0299 193.7 77.0666 191.449 76.1638C191.171 75.9019 191.197 75.3248 190.545 75.6203C189.453 74.8692 188.232 74.4432 187.028 73.9566C185.782 73.4922 184.684 72.6423 183.379 72.2607C183.084 72.0594 182.788 71.858 182.451 71.6789C182.228 71.5925 181.929 71.6494 181.688 71.6235C181.726 71.8595 181.704 72.1783 181.825 72.3699C182.123 72.9283 182.645 72.9579 183.245 72.844C183.318 72.959 183.373 73.1344 183.488 73.2271C185.637 74.2349 187.811 75.2811 190.003 76.2667C190.093 76.3211 190.261 76.232 190.41 76.2036C190.706 76.4049 191.019 76.5457 191.314 76.7471C193.687 77.8414 196.083 78.974 198.456 80.0683C198.793 80.2474 199.157 80.822 199.208 81.2557C199.025 82.735 198.819 84.1759 198.636 85.6551C198.483 86.9144 198.395 88.1897 198.241 89.449C197.459 90.0695 196.628 89.6409 196.002 89.3593C193.967 88.4441 191.872 87.6117 189.819 86.7571C188.827 86.5163 188.095 85.6255 186.931 85.7321C185.276 84.9737 183.637 84.1548 181.94 83.4187C181.808 83.3866 181.448 83.5263 181.347 83.6314C181.27 83.7748 181.338 84.1479 181.471 84.18C183.133 85.0373 184.855 85.8117 186.731 86.2993C187.593 86.8651 188.438 87.4914 189.619 87.3243C189.74 87.5158 189.802 87.7902 189.959 87.8606C191.872 88.5843 193.762 89.2696 195.693 89.9328C197.047 90.3909 198.09 91.0654 197.998 92.599C197.861 92.8252 197.641 93.0958 197.637 93.3541C197.566 94.5689 197.496 95.7836 197.426 96.9984C197.349 97.1418 197.147 97.3519 197.202 97.5274C197.422 98.2292 197.264 98.7742 196.479 99.0376C195.745 98.7622 194.987 98.4485 194.253 98.1731C191.73 97.1073 189.19 96.102 186.668 95.0361C186.47 94.988 186.205 94.9238 186.007 94.8756C185.026 94.4755 184.045 94.0753 183.064 93.6752C182.907 93.6048 182.733 93.5949 182.625 93.6012C182.475 93.6296 182.266 93.7409 182.272 93.8397C182.244 94.0597 182.288 94.3946 182.42 94.4267C183.551 94.7984 184.724 95.1478 185.873 95.4589C185.945 95.5739 186.043 95.7271 186.115 95.842C186.314 95.8901 186.578 95.9543 186.777 96.0025C188.624 96.7101 190.43 97.44 192.277 98.1477C192.879 98.391 193.292 99.0421 194.118 98.7564C194.852 99.0318 195.344 99.8968 196.345 99.6209C197.282 100.659 196.798 101.838 196.787 102.97C196.831 103.305 196.81 103.623 196.854 103.958C196.73 104.382 196.625 104.746 196.502 105.169C196.546 105.504 196.524 105.823 196.568 106.158C196.515 106.34 196.445 106.582 196.392 106.764C196.328 107.105 196.33 107.462 196.267 107.803C195.96 107.761 195.654 107.719 195.389 107.655C194.565 107.325 193.758 106.935 192.909 106.567C191.163 105.754 189.417 104.941 187.629 104.151C187.406 104.064 187.002 103.869 186.97 104.347C186.941 104.567 186.985 104.902 187.142 104.973C188.196 105.488 189.274 106.041 190.405 106.413C191.181 106.666 191.715 107.509 192.691 107.195C193.679 107.694 194.649 108.253 195.654 108.692C196.124 108.903 196.203 109.117 196.122 109.518C196.034 109.821 196.036 110.178 195.972 110.519L193.179 110.263C191.087 109.788 189.096 109.207 187.341 107.938C185.857 106.833 184.398 105.765 183.493 104.249C182.959 103.407 182.36 102.548 181.868 101.683C181.49 100.911 180.67 100.323 180.729 99.2675C180.784 98.4705 179.424 97.9135 179.807 96.8395C178.428 94.398 178.224 91.6905 177.721 89.0399C177.175 86.4116 177.145 83.714 177.032 81.0608C176.819 76.9248 177.038 72.764 177.538 68.6068C177.864 66.0277 178.561 63.5066 179.061 60.9373C179.595 58.247 180.527 55.6529 181.483 53.0971C182.832 49.308 184.941 45.8325 187.796 42.8302C188.768 41.8018 189.92 40.8821 191.007 39.9464C191.478 39.5422 191.901 39.0614 192.422 38.7338C192.959 38.3457 193.709 38.2034 194.198 37.7386C196.836 35.3641 200.382 34.2474 203.401 32.3868C204.005 32.0147 204.071 32.0308 204.885 32.5199C207.458 34.0195 210.704 36.4927 212.746 38.4793C213.906 39.6036 214.898 40.8169 216.034 41.9028C217.315 43.2186 218.279 44.6518 219.033 46.1963Z" fill="#DCBF6F"/>
</svg>
