<svg width="176" height="171" viewBox="0 0 176 171" fill="none" xmlns="http://www.w3.org/2000/svg">
<path d="M175.027 44.416C174.867 40.367 174.95 36.2489 174.901 32.2207C174.658 24.9408 172.893 14.7339 170.787 7.56327C170.072 5.24701 170.092 5.1361 168.293 4.91267C159.315 3.68459 150.865 0.259203 141.755 0.958392C140.115 1.10948 138.44 0.220588 136.731 0.12896C135.132 0.0582301 133.604 0.230217 131.964 0.381306C128.239 0.599901 124.556 0.596674 120.901 1.05799C110.248 2.61552 100.353 6.26749 91.2572 11.7921C85.0241 15.5582 78.8118 19.2134 73.0999 23.8812C67.6729 28.2582 61.9748 32.2397 56.8396 36.9011C48.6331 44.4301 41.0102 52.5281 34.1726 61.3479C29.781 66.9529 25.1878 72.4051 21.4911 78.6C17.9056 84.8158 13.4722 90.6426 11.7837 97.7891C9.20571 99.2566 10.7554 102.648 9.19883 104.193C7.20452 106.23 7.67708 108.615 7.01696 110.902C6.31515 113.411 6.03723 116.115 5.55779 118.666C4.68229 123.324 5.44673 127.831 6.32235 132.359C7.3856 137.726 10.0332 142.013 13.1255 146.384C16.1275 150.623 16.0163 150.602 12.6948 154.8C10.0403 155.45 9.18564 158.16 7.20522 159.51C6.72575 160.224 6.15595 160.805 5.67648 161.519C4.11995 163.064 2.38274 164.345 0.916541 166.021C-0.417628 167.608 1.36825 168.518 1.04862 169.606C2.16044 169.815 3.39737 171.196 4.21731 169.283C7.74038 167.074 9.62348 163.18 12.7644 160.555C13.7511 159.592 14.6266 158.608 15.6134 157.645C19.9633 154.099 19.8313 154.189 24.0007 157.729C26.7803 160.089 29.8656 162.046 33.083 163.914C35.3623 165.261 37.9056 166.428 40.4836 166.798C44.5974 167.571 48.5583 168.545 52.9708 168.341C58.1825 168.172 63.1232 167.608 68.0777 166.358C74.1163 164.851 80.0854 163.103 85.304 159.835C93.2743 154.788 101.377 149.65 108.353 143.153C111.14 140.577 114.447 138.902 116.991 136.394C123.87 129.19 131.694 123.082 138.101 115.329C143.021 109.364 148.837 104.142 153.354 97.8715C157.87 91.6011 162.207 85.067 165.938 78.0749C169.322 71.7064 171.393 64.9762 173.484 58.1352C174.561 53.6296 175.284 49.1723 175.027 44.416ZM168.995 59.3584C167.098 65.7767 165.069 72.285 161.859 78.3417C158.322 84.9111 154.16 91.1333 149.796 97.2028C145.453 103.161 140.012 108.225 135.266 113.878C129.165 121.228 121.625 127.046 115.163 133.869C112.731 136.397 109.555 137.982 106.922 140.358C100.23 146.564 92.6349 151.452 84.9495 156.209C79.995 159.296 74.2483 161.087 68.4737 162.413C63.7624 163.594 59.0441 164.2 54.0756 164.3C49.9063 164.435 46.0566 163.482 42.1652 162.75C39.7192 162.291 37.287 161.145 35.0981 159.929C32.0823 158.214 29.1081 156.277 26.4189 154.05L22.4857 149.866C22.6316 149.089 22.7776 148.313 24.0909 148.674C25.8281 149.231 27.5237 150.009 29.2192 150.787C30.3658 152.036 31.8807 152.55 33.4581 152.732C33.7916 152.794 34.2364 152.878 34.5699 152.941C34.9521 153.357 35.1606 154.085 35.6957 154.3C36.6755 154.599 37.8081 154.697 38.8088 154.885C38.6073 156.57 39.9762 156.024 40.824 156.413C41.1575 156.475 41.6023 156.559 41.9358 156.621C42.3389 158.764 43.7078 158.218 45.0559 157.782C45.1879 157.692 45.445 156.937 45.3338 156.916C44.7293 156.458 43.9927 156.089 43.2561 155.721C42.9225 155.659 42.4778 155.575 42.1443 155.512C42.3458 153.828 40.9768 154.374 40.1291 153.985C38.3015 153.297 36.6059 152.519 34.7784 151.831C34.3962 151.415 34.1877 150.687 33.6526 150.472C32.6728 150.173 31.5402 150.075 30.5395 149.886C30.4909 149.533 30.4631 149.068 30.3727 148.936C28.8301 147.958 27.1554 147.069 25.6127 146.09C27.0164 144.746 28.3992 143.513 29.8028 142.169C29.9349 142.079 29.8654 141.837 29.9071 141.615C30.3031 141.345 30.8312 140.985 31.2273 140.715C31.2899 140.382 31.3733 139.938 31.4358 139.606C32.36 138.975 33.1522 138.435 34.0763 137.805C34.5558 137.092 35.1256 136.51 35.6051 135.796C36.5501 135.055 37.3631 134.404 38.2873 133.774C38.6834 133.504 39.1698 133.366 39.5451 133.207C41.6784 133.493 43.77 134.001 45.4517 135.465C48.0089 137.783 51.2193 139.075 54.2768 140.568C54.6104 140.631 55.0551 140.715 55.3887 140.777C55.347 140.999 55.2844 141.332 55.2844 141.332C57.654 142.811 59.8986 144.955 62.4766 145.325C65.6106 145.799 66.9796 148.927 69.912 149.248C70.5582 149.485 71.4686 149.541 71.8299 150.068C72.3928 150.748 72.6846 151.033 73.3865 150.361C73.6714 150.07 73.9771 149.668 74.262 149.377C73.6158 149.141 72.9695 148.904 72.3233 148.668C72.2746 148.315 72.2677 147.739 72.0453 147.697C68.675 146.03 64.9782 144.876 62.018 142.253C60.9409 141.247 59.1619 140.912 57.7999 140.197C57.4664 140.134 57.0217 140.051 56.6881 139.988C56.4171 139.593 56.3198 138.886 56.0071 138.712C50.8857 137.175 46.6121 134.19 42.1648 131.517C42.401 130.873 42.4775 129.854 42.8735 129.583C44.6594 128.656 45.4585 126.854 46.751 125.489C47.3694 125.261 48.2103 125.075 48.648 124.583C50.7952 122.345 52.9424 120.108 55.0896 117.87C56.7504 117.608 58.3972 116.196 59.9538 118.325C60.5167 119.005 61.8926 119.034 62.8724 119.333C62.6709 121.018 64.0398 120.471 64.8876 120.86C65.6658 121.006 66.3329 121.132 67.1112 121.278C67.3822 121.674 67.7436 122.201 68.0146 122.596C68.3481 122.659 68.7929 122.742 69.1264 122.805C69.46 122.868 69.9047 122.951 70.2383 123.014C70.0368 124.699 71.4057 124.152 72.2535 124.541C72.587 124.604 73.0317 124.687 73.3653 124.75C73.6363 125.146 73.7336 125.853 74.0463 126.026C77.7709 127.645 81.2107 129.555 84.7616 131.485C85.4078 131.721 86.0541 131.958 86.7003 132.194C87.4369 132.562 88.2847 132.951 89.0004 133.43C89.334 133.493 89.7787 133.576 90.1123 133.639C90.3833 135.872 93.4755 134.731 94.0315 136.672C94.5179 136.534 95.2267 136.438 95.4004 136.126C95.595 135.703 95.4282 134.753 95.2058 134.711C93.4686 134.155 92.4262 132.352 90.4319 132.551C90.272 130.339 88.3333 131.467 87.3049 130.815C86.9643 128.339 84.4767 129.939 83.4412 128.711C81.1898 125.991 77.5902 125.544 74.7967 123.871C74.4632 123.808 74.0185 123.725 73.6849 123.662C73.8864 121.977 72.5175 122.524 71.6697 122.135C71.3362 122.072 70.8914 121.989 70.5579 121.926C70.5092 121.572 70.4814 121.108 70.3911 120.976C68.362 120.135 66.3329 119.295 64.3038 118.454C64.5053 116.769 63.1364 117.316 62.2886 116.927C58.8559 115.593 58.6682 114.754 60.8988 112.073C64.1439 110.73 65.8394 107.834 67.9171 105.354C68.5355 105.125 69.3764 104.939 69.8141 104.447C71.9613 102.21 74.1085 99.9721 76.2557 97.7346C79.1117 99.0752 81.8774 100.284 84.7334 101.625C85.5117 101.771 86.1788 101.896 86.9571 102.042C87.3392 102.459 87.5477 103.187 88.0828 103.402C89.0626 103.701 90.1953 103.799 91.1959 103.987C92.0715 104.841 96.9149 107.244 98.5618 107.668C98.6104 108.022 98.6174 108.597 98.8398 108.639C103.94 110.287 108.499 112.981 113.294 115.03C113.627 115.093 114.072 115.177 114.405 115.239C115.295 117.244 116.956 116.982 118.637 116.609C118.769 116.519 118.978 115.41 118.776 115.257C118.283 114.82 117.484 114.784 116.838 114.548C116.504 114.485 116.059 114.402 115.726 114.339C115.677 113.986 115.67 113.41 115.448 113.368C110.347 111.721 105.789 109.027 100.994 106.977C100.216 106.831 99.5485 106.706 98.7702 106.559C97.8947 105.706 93.0513 103.303 91.4044 102.878C90.3551 102.337 89.3266 101.684 88.2773 101.142C87.499 100.996 86.8319 100.871 86.0537 100.724C86.005 100.371 85.9981 99.7954 85.8869 99.7745C84.0176 99.3083 82.3638 98.3085 80.6682 97.5305C78.8615 96.7316 77.9929 96.4535 79.9247 94.7497C80.7585 93.9878 81.3214 92.8305 82.0649 91.9368C82.5513 91.7985 83.1489 91.6812 83.545 91.4112C87.2279 87.7399 90.8899 84.1795 94.5728 80.5082C95.8722 77.8818 98.5614 78.2724 99.9512 79.4522C101.543 80.7847 103.182 80.6336 104.788 81.2798C104.948 83.4916 106.886 82.3632 107.915 83.0158C108.693 83.1621 109.36 83.2875 110.138 83.4337C111.014 84.2873 115.857 86.6903 117.504 87.1147C118.283 87.261 118.95 87.3864 119.728 87.5326C119.777 87.8863 119.783 88.4617 120.006 88.5035C123.439 89.8377 126.892 91.0609 130.13 92.8178C132.431 94.0539 135.078 94.6663 137.705 95.3896C138.038 95.4523 138.74 94.7804 139.157 94.3995C138.886 94.0041 138.657 93.3868 138.323 93.3241C135.537 92.2263 132.424 91.6412 129.964 90.0306C128.421 89.0516 126.628 89.4037 125.419 88.4874C124.099 87.5503 122.758 86.7241 121.048 86.6325C120.715 86.5698 120.27 86.4862 119.936 86.4235C119.888 86.0699 119.881 85.4945 119.77 85.4736C117.254 84.7711 114.85 84.0896 112.57 82.7426C111.792 82.5963 111.125 82.4709 110.347 82.3246C110.187 80.1129 108.248 81.2413 107.22 80.5886C104.885 80.1498 103.308 78.1309 100.667 78.094C99.291 78.065 99.159 76.3178 100.167 75.244C102.724 72.0501 106.136 69.8207 108.804 66.6477C112.806 61.8882 113.098 62.1727 119.102 63.3011C121.103 63.6773 123.216 64.0743 125.217 64.4505C125.599 64.8668 125.919 65.6158 126.343 65.8103C127.768 66.1929 129.123 66.3327 130.568 66.6044C131.346 66.7507 132.013 66.876 132.792 67.0223C134.237 67.294 135.793 67.5865 137.239 67.8582C137.51 68.2536 137.607 68.9609 137.92 69.1344C139.344 69.517 140.943 69.5877 142.346 70.0812C145.619 71.0408 149.427 70.3786 152.276 72.981C152.568 73.2655 153.889 72.3654 154.639 72.0471C154.236 71.7417 153.854 71.3254 153.451 71.02C150.741 68.903 147.322 68.7198 144.209 68.1347C141.985 67.7167 139.761 67.2988 137.538 66.8809C137.155 66.4646 136.836 65.7155 136.412 65.521C134.32 65.0131 132.187 64.727 129.963 64.309C128.073 63.9538 126.294 63.6194 124.404 63.2642C124.022 62.8479 123.702 62.0988 123.278 61.9043C121.52 61.4591 119.721 61.2356 117.942 60.9013C116.246 60.1233 117.059 59.4723 117.824 58.4677C121.722 54.2628 126.364 51.0014 129.97 46.5119C130.998 45.3273 132.597 43.5608 134.827 44.5542C137.385 45.0348 140.053 45.5363 142.61 46.0169C142.409 47.7015 143.778 47.1549 144.625 47.5439C146.071 47.8156 147.627 48.1081 149.073 48.3798C151.296 48.7977 153.52 49.2157 155.744 49.6336C155.702 49.8554 155.639 50.1881 155.639 50.1881C158.509 50.8424 161.247 51.5866 164.138 52.1299C164.249 52.1508 164.59 50.9517 164.847 50.1962C164.513 50.1335 164.068 50.0499 163.735 49.9872C161.178 49.5066 158.509 49.0051 155.952 48.5245C155.57 48.1082 155.25 47.3591 154.826 47.1646C153.402 46.7821 152.047 46.6422 150.601 46.3706C145.23 46.1648 140.553 42.8744 135.244 42.3359C138.17 38.4075 142.172 35.4852 145.591 31.994C146.995 30.6502 148.287 29.2855 149.489 27.7891C151.803 26.5015 154.124 27.6267 156.369 27.9337C158.592 28.3517 160.816 28.7696 163.04 29.1875C164.707 29.501 166.375 29.8144 167.932 30.107C168.043 30.1279 168.349 29.726 168.501 29.5251C168.189 29.3515 167.876 29.1779 167.675 29.0252C167.292 28.6089 166.973 27.8598 166.438 27.6444C163.123 26.9066 159.878 26.4116 156.542 25.7847C153.207 25.1578 153.207 25.1578 155.458 22.3657C155.764 21.9639 156.181 21.5829 156.487 21.1811C160.197 19.8116 161.525 15.8124 164.763 13.8948C164.895 13.8048 164.728 12.8548 164.568 12.4803C164.499 12.2376 163.832 12.1122 163.588 12.1813C162.949 12.5205 162.199 12.8387 161.761 13.3306C159.746 15.4781 157.731 17.6255 155.695 19.8839C155.298 20.154 154.812 20.2922 154.416 20.5622C154.152 20.7423 154.069 21.1859 154.006 21.5186C153.714 21.2341 153.401 21.0605 153.242 20.686C152.964 19.7151 152.929 18.6751 152.672 17.5934C151.699 14.1953 152.053 10.4726 149.996 7.33013C149.836 6.95561 149.545 6.6711 149.385 6.29658C149.211 6.60841 148.926 6.89935 148.884 7.12117C148.711 7.433 148.759 7.78663 148.676 8.23027C149.656 12.2038 149.573 16.3219 151.018 20.2681C151.247 20.8853 150.747 21.7099 150.622 22.3754C152.116 23.0006 151.748 23.7352 150.893 24.608C150.191 25.2799 149.378 25.9309 148.676 26.6028C144.521 29.726 140.949 33.4181 137.447 37.353C137.162 37.644 136.634 38.004 136.189 37.9204C135.856 37.8577 135.272 37.2887 135.223 36.9351C134.897 31.9361 133.264 27.1509 132.207 22.3592C132.715 20.2728 131.408 18.6494 130.963 16.7285C130.449 14.565 130.31 12.2423 129.796 10.0787C129.747 9.72509 128.941 9.11428 128.83 9.09338C128.302 9.45344 127.51 9.99352 127.558 10.3471C127.739 12.448 128.295 14.3897 128.587 16.5115C128.948 18.876 129.442 21.1505 130.797 23.1276C130.831 27.842 132.152 32.4537 133.139 37.0026C133.563 39.0344 133.827 40.6916 132.221 41.8826C128.615 44.5348 125.773 48.0197 122.75 51.2409C121.173 52.8965 119.283 54.3785 117.393 55.8605C116.58 56.5115 115.822 56.2543 115.496 54.9298C115.211 53.3835 114.217 51.9336 114.154 50.4291C114.099 45.8255 112.848 41.4566 111.597 37.0877C110.346 32.7188 110.047 28.1844 108.664 23.9055C108.178 22.2064 107.671 20.6183 106.941 18.9884C106.76 18.7248 105.961 18.6895 105.537 18.495C105.565 18.9595 105.614 19.3131 105.53 19.7568C105.6 23.674 107.594 27.1492 108.15 30.9282C109.401 38.9716 111.604 46.8494 113.321 54.8655C113.765 56.7864 113.341 58.4291 113.362 60.1555C111.98 61.3883 110.506 62.4894 109.214 63.8541C105.705 67.2135 102.758 71.2529 98.2139 73.3843C97.7275 71.6853 97.4634 70.028 96.8449 68.419C93.5719 60.1104 90.2988 51.8018 87.6442 43.2649C86.6296 40.0887 84.9966 37.1407 83.8708 33.9436C83.572 33.0836 83.5442 32.6191 82.7312 33.2701C82.3143 33.651 81.9668 34.2747 81.9946 34.7392C82.0711 35.5574 82.3699 36.4173 82.6687 37.2773C85.5109 44.816 88.5963 52.2856 91.3065 59.9143C93.1619 64.7413 94.5309 69.7065 96.8728 74.3953C96.6782 76.6553 94.5171 77.7419 93.6069 79.5229C93.1204 79.6611 92.5228 79.7785 92.1267 80.0485C88.4439 83.7198 84.7818 87.2802 81.099 90.9514C78.5279 92.9944 78.6391 93.0153 77.5689 90.7473C75.0881 85.5731 72.7393 80.3089 70.2585 75.1346C70.2029 74.2056 71.2104 73.1318 69.5636 72.7075C68.8825 69.5939 67.4302 66.9096 66.1098 64.1352C64.6783 61.34 64.1502 58.0255 62.4754 55.2994C62.2878 54.4603 62.1002 53.6212 61.8014 52.7613C61.5512 52.255 60.9258 51.9078 60.5436 51.4914C60.217 52.0042 59.6472 52.5861 59.543 53.1406C59.14 54.6725 60.0155 55.526 61.2663 56.2204C61.2038 56.5531 61.0092 56.9759 61.0579 57.3295C63.1843 62.5519 65.2899 67.8853 67.5275 73.1286C67.597 73.3713 68.0417 73.4549 68.3545 73.6285C68.5421 74.4676 68.8617 75.2166 69.0494 76.0557C71.426 81.7844 73.7817 87.6241 76.1583 93.3529C76.4571 94.2128 76.1445 95.8765 75.5121 96.7911C72.7257 99.3677 69.96 101.833 67.1735 104.41C64.804 106.606 62.5248 108.933 60.1552 111.129C57.737 111.134 56.9796 109.039 56.3402 107.541C54.2625 102.672 51.9415 97.8728 49.7316 93.094C48.3766 91.1169 48.5642 88.2815 46.3266 86.7126C44.6588 82.7247 43.123 78.6467 41.3441 74.6379C41.1634 74.3742 40.2948 74.0962 39.9404 74.1444C39.5652 74.3035 39.0648 75.1281 39.2455 75.3917C40.7604 79.5806 42.5186 83.7004 45.0272 87.5019C45.6109 89.9081 46.0626 92.4044 48.4322 93.8832C48.328 94.4378 47.9805 95.0614 48.1404 95.436C50.3224 99.7502 52.5252 103.954 54.8393 108.178C56.4723 111.126 57.195 114.017 54.4781 116.837C53.8596 117.065 53.0188 117.252 52.581 117.743C50.4338 119.981 48.2867 122.218 46.1395 124.456C45.7642 124.615 45.0554 124.711 44.8609 125.134C44.0826 126.825 42.8944 127.635 41.0668 126.947C40.226 125.297 39.406 123.535 38.5651 121.884C35.8758 115.982 33.0545 110.169 30.3652 104.267C30.0942 103.872 29.7328 103.344 29.4618 102.949C28.3917 100.681 27.3215 98.4128 26.2513 96.1448C26.0915 95.7702 25.7996 95.4857 25.5981 95.333C25.2854 95.1594 24.7295 95.055 24.5766 95.2559C24.1597 95.6368 23.6802 96.3505 23.8609 96.6141C25.2438 99.0558 26.7378 101.518 28.2527 103.87C28.1902 104.203 28.1068 104.646 28.0443 104.979C28.3153 105.374 28.6766 105.902 28.9476 106.297C31.0393 110.48 33.0198 114.641 35.1115 118.824C35.7716 120.211 35.4173 122.096 37.356 122.805C38.1969 124.456 37.6271 126.875 39.8577 127.868C39.7883 131.3 36.967 132.837 35.0631 135.005C34.5836 135.719 34.0138 136.301 33.5343 137.014C32.6101 137.645 31.818 138.185 30.8938 138.815C30.4143 139.528 29.8445 140.11 29.365 140.824C28.9689 141.094 28.4408 141.454 28.0447 141.724C27.3638 142.285 26.7731 142.978 26.0921 143.539C25.6196 142.991 25.1471 142.443 24.7857 141.915C23.8754 140.022 23.0971 138.038 22.2076 136.034C20.4703 131.803 18.733 127.573 16.8846 123.321C16.6344 122.815 16.2452 121.823 15.3905 122.696C14.9736 123.077 14.4941 123.79 14.654 124.165C15.6616 126.766 16.6484 129.477 18.0312 131.919C18.9833 133.591 18.5247 136.031 20.7761 136.913C21.6934 139.382 22.4787 141.941 23.528 144.32C24.0075 145.444 23.7921 145.977 22.9791 146.628C22.3189 147.078 21.7283 147.771 21.0473 148.332L16.5304 143.579C13.6188 139.472 11.0615 135.317 10.0678 130.193C9.2825 125.796 8.47637 121.511 9.40052 117.206C9.85911 114.766 10.2274 112.195 10.7972 109.775C11.4156 107.71 10.943 105.325 12.8053 103.378C14.2298 101.923 12.7496 98.7744 15.2165 97.286C16.8424 90.4722 20.9909 84.9364 24.5139 79.0533C27.9257 73.1494 32.366 67.898 36.5839 62.6049C43.0949 54.2979 50.412 46.6017 58.2225 39.3427C63.0936 34.8613 68.5276 31.0599 73.6906 26.863C79.1176 22.486 85.0867 18.9 91.0349 15.4248C99.7349 10.1702 109.255 6.6774 119.31 5.23721C122.743 4.7341 126.314 4.71643 129.796 4.56696C131.304 4.50588 132.853 4.22299 134.32 4.38373C135.918 4.45446 137.481 5.32246 139.121 5.17137C147.745 4.61041 155.882 7.8622 164.325 8.87488C166.014 9.07742 166.104 9.20923 166.729 11.3937C168.786 18.2107 170.412 27.9322 170.718 34.8793C170.899 38.8175 170.635 42.672 170.837 46.4992C170.913 50.9919 170.232 55.2274 168.995 59.3584Z" fill="#0A483A"/>
</svg>
