<svg width="16" height="466" viewBox="0 0 16 466" fill="none"
    xmlns="http://www.w3.org/2000/svg">
<path d="M0 8C0 12.4183 3.58172 16 8 16C12.4183 16 16 12.4183 16 8C16 3.58172 12.4183 0 8 0C3.58172 0 0 3.58172 0 8ZM0 458C0 462.418 3.58172 466 8 466C12.4183 466 16 462.418 16 458C16 453.582 12.4183 450 8 450C3.58172 450 0 453.582 0 458ZM6.5 8V10.9605H9.5V8H6.5ZM6.5 16.8816V22.8026H9.5V16.8816H6.5ZM6.5 28.7237V34.6447H9.5V28.7237H6.5ZM6.5 40.5658V46.4868H9.5V40.5658H6.5ZM6.5 52.4079V58.3289H9.5V52.4079H6.5ZM6.5 64.25V70.171H9.5V64.25H6.5ZM6.5 76.0921V82.0131H9.5V76.0921H6.5ZM6.5 87.9342V93.8552H9.5V87.9342H6.5ZM6.5 99.7763V105.697H9.5V99.7763H6.5ZM6.5 111.618V117.539H9.5V111.618H6.5ZM6.5 123.461V129.382H9.5V123.461H6.5ZM6.5 135.303V141.224H9.5V135.303H6.5ZM6.5 147.145V153.066H9.5V147.145H6.5ZM6.5 158.987V164.908H9.5V158.987H6.5ZM6.5 170.829V176.75H9.5V170.829H6.5ZM6.5 182.671V188.592H9.5V182.671H6.5ZM6.5 194.513V200.434H9.5V194.513H6.5ZM6.5 206.355V212.276H9.5V206.355H6.5ZM6.5 218.197V224.118H9.5V218.197H6.5ZM6.5 230.039V235.96H9.5V230.039H6.5ZM6.5 241.882V247.803H9.5V241.882H6.5ZM6.5 253.724V259.645H9.5V253.724H6.5ZM6.5 265.566V271.487H9.5V265.566H6.5ZM6.5 277.408V283.329H9.5V277.408H6.5ZM6.5 289.25V295.171H9.5V289.25H6.5ZM6.5 301.092V307.013H9.5V301.092H6.5ZM6.5 312.934V318.855H9.5V312.934H6.5ZM6.5 324.776V330.697H9.5V324.776H6.5ZM6.5 336.618V342.539H9.5V336.618H6.5ZM6.5 348.46V354.382H9.5V348.46H6.5ZM6.5 360.303V366.224H9.5V360.303H6.5ZM6.5 372.145V378.066H9.5V372.145H6.5ZM6.5 383.987V389.908H9.5V383.987H6.5ZM6.5 395.829V401.75H9.5V395.829H6.5ZM6.5 407.671V413.592H9.5V407.671H6.5ZM6.5 419.513V425.434H9.5V419.513H6.5ZM6.5 431.355V437.276H9.5V431.355H6.5ZM6.5 443.197V449.118H9.5V443.197H6.5ZM6.5 455.039V458H9.5V455.039H6.5Z" fill="#828181"/>
</svg>
