<svg width="184" height="185" viewBox="0 0 184 185" fill="none" xmlns="http://www.w3.org/2000/svg">
<path d="M62.0234 0.406372C82.0234 0.406372 102.023 0.406372 122.023 0.406372C123.423 0.806372 124.823 1.40637 126.323 1.60637C157.823 5.20637 183.623 34.0064 183.823 65.7064C183.923 83.4064 183.923 101.006 183.823 118.706C183.723 154.606 154.223 184.106 118.223 184.206C101.223 184.306 84.2234 184.206 67.2234 184.206C35.2234 184.206 8.92344 163.006 2.02344 131.606C1.32344 128.506 0.723437 125.506 0.0234375 122.406C0.0234375 102.406 0.0234375 82.4064 0.0234375 62.4064C0.423438 61.3064 1.02344 60.3064 1.12344 59.2064C5.02344 30.5064 24.8234 8.90637 52.9234 2.50637C55.9234 1.80637 59.0234 1.10637 62.0234 0.406372ZM92.4234 12.0064C92.4234 11.8064 92.4234 11.7064 92.4234 11.5064C79.8234 12.1064 67.0234 11.4064 54.6234 13.4064C31.3234 17.2064 12.1234 40.3064 11.8234 63.4064C11.5234 82.9064 11.5234 102.406 11.8234 121.906C12.3234 146.706 34.2234 171.006 58.7234 172.406C80.9234 173.706 103.323 173.606 125.523 172.406C148.223 171.206 170.523 149.606 171.923 127.006C173.323 104.706 173.523 82.1064 172.023 59.7064C170.223 32.9064 145.723 12.0064 118.923 11.9064C110.123 12.0064 101.323 12.0064 92.4234 12.0064Z" fill="#0A483A"/>
<path d="M132.423 138.106C132.423 133.806 132.423 130.206 132.423 126.606C132.423 115.306 132.523 103.906 132.423 92.6064C132.323 84.7064 126.723 79.1064 118.923 79.1064C110.723 79.1064 104.923 84.4064 104.823 92.5064C104.723 105.706 104.823 118.806 104.723 132.006C104.723 133.806 104.723 135.606 104.723 138.106C96.9235 138.106 89.7235 138.206 82.4235 137.906C81.5235 137.906 80.0235 135.706 80.0235 134.606C79.9235 113.406 79.9235 92.3064 79.9235 71.1064C79.9235 68.4064 81.2235 67.2064 83.9235 67.2064C88.7235 67.2064 93.6235 67.4064 98.4235 67.1064C102.223 66.9064 105.423 67.1064 105.323 72.7064C107.023 71.5064 108.123 70.9064 109.023 70.0064C118.123 61.9064 128.323 59.9064 139.623 64.4064C151.623 69.2064 157.223 78.9064 157.723 91.3064C158.223 105.406 157.723 119.606 157.923 133.806C157.923 137.106 156.823 138.206 153.523 138.106C146.623 137.906 140.023 138.106 132.423 138.106Z" fill="#0A483A"/>
<path d="M64.8235 137.906C56.4235 137.906 48.8234 137.906 40.6234 137.906C40.5234 136.306 40.3234 134.706 40.3234 133.106C40.3234 112.906 40.4234 92.8063 40.2234 72.6063C40.2234 68.6063 41.1235 66.8063 45.4235 67.1063C50.5235 67.4063 55.7235 67.0063 60.9235 67.3063C62.3235 67.4063 64.6234 69.3063 64.6234 70.4063C64.9234 92.7063 64.8235 115.006 64.8235 137.906Z" fill="#0A483A"/>
<path d="M40.3234 39.9063C40.3234 33.0063 45.6234 27.6063 52.6234 27.6063C59.6234 27.6063 64.8234 32.8063 64.8234 39.8063C64.8234 46.9063 59.6234 52.1063 52.6234 52.1063C45.7234 52.1063 40.3234 46.8063 40.3234 39.9063Z" fill="#0A483A"/>
</svg>
