<svg width="31" height="30" viewBox="0 0 31 30" fill="none" xmlns="http://www.w3.org/2000/svg">
<path d="M21.2965 9.70367C26.0986 9.70367 30.0002 13.6053 30.0002 18.4074V28.5367H24.1852V18.4074C24.1852 16.7942 22.8722 15.5187 21.2965 15.5187C19.6833 15.5187 18.4078 16.8317 18.4078 18.4074V28.5367H12.5928V18.4074C12.5928 13.6053 16.4945 9.70367 21.2965 9.70367Z" stroke="white" stroke-width="2" stroke-linecap="round" stroke-linejoin="round"/>
<path d="M1 11.1669H6.81498V28.5743H1V11.1669Z" stroke="white" stroke-width="2" stroke-linecap="round" stroke-linejoin="round"/>
<path d="M6.81503 3.88873C6.81503 5.50192 5.50197 6.77746 3.9263 6.77746C2.35063 6.77746 1.03757 5.4644 1.03757 3.88873C1.03757 2.31306 2.35063 1 3.9263 1C5.50197 1 6.81503 2.31306 6.81503 3.88873Z" stroke="white" stroke-width="2" stroke-linecap="round" stroke-linejoin="round"/>
</svg>
