<?xml version="1.0" encoding="utf-8"?>
<!-- Generator: Adobe Illustrator 27.4.0, SVG Export Plug-In . SVG Version: 6.00 Build 0)  -->
<svg version="1.1" id="Layer_1" xmlns="http://www.w3.org/2000/svg" xmlns:xlink="http://www.w3.org/1999/xlink" x="0px" y="0px"
	 viewBox="0 0 218.2 72.6" style="enable-background:new 0 0 218.2 72.6;" xml:space="preserve">
<style type="text/css">
	.st0{fill:#FFFFFF;}
</style>
<path class="st0" d="M17.7,30.9c-0.4,0.8-0.9,1.6-1.6,2.2c-0.9,0.6-1.9,0.8-2.9,1c0.1-0.2,0.1-0.4,0.2-0.6c0.1-0.1,0.1-0.3,0.1-0.4
	c0-0.4-0.2-0.8-0.6-1c-0.5-0.3-1-0.4-1.5-0.3c-1.7,0-3.2,1.1-4,2.5c-0.9,1.7-1.3,3.9-1.2,6.8c0.1,3.2,0.7,5.6,1.8,7.1
	c1.1,1.5,2.9,2.4,4.8,2.2c0.8,0,1.6-0.2,2.4-0.5c0.9-0.3,1.7-0.7,2.6-1.2v0.4c0.1,1.3-0.5,2.5-1.6,3.1c-1.1,0.7-2.8,1.1-5,1.2
	c-3.3,0.1-6.1-0.8-8-2.9c-2-2.1-3-4.9-3.1-8.7s0.8-6.8,2.8-9.1c2-2.4,4.9-3.7,8-3.7c1.2-0.1,2.4,0.1,3.6,0.4
	C15.5,29.8,16.6,30.2,17.7,30.9"/>
<path class="st0" d="M24.9,29.5h14.3c-0.3,1.5-0.7,2.6-1.3,3.1c-0.9,0.7-2,1-3.1,1c0.1-0.1,0.1-0.3,0.1-0.4c0-0.1,0.1-0.2,0.1-0.3
	c0-0.3-0.2-0.6-0.7-0.7c-0.7-0.1-1.4-0.2-2.1-0.2c-1.7,0-2.8,0.1-3.1,0.3c-0.4,0.3-0.6,0.8-0.5,1.3v5h5.5c0.3,0,0.7,0,1-0.1
	c0.4-0.1,0.8-0.1,1.2-0.3c-0.2,0.9-0.6,1.7-1.2,2.5c-0.6,0.4-1.4,0.6-2.2,0.6h-4.3v6.3c0,0.5,0,1,0.1,1.5c0.1,0.3,0.3,0.6,0.6,0.7
	c0.4,0.1,0.7,0.3,1,0.3c0.7,0.1,1.5,0.1,2.2,0.1h2.7c0.8,0,1.7,0,2.5-0.1c0.6-0.1,1.1-0.2,1.7-0.3c-0.3,1.4-0.7,2.3-1.2,2.7
	s-1.5,0.6-2.9,0.6H22.1c0.3-0.6,0.5-1.1,0.6-1.7s0.2-1.2,0.2-1.8V34.9c0.1-0.6-0.1-1.3-0.5-1.8c-0.5-0.4-1-0.6-1.7-0.6
	c0.1-0.8,0.6-1.7,1.2-2.3C22.5,29.8,23.5,29.6,24.9,29.5"/>
<path class="st0" d="M44.5,29.6h4.4V30c0,0.3,0.1,0.6,0.1,0.8c0.1,0.4,0.3,0.7,0.5,1l7.3,11.6c0.3,0.5,0.6,1.2,1,2s0.8,1.6,1.1,2.5
	h0.3c-0.1-0.7-0.3-1.4-0.4-2.1c-0.1-0.6-0.1-1.2-0.1-1.8v-8.9c0.1-0.8-0.1-1.5-0.6-2.2c-0.6-0.4-1.3-0.6-2-0.6h-0.1
	c0.2-0.9,0.6-1.7,1.3-2.4c0.8-0.4,1.6-0.6,2.4-0.6H63c-0.4,0.5-0.7,1-0.8,1.6c-0.2,0.9-0.3,1.9-0.3,2.8v13.3c0,1.3,0.1,2.2,0.5,2.7
	c0.4,0.5,1,0.8,1.7,0.7c-0.1,0.8-0.6,1.5-1.1,2.1c-0.7,0.4-1.6,0.6-2.4,0.6h-4.2c0-0.1,0.1-0.1,0.1-0.2v-0.3c0-0.2,0-0.5-0.1-0.7
	s-0.1-0.4-0.3-0.6l-7.8-12.2c-0.3-0.6-0.7-1.3-1-2s-0.6-1.5-0.8-2.2h-0.2c0.1,0.8,0.2,1.7,0.3,2.4s0.1,1.5,0.1,2.1v8.4
	c-0.1,0.8,0.1,1.5,0.6,2.2c0.6,0.5,1.3,0.7,2,0.6c-0.2,0.8-0.6,1.6-1.3,2.2c-0.7,0.4-1.6,0.6-2.4,0.5h-2.9c0.3-0.6,0.5-1.2,0.6-1.8
	c0.1-1,0.2-1.9,0.2-2.9V35.1c0.1-0.7-0.1-1.4-0.5-2c-0.5-0.4-1-0.6-1.7-0.6c0.2-0.8,0.6-1.7,1.3-2.3C43,29.7,43.8,29.5,44.5,29.6"/>
<path class="st0" d="M87,29.2c-0.3,1-0.8,2-1.6,2.8c-0.8,0.5-1.9,0.7-2.9,0.6h-1.3c-0.7-0.1-1.4,0-2,0.3c-0.3,0.3-0.4,0.8-0.3,1.2
	l-0.1,13.8c-0.1,0.7,0.1,1.5,0.4,2.1c0.5,0.4,1.1,0.6,1.7,0.6c-0.1,0.8-0.6,1.6-1.2,2.2c-0.7,0.4-1.5,0.6-2.3,0.6h-5.3
	c0.3-0.6,0.6-1.3,0.7-2c0.1-0.9,0.2-1.8,0.2-2.7l0.1-14.5c0-0.7-0.1-1.1-0.3-1.3c-0.6-0.2-1.1-0.3-1.7-0.3c-1.2,0-2.4,0-3.6,0.1
	c-0.7,0.1-1.4,0.2-2,0.5c0.3-1,0.8-2,1.6-2.8c0.8-0.6,1.9-0.8,2.9-0.8c0.3,0,1.5,0.1,3.5,0.1s4,0.1,5.7,0.1c2.2,0,3.9-0.1,5.1-0.1
	C85.2,29.7,86.1,29.5,87,29.2"/>
<path class="st0" d="M92.1,29.5h14.4c-0.3,1.5-0.7,2.6-1.3,3.1s-1.7,0.9-3.1,1c0.1-0.1,0.1-0.3,0.1-0.4c0-0.1,0.1-0.2,0.1-0.3
	c0-0.3-0.2-0.6-0.7-0.7c-0.7-0.1-1.4-0.3-2.1-0.2c-1.7,0-2.8,0.1-3.1,0.3c-0.4,0.3-0.6,0.8-0.5,1.3v5h5.5c0.3,0,0.7,0,1-0.1
	c0.4-0.1,0.8-0.1,1.2-0.3c-0.2,0.9-0.6,1.7-1.2,2.5c-0.6,0.4-1.4,0.6-2.2,0.6h-4.3v6.3c0,0.5,0,1,0.1,1.5c0.1,0.3,0.3,0.6,0.6,0.7
	c0.3,0.1,0.7,0.3,1.1,0.3c0.7,0.1,1.5,0.1,2.2,0.1h2.7c0.8,0,1.7,0,2.5-0.1c0.6-0.1,1.1-0.1,1.7-0.3c-0.3,1.4-0.7,2.3-1.2,2.7
	s-1.5,0.6-2.9,0.6H89.3c0.3-0.6,0.5-1.1,0.6-1.7s0.2-1.3,0.2-1.8V34.9c0.1-0.6-0.1-1.3-0.4-1.9c-0.5-0.4-1.1-0.6-1.7-0.6
	c0.1-0.8,0.6-1.7,1.2-2.2C89.8,29.8,90.8,29.6,92.1,29.5"/>
<path class="st0" d="M111.3,29.5h4.4V30c0,0.3,0.1,0.5,0.1,0.8c0.1,0.4,0.3,0.7,0.5,1l7.3,11.6c0.3,0.5,0.6,1.2,1.1,2
	s0.8,1.6,1.1,2.5h0.3c-0.1-0.8-0.3-1.5-0.4-2.1c-0.1-0.6-0.1-1.2-0.1-1.8v-8.9c0.1-0.8-0.1-1.5-0.6-2.1c-0.6-0.4-1.3-0.6-1.9-0.6
	h-0.1c0.2-0.9,0.6-1.7,1.3-2.4c0.8-0.4,1.6-0.6,2.5-0.6h3.3c-0.4,0.5-0.7,1-0.8,1.6c-0.2,0.9-0.3,1.9-0.3,2.8v13.2
	c0,1.4,0.1,2.2,0.5,2.7c0.4,0.5,1.1,0.8,1.7,0.7c-0.1,0.8-0.6,1.5-1.2,2.1c-0.7,0.4-1.6,0.6-2.4,0.6h-4.2c0-0.1,0.1-0.1,0.1-0.2
	v-0.3c0-0.2,0-0.5-0.1-0.7s-0.1-0.4-0.3-0.6l-7.8-12.3c-0.3-0.6-0.7-1.3-1.1-2c-0.3-0.7-0.6-1.4-0.8-2.2h-0.3
	c0.1,0.8,0.2,1.7,0.3,2.4s0.1,1.5,0.1,2.1v8.4c-0.1,0.8,0.1,1.5,0.6,2.2c0.6,0.5,1.3,0.7,2,0.6c-0.2,0.8-0.6,1.6-1.3,2.2
	c-0.8,0.4-1.6,0.6-2.4,0.5h-2.9c0.3-0.6,0.5-1.2,0.6-1.8c0.1-1,0.2-1.9,0.2-2.9V35c0.1-0.7-0.1-1.4-0.4-2c-0.5-0.4-1.1-0.6-1.7-0.6
	c0.2-0.8,0.6-1.7,1.3-2.3C109.8,29.7,110.6,29.5,111.3,29.5"/>
<path class="st0" d="M155.2,50.4c-0.2,0.8-0.6,1.7-1.2,2.3c-0.4,0.3-1.3,0.6-2.4,0.6h-4.8c0.2-0.5,0.4-1,0.6-1.5
	c0.1-0.6,0.1-1.1,0.1-1.7c0-0.5-0.1-1-0.1-1.5c-0.1-0.6-0.3-1.3-0.6-2h-8.2c-0.1,0.6-0.3,1.1-0.4,1.5c-0.1,0.3-0.1,0.7-0.1,1
	c0,0.4,0.1,0.8,0.4,1.1c0.4,0.3,0.8,0.4,1.2,0.3h0.1c-0.2,0.8-0.6,1.6-1.1,2.2c-0.4,0.3-1.1,0.5-2.3,0.5h-3.1c0.5-0.8,1.2-2.7,2-5.8
	c0.5-1.8,0.9-3.3,1.3-4.3c0.5-1.6,1.1-3.6,1.9-5.9c0.5-1.3,0.9-2.7,1.2-4.1c0-0.3-0.1-0.6-0.3-0.7c-0.4-0.1-0.7-0.3-1.1-0.2
	c0.2-0.6,0.6-1.3,0.9-1.8c0.2-0.4,0.5-0.6,0.8-0.7c0.4-0.1,0.8-0.1,1.2-0.2c0.5-0.1,1.4-0.1,2.8-0.1h0.5c0.6,0,1.1,0,1.6,0.1
	c0.3,0.1,0.5,0.2,0.7,0.4c0.6,1,1.1,2.1,1.4,3.2c0.7,1.9,1.5,4.3,2.6,7.5c0.6,1.6,1.1,3.3,1.5,5.2c0.5,2,0.8,3.1,0.9,3.3
	c0.1,0.3,0.4,0.7,0.7,0.9C154.3,50.3,154.7,50.4,155.2,50.4L155.2,50.4L155.2,50.4z M142.5,33c-0.4,2.1-1,4.2-1.7,6.2
	c-0.6,2-1.1,3.6-1.5,4.7h6.8c-0.2-0.9-0.6-2.2-1.1-3.8s-1.2-4-2.2-7.1H142.5z"/>
<path class="st0" d="M170.2,41.8l4.4,7c0.4,0.6,0.8,1,1.3,1.3c0.4,0.3,1,0.5,1.5,0.5c-0.1,0.8-0.6,1.4-1.1,2
	c-0.6,0.3-1.3,0.6-1.9,0.5h-4.1c0.1-0.2,0.1-0.3,0.1-0.5v-0.3c0-0.2-0.1-0.5-0.1-0.7c-0.1-0.3-0.3-0.7-0.5-1l-4-7.4
	c-0.5,0.1-0.9,0.1-1.3,0.2s-0.6,0.1-0.9,0.1V48c-0.1,0.7,0.1,1.4,0.4,2c0.4,0.4,1,0.7,1.5,0.7c-0.1,0.8-0.5,1.5-1.1,2
	c-0.7,0.3-1.5,0.6-2.3,0.5h-4.9c0.3-0.6,0.5-1.2,0.6-1.7c0.1-0.6,0.2-1.3,0.2-1.8V35.1c0.1-0.7-0.1-1.4-0.5-2
	c-0.5-0.4-1.1-0.6-1.7-0.6c0.2-1,0.8-2,1.8-2.5c0.9-0.4,2.9-0.7,6.1-0.7c1.1,0,2.2,0,3.4,0.1c0.8,0.1,1.5,0.2,2.3,0.4
	c1.5,0.4,2.7,1.3,3.7,2.4c0.9,1,1.3,2.4,1.3,3.8c0,1.3-0.4,2.5-1.1,3.5C172.7,40.6,171.6,41.4,170.2,41.8 M163.7,41.1
	c1.5,0,2.9-0.5,4-1.4c0.9-1,1.4-2.3,1.3-3.7c0.1-1.1-0.3-2.2-0.9-3.1c-0.6-0.8-1.4-1.2-2.4-1.1c-0.6-0.1-1.2,0.1-1.6,0.6
	c-0.4,0.6-0.5,1.3-0.4,2V41.1L163.7,41.1z"/>
<path class="st0" d="M181.5,34.9c0.1-0.7-0.1-1.4-0.4-2c-0.4-0.4-1.1-0.6-1.7-0.6c0.2-0.8,0.6-1.7,1.3-2.3c0.7-0.4,1.5-0.6,2.2-0.5
	l5.2,0.1c-0.3,0.6-0.5,1.3-0.7,1.9c-0.1,0.6-0.2,1.3-0.2,1.9l-0.1,14.5c-0.1,0.7,0.1,1.5,0.4,2.1c0.5,0.4,1.1,0.6,1.7,0.6
	c-0.2,0.8-0.6,1.7-1.3,2.3c-0.7,0.4-1.5,0.6-2.3,0.5h-5.2c0.3-0.6,0.6-1.2,0.7-1.7c0.1-0.6,0.2-1.3,0.2-1.9L181.5,34.9L181.5,34.9z"
	/>
<path class="st0" d="M210.6,32c-4.3-4.3-11.2-4.3-15.6,0c-0.1,0.1-0.1,0.1-0.2,0.2c-1.9,2.2-2.9,5.2-2.9,8.9s1.1,6.7,3.1,8.9
	c4.3,4.3,11.3,4.3,15.6,0c0.1-0.1,0.1-0.1,0.2-0.2c1.9-2.2,2.9-5.2,2.9-8.9C213.6,37.1,212.6,34.1,210.6,32 M206.3,48.1
	c-0.8,1.6-1.9,2.4-3.4,2.5s-2.6-0.8-3.5-2.4s-1.3-4-1.3-7.2s0.3-5.6,1.1-7.2s1.9-2.4,3.4-2.5s2.6,0.8,3.5,2.4s1.3,4,1.3,7.2
	S207.1,46.5,206.3,48.1"/>
<path class="st0" d="M218.2,51c0,1.3-1,2.2-2.2,2.3H216c-1.3,0.1-2.3-0.9-2.4-2.1s0.9-2.3,2.1-2.4h0.3
	C217.3,48.8,218.2,49.8,218.2,51C218.2,51,218.2,51,218.2,51 M214.3,51c0,1,0.7,1.7,1.7,1.7h0.1c0.9,0,1.7-0.8,1.7-1.7V51
	c0.1-1-0.6-1.7-1.6-1.8s-1.7,0.6-1.8,1.6L214.3,51 M215.6,52.2h-0.5V50c0.3-0.1,0.6-0.1,0.8-0.1s0.6,0.1,0.8,0.1
	c0.1,0.1,0.2,0.3,0.2,0.5c0,0.3-0.2,0.5-0.5,0.5l0,0c0.2,0.1,0.4,0.3,0.4,0.6c0,0.2,0.1,0.3,0.1,0.6h-0.6c-0.1-0.1-0.1-0.3-0.1-0.6
	c-0.1-0.2-0.1-0.3-0.5-0.3h-0.3L215.6,52.2L215.6,52.2L215.6,52.2z M215.6,51h0.3c0.3,0,0.5-0.1,0.5-0.3s-0.1-0.3-0.5-0.3h-0.3
	C215.6,50.3,215.6,51,215.6,51z"/>
<path class="st0" d="M87.4,12.5l4.4,7.1c0.3,0.6,0.8,1,1.3,1.3c0.4,0.3,1,0.5,1.5,0.5c-0.1,0.8-0.6,1.4-1.1,2
	c-0.6,0.4-1.3,0.6-1.9,0.6h-4.1c0.1-0.2,0.1-0.4,0.1-0.5v-0.3c0-0.2-0.1-0.5-0.1-0.7c-0.1-0.4-0.3-0.7-0.5-1l-4-7.4
	c-0.5,0.1-0.9,0.1-1.3,0.2c-0.3,0.1-0.6,0.1-0.9,0.1v4.5c-0.1,0.7,0.1,1.4,0.4,2c0.4,0.4,1,0.7,1.5,0.7c-0.1,0.8-0.5,1.5-1.1,2
	C81,23.8,80.1,24,79.4,24h-4.9c0.3-0.6,0.5-1.2,0.6-1.7c0.1-0.6,0.2-1.3,0.2-1.8V5.9c0.1-0.7-0.1-1.4-0.5-2
	c-0.5-0.4-1.1-0.6-1.7-0.6c0.2-1,0.8-2,1.7-2.5C75.7,0.3,77.8,0,81,0c1.3,0,2.4,0.1,3.3,0.1c0.8,0.1,1.5,0.2,2.3,0.4
	C88.1,1,89.3,1.8,90.3,3c0.8,1,1.3,2.4,1.3,3.8c0.1,1.3-0.3,2.5-1.2,3.5C89.8,11.3,88.7,12.1,87.4,12.5 M80.8,11.8
	c1.5,0,2.9-0.5,4-1.4c0.9-1,1.4-2.3,1.3-3.7c0.1-1.1-0.3-2.2-0.9-3.1c-0.6-0.8-1.4-1.2-2.4-1.1c-0.6-0.1-1.2,0.1-1.6,0.6
	c-0.3,0.6-0.6,1.3-0.4,2V11.8L80.8,11.8z"/>
<path class="st0" d="M113.6,3.3c-4.3-4.3-11.2-4.3-15.6,0c-0.1,0.1-0.1,0.1-0.2,0.2C95.9,5.7,95,8.7,95,12.4s1.1,6.7,3.1,8.9
	c4.3,4.3,11.3,4.3,15.6,0c0.1-0.1,0.1-0.1,0.2-0.2c1.9-2.2,2.9-5.2,2.9-8.9S115.6,5.5,113.6,3.3 M109.4,19.4
	c-0.8,1.6-1.9,2.4-3.4,2.5s-2.7-0.8-3.5-2.4s-1.3-4-1.3-7.2s0.3-5.6,1.1-7.2s1.9-2.4,3.4-2.5s2.7,0.8,3.5,2.4s1.3,4,1.3,7.2
	S110.1,17.8,109.4,19.4"/>
<path class="st0" d="M120.3,0h4.4v0.4c0,0.3,0.1,0.6,0.1,0.8c0.1,0.4,0.3,0.7,0.5,1.1l7.3,11.6c0.3,0.5,0.6,1.2,1.1,1.9
	s0.7,1.6,1.1,2.5h0.3c-0.1-0.7-0.3-1.4-0.4-2.1c-0.1-0.6-0.1-1.2-0.1-1.8V5.7c0.1-0.8-0.1-1.5-0.6-2.2c-0.6-0.4-1.3-0.6-1.9-0.6
	h-0.1c0.2-0.9,0.6-1.7,1.3-2.4c0.8-0.4,1.6-0.6,2.5-0.6h3.3c-0.4,0.5-0.7,1-0.8,1.6c-0.2,0.9-0.3,1.9-0.3,2.8v13.3
	c0,1.3,0.1,2.2,0.5,2.6c0.4,0.5,1.1,0.8,1.7,0.7c-0.1,0.8-0.6,1.5-1.1,2.1c-0.7,0.4-1.6,0.6-2.4,0.6h-4.2c0-0.1,0.1-0.1,0.1-0.2
	v-0.4c0-0.2,0-0.5-0.1-0.7s-0.1-0.4-0.3-0.6l-7.8-12.4c-0.3-0.6-0.7-1.3-1.1-1.9c-0.3-0.7-0.6-1.4-0.8-2.2H122
	c0.1,0.8,0.2,1.7,0.3,2.4s0.1,1.5,0.1,2.1v8.3c-0.1,0.8,0.1,1.5,0.6,2.2c0.6,0.5,1.3,0.7,2,0.6c-0.2,0.8-0.6,1.6-1.3,2.2
	c-0.8,0.4-1.6,0.6-2.4,0.5h-2.9c0.3-0.6,0.5-1.2,0.6-1.8c0.1-1,0.2-1.9,0.2-2.9V5.6c0.1-0.7-0.1-1.4-0.4-2c-0.5-0.4-1.1-0.6-1.7-0.6
	c0.2-0.8,0.6-1.7,1.3-2.3C118.8,0.2,119.6,0,120.3,0"/>
<path class="st0" d="M14.7,63.7h-3.1v8.7H9.8v-8.7H6.7v-1.5h8.1L14.7,63.7L14.7,63.7L14.7,63.7z"/>
<path class="st0" d="M26.4,62.2v10.3h-2V68h-4.8v4.5h-2V62.2h2v4.4h4.8v-4.4C24.4,62.2,26.4,62.2,26.4,62.2z"/>
<path class="st0" d="M32.3,63.7v2.9H36v1.5h-3.6V71h4.5v1.5h-6.5V62.2h6.5v1.5L32.3,63.7L32.3,63.7z"/>
<path class="st0" d="M53.5,72.4h-1.7c-0.3,0-0.6-0.1-0.7-0.4l-2.2-3.3c-0.1-0.1-0.1-0.2-0.3-0.3s-0.3-0.1-0.4-0.1h-0.8v4.1h-1.9
	V62.2h3.1c0.6,0,1.2,0.1,1.8,0.2c0.4,0.1,0.8,0.3,1.3,0.6c0.3,0.3,0.6,0.6,0.7,0.9s0.2,0.8,0.2,1.2c0,0.3-0.1,0.6-0.1,1
	c-0.1,0.3-0.3,0.6-0.4,0.8c-0.2,0.3-0.4,0.5-0.7,0.7s-0.6,0.3-1,0.4c0.1,0.1,0.2,0.1,0.3,0.3c0.1,0.1,0.2,0.2,0.3,0.3L53.5,72.4
	L53.5,72.4z M48.6,67.1c0.3,0,0.6-0.1,0.9-0.1s0.5-0.2,0.7-0.3c0.1-0.1,0.3-0.3,0.4-0.6c0.1-0.2,0.1-0.5,0.1-0.7
	c0-0.5-0.1-0.9-0.5-1.2c-0.5-0.3-1-0.5-1.6-0.4h-1.3v3.4L48.6,67.1L48.6,67.1z"/>
<path class="st0" d="M60.4,70.9c0.3,0,0.7-0.1,1-0.2s0.6-0.3,0.8-0.5s0.3-0.5,0.5-0.8s0.1-0.7,0.1-1.1v-6.1h1.9v6.1
	c0,0.6-0.1,1.2-0.3,1.7c-0.2,0.5-0.5,1-0.8,1.3c-0.3,0.4-0.8,0.7-1.3,0.9c-0.6,0.2-1.2,0.3-1.7,0.3c-0.6,0-1.2-0.1-1.8-0.3
	c-0.5-0.2-1-0.5-1.3-0.9c-0.3-0.4-0.6-0.8-0.8-1.3c-0.2-0.6-0.3-1.1-0.3-1.7v-6.1h1.9v6.1c0,0.3,0.1,0.7,0.1,1.1
	c0.1,0.3,0.3,0.6,0.5,0.8c0.2,0.2,0.5,0.4,0.8,0.6C59.7,70.8,60,70.9,60.4,70.9z"/>
<path class="st0" d="M79.6,62.2v10.3H78v-6.6c0-0.3,0-0.6,0.1-0.8L75,70.9c-0.1,0.3-0.4,0.4-0.7,0.4H74c-0.3,0-0.6-0.1-0.7-0.4
	L70.2,65c0,0.1,0,0.3,0.1,0.5s0,0.3,0,0.4v6.6h-1.6V62.2h1.8c0.1,0,0.1,0.1,0.1,0.1c0.1,0.1,0.1,0.1,0.1,0.1l3.1,5.7
	c0.1,0.1,0.1,0.3,0.2,0.5c0.1,0.1,0.1,0.3,0.2,0.5l0.2-0.5c0.1-0.1,0.1-0.3,0.2-0.5l3.1-5.7c0-0.1,0.1-0.1,0.1-0.1
	c0,0,0.1-0.1,0.1-0.1L79.6,62.2L79.6,62.2z"/>
<path class="st0" d="M98.6,67.3c0,0.7-0.1,1.4-0.3,2.1C98,70,97.6,70.6,97.2,71c-0.5,0.5-1.1,0.8-1.7,1.1c-0.7,0.3-1.4,0.4-2.2,0.4
	c-0.7,0-1.4-0.1-2.1-0.4c-0.6-0.3-1.2-0.6-1.7-1.1s-0.8-1.1-1.1-1.7c-0.5-1.3-0.5-2.9,0-4.2c0.2-0.6,0.6-1.2,1.1-1.7
	c0.5-0.5,1.1-0.8,1.7-1.1c1.1-0.4,2.4-0.5,3.6-0.2c0.4,0.1,0.8,0.3,1.3,0.5c0.3,0.2,0.7,0.5,1.1,0.8c0.3,0.3,0.6,0.7,0.8,1
	c0.2,0.4,0.3,0.8,0.5,1.3C98.6,66.4,98.6,66.9,98.6,67.3L98.6,67.3z M96.6,67.3c0-0.5-0.1-1.1-0.2-1.5c-0.1-0.4-0.3-0.8-0.6-1.1
	s-0.6-0.6-1.1-0.7c-0.8-0.3-1.8-0.3-2.7,0c-0.4,0.1-0.8,0.4-1.1,0.7c-0.3,0.3-0.5,0.7-0.6,1.1c-0.3,1-0.3,2,0,3.1
	c0.1,0.4,0.3,0.8,0.6,1.1s0.6,0.6,1.1,0.7c0.8,0.3,1.8,0.3,2.7,0c0.4-0.1,0.8-0.4,1.1-0.7c0.3-0.3,0.5-0.7,0.6-1.1
	C96.5,68.3,96.6,67.8,96.6,67.3L96.6,67.3z"/>
<path class="st0" d="M103.9,63.7v3.1h3.8v1.5h-3.8v4.2h-1.9V62.2h6.5v1.5L103.9,63.7L103.9,63.7z"/>
<path class="st0" d="M123.6,70c0.1,0,0.2,0.1,0.3,0.1l0.8,0.8c-0.4,0.5-1,0.9-1.5,1.2c-0.7,0.3-1.5,0.4-2.2,0.4s-1.4-0.1-2-0.4
	c-0.6-0.3-1.1-0.6-1.5-1.1c-0.4-0.5-0.8-1.1-1-1.7c-0.2-0.7-0.3-1.4-0.3-2.1s0.1-1.4,0.3-2.1c0.2-0.6,0.6-1.2,1.1-1.7
	c0.4-0.5,1-0.8,1.6-1.1c0.7-0.3,1.4-0.4,2.1-0.4s1.3,0.1,2,0.3c0.6,0.2,1.1,0.6,1.5,1l-0.6,0.9c-0.1,0.1-0.1,0.1-0.1,0.1
	c-0.1,0.1-0.1,0.1-0.3,0.1c-0.1,0-0.1,0-0.2-0.1s-0.1-0.1-0.3-0.1l-0.3-0.2l-0.4-0.2c-0.2-0.1-0.3-0.1-0.6-0.1
	c-0.2-0.1-0.5-0.1-0.7-0.1c-0.4,0-0.8,0.1-1.3,0.3c-0.3,0.1-0.7,0.4-1,0.7c-0.3,0.3-0.5,0.7-0.6,1.1c-0.1,0.5-0.2,1-0.2,1.5
	s0.1,1.1,0.3,1.5c0.1,0.4,0.4,0.8,0.7,1.1s0.6,0.6,1,0.7c0.4,0.1,0.8,0.3,1.3,0.3c0.2,0,0.5,0,0.7-0.1c0.2,0,0.4-0.1,0.6-0.1
	c0.2-0.1,0.3-0.1,0.5-0.2c0.1-0.1,0.3-0.2,0.5-0.3C123.6,70.1,123.6,70.1,123.6,70C123.5,70.1,123.5,70.1,123.6,70L123.6,70z"/>
<path class="st0" d="M137.2,67.3c0,0.7-0.1,1.4-0.4,2.1c-0.2,0.6-0.6,1.2-1.1,1.7c-0.5,0.5-1.1,0.8-1.7,1.1c-1.4,0.6-2.9,0.6-4.3,0
	c-1.3-0.5-2.2-1.5-2.7-2.8c-0.5-1.3-0.5-2.9,0-4.2c0.5-1.3,1.5-2.3,2.7-2.8c1.1-0.4,2.4-0.5,3.6-0.2c0.4,0.1,0.8,0.3,1.3,0.5
	c0.4,0.2,0.7,0.5,1.1,0.8c0.3,0.3,0.6,0.7,0.8,1.1c0.2,0.4,0.4,0.8,0.5,1.3C137.2,66.3,137.2,66.8,137.2,67.3L137.2,67.3z
	 M135.3,67.3c0-0.5-0.1-1.1-0.2-1.5s-0.4-0.8-0.6-1.1s-0.6-0.6-1.1-0.7c-0.8-0.3-1.8-0.3-2.7,0c-0.4,0.1-0.8,0.4-1.1,0.7
	c-0.3,0.3-0.5,0.7-0.6,1.1c-0.3,1-0.3,2,0,3.1c0.1,0.4,0.4,0.8,0.6,1.1s0.6,0.6,1.1,0.7c0.8,0.3,1.8,0.3,2.7,0
	c0.4-0.1,0.8-0.4,1.1-0.7c0.3-0.3,0.5-0.7,0.6-1.1C135.2,68.3,135.3,67.8,135.3,67.3L135.3,67.3z"/>
<path class="st0" d="M146.1,64.1c-0.1,0.1-0.1,0.1-0.2,0.2c-0.1,0.1-0.1,0.1-0.2,0.1c-0.1,0-0.2-0.1-0.4-0.1s-0.3-0.1-0.4-0.3
	c-0.2-0.1-0.4-0.2-0.6-0.3c-0.3-0.1-0.5-0.1-0.8-0.1c-0.2,0-0.5,0-0.7,0.1s-0.4,0.1-0.5,0.3s-0.2,0.3-0.3,0.4
	c-0.1,0.1-0.1,0.3-0.1,0.6s0.1,0.4,0.2,0.6c0.1,0.1,0.4,0.3,0.6,0.4c0.3,0.1,0.5,0.2,0.8,0.3s0.6,0.2,0.8,0.3s0.6,0.2,0.8,0.3
	s0.6,0.3,0.8,0.5s0.4,0.5,0.6,0.8c0.1,0.3,0.2,0.7,0.2,1.1s-0.1,0.9-0.2,1.3s-0.4,0.8-0.7,1.1c-0.4,0.3-0.7,0.6-1.1,0.7
	c-0.5,0.2-1,0.3-1.5,0.3c-0.4,0-0.6,0-1-0.1c-0.3-0.1-0.6-0.1-0.9-0.3l-0.8-0.4c-0.3-0.1-0.5-0.3-0.7-0.6l0.6-0.9
	c0.1-0.1,0.1-0.1,0.2-0.1c0.1-0.1,0.1-0.1,0.3-0.1s0.3,0.1,0.4,0.1s0.3,0.2,0.5,0.3s0.4,0.2,0.6,0.3c0.3,0.1,0.6,0.1,0.9,0.1
	c0.5,0,0.9-0.1,1.3-0.4c0.3-0.3,0.5-0.7,0.4-1.1c0-0.2-0.1-0.5-0.2-0.6c-0.1-0.2-0.4-0.3-0.6-0.4c-0.2-0.1-0.5-0.2-0.8-0.3l-0.8-0.3
	c-0.3-0.1-0.6-0.2-0.8-0.3s-0.6-0.3-0.8-0.5s-0.4-0.5-0.6-0.8c-0.1-0.3-0.2-0.8-0.2-1.2c0-0.3,0.1-0.8,0.2-1.1s0.4-0.7,0.6-1
	s0.6-0.6,1.1-0.7c0.5-0.1,1-0.3,1.5-0.3c0.6,0,1.1,0.1,1.7,0.3c0.5,0.1,0.9,0.4,1.3,0.8L146.1,64.1L146.1,64.1z"/>
<path class="st0" d="M157.3,63.7h-3.1v8.7h-1.9v-8.7h-3.1v-1.5h8.1L157.3,63.7L157.3,63.7L157.3,63.7z"/>
<path class="st0" d="M168.1,72.4h-1.5c-0.1,0-0.3-0.1-0.4-0.1c-0.1-0.1-0.2-0.2-0.2-0.3l-0.8-2.1H161l-0.8,2.1
	c-0.1,0.1-0.1,0.2-0.2,0.3c-0.1,0.1-0.3,0.1-0.4,0.1h-1.5l4.1-10.3h1.9L168.1,72.4L168.1,72.4z M164.8,68.6l-1.3-3.4
	c-0.1-0.1-0.1-0.3-0.2-0.6s-0.1-0.4-0.2-0.7c-0.1,0.2-0.1,0.5-0.2,0.7s-0.1,0.4-0.2,0.6l-1.3,3.4H164.8L164.8,68.6z"/>
<path class="st0" d="M183.6,72.4h-1.7c-0.3,0-0.6-0.1-0.7-0.4l-2.2-3.3c-0.1-0.1-0.1-0.2-0.3-0.3s-0.3-0.1-0.4-0.1h-0.8v4.1h-1.9
	V62.2h3.1c0.6,0,1.2,0.1,1.8,0.2c0.4,0.1,0.8,0.3,1.3,0.6c0.3,0.3,0.6,0.6,0.7,0.9c0.3,0.7,0.3,1.5,0.1,2.2
	c-0.1,0.3-0.3,0.6-0.4,0.8c-0.2,0.3-0.4,0.5-0.7,0.7s-0.6,0.3-1,0.4c0.3,0.1,0.5,0.3,0.6,0.6L183.6,72.4L183.6,72.4z M178.7,67.1
	c0.4,0,0.6-0.1,0.9-0.1s0.5-0.2,0.7-0.3c0.1-0.1,0.3-0.3,0.4-0.6c0.1-0.2,0.1-0.5,0.1-0.7c0-0.5-0.1-0.9-0.5-1.2
	c-0.5-0.3-1.1-0.5-1.5-0.4h-1.3v3.4L178.7,67.1L178.7,67.1z"/>
<path class="st0" d="M188.4,72.4h-1.9V62.2h1.9V72.4z"/>
<path class="st0" d="M199.4,70c0.1,0,0.2,0.1,0.3,0.1l0.8,0.8c-0.4,0.5-1,0.9-1.5,1.2c-0.7,0.3-1.5,0.4-2.2,0.4s-1.4-0.1-2.1-0.4
	c-0.6-0.3-1.1-0.6-1.5-1.1s-0.8-1.1-1-1.7c-0.2-0.7-0.4-1.4-0.4-2.1s0.1-1.4,0.4-2.1c0.2-0.6,0.6-1.2,1.1-1.7c0.5-0.5,1-0.8,1.6-1.1
	c0.7-0.3,1.4-0.4,2.1-0.4s1.4,0.1,2,0.3c0.6,0.2,1.1,0.6,1.5,1l-0.6,0.9c-0.1,0.1-0.1,0.1-0.1,0.1c-0.1,0.1-0.1,0.1-0.3,0.1
	c-0.1,0-0.1,0-0.2-0.1s-0.1-0.1-0.3-0.1l-0.4-0.2c-0.1-0.1-0.3-0.1-0.4-0.2c-0.2-0.1-0.4-0.1-0.6-0.1c-0.2-0.1-0.5-0.1-0.7-0.1
	c-0.4,0-0.8,0.1-1.3,0.3c-0.4,0.1-0.7,0.4-1,0.7c-0.3,0.3-0.5,0.7-0.6,1.1c-0.1,0.5-0.2,1-0.2,1.5s0.1,1.1,0.3,1.5
	c0.1,0.4,0.4,0.8,0.7,1.1s0.6,0.6,1,0.7c0.4,0.1,0.8,0.3,1.3,0.3c0.2,0,0.5,0,0.7-0.1c0.2,0,0.4-0.1,0.6-0.1
	c0.2-0.1,0.4-0.1,0.5-0.2c0.1-0.1,0.4-0.2,0.5-0.3C199.2,70.1,199.3,70.1,199.4,70C199.3,70.1,199.4,70.1,199.4,70L199.4,70z"/>
<path class="st0" d="M212.3,72.4h-1.5c-0.1,0-0.3-0.1-0.4-0.1c-0.1-0.1-0.2-0.2-0.2-0.3l-0.8-2.1h-4.3l-0.8,2.1
	c-0.1,0.1-0.1,0.2-0.2,0.3c-0.1,0.1-0.3,0.1-0.4,0.1h-1.5l4.1-10.3h1.9L212.3,72.4L212.3,72.4z M208.9,68.6l-1.3-3.4
	c-0.1-0.1-0.1-0.3-0.2-0.6s-0.1-0.4-0.2-0.7c-0.1,0.2-0.1,0.5-0.2,0.7s-0.1,0.4-0.2,0.6l-1.3,3.4H208.9L208.9,68.6z"/>
</svg>
