<svg width="268" height="89" viewBox="0 0 268 89" fill="none" xmlns="http://www.w3.org/2000/svg">
<g clip-path="url(#clip0_1_28)">
<path d="M21.721 37.8431C21.1558 39.1342 20.5098 40.0217 19.7023 40.5866C18.8948 41.1514 17.7644 41.5548 16.0687 41.7969C16.1494 41.5548 16.3109 41.3128 16.3109 41.0707C16.3917 40.9093 16.3917 40.748 16.3917 40.5866C16.3917 40.1024 16.1494 39.699 15.665 39.3762C15.1805 39.1342 14.6152 38.9728 13.8078 38.9728C11.7083 39.0535 10.0934 40.1024 8.96294 42.1197C7.83248 44.1369 7.348 46.961 7.50949 50.5113C7.67098 54.4651 8.39771 57.3699 9.77041 59.2257C11.1431 61.0816 13.081 62.0499 15.665 61.9692C16.6339 61.9692 17.6029 61.7271 18.5719 61.4043C19.5408 61.0816 20.5905 60.5975 21.721 59.9519C21.721 60.0326 21.721 60.1133 21.721 60.2747C21.721 60.4361 21.721 60.5168 21.721 60.5975C21.8017 62.2919 21.1558 63.5829 19.7831 64.4705C18.4104 65.3581 16.3917 65.8422 13.5655 65.9229C9.44742 66.0843 6.13679 64.874 3.71437 62.2919C1.29195 59.7099 -1.20699e-06 56.1596 -0.161496 51.641C-0.32299 47.0417 0.807471 43.2493 3.22989 40.4252C5.6523 37.5204 8.96294 36.068 13.081 35.9066C14.6152 35.8259 16.0687 35.9873 17.5221 36.3101C19.0563 36.4714 20.429 37.0363 21.721 37.8431Z" fill="white"/>
<path d="M30.6839 36.1487H48.2868C47.9638 38.0045 47.4794 39.2956 46.6719 40.0218C45.9452 40.6673 44.6532 41.1514 42.796 41.3128C42.8768 41.0707 42.9575 40.9093 43.0383 40.748C43.119 40.5866 43.119 40.5059 43.119 40.4252C43.119 40.0218 42.8768 39.7797 42.3115 39.6183C41.7463 39.4569 40.8581 39.3762 39.7276 39.3762C37.6282 39.3762 36.3362 39.5376 35.9325 39.7797C35.5288 40.0218 35.2865 40.5866 35.2865 41.3128V47.4451H42.0693C42.473 47.4451 42.8768 47.4451 43.2805 47.3645C43.6842 47.2838 44.1687 47.2031 44.734 47.0417C44.2495 48.5748 43.765 49.6237 43.2805 50.1079C42.796 50.592 41.9078 50.7534 40.6158 50.7534H35.2865V58.5802C35.2865 59.4678 35.3673 60.1133 35.5288 60.5168C35.6903 60.9202 35.9325 61.1623 36.2555 61.3237C36.5785 61.485 37.063 61.6464 37.5475 61.7271C38.1127 61.8078 39.0009 61.8078 40.2121 61.8078H43.5227C44.8147 61.8078 45.7837 61.7271 46.5911 61.6464C47.3986 61.5657 48.0446 61.4044 48.6098 61.243C48.2061 62.9374 47.7216 64.0671 47.1564 64.6319C46.5911 65.116 45.3799 65.3581 43.5227 65.3581H27.2926C27.6155 64.6319 27.8578 63.9864 28.0193 63.2602C28.1808 62.534 28.2615 61.8078 28.2615 61.0009V42.8459C28.2615 41.7162 28.1 40.99 27.6963 40.5866C27.2926 40.1831 26.6466 39.9411 25.6776 39.8604C26.0006 38.4887 26.4851 37.6011 27.1311 37.117C27.777 36.3907 28.9075 36.1487 30.6839 36.1487Z" fill="white"/>
<path d="M54.7466 36.2294H60.1567C60.1567 36.3101 60.1567 36.3101 60.1567 36.3907C60.1567 36.4714 60.1567 36.5521 60.1567 36.7135C60.1567 37.0363 60.2374 37.2783 60.3182 37.6818C60.4797 38.0045 60.6412 38.408 60.9642 38.9728L69.8463 53.2548C70.2501 53.9003 70.6538 54.7072 71.1383 55.5947C71.6228 56.563 72.0265 57.612 72.511 58.6609H72.834C72.5917 57.6926 72.4303 56.8858 72.3495 56.0789C72.2688 55.272 72.188 54.5458 72.188 53.8196V43.0072C72.188 41.7162 71.9458 40.8286 71.542 40.4252C71.1383 39.9411 70.3308 39.699 69.1196 39.699H68.9581C69.3619 38.2466 69.9271 37.2783 70.4923 36.7942C71.0576 36.3101 72.1073 36.1487 73.5607 36.1487H77.5981C77.1136 36.6328 76.7906 37.359 76.5484 38.1659C76.3061 38.9728 76.2254 40.1024 76.2254 41.6355V57.854C76.2254 59.5485 76.3869 60.5975 76.7906 61.1623C77.1943 61.7271 77.9211 61.9692 78.89 61.9692C78.567 63.2602 78.0826 64.0671 77.5173 64.5512C76.9521 65.0354 75.9024 65.2774 74.5297 65.2774H69.3619C69.3619 65.1967 69.4426 65.116 69.4426 65.0354C69.4426 64.9547 69.4426 64.7933 69.4426 64.6319C69.4426 64.3092 69.3619 64.0671 69.2811 63.825C69.2004 63.5829 69.1196 63.3409 68.9581 63.0988L59.3492 47.8486C58.8647 47.1224 58.461 46.3155 58.138 45.4279C57.7343 44.5403 57.4113 43.6528 57.0883 42.6845H56.7653C56.9268 43.7335 57.0075 44.7017 57.0883 45.67C57.169 46.6383 57.169 47.4451 57.169 48.252V58.4995C57.169 59.7906 57.4113 60.6781 57.8958 61.1623C58.3802 61.6464 59.1877 61.8885 60.3989 61.8885C59.9144 63.2602 59.43 64.2285 58.8647 64.6319C58.2995 65.0354 57.3305 65.2774 55.8771 65.2774H52.2435C52.5664 64.7126 52.8087 63.9864 52.9702 63.0988C53.1317 62.2112 53.2124 61.0816 53.2124 59.5485V42.9266C53.2124 41.7162 53.0509 40.9093 52.6472 40.4252C52.2435 40.0218 51.5975 39.7797 50.5478 39.699C50.9515 38.3273 51.436 37.359 52.082 36.8749C52.6472 36.4714 53.5354 36.2294 54.7466 36.2294Z" fill="white"/>
<path d="M106.829 35.8259C106.183 37.6011 105.537 38.7307 104.81 39.2956C104.083 39.7797 102.953 40.1024 101.257 40.1024C101.176 40.1024 101.015 40.1024 100.611 40.1024C100.288 40.1024 99.965 40.1024 99.6421 40.1024C98.2694 40.1024 97.4619 40.1831 97.2196 40.4252C96.8967 40.6673 96.7352 41.1514 96.7352 41.8776L96.6544 58.7416C96.6544 60.0326 96.8159 60.9202 97.2196 61.3237C97.6234 61.7271 98.2694 61.9692 99.3191 61.9692C98.9153 63.3409 98.4308 64.2285 97.8656 64.6319C97.3004 65.0354 96.4122 65.2774 95.0395 65.2774H88.4989C88.9027 64.5512 89.1449 63.7443 89.3872 62.7761C89.5487 61.8078 89.6294 60.6781 89.7102 59.4678L89.7909 41.7969C89.7909 40.99 89.6294 40.4252 89.3872 40.1831C89.0642 39.9411 88.4182 39.8604 87.2877 39.8604C85.2691 39.8604 83.8156 39.9411 82.8466 40.0218C81.8777 40.1024 81.0702 40.3445 80.3435 40.5866C80.9087 38.8921 81.5547 37.7625 82.2814 37.117C83.0889 36.4714 84.2193 36.2294 85.915 36.2294C86.238 36.2294 87.6915 36.3101 90.1946 36.3907C92.6978 36.4714 95.0395 36.5521 97.3004 36.5521C100.046 36.5521 102.145 36.5521 103.599 36.3907C105.052 36.1487 106.102 35.9873 106.829 35.8259Z" fill="white"/>
<path d="M113.208 36.1487H130.81C130.488 38.0045 130.003 39.2956 129.196 40.0218C128.469 40.748 127.177 41.1514 125.32 41.2321C125.4 40.99 125.481 40.8286 125.562 40.6673C125.643 40.5059 125.643 40.4252 125.643 40.3445C125.643 39.9411 125.4 39.699 124.835 39.5376C124.27 39.3762 123.382 39.2956 122.251 39.2956C120.152 39.2956 118.86 39.4569 118.456 39.699C118.052 39.9411 117.81 40.5059 117.81 41.2321V47.3645H124.593C124.997 47.3645 125.4 47.3645 125.804 47.2838C126.208 47.2031 126.692 47.1224 127.258 46.961C126.773 48.5748 126.289 49.5431 125.804 50.0272C125.32 50.5113 124.431 50.6727 123.14 50.6727H117.81V58.4995C117.81 59.3871 117.891 60.0326 118.052 60.3554C118.214 60.7588 118.456 61.0009 118.779 61.1623C119.102 61.3237 119.587 61.485 120.071 61.5657C120.636 61.6464 121.525 61.6464 122.736 61.6464H126.046C127.338 61.6464 128.307 61.5657 129.115 61.485C129.922 61.4043 130.568 61.243 131.133 61.0816C130.73 62.7761 130.245 63.9057 129.68 64.4705C129.115 64.9547 127.904 65.1967 126.127 65.1967H109.897C110.22 64.4705 110.462 63.825 110.704 63.0988C110.866 62.3726 110.947 61.6464 110.947 60.8395V42.6845C110.947 41.5548 110.785 40.8286 110.381 40.4252C109.978 40.0218 109.332 39.7797 108.363 39.699C108.686 38.3273 109.17 37.4397 109.816 36.9556C110.301 36.3907 111.512 36.1487 113.208 36.1487Z" fill="white"/>
<path d="M136.786 36.1487H142.196C142.196 36.2294 142.196 36.2294 142.196 36.3101C142.196 36.3907 142.196 36.4714 142.196 36.6328C142.196 36.9556 142.277 37.2783 142.357 37.6011C142.519 37.9238 142.68 38.408 143.003 38.8921L151.966 53.1741C152.37 53.8196 152.774 54.6265 153.177 55.514C153.662 56.4823 154.066 57.5313 154.55 58.5802H154.873C154.631 57.612 154.469 56.8051 154.389 55.9982C154.308 55.1913 154.227 54.4651 154.227 53.7389V42.9266C154.227 41.6355 153.985 40.748 153.581 40.3445C153.177 39.8604 152.37 39.6183 151.159 39.6183H150.997C151.401 38.1659 151.966 37.1976 152.531 36.7135C153.097 36.2294 154.146 36.068 155.6 36.068H159.637C159.153 36.6328 158.83 37.2783 158.588 38.0852C158.345 38.8921 158.265 40.0218 158.265 41.5548V57.7733C158.265 59.4678 158.426 60.5168 158.83 61.0816C159.233 61.6464 159.96 61.8885 160.929 61.8885C160.606 63.1795 160.122 64.0671 159.476 64.4705C158.91 64.9547 157.861 65.1967 156.488 65.1967H151.32C151.32 65.116 151.401 65.0354 151.401 64.9547C151.401 64.874 151.401 64.7126 151.401 64.5512C151.401 64.2285 151.401 63.9864 151.32 63.7443C151.24 63.5023 151.159 63.2602 150.917 63.0181L141.308 47.7679C140.823 47.0417 140.419 46.2348 140.096 45.3472C139.693 44.4597 139.37 43.5721 139.047 42.6038H138.724C138.885 43.6528 138.966 44.7017 139.047 45.5893C139.127 46.5576 139.127 47.3645 139.127 48.0907V58.3382C139.127 59.6292 139.37 60.5168 139.854 61.0009C140.339 61.485 141.146 61.7271 142.357 61.7271C141.873 63.0988 141.388 64.0671 140.823 64.4705C140.258 64.874 139.289 65.116 137.835 65.116H134.202C134.525 64.5512 134.767 63.825 134.929 62.9374C135.09 62.0499 135.171 60.9202 135.171 59.3871V42.7652C135.171 41.5548 135.009 40.748 134.606 40.2638C134.202 39.8604 133.556 39.6183 132.506 39.5376C132.91 38.1659 133.394 37.1976 134.04 36.7135C134.686 36.3907 135.575 36.1487 136.786 36.1487Z" fill="white"/>
<path d="M190.563 61.8078C190.079 63.2602 189.594 64.2285 189.11 64.6319C188.625 65.0354 187.576 65.2774 186.122 65.2774H180.228C180.551 64.6319 180.712 63.9864 180.874 63.3409C181.035 62.6954 181.116 61.9692 181.116 61.243C181.116 60.6781 181.035 60.0326 180.874 59.3871C180.712 58.6609 180.551 57.854 180.228 56.9665H170.215C169.973 57.6927 169.811 58.3382 169.731 58.903C169.65 59.4678 169.569 59.8713 169.569 60.1133C169.569 60.7588 169.731 61.1623 170.054 61.485C170.377 61.8078 170.861 61.9692 171.507 61.9692H171.669C171.184 63.4216 170.7 64.3092 170.296 64.7126C169.811 65.116 168.923 65.2774 167.47 65.2774H163.594C164.24 64.3092 165.047 61.9692 166.097 58.1768C166.743 55.9175 167.227 54.223 167.631 52.932C168.277 50.9148 169.004 48.4941 169.973 45.67C170.942 42.6845 171.426 40.99 171.426 40.5866C171.426 40.1831 171.346 39.8604 171.103 39.699C170.861 39.5376 170.457 39.4569 169.811 39.3762C170.215 38.3273 170.619 37.6011 170.942 37.117C171.265 36.6328 171.588 36.3908 171.911 36.3101C172.234 36.2294 172.718 36.1487 173.364 36.068C173.93 35.9873 175.06 35.9873 176.756 35.9873H177.321C178.29 35.9873 178.936 36.068 179.259 36.1487C179.582 36.2294 179.905 36.3908 180.066 36.6328C180.389 36.9556 180.955 38.3273 181.762 40.5866C182.65 42.8459 183.7 45.9121 184.992 49.7851C185.638 51.7217 186.284 53.9003 186.849 56.2402C187.414 58.5802 187.818 59.9519 187.98 60.3554C188.222 60.8395 188.464 61.243 188.868 61.4043C189.271 61.6464 189.756 61.7271 190.402 61.7271L190.563 61.8078ZM174.979 40.4252C174.898 41.5548 174.172 44.1369 172.88 48.0907C172.072 50.5113 171.507 52.4479 171.023 53.8196H179.34C179.097 52.6899 178.694 51.1568 178.128 49.1396C177.563 47.2031 176.675 44.2176 175.464 40.3445L174.979 40.4252Z" fill="white"/>
<path d="M209.055 51.2375L214.465 59.8713C214.949 60.5975 215.434 61.1623 215.999 61.5657C216.564 61.9692 217.21 62.1306 217.856 62.1306C217.533 63.3409 217.049 64.1478 216.564 64.5512C215.999 64.9547 215.272 65.1967 214.142 65.1967H209.055C209.135 64.9547 209.135 64.7126 209.216 64.6319C209.216 64.4705 209.216 64.3898 209.216 64.3092C209.216 64.0671 209.135 63.7443 209.055 63.5023C208.974 63.1795 208.732 62.7761 208.489 62.2112L203.644 53.1741C202.999 53.2548 202.514 53.4161 202.11 53.4161C201.707 53.4968 201.384 53.4968 200.98 53.5775V58.9837C200.98 60.194 201.141 61.0009 201.464 61.4043C201.787 61.8078 202.433 62.1305 203.402 62.2112C202.999 63.5023 202.595 64.3092 202.11 64.7126C201.626 65.116 200.738 65.2774 199.284 65.2774H193.309C193.632 64.5512 193.955 63.825 194.116 63.0988C194.278 62.3726 194.359 61.6464 194.359 60.8395L194.278 43.0879C194.278 41.8776 194.116 41.0707 193.713 40.6673C193.309 40.2638 192.582 40.0218 191.613 39.9411C192.017 38.408 192.744 37.359 193.793 36.8749C194.843 36.3101 197.346 36.068 201.303 36.068C202.918 36.068 204.29 36.1487 205.421 36.2294C206.632 36.3907 207.52 36.5521 208.247 36.7942C210.185 37.4397 211.719 38.408 212.769 39.7797C213.819 41.0707 214.384 42.6038 214.384 44.379C214.384 45.9927 213.899 47.4451 212.93 48.6555C212.204 49.7044 210.831 50.592 209.055 51.2375ZM201.061 50.35C203.241 50.2693 204.856 49.7044 205.905 48.6555C207.036 47.6065 207.52 46.0734 207.52 44.1369C207.52 42.5231 207.117 41.2321 206.471 40.2638C205.744 39.2956 204.775 38.8921 203.564 38.8921C202.595 38.8921 201.949 39.1342 201.545 39.6183C201.141 40.1024 200.98 40.9093 200.98 42.1197L201.061 50.35Z" fill="white"/>
<path d="M222.862 42.7652C222.862 41.5548 222.701 40.748 222.297 40.3445C221.893 39.9411 221.247 39.6183 220.278 39.5376C220.763 38.0852 221.247 37.1169 221.813 36.7135C222.297 36.3101 223.266 36.068 224.558 36.068H230.937C230.614 36.8749 230.291 37.6011 230.13 38.408C229.968 39.2149 229.807 39.9411 229.807 40.748L229.726 58.4995C229.726 59.7906 229.887 60.5975 230.291 61.0009C230.614 61.4043 231.341 61.6464 232.31 61.8078C231.825 63.2602 231.341 64.2285 230.776 64.6319C230.291 65.0354 229.322 65.1967 227.949 65.1967H221.651C221.974 64.4705 222.297 63.7443 222.459 63.0181C222.62 62.2919 222.782 61.485 222.782 60.7588L222.862 42.7652Z" fill="white"/>
<path d="M258.553 39.1342C256.049 36.4715 252.82 35.0997 248.782 35.1804C244.745 35.2611 241.515 36.6328 239.173 39.3763C236.751 42.1197 235.62 45.8314 235.701 50.35C235.782 54.9492 237.074 58.4996 239.496 61.243C241.999 63.9057 245.229 65.2774 249.267 65.1968C253.304 65.1161 256.534 63.7443 258.876 61.0009C261.298 58.2575 262.428 54.5458 262.348 50.0272C262.348 45.5086 261.056 41.8776 258.553 39.1342ZM253.385 58.9837C252.416 61.0009 251.043 61.9692 249.186 62.0499C247.329 62.0499 245.956 61.0816 244.906 59.1451C243.937 57.2085 243.372 54.223 243.372 50.35C243.291 46.4769 243.776 43.4914 244.664 41.5549C245.633 39.5376 247.006 38.5694 248.863 38.4887C250.72 38.4887 252.174 39.4569 253.143 41.3935C254.111 43.4107 254.677 46.3155 254.677 50.1886C254.757 53.981 254.273 56.9665 253.385 58.9837Z" fill="white"/>
<path d="M268 62.4533C268 63.9864 266.789 65.1967 265.174 65.1967C263.64 65.1967 262.348 63.9864 262.348 62.4533C262.348 60.9202 263.559 59.7099 265.174 59.7099C266.789 59.7906 268 61.0009 268 62.4533ZM263.074 62.4533C263.074 63.6636 263.963 64.6319 265.174 64.6319C266.385 64.6319 267.273 63.6636 267.273 62.4533C267.273 61.243 266.385 60.2747 265.174 60.2747C263.963 60.2747 263.074 61.3237 263.074 62.4533ZM264.77 63.9057H264.124V61.1623C264.366 61.0816 264.689 61.0816 265.174 61.0816C265.658 61.0816 265.901 61.1623 266.143 61.243C266.304 61.3237 266.385 61.5657 266.385 61.8078C266.385 62.1305 266.143 62.3726 265.82 62.4533C266.062 62.534 266.224 62.7761 266.304 63.0988C266.385 63.5023 266.466 63.6636 266.466 63.7443H265.82C265.739 63.6636 265.658 63.4216 265.578 63.0988C265.497 62.7761 265.335 62.6954 265.012 62.6954H264.689V63.9057H264.77ZM264.77 62.3726H265.093C265.416 62.3726 265.739 62.2919 265.739 61.9692C265.739 61.7271 265.578 61.5657 265.174 61.5657C265.012 61.5657 264.851 61.5657 264.851 61.5657V62.3726H264.77Z" fill="white"/>
<path d="M107.394 15.3309L112.723 23.9646C113.208 24.6908 113.692 25.2557 114.257 25.6591C114.823 26.0626 115.469 26.2239 116.114 26.2239C115.792 27.4343 115.307 28.2412 114.823 28.6446C114.257 29.048 113.531 29.2901 112.4 29.2901H107.313C107.394 29.048 107.394 28.806 107.475 28.7253C107.475 28.5639 107.475 28.4832 107.475 28.4025C107.475 28.1605 107.394 27.8377 107.313 27.5956C107.232 27.2729 106.99 26.8694 106.748 26.3046L101.903 17.2675C101.257 17.3481 100.773 17.5095 100.369 17.5095C99.965 17.5902 99.6421 17.5902 99.2383 17.6709V23.0771C99.2383 24.2874 99.3998 25.0943 99.7228 25.4977C100.046 25.9012 100.692 26.2239 101.661 26.3046C101.257 27.5956 100.853 28.4025 100.369 28.806C99.8843 29.2094 98.9961 29.3708 97.5426 29.3708H91.5673C91.8903 28.6446 92.2133 27.9184 92.3748 27.1922C92.5363 26.466 92.617 25.7398 92.617 24.9329L92.5363 7.18132C92.5363 5.97099 92.3748 5.1641 91.9711 4.76065C91.5673 4.35721 90.8406 4.11514 89.8716 4.03445C90.2754 2.50136 91.0021 1.4524 92.0518 0.968267C93.1015 0.403444 95.6047 0.161377 99.5613 0.161377C101.176 0.161377 102.549 0.242066 103.679 0.322755C104.891 0.484133 105.779 0.645511 106.506 0.887578C108.443 1.53309 109.978 2.50136 111.027 3.87307C112.077 5.1641 112.642 6.69719 112.642 8.47235C112.642 10.0861 112.158 11.5385 111.189 12.7489C110.462 13.7978 109.17 14.6854 107.394 15.3309ZM99.3191 14.4433C101.499 14.3626 103.114 13.7978 104.164 12.7489C105.294 11.6999 105.779 10.1668 105.779 8.23028C105.779 6.6165 105.375 5.32548 104.729 4.35721C104.002 3.38894 103.033 2.98549 101.822 2.98549C100.853 2.98549 100.207 3.22756 99.8035 3.71169C99.3998 4.19583 99.2383 5.00272 99.2383 6.21305L99.3191 14.4433Z" fill="white"/>
<path d="M139.612 3.95377C137.109 1.29103 133.879 -0.0806805 129.842 8.57585e-06C125.804 0.0806976 122.574 1.45241 120.233 4.19584C117.81 6.93926 116.68 10.651 116.76 15.1695C116.841 19.7688 118.133 23.3191 120.556 26.0626C123.059 28.7253 126.289 30.097 130.326 30.0163C134.363 29.9356 137.593 28.5639 139.935 25.8205C142.357 23.0771 143.488 19.3654 143.407 14.8468C143.326 10.2475 142.034 6.61651 139.612 3.95377ZM134.363 23.8033C133.394 25.8205 132.022 26.7888 130.165 26.8695C128.307 26.8695 126.935 25.9012 125.885 23.9646C124.916 22.0281 124.351 19.0426 124.351 15.1695C124.27 11.2965 124.754 8.31098 125.643 6.37444C126.612 4.35722 127.984 3.38895 129.842 3.30826C131.699 3.30826 133.152 4.27653 134.121 6.21306C135.09 8.23029 135.655 11.1351 135.655 15.0082C135.736 18.8006 135.332 21.786 134.363 23.8033Z" fill="white"/>
<path d="M147.767 5.58794e-07H153.177C153.177 0.0806896 153.177 0.0806896 153.177 0.161379C153.177 0.242068 153.177 0.322757 153.177 0.484135C153.177 0.806891 153.258 1.12965 153.339 1.4524C153.5 1.77516 153.662 2.25929 153.985 2.74343L162.948 17.0254C163.352 17.6709 163.755 18.4778 164.159 19.3654C164.644 20.3336 165.047 21.3826 165.532 22.4316H165.855C165.613 21.4633 165.451 20.6564 165.37 19.8495C165.29 19.0426 165.209 18.3164 165.209 17.5902V6.77788C165.209 5.48685 164.967 4.59928 164.563 4.19583C164.159 3.7117 163.352 3.46963 162.14 3.46963H161.979C162.383 2.01723 162.948 1.04896 163.513 0.564824C164.078 0.0806896 165.128 -0.0806885 166.581 -0.0806885H170.619C170.134 0.484135 169.811 1.12965 169.569 1.93654C169.327 2.74343 169.246 3.87307 169.246 5.40617V21.6247C169.246 23.3191 169.408 24.3681 169.811 24.9329C170.215 25.4977 170.942 25.7398 171.911 25.7398C171.588 27.0308 171.103 27.9184 170.457 28.3218C169.892 28.806 168.842 29.048 167.47 29.048H162.302C162.302 28.9674 162.383 28.8867 162.383 28.806C162.383 28.7253 162.383 28.5639 162.383 28.4025C162.383 28.0798 162.383 27.8377 162.302 27.5956C162.221 27.3536 162.14 27.1115 161.898 26.8694L152.37 11.6999C151.885 10.9737 151.482 10.1668 151.159 9.27924C150.755 8.39166 150.432 7.50408 150.109 6.53581H149.786C149.948 7.58477 150.028 8.63373 150.109 9.52131C150.19 10.4896 150.19 11.2965 150.19 12.0227V22.2702C150.19 23.5612 150.432 24.4488 150.917 24.9329C151.401 25.417 152.208 25.6591 153.42 25.6591C152.935 27.0308 152.451 27.9991 151.886 28.4025C151.32 28.806 150.351 29.048 148.898 29.048H145.264C145.587 28.4832 145.829 27.757 145.991 26.8694C146.152 25.9819 146.233 24.8522 146.233 23.3191V6.69719C146.233 5.48686 146.072 4.67996 145.668 4.19583C145.264 3.79238 144.618 3.55032 143.569 3.46963C143.972 2.09792 144.457 1.12965 145.103 0.645513C145.668 0.242068 146.556 5.58794e-07 147.767 5.58794e-07Z" fill="white"/>
<path d="M18.3296 72.7815V75.1215H11.1431V79.6401H16.7954V81.8994H11.1431V86.4179H18.3296V88.8386H8.15546V72.7815H18.3296Z" fill="white"/>
<path d="M24.3049 86.3373H30.7647V88.8386H21.3173V72.7815H24.3049V86.3373Z" fill="white"/>
<path d="M41.1003 82.5449V88.8386H38.1127V72.7815H43.0382C44.1687 72.7815 45.0569 72.8622 45.8644 73.1043C46.6719 73.3463 47.3179 73.6691 47.8023 74.0725C48.2868 74.476 48.6906 74.9601 48.9328 75.5249C49.175 76.0897 49.2558 76.7353 49.2558 77.3808C49.2558 77.9456 49.175 78.4297 49.0135 78.9139C48.8521 79.398 48.6098 79.8014 48.2868 80.2049C47.9638 80.6083 47.6408 80.9311 47.1564 81.2538C46.7526 81.5766 46.1874 81.8187 45.6222 81.98C46.0259 82.2221 46.3489 82.4642 46.5911 82.8676L50.6285 88.8386H47.9638C47.7216 88.8386 47.4793 88.7579 47.3179 88.6772C47.1564 88.5965 46.9949 88.4352 46.8334 88.1931L43.442 83.029C43.2805 82.8676 43.1997 82.7062 43.0382 82.6256C42.8768 82.5449 42.6345 82.4642 42.3923 82.4642H41.1003V82.5449ZM41.1003 80.447H42.9575C43.5227 80.447 44.0072 80.3663 44.411 80.2049C44.8147 80.0435 45.1377 79.8821 45.4607 79.6401C45.7029 79.398 45.9451 79.0752 46.1066 78.7525C46.2681 78.4297 46.2681 78.0263 46.2681 77.6228C46.2681 76.8159 46.0259 76.1704 45.4607 75.767C44.8954 75.3635 44.088 75.1215 42.9575 75.1215H41.0196V80.447H41.1003Z" fill="white"/>
<path d="M67.9084 80.7697C67.9084 81.98 67.7469 83.029 67.3432 84.078C66.9394 85.0462 66.3742 85.9338 65.6475 86.66C64.9208 87.3862 64.1133 87.951 63.0636 88.3545C62.0946 88.7579 60.9641 89 59.7529 89C58.5417 89 57.4113 88.7579 56.4423 88.3545C55.4733 87.951 54.5851 87.3862 53.8584 86.66C53.1317 85.9338 52.5664 85.0462 52.1627 84.078C51.759 83.1097 51.5975 81.98 51.5975 80.7697C51.5975 79.5594 51.759 78.5104 52.1627 77.4615C52.5664 76.4932 53.1317 75.6056 53.8584 74.8794C54.5851 74.1532 55.4733 73.5884 56.4423 73.1849C57.4113 72.7815 58.5417 72.5394 59.7529 72.5394C60.9641 72.5394 62.0946 72.7815 63.0636 73.1849C64.0325 73.5884 64.9208 74.1532 65.6475 74.8794C66.3742 75.6056 66.9394 76.4932 67.3432 77.4615C67.7469 78.5104 67.9084 79.6401 67.9084 80.7697ZM64.84 80.7697C64.84 79.8821 64.7593 79.0752 64.517 78.4297C64.2748 77.7035 63.9518 77.1387 63.5481 76.6546C63.1443 76.1704 62.5791 75.767 61.9331 75.5249C61.2871 75.2829 60.5604 75.1215 59.8337 75.1215C59.0262 75.1215 58.2995 75.2829 57.7343 75.5249C57.0883 75.767 56.6038 76.1704 56.1193 76.6546C55.7156 77.1387 55.3118 77.7035 55.0696 78.4297C54.8274 79.1559 54.7466 79.8821 54.7466 80.7697C54.7466 81.6573 54.8274 82.4642 55.0696 83.1097C55.3118 83.8359 55.6348 84.4007 56.1193 84.8848C56.5231 85.369 57.0883 85.7724 57.7343 86.0145C58.3802 86.2566 59.107 86.4179 59.8337 86.4179C60.6412 86.4179 61.2871 86.2566 61.9331 86.0145C62.5791 85.7724 63.0636 85.369 63.5481 84.8848C63.9518 84.4007 64.3555 83.8359 64.517 83.1097C64.7593 82.4642 64.84 81.6573 64.84 80.7697Z" fill="white"/>
<path d="M72.5917 72.7815C72.6725 72.7815 72.7532 72.7815 72.834 72.8622C72.9147 72.8622 72.9955 72.9429 73.0762 73.0236C73.157 73.1043 73.2377 73.1849 73.3185 73.2656L81.7162 83.9973C81.7162 83.7552 81.6354 83.5131 81.6354 83.2711C81.6354 83.029 81.6354 82.7869 81.6354 82.5449V72.7815H84.3001V88.8386H82.7659C82.5237 88.8386 82.3622 88.8386 82.2007 88.7579C82.0392 88.6772 81.8777 88.5159 81.7162 88.3545L73.3185 77.6228C73.3185 77.8649 73.3185 78.107 73.3992 78.349C73.3992 78.5911 73.3992 78.8332 73.3992 78.9946V88.8386H70.7346V72.7815H72.2688C72.4303 72.7815 72.511 72.7815 72.5917 72.7815Z" fill="white"/>
<path d="M106.99 80.7697C106.99 81.98 106.829 83.029 106.425 83.9973C106.021 84.9655 105.456 85.8531 104.729 86.5793C104.002 87.3055 103.195 87.8703 102.145 88.2738C101.176 88.6772 100.046 88.8386 98.8346 88.8386H92.6978V72.7815H98.8346C100.046 72.7815 101.176 72.9429 102.145 73.3463C103.114 73.7498 104.002 74.3146 104.729 75.0408C105.456 75.767 106.021 76.5739 106.425 77.5421C106.748 78.5104 106.99 79.6401 106.99 80.7697ZM103.922 80.7697C103.922 79.8821 103.841 79.0752 103.599 78.4297C103.356 77.7035 103.033 77.1387 102.549 76.6546C102.145 76.1704 101.58 75.767 100.934 75.5249C100.288 75.2829 99.6421 75.1215 98.8346 75.1215H95.6855V86.4179H98.8346C99.6421 86.4179 100.288 86.2566 100.934 86.0145C101.58 85.7724 102.064 85.369 102.549 84.8848C102.953 84.4007 103.356 83.8359 103.599 83.1097C103.841 82.4642 103.922 81.6573 103.922 80.7697Z" fill="white"/>
<path d="M119.91 72.7815V75.1215H112.804V79.6401H118.375V81.8994H112.804V86.4179H119.91V88.8386H109.735V72.7815H119.91Z" fill="white"/>
<path d="M138.724 85.0462C138.885 85.0462 139.047 85.1269 139.127 85.2076L140.339 86.4986C139.693 87.3055 138.885 87.951 137.916 88.3545C136.947 88.7579 135.817 89 134.525 89C133.314 89 132.264 88.7579 131.295 88.3545C130.326 87.951 129.519 87.3862 128.873 86.66C128.227 85.9338 127.661 85.0462 127.338 84.078C127.015 83.1097 126.773 81.98 126.773 80.7697C126.773 79.5594 126.935 78.4297 127.338 77.4615C127.742 76.4932 128.307 75.6056 129.034 74.8794C129.761 74.1532 130.649 73.5884 131.618 73.1849C132.668 72.7815 133.717 72.5394 135.009 72.5394C136.221 72.5394 137.27 72.7008 138.158 73.1042C139.047 73.5077 139.854 73.9918 140.419 74.6373L139.45 76.0091C139.37 76.0897 139.289 76.1704 139.208 76.2511C139.127 76.3318 138.966 76.3318 138.804 76.3318C138.643 76.3318 138.481 76.2511 138.32 76.1704C138.158 76.0897 137.916 75.9284 137.674 75.767C137.432 75.6056 137.028 75.4442 136.624 75.3635C136.221 75.2022 135.655 75.2022 135.009 75.2022C134.283 75.2022 133.556 75.3635 132.91 75.6056C132.264 75.8477 131.699 76.2511 131.295 76.7353C130.81 77.2194 130.488 77.7842 130.245 78.5104C130.003 79.2366 129.842 79.9628 129.842 80.8504C129.842 81.738 130.003 82.5449 130.245 83.2711C130.488 83.9973 130.81 84.5621 131.295 85.0462C131.699 85.5304 132.264 85.9338 132.829 86.1759C133.394 86.4179 134.04 86.5793 134.767 86.5793C135.171 86.5793 135.575 86.5793 135.898 86.4986C136.221 86.4179 136.544 86.4179 136.786 86.2566C137.028 86.1759 137.351 86.0145 137.593 85.8531C137.835 85.6917 138.078 85.5304 138.32 85.2883C138.401 85.2076 138.481 85.2076 138.562 85.1269C138.562 85.0462 138.643 85.0462 138.724 85.0462Z" fill="white"/>
<path d="M158.426 80.7697C158.426 81.98 158.265 83.029 157.861 84.078C157.457 85.0462 156.892 85.9338 156.165 86.66C155.438 87.3862 154.631 87.951 153.581 88.3545C152.612 88.7579 151.482 89 150.271 89C149.059 89 147.929 88.7579 146.96 88.3545C145.991 87.951 145.103 87.3862 144.376 86.66C143.649 85.9338 143.084 85.0462 142.68 84.078C142.277 83.1097 142.115 81.98 142.115 80.7697C142.115 79.5594 142.277 78.5104 142.68 77.4615C143.084 76.4932 143.649 75.6056 144.376 74.8794C145.103 74.1532 145.991 73.5884 146.96 73.1849C147.929 72.7815 149.059 72.5394 150.271 72.5394C151.482 72.5394 152.612 72.7815 153.581 73.1849C154.55 73.5884 155.438 74.1532 156.165 74.8794C156.892 75.6056 157.457 76.4932 157.861 77.4615C158.265 78.5104 158.426 79.6401 158.426 80.7697ZM155.358 80.7697C155.358 79.8821 155.277 79.0752 155.035 78.4297C154.792 77.7035 154.469 77.1387 154.066 76.6546C153.662 76.1704 153.097 75.767 152.451 75.5249C151.805 75.2829 151.078 75.1215 150.351 75.1215C149.625 75.1215 148.817 75.2829 148.252 75.5249C147.606 75.767 147.121 76.1704 146.637 76.6546C146.152 77.1387 145.829 77.7035 145.587 78.4297C145.345 79.1559 145.264 79.8821 145.264 80.7697C145.264 81.6573 145.345 82.4642 145.587 83.1097C145.829 83.8359 146.152 84.4007 146.637 84.8848C147.041 85.369 147.606 85.7724 148.252 86.0145C148.898 86.2566 149.625 86.4179 150.351 86.4179C151.078 86.4179 151.805 86.2566 152.451 86.0145C153.097 85.7724 153.581 85.369 154.066 84.8848C154.469 84.4007 154.873 83.8359 155.035 83.1097C155.277 82.4642 155.358 81.6573 155.358 80.7697Z" fill="white"/>
<path d="M169.892 75.6863C169.811 75.8477 169.731 75.9284 169.569 76.0091C169.488 76.0897 169.327 76.0897 169.165 76.0897C169.004 76.0897 168.842 76.0091 168.681 75.9284C168.519 75.8477 168.277 75.6863 168.035 75.5249C167.793 75.3635 167.47 75.2829 167.147 75.1215C166.824 74.9601 166.42 74.9601 165.936 74.9601C165.532 74.9601 165.128 75.0408 164.886 75.1215C164.644 75.2022 164.321 75.3635 164.078 75.5249C163.836 75.6863 163.675 75.9284 163.594 76.1704C163.513 76.4125 163.432 76.6546 163.432 76.9773C163.432 77.3808 163.513 77.7035 163.755 77.9456C163.998 78.1877 164.24 78.4297 164.563 78.5911C164.886 78.7525 165.29 78.9139 165.774 79.0752C166.259 79.2366 166.662 79.398 167.147 79.5594C167.631 79.7208 168.035 79.8821 168.519 80.1242C168.923 80.3663 169.327 80.6083 169.731 80.9311C170.054 81.2538 170.377 81.6573 170.538 82.1414C170.78 82.6256 170.861 83.1904 170.861 83.8359C170.861 84.5621 170.7 85.2076 170.457 85.8531C170.215 86.4986 169.811 87.0635 169.327 87.5476C168.842 88.0317 168.277 88.3545 167.55 88.6772C166.824 88.9193 166.097 89.0807 165.209 89.0807C164.724 89.0807 164.159 89 163.675 88.9193C163.19 88.8386 162.706 88.6772 162.221 88.5159C161.737 88.3545 161.333 88.1124 160.929 87.8703C160.525 87.6283 160.202 87.3055 159.879 86.9828L160.768 85.5304C160.848 85.4497 160.929 85.369 161.091 85.2883C161.171 85.2076 161.333 85.2076 161.494 85.2076C161.656 85.2076 161.898 85.2883 162.06 85.4497C162.302 85.6111 162.544 85.7724 162.786 85.9338C163.109 86.0952 163.432 86.2566 163.836 86.4179C164.24 86.5793 164.724 86.66 165.29 86.66C166.178 86.66 166.824 86.4986 167.308 86.0145C167.793 85.5304 168.035 85.0462 168.035 84.2393C168.035 83.8359 167.954 83.5131 167.712 83.1904C167.47 82.9483 167.227 82.7062 166.904 82.5449C166.582 82.3835 166.178 82.2221 165.693 82.0607C165.209 81.8994 164.805 81.8187 164.321 81.6573C163.836 81.4959 163.432 81.3345 162.948 81.0925C162.463 80.8504 162.14 80.6083 161.737 80.2856C161.414 79.9628 161.091 79.5594 160.929 79.0752C160.687 78.5911 160.606 77.9456 160.606 77.2194C160.606 76.6546 160.687 76.0897 160.929 75.5249C161.171 74.9601 161.494 74.476 161.979 74.0725C162.463 73.6691 162.948 73.2656 163.594 73.0236C164.24 72.7815 164.967 72.6201 165.855 72.6201C166.824 72.6201 167.712 72.7815 168.439 73.1043C169.246 73.427 169.892 73.8305 170.457 74.3146L169.892 75.6863Z" fill="white"/>
<path d="M184.992 72.7815V75.2022H180.147V88.8386H177.159V75.2022H172.234V72.7815H184.992Z" fill="white"/>
<path d="M199.769 88.8386H197.427C197.185 88.8386 196.942 88.7579 196.781 88.6772C196.619 88.5159 196.458 88.3545 196.458 88.1931L195.247 84.8848H188.625L187.414 88.1931C187.334 88.3545 187.253 88.5159 187.091 88.6772C186.93 88.8386 186.688 88.9193 186.445 88.9193H184.104L190.402 72.8622H193.47L199.769 88.8386ZM189.433 82.7869H194.52L192.582 77.4615C192.501 77.2194 192.421 76.9773 192.259 76.6546C192.178 76.3318 192.017 76.009 191.936 75.6056C191.855 76.009 191.694 76.3318 191.613 76.6546C191.532 76.9773 191.452 77.3001 191.29 77.5421L189.433 82.7869Z" fill="white"/>
<path d="M209.701 82.5449V88.8386H206.713V72.7815H211.638C212.769 72.7815 213.657 72.8622 214.465 73.1043C215.272 73.3463 215.918 73.6691 216.403 74.0725C216.887 74.476 217.291 74.9601 217.533 75.5249C217.775 76.0897 217.856 76.7353 217.856 77.3808C217.856 77.9456 217.775 78.4297 217.614 78.9139C217.452 79.398 217.21 79.8014 216.887 80.2049C216.564 80.6083 216.241 80.9311 215.757 81.2538C215.353 81.5766 214.788 81.8187 214.222 81.98C214.626 82.2221 214.949 82.4642 215.191 82.8676L219.229 88.8386H216.564C216.322 88.8386 216.08 88.7579 215.918 88.6772C215.757 88.5965 215.595 88.4352 215.434 88.1931L212.042 83.029C211.881 82.8676 211.8 82.7062 211.638 82.6256C211.477 82.5449 211.235 82.4642 210.992 82.4642H209.701V82.5449ZM209.701 80.447H211.558C212.123 80.447 212.607 80.3663 213.011 80.2049C213.415 80.0435 213.738 79.8821 214.061 79.6401C214.303 79.398 214.545 79.0752 214.707 78.7525C214.868 78.4297 214.868 78.0263 214.868 77.6228C214.868 76.8159 214.626 76.1704 214.061 75.767C213.496 75.3635 212.688 75.1215 211.558 75.1215H209.62V80.447H209.701Z" fill="white"/>
<path d="M224.962 72.7815H221.974V88.8386H224.962V72.7815Z" fill="white"/>
<path d="M240.142 85.0462C240.304 85.0462 240.465 85.1269 240.546 85.2076L241.757 86.4986C241.111 87.3055 240.304 87.951 239.335 88.3545C238.366 88.7579 237.235 89 235.943 89C234.732 89 233.682 88.7579 232.713 88.3545C231.745 87.951 230.937 87.3862 230.291 86.66C229.645 85.9338 229.08 85.0462 228.757 84.078C228.434 83.1097 228.192 81.98 228.192 80.7697C228.192 79.5594 228.353 78.4297 228.757 77.4615C229.161 76.4932 229.726 75.6056 230.453 74.8794C231.179 74.1532 232.068 73.5884 233.036 73.1849C234.086 72.7815 235.136 72.5394 236.428 72.5394C237.639 72.5394 238.689 72.7008 239.577 73.1042C240.465 73.5077 241.273 73.9918 241.838 74.6373L240.869 76.0091C240.788 76.0897 240.707 76.1704 240.627 76.2511C240.546 76.3318 240.384 76.3318 240.223 76.3318C240.061 76.3318 239.9 76.2511 239.738 76.1704C239.577 76.0091 239.335 75.9284 239.093 75.767C238.85 75.6056 238.447 75.4442 238.043 75.3635C237.639 75.2022 237.074 75.2022 236.428 75.2022C235.701 75.2022 234.974 75.3635 234.328 75.6056C233.682 75.8477 233.117 76.2511 232.713 76.7353C232.229 77.2194 231.906 77.7842 231.664 78.5104C231.422 79.2366 231.26 79.9628 231.26 80.8504C231.26 81.738 231.422 82.5449 231.664 83.2711C231.906 83.9973 232.229 84.5621 232.713 85.0462C233.117 85.5304 233.682 85.9338 234.248 86.1759C234.813 86.4179 235.459 86.5793 236.186 86.5793C236.589 86.5793 236.993 86.5793 237.316 86.4986C237.639 86.4179 237.962 86.4179 238.204 86.2566C238.447 86.1759 238.77 86.0145 239.012 85.8531C239.254 85.6917 239.496 85.5304 239.738 85.2883C239.819 85.2076 239.9 85.2076 239.981 85.1269C239.9 85.0462 240.061 85.0462 240.142 85.0462Z" fill="white"/>
<path d="M258.553 88.8386H256.211C255.969 88.8386 255.726 88.7579 255.565 88.6772C255.403 88.5159 255.242 88.3545 255.242 88.1931L254.031 84.8848H247.409L246.198 88.1931C246.117 88.3545 246.037 88.5159 245.875 88.6772C245.714 88.8386 245.472 88.9193 245.229 88.9193H242.888L249.186 72.8622H252.254L258.553 88.8386ZM248.136 82.7869H253.223L251.285 77.4615C251.205 77.2194 251.124 76.9773 250.962 76.6546C250.882 76.3318 250.72 76.009 250.639 75.6056C250.559 76.009 250.397 76.3318 250.316 76.6546C250.236 76.9773 250.155 77.3001 249.993 77.5421L248.136 82.7869Z" fill="white"/>
</g>
<defs>
<clipPath id="clip0_1_28">
<rect width="268" height="89" fill="white"/>
</clipPath>
</defs>
</svg>
