<?xml version="1.0" encoding="UTF-8"?>
<svg id="Layer_1" data-name="Layer 1" xmlns="http://www.w3.org/2000/svg" xmlns:xlink="http://www.w3.org/1999/xlink" viewBox="0 0 506 279">
  <defs>
    <style>
      .cls-1 {
        clip-path: url(#clippath);
      }

      .cls-2 {
        fill: none;
      }

      .cls-3 {
        fill: #08483a;
      }
    </style>
    <clipPath id="clippath">
      <rect class="cls-2" width="506" height="279"/>
    </clipPath>
  </defs>
  <g class="cls-1">
    <g>
      <path class="cls-3" d="m145.6,117.31c.4.79.32,1.89.23,2.86-.18,1.72-.24,3.53-.92,5.08-1.02,2.44-.93,4.96-1.46,7.45-.32,1.49-.51,2.97-1.45,4.31-.23.4-.09.98-.18,1.72,0,0,.13.22.39.43-.12.14-.24.27-.36.29-.61.33-.85.6-.57,1.29.14.46-.2,1.24-.43,1.87-.18,1.84-.36,3.67-2.03,5.36,1.13.32.91.96.69,1.83-.55,1.89-.72,3.84-1.15,5.72-.32,1.37-.89,2.78-1.33,4.17-.11.26-.23.52-.22.76-.42,1.99-.71,4.08-1.14,6.08-.22.76-.81,1.56-1.27,2.47.13.1.38.31.64.63-.36.29-.72.58-1.08.88.12-.02.25-.03.37-.05-.43,1.75-.86,3.5-1.17,5.23-.32,1.49-.51,2.97-.82,4.46-.22.88-.68,1.67-.91,2.3-.33,1.13-.66,2.15-1,3.16,0,.12-.11.26-.11.38-.31,1.73-.61,3.47-1.04,5.22-.32,1.37-.76,2.76-1.21,4.15-.43,1.63-.99,3.28-1.55,4.93-.33,1.01-.79,2.04-1.13,3.06-.23.51-.46,1.03-.81,1.56.32,1.77.11,2.88-1.52,5.65.26.21.51.41.77.62-.12.14-.11.26-.23.39-.11.26-.48.55-.47.79-.08,1.22-.28,2.33-.74,3.48-.45,1.15-.91,2.3-1.24,3.43-.22.76-.31,1.61-.53,2.49-.21,1.12-.54,2.25-.86,3.38-.66,2.15-1.33,4.29-1.99,6.44-.67,2.03-1.21,4.03-1.76,6.04-.77,2.64-1.54,5.29-2.31,7.93-.55,1.89-1.23,3.67-1.9,5.46-.79,2.16-1.57,4.33-2.36,6.49-.11.26-.23.52-.34.77-1.06,1.6-2.11,3.2-3.17,4.79-.47.79-1.07,1.24-1.94,1.12-1.38-.29-2.86-.2-3.78-1.52-.26-.33-1.12-.2-1.63-.49-2.41-1.23-3.73-3.46-5.18-5.55-.53-.89-.58-2.09-.86-3.14-.72-2.56-1.56-5.09-2.15-7.66-.58-2.09-1.03-4.2-1.36-6.33-.65-4.01-1.17-8.04-1.7-12.07-.53-4.15-1.06-8.3-1.47-12.47-.36-2.97-.6-5.95-.83-8.94-.02-.48.09-.98.19-1.6.5.17.88.24,1.5.39-.15-.58-.29-1.05-.43-1.63-.48.31-.85.48-1.45.93-.29-14.08-.56-27.93-.84-41.77-.12.02-.25.03-.37.05-.34.77-.69,1.55-1.03,2.32-.35.65-.7,1.31-.92,1.94-.11.38.03.84-.08,1.22-.56,1.65-1.24,3.19-1.81,4.72-.23.52-.33,1.13-.43,1.75-.54,2.01-.97,4-1.51,5.89-.44,1.51-1.25,2.95-1.82,4.36-.23.52-.08,1.1-.19,1.6-.67,2.03-1.46,4.07-2.13,6.09-.34.89-.43,1.87-.64,2.87l-.33,1.13c-.66,2.15-1.2,4.27-2,6.32-.45,1.27-.9,2.42-.6,3.71.14.34-.34.89-.57,1.41-.45,1.27-.9,2.54-1.35,3.81-.11.38-.22.76-.21,1.12-.08,1.1-.66,2.15-.49,3.33.16,1.06-.41,2.35-.74,3.48-.32,1.25-.65,2.51-.97,3.76-.32,1.37-.76,2.76-1.08,4.14-.32,1.37-.51,2.85-.71,4.32-.28,2.33-.57,4.67-.73,6.98-.26,2.93-.52,5.87-.66,8.79-.13,3.16-.13,6.3.11,9.4.08,2.04.65,4.01.97,6.02.16.82.31,1.65.47,2.47,0,.12.14.34.02.48-.72.7-1.3,1.63-2.16,1.99-.61.33-1.74,0-2.25-.41-1.79-1.32-2-3.58-2.69-5.54-1.51-3.89-1.67-8.09-1.46-12.35.21-4.26.42-8.51.76-12.78.16-2.32.7-4.56,1.11-6.8.62-3.35,1.24-6.69,1.98-10.06,1.17-5.23,2.33-10.47,3.75-15.74,1.41-5.51,3.19-10.95,4.84-16.38,1.1-3.66,2.08-7.42,3.18-11.07.89-2.78,1.9-5.58,2.79-8.36.55-1.89.85-3.74,1.28-5.61.11-.5.46-1.03.56-1.53.21-1.12.29-2.21.62-3.35.32-1.37.76-2.76,1.21-4.03.67-1.91,1.35-3.81,2.02-5.72.11-.38.34-.77.59-.93,3.55-1.34,6.79-1.08,9.59.94.51.29.54,1.25.57,1.97.26,3.71.53,7.41.67,11.13.09,2.4-.06,4.84.03,7.24.07,1.92.27,3.83.22,5.76,0,3.5-.11,7.02-.1,10.52.05,1.44.23,2.86.16,4.32-.05,2.06-.22,4.01-.14,6.06.06,1.56.49,3.07.55,4.63.05,1.2-.16,2.44-.11,3.64.03.84.31,1.65.34,2.49.27,3.82.41,7.67.68,11.49.06,1.56.37,3.09.55,4.63.34,2.49.68,4.97,1.03,7.46.47,2.71.83,5.44,1.3,8.15.61,2.93,1.22,5.86,1.95,8.78.59,2.57,1.31,5.01,2.02,7.44,0,.24.14.46.41.91.45-1.27.02-2.78,1.88-2.8-.2,1.24-.41,2.35-.72,3.84.48-.55.84-.84.95-1.22.9-2.42,1.93-4.86,2.7-7.26.88-2.9,1.64-5.78,2.53-8.69.22-.76-.2-2.02,1.41-2.13.12-.02.59-.81.46-.91-.53-.77.32-1.37.54-2.01.11-.26.22-.64.09-.86-.41-.91.18-1.72.9-2.54l.04,1.08c.59-.69,1.81-1.34.29-2.21-.25-.09-.04-.96.32-1.49.02.48.04.96.05,1.44.23-.52.46-1.03.81-1.68-.5-.05-.75-.14-1.25-.19.34-.89.42-2.11,1.02-2.56,1.09-.76,1.05-1.72,1.39-2.61.34-.77.69-1.55.91-2.3.22-.76.32-1.49.54-2.25.22-.88.68-1.67.9-2.54.22-.88.18-1.84.39-2.71.65-2.63,1.41-5.27,2.18-7.91.99-3.4,1.85-6.78,2.84-10.18.65-2.39,1.43-4.79,2.09-7.18.77-2.64,1.54-5.29,2.31-7.93.33-1.01.95-1.22,1.7-.96-.57,1.29-1.15,2.46-1.6,3.61-.34.89-.92,1.82-.27,2.81.26.33-.32,1.25-.55,1.89-.11.5-.21,1-.55,1.77-1.56,1.31-.75,3.12-.67,5.17.36-.41.72-.58.84-.84.65-2.39,1.31-4.77,1.96-7.16.55-1.89,1.1-3.78,1.64-5.78-.25.03-.62-.03-1-.1,1.59-.59,1.55-1.79,1.87-3.04.31-1.61.87-3.26,1.42-5.15-.61.33-.97.5-1.34.67-.13-.1-.26-.21-.38-.31.24-.27.47-.67.84-.84,1.09-.64,1.31-1.39.66-2.27-.65-.87-.19-1.66.67-2.03.98-.38.96-.98,1.06-1.6.22-.76.44-1.51.54-2.25.11-.5.08-1.1.18-1.72,0-.24-.02-.48.1-.62,1.56-1.43.62-3.35,1.42-5.03.11-.26-.4-.79-.67-1.23.11-.5.33-1.13.55-1.89.26.21.51.41,1.02.58.22-.88.81-1.68-.56-1.73-.43-1.51.53-2.49,1.35-3.69.82-1.2,1.14-2.7,1.58-4.09,0-.12-.52-.53-.89-.6-.25-.09-.74.22-.85.48-.33,1.01-.54,2.01-.88,3.02-.66,2.27-1.32,4.53-1.85,6.9-.33,1.13-.53,2.37-.74,3.48-.11.5-.22.88-.57,1.29-.27-.69-.55-1.37-.09-2.28.34-.77.43-1.63.65-2.51.54-2.25,1.07-4.5,1.61-6.75.21-1.12.54-2.25.62-3.35.11-.38-.28-.81-.42-1.27-.36.29-.72.58-1.08,1-.02-.48-.03-.84-.05-1.32.37-.05.74-.1,1.11-.16.74-.1,1.1-.4,1.2-1.13.29-2.21.71-4.32,1.12-6.44.1-.62.7-1.18.68-1.79-.02-.6-.42-1.15-.69-1.83.25-.03.49-.07,1.23-.29-.64-.51-1.03-.94-1.55-1.47.37-.05.86-.12,1.61-.23-.14-.46-.16-1.06-.43-1.39-.13-.22-.75-.02-1.36.07.44-1.51,1.37-3.21.07-4.84-.7,1.06.35,2.73-1.73,3.38.92-2.06.6-3.95.4-5.85-.02-.48-.05-1.2.08-1.22.74-.22,1.59-.59,2.1-.3,1.26.55,2.49.13,3.59-.14,1.6-.35,3.21-.33,3.88.9l1.45-1.17Zm-87.53,114.34c-.25,3.17-.52,5.99-.77,9.04,1.19-1.25,1.82-7.74.77-9.04Zm1.47-.57c.5-3.21,1-6.42,1.5-9.63-.37.05-.74.1-1.11.16,0,.24.02.48.03.72.01.36-.1.74-.21,1.12-.21,1.12-.41,2.23-.62,3.35-.1.62-.33,1.25-.43,1.87-.09.86-.8,1.8.1,2.52.25-.03.49-.07.74-.1Zm.92,1.32c1.06-1.6.37-3.43,1.05-5.1l-.37.05c-.43,1.75-.86,3.5-1.29,5.25.12-.02.25-.03.37-.05l.24-.15Zm.45-10.93c1.21-.89.54-2.01.88-3.02-.12.02-.25-.09-.37-.07-.36.41-.71.82-.83.96.16.94.31,1.65.46,2.35l-.13-.22Zm16.26-55.77c.88-2.9,1.76-5.92,2.64-8.94-.12.02-.25.03-.37.05-.12.14-.24.27-.23.39-1.13,3.06-2.25,6.11-3.38,9.17-.89,2.66-1.91,5.34-2.68,7.98-1.21,4.03-2.3,8.05-3.51,12.08-.99,3.4-2.23,6.71-3.22,10.11-.56,1.65-.62,3.35-1.05,4.98-.43,1.63-1.12,3.18-1.56,4.81-.65,2.39-1.19,4.75-1.72,7.12-.21,1.12-.54,2.13-.75,3.24,0,.24.39.55.78.98.45-1.27.78-2.28.99-3.28,1.19-4.75,2.25-9.49,3.56-14.26.87-3.14,2-6.32,2.87-9.46.32-1.25.4-2.47.73-3.72.44-1.39,1.02-2.68,1.46-4.07.44-1.51.76-3,1.19-4.51.44-1.39,1.01-2.8,1.46-4.19.89-2.78,1.78-5.56,2.66-8.34l.12-.14Zm-13.67,52.03l-.37.05c-.53,2.37-1.06,4.74-1.59,7.11.12-.02.25-.03.37-.05.53-2.37,1.06-4.74,1.59-7.11Zm5.96-22.81c-.12.02-.25.04-.37.05-.45,1.27-.9,2.54-1.35,3.81.12-.02.25-.03.37-.05.45-1.27.9-2.54,1.35-3.81Zm17.06,1.46c.07-1.34.15-2.68.22-4.01-1.3,1.75-1.22,3.91-.09,4.12l-.13-.1Zm1.85,6.14c-.2-1.9-.39-3.81-.6-5.95-.81,1.44-.6,3.83.6,5.95Zm17.02,36.48c.79,1.1-.88,6.16-2.33,7.33.77-2.52,1.55-4.93,2.32-7.45v.12Zm.86-3.5c1.01-2.92,1.9-5.58,2.79-8.24.65.75-1.33,7.43-2.79,8.24Zm3.4-8.69c-.25-.09-.5-.17-.75-.26.56-1.53,1.13-3.06,1.69-4.58.25.08.5.17.75.26-.56,1.53-1.13,3.06-1.69,4.58Zm1.65,7.49c.22-.64,1.45-1.17.04-2.18-.21.88-.32,1.49-.42,2.11.12-.02.25-.03.37-.05v.12Zm2.62-6.28c.22-.76,1.43-1.53.54-2.25.22-.64.46-1.03.57-1.41,0-.12-.39-.43-.39-.43-.36.29-.72.58-1.08,1-.12.14-.11.38-.11.5-.33,1.13-.66,2.27-.99,3.4-.21.88-.43,1.75-.65,2.63l.37-.05c.12-.14.36-.29.48-.43.46-.91,1.05-1.84,1.26-2.71v-.24Zm-.75-13.29l-.37.05c.33-1.01.67-2.03,1-3.04.12-.02.25-.03.37-.05-.33,1.01-.67,2.03-1,3.04Zm2.32,8.85c.1-.74.2-1.36.3-1.97-.25.03-.62.09-.74.22-.35.53-.58,1.17.56,1.61l-.12.14Zm1.13-3.06c.49-.31.71-.94,1.06-1.48-.12.02-.25.03-.37.05-.61.33-1.22.65-2.19,1.15.5.17,1.14.68,1.39.53l.11-.26Zm1.02-2.68c.22-.64.45-1.27.67-1.91-.13-.1-.26-.21-.38-.31-.36.41-.97.74-1.08,1.12-.11.38.28.81.42,1.27.12-.02.25-.03.37-.05v-.12Zm4.75-15.52c.54-2.01,1.09-4.02,1.63-6.02-1.86.02-2.1.18-2.4,2.27.38.07.75.14,1.12.2-.24.15-.48.43-.72.58-.24.15-.48.31-.73.46.13.22.27.45.4.67.13.22.27.45.53.89-1.62-.13-2.08.78-2.33,3.95.37-.17.73-.34,1.22-.65-.36.41-.47.79-.71.94-1.21.77-1.42,1.89-1.37,3.09,0,.24-.11.5-.22.76-.56,1.65-1.12,3.3-1.67,5.06,1.5.27,1.58-.83,1.93-1.6.46-.91.8-1.8,1.14-2.7.11-.26.35-.53.35-.65-.43-1.51.39-2.71.97-4,.46-1.03.54-2.25.86-3.38v.12Zm-.64-16.81c.66,1.11.55,1.49-.77,2.64.21-1,.43-1.75.64-2.75l.13.1Zm1.47-3.83c-.46,1.03-.92,2.06-1.37,3.09-.13-.1-.26-.21-.38-.31.33-1.01.67-2.03,1-3.04.13.1.26.21.38.31l.37-.05Zm-.04,2.18c.77-2.52,1.55-5.05,2.31-7.81.54,1.13-1.11,6.68-2.31,7.81Zm1.17,11.18c.32-1.37.64-2.75.96-4.24-.61.21-.98.38-1.34.55.13.1.26.21.38.31-.35.53-.95,1.1-1.06,1.6-.1.62.3,1.29.57,1.85.12-.02.25-.03.37-.05l.12-.02Zm3.04-27.95c-.34.77-.69,1.55-1.03,2.32-.25-.09-.5-.17-.75-.26.22-.76.44-1.51.66-2.27.25.09.5.17.75.26l.37-.05Zm1.85,6.26c-.12.02-.61.21-1.1.4-.13-.22-.26-.33-.27-.45.43-1.63.87-3.26,1.3-4.89.66-2.27,1.32-4.53,1.98-6.8.11-.38.34-.77.45-1.15.38.19.76.38.89.48-.34.77-.69,1.43-.92,2.06-.55,1.89-1.1,3.78-1.52,5.65-.32,1.49-.5,3.09-.81,4.94v-.24Zm3.09-13.47l-.74.1c.32-1.37.64-2.75.96-4.12.25-.03.49-.07.74-.1-.32,1.37-.64,2.75-.96,4.12Zm.68-18.2c-.21,1-.42,1.99-.63,2.99l-.37.05c.21-1,.42-1.99.63-2.99.25-.03.49-.07.74-.1l-.37.05Zm-.24,29.73c.22-.76.44-1.51.66-2.27-.25.03-.49.07-.74.1-.22.88-.43,1.75-.65,2.63.12-.02.25-.03.37-.05l.36-.41Zm4.35-42.38c1.79,1.32-.29,2.09,0,3.02l-.37.05c.09-.86.18-1.72.38-2.95v-.12Zm.97,9.28c1.73-.24,1.95-1,2.21-3.81-.49.19-1.23.29-1.34.55-.57,1.41-1.01,2.8-1.57,4.33.75.02,1.24-.05,1.73-.12,0-.12,0-.24-.01-.36-.26-.21-.51-.41-1.02-.7v.12Zm.68,7.99c-.12.02-.25.03-.37.05-.22.76-.44,1.51-.66,2.27.25-.03.49-.07.74-.1.1-.74.19-1.48.29-2.21Z"/>
      <g>
        <path class="cls-3" d="m173.21,204.9c-.11-.09-.22-.18-.33-.26.19-.54.38-1.09.58-1.63-.11.01-.21.03-.32.04-1.3,2.25-2.6,4.51-3.9,6.76-.1.12.12.4.36.99,1.2-2.03,2.31-3.74,3.41-5.45.11-.01.21-.03.32-.04-.07.94-.14,1.88-.21,2.93.31-.15.53-.18.74-.21-.1.22-.09.32-.2.44-.91,1.27-1.72,2.52-2.08,4.13-.46,1.93-1.88,3.79-2.87,5.69-.7,1.24-1.29,2.56-2.1,3.71s-1.83,2.23-2.86,3.2c-1.24,1.11-3.29.36-4.18-.76-1.57-1.96-3.13-3.91-3.65-6.43-.51-2.31-1.45-4.56-.91-7.12.09-.53-.25-1.1-.28-1.72-.02-.62.17-1.27.14-1.88-.02-.41-.14-.81-.27-1.41-.69,1.34-1.19,2.34-1.68,3.34-.32-.06-.54-.13-.54-.13-.18.75-.27,1.38-.57,1.94-1.29,2.46-2.59,4.82-3.88,7.18-.3.46-.71.93-1.01,1.39-.6.91-1.1,1.92-1.7,2.83-1.11,1.5-2.23,3.01-3.34,4.51-.51.69-1.12,1.3-1.63,1.99-1.93,2.45-4.73,1.6-5.88-.52-.46-.76-.8-1.54-1.37-2.29-1.12-1.4-1.5-3.1-1.14-4.91.35-1.91.81-3.84,1.49-5.7,1.46-3.73,3.02-7.47,4.69-11.12,1.77-3.77,3.65-7.56,5.54-11.35.49-1,1.21-1.93,1.92-2.86.1-.22.73-.31.95-.24,1.53,1.03,2.85,2.19,4.48,3.1,1.31.75,1.68,2.04,2.36,3.19.45.66.88.7,1.38-.09.7-1.13,1.51-2.28,2.21-3.42.2-.34.18-.85.27-1.28-.11-.09-.22-.18-.33-.26.29-.66.59-1.33.99-2.11l3.61,2.6c2.08,1.57,1.75,4.1,1.42,6.43-.33,2.53-1.09,5.02-1.63,7.58-.35,1.91-.81,3.84-.95,5.73-.23,2.31-.15,4.58-.17,6.86.11-.01.21-.03.32-.04.2-.24.41-.37.62-.6.91-1.27,1.82-2.54,2.73-3.8.3-.46.49-1,1.25-.8.22.07.73-.52,1.03-.87.31-.35.4-.78.71-1.03.62-.6.29-.87-.36-1.09.2-.34.4-.68.7-1.24.13.5.14.81.27,1.41,1.81-2.74,3.42-5.25,5.13-7.87.55.54,1.81.06,1.75,1.2.02.52-.49,1.1-.79,1.67l-.22-.28Zm-27.55,6.57c1.41-2.27,2.81-4.54,4.22-6.81s.37-4.3.08-6.33c-.11-.09-.22-.18-.33-.26-.81,1.15-1.72,2.31-2.53,3.46-.7,1.13-1.19,2.34-1.89,3.48-1.2,2.03-2.94,3.83-3.06,6.34.01.31-.29.66-.49,1-.89,1.78-1.89,3.58-2.67,5.35-.19.55.05,1.24.07,1.96,1.77-1.08,3.68-4.14,3.43-5.04.42-.27.83-.53,1.14-.89.61-.81,1.22-1.62,1.72-2.42l.33.16Zm9.52-10.25c1.33-1.33,1.38-2.99,1.85-4.51-.11-.09-.22-.18-.33-.26-.5.9-1,1.69-1.39,2.58-.59,1.22-1.08,2.43-1.68,3.55-.49,1-1.2,1.93-1.81,2.84-.51.69-1.01,1.39-1.51,2.18-.8,1.36-1.6,2.71-2.4,4.07-.2.34-.18.75-.27,1.18.52-.28.83-.63,1.03-.97.81-1.15,1.51-2.39,2.32-3.54.3-.46.93-.86,1.12-1.4.78-1.87,2.32-3.54,2.77-5.57,0-.1.2-.24.31-.35v.21Zm16.24,1.44c-.6.91-1.21,1.83-1.81,2.84-.11-.09-.22-.18-.33-.26.6-.91,1.21-1.83,1.81-2.74.11.09.22.18.33.26v-.1Z"/>
        <path class="cls-3" d="m222.65,160.54c.89.91.93,1.94.11,2.99-1.71-.17-3.13-1.11-5.04-.84-1.8.25-3.63-.21-5.44-.17-2.13-.01-4.26.08-6.38.28-2.86.3-5.73.7-8.59,1-.32.04-.65-.22-.87-.6,4.03-.57,8.05-1.13,12.29-1.73-.33-.26-.56-.65-.77-.62-1.38.09-2.76.28-4.14.48-.53.07-1.06.05-1.59.12-1.38.19-2.75.49-4.13.68-.21.03-.53.18-.64.09-.77-.51-1.39-.01-2.12.3-.63.19-1.37.4-2.01.28-1.29-.23-2.1.81-3.16,1.07,0,.1,0,.21.01.31,2.01-.28,4.03-.57,6.04-.85-.07.94-.91,1.37-1.98,1.21-.11.01-.22-.18-.22-.18-1.23,1.21-2.86.3-4.11,1.2-.21.13-.41.37-.51.59-.29.87-.46,1.83-.75,2.7-.19.54-.6,1.02-.79,1.56-.28.97-.13,2.09-1.06,2.95.18,2.05-1.03,3.87-1.38,5.79-.36,1.71-1.04,3.36-1.51,5.08-.57,1.84-1.03,3.67-1.5,5.49-.09.43-.4.78-.49,1.21-.66,2.17-1.33,4.33-1.88,6.58-.47,1.72-.72,3.42-1.51,5.08-.2.34.14.81.05,1.24-.18.75-.59,1.43-.77,2.18-.19.65-.37,1.4-.56,2.15-.28.97-.57,1.94-.74,3-.61,3.5-1.23,7.01-1.73,10.5-.35,2.12-.58,4.33-.61,6.51.06,1.65.55,3.24.93,4.84.13.71,1.51.62,2.02-.08,1.32-1.64,2.65-3.27,3.97-4.91.11.09.22.18.33.26-.61.81-1.22,1.62-1.83,2.43.11.09.22.18.33.26.91-1.27,1.82-2.53,2.94-4.04-.53.18-.74.21-1.37.4,1.01-1.39,1.82-2.54,2.63-3.69.11-.01.21-.03.32-.04-.39.88-.79,1.77-1.28,2.87,2.2-.93,2.88-2.68,3.89-4.07,1.21-1.72,2.42-3.55,3.63-5.28.71-1.03,1.41-2.17,2.12-3.2.3-.46.6-.91.91-1.37.11.09.22.18.33.26-.8,1.36-1.6,2.71-2.4,4.07-.7,1.24-1.4,2.48-1.88,3.79-.29.87-.14,1.88-.21,2.83,0,.21.02.41-.09.53-.99,1.9-1.88,3.79-2.87,5.69-.49,1-1.21,1.93-1.81,2.84-.1.12-.31.25-.31.35-.15,1.68-1.61,2.4-2.64,3.48-1.64,1.58-3.56,1.54-5.28,1.16-1.08-.26-1.96-1.07-2.94-1.66-.66-.43-1.31-.85-1.86-1.29-2.74-2.1-3.28-5.13-2.98-8.49.05-1.46,0-2.9.15-4.37.24-2,.49-4.01.84-6.02.53-2.97,1.16-5.96,1.9-8.97.92-3.96,2.04-7.95,3.17-11.84,1.22-4.42,2.43-8.84,3.76-13.27,1.03-3.67,2.28-7.37,3.42-11.05.18-.75.05-1.56.13-2.3,0-.21.31-.35.71-.83-2.75.59-5.28,1.16-7.92,1.74-.09.43-.51.69-1.35.81-1.06.25-2.1.81-3.15,1.17-2,.7-4.11,1.2-5.99,2.09-2.72,1.21-5.33,2.62-7.94,4.02-1.36.71-2.83,1.33-4.18,2.14-1.46.93-2.9,2.07-4.35,3.2-.62.5-1.05.46-1.39-.12-.46-.87-.92-1.74-1.16-2.63-.12-.29.28-.97.59-1.22,1.14-.78,2.4-1.37,3.54-2.05,1.46-.93,2.91-1.96,4.47-2.8,1.57-.84,3.23-1.91,4.93-2.14,1.59-.22,2.72-1.21,4.21-1.42.32-.04.62-.5.83-.63.75,0,1.49,0,2.45-.03.1-.12.31-.35.41-.47.64.01,1.17-.06,1.7-.14,0-.1,0-.21-.01-.31-.22-.07-.43-.15-.97-.18.42-.16.63-.3.84-.43.42-.16.95-.24,1.26-.49.82-.74,3.77-1.67,4.85-1.3-.73.31-1.36.61-2.1.92,1.92.14,2.65-.37,2.39-1.68.96.07,1.82.36,2.56.16.74-.21,1.46-.93,2.18-1.45,0,.1.01.31.01.31.74-.1,1.48-.21,2.22-.42.63-.19,1.37-.3,1.89-.68.41-.37.71-1.03.9-1.58.67-1.96,1.45-3.93,1.9-5.97.18-.96,1.21-1.93.42-2.96-.11-.09-.02-.52.08-.63,1.45-1.14.86-2.71,1.34-4.02.68-1.86,1.13-3.79,1.7-5.63.09-.43.18-.85.17-1.27.05-1.56.88-2.09,2.28-1.56.65.22,1.3.54,2.05.64,1.5.31,1.87,1.6,2.02,2.72.14,1.02-.34,2.22-.73,3.31-1.23,4.01-2.57,8.03-3.8,12.03-.19.55-.28,1.08-.37,1.61.43.04.86.09,1.39.12-.1.22-.2.44-.4.68.85-.12,1.59-.22,2.33-.33,0-.1,0-.21-.01-.31-.53-.03-1.07-.06-1.6-.09,0-.1,0-.21-.01-.31l3.5-.49c0,.1,0,.21.01.31-.31.15-.63.3-.84.43,1.38-.19,2.75-.39,4.13-.58,0-.1,0-.21-.01-.31-.32-.06-.64-.12-.97-.18,0-.1,0-.21-.01-.31.85-.12,1.7-.24,2.54-.36,0,.1,0,.21.01.31-.31.15-.63.3-.94.44.66.43,1.18.25,1.59-.33.2-.34.61-.71.93-.75,3.08-.33,6.16-.56,9.23-.89.42-.06.84-.33,1.26-.49.45.66,1.3.65,2.44-.14-.1.22-.09.43-.09.53,1.38.01,2.77-.08,4.16.04,1.17.04,2.56.05,2.51,1.72,0,.1.11.19.22.28l-.37,1.4Zm-56.27,10.51c2.33-.43,5.58-1.82,6.18-2.84-1.26.49-2.3,1.05-3.36,1.3-.84.22-2.52,1.08-2.7,1.73l-.11-.19Zm3.86,51.36c.07-.94.25-1.9-.53-2.62-.13,2.19-.26,4.39-.39,6.58.38-1.3.54-2.56.71-3.83l.21-.13Zm1.31-7.54c.39-.99-.04-1.03-1-1.1-.24,2-.49,3.9-.74,5.8.31-.35.72-.62.82-.94.27-1.18.33-2.43.82-3.53l.1-.22Zm-.82-1.96c-.09.32.24.69.46.97.11-.01.21-.03.32-.04.17-1.06.35-2.12.52-3.18.21-.03.42-.06.42-.06-.02-.62-.15-1.12-.06-1.65.27-1.38.75-2.7.91-4.06.08-.63.26-1.59-.61-1.99-.07.84-.15,1.68-.33,2.53-.54,2.56-1.08,5.13-1.63,7.69v-.21Zm8.61-20.17c-.11-.09-.22-.18-.33-.16,1.23-4.11,2.46-8.12,3.59-12.21,1.13-3.99,2.68-7.94,3.38-11.97-.69,1.55-1.27,3.08-1.74,4.7-.66,2.17-1.22,4.42-1.88,6.58-.77,2.28-1.64,4.58-2.29,6.95-1.22,4.42-2.33,8.82-3.44,13.23-.84,3.12-1.79,6.26-2.41,9.46-.82,3.74-1.42,7.55-2.02,11.27-.18.85-.15,1.68-.22,2.52.11-.01.21-.03.32-.04.42-2.86.85-5.71,1.38-8.59.53-2.87,1.38-5.69,1.91-8.56.44-2.45,1.94-7.73,2.87-8.48-.18.85-.37,1.5-.45,2.14.2-.24.51-.49.61-.81.57-1.84,1.03-3.67,1.5-5.49.66-2.17,1.33-4.33,1.99-6.5.57-1.84,1.14-3.68,1.71-5.52.48-1.52.95-3.03,1.43-4.55.18-.75.26-1.49.45-2.24-.31.15-.52.38-.62.6-.66,2.27-1.32,4.54-1.98,6.8-.84,3.02-1.69,6.04-2.54,8.96-.19.54-.6,1.02-.9,1.47l-.3.46Zm-4.57,3.13c-.87,2.3-1.42,4.65-2.08,7.03.32-.04.64-.09.85-.12.09-.43.08-.63.07-.84.11-.01.21-.03.32-.04.03.82.06,1.65.1,2.68.2-.24.31-.35.3-.46.18-.85.37-1.61.11-2.61-.26-1.21.53-2.77.8-4.15.19-.65.27-1.28.46-2.03.22.07.65.22,1.08.37,0-.21-.02-.62-.02-.62-1.07-.06-.46-.97-.59-1.47,0-.21.4-.57.5-.9.76-2.49,1.3-5.05,2.16-7.56.67-1.96.7-3.93,1.59-5.82.99-2.11,1.22-4.42,1.88-6.69.18-.85.68-1.65.86-2.5.38-1.3.65-2.58.92-3.86-.11.01-.21.03-.32.04-.2.44-.5.9-.69,1.34-.38,1.09-.66,2.17-1.05,3.26-.95,2.93-2.01,5.88-2.97,8.81-1.23,4.11-2.35,8.31-3.68,12.43-.38,1.3-.44,2.55-.92,3.86l.31-.15Zm-.2-27.73c.32-.04.63-.19.95-.34-.12-.29-.24-.59-.47-1.07-.51.49-.71.83-1.03.97-.31.15-.64.09-.95.13,0,.1,0,.21.01.31.43.04.86.09,1.28.03l.21-.03Zm.74,44.75c-.11.01-.21.03-.32.04-.18.85-.36,1.71-.54,2.56.11-.01.21-.03.32-.04.18-.85.36-1.71.54-2.56Zm2.69-13.22c-1.04,3.36-2.09,6.72-2.38,10.18.39-.88.68-1.86.96-2.83.46-1.83.82-3.74,1.39-5.58.19-.65.38-1.19.04-1.77Zm2.04-33.23c.84-.22,1.69-.45,2.42-.86.31-.15.4-.68.6-1.02-.11-.09-.22-.18-.33-.26-.41.37-.71.83-1.13.99-1.79.56-3.59.92-5.38,1.38,0,.21.02.41.02.62.32.06.65.22.97.18.95-.24,1.9-.58,2.84-.92v-.1Zm-1.19,27.52c.11-.01.21-.03.32-.04.38,1.5-.75,2.8-1.12,4.2-.11.01-.21.03-.32.04.37-1.4.75-2.8,1.12-4.2Zm6.89-31.74c1.01-1.39.95-2.93.9-4.48-.37,1.4-.75,2.8-1.12,4.2.11-.01.21-.03.32-.04l-.09.32Zm1.55,7.24c.29-.87.57-1.74.86-2.61-.11-.09-.22-.18-.33-.26-.29.87-.57,1.74-.86,2.61.11-.01.21-.03.32-.04v.31Zm21.79-9.7c0-.1,0-.21-.01-.31l-2.86.4c0,.1,0,.21.01.31l2.86-.4Zm4.01,1.72c.21-.03.42-.06.74-.1-.99-.79-3.44-.76-4.58.02.32.06.54.23.75.2.96-.03,1.91-.17,2.87-.2l.22.07Z"/>
        <path class="cls-3" d="m236.64,195.04c.02.41.13.71.04.93-.58,1.43-1.17,2.86-1.75,4.29-.2.34-.51.59-.71.93-.2.24-.51.49-.51.69.06,1.55-.86,2.61-1.99,3.6-.41.37-.71.83-1.02,1.28-.3.46-.39.99-.69,1.34-.82.94-2.06,1.74-2.56,2.85-.49,1.1-1.32,1.74-2.03,2.57-.51.69-.68,1.65-1.3,2.26-.51.49-1.36.71-1.98,1.11-1.67.96-3.26,1.18-5.09.61-1.94-.66-3.06-1.95-4.28-3.33-1.56-1.75-2.18-4.04-3-6.21-.24-.79-.17-1.74-.2-2.56-.03-.72-.05-1.44-.08-2.16-.11.01-.21.03-.32.04-.7,1.34-1.39,2.68-2.09,3.92-.2.44-.61.81-.91,1.16-.41.47-.82.94-1.12,1.4-.4.68-.69,1.34-.99,2-.1.22-.3.46-.29.66.16,1.32-.88,2.09-1.59,3.02-.4.57-.8,1.25-.99,1.9-.67,2.06-3.67,4.45-5.28,3.95-.86-.29-1.74-.89-2.3-1.64-2.68-3.15-3.99-6.9-2.88-11.4.93-3.65,1.96-7.22,3-10.78.94-3.34,1.99-6.6,3.57-9.72.6-1.02.81-1.15,1.79-.56,1.2.66,2.4,1.42,2.56,2.85.19,2.25.28,4.52-.91,6.86-1.1,2.02-1.65,4.27-2.42,6.45-.48,1.41-.95,2.93-1.32,4.43-.18.85-.25,1.8-.43,2.65-.09.53-.17,1.06-.04,1.77.82-.84,1.75-1.59,2.46-2.52,2.65-3.27,5.18-6.63,7.83-9.91,1.73-2.11,3.68-4.14,5.41-6.25.51-.59.91-1.27,1.21-1.93.88-1.99,1.66-4.07,2.54-6.06.4-.78,1.04-.77,1.91-.17.66.43,1.41.63,1.96,1.07.88.71,1.66,1.53,2.33,2.47.11.19-.28.97-.59,1.22-.93.75-1.76,1.39-1.71,2.73.02.62-.48,1.31-.67,1.96-1.13,3.89-2.58,7.72-3.07,11.72-.16,1.37-.32,2.74-.48,4.11-.07.84.58,1.16,1.64,1.01,1.91-.27,3.35-1.51,4.91-2.56,1.66-1.06,3.32-2.23,4.87-3.59,2.48-2.11,4.84-4.41,7.31-6.62.41-.37.93-.75,1.34-1.22.61-.71,1.22-1.42,1.94-2.34l-.97-.28Zm-34.44,13.03c1.46-.72,1.62-2.3,2.54-3.36-.85.02-1.71-.07-1.55,1.15,0,.21-.3.46-.51.69l-.91,1.37c.11.09.22.18.33.26l.1-.12Zm5.6-6.8c-.11-.09-.22-.18-.33-.26-.62.5-1.12,1.3-2.19,1.24-.32-.06-.82.84-1.23,1.31.11.09.22.18.33.26.21-.13.42-.27.62-.4.22.28.45.56.67.84.2-.24.41-.47.61-.71.41-.47.82-.94,1.12-1.4.2-.24.3-.56.39-.88Zm18.59,7.22c.83-.63,1.33-1.33.97-2.42-.2.24-.31.35-.3.46-.19.65-.38,1.09-1.23,1.31-.74.21-1.46.93-2.07,1.54-.2.24-.18.75-.28,1.08.31-.15.63-.19.94-.44.62-.5,1.24-1.11,1.86-1.61l.11.09Zm2.24-2.8c1.54-1.46,2.98-2.91,4.62-4.48-.43-.04-.53-.03-.53-.03-1.55,1.36-3.09,2.71-4.53,4.06-.2.24-.29.77-.18.96.11.19.44.35.66.53.1-.12.2-.24.31-.35-.12-.29-.24-.59-.35-.88v.21Z"/>
        <path class="cls-3" d="m257.56,193.36c.13.5-.37,1.5-.89,1.89-.42.27-1.38.09-1.82-.26-1.42-.94-2.43-2.25-2.81-3.95-.25-.9-.39-1.81-.53-2.72-.13-.5-.25-1-.38-1.6-1.46.72-1.84,1.92-2.23,3.11-.09.43-.07.84-.17,1.27-.1.22-.29.66-.4.68-1.8.36-1.84,2.12-2.54,3.26-.8,1.36-1.28,2.87-1.86,4.3l-2.64,6.28c-.68,1.65-1.48,3.21-2.05,4.85-.78,1.97-1.34,3.92-2.01,5.88-.48,1.41-.96,2.83-1.43,4.35-.29.87-.46,1.83-.64,2.78-.09.43-.07.84.05,1.24.37,1.29.08,2.06-1.16,3.06-.2.24-.3.56-.5.8-.62.5-1.13,1.09-1.91.27-.45-.56-1.41-.63-2.06-1.06-.87-.5-1.53-1.13-1.05-2.34.09-.32-.03-.72-.15-1.12-.27-1.41-.74-2.8-.91-4.22-.15-1.12.02-2.28.19-3.44.6-3.92,1.09-7.82,1.9-11.77.35-2.02,1.23-4.01,1.79-6.05.19-.65.06-1.35.14-1.99.09-.43.39-.88.48-1.31.73-3.21,1.46-6.42,2.19-9.63.37-1.4.75-2.8,1.01-4.18.09-.32-.03-.72-.04-1.03-.02-.41-.05-1.24.06-1.25.53-.18,1.16-.27,1.7-.24,1.39.22,2.39,1.22,3.58,1.67,1.73.69,2.21,2.07,2.17,3.84.02.52-.28.97-.48,1.41-.48,1.41-.96,2.83-1.33,4.23-.38,1.09-.55,2.25-.83,3.43.11.09.22.18.33.26.49-1.21.97-2.42,1.57-3.54.8-1.46,1.7-2.83,2.5-4.19.4-.78.79-1.56,1.19-2.34.69-1.34,1.28-2.67,2.2-3.83.3-.46,1.35-.81,1.89-.68,1.61.29,3.43.55,4.64,1.52,1.65,1.32,2.79,3.23,2.77,5.62-.12,2.4-.03,4.77.48,7.08v-.31Zm-12.73-4.22c-1.35.81-4.93,7.53-4.67,8.84,1.59-3.02,3.08-5.82,4.67-8.84Z"/>
        <path class="cls-3" d="m294.93,192.93c-.11-.09-.22-.18-.33-.26.19-.55.38-1.09.58-1.64-.11.01-.21.03-.32.04-1.3,2.25-2.6,4.51-3.9,6.76-.1.12.12.4.36.99,1.2-2.03,2.31-3.74,3.42-5.45.11-.01.21-.03.32-.04-.07.94-.14,1.88-.21,2.93.31-.15.53-.18.74-.21-.1.22-.09.32-.2.44-.91,1.27-1.72,2.52-2.08,4.13-.46,1.93-1.88,3.79-2.87,5.69-.7,1.24-1.29,2.56-2.1,3.71-.81,1.15-1.83,2.23-2.86,3.2-1.24,1.11-3.29.36-4.18-.76-1.57-1.95-3.13-3.91-3.65-6.43-.51-2.31-1.45-4.56-.91-7.12.09-.53-.25-1.1-.28-1.72-.02-.62.17-1.27.14-1.88-.02-.41-.14-.81-.27-1.41-.69,1.34-1.19,2.34-1.68,3.34-.32-.06-.54-.13-.54-.13-.18.75-.27,1.38-.57,1.94-1.29,2.46-2.59,4.82-3.88,7.18-.3.46-.71.93-1.01,1.39-.6.91-1.1,1.92-1.7,2.83-1.11,1.5-2.23,3.01-3.34,4.51-.51.69-1.12,1.3-1.63,1.99-1.93,2.45-4.73,1.6-5.88-.52-.45-.76-.8-1.54-1.37-2.29-1.12-1.4-1.5-3.1-1.14-4.91.35-1.91.81-3.84,1.49-5.7,1.46-3.73,3.02-7.47,4.69-11.12,1.77-3.77,3.65-7.56,5.54-11.35.49-1,1.21-1.93,1.92-2.86.1-.22.73-.31.95-.24,1.53,1.03,2.85,2.19,4.48,3.1,1.31.75,1.68,2.04,2.36,3.19.45.66.88.71,1.38-.09.7-1.13,1.51-2.28,2.21-3.42.2-.34.18-.85.27-1.28-.11-.09-.22-.18-.33-.26.29-.66.59-1.33.99-2.11,1.2.87,2.41,1.73,3.61,2.6,2.08,1.57,1.75,4.1,1.42,6.43-.33,2.53-1.09,5.02-1.63,7.58-.35,1.91-.81,3.84-.95,5.73-.23,2.31-.15,4.58-.17,6.86.11-.01.21-.03.32-.04.2-.24.41-.37.62-.6l2.73-3.8c.3-.46.49-1,1.25-.8.22.07.73-.52,1.03-.87s.4-.78.71-1.03c.62-.6.29-.87-.36-1.09.2-.34.4-.68.7-1.24.13.5.14.81.27,1.41,1.81-2.74,3.42-5.25,5.13-7.87.55.54,1.81.06,1.75,1.2.02.52-.49,1.11-.79,1.67l-.22-.28Zm-27.55,6.57c1.41-2.27,2.81-4.54,4.22-6.81,1.41-2.27.37-4.3.08-6.33-.11-.09-.22-.18-.33-.26-.81,1.15-1.72,2.31-2.53,3.46-.7,1.13-1.19,2.34-1.89,3.48-1.2,2.03-2.94,3.83-3.06,6.34.01.31-.29.66-.49,1-.89,1.78-1.89,3.58-2.67,5.35-.19.54.05,1.24.07,1.96,1.77-1.08,3.68-4.14,3.43-5.04.42-.27.83-.53,1.14-.89.61-.81,1.22-1.62,1.72-2.42l.33.16Zm9.52-10.25c1.33-1.33,1.38-2.99,1.85-4.51-.11-.09-.22-.18-.33-.26-.5.9-1,1.69-1.39,2.58-.59,1.22-1.08,2.43-1.68,3.55-.49,1-1.21,1.93-1.81,2.84-.51.69-1.01,1.39-1.52,2.18-.8,1.36-1.6,2.71-2.4,4.07-.2.34-.18.75-.27,1.18.52-.28.83-.63,1.03-.97.81-1.15,1.51-2.39,2.32-3.54.3-.46.93-.86,1.12-1.4.78-1.87,2.32-3.54,2.77-5.57,0-.1.2-.24.31-.35v.21Zm16.24,1.44c-.6.91-1.21,1.83-1.81,2.84-.11-.09-.22-.18-.33-.26.6-.91,1.21-1.83,1.81-2.74.11.09.22.18.33.26v-.1Z"/>
        <path class="cls-3" d="m323.54,124.39c.11.19.33.37.34.57-.04,1.77-.08,3.53-.22,5.31-.08.63-.16,1.47-.9,1.68.03.82.06,1.55.09,2.27,0,.1-.09.32-.2.34-1.37.4-.9,1.47-1.08,2.33-.19.65-.38,1.3-.57,1.94-.19.55-.28,1.08-.47,1.62-.38,1.09-1.09,2.22-1.05,3.26-.05,1.56-1.18,2.65-1.44,4.14-.17,1.16-.76,2.39-1.14,3.58-.29.87-.46,1.83-.86,2.71-1.19,2.45-2.48,4.8-3.67,7.15-.2.44-.28.97-.48,1.41-1.08,2.33-2.17,4.66-3.25,6.98-1.17,2.76-2.45,5.53-3.52,8.37-.39.99-.56,2.05-1.49,2.8-.41.37-.93.65-1.46.83-.63.3-.94.55-.8,1.36.12.4-.18.85-.27,1.28-.17,1.06.72,2.18-.52,3.18.66.63-.18.85-.48,1.31.98.48,1,1.21.4,2.12-.4.58-.06,1.35-.15,1.78-.47,1.62.64,2.71.58,4.17-.06,1.25.42,2.53.67,3.74.14.91.78,1.03,1.51.41,1.34-1.12,2.79-2.26,3.91-3.56,1.63-1.89,3.05-3.95,4.57-5.93.2-.24.52-.38.73-.52-.29.66-.59,1.33-.88,1.99,2.13.01,2.91-1.86,4.14-3.17.31-.35.62-.6.93-.86.11.09.22.18.33.26-1.92,2.86-3.83,5.72-5.74,8.68.66.43.46.87-.05,1.56-1.11,1.5-2.12,3.1-3.23,4.6-.2.24-.51.49-.83.63-2.3,1.15-4.21,1.21-6.19-.27-2.63-2.01-4.64-4.32-5.4-7.53-.38-1.71-.24-3.49-.3-5.24,0-.1.09-.32.2-.34,1.15-.47.71-.93.26-1.49-.22-.28-.03-.82.04-1.66.34.47.45.66.56.85.1-.12.21-.13.2-.24.26-1.59.52-3.18.78-4.77.08-.63.27-1.18.25-1.8-.02-.41-.35-.78-.47-1.18-.13-.5-.14-1.02-.16-1.53.11-.01.21-.03.32-.04.12.4.24.79.38,1.5.36-1.71.73-3.21,1.1-4.71.73-3.11,1.47-6.32,2.2-9.43.65-2.58,1.3-5.15,1.94-7.73.92-3.76,1.74-7.5,2.67-11.15.93-3.45,1.98-6.91,2.91-10.35.37-1.4.42-2.96,1.12-4.3.4-.78.58-1.53.66-2.27.08-.63.06-1.25.14-1.88,0-.1,0-.21.09-.32,1.44-1.34,1.26-3.18,1.84-4.82,1.06-2.84,2.02-5.77,3.08-8.62.19-.65.49-1.1,1.36-.61,1.2.66,2.49,1.1,3.79,1.64,1.73.79,3.23,3.69,2.98,5.69-.09.43.14.81.26,1.21l-.07,1.05Zm-25.21,51.51c-.65-.32-.57-.96.45-2.14-.08.74-.16,1.47-.24,2.21l-.22-.07Zm.29,10.53c.07-.84.15-1.68.22-2.52-.11.01-.21.03-.32.04-.07.84-.15,1.68-.22,2.52.21-.03.42-.06.64-.09l-.32.04Zm.72-14.71c-.11.01-.21.03-.32.04,0-.1-.11-.19-.12-.29.18-.75.37-1.5.55-2.25.11-.01.21-.03.32-.04-.18.85-.36,1.71-.54,2.56h.11Zm.97,5.87c.28-.97.57-1.94.85-2.92-.11.01-.21.03-.32.04-.39.88-.79,1.77-1.18,2.65.11.09.22.18.33.26l.32-.04Zm1.65-7.17c-.21.03-.42.06-.64.09-.07.84-.15,1.68-.22,2.52.11-.01.21-.03.32-.04.18-.85.36-1.71.54-2.56Zm.91-12.66c-.29.77-.58,1.53-.87,2.3-.11.01-.21.03-.32.04.18-.75.37-1.5.55-2.25.11-.01.21-.03.32-.04l.32-.04Zm17.89-25.41c-.13-.6-.05-1.24-.07-1.85-.11.01-.21.03-.32.04-.17,1.06-.35,2.12-.52,3.18l-.64.09c.48-4.11,1.39-8.28-.15-12.41-.59,1.43-1.18,2.55-1.56,3.74-.29.77-.26,1.59-.44,2.34-.57,1.94-1.24,3.9-1.91,5.86-.57,1.74-1.14,3.58-1.82,5.33-.68,1.75-1.46,3.52-2.14,5.27-.09.32-.08.74-.07,1.05-.41.47-1.02,1.18-.9,1.47.57.96.16,1.53-.66,2.27-.31.25-.4.78-.49,1.21-.29.87-.47,1.72-.65,2.58-.1.12.12.4.02.62-.66,2.27-1.75,4.49-1.34,6.92,0,.1-.1.22-.2.34-.61.71-1.22,1.42-1.94,2.24.32.06.64.12.97.17-.1.12-.2.24-.31.35-.31.15-.63.3-.94.44.23.38.35.68.35.68-.4.78-.91,1.37-.99,2-.09.53.36,1.09.6,1.68,0,0,.1-.12.2-.24.99-2,1.98-4.01,3.08-5.92.6-1.02.77-2.28,2.02-2.87.81-1.15,1.73-2.21,2.32-3.43.4-.68.6-1.02,1.36-.61.09-.32.19-.54.18-.75-.02-.51-.26-1.1-.05-1.44.69-1.34.52-3.18,2.41-3.86.11-.01.2-.24.31-.35.4-.78.79-1.56.12-2.4.42-.06.96-.03.95-.13.38-1.09,1.08-2.33.94-3.34-.14-1.02.17-1.16.8-1.46-.12-.4-.35-.88-.26-1.21.38-1.09.88-2.09,1.26-3.18.09-.32.4-.78.29-.87-.78-1.03.46-2.03.2-3.03l-.02-.52Zm-15.24,22.35c-.28,1.08-.46,1.93-.64,2.78.11-.01.21-.03.32-.04.3-.56.6-1.12.9-1.68-.12-.29-.24-.69-.47-1.18l-.1.12Zm2.47,8.98c.82-.94,1.52-1.98,2.01-3.08.2-.44.17-1.06.26-1.59-.79,1.56-1.59,3.12-2.38,4.69h.11Zm7.62,24.1c-.8,1.36-1.6,2.71-2.95,3.73.8-1.36,1.6-2.71,2.4-4.07.11.09.22.18.33.26l.22.07Zm1.14-43.05c.38-1.19.76-2.39,1.14-3.58.11-.01.21-.03.32-.04-.49,1.21-.97,2.42-1.46,3.62l-.32.04.32-.04Z"/>
        <path class="cls-3" d="m348.73,184.92c.41-.37.83-.63,1.24-.9.11.09.22.18.33.26-.5.8-.9,1.68-1.51,2.39-.71.93-1.53,1.67-2.25,2.49-.2.24-.41.47-.61.71-1.01,1.59-2.01,3.18-3.12,4.79-.3.46-.71.83-1.02,1.28-.6.91-1.65,1.37-1.92,2.65-.18.85-1.32,1.64-2.15,2.37-1.75,1.49-3.51,2.88-5.27,4.37-.41.37-.71.83-1.13,1.09-.83.63-1.76,1.28-2.7,1.73-1.05.46-2.21.83-3.26,1.08-2.64.48-4.72-.79-6.68-2.06-2.84-1.78-4.33-4.78-5.72-7.59-1.15-2.32-1.58-5.06-.72-7.87.38-1.3.43-2.65.92-3.86.78-1.97,1.77-3.98,2.65-5.97.49-1.1.88-2.19,1.48-3.21,1.1-2.02,2.19-4.04,3.51-5.88,1.01-1.49,2.24-2.8,3.58-3.92,1.55-1.36,3.32-2.44,5.09-3.51,1.14-.78,2.42-.76,3.51-.08,1.86,1.19,3.92,2.35,4.54,4.64.37,1.4.76,3.1.27,4.42-.38,1.19-.32,2.84-1.77,3.77-.1.12-.2.24-.2.34-.13,2.19-1.78,3.67-3,5.19-2.14,2.68-4.6,5.21-6.95,7.71-1.02,1.08-2.94,1.04-3.94.04-.44-.35-.98-.59-1.42-.94-.19.54-.38,1.09-.47,1.62-.37,1.4-.64,2.78-.91,4.17-.55,2.36-.89,4.68.26,6.8.57,1.06,1.62.6,2.46.38,2.43-.55,4.61-1.89,6.69-3.43.93-.65,1.98-1.21,3.02-1.88.1-.12.31-.25.31-.25-.16-1.32,1.02-1.08,1.65-1.48.93-.65,1.65-1.48,2.47-2.21,1.75-1.49,3.51-2.88,5.27-4.26,1.04-.77,2.07-1.53,3.11-2.3.1-.12.32-.04.74-.1-1.03.87-1.86,1.61-2.68,2.35.11.09.22.18.33.26.73-.52,1.56-1.05,2.28-1.67.82-.74,1.65-1.48,2.47-2.21.41-.37.82-.84,1.23-1.21v-.1Zm-26.72.34c-.19.55-.28,1.08-.47,1.62.11.09.22.18.33.26,1.03-.97,2.06-1.95,3.08-2.92,1.23-1.21,2.46-2.52,3.69-3.73.51-.49,1.14-.78,1.55-1.25.61-.81,1.1-1.81,1.71-2.62,1.42-1.86,2.2-3.83,2.22-6.01-.03-.72-.35-.88-.97-.38-1.04.77-2.07,1.53-3,2.39-1.44,1.34-2.99,2.6-3.66,4.56-.18.75-1.12,1.3-1.94,2.14.56.75-.15,1.58-.87,2.4-.2.24-.3.56-.4.78-.49,1-.99,2-1.38,2.99l.1-.22Zm17.49,6.24c.66.53,1.19.56,1.59-.12v-.31c-.54.18-1.06.36-1.59.53v-.1Zm10.07-9.81c.72-.72,1.44-1.45,2.15-2.17-.17,1.06-.78,1.87-2.05,2.15h-.11Z"/>
        <path class="cls-3" d="m382.71,182.07c.44.46.35.88-.58,1.43-1.36.71-2.71,1.52-3.96,2.42-1.24.9-2.37,1.99-3.72,3.11.77.62,1.53,1.13,2.2,1.87,1.44,1.56,2.68,3.25,2.87,5.5.18,1.84.46,3.77.21,5.67-.51,3.49-1.76,6.88-3.67,9.94-1.11,1.71-2.43,3.24-3.54,4.85-.71,1.03-1.19,2.24-2.01,3.29-1.52,1.98-3.04,4.05-4.78,5.85-1.64,1.68-3.5,3.08-5.26,4.68-.62.5-1.35.92-1.86,1.5-.72.72-1.22,1.62-1.94,2.24-3,2.39-6.1,4.8-9.21,7.2-1.14.89-2.28,1.77-3.53,2.36-2.72,1.42-5.42,3.04-8.26,3.96-3.37.99-6.59.31-8.92-2.16-1-1-1.78-2.13-2.57-3.26-1.35-1.88-1.22-3.97-.13-6.2.89-1.78,1.89-3.48,3.22-5.01.61-.71.9-1.58,1.41-2.27.91-1.16,1.94-2.24,2.85-3.41.51-.69.79-1.56,1.3-2.26.4-.57,1.02-1.08,1.53-1.67.51-.59.91-1.16,1.32-1.74.92-1.06,1.73-2.11,2.65-3.07.2-.24.85-.02,1.39.01-.22-.28-.34-.47-.45-.66.19-.55.27-1.18.69-1.55,1.02-1.08,2.05-2.05,3.08-3.02.41-.37.93-.65,1.34-1.12,1.64-1.58,3.29-3.16,4.93-4.84.82-.84,1.42-1.75,2.14-2.58.1-.12.2-.24.31-.35,1.86-1.51,3.94-2.83,5.58-4.51,1.23-1.31,2.57-2.43,3.91-3.56.41-.37.93-.65,1.35-.92-.11-.09-.22-.18-.33-.26-1.25.69-2.62,1.2-3.76,2.08-3.11,2.3-6.1,4.8-9.1,7.19-1.03.87-1.88.99-2.66.06-1-1.1-2-2.2-2.79-3.44-.23-.38-.16-1.43.14-1.88,1.11-1.5,2.45-2.83,3.67-4.25,1.53-1.77,3.17-3.45,4.59-5.31,2.03-2.57,4.29-4.85,6.44-7.23,1.84-2.12,3.34-4.51,4.96-6.81.1-.12.09-.32.29-.77-1.87,1.3-3.53,2.46-5.19,3.53-3.74,2.39-6.49,5.89-9.78,8.84-1.13,1.09-2.05,2.26-2.85,3.61-.5.8-2.08,1.23-3.25,1.49-.95.24-1.71-.28-2.17-1.14-.12-.29-.34-.47-.56-.65-.98-.59-1.03-1.93-.11-2.78,1.95-1.83,3.91-3.66,5.86-5.49,1.75-1.59,3.5-3.19,5.25-4.78.82-.74,1.64-1.58,2.47-2.32,2.16-2.07,4.65-3.66,7.26-5.06,1.36-.71,2.71-1.52,4.07-2.23,1.88-.99,3.81-.64,5.16,1.24.56.75,1.23,1.48,1.69,2.35.69,1.35-.11,2.81-.81,4.05-.7,1.24-1.61,2.4-2.53,3.57-.4.57-1.02,1.08-1.43,1.65-1.81,2.74-3.85,5.31-6.1,7.7-.1.12-.2.34-.3.56.32-.04.53.03.64.01,3.04-1.26,6.11-1.69,9.14-.66.54.13,1.27-.18,1.8-.25-.1.12-.31.35-.62.6.54.23.98.48,1.63.81,2.91-1.86,5.93-3.84,9.05-5.83l.32.06Zm-10.51,20.54c1.68-3.35,2.19-6.73,1.53-10.16-.12-.4-.67-.94-1.1-.88-.53-.03-1.37.3-1.68.75-.51.69-.83.63-1.27.18-.55-.54-1.08-.47-1.8.36.75.1,1.29.23,2.14.32-1.76,1.39-3.31,2.54-4.87,3.69-.11-.09-.22-.18-.33-.26,1.03-.97,2.06-1.95,3.08-2.92,0-.1,0-.21-.01-.31-1.05.46-2.1.92-3.25,1.39.33.26.44.46.78.82-.64.09-1.06.15-1.48.21-.32.04-.75,0-.85.12-.82.84-2.2,1.03-2.46,2.42,0,.1-.2.24-.31.35-.62.5-1.24,1-1.86,1.5,0,.1,0,.21.01.31-.53.18-1.05.36-1.68.65.2-.44.29-.77.38-1.09,0-.1,0-.21-.01-.31-.31.35-.61.71-.92,1.06.12.4.13.71-.07,1.05-.3.56-.71,1.03-.05,1.56,1.86-1.4,3.62-2.79,5.38-4.18.31-.25,1.15-.47,1.16-.37.35.78.75.2,1.17-.06.42-.27.83-.63,1.24-1-1.12,1.3-2.25,2.6-3.37,3.89,0,0-.11.01-.21.03-1.86,1.51-3.72,3.01-5.58,4.51-1.45,1.14-2.45,2.83-4.23,3.6-.73.31-1.25.8-1.32,1.64,0,.21-.51.49-.82.74-.93.75-2.08,1.43-2.68,2.35-.4.57-.59,1.22-1.44,1.45-.21.03-.42.27-.62.4-.82.84-1.64,1.68-2.46,2.52-.1.12-.31.35-.3.46.25.9-.48,1.41-1,1.59-1.15.47-1.44,1.45-1.94,2.34-.1.22-.19.54-.4.78-1.84,2.12-3.67,4.25-5.51,6.37-.51.59-1.24,1.11-1.42,1.75-.66,2.17-1.87,4.1-2.85,6.2-.49,1-.56,2.15-.73,3.31.01.31.46.87.67.84.85-.02,1.7-.14,2.54-.36,4.54-1.16,8.37-3.87,12.21-6.59,2.39-1.68,4.54-3.75,6.81-5.72,1.96-1.73,3.92-3.45,5.77-5.27,1.44-1.45,2.76-2.98,4.09-4.62,2.45-2.93,5-5.78,7.12-8.88,1.71-2.62,2.98-5.6,4.37-8.38l.42-.16Zm-40.98,26.18c-.93.65-1,1.8-1.6,2.71.71-.83,1.43-1.65,2.14-2.48-.11-.09-.22-.18-.33-.26l-.21.03Zm33.18-9.95c.51-.59.69-1.34.99-2-.21.13-.42.27-.52.38-1.74,2.01-3.47,4.01-5.31,6.03-1.22,1.42-2.56,2.85-4,4.08-2.99,2.7-6.08,5.31-9.07,8.01-3.09,2.82-6.74,4.78-10.17,7.03-.83.53-1.77.97-2.61,1.4-.73.31-1.47.62-2.2.93,0,.1,0,.21.01.31,4.22-1.01,8.09-3,11.49-5.87,0-.1-.01-.31-.02-.41.53-.18,1.06-.25,1.37-.5,1.04-.77,2.07-1.64,3.1-2.51,1.34-1.12,2.68-2.35,3.91-3.56.82-.74,1.54-1.56,2.36-2.3,1.86-1.61,3.72-3.11,5.24-4.99,1.73-2.01,3.58-3.92,5.31-6.03h.11Zm-31.93,9.16c1.37-.5,1.3-2.15,2.34-2.92-1.59.33-1.74,1.8-2.34,2.92Zm3.5-3.08c-.6.91-1.21,1.83-1.81,2.74.11.09.22.18.33.26.71-.93,1.42-1.86,2.13-2.79-.11-.09-.22-.18-.33-.26l-.32.04Zm.46-1.93s.11.09.23.38c1.94-2.24,3.78-4.36,5.61-6.49.11.09.22.18.33.26-.3.56-.6,1.12-.9,1.68.11.09.22.18.33.26.82-.84,1.64-1.68,2.46-2.52,0-.1-.11-.19-.12-.29-.31.15-.63.3-.94.44,0-.1,0-.21-.01-.31.51-.59,1.02-1.18,1.43-1.55.53.03.86.09,1.18.15.11-.01.3-.46.3-.46-.22-.18-.55-.34-.87-.6,1.13-1.19,2.26-2.29,3.38-3.48.82-.84,1.53-1.87,2.46-2.62.62-.5,1.33-1.53,2.53-.77-1-1.1.15-1.58.66-2.17.51-.49,1.14-.89,1.76-1.39-.44-.25-.76-.41-.87-.5-.51.59-1.11,1.71-1.74,1.8-.95.13-1.14.78-1.66,1.27-.31.25-.73.52-1.03.87-.2.24-.3.56-.6,1.02-.43-.04-.96.03-.93.86,0,.1-.41.47-.51.49-.96-.07-1.37.4-1.44,1.24,0,.21-.2.44-.4.68-.72.72-1.44,1.34-2.05,2.05-.41.37-.6.91-1.02,1.28-.82.74-2.08,1.33-2.47,2.21-.59,1.22-1.74,1.8-2.45,2.83-.7,1.13-1.52,2.18-2.32,3.33l-.32.04Zm3.42-2.55c-.61.81-1.22,1.62-1.83,2.43.11.09.22.18.33.26.61-.81,1.22-1.62,1.83-2.43-.11-.09-.22-.18-.33-.26Zm23.09,2.24c-.92,1.06-1.84,2.12-2.76,3.18.92-1.06,1.84-2.12,2.76-3.18Zm2.54-6.06c1.04-.56,1.44-1.45,1.83-2.33-.11-.09-.22-.18-.33-.26-.5.9-1,1.8-1.5,2.7v-.1Zm11.34-32.57c-.73.41-1.46.83-2.19,1.24-.11-.09-.22-.18-.33-.26.73-.41,1.46-.83,2.19-1.24.11.19.23.38.34.57v-.31Zm4.08-1.92c-1.25.69-2.5,1.39-3.76,2.08-.11-.19-.23-.38-.34-.57,1.25-.69,2.5-1.39,3.76-2.08.11.09.22.18.33.26v.31Z"/>
        <path class="cls-3" d="m419.99,170.81c-.11-.09-.22-.18-.33-.26.19-.54.38-1.09.58-1.64-.11.01-.21.03-.32.04-1.3,2.25-2.6,4.51-3.9,6.76-.1.12.12.4.36.99,1.2-2.03,2.31-3.74,3.42-5.45.11-.01.21-.03.32-.04-.07.94-.14,1.88-.21,2.93.31-.15.53-.18.74-.21-.1.22-.09.32-.2.44-.91,1.27-1.72,2.52-2.08,4.13-.46,1.93-1.88,3.79-2.87,5.69-.7,1.24-1.29,2.56-2.1,3.71-.81,1.15-1.83,2.23-2.86,3.2-1.24,1.11-3.29.36-4.18-.76-1.57-1.95-3.13-3.91-3.65-6.43-.51-2.31-1.45-4.56-.91-7.12.09-.53-.25-1.1-.28-1.72-.02-.62.17-1.27.14-1.88-.02-.41-.14-.81-.27-1.41-.7,1.34-1.19,2.34-1.68,3.34-.32-.06-.54-.13-.54-.13-.18.75-.27,1.38-.57,1.94-1.29,2.46-2.59,4.82-3.88,7.18-.3.46-.71.93-1.01,1.39-.6.91-1.1,1.92-1.7,2.83-1.11,1.5-2.23,3.01-3.34,4.51-.51.69-1.12,1.3-1.63,1.99-1.93,2.45-4.73,1.6-5.88-.52-.46-.76-.8-1.54-1.37-2.29-1.12-1.4-1.5-3.1-1.14-4.91.35-1.91.81-3.84,1.49-5.7,1.46-3.73,3.02-7.47,4.69-11.12,1.77-3.77,3.65-7.56,5.54-11.35.49-1,1.21-1.93,1.92-2.86.1-.22.73-.31.95-.24,1.53,1.03,2.85,2.19,4.48,3.1,1.31.75,1.68,2.04,2.36,3.19.45.66.88.7,1.38-.09.7-1.13,1.51-2.28,2.21-3.42.2-.34.18-.85.27-1.28-.11-.09-.22-.18-.33-.26.29-.66.59-1.33.99-2.11,1.2.87,2.41,1.73,3.61,2.6,2.08,1.57,1.75,4.1,1.42,6.43-.33,2.53-1.09,5.02-1.63,7.58-.35,1.91-.81,3.84-.95,5.73-.23,2.31-.15,4.58-.17,6.86.11-.01.21-.03.32-.04.2-.24.41-.37.62-.6.91-1.27,1.82-2.54,2.73-3.8.3-.46.49-1,1.25-.8.22.07.73-.52,1.03-.87.31-.35.4-.78.71-1.03.62-.6.29-.87-.36-1.09.2-.34.4-.68.7-1.24.13.5.14.81.27,1.41,1.81-2.74,3.42-5.25,5.13-7.87.55.54,1.81.06,1.75,1.2.02.52-.49,1.1-.79,1.67l-.22-.28Zm-27.55,6.57c1.41-2.27,2.81-4.54,4.22-6.81s.37-4.3.08-6.33c-.11-.09-.22-.18-.33-.26-.81,1.15-1.72,2.31-2.53,3.46-.7,1.13-1.19,2.34-1.89,3.48-1.2,2.03-2.94,3.83-3.06,6.34.01.31-.29.66-.49,1-.89,1.78-1.89,3.58-2.67,5.35-.19.55.05,1.24.07,1.96,1.77-1.08,3.68-4.14,3.43-5.04.42-.27.83-.53,1.14-.89.61-.81,1.22-1.62,1.72-2.42l.33.16Zm9.52-10.25c1.33-1.33,1.38-2.99,1.85-4.51-.11-.09-.22-.18-.33-.26-.5.9-1,1.69-1.39,2.58-.59,1.22-1.08,2.43-1.68,3.55-.49,1-1.2,1.93-1.81,2.84-.51.69-1.01,1.39-1.52,2.18-.8,1.36-1.6,2.71-2.4,4.07-.2.34-.18.75-.27,1.18.52-.28.83-.63,1.03-.97.81-1.15,1.51-2.39,2.32-3.54.3-.46.93-.86,1.12-1.4.78-1.87,2.32-3.54,2.77-5.57,0-.1.2-.24.31-.35v.21Zm16.24,1.44c-.6.91-1.21,1.83-1.81,2.84-.11-.09-.22-.18-.33-.26.6-.91,1.21-1.83,1.81-2.74.11.09.22.18.33.26v-.1Z"/>
      </g>
      <g>
        <path class="cls-3" d="m210.54,83.32c-.09-.07-.18-.15-.27-.22.16-.45.32-.91.48-1.36l-.26.04c-1.08,1.88-2.17,3.76-3.25,5.64-.09.1.1.33.3.82,1-1.69,1.92-3.12,2.85-4.54.09-.01.18-.02.26-.04-.06.79-.12,1.57-.17,2.44.26-.12.44-.15.61-.17-.08.18-.08.27-.16.37-.76,1.06-1.43,2.1-1.73,3.44-.38,1.61-1.57,3.16-2.39,4.74-.58,1.03-1.07,2.14-1.75,3.09-.67.96-1.53,1.86-2.38,2.67-1.03.92-2.74.3-3.48-.63-1.3-1.63-2.61-3.26-3.04-5.35-.43-1.92-1.21-3.8-.76-5.94.07-.44-.21-.92-.23-1.43-.02-.51.14-1.05.12-1.57-.01-.34-.11-.67-.22-1.18-.58,1.12-.99,1.95-1.4,2.79-.27-.05-.45-.11-.45-.11-.15.63-.22,1.15-.47,1.62-1.08,2.05-2.16,4.01-3.23,5.98-.25.38-.59.77-.84,1.15-.5.76-.92,1.6-1.42,2.36-.93,1.25-1.86,2.51-2.79,3.76-.42.58-.94,1.08-1.36,1.66-1.61,2.04-3.94,1.33-4.9-.43-.38-.64-.67-1.29-1.14-1.91-.93-1.16-1.25-2.59-.95-4.09.29-1.6.68-3.2,1.24-4.75,1.21-3.11,2.52-6.22,3.91-9.27,1.48-3.14,3.05-6.3,4.61-9.45.41-.83,1-1.61,1.6-2.38.08-.18.61-.26.79-.2,1.27.86,2.38,1.82,3.74,2.58,1.09.62,1.4,1.7,1.96,2.66.38.55.73.59,1.15-.08.59-.95,1.26-1.9,1.84-2.85.17-.28.15-.71.23-1.07-.09-.07-.18-.15-.27-.22.25-.55.49-1.1.82-1.76,1,.72,2.01,1.44,3.01,2.17,1.74,1.31,1.46,3.42,1.18,5.36-.27,2.11-.91,4.18-1.36,6.32-.29,1.6-.68,3.2-.8,4.77-.19,1.93-.12,3.81-.14,5.72l.26-.04c.17-.2.34-.31.51-.5.76-1.06,1.52-2.11,2.28-3.17.25-.38.41-.83,1.04-.66.18.06.6-.43.86-.73.26-.29.33-.65.59-.86.51-.5.24-.72-.3-.91.17-.28.33-.56.58-1.03.1.42.11.67.22,1.18,1.51-2.28,2.85-4.37,4.28-6.56.46.45,1.51.05,1.46,1,.02.43-.41.92-.66,1.39l-.19-.23Zm-22.96,5.48c1.17-1.89,2.34-3.78,3.51-5.67,1.17-1.89.31-3.58.07-5.27-.09-.07-.18-.15-.27-.22-.67.96-1.44,1.93-2.11,2.89-.59.95-.99,1.95-1.58,2.9-1,1.69-2.45,3.19-2.55,5.28,0,.26-.25.55-.41.83-.74,1.49-1.57,2.98-2.23,4.46-.16.45.04,1.03.06,1.63,1.47-.9,3.06-3.45,2.86-4.2.35-.22.69-.44.95-.74.51-.68,1.01-1.35,1.43-2.01l.27.13Zm7.93-8.54c1.11-1.11,1.15-2.49,1.54-3.76-.09-.07-.18-.15-.27-.22-.42.75-.83,1.41-1.16,2.15-.49,1.02-.9,2.03-1.4,2.96-.41.83-1,1.61-1.51,2.37-.42.58-.84,1.15-1.26,1.82-.67,1.13-1.33,2.26-2,3.39-.17.28-.15.63-.23.98.43-.23.69-.53.86-.81.67-.96,1.26-1.99,1.93-2.95.25-.38.77-.71.93-1.17.65-1.56,1.93-2.95,2.31-4.64,0-.09.17-.2.26-.29v.17Zm13.54,1.2c-.5.76-1.01,1.52-1.51,2.37-.09-.07-.18-.15-.27-.22.5-.76,1.01-1.52,1.51-2.28.09.07.18.15.27.22v-.09Z"/>
        <path class="cls-3" d="m242.29,40.53c1.53.48,1.48,1.6,1.27,3.02-.29,1.68-.77,3.21-1.5,4.87-.49,1.1-.79,2.44-1.19,3.71-.08.18-.07.44-.16.54-1.12.93-1.07,2.22-1.47,3.4-.4,1.09-.89,2.2-1.2,3.36-.63,1.99-1.18,4.05-1.81,6.04-.31,1.17-.62,2.33-1.11,3.44-.49,1.02-.9,2.03-1.12,3.18-.13,1.14-.54,2.23-.85,3.31-.31,1.08-.54,2.15-.95,3.15-.56,1.63-1.3,3.2-1.86,4.84-.24.72-.21,1.5-.36,2.21-.22,1.15-.53,2.32-.76,3.47-.15.63-.39,1.35-.28,1.94.12.93-.81,1.93-.16,2.87.09.16-.07.61-.14.97-.32.99.17,2.05-.42,3.08-.25.47.48.88,1,.72.7-.19,1.39-.89,2.11-.47-.74,1.49-1.4,2.96-2.14,4.44-.08.18-.52.33-.7.27-.9-.31-1.54-.82-2.1-1.6-1.03-1.49-1.8-3.11-2.05-4.98-.24-1.61-.21-3.25-.19-4.89.01-2.07.11-4.07.83-6.07.48-1.36.6-2.85.9-4.27-.09-.07-.18-.15-.27-.22-.25.29-.6.6-.76.97-1.25,2.16-2.86,4.03-4.57,5.82-.68.7-1.18,1.55-1.78,2.32-.26.3-.51.59-.77.88-.17.2-.43.32-.51.5-.64,1.73-2.2,2.81-3.39,4.1-1.11,1.19-2.32,2.05-3.72,2.59-1.05.41-1.86.09-2.51-.68-2.51-2.93-2.28-6.32-1-10.13,1.19-3.62,2.84-7.05,4.75-10.42,1.83-3.28,3.56-6.72,6.39-9.44,1.03-1.01,2.15-1.94,3.64-2.32.97-.22,1.6.03,2.24.55,1.19.95,2.38,1.91,3.65,2.77.18.15.7-.19,1.14-.33.19.4.55.35.79-.11.33-.56.58-1.2.82-1.84.08-.18-.02-.43-.03-.69-.01-.34-.03-.77.13-1.14.41-1.01.9-2.03,1.31-3.03.16-.37.24-.72.31-1.08.47-1.71.94-3.41,1.4-5.12.07-.44.14-.88.4-1.26,1-1.61,1.2-3.36,1.67-5.07.46-1.88,1.01-3.68,1.48-5.56.39-1.44.69-2.86.99-4.28.23-.9.67-.96,1.57-.82,1.25.26,1.56,1.42,2.47,1.98.18.15.28.39.46.45l.09.07Zm-21.51,38.85c.42-.75.74-1.57,1.25-2.25.51-.59.82-1.67,2.08-1.41.18.06.51-.5.85-.9-.36-.12-.54-.18-.99-.29.5-.76.93-1.34,1.34-2,.08-.18.07-.44.15-.63-.27-.05-.54-.1-.71-.07-.44.06-.88.21-1.32.36-1.31.44-2.63.89-3.48,1.96-1.35,1.74-2.62,3.56-3.88,5.38-.34.48-.58,1.03-.92,1.51-.42.58-1.02,1.09-1.44,1.76-.42.75-.74,1.57-1.15,2.32-.82,1.76-1.64,3.51-2.46,5.27.09.07.18.15.27.22,1.11-1.19,2.49-2.08,3.51-3.43,1.01-1.35,2.21-2.56,3.4-3.85.68-.7,1.46-1.33,1.96-2.09.5-.85.93-1.25,1.91-1.13.84-1.15,1.78-2.32,2.71-3.49-.09-.07-.18-.15-.27-.22-.85,1.07-1.69,2.14-2.54,3.21-.09-.07-.18-.15-.27-.22Zm5.13-2.79c-.09-.07-.18-.15-.27-.22-.42.66-.84,1.33-1.26,1.99.09.07.18.15.27.22.42-.66.84-1.33,1.26-1.99Zm.39-3.85c0-.09-.19-.23-.28-.31-.16.37-.33.74-.49,1.1.18.06.36.12.54.18.16-.37.33-.74.49-1.1l-.26.12Zm1.11,19.87c.15-.8.22-1.33.29-1.77-1.04.58-1.63,1.35-1.41,2.7.43-.41.77-.71.94-.91l.18-.02Zm1.55-6c.24-.72.39-1.52.53-2.32-1.15.08-1.66.58-1.89,1.65-.15.8-.38,1.61-.62,2.42.02.43.56.78-.13,1.31-.09.01-.08.27.01.34,0,.09.27.13.36.12.09-.1.17-.28.25-.47.23-.98.46-1.96.69-2.77.44-.15.88-.21.88-.3h-.09Zm3.59-13.02c.66-1.22.53-2.41.39-3.77-.35.22-.61.34-.87.47.19.4.29.65.39.98-.44.15-.7.19-.97.22.02.43.03.77.05,1.2.18.06.36.12.81.23-.43.41-.77.71-1.12,1.02-.82,1.84-1.45,3.83-2.18,5.83-.48,1.36-.97,2.64-.38,4.11.26-.21.61-.34.69-.53.25-.47.32-.91.48-1.36.32-.91.64-1.82.96-2.72-.26.04-.44.06-.79.11.51-.68.93-1.25,1.26-1.9.08-.18.07-.53-.03-.69q-.56-.78.48-1.28c-.55-.44-.29-.74.23-1.07.17-.11.34-.39.51-.68l.08-.18Z"/>
        <path class="cls-3" d="m260.55,68.17c.1.42-.31,1.25-.74,1.57-.35.22-1.15.08-1.52-.22-1.18-.78-2.02-1.87-2.34-3.3-.21-.75-.32-1.51-.44-2.27-.1-.42-.21-.83-.32-1.34-1.22.6-1.54,1.6-1.85,2.59-.08.36-.06.7-.14,1.05-.08.18-.25.55-.33.56-1.5.3-1.53,1.77-2.12,2.71-.67,1.13-1.06,2.39-1.55,3.58-.73,1.74-1.47,3.49-2.2,5.23-.57,1.37-1.23,2.68-1.71,4.04-.65,1.64-1.12,3.26-1.68,4.9-.4,1.18-.8,2.36-1.19,3.62-.24.72-.39,1.52-.53,2.32-.08.36-.06.7.04,1.03.31,1.08.07,1.72-.97,2.55-.17.2-.25.47-.42.66-.52.42-.94.91-1.59.22-.37-.47-1.17-.53-1.72-.88-.73-.42-1.28-.94-.87-1.95.08-.27-.02-.6-.12-.93-.22-1.18-.62-2.33-.75-3.52-.12-.93.02-1.9.16-2.87.5-3.26.91-6.51,1.58-9.8.29-1.68,1.03-3.34,1.5-5.04.16-.54.05-1.13.11-1.66.08-.36.33-.74.4-1.09.61-2.67,1.22-5.35,1.83-8.02.31-1.17.62-2.33.84-3.48.08-.27-.02-.6-.03-.86-.01-.34-.04-1.03.05-1.04.44-.15.97-.22,1.41-.2,1.16.18,1.99,1.01,2.98,1.39,1.44.57,1.84,1.73,1.81,3.2.02.43-.24.81-.4,1.18-.4,1.18-.8,2.36-1.11,3.52-.32.91-.46,1.88-.69,2.86.09.07.18.15.27.22.41-1.01.81-2.01,1.31-2.95.66-1.22,1.42-2.36,2.09-3.49.33-.65.66-1.3.99-1.95.58-1.12,1.07-2.22,1.83-3.19.25-.38,1.13-.68,1.58-.57,1.34.24,2.86.46,3.86,1.27,1.37,1.1,2.32,2.69,2.31,4.68-.1,2-.03,3.97.4,5.9v-.26Zm-10.61-3.51c-1.13.68-4.11,6.28-3.89,7.37,1.32-2.52,2.57-4.85,3.89-7.37Z"/>
        <path class="cls-3" d="m277.14,74.98c-.08.27-.07.61-.24.81-.5.76-1.1,1.54-1.69,2.31.26-.12.61-.26.78-.46,1.18-1.55,2.28-3.08,3.37-4.62.17-.2.34-.39.69-.44-.08.18-.16.45-.33.65-.67,1.13-1.42,2.27-2.18,3.41-.5.76-1,1.61-1.51,2.37-.33.56-.94,1.08-1.18,1.63-.32.91-.64,1.73-1.15,2.49-.09.1.1.42.2.66-.35.22-.69.44-.78.54-.42.75-.75,1.31-1.17,1.98,0,0,.09.16.37.47-1.34-.16-1.21.95-1.63,1.52-.93,1.25-1.95,2.43-3.35,3.06-.78.37-1.95.19-2.76-.13-1.08-.45-1.92-1.37-2.99-1.74-2.07-.74-2.32-2.69-2.65-4.29-.34-2.02-.07-4.22.47-6.28.55-1.98,1.09-3.95,1.64-5.93.4-1.26.79-2.53,1.19-3.79.4-1.26.97-2.55,1.36-3.82.47-1.53.77-3.13,1.15-4.74.24-.81.95-.74,1.4-.63,1.26.34,2.26,1.06,2.66,2.39.1.33.38.64.57.96.65.86.33,1.77.01,2.67-.23.9-.38,1.78-.79,2.61-.91,1.85-1.01,3.85-1.91,5.71-.58,1.2-.79,2.61-1.18,3.88-.47,1.53-1.04,2.99-1.43,4.52-.23.9-.11,1.83-.16,2.78.02.6.05,1.2-.02,1.82,1.32-.27,2.36-1.02,3.21-1.92,1.11-1.19,2.22-2.38,3.24-3.56,1.28-1.47,2.55-3.03,3.82-4.59,1.61-1.95,3.22-3.99,4.83-5.95.17-.2.43-.41.78-.54-.83,1.41-1.67,2.82-2.5,4.32,0,0-.18-.06-.36-.12-.08.18-.16.37-.25.55l.42-.58Zm2.22-37.43c.46.37.57.87.24,1.52-.67,1.13-1.15,2.32-1.91,3.38-.84,1.15-1.42,2.36-1.99,3.65-.33.74-1,1.78-2.14,2.2-.44.15-.76.97-1.01,1.52-.49,1.02-.9,2.11-1.48,3.14-.33.65-.78.37-.98-.03-.28-.48-.4-1.07-.5-1.4.13-1.14.19-2.1.42-2.99.55-1.89,1.28-3.8,1.83-5.69.4-1.26.7-2.6.92-3.93.14-.88.91-1.77.43-2.65.35-.22.77-.63,1.13-.59,1.87.17,3.49.89,4.87,2.08l.17-.2Zm-4.71,42.01c.26-.29.32-.82.48-1.28-.77.88-1.53,1.77-2.3,2.65l.27.22c.6-.6,1.2-1.12,1.71-1.71l-.17.11Z"/>
        <path class="cls-3" d="m303.55,78.78c.87-.47,1.74-.94,2.79-1.34-.17.28-.34.48-.5.76-.41.83-1.55,1.34-1.24,2.5,0,.09-.26.21-.34.31-.43.41-.86.81-1.28,1.3-.85.9-1.64,1.09-2.56.36-1.65-1.41-2.87-3.05-3.22-5.33-.37-2.62.07-5.27.68-7.95.15-.63.04-1.21.2-1.84.29-1.68.67-3.37.96-5.06.08-.36-.03-.77-.04-1.12l-.07-1.8c0-.26-.02-.52-.03-.77-.26.12-.52.25-.78.46-1.37,1.23-2.93,2.31-3.84,4.08-.5.93-1.36,1.66-1.95,2.52-1.34,2.09-2.77,4.19-4.02,6.35-1.16,2.06-2.06,4.26-3.13,6.4-.75,1.4-1.49,2.8-2.42,4.14-1.09,1.62-1.64,3.6-2.46,5.44-.16.45-.32.91-.57,1.29-.17.28-.51.5-.59.77-.33.74-.66,1.39-1.56,1.08-.63-.17-1.26-.34-1.71-.71-1.18-.78-1.59-2.19-2.34-3.29-.1-.25.06-.7.05-1.04-.02-2.93.84-5.82,1.71-8.7,1.03-3.34,1.87-6.74,2.81-10.06.55-1.98,1.09-3.95,1.64-5.93.39-1.35.79-2.7,1.18-4.05.4-1.18.8-2.27,1.29-3.38.41-.92,1.02-1.09,1.84-.6.55.35,1,.72,1.46,1.09.09-.01.18.06.18.15.22,1.09.7,2.15.48,3.21-.59,3.1-1.45,6.16-2.23,9.2-.31,1.08-.72,2.17-1.03,3.25-.08.27-.16.54-.24.81.09-.01.18-.02.26-.04,1.5-2.46,2.65-5.12,4.97-6.91-.66-.94.57-1.37.54-2.06.09-.01.18-.02.26-.04-.16.45-.32.91-.48,1.36h.09c.17-.21.34-.41.51-.6.42-.58.93-1.17,1.26-1.82.17-.28.15-.71.23-1.07-.09.01-.18.02-.26.04,1.53-1.68,3.07-3.37,4.77-5.25-1.33-.07-1.55,1.17-2.51,1.56.08-.27.07-.53.24-.64,1.29-1.22,2.19-2.98,4.24-2.93.8-.03,1.77-.25,2.16.73.09.16.45.2.63.26.72.16,1.43.32,2.06.57.18.06.28.39.38.64.1.33.03.77.21.92,1.92,1.37,2.17,3.32,1.81,5.61-.07.61.23,1.26.25,1.86.02.6-.22,1.24-.37,1.87-.08.27-.24.64-.15.8.39.81-.03,1.56-.27,2.37-.4,1.26-.7,2.6-.92,3.93-.15.8-.03,1.64-.08,2.51-.07.53-.41,1.01-.47,1.53-.06.7.05,1.37-.01,2.07.02.6.74.85,1.44.49l.08-.27Zm-13.14-14.2c2.1-3.14,4.56-6.08,6.84-9.08-.94.91-2.35,1.28-2.74,2.63-.08.27-.43.41-.69.61-.17.11-.44.15-.52.25-.49,1.1-1.17,1.98-2.21,2.56-.17.11-.34.39-.42.58-.32.82-.65,1.64-.97,2.47-.08.27-.25.55-.41.83-.34.39-.77.8-1.02,1.27-.75,1.23-1.41,2.53-2.08,3.74-.66,1.22-1.42,2.44-2.17,3.67.09.07.18.15.27.22,2.01-3.22,3.84-6.5,5.94-9.64l.17-.11Z"/>
        <path class="cls-3" d="m334.65,58.91c.09.16.19.32.28.48-1.03,1.01-2.05,2.02-2.99,3.1-.51.5-.85,1.07-1.65.92-.09.01-.17.11-.26.21-1.44,1.76-3.44,2.81-5.08,4.25-.86.73-1.72,1.54-1.67,2.74,0,.09-.17.2-.26.3-.17.2-.43.49-.42.58.3.91-.39,1.52-.8,2.18-1.42,2.27-2.94,4.47-4.27,6.73-.5.85-1.09,1.62-1.68,2.39-1.53,1.77-2.84,2.21-4.66,1.09-1.54-.9-2.92-2.09-4.21-3.29-.55-.53-.76-1.45-.89-2.29-.24-1.78-.04-3.53.6-5.26.64-1.73,1.02-3.51,1.58-5.23,1.34-4.33,2.06-8.84,4.12-13.01,1.07-2.14,2.15-4.27,3.31-6.42.91-1.77,2-3.47,3.17-5.45.9.22,1.88.34,2.6.76,1.63.98,3.27,1.96,4.65,3.23.92.82,1.41,2.13,2.08,3.25.09.07.19.23.1.33-.66,1.3-.26,2.54-.39,3.77-.34,2.64-.78,5.29-1.2,8.02.17-.11.43-.23.7-.36.78-.46,1.56-.91,2.35-1.28.26-.12.62-.09.88-.12,1.02-1.09,2.56-.45,3.58-1.63l.44.02Zm-23.86,21.31c3.08-3.02,4.99-6.57,7.17-9.81-1.71-.71-3.33-1.34-5.05-2.05-.83,3.83-2.73,7.55-2.22,11.71l.09.16Zm7.01-32.92c-2.1,3.14-3.48,6.62-5.03,10.03.09.07.18.15.27.22,1.65-3.34,3.3-6.68,4.95-10.02l-.26.04.08-.27Zm5.11,13.09c.25-.55.21-1.41,1.18-1.55.09-.01.17-.28.25-.55-.26.04-.44.06-.62.09-.09-.07-.18-.15-.27-.22.43-.41.95-.74,1.2-1.2.25-.47.31-1.08.38-1.69.07-.53-.04-1.03-.06-1.55-.09.01-.18.02-.26.04,0,.09,0,.17,0,.26,0,.09-.08.18-.25.38-.02-2.85.14-5.54-1.28-8.11-.6.69-1.11,1.19-1.44,1.76-.83,1.41-1.58,2.81-2.41,4.22-.25.47-.76.97-.83,1.41-.04,1.21-.89,2.2-1.11,3.44-.36,2.21-1.43,4.34-2.15,6.52-.24.72-.21,1.5-.27,2.2s.3.91,1,.72c1.4-.46,2.81-.83,4.21-1.37.52-.25,1.12-.76,1.37-1.23.58-1.2.88-2.54,1.36-3.82v.26Zm1.05-4.98c-.15.63-.31,1.25-.46,1.88-.09.01-.18.02-.26.04.15-.63.31-1.25.46-1.88.18-.02.35-.05.53-.07l-.26.04Zm2.32,2.61c.09-.01.08-.18.08-.27.21-1.58.41-3.17.62-4.83-.35.05-.53.07-1.06.23,1.01-1.44.7-2.52-.05-3.62-.09,2.26-.19,4.43-.28,6.6.01.34.2.66.3.99,0,.17-.08.36-.16.54-.16.37-.42.75-.58,1.12-.16.45-.14.88-.3,1.34-.4,1.26-.88,2.45-1.28,3.63.09.07.18.15.27.22.43-.23,1.14-.42,1.3-.79.49-1.1.8-2.27,1.11-3.44.15-.63-.4-1.24.28-1.85l-.26.12Z"/>
      </g>
      <path class="cls-3" d="m219.18,22.15c-.49.07-.86.12-1.36.19,0,.12-.11.38.01.36,1.14.68,1.18,1.52.73,2.8-.34.89-.17,1.96-.01,2.9.37,3.33-1.25,6.21-3.01,9.12l-.7,1.18c-.59.81-1.18,1.49-1.77,2.3-.12.02-.25.03-.37.05.14.34.27.69.42,1.15-2.23.07-1.53,2.27-2.86,3.18-.38-.07-.79-1.22-1.36.19.26.21.51.41.77.62-.97.74-1.93,1.36-2.9,2.1-.36.29-.59.93-.94,1.34-.24.27-.6.45-.85.6-.12.02-.25-.09-.25-.09-.6.57-1.33,1.03-1.8,1.7-1.05,1.72-2.89,2.34-4.33,3.63-.72.58-1.33.91-1.79,1.82-.46.91-1.68,1.56-2.65,2.18-.85.6-1.82,1.1-2.66,1.82-1.08.88-2.17,1.75-3.26,2.51-1.09.76-2.18,1.39-3.27,2.15-1.81,1.34-3.63,2.56-5.44,3.9-1.21.89-2.28,2.01-3.49,2.91-.72.58-1.71.72-2.56,1.21-1.09.64-2.06,1.38-3.15,2.01-1.22.65-2.57,1.09-3.65,1.84-.85.6-1.43,1.53-2.28,2.13-1.82,1.22-3.64,2.32-5.46,3.42-.73.46-1.33,1.03-2.05,1.5-1.09.64-2.2,1.03-3.29,1.67-.85.48-1.57,1.19-2.3,1.65-1.94,1.24-3.88,2.48-5.82,3.72-.36.29-.73.46-1.09.64-.37.17-.71.82-1.12.04,0-.12-.86.12-1.35.31-1.59.71-1.94,1.12-2.03,2.1-1.47.57-2.81,1.12-3.79,1.5-.35.65-.45,1.15-.7,1.31-.97.5-2.08.9-3.05,1.4-1.95.88-4.14,2.03-4.44,4.13-.2,1.24-1.15,2.46-.72,3.84.16.82-.79,2.04-1.13,3.06-.22.76-.32,1.49-.28,2.33-.71.95-1.05,1.84-1.12,3.18-.08,1.22-.9,2.54-1.35,3.81-.23.52-.33,1.13-.31,1.61-.08,1.22-.03,2.42-.11,3.64,0,.24.02.48-.1.62-1.56,1.55-1.23,3.55-1.66,5.3-.31,1.61-.5,3.21-.69,4.81-.27,2.81-.53,5.63-.91,8.82.73-.46,1.09-.64,1.82-.98-1.96,4.02-1.07,7.76-1.42,11.55-2.39-.87-4.65-1.64-5.85-3.76-.53-1.01-.96-2.28-1-3.48-.24-3.11-.49-6.33-.36-9.49.23-3.77.83-7.6,1.43-11.43.51-2.85,1.28-5.61,1.91-8.48.53-2.49,1.05-4.98,1.58-7.47.22-.76.44-1.51.77-2.64-2.44,1.07-4.52,1.96-6.47,2.96-2.2,1.03-3.94.92-5.73-.52-.9-.72-1.92-1.42-1.48-2.93,0-.12-.01-.36-.14-.34-2.13-.55-.36-2.85-1.39-3.91,0,0,.48-.55.95-1.1-.05-1.32,1.4-2.25,2.48-3.37,1.44-1.41,3-2.84,4.56-4.14.96-.86,2.05-1.5,3.02-2.24.6-.45,1.08-1,1.68-1.44.36-.29.85-.6,1.33-.91.13.1.26.21.38.31-.37.17-.73.34-1.22.53,1.28.91.43,1.63-.16,2.32-.59.81-1.31,1.51-2.02,2.34.26.21.51.29.64.39-1.29,2.11-2.57,4.23-3.86,6.34,0,.12,0,.24.01.36,2.31-1.29,4.62-2.58,6.93-3.87.85-.48,1.7-1.08,2.54-1.69.85-.48,1.08-1,1.04-2.08-.04-1.08.66-2.27.99-3.4.54-2.01,1.21-4.03,1.76-6.04,1.43-4.79,2.74-9.56,4.17-14.35.66-2.15,1.58-4.21,2.24-6.35.66-2.27,1.19-4.51,1.85-6.78.33-1.01.67-2.03,1-3.04.99-3.4,1.98-6.8,2.97-10.2.88-3.02,1.88-6.06,2.88-9.1-.13-.1-.26-.21-.38-.31-1.34.79-2.67,1.58-3.88,2.48-2.3,1.65-4.59,3.3-6.89,4.95-2.78,2.08-5.56,4.04-8.21,6.23-3.97,3.34-7.82,6.65-11.53,10.19-3.59,3.52-6.93,7.25-10.39,10.88-1.55,1.67-3.22,3.35-4.77,5.14-.83,1.08-1.4,2.37-2.1,3.56-.82,1.32-1.64,2.65-2.33,3.95-.47.79-.81,1.68-1.02,2.56-.43,1.63-1.5,2.87-3.2,3.95.51.29.89.6,1.28.91.76.5,1.53.99,2.41,1.47.89.48.67,1.23.19,1.78-.24.27-1.1.4-1.48.21-2.9-1.16-5.68-2.46-7.75-4.7-1.16-1.16-1.39-4.03-.46-5.61.81-1.44,1.38-2.97,2.19-4.41,1.29-2.11,2.7-4.12,4.11-6.25.7-1.07,1.54-2.03,2.24-3.09.47-.67.69-1.55,1.29-2.11,2.5-2.89,5.12-5.67,7.74-8.58,1.08-1.12,2.02-2.34,3.09-3.57.59-.69,1.32-1.27,2.68-1.46-3.22,3.59-6.07,6.89-9.05,10.09-2.98,3.2-5.2,6.89-7.68,10.38.13.1.26.21.38.31.59-.69,1.31-1.39,1.9-2.2,1.53-2.27,2.93-4.64,5.09-6.63,2.28-2.13,4.04-4.67,6.19-6.91,1.43-1.53,3.12-2.85,4.68-4.28.84-.84,1.67-1.8,2.51-2.65.24-.27.48-.55.84-.84,1.56-1.43,3.12-2.85,4.81-4.18,1.45-1.17,3.02-2.24,4.47-3.28.36-.29.85-.48.97-.74,1.16-2.22,3.26-2.51,5.22-3.15.61-.21,1.08-.88,1.56-1.31.48-.55.95-1.1,1.43-1.65.13.1.26.21.38.31-.95,1.22-1.89,2.44-2.84,3.66-.47.67-1.07,1.36-2.08.9-.13-.1-.97.5-1.08.88-.19,1.48-.91,2.3-2.88,2.7.48-.43.72-.7.96-.86.24-.16.61-.33.97-.5-.13-.22-.27-.45-.4-.67-.96.86-2.3,1.53-2.88,2.58-.7,1.31-1.27,2.47-2.87,2.94-.37.17-.72.7-1.08,1-.6.57-1.2,1.13-1.79,1.82-.36.29-.85.6-1.2,1.01-.83.96-1.67,1.92-2.5,2.89-.95,1.1-1.77,2.3-3.38,2.53-.25.03-.47.67-.7,1.07-.23.39-.34.89-.7,1.06-1.71.84-3.03,2-4.21,3.49-.95,1.22-2.15,2.11-3.23,3.23-.24.27-.35.65-.33,1.13.24-.15.61-.33.72-.58,1.18-1.73,2.87-2.94,4.56-4.14,1.21-.89,2.41-1.91,3.61-2.92,2.29-1.89,4.7-3.68,6.86-5.79,1.07-1.12,2.16-1.99,3.5-2.67.37-.17.59-.93.81-1.44.35-.65.45-1.15,1.56-1.43,1.35-.43,2.54-1.69,3.75-2.58.24-.15.48-.31.73-.46,1.34-.79,2.67-1.58,4-2.5.24-.15.22-.63.33-1.01,1.61.01,2.95-.78,3.76-2.46-.37.17-.73.34-1.1.52.55-1.77,1.29-1.99,2.57-.97.97-.62,1.82-1.1,2.79-1.72-.26-.21-.51-.41-.77-.62,0-.12-.01-.36.11-.38.25-.03.49-.07.75.02.25-.03.38.31.51.29.86-.12,2.53-1.93,2.63-2.78.09-.98.44-1.51,1.54-1.91,1.34-.55,2.68-1.46,4.01-2.25-.13-.22-.27-.45-.4-.67-.37.17-.98.26-1.22.53-.7,1.06-1.68,1.44-2.79,1.84-.86.24-1.71.72-2.57,1.09-.21,1.12-1.19,1.37-1.7,1.08-1.27-.67-2.11-.07-3.08.67-.12.02-.25-.09-.75-.02.59-.69.95-1.22,1.43-1.53.85-.6,1.81-1.34,2.79-1.72.74-.22,1.61.01,2.85-.04.84-.72,1.57-1.19.78-2.28,1.7-.96,3.4-1.93,5.1-3.01.24-.15.6-.45.72-.7,1.31-4.77,2.62-9.54,3.93-14.32.33-1.01.81-1.44,1.82-1.1,1.51.51,2.78,1.18,3.93,2.22,1.92,1.54,1.87,3.48,1.46,5.71-.1.62-.08,1.22-.06,1.82.97-.5,1.95-1,2.92-1.5.13.1.26.21.38.31-.85.48-1.7.96-2.55,1.57-.24.15-.48.43-.72.71l.13.22c.24-.15.48-.31.73-.46.49-.19.98-.26,1.48-.21-.81,1.68-3.42,1.45-3.71,3.66,1.49-.09,4.99-2.51,5.8-4.08-.49.07-.99.14-1.48.21,1.06-1.6,4.48-2.92,5.26-2.07-.61.21-1.23.41-1.83.74-.37.17-.72.58-.83.96,0,.12.51.41.77.62.24-.27.48-.55.71-.82.12-.02.25-.03.37-.17,1.14.56,1.86-.02,2.82-.88.72-.7,1.96-.64,2.94-1.02,1.59-.59,3.34-.35,4.9-1.66.72-.58,2.09-.54,3.2-.81.98-.26,1.97-.52,2.95-.78-.41-.91.33-1.01.95-1.1,1.24-.05,2.49.13,3.69-.88.36-.29,1.24-.05,1.85-.26,2.71-.62,5.41-1.37,8.12-1.99,1.6-.35,3.21-.33,4.82-.44.25-.03.49-.07.73-.34-2.14-.79-4.35-.11-6.45.18-2.22.31-4.54,1.36-6.65,1.3-2.11-.06-4.02,2.13-6.04,1.09,7.23-2.59,14.62-3.99,21.95-3.93-.02-.6-.04-1.08-.06-1.56.12-.02.25-.03.37-.05,1.19,2.01,3.4,1.33,5.27,1.55-.25-.08-.5-.17-.75-.26.12-.14.24-.27.24-.27,1.26.55,2.52,1.09,3.67,1.78,1.27.67,2.54,1.45,3.69,2.26,1.02.82,1.93,1.78,2.72,3-.38-.07-.75-.14-1.38-.29,1.84,2.64,4.4,4.69,4.29,8.33l.73-.46Zm-107.95,83.29c2.2-1.03,4.38-2.31,6.58-3.34,1.46-.69,2.3-1.65,2.61-3.26-1.58.95-3.04,1.76-4.5,2.56-1.34.79-2.67,1.7-4.14,2.15-1.23.41-1.82,1.22-2.4,2.27.62.03,1.37.05,1.98-.28l-.13-.1Zm3.71,39.08c.26-12.83,3.01-25.53,6.25-38.3-.48.31-.97.62-1.08,1-.54,2.13-.96,4.24-1.5,6.37-.64,2.87-1.52,5.77-2.16,8.63-.74,3.48-1.35,7.07-1.83,10.64-.29,2.09-.58,4.31-.62,6.49-.06,1.82.14,3.6.2,5.4.12-.02.25-.03.37-.05l.37-.17Zm4.63-25.16c.22-.76.44-1.51.66-2.27-.25.03-.49.07-.74.1-.09.86-.18,1.72-.27,2.57l.37-.05v-.36Zm2.04-1.98c-.12.02-.25.03-.37.05-.33,1.25-.65,2.51-.97,3.76.12-.02.25-.03.37-.05.32-1.25.65-2.51.97-3.76Zm.02-5.92c.55-1.89,1.1-3.78,1.65-5.66-.25.03-.49.07-.74.1-.55,1.89-1.1,3.78-1.65,5.66.12-.02.25-.03.37-.05l.37-.05Zm3.11-19.51c-.33,1.01-.67,2.03-1,3.16,1.1-.52,1.67-1.92,1-3.16Zm-.82,4.58c1.5.15,1.98-.16,2.31-1.41-.73.46-1.34.79-2.19,1.27l-.12.14Zm4.19-13.99c.21-1.12.3-1.97,1.93-1.36-.14-.46-.4-.67-.53-.89-.14-.34-.4-.67-.28-.93.44-1.51,1-3.04,1.57-4.57.22-.64.2-1.36.3-1.97-.12.02-.25.03-.37.05-1.88,6.06-3.76,12.12-5.64,18.18.13.1.26.21.38.31.23-.39.47-.79.58-1.17.33-1.01.67-2.03,1-3.04.44-1.39,1.01-2.8,1.33-4.29l-.26-.33Zm-1.06,8c-.33,1.13-.66,2.15-.99,3.28,1.08-.88,1.52-2.39.99-3.28ZM213.44,18.25c-.05-1.44-.12-3.12-1.38-3.79-2.03-1.16-4.17-2.07-6.43-2.6-3.76-.92-7.82-.11-11.78.21-2.1.18-4.31.85-6.4,1.38-2.09.54-4.05,1.17-6.14,1.71-1.23.29-2.47.35-3.7.76-3.06,1.04-6.12,2.19-9.18,3.35-1.47.57-3.08.67-4.4,1.95-.84.72-2.2.91-3.3,1.43-.86.36-1.58.83-2.44,1.19-2.2,1.03-4.4,1.95-6.59,3.1-.48.31-.95,1.1-1.18,1.74-1.35,3.57-2.58,7.24-3.81,10.92-.33,1.01-.67,2.03-1,3.04-.43,1.63-.75,3.24-1.3,4.89-.66,2.15-1.45,4.31-2.24,6.47-.22.64-.57,1.29-.55,1.89.16.82-1.3,1.75-.15,2.56,0,0-.12.14-.24.15-.84.72-.81,1.68-1.14,2.58-.55,1.77-.98,3.52-1.41,5.27-.77,2.64-1.91,5.22-2.8,7.88-.34.89-.43,1.75-.64,2.87-.73.34-.7,1.06-.79,2.04-.07,1.34-.51,2.85-1.21,4.03-.47.79-.7,1.31-.3,1.97-1.08,1-1.76,2.78-1.35,3.57-.23.39-.47.79-.7,1.18,1.59-.59,2.92-1.5,4.39-2.19,1.1-.52,1.82-1.1,2.04-1.98.74-.22,1.48-.33,2.09-.66,2.55-1.45,5.1-2.89,7.53-4.44,3.51-2.31,6.9-4.71,10.41-7.02,2.42-1.55,5.1-2.89,7.52-4.56,3.15-2.13,6.04-4.47,9.06-6.59,2.18-1.51,4.36-2.79,6.55-4.06.24-.15.75.02,1.37.05-1.33,1.03-2.29,1.77-3.38,2.53-2.54,1.81-5.08,3.49-7.62,5.18-1.33.91-2.66,1.82-3.99,2.74-.96.74-1.93,1.48-2.9,2.1-.97.62-2.07,1.14-3.04,1.76-1.34.79-2.54,1.69-3.88,2.48-2.06,1.38-4.12,2.63-6.18,3.89-1.82,1.1-3.64,2.32-5.46,3.42-2.31,1.41-4.61,2.82-6.92,4.23-.6.45-1.21.89-1.94,1.24-1.94,1.12-3.89,2.12-5.84,3.24-.24.15-.35.65-.33,1.01s.27.69.41,1.03c2.07-1.14,4.13-2.27,6.08-3.39,1.82-.98,3.65-1.96,5.47-3.06.85-.48,1.57-1.07,2.42-1.67.73-.46,1.45-.93,2.18-1.51.97-.74,2.19-1.15,3.15-2.13s2.69-.98,3.89-2.12c1.2-1.01,2.79-1.6,4.13-2.51,2.79-1.72,5.58-3.44,8.24-5.27,1.93-1.36,3.86-2.84,5.8-4.2.36-.29.73-.46,1.09-.76,2.54-1.69,5.09-3.37,7.62-5.18.97-.74,1.8-1.7,2.76-2.44.85-.6,1.95-1,2.79-1.6.85-.6,1.56-1.43,2.4-2.15,1.32-1.15,2.64-2.3,3.97-3.46.6-.57,1.19-1.25,1.79-1.94-.13-.1-.26-.21-.38-.31-3.14,2.37-6.28,4.75-9.41,7.12.43-1.87,1.76-2.78,3.21-3.71,1.21-.77,2.95-.9,3.12-2.73,0-.12.36-.29.6-.45,2.04-1.98,4.07-3.95,6.11-5.93.24-.27.47-.67.71-.95,2.15-2.11,4.56-4.02,6.46-6.34,2.13-2.71,4.01-5.63,5.63-8.64,1.62-3.01,2.87-6.2,2.86-9.58v-.24Zm-80.2,48.84c-1.52,2.39-2.07,4.4-1.55,5.05.55-1.77,1.11-3.42,1.67-5.06l-.12.02Zm.96-33.58c.11-.26.22-.64.45-1.27-.97.5-1.58.83-2.19,1.15,0,.12,0,.24.01.36.62-.09,1.23-.17,1.85-.26l-.12.02Zm2.47,58.57c.73-.34,1.46-.69,2.2-1.03-.51-.41-2.48-.01-2.59.49,0,.12.39.55.52.53l-.12.02Zm10.22-5.42c.48-.31.97-.74,1.57-1.19-.65-.87-1.49-.03-2.23.19-.12.02-.23.52-.34.77.37.07.75.26,1,.1v.12Zm10.66-69.23c.59-.93,3.15-2.13,3.91-1.76-1.34.55-2.57,1.09-3.91,1.64v.12Zm10.57-2.7c-1.82,1.1-3.66,1.72-5.63,2.12,0-.12,0-.24-.01-.36,1.83-.74,3.67-1.48,5.5-2.22,0,.24.02.48.03.72l.11-.26Zm2.26-2.61c-2.2.91-4.4,1.83-6.6,2.74,0-.12,0-.24-.01-.36,1.92-1.72,4.54-1.36,6.6-2.62,0,.12,0,.24.01.36v-.12Zm-.91,2.3c0-.12,0-.24-.01-.36,1.83-.74,3.67-1.48,5.5-2.22.86-.36,1.59-.71,2.61,0-2.82.88-5.4,1.73-7.97,2.57l-.12.02Zm5.48,56.09c-.13-.1-.26-.21-.38-.31-.6.45-1.21.89-1.81,1.34.13.1.26.21.38.31.6-.45,1.21-.89,1.81-1.34Zm12.22-8.48c-.13-.1-.26-.21-.38-.31-2.54,1.81-5.08,3.61-7.62,5.42.13.1.26.21.38.31,2.54-1.81,5.08-3.61,7.62-5.42Zm-3.5-.59c0,.12,0,.24.01.36-1.45,1.17-2.89,2.34-4.34,3.51.13.1.26.21.38.31,2.2-.79,3.61-2.92,5.3-4.37-.49.07-.99.14-1.48.21l.12-.02Zm.97-53.14c0-.24-.02-.48-.03-.72.74-.1,1.48-.21,2.22-.31,0,.12,0,.24.01.36-.74.22-1.47.45-2.21.67Zm10.73,47.26c1.19-1.25,2.27-2.25,3.35-3.25-3.04,1.76-3.16,1.89-3.35,3.37v-.12Zm5.48-9.34c1.83-.74,2.38-2.63,3.7-3.9-.13-.1-.26-.21-.38-.31-1.19,1.25-2.39,2.51-3.58,3.76.13.1.26.21.38.31l-.12.14Zm8.34-9.14c-.13-.1-.26-.21-.38-.31-.95,1.1-1.9,2.2-2.85,3.3.13.1.26.21.38.31.95-1.1,1.9-2.2,2.85-3.3Zm2.06-4.52c-.13-.1-.26-.21-.38-.31-.58,1.05-1.16,2.1-1.74,3.14.13.1.26.21.38.31.58-1.05,1.16-2.1,1.74-3.14Z"/>
      <g>
        <path class="cls-3" d="m245.01,114.4c.89.28.86.93.74,1.75-.17.98-.45,1.87-.87,2.83-.29.64-.46,1.42-.69,2.16-.05.11-.04.26-.09.31-.65.54-.62,1.29-.85,1.98-.23.64-.52,1.28-.7,1.96-.37,1.16-.69,2.36-1.05,3.51-.18.68-.36,1.36-.65,2-.29.59-.52,1.18-.65,1.85-.08.66-.31,1.3-.49,1.93-.18.63-.31,1.25-.55,1.83-.33.95-.76,1.86-1.08,2.81-.14.42-.12.87-.21,1.28-.13.67-.31,1.35-.44,2.02-.09.36-.23.79-.16,1.13.07.54-.47,1.12-.09,1.67.06.09-.04.36-.08.56-.18.58.1,1.19-.24,1.79-.14.27.28.51.58.42.41-.11.81-.52,1.23-.27-.43.86-.81,1.72-1.24,2.58-.05.11-.3.19-.41.16-.52-.18-.9-.48-1.22-.93-.6-.87-1.05-1.81-1.19-2.89-.14-.93-.12-1.89-.11-2.85,0-1.21.07-2.37.49-3.53.28-.79.35-1.66.53-2.48-.05-.04-.11-.09-.16-.13-.15.17-.35.35-.44.56-.73,1.26-1.67,2.34-2.66,3.39-.4.41-.69.9-1.03,1.35-.15.17-.3.34-.45.51-.1.11-.25.19-.3.29-.37,1.01-1.28,1.64-1.97,2.39-.64.69-1.35,1.19-2.16,1.51-.61.24-1.08.05-1.46-.4-1.46-1.7-1.33-3.68-.58-5.89.69-2.11,1.65-4.1,2.76-6.06,1.06-1.91,2.07-3.91,3.72-5.49.6-.59,1.25-1.13,2.12-1.35.56-.13.93.02,1.3.32.69.56,1.38,1.11,2.13,1.61.11.09.41-.11.66-.19.11.24.32.21.46-.06.19-.33.33-.7.48-1.07.05-.11,0-.25-.02-.4,0-.2-.02-.45.08-.66.24-.59.52-1.18.76-1.76.1-.21.14-.42.18-.63.27-.99.54-1.98.82-2.98.04-.26.08-.51.23-.74.58-.94.7-1.96.97-2.95.27-1.09.59-2.14.86-3.23.23-.84.4-1.66.58-2.49.14-.52.39-.56.91-.48.73.15.91.83,1.44,1.15.11.09.16.23.27.26l.05.04Zm-12.51,22.59c.24-.44.43-.91.72-1.31.3-.34.48-.97,1.21-.82.1.04.3-.29.5-.52-.21-.07-.31-.11-.57-.17.29-.44.54-.78.78-1.16.05-.11.04-.26.09-.36-.16-.03-.31-.06-.41-.04-.26.04-.51.12-.77.21-.76.26-1.53.52-2.02,1.14-.79,1.01-1.52,2.07-2.26,3.13-.2.28-.34.6-.53.88-.25.34-.6.64-.84,1.02-.24.44-.43.91-.67,1.35-.48,1.02-.96,2.04-1.43,3.06.05.04.11.09.16.13.64-.69,1.45-1.21,2.04-1.99.59-.79,1.29-1.49,1.98-2.24.4-.41.85-.77,1.14-1.21.29-.49.54-.73,1.11-.66.49-.67,1.03-1.35,1.58-2.03-.05-.04-.11-.09-.16-.13-.49.62-.99,1.24-1.48,1.86-.05-.04-.11-.09-.16-.13Zm2.98-1.62c-.05-.04-.11-.09-.16-.13-.24.39-.49.77-.73,1.16.05.04.11.09.16.13.24-.39.49-.77.73-1.16Zm.22-2.24s-.11-.14-.16-.18c-.1.21-.19.43-.29.64.1.04.21.07.31.11.09-.21.19-.43.29-.64l-.15.07Zm.64,11.56c.09-.46.13-.77.17-1.03-.61.34-.95.79-.82,1.57.25-.24.45-.41.55-.53h.1Zm.9-3.49c.14-.42.22-.89.31-1.35-.67.04-.97.34-1.1.96-.09.46-.22.93-.36,1.41,0,.25.33.46-.07.76-.05,0-.05.16,0,.2,0,.05.16.08.21.07.05-.06.1-.16.14-.27.13-.57.27-1.14.4-1.61.25-.09.51-.12.51-.17h-.05Zm2.09-7.57c.39-.71.31-1.4.23-2.19-.2.13-.35.2-.51.27.11.24.17.38.23.57-.25.09-.41.11-.56.13,0,.25.02.45.03.7.1.04.21.07.47.13-.25.24-.45.41-.65.59-.48,1.07-.84,2.23-1.27,3.39-.28.79-.56,1.53-.22,2.39.15-.12.35-.2.4-.31.14-.27.19-.53.28-.79.19-.53.37-1.06.56-1.58-.15.02-.26.04-.46.07.3-.39.54-.73.73-1.11.05-.11.04-.31-.02-.4q-.33-.46.28-.74c-.32-.26-.17-.43.13-.62.1-.06.2-.23.29-.39l.05-.11Z"/>
        <path class="cls-3" d="m258.18,135.08c.2-.18.4-.31.6-.44.05.04.11.09.16.13-.24.39-.43.81-.73,1.16-.34.45-.74.81-1.09,1.21-.1.11-.2.23-.3.34-.49.77-.97,1.54-1.51,2.32-.15.22-.35.4-.49.62-.29.44-.8.66-.93,1.29-.09.41-.64.79-1.04,1.15-.85.72-1.7,1.39-2.55,2.12-.2.18-.35.4-.55.53-.4.31-.85.62-1.31.84-.51.22-1.07.4-1.58.52-1.28.23-2.29-.38-3.24-1-1.37-.86-2.1-2.31-2.77-3.68-.56-1.13-.76-2.45-.35-3.82.18-.63.21-1.28.45-1.87.38-.96.86-1.93,1.28-2.89.24-.54.42-1.06.72-1.56.53-.98,1.06-1.96,1.7-2.85.49-.72,1.08-1.36,1.73-1.9.75-.66,1.61-1.18,2.46-1.7.55-.38,1.17-.37,1.7-.04.9.58,1.9,1.14,2.2,2.25.18.68.37,1.5.13,2.14-.18.58-.15,1.38-.86,1.83-.05.06-.1.11-.1.16-.06,1.06-.86,1.78-1.45,2.51-1.03,1.3-2.23,2.52-3.37,3.74-.5.52-1.43.5-1.91.02-.21-.17-.48-.28-.69-.46-.09.26-.19.53-.23.79-.18.68-.31,1.35-.44,2.02-.27,1.14-.43,2.27.12,3.3.28.51.79.29,1.19.18,1.18-.27,2.24-.92,3.24-1.66.45-.31.96-.59,1.46-.91.05-.06.15-.12.15-.12-.08-.64.5-.52.8-.71.45-.31.8-.71,1.2-1.07.85-.72,1.7-1.39,2.55-2.07.5-.37,1-.74,1.51-1.12.05-.06.15-.02.36-.05-.5.42-.9.78-1.3,1.14.05.04.11.09.16.13.35-.25.76-.51,1.1-.81.4-.36.8-.71,1.2-1.07.2-.18.4-.41.6-.59v-.05Zm-12.95.17c-.09.26-.14.52-.23.79.05.04.11.09.16.13l1.5-1.42c.6-.59,1.19-1.22,1.79-1.81.25-.24.55-.38.75-.61.29-.39.53-.88.83-1.27.69-.9,1.07-1.86,1.08-2.91-.01-.35-.17-.43-.47-.18-.5.37-1,.74-1.45,1.16-.7.65-1.45,1.26-1.77,2.21-.09.36-.54.63-.94,1.04.27.36-.07.76-.42,1.16-.1.11-.14.27-.19.38-.24.49-.48.97-.67,1.45l.05-.11Zm8.48,3.02c.32.26.58.27.77-.06,0-.05,0-.1,0-.15-.25.09-.51.17-.76.26v-.05Zm4.88-4.75c.35-.35.7-.7,1.04-1.05-.08.51-.38.91-.99,1.04h-.05Z"/>
        <path class="cls-3" d="m280.89,104.93c.06.09.16.18.17.28-.02.86-.04,1.71-.11,2.58-.04.31-.08.71-.43.81.02.4.03.75.04,1.1,0,.05-.05.16-.1.16-.66.19-.44.71-.53,1.13-.09.31-.18.63-.27.94-.09.26-.14.52-.23.79-.19.53-.53,1.08-.51,1.58-.02.76-.57,1.28-.7,2.01-.08.56-.37,1.16-.55,1.73-.14.42-.22.89-.41,1.31-.57,1.19-1.2,2.33-1.78,3.46-.09.21-.14.47-.23.69-.53,1.13-1.05,2.26-1.58,3.38-.57,1.34-1.19,2.68-1.7,4.06-.19.48-.27.99-.72,1.36-.2.18-.45.31-.71.4-.3.14-.45.26-.39.66.06.19-.09.41-.13.62-.08.51.35,1.06-.25,1.54.32.31-.09.41-.23.64.47.23.49.58.19,1.03-.2.28-.03.66-.07.86-.23.79.31,1.31.28,2.02-.03.61.2,1.23.33,1.81.07.44.38.5.73.2.65-.54,1.35-1.09,1.9-1.72.79-.91,1.48-1.91,2.21-2.87.1-.11.25-.19.35-.25-.14.32-.29.64-.43.96,1.03,0,1.41-.9,2.01-1.54.15-.17.3-.29.45-.41.05.04.11.09.16.13-.93,1.39-1.86,2.77-2.78,4.21.32.21.22.42-.02.76-.54.73-1.03,1.5-1.57,2.23-.1.11-.25.24-.4.31-1.11.56-2.04.59-3-.13-1.28-.98-2.25-2.09-2.62-3.65-.19-.83-.12-1.69-.15-2.54,0-.05.05-.16.1-.16.56-.23.34-.45.13-.72-.11-.14-.02-.4.02-.81.16.23.22.32.27.41.05-.06.1-.06.1-.11.13-.77.25-1.54.38-2.31.04-.31.13-.57.12-.87,0-.2-.17-.38-.23-.57-.06-.24-.07-.49-.08-.74.05,0,.1-.01.15-.02.06.19.12.39.18.73.18-.83.35-1.56.53-2.28.36-1.51.71-3.06,1.07-4.57.31-1.25.63-2.5.94-3.75.45-1.82.84-3.63,1.29-5.4.45-1.67.96-3.35,1.41-5.02.18-.68.2-1.43.54-2.08.19-.38.28-.74.32-1.1.04-.31.03-.61.07-.91,0-.05,0-.1.05-.16.7-.65.61-1.54.89-2.33.52-1.38.98-2.8,1.49-4.18.09-.31.24-.54.66-.29.58.32,1.21.53,1.84.8.84.38,1.56,1.79,1.45,2.76-.04.21.07.39.13.58l-.03.51Zm-12.22,24.96c-.32-.16-.28-.46.22-1.03-.04.36-.08.71-.11,1.07l-.1-.04Zm.14,5.1c.04-.41.07-.81.11-1.22-.05,0-.1.01-.15.02-.04.41-.07.81-.11,1.22.1-.01.21-.03.31-.04l-.15.02Zm.35-7.13c-.05,0-.1.01-.15.02,0-.05-.06-.09-.06-.14.09-.36.18-.73.27-1.09.05,0,.1-.01.15-.02-.09.41-.18.83-.26,1.24h.05Zm.47,2.85c.14-.47.27-.94.41-1.41-.05,0-.1.01-.15.02-.19.43-.38.86-.57,1.29.05.04.11.09.16.13l.15-.02Zm.8-3.48c-.1.01-.21.03-.31.04l-.11,1.22c.05,0,.1-.01.15-.02.09-.41.18-.83.26-1.24Zm.44-6.14c-.14.37-.28.74-.42,1.11-.05,0-.1.01-.15.02.09-.36.18-.73.27-1.09.05,0,.1-.01.15-.02l.15-.02Zm8.67-12.32c-.06-.29-.02-.6-.03-.9-.05,0-.1.01-.15.02-.08.51-.17,1.03-.25,1.54-.1.01-.21.03-.31.04.23-1.99.67-4.01-.07-6.01-.28.69-.57,1.23-.76,1.81-.14.37-.13.77-.22,1.13-.27.94-.6,1.89-.92,2.84-.28.84-.55,1.73-.88,2.58-.33.85-.71,1.71-1.04,2.56-.05.16-.04.36-.03.51-.2.23-.49.57-.44.71.28.46.08.74-.32,1.1-.15.12-.19.38-.24.59-.14.42-.23.84-.31,1.25-.05.06.06.19.01.3-.32,1.1-.85,2.18-.65,3.35,0,.05-.05.11-.1.16-.3.34-.59.69-.94,1.09.16.03.31.06.47.08-.05.06-.1.11-.15.17-.15.07-.3.14-.46.21.11.19.17.33.17.33-.19.38-.44.66-.48.97-.04.26.17.53.29.81,0,0,.05-.06.1-.11.48-.97.96-1.94,1.49-2.87.29-.49.37-1.11.98-1.39.39-.56.84-1.07,1.12-1.66.19-.33.29-.49.66-.29.05-.16.09-.26.09-.36,0-.25-.12-.53-.03-.7.34-.65.25-1.54,1.17-1.87.05,0,.1-.11.15-.17.19-.38.38-.76.06-1.16.21-.03.46-.02.46-.07.19-.53.53-1.13.45-1.62-.07-.49.08-.56.39-.71-.06-.19-.17-.43-.13-.58.19-.53.43-1.01.61-1.54.05-.16.19-.38.14-.42-.38-.5.22-.99.1-1.47v-.25Zm-7.38,10.83c-.14.52-.22.94-.31,1.35l.15-.02c.14-.27.29-.54.43-.81-.06-.14-.12-.34-.23-.57l-.05.06Zm1.2,4.35c.4-.46.74-.96.98-1.49.1-.21.08-.51.13-.77-.38.76-.77,1.51-1.15,2.27h.05Zm3.69,11.68c-.39.66-.78,1.31-1.43,1.81.39-.66.78-1.31,1.16-1.97.05.04.11.09.16.13l.1.04Zm.55-20.86c.18-.58.37-1.16.55-1.73l.15-.02c-.24.59-.47,1.17-.71,1.76-.05,0-.1.01-.15.02l.15-.02Z"/>
        <path class="cls-3" d="m295.14,129.63c-.05-.04-.11-.09-.16-.13.09-.26.19-.53.28-.79-.05,0-.1.01-.15.02-.63,1.09-1.26,2.19-1.89,3.28-.05.06.06.19.17.48.58-.99,1.12-1.81,1.66-2.64.05,0,.1-.01.15-.02-.03.46-.07.91-.1,1.42.15-.07.25-.09.36-.1-.05.11-.05.16-.1.21-.44.61-.83,1.22-1.01,2-.22.93-.91,1.83-1.39,2.76-.34.6-.62,1.24-1.02,1.8-.39.56-.89,1.08-1.39,1.55-.6.54-1.59.17-2.03-.37-.76-.95-1.52-1.89-1.77-3.11-.25-1.12-.7-2.21-.44-3.45.04-.26-.12-.53-.13-.83-.01-.3.08-.61.07-.91,0-.2-.07-.39-.13-.68-.34.65-.58,1.14-.82,1.62-.16-.03-.26-.06-.26-.06-.09.36-.13.67-.27.94-.63,1.19-1.25,2.34-1.88,3.48-.15.22-.34.45-.49.67-.29.44-.53.93-.83,1.37-.54.73-1.08,1.46-1.62,2.19-.25.34-.54.63-.79.96-.94,1.19-2.29.77-2.85-.25-.22-.37-.39-.75-.66-1.11-.54-.68-.73-1.5-.55-2.38.17-.93.39-1.86.72-2.76.71-1.81,1.46-3.62,2.27-5.39.86-1.83,1.77-3.66,2.68-5.5.24-.49.58-.94.93-1.39.05-.11.36-.15.46-.12.74.5,1.38,1.06,2.17,1.5.63.36.81.99,1.14,1.55.22.32.43.34.67-.04.34-.55.73-1.11,1.07-1.66.1-.16.09-.41.13-.62-.05-.04-.11-.09-.16-.13.14-.32.29-.64.48-1.02.58.42,1.17.84,1.75,1.26,1.01.76.85,1.99.69,3.12-.16,1.23-.53,2.43-.79,3.68-.17.93-.39,1.86-.46,2.78-.11,1.12-.07,2.22-.08,3.32.05,0,.1-.01.15-.02.1-.11.2-.18.3-.29.44-.61.88-1.23,1.32-1.84.15-.22.24-.49.6-.39.1.04.35-.25.5-.42.15-.17.19-.38.34-.5.3-.29.14-.42-.17-.53.1-.16.19-.33.34-.6.06.24.07.39.13.68.88-1.33,1.66-2.54,2.49-3.81.27.26.88.03.85.58,0,.25-.24.54-.38.81l-.11-.14Zm-13.35,3.18c.68-1.1,1.36-2.2,2.04-3.3.68-1.1.18-2.08.04-3.07-.05-.04-.11-.09-.16-.13-.39.56-.83,1.12-1.23,1.68-.34.55-.58,1.14-.92,1.69-.58.99-1.43,1.86-1.48,3.07,0,.15-.14.32-.24.49-.43.86-.92,1.74-1.3,2.59-.09.26.02.6.04.95.86-.52,1.78-2.01,1.66-2.44.2-.13.4-.26.55-.43.29-.39.59-.79.83-1.17l.16.08Zm4.61-4.97c.65-.64.67-1.45.9-2.18-.05-.04-.11-.09-.16-.13-.24.44-.49.82-.68,1.25-.29.59-.52,1.18-.81,1.72-.24.49-.58.94-.88,1.38-.25.34-.49.67-.73,1.06-.39.66-.78,1.31-1.16,1.97-.1.16-.09.36-.13.57.25-.14.4-.31.5-.47.39-.56.73-1.16,1.12-1.71.15-.22.45-.41.54-.68.38-.91,1.12-1.71,1.34-2.7,0-.05.1-.11.15-.17v.1Zm7.87.7c-.29.44-.59.89-.88,1.38-.05-.04-.11-.09-.16-.13.29-.44.59-.89.88-1.33.05.04.11.09.16.13v-.05Z"/>
      </g>
    </g>
  </g>
</svg>