<?xml version="1.0" encoding="utf-8"?>
<!-- Generator: Adobe Illustrator 27.4.0, SVG Export Plug-In . SVG Version: 6.00 Build 0)  -->
<svg version="1.1" id="Layer_1" xmlns="http://www.w3.org/2000/svg" xmlns:xlink="http://www.w3.org/1999/xlink" x="0px" y="0px"
	 viewBox="0 0 506 279" style="enable-background:new 0 0 506 279;" xml:space="preserve">
<style type="text/css">
	.st0{clip-path:url(#SVGID_00000097498856652576831110000000817474912178018706_);}
	.st1{fill:#FFFFFF;filter:url(#Adobe_OpacityMaskFilter);}
	.st2{mask:url(#mask0_1125_1462_00000044179785411697092580000017547163619691359654_);}
	.st3{fill:#0A483A;}
	.st4{fill:#FFFFFF;filter:url(#Adobe_OpacityMaskFilter_00000108267407061983668360000005322312999243738286_);}
	.st5{mask:url(#mask1_1125_1462_00000069356444335541483720000011357263898906555829_);}
	.st6{fill:#FFFFFF;filter:url(#Adobe_OpacityMaskFilter_00000134220138772200305120000002193323961020133309_);}
	.st7{mask:url(#mask2_1125_1462_00000063614927381260475130000012749174829671899824_);}
	.st8{fill:#FFFFFF;filter:url(#Adobe_OpacityMaskFilter_00000143588784648611796980000000637663934354275005_);}
	.st9{mask:url(#mask3_1125_1462_00000145024711170506382730000000381093202568925605_);}
	.st10{fill:#FFFFFF;filter:url(#Adobe_OpacityMaskFilter_00000089558525007274082550000014819427992073830021_);}
	.st11{mask:url(#mask4_1125_1462_00000174597451687427143770000017158340494584227236_);}
	.st12{fill:#FFFFFF;filter:url(#Adobe_OpacityMaskFilter_00000071517757328236189790000009067351282378328748_);}
	.st13{mask:url(#mask5_1125_1462_00000085940543912491677710000012060073208341427641_);}
	.st14{fill:#FFFFFF;filter:url(#Adobe_OpacityMaskFilter_00000039120010688830563370000003920544103611863941_);}
	.st15{mask:url(#mask6_1125_1462_00000009567100685486438760000006550451613638844309_);}
	.st16{fill:#FFFFFF;filter:url(#Adobe_OpacityMaskFilter_00000075861334382836501660000002110400076096378542_);}
	.st17{mask:url(#mask7_1125_1462_00000047771736111379765380000016547093367645464727_);}
	.st18{fill:#FFFFFF;filter:url(#Adobe_OpacityMaskFilter_00000139291475589425724650000003811486274175765684_);}
	.st19{mask:url(#mask8_1125_1462_00000113310846177757536580000010223113056253097113_);}
	.st20{fill:#FFFFFF;filter:url(#Adobe_OpacityMaskFilter_00000057855785744470723050000006567590606230206859_);}
	.st21{mask:url(#mask9_1125_1462_00000036237426910017283410000018156730974316937919_);}
	.st22{fill:#FFFFFF;filter:url(#Adobe_OpacityMaskFilter_00000008116331087414245670000015909838306220871555_);}
	.st23{mask:url(#mask10_1125_1462_00000043425069258617607960000006348618294325977246_);}
	.st24{fill:#FFFFFF;filter:url(#Adobe_OpacityMaskFilter_00000155115961391018385350000001145868584582545542_);}
	.st25{mask:url(#mask11_1125_1462_00000079464985821113379420000011062631753598178219_);}
	.st26{fill:#FFFFFF;filter:url(#Adobe_OpacityMaskFilter_00000023972037092607360060000016171373786943282081_);}
	.st27{mask:url(#mask12_1125_1462_00000159430543573609598750000013243520491572947077_);}
	.st28{fill:#FFFFFF;filter:url(#Adobe_OpacityMaskFilter_00000098202142670452469730000006841935871062194837_);}
	.st29{mask:url(#mask13_1125_1462_00000057125289602434087850000000325866089000876688_);}
	.st30{fill:#FFFFFF;filter:url(#Adobe_OpacityMaskFilter_00000112615621250399136670000010433874928512006566_);}
	.st31{mask:url(#mask14_1125_1462_00000034070497044188071270000007778158174533297564_);}
	.st32{fill:#FFFFFF;filter:url(#Adobe_OpacityMaskFilter_00000009571808595739264720000008005642530790372014_);}
	.st33{mask:url(#mask15_1125_1462_00000179611515344486649870000001632295508114997152_);}
	.st34{fill:#FFFFFF;filter:url(#Adobe_OpacityMaskFilter_00000032626550260248779930000017578495358892237236_);}
	.st35{mask:url(#mask16_1125_1462_00000113345193850796987830000009767518092315987079_);}
	.st36{fill:#FFFFFF;filter:url(#Adobe_OpacityMaskFilter_00000097475311751867866450000016093828332295814552_);}
	.st37{mask:url(#mask17_1125_1462_00000070822677673165973470000003096103840487115455_);}
</style>
<g>
	<defs>
		<rect id="SVGID_1_" x="37" y="20.4" width="432" height="238.2"/>
	</defs>
	<clipPath id="SVGID_00000054262662290912432840000014544928915196736944_">
		<use xlink:href="#SVGID_1_"  style="overflow:visible;"/>
	</clipPath>
	<g style="clip-path:url(#SVGID_00000054262662290912432840000014544928915196736944_);">
		<defs>
			<filter id="Adobe_OpacityMaskFilter" filterUnits="userSpaceOnUse" x="58.7" y="28.2" width="87" height="121.8">
				<feColorMatrix  type="matrix" values="1 0 0 0 0  0 1 0 0 0  0 0 1 0 0  0 0 0 1 0"/>
			</filter>
		</defs>
		
			<mask maskUnits="userSpaceOnUse" x="58.7" y="28.2" width="87" height="121.8" id="mask0_1125_1462_00000044179785411697092580000017547163619691359654_">
			<path class="st1" d="M469,20.4H37v238.2h432V20.4z"/>
		</mask>
		<g class="st2">
			<path class="st3" d="M145.4,28.2c0.4,0.6,0.3,1.6,0.2,2.3c-0.2,1.4-0.2,2.9-0.9,4.2c-1,2-0.9,4-1.4,6.1c-0.3,1.2-0.5,2.4-1.4,3.5
				c-0.2,0.3-0.1,0.8-0.2,1.4c0,0,0.1,0.2,0.3,0.3c-0.1,0.1-0.2,0.2-0.3,0.2c-0.6,0.3-0.8,0.5-0.5,1c0.1,0.4-0.2,1-0.4,1.5
				c-0.2,1.5-0.3,3-2,4.4c1.1,0.3,0.9,0.7,0.7,1.5c-0.5,1.5-0.7,3.1-1.1,4.6c-0.3,1.1-0.9,2.2-1.3,3.4c-0.1,0.2-0.2,0.4-0.2,0.6
				c-0.4,1.6-0.7,3.3-1.1,4.9c-0.2,0.6-0.7,1.3-1.2,2c0.1,0.1,0.3,0.3,0.6,0.5c-0.3,0.2-0.7,0.5-1,0.7c0.1,0,0.2,0,0.3-0.1
				c-0.4,1.4-0.8,2.9-1.2,4.2c-0.3,1.2-0.5,2.4-0.8,3.6c-0.2,0.7-0.7,1.4-0.9,1.8c-0.3,0.9-0.6,1.8-1,2.6c0,0.1-0.1,0.2-0.1,0.3
				c-0.3,1.4-0.6,2.8-1,4.2c-0.3,1.1-0.7,2.2-1.2,3.3c-0.4,1.3-1,2.7-1.5,4c-0.3,0.8-0.7,1.6-1.1,2.5c-0.2,0.4-0.4,0.8-0.7,1.3
				c0.3,1.4,0.1,2.3-1.5,4.6c0.3,0.1,0.5,0.3,0.7,0.5c-0.1,0.1-0.1,0.2-0.2,0.3c-0.1,0.2-0.5,0.5-0.5,0.6c-0.1,1-0.3,1.9-0.7,2.9
				c-0.4,1-0.9,1.8-1.2,2.8c-0.2,0.6-0.3,1.3-0.5,2c-0.2,0.9-0.5,1.8-0.8,2.7c-0.6,1.8-1.3,3.5-1.9,5.2c-0.6,1.6-1.2,3.3-1.7,4.9
				c-0.7,2.1-1.5,4.3-2.2,6.4c-0.5,1.5-1.2,3-1.8,4.4c-0.7,1.8-1.5,3.5-2.2,5.2c-0.1,0.2-0.2,0.4-0.3,0.6c-1,1.3-2,2.6-3.1,3.9
				c-0.5,0.6-1,1-1.8,0.9c-1.3-0.3-2.7-0.2-3.6-1.2c-0.3-0.3-1.1-0.1-1.6-0.4c-2.3-1-3.6-2.8-5-4.5c-0.5-0.7-0.5-1.7-0.8-2.5
				c-0.7-2.1-1.5-4.2-2-6.3c-0.5-1.7-1-3.4-1.3-5.2c-0.6-3.3-1.2-6.5-1.6-9.8c-0.5-3.4-1-6.7-1.4-10.1c-0.3-2.4-0.5-4.8-0.8-7.3
				c0-0.4,0.1-0.8,0.2-1.3c0.5,0.1,0.8,0.2,1.4,0.3c-0.1-0.5-0.3-0.8-0.4-1.3c-0.5,0.3-0.8,0.4-1.4,0.7c-0.3-11.4-0.5-22.7-0.8-33.9
				c-0.1,0-0.2,0-0.3,0.1c-0.3,0.6-0.7,1.2-1,1.9c-0.3,0.5-0.7,1.1-0.9,1.6c-0.1,0.3,0,0.7-0.1,1c-0.5,1.4-1.2,2.6-1.8,3.8
				c-0.2,0.4-0.3,0.9-0.4,1.4c-0.5,1.6-1,3.3-1.4,4.8c-0.4,1.2-1.2,2.4-1.8,3.5c-0.2,0.4-0.1,0.9-0.2,1.3c-0.6,1.6-1.4,3.3-2,5
				c-0.3,0.7-0.4,1.5-0.6,2.3c-0.1,0.3-0.2,0.6-0.3,0.9c-0.6,1.8-1.2,3.5-1.9,5.1c-0.4,1-0.9,2-0.6,3c0.1,0.3-0.3,0.7-0.5,1.2
				c-0.4,1-0.9,2-1.3,3.1c-0.1,0.3-0.2,0.6-0.2,0.9c-0.1,0.9-0.6,1.8-0.5,2.7c0.1,0.9-0.4,1.9-0.7,2.9c-0.3,1-0.6,2-1,3.1
				c-0.3,1.1-0.7,2.2-1,3.3c-0.3,1.1-0.5,2.3-0.7,3.5c-0.3,1.9-0.5,3.8-0.7,5.6c-0.3,2.4-0.5,4.8-0.6,7.1c-0.1,2.6-0.1,5.1,0.1,7.6
				c0.1,1.6,0.6,3.3,1,4.9c0.1,0.7,0.3,1.4,0.5,2c0,0.1,0.1,0.3,0,0.4c-0.7,0.5-1.2,1.3-2.1,1.6c-0.6,0.3-1.7,0-2.2-0.3
				c-1.7-1.1-1.9-2.9-2.6-4.5c-1.4-3.1-1.6-6.6-1.4-10c0.2-3.5,0.4-6.9,0.7-10.3c0.1-1.9,0.7-3.7,1.1-5.5c0.6-2.7,1.2-5.4,1.9-8.2
				c1.2-4.2,2.2-8.5,3.6-12.8c1.4-4.5,3.1-8.8,4.6-13.3c1.1-3,2-6,3.1-9c0.9-2.2,1.8-4.5,2.7-6.8c0.5-1.5,0.8-3.1,1.2-4.6
				c0.1-0.4,0.4-0.8,0.5-1.2c0.2-0.9,0.3-1.8,0.6-2.7c0.3-1.1,0.7-2.2,1.2-3.3c0.7-1.6,1.3-3.1,2-4.6c0.1-0.3,0.3-0.6,0.5-0.7
				c3.4-1.1,6.5-0.8,9.3,0.8c0.5,0.3,0.5,1,0.5,1.6c0.3,3,0.5,6,0.6,9.1c0.1,2-0.1,3.9,0,5.9c0.1,1.6,0.3,3.1,0.2,4.7
				c0,2.9-0.1,5.7-0.1,8.5c0.1,1.2,0.2,2.3,0.1,3.5c-0.1,1.7-0.2,3.3-0.1,4.9c0.1,1.3,0.5,2.5,0.5,3.7c0.1,1-0.1,2-0.1,2.9
				c0,0.7,0.3,1.4,0.3,2c0.3,3.1,0.4,6.2,0.7,9.3c0.1,1.3,0.3,2.5,0.5,3.7c0.3,2,0.7,4,1,6.1c0.5,2.2,0.8,4.4,1.2,6.6
				c0.6,2.4,1.2,4.8,1.9,7.1c0.5,2.1,1.2,4.1,2,6.1c0,0.2,0.1,0.4,0.4,0.7c0.4-1,0-2.2,1.8-2.2c-0.2,1-0.4,1.9-0.7,3.1
				c0.5-0.5,0.8-0.7,0.9-1c0.9-2,1.8-3.9,2.6-5.9c0.8-2.4,1.6-4.7,2.4-7c0.2-0.6-0.2-1.6,1.4-1.7c0.1,0,0.5-0.7,0.5-0.7
				c-0.5-0.6,0.3-1.1,0.5-1.6c0.1-0.2,0.2-0.5,0.1-0.7c-0.4-0.7,0.2-1.4,0.9-2c0,0.3,0,0.6,0.1,0.9c0.5-0.5,1.8-1.1,0.3-1.8
				c-0.3-0.1-0.1-0.7,0.3-1.2c0,0.4,0.1,0.7,0.1,1.2c0.2-0.4,0.4-0.8,0.7-1.4c-0.5-0.1-0.7-0.1-1.2-0.1c0.3-0.7,0.4-1.7,1-2
				c1-0.6,1-1.4,1.4-2.1c0.3-0.6,0.7-1.2,0.9-1.8c0.2-0.6,0.3-1.2,0.5-1.8c0.2-0.7,0.7-1.4,0.9-2c0.2-0.7,0.2-1.5,0.4-2.2
				c0.6-2.1,1.4-4.3,2.1-6.4c1-2.8,1.8-5.5,2.7-8.2c0.6-1.9,1.4-3.9,2-5.8c0.7-2.1,1.5-4.3,2.2-6.4c0.3-0.8,0.9-1,1.6-0.7
				c-0.5,1-1.1,2-1.6,2.9c-0.3,0.7-0.9,1.5-0.3,2.3c0.3,0.3-0.3,1-0.5,1.5c-0.1,0.4-0.2,0.8-0.5,1.4c-1.5,1-0.7,2.5-0.7,4.2
				c0.3-0.3,0.7-0.5,0.8-0.7c0.6-1.9,1.3-3.9,1.9-5.8c0.5-1.5,1.1-3.1,1.6-4.7c-0.2,0-0.6,0-1-0.1c1.6-0.5,1.5-1.4,1.8-2.5
				c0.3-1.3,0.8-2.7,1.4-4.2c-0.6,0.3-1,0.4-1.3,0.5c-0.1-0.1-0.3-0.1-0.3-0.3c0.2-0.2,0.5-0.5,0.8-0.7c1-0.5,1.3-1.2,0.6-1.8
				c-0.6-0.7-0.2-1.4,0.6-1.6c1-0.3,1-0.8,1-1.3c0.2-0.6,0.4-1.2,0.5-1.8c0.1-0.4,0.1-0.9,0.2-1.4c0-0.2,0-0.4,0.1-0.5
				c1.5-1.2,0.6-2.7,1.4-4.1c0.1-0.2-0.4-0.6-0.6-1c0.1-0.4,0.3-0.9,0.5-1.5c0.3,0.1,0.5,0.3,1,0.5c0.2-0.7,0.7-1.4-0.5-1.4
				c-0.4-1.2,0.5-2,1.3-3c0.8-1,1.1-2.2,1.5-3.3c0-0.1-0.5-0.4-0.9-0.5c-0.3-0.1-0.7,0.2-0.8,0.4c-0.3,0.8-0.5,1.6-0.8,2.5
				c-0.6,1.8-1.3,3.7-1.8,5.6c-0.3,0.9-0.5,1.9-0.7,2.9c-0.1,0.4-0.2,0.7-0.5,1c-0.3-0.5-0.5-1.1-0.1-1.8c0.3-0.6,0.4-1.3,0.6-2
				c0.5-1.8,1-3.7,1.6-5.4c0.2-0.9,0.5-1.8,0.6-2.7c0.1-0.3-0.3-0.7-0.4-1c-0.3,0.2-0.7,0.5-1,0.8c0-0.4,0-0.7-0.1-1.1
				c0.3-0.1,0.7-0.1,1.1-0.1c0.7-0.1,1.1-0.3,1.2-0.9c0.3-1.8,0.7-3.5,1.1-5.2c0.1-0.5,0.7-1,0.7-1.4s-0.4-1-0.7-1.5
				c0.3,0,0.5-0.1,1.2-0.2c-0.6-0.4-1-0.7-1.5-1.2c0.3-0.1,0.8-0.1,1.6-0.2c-0.1-0.4-0.1-0.9-0.4-1.2c-0.1-0.2-0.7,0-1.3,0.1
				c0.4-1.2,1.3-2.6,0.1-3.9c-0.7,0.9,0.3,2.2-1.7,2.7c0.9-1.7,0.5-3.2,0.4-4.8c0-0.4-0.1-1,0.1-1c0.7-0.2,1.6-0.5,2-0.2
				c1.2,0.5,2.4,0.1,3.5-0.1c1.6-0.3,3.1-0.3,3.7,0.7L145.4,28.2z M61.2,120.7c-0.3,2.6-0.5,4.8-0.7,7.3
				C61.6,127,62.1,121.8,61.2,120.7z M62.5,120.3c0.5-2.6,1-5.2,1.4-7.8c-0.3,0.1-0.7,0.1-1.1,0.1c0,0.2,0,0.4,0,0.6
				c0,0.3-0.1,0.6-0.2,0.9c-0.2,0.9-0.4,1.8-0.6,2.7c-0.1,0.5-0.3,1-0.4,1.5c-0.1,0.7-0.7,1.4,0.1,2C62,120.3,62.3,120.3,62.5,120.3
				z M63.4,121.3c1-1.3,0.3-2.8,1-4.2c-0.1,0-0.2,0-0.3,0.1c-0.4,1.4-0.8,2.9-1.2,4.3c0.1,0,0.2,0,0.3-0.1L63.4,121.3z M63.9,112.5
				c1.2-0.7,0.5-1.6,0.8-2.4c-0.1,0-0.3-0.1-0.3-0.1c-0.3,0.3-0.7,0.7-0.8,0.7c0.1,0.7,0.3,1.4,0.5,1.9L63.9,112.5z M79.5,67.3
				c0.8-2.4,1.7-4.8,2.5-7.2c-0.1,0-0.3,0-0.3,0.1c-0.1,0.1-0.2,0.2-0.2,0.3c-1.1,2.5-2.2,5-3.3,7.4c-0.9,2.2-1.8,4.4-2.6,6.5
				c-1.2,3.3-2.2,6.5-3.4,9.8c-1,2.7-2.2,5.4-3.1,8.2c-0.5,1.4-0.6,2.7-1,4s-1.1,2.6-1.5,3.9c-0.6,1.9-1.2,3.9-1.6,5.8
				c-0.2,0.9-0.5,1.7-0.7,2.7c0,0.2,0.4,0.5,0.7,0.8c0.4-1,0.7-1.8,1-2.7c1.2-3.9,2.2-7.7,3.4-11.6c0.8-2.5,1.9-5.1,2.8-7.7
				c0.3-1,0.4-2,0.7-3c0.4-1.2,1-2.2,1.4-3.3c0.4-1.2,0.7-2.5,1.2-3.7c0.4-1.2,1-2.2,1.4-3.4c0.9-2.2,1.7-4.5,2.6-6.7L79.5,67.3z
				 M66.3,109.4c-0.1,0-0.2,0-0.3,0.1c-0.5,1.9-1,3.8-1.6,5.8c0.1,0,0.2,0,0.3-0.1C65.3,113.3,65.8,111.4,66.3,109.4z M72.1,91
				c-0.1,0-0.2,0-0.3,0.1c-0.4,1-0.9,2-1.3,3.1c0.1,0,0.2,0,0.3-0.1C71.2,93,71.6,92,72.1,91z M88.5,92.2c0.1-1.1,0.1-2.2,0.2-3.3
				c-1.2,1.4-1.2,3.2-0.1,3.3L88.5,92.2z M90.3,97.2c-0.2-1.6-0.4-3.1-0.5-4.8C88.9,93.6,89.1,95.5,90.3,97.2z M106.7,126.8
				c0.7,0.9-0.8,5-2.2,5.9c0.7-2,1.5-4,2.2-6.1V126.8z M107.5,124.1c1-2.4,1.8-4.5,2.7-6.7C110.8,118,108.9,123.4,107.5,124.1z
				 M110.7,117c-0.3-0.1-0.5-0.1-0.7-0.2c0.5-1.2,1.1-2.4,1.6-3.7c0.3,0.1,0.5,0.1,0.7,0.2C111.8,114.5,111.3,115.7,110.7,117z
				 M112.4,123.1c0.2-0.5,1.4-1,0.1-1.8c-0.2,0.7-0.3,1.2-0.4,1.7c0.1,0,0.2,0,0.3-0.1V123.1z M114.9,118c0.2-0.6,1.4-1.2,0.5-1.8
				c0.2-0.5,0.4-0.8,0.5-1.2c0-0.1-0.4-0.3-0.4-0.3c-0.3,0.2-0.7,0.5-1,0.8c-0.1,0.1-0.1,0.3-0.1,0.4c-0.3,0.9-0.6,1.8-1,2.7
				c-0.2,0.7-0.4,1.4-0.6,2.1c0.1,0,0.2,0,0.3-0.1c0.1-0.1,0.3-0.2,0.5-0.3c0.5-0.7,1-1.5,1.2-2.2L114.9,118z M114.1,107.2
				c-0.1,0-0.2,0-0.3,0.1c0.3-0.8,0.6-1.6,1-2.4c0.1,0,0.2,0,0.3-0.1C114.8,105.5,114.5,106.4,114.1,107.2z M116.4,114.4
				c0.1-0.6,0.2-1.1,0.3-1.6c-0.2,0-0.6,0.1-0.7,0.2c-0.3,0.4-0.5,1,0.5,1.3L116.4,114.4z M117.5,111.9c0.5-0.3,0.7-0.7,1-1.2
				c-0.1,0-0.2,0-0.3,0.1c-0.6,0.3-1.2,0.5-2.1,1c0.5,0.1,1.1,0.5,1.4,0.4L117.5,111.9z M118.4,109.8c0.2-0.5,0.4-1,0.7-1.6
				c-0.1-0.1-0.3-0.1-0.3-0.3c-0.3,0.3-1,0.6-1,0.9c-0.1,0.3,0.3,0.7,0.4,1C118.3,109.8,118.4,109.8,118.4,109.8L118.4,109.8z
				 M123,97.2c0.5-1.6,1-3.3,1.6-4.9c-1.8,0-2,0.1-2.3,1.8c0.3,0.1,0.7,0.1,1.1,0.1c-0.2,0.1-0.5,0.3-0.7,0.5
				c-0.2,0.1-0.5,0.3-0.7,0.4c0.1,0.2,0.3,0.3,0.4,0.5c0.1,0.2,0.3,0.3,0.5,0.7c-1.6-0.1-2,0.6-2.2,3.2c0.3-0.1,0.7-0.3,1.2-0.5
				c-0.3,0.3-0.5,0.6-0.7,0.7c-1.2,0.6-1.4,1.5-1.3,2.5c0,0.2-0.1,0.4-0.2,0.6c-0.5,1.4-1.1,2.7-1.6,4.1c1.4,0.2,1.5-0.7,1.8-1.3
				c0.5-0.7,0.7-1.4,1.1-2.2c0.1-0.2,0.3-0.4,0.3-0.5c-0.4-1.2,0.4-2.2,1-3.3c0.4-0.8,0.5-1.8,0.8-2.7L123,97.2z M122.4,83.5
				c0.6,0.9,0.5,1.2-0.7,2.1c0.2-0.8,0.4-1.4,0.6-2.2L122.4,83.5z M123.8,80.4c-0.4,0.8-0.9,1.7-1.3,2.5c-0.1-0.1-0.3-0.1-0.3-0.3
				c0.3-0.8,0.6-1.6,1-2.5c0.1,0.1,0.3,0.1,0.3,0.3L123.8,80.4z M123.7,82.2c0.7-2,1.5-4.1,2.2-6.3
				C126.5,76.8,124.9,81.2,123.7,82.2z M124.9,91.2c0.3-1.1,0.6-2.2,1-3.5c-0.6,0.1-1,0.3-1.3,0.4c0.1,0.1,0.3,0.1,0.3,0.3
				c-0.3,0.4-0.9,0.9-1,1.3c-0.1,0.5,0.3,1,0.5,1.5c0.1,0,0.2,0,0.3-0.1L124.9,91.2z M127.8,68.6c-0.3,0.6-0.7,1.2-1,1.9
				c-0.3-0.1-0.5-0.1-0.7-0.2c0.2-0.6,0.4-1.2,0.6-1.8c0.3,0.1,0.5,0.1,0.7,0.2L127.8,68.6z M129.6,73.7c-0.1,0-0.6,0.1-1.1,0.3
				c-0.1-0.2-0.3-0.3-0.3-0.3c0.4-1.3,0.8-2.7,1.2-3.9c0.6-1.8,1.3-3.7,1.9-5.5c0.1-0.3,0.3-0.6,0.4-1c0.3,0.1,0.7,0.3,0.9,0.4
				c-0.3,0.6-0.7,1.2-0.9,1.7c-0.5,1.5-1.1,3.1-1.5,4.6c-0.3,1.2-0.5,2.5-0.7,4L129.6,73.7z M132.6,62.7c-0.2,0-0.5,0.1-0.7,0.1
				c0.3-1.1,0.6-2.2,1-3.3c0.2,0,0.5-0.1,0.7-0.1C133.2,60.6,132.9,61.6,132.6,62.7z M133.2,48c-0.2,0.8-0.4,1.6-0.6,2.5
				c-0.1,0-0.2,0-0.3,0.1c0.2-0.8,0.4-1.6,0.6-2.5c0.2,0,0.5-0.1,0.7-0.1H133.2z M133,72.1c0.2-0.6,0.4-1.2,0.6-1.8
				c-0.2,0-0.5,0.1-0.7,0.1c-0.2,0.7-0.4,1.4-0.6,2.1c0.1,0,0.2,0,0.3-0.1L133,72.1z M137.2,37.7c1.7,1.1-0.3,1.7,0,2.5
				c-0.1,0-0.3,0-0.3,0.1c0.1-0.7,0.2-1.4,0.3-2.4V37.7z M138.1,45.2c1.6-0.2,1.9-0.8,2.1-3.1c-0.5,0.1-1.2,0.2-1.3,0.5
				c-0.5,1.2-1,2.2-1.5,3.5c0.7,0,1.2-0.1,1.7-0.1c0-0.1,0-0.2,0-0.3C138.8,45.7,138.6,45.5,138.1,45.2L138.1,45.2z M138.8,51.8
				c-0.1,0-0.3,0-0.3,0.1c-0.2,0.6-0.4,1.2-0.6,1.8c0.2,0,0.5-0.1,0.7-0.1C138.6,52.9,138.6,52.3,138.8,51.8z"/>
		</g>
		<defs>
			
				<filter id="Adobe_OpacityMaskFilter_00000163046960572737245710000009198389942925859488_" filterUnits="userSpaceOnUse" x="83.8" y="130.6" width="99.1" height="116">
				<feColorMatrix  type="matrix" values="1 0 0 0 0  0 1 0 0 0  0 0 1 0 0  0 0 0 1 0"/>
			</filter>
		</defs>
		
			<mask maskUnits="userSpaceOnUse" x="83.8" y="130.6" width="99.1" height="116" id="mask1_1125_1462_00000069356444335541483720000011357263898906555829_">
			<path style="fill:#FFFFFF;filter:url(#Adobe_OpacityMaskFilter_00000163046960572737245710000009198389942925859488_);" d="
				M469,20.4H37v238.2h432V20.4z"/>
		</mask>
		<g class="st5">
			<path class="st3" d="M105.8,234.8c0.6-0.3,1.2-0.6,1.8-1c0.8-0.5,1.5-1.1,2.2-1.6c-0.7,0.7-1.4,1.5-2,2.3c-1.5,1.6-3.1,3-4.6,4.6
				c-0.2,0.2-0.2,0.6-0.2,1c1.4-1.4,2.9-2.4,4.8-3c0.1,0.1,0.3,0.1,0.3,0.3c-1,0.7-1.8,1.4-2.8,2.1c0.1,0.1,0.3,0.1,0.3,0.3
				c0.3-0.1,0.7-0.3,1.1-0.4c0,0.1,0,0.2,0,0.3c-0.3,0.3-0.7,0.7-1,1c0-0.1,0-0.2,0-0.3c-0.6,0-1.2-0.1-1.8,0.1
				c-0.1,0-0.1,0.7-0.2,1.2c-0.6,0.3-1.4,0.5-2.2,0.8c0,0.1,0,0.2,0,0.3c0.3-0.1,0.7-0.1,1.2-0.1c-0.1,0.2-0.1,0.3-0.2,0.3
				c-3.1,1.6-6.2,2.5-9.7,1.5c-2.5-0.7-4.4-1.8-6.1-3.4c-3.1-2.9-2.9-6.5-2.4-10.3c0.2-1.5,0.6-3,1-4.5c0.3-1.4,0.6-2.8,1-4.2
				c0.2-0.7,0.7-1.4,1-2c0.2-0.7,0.7-1.4,0-2c0-0.1,0-0.3,0-0.4c1.2-1.5,0.7-3.7,3.1-4.8c0.3-0.1,0.5-0.7,0.9-1.1
				c-0.1,0.6-0.2,1.2-0.3,1.8c0.1,0,0.2,0,0.2,0c0.9-1.8,1.8-3.5,2.7-5.3c-0.3-0.1-0.5-0.1-0.7-0.2c-0.2,0.3-0.5,0.6-0.7,1.1
				c0.1-1,0.1-1.9,0.2-2.8c-0.1,0-0.3,0-0.3,0.1c0.2-0.1,0.5-0.3,0.8-0.5c0.1,0.7,0.3,1.4,0.5,2.3c1.1-1.7,2.1-3.2,3.1-4.7
				c0.1-0.3,0.2-0.6,0.3-0.9c0.1-0.3,0.1-0.6,0.2-0.9c0.1-0.5,0.2-1,0.5-1.4c0.2-0.3,0.8-0.4,1.4-0.7c-0.8-0.2-1.4-0.3-2-0.5
				c0,0,0.2-0.3,0.5-0.7c0.3,0.3,0.4,0.5,0.5,0.8c0.5-0.6,0.8-1.1,1.2-1.6c0.1-0.1,0.1-0.3,0.1-0.5c0.3-1.1,1.1-1.9,2.3-2.3
				c0,0.2,0,0.4,0,0.6c0.2,0,0.6,0,0.6-0.1c0.7-1.1,1.4-2.2,2-3.3c-0.1,0-0.2,0-0.3,0.1c-0.7,0.7-1.4,1.5-2,2.3
				c-0.1-0.1-0.3-0.3-0.3-0.3c-0.5-0.1-1,0-1.6,0c0.7-0.5,1.2-1,1.7-1.5c0.1,0.3,0.3,0.5,0.5,0.8c0.5-0.7,0.9-1.4,1.4-2.1
				c-0.5-0.1-0.8-0.3-1.4-0.4c0.9-1.4,2-2.7,2.7-4.2c0.7-1.4,1.7-2.7,2.4-4c0.7-1.4,1.7-2.7,2.6-4.2c-0.3-0.1-0.7-0.3-1.1-0.5
				c2.3-1.2,3.5-2.9,4.4-4.7c1-2,2.7-3.7,3.8-5.5c0.7-1.1,1.4-2.1,2.1-3.2c0.8-1.2,1.7-2.2,2.6-3.4c2.2-2.8,4.1-5.6,6.5-8.3
				c2.9-3.5,5.8-7,9.5-10.1c1.5-1.2,2.7-2.7,4.2-3.8c2-1.5,4.2-2.9,6.3-4.4c0.3-0.2,0.7-0.5,0.9-1c-2.8,1.1-5.5,2.3-7.7,4.2
				c-2.2,1.8-4.3,3.7-6.5,5.5c-0.1-0.1-0.3-0.1-0.3-0.3c0.9-0.9,1.8-1.8,2.7-2.7c0.9-0.9,1.8-1.8,2.7-2.7c0.9-1.2,2.4-2.1,3.8-3
				c3-1.9,6.3-3.3,10-4c2.4-0.5,4.4-0.3,6.3,0.7c2.3,1.2,4.4,2.5,6.1,4.3c1.5,1.6,2,3.5,1.7,5.6c-0.1,0.8-0.3,1.6-0.3,2.4
				c-0.1,2-0.7,4-2,5.9c-0.7,1.3-1.2,2.7-2,4c-0.9,1.5-1.8,2.9-2.8,4.4c-2,2.9-4.2,5.6-6.2,8.4c-0.2,0.3-0.3,0.9-1,0.5
				c-0.1,0-0.5,0.3-0.6,0.3c-2.5,2.5-5,5.1-7.6,7.6c-0.1,0.1-0.2,0.1-0.5,0.1c1.5-1.8,2.9-3.5,4.3-5.3c1.4-1.7,2.6-3.5,3.9-5.2
				c1.4-1.8,2.9-3.5,4.1-5.4c0.9-1.3,1.7-2.5,1.8-4c0.2-1.1,1-2.2,1.4-3.3c0.5-1.2,1-2.5,1.4-3.7c0.5-1.7,1.2-3.5,1.4-5.2
				c0.3-2.3,0.4-4.6-0.3-6.7c-0.1-0.2-0.5-0.5-0.7-0.5c-1.9,0.1-3.8-0.1-5.6,1c-0.5,0.3-1.3,0.3-1.8,0.6c-2.1,1.2-4.1,2.5-6.2,3.7
				c-1,0.6-2.1,1.1-3.1,1.7c-0.2,0.1-0.5,0.3-0.7,0.5c-1,0.8-1.8,1.6-2.7,2.5c-1.2,1.3-2.5,2.7-3.7,4.1c-0.9,1-1.8,2-2.6,2.9
				c-1.6,2-3.2,3.9-4.8,5.9c-0.8,1-1.7,1.8-2.5,2.9c-1,1.3-1.8,2.7-2.7,3.9c-1.2,1.7-2.4,3.4-3.7,5.1c-0.9,1.3-1.7,2.7-2.6,3.8
				c-0.8,1-1.4,2-2,3.2c-0.1,0.2-0.6,0.3-0.7,0.5c-1.1,1.8-2.2,3.6-3.3,5.3c-0.5,0.1-0.8,0.1-1.2,0.1c0.3,0.3,0.5,0.5,0.7,0.8
				c-1.2,1.4-1.6,3.1-3.1,4.3c-0.5,1-1.1,2.1-1.6,3.1c-0.3-0.1-0.6-0.1-1.1-0.1c0.1,0.5,0.1,0.7,0.1,1.1c-1.3,0.6-1.3,0.7-0.5,1.4
				c-0.5,0.7-1.2,1.5-1.8,2.2c0.4,0.7,0.2,1.2-0.6,1.9c-1,0.7-1.4,1.7-2,2.7c-0.5,0.6-0.9,1.3-1.4,1.9c-0.1,0.2-0.2,0.4-0.5,0.8
				c0.6-0.3,1-0.4,1.3-0.5c0.1,0,0.2,0,0.3-0.1c-0.2,0.3-0.3,0.8-0.7,1c-0.7,0.4-0.8,0.7-1,1.4c-0.4,1.2-1.2,2.2-1.9,3.3
				c-0.2,0.3-0.3,0.7-0.5,1c-0.9,1.8-1.8,3.7-2.6,5.6c-1,2-2.1,4.2-2.9,6.2c-0.7,1.6-1.2,3.1-1.7,4.6c0,0.1,0,0.3-0.1,0.4
				c-1.2,1.3-1,2.7-1.2,4.2c-0.3,1.5-0.3,3.1-0.4,4.6c0.1,1,0.2,1.9,0.3,2.9c0.2,1.6,1.2,2.2,3.2,1.6c2.2-0.7,4.5-1.4,6.5-2.4
				c1.8-0.9,3.5-2.2,5.2-3.3c0.3-0.2,1-0.2,1.4-0.3L105.8,234.8z M90.8,214.6c-0.9,1.8-1.8,3.4-2.5,5.2c0,0.1,0.3,0.3,0.6,0.5
				c0.5-1.2,1.1-2.3,1.5-3.4C90.6,216.2,90.7,215.4,90.8,214.6L90.8,214.6z M89.2,215.1c-0.3,0.8-0.6,1.6-1,2.5c0.1,0,0.2,0,0.3-0.1
				c0.3-0.8,0.6-1.6,1-2.4c-0.1-0.1-0.3-0.1-0.3-0.3V215.1z M89.1,221.5c0.5-0.6,0.9-1.3,1.4-2c0,0-0.3-0.3-0.6-0.6
				c-0.4,1-0.9,1.8-1.3,2.6c0.1,0,0.2,0,0.3-0.1L89.1,221.5z M90.9,217.6c0.1,0.1,0.3,0.1,0.3,0.3c1-2,2-4.2,2.9-6.2
				c-0.1-0.1-0.3-0.1-0.3-0.3C92.9,213.4,91.9,215.5,90.9,217.6z M99.5,200.5c-1.8,3.3-3.7,6.7-5.5,10.1c0.1,0.1,0.3,0.1,0.3,0.3
				c0.1-0.1,0.3-0.2,0.5-0.3c0.7-1.6,1.6-3.1,2.3-4.7c0.3-0.6,0.3-1.4,1.2-1.2c0.3-0.7,0.5-1.4,0.7-2c0.1-0.2,0.1-0.4,0.1-0.6
				c0.2-1.1,0.7-1.4,1.8-1.2c0.3,0.1,0.8-0.1,1.3-0.1c0-0.1,0-0.2,0-0.3c-0.8-0.1-1.7-0.2-2.8-0.3L99.5,200.5z M95.8,212.2
				c0.3-0.5,0.5-1,0.7-1.6c-0.1-0.1-0.3-0.1-0.3-0.3c-0.6,0.3-1.2,0.7-1.8,1.1c0.5,0.3,0.7,0.5,1.1,0.7H95.8z M95.8,203.2
				c0.3-0.1,0.6-0.3,1-0.4c0,0.3,0,0.5,0,0.7c-0.6,0.1-1.2,0.1-2,0.2c0.7-1.3,1.4-2.2,1.9-3.1c0.1,0.1,0.3,0.1,0.3,0.3
				c-0.4,0.8-0.9,1.7-1.3,2.6L95.8,203.2z M102,195.4c-0.7,1.2-1.3,2.5-2,3.7c0.1,0.1,0.3,0.1,0.3,0.3c0.5-1,1.1-2.1,1.6-3.1
				c0.1-0.2,0-0.5-0.1-0.7L102,195.4z M104.1,186.8c0.1,0.1,0.3,0.1,0.3,0.3c-0.7,0.5-1.4,1-2.1,1.4c-0.1-0.9,0.9-1.2,1.6-1.6
				L104.1,186.8z M104.1,190.7c0.5-1,1.1-2.1,1.6-3.1c-0.1-0.1-0.3-0.1-0.3-0.3c-0.5,1-1.1,1.9-1.6,2.9c0.1,0.1,0.3,0.1,0.3,0.3
				V190.7z M105.6,234.5c1-0.8,1.8-1.6,2.8-2.4c0.1,0.1,0.3,0.1,0.3,0.3c-1,0.8-1.8,1.6-2.8,2.4
				C105.9,234.6,105.8,234.6,105.6,234.5z M108.6,181.8c0.1,0.1,0.3,0.1,0.3,0.3c0.9-1.4,1.8-2.7,2.7-4.2c-0.1-0.1-0.3-0.1-0.3-0.3
				C110.3,179.1,109.5,180.5,108.6,181.8z M133.7,208.6c0,0.1-0.1,0.2-0.1,0.3c-0.7,1.2-1.2,2.3-1.9,3.5c-0.1,0.1-0.2,0.3-0.3,0.3
				c-2.6,1-4.4,2.7-6,4.4c-0.5,0.5-0.3,1.2-0.4,1.7c-0.5,0.5-0.8,1-1.2,1.4c-0.8,0.9-1.5,1.8-2.2,2.5c-3,2.8-6,5.6-9,8.5
				c-0.7,0.7-1.8,1-2.7,1.5c-0.1-0.3-0.3-0.5-0.5-0.8c0.6-0.1,1.2-0.3,1.8-0.5c0-0.1,0-0.2,0-0.3c-0.3,0-0.5,0.1-1,0.1
				c0.3-0.2,0.5-0.5,0.7-0.5c1.6,0.4,2.2-0.8,3.1-1.4c0.8-0.5,1.4-1.2,2-1.9c2.2-1.9,4.4-3.8,6.7-5.9c-0.7-0.4-1.1-0.7-1.3,0.1
				c-0.1,0.4-0.3,0.8-0.7,1.2c-1.2,0.9-2.3,1.8-3.5,2.7c-0.1-0.1-0.3-0.1-0.3-0.3c0.8-0.9,1.5-1.8,2.2-2.5c1-0.9,1.8-2,3.3-2.7
				c0.3-0.1,0.5-0.7,0.7-1.2c0.2-0.3,0.3-0.6,0.5-0.8c2.4-2.5,4.8-5,7.3-7.5c1.7-1.6,3.5-3.3,5.4-4.8c-0.8,1-1.6,2-2.4,2.9
				L133.7,208.6z M111.6,179.9c-0.1-0.1-0.3-0.1-0.3-0.3c-0.4,0.8-0.9,1.7-1.3,2.5l0.3-0.1C110.7,181.3,111.2,180.6,111.6,179.9z
				 M110.7,234.9c0.7-0.5,1.4-1.2,2-1.7c-0.7,0.7-1.4,1.4-2,2c-0.1-0.1-0.3-0.1-0.3-0.3H110.7z M116.7,229.1
				c0.1,0.1,0.3,0.1,0.3,0.3c-0.8,0.7-1.6,1.4-2.4,2c-0.1-0.1-0.3-0.1-0.3-0.3C115,230.4,115.8,229.7,116.7,229.1z M114.4,226.8
				c0.5-0.3,1-0.7,1.7-1.3c-0.1,0.7-0.2,1.1-0.3,1.5c-0.5,0.1-1,0.1-1.4,0.1C114.4,227.1,114.4,227,114.4,226.8L114.4,226.8z
				 M118.3,167.3c-0.7,1.1-1.4,2.1-2,3.2c0.1,0.1,0.3,0.1,0.3,0.3c0.8-1.1,1.6-2.1,2.4-3.2c-0.1-0.1-0.3-0.1-0.3-0.3H118.3z
				 M119.1,166.7c0.1,0.1,0.3,0.1,0.3,0.3c0.7-1,1.4-1.9,2-2.9c-0.1-0.1-0.3-0.1-0.3-0.3C120.5,164.8,119.8,165.8,119.1,166.7z
				 M182.6,181.7c0.3,0.1,0.4,0.5,0.3,0.7c-0.1,0.2-0.5,0.5-0.8,0.4c-1.7-0.3-2.9,1-4.5,1.1c-1.1,0.1-2.1,0.5-3.2,0.7
				c-1.9,0.4-3.9,0.6-5.8,1.1c-1.6,0.4-3.2,1-4.8,1.6c-1,0.3-2,0.3-2.7,0.8c-1.2,0.8-2.2,1.8-3,2.9c-1.5,1.9-2.7,3.9-3.9,5.9
				c-0.5,0.8-1,1.7-1.4,2.5c-0.1,0.2-0.2,0.5-0.5,0.7c-0.9,1.2-1.2,2.6-2,3.7c-1.2,1.6-1.8,3.3-2.7,5c-1,1.9-1.4,3.9-2.2,5.9
				c-1,2.2-1,4.6-2.2,6.8c-0.7,1.2-0.7,2.7-0.9,4c-0.3,1.6-0.5,3.2-0.7,4.8c-0.1,1.6-0.5,3.1-0.5,4.7c-0.1,2.2-0.1,4.6-0.3,6.8
				c-0.1,0.7,0.1,0.7,1.1,0.7c2.4,0,3.3-1.4,4.4-2.7c0.5-0.5,1.2-1,1.7-1.5c0.1,0,0.2,0,0.3-0.1c-1,1.7-2,3.5-3,5.2
				c-0.5,0.6-1,1.3-1.6,2c-0.8,0.9-2.4,1.3-3.5,0.7c-1.7-0.9-3.2-2-3.9-3.5c-0.7-1.4-1.4-3-1.5-4.6c0-3.2,0.2-6.5,0.6-9.8
				c0.5-3.6,1.4-7.1,2.2-10.6c0.8-3.1,2-6.3,3.1-9.5c0.7-2.1,1.6-4.2,2.4-6.3c0.2-0.6,0.7-1.2,1-1.8c-2.2,1.9-4.2,3.7-6.3,5.4
				c1.2-1.2,2.2-2.5,3.5-3.7c2.3-2.2,4.8-5,5.2-6.9c-0.9,1.1-1.8,2.2-2.7,3.3c-0.1-0.1-0.3-0.1-0.3-0.3c1.6-1.8,3.2-3.7,4.8-5.5
				c-0.1-0.1-0.3-0.1-0.3-0.3c-2,0.7-4,1.4-5.9,2.2c-2.7,1.2-5.4,2.4-7.8,3.8c-1.6,1-3.6,1.6-4.6,3.4c-0.3,0.6-1.5,1.2-2.7,1
				c-0.1,0-0.3,0.1-0.3,0.1c-0.9,1.1-2,0.5-3.1,0.7c-1.3,0.1-1.6-0.9-2.2-1.4c-0.7-0.6-1.2-1.4-1.5-2.2c-0.5-1.1-0.2-1.6,1.6-2.3
				c1.6-0.7,3.3-1.6,4.9-2.5c1.3-0.6,2.4-1.4,3.7-2c3.9-1.5,7.8-2.9,11.6-4.3c1-0.3,1.9-0.8,2.8-1.1c2.4-0.7,4.7-1.4,7.1-2.3
				c1-0.3,1.9-0.8,2.7-1.4c1.5-1.2,2.7-1.2,3.5-0.1c0.8-0.2,1.6-0.3,2.2-0.5c1.3-0.3,2.6-0.6,3.9-0.8c1.6-0.3,3.1-0.5,4.6-0.8
				c1.4-0.3,2.9-0.7,4.3-1c1-0.2,1.9-0.1,2.9-0.2c0.7-0.1,1.4-0.3,2.1-0.3c2.1-0.3,3.5,0.9,4.8,1.9L182.6,181.7z M125.1,158.6
				c-1.2,1.5-2.2,3-3.4,4.5c0.1,0.1,0.3,0.1,0.3,0.3c1.2-1.4,2.2-2.8,3.4-4.2c-0.1-0.1-0.3-0.1-0.3-0.3V158.6z M128.3,215
				c0.1,0.1,0.3,0.1,0.3,0.3c-0.9,0.9-1.8,1.8-2.7,2.7c-0.1-0.1-0.3-0.1-0.3-0.3C126.5,216.8,127.4,215.9,128.3,215z M125.8,219.5
				c1-0.3,1.9-0.6,2.9-0.9c0,0.2,0,0.4,0,0.6c-1.2-0.5-1.7,1.3-2.9,0.7c0-0.1,0-0.2,0-0.3L125.8,219.5z M127.5,155.8
				c0.1,0.1,0.3,0.1,0.3,0.3c0.7-1,1.4-1.9,2-2.9C129,154.1,128.2,155,127.5,155.8z M130.1,152.9c1.3-1,2.3-2,2.9-3.4
				c-1,1.1-2,2.2-3.1,3.3L130.1,152.9z M133.4,149.2c1-1,2-2,3.1-3c-0.1-0.1-0.3-0.1-0.3-0.3C135.2,147.1,134.3,148.1,133.4,149.2z
				 M140.3,200.8c0.7-0.7,1.4-1.4,2-2C141.7,199.5,141,200.1,140.3,200.8z M163.9,184.4c0.1-0.1,0.2-0.2,0.3-0.3
				c-0.1-0.2-0.3-0.5-0.5-0.5c-0.8,0-1.7,0.1-2.1,1.2c0.8-0.2,1.6-1.6,2.2-0.1V184.4z M165.3,184.6c0.6-0.3,1.2-0.5,1.8-0.8
				c-0.1-0.2-0.3-0.3-0.4-0.5c-0.6,0.3-1.2,0.5-1.8,0.8c0.1,0.1,0.3,0.1,0.3,0.3L165.3,184.6z M173.6,183.2
				c-0.1-0.5-0.1-0.7-0.3-1.4c-0.5,0.5-0.7,0.9-0.9,1.1c-1.1,0-2,0.1-3,0.1c0,0.1,0,0.2,0,0.3c0.3,0.3,0.5,0.5,0.5,0.6
				C171.4,183.7,172.4,183.5,173.6,183.2z"/>
		</g>
		<defs>
			
				<filter id="Adobe_OpacityMaskFilter_00000071554187700046533680000011657317634280789921_" filterUnits="userSpaceOnUse" x="131.2" y="86.6" width="40.9" height="33.5">
				<feColorMatrix  type="matrix" values="1 0 0 0 0  0 1 0 0 0  0 0 1 0 0  0 0 0 1 0"/>
			</filter>
		</defs>
		
			<mask maskUnits="userSpaceOnUse" x="131.2" y="86.6" width="40.9" height="33.5" id="mask2_1125_1462_00000063614927381260475130000012749174829671899824_">
			<path style="fill:#FFFFFF;filter:url(#Adobe_OpacityMaskFilter_00000071554187700046533680000011657317634280789921_);" d="
				M469,20.4H37v238.2h432V20.4z"/>
		</mask>
		<g class="st7">
			<path class="st3" d="M171.2,99.5c-0.1-0.1-0.2-0.1-0.3-0.2c0.2-0.4,0.3-0.9,0.5-1.3c-0.1,0-0.2,0-0.3,0.1
				c-1.2,1.8-2.5,3.7-3.7,5.4c-0.1,0.1,0.1,0.3,0.3,0.8c1.2-1.6,2.2-3.1,3.3-4.4c0.1,0,0.2,0,0.3-0.1c-0.1,0.7-0.1,1.5-0.2,2.4
				c0.3-0.1,0.5-0.1,0.7-0.1c-0.1,0.2-0.1,0.3-0.2,0.3c-0.9,1-1.6,2-2,3.3c-0.5,1.6-1.8,3.1-2.8,4.6c-0.7,1-1.2,2.1-2,3
				c-0.7,1-1.8,1.8-2.7,2.6c-1.2,0.9-3.2,0.3-4-0.6c-1.5-1.6-3-3.2-3.5-5.2c-0.5-1.9-1.4-3.7-0.9-5.8c0.1-0.4-0.3-0.9-0.3-1.4
				c0-0.5,0.1-1,0.1-1.5c0-0.3-0.1-0.7-0.3-1.2c-0.7,1.1-1.2,1.9-1.6,2.7c-0.3-0.1-0.5-0.1-0.5-0.1c-0.2,0.6-0.3,1.2-0.5,1.6
				c-1.2,2-2.5,3.9-3.7,5.8c-0.3,0.3-0.7,0.7-1,1.1c-0.6,0.7-1.1,1.6-1.6,2.3c-1.1,1.2-2.2,2.5-3.2,3.7c-0.5,0.5-1.1,1-1.6,1.6
				c-1.8,2-4.6,1.3-5.6-0.5c-0.4-0.6-0.7-1.2-1.3-1.8c-1.1-1.2-1.4-2.5-1.1-4c0.3-1.6,0.7-3.1,1.4-4.6c1.4-3,2.9-6.1,4.5-9
				c1.7-3.1,3.5-6.1,5.3-9.2c0.5-0.8,1.2-1.6,1.8-2.3c0.1-0.2,0.7-0.3,0.9-0.2c1.5,0.8,2.7,1.8,4.3,2.5c1.2,0.6,1.6,1.6,2.2,2.6
				c0.4,0.5,0.8,0.5,1.4-0.1c0.7-0.9,1.4-1.8,2.1-2.8c0.2-0.3,0.2-0.7,0.3-1c-0.1-0.1-0.2-0.1-0.3-0.2c0.3-0.5,0.5-1.1,1-1.7
				c1.2,0.7,2.3,1.4,3.5,2.1c2,1.3,1.7,3.3,1.4,5.2c-0.3,2-1,4.1-1.6,6.1c-0.3,1.6-0.7,3.1-0.9,4.6c-0.2,1.9-0.1,3.7-0.1,5.6
				c0.1,0,0.2,0,0.3-0.1c0.2-0.2,0.4-0.3,0.6-0.5c0.9-1,1.8-2,2.7-3.1c0.3-0.3,0.5-0.8,1.2-0.6c0.2,0.1,0.7-0.4,1-0.7
				c0.3-0.3,0.4-0.6,0.7-0.8c0.6-0.5,0.3-0.7-0.3-0.9c0.2-0.3,0.4-0.5,0.7-1c0.1,0.4,0.1,0.7,0.3,1.2c1.8-2.2,3.3-4.2,5-6.4
				c0.5,0.5,1.8,0.1,1.7,1c0,0.4-0.5,0.9-0.7,1.4L171.2,99.5z M144.7,104.7c1.4-1.8,2.7-3.7,4.1-5.5c1.4-1.8,0.3-3.5,0.1-5.1
				c-0.1-0.1-0.2-0.1-0.3-0.2c-0.7,1-1.6,1.9-2.4,2.8c-0.7,1-1.2,1.9-1.8,2.8c-1.2,1.6-2.9,3.1-2.9,5.1c0,0.3-0.3,0.5-0.5,0.8
				c-0.9,1.4-1.8,2.9-2.6,4.4c-0.2,0.4,0.1,1,0.1,1.6c1.7-0.9,3.5-3.3,3.3-4.1c0.4-0.2,0.8-0.4,1.1-0.7c0.6-0.7,1.2-1.3,1.6-2
				L144.7,104.7z M153.9,96.4c1.3-1.1,1.3-2.5,1.8-3.7c-0.1-0.1-0.2-0.1-0.3-0.2c-0.5,0.7-1,1.4-1.4,2.1c-0.5,1-1,2-1.6,2.9
				c-0.5,0.8-1.2,1.6-1.8,2.3c-0.5,0.5-1,1.1-1.4,1.8c-0.7,1.1-1.6,2.2-2.3,3.3c-0.2,0.3-0.2,0.6-0.3,1c0.5-0.2,0.8-0.5,1-0.8
				c0.7-1,1.4-1.9,2.2-2.9c0.3-0.3,0.9-0.7,1.1-1.2c0.7-1.5,2.2-2.9,2.7-4.5c0-0.1,0.2-0.2,0.3-0.3L153.9,96.4z M169.5,97.6
				c-0.6,0.7-1.2,1.5-1.8,2.3c-0.1-0.1-0.2-0.1-0.3-0.2c0.6-0.7,1.2-1.5,1.8-2.2C169.3,97.6,169.4,97.6,169.5,97.6L169.5,97.6z"/>
		</g>
		<defs>
			
				<filter id="Adobe_OpacityMaskFilter_00000145029119138523863480000017759269875326373817_" filterUnits="userSpaceOnUse" x="144.5" y="46.6" width="75" height="79.7">
				<feColorMatrix  type="matrix" values="1 0 0 0 0  0 1 0 0 0  0 0 1 0 0  0 0 0 1 0"/>
			</filter>
		</defs>
		
			<mask maskUnits="userSpaceOnUse" x="144.5" y="46.6" width="75" height="79.7" id="mask3_1125_1462_00000145024711170506382730000000381093202568925605_">
			<path style="fill:#FFFFFF;filter:url(#Adobe_OpacityMaskFilter_00000145029119138523863480000017759269875326373817_);" d="
				M469,20.4H37v238.2h432V20.4z"/>
		</mask>
		<g class="st9">
			<path class="st3" d="M218.8,63.7c0.9,0.7,0.9,1.6,0.1,2.5c-1.6-0.1-3-0.9-4.8-0.7c-1.7,0.2-3.5-0.2-5.2-0.1c-2,0-4.1,0.1-6.1,0.2
				c-2.8,0.2-5.5,0.5-8.2,0.7c-0.3,0.1-0.6-0.2-0.8-0.5c3.9-0.5,7.8-0.9,11.8-1.4c-0.3-0.2-0.5-0.5-0.7-0.5c-1.4,0.1-2.7,0.2-4,0.3
				c-0.5,0.1-1,0-1.6,0.1c-1.3,0.1-2.7,0.4-3.9,0.5c-0.2,0-0.5,0.1-0.6,0.1c-0.7-0.4-1.4,0-2,0.2c-0.6,0.1-1.3,0.3-1.9,0.2
				c-1.2-0.2-2,0.7-3.1,0.9c0,0.1,0,0.1,0,0.3c1.9-0.2,3.9-0.5,5.8-0.7c-0.1,0.7-0.9,1.1-1.9,1c-0.1,0-0.2-0.1-0.2-0.1
				c-1.2,1-2.8,0.2-3.9,1c-0.2,0.1-0.4,0.3-0.5,0.5c-0.3,0.7-0.5,1.5-0.7,2.2c-0.2,0.4-0.6,0.8-0.7,1.3c-0.3,0.8-0.1,1.7-1,2.4
				c0.2,1.6-1,3.1-1.4,4.7c-0.3,1.4-1,2.7-1.4,4.2c-0.5,1.5-1,3-1.4,4.4c-0.1,0.3-0.4,0.6-0.5,1c-0.6,1.8-1.3,3.5-1.8,5.3
				c-0.5,1.4-0.7,2.8-1.4,4.2c-0.2,0.3,0.1,0.7,0.1,1c-0.2,0.6-0.5,1.2-0.7,1.8c-0.2,0.5-0.3,1.2-0.5,1.8c-0.3,0.8-0.5,1.6-0.7,2.5
				c-0.6,2.9-1.2,5.7-1.7,8.5c-0.3,1.7-0.5,3.5-0.6,5.3c0.1,1.4,0.5,2.7,0.9,3.9c0.1,0.5,1.4,0.5,2-0.1c1.3-1.3,2.5-2.7,3.8-3.9
				c0.1,0.1,0.2,0.1,0.3,0.2c-0.6,0.7-1.2,1.3-1.8,2c0.1,0.1,0.2,0.1,0.3,0.2c0.9-1,1.8-2,2.9-3.3c-0.5,0.1-0.7,0.1-1.3,0.3
				c1-1.1,1.8-2,2.5-3c0.1,0,0.2,0,0.3-0.1c-0.4,0.7-0.7,1.4-1.2,2.3c2.1-0.7,2.8-2.2,3.7-3.3c1.2-1.4,2.3-2.9,3.5-4.3
				c0.7-0.8,1.4-1.8,2-2.6c0.3-0.3,0.6-0.7,0.9-1.1c0.1,0.1,0.2,0.1,0.3,0.2c-0.7,1.1-1.6,2.2-2.3,3.3c-0.7,1-1.4,2-1.8,3.1
				c-0.3,0.7-0.1,1.5-0.2,2.3c0,0.1,0,0.3-0.1,0.4c-1,1.6-1.8,3.1-2.8,4.6c-0.5,0.8-1.2,1.6-1.8,2.3c-0.1,0.1-0.3,0.2-0.3,0.3
				c-0.1,1.4-1.6,2-2.5,2.8c-1.6,1.3-3.4,1.2-5.1,1c-1-0.2-1.9-0.9-2.9-1.4c-0.6-0.3-1.3-0.7-1.8-1.1c-2.7-1.7-3.1-4.2-2.9-6.9
				c0.1-1.2,0-2.4,0.1-3.5c0.2-1.6,0.5-3.3,0.8-4.9c0.5-2.4,1.1-4.8,1.8-7.3c0.9-3.2,2-6.5,3.1-9.6c1.2-3.6,2.3-7.1,3.6-10.8
				c1-3,2.2-6,3.3-9c0.2-0.6,0.1-1.3,0.1-1.8c0-0.1,0.3-0.3,0.7-0.7c-2.7,0.5-5.1,1-7.6,1.4c-0.1,0.3-0.5,0.5-1.3,0.7
				c-1,0.2-2,0.7-3.1,1c-1.9,0.5-3.9,1-5.8,1.7c-2.7,1-5.1,2.1-7.6,3.2c-1.3,0.5-2.7,1.1-4,1.7c-1.4,0.7-2.8,1.6-4.2,2.6
				c-0.6,0.4-1,0.3-1.4-0.1c-0.4-0.7-0.9-1.4-1.1-2.1c-0.1-0.3,0.3-0.8,0.5-1c1.1-0.6,2.3-1.1,3.4-1.6c1.4-0.7,2.8-1.6,4.3-2.2
				s3.1-1.6,4.8-1.7c1.5-0.2,2.7-1,4-1.2c0.3-0.1,0.6-0.4,0.8-0.5c0.7,0,1.4,0,2.4,0c0.1-0.1,0.3-0.3,0.4-0.4c0.6,0,1.2-0.1,1.6-0.1
				c0-0.1,0-0.1,0-0.3c-0.2-0.1-0.4-0.1-1-0.1c0.4-0.1,0.6-0.2,0.8-0.3c0.4-0.1,0.9-0.2,1.2-0.4c0.8-0.6,3.6-1.4,4.7-1
				c-0.7,0.3-1.3,0.5-2,0.7c1.8,0.1,2.5-0.3,2.3-1.4c1,0.1,1.8,0.3,2.4,0.1c0.7-0.1,1.4-0.7,2.1-1.2c0,0.1,0,0.3,0,0.3
				c0.7-0.1,1.4-0.1,2.1-0.3c0.6-0.1,1.3-0.2,1.8-0.5c0.4-0.3,0.7-0.8,0.9-1.3c0.6-1.6,1.4-3.2,1.8-4.8c0.2-0.7,1.2-1.6,0.4-2.4
				c-0.1-0.1,0-0.4,0.1-0.5c1.4-0.9,0.8-2.2,1.3-3.3c0.7-1.5,1.1-3.1,1.6-4.6c0.1-0.3,0.2-0.7,0.1-1c0.1-1.3,0.8-1.7,2.2-1.3
				c0.6,0.2,1.2,0.5,2,0.5c1.4,0.3,1.8,1.3,2,2.2c0.1,0.8-0.3,1.8-0.7,2.7c-1.2,3.3-2.4,6.5-3.7,9.7c-0.2,0.5-0.3,0.9-0.3,1.3
				c0.4,0.1,0.8,0.1,1.4,0.1c-0.1,0.2-0.2,0.3-0.4,0.5c0.8-0.1,1.5-0.2,2.2-0.3c0-0.1,0-0.1,0-0.3c-0.5,0-1-0.1-1.6-0.1
				c0-0.1,0-0.1,0-0.3c1.1-0.1,2.2-0.3,3.3-0.4c0,0.1,0,0.1,0,0.3c-0.3,0.1-0.6,0.3-0.8,0.3l3.9-0.5c0-0.1,0-0.1,0-0.3
				c-0.3-0.1-0.6-0.1-1-0.1c0-0.1,0-0.1,0-0.3c0.8-0.1,1.6-0.2,2.4-0.3c0,0.1,0,0.1,0,0.3c-0.3,0.1-0.6,0.2-0.9,0.3
				c0.6,0.3,1.2,0.2,1.5-0.3c0.2-0.3,0.6-0.5,0.9-0.6c3-0.3,5.9-0.4,8.9-0.7c0.4-0.1,0.8-0.3,1.2-0.4c0.4,0.5,1.2,0.5,2.4-0.1
				c-0.1,0.2-0.1,0.3-0.1,0.4c1.4,0,2.7-0.1,4,0.1c1.2,0.1,2.4,0.1,2.4,1.4c0,0.1,0.1,0.1,0.2,0.2L218.8,63.7z M164.7,72
				c2.2-0.3,5.4-1.4,5.9-2.2c-1.2,0.4-2.2,0.8-3.3,1c-0.8,0.2-2.4,0.9-2.6,1.4L164.7,72z M168.4,113.6c0.1-0.7,0.3-1.6-0.5-2.1
				c-0.1,1.8-0.3,3.5-0.4,5.3c0.3-1,0.5-2.1,0.7-3.1L168.4,113.6z M169.7,107.6c0.4-0.8-0.1-0.8-1-0.9c-0.2,1.6-0.5,3.2-0.7,4.7
				c0.3-0.3,0.7-0.5,0.8-0.7c0.3-1,0.3-2,0.8-2.9V107.6z M168.8,105.9c-0.1,0.3,0.2,0.5,0.5,0.8c0.1,0,0.2,0,0.3-0.1
				c0.1-0.9,0.3-1.7,0.5-2.6c0.2,0,0.4-0.1,0.4-0.1c0-0.5-0.1-0.9-0.1-1.4c0.3-1.2,0.7-2.2,0.9-3.3c0.1-0.5,0.3-1.3-0.6-1.6
				c-0.1,0.7-0.1,1.4-0.3,2c-0.5,2.1-1,4.2-1.6,6.3L168.8,105.9z M177.1,89.6c-0.1-0.1-0.2-0.1-0.3-0.1c1.2-3.3,2.4-6.6,3.5-9.9
				s2.6-6.5,3.3-9.7c-0.7,1.2-1.2,2.5-1.7,3.8c-0.6,1.8-1.2,3.6-1.8,5.3c-0.7,1.8-1.6,3.7-2.2,5.6c-1.2,3.6-2.2,7.1-3.3,10.8
				c-0.8,2.5-1.7,5.1-2.3,7.7c-0.8,3.1-1.4,6.1-2,9.1c-0.2,0.7-0.1,1.4-0.2,2c0.1,0,0.2,0,0.3-0.1c0.4-2.3,0.8-4.6,1.4-6.9
				c0.5-2.3,1.4-4.6,1.8-6.9c0.4-2,1.8-6.3,2.8-6.9c-0.2,0.7-0.3,1.2-0.4,1.7c0.2-0.2,0.5-0.4,0.6-0.7c0.5-1.5,1-3,1.4-4.4
				c0.6-1.8,1.3-3.5,1.9-5.2c0.5-1.5,1.1-3,1.6-4.5c0.5-1.2,0.9-2.5,1.4-3.7c0.2-0.6,0.3-1.2,0.4-1.8c-0.3,0.1-0.5,0.3-0.6,0.5
				c-0.6,1.8-1.3,3.7-1.9,5.5c-0.8,2.5-1.6,4.9-2.4,7.3c-0.2,0.4-0.5,0.8-0.9,1.2L177.1,89.6z M172.7,92.1c-0.8,1.8-1.4,3.7-2,5.7
				c0.3-0.1,0.6-0.1,0.8-0.1c0.1-0.3,0.1-0.5,0.1-0.7c0.1,0,0.2,0,0.3-0.1c0,0.7,0.1,1.4,0.1,2.2c0.2-0.2,0.3-0.3,0.3-0.3
				c0.2-0.7,0.3-1.3,0.1-2.1c-0.3-1,0.5-2.2,0.7-3.3c0.2-0.5,0.3-1,0.4-1.6c0.2,0.1,0.6,0.2,1,0.3c0-0.1,0-0.5,0-0.5
				c-1-0.1-0.5-0.8-0.5-1.2c0-0.1,0.4-0.5,0.5-0.7c0.7-2,1.2-4.1,2.1-6.1c0.6-1.6,0.7-3.2,1.5-4.7c1-1.7,1.2-3.6,1.8-5.4
				c0.2-0.7,0.7-1.4,0.8-2c0.3-1,0.6-2.1,0.9-3.1c-0.1,0-0.2,0-0.3,0c-0.2,0.3-0.5,0.7-0.7,1.1c-0.3,0.9-0.6,1.8-1,2.7
				c-1,2.4-1.9,4.8-2.9,7.1c-1.2,3.3-2.2,6.7-3.5,10.1c-0.3,1-0.4,2-0.9,3.1L172.7,92.1z M172.6,69.6c0.3-0.1,0.6-0.1,0.9-0.3
				c-0.1-0.3-0.2-0.5-0.5-0.9c-0.5,0.4-0.7,0.7-1,0.8c-0.3,0.1-0.6,0.1-0.9,0.1c0,0.1,0,0.1,0,0.3c0.4,0.1,0.8,0.1,1.2,0L172.6,69.6
				z M173.3,105.9c-0.1,0-0.2,0-0.3,0.1c-0.2,0.7-0.3,1.4-0.5,2.1c0.1,0,0.2,0,0.3-0.1C172.9,107.4,173.1,106.6,173.3,105.9z
				 M175.9,95.3c-1,2.7-2,5.4-2.3,8.2c0.4-0.7,0.7-1.5,1-2.3c0.5-1.5,0.8-3.1,1.4-4.5C176,96.1,176.2,95.7,175.9,95.3z M177.8,68.2
				c0.8-0.2,1.6-0.3,2.3-0.7c0.3-0.1,0.4-0.5,0.5-0.8c-0.1-0.1-0.2-0.1-0.3-0.2c-0.4,0.3-0.7,0.7-1.1,0.8c-1.7,0.5-3.5,0.7-5.2,1.1
				c0,0.1,0,0.3,0,0.5c0.3,0.1,0.6,0.2,1,0.1C175.9,68.9,176.9,68.6,177.8,68.2L177.8,68.2z M176.7,90.6c0.1,0,0.2,0,0.3-0.1
				c0.3,1.2-0.7,2.2-1.1,3.4c-0.1,0-0.2,0-0.3,0.1C176,92.9,176.3,91.7,176.7,90.6z M183.3,64.8c1-1.1,1-2.4,0.9-3.6
				c-0.3,1.2-0.7,2.2-1.1,3.4c0.1,0,0.2,0,0.3-0.1L183.3,64.8z M184.8,70.8c0.3-0.7,0.5-1.4,0.8-2.1c-0.1-0.1-0.2-0.1-0.3-0.2
				c-0.3,0.7-0.5,1.4-0.8,2.1c0.1,0,0.2,0,0.3-0.1L184.8,70.8z M205.8,62.9c0-0.1,0-0.1,0-0.3c-0.9,0.1-1.8,0.2-2.7,0.3
				c0,0.1,0,0.1,0,0.3C203.9,63.1,204.8,63.1,205.8,62.9z M209.6,64.4c0.2,0,0.4-0.1,0.7-0.1c-1-0.7-3.3-0.6-4.4,0
				c0.3,0.1,0.5,0.2,0.7,0.1c1,0,1.8-0.1,2.8-0.1L209.6,64.4z"/>
		</g>
		<defs>
			
				<filter id="Adobe_OpacityMaskFilter_00000146460763979141522920000007759700859449915313_" filterUnits="userSpaceOnUse" x="187.7" y="83.6" width="45.5" height="29.5">
				<feColorMatrix  type="matrix" values="1 0 0 0 0  0 1 0 0 0  0 0 1 0 0  0 0 0 1 0"/>
			</filter>
		</defs>
		
			<mask maskUnits="userSpaceOnUse" x="187.7" y="83.6" width="45.5" height="29.5" id="mask4_1125_1462_00000174597451687427143770000017158340494584227236_">
			<path style="fill:#FFFFFF;filter:url(#Adobe_OpacityMaskFilter_00000146460763979141522920000007759700859449915313_);" d="
				M469,20.4H37v238.2h432V20.4z"/>
		</mask>
		<g class="st11">
			<path class="st3" d="M232.3,91.7c0,0.3,0.1,0.5,0,0.7c-0.5,1.2-1.2,2.3-1.7,3.5c-0.2,0.3-0.5,0.5-0.7,0.7
				c-0.2,0.2-0.5,0.4-0.5,0.5c0.1,1.2-0.8,2.1-1.9,2.9c-0.4,0.3-0.7,0.7-1,1c-0.3,0.3-0.3,0.8-0.7,1.1c-0.8,0.7-2,1.4-2.4,2.3
				c-0.5,0.9-1.3,1.4-2,2c-0.5,0.5-0.7,1.4-1.2,1.8c-0.5,0.4-1.3,0.5-1.9,0.9c-1.6,0.7-3.1,1-4.9,0.5c-1.8-0.5-2.9-1.6-4.2-2.7
				c-1.5-1.4-2.1-3.3-2.9-5c-0.2-0.6-0.1-1.4-0.2-2.1c0-0.6-0.1-1.2-0.1-1.8c-0.1,0-0.2,0-0.3,0.1c-0.7,1.1-1.4,2.2-2,3.2
				c-0.2,0.3-0.6,0.7-0.9,1c-0.4,0.4-0.8,0.7-1.1,1.2c-0.4,0.5-0.7,1.1-1,1.6c-0.1,0.2-0.3,0.3-0.3,0.5c0.1,1.1-0.8,1.7-1.5,2.5
				c-0.4,0.5-0.7,1-1,1.6c-0.6,1.7-3.5,3.6-5.1,3.2c-0.8-0.3-1.7-0.7-2.2-1.4c-2.6-2.6-3.8-5.6-2.8-9.3c0.9-3,1.9-5.9,2.9-8.7
				c0.9-2.7,1.9-5.4,3.5-7.9c0.6-0.8,0.7-1,1.7-0.5c1.2,0.5,2.3,1.2,2.4,2.3c0.2,1.8,0.3,3.7-0.9,5.6c-1,1.6-1.6,3.5-2.3,5.2
				c-0.5,1.2-1,2.4-1.3,3.6c-0.2,0.7-0.3,1.4-0.4,2.2c-0.1,0.4-0.1,0.9-0.1,1.4c0.8-0.7,1.7-1.3,2.4-2c2.5-2.7,5-5.4,7.6-8
				c1.6-1.7,3.5-3.3,5.2-5c0.5-0.5,0.9-1,1.2-1.6c0.8-1.6,1.6-3.3,2.4-4.9c0.4-0.6,1-0.6,1.8-0.1c0.6,0.3,1.4,0.5,1.9,0.9
				c0.8,0.5,1.6,1.2,2.2,2c0.1,0.1-0.3,0.8-0.5,1c-0.9,0.6-1.7,1.1-1.6,2.2c0,0.5-0.5,1.1-0.6,1.6c-1.1,3.1-2.5,6.3-2.9,9.5
				c-0.1,1.1-0.3,2.2-0.5,3.3c-0.1,0.7,0.5,1,1.6,0.8c1.8-0.2,3.2-1.2,4.7-2c1.6-0.9,3.2-1.8,4.7-2.9c2.4-1.7,4.6-3.5,7-5.4
				c0.4-0.3,0.9-0.6,1.3-1c0.6-0.5,1.2-1.2,1.8-1.9L232.3,91.7z M199.1,102.1c1.4-0.6,1.6-1.8,2.4-2.7c-0.8,0-1.6-0.1-1.5,1
				c0,0.1-0.3,0.3-0.5,0.5c-0.3,0.3-0.6,0.7-0.9,1.1C198.8,102.1,198.9,102.1,199.1,102.1L199.1,102.1z M204.5,96.6
				c-0.1-0.1-0.2-0.1-0.3-0.2c-0.6,0.4-1.1,1-2.1,1c-0.3-0.1-0.8,0.7-1.2,1.1c0.1,0.1,0.2,0.1,0.3,0.2c0.2-0.1,0.4-0.2,0.6-0.3
				c0.2,0.2,0.4,0.5,0.6,0.7c0.2-0.2,0.4-0.4,0.6-0.5c0.4-0.4,0.8-0.7,1.1-1.2C204.4,97.2,204.4,96.9,204.5,96.6z M222.4,102.6
				c0.8-0.5,1.3-1.1,1-2c-0.2,0.2-0.3,0.3-0.3,0.3c-0.2,0.5-0.3,0.9-1.2,1.1c-0.7,0.1-1.4,0.7-2,1.2c-0.2,0.2-0.2,0.6-0.3,0.9
				c0.3-0.1,0.6-0.1,0.9-0.3C221.2,103.4,221.7,103,222.4,102.6L222.4,102.6z M224.6,100.3c1.5-1.2,2.9-2.3,4.4-3.6
				c-0.4-0.1-0.5,0-0.5,0c-1.5,1.1-3,2.2-4.4,3.3c-0.2,0.2-0.3,0.6-0.2,0.7c0.1,0.1,0.4,0.3,0.6,0.4c0.1-0.1,0.2-0.2,0.3-0.3
				c-0.1-0.3-0.2-0.5-0.3-0.7L224.6,100.3z"/>
		</g>
		<defs>
			
				<filter id="Adobe_OpacityMaskFilter_00000034791460996649126290000016539236615983077803_" filterUnits="userSpaceOnUse" x="223.5" y="78.8" width="29" height="40.6">
				<feColorMatrix  type="matrix" values="1 0 0 0 0  0 1 0 0 0  0 0 1 0 0  0 0 0 1 0"/>
			</filter>
		</defs>
		
			<mask maskUnits="userSpaceOnUse" x="223.5" y="78.8" width="29" height="40.6" id="mask5_1125_1462_00000085940543912491677710000012060073208341427641_">
			<path style="fill:#FFFFFF;filter:url(#Adobe_OpacityMaskFilter_00000034791460996649126290000016539236615983077803_);" d="
				M469,20.4H37v238.2h432V20.4z"/>
		</mask>
		<g class="st13">
			<path class="st3" d="M252.4,90.4c0.1,0.4-0.3,1.2-0.9,1.5c-0.4,0.2-1.4,0.1-1.8-0.2c-1.4-0.7-2.3-1.8-2.7-3.2
				c-0.2-0.7-0.3-1.5-0.5-2.2c-0.1-0.4-0.3-0.8-0.3-1.3c-1.4,0.6-1.8,1.6-2.1,2.5c-0.1,0.3-0.1,0.7-0.1,1c-0.1,0.2-0.3,0.5-0.4,0.5
				c-1.7,0.3-1.8,1.7-2.4,2.7c-0.7,1.1-1.2,2.3-1.8,3.5c-0.8,1.7-1.7,3.4-2.5,5.1c-0.7,1.4-1.4,2.6-2,3.9c-0.7,1.6-1.3,3.2-2,4.8
				c-0.5,1.2-1,2.3-1.4,3.5c-0.3,0.7-0.5,1.5-0.6,2.2c-0.1,0.3-0.1,0.7,0.1,1c0.3,1,0.1,1.7-1.1,2.4c-0.2,0.2-0.3,0.5-0.5,0.6
				c-0.6,0.4-1.1,0.9-1.8,0.2c-0.4-0.5-1.4-0.5-2-0.9c-0.8-0.4-1.5-1-1-1.9c0.1-0.3,0-0.6-0.1-0.9c-0.3-1.2-0.7-2.2-0.9-3.4
				c-0.1-0.9,0-1.8,0.2-2.8c0.5-3.2,1-6.3,1.8-9.5c0.3-1.6,1.2-3.3,1.7-4.9c0.2-0.5,0.1-1.1,0.1-1.6c0.1-0.3,0.4-0.7,0.5-1.1
				c0.7-2.6,1.4-5.2,2.1-7.8c0.3-1.2,0.7-2.2,1-3.4c0.1-0.3,0-0.6-0.1-0.8c0-0.3-0.1-1,0.1-1c0.5-0.1,1.1-0.2,1.6-0.2
				c1.4,0.2,2.3,1,3.5,1.4c1.6,0.5,2.1,1.7,2.1,3.1c0,0.4-0.3,0.8-0.5,1.2c-0.5,1.2-1,2.3-1.3,3.4c-0.3,0.9-0.5,1.8-0.8,2.8
				c0.1,0.1,0.2,0.1,0.3,0.2c0.5-1,1-2,1.5-2.9c0.7-1.2,1.6-2.3,2.4-3.4c0.4-0.6,0.7-1.3,1.2-1.9c0.7-1.1,1.2-2.2,2.1-3.1
				c0.3-0.3,1.3-0.7,1.8-0.5c1.6,0.3,3.3,0.5,4.5,1.2c1.6,1.1,2.7,2.7,2.7,4.6c-0.1,2,0,3.9,0.5,5.7L252.4,90.4z M240.1,87
				c-1.3,0.7-4.8,6.1-4.5,7.1C237.2,91.7,238.6,89.4,240.1,87z"/>
		</g>
		<defs>
			
				<filter id="Adobe_OpacityMaskFilter_00000147195457523552190120000017328448327803517574_" filterUnits="userSpaceOnUse" x="248.4" y="74.7" width="38.2" height="36.2">
				<feColorMatrix  type="matrix" values="1 0 0 0 0  0 1 0 0 0  0 0 1 0 0  0 0 0 1 0"/>
			</filter>
		</defs>
		
			<mask maskUnits="userSpaceOnUse" x="248.4" y="74.7" width="38.2" height="36.2" id="mask6_1125_1462_00000009567100685486438760000006550451613638844309_">
			<path style="fill:#FFFFFF;filter:url(#Adobe_OpacityMaskFilter_00000147195457523552190120000017328448327803517574_);" d="
				M469,20.4H37v238.2h432V20.4z"/>
		</mask>
		<g class="st15">
			<path class="st3" d="M283.8,91.2c0.4-0.3,0.8-0.5,1.2-0.7c0.1,0.1,0.2,0.1,0.3,0.2c-0.5,0.6-0.9,1.4-1.4,1.9
				c-0.7,0.7-1.5,1.4-2.2,2c-0.2,0.2-0.4,0.4-0.6,0.5c-1,1.3-1.9,2.6-3,3.9c-0.3,0.3-0.7,0.7-1,1c-0.6,0.7-1.6,1.1-1.8,2.2
				c-0.2,0.7-1.3,1.3-2,1.9c-1.7,1.2-3.4,2.3-5,3.5c-0.4,0.3-0.7,0.7-1.1,0.9c-0.8,0.5-1.7,1-2.6,1.4c-1,0.3-2.1,0.7-3.1,0.9
				c-2.5,0.4-4.6-0.7-6.5-1.7c-2.7-1.4-4.2-3.9-5.5-6.2c-1.1-1.9-1.5-4.1-0.7-6.4c0.3-1,0.4-2.2,0.9-3.1c0.7-1.6,1.7-3.2,2.5-4.8
				c0.5-0.9,0.8-1.8,1.4-2.6c1-1.6,2.1-3.3,3.4-4.8c1-1.2,2.2-2.2,3.5-3.2c1.5-1.1,3.2-2,4.9-2.9c1.1-0.6,2.3-0.6,3.4-0.1
				c1.8,1,3.7,1.9,4.4,3.8c0.3,1.2,0.7,2.5,0.3,3.6c-0.3,1-0.3,2.3-1.7,3.1c-0.1,0.1-0.2,0.2-0.2,0.3c-0.1,1.8-1.7,3-2.9,4.2
				c-2,2.2-4.4,4.2-6.7,6.3c-1,0.9-2.9,0.8-3.8,0c-0.4-0.3-1-0.5-1.4-0.7c-0.2,0.4-0.3,0.9-0.5,1.3c-0.3,1.2-0.6,2.2-0.9,3.4
				c-0.5,1.9-0.9,3.8,0.3,5.5c0.5,0.9,1.6,0.5,2.4,0.3c2.3-0.4,4.4-1.5,6.5-2.8c0.9-0.5,1.9-1,2.9-1.5c0.1-0.1,0.3-0.2,0.3-0.2
				c-0.1-1.1,1-0.9,1.6-1.2c0.9-0.5,1.6-1.2,2.4-1.8c1.7-1.2,3.4-2.3,5.1-3.5c1-0.6,2-1.2,3-1.8c0.1-0.1,0.3-0.1,0.7-0.1
				c-1,0.7-1.8,1.3-2.6,1.9c0.1,0.1,0.2,0.1,0.3,0.2c0.7-0.4,1.5-0.8,2.2-1.4c0.8-0.6,1.6-1.2,2.4-1.8c0.4-0.3,0.8-0.7,1.2-1
				L283.8,91.2z M258.1,91.3c-0.2,0.4-0.3,0.9-0.5,1.3c0.1,0.1,0.2,0.1,0.3,0.2c1-0.8,2-1.6,3-2.4c1.2-1,2.4-2,3.5-3
				c0.5-0.4,1.1-0.6,1.5-1c0.6-0.7,1.1-1.5,1.6-2.1c1.4-1.5,2.1-3.1,2.1-4.9c0-0.6-0.3-0.7-1-0.3c-1,0.6-2,1.2-2.9,1.9
				c-1.4,1.1-2.9,2.1-3.5,3.7c-0.2,0.6-1.1,1-1.8,1.7c0.5,0.6-0.1,1.3-0.8,2c-0.2,0.2-0.3,0.5-0.4,0.6
				C258.9,89.8,258.4,90.6,258.1,91.3L258.1,91.3z M274.9,96.5c0.6,0.4,1.2,0.5,1.6-0.1c0-0.1,0-0.1,0-0.3
				C276,96.3,275.5,96.4,274.9,96.5L274.9,96.5z M284.6,88.5c0.7-0.6,1.4-1.2,2-1.8C286.5,87.6,285.9,88.3,284.6,88.5L284.6,88.5z"
				/>
		</g>
		<defs>
			
				<filter id="Adobe_OpacityMaskFilter_00000089548640989426688280000000420710216120194216_" filterUnits="userSpaceOnUse" x="285.2" y="43" width="18.6" height="20.4">
				<feColorMatrix  type="matrix" values="1 0 0 0 0  0 1 0 0 0  0 0 1 0 0  0 0 0 1 0"/>
			</filter>
		</defs>
		
			<mask maskUnits="userSpaceOnUse" x="285.2" y="43" width="18.6" height="20.4" id="mask7_1125_1462_00000047771736111379765380000016547093367645464727_">
			<path style="fill:#FFFFFF;filter:url(#Adobe_OpacityMaskFilter_00000089548640989426688280000000420710216120194216_);" d="
				M469,20.4H37v238.2h432V20.4z"/>
		</mask>
		<g class="st17">
			<path class="st3" d="M303.6,51c0.3,0.8,0.2,1.8-0.2,2.7c-1,1.9-2.1,3.7-3.3,5.5c-0.1,0.2-0.4,0.4-0.6,0.5
				c-0.1-0.1-0.2-0.1-0.3-0.2c0.1-0.3,0.2-0.5,0.3-0.8c-1.1,1-2.2,2.2-3.3,3.2c-0.9,0.9-2,1.2-3.3,1.2c-1-0.1-2.2,0.1-3.3,0.3
				c-1.5,0.3-2.9,0-4.2-0.5c-0.5-0.2-0.2-0.5,0.1-1c1.3-1.2,2.6-2.2,3.7-3.5c1.3-1.3,2.7-2.7,3.5-4.2c1.2-2,2.5-4,2.6-6.2
				c0.1-0.8-0.5-1.3-1.1-1.7c-1-0.7-1.9-1.2-2.7-1.9c-0.3-0.2-0.3-0.6-0.5-1c0.5-0.1,1.2-0.5,1.4-0.4c1.2,0.7,2.8,0.3,3.9,1.2
				c0.8,0.7,2.2,1,3.3,1.4c0.4,0.2,0.8,0.5,1.2,0.8c1.4,1.3,2.4,2.7,2.9,4.5H303.6z"/>
		</g>
		<defs>
			
				<filter id="Adobe_OpacityMaskFilter_00000157276299010983966160000014640629003702385297_" filterUnits="userSpaceOnUse" x="306.5" y="61.5" width="37.8" height="53.6">
				<feColorMatrix  type="matrix" values="1 0 0 0 0  0 1 0 0 0  0 0 1 0 0  0 0 0 1 0"/>
			</filter>
		</defs>
		
			<mask maskUnits="userSpaceOnUse" x="306.5" y="61.5" width="37.8" height="53.6" id="mask8_1125_1462_00000113310846177757536580000010223113056253097113_">
			<path style="fill:#FFFFFF;filter:url(#Adobe_OpacityMaskFilter_00000157276299010983966160000014640629003702385297_);" d="
				M469,20.4H37v238.2h432V20.4z"/>
		</mask>
		<g class="st19">
			<path class="st3" d="M336,82.7c1.6-0.5,2.8-1.8,5-1.9c-5.2,2.9-10.3,5.3-14.8,8.8c0.3,0.3,0.5,0.5,0.7,0.6c2.9,1.8,5.4,4,7.3,6.7
				c0.7,1.1,1.4,2.3,1.2,3.7c0,0.3,0.1,0.7,0.3,1.1c0.8,2.2-0.1,4.1-2.2,5.8c-1.9,1.6-3.9,3.1-6.2,4.2c-2.7,1.2-5.3,2.8-8.4,3.2
				c-2.9,0.4-6,0.7-8.4-0.9c-1-0.7-1.9-1.3-2.2-2.5c-0.1-0.9-0.7-1.7-1-2.6c-0.5-1.3-1.2-2.5-0.7-4c0-0.1,0-0.1,0-0.3
				c-1-2.7,1-4.6,3-6.5c0.6-0.5,1.2-1.2,1.8-1.7c0.3-0.3,0.7-0.5,1-0.7c-1.4,2.3-3.8,3.9-5,6.3c1-1,2-2.2,3.1-3.1
				c0.6-0.5,1.4-1,2.2-1.4c0.6-0.3,1.3-0.5,1.3-1.3c0.6,0.1,1.4-0.3,1.8,0.4c0.3-0.2,0.6-0.4,0.9-0.6c0-0.1,0-0.1,0-0.3
				c-0.3,0.1-0.6,0.1-1.1,0.1c0.5-0.5,0.9-1,1.3-1.5c0-0.1,0-0.1,0-0.3c0.3-0.1,0.6,0,0.9-0.1c0.3-0.1,0.7-0.3,0.8-0.5
				c0.1-0.7,0.1-0.7,1-0.5c0.4-0.4,0.8-0.7,1.2-1.2c-0.5-0.5-1.1-1-2-0.4c0.7-0.7,0.3-1-0.3-1.3c-3.3-2.7-4.6-5.9-4.1-9.9
				c0.3-3.3,2.5-5.9,4.8-8.6c2-2.2,4.2-4.2,6.6-6.1c1.5-1.2,2.7-2.5,4.5-3.4c1.2-0.5,2.3-0.5,3.3-0.3c2.2,0.5,3.5,1.9,4.2,3.7
				c0.1,0.3,0,0.6,0.1,1c-0.6-0.1-1.2-0.3-1.6-0.1c-0.9,0.3-1.9,0.5-2.7,1c-1.8,1-3.5,2.2-5.1,3.3c-1.2,0.8-2.2,1.8-3.3,2.8
				c-1.6,1.8-3.4,3.6-4.9,5.4c-1.4,1.8-2.8,3.9-2.2,6.1c0.1,0.5,0.5,1,1,1.3c1.7,1,3.5,1.9,5.2,2.7c0.2,0.1,0.8-0.1,1.1-0.3
				c1.5-1,3-2,4.6-3c0.1,1,0.1,1-1.1,1.2c0.2,0.7,0.5,0.8,1,0.3c0.5-0.4,1-0.8,1.5-1.2c-0.2-0.1-0.5-0.1-1.2-0.3
				c4.7-2.7,9.3-5.2,14.2-7.3c-2.6,1.8-6.1,2.7-8.3,4.9V82.7z M327.2,94.8c-1.8-1.1-3.7-1.8-5.8-2.8c-0.4,0.2-0.9,0.5-1.4,0.8
				c0.3,0.1,0.5,0,0.7,0s0.4-0.1,0.7-0.1c-0.1,0.2-0.1,0.3-0.2,0.3c-2.9,1.5-4.8,3.8-7.2,5.8c-0.5,0.4-0.7,0.8,0.1,0.8
				c-0.7,0.7-1.4,1.5-2,2.2c-0.7,0.8-1.2,1.6-1.7,2.5c-1.4,2.1-0.7,3.5,1.4,4.6c1.6,0.7,3.3,0.5,5,0.2c1-0.2,2-0.5,2.9-1
				c1.3-0.7,2.5-1.4,3.8-2c1.3-0.7,2.8-1.4,4-2.2c1.6-1.2,2.9-2.6,4.2-3.9c0.7-0.7,0.7-1.4,0-1.9c-1.5-1.2-3-2.4-4.6-3.3V94.8z"/>
		</g>
		<defs>
			
				<filter id="Adobe_OpacityMaskFilter_00000014595467982058526440000007782739101219804349_" filterUnits="userSpaceOnUse" x="400" y="137.9" width="28.2" height="40.2">
				<feColorMatrix  type="matrix" values="1 0 0 0 0  0 1 0 0 0  0 0 1 0 0  0 0 0 1 0"/>
			</filter>
		</defs>
		
			<mask maskUnits="userSpaceOnUse" x="400" y="137.9" width="28.2" height="40.2" id="mask9_1125_1462_00000036237426910017283410000018156730974316937919_">
			<path style="fill:#FFFFFF;filter:url(#Adobe_OpacityMaskFilter_00000014595467982058526440000007782739101219804349_);" d="
				M469,20.4H37v238.2h432V20.4z"/>
		</mask>
		<g class="st21">
			<path class="st3" d="M422.1,154c1.2-0.4,2.1-1.4,3.7-1.4c-3.9,2.1-7.7,3.9-11,6.5c0.3,0.2,0.4,0.3,0.5,0.4c2.2,1.4,4,3,5.4,5
				c0.5,0.8,1,1.7,0.9,2.7c0,0.3,0.1,0.5,0.2,0.8c0.6,1.7-0.1,3-1.6,4.4c-1.4,1.2-2.9,2.3-4.6,3.1c-2,1-3.9,2.1-6.3,2.4
				c-2.2,0.3-4.5,0.6-6.3-0.7c-0.7-0.5-1.4-1-1.6-1.8c-0.1-0.7-0.5-1.3-0.7-1.9c-0.3-1-1-1.9-0.5-3c0-0.1,0-0.1,0-0.2
				c-0.7-2,0.7-3.4,2.2-4.8c0.4-0.4,0.9-0.9,1.4-1.3c0.2-0.2,0.5-0.3,0.7-0.5c-1,1.8-2.9,3-3.7,4.7c0.7-0.7,1.4-1.6,2.2-2.3
				c0.4-0.4,1-0.7,1.6-1.1c0.5-0.3,1-0.4,1-1c0.5,0.1,1.1-0.2,1.4,0.3c0.2-0.1,0.5-0.3,0.7-0.5c0-0.1,0-0.1,0-0.2
				c-0.2,0-0.5,0.1-0.8,0.1c0.3-0.4,0.7-0.7,1-1.1c0-0.1,0-0.1,0-0.2c0.2,0,0.5,0,0.7-0.1c0.2-0.1,0.5-0.3,0.6-0.4
				c0.1-0.6,0.1-0.6,0.7-0.4c0.3-0.3,0.6-0.5,0.9-0.9c-0.4-0.4-0.8-0.7-1.6-0.3c0.5-0.5,0.2-0.7-0.2-1c-2.4-2-3.4-4.4-3.1-7.4
				c0.3-2.5,1.8-4.4,3.5-6.5c1.4-1.7,3.1-3.1,4.9-4.5c1.1-0.9,2-1.8,3.3-2.5c0.9-0.4,1.8-0.4,2.4-0.2c1.6,0.4,2.6,1.4,3.1,2.7
				c0.1,0.2,0,0.4,0,0.7c-0.5-0.1-0.9-0.2-1.2-0.1c-0.7,0.2-1.4,0.4-2,0.7c-1.4,0.7-2.6,1.6-3.8,2.5c-0.9,0.6-1.7,1.3-2.4,2.1
				c-1.2,1.4-2.6,2.7-3.7,4.1c-1.1,1.4-2.1,2.9-1.6,4.6c0.1,0.3,0.3,0.7,0.7,1c1.2,0.7,2.6,1.4,3.9,2c0.1,0.1,0.6-0.1,0.8-0.2
				c1.1-0.7,2.2-1.4,3.4-2.2c0,0.7,0,0.7-0.8,0.8c0.2,0.5,0.3,0.6,0.7,0.2c0.3-0.3,0.7-0.6,1.1-0.9c-0.1-0.1-0.4-0.1-0.9-0.2
				c3.5-2,6.9-3.9,10.5-5.4c-1.9,1.4-4.5,2-6.2,3.7H422.1z M415.6,163c-1.4-0.8-2.8-1.4-4.3-2.1c-0.3,0.1-0.7,0.4-1,0.6
				c0.2,0.1,0.4,0,0.5,0c0.1,0,0.3-0.1,0.5-0.1c-0.1,0.1-0.1,0.2-0.1,0.2c-2.2,1.2-3.6,2.9-5.4,4.3c-0.3,0.3-0.5,0.6,0,0.6
				c-0.5,0.5-1,1.1-1.4,1.7c-0.5,0.6-1,1.2-1.3,1.8c-1,1.6-0.5,2.7,1.1,3.4c1.2,0.5,2.4,0.4,3.7,0.1c0.7-0.1,1.5-0.4,2.2-0.7
				c1-0.5,1.8-1,2.9-1.5c1-0.5,2.1-1,3-1.6c1.2-0.9,2.1-1.9,3.1-2.9c0.5-0.5,0.5-1.1,0-1.4c-1.1-0.9-2.2-1.8-3.5-2.5L415.6,163z"/>
		</g>
		<defs>
			
				<filter id="Adobe_OpacityMaskFilter_00000070818883696970602210000010663408769130350465_" filterUnits="userSpaceOnUse" x="162.1" y="159.8" width="33.4" height="40.5">
				<feColorMatrix  type="matrix" values="1 0 0 0 0  0 1 0 0 0  0 0 1 0 0  0 0 0 1 0"/>
			</filter>
		</defs>
		
			<mask maskUnits="userSpaceOnUse" x="162.1" y="159.8" width="33.4" height="40.5" id="mask10_1125_1462_00000043425069258617607960000006348618294325977246_">
			<path style="fill:#FFFFFF;filter:url(#Adobe_OpacityMaskFilter_00000070818883696970602210000010663408769130350465_);" d="
				M469,20.4H37v238.2h432V20.4z"/>
		</mask>
		<g class="st23">
			<path class="st3" d="M195.1,175.6c0.1,0.1,0.2,0.3,0.3,0.5c-1.2,1-2.4,2-3.5,3c-0.6,0.5-1,1-1.9,0.9c-0.1,0-0.2,0.1-0.3,0.2
				c-1.6,1.7-3.9,2.7-5.9,4.2c-1,0.7-2,1.5-1.9,2.7c0,0.1-0.2,0.2-0.3,0.3c-0.2,0.2-0.5,0.5-0.5,0.5c0.3,0.9-0.5,1.5-1,2.1
				c-1.6,2.2-3.4,4.4-5,6.5c-0.5,0.8-1.3,1.6-2,2.3c-1.8,1.7-3.3,2.1-5.4,1c-1.8-0.9-3.4-2-4.8-3.2c-0.6-0.5-0.9-1.4-1-2.2
				c-0.3-1.7-0.1-3.5,0.7-5.1c0.7-1.7,1.2-3.4,1.8-5.1c1.6-4.2,2.4-8.6,4.8-12.7c1.2-2,2.4-4.2,3.8-6.3c1-1.7,2.3-3.4,3.7-5.3
				c1,0.2,2.2,0.3,3,0.7c1.9,1,3.7,1.9,5.4,3.2c1.1,0.8,1.6,2.1,2.4,3.2c0.1,0.1,0.2,0.2,0.1,0.3c-0.7,1.3-0.3,2.5-0.5,3.7
				c-0.4,2.6-0.9,5.2-1.4,7.8c0.2-0.1,0.5-0.2,0.8-0.3c0.9-0.4,1.8-0.9,2.7-1.2c0.3-0.1,0.7-0.1,1-0.1c1.2-1.1,2.9-0.4,4.2-1.6
				H195.1z M167.6,196.2c3.5-2.9,5.8-6.4,8.3-9.5c-2-0.7-3.9-1.3-5.9-2c-1,3.7-3.1,7.4-2.6,11.4L167.6,196.2z M175.6,164.1
				c-2.4,3.1-4,6.4-5.8,9.7c0.1,0.1,0.2,0.1,0.3,0.2c1.9-3.3,3.8-6.5,5.7-9.7c-0.1,0-0.2,0-0.3,0.1V164.1z M181.6,176.9
				c0.3-0.5,0.3-1.4,1.4-1.5c0.1,0,0.2-0.3,0.3-0.5c-0.3,0.1-0.5,0.1-0.7,0.1c-0.1-0.1-0.2-0.1-0.3-0.2c0.5-0.4,1.1-0.7,1.4-1.2
				c0.3-0.5,0.3-1,0.4-1.6c0.1-0.5-0.1-1-0.1-1.5c-0.1,0-0.2,0-0.3,0.1c0,0.1,0,0.1,0,0.3c0,0.1-0.1,0.2-0.3,0.3
				c0-2.8,0.1-5.4-1.5-7.9c-0.7,0.7-1.3,1.2-1.6,1.7c-1,1.4-1.8,2.7-2.8,4.1c-0.3,0.5-0.9,1-1,1.4c-0.1,1.2-1,2.1-1.3,3.3
				c-0.4,2.2-1.6,4.2-2.4,6.3c-0.3,0.7-0.3,1.4-0.3,2.1c-0.1,0.7,0.3,0.9,1.2,0.7c1.6-0.4,3.3-0.8,4.8-1.3c0.6-0.2,1.3-0.7,1.6-1.2
				c0.7-1.2,1-2.4,1.6-3.7L181.6,176.9z M182.8,172.1c-0.2,0.6-0.3,1.2-0.5,1.8c-0.1,0-0.2,0-0.3,0.1c0.2-0.6,0.3-1.2,0.5-1.8
				c0.2,0,0.4-0.1,0.6-0.1H182.8z M185.4,174.6c0.1,0,0.1-0.2,0.1-0.3c0.2-1.6,0.5-3.1,0.7-4.7c-0.4,0.1-0.6,0.1-1.2,0.2
				c1.2-1.4,0.8-2.4-0.1-3.5c-0.1,2.2-0.2,4.3-0.3,6.4c0,0.3,0.2,0.6,0.3,1c0,0.1-0.1,0.3-0.2,0.5c-0.2,0.3-0.5,0.7-0.7,1.1
				c-0.2,0.4-0.1,0.9-0.3,1.3c-0.5,1.2-1,2.4-1.5,3.5c0.1,0.1,0.2,0.1,0.3,0.2c0.5-0.2,1.3-0.4,1.5-0.7c0.5-1.1,1-2.2,1.3-3.3
				c0.2-0.6-0.5-1.2,0.3-1.8L185.4,174.6z"/>
		</g>
		<defs>
			
				<filter id="Adobe_OpacityMaskFilter_00000091000609339444771230000003219261325545979522_" filterUnits="userSpaceOnUse" x="186.6" y="134.5" width="44" height="63">
				<feColorMatrix  type="matrix" values="1 0 0 0 0  0 1 0 0 0  0 0 1 0 0  0 0 0 1 0"/>
			</filter>
		</defs>
		
			<mask maskUnits="userSpaceOnUse" x="186.6" y="134.5" width="44" height="63" id="mask11_1125_1462_00000079464985821113379420000011062631753598178219_">
			<path style="fill:#FFFFFF;filter:url(#Adobe_OpacityMaskFilter_00000091000609339444771230000003219261325545979522_);" d="
				M469,20.4H37v238.2h432V20.4z"/>
		</mask>
		<g class="st25">
			<path class="st3" d="M229,136.9c1.8,0.5,1.7,1.6,1.5,2.9c-0.3,1.6-0.9,3.1-1.7,4.8c-0.5,1.1-0.9,2.4-1.4,3.6
				c-0.1,0.2-0.1,0.4-0.2,0.5c-1.3,0.9-1.2,2.2-1.7,3.3c-0.5,1.1-1,2.1-1.4,3.3c-0.7,1.9-1.4,3.9-2.1,5.9c-0.3,1.2-0.7,2.2-1.3,3.3
				c-0.5,1-1,2-1.3,3.1c-0.1,1.1-0.6,2.2-1,3.2c-0.3,1-0.6,2.1-1.1,3.1c-0.6,1.6-1.5,3.1-2.2,4.7c-0.3,0.7-0.3,1.4-0.4,2.2
				c-0.3,1.1-0.6,2.2-0.9,3.4c-0.2,0.6-0.5,1.3-0.3,1.9c0.1,0.9-1,1.9-0.2,2.8c0.1,0.1-0.1,0.6-0.1,1c-0.3,1,0.2,2-0.5,3
				c-0.3,0.5,0.5,0.9,1.2,0.7c0.8-0.2,1.6-0.9,2.4-0.5c-0.9,1.4-1.6,2.9-2.4,4.3c-0.1,0.2-0.6,0.3-0.8,0.3c-1-0.3-1.8-0.8-2.4-1.6
				c-1.2-1.4-2.1-3.1-2.4-4.8c-0.3-1.6-0.3-3.2-0.2-4.8c0-2,0.1-3.9,1-5.9c0.5-1.3,0.7-2.8,1-4.2c-0.1-0.1-0.2-0.1-0.3-0.2
				c-0.3,0.3-0.7,0.6-0.9,1c-1.4,2.1-3.3,3.9-5.3,5.6c-0.8,0.7-1.4,1.5-2,2.2c-0.3,0.3-0.6,0.5-0.9,0.9c-0.2,0.2-0.5,0.3-0.6,0.5
				c-0.7,1.7-2.5,2.7-3.9,4c-1.3,1.2-2.7,2-4.3,2.5c-1.2,0.4-2.2,0.1-2.9-0.7c-2.9-2.9-2.7-6.2-1.2-9.9c1.4-3.5,3.3-6.9,5.5-10.1
				c2.1-3.2,4.1-6.5,7.3-9.2c1.2-1,2.4-1.9,4.2-2.2c1.1-0.2,1.8,0.1,2.6,0.5c1.4,1,2.7,1.8,4.2,2.7c0.2,0.1,0.8-0.2,1.3-0.3
				c0.2,0.4,0.6,0.3,0.9-0.1c0.4-0.5,0.7-1.2,1-1.8c0.1-0.2,0-0.4,0-0.7c0-0.3,0-0.7,0.1-1.1c0.5-1,1-2,1.5-2.9
				c0.2-0.3,0.3-0.7,0.3-1c0.5-1.6,1.1-3.3,1.6-5c0.1-0.4,0.1-0.9,0.5-1.2c1.2-1.6,1.4-3.3,1.9-4.9c0.5-1.8,1.2-3.6,1.7-5.4
				c0.5-1.4,0.8-2.8,1.2-4.2c0.3-0.9,0.7-1,1.8-0.8c1.4,0.3,1.8,1.4,2.9,2c0.2,0.1,0.3,0.4,0.5,0.5L229,136.9z M204.1,174.7
				c0.5-0.7,0.9-1.5,1.4-2.2c0.6-0.5,1-1.6,2.4-1.4c0.2,0.1,0.6-0.5,1-0.9c-0.4-0.1-0.6-0.2-1.2-0.3c0.6-0.7,1.1-1.3,1.6-2
				c0.1-0.2,0.1-0.4,0.2-0.6c-0.3-0.1-0.6-0.1-0.8-0.1c-0.5,0.1-1,0.2-1.5,0.3c-1.5,0.4-3.1,0.9-4,1.9c-1.6,1.7-3,3.5-4.5,5.2
				c-0.4,0.5-0.7,1-1.1,1.5c-0.5,0.5-1.2,1.1-1.6,1.7c-0.5,0.7-0.9,1.5-1.4,2.2c-1,1.7-1.9,3.4-2.9,5.1c0.1,0.1,0.2,0.1,0.3,0.2
				c1.3-1.2,2.9-2,4.1-3.3c1.2-1.3,2.6-2.4,3.9-3.7c0.8-0.7,1.7-1.3,2.2-2c0.6-0.8,1.1-1.2,2.2-1.1c1-1.1,2-2.2,3.1-3.4
				c-0.1-0.1-0.2-0.1-0.3-0.2c-1,1-2,2-2.9,3.1C204.3,174.8,204.2,174.8,204.1,174.7z M210,172c-0.1-0.1-0.2-0.1-0.3-0.2
				c-0.5,0.6-1,1.3-1.4,1.9c0.1,0.1,0.2,0.1,0.3,0.2C209.1,173.3,209.5,172.6,210,172z M210.5,168.2c0-0.1-0.2-0.2-0.3-0.3
				c-0.2,0.3-0.4,0.7-0.5,1.1c0.2,0.1,0.4,0.1,0.6,0.2c0.2-0.3,0.4-0.7,0.5-1.1L210.5,168.2z M211.8,187.6c0.1-0.7,0.3-1.3,0.3-1.7
				c-1.2,0.5-1.9,1.3-1.6,2.7c0.5-0.4,0.9-0.7,1.1-0.9L211.8,187.6z M213.5,181.8c0.3-0.7,0.5-1.5,0.6-2.2c-1.4,0.1-1.9,0.5-2.2,1.6
				c-0.2,0.7-0.4,1.6-0.7,2.4c0,0.4,0.7,0.7-0.1,1.3c-0.1,0-0.1,0.3,0,0.3c0,0.1,0.3,0.1,0.4,0.1c0.1-0.1,0.2-0.3,0.3-0.5
				c0.3-1,0.5-1.9,0.8-2.7C213.1,181.9,213.6,181.8,213.5,181.8L213.5,181.8z M217.7,169.1c0.7-1.2,0.6-2.3,0.5-3.7
				c-0.4,0.2-0.7,0.3-1,0.5c0.2,0.4,0.3,0.6,0.5,1c-0.5,0.1-0.8,0.2-1.1,0.2c0,0.4,0,0.7,0.1,1.2c0.2,0.1,0.4,0.1,1,0.2
				c-0.5,0.4-0.9,0.7-1.3,1c-1,1.8-1.7,3.7-2.5,5.6c-0.5,1.3-1.1,2.6-0.4,4c0.3-0.2,0.7-0.3,0.8-0.5c0.3-0.5,0.3-0.9,0.5-1.3
				c0.3-0.9,0.7-1.8,1.1-2.7c-0.3,0.1-0.5,0.1-0.9,0.1c0.6-0.7,1.1-1.2,1.4-1.8c0.1-0.2,0.1-0.5,0-0.7c-0.7-0.7-0.7-0.7,0.5-1.2
				c-0.6-0.4-0.3-0.7,0.3-1c0.2-0.1,0.4-0.4,0.6-0.7L217.7,169.1z"/>
		</g>
		<defs>
			
				<filter id="Adobe_OpacityMaskFilter_00000103979446376228006680000002685665854294356380_" filterUnits="userSpaceOnUse" x="216.2" y="151.5" width="39.3" height="77.3">
				<feColorMatrix  type="matrix" values="1 0 0 0 0  0 1 0 0 0  0 0 1 0 0  0 0 0 1 0"/>
			</filter>
		</defs>
		
			<mask maskUnits="userSpaceOnUse" x="216.2" y="151.5" width="39.3" height="77.3" id="mask12_1125_1462_00000159430543573609598750000013243520491572947077_">
			<path style="fill:#FFFFFF;filter:url(#Adobe_OpacityMaskFilter_00000103979446376228006680000002685665854294356380_);" d="
				M469,20.4H37v238.2h432V20.4z"/>
		</mask>
		<g class="st27">
			<path class="st3" d="M254.9,155.6c0.2,1.8,1.1,3.4,0.1,5.4c-0.7,1.2-0.5,2.6-1,3.8c-0.8,2-1.8,4.1-2.8,6.1
				c-0.7,1.2-1.8,2.2-2.5,3.4c-1.2,2-2.9,3.8-4.4,5.6c-0.1,0.1-0.3,0.2-0.4,0.3c-0.9,0.7-1.8,1.6-2.7,2.3c-0.8,0.7-1.6,1.5-2.4,2.3
				c-0.4,0.4-0.9,0.7-1.4,1.2c-0.6,0.4-1.2,0.8-1.8,1.2c-0.1,0.1-0.4,0.1-0.5,0.2c-1.2,1.4-2.8,1.2-4.4,1.4c-1,0-1.8,0.5-2.1,1.5
				c-0.1,0.7-0.5,1.6-0.8,2.4c-0.1,0.2-0.2,0.3-0.3,0.5c-0.3,1-0.4,1.9-0.6,2.9c0.7,1.2-0.7,2.1-0.9,3.2c-0.1,1.1-0.4,2.2-0.7,3.3
				c-0.2,0.7-0.3,1.4-0.5,2.1c-0.1,0.9-0.3,1.7-0.5,2.6c-0.4,2-1,4.2-1.4,6.2c-0.5,2.2-1,4.5-1.6,6.7c-0.1,0.3-0.3,0.5-0.4,0.8
				c-0.1,0.2-0.3,0.3-0.3,0.5c0.3,1.3-0.6,2.6-0.5,3.9c0,0.5,0.1,1,0.1,1.5c0.1,0.5,0.1,1.1-0.4,1.6c-0.6,0.5-1,0.2-1.6,0.1
				c-1.4-0.3-2.2-1-2-2.2c0.1-1.5,0.3-3.1,0.2-4.8c-0.1-1.4-0.5-2.8-0.5-4.2c0.1-2.2,0.4-4.4,0.7-6.7c0.2-1.6,0.5-3.3,0.8-4.9
				c0.7-3.5,1.6-7.1,2.4-10.6c0.3-1.6,0.7-3.3,1.1-5s0.9-3.5,1.3-5.2c0.1-0.4,0.1-1,0.1-1.4c0.3-1.7,0.7-3.5,1.1-5.2
				c0.6-2.5,1.2-4.8,1.8-7.3c0.5-2,1-4,1.5-6c0.3-1.6,0.7-3.3,1-5.1c0.3-1.4,0.5-2.7,0.6-4.1c0.1-0.5-0.1-1-0.1-1.6
				c2-0.2,3.9,0.1,5.6,0.7c0.2,0.1,0.4,0.3,0.5,0.6c0.6,1.8,0.5,3.7,0.3,5.5c-0.1,0.8,0.1,1.7-0.1,2.5c-0.4,1.6-1.1,3.3-1.5,4.9
				c-0.2,0.7-0.1,1.4-0.1,2.1c0,0.3-0.1,0.6-0.3,0.7c-0.9,0.6-0.7,1.2-0.3,1.8c0.1,0.1,0.2,0.4,0.1,0.4c-1,0.6-0.1,1.6-0.8,2.4
				c0.2-0.2,0.4-0.4,0.5-0.5c0.5-0.9,1-1.8,1.3-2.7c0.7-1.4,1-3,2-4.1c0.7-0.8,1-1.6,1.5-2.5c0.5-1.2,1.2-2.3,1.9-3.5
				c0.3-0.5,0.9-0.9,1.2-1.3c1-1.4,1.8-2.7,2.8-4.1c0.4-0.5,1-1,0.6-1.7c0-0.1,0.3-0.3,0.5-0.5c1.3-0.5,2-1.5,2.4-2.7
				c0.3-0.8,1.3-1.4,2.3-1.2c1.8,0.3,3.6,0.6,4.7,1.9c0.4,0.5,0.5,1.3,0.6,2L254.9,155.6z M219.5,209.5c0.1-0.5-0.1-1-0.1-1.5
				c-1,1-2,7-1.5,9.3c0.1-1.1,0.3-2.2,0.5-3.3c0.3-1.6,0.8-3.1,1.2-4.6H219.5z M222.5,195.1c-0.1-0.1-0.2-0.1-0.3-0.2
				c-0.2,0.3-0.5,0.5-0.6,0.7c-0.3,0.8-0.5,1.6-0.6,2.3c-0.5,2.2-1,4.4-1.4,6.5c-0.1,1-0.2,2-0.3,3.1c0.3-0.1,0.6-0.1,0.6-0.2
				C220.9,203.3,221.9,199.2,222.5,195.1z M222.9,194.6c0.5-2.5,1-4.9,1.5-7.3c-1.4,1.9-2.4,6.6-1.6,7.3H222.9z M231.2,185
				c6.9-3,20.4-24.3,18.5-29.1c-1.1,1.3-2,2.5-3,3.5c-0.4,0.5-0.7,1.2-1.6,0.6c-0.3,0.3-0.6,0.7-0.7,1c-1,1.4-1.8,2.9-2.8,4.4
				c-1,1.6-2.1,3.3-3.1,4.9c-0.7,1.1-1.2,2.2-1.9,3.3c-0.5,0.8-1.3,1.6-0.3,2.4c0.1,0.1,0,0.4-0.1,0.6c-0.7,1.1-1.2,2.3-2.3,3.3
				c-0.2,0.2-0.3,0.5-0.4,0.6c-0.3,0.8-0.7,1.6-1.1,2.4c-0.3,0.6-0.5,1.2-1,2.1H231.2z M234.2,185.8c2.8-1.8,5-3.9,6.8-6.4
				c-0.1-0.1-0.2-0.1-0.3-0.2C238.5,181.4,236.4,183.6,234.2,185.8L234.2,185.8z"/>
		</g>
		<defs>
			
				<filter id="Adobe_OpacityMaskFilter_00000103981194405775843960000002178714236793073796_" filterUnits="userSpaceOnUse" x="250.2" y="154.3" width="40.9" height="33.5">
				<feColorMatrix  type="matrix" values="1 0 0 0 0  0 1 0 0 0  0 0 1 0 0  0 0 0 1 0"/>
			</filter>
		</defs>
		
			<mask maskUnits="userSpaceOnUse" x="250.2" y="154.3" width="40.9" height="33.5" id="mask13_1125_1462_00000057125289602434087850000000325866089000876688_">
			<path style="fill:#FFFFFF;filter:url(#Adobe_OpacityMaskFilter_00000103981194405775843960000002178714236793073796_);" d="
				M469,20.4H37v238.2h432V20.4z"/>
		</mask>
		<g class="st29">
			<path class="st3" d="M290.1,167.3c-0.1-0.1-0.2-0.1-0.3-0.2c0.2-0.4,0.3-0.9,0.5-1.3c-0.1,0-0.2,0-0.3,0.1
				c-1.2,1.8-2.5,3.7-3.7,5.4c-0.1,0.1,0.1,0.3,0.3,0.8c1.2-1.6,2.2-3.1,3.3-4.4c0.1,0,0.2,0,0.3-0.1c-0.1,0.7-0.1,1.5-0.2,2.4
				c0.3-0.1,0.5-0.1,0.7-0.1c-0.1,0.2-0.1,0.3-0.2,0.3c-0.9,1-1.6,2-2,3.3c-0.4,1.6-1.8,3.1-2.8,4.6c-0.7,1-1.2,2.1-2,3
				c-0.7,1-1.8,1.8-2.7,2.6c-1.2,0.9-3.2,0.3-4-0.6c-1.5-1.6-3-3.2-3.5-5.2c-0.5-1.9-1.4-3.7-0.9-5.8c0.1-0.4-0.3-0.9-0.3-1.4
				c0-0.5,0.1-1,0.1-1.5c0-0.3-0.1-0.7-0.3-1.2c-0.7,1.1-1.2,1.9-1.6,2.7c-0.3-0.1-0.5-0.1-0.5-0.1c-0.2,0.6-0.3,1.1-0.5,1.6
				c-1.2,2-2.5,3.9-3.7,5.8c-0.3,0.3-0.7,0.7-1,1.1c-0.6,0.7-1.1,1.6-1.6,2.3c-1.1,1.2-2.2,2.5-3.2,3.7c-0.5,0.5-1.1,1-1.6,1.6
				c-1.8,2-4.6,1.3-5.6-0.5c-0.4-0.6-0.7-1.2-1.3-1.8c-1.1-1.2-1.4-2.5-1.1-4c0.3-1.6,0.7-3.1,1.4-4.6c1.4-3,2.9-6.1,4.5-9
				c1.7-3.1,3.5-6.1,5.3-9.2c0.5-0.8,1.2-1.6,1.8-2.3c0.1-0.2,0.7-0.3,0.9-0.2c1.5,0.8,2.7,1.8,4.3,2.5c1.2,0.6,1.6,1.6,2.2,2.6
				c0.4,0.5,0.8,0.5,1.4-0.1c0.7-0.9,1.4-1.8,2.1-2.8c0.2-0.3,0.2-0.7,0.3-1c-0.1-0.1-0.2-0.1-0.3-0.2c0.3-0.5,0.5-1.1,1-1.7
				c1.2,0.7,2.3,1.4,3.5,2.1c2,1.3,1.7,3.3,1.4,5.2c-0.3,2-1,4.1-1.6,6.1c-0.3,1.6-0.7,3.1-1,4.6c-0.2,1.9-0.1,3.7-0.1,5.6
				c0.1,0,0.2,0,0.3-0.1c0.2-0.2,0.4-0.3,0.6-0.5c0.9-1,1.8-2,2.7-3.1c0.3-0.3,0.5-0.8,1.2-0.6c0.2,0.1,0.7-0.4,1-0.7
				c0.3-0.3,0.4-0.6,0.7-0.8c0.6-0.5,0.3-0.7-0.3-0.9c0.2-0.3,0.4-0.5,0.7-1c0.1,0.4,0.1,0.7,0.3,1.2c1.8-2.2,3.3-4.2,5-6.4
				c0.5,0.5,1.8,0.1,1.7,1c0,0.4-0.5,0.9-0.7,1.4L290.1,167.3z M263.7,172.5c1.4-1.8,2.7-3.7,4.1-5.5c1.4-1.8,0.3-3.5,0.1-5.1
				c-0.1-0.1-0.2-0.1-0.3-0.2c-0.7,1-1.6,1.9-2.4,2.8c-0.7,1-1.2,1.9-1.8,2.8c-1.2,1.6-2.9,3.1-2.9,5.1c0,0.3-0.3,0.5-0.5,0.8
				c-0.9,1.4-1.8,2.9-2.6,4.4c-0.2,0.4,0.1,1,0.1,1.6c1.7-0.9,3.5-3.3,3.3-4.1c0.4-0.2,0.8-0.4,1.1-0.7c0.6-0.7,1.2-1.3,1.6-2
				L263.7,172.5z M272.8,164.2c1.3-1.1,1.3-2.5,1.8-3.7c-0.1-0.1-0.2-0.1-0.3-0.2c-0.5,0.7-1,1.4-1.4,2.1c-0.5,1-1,2-1.6,2.9
				c-0.5,0.8-1.2,1.6-1.8,2.3c-0.5,0.5-1,1.1-1.4,1.8c-0.7,1.1-1.6,2.2-2.3,3.3c-0.2,0.3-0.2,0.6-0.3,1c0.5-0.2,0.8-0.5,1-0.8
				c0.7-1,1.4-1.9,2.2-2.9c0.3-0.3,0.9-0.7,1.1-1.2c0.7-1.5,2.2-2.9,2.7-4.5c0-0.1,0.2-0.2,0.3-0.3L272.8,164.2z M288.4,165.4
				c-0.6,0.7-1.2,1.5-1.8,2.3c-0.1-0.1-0.2-0.1-0.3-0.2c0.6-0.7,1.2-1.5,1.8-2.2C288.2,165.4,288.3,165.4,288.4,165.4L288.4,165.4z"
				/>
		</g>
		<defs>
			
				<filter id="Adobe_OpacityMaskFilter_00000109026221446103732840000003733617123723656083_" filterUnits="userSpaceOnUse" x="287.3" y="144.8" width="29" height="40.6">
				<feColorMatrix  type="matrix" values="1 0 0 0 0  0 1 0 0 0  0 0 1 0 0  0 0 0 1 0"/>
			</filter>
		</defs>
		
			<mask maskUnits="userSpaceOnUse" x="287.3" y="144.8" width="29" height="40.6" id="mask14_1125_1462_00000034070497044188071270000007778158174533297564_">
			<path style="fill:#FFFFFF;filter:url(#Adobe_OpacityMaskFilter_00000109026221446103732840000003733617123723656083_);" d="
				M469,20.4H37v238.2h432V20.4z"/>
		</mask>
		<g class="st31">
			<path class="st3" d="M316.1,156.4c0.1,0.4-0.3,1.2-0.9,1.5c-0.4,0.2-1.4,0.1-1.8-0.2c-1.4-0.7-2.3-1.8-2.7-3.2
				c-0.2-0.7-0.3-1.5-0.5-2.2c-0.1-0.4-0.3-0.8-0.3-1.3c-1.4,0.6-1.8,1.6-2.1,2.5c-0.1,0.3-0.1,0.7-0.1,1c-0.1,0.2-0.3,0.5-0.4,0.5
				c-1.7,0.3-1.8,1.7-2.4,2.7c-0.7,1.1-1.2,2.3-1.8,3.5c-0.8,1.7-1.7,3.4-2.5,5.1c-0.7,1.4-1.4,2.6-2,3.9c-0.7,1.6-1.3,3.2-1.9,4.8
				c-0.5,1.2-1,2.3-1.4,3.5c-0.3,0.7-0.5,1.5-0.6,2.2c-0.1,0.3-0.1,0.7,0.1,1c0.3,1,0.1,1.7-1.1,2.5c-0.2,0.2-0.3,0.5-0.5,0.6
				c-0.6,0.4-1.1,0.9-1.8,0.2c-0.4-0.5-1.4-0.5-2-0.9c-0.8-0.4-1.5-1-1-1.9c0.1-0.3,0-0.6-0.1-0.9c-0.3-1.2-0.7-2.2-0.9-3.4
				c-0.1-0.9,0-1.8,0.2-2.8c0.5-3.2,1-6.3,1.8-9.5c0.3-1.6,1.2-3.3,1.7-4.9c0.2-0.5,0.1-1.1,0.1-1.6c0.1-0.3,0.4-0.7,0.5-1.1
				c0.7-2.6,1.4-5.2,2.1-7.8c0.3-1.2,0.7-2.2,1-3.4c0.1-0.3,0-0.6-0.1-0.8c0-0.3-0.1-1,0.1-1c0.5-0.1,1.1-0.2,1.6-0.2
				c1.4,0.2,2.3,1,3.5,1.4c1.6,0.5,2.1,1.7,2.1,3.1c0,0.4-0.3,0.8-0.5,1.2c-0.5,1.2-1,2.3-1.3,3.4c-0.3,0.9-0.5,1.8-0.8,2.8
				c0.1,0.1,0.2,0.1,0.3,0.2c0.5-1,1-2,1.5-2.9c0.7-1.2,1.6-2.3,2.4-3.4c0.4-0.6,0.7-1.3,1.2-1.9c0.7-1.1,1.2-2.2,2.1-3.1
				c0.3-0.3,1.3-0.7,1.8-0.5c1.6,0.3,3.3,0.5,4.5,1.2c1.6,1.1,2.7,2.7,2.7,4.6c-0.1,2,0,3.9,0.5,5.7L316.1,156.4z M303.9,152.9
				c-1.3,0.7-4.8,6.1-4.5,7.1C300.9,157.6,302.3,155.4,303.9,152.9z"/>
		</g>
		<defs>
			
				<filter id="Adobe_OpacityMaskFilter_00000178913348459296302020000012271276942314531474_" filterUnits="userSpaceOnUse" x="314.2" y="144.3" width="38.3" height="36.2">
				<feColorMatrix  type="matrix" values="1 0 0 0 0  0 1 0 0 0  0 0 1 0 0  0 0 0 1 0"/>
			</filter>
		</defs>
		
			<mask maskUnits="userSpaceOnUse" x="314.2" y="144.3" width="38.3" height="36.2" id="mask15_1125_1462_00000179611515344486649870000001632295508114997152_">
			<path style="fill:#FFFFFF;filter:url(#Adobe_OpacityMaskFilter_00000178913348459296302020000012271276942314531474_);" d="
				M469,20.4H37v238.2h432V20.4z"/>
		</mask>
		<g class="st33">
			<path class="st3" d="M349.6,160.9c0.4-0.3,0.8-0.5,1.2-0.7c0.1,0.1,0.2,0.1,0.3,0.2c-0.5,0.6-0.9,1.4-1.4,1.9
				c-0.7,0.7-1.5,1.4-2.2,2c-0.2,0.2-0.4,0.4-0.6,0.5c-1,1.3-1.9,2.6-3,3.9c-0.3,0.3-0.7,0.7-1,1c-0.6,0.7-1.6,1.1-1.8,2.2
				c-0.2,0.7-1.3,1.3-2,1.9c-1.7,1.2-3.4,2.3-5,3.5c-0.4,0.3-0.7,0.7-1.1,0.9c-0.8,0.5-1.7,1-2.6,1.4c-1,0.3-2.1,0.7-3.1,0.9
				c-2.5,0.4-4.6-0.7-6.5-1.7c-2.7-1.4-4.2-3.9-5.5-6.2c-1.1-1.9-1.5-4.1-0.7-6.4c0.3-1,0.4-2.2,0.9-3.1c0.7-1.6,1.7-3.2,2.5-4.8
				c0.5-0.9,0.8-1.8,1.4-2.6c1-1.6,2.1-3.3,3.4-4.8c1-1.2,2.2-2.2,3.5-3.2c1.5-1.1,3.2-2,4.9-2.9c1.1-0.6,2.3-0.6,3.4-0.1
				c1.8,1,3.8,1.9,4.4,3.8c0.3,1.2,0.7,2.5,0.3,3.6c-0.3,1-0.3,2.3-1.7,3.1c-0.1,0.1-0.2,0.2-0.2,0.3c-0.1,1.8-1.7,3-2.9,4.2
				c-2,2.2-4.4,4.2-6.7,6.3c-1,0.9-2.9,0.8-3.8,0c-0.4-0.3-1-0.5-1.4-0.7c-0.2,0.5-0.3,0.9-0.5,1.3c-0.3,1.2-0.6,2.2-0.9,3.4
				c-0.5,1.9-0.9,3.8,0.3,5.5c0.5,0.9,1.6,0.5,2.4,0.3c2.3-0.4,4.4-1.5,6.5-2.8c0.9-0.5,1.9-1,2.9-1.5c0.1-0.1,0.3-0.2,0.3-0.2
				c-0.1-1.1,1-0.9,1.6-1.2c0.9-0.5,1.6-1.2,2.4-1.8c1.7-1.2,3.4-2.3,5.1-3.5c1-0.6,2-1.2,3-1.8c0.1-0.1,0.3-0.1,0.7-0.1
				c-1,0.7-1.8,1.3-2.6,1.9c0.1,0.1,0.2,0.1,0.3,0.2c0.7-0.4,1.5-0.8,2.2-1.4c0.8-0.6,1.6-1.2,2.4-1.8c0.4-0.3,0.8-0.7,1.2-1
				L349.6,160.9z M323.9,161c-0.2,0.4-0.3,0.9-0.5,1.3c0.1,0.1,0.2,0.1,0.3,0.2c1-0.8,2-1.6,3-2.4c1.2-1,2.4-2,3.5-3
				c0.5-0.4,1.1-0.6,1.5-1c0.6-0.7,1.1-1.5,1.6-2.1c1.4-1.5,2.1-3.1,2.1-4.9c0-0.6-0.3-0.7-1-0.3c-1,0.6-2,1.2-2.9,1.9
				c-1.4,1.1-2.9,2.1-3.5,3.7c-0.2,0.6-1.1,1-1.8,1.7c0.5,0.6-0.1,1.3-0.8,2c-0.2,0.2-0.3,0.5-0.4,0.6
				C324.6,159.4,324.2,160.3,323.9,161L323.9,161z M340.8,166.2c0.6,0.4,1.2,0.5,1.6-0.1c0-0.1,0-0.1,0-0.3
				C341.8,166,341.3,166.1,340.8,166.2L340.8,166.2z M350.4,158.2c0.7-0.6,1.4-1.2,2-1.8C352.3,157.3,351.7,157.9,350.4,158.2
				L350.4,158.2z"/>
		</g>
		<defs>
			
				<filter id="Adobe_OpacityMaskFilter_00000114055547504899246660000014002379115926386598_" filterUnits="userSpaceOnUse" x="343.4" y="140.2" width="38.1" height="37.5">
				<feColorMatrix  type="matrix" values="1 0 0 0 0  0 1 0 0 0  0 0 1 0 0  0 0 0 1 0"/>
			</filter>
		</defs>
		
			<mask maskUnits="userSpaceOnUse" x="343.4" y="140.2" width="38.1" height="37.5" id="mask16_1125_1462_00000113345193850796987830000009767518092315987079_">
			<path style="fill:#FFFFFF;filter:url(#Adobe_OpacityMaskFilter_00000114055547504899246660000014002379115926386598_);" d="
				M469,20.4H37v238.2h432V20.4z"/>
		</mask>
		<g class="st35">
			<path class="st3" d="M378.2,165.5c1-0.5,2-0.9,3.2-1.3c-0.2,0.3-0.4,0.5-0.6,0.7c-0.5,0.8-1.8,1.3-1.4,2.5c0,0.1-0.3,0.2-0.4,0.3
				c-0.5,0.4-1,0.8-1.5,1.3c-1,0.9-1.9,1.1-2.9,0.3c-1.9-1.4-3.3-3-3.7-5.2c-0.4-2.6,0.1-5.2,0.7-7.8c0.2-0.6,0.1-1.2,0.2-1.8
				c0.3-1.6,0.7-3.3,1.1-4.9c0.1-0.3,0-0.7-0.1-1.1c0-0.6-0.1-1.2-0.1-1.8c0-0.3,0-0.5-0.1-0.7c-0.3,0.1-0.6,0.2-0.9,0.4
				c-1.6,1.2-3.4,2.2-4.4,3.9c-0.5,0.9-1.6,1.6-2.2,2.5c-1.6,2-3.2,4.1-4.6,6.2c-1.4,2-2.4,4.2-3.6,6.2c-0.9,1.4-1.7,2.7-2.8,4
				c-1.3,1.6-1.9,3.5-2.9,5.3c-0.2,0.4-0.3,0.9-0.7,1.2c-0.2,0.3-0.6,0.5-0.7,0.7c-0.4,0.7-0.7,1.4-1.8,1c-0.7-0.1-1.4-0.3-2-0.7
				c-1.4-0.7-1.8-2.2-2.7-3.2c-0.1-0.3,0.1-0.7,0.1-1c0-2.9,1-5.6,2-8.4c1.2-3.3,2.2-6.5,3.3-9.8c0.6-1.9,1.3-3.8,1.9-5.8
				c0.5-1.3,0.9-2.7,1.4-3.9c0.5-1.2,1-2.2,1.5-3.3c0.5-0.9,1.2-1.1,2.1-0.6c0.6,0.3,1.2,0.7,1.7,1.1c0.1,0,0.2,0.1,0.2,0.1
				c0.3,1.1,0.8,2.1,0.5,3.1c-0.7,3-1.7,6-2.6,9c-0.3,1-0.8,2.1-1.2,3.1c-0.1,0.3-0.2,0.5-0.3,0.8c0.1,0,0.2,0,0.3-0.1
				c1.8-2.4,3.1-5,5.7-6.7c-0.7-1,0.7-1.4,0.6-2c0.1,0,0.2,0,0.3-0.1c-0.2,0.4-0.3,0.9-0.5,1.3h0.1c0.2-0.2,0.4-0.4,0.6-0.5
				c0.5-0.5,1.1-1.2,1.4-1.8c0.2-0.3,0.2-0.7,0.3-1c-0.1,0-0.2,0-0.3,0.1c1.8-1.6,3.5-3.3,5.5-5.1c-1.6-0.1-1.8,1.2-2.9,1.5
				c0.1-0.3,0.1-0.5,0.3-0.6c1.5-1.2,2.5-2.9,4.9-2.9c1,0,2-0.2,2.5,0.7c0.1,0.1,0.5,0.2,0.7,0.3c0.8,0.1,1.6,0.3,2.4,0.5
				c0.2,0.1,0.3,0.4,0.4,0.6c0.1,0.3,0.1,0.7,0.3,0.9c2.2,1.4,2.5,3.3,2.1,5.4c-0.1,0.6,0.3,1.2,0.3,1.8c0,0.6-0.3,1.2-0.4,1.8
				c-0.1,0.3-0.3,0.6-0.1,0.7c0.5,0.8-0.1,1.5-0.3,2.3c-0.5,1.2-0.8,2.5-1.1,3.8c-0.1,0.7,0,1.6-0.1,2.5c-0.1,0.5-0.5,1-0.5,1.5
				c-0.1,0.7,0.1,1.4,0,2c0,0.6,0.9,0.8,1.6,0.5L378.2,165.5z M363,151.5c2.4-3.1,5.2-5.9,7.9-8.8c-1.1,0.9-2.7,1.2-3.2,2.5
				c-0.1,0.3-0.5,0.4-0.8,0.6c-0.2,0.1-0.5,0.1-0.6,0.2c-0.5,1.1-1.4,1.9-2.6,2.5c-0.2,0.1-0.4,0.4-0.5,0.5
				c-0.3,0.8-0.7,1.6-1.1,2.4c-0.1,0.3-0.3,0.5-0.5,0.8c-0.4,0.4-0.9,0.7-1.2,1.2c-0.9,1.2-1.6,2.5-2.4,3.6
				c-0.7,1.2-1.6,2.4-2.5,3.5c0.1,0.1,0.2,0.1,0.3,0.2c2.3-3.1,4.4-6.3,6.9-9.4L363,151.5z"/>
		</g>
		<defs>
			
				<filter id="Adobe_OpacityMaskFilter_00000158710765754935201000000000077136870933063587_" filterUnits="userSpaceOnUse" x="358.3" y="103.4" width="75.1" height="79.7">
				<feColorMatrix  type="matrix" values="1 0 0 0 0  0 1 0 0 0  0 0 1 0 0  0 0 0 1 0"/>
			</filter>
		</defs>
		
			<mask maskUnits="userSpaceOnUse" x="358.3" y="103.4" width="75.1" height="79.7" id="mask17_1125_1462_00000070822677673165973470000003096103840487115455_">
			<path style="fill:#FFFFFF;filter:url(#Adobe_OpacityMaskFilter_00000158710765754935201000000000077136870933063587_);" d="
				M469,20.4H37v238.2h432V20.4z"/>
		</mask>
		<g class="st37">
			<path class="st3" d="M432.7,120.5c0.9,0.7,0.9,1.6,0.1,2.5c-1.6-0.1-3-0.9-4.8-0.7c-1.7,0.2-3.5-0.2-5.2-0.1
				c-2,0-4.1,0.1-6.1,0.2c-2.8,0.2-5.5,0.5-8.3,0.7c-0.3,0.1-0.6-0.2-0.8-0.5c3.9-0.5,7.8-0.9,11.8-1.4c-0.3-0.2-0.5-0.5-0.7-0.5
				c-1.4,0.1-2.7,0.2-4,0.3c-0.5,0.1-1,0-1.6,0.1c-1.3,0.1-2.7,0.4-3.9,0.5c-0.2,0-0.5,0.1-0.6,0.1c-0.7-0.4-1.4,0-2,0.2
				c-0.6,0.1-1.3,0.3-1.9,0.2c-1.2-0.2-2,0.7-3.1,0.9c0,0.1,0,0.1,0,0.3c1.9-0.2,3.9-0.5,5.8-0.7c-0.1,0.7-0.9,1.1-1.9,1
				c-0.1,0-0.2-0.1-0.2-0.1c-1.2,1-2.8,0.2-3.9,1c-0.2,0.1-0.4,0.3-0.5,0.5c-0.3,0.7-0.5,1.5-0.7,2.2c-0.2,0.4-0.5,0.8-0.7,1.3
				c-0.3,0.8-0.1,1.7-1,2.4c0.2,1.6-1,3.1-1.4,4.7c-0.3,1.4-1,2.7-1.4,4.2c-0.5,1.5-1,3-1.4,4.4c-0.1,0.3-0.4,0.6-0.5,1
				c-0.6,1.8-1.3,3.5-1.8,5.3c-0.5,1.4-0.7,2.8-1.4,4.2c-0.2,0.3,0.1,0.7,0.1,1c-0.2,0.6-0.5,1.2-0.7,1.8c-0.2,0.5-0.3,1.2-0.5,1.8
				c-0.3,0.8-0.5,1.6-0.7,2.5c-0.6,2.9-1.2,5.7-1.7,8.5c-0.3,1.7-0.5,3.5-0.6,5.3c0.1,1.4,0.5,2.7,0.9,3.9c0.1,0.5,1.4,0.5,2-0.1
				c1.3-1.3,2.5-2.7,3.8-3.9c0.1,0.1,0.2,0.1,0.3,0.2c-0.6,0.7-1.2,1.3-1.8,2c0.1,0.1,0.2,0.1,0.3,0.2c0.9-1,1.8-2,2.9-3.3
				c-0.5,0.1-0.7,0.1-1.3,0.3c1-1.1,1.8-2,2.5-3c0.1,0,0.2,0,0.3-0.1c-0.4,0.7-0.7,1.4-1.2,2.3c2.1-0.7,2.8-2.2,3.7-3.3
				c1.2-1.4,2.3-2.9,3.5-4.3c0.7-0.8,1.4-1.8,2-2.6c0.3-0.3,0.6-0.7,0.9-1.1c0.1,0.1,0.2,0.1,0.3,0.2c-0.7,1.1-1.6,2.2-2.3,3.3
				c-0.7,1-1.4,2-1.8,3.1c-0.3,0.7-0.1,1.5-0.2,2.3c0,0.1,0,0.3-0.1,0.4c-1,1.6-1.8,3.1-2.8,4.6c-0.5,0.8-1.2,1.6-1.8,2.3
				c-0.1,0.1-0.3,0.2-0.3,0.3c-0.1,1.4-1.6,2-2.5,2.8c-1.6,1.3-3.4,1.2-5.1,1c-1-0.2-1.9-0.9-2.9-1.4c-0.6-0.3-1.3-0.7-1.8-1.1
				c-2.7-1.7-3.1-4.2-2.9-6.9c0.1-1.2,0-2.4,0.1-3.5c0.2-1.6,0.5-3.3,0.8-4.9c0.5-2.4,1.1-4.8,1.8-7.3c0.9-3.2,2-6.5,3.1-9.6
				c1.2-3.6,2.3-7.1,3.6-10.8c1-3,2.2-6,3.3-9c0.2-0.6,0.1-1.3,0.1-1.8c0-0.1,0.3-0.3,0.7-0.7c-2.7,0.5-5.1,1-7.6,1.4
				c-0.1,0.3-0.5,0.5-1.3,0.7c-1,0.2-2,0.7-3.1,1c-1.9,0.5-3.9,1-5.8,1.7c-2.7,1-5.1,2.1-7.6,3.2c-1.3,0.5-2.7,1.1-4,1.7
				c-1.4,0.7-2.8,1.6-4.2,2.6c-0.6,0.4-1,0.3-1.4-0.1c-0.4-0.7-0.9-1.4-1.1-2.1c-0.1-0.3,0.3-0.8,0.5-1c1.1-0.6,2.3-1.1,3.4-1.6
				c1.4-0.7,2.8-1.6,4.3-2.2c1.5-0.7,3.1-1.6,4.8-1.7c1.5-0.2,2.7-1,4-1.2c0.3-0.1,0.6-0.4,0.8-0.5c0.7,0,1.4,0,2.4,0
				c0.1-0.1,0.3-0.3,0.4-0.4c0.6,0,1.2-0.1,1.6-0.1c0-0.1,0-0.1,0-0.3c-0.2-0.1-0.4-0.1-1-0.1c0.4-0.1,0.6-0.2,0.8-0.3
				c0.4-0.1,0.9-0.2,1.2-0.4c0.8-0.6,3.6-1.4,4.7-1c-0.7,0.3-1.3,0.5-2,0.7c1.8,0.1,2.5-0.3,2.3-1.4c1,0.1,1.8,0.3,2.4,0.1
				c0.7-0.1,1.4-0.7,2.1-1.2c0,0.1,0,0.3,0,0.3c0.7-0.1,1.4-0.1,2.1-0.3c0.6-0.1,1.3-0.2,1.8-0.5c0.4-0.3,0.7-0.8,0.9-1.3
				c0.6-1.6,1.4-3.2,1.8-4.8c0.2-0.7,1.2-1.6,0.4-2.4c-0.1-0.1,0-0.4,0.1-0.5c1.4-0.9,0.8-2.2,1.3-3.3c0.7-1.5,1.1-3.1,1.6-4.6
				c0.1-0.3,0.2-0.7,0.1-1c0.1-1.3,0.8-1.7,2.2-1.3c0.6,0.2,1.2,0.5,2,0.5c1.4,0.3,1.8,1.3,2,2.2c0.1,0.8-0.3,1.8-0.7,2.7
				c-1.2,3.3-2.4,6.5-3.7,9.7c-0.2,0.4-0.3,0.9-0.3,1.3c0.4,0.1,0.8,0.1,1.4,0.1c-0.1,0.2-0.2,0.3-0.4,0.5c0.8-0.1,1.5-0.2,2.2-0.3
				c0-0.1,0-0.1,0-0.3c-0.5,0-1-0.1-1.6-0.1c0-0.1,0-0.1,0-0.3c1.1-0.1,2.2-0.3,3.3-0.4c0,0.1,0,0.1,0,0.3c-0.3,0.1-0.6,0.3-0.8,0.3
				c1.3-0.1,2.7-0.3,3.9-0.5c0-0.1,0-0.1,0-0.3c-0.3-0.1-0.6-0.1-1-0.1c0-0.1,0-0.1,0-0.3c0.8-0.1,1.6-0.2,2.4-0.3
				c0,0.1,0,0.1,0,0.3c-0.3,0.1-0.6,0.2-0.9,0.3c0.6,0.3,1.2,0.2,1.5-0.3c0.2-0.3,0.6-0.5,0.9-0.6c3-0.3,5.9-0.4,8.9-0.7
				c0.4-0.1,0.8-0.3,1.2-0.4c0.4,0.5,1.2,0.5,2.4-0.1c-0.1,0.2-0.1,0.3-0.1,0.4c1.4,0,2.7-0.1,4,0.1c1.2,0.1,2.4,0.1,2.4,1.4
				c0,0.1,0.1,0.1,0.2,0.2L432.7,120.5z M378.5,128.9c2.2-0.3,5.4-1.4,5.9-2.2c-1.2,0.4-2.2,0.8-3.3,1c-0.8,0.2-2.4,0.9-2.6,1.4
				L378.5,128.9z M382.3,170.5c0.1-0.7,0.3-1.6-0.5-2.1c-0.1,1.8-0.3,3.5-0.4,5.3c0.3-1,0.5-2.1,0.7-3.1L382.3,170.5z M383.5,164.4
				c0.3-0.8-0.1-0.8-1-0.9c-0.2,1.6-0.5,3.2-0.7,4.7c0.3-0.3,0.7-0.5,0.8-0.7c0.3-1,0.3-2,0.8-2.9V164.4z M382.7,162.8
				c-0.1,0.3,0.2,0.5,0.5,0.8c0.1,0,0.2,0,0.3-0.1c0.1-0.9,0.3-1.7,0.5-2.6c0.2,0,0.4-0.1,0.4-0.1c0-0.5-0.1-0.9-0.1-1.4
				c0.3-1.2,0.7-2.2,0.9-3.3c0.1-0.5,0.3-1.3-0.6-1.6c-0.1,0.7-0.1,1.4-0.3,2c-0.5,2.1-1,4.2-1.6,6.3L382.7,162.8z M391,146.5
				c-0.1-0.1-0.2-0.1-0.3-0.1c1.2-3.3,2.4-6.6,3.5-9.9c1.1-3.3,2.6-6.5,3.3-9.7c-0.7,1.2-1.2,2.5-1.7,3.8c-0.6,1.8-1.2,3.6-1.8,5.3
				c-0.7,1.8-1.6,3.7-2.2,5.6c-1.2,3.6-2.2,7.1-3.3,10.8c-0.8,2.5-1.7,5.1-2.3,7.7c-0.8,3.1-1.4,6.1-2,9.1c-0.2,0.7-0.1,1.4-0.2,2
				c0.1,0,0.2,0,0.3-0.1c0.4-2.3,0.8-4.6,1.4-6.9c0.5-2.3,1.4-4.6,1.8-6.9c0.4-2,1.8-6.3,2.8-6.9c-0.2,0.7-0.3,1.2-0.4,1.7
				c0.2-0.2,0.5-0.4,0.6-0.7c0.5-1.5,1-3,1.4-4.4c0.6-1.8,1.3-3.5,1.9-5.2c0.5-1.5,1.1-3,1.6-4.5c0.5-1.2,0.9-2.5,1.4-3.7
				c0.2-0.6,0.3-1.2,0.4-1.8c-0.3,0.1-0.5,0.3-0.6,0.5c-0.6,1.8-1.3,3.7-1.9,5.5c-0.8,2.5-1.6,4.9-2.4,7.3c-0.2,0.4-0.5,0.8-0.9,1.2
				L391,146.5z M386.6,149c-0.8,1.8-1.4,3.7-2,5.7c0.3-0.1,0.6-0.1,0.8-0.1c0.1-0.3,0.1-0.5,0.1-0.7c0.1,0,0.2,0,0.3-0.1
				c0,0.7,0.1,1.4,0.1,2.2c0.2-0.2,0.3-0.3,0.3-0.3c0.2-0.7,0.3-1.3,0.1-2.1c-0.3-1,0.5-2.2,0.7-3.3c0.2-0.5,0.3-1,0.4-1.6
				c0.2,0.1,0.6,0.2,1,0.3c0-0.1,0-0.5,0-0.5c-1-0.1-0.5-0.8-0.5-1.2c0-0.1,0.4-0.5,0.5-0.7c0.7-2,1.2-4.1,2.1-6.1
				c0.7-1.6,0.7-3.2,1.5-4.7c1-1.7,1.2-3.6,1.8-5.4c0.2-0.7,0.7-1.4,0.8-2c0.3-1,0.6-2.1,0.9-3.1c-0.1,0-0.2,0-0.3,0.1
				c-0.2,0.3-0.5,0.7-0.7,1.1c-0.3,0.9-0.6,1.8-1,2.7c-0.9,2.4-1.9,4.8-2.9,7.1c-1.2,3.3-2.2,6.7-3.5,10.1c-0.3,1-0.4,2-0.9,3.1
				L386.6,149z M386.4,126.5c0.3-0.1,0.6-0.1,0.9-0.3c-0.1-0.3-0.2-0.5-0.5-0.9c-0.5,0.4-0.7,0.7-1,0.8c-0.3,0.1-0.6,0.1-0.9,0.1
				c0,0.1,0,0.1,0,0.3c0.4,0.1,0.8,0.1,1.2,0L386.4,126.5z M387.1,162.8c-0.1,0-0.2,0-0.3,0.1c-0.2,0.7-0.3,1.4-0.5,2.1
				c0.1,0,0.2,0,0.3-0.1C386.8,164.2,387,163.5,387.1,162.8z M389.7,152.1c-1,2.7-2,5.4-2.3,8.2c0.4-0.7,0.7-1.5,1-2.3
				c0.5-1.5,0.8-3.1,1.4-4.5C389.9,153,390,152.6,389.7,152.1z M391.6,125.1c0.8-0.2,1.6-0.3,2.3-0.7c0.3-0.1,0.4-0.5,0.5-0.8
				c-0.1-0.1-0.2-0.1-0.3-0.2c-0.4,0.3-0.7,0.7-1.1,0.8c-1.7,0.5-3.5,0.7-5.2,1.1c0,0.1,0,0.3,0,0.5c0.3,0.1,0.6,0.2,1,0.1
				C389.7,125.8,390.7,125.5,391.6,125.1L391.6,125.1z M390.5,147.5c0.1,0,0.2,0,0.3-0.1c0.3,1.2-0.7,2.2-1.1,3.4
				c-0.1,0-0.2,0-0.3,0.1C389.8,149.8,390.2,148.6,390.5,147.5z M397.2,121.7c1-1.1,1-2.4,0.9-3.6c-0.3,1.2-0.7,2.2-1.1,3.4
				c0.1,0,0.2,0,0.3-0.1L397.2,121.7z M398.7,127.7c0.3-0.7,0.5-1.4,0.8-2.1c-0.1-0.1-0.2-0.1-0.3-0.2c-0.3,0.7-0.5,1.4-0.8,2.1
				c0.1,0,0.2,0,0.3-0.1V127.7z M419.6,119.8c0-0.1,0-0.1,0-0.3c-0.9,0.1-1.8,0.2-2.7,0.3c0,0.1,0,0.1,0,0.3
				C417.8,120,418.7,120,419.6,119.8z M423.5,121.3c0.2,0,0.4-0.1,0.7-0.1c-1-0.7-3.3-0.6-4.4,0c0.3,0.1,0.5,0.2,0.7,0.1
				c1,0,1.8-0.1,2.8-0.1L423.5,121.3z"/>
		</g>
	</g>
</g>
</svg>
