<svg width="269" height="267" fill="none" xmlns="http://www.w3.org/2000/svg"><g clip-path="url(#a)" fill="#DCBF6F"><path d="M158.952 36.66c-2.561-.396-4.736-1.237-6.569-2.68-2.033-1.555-4.678-1.337-6.682-2.478-3.664-1.955-7.712-2.535-11.403-3.045-14.562-1.925-28.56.983-41.78 7.652-7.217 3.585-13.862 8.028-20.033 13.271-5.742 4.956-11.227 9.927-14.45 16.982a23.587 23.587 0 0 1-1.997 3.507c-4.325 6.427-6.718 13.424-8.009 21.049-1.716 10.7-2.559 21.499.53 32.15.863 3.145 1.568 6.334 2.588 9.436 1.91 5.732 4.35 11.235 7.803 16.122a86.279 86.279 0 0 0 4.642 5.828c1.604 1.843 3.308 3.743 5.07 5.543 2.449 2.456 5.012 4.712 7.575 6.968 2.864 2.428 5.514 4.998 9.048 6.481l.501.285c4.68 2.268 8.775 5.795 14.14 6.86 2.303.383 2.361 1.212 1.377 3.173-1.726 3.263-4.11 6.284-4.577 10.132-.112 1.13-1.169 2.519-2.183 3.135-2.458 1.52-3.842 4.182-4.225 6.485-.838 4.034-2.392 7.927-3.173 11.861-.284 1.43-.27 1.173 1.117 1.3 4.692.151 8.922-1.686 13.226-2.95 2.73-.834 5.26-1.781 8.179-1.313 1.23.17 2.659-.476 3.057-2.107 1.573-.431 3.088-.762 4.661-1.193.472-.13 1.129-.817 1.272-.603 2.648 1.641 5.364.136 7.895.118 2.632.039 3.834.724 3.637 3.399-.126 1.387-.182 2.417.792 3.503-.199.815-.67 1.874-.554 2.604 1.007 4.289 2.328 8.492 3.435 12.838.216.786.288 1.358 1.317.484 3.4-2.707 6.657-5.629 9.069-9.165 1.513-2.191 2.955-4.023 5.155-5.557 1.829-1.347 3.815-2.737 4.913-4.898 1.669-3.163 2.952-6.812 7.499-6.875.158-.043.315-.086.529-.23 3.728-3.981 9.173-6.319 10.882-12.114.327-1.273 1.312-2.304 1.997-3.507.642-1.359 1.942-2.477 1.053-4.177 1.74-3.521 1.363-7.053.528-10.713-.589-2.459.582-3.119 3.271-3.18 2.017-.046 3.121 2.441 5.251 1.266 6.08 1.207 11.942-.231 17.43-2.413 2.802-1.191 5.861-2.368 7.988-5.403 1.627-2.39 5.044-3.496 6.198-6.687.114-.2.686-.273 1-.359 4.489-1.823 8.647-4.231 12.289-7.597.543-.487 1.043-1.131 1.672-1.304 4.904-.922 8.146-4.516 12.247-6.824 1.544-.846 1.485-1.676.026-2.375-5.281-2.61-9.736-7.137-16.371-6.67-.315.086-.701-.4-1.002-.571-1.002-.571-2.375-.955-2.848-1.755-.273-.686.726-1.975.939-3.048.27-1.173.34-2.46.41-3.748.142-.715-.017-1.601.269-2.102 4.082-5.77 5.646-12.708 9.327-18.706 2.155-3.55 3.752-7.285 5.048-11.19.484-1.317-.316-.844-1.088-.886-6.093-.02-12.5.046-17.96 2.642-4.188 1.994-8.563 2.686-12.823 4.108-2.416.747-4.363-.495-5.11-2.91a34.057 34.057 0 0 1-1.078-3.932c-1.757-8.564-5.729-16.268-10.659-23.455-7.036-10.245-14.958-19.401-25.765-25.822-.801-.457-1.331-1.157-2.076-1.714-1.345-.899-2.692-2.728-4.437-2.925ZM120.77 205.735c-.244-.272-.973-.156-1.502.073-2.601 1.305-5.102 2.668-7.603 4.03-3.646.577-7.335.997-10.938 1.731-1.516.331-3.089.762-4.589 1.765-1.657 1.047-4.175.807-6.363 1.153.399-1.631.74-3.161 1.338-4.678 1.34-3.749 2.078-7.841 4.433-11.276 2.388-.232 3.343-2.608 3.47-3.995.252-3.705 2.608-6.211 4.106-9.073 1.327-2.562 1.427-2.505 4.846-1.752 4.034.838 7.968 1.62 12.017 2.2.1.057.171-.3.285-.501 1.245.842.689 1.587-.169 2.16-4.158 2.409-8.116 4.931-11.258 8.583-2.573.79-4.272 2.608-5.428 4.87-1.115.559-5.042 4.426-5.999 5.872-1.974-.727-1.671 1.304-2.385 2.091.358.071.801.457 1.016.313.857-.573 1.614-1.203 2.371-1.833 1.843-1.605 3.586-3.266 5.428-4.871.6-.587 1.2-1.174 1.957-1.804 1.143-1.075 2.386-2.092 3.471-3.066l9.174-6.32c1.5-1.003 3.387-1.52 4.157-3.338 1.844-.674 3.688-1.349 5.475-1.924 1.315-.445 2.33-1.061 1.675 1.485-.27 1.174-.597 2.447-1.025 3.663-.185.558.088 1.244.261 1.873-.997 3.148-1.379 6.381-.259 9.54.574 1.787.519 2.817-1.569 3.22-2.144.504-4.331 1.78-6.393-.191Zm53.585-33.97c1.152 5.433 1.531 10.825-.965 15.905-1.326 2.562-2.853 5.01-4.28 7.515-1.027 1.803-1.84 3.463-4.399 3.996-1.516.331-2.557 2.392-3.957 3.452-.7.53-1.786 1.504-2.187 1.276-2.418-1.112-2.93.719-3.729 2.122-2.211 4.58-5.152 8.345-9.682 10.94-1.015.616-1.556 2.033-2.284 3.078-1.67 2.234-3.284 4.367-5.154 6.486-.828.988-2.345.389-2.69-.869-1.063-3.259-2.026-6.461-3.088-9.721 1.223-4.478.791-6.98-.016-11.155-.763-4.018-1.055-8.165.098-12.286.185-.558-.088-1.244-.26-1.873.527-1.159 1.556-2.033 1.282-3.649-.13-.472 1.27-1.532 2.114-1.848 1.158-.402 2.531-.017 3.732-.262 3.189-.705 6.291-1.725 9.436-2.588.315-.086.729-.115.987-.101-.071.358.115.729-.056 1.03-.185.558-.571 1.002-.856 1.503-.856 1.503-1.812 2.948-2.568 4.508-.599 1.517-.94 3.048-1.338 4.679-1.012 2.476-1.981 5.108-2.993 7.584-.84 3.105-1.722 6.052-2.562 9.157-.44 2.403-1.037 4.85-1.477 7.253-.071.358.272.686.459 1.058.271-.244.643-.43.714-.788.27-1.173.44-2.403.767-3.677.384-1.373 1.026-2.733 1.611-3.992l-.501-.285c2.384-3.021 2.35-7.155 4.333-10.404.057-.1-.387-.486-.63-.757 1.084-1.904 2.326-3.85 3.31-5.811.228-.401-.145-1.144-.317-1.773l3.995-7.014c1.698-2.748 3.769-4.753 6.971-5.716 3.832-1.135 7.06-3.542 10.232-5.849 1.129-.817 2.458-1.519 3.73-2.122 1.001-.359 1.974-.203 2.218.998Zm65.874-32.013c1.202.685 1.046 1.658.089 2.174-1.929 1.29-4.145 2.151-6.074 3.441-2.786 1.863-5.989 2.826-8.559 5.475-2.242 2.306-6.16 3.126-9.276 4.404-1.272.602-2.302.546-2.414 2.606-.068 2.217-2.555 3.321-4.47 4.354-.8.473-2.044.56-2.387 1.162-1.212 2.361-2.683 3.779-5.357 4.512-2.044.561-3.687 2.279-6.019 1.482-5.888 2.882-11.356-.099-17.035-1.078-.458-.128-1.303-.742-1.188-.943.085-.615.484-1.316.97-1.703 3.528-3.165 7.099-6.174 9.396-10.439 1.256-2.204 3.699-3.466 4.869-5.985.356-.858 2.229-1.118 3.444-1.621l1.573-.431 1.573-.431 1.572-.431 1.573-.432 1.572-.431 1.573-.431 4.718-1.294c3.274-.39 6.592-.624 9.867-1.015 1.401-.13 2.746-.161 4.147-.291 1.401-.131 2.746-.161 4.147-.292 1.301-.188 2.502-.433 3.804-.62.157-.043.542-.487.499-.645-.243-.271-.53-.7-.787-.714-1.345.031-2.646.219-3.947.406-1.402.131-2.746.161-4.147.292-1.402.131-2.746.161-4.147.292-3.376-.596-6.536.524-9.867 1.015-1.874.26-3.847.463-5.72.723l-1.573.431-1.572.431-1.573.431-1.573.432-1.572.431c-.073-.572-.445-1.315-.26-1.873 1.511-3.12 3.524-5.955 4.291-9.632.596-3.376 1.797-3.62 5.816-3.454 4.949.164 9.741.372 14.078 3.241.945.671 2.389.698 3.677.767 5.921.321 11.159 2.774 16.269 5.684Zm-28.389-41.25c3.046.01 5.733-.98 8.435-2.229 4.402-2.137 9.292-2.801 14.226-3.309 1.659-.116 2.705 1.541 1.806 2.887-4.482 6.47-6.445 14.11-10.469 20.709-.685 1.202-.983 2.89-2.813 3.308-.887.158-.885 1.088-.269 2.102 1.133 1.973-.034 6.351-1.592 7.454-.271.244-.986.101-1.544-.084-4.665-1.595-9.385-2.161-14.234-2.268-1.959-.055-3.063-1.612-2.307-3.172.87-1.761 1.883-3.307 2.854-5.01l.501.286a727.24 727.24 0 0 0 10.925-11.028c.944-.259 3.858-2.58 4.858-3.868.943-.259 3.858-2.58 4.857-3.869 1.975.727 1.672-1.303 2.386-2.09-.358-.072-.802-.457-1.016-.314-.858.573-1.615 1.204-2.372 1.834-1.443.903-2.843 1.963-4.287 2.866-1.471 1.418-3.916 1.75-4.857 3.868-3.829 2.995-7.758 5.932-10.856 9.741-.271.243-.543.487-.914.673-.23-.529-.717-1.072-.546-1.372 1.367-4.264.103-8.567.54-12.83.127-1.387.656-1.617 1.527-2.447 1.672-1.304 3.359-1.936 5.161-1.838Zm-49.09-55.696c7.702 5.582 15.062 11.764 21.222 19.121 4.856 5.686 8.169 12.217 11.696 18.605.559 1.115.433 2.502.62 3.804.501.285 1.317.484 1.503.856 2.026 6.461 3.536 12.895 3.789 19.674a74.725 74.725 0 0 1-1.777 18.495c-.739 3.162-2.036 6.138-2.876 9.243-1.736 6.309-5.576 11.421-8.715 16.931-1.598 2.805-4.041 4.997-6.14 7.517l-.501-.285c-1.11 3.348-4.341 4.826-6.583 7.131-4.327 4.569-9.83 7.007-14.96 10.19-.372.186-1.087.044-1.602.016-1.112 2.419-3.815 2.737-5.873 3.555-4.746 1.809-9.764 2.931-14.739 4.211-.63.172-1.374-.384-2.032-.627-3.001 2.007-6.263 1.21-9.523 1.344-6.536.524-12.888-1.37-19.34-2.391-3.018-.525-5.881-2.022-8.7-3.363-2.118-.941-3.98-2.798-6.126-3.224-2.503-.497-3.636-2.469-5.597-3.453-2.06-1.041-4.179-1.982-6.011-3.424-4.897-3.984-9.908-7.767-13.705-12.982-2.164-2.957-4.585-5.929-6.692-8.987-3.066-4.4-5.075-9.26-6.927-14.163-2.426-6.69-4.01-13.696-4.033-20.875-.096-6.822.367-13.46 1.917-20.14 1.052-4.178 2.663-8.17 3.615-12.405.683-3.062 2.896-5.782 4.594-8.53 4.994-8.302 11.52-15.334 19.321-21.108 12.045-8.798 23.779-14.721 36.319-16.469 5.362-.794 10.983-.644 16.576.02 6.308.807 11.817 3.016 17.712 4.781 5.18 1.623 9.645 4.034 13.568 6.932Z"/><path d="m150.344 48.743-.57 1.002c-2.189-.583-1.743 1.662-2.714 2.435-.301-.17-.702-.4-1.002-.57.221-5.05-3.058-8.377-7.15-9.115-5.679-.98-11.588-2.487-17.607-1.006-1.688-.298-2.573.79-3.215 2.15-.698 1.46-1.24 2.877-1.782 4.293l-1.572.431c-.244-.271-.487-.542-.573-.857-1.307-3.53-1.65-3.86-4.968-3.626-1.087.045-2.245.447-3.289.648-3.903.564-6.702 3.614-10.233 4.92-.871.83-1.843 1.605-2.714 2.435-3.076-.425-4.259 2.352-6.288 3.584-2.03 1.233-3 2.936-3.612 4.71-.784 2.075.349 4.048 1.91 5.733l-1.573.431c-2.59-1.74-5.339-3.44-8.34-1.433-1.343.96-3.3 1.836-3.67 3.881l-4.565 8.016c-2.998 3.865-3.821 8.572-4.845 13.164-1.151 5.05.311 7.608 5.162 9.575l1.002.571c-.171.301-.4.701-.57 1.002l-6.291 1.725-2.283 4.008c-.162 6.807.562 13.457 2.53 20.019.389 1.415.248 3.06 1.965 3.773 1.86.927 3.535 1.482 5.45.45l1.572-.431.432 1.572c-3.972 2.78-4.457 4.097-3.236 8.243.734 2.673 2.666 4.172 4.542 5.771 1.379 4.103 4.1 7.246 7.636 9.658 5.526 3.811 6.285 4.11 9.689 4.191.315.844.631 1.687 1.161 2.387s1.118 1.3 1.705 1.9l.431 1.573 1.002.57 1.002.571 4.008 2.283 4.007 2.283c.572-.073 1.316-.446 1.874-.26 4.721 1.495 9.428 2.318 14.144.094l2.283-4.007 1.002.57.431 1.573c.029.415-.012 1.187.131 1.401 1.546 1.014 3.092 2.027 4.809 2.74 1.26.584 2.647.711 3.977.938l.571-1.002c.658.243 1.403.799 2.032.627 2.359-.647 4.574-1.508 6.833-2.212l1.573-.431 3.145-.863 1.573-.431.57-1.002 1.573-.431 1.573-.431 1.001.57 1.142-2.004 1.572-.431.571-1.002c1.845.255 3.159-1.12 3.787-2.222.642-1.359.167-3.089.208-4.791.572-.072 1.244-.088 1.773-.317.472-.13.9-.416 1.372-.546 1.158-.402 2.33-1.061 3.531-1.306 1.201-.245 1.958-.875 2.329-1.991l.5.285c3.371-3.122 7.387-5.745 9.283-10.239.299-.758 1.056-1.388 1.756-1.918 2.885-2.736 3.783-5.011 3.633-9.874l-.431-1.572c-.118-2.589-1.807-3.817-3.868-4.858l.571-1.002c1.646 1.071 3.405 1.011 5.149.279.529-.229 1.358-.288 1.687-.631.842-1.246 1.426-2.505 2.168-3.808-.243-.271-.587-.6-.573-.857.052-3.819 1.377-7.31 1.987-10.944.468-2.918 1.608-5.851-.298-8.795l.571-1.002-6.012-3.424.571-1.002.57-1.002c.472-.13 1.188.013 1.459-.23 2.227-2.979 1.893-6.353.459-9.426-1.994-4.188-4.202-8.233-6.782-12.09-1.103-1.558-3.007-2.642-4.867-3.57-.702-.399-1.887.518-2.988.82-.7.53-1.443.903-2.143 1.433l-.432-1.572 2.854-5.01c-.202-1.044-.189-2.23-.763-3.088-2.163-2.958-4.384-5.815-7.976-7.197-.3-.172-.758-.3-1.002-.571-3.782-4.543-6.414-5.512-13.007-4.888Zm-31.611-2.745c.241-1.588 1.871-2.12 2.999-2.936 5.019-1.122 9.813.945 14.833.752 2.016-.046 4.493 1.896 6.155 3.638 1.518 1.529 2.164 3.888.795 6.292-.457.802-1.9 1.705-.311 2.875l-1.141 2.004c-1.012 2.476-1.981 5.109-2.993 7.584l-1.142 2.004c-.256.916-1.585 1.618-.139 2.575-1.012 2.475-1.981 5.108-2.993 7.584-.17 1.23-2.328 1.991-.71 3.576l-1.142 2.004c-.513.902-1.184 1.847-1.598 2.805-.128.458.145 1.145.318 1.773l-2.283 4.008c-.514.902-.984 1.961-1.598 2.806-.329.343-1.058.459-1.687.631-.618-1.944-1.392-3.845-2.01-5.79-.847-2.472-1.594-4.888-2.442-7.361l.571-1.002c-.562-2.974-1.024-5.891-1.585-8.865-.461-1.988-.607-4.061-1.224-6.005-1.006-3.36-.768-6.807-1.044-10.282-.117-1.659 1.268-3.392-.093-4.963.155-1.902.209-3.862.464-5.707Zm14.377 53.97c.53.7.903 1.443 1.433 2.143-.756 1.56.745 1.487 1.433 2.144-3.258 1.992-3.215 2.149-1.852 5.58l-.57 1.002-.571 1.002-1.002-.571c-1.973.203-2.544 1.205-1.712 3.006-.099.873-.041 1.702-.14 2.575-.901-.514-1.846-1.185-2.805-1.598-.458-.129-1.144.144-1.773.317l-1.141 2.004-.571 1.001-1.002-.57c-.875-1.958-2.048-2.229-3.576-.71l-1.002-.571-.432-1.573c.756-1.56-.745-1.486-1.433-2.143-1.302-.742-.173-1.559-.031-2.274.085-.615-.145-1.144-.26-1.873l-2.004-1.142.57-1.002c.887-.158 1.773-.317 2.703-.318 2.217.069 1.171-1.589 1.584-2.548.7-.53 1.443-.903 2.143-1.433l1.573-.431.571-1.002.57-1.002.571-1.002c1.23.17 1.991 2.328 3.576.71.529-.23 1.259-.345 1.744-.732.6-.587.67-1.874 1.972-1.132.059.83.217 1.716.276 2.545.414-.029.786-.215 1.158-.402Zm-19.347 12.999c.228-.401.356-.859.069-1.288.387.486.159.887-.069 1.288ZM87.439 65.993l-2.003-1.142-.61-5.92c2.974-1.492 4.227-5.555 8.116-5.86.258.013.486-.388.858-.574.7-.53 1.443-.903 2.143-1.433 2.33-1.062 4.76-2.066 7.046-3.285.901-.416 1.772-1.247 2.773-1.606 5.518-1.766 6.849-.61 7.144 5.397.029.414.315.843.545 1.372.131 1.401.161 2.746.292 4.147-.099.873-.041 1.702-.14 2.575l2.156 7.863c-.67.945-.826 1.917-.424 3.075.833 2.73 1.352 5.547 1.87 8.364.361 1.93.821 3.918 1.181 5.848.964 4.132 1.928 8.264 2.992 12.453-.099.873-.04 1.702-.139 2.575-.685 1.202-1.844.674-1.96-.055-.317-1.773-1.905-2.014-3.05-2.799-.3-.171-.701-.4-1.002-.57-1.362-2.502-5.015-6.573-7.305-8.143l-2.004-1.141c.584-2.19-1.661-1.743-2.435-2.714.756-1.56-.746-1.487-1.433-2.143l-2.004-1.142c.998-2.218-1.976-1.656-2.307-3.172-.388-1.415-1.877-2.528-2.951-3.671-2.378-2.814-4.813-5.528-7.349-8.3ZM63.681 94.657c.437-4.263.26-8.61 2.585-12.46.97-1.704 3.271-3.18 2.066-5.724l3.995-7.014c1.303.742 1.673-.374 1.972-1.132.74-2.233 2.757-2.278 4.53-2.595.472-.13 1.417.541 1.546 1.013.675 1.844 2.635 1.898 3.866 2.998l-.285.501c2.42 2.042 4.125 4.871 7.159 6.068.79 2.574 2.609 4.273 4.87 5.428-.756 1.56.746 1.487 1.433 2.144l2.004 1.141c-.756 1.56.746 1.487 1.433 2.144-.071.357-.256.915-.055 1.03 4.366 3.283 7.862 7.397 11.799 10.967l2.004 1.141c-.756 1.56.746 1.487 1.433 2.144 1.535 3.13 1.763 2.729-1.712 3.005l-1.572.432-2.004-1.142c-.916-.256-1.618-1.585-2.575-.139-1.874-.67-3.705-1.182-5.58-1.852-2.103-.269-4.263-.437-6.251-.906-4.064-1.253-8.397-1.333-12.546-1.971-5.736-.879-11.53-1.658-17.294-2.022-1.788-.355-3.062-1.611-2.821-3.2Zm-1.233 29.421c-.162-3.676-.167-7.394-1.373-10.868-.805-2.316.766-4.606-.51-6.793l1.141-2.004c5.289-2.295 6.605-1.811 14.372-1.235 5.45.45 10.757 1.616 16.278 1.708 1.187.013 2.048 2.228 3.39.339l1.002.57c1.517.599 5.207 1.109 6.151.85 2.704.611 5.451 1.38 8.155 1.991.773.971 3.018.525 2.435 2.714-1.272.602-2.444 1.262-3.716 1.864l-.571 1.002c-2.117-.011-4.133.035-5.288 2.296l-4.718 1.294c-2.845 1.033-5.59 2.124-8.434 3.158-1.56-.756-1.487.745-2.143 1.433l-6.29 1.725-.572 1.002c-4.247.234-7.69 2.785-11.579 4.02-.314.086-.342.601-.57 1.002l-1.002-.571c-3.547-.295-6.068-2.394-6.158-5.497Zm19.967 31.808c-3.137-3.113-5.73-6.714-8.595-10.071-.803-1.386-1.606-2.772-2.466-4.058-.96-1.343-2.82-2.27-1.88-4.388.713-1.717 1.727-3.264 3.57-3.938.872-.831 1.843-1.605 2.715-2.435l3.145-.863c1.744-.732 3.545-1.564 5.288-2.295 3.204-.033 5.547-2.282 8.434-3.158l.57-1.002 1.574-.432 6.29-1.725c4.817-2.166 9.476-4.289 14.293-6.455l.571-1.002 1.002.571-2.283 4.007-2.568 4.509c-.742 1.302-1.441 2.762-2.283 4.008-.899 1.345-1.111 3.348-3.342 3.537 1.176 2.129-1.298 2.047-1.869 3.049-3.039 5.567-6.12 10.978-9.26 16.488l-2.282 4.008c-.529.23-1.358.288-1.744.732-2.77 3.465-5.901 4.07-8.88.913Zm36.2 11.463c-.457.802-.87 1.761-1.427 2.505-.386.444-1.2 1.175-1.558 1.104-2.904-.726-6.021-.378-8.939-.846-4.349-.752-7.4-3.551-11.077-5.248-.501-.285-.66-1.172-1.09-1.815.127-1.387-.104-2.846 1.053-4.178 1.056-1.388 1.712-3.005 2.51-4.408 1.114-1.489 3-2.936 3.241-4.524.226-2.26 1.697-3.678 2.624-5.538.827-1.918 2.055-3.607 3.139-5.511l3.139-5.511c.529-.229 1.358-.287 1.686-.631 1.185-1.847 2.226-3.908 3.31-5.811l4.452-7.815c.97-1.704 1.83-.418 2.689-.061-.286.501-.829.988-.856 1.503a1657.44 1657.44 0 0 0-1.249 27.819c.323 6.421.289 12.771-1.647 18.966Zm35.878-14.065c.732 1.744 1.564 3.545 2.296 5.288 1.363 3.431 1.406 3.588-1.852 5.581-1.443.903-2.843 1.963-4.287 2.866-.7.53-1.443.903-2.143 1.433l-1.572.431c-1.56-.755-1.487.746-2.144 1.434l-1.572.431-1.002-.571c-1.56-.756-1.487.746-2.144 1.433-2.745.161-5.548.423-8.294.584-2.502.432-4.464-1.481-6.724-1.707-.258-.014-.573-.857-.86-1.286-.247-3.06.063-5.936.331-8.968.593-5.235.314-10.57.493-15.776.411-2.818.092-5.52-.584-8.294.257-.916 1.586-1.618.14-2.575l.57-1.001c.156-.973.584-2.189.325-3.133-.819-2.988 1.251-5.923-.198-8.738l.571-1.002-.431-1.573.57-1.002c.574.858 1.587-.688 2.533.912 3.111 5.488 6.965 10.603 10.505 15.804.544.442 1.246.842 1.632 1.327 1.463 2.558 3.511 4.787 5.673 6.815.03.414-.055 1.029.131 1.401.874 1.029 1.805 1.957 2.736 2.885l2.004 1.142c-.756 1.56.745 1.486 1.433 2.143-.513 1.831.247 3.06 1.864 3.716Zm27.001-21.776 1.002.57-.571 1.002c-.099.873.16 1.816-.197 2.675-3.08 6.34-6.948 11.966-12.405 16.421-.429.287-.958.517-1.387.803l-.57 1.002-1.573.431c-3.474 1.207-3.517 1.049-5.966-1.407-2.792-2.785-4.728-6.144-6.777-9.301-.33-.586-1.089-.886-1.576-1.428.071-.358.257-.916.056-1.03-4.34-4.728-8.723-9.613-12.091-15.115l-2.004-1.141c-.26-1.874-1.106-3.417-2.867-4.287-.232-2.388-2.322-3.844-3.297-5.859l1.141-2.004c1.303.742 2.448 1.527 3.808 2.168.4.229 1.144-.144 1.773-.317l3.005 1.712c3.478 1.583 7.113 3.123 10.59 4.705.902.514 1.847 1.185 2.806 1.598.457.129 1.144-.144 1.773-.317.901.514 1.846 1.185 2.805 1.598.458.128 1.144-.144 1.773-.317 2.476 1.012 5.109 1.981 7.584 2.993 3.233.382 6.424 1.536 9.771 1.717 1.545.084 2.705 1.541 3.394 3.128Zm6.822-30.616c1.652 4.789-.144 9.339-1.311 13.717-.839 3.105.153 6.722-2.518 9.314l-.571 1.002c-2.704-.611-5.451-1.379-8.155-1.991-1.23-.17-1.991-2.328-3.576-.71l-2.004-1.141-1.573.431-1.002-.571c-1.988-.469-3.877-.881-5.865-1.35l-.286.501c-.902-.514-1.846-1.185-2.805-1.598-.458-.128-1.144.144-1.773.317l-3.006-1.712c-1.904-1.085-3.85-2.326-5.811-3.31-.401-.229-1.144.144-1.773.317l-3.006-1.712-2.004-1.142-4.809-2.739c-1.603-.913-.417-1.83-.061-2.689l1.002.571c1.987-.46 4.018-.764 6.005-1.224 2.559-.533 5.019-1.122 7.578-1.655 2.974-.562 5.891-1.024 8.865-1.586.872.099 1.702.041 2.574.14 2.974-.562 5.891-1.024 8.865-1.586l11.009-3.018c.801.456 1.933 1.499 2.462 1.27 2.329-1.062 2.632.968 3.549 2.154Zm-14.915-29.727c3.404.08 5.666 1.236 7.015 4.924 1.436 4.003 4.615 7.273 5.666 11.72.46 1.987-.025 3.304-.981 4.75-.7.53-1.443.902-2.143 1.433-2.974.562-5.891 1.023-8.865 1.585-4.847.822-9.738 1.487-14.585 2.308-4.434-.136-8.737 1.128-12.983 2.292-3.145.863-6.276 1.468-9.465 2.173-1.446-.956-.117-1.659.14-2.575 2.189.584 1.742-1.66 2.714-2.434l1.572-.432.571-1.002c1.56.756 1.486-.745 2.143-1.433l.571-1.002c2.786-1.863 5.415-3.683 7.571-6.303.358.07.916.256.973.156 1.356-2.147 3.571-3.008 5.457-4.456 1.271-1.532 2.585-2.906 3.856-4.439 1.272-.602 2.444-1.261 3.716-1.864.599-.587 1.3-1.117 1.956-1.805.543-.487.886-1.088 1.328-1.632 1.329-.703 2.501-1.362 3.773-1.964Zm-11.465-17.147c-.799 1.403.589 1.53 1.233 2.03 1.99 1.398 3.937 2.64 5.655 4.282 1.575 1.428 1.363 3.43 2.795 4.644-1.27 1.532-2.584 2.907-3.855 4.44-.871.83-1.843 1.604-2.714 2.434l-.571 1.002c-1.56-.756-1.486.746-2.143 1.433l-.571 1.002c-2.189-.583-1.742 1.662-2.714 2.435-1.56-.755-1.486.746-2.143 1.433-2.275-.897-1.67 2.234-3.644 2.437-1.244.087-2.271 1.89-3.357 2.865l-.57 1.002c-.944.259-3.858 2.58-4.858 3.868-1.56-.756-1.486.746-2.143 1.433l-.571 1.002c-.414.03-1.03-.056-1.401.13-1.029.875-1.957 1.805-2.885 2.736l-.571 1.002c-1.56-.755-1.486.746-2.143 1.433l-1.142 2.004-.431-1.572-.431-1.573 1.712-3.006c.256-.915 1.585-1.618.139-2.574l1.142-2.004c.256-.916 1.585-1.618.139-2.575l1.712-3.005c.17-1.23 2.329-1.992.71-3.577l2.854-5.01c1.654-3.835 3.25-7.57 4.904-11.405.057-.1-.387-.486-.63-.757l1.712-3.006c-.405-3.017 1.823-5.065 2.993-7.584l.57-1.002c4.433-.793 7.711 1.606 11.218 3.603Z"/></g><defs><clipPath id="a"><path fill="#fff" transform="rotate(-60.334 144.119 83.298)" d="M0 0h192.215v199.594H0z"/></clipPath></defs></svg>