<svg width="269" height="267" viewBox="0 0 269 267" fill="none" xmlns="http://www.w3.org/2000/svg">
<g clip-path="url(#clip0_408_298)">
<path d="M158.952 36.6606C156.391 36.2637 154.216 35.4229 152.383 33.9809C150.35 32.4248 147.705 32.643 145.701 31.5016C142.037 29.5473 137.989 28.9665 134.298 28.4567C119.736 26.5317 105.738 29.4401 92.5183 36.1087C85.3008 39.6942 78.6565 44.1369 72.4853 49.38C66.7428 54.3364 61.2577 59.3067 58.0352 66.362C57.4505 67.6214 56.8228 68.7235 56.0377 69.8688C51.7131 76.2963 49.32 83.2933 48.0291 90.918C46.3133 101.618 45.4701 112.417 48.5597 123.068C49.4222 126.213 50.1274 129.402 51.1471 132.504C53.0572 138.236 55.4961 143.739 58.9496 148.626C60.4398 150.669 61.9871 152.612 63.5915 154.454C65.1958 156.297 66.9004 158.197 68.662 159.997C71.111 162.453 73.6742 164.709 76.2374 166.965C79.1011 169.393 81.7505 171.963 85.2852 173.446C85.4855 173.56 85.5857 173.617 85.7861 173.731C90.466 175.999 94.5612 179.526 99.9259 180.591C102.229 180.974 102.287 181.803 101.303 183.764C99.5772 187.027 97.193 190.048 96.7263 193.896C96.6135 195.026 95.557 196.415 94.5425 197.031C92.0846 198.551 90.701 201.213 90.318 203.516C89.4798 207.55 87.9262 211.443 87.1451 215.377C86.861 216.807 86.875 216.55 88.2624 216.677C92.9537 216.828 97.1845 214.991 101.488 213.727C104.218 212.893 106.748 211.946 109.667 212.414C110.897 212.584 112.326 211.938 112.724 210.307C114.297 209.876 115.812 209.545 117.385 209.114C117.857 208.984 118.514 208.297 118.657 208.511C121.305 210.152 124.021 208.647 126.552 208.629C129.184 208.668 130.386 209.353 130.189 212.028C130.063 213.415 130.007 214.445 130.981 215.531C130.782 216.346 130.311 217.405 130.427 218.135C131.434 222.424 132.755 226.627 133.862 230.973C134.078 231.759 134.15 232.331 135.179 231.457C138.579 228.75 141.836 225.828 144.248 222.292C145.761 220.101 147.203 218.269 149.403 216.735C151.232 215.388 153.218 213.998 154.316 211.837C155.985 208.674 157.268 205.025 161.815 204.962C161.973 204.919 162.13 204.876 162.344 204.732C166.072 200.751 171.517 198.413 173.226 192.618C173.553 191.345 174.538 190.314 175.223 189.111C175.865 187.752 177.165 186.634 176.276 184.934C178.016 181.413 177.639 177.881 176.804 174.221C176.215 171.762 177.386 171.102 180.075 171.041C182.092 170.995 183.196 173.482 185.326 172.307C191.406 173.514 197.268 172.076 202.756 169.894C205.558 168.703 208.617 167.526 210.744 164.491C212.371 162.101 215.788 160.995 216.942 157.804C217.056 157.604 217.628 157.531 217.942 157.445C222.431 155.622 226.589 153.214 230.231 149.848C230.774 149.361 231.274 148.717 231.903 148.544C236.807 147.622 240.049 144.028 244.15 141.72C245.694 140.874 245.635 140.044 244.176 139.345C238.895 136.735 234.44 132.208 227.805 132.675C227.49 132.761 227.104 132.275 226.803 132.104C225.801 131.533 224.428 131.149 223.955 130.349C223.682 129.663 224.681 128.374 224.894 127.301C225.164 126.128 225.234 124.841 225.304 123.553C225.446 122.838 225.287 121.952 225.573 121.451C229.655 115.681 231.219 108.743 234.9 102.745C237.055 99.1953 238.652 95.4603 239.948 91.5541C240.432 90.2377 239.632 90.7107 238.86 90.6689C232.767 90.6487 226.36 90.7148 220.9 93.3109C216.712 95.3047 212.337 95.9972 208.077 97.419C205.661 98.166 203.714 96.9244 202.967 94.5085C202.522 93.1933 202.177 91.9352 201.889 90.5769C200.132 82.0125 196.16 74.3092 191.23 67.1221C184.194 56.8773 176.272 47.7207 165.465 41.2998C164.664 40.8432 164.134 40.1431 163.389 39.5864C162.044 38.6872 160.697 36.8584 158.952 36.6606ZM120.77 205.734C120.526 205.462 119.797 205.578 119.268 205.807C116.667 207.112 114.166 208.475 111.665 209.837C108.019 210.414 104.33 210.834 100.727 211.568C99.2111 211.899 97.6385 212.33 96.1382 213.333C94.4806 214.38 91.9631 214.14 89.7754 214.486C90.1736 212.855 90.5147 211.325 91.1133 209.808C92.4525 206.059 93.1906 201.967 95.5457 198.532C97.9338 198.3 98.8887 195.924 99.0155 194.537C99.2679 190.832 101.624 188.326 103.122 185.464C104.449 182.902 104.549 182.959 107.968 183.712C112.002 184.55 115.936 185.332 119.985 185.912C120.085 185.969 120.156 185.612 120.27 185.411C121.515 186.253 120.959 186.998 120.101 187.571C115.943 189.98 111.985 192.502 108.843 196.154C106.27 196.944 104.571 198.762 103.415 201.024C102.3 201.583 98.3727 205.45 97.4165 206.896C95.4418 206.169 95.7449 208.2 95.0309 208.987C95.3886 209.058 95.8325 209.444 96.0468 209.3C96.9041 208.727 97.6613 208.097 98.4184 207.467C100.261 205.862 102.004 204.201 103.846 202.596C104.446 202.009 105.046 201.422 105.803 200.792C106.946 199.717 108.189 198.7 109.274 197.726C112.332 195.62 115.39 193.513 118.448 191.406C119.948 190.403 121.835 189.886 122.605 188.068C124.449 187.394 126.293 186.719 128.08 186.144C129.395 185.699 130.41 185.083 129.755 187.629C129.485 188.803 129.158 190.076 128.73 191.292C128.545 191.85 128.818 192.536 128.991 193.165C127.994 196.313 127.612 199.546 128.732 202.705C129.306 204.492 129.251 205.522 127.163 205.925C125.019 206.429 122.832 207.705 120.77 205.734ZM174.355 171.764C175.507 177.197 175.886 182.589 173.39 187.669C172.064 190.231 170.537 192.679 169.11 195.184C168.083 196.987 167.27 198.647 164.711 199.18C163.195 199.511 162.154 201.572 160.754 202.632C160.054 203.162 158.968 204.136 158.567 203.908C156.149 202.796 155.637 204.627 154.838 206.03C152.627 210.61 149.686 214.375 145.156 216.97C144.141 217.586 143.6 219.003 142.872 220.048C141.202 222.282 139.588 224.415 137.718 226.534C136.89 227.522 135.373 226.923 135.028 225.665C133.965 222.406 133.002 219.204 131.94 215.944C133.163 211.466 132.731 208.964 131.924 204.789C131.161 200.771 130.869 196.624 132.022 192.503C132.207 191.945 131.934 191.259 131.762 190.63C132.289 189.471 133.318 188.597 133.044 186.981C132.914 186.509 134.314 185.449 135.158 185.133C136.316 184.731 137.689 185.116 138.89 184.871C142.079 184.166 145.181 183.146 148.326 182.283C148.641 182.197 149.055 182.168 149.313 182.182C149.242 182.54 149.428 182.911 149.257 183.212C149.072 183.77 148.686 184.214 148.401 184.715C147.545 186.218 146.589 187.663 145.833 189.223C145.234 190.74 144.893 192.271 144.495 193.902C143.483 196.378 142.514 199.01 141.502 201.486C140.662 204.591 139.78 207.538 138.94 210.643C138.5 213.046 137.903 215.493 137.463 217.896C137.392 218.254 137.735 218.582 137.922 218.954C138.193 218.71 138.565 218.524 138.636 218.166C138.906 216.993 139.076 215.763 139.403 214.489C139.787 213.116 140.429 211.756 141.014 210.497C141.014 210.497 140.713 210.326 140.513 210.212C142.897 207.191 142.863 203.057 144.846 199.808C144.903 199.708 144.459 199.322 144.216 199.051C145.3 197.147 146.542 195.201 147.526 193.24C147.754 192.839 147.381 192.096 147.209 191.467C148.521 189.162 149.891 186.758 151.204 184.453C152.902 181.705 154.973 179.7 158.175 178.737C162.007 177.602 165.235 175.195 168.407 172.888C169.536 172.071 170.865 171.369 172.137 170.766C173.138 170.407 174.111 170.563 174.355 171.764ZM240.229 139.751C241.431 140.436 241.275 141.409 240.318 141.925C238.389 143.215 236.173 144.076 234.244 145.366C231.458 147.229 228.255 148.192 225.685 150.841C223.443 153.147 219.525 153.967 216.409 155.245C215.137 155.847 214.107 155.791 213.995 157.851C213.927 160.068 211.44 161.172 209.525 162.205C208.725 162.678 207.481 162.765 207.138 163.367C205.926 165.728 204.455 167.146 201.781 167.879C199.737 168.44 198.094 170.158 195.762 169.361C189.874 172.243 184.406 169.262 178.727 168.283C178.269 168.155 177.424 167.541 177.539 167.34C177.624 166.725 178.023 166.024 178.509 165.637C182.037 162.472 185.608 159.463 187.905 155.198C189.161 152.994 191.604 151.732 192.774 149.213C193.13 148.355 195.003 148.095 196.218 147.592C196.69 147.463 197.319 147.29 197.791 147.161C198.263 147.032 198.892 146.859 199.364 146.73C199.835 146.6 200.464 146.428 200.936 146.299C201.408 146.169 202.037 145.997 202.509 145.867C202.981 145.738 203.61 145.566 204.081 145.436C204.553 145.307 205.182 145.134 205.654 145.005C207.227 144.574 208.799 144.142 210.372 143.711C213.646 143.321 216.964 143.087 220.239 142.696C221.64 142.566 222.985 142.535 224.386 142.405C225.787 142.274 227.132 142.244 228.533 142.113C229.834 141.925 231.035 141.68 232.337 141.493C232.494 141.45 232.879 141.006 232.836 140.848C232.593 140.577 232.306 140.148 232.049 140.134C230.704 140.165 229.403 140.353 228.102 140.54C226.7 140.671 225.356 140.701 223.955 140.832C222.553 140.963 221.209 140.993 219.808 141.124C216.432 140.528 213.272 141.648 209.941 142.139C208.067 142.399 206.094 142.602 204.221 142.862C203.749 142.991 203.12 143.163 202.648 143.293C202.176 143.422 201.547 143.595 201.076 143.724C200.604 143.853 199.975 144.026 199.503 144.155C199.031 144.285 198.402 144.457 197.93 144.587C197.459 144.716 196.83 144.888 196.358 145.018C196.285 144.446 195.913 143.703 196.098 143.145C197.609 140.025 199.622 137.19 200.389 133.513C200.985 130.137 202.186 129.893 206.205 130.059C211.154 130.223 215.946 130.431 220.283 133.3C221.228 133.971 222.672 133.998 223.96 134.067C229.881 134.388 235.119 136.841 240.229 139.751ZM211.84 98.5007C214.886 98.5108 217.573 97.5203 220.275 96.2723C224.677 94.1352 229.567 93.4706 234.501 92.9632C236.16 92.8465 237.206 94.5041 236.307 95.8497C231.825 102.32 229.862 109.96 225.838 116.559C225.153 117.761 224.855 119.449 223.025 119.867C222.138 120.025 222.14 120.955 222.756 121.969C223.889 123.942 222.722 128.32 221.164 129.423C220.893 129.667 220.178 129.524 219.62 129.339C214.955 127.744 210.235 127.178 205.386 127.071C203.427 127.016 202.323 125.459 203.079 123.899C203.949 122.138 204.962 120.592 205.933 118.889C206.133 119.003 206.434 119.175 206.434 119.175C210.09 115.551 213.803 111.827 217.359 108.147C218.303 107.888 221.217 105.567 222.217 104.279C223.16 104.02 226.075 101.699 227.074 100.41C229.049 101.137 228.746 99.1067 229.46 98.3191C229.102 98.2481 228.658 97.8625 228.444 98.0059C227.586 98.5791 226.829 99.2095 226.072 99.8398C224.629 100.743 223.229 101.803 221.785 102.706C220.314 104.124 217.869 104.456 216.928 106.574C213.099 109.569 209.17 112.506 206.072 116.315C205.801 116.558 205.529 116.802 205.158 116.988C204.928 116.459 204.441 115.916 204.612 115.616C205.979 111.352 204.715 107.049 205.152 102.786C205.279 101.399 205.808 101.169 206.679 100.339C208.351 99.0347 210.038 98.4031 211.84 98.5007ZM162.75 42.8052C170.452 48.3866 177.812 54.5692 183.972 61.9262C188.828 67.6117 192.141 74.1431 195.668 80.5312C196.227 81.646 196.101 83.0335 196.288 84.3347C196.789 84.62 197.605 84.8191 197.791 85.1907C199.817 91.6524 201.327 98.0862 201.58 104.865C201.76 111.072 201.168 117.237 199.803 123.36C199.064 126.522 197.767 129.498 196.927 132.603C195.191 138.912 191.351 144.024 188.212 149.534C186.614 152.339 184.171 154.531 182.072 157.051C182.072 157.051 181.772 156.88 181.571 156.766C180.461 160.114 177.23 161.592 174.988 163.897C170.661 168.466 165.158 170.904 160.028 174.087C159.656 174.273 158.941 174.131 158.426 174.103C157.314 176.522 154.611 176.84 152.553 177.658C147.807 179.467 142.789 180.589 137.814 181.869C137.184 182.041 136.44 181.485 135.782 181.242C132.781 183.249 129.519 182.452 126.259 182.586C119.723 183.11 113.371 181.216 106.919 180.195C103.901 179.67 101.038 178.173 98.2188 176.832C96.1008 175.891 94.239 174.034 92.0931 173.608C89.5896 173.111 88.457 171.139 86.4963 170.155C84.4354 169.114 82.3174 168.173 80.4847 166.731C75.588 162.747 70.5771 158.964 66.7799 153.749C64.6162 150.792 62.195 147.82 60.0884 144.762C57.0217 140.362 55.0128 135.502 53.161 130.599C50.7348 123.909 49.1519 116.903 49.1277 109.724C49.0325 102.902 49.4953 96.2649 51.045 89.5837C52.0975 85.4061 53.7081 81.4137 54.6605 77.179C55.3428 74.1174 57.5558 71.397 59.254 68.6487C64.2482 60.3466 70.7745 53.3154 78.5754 47.5409C90.6198 38.7429 102.354 32.82 114.894 31.0722C120.256 30.2781 125.877 30.4277 131.47 31.0922C137.778 31.8987 143.287 34.1079 149.182 35.8732C154.362 37.4965 158.827 39.9073 162.75 42.8052Z" fill="#DCBF6F"/>
<path d="M150.344 48.7433C150.173 49.0439 149.945 49.4447 149.774 49.7453C147.585 49.1619 148.031 51.4067 147.06 52.1803C146.759 52.0091 146.358 51.7809 146.058 51.6096C146.279 46.5608 143 43.2329 138.908 42.4949C133.229 41.5159 127.32 40.008 121.301 41.4894C119.613 41.1914 118.728 42.2796 118.086 43.6392C117.388 45.0989 116.846 46.5156 116.304 47.9322C115.833 48.0616 115.204 48.2341 114.732 48.3634C114.488 48.092 114.245 47.8206 114.159 47.5061C112.852 43.9753 112.509 43.6469 109.191 43.8803C108.104 43.9247 106.946 44.3267 105.902 44.5284C101.999 45.0916 99.1996 48.1417 95.6689 49.4481C94.7976 50.2788 93.8261 51.0525 92.9548 51.8832C89.8793 51.4584 88.6961 54.2346 86.6669 55.4673C84.6378 56.7001 83.6676 58.4034 83.055 60.1777C82.2713 62.2525 83.4039 64.2246 84.9651 65.9101C84.4933 66.0395 83.8643 66.212 83.3925 66.3413C80.8014 64.6001 78.0531 62.9019 75.0525 64.9083C73.7094 65.8684 71.7513 66.7436 71.3822 68.7892C69.8414 71.4944 68.3575 74.0994 66.8167 76.8046C63.8186 80.6703 62.9956 85.3768 61.9722 89.9691C60.8207 95.0193 62.283 97.5773 67.1341 99.5443C67.4347 99.7155 67.8354 99.9438 68.136 100.115C67.9648 100.416 67.7365 100.816 67.5653 101.117C65.5209 101.678 63.3193 102.281 61.2748 102.842C60.5329 104.144 59.734 105.547 58.9921 106.85C58.8298 113.657 59.5541 120.307 61.5225 126.869C61.9106 128.284 61.7699 129.929 63.4871 130.642C65.3476 131.569 67.0217 132.124 68.9368 131.092C69.4086 130.963 70.0376 130.79 70.5094 130.661C70.6388 131.132 70.8113 131.762 70.9406 132.233C66.9685 135.013 66.4841 136.33 67.7055 140.476C68.4385 143.149 70.3714 144.648 72.2471 146.247C73.6258 150.35 76.3475 153.493 79.8834 155.905C85.4092 159.716 86.1676 160.015 89.5716 160.096C89.8874 160.94 90.2032 161.783 90.7334 162.483C91.2635 163.183 91.8507 163.783 92.4379 164.383C92.5673 164.855 92.7398 165.484 92.8691 165.956C93.1697 166.127 93.5705 166.355 93.8711 166.526C94.1716 166.698 94.5724 166.926 94.873 167.097C96.1755 167.839 97.5782 168.638 98.8807 169.38C100.183 170.122 101.586 170.921 102.888 171.663C103.46 171.59 104.204 171.217 104.762 171.403C109.483 172.898 114.19 173.721 118.906 171.497C119.648 170.195 120.447 168.792 121.189 167.49C121.49 167.661 121.89 167.889 122.191 168.06C122.32 168.532 122.493 169.161 122.622 169.633C122.651 170.048 122.61 170.82 122.753 171.034C124.299 172.048 125.845 173.061 127.562 173.774C128.822 174.358 130.209 174.485 131.539 174.712C131.711 174.412 131.939 174.011 132.11 173.71C132.768 173.953 133.513 174.509 134.142 174.337C136.501 173.69 138.716 172.829 140.975 172.125C141.447 171.996 142.076 171.823 142.548 171.694C143.649 171.392 144.592 171.133 145.693 170.831C146.165 170.702 146.794 170.529 147.266 170.4C147.437 170.099 147.665 169.699 147.836 169.398C148.308 169.269 148.937 169.096 149.409 168.967C149.881 168.837 150.51 168.665 150.982 168.536C151.282 168.707 151.683 168.935 151.983 169.106C152.383 168.405 152.725 167.804 153.125 167.102C153.597 166.973 154.226 166.801 154.697 166.671C154.869 166.371 155.097 165.97 155.268 165.669C157.113 165.924 158.427 164.549 159.055 163.447C159.697 162.088 159.222 160.358 159.263 158.656C159.835 158.584 160.507 158.568 161.036 158.339C161.508 158.209 161.936 157.923 162.408 157.793C163.566 157.391 164.738 156.732 165.939 156.487C167.14 156.242 167.897 155.612 168.268 154.496C168.468 154.61 168.768 154.781 168.768 154.781C172.139 151.659 176.155 149.036 178.051 144.542C178.35 143.784 179.107 143.154 179.807 142.624C182.692 139.888 183.59 137.613 183.44 132.75C183.311 132.278 183.139 131.649 183.009 131.178C182.891 128.589 181.202 127.361 179.141 126.32C179.312 126.02 179.54 125.619 179.712 125.318C181.358 126.389 183.117 126.329 184.861 125.597C185.39 125.368 186.219 125.309 186.548 124.966C187.39 123.72 187.974 122.461 188.716 121.158C188.473 120.887 188.129 120.558 188.143 120.301C188.195 116.482 189.52 112.991 190.13 109.357C190.598 106.439 191.738 103.506 189.832 100.562C190.003 100.261 190.231 99.8606 190.403 99.5601C188.399 98.4187 186.395 97.2773 184.391 96.1359C184.562 95.8353 184.791 95.4346 184.962 95.134C185.133 94.8334 185.361 94.4326 185.532 94.1321C186.004 94.0027 186.72 94.1447 186.991 93.9012C189.218 90.9233 188.884 87.5485 187.45 84.4756C185.456 80.2879 183.248 76.2435 180.668 72.3855C179.565 70.8281 177.661 69.7438 175.801 68.8167C175.099 68.4173 173.914 69.3342 172.813 69.6361C172.113 70.1662 171.37 70.5391 170.67 71.0692C170.54 70.5974 170.368 69.9684 170.238 69.4966C171.208 67.7933 172.122 66.1903 173.092 64.487C172.89 63.4432 172.903 62.2561 172.329 61.3988C170.166 58.4413 167.945 55.584 164.353 54.2016C164.053 54.0304 163.595 53.9023 163.351 53.6309C159.569 49.0881 156.937 48.1192 150.344 48.7433ZM118.733 45.9981C118.974 44.4102 120.604 43.8788 121.732 43.062C126.751 41.9396 131.545 44.0067 136.565 43.8139C138.581 43.7682 141.058 45.7098 142.72 47.4524C144.238 48.9806 144.884 51.3395 143.515 53.7441C143.058 54.5457 141.615 55.4487 143.204 56.6193C142.805 57.3206 142.462 57.9218 142.063 58.6231C141.051 61.0987 140.082 63.7316 139.07 66.2073C138.67 66.9086 138.328 67.5098 137.928 68.2111C137.672 69.1268 136.343 69.8294 137.789 70.7857C136.777 73.2613 135.808 75.8942 134.796 78.3698C134.626 79.6 132.468 80.361 134.086 81.9463C133.686 82.6476 133.344 83.2488 132.944 83.9501C132.431 84.8519 131.76 85.7967 131.346 86.7555C131.218 87.2134 131.491 87.8995 131.664 88.5285C130.922 89.831 130.123 91.2337 129.381 92.5362C128.867 93.438 128.397 94.497 127.783 95.3416C127.454 95.6853 126.725 95.8007 126.096 95.9732C125.478 94.029 124.704 92.1279 124.086 90.1837C123.239 87.7107 122.492 85.2947 121.644 82.8216C121.816 82.521 122.044 82.1202 122.215 81.8197C121.653 78.8456 121.191 75.9287 120.63 72.9546C120.169 70.9673 120.023 68.8937 119.406 66.9495C118.4 63.5899 118.638 60.1428 118.362 56.6679C118.245 55.009 119.63 53.2765 118.269 51.7052C118.424 49.8028 118.478 47.8434 118.733 45.9981ZM133.11 99.9681C133.64 100.668 134.013 101.411 134.543 102.111C133.787 103.671 135.288 103.598 135.976 104.255C132.718 106.247 132.761 106.404 134.124 109.835C133.953 110.136 133.725 110.536 133.554 110.837C133.382 111.138 133.154 111.538 132.983 111.839C132.682 111.668 132.282 111.439 131.981 111.268C130.008 111.471 129.437 112.473 130.269 114.274C130.17 115.147 130.228 115.976 130.129 116.849C129.228 116.335 128.283 115.664 127.324 115.251C126.866 115.122 126.18 115.395 125.551 115.568C125.152 116.269 124.809 116.87 124.41 117.572C124.238 117.872 124.01 118.273 123.839 118.573C123.538 118.402 123.138 118.174 122.837 118.003C121.962 116.045 120.789 115.774 119.261 117.293C118.96 117.121 118.559 116.893 118.259 116.722C118.129 116.25 117.957 115.621 117.827 115.149C118.583 113.589 117.082 113.663 116.394 113.006C115.092 112.264 116.221 111.447 116.363 110.732C116.448 110.117 116.218 109.588 116.103 108.859C115.401 108.459 114.8 108.117 114.099 107.717C114.27 107.417 114.498 107.016 114.669 106.715C115.556 106.557 116.442 106.398 117.372 106.397C119.589 106.466 118.543 104.808 118.956 103.849C119.656 103.319 120.399 102.946 121.099 102.416C121.571 102.287 122.2 102.114 122.672 101.985C122.843 101.684 123.071 101.283 123.243 100.983C123.414 100.682 123.642 100.282 123.813 99.9809C123.985 99.6804 124.213 99.2796 124.384 98.979C125.614 99.1489 126.375 101.307 127.96 99.6892C128.489 99.4596 129.219 99.3442 129.704 98.9574C130.304 98.3701 130.374 97.0829 131.676 97.8248C131.735 98.6542 131.893 99.5407 131.952 100.37C132.366 100.341 132.738 100.155 133.11 99.9681ZM113.763 112.967C113.991 112.566 114.119 112.108 113.832 111.679C114.219 112.165 113.991 112.566 113.763 112.967ZM87.4395 65.9925C86.7381 65.593 86.137 65.2506 85.4356 64.8511C85.2327 62.8777 85.0297 60.9043 84.8268 58.9309C87.7995 57.4394 89.0525 53.3759 92.9422 53.0702C93.1996 53.0842 93.4279 52.6834 93.7995 52.497C94.4996 51.9669 95.2428 51.594 95.9428 51.0638C98.2726 50.0023 100.703 48.9978 102.989 47.779C103.89 47.3629 104.761 46.5322 105.762 46.1733C111.28 44.4066 112.611 45.5632 112.906 51.5696C112.935 51.9843 113.221 52.413 113.451 52.9418C113.582 54.3432 113.612 55.6876 113.743 57.089C113.644 57.9615 113.702 58.791 113.603 59.6635C114.336 62.337 115.026 64.8532 115.759 67.5266C115.089 68.4715 114.933 69.4442 115.335 70.6021C116.168 73.3327 116.687 76.1494 117.205 78.9662C117.566 80.8965 118.026 82.8838 118.386 84.8141C119.35 88.946 120.314 93.0779 121.378 97.2669C121.279 98.1395 121.338 98.9689 121.239 99.8415C120.554 101.044 119.395 100.516 119.279 99.787C118.962 98.014 117.374 97.773 116.229 96.988C115.929 96.8168 115.528 96.5885 115.227 96.4173C113.865 93.9163 110.212 89.8453 107.922 88.2753C107.221 87.8758 106.62 87.5334 105.918 87.1339C106.502 84.9449 104.257 85.3913 103.483 84.4199C104.239 82.8599 102.737 82.9335 102.05 82.2766C101.349 81.8771 100.747 81.5347 100.046 81.1352C101.044 78.917 98.0701 79.4789 97.7391 77.9633C97.351 76.548 95.862 75.4345 94.7878 74.2918C92.4098 71.4776 89.9747 68.7636 87.4395 65.9925ZM63.6806 94.6578C64.1181 90.3952 63.9404 86.0477 66.2663 82.1972C67.2365 80.494 69.5371 79.0177 68.3322 76.4736C69.6448 74.1692 71.0145 71.7646 72.3271 69.4601C73.6296 70.202 73.9999 69.086 74.2992 68.3275C75.0398 66.0954 77.0563 66.0497 78.8293 65.7326C79.3011 65.6033 80.246 66.2742 80.3753 66.746C81.0501 68.59 83.0095 68.6445 84.241 69.744C84.1269 69.9444 83.9557 70.245 83.9557 70.245C86.3755 72.2868 88.0813 75.1163 91.115 76.3134C91.9052 78.8867 93.7239 80.5861 95.9852 81.7415C95.2293 83.3014 96.7309 83.2278 97.4183 83.8848C98.1197 84.2843 98.7208 84.6267 99.4222 85.0262C98.6663 86.5861 100.168 86.5125 100.855 87.1695C100.784 87.5271 100.599 88.0852 100.8 88.1993C105.166 91.4827 108.662 95.5968 112.599 99.1669C113.301 99.5664 113.902 99.9088 114.603 100.308C113.847 101.868 115.349 101.795 116.036 102.452C117.571 105.582 117.799 105.181 114.324 105.457C113.853 105.587 113.224 105.759 112.752 105.889C112.05 105.489 111.449 105.147 110.748 104.747C109.832 104.491 109.13 103.162 108.173 104.608C106.299 103.938 104.468 103.426 102.593 102.756C100.49 102.487 98.3305 102.319 96.3419 101.85C92.2784 100.597 87.9448 100.517 83.7963 99.8789C78.06 99 72.2667 98.2214 66.5025 97.8575C64.7142 97.5025 63.4396 96.2456 63.6806 94.6578ZM62.4483 124.079C62.2859 120.403 62.2808 116.685 61.0746 113.211C60.2705 110.895 61.8406 108.605 60.5647 106.418C60.9642 105.717 61.3066 105.116 61.7061 104.414C66.9946 102.119 68.3111 102.603 76.0778 103.179C81.5275 103.629 86.8351 104.795 92.3558 104.887C93.5429 104.9 94.4041 107.115 95.7458 105.226C96.0464 105.397 96.4472 105.625 96.7478 105.796C98.2646 106.395 101.955 106.905 102.899 106.646C105.603 107.257 108.35 108.026 111.054 108.637C111.827 109.608 114.072 109.162 113.489 111.351C112.217 111.953 111.045 112.613 109.773 113.215C109.602 113.516 109.373 113.917 109.202 114.217C107.085 114.206 105.069 114.252 103.914 116.513C102.341 116.944 100.768 117.375 99.1957 117.807C96.351 118.84 93.6065 119.931 90.7619 120.965C89.2019 120.209 89.2755 121.71 88.6186 122.398C86.5742 122.958 84.3725 123.562 82.3281 124.123C82.1569 124.423 81.9286 124.824 81.7574 125.125C77.51 125.359 74.0668 127.91 70.1784 129.145C69.8638 129.231 69.8359 129.746 69.6077 130.147C69.3071 129.976 68.9063 129.748 68.6057 129.576C65.0585 129.281 62.5384 127.182 62.4483 124.079ZM82.4148 155.887C79.2784 152.774 76.6848 149.173 73.8198 145.816C73.0169 144.43 72.2141 143.044 71.3542 141.758C70.3941 140.415 68.5336 139.488 69.4746 137.37C70.1873 135.653 71.2006 134.106 73.0447 133.432C73.9159 132.601 74.8874 131.827 75.7587 130.997C76.8595 130.695 77.8031 130.436 78.9039 130.134C80.6477 129.402 82.4486 128.57 84.1925 127.839C87.3961 127.806 89.7385 125.557 92.6263 124.681C92.7975 124.38 93.0257 123.979 93.1969 123.679C93.6687 123.549 94.2978 123.377 94.7696 123.247C96.814 122.687 99.0156 122.083 101.06 121.522C105.877 119.356 110.536 117.233 115.353 115.067C115.524 114.766 115.753 114.366 115.924 114.065C116.224 114.236 116.625 114.464 116.926 114.636C116.184 115.938 115.442 117.241 114.643 118.643C113.787 120.146 112.931 121.649 112.075 123.152C111.333 124.454 110.634 125.914 109.792 127.16C108.893 128.505 108.681 130.508 106.45 130.697C107.626 132.826 105.152 132.744 104.581 133.746C101.542 139.313 98.4605 144.724 95.3217 150.234C94.5798 151.537 93.7808 152.94 93.0389 154.242C92.51 154.472 91.6806 154.53 91.2951 154.974C88.5253 158.439 85.394 159.044 82.4148 155.887ZM118.615 167.35C118.158 168.152 117.745 169.111 117.188 169.855C116.802 170.299 115.988 171.03 115.63 170.959C112.726 170.233 109.609 170.581 106.691 170.113C102.342 169.361 99.2916 166.562 95.6136 164.865C95.1127 164.58 94.9541 163.693 94.5242 163.05C94.651 161.663 94.4201 160.204 95.5767 158.872C96.6332 157.484 97.2888 155.867 98.0878 154.464C99.2013 152.975 101.087 151.528 101.328 149.94C101.554 147.68 103.025 146.262 103.952 144.402C104.779 142.484 106.007 140.795 107.091 138.891C108.175 136.987 109.145 135.284 110.23 133.38C110.759 133.151 111.588 133.093 111.916 132.749C113.101 130.902 114.142 128.841 115.226 126.938C116.71 124.333 118.194 121.728 119.678 119.123C120.648 117.419 121.508 118.705 122.367 119.062C122.081 119.563 121.538 120.05 121.511 120.565C121.008 129.833 120.607 139.158 120.262 148.384C120.585 154.805 120.551 161.155 118.615 167.35ZM154.493 153.285C155.225 155.029 156.057 156.83 156.789 158.573C158.152 162.004 158.195 162.161 154.937 164.154C153.494 165.057 152.094 166.117 150.65 167.02C149.95 167.55 149.207 167.923 148.507 168.453C148.035 168.583 147.406 168.755 146.935 168.884C145.375 168.129 145.448 169.63 144.791 170.318C144.319 170.447 143.69 170.619 143.219 170.749C142.918 170.578 142.517 170.349 142.217 170.178C140.657 169.422 140.73 170.924 140.073 171.611C137.328 171.772 134.525 172.034 131.779 172.195C129.277 172.627 127.315 170.714 125.055 170.488C124.797 170.474 124.482 169.631 124.195 169.202C123.948 166.142 124.258 163.266 124.526 160.234C125.119 154.999 124.84 149.664 125.019 144.458C125.43 141.64 125.111 138.938 124.435 136.164C124.692 135.248 126.021 134.546 124.575 133.589C124.746 133.289 124.974 132.888 125.145 132.588C125.301 131.615 125.729 130.399 125.47 129.455C124.651 126.467 126.721 123.532 125.272 120.717C125.443 120.416 125.672 120.015 125.843 119.715C125.713 119.243 125.541 118.614 125.412 118.142C125.583 117.842 125.811 117.441 125.982 117.14C126.556 117.998 127.569 116.452 128.515 118.052C131.626 123.54 135.48 128.655 139.02 133.856C139.564 134.298 140.266 134.698 140.652 135.183C142.115 137.741 144.163 139.97 146.325 141.998C146.355 142.412 146.27 143.027 146.456 143.399C147.33 144.428 148.261 145.356 149.192 146.284C149.893 146.684 150.494 147.026 151.196 147.426C150.44 148.986 151.941 148.912 152.629 149.569C152.116 151.4 152.876 152.629 154.493 153.285ZM181.494 131.509C181.794 131.68 182.195 131.908 182.496 132.079C182.324 132.38 182.096 132.781 181.925 133.081C181.826 133.954 182.085 134.897 181.728 135.756C178.648 142.096 174.78 147.722 169.323 152.177C168.894 152.464 168.365 152.694 167.936 152.98C167.765 153.281 167.537 153.682 167.366 153.982C166.894 154.112 166.265 154.284 165.793 154.413C162.319 155.62 162.276 155.462 159.827 153.006C157.035 150.221 155.099 146.862 153.05 143.705C152.72 143.119 151.961 142.819 151.474 142.277C151.545 141.919 151.731 141.361 151.53 141.247C147.19 136.519 142.807 131.634 139.439 126.132C138.737 125.732 138.136 125.39 137.435 124.991C137.175 123.117 136.329 121.574 134.568 120.704C134.336 118.316 132.246 116.86 131.271 114.845C131.67 114.143 132.013 113.542 132.412 112.841C133.715 113.583 134.86 114.368 136.22 115.009C136.62 115.238 137.364 114.865 137.993 114.692C138.994 115.263 139.996 115.834 140.998 116.404C144.476 117.987 148.111 119.527 151.588 121.109C152.49 121.623 153.435 122.294 154.394 122.707C154.851 122.836 155.538 122.563 156.167 122.39C157.068 122.904 158.013 123.575 158.972 123.988C159.43 124.116 160.116 123.844 160.745 123.671C163.221 124.683 165.854 125.652 168.329 126.664C171.562 127.046 174.753 128.2 178.1 128.381C179.645 128.465 180.805 129.922 181.494 131.509ZM188.316 100.893C189.968 105.682 188.172 110.232 187.005 114.61C186.166 117.715 187.158 121.332 184.487 123.924C184.315 124.225 184.087 124.626 183.916 124.926C181.212 124.315 178.465 123.547 175.761 122.935C174.531 122.765 173.77 120.607 172.185 122.225C171.483 121.826 170.882 121.483 170.181 121.084C169.709 121.213 169.08 121.386 168.608 121.515C168.308 121.344 167.907 121.116 167.606 120.944C165.618 120.475 163.729 120.063 161.741 119.594C161.741 119.594 161.569 119.894 161.455 120.095C160.553 119.581 159.609 118.91 158.65 118.497C158.192 118.369 157.506 118.641 156.877 118.814C155.875 118.243 154.873 117.672 153.871 117.102C151.967 116.017 150.021 114.776 148.06 113.792C147.659 113.563 146.916 113.936 146.287 114.109C145.285 113.538 144.283 112.967 143.281 112.397C142.58 111.997 141.979 111.655 141.277 111.255C139.674 110.342 138.071 109.429 136.468 108.516C134.865 107.603 136.051 106.686 136.407 105.827C136.708 105.999 137.108 106.227 137.409 106.398C139.396 105.938 141.427 105.634 143.414 105.174C145.973 104.641 148.433 104.052 150.992 103.519C153.966 102.957 156.883 102.495 159.857 101.933C160.729 102.032 161.559 101.974 162.431 102.073C165.405 101.511 168.322 101.049 171.296 100.487C174.914 99.4956 178.688 98.4607 182.305 97.4689C183.106 97.9254 184.238 98.9679 184.767 98.7383C187.096 97.6768 187.399 99.7072 188.316 100.893ZM173.401 71.1656C176.805 71.2467 179.067 72.402 180.416 76.0901C181.852 80.0926 185.031 83.3634 186.082 87.8098C186.542 89.7972 186.057 91.1136 185.101 92.5594C184.401 93.0896 183.658 93.4624 182.958 93.9926C179.984 94.5545 177.067 95.0162 174.093 95.578C169.246 96.3999 164.355 97.0646 159.508 97.8865C155.074 97.7496 150.771 99.0141 146.525 100.178C143.38 101.041 140.249 101.646 137.06 102.351C135.614 101.395 136.943 100.692 137.2 99.7765C139.389 100.36 138.942 98.1151 139.914 97.3415C140.385 97.2121 141.015 97.0396 141.486 96.9102C141.657 96.6097 141.886 96.2089 142.057 95.9083C143.617 96.6642 143.543 95.1626 144.2 94.4752C144.372 94.1746 144.6 93.7738 144.771 93.4732C147.557 91.6101 150.186 89.7902 152.342 87.1699C152.7 87.2409 153.258 87.4261 153.315 87.3259C154.671 85.1787 156.886 84.3175 158.772 82.8704C160.043 81.3384 161.357 79.9636 162.628 78.4315C163.9 77.8291 165.072 77.1696 166.344 76.5671C166.943 75.9799 167.644 75.4498 168.3 74.7624C168.843 74.2754 169.186 73.6742 169.628 73.1301C170.957 72.4275 172.129 71.768 173.401 71.1656ZM161.936 54.0191C161.137 55.4218 162.525 55.5486 163.169 56.0482C165.159 57.4471 167.106 58.6887 168.824 60.331C170.399 61.759 170.187 63.7616 171.619 64.9753C170.349 66.5073 169.035 67.8821 167.764 69.4142C166.893 70.2449 165.921 71.0186 165.05 71.8493C164.879 72.1499 164.65 72.5506 164.479 72.8512C162.919 72.0954 162.993 73.597 162.336 74.2844C162.165 74.5849 161.936 74.9857 161.765 75.2863C159.576 74.7029 160.023 76.9477 159.051 77.7214C157.491 76.9655 157.565 78.4671 156.908 79.1545C154.633 78.2566 155.238 81.3879 153.264 81.5909C152.02 81.6784 150.993 83.4819 149.907 84.4559C149.736 84.7565 149.508 85.1573 149.337 85.4578C148.393 85.7166 145.479 88.0375 144.479 89.3261C142.919 88.5702 142.993 90.0718 142.336 90.7592C142.165 91.0598 141.936 91.4606 141.765 91.7611C141.351 91.7903 140.735 91.7054 140.364 91.8918C139.335 92.7656 138.407 93.6965 137.479 94.6275C137.307 94.928 137.079 95.3288 136.908 95.6294C135.348 94.8735 135.422 96.3751 134.765 97.0625C134.365 97.7639 134.023 98.365 133.623 99.0664C133.494 98.5946 133.321 97.9655 133.192 97.4938C133.063 97.022 132.89 96.3929 132.761 95.9211C133.331 94.9192 133.902 93.9173 134.473 92.9154C134.729 91.9997 136.058 91.2971 134.612 90.3408C135.012 89.6395 135.354 89.0383 135.754 88.337C136.01 87.4213 137.339 86.7187 135.893 85.7624C136.464 84.7605 137.035 83.7586 137.605 82.7567C137.775 81.5265 139.934 80.7655 138.315 79.1802C139.286 77.4769 140.199 75.8738 141.169 74.1706C142.823 70.3353 144.419 66.6003 146.073 62.7651C146.13 62.6649 145.686 62.2794 145.443 62.008C146.013 61.0061 146.584 60.0041 147.155 59.0022C146.75 55.9851 148.978 53.9368 150.148 51.4181C150.319 51.1175 150.547 50.7167 150.718 50.4161C155.151 49.6234 158.429 52.0216 161.936 54.0191Z" fill="#DCBF6F"/>
</g>
<defs>
<clipPath id="clip0_408_298">
<rect width="192.215" height="199.594" fill="white" transform="translate(0.408905 167.299) rotate(-60.3342)"/>
</clipPath>
</defs>
</svg>
