<svg width="37" height="27" viewBox="0 0 37 27" fill="none" xmlns="http://www.w3.org/2000/svg">
<path d="M34.2634 5.60971C33.8951 4.17332 32.7902 3.03158 31.3538 2.62645C28.7757 2.00033 18.4632 2.00033 18.4632 2.00033C18.4632 2.00033 8.1875 1.9635 5.60937 2.66328C4.17299 3.06841 3.06808 4.21016 2.69978 5.64654C2.22098 8.26149 2 10.9133 2 13.5651C2 16.2537 2.22098 18.9055 2.69978 21.5573C3.10491 22.9568 4.20982 24.0617 5.60937 24.43C8.1875 25.1298 18.5 25.1298 18.5 25.1298C18.5 25.1298 28.8125 25.1298 31.3906 24.43C32.827 24.0249 33.9319 22.8831 34.3002 21.4468C34.779 18.8686 35 16.2169 35 13.6019C34.9632 10.9133 34.7422 8.22466 34.2634 5.60971Z" stroke="white" stroke-width="2.2" stroke-linecap="round" stroke-linejoin="round"/>
<path d="M15.1118 18.4636L23.7301 13.5651L15.1118 8.66669V18.4636Z" stroke="white" stroke-width="2.2" stroke-linecap="round" stroke-linejoin="round"/>
</svg>
