<svg width="184" height="184" viewBox="0 0 184 184" fill="none" xmlns="http://www.w3.org/2000/svg">
<path d="M90.549 183.95C90.549 183.549 90.549 183.147 90.549 182.746C99.9593 182.746 109.169 182.947 118.58 182.746C153.818 181.943 181.248 155.256 182.449 119.941C183.05 101.481 183.25 83.2214 182.65 64.7612C181.849 27.6401 154.619 0.953108 117.378 0.150491C100.36 -0.0501636 83.3411 -0.0501636 66.3225 0.150491C32.2853 0.551799 5.45596 23.0251 1.65181 56.735C-0.750821 78.807 -0.150164 101.481 1.05115 123.754C2.85312 151.644 20.6726 173.115 47.7021 179.937C61.5172 183.348 76.3334 182.746 90.549 183.95Z" fill="white"/>
<path d="M90.549 183.95C76.3334 182.746 61.7175 183.348 47.9024 179.937C20.8728 173.115 2.85312 151.644 1.25137 123.754C-0.150163 101.481 -0.550601 78.807 1.85202 56.735C5.45596 23.0251 32.4855 0.551799 66.3225 0.150491C83.3411 -0.0501636 100.36 -0.0501636 117.378 0.150491C154.619 0.953108 181.849 27.4395 182.85 64.5605C183.451 83.0207 183.25 101.28 182.65 119.74C181.448 155.056 154.018 181.743 118.78 182.545C109.37 182.746 100.159 182.545 90.7492 182.545C90.549 183.147 90.549 183.549 90.549 183.95ZM170.236 91.2475C170.036 81.8168 170.236 72.5867 170.036 63.1559C169.235 37.2715 149.614 15.1996 123.986 13.5943C103.363 12.3904 82.5402 12.1897 61.9177 13.193C34.0873 14.5976 13.6649 36.8702 13.2645 64.7612C12.8641 82.8201 13.0643 100.879 13.4647 118.938C14.0654 147.631 35.689 169.302 64.5205 170.105C81.9396 170.506 99.1584 170.506 116.577 170.305C147.411 170.105 170.236 147.23 170.236 116.329C170.236 107.902 170.236 99.4744 170.236 91.2475Z" fill="#0A483A"/>
<path d="M170.236 91.2477C170.236 99.6752 170.236 107.902 170.236 116.33C170.236 147.23 147.411 170.105 116.577 170.306C99.1583 170.506 81.9395 170.506 64.5205 170.105C35.689 169.302 14.0653 147.632 13.4647 118.938C13.0642 100.879 13.0642 82.8203 13.2644 64.7614C13.6649 36.8704 34.0872 14.5978 61.9176 13.1932C82.5402 12.1899 103.363 12.1899 123.985 13.5945C149.613 15.1998 169.435 37.2717 170.036 63.1561C170.236 72.3862 170.036 81.817 170.236 91.2477ZM91.55 132.382C102.962 132.181 114.175 132.583 125.587 132.181C139.603 131.78 149.413 121.747 149.814 108.103C150.214 98.07 150.214 88.0373 150.014 78.0046C149.413 60.7483 140.403 51.1169 123.385 50.7156C101.761 50.3143 79.9373 50.3143 58.3137 50.7156C44.2984 50.9162 34.0872 60.9489 33.4866 74.5934C33.0861 85.2281 33.0861 96.0634 33.2863 106.698C33.887 122.349 43.6977 131.78 59.515 132.382C70.1266 132.583 80.9384 132.382 91.55 132.382Z" fill="white"/>
<path d="M91.5501 132.382C80.9385 132.382 70.1267 132.583 59.5151 132.382C43.6978 131.78 33.8871 122.349 33.2864 106.698C32.886 96.0635 32.886 85.2282 33.4866 74.5935C34.0873 61.1496 44.2984 50.9163 58.3138 50.7156C79.9374 50.3143 101.761 50.1136 123.385 50.7156C140.403 51.1169 149.413 60.7483 150.014 78.0046C150.414 88.0373 150.214 98.07 149.814 108.103C149.413 121.948 139.402 131.78 125.587 132.181C114.175 132.583 102.963 132.181 91.5501 132.382ZM77.735 73.3895C77.735 86.8334 77.735 97.2674 77.735 110.31C90.1485 104.29 101.161 98.8726 114.375 92.4517C101.361 85.8301 90.7492 80.2118 77.735 73.3895Z" fill="#0A483A"/>
<path d="M77.735 73.3894C90.7492 80.2117 101.361 85.83 114.375 92.6522C100.96 99.0732 90.1486 104.29 77.735 110.31C77.735 97.2673 77.735 86.8332 77.735 73.3894Z" fill="white"/>
</svg>
