<svg width="184" height="184" fill="none" xmlns="http://www.w3.org/2000/svg"><path d="M90.549 183.95v-1.204c9.41 0 18.62.201 28.031 0 35.238-.803 62.668-27.49 63.869-62.805.601-18.46.801-36.72.201-55.18-.801-37.12-28.031-63.808-65.272-64.61C100.36-.05 83.341-.05 66.323.15 32.285.55 5.456 23.024 1.651 56.734c-2.403 22.072-1.802 44.746-.6 67.019 1.801 27.89 19.62 49.361 46.65 56.183 13.815 3.411 28.631 2.809 42.847 4.013Z" fill="#fff"/><path d="M90.549 183.95c-14.216-1.204-28.832-.602-42.647-4.013-27.03-6.822-45.049-28.293-46.65-56.183-1.402-22.273-1.803-44.947.6-67.019C5.456 23.025 32.486.552 66.322.15c17.02-.2 34.038-.2 51.056 0 37.241.803 64.471 27.29 65.472 64.41.601 18.46.4 36.72-.2 55.18-1.202 35.316-28.632 62.003-63.87 62.805-9.41.201-18.621 0-28.03 0-.201.602-.201 1.004-.201 1.405Zm79.687-92.702c-.2-9.431 0-18.661-.2-28.092-.801-25.884-20.422-47.956-46.05-49.562-20.623-1.204-41.446-1.404-62.068-.401-27.83 1.405-48.253 23.677-48.654 51.568-.4 18.06-.2 36.118.2 54.177.601 28.693 22.225 50.364 51.056 51.167 17.42.401 34.638.401 52.057.2 30.834-.2 53.659-23.075 53.659-53.976V91.248Z" fill="#0A483A"/><path d="M170.236 91.248v25.082c0 30.9-22.825 53.775-53.659 53.976-17.419.2-34.638.2-52.056-.201-28.832-.803-50.456-22.473-51.056-51.167-.4-18.059-.4-36.118-.2-54.177.4-27.89 20.822-50.163 48.653-51.568 20.622-1.003 41.445-1.003 62.067.402 25.628 1.605 45.45 23.677 46.051 49.561.2 9.23 0 18.661.2 28.092ZM91.55 132.382c11.412-.201 22.625.201 34.037-.201 14.016-.401 23.826-10.434 24.227-24.078.4-10.033.4-20.066.2-30.098-.601-17.257-9.611-26.888-26.629-27.29a1758.716 1758.716 0 0 0-65.071 0c-14.016.201-24.227 10.234-24.827 23.878-.4 10.635-.4 21.47-.2 32.105.6 15.651 10.41 25.082 26.228 25.684 10.612.201 21.423 0 32.035 0Z" fill="#fff"/><path d="M91.55 132.382c-10.611 0-21.423.201-32.035 0-15.817-.602-25.628-10.033-26.229-25.684-.4-10.634-.4-21.47.2-32.104.601-13.444 10.812-23.678 24.828-23.878 21.623-.402 43.447-.602 65.071 0 17.018.4 26.028 10.032 26.629 27.289.4 10.032.2 20.065-.2 30.098-.401 13.845-10.412 23.677-24.227 24.078-11.412.402-22.624 0-34.037.201ZM77.735 73.389v36.921c12.413-6.02 23.426-11.437 36.64-17.858-13.014-6.622-23.626-12.24-36.64-19.063Z" fill="#0A483A"/><path d="M77.735 73.39c13.014 6.822 23.626 12.44 36.64 19.262a7498.443 7498.443 0 0 0-36.64 17.658V73.39Z" fill="#fff"/></svg>